<?xml version="1.0"?>
<!-- Generated by SVGo and Plotinum VG -->
<svg width="16in" height="9in"
	xmlns="http://www.w3.org/2000/svg"
	xmlns:xlink="http://www.w3.org/1999/xlink">
<g transform="scale(1, -1) translate(0, -810)">
<path d="M0,0L1440,0L1440,810L0,810Z" style="fill:#FFFFFF" />
<text x="738.98" y="-5.355" transform="scale(1, -1)"
	style="font-family:Times;font-weight:normal;font-style:normal;font-size:12pt">X</text>
<text x="48.8" y="-19.025" transform="scale(1, -1)"
	style="font-family:Times;font-weight:normal;font-style:normal;font-size:10pt">0</text>
<text x="463.25" y="-19.025" transform="scale(1, -1)"
	style="font-family:Times;font-weight:normal;font-style:normal;font-size:10pt">60</text>
<text x="877.7" y="-19.025" transform="scale(1, -1)"
	style="font-family:Times;font-weight:normal;font-style:normal;font-size:10pt">120</text>
<text x="1295.3" y="-19.025" transform="scale(1, -1)"
	style="font-family:Times;font-weight:normal;font-style:normal;font-size:10pt">180</text>
<path d="M51.925,29.625L51.925,39.625" style="fill:none;stroke:#000000;stroke-width:0.625" />
<path d="M469.5,29.625L469.5,39.625" style="fill:none;stroke:#000000;stroke-width:0.625" />
<path d="M887.07,29.625L887.07,39.625" style="fill:none;stroke:#000000;stroke-width:0.625" />
<path d="M1304.6,29.625L1304.6,39.625" style="fill:none;stroke:#000000;stroke-width:0.625" />
<path d="M191.12,34.625L191.12,39.625" style="fill:none;stroke:#000000;stroke-width:0.625" />
<path d="M330.31,34.625L330.31,39.625" style="fill:none;stroke:#000000;stroke-width:0.625" />
<path d="M608.69,34.625L608.69,39.625" style="fill:none;stroke:#000000;stroke-width:0.625" />
<path d="M747.88,34.625L747.88,39.625" style="fill:none;stroke:#000000;stroke-width:0.625" />
<path d="M1026.3,34.625L1026.3,39.625" style="fill:none;stroke:#000000;stroke-width:0.625" />
<path d="M1165.5,34.625L1165.5,39.625" style="fill:none;stroke:#000000;stroke-width:0.625" />
<path d="M51.925,39.625L1436.9,39.625" style="fill:none;stroke:#000000;stroke-width:0.625" />
<g transform="rotate(90)">
<text x="422.68" y="12.72" transform="scale(1, -1)"
	style="font-family:Times;font-weight:normal;font-style:normal;font-size:12pt">Y</text>
</g>
<text x="18.075" y="-163" transform="scale(1, -1)"
	style="font-family:Times;font-weight:normal;font-style:normal;font-size:10pt">-1</text>
<text x="22.237" y="-295.36" transform="scale(1, -1)"
	style="font-family:Times;font-weight:normal;font-style:normal;font-size:10pt">0</text>
<text x="22.237" y="-427.73" transform="scale(1, -1)"
	style="font-family:Times;font-weight:normal;font-style:normal;font-size:10pt">1</text>
<text x="22.237" y="-560.09" transform="scale(1, -1)"
	style="font-family:Times;font-weight:normal;font-style:normal;font-size:10pt">2</text>
<text x="22.237" y="-692.45" transform="scale(1, -1)"
	style="font-family:Times;font-weight:normal;font-style:normal;font-size:10pt">3</text>
<path d="M31.613,167.83L41.612,167.83" style="fill:none;stroke:#000000;stroke-width:0.625" />
<path d="M31.613,300.19L41.612,300.19" style="fill:none;stroke:#000000;stroke-width:0.625" />
<path d="M31.613,432.55L41.612,432.55" style="fill:none;stroke:#000000;stroke-width:0.625" />
<path d="M31.613,564.92L41.612,564.92" style="fill:none;stroke:#000000;stroke-width:0.625" />
<path d="M31.613,697.28L41.612,697.28" style="fill:none;stroke:#000000;stroke-width:0.625" />
<path d="M36.612,101.64L41.612,101.64" style="fill:none;stroke:#000000;stroke-width:0.625" />
<path d="M36.612,234.01L41.612,234.01" style="fill:none;stroke:#000000;stroke-width:0.625" />
<path d="M36.612,366.37L41.612,366.37" style="fill:none;stroke:#000000;stroke-width:0.625" />
<path d="M36.612,498.73L41.612,498.73" style="fill:none;stroke:#000000;stroke-width:0.625" />
<path d="M36.612,631.1L41.612,631.1" style="fill:none;stroke:#000000;stroke-width:0.625" />
<path d="M36.612,763.46L41.612,763.46" style="fill:none;stroke:#000000;stroke-width:0.625" />
<path d="M41.612,49.313L41.612,806.88" style="fill:none;stroke:#000000;stroke-width:0.625" />
<path d="M51.925,339.47L58.885,449.68L65.844,489.29L72.804,650.47L79.763,611.81L86.723,567.99L93.682,611.78L100.64,485.9L107.6,362.29L114.56,306.97L121.52,262.14L128.48,312.54L135.44,249.96L142.4,246.95L149.36,292.62L156.32,410.14L163.28,397.04L170.24,359.24L177.2,360.22L184.16,276.4L191.12,283.3L198.08,260.34L205.04,166.49L211.99,179.28L218.95,235.81L225.91,324.86L232.87,394.64L239.83,373.72L246.79,461.01L253.75,600.64L260.71,658.49L267.67,579.03L274.63,580.96L281.59,463.11L288.55,467.72L295.51,365.67L302.47,222.02L309.43,220.62L316.39,218.36L323.35,181.62L330.31,135.48L337.27,300.92L344.23,351.73L351.19,332.42L358.15,313.71L365.1,398L372.06,413.34L379.02,385.3L385.98,318.2L392.94,360.77L399.9,283.05L406.86,273.67L413.82,399.94L420.78,341.26L427.74,505.46L434.7,497.06L441.66,620.26L448.62,589.13L455.58,622.6L462.54,471.68L469.5,428.23L476.46,340.01L483.42,258.26L490.38,255.54L497.34,195.81L504.3,51.957L511.26,67.63L518.21,171.36L525.17,196.39L532.13,339.31L539.09,412.94L546.05,464.07L553.01,473.19L559.97,500.93L566.93,500.79L573.89,496.61L580.85,402.54L587.81,376.52L594.77,400.04L601.73,372.56L608.69,427.9L615.65,459.87L622.61,485.39L629.57,484.9L636.53,544.88L643.49,416.03L650.45,391.03L657.41,336.21L664.37,268.49L671.32,250.59L678.28,211.73L685.24,128.74L692.2,175.85L699.16,150.35L706.12,194.31L713.08,273.24L720.04,436.63L727,476.66L733.96,587.38L740.92,574.62L747.88,548.64L754.84,575.85L761.8,551.06L768.76,511.34L775.72,421.53L782.68,341.51L789.64,355.56L796.6,291.36L803.56,275.72L810.52,295.42L817.48,386.65L824.43,336.71L831.39,373.92L838.35,343.71L845.31,294.13L852.27,312.01L859.23,282.18L866.19,139.93L873.15,132.94L880.11,237.8L887.07,268.8L894.03,336.96L900.99,392.29L907.95,421.12L914.91,583.96L921.87,584.96L928.83,665.73L935.79,683.46L942.75,560.05L949.71,453.76L956.67,414.42L963.63,380.41L970.59,277.23L977.54,186.8L984.5,219.92L991.46,247.04L998.42,238.93L1005.4,289L1012.3,306.74L1019.3,295.84L1026.3,334.54L1033.2,348.01L1040.2,391.8L1047.1,286.24L1054.1,331.98L1061.1,294.43L1068,280.73L1075,269.02L1081.9,418.52L1088.9,423.56L1095.9,511.03L1102.8,516.32L1109.8,557.97L1116.7,632.79L1123.7,595.22L1130.7,563.58L1137.6,436.75L1144.6,292.22L1151.5,292.83L1158.5,158.03L1165.5,91.336L1172.4,140.94L1179.4,97.164L1186.3,185.13L1193.3,223.06L1200.3,271.57L1207.2,367.61L1214.2,436.86L1221.1,499.51L1228.1,426.74L1235,460.32L1242,394.63L1249,452.97L1255.9,405.48L1262.9,411.2L1269.8,438.74L1276.8,431.85L1283.8,512.69L1290.7,429.54L1297.7,571.03L1304.6,482.15L1311.6,446.6L1318.6,476.42L1325.5,379.11L1332.5,234.08L1339.4,165.67L1346.4,151.51L1353.4,49.313L1360.3,79.397L1367.3,172.65L1374.2,275.41L1381.2,330.13L1388.2,449.32L1395.1,462.95L1402.1,496.51L1409,515.97L1416,520.49L1423,476.56L1429.9,501.73L1436.9,418.89" style="fill:none;stroke:#F15A60;stroke-width:1.25" />
<path d="M55.05,339.47A3.125,3.125 0 1 1 48.8,339.47A3.125,3.125 0 1 1 55.05,339.47Z" style="fill:none;stroke:#F15A60;stroke-width:0.625" />
<path d="M62.01,449.68A3.125,3.125 0 1 1 55.76,449.68A3.125,3.125 0 1 1 62.01,449.68Z" style="fill:none;stroke:#F15A60;stroke-width:0.625" />
<path d="M68.969,489.29A3.125,3.125 0 1 1 62.719,489.29A3.125,3.125 0 1 1 68.969,489.29Z" style="fill:none;stroke:#F15A60;stroke-width:0.625" />
<path d="M75.929,650.47A3.125,3.125 0 1 1 69.679,650.47A3.125,3.125 0 1 1 75.929,650.47Z" style="fill:none;stroke:#F15A60;stroke-width:0.625" />
<path d="M82.888,611.81L82.888,611.81A3.125,3.125 0 1 1 76.638,611.81A3.125,3.125 0 1 1 82.888,611.81Z" style="fill:none;stroke:#F15A60;stroke-width:0.625" />
<path d="M89.848,567.99L89.848,567.99A3.125,3.125 0 1 1 83.598,567.99A3.125,3.125 0 1 1 89.848,567.99Z" style="fill:none;stroke:#F15A60;stroke-width:0.625" />
<path d="M96.807,611.78L96.807,611.78A3.125,3.125 0 1 1 90.557,611.78A3.125,3.125 0 1 1 96.807,611.78Z" style="fill:none;stroke:#F15A60;stroke-width:0.625" />
<path d="M103.77,485.9L103.77,485.9A3.125,3.125 0 1 1 97.517,485.9A3.125,3.125 0 1 1 103.77,485.9Z" style="fill:none;stroke:#F15A60;stroke-width:0.625" />
<path d="M110.73,362.29L110.73,362.29A3.125,3.125 0 1 1 104.48,362.29A3.125,3.125 0 1 1 110.73,362.29Z" style="fill:none;stroke:#F15A60;stroke-width:0.625" />
<path d="M117.69,306.97L117.69,306.97A3.125,3.125 0 1 1 111.44,306.97A3.125,3.125 0 1 1 117.69,306.97Z" style="fill:none;stroke:#F15A60;stroke-width:0.625" />
<path d="M124.65,262.14A3.125,3.125 0 1 1 118.4,262.14A3.125,3.125 0 1 1 124.65,262.14Z" style="fill:none;stroke:#F15A60;stroke-width:0.625" />
<path d="M131.61,312.54A3.125,3.125 0 1 1 125.36,312.54A3.125,3.125 0 1 1 131.61,312.54Z" style="fill:none;stroke:#F15A60;stroke-width:0.625" />
<path d="M138.56,249.96A3.125,3.125 0 1 1 132.31,249.96A3.125,3.125 0 1 1 138.56,249.96Z" style="fill:none;stroke:#F15A60;stroke-width:0.625" />
<path d="M145.52,246.95A3.125,3.125 0 1 1 139.27,246.95A3.125,3.125 0 1 1 145.52,246.95Z" style="fill:none;stroke:#F15A60;stroke-width:0.625" />
<path d="M152.48,292.62A3.125,3.125 0 1 1 146.23,292.62A3.125,3.125 0 1 1 152.48,292.62Z" style="fill:none;stroke:#F15A60;stroke-width:0.625" />
<path d="M159.44,410.14A3.125,3.125 0 1 1 153.19,410.14A3.125,3.125 0 1 1 159.44,410.14Z" style="fill:none;stroke:#F15A60;stroke-width:0.625" />
<path d="M166.4,397.04A3.125,3.125 0 1 1 160.15,397.04A3.125,3.125 0 1 1 166.4,397.04Z" style="fill:none;stroke:#F15A60;stroke-width:0.625" />
<path d="M173.36,359.24A3.125,3.125 0 1 1 167.11,359.24A3.125,3.125 0 1 1 173.36,359.24Z" style="fill:none;stroke:#F15A60;stroke-width:0.625" />
<path d="M180.32,360.22L180.32,360.22A3.125,3.125 0 1 1 174.07,360.22A3.125,3.125 0 1 1 180.32,360.22Z" style="fill:none;stroke:#F15A60;stroke-width:0.625" />
<path d="M187.28,276.4A3.125,3.125 0 1 1 181.03,276.4A3.125,3.125 0 1 1 187.28,276.4Z" style="fill:none;stroke:#F15A60;stroke-width:0.625" />
<path d="M194.24,283.3L194.24,283.3A3.125,3.125 0 1 1 187.99,283.3A3.125,3.125 0 1 1 194.24,283.3Z" style="fill:none;stroke:#F15A60;stroke-width:0.625" />
<path d="M201.2,260.34A3.125,3.125 0 1 1 194.95,260.34A3.125,3.125 0 1 1 201.2,260.34Z" style="fill:none;stroke:#F15A60;stroke-width:0.625" />
<path d="M208.16,166.49A3.125,3.125 0 1 1 201.91,166.49A3.125,3.125 0 1 1 208.16,166.49Z" style="fill:none;stroke:#F15A60;stroke-width:0.625" />
<path d="M215.12,179.28A3.125,3.125 0 1 1 208.87,179.28A3.125,3.125 0 1 1 215.12,179.28Z" style="fill:none;stroke:#F15A60;stroke-width:0.625" />
<path d="M222.08,235.81L222.08,235.81A3.125,3.125 0 1 1 215.83,235.81A3.125,3.125 0 1 1 222.08,235.81Z" style="fill:none;stroke:#F15A60;stroke-width:0.625" />
<path d="M229.04,324.86A3.125,3.125 0 1 1 222.79,324.86A3.125,3.125 0 1 1 229.04,324.86Z" style="fill:none;stroke:#F15A60;stroke-width:0.625" />
<path d="M236,394.64A3.125,3.125 0 1 1 229.75,394.64A3.125,3.125 0 1 1 236,394.64Z" style="fill:none;stroke:#F15A60;stroke-width:0.625" />
<path d="M242.96,373.72A3.125,3.125 0 1 1 236.71,373.72A3.125,3.125 0 1 1 242.96,373.72Z" style="fill:none;stroke:#F15A60;stroke-width:0.625" />
<path d="M249.92,461.01L249.92,461.01A3.125,3.125 0 1 1 243.67,461.01A3.125,3.125 0 1 1 249.92,461.01Z" style="fill:none;stroke:#F15A60;stroke-width:0.625" />
<path d="M256.88,600.64L256.88,600.64A3.125,3.125 0 1 1 250.63,600.64A3.125,3.125 0 1 1 256.88,600.64Z" style="fill:none;stroke:#F15A60;stroke-width:0.625" />
<path d="M263.84,658.49A3.125,3.125 0 1 1 257.59,658.49A3.125,3.125 0 1 1 263.84,658.49Z" style="fill:none;stroke:#F15A60;stroke-width:0.625" />
<path d="M270.8,579.03A3.125,3.125 0 1 1 264.55,579.03A3.125,3.125 0 1 1 270.8,579.03Z" style="fill:none;stroke:#F15A60;stroke-width:0.625" />
<path d="M277.76,580.96L277.76,580.96A3.125,3.125 0 1 1 271.51,580.96A3.125,3.125 0 1 1 277.76,580.96Z" style="fill:none;stroke:#F15A60;stroke-width:0.625" />
<path d="M284.72,463.11A3.125,3.125 0 1 1 278.47,463.11A3.125,3.125 0 1 1 284.72,463.11Z" style="fill:none;stroke:#F15A60;stroke-width:0.625" />
<path d="M291.67,467.72L291.67,467.72A3.125,3.125 0 1 1 285.42,467.72A3.125,3.125 0 1 1 291.67,467.72Z" style="fill:none;stroke:#F15A60;stroke-width:0.625" />
<path d="M298.63,365.67A3.125,3.125 0 1 1 292.38,365.67A3.125,3.125 0 1 1 298.63,365.67Z" style="fill:none;stroke:#F15A60;stroke-width:0.625" />
<path d="M305.59,222.02A3.125,3.125 0 1 1 299.34,222.02A3.125,3.125 0 1 1 305.59,222.02Z" style="fill:none;stroke:#F15A60;stroke-width:0.625" />
<path d="M312.55,220.62A3.125,3.125 0 1 1 306.3,220.62A3.125,3.125 0 1 1 312.55,220.62Z" style="fill:none;stroke:#F15A60;stroke-width:0.625" />
<path d="M319.51,218.36A3.125,3.125 0 1 1 313.26,218.36A3.125,3.125 0 1 1 319.51,218.36Z" style="fill:none;stroke:#F15A60;stroke-width:0.625" />
<path d="M326.47,181.62A3.125,3.125 0 1 1 320.22,181.62A3.125,3.125 0 1 1 326.47,181.62Z" style="fill:none;stroke:#F15A60;stroke-width:0.625" />
<path d="M333.43,135.48L333.43,135.48A3.125,3.125 0 1 1 327.18,135.48A3.125,3.125 0 1 1 333.43,135.48Z" style="fill:none;stroke:#F15A60;stroke-width:0.625" />
<path d="M340.39,300.92A3.125,3.125 0 1 1 334.14,300.92A3.125,3.125 0 1 1 340.39,300.92Z" style="fill:none;stroke:#F15A60;stroke-width:0.625" />
<path d="M347.35,351.73L347.35,351.73A3.125,3.125 0 1 1 341.1,351.73A3.125,3.125 0 1 1 347.35,351.73Z" style="fill:none;stroke:#F15A60;stroke-width:0.625" />
<path d="M354.31,332.42A3.125,3.125 0 1 1 348.06,332.42A3.125,3.125 0 1 1 354.31,332.42Z" style="fill:none;stroke:#F15A60;stroke-width:0.625" />
<path d="M361.27,313.71L361.27,313.71A3.125,3.125 0 1 1 355.02,313.71A3.125,3.125 0 1 1 361.27,313.71Z" style="fill:none;stroke:#F15A60;stroke-width:0.625" />
<path d="M368.23,398A3.125,3.125 0 1 1 361.98,398A3.125,3.125 0 1 1 368.23,398Z" style="fill:none;stroke:#F15A60;stroke-width:0.625" />
<path d="M375.19,413.34A3.125,3.125 0 1 1 368.94,413.34A3.125,3.125 0 1 1 375.19,413.34Z" style="fill:none;stroke:#F15A60;stroke-width:0.625" />
<path d="M382.15,385.3A3.125,3.125 0 1 1 375.9,385.3A3.125,3.125 0 1 1 382.15,385.3Z" style="fill:none;stroke:#F15A60;stroke-width:0.625" />
<path d="M389.11,318.2A3.125,3.125 0 1 1 382.86,318.2A3.125,3.125 0 1 1 389.11,318.2Z" style="fill:none;stroke:#F15A60;stroke-width:0.625" />
<path d="M396.07,360.77A3.125,3.125 0 1 1 389.82,360.77A3.125,3.125 0 1 1 396.07,360.77Z" style="fill:none;stroke:#F15A60;stroke-width:0.625" />
<path d="M403.03,283.05L403.03,283.05A3.125,3.125 0 1 1 396.78,283.05A3.125,3.125 0 1 1 403.03,283.05Z" style="fill:none;stroke:#F15A60;stroke-width:0.625" />
<path d="M409.99,273.67A3.125,3.125 0 1 1 403.74,273.67A3.125,3.125 0 1 1 409.99,273.67Z" style="fill:none;stroke:#F15A60;stroke-width:0.625" />
<path d="M416.95,399.94A3.125,3.125 0 1 1 410.7,399.94A3.125,3.125 0 1 1 416.95,399.94Z" style="fill:none;stroke:#F15A60;stroke-width:0.625" />
<path d="M423.91,341.26L423.91,341.26A3.125,3.125 0 1 1 417.66,341.26A3.125,3.125 0 1 1 423.91,341.26Z" style="fill:none;stroke:#F15A60;stroke-width:0.625" />
<path d="M430.87,505.46A3.125,3.125 0 1 1 424.62,505.46A3.125,3.125 0 1 1 430.87,505.46Z" style="fill:none;stroke:#F15A60;stroke-width:0.625" />
<path d="M437.83,497.06A3.125,3.125 0 1 1 431.58,497.06A3.125,3.125 0 1 1 437.83,497.06Z" style="fill:none;stroke:#F15A60;stroke-width:0.625" />
<path d="M444.78,620.26A3.125,3.125 0 1 1 438.53,620.26A3.125,3.125 0 1 1 444.78,620.26Z" style="fill:none;stroke:#F15A60;stroke-width:0.625" />
<path d="M451.74,589.13L451.74,589.13A3.125,3.125 0 1 1 445.49,589.13A3.125,3.125 0 1 1 451.74,589.13Z" style="fill:none;stroke:#F15A60;stroke-width:0.625" />
<path d="M458.7,622.6L458.7,622.6A3.125,3.125 0 1 1 452.45,622.6A3.125,3.125 0 1 1 458.7,622.6Z" style="fill:none;stroke:#F15A60;stroke-width:0.625" />
<path d="M465.66,471.68L465.66,471.68A3.125,3.125 0 1 1 459.41,471.68A3.125,3.125 0 1 1 465.66,471.68Z" style="fill:none;stroke:#F15A60;stroke-width:0.625" />
<path d="M472.62,428.23A3.125,3.125 0 1 1 466.37,428.23A3.125,3.125 0 1 1 472.62,428.23Z" style="fill:none;stroke:#F15A60;stroke-width:0.625" />
<path d="M479.58,340.01A3.125,3.125 0 1 1 473.33,340.01A3.125,3.125 0 1 1 479.58,340.01Z" style="fill:none;stroke:#F15A60;stroke-width:0.625" />
<path d="M486.54,258.26A3.125,3.125 0 1 1 480.29,258.26A3.125,3.125 0 1 1 486.54,258.26Z" style="fill:none;stroke:#F15A60;stroke-width:0.625" />
<path d="M493.5,255.54A3.125,3.125 0 1 1 487.25,255.54A3.125,3.125 0 1 1 493.5,255.54Z" style="fill:none;stroke:#F15A60;stroke-width:0.625" />
<path d="M500.46,195.81A3.125,3.125 0 1 1 494.21,195.81A3.125,3.125 0 1 1 500.46,195.81Z" style="fill:none;stroke:#F15A60;stroke-width:0.625" />
<path d="M507.42,51.957A3.125,3.125 0 1 1 501.17,51.957A3.125,3.125 0 1 1 507.42,51.957Z" style="fill:none;stroke:#F15A60;stroke-width:0.625" />
<path d="M514.38,67.63L514.38,67.63A3.125,3.125 0 1 1 508.13,67.63A3.125,3.125 0 1 1 514.38,67.63Z" style="fill:none;stroke:#F15A60;stroke-width:0.625" />
<path d="M521.34,171.36A3.125,3.125 0 1 1 515.09,171.36A3.125,3.125 0 1 1 521.34,171.36Z" style="fill:none;stroke:#F15A60;stroke-width:0.625" />
<path d="M528.3,196.39A3.125,3.125 0 1 1 522.05,196.39A3.125,3.125 0 1 1 528.3,196.39Z" style="fill:none;stroke:#F15A60;stroke-width:0.625" />
<path d="M535.26,339.31L535.26,339.31A3.125,3.125 0 1 1 529.01,339.31A3.125,3.125 0 1 1 535.26,339.31Z" style="fill:none;stroke:#F15A60;stroke-width:0.625" />
<path d="M542.22,412.94A3.125,3.125 0 1 1 535.97,412.94A3.125,3.125 0 1 1 542.22,412.94Z" style="fill:none;stroke:#F15A60;stroke-width:0.625" />
<path d="M549.18,464.07A3.125,3.125 0 1 1 542.93,464.07A3.125,3.125 0 1 1 549.18,464.07Z" style="fill:none;stroke:#F15A60;stroke-width:0.625" />
<path d="M556.14,473.19A3.125,3.125 0 1 1 549.89,473.19A3.125,3.125 0 1 1 556.14,473.19Z" style="fill:none;stroke:#F15A60;stroke-width:0.625" />
<path d="M563.1,500.93A3.125,3.125 0 1 1 556.85,500.93A3.125,3.125 0 1 1 563.1,500.93Z" style="fill:none;stroke:#F15A60;stroke-width:0.625" />
<path d="M570.06,500.79L570.06,500.79A3.125,3.125 0 1 1 563.81,500.79A3.125,3.125 0 1 1 570.06,500.79Z" style="fill:none;stroke:#F15A60;stroke-width:0.625" />
<path d="M577.02,496.61A3.125,3.125 0 1 1 570.77,496.61A3.125,3.125 0 1 1 577.02,496.61Z" style="fill:none;stroke:#F15A60;stroke-width:0.625" />
<path d="M583.98,402.54A3.125,3.125 0 1 1 577.73,402.54A3.125,3.125 0 1 1 583.98,402.54Z" style="fill:none;stroke:#F15A60;stroke-width:0.625" />
<path d="M590.94,376.52A3.125,3.125 0 1 1 584.69,376.52A3.125,3.125 0 1 1 590.94,376.52Z" style="fill:none;stroke:#F15A60;stroke-width:0.625" />
<path d="M597.89,400.04A3.125,3.125 0 1 1 591.64,400.04A3.125,3.125 0 1 1 597.89,400.04Z" style="fill:none;stroke:#F15A60;stroke-width:0.625" />
<path d="M604.85,372.56A3.125,3.125 0 1 1 598.6,372.56A3.125,3.125 0 1 1 604.85,372.56Z" style="fill:none;stroke:#F15A60;stroke-width:0.625" />
<path d="M611.81,427.9A3.125,3.125 0 1 1 605.56,427.9A3.125,3.125 0 1 1 611.81,427.9Z" style="fill:none;stroke:#F15A60;stroke-width:0.625" />
<path d="M618.77,459.87A3.125,3.125 0 1 1 612.52,459.87A3.125,3.125 0 1 1 618.77,459.87Z" style="fill:none;stroke:#F15A60;stroke-width:0.625" />
<path d="M625.73,485.39A3.125,3.125 0 1 1 619.48,485.39A3.125,3.125 0 1 1 625.73,485.39Z" style="fill:none;stroke:#F15A60;stroke-width:0.625" />
<path d="M632.69,484.9A3.125,3.125 0 1 1 626.44,484.9A3.125,3.125 0 1 1 632.69,484.9Z" style="fill:none;stroke:#F15A60;stroke-width:0.625" />
<path d="M639.65,544.88A3.125,3.125 0 1 1 633.4,544.88A3.125,3.125 0 1 1 639.65,544.88Z" style="fill:none;stroke:#F15A60;stroke-width:0.625" />
<path d="M646.61,416.03A3.125,3.125 0 1 1 640.36,416.03A3.125,3.125 0 1 1 646.61,416.03Z" style="fill:none;stroke:#F15A60;stroke-width:0.625" />
<path d="M653.57,391.03A3.125,3.125 0 1 1 647.32,391.03A3.125,3.125 0 1 1 653.57,391.03Z" style="fill:none;stroke:#F15A60;stroke-width:0.625" />
<path d="M660.53,336.21A3.125,3.125 0 1 1 654.28,336.21A3.125,3.125 0 1 1 660.53,336.21Z" style="fill:none;stroke:#F15A60;stroke-width:0.625" />
<path d="M667.49,268.49A3.125,3.125 0 1 1 661.24,268.49A3.125,3.125 0 1 1 667.49,268.49Z" style="fill:none;stroke:#F15A60;stroke-width:0.625" />
<path d="M674.45,250.59A3.125,3.125 0 1 1 668.2,250.59A3.125,3.125 0 1 1 674.45,250.59Z" style="fill:none;stroke:#F15A60;stroke-width:0.625" />
<path d="M681.41,211.73L681.41,211.73A3.125,3.125 0 1 1 675.16,211.73A3.125,3.125 0 1 1 681.41,211.73Z" style="fill:none;stroke:#F15A60;stroke-width:0.625" />
<path d="M688.37,128.74A3.125,3.125 0 1 1 682.12,128.74A3.125,3.125 0 1 1 688.37,128.74Z" style="fill:none;stroke:#F15A60;stroke-width:0.625" />
<path d="M695.33,175.85A3.125,3.125 0 1 1 689.08,175.85A3.125,3.125 0 1 1 695.33,175.85Z" style="fill:none;stroke:#F15A60;stroke-width:0.625" />
<path d="M702.29,150.35A3.125,3.125 0 1 1 696.04,150.35A3.125,3.125 0 1 1 702.29,150.35Z" style="fill:none;stroke:#F15A60;stroke-width:0.625" />
<path d="M709.25,194.31L709.25,194.31A3.125,3.125 0 1 1 703,194.31A3.125,3.125 0 1 1 709.25,194.31Z" style="fill:none;stroke:#F15A60;stroke-width:0.625" />
<path d="M716.21,273.24L716.21,273.24A3.125,3.125 0 1 1 709.96,273.24A3.125,3.125 0 1 1 716.21,273.24Z" style="fill:none;stroke:#F15A60;stroke-width:0.625" />
<path d="M723.17,436.63L723.17,436.63A3.125,3.125 0 1 1 716.92,436.63A3.125,3.125 0 1 1 723.17,436.63Z" style="fill:none;stroke:#F15A60;stroke-width:0.625" />
<path d="M730.13,476.66L730.13,476.66A3.125,3.125 0 1 1 723.88,476.66A3.125,3.125 0 1 1 730.13,476.66Z" style="fill:none;stroke:#F15A60;stroke-width:0.625" />
<path d="M737.09,587.38L737.09,587.38A3.125,3.125 0 1 1 730.84,587.38A3.125,3.125 0 1 1 737.09,587.38Z" style="fill:none;stroke:#F15A60;stroke-width:0.625" />
<path d="M744.05,574.62L744.05,574.62A3.125,3.125 0 1 1 737.8,574.62A3.125,3.125 0 1 1 744.05,574.62Z" style="fill:none;stroke:#F15A60;stroke-width:0.625" />
<path d="M751,548.64L751,548.64A3.125,3.125 0 1 1 744.75,548.64A3.125,3.125 0 1 1 751,548.64Z" style="fill:none;stroke:#F15A60;stroke-width:0.625" />
<path d="M757.96,575.85L757.96,575.85A3.125,3.125 0 1 1 751.71,575.85A3.125,3.125 0 1 1 757.96,575.85Z" style="fill:none;stroke:#F15A60;stroke-width:0.625" />
<path d="M764.92,551.06L764.92,551.06A3.125,3.125 0 1 1 758.67,551.06A3.125,3.125 0 1 1 764.92,551.06Z" style="fill:none;stroke:#F15A60;stroke-width:0.625" />
<path d="M771.88,511.34L771.88,511.34A3.125,3.125 0 1 1 765.63,511.34A3.125,3.125 0 1 1 771.88,511.34Z" style="fill:none;stroke:#F15A60;stroke-width:0.625" />
<path d="M778.84,421.53L778.84,421.53A3.125,3.125 0 1 1 772.59,421.53A3.125,3.125 0 1 1 778.84,421.53Z" style="fill:none;stroke:#F15A60;stroke-width:0.625" />
<path d="M785.8,341.51L785.8,341.51A3.125,3.125 0 1 1 779.55,341.51A3.125,3.125 0 1 1 785.8,341.51Z" style="fill:none;stroke:#F15A60;stroke-width:0.625" />
<path d="M792.76,355.56L792.76,355.56A3.125,3.125 0 1 1 786.51,355.56A3.125,3.125 0 1 1 792.76,355.56Z" style="fill:none;stroke:#F15A60;stroke-width:0.625" />
<path d="M799.72,291.36L799.72,291.36A3.125,3.125 0 1 1 793.47,291.36A3.125,3.125 0 1 1 799.72,291.36Z" style="fill:none;stroke:#F15A60;stroke-width:0.625" />
<path d="M806.68,275.72A3.125,3.125 0 1 1 800.43,275.72A3.125,3.125 0 1 1 806.68,275.72Z" style="fill:none;stroke:#F15A60;stroke-width:0.625" />
<path d="M813.64,295.42A3.125,3.125 0 1 1 807.39,295.42A3.125,3.125 0 1 1 813.64,295.42Z" style="fill:none;stroke:#F15A60;stroke-width:0.625" />
<path d="M820.6,386.65L820.6,386.65A3.125,3.125 0 1 1 814.35,386.65A3.125,3.125 0 1 1 820.6,386.65Z" style="fill:none;stroke:#F15A60;stroke-width:0.625" />
<path d="M827.56,336.71L827.56,336.71A3.125,3.125 0 1 1 821.31,336.71A3.125,3.125 0 1 1 827.56,336.71Z" style="fill:none;stroke:#F15A60;stroke-width:0.625" />
<path d="M834.52,373.92L834.52,373.92A3.125,3.125 0 1 1 828.27,373.92A3.125,3.125 0 1 1 834.52,373.92Z" style="fill:none;stroke:#F15A60;stroke-width:0.625" />
<path d="M841.48,343.71L841.48,343.71A3.125,3.125 0 1 1 835.23,343.71A3.125,3.125 0 1 1 841.48,343.71Z" style="fill:none;stroke:#F15A60;stroke-width:0.625" />
<path d="M848.44,294.13L848.44,294.13A3.125,3.125 0 1 1 842.19,294.13A3.125,3.125 0 1 1 848.44,294.13Z" style="fill:none;stroke:#F15A60;stroke-width:0.625" />
<path d="M855.4,312.01L855.4,312.01A3.125,3.125 0 1 1 849.15,312.01A3.125,3.125 0 1 1 855.4,312.01Z" style="fill:none;stroke:#F15A60;stroke-width:0.625" />
<path d="M862.36,282.18L862.36,282.18A3.125,3.125 0 1 1 856.11,282.18A3.125,3.125 0 1 1 862.36,282.18Z" style="fill:none;stroke:#F15A60;stroke-width:0.625" />
<path d="M869.32,139.93A3.125,3.125 0 1 1 863.07,139.93A3.125,3.125 0 1 1 869.32,139.93Z" style="fill:none;stroke:#F15A60;stroke-width:0.625" />
<path d="M876.28,132.94A3.125,3.125 0 1 1 870.03,132.94A3.125,3.125 0 1 1 876.28,132.94Z" style="fill:none;stroke:#F15A60;stroke-width:0.625" />
<path d="M883.24,237.8L883.24,237.8A3.125,3.125 0 1 1 876.99,237.8A3.125,3.125 0 1 1 883.24,237.8Z" style="fill:none;stroke:#F15A60;stroke-width:0.625" />
<path d="M890.2,268.8L890.2,268.8A3.125,3.125 0 1 1 883.95,268.8A3.125,3.125 0 1 1 890.2,268.8Z" style="fill:none;stroke:#F15A60;stroke-width:0.625" />
<path d="M897.16,336.96L897.16,336.96A3.125,3.125 0 1 1 890.91,336.96A3.125,3.125 0 1 1 897.16,336.96Z" style="fill:none;stroke:#F15A60;stroke-width:0.625" />
<path d="M904.11,392.29L904.11,392.29A3.125,3.125 0 1 1 897.86,392.29A3.125,3.125 0 1 1 904.11,392.29Z" style="fill:none;stroke:#F15A60;stroke-width:0.625" />
<path d="M911.07,421.12A3.125,3.125 0 1 1 904.82,421.12A3.125,3.125 0 1 1 911.07,421.12Z" style="fill:none;stroke:#F15A60;stroke-width:0.625" />
<path d="M918.03,583.96A3.125,3.125 0 1 1 911.78,583.96A3.125,3.125 0 1 1 918.03,583.96Z" style="fill:none;stroke:#F15A60;stroke-width:0.625" />
<path d="M924.99,584.96L924.99,584.96A3.125,3.125 0 1 1 918.74,584.96A3.125,3.125 0 1 1 924.99,584.96Z" style="fill:none;stroke:#F15A60;stroke-width:0.625" />
<path d="M931.95,665.73A3.125,3.125 0 1 1 925.7,665.73A3.125,3.125 0 1 1 931.95,665.73Z" style="fill:none;stroke:#F15A60;stroke-width:0.625" />
<path d="M938.91,683.46L938.91,683.46A3.125,3.125 0 1 1 932.66,683.46A3.125,3.125 0 1 1 938.91,683.46Z" style="fill:none;stroke:#F15A60;stroke-width:0.625" />
<path d="M945.87,560.05L945.87,560.05A3.125,3.125 0 1 1 939.62,560.05A3.125,3.125 0 1 1 945.87,560.05Z" style="fill:none;stroke:#F15A60;stroke-width:0.625" />
<path d="M952.83,453.76A3.125,3.125 0 1 1 946.58,453.76A3.125,3.125 0 1 1 952.83,453.76Z" style="fill:none;stroke:#F15A60;stroke-width:0.625" />
<path d="M959.79,414.42A3.125,3.125 0 1 1 953.54,414.42A3.125,3.125 0 1 1 959.79,414.42Z" style="fill:none;stroke:#F15A60;stroke-width:0.625" />
<path d="M966.75,380.41A3.125,3.125 0 1 1 960.5,380.41A3.125,3.125 0 1 1 966.75,380.41Z" style="fill:none;stroke:#F15A60;stroke-width:0.625" />
<path d="M973.71,277.23A3.125,3.125 0 1 1 967.46,277.23A3.125,3.125 0 1 1 973.71,277.23Z" style="fill:none;stroke:#F15A60;stroke-width:0.625" />
<path d="M980.67,186.8A3.125,3.125 0 1 1 974.42,186.8A3.125,3.125 0 1 1 980.67,186.8Z" style="fill:none;stroke:#F15A60;stroke-width:0.625" />
<path d="M987.63,219.92L987.63,219.92A3.125,3.125 0 1 1 981.38,219.92A3.125,3.125 0 1 1 987.63,219.92Z" style="fill:none;stroke:#F15A60;stroke-width:0.625" />
<path d="M994.59,247.04A3.125,3.125 0 1 1 988.34,247.04A3.125,3.125 0 1 1 994.59,247.04Z" style="fill:none;stroke:#F15A60;stroke-width:0.625" />
<path d="M1001.5,238.93L1001.5,238.93A3.125,3.125 0 1 1 995.3,238.93A3.125,3.125 0 1 1 1001.5,238.93Z" style="fill:none;stroke:#F15A60;stroke-width:0.625" />
<path d="M1008.5,289L1008.5,289A3.125,3.125 0 1 1 1002.3,289A3.125,3.125 0 1 1 1008.5,289Z" style="fill:none;stroke:#F15A60;stroke-width:0.625" />
<path d="M1015.5,306.74A3.125,3.125 0 1 1 1009.2,306.74A3.125,3.125 0 1 1 1015.5,306.74Z" style="fill:none;stroke:#F15A60;stroke-width:0.625" />
<path d="M1022.4,295.84L1022.4,295.84A3.125,3.125 0 1 1 1016.2,295.84A3.125,3.125 0 1 1 1022.4,295.84Z" style="fill:none;stroke:#F15A60;stroke-width:0.625" />
<path d="M1029.4,334.54A3.125,3.125 0 1 1 1023.1,334.54A3.125,3.125 0 1 1 1029.4,334.54Z" style="fill:none;stroke:#F15A60;stroke-width:0.625" />
<path d="M1036.3,348.01L1036.3,348.01A3.125,3.125 0 1 1 1030.1,348.01A3.125,3.125 0 1 1 1036.3,348.01Z" style="fill:none;stroke:#F15A60;stroke-width:0.625" />
<path d="M1043.3,391.8A3.125,3.125 0 1 1 1037.1,391.8A3.125,3.125 0 1 1 1043.3,391.8Z" style="fill:none;stroke:#F15A60;stroke-width:0.625" />
<path d="M1050.3,286.24A3.125,3.125 0 1 1 1044,286.24A3.125,3.125 0 1 1 1050.3,286.24Z" style="fill:none;stroke:#F15A60;stroke-width:0.625" />
<path d="M1057.2,331.98L1057.2,331.98A3.125,3.125 0 1 1 1051,331.98A3.125,3.125 0 1 1 1057.2,331.98Z" style="fill:none;stroke:#F15A60;stroke-width:0.625" />
<path d="M1064.2,294.43A3.125,3.125 0 1 1 1057.9,294.43A3.125,3.125 0 1 1 1064.2,294.43Z" style="fill:none;stroke:#F15A60;stroke-width:0.625" />
<path d="M1071.1,280.73A3.125,3.125 0 1 1 1064.9,280.73A3.125,3.125 0 1 1 1071.1,280.73Z" style="fill:none;stroke:#F15A60;stroke-width:0.625" />
<path d="M1078.1,269.02A3.125,3.125 0 1 1 1071.9,269.02A3.125,3.125 0 1 1 1078.1,269.02Z" style="fill:none;stroke:#F15A60;stroke-width:0.625" />
<path d="M1085.1,418.52L1085.1,418.52A3.125,3.125 0 1 1 1078.8,418.52A3.125,3.125 0 1 1 1085.1,418.52Z" style="fill:none;stroke:#F15A60;stroke-width:0.625" />
<path d="M1092,423.56A3.125,3.125 0 1 1 1085.8,423.56A3.125,3.125 0 1 1 1092,423.56Z" style="fill:none;stroke:#F15A60;stroke-width:0.625" />
<path d="M1099,511.03A3.125,3.125 0 1 1 1092.7,511.03A3.125,3.125 0 1 1 1099,511.03Z" style="fill:none;stroke:#F15A60;stroke-width:0.625" />
<path d="M1105.9,516.32A3.125,3.125 0 1 1 1099.7,516.32A3.125,3.125 0 1 1 1105.9,516.32Z" style="fill:none;stroke:#F15A60;stroke-width:0.625" />
<path d="M1112.9,557.97L1112.9,557.97A3.125,3.125 0 1 1 1106.7,557.97A3.125,3.125 0 1 1 1112.9,557.97Z" style="fill:none;stroke:#F15A60;stroke-width:0.625" />
<path d="M1119.9,632.79A3.125,3.125 0 1 1 1113.6,632.79A3.125,3.125 0 1 1 1119.9,632.79Z" style="fill:none;stroke:#F15A60;stroke-width:0.625" />
<path d="M1126.8,595.22L1126.8,595.22A3.125,3.125 0 1 1 1120.6,595.22A3.125,3.125 0 1 1 1126.8,595.22Z" style="fill:none;stroke:#F15A60;stroke-width:0.625" />
<path d="M1133.8,563.58A3.125,3.125 0 1 1 1127.5,563.58A3.125,3.125 0 1 1 1133.8,563.58Z" style="fill:none;stroke:#F15A60;stroke-width:0.625" />
<path d="M1140.7,436.75L1140.7,436.75A3.125,3.125 0 1 1 1134.5,436.75A3.125,3.125 0 1 1 1140.7,436.75Z" style="fill:none;stroke:#F15A60;stroke-width:0.625" />
<path d="M1147.7,292.22A3.125,3.125 0 1 1 1141.4,292.22A3.125,3.125 0 1 1 1147.7,292.22Z" style="fill:none;stroke:#F15A60;stroke-width:0.625" />
<path d="M1154.7,292.83A3.125,3.125 0 1 1 1148.4,292.83A3.125,3.125 0 1 1 1154.7,292.83Z" style="fill:none;stroke:#F15A60;stroke-width:0.625" />
<path d="M1161.6,158.03L1161.6,158.03A3.125,3.125 0 1 1 1155.4,158.03A3.125,3.125 0 1 1 1161.6,158.03Z" style="fill:none;stroke:#F15A60;stroke-width:0.625" />
<path d="M1168.6,91.336A3.125,3.125 0 1 1 1162.3,91.336A3.125,3.125 0 1 1 1168.6,91.336Z" style="fill:none;stroke:#F15A60;stroke-width:0.625" />
<path d="M1175.5,140.94A3.125,3.125 0 1 1 1169.3,140.94A3.125,3.125 0 1 1 1175.5,140.94Z" style="fill:none;stroke:#F15A60;stroke-width:0.625" />
<path d="M1182.5,97.164L1182.5,97.164A3.125,3.125 0 1 1 1176.2,97.164A3.125,3.125 0 1 1 1182.5,97.164Z" style="fill:none;stroke:#F15A60;stroke-width:0.625" />
<path d="M1189.5,185.13A3.125,3.125 0 1 1 1183.2,185.13A3.125,3.125 0 1 1 1189.5,185.13Z" style="fill:none;stroke:#F15A60;stroke-width:0.625" />
<path d="M1196.4,223.06A3.125,3.125 0 1 1 1190.2,223.06A3.125,3.125 0 1 1 1196.4,223.06Z" style="fill:none;stroke:#F15A60;stroke-width:0.625" />
<path d="M1203.4,271.57A3.125,3.125 0 1 1 1197.1,271.57A3.125,3.125 0 1 1 1203.4,271.57Z" style="fill:none;stroke:#F15A60;stroke-width:0.625" />
<path d="M1210.3,367.61L1210.3,367.61A3.125,3.125 0 1 1 1204.1,367.61A3.125,3.125 0 1 1 1210.3,367.61Z" style="fill:none;stroke:#F15A60;stroke-width:0.625" />
<path d="M1217.3,436.86A3.125,3.125 0 1 1 1211,436.86A3.125,3.125 0 1 1 1217.3,436.86Z" style="fill:none;stroke:#F15A60;stroke-width:0.625" />
<path d="M1224.3,499.51A3.125,3.125 0 1 1 1218,499.51A3.125,3.125 0 1 1 1224.3,499.51Z" style="fill:none;stroke:#F15A60;stroke-width:0.625" />
<path d="M1231.2,426.74L1231.2,426.74A3.125,3.125 0 1 1 1225,426.74A3.125,3.125 0 1 1 1231.2,426.74Z" style="fill:none;stroke:#F15A60;stroke-width:0.625" />
<path d="M1238.2,460.32A3.125,3.125 0 1 1 1231.9,460.32A3.125,3.125 0 1 1 1238.2,460.32Z" style="fill:none;stroke:#F15A60;stroke-width:0.625" />
<path d="M1245.1,394.63A3.125,3.125 0 1 1 1238.9,394.63A3.125,3.125 0 1 1 1245.1,394.63Z" style="fill:none;stroke:#F15A60;stroke-width:0.625" />
<path d="M1252.1,452.97A3.125,3.125 0 1 1 1245.8,452.97A3.125,3.125 0 1 1 1252.1,452.97Z" style="fill:none;stroke:#F15A60;stroke-width:0.625" />
<path d="M1259.1,405.48A3.125,3.125 0 1 1 1252.8,405.48A3.125,3.125 0 1 1 1259.1,405.48Z" style="fill:none;stroke:#F15A60;stroke-width:0.625" />
<path d="M1266,411.2A3.125,3.125 0 1 1 1259.8,411.2A3.125,3.125 0 1 1 1266,411.2Z" style="fill:none;stroke:#F15A60;stroke-width:0.625" />
<path d="M1273,438.74A3.125,3.125 0 1 1 1266.7,438.74A3.125,3.125 0 1 1 1273,438.74Z" style="fill:none;stroke:#F15A60;stroke-width:0.625" />
<path d="M1279.9,431.85A3.125,3.125 0 1 1 1273.7,431.85A3.125,3.125 0 1 1 1279.9,431.85Z" style="fill:none;stroke:#F15A60;stroke-width:0.625" />
<path d="M1286.9,512.69L1286.9,512.69A3.125,3.125 0 1 1 1280.6,512.69A3.125,3.125 0 1 1 1286.9,512.69Z" style="fill:none;stroke:#F15A60;stroke-width:0.625" />
<path d="M1293.8,429.54L1293.8,429.54A3.125,3.125 0 1 1 1287.6,429.54A3.125,3.125 0 1 1 1293.8,429.54Z" style="fill:none;stroke:#F15A60;stroke-width:0.625" />
<path d="M1300.8,571.03A3.125,3.125 0 1 1 1294.6,571.03A3.125,3.125 0 1 1 1300.8,571.03Z" style="fill:none;stroke:#F15A60;stroke-width:0.625" />
<path d="M1307.8,482.15L1307.8,482.15A3.125,3.125 0 1 1 1301.5,482.15A3.125,3.125 0 1 1 1307.8,482.15Z" style="fill:none;stroke:#F15A60;stroke-width:0.625" />
<path d="M1314.7,446.6A3.125,3.125 0 1 1 1308.5,446.6A3.125,3.125 0 1 1 1314.7,446.6Z" style="fill:none;stroke:#F15A60;stroke-width:0.625" />
<path d="M1321.7,476.42L1321.7,476.42A3.125,3.125 0 1 1 1315.4,476.42A3.125,3.125 0 1 1 1321.7,476.42Z" style="fill:none;stroke:#F15A60;stroke-width:0.625" />
<path d="M1328.6,379.11A3.125,3.125 0 1 1 1322.4,379.11A3.125,3.125 0 1 1 1328.6,379.11Z" style="fill:none;stroke:#F15A60;stroke-width:0.625" />
<path d="M1335.6,234.08L1335.6,234.08A3.125,3.125 0 1 1 1329.4,234.08A3.125,3.125 0 1 1 1335.6,234.08Z" style="fill:none;stroke:#F15A60;stroke-width:0.625" />
<path d="M1342.6,165.67A3.125,3.125 0 1 1 1336.3,165.67A3.125,3.125 0 1 1 1342.6,165.67Z" style="fill:none;stroke:#F15A60;stroke-width:0.625" />
<path d="M1349.5,151.51L1349.5,151.51A3.125,3.125 0 1 1 1343.3,151.51A3.125,3.125 0 1 1 1349.5,151.51Z" style="fill:none;stroke:#F15A60;stroke-width:0.625" />
<path d="M1356.5,49.313L1356.5,49.313A3.125,3.125 0 1 1 1350.2,49.313A3.125,3.125 0 1 1 1356.5,49.313Z" style="fill:none;stroke:#F15A60;stroke-width:0.625" />
<path d="M1363.4,79.397L1363.4,79.397A3.125,3.125 0 1 1 1357.2,79.397A3.125,3.125 0 1 1 1363.4,79.397Z" style="fill:none;stroke:#F15A60;stroke-width:0.625" />
<path d="M1370.4,172.65A3.125,3.125 0 1 1 1364.2,172.65A3.125,3.125 0 1 1 1370.4,172.65Z" style="fill:none;stroke:#F15A60;stroke-width:0.625" />
<path d="M1377.4,275.41A3.125,3.125 0 1 1 1371.1,275.41A3.125,3.125 0 1 1 1377.4,275.41Z" style="fill:none;stroke:#F15A60;stroke-width:0.625" />
<path d="M1384.3,330.13A3.125,3.125 0 1 1 1378.1,330.13A3.125,3.125 0 1 1 1384.3,330.13Z" style="fill:none;stroke:#F15A60;stroke-width:0.625" />
<path d="M1391.3,449.32L1391.3,449.32A3.125,3.125 0 1 1 1385,449.32A3.125,3.125 0 1 1 1391.3,449.32Z" style="fill:none;stroke:#F15A60;stroke-width:0.625" />
<path d="M1398.2,462.95A3.125,3.125 0 1 1 1392,462.95A3.125,3.125 0 1 1 1398.2,462.95Z" style="fill:none;stroke:#F15A60;stroke-width:0.625" />
<path d="M1405.2,496.51L1405.2,496.51A3.125,3.125 0 1 1 1399,496.51A3.125,3.125 0 1 1 1405.2,496.51Z" style="fill:none;stroke:#F15A60;stroke-width:0.625" />
<path d="M1412.2,515.97A3.125,3.125 0 1 1 1405.9,515.97A3.125,3.125 0 1 1 1412.2,515.97Z" style="fill:none;stroke:#F15A60;stroke-width:0.625" />
<path d="M1419.1,520.49L1419.1,520.49A3.125,3.125 0 1 1 1412.9,520.49A3.125,3.125 0 1 1 1419.1,520.49Z" style="fill:none;stroke:#F15A60;stroke-width:0.625" />
<path d="M1426.1,476.56A3.125,3.125 0 1 1 1419.8,476.56A3.125,3.125 0 1 1 1426.1,476.56Z" style="fill:none;stroke:#F15A60;stroke-width:0.625" />
<path d="M1433,501.73L1433,501.73A3.125,3.125 0 1 1 1426.8,501.73A3.125,3.125 0 1 1 1433,501.73Z" style="fill:none;stroke:#F15A60;stroke-width:0.625" />
<path d="M1440,418.89A3.125,3.125 0 1 1 1433.8,418.89A3.125,3.125 0 1 1 1440,418.89Z" style="fill:none;stroke:#F15A60;stroke-width:0.625" />
<path d="M51.925,339.47L58.885,449.68L65.844,545.76L72.804,651.48L79.763,728.26L86.723,773.93L93.682,806.88L100.64,796.35L107.6,744.57L114.56,669.15L121.52,578.12L128.48,496.42L135.44,407.51L142.4,326.32L149.36,265.74L156.32,242.4L163.28,231.17L170.24,224.58L177.2,227.58L184.16,221.17L191.12,220.75L198.08,219.56L205.04,202.29L211.99,188.89L218.95,188.89L225.91,209.52L232.87,246.9L239.83,281.48L246.79,332.14L253.75,408.33L260.71,492.39L267.67,553.71L274.63,604.67L281.59,620.45L288.55,624.55L295.51,598.01L302.47,534.11L309.43,463.99L316.39,392.83L323.35,318.09L330.31,240.89L337.27,205.88L344.23,193.75L351.19,189.65L358.15,191.2L365.1,216.65L372.06,250.96L379.02,282.54L385.98,300.55L392.94,324.53L399.9,330.34L406.86,330.28L413.82,352.09L420.78,360.67L427.74,399.22L434.7,434.74L441.66,491.54L448.62,538.48L455.58,585.76L462.54,595.62L469.5,587.37L476.46,553.58L483.42,497.39L490.38,437.54L497.34,366.8L504.3,271.17L511.26,184.66L518.21,129.17L525.17,92.311L532.13,97.656L539.09,131.16L546.05,185.09L553.01,246.8L559.97,315.3L566.93,381.21L573.89,440.28L580.85,472.1L587.81,488.18L594.77,499.04L601.73,496.3L608.69,497.75L615.65,501.11L622.61,506.43L629.57,509.33L636.53,522.17L643.49,508.04L650.45,486.22L657.41,452.08L664.37,404.28L671.32,354.31L678.28,300.34L685.24,235.24L692.2,186.2L699.16,141.25L706.12,114.62L713.08,113.89L720.04,155.54L727,213.74L733.96,298.21L740.92,380.59L747.88,452.94L754.84,522L761.8,575.52L768.76,608.93L775.72,611.84L782.68,586.74L789.64,554.76L796.6,504.38L803.56,448.17L810.52,396.8L817.48,367.86L824.43,335.85L831.39,317.73L838.35,300.57L845.31,279.51L852.27,267.12L859.23,253.93L866.19,216.63L873.15,180.78L880.11,170.21L887.07,172.01L894.03,192.89L900.99,229.3L907.95,273.97L914.91,351.11L921.87,426.99L928.83,513.33L935.79,595.08L942.75,641.11L949.71,651.81L956.67,640.62L963.63,611.3L970.59,553.35L977.54,472.33L984.5,397.02L991.46,331.56L998.42,272.5L1005.4,233.25L1012.3,208.75L1019.3,192.84L1026.3,194.04L1033.2,206.12L1040.2,233.06L1047.1,243.02L1054.1,262.73L1061.1,275.14L1068,283.49L1075,287.66L1081.9,319.78L1088.9,352.41L1095.9,400.27L1102.8,446.27L1109.8,495.6L1116.7,553.77L1123.7,597.53L1130.7,626.08L1137.6,619.79L1144.6,574.88L1151.5,522.11L1158.5,439.18L1165.5,342.63L1172.4,260.23L1179.4,178.4L1186.3,125.65L1193.3,94.608L1200.3,87.184L1207.2,111.52L1214.2,160.2L1221.1,228.27L1228.1,284.45L1235,344.65L1242,386.61L1249,432.32L1255.9,460.64L1262.9,481.13L1269.8,498.83L1276.8,508L1283.8,526.94L1290.7,524.61L1297.7,545.34L1304.6,545.69L1311.6,535.04L1318.6,527.18L1325.5,498.39L1332.5,439.19L1339.4,365.85L1346.4,292.33L1353.4,204.62L1360.3,131.16L1367.3,87.928L1374.2,78.981L1381.2,94.553L1388.2,144.98L1395.1,206.31L1402.1,277.49L1409,351.46L1416,421.42L1423,474.54L1429.9,522.19L1436.9,542.52" style="fill:none;stroke:#7AC36A;stroke-width:1.25;stroke-dasharray:7.5,2.5" />
<path d="M49.258,336.8L54.592,336.8L54.592,342.14L49.258,342.14Z" style="fill:none;stroke:#7AC36A;stroke-width:0.625" />
<path d="M56.217,447.01L61.552,447.01L61.552,452.34L56.217,452.34Z" style="fill:none;stroke:#7AC36A;stroke-width:0.625" />
<path d="M63.177,543.1L68.511,543.1L68.511,548.43L63.177,548.43Z" style="fill:none;stroke:#7AC36A;stroke-width:0.625" />
<path d="M70.136,648.81L75.471,648.81L75.471,654.15L70.136,654.15Z" style="fill:none;stroke:#7AC36A;stroke-width:0.625" />
<path d="M77.096,725.59L82.431,725.59L82.431,730.93L77.096,730.93Z" style="fill:none;stroke:#7AC36A;stroke-width:0.625" />
<path d="M84.055,771.27L89.39,771.27L89.39,776.6L84.055,776.6Z" style="fill:none;stroke:#7AC36A;stroke-width:0.625" />
<path d="M91.015,804.21L96.35,804.21L96.35,809.54L91.015,809.54Z" style="fill:none;stroke:#7AC36A;stroke-width:0.625" />
<path d="M97.974,793.68L103.31,793.68L103.31,799.01L97.974,799.01Z" style="fill:none;stroke:#7AC36A;stroke-width:0.625" />
<path d="M104.93,741.91L110.27,741.91L110.27,747.24L104.93,747.24Z" style="fill:none;stroke:#7AC36A;stroke-width:0.625" />
<path d="M111.89,666.49L117.23,666.49L117.23,671.82L111.89,671.82Z" style="fill:none;stroke:#7AC36A;stroke-width:0.625" />
<path d="M118.85,575.45L124.19,575.45L124.19,580.79L118.85,580.79Z" style="fill:none;stroke:#7AC36A;stroke-width:0.625" />
<path d="M125.81,493.75L131.15,493.75L131.15,499.09L125.81,499.09Z" style="fill:none;stroke:#7AC36A;stroke-width:0.625" />
<path d="M132.77,404.84L138.11,404.84L138.11,410.17L132.77,410.17Z" style="fill:none;stroke:#7AC36A;stroke-width:0.625" />
<path d="M139.73,323.65L145.07,323.65L145.07,328.99L139.73,328.99Z" style="fill:none;stroke:#7AC36A;stroke-width:0.625" />
<path d="M146.69,263.08L152.03,263.08L152.03,268.41L146.69,268.41Z" style="fill:none;stroke:#7AC36A;stroke-width:0.625" />
<path d="M153.65,239.73L158.99,239.73L158.99,245.07L153.65,245.07Z" style="fill:none;stroke:#7AC36A;stroke-width:0.625" />
<path d="M160.61,228.5L165.95,228.5L165.95,233.84L160.61,233.84Z" style="fill:none;stroke:#7AC36A;stroke-width:0.625" />
<path d="M167.57,221.91L172.9,221.91L172.9,227.25L167.57,227.25Z" style="fill:none;stroke:#7AC36A;stroke-width:0.625" />
<path d="M174.53,224.91L179.86,224.91L179.86,230.25L174.53,230.25Z" style="fill:none;stroke:#7AC36A;stroke-width:0.625" />
<path d="M181.49,218.51L186.82,218.51L186.82,223.84L181.49,223.84Z" style="fill:none;stroke:#7AC36A;stroke-width:0.625" />
<path d="M188.45,218.08L193.78,218.08L193.78,223.41L188.45,223.41Z" style="fill:none;stroke:#7AC36A;stroke-width:0.625" />
<path d="M195.41,216.89L200.74,216.89L200.74,222.23L195.41,222.23Z" style="fill:none;stroke:#7AC36A;stroke-width:0.625" />
<path d="M202.37,199.62L207.7,199.62L207.7,204.96L202.37,204.96Z" style="fill:none;stroke:#7AC36A;stroke-width:0.625" />
<path d="M209.33,186.22L214.66,186.22L214.66,191.55L209.33,191.55Z" style="fill:none;stroke:#7AC36A;stroke-width:0.625" />
<path d="M216.29,186.22L221.62,186.22L221.62,191.56L216.29,191.56Z" style="fill:none;stroke:#7AC36A;stroke-width:0.625" />
<path d="M223.25,206.85L228.58,206.85L228.58,212.19L223.25,212.19Z" style="fill:none;stroke:#7AC36A;stroke-width:0.625" />
<path d="M230.21,244.23L235.54,244.23L235.54,249.57L230.21,249.57Z" style="fill:none;stroke:#7AC36A;stroke-width:0.625" />
<path d="M237.17,278.82L242.5,278.82L242.5,284.15L237.17,284.15Z" style="fill:none;stroke:#7AC36A;stroke-width:0.625" />
<path d="M244.12,329.48L249.46,329.48L249.46,334.81L244.12,334.81Z" style="fill:none;stroke:#7AC36A;stroke-width:0.625" />
<path d="M251.08,405.66L256.42,405.66L256.42,411L251.08,411Z" style="fill:none;stroke:#7AC36A;stroke-width:0.625" />
<path d="M258.04,489.72L263.38,489.72L263.38,495.05L258.04,495.05Z" style="fill:none;stroke:#7AC36A;stroke-width:0.625" />
<path d="M265,551.04L270.34,551.04L270.34,556.37L265,556.37Z" style="fill:none;stroke:#7AC36A;stroke-width:0.625" />
<path d="M271.96,602L277.3,602L277.3,607.34L271.96,607.34Z" style="fill:none;stroke:#7AC36A;stroke-width:0.625" />
<path d="M278.92,617.78L284.26,617.78L284.26,623.11L278.92,623.11Z" style="fill:none;stroke:#7AC36A;stroke-width:0.625" />
<path d="M285.88,621.88L291.22,621.88L291.22,627.22L285.88,627.22Z" style="fill:none;stroke:#7AC36A;stroke-width:0.625" />
<path d="M292.84,595.34L298.18,595.34L298.18,600.68L292.84,600.68Z" style="fill:none;stroke:#7AC36A;stroke-width:0.625" />
<path d="M299.8,531.45L305.14,531.45L305.14,536.78L299.8,536.78Z" style="fill:none;stroke:#7AC36A;stroke-width:0.625" />
<path d="M306.76,461.32L312.1,461.32L312.1,466.65L306.76,466.65Z" style="fill:none;stroke:#7AC36A;stroke-width:0.625" />
<path d="M313.72,390.17L319.06,390.17L319.06,395.5L313.72,395.5Z" style="fill:none;stroke:#7AC36A;stroke-width:0.625" />
<path d="M320.68,315.43L326.01,315.43L326.01,320.76L320.68,320.76Z" style="fill:none;stroke:#7AC36A;stroke-width:0.625" />
<path d="M327.64,238.22L332.97,238.22L332.97,243.55L327.64,243.55Z" style="fill:none;stroke:#7AC36A;stroke-width:0.625" />
<path d="M334.6,203.22L339.93,203.22L339.93,208.55L334.6,208.55Z" style="fill:none;stroke:#7AC36A;stroke-width:0.625" />
<path d="M341.56,191.08L346.89,191.08L346.89,196.41L341.56,196.41Z" style="fill:none;stroke:#7AC36A;stroke-width:0.625" />
<path d="M348.52,186.99L353.85,186.99L353.85,192.32L348.52,192.32Z" style="fill:none;stroke:#7AC36A;stroke-width:0.625" />
<path d="M355.48,188.53L360.81,188.53L360.81,193.87L355.48,193.87Z" style="fill:none;stroke:#7AC36A;stroke-width:0.625" />
<path d="M362.44,213.98L367.77,213.98L367.77,219.32L362.44,219.32Z" style="fill:none;stroke:#7AC36A;stroke-width:0.625" />
<path d="M369.4,248.29L374.73,248.29L374.73,253.62L369.4,253.62Z" style="fill:none;stroke:#7AC36A;stroke-width:0.625" />
<path d="M376.36,279.87L381.69,279.87L381.69,285.2L376.36,285.2Z" style="fill:none;stroke:#7AC36A;stroke-width:0.625" />
<path d="M383.32,297.88L388.65,297.88L388.65,303.21L383.32,303.21Z" style="fill:none;stroke:#7AC36A;stroke-width:0.625" />
<path d="M390.28,321.86L395.61,321.86L395.61,327.2L390.28,327.2Z" style="fill:none;stroke:#7AC36A;stroke-width:0.625" />
<path d="M397.24,327.68L402.57,327.68L402.57,333.01L397.24,333.01Z" style="fill:none;stroke:#7AC36A;stroke-width:0.625" />
<path d="M404.19,327.62L409.53,327.62L409.53,332.95L404.19,332.95Z" style="fill:none;stroke:#7AC36A;stroke-width:0.625" />
<path d="M411.15,349.43L416.49,349.43L416.49,354.76L411.15,354.76Z" style="fill:none;stroke:#7AC36A;stroke-width:0.625" />
<path d="M418.11,358.01L423.45,358.01L423.45,363.34L418.11,363.34Z" style="fill:none;stroke:#7AC36A;stroke-width:0.625" />
<path d="M425.07,396.55L430.41,396.55L430.41,401.88L425.07,401.88Z" style="fill:none;stroke:#7AC36A;stroke-width:0.625" />
<path d="M432.03,432.08L437.37,432.08L437.37,437.41L432.03,437.41Z" style="fill:none;stroke:#7AC36A;stroke-width:0.625" />
<path d="M438.99,488.88L444.33,488.88L444.33,494.21L438.99,494.21Z" style="fill:none;stroke:#7AC36A;stroke-width:0.625" />
<path d="M445.95,535.82L451.29,535.82L451.29,541.15L445.95,541.15Z" style="fill:none;stroke:#7AC36A;stroke-width:0.625" />
<path d="M452.91,583.1L458.25,583.1L458.25,588.43L452.91,588.43Z" style="fill:none;stroke:#7AC36A;stroke-width:0.625" />
<path d="M459.87,592.95L465.21,592.95L465.21,598.29L459.87,598.29Z" style="fill:none;stroke:#7AC36A;stroke-width:0.625" />
<path d="M466.83,584.71L472.17,584.71L472.17,590.04L466.83,590.04Z" style="fill:none;stroke:#7AC36A;stroke-width:0.625" />
<path d="M473.79,550.92L479.12,550.92L479.12,556.25L473.79,556.25Z" style="fill:none;stroke:#7AC36A;stroke-width:0.625" />
<path d="M480.75,494.72L486.08,494.72L486.08,500.06L480.75,500.06Z" style="fill:none;stroke:#7AC36A;stroke-width:0.625" />
<path d="M487.71,434.88L493.04,434.88L493.04,440.21L487.71,440.21Z" style="fill:none;stroke:#7AC36A;stroke-width:0.625" />
<path d="M494.67,364.13L500,364.13L500,369.47L494.67,369.47Z" style="fill:none;stroke:#7AC36A;stroke-width:0.625" />
<path d="M501.63,268.51L506.96,268.51L506.96,273.84L501.63,273.84Z" style="fill:none;stroke:#7AC36A;stroke-width:0.625" />
<path d="M508.59,181.99L513.92,181.99L513.92,187.32L508.59,187.32Z" style="fill:none;stroke:#7AC36A;stroke-width:0.625" />
<path d="M515.55,126.5L520.88,126.5L520.88,131.83L515.55,131.83Z" style="fill:none;stroke:#7AC36A;stroke-width:0.625" />
<path d="M522.51,89.644L527.84,89.644L527.84,94.979L522.51,94.979Z" style="fill:none;stroke:#7AC36A;stroke-width:0.625" />
<path d="M529.47,94.989L534.8,94.989L534.8,100.32L529.47,100.32Z" style="fill:none;stroke:#7AC36A;stroke-width:0.625" />
<path d="M536.43,128.49L541.76,128.49L541.76,133.82L536.43,133.82Z" style="fill:none;stroke:#7AC36A;stroke-width:0.625" />
<path d="M543.39,182.42L548.72,182.42L548.72,187.76L543.39,187.76Z" style="fill:none;stroke:#7AC36A;stroke-width:0.625" />
<path d="M550.35,244.13L555.68,244.13L555.68,249.47L550.35,249.47Z" style="fill:none;stroke:#7AC36A;stroke-width:0.625" />
<path d="M557.3,312.63L562.64,312.63L562.64,317.97L557.3,317.97Z" style="fill:none;stroke:#7AC36A;stroke-width:0.625" />
<path d="M564.26,378.54L569.6,378.54L569.6,383.88L564.26,383.88Z" style="fill:none;stroke:#7AC36A;stroke-width:0.625" />
<path d="M571.22,437.61L576.56,437.61L576.56,442.94L571.22,442.94Z" style="fill:none;stroke:#7AC36A;stroke-width:0.625" />
<path d="M578.18,469.43L583.52,469.43L583.52,474.76L578.18,474.76Z" style="fill:none;stroke:#7AC36A;stroke-width:0.625" />
<path d="M585.14,485.51L590.48,485.51L590.48,490.84L585.14,490.84Z" style="fill:none;stroke:#7AC36A;stroke-width:0.625" />
<path d="M592.1,496.38L597.44,496.38L597.44,501.71L592.1,501.71Z" style="fill:none;stroke:#7AC36A;stroke-width:0.625" />
<path d="M599.06,493.63L604.4,493.63L604.4,498.97L599.06,498.97Z" style="fill:none;stroke:#7AC36A;stroke-width:0.625" />
<path d="M606.02,495.08L611.36,495.08L611.36,500.42L606.02,500.42Z" style="fill:none;stroke:#7AC36A;stroke-width:0.625" />
<path d="M612.98,498.45L618.32,498.45L618.32,503.78L612.98,503.78Z" style="fill:none;stroke:#7AC36A;stroke-width:0.625" />
<path d="M619.94,503.76L625.28,503.76L625.28,509.1L619.94,509.1Z" style="fill:none;stroke:#7AC36A;stroke-width:0.625" />
<path d="M626.9,506.66L632.23,506.66L632.23,511.99L626.9,511.99Z" style="fill:none;stroke:#7AC36A;stroke-width:0.625" />
<path d="M633.86,519.51L639.19,519.51L639.19,524.84L633.86,524.84Z" style="fill:none;stroke:#7AC36A;stroke-width:0.625" />
<path d="M640.82,505.38L646.15,505.38L646.15,510.71L640.82,510.71Z" style="fill:none;stroke:#7AC36A;stroke-width:0.625" />
<path d="M647.78,483.55L653.11,483.55L653.11,488.89L647.78,488.89Z" style="fill:none;stroke:#7AC36A;stroke-width:0.625" />
<path d="M654.74,449.41L660.07,449.41L660.07,454.75L654.74,454.75Z" style="fill:none;stroke:#7AC36A;stroke-width:0.625" />
<path d="M661.7,401.61L667.03,401.61L667.03,406.94L661.7,406.94Z" style="fill:none;stroke:#7AC36A;stroke-width:0.625" />
<path d="M668.66,351.64L673.99,351.64L673.99,356.97L668.66,356.97Z" style="fill:none;stroke:#7AC36A;stroke-width:0.625" />
<path d="M675.62,297.67L680.95,297.67L680.95,303L675.62,303Z" style="fill:none;stroke:#7AC36A;stroke-width:0.625" />
<path d="M682.58,232.58L687.91,232.58L687.91,237.91L682.58,237.91Z" style="fill:none;stroke:#7AC36A;stroke-width:0.625" />
<path d="M689.54,183.53L694.87,183.53L694.87,188.87L689.54,188.87Z" style="fill:none;stroke:#7AC36A;stroke-width:0.625" />
<path d="M696.5,138.58L701.83,138.58L701.83,143.91L696.5,143.91Z" style="fill:none;stroke:#7AC36A;stroke-width:0.625" />
<path d="M703.46,111.95L708.79,111.95L708.79,117.29L703.46,117.29Z" style="fill:none;stroke:#7AC36A;stroke-width:0.625" />
<path d="M710.41,111.22L715.75,111.22L715.75,116.56L710.41,116.56Z" style="fill:none;stroke:#7AC36A;stroke-width:0.625" />
<path d="M717.37,152.87L722.71,152.87L722.71,158.21L717.37,158.21Z" style="fill:none;stroke:#7AC36A;stroke-width:0.625" />
<path d="M724.33,211.07L729.67,211.07L729.67,216.4L724.33,216.4Z" style="fill:none;stroke:#7AC36A;stroke-width:0.625" />
<path d="M731.29,295.54L736.63,295.54L736.63,300.88L731.29,300.88Z" style="fill:none;stroke:#7AC36A;stroke-width:0.625" />
<path d="M738.25,377.92L743.59,377.92L743.59,383.26L738.25,383.26Z" style="fill:none;stroke:#7AC36A;stroke-width:0.625" />
<path d="M745.21,450.27L750.55,450.27L750.55,455.6L745.21,455.6Z" style="fill:none;stroke:#7AC36A;stroke-width:0.625" />
<path d="M752.17,519.33L757.51,519.33L757.51,524.67L752.17,524.67Z" style="fill:none;stroke:#7AC36A;stroke-width:0.625" />
<path d="M759.13,572.85L764.47,572.85L764.47,578.19L759.13,578.19Z" style="fill:none;stroke:#7AC36A;stroke-width:0.625" />
<path d="M766.09,606.26L771.43,606.26L771.43,611.59L766.09,611.59Z" style="fill:none;stroke:#7AC36A;stroke-width:0.625" />
<path d="M773.05,609.17L778.39,609.17L778.39,614.5L773.05,614.5Z" style="fill:none;stroke:#7AC36A;stroke-width:0.625" />
<path d="M780.01,584.07L785.34,584.07L785.34,589.41L780.01,589.41Z" style="fill:none;stroke:#7AC36A;stroke-width:0.625" />
<path d="M786.97,552.09L792.3,552.09L792.3,557.43L786.97,557.43Z" style="fill:none;stroke:#7AC36A;stroke-width:0.625" />
<path d="M793.93,501.72L799.26,501.72L799.26,507.05L793.93,507.05Z" style="fill:none;stroke:#7AC36A;stroke-width:0.625" />
<path d="M800.89,445.51L806.22,445.51L806.22,450.84L800.89,450.84Z" style="fill:none;stroke:#7AC36A;stroke-width:0.625" />
<path d="M807.85,394.13L813.18,394.13L813.18,399.46L807.85,399.46Z" style="fill:none;stroke:#7AC36A;stroke-width:0.625" />
<path d="M814.81,365.19L820.14,365.19L820.14,370.53L814.81,370.53Z" style="fill:none;stroke:#7AC36A;stroke-width:0.625" />
<path d="M821.77,333.18L827.1,333.18L827.1,338.51L821.77,338.51Z" style="fill:none;stroke:#7AC36A;stroke-width:0.625" />
<path d="M828.73,315.07L834.06,315.07L834.06,320.4L828.73,320.4Z" style="fill:none;stroke:#7AC36A;stroke-width:0.625" />
<path d="M835.69,297.9L841.02,297.9L841.02,303.24L835.69,303.24Z" style="fill:none;stroke:#7AC36A;stroke-width:0.625" />
<path d="M842.65,276.84L847.98,276.84L847.98,282.18L842.65,282.18Z" style="fill:none;stroke:#7AC36A;stroke-width:0.625" />
<path d="M849.61,264.45L854.94,264.45L854.94,269.79L849.61,269.79Z" style="fill:none;stroke:#7AC36A;stroke-width:0.625" />
<path d="M856.57,251.27L861.9,251.27L861.9,256.6L856.57,256.6Z" style="fill:none;stroke:#7AC36A;stroke-width:0.625" />
<path d="M863.52,213.96L868.86,213.96L868.86,219.3L863.52,219.3Z" style="fill:none;stroke:#7AC36A;stroke-width:0.625" />
<path d="M870.48,178.12L875.82,178.12L875.82,183.45L870.48,183.45Z" style="fill:none;stroke:#7AC36A;stroke-width:0.625" />
<path d="M877.44,167.54L882.78,167.54L882.78,172.88L877.44,172.88Z" style="fill:none;stroke:#7AC36A;stroke-width:0.625" />
<path d="M884.4,169.34L889.74,169.34L889.74,174.68L884.4,174.68Z" style="fill:none;stroke:#7AC36A;stroke-width:0.625" />
<path d="M891.36,190.22L896.7,190.22L896.7,195.55L891.36,195.55Z" style="fill:none;stroke:#7AC36A;stroke-width:0.625" />
<path d="M898.32,226.63L903.66,226.63L903.66,231.96L898.32,231.96Z" style="fill:none;stroke:#7AC36A;stroke-width:0.625" />
<path d="M905.28,271.3L910.62,271.3L910.62,276.64L905.28,276.64Z" style="fill:none;stroke:#7AC36A;stroke-width:0.625" />
<path d="M912.24,348.44L917.58,348.44L917.58,353.78L912.24,353.78Z" style="fill:none;stroke:#7AC36A;stroke-width:0.625" />
<path d="M919.2,424.32L924.54,424.32L924.54,429.66L919.2,429.66Z" style="fill:none;stroke:#7AC36A;stroke-width:0.625" />
<path d="M926.16,510.66L931.5,510.66L931.5,515.99L926.16,515.99Z" style="fill:none;stroke:#7AC36A;stroke-width:0.625" />
<path d="M933.12,592.42L938.45,592.42L938.45,597.75L933.12,597.75Z" style="fill:none;stroke:#7AC36A;stroke-width:0.625" />
<path d="M940.08,638.45L945.41,638.45L945.41,643.78L940.08,643.78Z" style="fill:none;stroke:#7AC36A;stroke-width:0.625" />
<path d="M947.04,649.15L952.37,649.15L952.37,654.48L947.04,654.48Z" style="fill:none;stroke:#7AC36A;stroke-width:0.625" />
<path d="M954,637.96L959.33,637.96L959.33,643.29L954,643.29Z" style="fill:none;stroke:#7AC36A;stroke-width:0.625" />
<path d="M960.96,608.63L966.29,608.63L966.29,613.96L960.96,613.96Z" style="fill:none;stroke:#7AC36A;stroke-width:0.625" />
<path d="M967.92,550.68L973.25,550.68L973.25,556.01L967.92,556.01Z" style="fill:none;stroke:#7AC36A;stroke-width:0.625" />
<path d="M974.88,469.67L980.21,469.67L980.21,475L974.88,475Z" style="fill:none;stroke:#7AC36A;stroke-width:0.625" />
<path d="M981.84,394.35L987.17,394.35L987.17,399.68L981.84,399.68Z" style="fill:none;stroke:#7AC36A;stroke-width:0.625" />
<path d="M988.8,328.89L994.13,328.89L994.13,334.23L988.8,334.23Z" style="fill:none;stroke:#7AC36A;stroke-width:0.625" />
<path d="M995.76,269.83L1001.1,269.83L1001.1,275.17L995.76,275.17Z" style="fill:none;stroke:#7AC36A;stroke-width:0.625" />
<path d="M1002.7,230.59L1008.1,230.59L1008.1,235.92L1002.7,235.92Z" style="fill:none;stroke:#7AC36A;stroke-width:0.625" />
<path d="M1009.7,206.08L1015,206.08L1015,211.42L1009.7,211.42Z" style="fill:none;stroke:#7AC36A;stroke-width:0.625" />
<path d="M1016.6,190.18L1022,190.18L1022,195.51L1016.6,195.51Z" style="fill:none;stroke:#7AC36A;stroke-width:0.625" />
<path d="M1023.6,191.37L1028.9,191.37L1028.9,196.71L1023.6,196.71Z" style="fill:none;stroke:#7AC36A;stroke-width:0.625" />
<path d="M1030.6,203.45L1035.9,203.45L1035.9,208.79L1030.6,208.79Z" style="fill:none;stroke:#7AC36A;stroke-width:0.625" />
<path d="M1037.5,230.39L1042.8,230.39L1042.8,235.72L1037.5,235.72Z" style="fill:none;stroke:#7AC36A;stroke-width:0.625" />
<path d="M1044.5,240.35L1049.8,240.35L1049.8,245.69L1044.5,245.69Z" style="fill:none;stroke:#7AC36A;stroke-width:0.625" />
<path d="M1051.4,260.06L1056.8,260.06L1056.8,265.4L1051.4,265.4Z" style="fill:none;stroke:#7AC36A;stroke-width:0.625" />
<path d="M1058.4,272.48L1063.7,272.48L1063.7,277.81L1058.4,277.81Z" style="fill:none;stroke:#7AC36A;stroke-width:0.625" />
<path d="M1065.4,280.83L1070.7,280.83L1070.7,286.16L1065.4,286.16Z" style="fill:none;stroke:#7AC36A;stroke-width:0.625" />
<path d="M1072.3,285L1077.6,285L1077.6,290.33L1072.3,290.33Z" style="fill:none;stroke:#7AC36A;stroke-width:0.625" />
<path d="M1079.3,317.11L1084.6,317.11L1084.6,322.45L1079.3,322.45Z" style="fill:none;stroke:#7AC36A;stroke-width:0.625" />
<path d="M1086.2,349.74L1091.6,349.74L1091.6,355.07L1086.2,355.07Z" style="fill:none;stroke:#7AC36A;stroke-width:0.625" />
<path d="M1093.2,397.61L1098.5,397.61L1098.5,402.94L1093.2,402.94Z" style="fill:none;stroke:#7AC36A;stroke-width:0.625" />
<path d="M1100.1,443.6L1105.5,443.6L1105.5,448.93L1100.1,448.93Z" style="fill:none;stroke:#7AC36A;stroke-width:0.625" />
<path d="M1107.1,492.93L1112.4,492.93L1112.4,498.26L1107.1,498.26Z" style="fill:none;stroke:#7AC36A;stroke-width:0.625" />
<path d="M1114.1,551.1L1119.4,551.1L1119.4,556.43L1114.1,556.43Z" style="fill:none;stroke:#7AC36A;stroke-width:0.625" />
<path d="M1121,594.86L1126.4,594.86L1126.4,600.2L1121,600.2Z" style="fill:none;stroke:#7AC36A;stroke-width:0.625" />
<path d="M1128,623.41L1133.3,623.41L1133.3,628.74L1128,628.74Z" style="fill:none;stroke:#7AC36A;stroke-width:0.625" />
<path d="M1134.9,617.13L1140.3,617.13L1140.3,622.46L1134.9,622.46Z" style="fill:none;stroke:#7AC36A;stroke-width:0.625" />
<path d="M1141.9,572.21L1147.2,572.21L1147.2,577.55L1141.9,577.55Z" style="fill:none;stroke:#7AC36A;stroke-width:0.625" />
<path d="M1148.9,519.45L1154.2,519.45L1154.2,524.78L1148.9,524.78Z" style="fill:none;stroke:#7AC36A;stroke-width:0.625" />
<path d="M1155.8,436.52L1161.2,436.52L1161.2,441.85L1155.8,441.85Z" style="fill:none;stroke:#7AC36A;stroke-width:0.625" />
<path d="M1162.8,339.96L1168.1,339.96L1168.1,345.3L1162.8,345.3Z" style="fill:none;stroke:#7AC36A;stroke-width:0.625" />
<path d="M1169.7,257.56L1175.1,257.56L1175.1,262.9L1169.7,262.9Z" style="fill:none;stroke:#7AC36A;stroke-width:0.625" />
<path d="M1176.7,175.73L1182,175.73L1182,181.07L1176.7,181.07Z" style="fill:none;stroke:#7AC36A;stroke-width:0.625" />
<path d="M1183.7,122.98L1189,122.98L1189,128.32L1183.7,128.32Z" style="fill:none;stroke:#7AC36A;stroke-width:0.625" />
<path d="M1190.6,91.941L1196,91.941L1196,97.276L1190.6,97.276Z" style="fill:none;stroke:#7AC36A;stroke-width:0.625" />
<path d="M1197.6,84.517L1202.9,84.517L1202.9,89.852L1197.6,89.852Z" style="fill:none;stroke:#7AC36A;stroke-width:0.625" />
<path d="M1204.5,108.85L1209.9,108.85L1209.9,114.18L1204.5,114.18Z" style="fill:none;stroke:#7AC36A;stroke-width:0.625" />
<path d="M1211.5,157.53L1216.8,157.53L1216.8,162.86L1211.5,162.86Z" style="fill:none;stroke:#7AC36A;stroke-width:0.625" />
<path d="M1218.5,225.6L1223.8,225.6L1223.8,230.94L1218.5,230.94Z" style="fill:none;stroke:#7AC36A;stroke-width:0.625" />
<path d="M1225.4,281.78L1230.8,281.78L1230.8,287.12L1225.4,287.12Z" style="fill:none;stroke:#7AC36A;stroke-width:0.625" />
<path d="M1232.4,341.98L1237.7,341.98L1237.7,347.31L1232.4,347.31Z" style="fill:none;stroke:#7AC36A;stroke-width:0.625" />
<path d="M1239.3,383.94L1244.7,383.94L1244.7,389.27L1239.3,389.27Z" style="fill:none;stroke:#7AC36A;stroke-width:0.625" />
<path d="M1246.3,429.66L1251.6,429.66L1251.6,434.99L1246.3,434.99Z" style="fill:none;stroke:#7AC36A;stroke-width:0.625" />
<path d="M1253.3,457.97L1258.6,457.97L1258.6,463.31L1253.3,463.31Z" style="fill:none;stroke:#7AC36A;stroke-width:0.625" />
<path d="M1260.2,478.46L1265.6,478.46L1265.6,483.79L1260.2,483.79Z" style="fill:none;stroke:#7AC36A;stroke-width:0.625" />
<path d="M1267.2,496.16L1272.5,496.16L1272.5,501.49L1267.2,501.49Z" style="fill:none;stroke:#7AC36A;stroke-width:0.625" />
<path d="M1274.1,505.34L1279.5,505.34L1279.5,510.67L1274.1,510.67Z" style="fill:none;stroke:#7AC36A;stroke-width:0.625" />
<path d="M1281.1,524.28L1286.4,524.28L1286.4,529.61L1281.1,529.61Z" style="fill:none;stroke:#7AC36A;stroke-width:0.625" />
<path d="M1288.1,521.94L1293.4,521.94L1293.4,527.28L1288.1,527.28Z" style="fill:none;stroke:#7AC36A;stroke-width:0.625" />
<path d="M1295,542.67L1300.4,542.67L1300.4,548.01L1295,548.01Z" style="fill:none;stroke:#7AC36A;stroke-width:0.625" />
<path d="M1302,543.02L1307.3,543.02L1307.3,548.35L1302,548.35Z" style="fill:none;stroke:#7AC36A;stroke-width:0.625" />
<path d="M1308.9,532.37L1314.3,532.37L1314.3,537.71L1308.9,537.71Z" style="fill:none;stroke:#7AC36A;stroke-width:0.625" />
<path d="M1315.9,524.52L1321.2,524.52L1321.2,529.85L1315.9,529.85Z" style="fill:none;stroke:#7AC36A;stroke-width:0.625" />
<path d="M1322.9,495.72L1328.2,495.72L1328.2,501.06L1322.9,501.06Z" style="fill:none;stroke:#7AC36A;stroke-width:0.625" />
<path d="M1329.8,436.53L1335.1,436.53L1335.1,441.86L1329.8,441.86Z" style="fill:none;stroke:#7AC36A;stroke-width:0.625" />
<path d="M1336.8,363.18L1342.1,363.18L1342.1,368.51L1336.8,368.51Z" style="fill:none;stroke:#7AC36A;stroke-width:0.625" />
<path d="M1343.7,289.66L1349.1,289.66L1349.1,294.99L1343.7,294.99Z" style="fill:none;stroke:#7AC36A;stroke-width:0.625" />
<path d="M1350.7,201.95L1356,201.95L1356,207.29L1350.7,207.29Z" style="fill:none;stroke:#7AC36A;stroke-width:0.625" />
<path d="M1357.7,128.49L1363,128.49L1363,133.82L1357.7,133.82Z" style="fill:none;stroke:#7AC36A;stroke-width:0.625" />
<path d="M1364.6,85.261L1369.9,85.261L1369.9,90.595L1364.6,90.595Z" style="fill:none;stroke:#7AC36A;stroke-width:0.625" />
<path d="M1371.6,76.313L1376.9,76.313L1376.9,81.648L1371.6,81.648Z" style="fill:none;stroke:#7AC36A;stroke-width:0.625" />
<path d="M1378.5,91.886L1383.9,91.886L1383.9,97.221L1378.5,97.221Z" style="fill:none;stroke:#7AC36A;stroke-width:0.625" />
<path d="M1385.5,142.32L1390.8,142.32L1390.8,147.65L1385.5,147.65Z" style="fill:none;stroke:#7AC36A;stroke-width:0.625" />
<path d="M1392.5,203.65L1397.8,203.65L1397.8,208.98L1392.5,208.98Z" style="fill:none;stroke:#7AC36A;stroke-width:0.625" />
<path d="M1399.4,274.82L1404.7,274.82L1404.7,280.16L1399.4,280.16Z" style="fill:none;stroke:#7AC36A;stroke-width:0.625" />
<path d="M1406.4,348.8L1411.7,348.8L1411.7,354.13L1406.4,354.13Z" style="fill:none;stroke:#7AC36A;stroke-width:0.625" />
<path d="M1413.3,418.75L1418.7,418.75L1418.7,424.08L1413.3,424.08Z" style="fill:none;stroke:#7AC36A;stroke-width:0.625" />
<path d="M1420.3,471.87L1425.6,471.87L1425.6,477.21L1420.3,477.21Z" style="fill:none;stroke:#7AC36A;stroke-width:0.625" />
<path d="M1427.2,519.52L1432.6,519.52L1432.6,524.86L1427.2,524.86Z" style="fill:none;stroke:#7AC36A;stroke-width:0.625" />
<path d="M1434.2,539.85L1439.5,539.85L1439.5,545.18L1434.2,545.18Z" style="fill:none;stroke:#7AC36A;stroke-width:0.625" />
<path d="M1415,66.978L1440,66.978" style="fill:none;stroke:#F15A60;stroke-width:1.25" />
<path d="M1430.6,66.978A3.125,3.125 0 1 1 1424.4,66.978A3.125,3.125 0 1 1 1430.6,66.978Z" style="fill:none;stroke:#F15A60;stroke-width:0.625" />
<text x="1388.8" y="-61.188" transform="scale(1, -1)"
	style="font-family:Times;font-weight:normal;font-style:normal;font-size:12pt">raw</text>
<path d="M1415,53.117L1440,53.117" style="fill:none;stroke:#7AC36A;stroke-width:1.25;stroke-dasharray:7.5,2.5" />
<path d="M1424.8,50.45L1430.2,50.45L1430.2,55.785L1424.8,55.785Z" style="fill:none;stroke:#7AC36A;stroke-width:0.625" />
<text x="1367.1" y="-47.328" transform="scale(1, -1)"
	style="font-family:Times;font-weight:normal;font-style:normal;font-size:12pt">smooth</text>
</g>
</svg>
