<?xml version="1.0"?>
<!-- Generated by SVGo and Plotinum VG -->
<svg width="16in" height="9in"
	xmlns="http://www.w3.org/2000/svg"
	xmlns:xlink="http://www.w3.org/1999/xlink">
<g transform="scale(1, -1) translate(0, -810)">
<path d="M0,0L1440,0L1440,810L0,810Z" style="fill:#FFFFFF" />
<text x="738.98" y="-5.355" transform="scale(1, -1)"
	style="font-family:Times;font-weight:normal;font-style:normal;font-size:12pt">X</text>
<text x="48.8" y="-19.025" transform="scale(1, -1)"
	style="font-family:Times;font-weight:normal;font-style:normal;font-size:10pt">0</text>
<text x="463.25" y="-19.025" transform="scale(1, -1)"
	style="font-family:Times;font-weight:normal;font-style:normal;font-size:10pt">60</text>
<text x="877.7" y="-19.025" transform="scale(1, -1)"
	style="font-family:Times;font-weight:normal;font-style:normal;font-size:10pt">120</text>
<text x="1295.3" y="-19.025" transform="scale(1, -1)"
	style="font-family:Times;font-weight:normal;font-style:normal;font-size:10pt">180</text>
<path d="M51.925,29.625L51.925,39.625" style="fill:none;stroke:#000000;stroke-width:0.625" />
<path d="M469.5,29.625L469.5,39.625" style="fill:none;stroke:#000000;stroke-width:0.625" />
<path d="M887.07,29.625L887.07,39.625" style="fill:none;stroke:#000000;stroke-width:0.625" />
<path d="M1304.6,29.625L1304.6,39.625" style="fill:none;stroke:#000000;stroke-width:0.625" />
<path d="M191.12,34.625L191.12,39.625" style="fill:none;stroke:#000000;stroke-width:0.625" />
<path d="M330.31,34.625L330.31,39.625" style="fill:none;stroke:#000000;stroke-width:0.625" />
<path d="M608.69,34.625L608.69,39.625" style="fill:none;stroke:#000000;stroke-width:0.625" />
<path d="M747.88,34.625L747.88,39.625" style="fill:none;stroke:#000000;stroke-width:0.625" />
<path d="M1026.3,34.625L1026.3,39.625" style="fill:none;stroke:#000000;stroke-width:0.625" />
<path d="M1165.5,34.625L1165.5,39.625" style="fill:none;stroke:#000000;stroke-width:0.625" />
<path d="M51.925,39.625L1436.9,39.625" style="fill:none;stroke:#000000;stroke-width:0.625" />
<g transform="rotate(90)">
<text x="422.68" y="12.72" transform="scale(1, -1)"
	style="font-family:Times;font-weight:normal;font-style:normal;font-size:12pt">Y</text>
</g>
<text x="18.075" y="-159.97" transform="scale(1, -1)"
	style="font-family:Times;font-weight:normal;font-style:normal;font-size:10pt">-1</text>
<text x="22.237" y="-298.63" transform="scale(1, -1)"
	style="font-family:Times;font-weight:normal;font-style:normal;font-size:10pt">0</text>
<text x="22.237" y="-437.3" transform="scale(1, -1)"
	style="font-family:Times;font-weight:normal;font-style:normal;font-size:10pt">1</text>
<text x="22.237" y="-575.97" transform="scale(1, -1)"
	style="font-family:Times;font-weight:normal;font-style:normal;font-size:10pt">2</text>
<text x="22.237" y="-714.64" transform="scale(1, -1)"
	style="font-family:Times;font-weight:normal;font-style:normal;font-size:10pt">3</text>
<path d="M31.613,164.79L41.612,164.79" style="fill:none;stroke:#000000;stroke-width:0.625" />
<path d="M31.613,303.46L41.612,303.46" style="fill:none;stroke:#000000;stroke-width:0.625" />
<path d="M31.613,442.13L41.612,442.13" style="fill:none;stroke:#000000;stroke-width:0.625" />
<path d="M31.613,580.79L41.612,580.79" style="fill:none;stroke:#000000;stroke-width:0.625" />
<path d="M31.613,719.46L41.612,719.46" style="fill:none;stroke:#000000;stroke-width:0.625" />
<path d="M36.612,95.46L41.612,95.46" style="fill:none;stroke:#000000;stroke-width:0.625" />
<path d="M36.612,234.13L41.612,234.13" style="fill:none;stroke:#000000;stroke-width:0.625" />
<path d="M36.612,372.79L41.612,372.79" style="fill:none;stroke:#000000;stroke-width:0.625" />
<path d="M36.612,511.46L41.612,511.46" style="fill:none;stroke:#000000;stroke-width:0.625" />
<path d="M36.612,650.13L41.612,650.13" style="fill:none;stroke:#000000;stroke-width:0.625" />
<path d="M36.612,788.79L41.612,788.79" style="fill:none;stroke:#000000;stroke-width:0.625" />
<path d="M41.612,49.313L41.612,806.88" style="fill:none;stroke:#000000;stroke-width:0.625" />
<path d="M51.925,303.46L58.885,412.88L65.844,506.36L72.804,490.58L79.763,546.58L86.723,535.47L93.682,669.8L100.64,619.56L107.6,589.59L114.56,672.23L121.52,588.49L128.48,506.65L135.44,484.26L142.4,451.94L149.36,494.36L156.32,394.89L163.28,341.13L170.24,332.32L177.2,404.92L184.16,357.89L191.12,309.65L198.08,328.89L205.04,282.43L211.99,345.15L218.95,378.21L225.91,325.16L232.87,360.26L239.83,410.11L246.79,461.31L253.75,464.23L260.71,354.13L267.67,352.94L274.63,416.62L281.59,417.17L288.55,304.59L295.51,310.28L302.47,219.6L309.43,277.19L316.39,230.65L323.35,135.1L330.31,172.24L337.27,185.56L344.23,138.87L351.19,63.202L358.15,199.39L365.1,217.55L372.06,176L379.02,157.8L385.98,274.47L392.94,344.32L399.9,387.06L406.86,395.96L413.82,513.71L420.78,487.1L427.74,504.84L434.7,633.77L441.66,540.42L448.62,660.04L455.58,590.26L462.54,663.27L469.5,591.79L476.46,613.66L483.42,471.06L490.38,466.56L497.34,432.09L504.3,408.99L511.26,459.77L518.21,430.05L525.17,283.57L532.13,273.44L539.09,328.67L546.05,283.73L553.01,357.1L559.97,365.97L566.93,370.68L573.89,357.84L580.85,392.31L587.81,420.88L594.77,459.13L601.73,404.9L608.69,411.23L615.65,448.77L622.61,406.81L629.57,425.94L636.53,401.05L643.49,360.44L650.45,296.51L657.41,312.29L664.37,156.05L671.32,138.85L678.28,119.15L685.24,107.48L692.2,158.19L699.16,183.9L706.12,148.02L713.08,224.22L720.04,196.57L727,216.37L733.96,255.51L740.92,377.67L747.88,378.42L754.84,472.92L761.8,465.71L768.76,474.74L775.72,565.83L782.68,619.59L789.64,662.07L796.6,642.61L803.56,611.82L810.52,650L817.48,574.32L824.43,521.4L831.39,486.32L838.35,519.2L845.31,410.07L852.27,409L859.23,360.62L866.19,316.32L873.15,362.35L880.11,368.77L887.07,255.92L894.03,271.51L900.99,381.95L907.95,388.31L914.91,408.31L921.87,396.65L928.83,350.28L935.79,450.61L942.75,400.17L949.71,461.22L956.67,487.93L963.63,396.16L970.59,343.59L977.54,370.1L984.5,397.1L991.46,333.56L998.42,256.02L1005.4,276.77L1012.3,262.58L1019.3,191.05L1026.3,172.29L1033.2,125.27L1040.2,66.419L1047.1,86.514L1054.1,110.55L1061.1,194.16L1068,141.22L1075,255.31L1081.9,278.27L1088.9,311.56L1095.9,325.44L1102.8,485.2L1109.8,474.68L1116.7,540.24L1123.7,520.74L1130.7,551.74L1137.6,638.74L1144.6,633.42L1151.5,658.11L1158.5,599.6L1165.5,527.34L1172.4,598.05L1179.4,504.58L1186.3,450.16L1193.3,480.7L1200.3,378.33L1207.2,386.87L1214.2,328.54L1221.1,281.78L1228.1,299.69L1235,315.59L1242,356.46L1249,287L1255.9,354.2L1262.9,331.92L1269.8,441.35L1276.8,429.53L1283.8,454.15L1290.7,478.34L1297.7,444.81L1304.6,488.32L1311.6,355.38L1318.6,464.48L1325.5,348.73L1332.5,311.35L1339.4,365.73L1346.4,305.43L1353.4,204.21L1360.3,180.22L1367.3,197.8L1374.2,98.248L1381.2,107.48L1388.2,154.24L1395.1,189.56L1402.1,165.24L1409,213.9L1416,171.99L1423,182.62L1429.9,216.53L1436.9,272.74" style="fill:none;stroke:#F15A60;stroke-width:1.25" />
<path d="M55.05,303.46A3.125,3.125 0 1 1 48.8,303.46A3.125,3.125 0 1 1 55.05,303.46Z" style="fill:none;stroke:#F15A60;stroke-width:0.625" />
<path d="M62.01,412.88A3.125,3.125 0 1 1 55.76,412.88A3.125,3.125 0 1 1 62.01,412.88Z" style="fill:none;stroke:#F15A60;stroke-width:0.625" />
<path d="M68.969,506.36A3.125,3.125 0 1 1 62.719,506.36A3.125,3.125 0 1 1 68.969,506.36Z" style="fill:none;stroke:#F15A60;stroke-width:0.625" />
<path d="M75.929,490.58A3.125,3.125 0 1 1 69.679,490.58A3.125,3.125 0 1 1 75.929,490.58Z" style="fill:none;stroke:#F15A60;stroke-width:0.625" />
<path d="M82.888,546.58L82.888,546.58A3.125,3.125 0 1 1 76.638,546.58A3.125,3.125 0 1 1 82.888,546.58Z" style="fill:none;stroke:#F15A60;stroke-width:0.625" />
<path d="M89.848,535.47L89.848,535.47A3.125,3.125 0 1 1 83.598,535.47A3.125,3.125 0 1 1 89.848,535.47Z" style="fill:none;stroke:#F15A60;stroke-width:0.625" />
<path d="M96.807,669.8L96.807,669.8A3.125,3.125 0 1 1 90.557,669.8A3.125,3.125 0 1 1 96.807,669.8Z" style="fill:none;stroke:#F15A60;stroke-width:0.625" />
<path d="M103.77,619.56L103.77,619.56A3.125,3.125 0 1 1 97.517,619.56A3.125,3.125 0 1 1 103.77,619.56Z" style="fill:none;stroke:#F15A60;stroke-width:0.625" />
<path d="M110.73,589.59L110.73,589.59A3.125,3.125 0 1 1 104.48,589.59A3.125,3.125 0 1 1 110.73,589.59Z" style="fill:none;stroke:#F15A60;stroke-width:0.625" />
<path d="M117.69,672.23L117.69,672.23A3.125,3.125 0 1 1 111.44,672.23A3.125,3.125 0 1 1 117.69,672.23Z" style="fill:none;stroke:#F15A60;stroke-width:0.625" />
<path d="M124.65,588.49A3.125,3.125 0 1 1 118.4,588.49A3.125,3.125 0 1 1 124.65,588.49Z" style="fill:none;stroke:#F15A60;stroke-width:0.625" />
<path d="M131.61,506.65A3.125,3.125 0 1 1 125.36,506.65A3.125,3.125 0 1 1 131.61,506.65Z" style="fill:none;stroke:#F15A60;stroke-width:0.625" />
<path d="M138.56,484.26A3.125,3.125 0 1 1 132.31,484.26A3.125,3.125 0 1 1 138.56,484.26Z" style="fill:none;stroke:#F15A60;stroke-width:0.625" />
<path d="M145.52,451.94A3.125,3.125 0 1 1 139.27,451.94A3.125,3.125 0 1 1 145.52,451.94Z" style="fill:none;stroke:#F15A60;stroke-width:0.625" />
<path d="M152.48,494.36A3.125,3.125 0 1 1 146.23,494.36A3.125,3.125 0 1 1 152.48,494.36Z" style="fill:none;stroke:#F15A60;stroke-width:0.625" />
<path d="M159.44,394.89A3.125,3.125 0 1 1 153.19,394.89A3.125,3.125 0 1 1 159.44,394.89Z" style="fill:none;stroke:#F15A60;stroke-width:0.625" />
<path d="M166.4,341.13A3.125,3.125 0 1 1 160.15,341.13A3.125,3.125 0 1 1 166.4,341.13Z" style="fill:none;stroke:#F15A60;stroke-width:0.625" />
<path d="M173.36,332.32A3.125,3.125 0 1 1 167.11,332.32A3.125,3.125 0 1 1 173.36,332.32Z" style="fill:none;stroke:#F15A60;stroke-width:0.625" />
<path d="M180.32,404.92L180.32,404.92A3.125,3.125 0 1 1 174.07,404.92A3.125,3.125 0 1 1 180.32,404.92Z" style="fill:none;stroke:#F15A60;stroke-width:0.625" />
<path d="M187.28,357.89A3.125,3.125 0 1 1 181.03,357.89A3.125,3.125 0 1 1 187.28,357.89Z" style="fill:none;stroke:#F15A60;stroke-width:0.625" />
<path d="M194.24,309.65L194.24,309.65A3.125,3.125 0 1 1 187.99,309.65A3.125,3.125 0 1 1 194.24,309.65Z" style="fill:none;stroke:#F15A60;stroke-width:0.625" />
<path d="M201.2,328.89A3.125,3.125 0 1 1 194.95,328.89A3.125,3.125 0 1 1 201.2,328.89Z" style="fill:none;stroke:#F15A60;stroke-width:0.625" />
<path d="M208.16,282.43A3.125,3.125 0 1 1 201.91,282.43A3.125,3.125 0 1 1 208.16,282.43Z" style="fill:none;stroke:#F15A60;stroke-width:0.625" />
<path d="M215.12,345.15A3.125,3.125 0 1 1 208.87,345.15A3.125,3.125 0 1 1 215.12,345.15Z" style="fill:none;stroke:#F15A60;stroke-width:0.625" />
<path d="M222.08,378.21L222.08,378.21A3.125,3.125 0 1 1 215.83,378.21A3.125,3.125 0 1 1 222.08,378.21Z" style="fill:none;stroke:#F15A60;stroke-width:0.625" />
<path d="M229.04,325.16A3.125,3.125 0 1 1 222.79,325.16A3.125,3.125 0 1 1 229.04,325.16Z" style="fill:none;stroke:#F15A60;stroke-width:0.625" />
<path d="M236,360.26A3.125,3.125 0 1 1 229.75,360.26A3.125,3.125 0 1 1 236,360.26Z" style="fill:none;stroke:#F15A60;stroke-width:0.625" />
<path d="M242.96,410.11A3.125,3.125 0 1 1 236.71,410.11A3.125,3.125 0 1 1 242.96,410.11Z" style="fill:none;stroke:#F15A60;stroke-width:0.625" />
<path d="M249.92,461.31L249.92,461.31A3.125,3.125 0 1 1 243.67,461.31A3.125,3.125 0 1 1 249.92,461.31Z" style="fill:none;stroke:#F15A60;stroke-width:0.625" />
<path d="M256.88,464.23L256.88,464.23A3.125,3.125 0 1 1 250.63,464.23A3.125,3.125 0 1 1 256.88,464.23Z" style="fill:none;stroke:#F15A60;stroke-width:0.625" />
<path d="M263.84,354.13A3.125,3.125 0 1 1 257.59,354.13A3.125,3.125 0 1 1 263.84,354.13Z" style="fill:none;stroke:#F15A60;stroke-width:0.625" />
<path d="M270.8,352.94A3.125,3.125 0 1 1 264.55,352.94A3.125,3.125 0 1 1 270.8,352.94Z" style="fill:none;stroke:#F15A60;stroke-width:0.625" />
<path d="M277.76,416.62L277.76,416.62A3.125,3.125 0 1 1 271.51,416.62A3.125,3.125 0 1 1 277.76,416.62Z" style="fill:none;stroke:#F15A60;stroke-width:0.625" />
<path d="M284.72,417.17A3.125,3.125 0 1 1 278.47,417.17A3.125,3.125 0 1 1 284.72,417.17Z" style="fill:none;stroke:#F15A60;stroke-width:0.625" />
<path d="M291.67,304.59L291.67,304.59A3.125,3.125 0 1 1 285.42,304.59A3.125,3.125 0 1 1 291.67,304.59Z" style="fill:none;stroke:#F15A60;stroke-width:0.625" />
<path d="M298.63,310.28A3.125,3.125 0 1 1 292.38,310.28A3.125,3.125 0 1 1 298.63,310.28Z" style="fill:none;stroke:#F15A60;stroke-width:0.625" />
<path d="M305.59,219.6A3.125,3.125 0 1 1 299.34,219.6A3.125,3.125 0 1 1 305.59,219.6Z" style="fill:none;stroke:#F15A60;stroke-width:0.625" />
<path d="M312.55,277.19A3.125,3.125 0 1 1 306.3,277.19A3.125,3.125 0 1 1 312.55,277.19Z" style="fill:none;stroke:#F15A60;stroke-width:0.625" />
<path d="M319.51,230.65A3.125,3.125 0 1 1 313.26,230.65A3.125,3.125 0 1 1 319.51,230.65Z" style="fill:none;stroke:#F15A60;stroke-width:0.625" />
<path d="M326.47,135.1A3.125,3.125 0 1 1 320.22,135.1A3.125,3.125 0 1 1 326.47,135.1Z" style="fill:none;stroke:#F15A60;stroke-width:0.625" />
<path d="M333.43,172.24L333.43,172.24A3.125,3.125 0 1 1 327.18,172.24A3.125,3.125 0 1 1 333.43,172.24Z" style="fill:none;stroke:#F15A60;stroke-width:0.625" />
<path d="M340.39,185.56A3.125,3.125 0 1 1 334.14,185.56A3.125,3.125 0 1 1 340.39,185.56Z" style="fill:none;stroke:#F15A60;stroke-width:0.625" />
<path d="M347.35,138.87L347.35,138.87A3.125,3.125 0 1 1 341.1,138.87A3.125,3.125 0 1 1 347.35,138.87Z" style="fill:none;stroke:#F15A60;stroke-width:0.625" />
<path d="M354.31,63.202A3.125,3.125 0 1 1 348.06,63.202A3.125,3.125 0 1 1 354.31,63.202Z" style="fill:none;stroke:#F15A60;stroke-width:0.625" />
<path d="M361.27,199.39L361.27,199.39A3.125,3.125 0 1 1 355.02,199.39A3.125,3.125 0 1 1 361.27,199.39Z" style="fill:none;stroke:#F15A60;stroke-width:0.625" />
<path d="M368.23,217.55A3.125,3.125 0 1 1 361.98,217.55A3.125,3.125 0 1 1 368.23,217.55Z" style="fill:none;stroke:#F15A60;stroke-width:0.625" />
<path d="M375.19,176A3.125,3.125 0 1 1 368.94,176A3.125,3.125 0 1 1 375.19,176Z" style="fill:none;stroke:#F15A60;stroke-width:0.625" />
<path d="M382.15,157.8A3.125,3.125 0 1 1 375.9,157.8A3.125,3.125 0 1 1 382.15,157.8Z" style="fill:none;stroke:#F15A60;stroke-width:0.625" />
<path d="M389.11,274.47A3.125,3.125 0 1 1 382.86,274.47A3.125,3.125 0 1 1 389.11,274.47Z" style="fill:none;stroke:#F15A60;stroke-width:0.625" />
<path d="M396.07,344.32A3.125,3.125 0 1 1 389.82,344.32A3.125,3.125 0 1 1 396.07,344.32Z" style="fill:none;stroke:#F15A60;stroke-width:0.625" />
<path d="M403.03,387.06L403.03,387.06A3.125,3.125 0 1 1 396.78,387.06A3.125,3.125 0 1 1 403.03,387.06Z" style="fill:none;stroke:#F15A60;stroke-width:0.625" />
<path d="M409.99,395.96A3.125,3.125 0 1 1 403.74,395.96A3.125,3.125 0 1 1 409.99,395.96Z" style="fill:none;stroke:#F15A60;stroke-width:0.625" />
<path d="M416.95,513.71A3.125,3.125 0 1 1 410.7,513.71A3.125,3.125 0 1 1 416.95,513.71Z" style="fill:none;stroke:#F15A60;stroke-width:0.625" />
<path d="M423.91,487.1L423.91,487.1A3.125,3.125 0 1 1 417.66,487.1A3.125,3.125 0 1 1 423.91,487.1Z" style="fill:none;stroke:#F15A60;stroke-width:0.625" />
<path d="M430.87,504.84A3.125,3.125 0 1 1 424.62,504.84A3.125,3.125 0 1 1 430.87,504.84Z" style="fill:none;stroke:#F15A60;stroke-width:0.625" />
<path d="M437.83,633.77A3.125,3.125 0 1 1 431.58,633.77A3.125,3.125 0 1 1 437.83,633.77Z" style="fill:none;stroke:#F15A60;stroke-width:0.625" />
<path d="M444.78,540.42A3.125,3.125 0 1 1 438.53,540.42A3.125,3.125 0 1 1 444.78,540.42Z" style="fill:none;stroke:#F15A60;stroke-width:0.625" />
<path d="M451.74,660.04L451.74,660.04A3.125,3.125 0 1 1 445.49,660.04A3.125,3.125 0 1 1 451.74,660.04Z" style="fill:none;stroke:#F15A60;stroke-width:0.625" />
<path d="M458.7,590.26L458.7,590.26A3.125,3.125 0 1 1 452.45,590.26A3.125,3.125 0 1 1 458.7,590.26Z" style="fill:none;stroke:#F15A60;stroke-width:0.625" />
<path d="M465.66,663.27L465.66,663.27A3.125,3.125 0 1 1 459.41,663.27A3.125,3.125 0 1 1 465.66,663.27Z" style="fill:none;stroke:#F15A60;stroke-width:0.625" />
<path d="M472.62,591.79A3.125,3.125 0 1 1 466.37,591.79A3.125,3.125 0 1 1 472.62,591.79Z" style="fill:none;stroke:#F15A60;stroke-width:0.625" />
<path d="M479.58,613.66A3.125,3.125 0 1 1 473.33,613.66A3.125,3.125 0 1 1 479.58,613.66Z" style="fill:none;stroke:#F15A60;stroke-width:0.625" />
<path d="M486.54,471.06A3.125,3.125 0 1 1 480.29,471.06A3.125,3.125 0 1 1 486.54,471.06Z" style="fill:none;stroke:#F15A60;stroke-width:0.625" />
<path d="M493.5,466.56A3.125,3.125 0 1 1 487.25,466.56A3.125,3.125 0 1 1 493.5,466.56Z" style="fill:none;stroke:#F15A60;stroke-width:0.625" />
<path d="M500.46,432.09A3.125,3.125 0 1 1 494.21,432.09A3.125,3.125 0 1 1 500.46,432.09Z" style="fill:none;stroke:#F15A60;stroke-width:0.625" />
<path d="M507.42,408.99A3.125,3.125 0 1 1 501.17,408.99A3.125,3.125 0 1 1 507.42,408.99Z" style="fill:none;stroke:#F15A60;stroke-width:0.625" />
<path d="M514.38,459.77L514.38,459.77A3.125,3.125 0 1 1 508.13,459.77A3.125,3.125 0 1 1 514.38,459.77Z" style="fill:none;stroke:#F15A60;stroke-width:0.625" />
<path d="M521.34,430.05A3.125,3.125 0 1 1 515.09,430.05A3.125,3.125 0 1 1 521.34,430.05Z" style="fill:none;stroke:#F15A60;stroke-width:0.625" />
<path d="M528.3,283.57A3.125,3.125 0 1 1 522.05,283.57A3.125,3.125 0 1 1 528.3,283.57Z" style="fill:none;stroke:#F15A60;stroke-width:0.625" />
<path d="M535.26,273.44L535.26,273.44A3.125,3.125 0 1 1 529.01,273.44A3.125,3.125 0 1 1 535.26,273.44Z" style="fill:none;stroke:#F15A60;stroke-width:0.625" />
<path d="M542.22,328.67A3.125,3.125 0 1 1 535.97,328.67A3.125,3.125 0 1 1 542.22,328.67Z" style="fill:none;stroke:#F15A60;stroke-width:0.625" />
<path d="M549.18,283.73A3.125,3.125 0 1 1 542.93,283.73A3.125,3.125 0 1 1 549.18,283.73Z" style="fill:none;stroke:#F15A60;stroke-width:0.625" />
<path d="M556.14,357.1A3.125,3.125 0 1 1 549.89,357.1A3.125,3.125 0 1 1 556.14,357.1Z" style="fill:none;stroke:#F15A60;stroke-width:0.625" />
<path d="M563.1,365.97A3.125,3.125 0 1 1 556.85,365.97A3.125,3.125 0 1 1 563.1,365.97Z" style="fill:none;stroke:#F15A60;stroke-width:0.625" />
<path d="M570.06,370.68L570.06,370.68A3.125,3.125 0 1 1 563.81,370.68A3.125,3.125 0 1 1 570.06,370.68Z" style="fill:none;stroke:#F15A60;stroke-width:0.625" />
<path d="M577.02,357.84A3.125,3.125 0 1 1 570.77,357.84A3.125,3.125 0 1 1 577.02,357.84Z" style="fill:none;stroke:#F15A60;stroke-width:0.625" />
<path d="M583.98,392.31A3.125,3.125 0 1 1 577.73,392.31A3.125,3.125 0 1 1 583.98,392.31Z" style="fill:none;stroke:#F15A60;stroke-width:0.625" />
<path d="M590.94,420.88A3.125,3.125 0 1 1 584.69,420.88A3.125,3.125 0 1 1 590.94,420.88Z" style="fill:none;stroke:#F15A60;stroke-width:0.625" />
<path d="M597.89,459.13A3.125,3.125 0 1 1 591.64,459.13A3.125,3.125 0 1 1 597.89,459.13Z" style="fill:none;stroke:#F15A60;stroke-width:0.625" />
<path d="M604.85,404.9A3.125,3.125 0 1 1 598.6,404.9A3.125,3.125 0 1 1 604.85,404.9Z" style="fill:none;stroke:#F15A60;stroke-width:0.625" />
<path d="M611.81,411.23A3.125,3.125 0 1 1 605.56,411.23A3.125,3.125 0 1 1 611.81,411.23Z" style="fill:none;stroke:#F15A60;stroke-width:0.625" />
<path d="M618.77,448.77A3.125,3.125 0 1 1 612.52,448.77A3.125,3.125 0 1 1 618.77,448.77Z" style="fill:none;stroke:#F15A60;stroke-width:0.625" />
<path d="M625.73,406.81A3.125,3.125 0 1 1 619.48,406.81A3.125,3.125 0 1 1 625.73,406.81Z" style="fill:none;stroke:#F15A60;stroke-width:0.625" />
<path d="M632.69,425.94A3.125,3.125 0 1 1 626.44,425.94A3.125,3.125 0 1 1 632.69,425.94Z" style="fill:none;stroke:#F15A60;stroke-width:0.625" />
<path d="M639.65,401.05A3.125,3.125 0 1 1 633.4,401.05A3.125,3.125 0 1 1 639.65,401.05Z" style="fill:none;stroke:#F15A60;stroke-width:0.625" />
<path d="M646.61,360.44A3.125,3.125 0 1 1 640.36,360.44A3.125,3.125 0 1 1 646.61,360.44Z" style="fill:none;stroke:#F15A60;stroke-width:0.625" />
<path d="M653.57,296.51A3.125,3.125 0 1 1 647.32,296.51A3.125,3.125 0 1 1 653.57,296.51Z" style="fill:none;stroke:#F15A60;stroke-width:0.625" />
<path d="M660.53,312.29A3.125,3.125 0 1 1 654.28,312.29A3.125,3.125 0 1 1 660.53,312.29Z" style="fill:none;stroke:#F15A60;stroke-width:0.625" />
<path d="M667.49,156.05A3.125,3.125 0 1 1 661.24,156.05A3.125,3.125 0 1 1 667.49,156.05Z" style="fill:none;stroke:#F15A60;stroke-width:0.625" />
<path d="M674.45,138.85A3.125,3.125 0 1 1 668.2,138.85A3.125,3.125 0 1 1 674.45,138.85Z" style="fill:none;stroke:#F15A60;stroke-width:0.625" />
<path d="M681.41,119.15L681.41,119.15A3.125,3.125 0 1 1 675.16,119.15A3.125,3.125 0 1 1 681.41,119.15Z" style="fill:none;stroke:#F15A60;stroke-width:0.625" />
<path d="M688.37,107.48A3.125,3.125 0 1 1 682.12,107.48A3.125,3.125 0 1 1 688.37,107.48Z" style="fill:none;stroke:#F15A60;stroke-width:0.625" />
<path d="M695.33,158.19A3.125,3.125 0 1 1 689.08,158.19A3.125,3.125 0 1 1 695.33,158.19Z" style="fill:none;stroke:#F15A60;stroke-width:0.625" />
<path d="M702.29,183.9A3.125,3.125 0 1 1 696.04,183.9A3.125,3.125 0 1 1 702.29,183.9Z" style="fill:none;stroke:#F15A60;stroke-width:0.625" />
<path d="M709.25,148.02L709.25,148.02A3.125,3.125 0 1 1 703,148.02A3.125,3.125 0 1 1 709.25,148.02Z" style="fill:none;stroke:#F15A60;stroke-width:0.625" />
<path d="M716.21,224.22L716.21,224.22A3.125,3.125 0 1 1 709.96,224.22A3.125,3.125 0 1 1 716.21,224.22Z" style="fill:none;stroke:#F15A60;stroke-width:0.625" />
<path d="M723.17,196.57L723.17,196.57A3.125,3.125 0 1 1 716.92,196.57A3.125,3.125 0 1 1 723.17,196.57Z" style="fill:none;stroke:#F15A60;stroke-width:0.625" />
<path d="M730.13,216.37L730.13,216.37A3.125,3.125 0 1 1 723.88,216.37A3.125,3.125 0 1 1 730.13,216.37Z" style="fill:none;stroke:#F15A60;stroke-width:0.625" />
<path d="M737.09,255.51L737.09,255.51A3.125,3.125 0 1 1 730.84,255.51A3.125,3.125 0 1 1 737.09,255.51Z" style="fill:none;stroke:#F15A60;stroke-width:0.625" />
<path d="M744.05,377.67L744.05,377.67A3.125,3.125 0 1 1 737.8,377.67A3.125,3.125 0 1 1 744.05,377.67Z" style="fill:none;stroke:#F15A60;stroke-width:0.625" />
<path d="M751,378.42L751,378.42A3.125,3.125 0 1 1 744.75,378.42A3.125,3.125 0 1 1 751,378.42Z" style="fill:none;stroke:#F15A60;stroke-width:0.625" />
<path d="M757.96,472.92L757.96,472.92A3.125,3.125 0 1 1 751.71,472.92A3.125,3.125 0 1 1 757.96,472.92Z" style="fill:none;stroke:#F15A60;stroke-width:0.625" />
<path d="M764.92,465.71L764.92,465.71A3.125,3.125 0 1 1 758.67,465.71A3.125,3.125 0 1 1 764.92,465.71Z" style="fill:none;stroke:#F15A60;stroke-width:0.625" />
<path d="M771.88,474.74L771.88,474.74A3.125,3.125 0 1 1 765.63,474.74A3.125,3.125 0 1 1 771.88,474.74Z" style="fill:none;stroke:#F15A60;stroke-width:0.625" />
<path d="M778.84,565.83L778.84,565.83A3.125,3.125 0 1 1 772.59,565.83A3.125,3.125 0 1 1 778.84,565.83Z" style="fill:none;stroke:#F15A60;stroke-width:0.625" />
<path d="M785.8,619.59L785.8,619.59A3.125,3.125 0 1 1 779.55,619.59A3.125,3.125 0 1 1 785.8,619.59Z" style="fill:none;stroke:#F15A60;stroke-width:0.625" />
<path d="M792.76,662.07L792.76,662.07A3.125,3.125 0 1 1 786.51,662.07A3.125,3.125 0 1 1 792.76,662.07Z" style="fill:none;stroke:#F15A60;stroke-width:0.625" />
<path d="M799.72,642.61L799.72,642.61A3.125,3.125 0 1 1 793.47,642.61A3.125,3.125 0 1 1 799.72,642.61Z" style="fill:none;stroke:#F15A60;stroke-width:0.625" />
<path d="M806.68,611.82A3.125,3.125 0 1 1 800.43,611.82A3.125,3.125 0 1 1 806.68,611.82Z" style="fill:none;stroke:#F15A60;stroke-width:0.625" />
<path d="M813.64,650A3.125,3.125 0 1 1 807.39,650A3.125,3.125 0 1 1 813.64,650Z" style="fill:none;stroke:#F15A60;stroke-width:0.625" />
<path d="M820.6,574.32L820.6,574.32A3.125,3.125 0 1 1 814.35,574.32A3.125,3.125 0 1 1 820.6,574.32Z" style="fill:none;stroke:#F15A60;stroke-width:0.625" />
<path d="M827.56,521.4L827.56,521.4A3.125,3.125 0 1 1 821.31,521.4A3.125,3.125 0 1 1 827.56,521.4Z" style="fill:none;stroke:#F15A60;stroke-width:0.625" />
<path d="M834.52,486.32L834.52,486.32A3.125,3.125 0 1 1 828.27,486.32A3.125,3.125 0 1 1 834.52,486.32Z" style="fill:none;stroke:#F15A60;stroke-width:0.625" />
<path d="M841.48,519.2L841.48,519.2A3.125,3.125 0 1 1 835.23,519.2A3.125,3.125 0 1 1 841.48,519.2Z" style="fill:none;stroke:#F15A60;stroke-width:0.625" />
<path d="M848.44,410.07L848.44,410.07A3.125,3.125 0 1 1 842.19,410.07A3.125,3.125 0 1 1 848.44,410.07Z" style="fill:none;stroke:#F15A60;stroke-width:0.625" />
<path d="M855.4,409L855.4,409A3.125,3.125 0 1 1 849.15,409A3.125,3.125 0 1 1 855.4,409Z" style="fill:none;stroke:#F15A60;stroke-width:0.625" />
<path d="M862.36,360.62L862.36,360.62A3.125,3.125 0 1 1 856.11,360.62A3.125,3.125 0 1 1 862.36,360.62Z" style="fill:none;stroke:#F15A60;stroke-width:0.625" />
<path d="M869.32,316.32A3.125,3.125 0 1 1 863.07,316.32A3.125,3.125 0 1 1 869.32,316.32Z" style="fill:none;stroke:#F15A60;stroke-width:0.625" />
<path d="M876.28,362.35A3.125,3.125 0 1 1 870.03,362.35A3.125,3.125 0 1 1 876.28,362.35Z" style="fill:none;stroke:#F15A60;stroke-width:0.625" />
<path d="M883.24,368.77L883.24,368.77A3.125,3.125 0 1 1 876.99,368.77A3.125,3.125 0 1 1 883.24,368.77Z" style="fill:none;stroke:#F15A60;stroke-width:0.625" />
<path d="M890.2,255.92L890.2,255.92A3.125,3.125 0 1 1 883.95,255.92A3.125,3.125 0 1 1 890.2,255.92Z" style="fill:none;stroke:#F15A60;stroke-width:0.625" />
<path d="M897.16,271.51L897.16,271.51A3.125,3.125 0 1 1 890.91,271.51A3.125,3.125 0 1 1 897.16,271.51Z" style="fill:none;stroke:#F15A60;stroke-width:0.625" />
<path d="M904.11,381.95L904.11,381.95A3.125,3.125 0 1 1 897.86,381.95A3.125,3.125 0 1 1 904.11,381.95Z" style="fill:none;stroke:#F15A60;stroke-width:0.625" />
<path d="M911.07,388.31A3.125,3.125 0 1 1 904.82,388.31A3.125,3.125 0 1 1 911.07,388.31Z" style="fill:none;stroke:#F15A60;stroke-width:0.625" />
<path d="M918.03,408.31A3.125,3.125 0 1 1 911.78,408.31A3.125,3.125 0 1 1 918.03,408.31Z" style="fill:none;stroke:#F15A60;stroke-width:0.625" />
<path d="M924.99,396.65L924.99,396.65A3.125,3.125 0 1 1 918.74,396.65A3.125,3.125 0 1 1 924.99,396.65Z" style="fill:none;stroke:#F15A60;stroke-width:0.625" />
<path d="M931.95,350.28A3.125,3.125 0 1 1 925.7,350.28A3.125,3.125 0 1 1 931.95,350.28Z" style="fill:none;stroke:#F15A60;stroke-width:0.625" />
<path d="M938.91,450.61L938.91,450.61A3.125,3.125 0 1 1 932.66,450.61A3.125,3.125 0 1 1 938.91,450.61Z" style="fill:none;stroke:#F15A60;stroke-width:0.625" />
<path d="M945.87,400.17L945.87,400.17A3.125,3.125 0 1 1 939.62,400.17A3.125,3.125 0 1 1 945.87,400.17Z" style="fill:none;stroke:#F15A60;stroke-width:0.625" />
<path d="M952.83,461.22A3.125,3.125 0 1 1 946.58,461.22A3.125,3.125 0 1 1 952.83,461.22Z" style="fill:none;stroke:#F15A60;stroke-width:0.625" />
<path d="M959.79,487.93A3.125,3.125 0 1 1 953.54,487.93A3.125,3.125 0 1 1 959.79,487.93Z" style="fill:none;stroke:#F15A60;stroke-width:0.625" />
<path d="M966.75,396.16A3.125,3.125 0 1 1 960.5,396.16A3.125,3.125 0 1 1 966.75,396.16Z" style="fill:none;stroke:#F15A60;stroke-width:0.625" />
<path d="M973.71,343.59A3.125,3.125 0 1 1 967.46,343.59A3.125,3.125 0 1 1 973.71,343.59Z" style="fill:none;stroke:#F15A60;stroke-width:0.625" />
<path d="M980.67,370.1A3.125,3.125 0 1 1 974.42,370.1A3.125,3.125 0 1 1 980.67,370.1Z" style="fill:none;stroke:#F15A60;stroke-width:0.625" />
<path d="M987.63,397.1L987.63,397.1A3.125,3.125 0 1 1 981.38,397.1A3.125,3.125 0 1 1 987.63,397.1Z" style="fill:none;stroke:#F15A60;stroke-width:0.625" />
<path d="M994.59,333.56A3.125,3.125 0 1 1 988.34,333.56A3.125,3.125 0 1 1 994.59,333.56Z" style="fill:none;stroke:#F15A60;stroke-width:0.625" />
<path d="M1001.5,256.02L1001.5,256.02A3.125,3.125 0 1 1 995.3,256.02A3.125,3.125 0 1 1 1001.5,256.02Z" style="fill:none;stroke:#F15A60;stroke-width:0.625" />
<path d="M1008.5,276.77L1008.5,276.77A3.125,3.125 0 1 1 1002.3,276.77A3.125,3.125 0 1 1 1008.5,276.77Z" style="fill:none;stroke:#F15A60;stroke-width:0.625" />
<path d="M1015.5,262.58A3.125,3.125 0 1 1 1009.2,262.58A3.125,3.125 0 1 1 1015.5,262.58Z" style="fill:none;stroke:#F15A60;stroke-width:0.625" />
<path d="M1022.4,191.05L1022.4,191.05A3.125,3.125 0 1 1 1016.2,191.05A3.125,3.125 0 1 1 1022.4,191.05Z" style="fill:none;stroke:#F15A60;stroke-width:0.625" />
<path d="M1029.4,172.29A3.125,3.125 0 1 1 1023.1,172.29A3.125,3.125 0 1 1 1029.4,172.29Z" style="fill:none;stroke:#F15A60;stroke-width:0.625" />
<path d="M1036.3,125.27L1036.3,125.27A3.125,3.125 0 1 1 1030.1,125.27A3.125,3.125 0 1 1 1036.3,125.27Z" style="fill:none;stroke:#F15A60;stroke-width:0.625" />
<path d="M1043.3,66.419A3.125,3.125 0 1 1 1037.1,66.419A3.125,3.125 0 1 1 1043.3,66.419Z" style="fill:none;stroke:#F15A60;stroke-width:0.625" />
<path d="M1050.3,86.514A3.125,3.125 0 1 1 1044,86.514A3.125,3.125 0 1 1 1050.3,86.514Z" style="fill:none;stroke:#F15A60;stroke-width:0.625" />
<path d="M1057.2,110.55L1057.2,110.55A3.125,3.125 0 1 1 1051,110.55A3.125,3.125 0 1 1 1057.2,110.55Z" style="fill:none;stroke:#F15A60;stroke-width:0.625" />
<path d="M1064.2,194.16A3.125,3.125 0 1 1 1057.9,194.16A3.125,3.125 0 1 1 1064.2,194.16Z" style="fill:none;stroke:#F15A60;stroke-width:0.625" />
<path d="M1071.1,141.22A3.125,3.125 0 1 1 1064.9,141.22A3.125,3.125 0 1 1 1071.1,141.22Z" style="fill:none;stroke:#F15A60;stroke-width:0.625" />
<path d="M1078.1,255.31A3.125,3.125 0 1 1 1071.9,255.31A3.125,3.125 0 1 1 1078.1,255.31Z" style="fill:none;stroke:#F15A60;stroke-width:0.625" />
<path d="M1085.1,278.27L1085.1,278.27A3.125,3.125 0 1 1 1078.8,278.27A3.125,3.125 0 1 1 1085.1,278.27Z" style="fill:none;stroke:#F15A60;stroke-width:0.625" />
<path d="M1092,311.56A3.125,3.125 0 1 1 1085.8,311.56A3.125,3.125 0 1 1 1092,311.56Z" style="fill:none;stroke:#F15A60;stroke-width:0.625" />
<path d="M1099,325.44A3.125,3.125 0 1 1 1092.7,325.44A3.125,3.125 0 1 1 1099,325.44Z" style="fill:none;stroke:#F15A60;stroke-width:0.625" />
<path d="M1105.9,485.2A3.125,3.125 0 1 1 1099.7,485.2A3.125,3.125 0 1 1 1105.9,485.2Z" style="fill:none;stroke:#F15A60;stroke-width:0.625" />
<path d="M1112.9,474.68L1112.9,474.68A3.125,3.125 0 1 1 1106.7,474.68A3.125,3.125 0 1 1 1112.9,474.68Z" style="fill:none;stroke:#F15A60;stroke-width:0.625" />
<path d="M1119.9,540.24A3.125,3.125 0 1 1 1113.6,540.24A3.125,3.125 0 1 1 1119.9,540.24Z" style="fill:none;stroke:#F15A60;stroke-width:0.625" />
<path d="M1126.8,520.74L1126.8,520.74A3.125,3.125 0 1 1 1120.6,520.74A3.125,3.125 0 1 1 1126.8,520.74Z" style="fill:none;stroke:#F15A60;stroke-width:0.625" />
<path d="M1133.8,551.74A3.125,3.125 0 1 1 1127.5,551.74A3.125,3.125 0 1 1 1133.8,551.74Z" style="fill:none;stroke:#F15A60;stroke-width:0.625" />
<path d="M1140.7,638.74L1140.7,638.74A3.125,3.125 0 1 1 1134.5,638.74A3.125,3.125 0 1 1 1140.7,638.74Z" style="fill:none;stroke:#F15A60;stroke-width:0.625" />
<path d="M1147.7,633.42A3.125,3.125 0 1 1 1141.4,633.42A3.125,3.125 0 1 1 1147.7,633.42Z" style="fill:none;stroke:#F15A60;stroke-width:0.625" />
<path d="M1154.7,658.11A3.125,3.125 0 1 1 1148.4,658.11A3.125,3.125 0 1 1 1154.7,658.11Z" style="fill:none;stroke:#F15A60;stroke-width:0.625" />
<path d="M1161.6,599.6L1161.6,599.6A3.125,3.125 0 1 1 1155.4,599.6A3.125,3.125 0 1 1 1161.6,599.6Z" style="fill:none;stroke:#F15A60;stroke-width:0.625" />
<path d="M1168.6,527.34A3.125,3.125 0 1 1 1162.3,527.34A3.125,3.125 0 1 1 1168.6,527.34Z" style="fill:none;stroke:#F15A60;stroke-width:0.625" />
<path d="M1175.5,598.05A3.125,3.125 0 1 1 1169.3,598.05A3.125,3.125 0 1 1 1175.5,598.05Z" style="fill:none;stroke:#F15A60;stroke-width:0.625" />
<path d="M1182.5,504.58L1182.5,504.58A3.125,3.125 0 1 1 1176.2,504.58A3.125,3.125 0 1 1 1182.5,504.58Z" style="fill:none;stroke:#F15A60;stroke-width:0.625" />
<path d="M1189.5,450.16A3.125,3.125 0 1 1 1183.2,450.16A3.125,3.125 0 1 1 1189.5,450.16Z" style="fill:none;stroke:#F15A60;stroke-width:0.625" />
<path d="M1196.4,480.7A3.125,3.125 0 1 1 1190.2,480.7A3.125,3.125 0 1 1 1196.4,480.7Z" style="fill:none;stroke:#F15A60;stroke-width:0.625" />
<path d="M1203.4,378.33A3.125,3.125 0 1 1 1197.1,378.33A3.125,3.125 0 1 1 1203.4,378.33Z" style="fill:none;stroke:#F15A60;stroke-width:0.625" />
<path d="M1210.3,386.87L1210.3,386.87A3.125,3.125 0 1 1 1204.1,386.87A3.125,3.125 0 1 1 1210.3,386.87Z" style="fill:none;stroke:#F15A60;stroke-width:0.625" />
<path d="M1217.3,328.54A3.125,3.125 0 1 1 1211,328.54A3.125,3.125 0 1 1 1217.3,328.54Z" style="fill:none;stroke:#F15A60;stroke-width:0.625" />
<path d="M1224.3,281.78A3.125,3.125 0 1 1 1218,281.78A3.125,3.125 0 1 1 1224.3,281.78Z" style="fill:none;stroke:#F15A60;stroke-width:0.625" />
<path d="M1231.2,299.69L1231.2,299.69A3.125,3.125 0 1 1 1225,299.69A3.125,3.125 0 1 1 1231.2,299.69Z" style="fill:none;stroke:#F15A60;stroke-width:0.625" />
<path d="M1238.2,315.59A3.125,3.125 0 1 1 1231.9,315.59A3.125,3.125 0 1 1 1238.2,315.59Z" style="fill:none;stroke:#F15A60;stroke-width:0.625" />
<path d="M1245.1,356.46A3.125,3.125 0 1 1 1238.9,356.46A3.125,3.125 0 1 1 1245.1,356.46Z" style="fill:none;stroke:#F15A60;stroke-width:0.625" />
<path d="M1252.1,287A3.125,3.125 0 1 1 1245.8,287A3.125,3.125 0 1 1 1252.1,287Z" style="fill:none;stroke:#F15A60;stroke-width:0.625" />
<path d="M1259.1,354.2A3.125,3.125 0 1 1 1252.8,354.2A3.125,3.125 0 1 1 1259.1,354.2Z" style="fill:none;stroke:#F15A60;stroke-width:0.625" />
<path d="M1266,331.92A3.125,3.125 0 1 1 1259.8,331.92A3.125,3.125 0 1 1 1266,331.92Z" style="fill:none;stroke:#F15A60;stroke-width:0.625" />
<path d="M1273,441.35A3.125,3.125 0 1 1 1266.7,441.35A3.125,3.125 0 1 1 1273,441.35Z" style="fill:none;stroke:#F15A60;stroke-width:0.625" />
<path d="M1279.9,429.53A3.125,3.125 0 1 1 1273.7,429.53A3.125,3.125 0 1 1 1279.9,429.53Z" style="fill:none;stroke:#F15A60;stroke-width:0.625" />
<path d="M1286.9,454.15L1286.9,454.15A3.125,3.125 0 1 1 1280.6,454.15A3.125,3.125 0 1 1 1286.9,454.15Z" style="fill:none;stroke:#F15A60;stroke-width:0.625" />
<path d="M1293.8,478.34L1293.8,478.34A3.125,3.125 0 1 1 1287.6,478.34A3.125,3.125 0 1 1 1293.8,478.34Z" style="fill:none;stroke:#F15A60;stroke-width:0.625" />
<path d="M1300.8,444.81A3.125,3.125 0 1 1 1294.6,444.81A3.125,3.125 0 1 1 1300.8,444.81Z" style="fill:none;stroke:#F15A60;stroke-width:0.625" />
<path d="M1307.8,488.32L1307.8,488.32A3.125,3.125 0 1 1 1301.5,488.32A3.125,3.125 0 1 1 1307.8,488.32Z" style="fill:none;stroke:#F15A60;stroke-width:0.625" />
<path d="M1314.7,355.38A3.125,3.125 0 1 1 1308.5,355.38A3.125,3.125 0 1 1 1314.7,355.38Z" style="fill:none;stroke:#F15A60;stroke-width:0.625" />
<path d="M1321.7,464.48L1321.7,464.48A3.125,3.125 0 1 1 1315.4,464.48A3.125,3.125 0 1 1 1321.7,464.48Z" style="fill:none;stroke:#F15A60;stroke-width:0.625" />
<path d="M1328.6,348.73A3.125,3.125 0 1 1 1322.4,348.73A3.125,3.125 0 1 1 1328.6,348.73Z" style="fill:none;stroke:#F15A60;stroke-width:0.625" />
<path d="M1335.6,311.35L1335.6,311.35A3.125,3.125 0 1 1 1329.4,311.35A3.125,3.125 0 1 1 1335.6,311.35Z" style="fill:none;stroke:#F15A60;stroke-width:0.625" />
<path d="M1342.6,365.73A3.125,3.125 0 1 1 1336.3,365.73A3.125,3.125 0 1 1 1342.6,365.73Z" style="fill:none;stroke:#F15A60;stroke-width:0.625" />
<path d="M1349.5,305.43L1349.5,305.43A3.125,3.125 0 1 1 1343.3,305.43A3.125,3.125 0 1 1 1349.5,305.43Z" style="fill:none;stroke:#F15A60;stroke-width:0.625" />
<path d="M1356.5,204.21L1356.5,204.21A3.125,3.125 0 1 1 1350.2,204.21A3.125,3.125 0 1 1 1356.5,204.21Z" style="fill:none;stroke:#F15A60;stroke-width:0.625" />
<path d="M1363.4,180.22L1363.4,180.22A3.125,3.125 0 1 1 1357.2,180.22A3.125,3.125 0 1 1 1363.4,180.22Z" style="fill:none;stroke:#F15A60;stroke-width:0.625" />
<path d="M1370.4,197.8A3.125,3.125 0 1 1 1364.2,197.8A3.125,3.125 0 1 1 1370.4,197.8Z" style="fill:none;stroke:#F15A60;stroke-width:0.625" />
<path d="M1377.4,98.248A3.125,3.125 0 1 1 1371.1,98.248A3.125,3.125 0 1 1 1377.4,98.248Z" style="fill:none;stroke:#F15A60;stroke-width:0.625" />
<path d="M1384.3,107.48A3.125,3.125 0 1 1 1378.1,107.48A3.125,3.125 0 1 1 1384.3,107.48Z" style="fill:none;stroke:#F15A60;stroke-width:0.625" />
<path d="M1391.3,154.24L1391.3,154.24A3.125,3.125 0 1 1 1385,154.24A3.125,3.125 0 1 1 1391.3,154.24Z" style="fill:none;stroke:#F15A60;stroke-width:0.625" />
<path d="M1398.2,189.56A3.125,3.125 0 1 1 1392,189.56A3.125,3.125 0 1 1 1398.2,189.56Z" style="fill:none;stroke:#F15A60;stroke-width:0.625" />
<path d="M1405.2,165.24L1405.2,165.24A3.125,3.125 0 1 1 1399,165.24A3.125,3.125 0 1 1 1405.2,165.24Z" style="fill:none;stroke:#F15A60;stroke-width:0.625" />
<path d="M1412.2,213.9A3.125,3.125 0 1 1 1405.9,213.9A3.125,3.125 0 1 1 1412.2,213.9Z" style="fill:none;stroke:#F15A60;stroke-width:0.625" />
<path d="M1419.1,171.99L1419.1,171.99A3.125,3.125 0 1 1 1412.9,171.99A3.125,3.125 0 1 1 1419.1,171.99Z" style="fill:none;stroke:#F15A60;stroke-width:0.625" />
<path d="M1426.1,182.62A3.125,3.125 0 1 1 1419.8,182.62A3.125,3.125 0 1 1 1426.1,182.62Z" style="fill:none;stroke:#F15A60;stroke-width:0.625" />
<path d="M1433,216.53L1433,216.53A3.125,3.125 0 1 1 1426.8,216.53A3.125,3.125 0 1 1 1433,216.53Z" style="fill:none;stroke:#F15A60;stroke-width:0.625" />
<path d="M1440,272.74A3.125,3.125 0 1 1 1433.8,272.74A3.125,3.125 0 1 1 1440,272.74Z" style="fill:none;stroke:#F15A60;stroke-width:0.625" />
<path d="M51.925,303.46L58.885,412.88L65.844,519.12L72.804,600.18L79.763,669.66L86.723,715.63L93.682,768.47L100.64,794.77L107.6,799.3L114.56,806.88L121.52,788.11L128.48,744.75L135.44,691.29L142.4,629.65L149.36,578.15L156.32,512.03L163.28,441.36L170.24,377.04L177.2,337.42L184.16,300.38L191.12,264.54L198.08,242.42L205.04,220.63L211.99,219.44L218.95,232.65L225.91,241.34L232.87,260.34L239.83,291.51L246.79,333.79L253.75,375.86L260.71,392.79L267.67,403.78L274.63,422.26L281.59,436.81L288.55,424.76L295.51,409.05L302.47,372.42L309.43,345.46L316.39,310.49L323.35,258.61L330.31,217.13L337.27,183.91L344.23,148.1L351.19,103.76L358.15,93.098L365.1,94.575L372.06,94.825L379.02,96.256L385.98,124.43L392.94,169.94L399.9,225.35L406.86,281.17L413.82,356.26L420.78,420.46L427.74,479.36L434.7,553.8L441.66,599.48L448.62,656.4L455.58,688.2L462.54,722.37L469.5,731.86L476.46,735.42L483.42,702.45L490.38,661.28L497.34,609.77L504.3,553.28L511.26,509.59L518.21,465.7L525.17,399.16L532.13,336.96L539.09,294.44L546.05,253.49L553.01,237.21L559.97,233.16L566.93,238.83L573.89,248.71L580.85,270.05L587.81,300.18L594.77,339.17L601.73,366.72L608.69,392.31L615.65,421.43L622.61,437.97L629.57,453.16L636.53,458.7L643.49,451.56L650.45,427.58L657.41,403.7L664.37,347.86L671.32,288.24L678.28,227.64L685.24,170.31L692.2,130.82L699.16,106.02L706.12,83.67L713.08,84.893L720.04,88.7L727,102.18L733.96,127.64L740.92,180.11L747.88,234.1L754.84,304.84L761.8,370.08L768.76,429.82L775.72,498.52L782.68,568.27L789.64,635.65L796.6,687.24L803.56,719.68L810.52,746.8L817.48,747.55L824.43,727.17L831.39,691.51L838.35,657.24L845.31,599.72L852.27,542.1L859.23,478.35L866.19,411.43L873.15,361.39L880.11,322.7L887.07,271.94L894.03,233.49L900.99,227.1L907.95,232.55L914.91,250.26L921.87,271.57L928.83,286.86L935.79,322.96L942.75,349.41L949.71,385.82L956.67,424.82L963.63,441.45L970.59,441.52L977.54,441.01L984.5,441.74L991.46,426.94L998.42,393.99L1005.4,363.5L1012.3,331.07L1019.3,286.71L1026.3,241.73L1033.2,192.17L1040.2,136.75L1047.1,92.202L1054.1,61.034L1061.1,55.792L1068,49.313L1075,72.461L1081.9,106.54L1088.9,150.77L1095.9,198.58L1102.8,276.38L1109.8,349.05L1116.7,427.84L1123.7,493.71L1130.7,554.23L1137.6,619.9L1144.6,672.5L1151.5,717.17L1158.5,737.66L1165.5,731.32L1172.4,728.15L1179.4,699.11L1186.3,653.33L1193.3,610.62L1200.3,548.18L1207.2,489.75L1214.2,425.16L1221.1,358.34L1228.1,303.88L1235,263.23L1242,242.03L1249,218.05L1255.9,216.44L1262.9,218.96L1269.8,249.64L1276.8,283.32L1283.8,323.96L1290.7,369.13L1297.7,405.1L1304.6,444.97L1311.6,452.88L1318.6,475.17L1325.5,469.22L1332.5,449.75L1339.4,436.75L1346.4,410.02L1353.4,362.12L1360.3,309.53L1367.3,263.22L1374.2,202.33L1381.2,149.22L1388.2,113.58L1395.1,94.573L1402.1,80.202L1409,83.538L1416,85.648L1423,94.642L1429.9,113.9L1436.9,146.7" style="fill:none;stroke:#7AC36A;stroke-width:1.25;stroke-dasharray:7.5,2.5" />
<path d="M49.258,300.79L54.592,300.79L54.592,306.13L49.258,306.13Z" style="fill:none;stroke:#7AC36A;stroke-width:0.625" />
<path d="M56.217,410.22L61.552,410.22L61.552,415.55L56.217,415.55Z" style="fill:none;stroke:#7AC36A;stroke-width:0.625" />
<path d="M63.177,516.45L68.511,516.45L68.511,521.78L63.177,521.78Z" style="fill:none;stroke:#7AC36A;stroke-width:0.625" />
<path d="M70.136,597.52L75.471,597.52L75.471,602.85L70.136,602.85Z" style="fill:none;stroke:#7AC36A;stroke-width:0.625" />
<path d="M77.096,666.99L82.431,666.99L82.431,672.33L77.096,672.33Z" style="fill:none;stroke:#7AC36A;stroke-width:0.625" />
<path d="M84.055,712.97L89.39,712.97L89.39,718.3L84.055,718.3Z" style="fill:none;stroke:#7AC36A;stroke-width:0.625" />
<path d="M91.015,765.8L96.35,765.8L96.35,771.14L91.015,771.14Z" style="fill:none;stroke:#7AC36A;stroke-width:0.625" />
<path d="M97.974,792.1L103.31,792.1L103.31,797.44L97.974,797.44Z" style="fill:none;stroke:#7AC36A;stroke-width:0.625" />
<path d="M104.93,796.64L110.27,796.64L110.27,801.97L104.93,801.97Z" style="fill:none;stroke:#7AC36A;stroke-width:0.625" />
<path d="M111.89,804.21L117.23,804.21L117.23,809.54L111.89,809.54Z" style="fill:none;stroke:#7AC36A;stroke-width:0.625" />
<path d="M118.85,785.44L124.19,785.44L124.19,790.77L118.85,790.77Z" style="fill:none;stroke:#7AC36A;stroke-width:0.625" />
<path d="M125.81,742.08L131.15,742.08L131.15,747.41L125.81,747.41Z" style="fill:none;stroke:#7AC36A;stroke-width:0.625" />
<path d="M132.77,688.63L138.11,688.63L138.11,693.96L132.77,693.96Z" style="fill:none;stroke:#7AC36A;stroke-width:0.625" />
<path d="M139.73,626.98L145.07,626.98L145.07,632.31L139.73,632.31Z" style="fill:none;stroke:#7AC36A;stroke-width:0.625" />
<path d="M146.69,575.48L152.03,575.48L152.03,580.82L146.69,580.82Z" style="fill:none;stroke:#7AC36A;stroke-width:0.625" />
<path d="M153.65,509.37L158.99,509.37L158.99,514.7L153.65,514.7Z" style="fill:none;stroke:#7AC36A;stroke-width:0.625" />
<path d="M160.61,438.69L165.95,438.69L165.95,444.02L160.61,444.02Z" style="fill:none;stroke:#7AC36A;stroke-width:0.625" />
<path d="M167.57,374.37L172.9,374.37L172.9,379.71L167.57,379.71Z" style="fill:none;stroke:#7AC36A;stroke-width:0.625" />
<path d="M174.53,334.76L179.86,334.76L179.86,340.09L174.53,340.09Z" style="fill:none;stroke:#7AC36A;stroke-width:0.625" />
<path d="M181.49,297.71L186.82,297.71L186.82,303.04L181.49,303.04Z" style="fill:none;stroke:#7AC36A;stroke-width:0.625" />
<path d="M188.45,261.87L193.78,261.87L193.78,267.21L188.45,267.21Z" style="fill:none;stroke:#7AC36A;stroke-width:0.625" />
<path d="M195.41,239.76L200.74,239.76L200.74,245.09L195.41,245.09Z" style="fill:none;stroke:#7AC36A;stroke-width:0.625" />
<path d="M202.37,217.96L207.7,217.96L207.7,223.3L202.37,223.3Z" style="fill:none;stroke:#7AC36A;stroke-width:0.625" />
<path d="M209.33,216.78L214.66,216.78L214.66,222.11L209.33,222.11Z" style="fill:none;stroke:#7AC36A;stroke-width:0.625" />
<path d="M216.29,229.98L221.62,229.98L221.62,235.32L216.29,235.32Z" style="fill:none;stroke:#7AC36A;stroke-width:0.625" />
<path d="M223.25,238.67L228.58,238.67L228.58,244.01L223.25,244.01Z" style="fill:none;stroke:#7AC36A;stroke-width:0.625" />
<path d="M230.21,257.67L235.54,257.67L235.54,263.01L230.21,263.01Z" style="fill:none;stroke:#7AC36A;stroke-width:0.625" />
<path d="M237.17,288.84L242.5,288.84L242.5,294.17L237.17,294.17Z" style="fill:none;stroke:#7AC36A;stroke-width:0.625" />
<path d="M244.12,331.13L249.46,331.13L249.46,336.46L244.12,336.46Z" style="fill:none;stroke:#7AC36A;stroke-width:0.625" />
<path d="M251.08,373.19L256.42,373.19L256.42,378.53L251.08,378.53Z" style="fill:none;stroke:#7AC36A;stroke-width:0.625" />
<path d="M258.04,390.13L263.38,390.13L263.38,395.46L258.04,395.46Z" style="fill:none;stroke:#7AC36A;stroke-width:0.625" />
<path d="M265,401.12L270.34,401.12L270.34,406.45L265,406.45Z" style="fill:none;stroke:#7AC36A;stroke-width:0.625" />
<path d="M271.96,419.59L277.3,419.59L277.3,424.93L271.96,424.93Z" style="fill:none;stroke:#7AC36A;stroke-width:0.625" />
<path d="M278.92,434.15L284.26,434.15L284.26,439.48L278.92,439.48Z" style="fill:none;stroke:#7AC36A;stroke-width:0.625" />
<path d="M285.88,422.1L291.22,422.1L291.22,427.43L285.88,427.43Z" style="fill:none;stroke:#7AC36A;stroke-width:0.625" />
<path d="M292.84,406.38L298.18,406.38L298.18,411.72L292.84,411.72Z" style="fill:none;stroke:#7AC36A;stroke-width:0.625" />
<path d="M299.8,369.75L305.14,369.75L305.14,375.08L299.8,375.08Z" style="fill:none;stroke:#7AC36A;stroke-width:0.625" />
<path d="M306.76,342.79L312.1,342.79L312.1,348.13L306.76,348.13Z" style="fill:none;stroke:#7AC36A;stroke-width:0.625" />
<path d="M313.72,307.82L319.06,307.82L319.06,313.16L313.72,313.16Z" style="fill:none;stroke:#7AC36A;stroke-width:0.625" />
<path d="M320.68,255.95L326.01,255.95L326.01,261.28L320.68,261.28Z" style="fill:none;stroke:#7AC36A;stroke-width:0.625" />
<path d="M327.64,214.46L332.97,214.46L332.97,219.8L327.64,219.8Z" style="fill:none;stroke:#7AC36A;stroke-width:0.625" />
<path d="M334.6,181.25L339.93,181.25L339.93,186.58L334.6,186.58Z" style="fill:none;stroke:#7AC36A;stroke-width:0.625" />
<path d="M341.56,145.43L346.89,145.43L346.89,150.77L341.56,150.77Z" style="fill:none;stroke:#7AC36A;stroke-width:0.625" />
<path d="M348.52,101.1L353.85,101.1L353.85,106.43L348.52,106.43Z" style="fill:none;stroke:#7AC36A;stroke-width:0.625" />
<path d="M355.48,90.431L360.81,90.431L360.81,95.766L355.48,95.766Z" style="fill:none;stroke:#7AC36A;stroke-width:0.625" />
<path d="M362.44,91.908L367.77,91.908L367.77,97.243L362.44,97.243Z" style="fill:none;stroke:#7AC36A;stroke-width:0.625" />
<path d="M369.4,92.158L374.73,92.158L374.73,97.492L369.4,97.492Z" style="fill:none;stroke:#7AC36A;stroke-width:0.625" />
<path d="M376.36,93.588L381.69,93.588L381.69,98.923L376.36,98.923Z" style="fill:none;stroke:#7AC36A;stroke-width:0.625" />
<path d="M383.32,121.76L388.65,121.76L388.65,127.09L383.32,127.09Z" style="fill:none;stroke:#7AC36A;stroke-width:0.625" />
<path d="M390.28,167.27L395.61,167.27L395.61,172.6L390.28,172.6Z" style="fill:none;stroke:#7AC36A;stroke-width:0.625" />
<path d="M397.24,222.69L402.57,222.69L402.57,228.02L397.24,228.02Z" style="fill:none;stroke:#7AC36A;stroke-width:0.625" />
<path d="M404.19,278.5L409.53,278.5L409.53,283.84L404.19,283.84Z" style="fill:none;stroke:#7AC36A;stroke-width:0.625" />
<path d="M411.15,353.6L416.49,353.6L416.49,358.93L411.15,358.93Z" style="fill:none;stroke:#7AC36A;stroke-width:0.625" />
<path d="M418.11,417.79L423.45,417.79L423.45,423.13L418.11,423.13Z" style="fill:none;stroke:#7AC36A;stroke-width:0.625" />
<path d="M425.07,476.7L430.41,476.7L430.41,482.03L425.07,482.03Z" style="fill:none;stroke:#7AC36A;stroke-width:0.625" />
<path d="M432.03,551.14L437.37,551.14L437.37,556.47L432.03,556.47Z" style="fill:none;stroke:#7AC36A;stroke-width:0.625" />
<path d="M438.99,596.81L444.33,596.81L444.33,602.15L438.99,602.15Z" style="fill:none;stroke:#7AC36A;stroke-width:0.625" />
<path d="M445.95,653.74L451.29,653.74L451.29,659.07L445.95,659.07Z" style="fill:none;stroke:#7AC36A;stroke-width:0.625" />
<path d="M452.91,685.54L458.25,685.54L458.25,690.87L452.91,690.87Z" style="fill:none;stroke:#7AC36A;stroke-width:0.625" />
<path d="M459.87,719.7L465.21,719.7L465.21,725.04L459.87,725.04Z" style="fill:none;stroke:#7AC36A;stroke-width:0.625" />
<path d="M466.83,729.19L472.17,729.19L472.17,734.53L466.83,734.53Z" style="fill:none;stroke:#7AC36A;stroke-width:0.625" />
<path d="M473.79,732.76L479.12,732.76L479.12,738.09L473.79,738.09Z" style="fill:none;stroke:#7AC36A;stroke-width:0.625" />
<path d="M480.75,699.78L486.08,699.78L486.08,705.11L480.75,705.11Z" style="fill:none;stroke:#7AC36A;stroke-width:0.625" />
<path d="M487.71,658.61L493.04,658.61L493.04,663.95L487.71,663.95Z" style="fill:none;stroke:#7AC36A;stroke-width:0.625" />
<path d="M494.67,607.11L500,607.11L500,612.44L494.67,612.44Z" style="fill:none;stroke:#7AC36A;stroke-width:0.625" />
<path d="M501.63,550.62L506.96,550.62L506.96,555.95L501.63,555.95Z" style="fill:none;stroke:#7AC36A;stroke-width:0.625" />
<path d="M508.59,506.92L513.92,506.92L513.92,512.26L508.59,512.26Z" style="fill:none;stroke:#7AC36A;stroke-width:0.625" />
<path d="M515.55,463.04L520.88,463.04L520.88,468.37L515.55,468.37Z" style="fill:none;stroke:#7AC36A;stroke-width:0.625" />
<path d="M522.51,396.49L527.84,396.49L527.84,401.83L522.51,401.83Z" style="fill:none;stroke:#7AC36A;stroke-width:0.625" />
<path d="M529.47,334.29L534.8,334.29L534.8,339.63L529.47,339.63Z" style="fill:none;stroke:#7AC36A;stroke-width:0.625" />
<path d="M536.43,291.77L541.76,291.77L541.76,297.11L536.43,297.11Z" style="fill:none;stroke:#7AC36A;stroke-width:0.625" />
<path d="M543.39,250.82L548.72,250.82L548.72,256.15L543.39,256.15Z" style="fill:none;stroke:#7AC36A;stroke-width:0.625" />
<path d="M550.35,234.55L555.68,234.55L555.68,239.88L550.35,239.88Z" style="fill:none;stroke:#7AC36A;stroke-width:0.625" />
<path d="M557.3,230.49L562.64,230.49L562.64,235.83L557.3,235.83Z" style="fill:none;stroke:#7AC36A;stroke-width:0.625" />
<path d="M564.26,236.16L569.6,236.16L569.6,241.5L564.26,241.5Z" style="fill:none;stroke:#7AC36A;stroke-width:0.625" />
<path d="M571.22,246.04L576.56,246.04L576.56,251.38L571.22,251.38Z" style="fill:none;stroke:#7AC36A;stroke-width:0.625" />
<path d="M578.18,267.39L583.52,267.39L583.52,272.72L578.18,272.72Z" style="fill:none;stroke:#7AC36A;stroke-width:0.625" />
<path d="M585.14,297.51L590.48,297.51L590.48,302.84L585.14,302.84Z" style="fill:none;stroke:#7AC36A;stroke-width:0.625" />
<path d="M592.1,336.5L597.44,336.5L597.44,341.84L592.1,341.84Z" style="fill:none;stroke:#7AC36A;stroke-width:0.625" />
<path d="M599.06,364.05L604.4,364.05L604.4,369.38L599.06,369.38Z" style="fill:none;stroke:#7AC36A;stroke-width:0.625" />
<path d="M606.02,389.64L611.36,389.64L611.36,394.98L606.02,394.98Z" style="fill:none;stroke:#7AC36A;stroke-width:0.625" />
<path d="M612.98,418.76L618.32,418.76L618.32,424.09L612.98,424.09Z" style="fill:none;stroke:#7AC36A;stroke-width:0.625" />
<path d="M619.94,435.3L625.28,435.3L625.28,440.64L619.94,440.64Z" style="fill:none;stroke:#7AC36A;stroke-width:0.625" />
<path d="M626.9,450.49L632.23,450.49L632.23,455.83L626.9,455.83Z" style="fill:none;stroke:#7AC36A;stroke-width:0.625" />
<path d="M633.86,456.04L639.19,456.04L639.19,461.37L633.86,461.37Z" style="fill:none;stroke:#7AC36A;stroke-width:0.625" />
<path d="M640.82,448.89L646.15,448.89L646.15,454.22L640.82,454.22Z" style="fill:none;stroke:#7AC36A;stroke-width:0.625" />
<path d="M647.78,424.92L653.11,424.92L653.11,430.25L647.78,430.25Z" style="fill:none;stroke:#7AC36A;stroke-width:0.625" />
<path d="M654.74,401.03L660.07,401.03L660.07,406.37L654.74,406.37Z" style="fill:none;stroke:#7AC36A;stroke-width:0.625" />
<path d="M661.7,345.19L667.03,345.19L667.03,350.53L661.7,350.53Z" style="fill:none;stroke:#7AC36A;stroke-width:0.625" />
<path d="M668.66,285.57L673.99,285.57L673.99,290.9L668.66,290.9Z" style="fill:none;stroke:#7AC36A;stroke-width:0.625" />
<path d="M675.62,224.97L680.95,224.97L680.95,230.3L675.62,230.3Z" style="fill:none;stroke:#7AC36A;stroke-width:0.625" />
<path d="M682.58,167.64L687.91,167.64L687.91,172.98L682.58,172.98Z" style="fill:none;stroke:#7AC36A;stroke-width:0.625" />
<path d="M689.54,128.16L694.87,128.16L694.87,133.49L689.54,133.49Z" style="fill:none;stroke:#7AC36A;stroke-width:0.625" />
<path d="M696.5,103.35L701.83,103.35L701.83,108.69L696.5,108.69Z" style="fill:none;stroke:#7AC36A;stroke-width:0.625" />
<path d="M703.46,81.003L708.79,81.003L708.79,86.338L703.46,86.338Z" style="fill:none;stroke:#7AC36A;stroke-width:0.625" />
<path d="M710.41,82.225L715.75,82.225L715.75,87.56L710.41,87.56Z" style="fill:none;stroke:#7AC36A;stroke-width:0.625" />
<path d="M717.37,86.032L722.71,86.032L722.71,91.367L717.37,91.367Z" style="fill:none;stroke:#7AC36A;stroke-width:0.625" />
<path d="M724.33,99.511L729.67,99.511L729.67,104.85L724.33,104.85Z" style="fill:none;stroke:#7AC36A;stroke-width:0.625" />
<path d="M731.29,124.97L736.63,124.97L736.63,130.31L731.29,130.31Z" style="fill:none;stroke:#7AC36A;stroke-width:0.625" />
<path d="M738.25,177.45L743.59,177.45L743.59,182.78L738.25,182.78Z" style="fill:none;stroke:#7AC36A;stroke-width:0.625" />
<path d="M745.21,231.43L750.55,231.43L750.55,236.77L745.21,236.77Z" style="fill:none;stroke:#7AC36A;stroke-width:0.625" />
<path d="M752.17,302.18L757.51,302.18L757.51,307.51L752.17,307.51Z" style="fill:none;stroke:#7AC36A;stroke-width:0.625" />
<path d="M759.13,367.42L764.47,367.42L764.47,372.75L759.13,372.75Z" style="fill:none;stroke:#7AC36A;stroke-width:0.625" />
<path d="M766.09,427.15L771.43,427.15L771.43,432.49L766.09,432.49Z" style="fill:none;stroke:#7AC36A;stroke-width:0.625" />
<path d="M773.05,495.85L778.39,495.85L778.39,501.19L773.05,501.19Z" style="fill:none;stroke:#7AC36A;stroke-width:0.625" />
<path d="M780.01,565.6L785.34,565.6L785.34,570.94L780.01,570.94Z" style="fill:none;stroke:#7AC36A;stroke-width:0.625" />
<path d="M786.97,632.98L792.3,632.98L792.3,638.32L786.97,638.32Z" style="fill:none;stroke:#7AC36A;stroke-width:0.625" />
<path d="M793.93,684.58L799.26,684.58L799.26,689.91L793.93,689.91Z" style="fill:none;stroke:#7AC36A;stroke-width:0.625" />
<path d="M800.89,717.02L806.22,717.02L806.22,722.35L800.89,722.35Z" style="fill:none;stroke:#7AC36A;stroke-width:0.625" />
<path d="M807.85,744.13L813.18,744.13L813.18,749.47L807.85,749.47Z" style="fill:none;stroke:#7AC36A;stroke-width:0.625" />
<path d="M814.81,744.88L820.14,744.88L820.14,750.22L814.81,750.22Z" style="fill:none;stroke:#7AC36A;stroke-width:0.625" />
<path d="M821.77,724.5L827.1,724.5L827.1,729.84L821.77,729.84Z" style="fill:none;stroke:#7AC36A;stroke-width:0.625" />
<path d="M828.73,688.84L834.06,688.84L834.06,694.17L828.73,694.17Z" style="fill:none;stroke:#7AC36A;stroke-width:0.625" />
<path d="M835.69,654.57L841.02,654.57L841.02,659.91L835.69,659.91Z" style="fill:none;stroke:#7AC36A;stroke-width:0.625" />
<path d="M842.65,597.05L847.98,597.05L847.98,602.38L842.65,602.38Z" style="fill:none;stroke:#7AC36A;stroke-width:0.625" />
<path d="M849.61,539.44L854.94,539.44L854.94,544.77L849.61,544.77Z" style="fill:none;stroke:#7AC36A;stroke-width:0.625" />
<path d="M856.57,475.69L861.9,475.69L861.9,481.02L856.57,481.02Z" style="fill:none;stroke:#7AC36A;stroke-width:0.625" />
<path d="M863.52,408.76L868.86,408.76L868.86,414.1L863.52,414.1Z" style="fill:none;stroke:#7AC36A;stroke-width:0.625" />
<path d="M870.48,358.72L875.82,358.72L875.82,364.06L870.48,364.06Z" style="fill:none;stroke:#7AC36A;stroke-width:0.625" />
<path d="M877.44,320.03L882.78,320.03L882.78,325.37L877.44,325.37Z" style="fill:none;stroke:#7AC36A;stroke-width:0.625" />
<path d="M884.4,269.27L889.74,269.27L889.74,274.61L884.4,274.61Z" style="fill:none;stroke:#7AC36A;stroke-width:0.625" />
<path d="M891.36,230.82L896.7,230.82L896.7,236.16L891.36,236.16Z" style="fill:none;stroke:#7AC36A;stroke-width:0.625" />
<path d="M898.32,224.43L903.66,224.43L903.66,229.77L898.32,229.77Z" style="fill:none;stroke:#7AC36A;stroke-width:0.625" />
<path d="M905.28,229.88L910.62,229.88L910.62,235.22L905.28,235.22Z" style="fill:none;stroke:#7AC36A;stroke-width:0.625" />
<path d="M912.24,247.59L917.58,247.59L917.58,252.93L912.24,252.93Z" style="fill:none;stroke:#7AC36A;stroke-width:0.625" />
<path d="M919.2,268.91L924.54,268.91L924.54,274.24L919.2,274.24Z" style="fill:none;stroke:#7AC36A;stroke-width:0.625" />
<path d="M926.16,284.19L931.5,284.19L931.5,289.53L926.16,289.53Z" style="fill:none;stroke:#7AC36A;stroke-width:0.625" />
<path d="M933.12,320.29L938.45,320.29L938.45,325.62L933.12,325.62Z" style="fill:none;stroke:#7AC36A;stroke-width:0.625" />
<path d="M940.08,346.74L945.41,346.74L945.41,352.07L940.08,352.07Z" style="fill:none;stroke:#7AC36A;stroke-width:0.625" />
<path d="M947.04,383.15L952.37,383.15L952.37,388.49L947.04,388.49Z" style="fill:none;stroke:#7AC36A;stroke-width:0.625" />
<path d="M954,422.15L959.33,422.15L959.33,427.49L954,427.49Z" style="fill:none;stroke:#7AC36A;stroke-width:0.625" />
<path d="M960.96,438.78L966.29,438.78L966.29,444.12L960.96,444.12Z" style="fill:none;stroke:#7AC36A;stroke-width:0.625" />
<path d="M967.92,438.86L973.25,438.86L973.25,444.19L967.92,444.19Z" style="fill:none;stroke:#7AC36A;stroke-width:0.625" />
<path d="M974.88,438.34L980.21,438.34L980.21,443.68L974.88,443.68Z" style="fill:none;stroke:#7AC36A;stroke-width:0.625" />
<path d="M981.84,439.07L987.17,439.07L987.17,444.41L981.84,444.41Z" style="fill:none;stroke:#7AC36A;stroke-width:0.625" />
<path d="M988.8,424.27L994.13,424.27L994.13,429.61L988.8,429.61Z" style="fill:none;stroke:#7AC36A;stroke-width:0.625" />
<path d="M995.76,391.32L1001.1,391.32L1001.1,396.66L995.76,396.66Z" style="fill:none;stroke:#7AC36A;stroke-width:0.625" />
<path d="M1002.7,360.84L1008.1,360.84L1008.1,366.17L1002.7,366.17Z" style="fill:none;stroke:#7AC36A;stroke-width:0.625" />
<path d="M1009.7,328.4L1015,328.4L1015,333.74L1009.7,333.74Z" style="fill:none;stroke:#7AC36A;stroke-width:0.625" />
<path d="M1016.6,284.04L1022,284.04L1022,289.38L1016.6,289.38Z" style="fill:none;stroke:#7AC36A;stroke-width:0.625" />
<path d="M1023.6,239.06L1028.9,239.06L1028.9,244.4L1023.6,244.4Z" style="fill:none;stroke:#7AC36A;stroke-width:0.625" />
<path d="M1030.6,189.51L1035.9,189.51L1035.9,194.84L1030.6,194.84Z" style="fill:none;stroke:#7AC36A;stroke-width:0.625" />
<path d="M1037.5,134.08L1042.8,134.08L1042.8,139.41L1037.5,139.41Z" style="fill:none;stroke:#7AC36A;stroke-width:0.625" />
<path d="M1044.5,89.535L1049.8,89.535L1049.8,94.87L1044.5,94.87Z" style="fill:none;stroke:#7AC36A;stroke-width:0.625" />
<path d="M1051.4,58.367L1056.8,58.367L1056.8,63.702L1051.4,63.702Z" style="fill:none;stroke:#7AC36A;stroke-width:0.625" />
<path d="M1058.4,53.125L1063.7,53.125L1063.7,58.459L1058.4,58.459Z" style="fill:none;stroke:#7AC36A;stroke-width:0.625" />
<path d="M1065.4,46.645L1070.7,46.645L1070.7,51.98L1065.4,51.98Z" style="fill:none;stroke:#7AC36A;stroke-width:0.625" />
<path d="M1072.3,69.794L1077.6,69.794L1077.6,75.129L1072.3,75.129Z" style="fill:none;stroke:#7AC36A;stroke-width:0.625" />
<path d="M1079.3,103.88L1084.6,103.88L1084.6,109.21L1079.3,109.21Z" style="fill:none;stroke:#7AC36A;stroke-width:0.625" />
<path d="M1086.2,148.1L1091.6,148.1L1091.6,153.44L1086.2,153.44Z" style="fill:none;stroke:#7AC36A;stroke-width:0.625" />
<path d="M1093.2,195.91L1098.5,195.91L1098.5,201.24L1093.2,201.24Z" style="fill:none;stroke:#7AC36A;stroke-width:0.625" />
<path d="M1100.1,273.72L1105.5,273.72L1105.5,279.05L1100.1,279.05Z" style="fill:none;stroke:#7AC36A;stroke-width:0.625" />
<path d="M1107.1,346.39L1112.4,346.39L1112.4,351.72L1107.1,351.72Z" style="fill:none;stroke:#7AC36A;stroke-width:0.625" />
<path d="M1114.1,425.17L1119.4,425.17L1119.4,430.51L1114.1,430.51Z" style="fill:none;stroke:#7AC36A;stroke-width:0.625" />
<path d="M1121,491.05L1126.4,491.05L1126.4,496.38L1121,496.38Z" style="fill:none;stroke:#7AC36A;stroke-width:0.625" />
<path d="M1128,551.57L1133.3,551.57L1133.3,556.9L1128,556.9Z" style="fill:none;stroke:#7AC36A;stroke-width:0.625" />
<path d="M1134.9,617.23L1140.3,617.23L1140.3,622.57L1134.9,622.57Z" style="fill:none;stroke:#7AC36A;stroke-width:0.625" />
<path d="M1141.9,669.83L1147.2,669.83L1147.2,675.17L1141.9,675.17Z" style="fill:none;stroke:#7AC36A;stroke-width:0.625" />
<path d="M1148.9,714.5L1154.2,714.5L1154.2,719.84L1148.9,719.84Z" style="fill:none;stroke:#7AC36A;stroke-width:0.625" />
<path d="M1155.8,735L1161.2,735L1161.2,740.33L1155.8,740.33Z" style="fill:none;stroke:#7AC36A;stroke-width:0.625" />
<path d="M1162.8,728.65L1168.1,728.65L1168.1,733.99L1162.8,733.99Z" style="fill:none;stroke:#7AC36A;stroke-width:0.625" />
<path d="M1169.7,725.48L1175.1,725.48L1175.1,730.82L1169.7,730.82Z" style="fill:none;stroke:#7AC36A;stroke-width:0.625" />
<path d="M1176.7,696.45L1182,696.45L1182,701.78L1176.7,701.78Z" style="fill:none;stroke:#7AC36A;stroke-width:0.625" />
<path d="M1183.7,650.66L1189,650.66L1189,656L1183.7,656Z" style="fill:none;stroke:#7AC36A;stroke-width:0.625" />
<path d="M1190.6,607.95L1196,607.95L1196,613.29L1190.6,613.29Z" style="fill:none;stroke:#7AC36A;stroke-width:0.625" />
<path d="M1197.6,545.51L1202.9,545.51L1202.9,550.85L1197.6,550.85Z" style="fill:none;stroke:#7AC36A;stroke-width:0.625" />
<path d="M1204.5,487.08L1209.9,487.08L1209.9,492.42L1204.5,492.42Z" style="fill:none;stroke:#7AC36A;stroke-width:0.625" />
<path d="M1211.5,422.5L1216.8,422.5L1216.8,427.83L1211.5,427.83Z" style="fill:none;stroke:#7AC36A;stroke-width:0.625" />
<path d="M1218.5,355.68L1223.8,355.68L1223.8,361.01L1218.5,361.01Z" style="fill:none;stroke:#7AC36A;stroke-width:0.625" />
<path d="M1225.4,301.21L1230.8,301.21L1230.8,306.55L1225.4,306.55Z" style="fill:none;stroke:#7AC36A;stroke-width:0.625" />
<path d="M1232.4,260.57L1237.7,260.57L1237.7,265.9L1232.4,265.9Z" style="fill:none;stroke:#7AC36A;stroke-width:0.625" />
<path d="M1239.3,239.37L1244.7,239.37L1244.7,244.7L1239.3,244.7Z" style="fill:none;stroke:#7AC36A;stroke-width:0.625" />
<path d="M1246.3,215.38L1251.6,215.38L1251.6,220.72L1246.3,220.72Z" style="fill:none;stroke:#7AC36A;stroke-width:0.625" />
<path d="M1253.3,213.77L1258.6,213.77L1258.6,219.1L1253.3,219.1Z" style="fill:none;stroke:#7AC36A;stroke-width:0.625" />
<path d="M1260.2,216.29L1265.6,216.29L1265.6,221.62L1260.2,221.62Z" style="fill:none;stroke:#7AC36A;stroke-width:0.625" />
<path d="M1267.2,246.97L1272.5,246.97L1272.5,252.3L1267.2,252.3Z" style="fill:none;stroke:#7AC36A;stroke-width:0.625" />
<path d="M1274.1,280.65L1279.5,280.65L1279.5,285.99L1274.1,285.99Z" style="fill:none;stroke:#7AC36A;stroke-width:0.625" />
<path d="M1281.1,321.3L1286.4,321.3L1286.4,326.63L1281.1,326.63Z" style="fill:none;stroke:#7AC36A;stroke-width:0.625" />
<path d="M1288.1,366.46L1293.4,366.46L1293.4,371.79L1288.1,371.79Z" style="fill:none;stroke:#7AC36A;stroke-width:0.625" />
<path d="M1295,402.44L1300.4,402.44L1300.4,407.77L1295,407.77Z" style="fill:none;stroke:#7AC36A;stroke-width:0.625" />
<path d="M1302,442.3L1307.3,442.3L1307.3,447.64L1302,447.64Z" style="fill:none;stroke:#7AC36A;stroke-width:0.625" />
<path d="M1308.9,450.21L1314.3,450.21L1314.3,455.54L1308.9,455.54Z" style="fill:none;stroke:#7AC36A;stroke-width:0.625" />
<path d="M1315.9,472.5L1321.2,472.5L1321.2,477.84L1315.9,477.84Z" style="fill:none;stroke:#7AC36A;stroke-width:0.625" />
<path d="M1322.9,466.55L1328.2,466.55L1328.2,471.88L1322.9,471.88Z" style="fill:none;stroke:#7AC36A;stroke-width:0.625" />
<path d="M1329.8,447.08L1335.1,447.08L1335.1,452.42L1329.8,452.42Z" style="fill:none;stroke:#7AC36A;stroke-width:0.625" />
<path d="M1336.8,434.08L1342.1,434.08L1342.1,439.41L1336.8,439.41Z" style="fill:none;stroke:#7AC36A;stroke-width:0.625" />
<path d="M1343.7,407.36L1349.1,407.36L1349.1,412.69L1343.7,412.69Z" style="fill:none;stroke:#7AC36A;stroke-width:0.625" />
<path d="M1350.7,359.46L1356,359.46L1356,364.79L1350.7,364.79Z" style="fill:none;stroke:#7AC36A;stroke-width:0.625" />
<path d="M1357.7,306.87L1363,306.87L1363,312.2L1357.7,312.2Z" style="fill:none;stroke:#7AC36A;stroke-width:0.625" />
<path d="M1364.6,260.55L1369.9,260.55L1369.9,265.89L1364.6,265.89Z" style="fill:none;stroke:#7AC36A;stroke-width:0.625" />
<path d="M1371.6,199.66L1376.9,199.66L1376.9,205L1371.6,205Z" style="fill:none;stroke:#7AC36A;stroke-width:0.625" />
<path d="M1378.5,146.55L1383.9,146.55L1383.9,151.89L1378.5,151.89Z" style="fill:none;stroke:#7AC36A;stroke-width:0.625" />
<path d="M1385.5,110.91L1390.8,110.91L1390.8,116.25L1385.5,116.25Z" style="fill:none;stroke:#7AC36A;stroke-width:0.625" />
<path d="M1392.5,91.905L1397.8,91.905L1397.8,97.24L1392.5,97.24Z" style="fill:none;stroke:#7AC36A;stroke-width:0.625" />
<path d="M1399.4,77.534L1404.7,77.534L1404.7,82.869L1399.4,82.869Z" style="fill:none;stroke:#7AC36A;stroke-width:0.625" />
<path d="M1406.4,80.871L1411.7,80.871L1411.7,86.206L1406.4,86.206Z" style="fill:none;stroke:#7AC36A;stroke-width:0.625" />
<path d="M1413.3,82.981L1418.7,82.981L1418.7,88.315L1413.3,88.315Z" style="fill:none;stroke:#7AC36A;stroke-width:0.625" />
<path d="M1420.3,91.975L1425.6,91.975L1425.6,97.309L1420.3,97.309Z" style="fill:none;stroke:#7AC36A;stroke-width:0.625" />
<path d="M1427.2,111.23L1432.6,111.23L1432.6,116.56L1427.2,116.56Z" style="fill:none;stroke:#7AC36A;stroke-width:0.625" />
<path d="M1434.2,144.03L1439.5,144.03L1439.5,149.37L1434.2,149.37Z" style="fill:none;stroke:#7AC36A;stroke-width:0.625" />
<path d="M1415,66.978L1440,66.978" style="fill:none;stroke:#7AC36A;stroke-width:1.25;stroke-dasharray:7.5,2.5" />
<path d="M1424.8,64.31L1430.2,64.31L1430.2,69.645L1424.8,69.645Z" style="fill:none;stroke:#7AC36A;stroke-width:0.625" />
<text x="1367.1" y="-61.188" transform="scale(1, -1)"
	style="font-family:Times;font-weight:normal;font-style:normal;font-size:12pt">smooth</text>
<path d="M1415,53.117L1440,53.117" style="fill:none;stroke:#F15A60;stroke-width:1.25" />
<path d="M1430.6,53.117A3.125,3.125 0 1 1 1424.4,53.117A3.125,3.125 0 1 1 1430.6,53.117Z" style="fill:none;stroke:#F15A60;stroke-width:0.625" />
<text x="1388.8" y="-47.328" transform="scale(1, -1)"
	style="font-family:Times;font-weight:normal;font-style:normal;font-size:12pt">raw</text>
</g>
</svg>
