<?xml version="1.0"?>
<!-- Generated by SVGo and Plotinum VG -->
<svg width="16in" height="9in"
	xmlns="http://www.w3.org/2000/svg"
	xmlns:xlink="http://www.w3.org/1999/xlink">
<g transform="scale(1, -1) translate(0, -810)">
<path d="M0,0L1440,0L1440,810L0,810Z" style="fill:#FFFFFF" />
<text x="738.98" y="-5.355" transform="scale(1, -1)"
	style="font-family:Times;font-weight:normal;font-style:normal;font-size:12pt">X</text>
<text x="48.8" y="-19.025" transform="scale(1, -1)"
	style="font-family:Times;font-weight:normal;font-style:normal;font-size:10pt">0</text>
<text x="463.25" y="-19.025" transform="scale(1, -1)"
	style="font-family:Times;font-weight:normal;font-style:normal;font-size:10pt">60</text>
<text x="877.7" y="-19.025" transform="scale(1, -1)"
	style="font-family:Times;font-weight:normal;font-style:normal;font-size:10pt">120</text>
<text x="1295.3" y="-19.025" transform="scale(1, -1)"
	style="font-family:Times;font-weight:normal;font-style:normal;font-size:10pt">180</text>
<path d="M51.925,29.625L51.925,39.625" style="fill:none;stroke:#000000;stroke-width:0.625" />
<path d="M469.5,29.625L469.5,39.625" style="fill:none;stroke:#000000;stroke-width:0.625" />
<path d="M887.07,29.625L887.07,39.625" style="fill:none;stroke:#000000;stroke-width:0.625" />
<path d="M1304.6,29.625L1304.6,39.625" style="fill:none;stroke:#000000;stroke-width:0.625" />
<path d="M191.12,34.625L191.12,39.625" style="fill:none;stroke:#000000;stroke-width:0.625" />
<path d="M330.31,34.625L330.31,39.625" style="fill:none;stroke:#000000;stroke-width:0.625" />
<path d="M608.69,34.625L608.69,39.625" style="fill:none;stroke:#000000;stroke-width:0.625" />
<path d="M747.88,34.625L747.88,39.625" style="fill:none;stroke:#000000;stroke-width:0.625" />
<path d="M1026.3,34.625L1026.3,39.625" style="fill:none;stroke:#000000;stroke-width:0.625" />
<path d="M1165.5,34.625L1165.5,39.625" style="fill:none;stroke:#000000;stroke-width:0.625" />
<path d="M51.925,39.625L1436.9,39.625" style="fill:none;stroke:#000000;stroke-width:0.625" />
<g transform="rotate(90)">
<text x="422.68" y="12.72" transform="scale(1, -1)"
	style="font-family:Times;font-weight:normal;font-style:normal;font-size:12pt">Y</text>
</g>
<text x="18.075" y="-186.07" transform="scale(1, -1)"
	style="font-family:Times;font-weight:normal;font-style:normal;font-size:10pt">-1</text>
<text x="22.237" y="-344.19" transform="scale(1, -1)"
	style="font-family:Times;font-weight:normal;font-style:normal;font-size:10pt">0</text>
<text x="22.237" y="-502.31" transform="scale(1, -1)"
	style="font-family:Times;font-weight:normal;font-style:normal;font-size:10pt">1</text>
<text x="22.237" y="-660.44" transform="scale(1, -1)"
	style="font-family:Times;font-weight:normal;font-style:normal;font-size:10pt">2</text>
<path d="M31.613,190.89L41.612,190.89" style="fill:none;stroke:#000000;stroke-width:0.625" />
<path d="M31.613,349.02L41.612,349.02" style="fill:none;stroke:#000000;stroke-width:0.625" />
<path d="M31.613,507.14L41.612,507.14" style="fill:none;stroke:#000000;stroke-width:0.625" />
<path d="M31.613,665.26L41.612,665.26" style="fill:none;stroke:#000000;stroke-width:0.625" />
<path d="M36.612,111.83L41.612,111.83" style="fill:none;stroke:#000000;stroke-width:0.625" />
<path d="M36.612,269.95L41.612,269.95" style="fill:none;stroke:#000000;stroke-width:0.625" />
<path d="M36.612,428.08L41.612,428.08" style="fill:none;stroke:#000000;stroke-width:0.625" />
<path d="M36.612,586.2L41.612,586.2" style="fill:none;stroke:#000000;stroke-width:0.625" />
<path d="M36.612,744.33L41.612,744.33" style="fill:none;stroke:#000000;stroke-width:0.625" />
<path d="M41.612,49.313L41.612,806.88" style="fill:none;stroke:#000000;stroke-width:0.625" />
<path d="M51.925,395.94L58.885,527.6L65.844,574.92L72.804,767.48L79.763,721.29L86.723,668.93L93.682,721.25L100.64,570.87L107.6,423.2L114.56,357.11L121.52,303.56L128.48,363.78L135.44,289.01L142.4,285.42L149.36,339.97L156.32,480.37L163.28,464.72L170.24,419.56L177.2,420.73L184.16,320.6L191.12,328.84L198.08,301.41L205.04,189.29L211.99,204.58L218.95,272.11L225.91,378.48L232.87,461.85L239.83,436.86L246.79,541.13L253.75,707.94L260.71,777.05L267.67,682.13L274.63,684.43L281.59,543.65L288.55,549.15L295.51,427.25L302.47,255.64L309.43,253.96L316.39,251.26L323.35,207.37L330.31,152.26L337.27,349.89L344.23,410.59L351.19,387.52L358.15,365.17L365.1,465.86L372.06,484.18L379.02,450.69L385.98,370.53L392.94,421.39L399.9,328.54L406.86,317.34L413.82,468.18L420.78,398.08L427.74,594.24L434.7,584.21L441.66,731.38L448.62,694.2L455.58,734.17L462.54,553.89L469.5,501.97L476.46,396.58L483.42,298.93L490.38,295.68L497.34,224.33L504.3,52.472L511.26,71.195L518.21,195.12L525.17,225.02L532.13,395.75L539.09,483.71L546.05,544.8L553.01,555.69L559.97,588.83L566.93,588.66L573.89,583.67L580.85,471.29L587.81,440.21L594.77,468.3L601.73,435.48L608.69,501.58L615.65,539.78L622.61,570.26L629.57,569.68L636.53,641.33L643.49,487.4L650.45,457.53L657.41,392.04L664.37,311.14L671.32,289.77L678.28,243.34L685.24,144.2L692.2,200.47L699.16,170.01L706.12,222.53L713.08,316.83L720.04,512.01L727,559.84L733.96,692.11L740.92,676.86L747.88,645.82L754.84,678.33L761.8,648.71L768.76,601.26L775.72,493.97L782.68,398.38L789.64,415.17L796.6,338.46L803.56,319.79L810.52,343.31L817.48,452.3L824.43,392.64L831.39,437.1L838.35,401L845.31,341.78L852.27,363.14L859.23,327.51L866.19,157.57L873.15,149.21L880.11,274.49L887.07,311.52L894.03,392.94L900.99,459.04L907.95,493.48L914.91,688.01L921.87,689.21L928.83,785.7L935.79,806.88L942.75,659.45L949.71,532.48L956.67,485.48L963.63,444.85L970.59,321.58L977.54,213.56L984.5,253.13L991.46,285.52L998.42,275.83L1005.4,335.65L1012.3,356.84L1019.3,343.82L1026.3,390.06L1033.2,406.14L1040.2,458.45L1047.1,332.35L1054.1,386.99L1061.1,342.14L1068,325.77L1075,311.78L1081.9,490.38L1088.9,496.4L1095.9,600.9L1102.8,607.21L1109.8,656.97L1116.7,746.35L1123.7,701.47L1130.7,663.67L1137.6,512.15L1144.6,339.5L1151.5,340.22L1158.5,179.19L1165.5,99.515L1172.4,158.77L1179.4,106.48L1186.3,211.56L1193.3,256.88L1200.3,314.83L1207.2,429.56L1214.2,512.29L1221.1,587.13L1228.1,500.2L1235,540.31L1242,461.83L1249,531.53L1255.9,474.8L1262.9,481.63L1269.8,514.53L1276.8,506.3L1283.8,602.87L1290.7,503.54L1297.7,672.57L1304.6,566.39L1311.6,523.92L1318.6,559.55L1325.5,443.3L1332.5,270.05L1339.4,188.32L1346.4,171.4L1353.4,49.313L1360.3,85.253L1367.3,196.65L1374.2,319.41L1381.2,384.79L1388.2,527.17L1395.1,543.45L1402.1,583.54L1409,606.8L1416,612.2L1423,559.72L1429.9,589.79L1436.9,490.82" style="fill:none;stroke:#F15A60;stroke-width:1.25" />
<path d="M55.05,395.94A3.125,3.125 0 1 1 48.8,395.94A3.125,3.125 0 1 1 55.05,395.94Z" style="fill:none;stroke:#F15A60;stroke-width:0.625" />
<path d="M62.01,527.6A3.125,3.125 0 1 1 55.76,527.6A3.125,3.125 0 1 1 62.01,527.6Z" style="fill:none;stroke:#F15A60;stroke-width:0.625" />
<path d="M68.969,574.92A3.125,3.125 0 1 1 62.719,574.92A3.125,3.125 0 1 1 68.969,574.92Z" style="fill:none;stroke:#F15A60;stroke-width:0.625" />
<path d="M75.929,767.48A3.125,3.125 0 1 1 69.679,767.48A3.125,3.125 0 1 1 75.929,767.48Z" style="fill:none;stroke:#F15A60;stroke-width:0.625" />
<path d="M82.888,721.29L82.888,721.29A3.125,3.125 0 1 1 76.638,721.29A3.125,3.125 0 1 1 82.888,721.29Z" style="fill:none;stroke:#F15A60;stroke-width:0.625" />
<path d="M89.848,668.93L89.848,668.93A3.125,3.125 0 1 1 83.598,668.93A3.125,3.125 0 1 1 89.848,668.93Z" style="fill:none;stroke:#F15A60;stroke-width:0.625" />
<path d="M96.807,721.25L96.807,721.25A3.125,3.125 0 1 1 90.557,721.25A3.125,3.125 0 1 1 96.807,721.25Z" style="fill:none;stroke:#F15A60;stroke-width:0.625" />
<path d="M103.77,570.87L103.77,570.87A3.125,3.125 0 1 1 97.517,570.87A3.125,3.125 0 1 1 103.77,570.87Z" style="fill:none;stroke:#F15A60;stroke-width:0.625" />
<path d="M110.73,423.2L110.73,423.2A3.125,3.125 0 1 1 104.48,423.2A3.125,3.125 0 1 1 110.73,423.2Z" style="fill:none;stroke:#F15A60;stroke-width:0.625" />
<path d="M117.69,357.11L117.69,357.11A3.125,3.125 0 1 1 111.44,357.11A3.125,3.125 0 1 1 117.69,357.11Z" style="fill:none;stroke:#F15A60;stroke-width:0.625" />
<path d="M124.65,303.56A3.125,3.125 0 1 1 118.4,303.56A3.125,3.125 0 1 1 124.65,303.56Z" style="fill:none;stroke:#F15A60;stroke-width:0.625" />
<path d="M131.61,363.78A3.125,3.125 0 1 1 125.36,363.78A3.125,3.125 0 1 1 131.61,363.78Z" style="fill:none;stroke:#F15A60;stroke-width:0.625" />
<path d="M138.56,289.01A3.125,3.125 0 1 1 132.31,289.01A3.125,3.125 0 1 1 138.56,289.01Z" style="fill:none;stroke:#F15A60;stroke-width:0.625" />
<path d="M145.52,285.42A3.125,3.125 0 1 1 139.27,285.42A3.125,3.125 0 1 1 145.52,285.42Z" style="fill:none;stroke:#F15A60;stroke-width:0.625" />
<path d="M152.48,339.97A3.125,3.125 0 1 1 146.23,339.97A3.125,3.125 0 1 1 152.48,339.97Z" style="fill:none;stroke:#F15A60;stroke-width:0.625" />
<path d="M159.44,480.37A3.125,3.125 0 1 1 153.19,480.37A3.125,3.125 0 1 1 159.44,480.37Z" style="fill:none;stroke:#F15A60;stroke-width:0.625" />
<path d="M166.4,464.72A3.125,3.125 0 1 1 160.15,464.72A3.125,3.125 0 1 1 166.4,464.72Z" style="fill:none;stroke:#F15A60;stroke-width:0.625" />
<path d="M173.36,419.56A3.125,3.125 0 1 1 167.11,419.56A3.125,3.125 0 1 1 173.36,419.56Z" style="fill:none;stroke:#F15A60;stroke-width:0.625" />
<path d="M180.32,420.73L180.32,420.73A3.125,3.125 0 1 1 174.07,420.73A3.125,3.125 0 1 1 180.32,420.73Z" style="fill:none;stroke:#F15A60;stroke-width:0.625" />
<path d="M187.28,320.6A3.125,3.125 0 1 1 181.03,320.6A3.125,3.125 0 1 1 187.28,320.6Z" style="fill:none;stroke:#F15A60;stroke-width:0.625" />
<path d="M194.24,328.84L194.24,328.84A3.125,3.125 0 1 1 187.99,328.84A3.125,3.125 0 1 1 194.24,328.84Z" style="fill:none;stroke:#F15A60;stroke-width:0.625" />
<path d="M201.2,301.41A3.125,3.125 0 1 1 194.95,301.41A3.125,3.125 0 1 1 201.2,301.41Z" style="fill:none;stroke:#F15A60;stroke-width:0.625" />
<path d="M208.16,189.29A3.125,3.125 0 1 1 201.91,189.29A3.125,3.125 0 1 1 208.16,189.29Z" style="fill:none;stroke:#F15A60;stroke-width:0.625" />
<path d="M215.12,204.58A3.125,3.125 0 1 1 208.87,204.58A3.125,3.125 0 1 1 215.12,204.58Z" style="fill:none;stroke:#F15A60;stroke-width:0.625" />
<path d="M222.08,272.11L222.08,272.11A3.125,3.125 0 1 1 215.83,272.11A3.125,3.125 0 1 1 222.08,272.11Z" style="fill:none;stroke:#F15A60;stroke-width:0.625" />
<path d="M229.04,378.48A3.125,3.125 0 1 1 222.79,378.48A3.125,3.125 0 1 1 229.04,378.48Z" style="fill:none;stroke:#F15A60;stroke-width:0.625" />
<path d="M236,461.85A3.125,3.125 0 1 1 229.75,461.85A3.125,3.125 0 1 1 236,461.85Z" style="fill:none;stroke:#F15A60;stroke-width:0.625" />
<path d="M242.96,436.86A3.125,3.125 0 1 1 236.71,436.86A3.125,3.125 0 1 1 242.96,436.86Z" style="fill:none;stroke:#F15A60;stroke-width:0.625" />
<path d="M249.92,541.13L249.92,541.13A3.125,3.125 0 1 1 243.67,541.13A3.125,3.125 0 1 1 249.92,541.13Z" style="fill:none;stroke:#F15A60;stroke-width:0.625" />
<path d="M256.88,707.94L256.88,707.94A3.125,3.125 0 1 1 250.63,707.94A3.125,3.125 0 1 1 256.88,707.94Z" style="fill:none;stroke:#F15A60;stroke-width:0.625" />
<path d="M263.84,777.05A3.125,3.125 0 1 1 257.59,777.05A3.125,3.125 0 1 1 263.84,777.05Z" style="fill:none;stroke:#F15A60;stroke-width:0.625" />
<path d="M270.8,682.13A3.125,3.125 0 1 1 264.55,682.13A3.125,3.125 0 1 1 270.8,682.13Z" style="fill:none;stroke:#F15A60;stroke-width:0.625" />
<path d="M277.76,684.43L277.76,684.43A3.125,3.125 0 1 1 271.51,684.43A3.125,3.125 0 1 1 277.76,684.43Z" style="fill:none;stroke:#F15A60;stroke-width:0.625" />
<path d="M284.72,543.65A3.125,3.125 0 1 1 278.47,543.65A3.125,3.125 0 1 1 284.72,543.65Z" style="fill:none;stroke:#F15A60;stroke-width:0.625" />
<path d="M291.67,549.15L291.67,549.15A3.125,3.125 0 1 1 285.42,549.15A3.125,3.125 0 1 1 291.67,549.15Z" style="fill:none;stroke:#F15A60;stroke-width:0.625" />
<path d="M298.63,427.25A3.125,3.125 0 1 1 292.38,427.25A3.125,3.125 0 1 1 298.63,427.25Z" style="fill:none;stroke:#F15A60;stroke-width:0.625" />
<path d="M305.59,255.64A3.125,3.125 0 1 1 299.34,255.64A3.125,3.125 0 1 1 305.59,255.64Z" style="fill:none;stroke:#F15A60;stroke-width:0.625" />
<path d="M312.55,253.96A3.125,3.125 0 1 1 306.3,253.96A3.125,3.125 0 1 1 312.55,253.96Z" style="fill:none;stroke:#F15A60;stroke-width:0.625" />
<path d="M319.51,251.26A3.125,3.125 0 1 1 313.26,251.26A3.125,3.125 0 1 1 319.51,251.26Z" style="fill:none;stroke:#F15A60;stroke-width:0.625" />
<path d="M326.47,207.37A3.125,3.125 0 1 1 320.22,207.37A3.125,3.125 0 1 1 326.47,207.37Z" style="fill:none;stroke:#F15A60;stroke-width:0.625" />
<path d="M333.43,152.26L333.43,152.26A3.125,3.125 0 1 1 327.18,152.26A3.125,3.125 0 1 1 333.43,152.26Z" style="fill:none;stroke:#F15A60;stroke-width:0.625" />
<path d="M340.39,349.89A3.125,3.125 0 1 1 334.14,349.89A3.125,3.125 0 1 1 340.39,349.89Z" style="fill:none;stroke:#F15A60;stroke-width:0.625" />
<path d="M347.35,410.59L347.35,410.59A3.125,3.125 0 1 1 341.1,410.59A3.125,3.125 0 1 1 347.35,410.59Z" style="fill:none;stroke:#F15A60;stroke-width:0.625" />
<path d="M354.31,387.52A3.125,3.125 0 1 1 348.06,387.52A3.125,3.125 0 1 1 354.31,387.52Z" style="fill:none;stroke:#F15A60;stroke-width:0.625" />
<path d="M361.27,365.17L361.27,365.17A3.125,3.125 0 1 1 355.02,365.17A3.125,3.125 0 1 1 361.27,365.17Z" style="fill:none;stroke:#F15A60;stroke-width:0.625" />
<path d="M368.23,465.86A3.125,3.125 0 1 1 361.98,465.86A3.125,3.125 0 1 1 368.23,465.86Z" style="fill:none;stroke:#F15A60;stroke-width:0.625" />
<path d="M375.19,484.18A3.125,3.125 0 1 1 368.94,484.18A3.125,3.125 0 1 1 375.19,484.18Z" style="fill:none;stroke:#F15A60;stroke-width:0.625" />
<path d="M382.15,450.69A3.125,3.125 0 1 1 375.9,450.69A3.125,3.125 0 1 1 382.15,450.69Z" style="fill:none;stroke:#F15A60;stroke-width:0.625" />
<path d="M389.11,370.53A3.125,3.125 0 1 1 382.86,370.53A3.125,3.125 0 1 1 389.11,370.53Z" style="fill:none;stroke:#F15A60;stroke-width:0.625" />
<path d="M396.07,421.39A3.125,3.125 0 1 1 389.82,421.39A3.125,3.125 0 1 1 396.07,421.39Z" style="fill:none;stroke:#F15A60;stroke-width:0.625" />
<path d="M403.03,328.54L403.03,328.54A3.125,3.125 0 1 1 396.78,328.54A3.125,3.125 0 1 1 403.03,328.54Z" style="fill:none;stroke:#F15A60;stroke-width:0.625" />
<path d="M409.99,317.34A3.125,3.125 0 1 1 403.74,317.34A3.125,3.125 0 1 1 409.99,317.34Z" style="fill:none;stroke:#F15A60;stroke-width:0.625" />
<path d="M416.95,468.18A3.125,3.125 0 1 1 410.7,468.18A3.125,3.125 0 1 1 416.95,468.18Z" style="fill:none;stroke:#F15A60;stroke-width:0.625" />
<path d="M423.91,398.08L423.91,398.08A3.125,3.125 0 1 1 417.66,398.08A3.125,3.125 0 1 1 423.91,398.08Z" style="fill:none;stroke:#F15A60;stroke-width:0.625" />
<path d="M430.87,594.24A3.125,3.125 0 1 1 424.62,594.24A3.125,3.125 0 1 1 430.87,594.24Z" style="fill:none;stroke:#F15A60;stroke-width:0.625" />
<path d="M437.83,584.21A3.125,3.125 0 1 1 431.58,584.21A3.125,3.125 0 1 1 437.83,584.21Z" style="fill:none;stroke:#F15A60;stroke-width:0.625" />
<path d="M444.78,731.38A3.125,3.125 0 1 1 438.53,731.38A3.125,3.125 0 1 1 444.78,731.38Z" style="fill:none;stroke:#F15A60;stroke-width:0.625" />
<path d="M451.74,694.2L451.74,694.2A3.125,3.125 0 1 1 445.49,694.2A3.125,3.125 0 1 1 451.74,694.2Z" style="fill:none;stroke:#F15A60;stroke-width:0.625" />
<path d="M458.7,734.17L458.7,734.17A3.125,3.125 0 1 1 452.45,734.17A3.125,3.125 0 1 1 458.7,734.17Z" style="fill:none;stroke:#F15A60;stroke-width:0.625" />
<path d="M465.66,553.89L465.66,553.89A3.125,3.125 0 1 1 459.41,553.89A3.125,3.125 0 1 1 465.66,553.89Z" style="fill:none;stroke:#F15A60;stroke-width:0.625" />
<path d="M472.62,501.97A3.125,3.125 0 1 1 466.37,501.97A3.125,3.125 0 1 1 472.62,501.97Z" style="fill:none;stroke:#F15A60;stroke-width:0.625" />
<path d="M479.58,396.58A3.125,3.125 0 1 1 473.33,396.58A3.125,3.125 0 1 1 479.58,396.58Z" style="fill:none;stroke:#F15A60;stroke-width:0.625" />
<path d="M486.54,298.93A3.125,3.125 0 1 1 480.29,298.93A3.125,3.125 0 1 1 486.54,298.93Z" style="fill:none;stroke:#F15A60;stroke-width:0.625" />
<path d="M493.5,295.68A3.125,3.125 0 1 1 487.25,295.68A3.125,3.125 0 1 1 493.5,295.68Z" style="fill:none;stroke:#F15A60;stroke-width:0.625" />
<path d="M500.46,224.33A3.125,3.125 0 1 1 494.21,224.33A3.125,3.125 0 1 1 500.46,224.33Z" style="fill:none;stroke:#F15A60;stroke-width:0.625" />
<path d="M507.42,52.472A3.125,3.125 0 1 1 501.17,52.472A3.125,3.125 0 1 1 507.42,52.472Z" style="fill:none;stroke:#F15A60;stroke-width:0.625" />
<path d="M514.38,71.195L514.38,71.195A3.125,3.125 0 1 1 508.13,71.195A3.125,3.125 0 1 1 514.38,71.195Z" style="fill:none;stroke:#F15A60;stroke-width:0.625" />
<path d="M521.34,195.12A3.125,3.125 0 1 1 515.09,195.12A3.125,3.125 0 1 1 521.34,195.12Z" style="fill:none;stroke:#F15A60;stroke-width:0.625" />
<path d="M528.3,225.02A3.125,3.125 0 1 1 522.05,225.02A3.125,3.125 0 1 1 528.3,225.02Z" style="fill:none;stroke:#F15A60;stroke-width:0.625" />
<path d="M535.26,395.75L535.26,395.75A3.125,3.125 0 1 1 529.01,395.75A3.125,3.125 0 1 1 535.26,395.75Z" style="fill:none;stroke:#F15A60;stroke-width:0.625" />
<path d="M542.22,483.71A3.125,3.125 0 1 1 535.97,483.71A3.125,3.125 0 1 1 542.22,483.71Z" style="fill:none;stroke:#F15A60;stroke-width:0.625" />
<path d="M549.18,544.8A3.125,3.125 0 1 1 542.93,544.8A3.125,3.125 0 1 1 549.18,544.8Z" style="fill:none;stroke:#F15A60;stroke-width:0.625" />
<path d="M556.14,555.69A3.125,3.125 0 1 1 549.89,555.69A3.125,3.125 0 1 1 556.14,555.69Z" style="fill:none;stroke:#F15A60;stroke-width:0.625" />
<path d="M563.1,588.83A3.125,3.125 0 1 1 556.85,588.83A3.125,3.125 0 1 1 563.1,588.83Z" style="fill:none;stroke:#F15A60;stroke-width:0.625" />
<path d="M570.06,588.66L570.06,588.66A3.125,3.125 0 1 1 563.81,588.66A3.125,3.125 0 1 1 570.06,588.66Z" style="fill:none;stroke:#F15A60;stroke-width:0.625" />
<path d="M577.02,583.67A3.125,3.125 0 1 1 570.77,583.67A3.125,3.125 0 1 1 577.02,583.67Z" style="fill:none;stroke:#F15A60;stroke-width:0.625" />
<path d="M583.98,471.29A3.125,3.125 0 1 1 577.73,471.29A3.125,3.125 0 1 1 583.98,471.29Z" style="fill:none;stroke:#F15A60;stroke-width:0.625" />
<path d="M590.94,440.21A3.125,3.125 0 1 1 584.69,440.21A3.125,3.125 0 1 1 590.94,440.21Z" style="fill:none;stroke:#F15A60;stroke-width:0.625" />
<path d="M597.89,468.3A3.125,3.125 0 1 1 591.64,468.3A3.125,3.125 0 1 1 597.89,468.3Z" style="fill:none;stroke:#F15A60;stroke-width:0.625" />
<path d="M604.85,435.48A3.125,3.125 0 1 1 598.6,435.48A3.125,3.125 0 1 1 604.85,435.48Z" style="fill:none;stroke:#F15A60;stroke-width:0.625" />
<path d="M611.81,501.58A3.125,3.125 0 1 1 605.56,501.58A3.125,3.125 0 1 1 611.81,501.58Z" style="fill:none;stroke:#F15A60;stroke-width:0.625" />
<path d="M618.77,539.78A3.125,3.125 0 1 1 612.52,539.78A3.125,3.125 0 1 1 618.77,539.78Z" style="fill:none;stroke:#F15A60;stroke-width:0.625" />
<path d="M625.73,570.26A3.125,3.125 0 1 1 619.48,570.26A3.125,3.125 0 1 1 625.73,570.26Z" style="fill:none;stroke:#F15A60;stroke-width:0.625" />
<path d="M632.69,569.68A3.125,3.125 0 1 1 626.44,569.68A3.125,3.125 0 1 1 632.69,569.68Z" style="fill:none;stroke:#F15A60;stroke-width:0.625" />
<path d="M639.65,641.33A3.125,3.125 0 1 1 633.4,641.33A3.125,3.125 0 1 1 639.65,641.33Z" style="fill:none;stroke:#F15A60;stroke-width:0.625" />
<path d="M646.61,487.4A3.125,3.125 0 1 1 640.36,487.4A3.125,3.125 0 1 1 646.61,487.4Z" style="fill:none;stroke:#F15A60;stroke-width:0.625" />
<path d="M653.57,457.53A3.125,3.125 0 1 1 647.32,457.53A3.125,3.125 0 1 1 653.57,457.53Z" style="fill:none;stroke:#F15A60;stroke-width:0.625" />
<path d="M660.53,392.04A3.125,3.125 0 1 1 654.28,392.04A3.125,3.125 0 1 1 660.53,392.04Z" style="fill:none;stroke:#F15A60;stroke-width:0.625" />
<path d="M667.49,311.14A3.125,3.125 0 1 1 661.24,311.14A3.125,3.125 0 1 1 667.49,311.14Z" style="fill:none;stroke:#F15A60;stroke-width:0.625" />
<path d="M674.45,289.77A3.125,3.125 0 1 1 668.2,289.77A3.125,3.125 0 1 1 674.45,289.77Z" style="fill:none;stroke:#F15A60;stroke-width:0.625" />
<path d="M681.41,243.34L681.41,243.34A3.125,3.125 0 1 1 675.16,243.34A3.125,3.125 0 1 1 681.41,243.34Z" style="fill:none;stroke:#F15A60;stroke-width:0.625" />
<path d="M688.37,144.2A3.125,3.125 0 1 1 682.12,144.2A3.125,3.125 0 1 1 688.37,144.2Z" style="fill:none;stroke:#F15A60;stroke-width:0.625" />
<path d="M695.33,200.47A3.125,3.125 0 1 1 689.08,200.47A3.125,3.125 0 1 1 695.33,200.47Z" style="fill:none;stroke:#F15A60;stroke-width:0.625" />
<path d="M702.29,170.01A3.125,3.125 0 1 1 696.04,170.01A3.125,3.125 0 1 1 702.29,170.01Z" style="fill:none;stroke:#F15A60;stroke-width:0.625" />
<path d="M709.25,222.53L709.25,222.53A3.125,3.125 0 1 1 703,222.53A3.125,3.125 0 1 1 709.25,222.53Z" style="fill:none;stroke:#F15A60;stroke-width:0.625" />
<path d="M716.21,316.83L716.21,316.83A3.125,3.125 0 1 1 709.96,316.83A3.125,3.125 0 1 1 716.21,316.83Z" style="fill:none;stroke:#F15A60;stroke-width:0.625" />
<path d="M723.17,512.01L723.17,512.01A3.125,3.125 0 1 1 716.92,512.01A3.125,3.125 0 1 1 723.17,512.01Z" style="fill:none;stroke:#F15A60;stroke-width:0.625" />
<path d="M730.13,559.84L730.13,559.84A3.125,3.125 0 1 1 723.88,559.84A3.125,3.125 0 1 1 730.13,559.84Z" style="fill:none;stroke:#F15A60;stroke-width:0.625" />
<path d="M737.09,692.11L737.09,692.11A3.125,3.125 0 1 1 730.84,692.11A3.125,3.125 0 1 1 737.09,692.11Z" style="fill:none;stroke:#F15A60;stroke-width:0.625" />
<path d="M744.05,676.86L744.05,676.86A3.125,3.125 0 1 1 737.8,676.86A3.125,3.125 0 1 1 744.05,676.86Z" style="fill:none;stroke:#F15A60;stroke-width:0.625" />
<path d="M751,645.82L751,645.82A3.125,3.125 0 1 1 744.75,645.82A3.125,3.125 0 1 1 751,645.82Z" style="fill:none;stroke:#F15A60;stroke-width:0.625" />
<path d="M757.96,678.33L757.96,678.33A3.125,3.125 0 1 1 751.71,678.33A3.125,3.125 0 1 1 757.96,678.33Z" style="fill:none;stroke:#F15A60;stroke-width:0.625" />
<path d="M764.92,648.71L764.92,648.71A3.125,3.125 0 1 1 758.67,648.71A3.125,3.125 0 1 1 764.92,648.71Z" style="fill:none;stroke:#F15A60;stroke-width:0.625" />
<path d="M771.88,601.26L771.88,601.26A3.125,3.125 0 1 1 765.63,601.26A3.125,3.125 0 1 1 771.88,601.26Z" style="fill:none;stroke:#F15A60;stroke-width:0.625" />
<path d="M778.84,493.97L778.84,493.97A3.125,3.125 0 1 1 772.59,493.97A3.125,3.125 0 1 1 778.84,493.97Z" style="fill:none;stroke:#F15A60;stroke-width:0.625" />
<path d="M785.8,398.38L785.8,398.38A3.125,3.125 0 1 1 779.55,398.38A3.125,3.125 0 1 1 785.8,398.38Z" style="fill:none;stroke:#F15A60;stroke-width:0.625" />
<path d="M792.76,415.17L792.76,415.17A3.125,3.125 0 1 1 786.51,415.17A3.125,3.125 0 1 1 792.76,415.17Z" style="fill:none;stroke:#F15A60;stroke-width:0.625" />
<path d="M799.72,338.46L799.72,338.46A3.125,3.125 0 1 1 793.47,338.46A3.125,3.125 0 1 1 799.72,338.46Z" style="fill:none;stroke:#F15A60;stroke-width:0.625" />
<path d="M806.68,319.79A3.125,3.125 0 1 1 800.43,319.79A3.125,3.125 0 1 1 806.68,319.79Z" style="fill:none;stroke:#F15A60;stroke-width:0.625" />
<path d="M813.64,343.31A3.125,3.125 0 1 1 807.39,343.31A3.125,3.125 0 1 1 813.64,343.31Z" style="fill:none;stroke:#F15A60;stroke-width:0.625" />
<path d="M820.6,452.3L820.6,452.3A3.125,3.125 0 1 1 814.35,452.3A3.125,3.125 0 1 1 820.6,452.3Z" style="fill:none;stroke:#F15A60;stroke-width:0.625" />
<path d="M827.56,392.64L827.56,392.64A3.125,3.125 0 1 1 821.31,392.64A3.125,3.125 0 1 1 827.56,392.64Z" style="fill:none;stroke:#F15A60;stroke-width:0.625" />
<path d="M834.52,437.1L834.52,437.1A3.125,3.125 0 1 1 828.27,437.1A3.125,3.125 0 1 1 834.52,437.1Z" style="fill:none;stroke:#F15A60;stroke-width:0.625" />
<path d="M841.48,401L841.48,401A3.125,3.125 0 1 1 835.23,401A3.125,3.125 0 1 1 841.48,401Z" style="fill:none;stroke:#F15A60;stroke-width:0.625" />
<path d="M848.44,341.78L848.44,341.78A3.125,3.125 0 1 1 842.19,341.78A3.125,3.125 0 1 1 848.44,341.78Z" style="fill:none;stroke:#F15A60;stroke-width:0.625" />
<path d="M855.4,363.14L855.4,363.14A3.125,3.125 0 1 1 849.15,363.14A3.125,3.125 0 1 1 855.4,363.14Z" style="fill:none;stroke:#F15A60;stroke-width:0.625" />
<path d="M862.36,327.51L862.36,327.51A3.125,3.125 0 1 1 856.11,327.51A3.125,3.125 0 1 1 862.36,327.51Z" style="fill:none;stroke:#F15A60;stroke-width:0.625" />
<path d="M869.32,157.57A3.125,3.125 0 1 1 863.07,157.57A3.125,3.125 0 1 1 869.32,157.57Z" style="fill:none;stroke:#F15A60;stroke-width:0.625" />
<path d="M876.28,149.21A3.125,3.125 0 1 1 870.03,149.21A3.125,3.125 0 1 1 876.28,149.21Z" style="fill:none;stroke:#F15A60;stroke-width:0.625" />
<path d="M883.24,274.49L883.24,274.49A3.125,3.125 0 1 1 876.99,274.49A3.125,3.125 0 1 1 883.24,274.49Z" style="fill:none;stroke:#F15A60;stroke-width:0.625" />
<path d="M890.2,311.52L890.2,311.52A3.125,3.125 0 1 1 883.95,311.52A3.125,3.125 0 1 1 890.2,311.52Z" style="fill:none;stroke:#F15A60;stroke-width:0.625" />
<path d="M897.16,392.94L897.16,392.94A3.125,3.125 0 1 1 890.91,392.94A3.125,3.125 0 1 1 897.16,392.94Z" style="fill:none;stroke:#F15A60;stroke-width:0.625" />
<path d="M904.11,459.04L904.11,459.04A3.125,3.125 0 1 1 897.86,459.04A3.125,3.125 0 1 1 904.11,459.04Z" style="fill:none;stroke:#F15A60;stroke-width:0.625" />
<path d="M911.07,493.48A3.125,3.125 0 1 1 904.82,493.48A3.125,3.125 0 1 1 911.07,493.48Z" style="fill:none;stroke:#F15A60;stroke-width:0.625" />
<path d="M918.03,688.01A3.125,3.125 0 1 1 911.78,688.01A3.125,3.125 0 1 1 918.03,688.01Z" style="fill:none;stroke:#F15A60;stroke-width:0.625" />
<path d="M924.99,689.21L924.99,689.21A3.125,3.125 0 1 1 918.74,689.21A3.125,3.125 0 1 1 924.99,689.21Z" style="fill:none;stroke:#F15A60;stroke-width:0.625" />
<path d="M931.95,785.7A3.125,3.125 0 1 1 925.7,785.7A3.125,3.125 0 1 1 931.95,785.7Z" style="fill:none;stroke:#F15A60;stroke-width:0.625" />
<path d="M938.91,806.88L938.91,806.88A3.125,3.125 0 1 1 932.66,806.88A3.125,3.125 0 1 1 938.91,806.88Z" style="fill:none;stroke:#F15A60;stroke-width:0.625" />
<path d="M945.87,659.45L945.87,659.45A3.125,3.125 0 1 1 939.62,659.45A3.125,3.125 0 1 1 945.87,659.45Z" style="fill:none;stroke:#F15A60;stroke-width:0.625" />
<path d="M952.83,532.48A3.125,3.125 0 1 1 946.58,532.48A3.125,3.125 0 1 1 952.83,532.48Z" style="fill:none;stroke:#F15A60;stroke-width:0.625" />
<path d="M959.79,485.48A3.125,3.125 0 1 1 953.54,485.48A3.125,3.125 0 1 1 959.79,485.48Z" style="fill:none;stroke:#F15A60;stroke-width:0.625" />
<path d="M966.75,444.85A3.125,3.125 0 1 1 960.5,444.85A3.125,3.125 0 1 1 966.75,444.85Z" style="fill:none;stroke:#F15A60;stroke-width:0.625" />
<path d="M973.71,321.58A3.125,3.125 0 1 1 967.46,321.58A3.125,3.125 0 1 1 973.71,321.58Z" style="fill:none;stroke:#F15A60;stroke-width:0.625" />
<path d="M980.67,213.56A3.125,3.125 0 1 1 974.42,213.56A3.125,3.125 0 1 1 980.67,213.56Z" style="fill:none;stroke:#F15A60;stroke-width:0.625" />
<path d="M987.63,253.13L987.63,253.13A3.125,3.125 0 1 1 981.38,253.13A3.125,3.125 0 1 1 987.63,253.13Z" style="fill:none;stroke:#F15A60;stroke-width:0.625" />
<path d="M994.59,285.52A3.125,3.125 0 1 1 988.34,285.52A3.125,3.125 0 1 1 994.59,285.52Z" style="fill:none;stroke:#F15A60;stroke-width:0.625" />
<path d="M1001.5,275.83L1001.5,275.83A3.125,3.125 0 1 1 995.3,275.83A3.125,3.125 0 1 1 1001.5,275.83Z" style="fill:none;stroke:#F15A60;stroke-width:0.625" />
<path d="M1008.5,335.65L1008.5,335.65A3.125,3.125 0 1 1 1002.3,335.65A3.125,3.125 0 1 1 1008.5,335.65Z" style="fill:none;stroke:#F15A60;stroke-width:0.625" />
<path d="M1015.5,356.84A3.125,3.125 0 1 1 1009.2,356.84A3.125,3.125 0 1 1 1015.5,356.84Z" style="fill:none;stroke:#F15A60;stroke-width:0.625" />
<path d="M1022.4,343.82L1022.4,343.82A3.125,3.125 0 1 1 1016.2,343.82A3.125,3.125 0 1 1 1022.4,343.82Z" style="fill:none;stroke:#F15A60;stroke-width:0.625" />
<path d="M1029.4,390.06A3.125,3.125 0 1 1 1023.1,390.06A3.125,3.125 0 1 1 1029.4,390.06Z" style="fill:none;stroke:#F15A60;stroke-width:0.625" />
<path d="M1036.3,406.14L1036.3,406.14A3.125,3.125 0 1 1 1030.1,406.14A3.125,3.125 0 1 1 1036.3,406.14Z" style="fill:none;stroke:#F15A60;stroke-width:0.625" />
<path d="M1043.3,458.45A3.125,3.125 0 1 1 1037.1,458.45A3.125,3.125 0 1 1 1043.3,458.45Z" style="fill:none;stroke:#F15A60;stroke-width:0.625" />
<path d="M1050.3,332.35A3.125,3.125 0 1 1 1044,332.35A3.125,3.125 0 1 1 1050.3,332.35Z" style="fill:none;stroke:#F15A60;stroke-width:0.625" />
<path d="M1057.2,386.99L1057.2,386.99A3.125,3.125 0 1 1 1051,386.99A3.125,3.125 0 1 1 1057.2,386.99Z" style="fill:none;stroke:#F15A60;stroke-width:0.625" />
<path d="M1064.2,342.14A3.125,3.125 0 1 1 1057.9,342.14A3.125,3.125 0 1 1 1064.2,342.14Z" style="fill:none;stroke:#F15A60;stroke-width:0.625" />
<path d="M1071.1,325.77A3.125,3.125 0 1 1 1064.9,325.77A3.125,3.125 0 1 1 1071.1,325.77Z" style="fill:none;stroke:#F15A60;stroke-width:0.625" />
<path d="M1078.1,311.78A3.125,3.125 0 1 1 1071.9,311.78A3.125,3.125 0 1 1 1078.1,311.78Z" style="fill:none;stroke:#F15A60;stroke-width:0.625" />
<path d="M1085.1,490.38L1085.1,490.38A3.125,3.125 0 1 1 1078.8,490.38A3.125,3.125 0 1 1 1085.1,490.38Z" style="fill:none;stroke:#F15A60;stroke-width:0.625" />
<path d="M1092,496.4A3.125,3.125 0 1 1 1085.8,496.4A3.125,3.125 0 1 1 1092,496.4Z" style="fill:none;stroke:#F15A60;stroke-width:0.625" />
<path d="M1099,600.9A3.125,3.125 0 1 1 1092.7,600.9A3.125,3.125 0 1 1 1099,600.9Z" style="fill:none;stroke:#F15A60;stroke-width:0.625" />
<path d="M1105.9,607.21A3.125,3.125 0 1 1 1099.7,607.21A3.125,3.125 0 1 1 1105.9,607.21Z" style="fill:none;stroke:#F15A60;stroke-width:0.625" />
<path d="M1112.9,656.97L1112.9,656.97A3.125,3.125 0 1 1 1106.7,656.97A3.125,3.125 0 1 1 1112.9,656.97Z" style="fill:none;stroke:#F15A60;stroke-width:0.625" />
<path d="M1119.9,746.35A3.125,3.125 0 1 1 1113.6,746.35A3.125,3.125 0 1 1 1119.9,746.35Z" style="fill:none;stroke:#F15A60;stroke-width:0.625" />
<path d="M1126.8,701.47L1126.8,701.47A3.125,3.125 0 1 1 1120.6,701.47A3.125,3.125 0 1 1 1126.8,701.47Z" style="fill:none;stroke:#F15A60;stroke-width:0.625" />
<path d="M1133.8,663.67A3.125,3.125 0 1 1 1127.5,663.67A3.125,3.125 0 1 1 1133.8,663.67Z" style="fill:none;stroke:#F15A60;stroke-width:0.625" />
<path d="M1140.7,512.15L1140.7,512.15A3.125,3.125 0 1 1 1134.5,512.15A3.125,3.125 0 1 1 1140.7,512.15Z" style="fill:none;stroke:#F15A60;stroke-width:0.625" />
<path d="M1147.7,339.5A3.125,3.125 0 1 1 1141.4,339.5A3.125,3.125 0 1 1 1147.7,339.5Z" style="fill:none;stroke:#F15A60;stroke-width:0.625" />
<path d="M1154.7,340.22A3.125,3.125 0 1 1 1148.4,340.22A3.125,3.125 0 1 1 1154.7,340.22Z" style="fill:none;stroke:#F15A60;stroke-width:0.625" />
<path d="M1161.6,179.19L1161.6,179.19A3.125,3.125 0 1 1 1155.4,179.19A3.125,3.125 0 1 1 1161.6,179.19Z" style="fill:none;stroke:#F15A60;stroke-width:0.625" />
<path d="M1168.6,99.515A3.125,3.125 0 1 1 1162.3,99.515A3.125,3.125 0 1 1 1168.6,99.515Z" style="fill:none;stroke:#F15A60;stroke-width:0.625" />
<path d="M1175.5,158.77A3.125,3.125 0 1 1 1169.3,158.77A3.125,3.125 0 1 1 1175.5,158.77Z" style="fill:none;stroke:#F15A60;stroke-width:0.625" />
<path d="M1182.5,106.48L1182.5,106.48A3.125,3.125 0 1 1 1176.2,106.48A3.125,3.125 0 1 1 1182.5,106.48Z" style="fill:none;stroke:#F15A60;stroke-width:0.625" />
<path d="M1189.5,211.56A3.125,3.125 0 1 1 1183.2,211.56A3.125,3.125 0 1 1 1189.5,211.56Z" style="fill:none;stroke:#F15A60;stroke-width:0.625" />
<path d="M1196.4,256.88A3.125,3.125 0 1 1 1190.2,256.88A3.125,3.125 0 1 1 1196.4,256.88Z" style="fill:none;stroke:#F15A60;stroke-width:0.625" />
<path d="M1203.4,314.83A3.125,3.125 0 1 1 1197.1,314.83A3.125,3.125 0 1 1 1203.4,314.83Z" style="fill:none;stroke:#F15A60;stroke-width:0.625" />
<path d="M1210.3,429.56L1210.3,429.56A3.125,3.125 0 1 1 1204.1,429.56A3.125,3.125 0 1 1 1210.3,429.56Z" style="fill:none;stroke:#F15A60;stroke-width:0.625" />
<path d="M1217.3,512.29A3.125,3.125 0 1 1 1211,512.29A3.125,3.125 0 1 1 1217.3,512.29Z" style="fill:none;stroke:#F15A60;stroke-width:0.625" />
<path d="M1224.3,587.13A3.125,3.125 0 1 1 1218,587.13A3.125,3.125 0 1 1 1224.3,587.13Z" style="fill:none;stroke:#F15A60;stroke-width:0.625" />
<path d="M1231.2,500.2L1231.2,500.2A3.125,3.125 0 1 1 1225,500.2A3.125,3.125 0 1 1 1231.2,500.2Z" style="fill:none;stroke:#F15A60;stroke-width:0.625" />
<path d="M1238.2,540.31A3.125,3.125 0 1 1 1231.9,540.31A3.125,3.125 0 1 1 1238.2,540.31Z" style="fill:none;stroke:#F15A60;stroke-width:0.625" />
<path d="M1245.1,461.83A3.125,3.125 0 1 1 1238.9,461.83A3.125,3.125 0 1 1 1245.1,461.83Z" style="fill:none;stroke:#F15A60;stroke-width:0.625" />
<path d="M1252.1,531.53A3.125,3.125 0 1 1 1245.8,531.53A3.125,3.125 0 1 1 1252.1,531.53Z" style="fill:none;stroke:#F15A60;stroke-width:0.625" />
<path d="M1259.1,474.8A3.125,3.125 0 1 1 1252.8,474.8A3.125,3.125 0 1 1 1259.1,474.8Z" style="fill:none;stroke:#F15A60;stroke-width:0.625" />
<path d="M1266,481.63A3.125,3.125 0 1 1 1259.8,481.63A3.125,3.125 0 1 1 1266,481.63Z" style="fill:none;stroke:#F15A60;stroke-width:0.625" />
<path d="M1273,514.53A3.125,3.125 0 1 1 1266.7,514.53A3.125,3.125 0 1 1 1273,514.53Z" style="fill:none;stroke:#F15A60;stroke-width:0.625" />
<path d="M1279.9,506.3A3.125,3.125 0 1 1 1273.7,506.3A3.125,3.125 0 1 1 1279.9,506.3Z" style="fill:none;stroke:#F15A60;stroke-width:0.625" />
<path d="M1286.9,602.87L1286.9,602.87A3.125,3.125 0 1 1 1280.6,602.87A3.125,3.125 0 1 1 1286.9,602.87Z" style="fill:none;stroke:#F15A60;stroke-width:0.625" />
<path d="M1293.8,503.54L1293.8,503.54A3.125,3.125 0 1 1 1287.6,503.54A3.125,3.125 0 1 1 1293.8,503.54Z" style="fill:none;stroke:#F15A60;stroke-width:0.625" />
<path d="M1300.8,672.57A3.125,3.125 0 1 1 1294.6,672.57A3.125,3.125 0 1 1 1300.8,672.57Z" style="fill:none;stroke:#F15A60;stroke-width:0.625" />
<path d="M1307.8,566.39L1307.8,566.39A3.125,3.125 0 1 1 1301.5,566.39A3.125,3.125 0 1 1 1307.8,566.39Z" style="fill:none;stroke:#F15A60;stroke-width:0.625" />
<path d="M1314.7,523.92A3.125,3.125 0 1 1 1308.5,523.92A3.125,3.125 0 1 1 1314.7,523.92Z" style="fill:none;stroke:#F15A60;stroke-width:0.625" />
<path d="M1321.7,559.55L1321.7,559.55A3.125,3.125 0 1 1 1315.4,559.55A3.125,3.125 0 1 1 1321.7,559.55Z" style="fill:none;stroke:#F15A60;stroke-width:0.625" />
<path d="M1328.6,443.3A3.125,3.125 0 1 1 1322.4,443.3A3.125,3.125 0 1 1 1328.6,443.3Z" style="fill:none;stroke:#F15A60;stroke-width:0.625" />
<path d="M1335.6,270.05L1335.6,270.05A3.125,3.125 0 1 1 1329.4,270.05A3.125,3.125 0 1 1 1335.6,270.05Z" style="fill:none;stroke:#F15A60;stroke-width:0.625" />
<path d="M1342.6,188.32A3.125,3.125 0 1 1 1336.3,188.32A3.125,3.125 0 1 1 1342.6,188.32Z" style="fill:none;stroke:#F15A60;stroke-width:0.625" />
<path d="M1349.5,171.4L1349.5,171.4A3.125,3.125 0 1 1 1343.3,171.4A3.125,3.125 0 1 1 1349.5,171.4Z" style="fill:none;stroke:#F15A60;stroke-width:0.625" />
<path d="M1356.5,49.313L1356.5,49.313A3.125,3.125 0 1 1 1350.2,49.313A3.125,3.125 0 1 1 1356.5,49.313Z" style="fill:none;stroke:#F15A60;stroke-width:0.625" />
<path d="M1363.4,85.253L1363.4,85.253A3.125,3.125 0 1 1 1357.2,85.253A3.125,3.125 0 1 1 1363.4,85.253Z" style="fill:none;stroke:#F15A60;stroke-width:0.625" />
<path d="M1370.4,196.65A3.125,3.125 0 1 1 1364.2,196.65A3.125,3.125 0 1 1 1370.4,196.65Z" style="fill:none;stroke:#F15A60;stroke-width:0.625" />
<path d="M1377.4,319.41A3.125,3.125 0 1 1 1371.1,319.41A3.125,3.125 0 1 1 1377.4,319.41Z" style="fill:none;stroke:#F15A60;stroke-width:0.625" />
<path d="M1384.3,384.79A3.125,3.125 0 1 1 1378.1,384.79A3.125,3.125 0 1 1 1384.3,384.79Z" style="fill:none;stroke:#F15A60;stroke-width:0.625" />
<path d="M1391.3,527.17L1391.3,527.17A3.125,3.125 0 1 1 1385,527.17A3.125,3.125 0 1 1 1391.3,527.17Z" style="fill:none;stroke:#F15A60;stroke-width:0.625" />
<path d="M1398.2,543.45A3.125,3.125 0 1 1 1392,543.45A3.125,3.125 0 1 1 1398.2,543.45Z" style="fill:none;stroke:#F15A60;stroke-width:0.625" />
<path d="M1405.2,583.54L1405.2,583.54A3.125,3.125 0 1 1 1399,583.54A3.125,3.125 0 1 1 1405.2,583.54Z" style="fill:none;stroke:#F15A60;stroke-width:0.625" />
<path d="M1412.2,606.8A3.125,3.125 0 1 1 1405.9,606.8A3.125,3.125 0 1 1 1412.2,606.8Z" style="fill:none;stroke:#F15A60;stroke-width:0.625" />
<path d="M1419.1,612.2L1419.1,612.2A3.125,3.125 0 1 1 1412.9,612.2A3.125,3.125 0 1 1 1419.1,612.2Z" style="fill:none;stroke:#F15A60;stroke-width:0.625" />
<path d="M1426.1,559.72A3.125,3.125 0 1 1 1419.8,559.72A3.125,3.125 0 1 1 1426.1,559.72Z" style="fill:none;stroke:#F15A60;stroke-width:0.625" />
<path d="M1433,589.79L1433,589.79A3.125,3.125 0 1 1 1426.8,589.79A3.125,3.125 0 1 1 1433,589.79Z" style="fill:none;stroke:#F15A60;stroke-width:0.625" />
<path d="M1440,490.82A3.125,3.125 0 1 1 1433.8,490.82A3.125,3.125 0 1 1 1440,490.82Z" style="fill:none;stroke:#F15A60;stroke-width:0.625" />
<path d="M51.925,572.86L58.885,563.62L65.844,547.24L72.804,518.65L79.763,470.44L86.723,432.31L93.682,413.45L100.64,387.8L107.6,372.67L114.56,372.42L121.52,368.77L128.48,371.3L135.44,365.06L142.4,355.09L149.36,347.01L156.32,340.22L163.28,330.03L170.24,329.74L177.2,331.47L184.16,343.51L191.12,382.25L198.08,427.07L205.04,465.14L211.99,514.66L218.95,548.56L225.91,576.27L232.87,581.14L239.83,560.52L246.79,542.23L253.75,513.25L260.71,463.19L267.67,400.71L274.63,367.49L281.59,340.1L288.55,324.49L295.51,306.09L302.47,309.95L309.43,332.81L316.39,352.48L323.35,364.41L330.31,385.81L337.27,403.44L344.23,400.18L351.19,405.94L358.15,407L365.1,429.9L372.06,441.74L379.02,466.46L385.98,490.81L392.94,527.17L399.9,540.42L406.86,557.77L413.82,565.69L420.78,548.77L427.74,538.53L434.7,501.53L441.66,448.36L448.62,382.34L455.58,332.43L462.54,281.52L469.5,265.7L476.46,263.88L483.42,278.7L490.38,304.37L497.34,333.69L504.3,370.12L511.26,423.24L518.21,463.25L525.17,487.76L532.13,512.09L539.09,516.06L546.05,517.85L553.01,517.35L559.97,518.8L566.93,516.89L573.89,522.16L580.85,512.53L587.81,511.15L594.77,506.34L601.73,490.62L608.69,476.05L615.65,450.23L622.61,410.67L629.57,373.69L636.53,333.73L643.49,291.84L650.45,274.79L657.41,280.24L664.37,297.01L671.32,335.11L678.28,373.82L685.24,414.07L692.2,467.48L699.16,512.3L706.12,555.43L713.08,582.57L720.04,590.73L727,581.04L733.96,558.91L740.92,521.67L747.88,488.32L754.84,468.97L761.8,440.4L768.76,419.24L775.72,399.21L782.68,383.99L789.64,380.47L796.6,371.7L803.56,353.61L810.52,336.56L817.48,329.67L824.43,315.6L831.39,315.63L838.35,317.82L845.31,327.07L852.27,361.69L859.23,394.3L866.19,440.12L873.15,505.05L880.11,556.07L887.07,581.87L894.03,599.27L900.99,604.46L907.95,590.71L914.91,562.72L921.87,519.23L928.83,478.86L935.79,427.88L942.75,380.75L949.71,350.49L956.67,331.63L963.63,322.09L970.59,318.21L977.54,331.9L984.5,343.78L991.46,357.17L998.42,362.83L1005.4,367.82L1012.3,365.44L1019.3,378.79L1026.3,394.05L1033.2,415.13L1040.2,435.24L1047.1,455.09L1054.1,496.49L1061.1,527.94L1068,560.09L1075,578.73L1081.9,581.5L1088.9,566.48L1095.9,534.76L1102.8,484.63L1109.8,439.78L1116.7,384.73L1123.7,331.25L1130.7,286.79L1137.6,251.91L1144.6,243.65L1151.5,260.93L1158.5,285.62L1165.5,317.72L1172.4,361.8L1179.4,392.11L1186.3,434.61L1193.3,460.94L1200.3,483.41L1207.2,503.38L1214.2,511.05L1221.1,520.11L1228.1,511.75L1235,528.99L1242,531.6L1249,537.81L1255.9,540.61L1262.9,537.46L1269.8,516.3L1276.8,483.68L1283.8,450.19L1290.7,394.83L1297.7,353.01L1304.6,305.41L1311.6,280.71L1318.6,266.8L1325.5,263.56L1332.5,273.58L1339.4,304.93L1346.4,346.78L1353.4,390.86L1360.3,441.9L1367.3,492.35L1374.2,521.77L1381.2,544.25L1388.2,564.19L1395.1,569.47L1402.1,573.81L1409,571.86L1416,563.13L1423,546.77L1429.9,540.3L1436.9,490.82" style="fill:none;stroke:#7AC36A;stroke-width:1.25;stroke-dasharray:7.5,2.5" />
<path d="M49.258,570.19L54.592,570.19L54.592,575.53L49.258,575.53Z" style="fill:none;stroke:#7AC36A;stroke-width:0.625" />
<path d="M56.217,560.95L61.552,560.95L61.552,566.29L56.217,566.29Z" style="fill:none;stroke:#7AC36A;stroke-width:0.625" />
<path d="M63.177,544.57L68.511,544.57L68.511,549.91L63.177,549.91Z" style="fill:none;stroke:#7AC36A;stroke-width:0.625" />
<path d="M70.136,515.98L75.471,515.98L75.471,521.31L70.136,521.31Z" style="fill:none;stroke:#7AC36A;stroke-width:0.625" />
<path d="M77.096,467.77L82.431,467.77L82.431,473.11L77.096,473.11Z" style="fill:none;stroke:#7AC36A;stroke-width:0.625" />
<path d="M84.055,429.64L89.39,429.64L89.39,434.98L84.055,434.98Z" style="fill:none;stroke:#7AC36A;stroke-width:0.625" />
<path d="M91.015,410.79L96.35,410.79L96.35,416.12L91.015,416.12Z" style="fill:none;stroke:#7AC36A;stroke-width:0.625" />
<path d="M97.974,385.13L103.31,385.13L103.31,390.47L97.974,390.47Z" style="fill:none;stroke:#7AC36A;stroke-width:0.625" />
<path d="M104.93,370L110.27,370L110.27,375.34L104.93,375.34Z" style="fill:none;stroke:#7AC36A;stroke-width:0.625" />
<path d="M111.89,369.75L117.23,369.75L117.23,375.09L111.89,375.09Z" style="fill:none;stroke:#7AC36A;stroke-width:0.625" />
<path d="M118.85,366.1L124.19,366.1L124.19,371.44L118.85,371.44Z" style="fill:none;stroke:#7AC36A;stroke-width:0.625" />
<path d="M125.81,368.63L131.15,368.63L131.15,373.97L125.81,373.97Z" style="fill:none;stroke:#7AC36A;stroke-width:0.625" />
<path d="M132.77,362.39L138.11,362.39L138.11,367.73L132.77,367.73Z" style="fill:none;stroke:#7AC36A;stroke-width:0.625" />
<path d="M139.73,352.42L145.07,352.42L145.07,357.76L139.73,357.76Z" style="fill:none;stroke:#7AC36A;stroke-width:0.625" />
<path d="M146.69,344.34L152.03,344.34L152.03,349.67L146.69,349.67Z" style="fill:none;stroke:#7AC36A;stroke-width:0.625" />
<path d="M153.65,337.55L158.99,337.55L158.99,342.89L153.65,342.89Z" style="fill:none;stroke:#7AC36A;stroke-width:0.625" />
<path d="M160.61,327.36L165.95,327.36L165.95,332.7L160.61,332.7Z" style="fill:none;stroke:#7AC36A;stroke-width:0.625" />
<path d="M167.57,327.08L172.9,327.08L172.9,332.41L167.57,332.41Z" style="fill:none;stroke:#7AC36A;stroke-width:0.625" />
<path d="M174.53,328.81L179.86,328.81L179.86,334.14L174.53,334.14Z" style="fill:none;stroke:#7AC36A;stroke-width:0.625" />
<path d="M181.49,340.85L186.82,340.85L186.82,346.18L181.49,346.18Z" style="fill:none;stroke:#7AC36A;stroke-width:0.625" />
<path d="M188.45,379.58L193.78,379.58L193.78,384.92L188.45,384.92Z" style="fill:none;stroke:#7AC36A;stroke-width:0.625" />
<path d="M195.41,424.4L200.74,424.4L200.74,429.74L195.41,429.74Z" style="fill:none;stroke:#7AC36A;stroke-width:0.625" />
<path d="M202.37,462.47L207.7,462.47L207.7,467.81L202.37,467.81Z" style="fill:none;stroke:#7AC36A;stroke-width:0.625" />
<path d="M209.33,511.99L214.66,511.99L214.66,517.32L209.33,517.32Z" style="fill:none;stroke:#7AC36A;stroke-width:0.625" />
<path d="M216.29,545.9L221.62,545.9L221.62,551.23L216.29,551.23Z" style="fill:none;stroke:#7AC36A;stroke-width:0.625" />
<path d="M223.25,573.6L228.58,573.6L228.58,578.94L223.25,578.94Z" style="fill:none;stroke:#7AC36A;stroke-width:0.625" />
<path d="M230.21,578.48L235.54,578.48L235.54,583.81L230.21,583.81Z" style="fill:none;stroke:#7AC36A;stroke-width:0.625" />
<path d="M237.17,557.86L242.5,557.86L242.5,563.19L237.17,563.19Z" style="fill:none;stroke:#7AC36A;stroke-width:0.625" />
<path d="M244.12,539.57L249.46,539.57L249.46,544.9L244.12,544.9Z" style="fill:none;stroke:#7AC36A;stroke-width:0.625" />
<path d="M251.08,510.58L256.42,510.58L256.42,515.91L251.08,515.91Z" style="fill:none;stroke:#7AC36A;stroke-width:0.625" />
<path d="M258.04,460.52L263.38,460.52L263.38,465.86L258.04,465.86Z" style="fill:none;stroke:#7AC36A;stroke-width:0.625" />
<path d="M265,398.04L270.34,398.04L270.34,403.38L265,403.38Z" style="fill:none;stroke:#7AC36A;stroke-width:0.625" />
<path d="M271.96,364.82L277.3,364.82L277.3,370.15L271.96,370.15Z" style="fill:none;stroke:#7AC36A;stroke-width:0.625" />
<path d="M278.92,337.43L284.26,337.43L284.26,342.77L278.92,342.77Z" style="fill:none;stroke:#7AC36A;stroke-width:0.625" />
<path d="M285.88,321.82L291.22,321.82L291.22,327.16L285.88,327.16Z" style="fill:none;stroke:#7AC36A;stroke-width:0.625" />
<path d="M292.84,303.42L298.18,303.42L298.18,308.76L292.84,308.76Z" style="fill:none;stroke:#7AC36A;stroke-width:0.625" />
<path d="M299.8,307.28L305.14,307.28L305.14,312.62L299.8,312.62Z" style="fill:none;stroke:#7AC36A;stroke-width:0.625" />
<path d="M306.76,330.14L312.1,330.14L312.1,335.47L306.76,335.47Z" style="fill:none;stroke:#7AC36A;stroke-width:0.625" />
<path d="M313.72,349.81L319.06,349.81L319.06,355.15L313.72,355.15Z" style="fill:none;stroke:#7AC36A;stroke-width:0.625" />
<path d="M320.68,361.74L326.01,361.74L326.01,367.07L320.68,367.07Z" style="fill:none;stroke:#7AC36A;stroke-width:0.625" />
<path d="M327.64,383.14L332.97,383.14L332.97,388.48L327.64,388.48Z" style="fill:none;stroke:#7AC36A;stroke-width:0.625" />
<path d="M334.6,400.77L339.93,400.77L339.93,406.1L334.6,406.1Z" style="fill:none;stroke:#7AC36A;stroke-width:0.625" />
<path d="M341.56,397.51L346.89,397.51L346.89,402.85L341.56,402.85Z" style="fill:none;stroke:#7AC36A;stroke-width:0.625" />
<path d="M348.52,403.27L353.85,403.27L353.85,408.61L348.52,408.61Z" style="fill:none;stroke:#7AC36A;stroke-width:0.625" />
<path d="M355.48,404.33L360.81,404.33L360.81,409.66L355.48,409.66Z" style="fill:none;stroke:#7AC36A;stroke-width:0.625" />
<path d="M362.44,427.24L367.77,427.24L367.77,432.57L362.44,432.57Z" style="fill:none;stroke:#7AC36A;stroke-width:0.625" />
<path d="M369.4,439.07L374.73,439.07L374.73,444.41L369.4,444.41Z" style="fill:none;stroke:#7AC36A;stroke-width:0.625" />
<path d="M376.36,463.79L381.69,463.79L381.69,469.13L376.36,469.13Z" style="fill:none;stroke:#7AC36A;stroke-width:0.625" />
<path d="M383.32,488.14L388.65,488.14L388.65,493.48L383.32,493.48Z" style="fill:none;stroke:#7AC36A;stroke-width:0.625" />
<path d="M390.28,524.51L395.61,524.51L395.61,529.84L390.28,529.84Z" style="fill:none;stroke:#7AC36A;stroke-width:0.625" />
<path d="M397.24,537.75L402.57,537.75L402.57,543.09L397.24,543.09Z" style="fill:none;stroke:#7AC36A;stroke-width:0.625" />
<path d="M404.19,555.1L409.53,555.1L409.53,560.43L404.19,560.43Z" style="fill:none;stroke:#7AC36A;stroke-width:0.625" />
<path d="M411.15,563.02L416.49,563.02L416.49,568.36L411.15,568.36Z" style="fill:none;stroke:#7AC36A;stroke-width:0.625" />
<path d="M418.11,546.1L423.45,546.1L423.45,551.43L418.11,551.43Z" style="fill:none;stroke:#7AC36A;stroke-width:0.625" />
<path d="M425.07,535.86L430.41,535.86L430.41,541.19L425.07,541.19Z" style="fill:none;stroke:#7AC36A;stroke-width:0.625" />
<path d="M432.03,498.87L437.37,498.87L437.37,504.2L432.03,504.2Z" style="fill:none;stroke:#7AC36A;stroke-width:0.625" />
<path d="M438.99,445.69L444.33,445.69L444.33,451.03L438.99,451.03Z" style="fill:none;stroke:#7AC36A;stroke-width:0.625" />
<path d="M445.95,379.67L451.29,379.67L451.29,385.01L445.95,385.01Z" style="fill:none;stroke:#7AC36A;stroke-width:0.625" />
<path d="M452.91,329.77L458.25,329.77L458.25,335.1L452.91,335.1Z" style="fill:none;stroke:#7AC36A;stroke-width:0.625" />
<path d="M459.87,278.85L465.21,278.85L465.21,284.19L459.87,284.19Z" style="fill:none;stroke:#7AC36A;stroke-width:0.625" />
<path d="M466.83,263.04L472.17,263.04L472.17,268.37L466.83,268.37Z" style="fill:none;stroke:#7AC36A;stroke-width:0.625" />
<path d="M473.79,261.21L479.12,261.21L479.12,266.54L473.79,266.54Z" style="fill:none;stroke:#7AC36A;stroke-width:0.625" />
<path d="M480.75,276.03L486.08,276.03L486.08,281.37L480.75,281.37Z" style="fill:none;stroke:#7AC36A;stroke-width:0.625" />
<path d="M487.71,301.71L493.04,301.71L493.04,307.04L487.71,307.04Z" style="fill:none;stroke:#7AC36A;stroke-width:0.625" />
<path d="M494.67,331.02L500,331.02L500,336.36L494.67,336.36Z" style="fill:none;stroke:#7AC36A;stroke-width:0.625" />
<path d="M501.63,367.46L506.96,367.46L506.96,372.79L501.63,372.79Z" style="fill:none;stroke:#7AC36A;stroke-width:0.625" />
<path d="M508.59,420.58L513.92,420.58L513.92,425.91L508.59,425.91Z" style="fill:none;stroke:#7AC36A;stroke-width:0.625" />
<path d="M515.55,460.58L520.88,460.58L520.88,465.92L515.55,465.92Z" style="fill:none;stroke:#7AC36A;stroke-width:0.625" />
<path d="M522.51,485.09L527.84,485.09L527.84,490.43L522.51,490.43Z" style="fill:none;stroke:#7AC36A;stroke-width:0.625" />
<path d="M529.47,509.42L534.8,509.42L534.8,514.76L529.47,514.76Z" style="fill:none;stroke:#7AC36A;stroke-width:0.625" />
<path d="M536.43,513.39L541.76,513.39L541.76,518.73L536.43,518.73Z" style="fill:none;stroke:#7AC36A;stroke-width:0.625" />
<path d="M543.39,515.18L548.72,515.18L548.72,520.52L543.39,520.52Z" style="fill:none;stroke:#7AC36A;stroke-width:0.625" />
<path d="M550.35,514.68L555.68,514.68L555.68,520.02L550.35,520.02Z" style="fill:none;stroke:#7AC36A;stroke-width:0.625" />
<path d="M557.3,516.14L562.64,516.14L562.64,521.47L557.3,521.47Z" style="fill:none;stroke:#7AC36A;stroke-width:0.625" />
<path d="M564.26,514.22L569.6,514.22L569.6,519.56L564.26,519.56Z" style="fill:none;stroke:#7AC36A;stroke-width:0.625" />
<path d="M571.22,519.49L576.56,519.49L576.56,524.82L571.22,524.82Z" style="fill:none;stroke:#7AC36A;stroke-width:0.625" />
<path d="M578.18,509.86L583.52,509.86L583.52,515.2L578.18,515.2Z" style="fill:none;stroke:#7AC36A;stroke-width:0.625" />
<path d="M585.14,508.49L590.48,508.49L590.48,513.82L585.14,513.82Z" style="fill:none;stroke:#7AC36A;stroke-width:0.625" />
<path d="M592.1,503.67L597.44,503.67L597.44,509.01L592.1,509.01Z" style="fill:none;stroke:#7AC36A;stroke-width:0.625" />
<path d="M599.06,487.96L604.4,487.96L604.4,493.29L599.06,493.29Z" style="fill:none;stroke:#7AC36A;stroke-width:0.625" />
<path d="M606.02,473.38L611.36,473.38L611.36,478.72L606.02,478.72Z" style="fill:none;stroke:#7AC36A;stroke-width:0.625" />
<path d="M612.98,447.56L618.32,447.56L618.32,452.9L612.98,452.9Z" style="fill:none;stroke:#7AC36A;stroke-width:0.625" />
<path d="M619.94,408L625.28,408L625.28,413.34L619.94,413.34Z" style="fill:none;stroke:#7AC36A;stroke-width:0.625" />
<path d="M626.9,371.02L632.23,371.02L632.23,376.36L626.9,376.36Z" style="fill:none;stroke:#7AC36A;stroke-width:0.625" />
<path d="M633.86,331.06L639.19,331.06L639.19,336.39L633.86,336.39Z" style="fill:none;stroke:#7AC36A;stroke-width:0.625" />
<path d="M640.82,289.18L646.15,289.18L646.15,294.51L640.82,294.51Z" style="fill:none;stroke:#7AC36A;stroke-width:0.625" />
<path d="M647.78,272.12L653.11,272.12L653.11,277.45L647.78,277.45Z" style="fill:none;stroke:#7AC36A;stroke-width:0.625" />
<path d="M654.74,277.57L660.07,277.57L660.07,282.9L654.74,282.9Z" style="fill:none;stroke:#7AC36A;stroke-width:0.625" />
<path d="M661.7,294.35L667.03,294.35L667.03,299.68L661.7,299.68Z" style="fill:none;stroke:#7AC36A;stroke-width:0.625" />
<path d="M668.66,332.44L673.99,332.44L673.99,337.78L668.66,337.78Z" style="fill:none;stroke:#7AC36A;stroke-width:0.625" />
<path d="M675.62,371.15L680.95,371.15L680.95,376.49L675.62,376.49Z" style="fill:none;stroke:#7AC36A;stroke-width:0.625" />
<path d="M682.58,411.4L687.91,411.4L687.91,416.73L682.58,416.73Z" style="fill:none;stroke:#7AC36A;stroke-width:0.625" />
<path d="M689.54,464.81L694.87,464.81L694.87,470.15L689.54,470.15Z" style="fill:none;stroke:#7AC36A;stroke-width:0.625" />
<path d="M696.5,509.64L701.83,509.64L701.83,514.97L696.5,514.97Z" style="fill:none;stroke:#7AC36A;stroke-width:0.625" />
<path d="M703.46,552.76L708.79,552.76L708.79,558.1L703.46,558.1Z" style="fill:none;stroke:#7AC36A;stroke-width:0.625" />
<path d="M710.41,579.9L715.75,579.9L715.75,585.24L710.41,585.24Z" style="fill:none;stroke:#7AC36A;stroke-width:0.625" />
<path d="M717.37,588.06L722.71,588.06L722.71,593.39L717.37,593.39Z" style="fill:none;stroke:#7AC36A;stroke-width:0.625" />
<path d="M724.33,578.38L729.67,578.38L729.67,583.71L724.33,583.71Z" style="fill:none;stroke:#7AC36A;stroke-width:0.625" />
<path d="M731.29,556.24L736.63,556.24L736.63,561.57L731.29,561.57Z" style="fill:none;stroke:#7AC36A;stroke-width:0.625" />
<path d="M738.25,519.01L743.59,519.01L743.59,524.34L738.25,524.34Z" style="fill:none;stroke:#7AC36A;stroke-width:0.625" />
<path d="M745.21,485.65L750.55,485.65L750.55,490.99L745.21,490.99Z" style="fill:none;stroke:#7AC36A;stroke-width:0.625" />
<path d="M752.17,466.3L757.51,466.3L757.51,471.63L752.17,471.63Z" style="fill:none;stroke:#7AC36A;stroke-width:0.625" />
<path d="M759.13,437.73L764.47,437.73L764.47,443.07L759.13,443.07Z" style="fill:none;stroke:#7AC36A;stroke-width:0.625" />
<path d="M766.09,416.57L771.43,416.57L771.43,421.9L766.09,421.9Z" style="fill:none;stroke:#7AC36A;stroke-width:0.625" />
<path d="M773.05,396.54L778.39,396.54L778.39,401.88L773.05,401.88Z" style="fill:none;stroke:#7AC36A;stroke-width:0.625" />
<path d="M780.01,381.33L785.34,381.33L785.34,386.66L780.01,386.66Z" style="fill:none;stroke:#7AC36A;stroke-width:0.625" />
<path d="M786.97,377.8L792.3,377.8L792.3,383.14L786.97,383.14Z" style="fill:none;stroke:#7AC36A;stroke-width:0.625" />
<path d="M793.93,369.03L799.26,369.03L799.26,374.37L793.93,374.37Z" style="fill:none;stroke:#7AC36A;stroke-width:0.625" />
<path d="M800.89,350.95L806.22,350.95L806.22,356.28L800.89,356.28Z" style="fill:none;stroke:#7AC36A;stroke-width:0.625" />
<path d="M807.85,333.89L813.18,333.89L813.18,339.22L807.85,339.22Z" style="fill:none;stroke:#7AC36A;stroke-width:0.625" />
<path d="M814.81,327.01L820.14,327.01L820.14,332.34L814.81,332.34Z" style="fill:none;stroke:#7AC36A;stroke-width:0.625" />
<path d="M821.77,312.93L827.1,312.93L827.1,318.26L821.77,318.26Z" style="fill:none;stroke:#7AC36A;stroke-width:0.625" />
<path d="M828.73,312.96L834.06,312.96L834.06,318.29L828.73,318.29Z" style="fill:none;stroke:#7AC36A;stroke-width:0.625" />
<path d="M835.69,315.15L841.02,315.15L841.02,320.49L835.69,320.49Z" style="fill:none;stroke:#7AC36A;stroke-width:0.625" />
<path d="M842.65,324.4L847.98,324.4L847.98,329.73L842.65,329.73Z" style="fill:none;stroke:#7AC36A;stroke-width:0.625" />
<path d="M849.61,359.02L854.94,359.02L854.94,364.36L849.61,364.36Z" style="fill:none;stroke:#7AC36A;stroke-width:0.625" />
<path d="M856.57,391.63L861.9,391.63L861.9,396.97L856.57,396.97Z" style="fill:none;stroke:#7AC36A;stroke-width:0.625" />
<path d="M863.52,437.45L868.86,437.45L868.86,442.79L863.52,442.79Z" style="fill:none;stroke:#7AC36A;stroke-width:0.625" />
<path d="M870.48,502.38L875.82,502.38L875.82,507.72L870.48,507.72Z" style="fill:none;stroke:#7AC36A;stroke-width:0.625" />
<path d="M877.44,553.41L882.78,553.41L882.78,558.74L877.44,558.74Z" style="fill:none;stroke:#7AC36A;stroke-width:0.625" />
<path d="M884.4,579.2L889.74,579.2L889.74,584.54L884.4,584.54Z" style="fill:none;stroke:#7AC36A;stroke-width:0.625" />
<path d="M891.36,596.6L896.7,596.6L896.7,601.93L891.36,601.93Z" style="fill:none;stroke:#7AC36A;stroke-width:0.625" />
<path d="M898.32,601.79L903.66,601.79L903.66,607.13L898.32,607.13Z" style="fill:none;stroke:#7AC36A;stroke-width:0.625" />
<path d="M905.28,588.05L910.62,588.05L910.62,593.38L905.28,593.38Z" style="fill:none;stroke:#7AC36A;stroke-width:0.625" />
<path d="M912.24,560.05L917.58,560.05L917.58,565.39L912.24,565.39Z" style="fill:none;stroke:#7AC36A;stroke-width:0.625" />
<path d="M919.2,516.57L924.54,516.57L924.54,521.9L919.2,521.9Z" style="fill:none;stroke:#7AC36A;stroke-width:0.625" />
<path d="M926.16,476.2L931.5,476.2L931.5,481.53L926.16,481.53Z" style="fill:none;stroke:#7AC36A;stroke-width:0.625" />
<path d="M933.12,425.21L938.45,425.21L938.45,430.54L933.12,430.54Z" style="fill:none;stroke:#7AC36A;stroke-width:0.625" />
<path d="M940.08,378.09L945.41,378.09L945.41,383.42L940.08,383.42Z" style="fill:none;stroke:#7AC36A;stroke-width:0.625" />
<path d="M947.04,347.83L952.37,347.83L952.37,353.16L947.04,353.16Z" style="fill:none;stroke:#7AC36A;stroke-width:0.625" />
<path d="M954,328.96L959.33,328.96L959.33,334.3L954,334.3Z" style="fill:none;stroke:#7AC36A;stroke-width:0.625" />
<path d="M960.96,319.42L966.29,319.42L966.29,324.75L960.96,324.75Z" style="fill:none;stroke:#7AC36A;stroke-width:0.625" />
<path d="M967.92,315.55L973.25,315.55L973.25,320.88L967.92,320.88Z" style="fill:none;stroke:#7AC36A;stroke-width:0.625" />
<path d="M974.88,329.23L980.21,329.23L980.21,334.57L974.88,334.57Z" style="fill:none;stroke:#7AC36A;stroke-width:0.625" />
<path d="M981.84,341.11L987.17,341.11L987.17,346.45L981.84,346.45Z" style="fill:none;stroke:#7AC36A;stroke-width:0.625" />
<path d="M988.8,354.5L994.13,354.5L994.13,359.83L988.8,359.83Z" style="fill:none;stroke:#7AC36A;stroke-width:0.625" />
<path d="M995.76,360.16L1001.1,360.16L1001.1,365.5L995.76,365.5Z" style="fill:none;stroke:#7AC36A;stroke-width:0.625" />
<path d="M1002.7,365.16L1008.1,365.16L1008.1,370.49L1002.7,370.49Z" style="fill:none;stroke:#7AC36A;stroke-width:0.625" />
<path d="M1009.7,362.77L1015,362.77L1015,368.1L1009.7,368.1Z" style="fill:none;stroke:#7AC36A;stroke-width:0.625" />
<path d="M1016.6,376.12L1022,376.12L1022,381.46L1016.6,381.46Z" style="fill:none;stroke:#7AC36A;stroke-width:0.625" />
<path d="M1023.6,391.38L1028.9,391.38L1028.9,396.71L1023.6,396.71Z" style="fill:none;stroke:#7AC36A;stroke-width:0.625" />
<path d="M1030.6,412.46L1035.9,412.46L1035.9,417.8L1030.6,417.8Z" style="fill:none;stroke:#7AC36A;stroke-width:0.625" />
<path d="M1037.5,432.57L1042.8,432.57L1042.8,437.9L1037.5,437.9Z" style="fill:none;stroke:#7AC36A;stroke-width:0.625" />
<path d="M1044.5,452.42L1049.8,452.42L1049.8,457.76L1044.5,457.76Z" style="fill:none;stroke:#7AC36A;stroke-width:0.625" />
<path d="M1051.4,493.82L1056.8,493.82L1056.8,499.16L1051.4,499.16Z" style="fill:none;stroke:#7AC36A;stroke-width:0.625" />
<path d="M1058.4,525.27L1063.7,525.27L1063.7,530.6L1058.4,530.6Z" style="fill:none;stroke:#7AC36A;stroke-width:0.625" />
<path d="M1065.4,557.42L1070.7,557.42L1070.7,562.76L1065.4,562.76Z" style="fill:none;stroke:#7AC36A;stroke-width:0.625" />
<path d="M1072.3,576.06L1077.6,576.06L1077.6,581.39L1072.3,581.39Z" style="fill:none;stroke:#7AC36A;stroke-width:0.625" />
<path d="M1079.3,578.83L1084.6,578.83L1084.6,584.17L1079.3,584.17Z" style="fill:none;stroke:#7AC36A;stroke-width:0.625" />
<path d="M1086.2,563.82L1091.6,563.82L1091.6,569.15L1086.2,569.15Z" style="fill:none;stroke:#7AC36A;stroke-width:0.625" />
<path d="M1093.2,532.1L1098.5,532.1L1098.5,537.43L1093.2,537.43Z" style="fill:none;stroke:#7AC36A;stroke-width:0.625" />
<path d="M1100.1,481.96L1105.5,481.96L1105.5,487.29L1100.1,487.29Z" style="fill:none;stroke:#7AC36A;stroke-width:0.625" />
<path d="M1107.1,437.11L1112.4,437.11L1112.4,442.45L1107.1,442.45Z" style="fill:none;stroke:#7AC36A;stroke-width:0.625" />
<path d="M1114.1,382.07L1119.4,382.07L1119.4,387.4L1114.1,387.4Z" style="fill:none;stroke:#7AC36A;stroke-width:0.625" />
<path d="M1121,328.59L1126.4,328.59L1126.4,333.92L1121,333.92Z" style="fill:none;stroke:#7AC36A;stroke-width:0.625" />
<path d="M1128,284.13L1133.3,284.13L1133.3,289.46L1128,289.46Z" style="fill:none;stroke:#7AC36A;stroke-width:0.625" />
<path d="M1134.9,249.24L1140.3,249.24L1140.3,254.58L1134.9,254.58Z" style="fill:none;stroke:#7AC36A;stroke-width:0.625" />
<path d="M1141.9,240.98L1147.2,240.98L1147.2,246.32L1141.9,246.32Z" style="fill:none;stroke:#7AC36A;stroke-width:0.625" />
<path d="M1148.9,258.26L1154.2,258.26L1154.2,263.6L1148.9,263.6Z" style="fill:none;stroke:#7AC36A;stroke-width:0.625" />
<path d="M1155.8,282.95L1161.2,282.95L1161.2,288.29L1155.8,288.29Z" style="fill:none;stroke:#7AC36A;stroke-width:0.625" />
<path d="M1162.8,315.05L1168.1,315.05L1168.1,320.39L1162.8,320.39Z" style="fill:none;stroke:#7AC36A;stroke-width:0.625" />
<path d="M1169.7,359.13L1175.1,359.13L1175.1,364.47L1169.7,364.47Z" style="fill:none;stroke:#7AC36A;stroke-width:0.625" />
<path d="M1176.7,389.44L1182,389.44L1182,394.77L1176.7,394.77Z" style="fill:none;stroke:#7AC36A;stroke-width:0.625" />
<path d="M1183.7,431.94L1189,431.94L1189,437.28L1183.7,437.28Z" style="fill:none;stroke:#7AC36A;stroke-width:0.625" />
<path d="M1190.6,458.27L1196,458.27L1196,463.6L1190.6,463.6Z" style="fill:none;stroke:#7AC36A;stroke-width:0.625" />
<path d="M1197.6,480.74L1202.9,480.74L1202.9,486.08L1197.6,486.08Z" style="fill:none;stroke:#7AC36A;stroke-width:0.625" />
<path d="M1204.5,500.71L1209.9,500.71L1209.9,506.05L1204.5,506.05Z" style="fill:none;stroke:#7AC36A;stroke-width:0.625" />
<path d="M1211.5,508.39L1216.8,508.39L1216.8,513.72L1211.5,513.72Z" style="fill:none;stroke:#7AC36A;stroke-width:0.625" />
<path d="M1218.5,517.45L1223.8,517.45L1223.8,522.78L1218.5,522.78Z" style="fill:none;stroke:#7AC36A;stroke-width:0.625" />
<path d="M1225.4,509.09L1230.8,509.09L1230.8,514.42L1225.4,514.42Z" style="fill:none;stroke:#7AC36A;stroke-width:0.625" />
<path d="M1232.4,526.32L1237.7,526.32L1237.7,531.66L1232.4,531.66Z" style="fill:none;stroke:#7AC36A;stroke-width:0.625" />
<path d="M1239.3,528.93L1244.7,528.93L1244.7,534.27L1239.3,534.27Z" style="fill:none;stroke:#7AC36A;stroke-width:0.625" />
<path d="M1246.3,535.14L1251.6,535.14L1251.6,540.48L1246.3,540.48Z" style="fill:none;stroke:#7AC36A;stroke-width:0.625" />
<path d="M1253.3,537.94L1258.6,537.94L1258.6,543.28L1253.3,543.28Z" style="fill:none;stroke:#7AC36A;stroke-width:0.625" />
<path d="M1260.2,534.79L1265.6,534.79L1265.6,540.13L1260.2,540.13Z" style="fill:none;stroke:#7AC36A;stroke-width:0.625" />
<path d="M1267.2,513.63L1272.5,513.63L1272.5,518.97L1267.2,518.97Z" style="fill:none;stroke:#7AC36A;stroke-width:0.625" />
<path d="M1274.1,481.01L1279.5,481.01L1279.5,486.35L1274.1,486.35Z" style="fill:none;stroke:#7AC36A;stroke-width:0.625" />
<path d="M1281.1,447.52L1286.4,447.52L1286.4,452.86L1281.1,452.86Z" style="fill:none;stroke:#7AC36A;stroke-width:0.625" />
<path d="M1288.1,392.17L1293.4,392.17L1293.4,397.5L1288.1,397.5Z" style="fill:none;stroke:#7AC36A;stroke-width:0.625" />
<path d="M1295,350.34L1300.4,350.34L1300.4,355.67L1295,355.67Z" style="fill:none;stroke:#7AC36A;stroke-width:0.625" />
<path d="M1302,302.75L1307.3,302.75L1307.3,308.08L1302,308.08Z" style="fill:none;stroke:#7AC36A;stroke-width:0.625" />
<path d="M1308.9,278.05L1314.3,278.05L1314.3,283.38L1308.9,283.38Z" style="fill:none;stroke:#7AC36A;stroke-width:0.625" />
<path d="M1315.9,264.13L1321.2,264.13L1321.2,269.47L1315.9,269.47Z" style="fill:none;stroke:#7AC36A;stroke-width:0.625" />
<path d="M1322.9,260.9L1328.2,260.9L1328.2,266.23L1322.9,266.23Z" style="fill:none;stroke:#7AC36A;stroke-width:0.625" />
<path d="M1329.8,270.91L1335.1,270.91L1335.1,276.25L1329.8,276.25Z" style="fill:none;stroke:#7AC36A;stroke-width:0.625" />
<path d="M1336.8,302.26L1342.1,302.26L1342.1,307.6L1336.8,307.6Z" style="fill:none;stroke:#7AC36A;stroke-width:0.625" />
<path d="M1343.7,344.11L1349.1,344.11L1349.1,349.44L1343.7,349.44Z" style="fill:none;stroke:#7AC36A;stroke-width:0.625" />
<path d="M1350.7,388.19L1356,388.19L1356,393.52L1350.7,393.52Z" style="fill:none;stroke:#7AC36A;stroke-width:0.625" />
<path d="M1357.7,439.23L1363,439.23L1363,444.57L1357.7,444.57Z" style="fill:none;stroke:#7AC36A;stroke-width:0.625" />
<path d="M1364.6,489.68L1369.9,489.68L1369.9,495.02L1364.6,495.02Z" style="fill:none;stroke:#7AC36A;stroke-width:0.625" />
<path d="M1371.6,519.1L1376.9,519.1L1376.9,524.44L1371.6,524.44Z" style="fill:none;stroke:#7AC36A;stroke-width:0.625" />
<path d="M1378.5,541.59L1383.9,541.59L1383.9,546.92L1378.5,546.92Z" style="fill:none;stroke:#7AC36A;stroke-width:0.625" />
<path d="M1385.5,561.52L1390.8,561.52L1390.8,566.85L1385.5,566.85Z" style="fill:none;stroke:#7AC36A;stroke-width:0.625" />
<path d="M1392.5,566.81L1397.8,566.81L1397.8,572.14L1392.5,572.14Z" style="fill:none;stroke:#7AC36A;stroke-width:0.625" />
<path d="M1399.4,571.14L1404.7,571.14L1404.7,576.48L1399.4,576.48Z" style="fill:none;stroke:#7AC36A;stroke-width:0.625" />
<path d="M1406.4,569.2L1411.7,569.2L1411.7,574.53L1406.4,574.53Z" style="fill:none;stroke:#7AC36A;stroke-width:0.625" />
<path d="M1413.3,560.46L1418.7,560.46L1418.7,565.8L1413.3,565.8Z" style="fill:none;stroke:#7AC36A;stroke-width:0.625" />
<path d="M1420.3,544.11L1425.6,544.11L1425.6,549.44L1420.3,549.44Z" style="fill:none;stroke:#7AC36A;stroke-width:0.625" />
<path d="M1427.2,537.64L1432.6,537.64L1432.6,542.97L1427.2,542.97Z" style="fill:none;stroke:#7AC36A;stroke-width:0.625" />
<path d="M1434.2,488.15L1439.5,488.15L1439.5,493.49L1434.2,493.49Z" style="fill:none;stroke:#7AC36A;stroke-width:0.625" />
<path d="M1415,66.978L1440,66.978" style="fill:none;stroke:#F15A60;stroke-width:1.25" />
<path d="M1430.6,66.978A3.125,3.125 0 1 1 1424.4,66.978A3.125,3.125 0 1 1 1430.6,66.978Z" style="fill:none;stroke:#F15A60;stroke-width:0.625" />
<text x="1388.8" y="-61.188" transform="scale(1, -1)"
	style="font-family:Times;font-weight:normal;font-style:normal;font-size:12pt">raw</text>
<path d="M1415,53.117L1440,53.117" style="fill:none;stroke:#7AC36A;stroke-width:1.25;stroke-dasharray:7.5,2.5" />
<path d="M1424.8,50.45L1430.2,50.45L1430.2,55.785L1424.8,55.785Z" style="fill:none;stroke:#7AC36A;stroke-width:0.625" />
<text x="1367.1" y="-47.328" transform="scale(1, -1)"
	style="font-family:Times;font-weight:normal;font-style:normal;font-size:12pt">smooth</text>
</g>
</svg>
