<?xml version="1.0"?>
<!-- Generated by SVGo and Plotinum VG -->
<svg width="16in" height="9in"
	xmlns="http://www.w3.org/2000/svg"
	xmlns:xlink="http://www.w3.org/1999/xlink">
<g transform="scale(1, -1) translate(0, -810)">
<path d="M0,0L1440,0L1440,810L0,810Z" style="fill:#FFFFFF" />
<text x="738.98" y="-5.355" transform="scale(1, -1)"
	style="font-family:Times;font-weight:normal;font-style:normal;font-size:12pt">X</text>
<text x="48.8" y="-19.025" transform="scale(1, -1)"
	style="font-family:Times;font-weight:normal;font-style:normal;font-size:10pt">0</text>
<text x="463.25" y="-19.025" transform="scale(1, -1)"
	style="font-family:Times;font-weight:normal;font-style:normal;font-size:10pt">60</text>
<text x="877.7" y="-19.025" transform="scale(1, -1)"
	style="font-family:Times;font-weight:normal;font-style:normal;font-size:10pt">120</text>
<text x="1295.3" y="-19.025" transform="scale(1, -1)"
	style="font-family:Times;font-weight:normal;font-style:normal;font-size:10pt">180</text>
<path d="M51.925,29.625L51.925,39.625" style="fill:none;stroke:#000000;stroke-width:0.625" />
<path d="M469.5,29.625L469.5,39.625" style="fill:none;stroke:#000000;stroke-width:0.625" />
<path d="M887.07,29.625L887.07,39.625" style="fill:none;stroke:#000000;stroke-width:0.625" />
<path d="M1304.6,29.625L1304.6,39.625" style="fill:none;stroke:#000000;stroke-width:0.625" />
<path d="M191.12,34.625L191.12,39.625" style="fill:none;stroke:#000000;stroke-width:0.625" />
<path d="M330.31,34.625L330.31,39.625" style="fill:none;stroke:#000000;stroke-width:0.625" />
<path d="M608.69,34.625L608.69,39.625" style="fill:none;stroke:#000000;stroke-width:0.625" />
<path d="M747.88,34.625L747.88,39.625" style="fill:none;stroke:#000000;stroke-width:0.625" />
<path d="M1026.3,34.625L1026.3,39.625" style="fill:none;stroke:#000000;stroke-width:0.625" />
<path d="M1165.5,34.625L1165.5,39.625" style="fill:none;stroke:#000000;stroke-width:0.625" />
<path d="M51.925,39.625L1436.9,39.625" style="fill:none;stroke:#000000;stroke-width:0.625" />
<g transform="rotate(90)">
<text x="422.68" y="12.72" transform="scale(1, -1)"
	style="font-family:Times;font-weight:normal;font-style:normal;font-size:12pt">Y</text>
</g>
<text x="18.075" y="-170.86" transform="scale(1, -1)"
	style="font-family:Times;font-weight:normal;font-style:normal;font-size:10pt">-1</text>
<text x="22.237" y="-343.34" transform="scale(1, -1)"
	style="font-family:Times;font-weight:normal;font-style:normal;font-size:10pt">0</text>
<text x="22.237" y="-515.83" transform="scale(1, -1)"
	style="font-family:Times;font-weight:normal;font-style:normal;font-size:10pt">1</text>
<text x="22.237" y="-688.31" transform="scale(1, -1)"
	style="font-family:Times;font-weight:normal;font-style:normal;font-size:10pt">2</text>
<path d="M31.613,175.68L41.612,175.68" style="fill:none;stroke:#000000;stroke-width:0.625" />
<path d="M31.613,348.17L41.612,348.17" style="fill:none;stroke:#000000;stroke-width:0.625" />
<path d="M31.613,520.65L41.612,520.65" style="fill:none;stroke:#000000;stroke-width:0.625" />
<path d="M31.613,693.14L41.612,693.14" style="fill:none;stroke:#000000;stroke-width:0.625" />
<path d="M36.612,89.437L41.612,89.437" style="fill:none;stroke:#000000;stroke-width:0.625" />
<path d="M36.612,261.92L41.612,261.92" style="fill:none;stroke:#000000;stroke-width:0.625" />
<path d="M36.612,434.41L41.612,434.41" style="fill:none;stroke:#000000;stroke-width:0.625" />
<path d="M36.612,606.9L41.612,606.9" style="fill:none;stroke:#000000;stroke-width:0.625" />
<path d="M36.612,779.38L41.612,779.38" style="fill:none;stroke:#000000;stroke-width:0.625" />
<path d="M41.612,49.313L41.612,806.88" style="fill:none;stroke:#000000;stroke-width:0.625" />
<path d="M51.925,348.17L58.885,484.28L65.844,600.55L72.804,580.93L79.763,650.58L86.723,636.76L93.682,803.85L100.64,741.36L107.6,704.08L114.56,806.88L121.52,702.71L128.48,600.91L135.44,573.06L142.4,532.86L149.36,585.63L156.32,461.89L163.28,395.02L170.24,384.06L177.2,474.38L184.16,415.87L191.12,355.86L198.08,379.8L205.04,322.01L211.99,400.02L218.95,441.15L225.91,375.16L232.87,418.82L239.83,480.82L246.79,544.51L253.75,548.15L260.71,411.19L267.67,409.71L274.63,488.92L281.59,489.61L288.55,349.57L295.51,356.65L302.47,243.85L309.43,315.49L316.39,257.6L323.35,138.75L330.31,184.94L337.27,201.52L344.23,143.44L351.19,49.313L358.15,218.71L365.1,241.31L372.06,189.62L379.02,166.98L385.98,312.1L392.94,398.99L399.9,452.16L406.86,463.23L413.82,609.7L420.78,576.59L427.74,598.66L434.7,759.04L441.66,642.92L448.62,791.71L455.58,704.91L462.54,795.73L469.5,706.82L476.46,734.02L483.42,556.64L490.38,551.04L497.34,508.16L504.3,479.43L511.26,542.59L518.21,505.62L525.17,323.43L532.13,310.82L539.09,379.52L546.05,323.63L553.01,414.89L559.97,425.92L566.93,431.78L573.89,415.8L580.85,458.68L587.81,494.22L594.77,541.8L601.73,474.35L608.69,482.22L615.65,528.91L622.61,476.72L629.57,500.52L636.53,469.56L643.49,419.05L650.45,339.52L657.41,359.15L664.37,164.81L671.32,143.41L678.28,118.9L685.24,104.38L692.2,167.46L699.16,199.44L706.12,154.82L713.08,249.6L720.04,215.2L727,239.84L733.96,288.52L740.92,440.48L747.88,441.41L754.84,558.95L761.8,549.99L768.76,561.22L775.72,674.53L782.68,741.39L789.64,794.24L796.6,770.04L803.56,731.73L810.52,779.23L817.48,685.09L824.43,619.26L831.39,575.62L838.35,616.52L845.31,480.78L852.27,479.44L859.23,419.27L866.19,364.16L873.15,421.42L880.11,429.4L887.07,289.03L894.03,308.43L900.99,445.8L907.95,453.71L914.91,478.59L921.87,464.09L928.83,406.41L935.79,531.2L942.75,468.47L949.71,544.4L956.67,577.62L963.63,463.48L970.59,398.08L977.54,431.06L984.5,464.64L991.46,385.61L998.42,289.16L1005.4,314.97L1012.3,297.32L1019.3,208.34L1026.3,185.01L1033.2,126.52L1040.2,53.314L1047.1,78.31L1054.1,108.21L1061.1,212.21L1068,146.36L1075,288.27L1081.9,316.83L1088.9,358.25L1095.9,375.51L1102.8,574.23L1109.8,561.14L1116.7,642.69L1123.7,618.43L1130.7,657L1137.6,765.22L1144.6,758.59L1151.5,789.31L1158.5,716.53L1165.5,626.65L1172.4,714.6L1179.4,598.34L1186.3,530.65L1193.3,568.63L1200.3,441.3L1207.2,451.92L1214.2,379.36L1221.1,321.19L1228.1,343.48L1235,363.25L1242,414.1L1249,327.7L1255.9,411.28L1262.9,383.57L1269.8,519.68L1276.8,504.98L1283.8,535.61L1290.7,565.69L1297.7,523.99L1304.6,578.11L1311.6,412.76L1318.6,548.46L1325.5,404.48L1332.5,357.98L1339.4,425.63L1346.4,350.62L1353.4,224.71L1360.3,194.87L1367.3,216.74L1374.2,92.907L1381.2,104.39L1388.2,162.56L1395.1,206.48L1402.1,176.24L1409,236.76L1416,184.63L1423,197.86L1429.9,240.03L1436.9,309.95" style="fill:none;stroke:#F15A60;stroke-width:1.25" />
<path d="M55.05,348.17A3.125,3.125 0 1 1 48.8,348.17A3.125,3.125 0 1 1 55.05,348.17Z" style="fill:none;stroke:#F15A60;stroke-width:0.625" />
<path d="M62.01,484.28A3.125,3.125 0 1 1 55.76,484.28A3.125,3.125 0 1 1 62.01,484.28Z" style="fill:none;stroke:#F15A60;stroke-width:0.625" />
<path d="M68.969,600.55A3.125,3.125 0 1 1 62.719,600.55A3.125,3.125 0 1 1 68.969,600.55Z" style="fill:none;stroke:#F15A60;stroke-width:0.625" />
<path d="M75.929,580.93A3.125,3.125 0 1 1 69.679,580.93A3.125,3.125 0 1 1 75.929,580.93Z" style="fill:none;stroke:#F15A60;stroke-width:0.625" />
<path d="M82.888,650.58L82.888,650.58A3.125,3.125 0 1 1 76.638,650.58A3.125,3.125 0 1 1 82.888,650.58Z" style="fill:none;stroke:#F15A60;stroke-width:0.625" />
<path d="M89.848,636.76L89.848,636.76A3.125,3.125 0 1 1 83.598,636.76A3.125,3.125 0 1 1 89.848,636.76Z" style="fill:none;stroke:#F15A60;stroke-width:0.625" />
<path d="M96.807,803.85L96.807,803.85A3.125,3.125 0 1 1 90.557,803.85A3.125,3.125 0 1 1 96.807,803.85Z" style="fill:none;stroke:#F15A60;stroke-width:0.625" />
<path d="M103.77,741.36L103.77,741.36A3.125,3.125 0 1 1 97.517,741.36A3.125,3.125 0 1 1 103.77,741.36Z" style="fill:none;stroke:#F15A60;stroke-width:0.625" />
<path d="M110.73,704.08L110.73,704.08A3.125,3.125 0 1 1 104.48,704.08A3.125,3.125 0 1 1 110.73,704.08Z" style="fill:none;stroke:#F15A60;stroke-width:0.625" />
<path d="M117.69,806.88L117.69,806.88A3.125,3.125 0 1 1 111.44,806.88A3.125,3.125 0 1 1 117.69,806.88Z" style="fill:none;stroke:#F15A60;stroke-width:0.625" />
<path d="M124.65,702.71A3.125,3.125 0 1 1 118.4,702.71A3.125,3.125 0 1 1 124.65,702.71Z" style="fill:none;stroke:#F15A60;stroke-width:0.625" />
<path d="M131.61,600.91A3.125,3.125 0 1 1 125.36,600.91A3.125,3.125 0 1 1 131.61,600.91Z" style="fill:none;stroke:#F15A60;stroke-width:0.625" />
<path d="M138.56,573.06A3.125,3.125 0 1 1 132.31,573.06A3.125,3.125 0 1 1 138.56,573.06Z" style="fill:none;stroke:#F15A60;stroke-width:0.625" />
<path d="M145.52,532.86A3.125,3.125 0 1 1 139.27,532.86A3.125,3.125 0 1 1 145.52,532.86Z" style="fill:none;stroke:#F15A60;stroke-width:0.625" />
<path d="M152.48,585.63A3.125,3.125 0 1 1 146.23,585.63A3.125,3.125 0 1 1 152.48,585.63Z" style="fill:none;stroke:#F15A60;stroke-width:0.625" />
<path d="M159.44,461.89A3.125,3.125 0 1 1 153.19,461.89A3.125,3.125 0 1 1 159.44,461.89Z" style="fill:none;stroke:#F15A60;stroke-width:0.625" />
<path d="M166.4,395.02A3.125,3.125 0 1 1 160.15,395.02A3.125,3.125 0 1 1 166.4,395.02Z" style="fill:none;stroke:#F15A60;stroke-width:0.625" />
<path d="M173.36,384.06A3.125,3.125 0 1 1 167.11,384.06A3.125,3.125 0 1 1 173.36,384.06Z" style="fill:none;stroke:#F15A60;stroke-width:0.625" />
<path d="M180.32,474.38L180.32,474.38A3.125,3.125 0 1 1 174.07,474.38A3.125,3.125 0 1 1 180.32,474.38Z" style="fill:none;stroke:#F15A60;stroke-width:0.625" />
<path d="M187.28,415.87A3.125,3.125 0 1 1 181.03,415.87A3.125,3.125 0 1 1 187.28,415.87Z" style="fill:none;stroke:#F15A60;stroke-width:0.625" />
<path d="M194.24,355.86L194.24,355.86A3.125,3.125 0 1 1 187.99,355.86A3.125,3.125 0 1 1 194.24,355.86Z" style="fill:none;stroke:#F15A60;stroke-width:0.625" />
<path d="M201.2,379.8A3.125,3.125 0 1 1 194.95,379.8A3.125,3.125 0 1 1 201.2,379.8Z" style="fill:none;stroke:#F15A60;stroke-width:0.625" />
<path d="M208.16,322.01A3.125,3.125 0 1 1 201.91,322.01A3.125,3.125 0 1 1 208.16,322.01Z" style="fill:none;stroke:#F15A60;stroke-width:0.625" />
<path d="M215.12,400.02A3.125,3.125 0 1 1 208.87,400.02A3.125,3.125 0 1 1 215.12,400.02Z" style="fill:none;stroke:#F15A60;stroke-width:0.625" />
<path d="M222.08,441.15L222.08,441.15A3.125,3.125 0 1 1 215.83,441.15A3.125,3.125 0 1 1 222.08,441.15Z" style="fill:none;stroke:#F15A60;stroke-width:0.625" />
<path d="M229.04,375.16A3.125,3.125 0 1 1 222.79,375.16A3.125,3.125 0 1 1 229.04,375.16Z" style="fill:none;stroke:#F15A60;stroke-width:0.625" />
<path d="M236,418.82A3.125,3.125 0 1 1 229.75,418.82A3.125,3.125 0 1 1 236,418.82Z" style="fill:none;stroke:#F15A60;stroke-width:0.625" />
<path d="M242.96,480.82A3.125,3.125 0 1 1 236.71,480.82A3.125,3.125 0 1 1 242.96,480.82Z" style="fill:none;stroke:#F15A60;stroke-width:0.625" />
<path d="M249.92,544.51L249.92,544.51A3.125,3.125 0 1 1 243.67,544.51A3.125,3.125 0 1 1 249.92,544.51Z" style="fill:none;stroke:#F15A60;stroke-width:0.625" />
<path d="M256.88,548.15L256.88,548.15A3.125,3.125 0 1 1 250.63,548.15A3.125,3.125 0 1 1 256.88,548.15Z" style="fill:none;stroke:#F15A60;stroke-width:0.625" />
<path d="M263.84,411.19A3.125,3.125 0 1 1 257.59,411.19A3.125,3.125 0 1 1 263.84,411.19Z" style="fill:none;stroke:#F15A60;stroke-width:0.625" />
<path d="M270.8,409.71A3.125,3.125 0 1 1 264.55,409.71A3.125,3.125 0 1 1 270.8,409.71Z" style="fill:none;stroke:#F15A60;stroke-width:0.625" />
<path d="M277.76,488.92L277.76,488.92A3.125,3.125 0 1 1 271.51,488.92A3.125,3.125 0 1 1 277.76,488.92Z" style="fill:none;stroke:#F15A60;stroke-width:0.625" />
<path d="M284.72,489.61A3.125,3.125 0 1 1 278.47,489.61A3.125,3.125 0 1 1 284.72,489.61Z" style="fill:none;stroke:#F15A60;stroke-width:0.625" />
<path d="M291.67,349.57L291.67,349.57A3.125,3.125 0 1 1 285.42,349.57A3.125,3.125 0 1 1 291.67,349.57Z" style="fill:none;stroke:#F15A60;stroke-width:0.625" />
<path d="M298.63,356.65A3.125,3.125 0 1 1 292.38,356.65A3.125,3.125 0 1 1 298.63,356.65Z" style="fill:none;stroke:#F15A60;stroke-width:0.625" />
<path d="M305.59,243.85A3.125,3.125 0 1 1 299.34,243.85A3.125,3.125 0 1 1 305.59,243.85Z" style="fill:none;stroke:#F15A60;stroke-width:0.625" />
<path d="M312.55,315.49A3.125,3.125 0 1 1 306.3,315.49A3.125,3.125 0 1 1 312.55,315.49Z" style="fill:none;stroke:#F15A60;stroke-width:0.625" />
<path d="M319.51,257.6A3.125,3.125 0 1 1 313.26,257.6A3.125,3.125 0 1 1 319.51,257.6Z" style="fill:none;stroke:#F15A60;stroke-width:0.625" />
<path d="M326.47,138.75A3.125,3.125 0 1 1 320.22,138.75A3.125,3.125 0 1 1 326.47,138.75Z" style="fill:none;stroke:#F15A60;stroke-width:0.625" />
<path d="M333.43,184.94L333.43,184.94A3.125,3.125 0 1 1 327.18,184.94A3.125,3.125 0 1 1 333.43,184.94Z" style="fill:none;stroke:#F15A60;stroke-width:0.625" />
<path d="M340.39,201.52A3.125,3.125 0 1 1 334.14,201.52A3.125,3.125 0 1 1 340.39,201.52Z" style="fill:none;stroke:#F15A60;stroke-width:0.625" />
<path d="M347.35,143.44L347.35,143.44A3.125,3.125 0 1 1 341.1,143.44A3.125,3.125 0 1 1 347.35,143.44Z" style="fill:none;stroke:#F15A60;stroke-width:0.625" />
<path d="M354.31,49.313A3.125,3.125 0 1 1 348.06,49.313A3.125,3.125 0 1 1 354.31,49.313Z" style="fill:none;stroke:#F15A60;stroke-width:0.625" />
<path d="M361.27,218.71L361.27,218.71A3.125,3.125 0 1 1 355.02,218.71A3.125,3.125 0 1 1 361.27,218.71Z" style="fill:none;stroke:#F15A60;stroke-width:0.625" />
<path d="M368.23,241.31A3.125,3.125 0 1 1 361.98,241.31A3.125,3.125 0 1 1 368.23,241.31Z" style="fill:none;stroke:#F15A60;stroke-width:0.625" />
<path d="M375.19,189.62A3.125,3.125 0 1 1 368.94,189.62A3.125,3.125 0 1 1 375.19,189.62Z" style="fill:none;stroke:#F15A60;stroke-width:0.625" />
<path d="M382.15,166.98A3.125,3.125 0 1 1 375.9,166.98A3.125,3.125 0 1 1 382.15,166.98Z" style="fill:none;stroke:#F15A60;stroke-width:0.625" />
<path d="M389.11,312.1A3.125,3.125 0 1 1 382.86,312.1A3.125,3.125 0 1 1 389.11,312.1Z" style="fill:none;stroke:#F15A60;stroke-width:0.625" />
<path d="M396.07,398.99A3.125,3.125 0 1 1 389.82,398.99A3.125,3.125 0 1 1 396.07,398.99Z" style="fill:none;stroke:#F15A60;stroke-width:0.625" />
<path d="M403.03,452.16L403.03,452.16A3.125,3.125 0 1 1 396.78,452.16A3.125,3.125 0 1 1 403.03,452.16Z" style="fill:none;stroke:#F15A60;stroke-width:0.625" />
<path d="M409.99,463.23A3.125,3.125 0 1 1 403.74,463.23A3.125,3.125 0 1 1 409.99,463.23Z" style="fill:none;stroke:#F15A60;stroke-width:0.625" />
<path d="M416.95,609.7A3.125,3.125 0 1 1 410.7,609.7A3.125,3.125 0 1 1 416.95,609.7Z" style="fill:none;stroke:#F15A60;stroke-width:0.625" />
<path d="M423.91,576.59L423.91,576.59A3.125,3.125 0 1 1 417.66,576.59A3.125,3.125 0 1 1 423.91,576.59Z" style="fill:none;stroke:#F15A60;stroke-width:0.625" />
<path d="M430.87,598.66A3.125,3.125 0 1 1 424.62,598.66A3.125,3.125 0 1 1 430.87,598.66Z" style="fill:none;stroke:#F15A60;stroke-width:0.625" />
<path d="M437.83,759.04A3.125,3.125 0 1 1 431.58,759.04A3.125,3.125 0 1 1 437.83,759.04Z" style="fill:none;stroke:#F15A60;stroke-width:0.625" />
<path d="M444.78,642.92A3.125,3.125 0 1 1 438.53,642.92A3.125,3.125 0 1 1 444.78,642.92Z" style="fill:none;stroke:#F15A60;stroke-width:0.625" />
<path d="M451.74,791.71L451.74,791.71A3.125,3.125 0 1 1 445.49,791.71A3.125,3.125 0 1 1 451.74,791.71Z" style="fill:none;stroke:#F15A60;stroke-width:0.625" />
<path d="M458.7,704.91L458.7,704.91A3.125,3.125 0 1 1 452.45,704.91A3.125,3.125 0 1 1 458.7,704.91Z" style="fill:none;stroke:#F15A60;stroke-width:0.625" />
<path d="M465.66,795.73L465.66,795.73A3.125,3.125 0 1 1 459.41,795.73A3.125,3.125 0 1 1 465.66,795.73Z" style="fill:none;stroke:#F15A60;stroke-width:0.625" />
<path d="M472.62,706.82A3.125,3.125 0 1 1 466.37,706.82A3.125,3.125 0 1 1 472.62,706.82Z" style="fill:none;stroke:#F15A60;stroke-width:0.625" />
<path d="M479.58,734.02A3.125,3.125 0 1 1 473.33,734.02A3.125,3.125 0 1 1 479.58,734.02Z" style="fill:none;stroke:#F15A60;stroke-width:0.625" />
<path d="M486.54,556.64A3.125,3.125 0 1 1 480.29,556.64A3.125,3.125 0 1 1 486.54,556.64Z" style="fill:none;stroke:#F15A60;stroke-width:0.625" />
<path d="M493.5,551.04A3.125,3.125 0 1 1 487.25,551.04A3.125,3.125 0 1 1 493.5,551.04Z" style="fill:none;stroke:#F15A60;stroke-width:0.625" />
<path d="M500.46,508.16A3.125,3.125 0 1 1 494.21,508.16A3.125,3.125 0 1 1 500.46,508.16Z" style="fill:none;stroke:#F15A60;stroke-width:0.625" />
<path d="M507.42,479.43A3.125,3.125 0 1 1 501.17,479.43A3.125,3.125 0 1 1 507.42,479.43Z" style="fill:none;stroke:#F15A60;stroke-width:0.625" />
<path d="M514.38,542.59L514.38,542.59A3.125,3.125 0 1 1 508.13,542.59A3.125,3.125 0 1 1 514.38,542.59Z" style="fill:none;stroke:#F15A60;stroke-width:0.625" />
<path d="M521.34,505.62A3.125,3.125 0 1 1 515.09,505.62A3.125,3.125 0 1 1 521.34,505.62Z" style="fill:none;stroke:#F15A60;stroke-width:0.625" />
<path d="M528.3,323.43A3.125,3.125 0 1 1 522.05,323.43A3.125,3.125 0 1 1 528.3,323.43Z" style="fill:none;stroke:#F15A60;stroke-width:0.625" />
<path d="M535.26,310.82L535.26,310.82A3.125,3.125 0 1 1 529.01,310.82A3.125,3.125 0 1 1 535.26,310.82Z" style="fill:none;stroke:#F15A60;stroke-width:0.625" />
<path d="M542.22,379.52A3.125,3.125 0 1 1 535.97,379.52A3.125,3.125 0 1 1 542.22,379.52Z" style="fill:none;stroke:#F15A60;stroke-width:0.625" />
<path d="M549.18,323.63A3.125,3.125 0 1 1 542.93,323.63A3.125,3.125 0 1 1 549.18,323.63Z" style="fill:none;stroke:#F15A60;stroke-width:0.625" />
<path d="M556.14,414.89A3.125,3.125 0 1 1 549.89,414.89A3.125,3.125 0 1 1 556.14,414.89Z" style="fill:none;stroke:#F15A60;stroke-width:0.625" />
<path d="M563.1,425.92A3.125,3.125 0 1 1 556.85,425.92A3.125,3.125 0 1 1 563.1,425.92Z" style="fill:none;stroke:#F15A60;stroke-width:0.625" />
<path d="M570.06,431.78L570.06,431.78A3.125,3.125 0 1 1 563.81,431.78A3.125,3.125 0 1 1 570.06,431.78Z" style="fill:none;stroke:#F15A60;stroke-width:0.625" />
<path d="M577.02,415.8A3.125,3.125 0 1 1 570.77,415.8A3.125,3.125 0 1 1 577.02,415.8Z" style="fill:none;stroke:#F15A60;stroke-width:0.625" />
<path d="M583.98,458.68A3.125,3.125 0 1 1 577.73,458.68A3.125,3.125 0 1 1 583.98,458.68Z" style="fill:none;stroke:#F15A60;stroke-width:0.625" />
<path d="M590.94,494.22A3.125,3.125 0 1 1 584.69,494.22A3.125,3.125 0 1 1 590.94,494.22Z" style="fill:none;stroke:#F15A60;stroke-width:0.625" />
<path d="M597.89,541.8A3.125,3.125 0 1 1 591.64,541.8A3.125,3.125 0 1 1 597.89,541.8Z" style="fill:none;stroke:#F15A60;stroke-width:0.625" />
<path d="M604.85,474.35A3.125,3.125 0 1 1 598.6,474.35A3.125,3.125 0 1 1 604.85,474.35Z" style="fill:none;stroke:#F15A60;stroke-width:0.625" />
<path d="M611.81,482.22A3.125,3.125 0 1 1 605.56,482.22A3.125,3.125 0 1 1 611.81,482.22Z" style="fill:none;stroke:#F15A60;stroke-width:0.625" />
<path d="M618.77,528.91A3.125,3.125 0 1 1 612.52,528.91A3.125,3.125 0 1 1 618.77,528.91Z" style="fill:none;stroke:#F15A60;stroke-width:0.625" />
<path d="M625.73,476.72A3.125,3.125 0 1 1 619.48,476.72A3.125,3.125 0 1 1 625.73,476.72Z" style="fill:none;stroke:#F15A60;stroke-width:0.625" />
<path d="M632.69,500.52A3.125,3.125 0 1 1 626.44,500.52A3.125,3.125 0 1 1 632.69,500.52Z" style="fill:none;stroke:#F15A60;stroke-width:0.625" />
<path d="M639.65,469.56A3.125,3.125 0 1 1 633.4,469.56A3.125,3.125 0 1 1 639.65,469.56Z" style="fill:none;stroke:#F15A60;stroke-width:0.625" />
<path d="M646.61,419.05A3.125,3.125 0 1 1 640.36,419.05A3.125,3.125 0 1 1 646.61,419.05Z" style="fill:none;stroke:#F15A60;stroke-width:0.625" />
<path d="M653.57,339.52A3.125,3.125 0 1 1 647.32,339.52A3.125,3.125 0 1 1 653.57,339.52Z" style="fill:none;stroke:#F15A60;stroke-width:0.625" />
<path d="M660.53,359.15A3.125,3.125 0 1 1 654.28,359.15A3.125,3.125 0 1 1 660.53,359.15Z" style="fill:none;stroke:#F15A60;stroke-width:0.625" />
<path d="M667.49,164.81A3.125,3.125 0 1 1 661.24,164.81A3.125,3.125 0 1 1 667.49,164.81Z" style="fill:none;stroke:#F15A60;stroke-width:0.625" />
<path d="M674.45,143.41A3.125,3.125 0 1 1 668.2,143.41A3.125,3.125 0 1 1 674.45,143.41Z" style="fill:none;stroke:#F15A60;stroke-width:0.625" />
<path d="M681.41,118.9L681.41,118.9A3.125,3.125 0 1 1 675.16,118.9A3.125,3.125 0 1 1 681.41,118.9Z" style="fill:none;stroke:#F15A60;stroke-width:0.625" />
<path d="M688.37,104.38A3.125,3.125 0 1 1 682.12,104.38A3.125,3.125 0 1 1 688.37,104.38Z" style="fill:none;stroke:#F15A60;stroke-width:0.625" />
<path d="M695.33,167.46A3.125,3.125 0 1 1 689.08,167.46A3.125,3.125 0 1 1 695.33,167.46Z" style="fill:none;stroke:#F15A60;stroke-width:0.625" />
<path d="M702.29,199.44A3.125,3.125 0 1 1 696.04,199.44A3.125,3.125 0 1 1 702.29,199.44Z" style="fill:none;stroke:#F15A60;stroke-width:0.625" />
<path d="M709.25,154.82L709.25,154.82A3.125,3.125 0 1 1 703,154.82A3.125,3.125 0 1 1 709.25,154.82Z" style="fill:none;stroke:#F15A60;stroke-width:0.625" />
<path d="M716.21,249.6L716.21,249.6A3.125,3.125 0 1 1 709.96,249.6A3.125,3.125 0 1 1 716.21,249.6Z" style="fill:none;stroke:#F15A60;stroke-width:0.625" />
<path d="M723.17,215.2L723.17,215.2A3.125,3.125 0 1 1 716.92,215.2A3.125,3.125 0 1 1 723.17,215.2Z" style="fill:none;stroke:#F15A60;stroke-width:0.625" />
<path d="M730.13,239.84L730.13,239.84A3.125,3.125 0 1 1 723.88,239.84A3.125,3.125 0 1 1 730.13,239.84Z" style="fill:none;stroke:#F15A60;stroke-width:0.625" />
<path d="M737.09,288.52L737.09,288.52A3.125,3.125 0 1 1 730.84,288.52A3.125,3.125 0 1 1 737.09,288.52Z" style="fill:none;stroke:#F15A60;stroke-width:0.625" />
<path d="M744.05,440.48L744.05,440.48A3.125,3.125 0 1 1 737.8,440.48A3.125,3.125 0 1 1 744.05,440.48Z" style="fill:none;stroke:#F15A60;stroke-width:0.625" />
<path d="M751,441.41L751,441.41A3.125,3.125 0 1 1 744.75,441.41A3.125,3.125 0 1 1 751,441.41Z" style="fill:none;stroke:#F15A60;stroke-width:0.625" />
<path d="M757.96,558.95L757.96,558.95A3.125,3.125 0 1 1 751.71,558.95A3.125,3.125 0 1 1 757.96,558.95Z" style="fill:none;stroke:#F15A60;stroke-width:0.625" />
<path d="M764.92,549.99L764.92,549.99A3.125,3.125 0 1 1 758.67,549.99A3.125,3.125 0 1 1 764.92,549.99Z" style="fill:none;stroke:#F15A60;stroke-width:0.625" />
<path d="M771.88,561.22L771.88,561.22A3.125,3.125 0 1 1 765.63,561.22A3.125,3.125 0 1 1 771.88,561.22Z" style="fill:none;stroke:#F15A60;stroke-width:0.625" />
<path d="M778.84,674.53L778.84,674.53A3.125,3.125 0 1 1 772.59,674.53A3.125,3.125 0 1 1 778.84,674.53Z" style="fill:none;stroke:#F15A60;stroke-width:0.625" />
<path d="M785.8,741.39L785.8,741.39A3.125,3.125 0 1 1 779.55,741.39A3.125,3.125 0 1 1 785.8,741.39Z" style="fill:none;stroke:#F15A60;stroke-width:0.625" />
<path d="M792.76,794.24L792.76,794.24A3.125,3.125 0 1 1 786.51,794.24A3.125,3.125 0 1 1 792.76,794.24Z" style="fill:none;stroke:#F15A60;stroke-width:0.625" />
<path d="M799.72,770.04L799.72,770.04A3.125,3.125 0 1 1 793.47,770.04A3.125,3.125 0 1 1 799.72,770.04Z" style="fill:none;stroke:#F15A60;stroke-width:0.625" />
<path d="M806.68,731.73A3.125,3.125 0 1 1 800.43,731.73A3.125,3.125 0 1 1 806.68,731.73Z" style="fill:none;stroke:#F15A60;stroke-width:0.625" />
<path d="M813.64,779.23A3.125,3.125 0 1 1 807.39,779.23A3.125,3.125 0 1 1 813.64,779.23Z" style="fill:none;stroke:#F15A60;stroke-width:0.625" />
<path d="M820.6,685.09L820.6,685.09A3.125,3.125 0 1 1 814.35,685.09A3.125,3.125 0 1 1 820.6,685.09Z" style="fill:none;stroke:#F15A60;stroke-width:0.625" />
<path d="M827.56,619.26L827.56,619.26A3.125,3.125 0 1 1 821.31,619.26A3.125,3.125 0 1 1 827.56,619.26Z" style="fill:none;stroke:#F15A60;stroke-width:0.625" />
<path d="M834.52,575.62L834.52,575.62A3.125,3.125 0 1 1 828.27,575.62A3.125,3.125 0 1 1 834.52,575.62Z" style="fill:none;stroke:#F15A60;stroke-width:0.625" />
<path d="M841.48,616.52L841.48,616.52A3.125,3.125 0 1 1 835.23,616.52A3.125,3.125 0 1 1 841.48,616.52Z" style="fill:none;stroke:#F15A60;stroke-width:0.625" />
<path d="M848.44,480.78L848.44,480.78A3.125,3.125 0 1 1 842.19,480.78A3.125,3.125 0 1 1 848.44,480.78Z" style="fill:none;stroke:#F15A60;stroke-width:0.625" />
<path d="M855.4,479.44L855.4,479.44A3.125,3.125 0 1 1 849.15,479.44A3.125,3.125 0 1 1 855.4,479.44Z" style="fill:none;stroke:#F15A60;stroke-width:0.625" />
<path d="M862.36,419.27L862.36,419.27A3.125,3.125 0 1 1 856.11,419.27A3.125,3.125 0 1 1 862.36,419.27Z" style="fill:none;stroke:#F15A60;stroke-width:0.625" />
<path d="M869.32,364.16A3.125,3.125 0 1 1 863.07,364.16A3.125,3.125 0 1 1 869.32,364.16Z" style="fill:none;stroke:#F15A60;stroke-width:0.625" />
<path d="M876.28,421.42A3.125,3.125 0 1 1 870.03,421.42A3.125,3.125 0 1 1 876.28,421.42Z" style="fill:none;stroke:#F15A60;stroke-width:0.625" />
<path d="M883.24,429.4L883.24,429.4A3.125,3.125 0 1 1 876.99,429.4A3.125,3.125 0 1 1 883.24,429.4Z" style="fill:none;stroke:#F15A60;stroke-width:0.625" />
<path d="M890.2,289.03L890.2,289.03A3.125,3.125 0 1 1 883.95,289.03A3.125,3.125 0 1 1 890.2,289.03Z" style="fill:none;stroke:#F15A60;stroke-width:0.625" />
<path d="M897.16,308.43L897.16,308.43A3.125,3.125 0 1 1 890.91,308.43A3.125,3.125 0 1 1 897.16,308.43Z" style="fill:none;stroke:#F15A60;stroke-width:0.625" />
<path d="M904.11,445.8L904.11,445.8A3.125,3.125 0 1 1 897.86,445.8A3.125,3.125 0 1 1 904.11,445.8Z" style="fill:none;stroke:#F15A60;stroke-width:0.625" />
<path d="M911.07,453.71A3.125,3.125 0 1 1 904.82,453.71A3.125,3.125 0 1 1 911.07,453.71Z" style="fill:none;stroke:#F15A60;stroke-width:0.625" />
<path d="M918.03,478.59A3.125,3.125 0 1 1 911.78,478.59A3.125,3.125 0 1 1 918.03,478.59Z" style="fill:none;stroke:#F15A60;stroke-width:0.625" />
<path d="M924.99,464.09L924.99,464.09A3.125,3.125 0 1 1 918.74,464.09A3.125,3.125 0 1 1 924.99,464.09Z" style="fill:none;stroke:#F15A60;stroke-width:0.625" />
<path d="M931.95,406.41A3.125,3.125 0 1 1 925.7,406.41A3.125,3.125 0 1 1 931.95,406.41Z" style="fill:none;stroke:#F15A60;stroke-width:0.625" />
<path d="M938.91,531.2L938.91,531.2A3.125,3.125 0 1 1 932.66,531.2A3.125,3.125 0 1 1 938.91,531.2Z" style="fill:none;stroke:#F15A60;stroke-width:0.625" />
<path d="M945.87,468.47L945.87,468.47A3.125,3.125 0 1 1 939.62,468.47A3.125,3.125 0 1 1 945.87,468.47Z" style="fill:none;stroke:#F15A60;stroke-width:0.625" />
<path d="M952.83,544.4A3.125,3.125 0 1 1 946.58,544.4A3.125,3.125 0 1 1 952.83,544.4Z" style="fill:none;stroke:#F15A60;stroke-width:0.625" />
<path d="M959.79,577.62A3.125,3.125 0 1 1 953.54,577.62A3.125,3.125 0 1 1 959.79,577.62Z" style="fill:none;stroke:#F15A60;stroke-width:0.625" />
<path d="M966.75,463.48A3.125,3.125 0 1 1 960.5,463.48A3.125,3.125 0 1 1 966.75,463.48Z" style="fill:none;stroke:#F15A60;stroke-width:0.625" />
<path d="M973.71,398.08A3.125,3.125 0 1 1 967.46,398.08A3.125,3.125 0 1 1 973.71,398.08Z" style="fill:none;stroke:#F15A60;stroke-width:0.625" />
<path d="M980.67,431.06A3.125,3.125 0 1 1 974.42,431.06A3.125,3.125 0 1 1 980.67,431.06Z" style="fill:none;stroke:#F15A60;stroke-width:0.625" />
<path d="M987.63,464.64L987.63,464.64A3.125,3.125 0 1 1 981.38,464.64A3.125,3.125 0 1 1 987.63,464.64Z" style="fill:none;stroke:#F15A60;stroke-width:0.625" />
<path d="M994.59,385.61A3.125,3.125 0 1 1 988.34,385.61A3.125,3.125 0 1 1 994.59,385.61Z" style="fill:none;stroke:#F15A60;stroke-width:0.625" />
<path d="M1001.5,289.16L1001.5,289.16A3.125,3.125 0 1 1 995.3,289.16A3.125,3.125 0 1 1 1001.5,289.16Z" style="fill:none;stroke:#F15A60;stroke-width:0.625" />
<path d="M1008.5,314.97L1008.5,314.97A3.125,3.125 0 1 1 1002.3,314.97A3.125,3.125 0 1 1 1008.5,314.97Z" style="fill:none;stroke:#F15A60;stroke-width:0.625" />
<path d="M1015.5,297.32A3.125,3.125 0 1 1 1009.2,297.32A3.125,3.125 0 1 1 1015.5,297.32Z" style="fill:none;stroke:#F15A60;stroke-width:0.625" />
<path d="M1022.4,208.34L1022.4,208.34A3.125,3.125 0 1 1 1016.2,208.34A3.125,3.125 0 1 1 1022.4,208.34Z" style="fill:none;stroke:#F15A60;stroke-width:0.625" />
<path d="M1029.4,185.01A3.125,3.125 0 1 1 1023.1,185.01A3.125,3.125 0 1 1 1029.4,185.01Z" style="fill:none;stroke:#F15A60;stroke-width:0.625" />
<path d="M1036.3,126.52L1036.3,126.52A3.125,3.125 0 1 1 1030.1,126.52A3.125,3.125 0 1 1 1036.3,126.52Z" style="fill:none;stroke:#F15A60;stroke-width:0.625" />
<path d="M1043.3,53.314A3.125,3.125 0 1 1 1037.1,53.314A3.125,3.125 0 1 1 1043.3,53.314Z" style="fill:none;stroke:#F15A60;stroke-width:0.625" />
<path d="M1050.3,78.31A3.125,3.125 0 1 1 1044,78.31A3.125,3.125 0 1 1 1050.3,78.31Z" style="fill:none;stroke:#F15A60;stroke-width:0.625" />
<path d="M1057.2,108.21L1057.2,108.21A3.125,3.125 0 1 1 1051,108.21A3.125,3.125 0 1 1 1057.2,108.21Z" style="fill:none;stroke:#F15A60;stroke-width:0.625" />
<path d="M1064.2,212.21A3.125,3.125 0 1 1 1057.9,212.21A3.125,3.125 0 1 1 1064.2,212.21Z" style="fill:none;stroke:#F15A60;stroke-width:0.625" />
<path d="M1071.1,146.36A3.125,3.125 0 1 1 1064.9,146.36A3.125,3.125 0 1 1 1071.1,146.36Z" style="fill:none;stroke:#F15A60;stroke-width:0.625" />
<path d="M1078.1,288.27A3.125,3.125 0 1 1 1071.9,288.27A3.125,3.125 0 1 1 1078.1,288.27Z" style="fill:none;stroke:#F15A60;stroke-width:0.625" />
<path d="M1085.1,316.83L1085.1,316.83A3.125,3.125 0 1 1 1078.8,316.83A3.125,3.125 0 1 1 1085.1,316.83Z" style="fill:none;stroke:#F15A60;stroke-width:0.625" />
<path d="M1092,358.25A3.125,3.125 0 1 1 1085.8,358.25A3.125,3.125 0 1 1 1092,358.25Z" style="fill:none;stroke:#F15A60;stroke-width:0.625" />
<path d="M1099,375.51A3.125,3.125 0 1 1 1092.7,375.51A3.125,3.125 0 1 1 1099,375.51Z" style="fill:none;stroke:#F15A60;stroke-width:0.625" />
<path d="M1105.9,574.23A3.125,3.125 0 1 1 1099.7,574.23A3.125,3.125 0 1 1 1105.9,574.23Z" style="fill:none;stroke:#F15A60;stroke-width:0.625" />
<path d="M1112.9,561.14L1112.9,561.14A3.125,3.125 0 1 1 1106.7,561.14A3.125,3.125 0 1 1 1112.9,561.14Z" style="fill:none;stroke:#F15A60;stroke-width:0.625" />
<path d="M1119.9,642.69A3.125,3.125 0 1 1 1113.6,642.69A3.125,3.125 0 1 1 1119.9,642.69Z" style="fill:none;stroke:#F15A60;stroke-width:0.625" />
<path d="M1126.8,618.43L1126.8,618.43A3.125,3.125 0 1 1 1120.6,618.43A3.125,3.125 0 1 1 1126.8,618.43Z" style="fill:none;stroke:#F15A60;stroke-width:0.625" />
<path d="M1133.8,657A3.125,3.125 0 1 1 1127.5,657A3.125,3.125 0 1 1 1133.8,657Z" style="fill:none;stroke:#F15A60;stroke-width:0.625" />
<path d="M1140.7,765.22L1140.7,765.22A3.125,3.125 0 1 1 1134.5,765.22A3.125,3.125 0 1 1 1140.7,765.22Z" style="fill:none;stroke:#F15A60;stroke-width:0.625" />
<path d="M1147.7,758.59A3.125,3.125 0 1 1 1141.4,758.59A3.125,3.125 0 1 1 1147.7,758.59Z" style="fill:none;stroke:#F15A60;stroke-width:0.625" />
<path d="M1154.7,789.31A3.125,3.125 0 1 1 1148.4,789.31A3.125,3.125 0 1 1 1154.7,789.31Z" style="fill:none;stroke:#F15A60;stroke-width:0.625" />
<path d="M1161.6,716.53L1161.6,716.53A3.125,3.125 0 1 1 1155.4,716.53A3.125,3.125 0 1 1 1161.6,716.53Z" style="fill:none;stroke:#F15A60;stroke-width:0.625" />
<path d="M1168.6,626.65A3.125,3.125 0 1 1 1162.3,626.65A3.125,3.125 0 1 1 1168.6,626.65Z" style="fill:none;stroke:#F15A60;stroke-width:0.625" />
<path d="M1175.5,714.6A3.125,3.125 0 1 1 1169.3,714.6A3.125,3.125 0 1 1 1175.5,714.6Z" style="fill:none;stroke:#F15A60;stroke-width:0.625" />
<path d="M1182.5,598.34L1182.5,598.34A3.125,3.125 0 1 1 1176.2,598.34A3.125,3.125 0 1 1 1182.5,598.34Z" style="fill:none;stroke:#F15A60;stroke-width:0.625" />
<path d="M1189.5,530.65A3.125,3.125 0 1 1 1183.2,530.65A3.125,3.125 0 1 1 1189.5,530.65Z" style="fill:none;stroke:#F15A60;stroke-width:0.625" />
<path d="M1196.4,568.63A3.125,3.125 0 1 1 1190.2,568.63A3.125,3.125 0 1 1 1196.4,568.63Z" style="fill:none;stroke:#F15A60;stroke-width:0.625" />
<path d="M1203.4,441.3A3.125,3.125 0 1 1 1197.1,441.3A3.125,3.125 0 1 1 1203.4,441.3Z" style="fill:none;stroke:#F15A60;stroke-width:0.625" />
<path d="M1210.3,451.92L1210.3,451.92A3.125,3.125 0 1 1 1204.1,451.92A3.125,3.125 0 1 1 1210.3,451.92Z" style="fill:none;stroke:#F15A60;stroke-width:0.625" />
<path d="M1217.3,379.36A3.125,3.125 0 1 1 1211,379.36A3.125,3.125 0 1 1 1217.3,379.36Z" style="fill:none;stroke:#F15A60;stroke-width:0.625" />
<path d="M1224.3,321.19A3.125,3.125 0 1 1 1218,321.19A3.125,3.125 0 1 1 1224.3,321.19Z" style="fill:none;stroke:#F15A60;stroke-width:0.625" />
<path d="M1231.2,343.48L1231.2,343.48A3.125,3.125 0 1 1 1225,343.48A3.125,3.125 0 1 1 1231.2,343.48Z" style="fill:none;stroke:#F15A60;stroke-width:0.625" />
<path d="M1238.2,363.25A3.125,3.125 0 1 1 1231.9,363.25A3.125,3.125 0 1 1 1238.2,363.25Z" style="fill:none;stroke:#F15A60;stroke-width:0.625" />
<path d="M1245.1,414.1A3.125,3.125 0 1 1 1238.9,414.1A3.125,3.125 0 1 1 1245.1,414.1Z" style="fill:none;stroke:#F15A60;stroke-width:0.625" />
<path d="M1252.1,327.7A3.125,3.125 0 1 1 1245.8,327.7A3.125,3.125 0 1 1 1252.1,327.7Z" style="fill:none;stroke:#F15A60;stroke-width:0.625" />
<path d="M1259.1,411.28A3.125,3.125 0 1 1 1252.8,411.28A3.125,3.125 0 1 1 1259.1,411.28Z" style="fill:none;stroke:#F15A60;stroke-width:0.625" />
<path d="M1266,383.57A3.125,3.125 0 1 1 1259.8,383.57A3.125,3.125 0 1 1 1266,383.57Z" style="fill:none;stroke:#F15A60;stroke-width:0.625" />
<path d="M1273,519.68A3.125,3.125 0 1 1 1266.7,519.68A3.125,3.125 0 1 1 1273,519.68Z" style="fill:none;stroke:#F15A60;stroke-width:0.625" />
<path d="M1279.9,504.98A3.125,3.125 0 1 1 1273.7,504.98A3.125,3.125 0 1 1 1279.9,504.98Z" style="fill:none;stroke:#F15A60;stroke-width:0.625" />
<path d="M1286.9,535.61L1286.9,535.61A3.125,3.125 0 1 1 1280.6,535.61A3.125,3.125 0 1 1 1286.9,535.61Z" style="fill:none;stroke:#F15A60;stroke-width:0.625" />
<path d="M1293.8,565.69L1293.8,565.69A3.125,3.125 0 1 1 1287.6,565.69A3.125,3.125 0 1 1 1293.8,565.69Z" style="fill:none;stroke:#F15A60;stroke-width:0.625" />
<path d="M1300.8,523.99A3.125,3.125 0 1 1 1294.6,523.99A3.125,3.125 0 1 1 1300.8,523.99Z" style="fill:none;stroke:#F15A60;stroke-width:0.625" />
<path d="M1307.8,578.11L1307.8,578.11A3.125,3.125 0 1 1 1301.5,578.11A3.125,3.125 0 1 1 1307.8,578.11Z" style="fill:none;stroke:#F15A60;stroke-width:0.625" />
<path d="M1314.7,412.76A3.125,3.125 0 1 1 1308.5,412.76A3.125,3.125 0 1 1 1314.7,412.76Z" style="fill:none;stroke:#F15A60;stroke-width:0.625" />
<path d="M1321.7,548.46L1321.7,548.46A3.125,3.125 0 1 1 1315.4,548.46A3.125,3.125 0 1 1 1321.7,548.46Z" style="fill:none;stroke:#F15A60;stroke-width:0.625" />
<path d="M1328.6,404.48A3.125,3.125 0 1 1 1322.4,404.48A3.125,3.125 0 1 1 1328.6,404.48Z" style="fill:none;stroke:#F15A60;stroke-width:0.625" />
<path d="M1335.6,357.98L1335.6,357.98A3.125,3.125 0 1 1 1329.4,357.98A3.125,3.125 0 1 1 1335.6,357.98Z" style="fill:none;stroke:#F15A60;stroke-width:0.625" />
<path d="M1342.6,425.63A3.125,3.125 0 1 1 1336.3,425.63A3.125,3.125 0 1 1 1342.6,425.63Z" style="fill:none;stroke:#F15A60;stroke-width:0.625" />
<path d="M1349.5,350.62L1349.5,350.62A3.125,3.125 0 1 1 1343.3,350.62A3.125,3.125 0 1 1 1349.5,350.62Z" style="fill:none;stroke:#F15A60;stroke-width:0.625" />
<path d="M1356.5,224.71L1356.5,224.71A3.125,3.125 0 1 1 1350.2,224.71A3.125,3.125 0 1 1 1356.5,224.71Z" style="fill:none;stroke:#F15A60;stroke-width:0.625" />
<path d="M1363.4,194.87L1363.4,194.87A3.125,3.125 0 1 1 1357.2,194.87A3.125,3.125 0 1 1 1363.4,194.87Z" style="fill:none;stroke:#F15A60;stroke-width:0.625" />
<path d="M1370.4,216.74A3.125,3.125 0 1 1 1364.2,216.74A3.125,3.125 0 1 1 1370.4,216.74Z" style="fill:none;stroke:#F15A60;stroke-width:0.625" />
<path d="M1377.4,92.907A3.125,3.125 0 1 1 1371.1,92.907A3.125,3.125 0 1 1 1377.4,92.907Z" style="fill:none;stroke:#F15A60;stroke-width:0.625" />
<path d="M1384.3,104.39A3.125,3.125 0 1 1 1378.1,104.39A3.125,3.125 0 1 1 1384.3,104.39Z" style="fill:none;stroke:#F15A60;stroke-width:0.625" />
<path d="M1391.3,162.56L1391.3,162.56A3.125,3.125 0 1 1 1385,162.56A3.125,3.125 0 1 1 1391.3,162.56Z" style="fill:none;stroke:#F15A60;stroke-width:0.625" />
<path d="M1398.2,206.48A3.125,3.125 0 1 1 1392,206.48A3.125,3.125 0 1 1 1398.2,206.48Z" style="fill:none;stroke:#F15A60;stroke-width:0.625" />
<path d="M1405.2,176.24L1405.2,176.24A3.125,3.125 0 1 1 1399,176.24A3.125,3.125 0 1 1 1405.2,176.24Z" style="fill:none;stroke:#F15A60;stroke-width:0.625" />
<path d="M1412.2,236.76A3.125,3.125 0 1 1 1405.9,236.76A3.125,3.125 0 1 1 1412.2,236.76Z" style="fill:none;stroke:#F15A60;stroke-width:0.625" />
<path d="M1419.1,184.63L1419.1,184.63A3.125,3.125 0 1 1 1412.9,184.63A3.125,3.125 0 1 1 1419.1,184.63Z" style="fill:none;stroke:#F15A60;stroke-width:0.625" />
<path d="M1426.1,197.86A3.125,3.125 0 1 1 1419.8,197.86A3.125,3.125 0 1 1 1426.1,197.86Z" style="fill:none;stroke:#F15A60;stroke-width:0.625" />
<path d="M1433,240.03L1433,240.03A3.125,3.125 0 1 1 1426.8,240.03A3.125,3.125 0 1 1 1433,240.03Z" style="fill:none;stroke:#F15A60;stroke-width:0.625" />
<path d="M1440,309.95A3.125,3.125 0 1 1 1433.8,309.95A3.125,3.125 0 1 1 1440,309.95Z" style="fill:none;stroke:#F15A60;stroke-width:0.625" />
<path d="M51.925,635.74L58.885,671.2L65.844,682.86L72.804,680.11L79.763,675.3L86.723,668.81L93.682,651.32L100.64,610.44L107.6,574.71L114.56,551.74L121.52,512.64L128.48,477.95L135.44,455.84L142.4,430.74L149.36,417.45L156.32,403.01L163.28,394.33L170.24,396.71L177.2,406.39L184.16,413.4L191.12,426.63L198.08,432.16L205.04,435.15L211.99,451.85L218.95,460.8L225.91,451.65L232.87,449.8L239.83,432.3L246.79,415.77L253.75,387.08L260.71,346.14L267.67,323.51L274.63,302.69L281.59,268.14L288.55,224.11L295.51,211.03L302.47,199.49L309.43,194.07L316.39,179.22L323.35,184.67L330.31,210.69L337.27,237.41L344.23,263.58L351.19,310.21L358.15,362.94L365.1,400.93L372.06,452.71L379.02,498.04L385.98,560.51L392.94,599.79L399.9,639.46L406.86,664.93L413.82,692.01L420.78,686.7L427.74,684.15L434.7,675.1L441.66,647.14L448.62,637.1L455.58,608.5L462.54,570.35L469.5,521.86L476.46,489.13L483.42,448.09L490.38,433.91L497.34,421.4L504.3,413.76L511.26,407.4L518.21,399.01L525.17,397.87L532.13,419.71L539.09,436.06L546.05,446.33L553.01,466.86L559.97,473.04L566.93,480.5L573.89,484.28L580.85,484.6L587.81,472.69L594.77,459.18L601.73,421.48L608.69,388.39L615.65,352.05L622.61,309.6L629.57,278.68L636.53,248.57L643.49,217.09L650.45,200.15L657.41,187.72L664.37,175.79L671.32,188.16L678.28,217.86L685.24,250.12L692.2,295.57L699.16,333.83L706.12,370L713.08,421.97L720.04,471.15L727,529.06L733.96,582.08L740.92,626.4L747.88,660.27L754.84,684.64L761.8,690.67L768.76,693.24L775.72,698.76L782.68,679.39L789.64,653.19L796.6,615.7L803.56,575.11L810.52,544.08L817.48,509.1L824.43,469.49L831.39,438.41L838.35,425.43L845.31,409.14L852.27,408.93L859.23,407.39L866.19,406.1L873.15,422.81L880.11,427.51L887.07,439.01L894.03,467.87L900.99,483.38L907.95,478.6L914.91,476.34L921.87,474.94L928.83,467.1L935.79,455.37L942.75,433.75L949.71,416.63L956.67,383.03L963.63,343.77L970.59,310.07L977.54,275.59L984.5,240.32L991.46,204.68L998.42,187.34L1005.4,173.06L1012.3,170.39L1019.3,172.34L1026.3,187.33L1033.2,206.38L1040.2,251.15L1047.1,301.93L1054.1,358.37L1061.1,409.39L1068,453.87L1075,515.76L1081.9,562.79L1088.9,610.04L1095.9,645.87L1102.8,670.98L1109.8,685.02L1116.7,688.74L1123.7,677.53L1130.7,672.55L1137.6,650.98L1144.6,619.65L1151.5,581.73L1158.5,534.92L1165.5,497.61L1172.4,471.27L1179.4,441.22L1186.3,414.16L1193.3,402.22L1200.3,383.71L1207.2,391.55L1214.2,396.86L1221.1,412.48L1228.1,436.93L1235,454.98L1242,476.47L1249,476.34L1255.9,498.41L1262.9,497.73L1269.8,495.17L1276.8,485.77L1283.8,470.33L1290.7,439.24L1297.7,402.16L1304.6,371.44L1311.6,322.92L1318.6,292.08L1325.5,253.49L1332.5,233.69L1339.4,215.52L1346.4,196.63L1353.4,180.03L1360.3,177.34L1367.3,181.86L1374.2,191.18L1381.2,202.1L1388.2,214.31L1395.1,221.71L1402.1,224.24L1409,233.85L1416,233.12L1423,249.28L1429.9,274.99L1436.9,309.95" style="fill:none;stroke:#7AC36A;stroke-width:1.25;stroke-dasharray:7.5,2.5" />
<path d="M49.258,633.07L54.592,633.07L54.592,638.41L49.258,638.41Z" style="fill:none;stroke:#7AC36A;stroke-width:0.625" />
<path d="M56.217,668.53L61.552,668.53L61.552,673.86L56.217,673.86Z" style="fill:none;stroke:#7AC36A;stroke-width:0.625" />
<path d="M63.177,680.19L68.511,680.19L68.511,685.53L63.177,685.53Z" style="fill:none;stroke:#7AC36A;stroke-width:0.625" />
<path d="M70.136,677.44L75.471,677.44L75.471,682.78L70.136,682.78Z" style="fill:none;stroke:#7AC36A;stroke-width:0.625" />
<path d="M77.096,672.64L82.431,672.64L82.431,677.97L77.096,677.97Z" style="fill:none;stroke:#7AC36A;stroke-width:0.625" />
<path d="M84.055,666.14L89.39,666.14L89.39,671.48L84.055,671.48Z" style="fill:none;stroke:#7AC36A;stroke-width:0.625" />
<path d="M91.015,648.66L96.35,648.66L96.35,653.99L91.015,653.99Z" style="fill:none;stroke:#7AC36A;stroke-width:0.625" />
<path d="M97.974,607.77L103.31,607.77L103.31,613.11L97.974,613.11Z" style="fill:none;stroke:#7AC36A;stroke-width:0.625" />
<path d="M104.93,572.04L110.27,572.04L110.27,577.38L104.93,577.38Z" style="fill:none;stroke:#7AC36A;stroke-width:0.625" />
<path d="M111.89,549.07L117.23,549.07L117.23,554.41L111.89,554.41Z" style="fill:none;stroke:#7AC36A;stroke-width:0.625" />
<path d="M118.85,509.97L124.19,509.97L124.19,515.31L118.85,515.31Z" style="fill:none;stroke:#7AC36A;stroke-width:0.625" />
<path d="M125.81,475.29L131.15,475.29L131.15,480.62L125.81,480.62Z" style="fill:none;stroke:#7AC36A;stroke-width:0.625" />
<path d="M132.77,453.18L138.11,453.18L138.11,458.51L132.77,458.51Z" style="fill:none;stroke:#7AC36A;stroke-width:0.625" />
<path d="M139.73,428.07L145.07,428.07L145.07,433.4L139.73,433.4Z" style="fill:none;stroke:#7AC36A;stroke-width:0.625" />
<path d="M146.69,414.79L152.03,414.79L152.03,420.12L146.69,420.12Z" style="fill:none;stroke:#7AC36A;stroke-width:0.625" />
<path d="M153.65,400.34L158.99,400.34L158.99,405.67L153.65,405.67Z" style="fill:none;stroke:#7AC36A;stroke-width:0.625" />
<path d="M160.61,391.67L165.95,391.67L165.95,397L160.61,397Z" style="fill:none;stroke:#7AC36A;stroke-width:0.625" />
<path d="M167.57,394.04L172.9,394.04L172.9,399.38L167.57,399.38Z" style="fill:none;stroke:#7AC36A;stroke-width:0.625" />
<path d="M174.53,403.72L179.86,403.72L179.86,409.06L174.53,409.06Z" style="fill:none;stroke:#7AC36A;stroke-width:0.625" />
<path d="M181.49,410.73L186.82,410.73L186.82,416.07L181.49,416.07Z" style="fill:none;stroke:#7AC36A;stroke-width:0.625" />
<path d="M188.45,423.96L193.78,423.96L193.78,429.3L188.45,429.3Z" style="fill:none;stroke:#7AC36A;stroke-width:0.625" />
<path d="M195.41,429.5L200.74,429.5L200.74,434.83L195.41,434.83Z" style="fill:none;stroke:#7AC36A;stroke-width:0.625" />
<path d="M202.37,432.49L207.7,432.49L207.7,437.82L202.37,437.82Z" style="fill:none;stroke:#7AC36A;stroke-width:0.625" />
<path d="M209.33,449.18L214.66,449.18L214.66,454.51L209.33,454.51Z" style="fill:none;stroke:#7AC36A;stroke-width:0.625" />
<path d="M216.29,458.14L221.62,458.14L221.62,463.47L216.29,463.47Z" style="fill:none;stroke:#7AC36A;stroke-width:0.625" />
<path d="M223.25,448.98L228.58,448.98L228.58,454.31L223.25,454.31Z" style="fill:none;stroke:#7AC36A;stroke-width:0.625" />
<path d="M230.21,447.13L235.54,447.13L235.54,452.46L230.21,452.46Z" style="fill:none;stroke:#7AC36A;stroke-width:0.625" />
<path d="M237.17,429.63L242.5,429.63L242.5,434.97L237.17,434.97Z" style="fill:none;stroke:#7AC36A;stroke-width:0.625" />
<path d="M244.12,413.1L249.46,413.1L249.46,418.43L244.12,418.43Z" style="fill:none;stroke:#7AC36A;stroke-width:0.625" />
<path d="M251.08,384.41L256.42,384.41L256.42,389.74L251.08,389.74Z" style="fill:none;stroke:#7AC36A;stroke-width:0.625" />
<path d="M258.04,343.47L263.38,343.47L263.38,348.8L258.04,348.8Z" style="fill:none;stroke:#7AC36A;stroke-width:0.625" />
<path d="M265,320.84L270.34,320.84L270.34,326.18L265,326.18Z" style="fill:none;stroke:#7AC36A;stroke-width:0.625" />
<path d="M271.96,300.02L277.3,300.02L277.3,305.36L271.96,305.36Z" style="fill:none;stroke:#7AC36A;stroke-width:0.625" />
<path d="M278.92,265.48L284.26,265.48L284.26,270.81L278.92,270.81Z" style="fill:none;stroke:#7AC36A;stroke-width:0.625" />
<path d="M285.88,221.45L291.22,221.45L291.22,226.78L285.88,226.78Z" style="fill:none;stroke:#7AC36A;stroke-width:0.625" />
<path d="M292.84,208.36L298.18,208.36L298.18,213.69L292.84,213.69Z" style="fill:none;stroke:#7AC36A;stroke-width:0.625" />
<path d="M299.8,196.83L305.14,196.83L305.14,202.16L299.8,202.16Z" style="fill:none;stroke:#7AC36A;stroke-width:0.625" />
<path d="M306.76,191.4L312.1,191.4L312.1,196.74L306.76,196.74Z" style="fill:none;stroke:#7AC36A;stroke-width:0.625" />
<path d="M313.72,176.55L319.06,176.55L319.06,181.89L313.72,181.89Z" style="fill:none;stroke:#7AC36A;stroke-width:0.625" />
<path d="M320.68,182L326.01,182L326.01,187.34L320.68,187.34Z" style="fill:none;stroke:#7AC36A;stroke-width:0.625" />
<path d="M327.64,208.03L332.97,208.03L332.97,213.36L327.64,213.36Z" style="fill:none;stroke:#7AC36A;stroke-width:0.625" />
<path d="M334.6,234.75L339.93,234.75L339.93,240.08L334.6,240.08Z" style="fill:none;stroke:#7AC36A;stroke-width:0.625" />
<path d="M341.56,260.92L346.89,260.92L346.89,266.25L341.56,266.25Z" style="fill:none;stroke:#7AC36A;stroke-width:0.625" />
<path d="M348.52,307.54L353.85,307.54L353.85,312.88L348.52,312.88Z" style="fill:none;stroke:#7AC36A;stroke-width:0.625" />
<path d="M355.48,360.27L360.81,360.27L360.81,365.61L355.48,365.61Z" style="fill:none;stroke:#7AC36A;stroke-width:0.625" />
<path d="M362.44,398.27L367.77,398.27L367.77,403.6L362.44,403.6Z" style="fill:none;stroke:#7AC36A;stroke-width:0.625" />
<path d="M369.4,450.04L374.73,450.04L374.73,455.37L369.4,455.37Z" style="fill:none;stroke:#7AC36A;stroke-width:0.625" />
<path d="M376.36,495.37L381.69,495.37L381.69,500.7L376.36,500.7Z" style="fill:none;stroke:#7AC36A;stroke-width:0.625" />
<path d="M383.32,557.84L388.65,557.84L388.65,563.18L383.32,563.18Z" style="fill:none;stroke:#7AC36A;stroke-width:0.625" />
<path d="M390.28,597.12L395.61,597.12L395.61,602.46L390.28,602.46Z" style="fill:none;stroke:#7AC36A;stroke-width:0.625" />
<path d="M397.24,636.8L402.57,636.8L402.57,642.13L397.24,642.13Z" style="fill:none;stroke:#7AC36A;stroke-width:0.625" />
<path d="M404.19,662.26L409.53,662.26L409.53,667.6L404.19,667.6Z" style="fill:none;stroke:#7AC36A;stroke-width:0.625" />
<path d="M411.15,689.34L416.49,689.34L416.49,694.68L411.15,694.68Z" style="fill:none;stroke:#7AC36A;stroke-width:0.625" />
<path d="M418.11,684.03L423.45,684.03L423.45,689.37L418.11,689.37Z" style="fill:none;stroke:#7AC36A;stroke-width:0.625" />
<path d="M425.07,681.48L430.41,681.48L430.41,686.81L425.07,686.81Z" style="fill:none;stroke:#7AC36A;stroke-width:0.625" />
<path d="M432.03,672.43L437.37,672.43L437.37,677.77L432.03,677.77Z" style="fill:none;stroke:#7AC36A;stroke-width:0.625" />
<path d="M438.99,644.47L444.33,644.47L444.33,649.8L438.99,649.8Z" style="fill:none;stroke:#7AC36A;stroke-width:0.625" />
<path d="M445.95,634.44L451.29,634.44L451.29,639.77L445.95,639.77Z" style="fill:none;stroke:#7AC36A;stroke-width:0.625" />
<path d="M452.91,605.83L458.25,605.83L458.25,611.16L452.91,611.16Z" style="fill:none;stroke:#7AC36A;stroke-width:0.625" />
<path d="M459.87,567.68L465.21,567.68L465.21,573.02L459.87,573.02Z" style="fill:none;stroke:#7AC36A;stroke-width:0.625" />
<path d="M466.83,519.19L472.17,519.19L472.17,524.53L466.83,524.53Z" style="fill:none;stroke:#7AC36A;stroke-width:0.625" />
<path d="M473.79,486.46L479.12,486.46L479.12,491.8L473.79,491.8Z" style="fill:none;stroke:#7AC36A;stroke-width:0.625" />
<path d="M480.75,445.42L486.08,445.42L486.08,450.76L480.75,450.76Z" style="fill:none;stroke:#7AC36A;stroke-width:0.625" />
<path d="M487.71,431.25L493.04,431.25L493.04,436.58L487.71,436.58Z" style="fill:none;stroke:#7AC36A;stroke-width:0.625" />
<path d="M494.67,418.73L500,418.73L500,424.07L494.67,424.07Z" style="fill:none;stroke:#7AC36A;stroke-width:0.625" />
<path d="M501.63,411.1L506.96,411.1L506.96,416.43L501.63,416.43Z" style="fill:none;stroke:#7AC36A;stroke-width:0.625" />
<path d="M508.59,404.73L513.92,404.73L513.92,410.07L508.59,410.07Z" style="fill:none;stroke:#7AC36A;stroke-width:0.625" />
<path d="M515.55,396.34L520.88,396.34L520.88,401.68L515.55,401.68Z" style="fill:none;stroke:#7AC36A;stroke-width:0.625" />
<path d="M522.51,395.2L527.84,395.2L527.84,400.54L522.51,400.54Z" style="fill:none;stroke:#7AC36A;stroke-width:0.625" />
<path d="M529.47,417.04L534.8,417.04L534.8,422.37L529.47,422.37Z" style="fill:none;stroke:#7AC36A;stroke-width:0.625" />
<path d="M536.43,433.39L541.76,433.39L541.76,438.73L536.43,438.73Z" style="fill:none;stroke:#7AC36A;stroke-width:0.625" />
<path d="M543.39,443.66L548.72,443.66L548.72,449L543.39,449Z" style="fill:none;stroke:#7AC36A;stroke-width:0.625" />
<path d="M550.35,464.19L555.68,464.19L555.68,469.53L550.35,469.53Z" style="fill:none;stroke:#7AC36A;stroke-width:0.625" />
<path d="M557.3,470.37L562.64,470.37L562.64,475.71L557.3,475.71Z" style="fill:none;stroke:#7AC36A;stroke-width:0.625" />
<path d="M564.26,477.83L569.6,477.83L569.6,483.17L564.26,483.17Z" style="fill:none;stroke:#7AC36A;stroke-width:0.625" />
<path d="M571.22,481.61L576.56,481.61L576.56,486.95L571.22,486.95Z" style="fill:none;stroke:#7AC36A;stroke-width:0.625" />
<path d="M578.18,481.94L583.52,481.94L583.52,487.27L578.18,487.27Z" style="fill:none;stroke:#7AC36A;stroke-width:0.625" />
<path d="M585.14,470.02L590.48,470.02L590.48,475.36L585.14,475.36Z" style="fill:none;stroke:#7AC36A;stroke-width:0.625" />
<path d="M592.1,456.51L597.44,456.51L597.44,461.85L592.1,461.85Z" style="fill:none;stroke:#7AC36A;stroke-width:0.625" />
<path d="M599.06,418.81L604.4,418.81L604.4,424.15L599.06,424.15Z" style="fill:none;stroke:#7AC36A;stroke-width:0.625" />
<path d="M606.02,385.72L611.36,385.72L611.36,391.05L606.02,391.05Z" style="fill:none;stroke:#7AC36A;stroke-width:0.625" />
<path d="M612.98,349.39L618.32,349.39L618.32,354.72L612.98,354.72Z" style="fill:none;stroke:#7AC36A;stroke-width:0.625" />
<path d="M619.94,306.93L625.28,306.93L625.28,312.27L619.94,312.27Z" style="fill:none;stroke:#7AC36A;stroke-width:0.625" />
<path d="M626.9,276.01L632.23,276.01L632.23,281.34L626.9,281.34Z" style="fill:none;stroke:#7AC36A;stroke-width:0.625" />
<path d="M633.86,245.9L639.19,245.9L639.19,251.24L633.86,251.24Z" style="fill:none;stroke:#7AC36A;stroke-width:0.625" />
<path d="M640.82,214.43L646.15,214.43L646.15,219.76L640.82,219.76Z" style="fill:none;stroke:#7AC36A;stroke-width:0.625" />
<path d="M647.78,197.48L653.11,197.48L653.11,202.82L647.78,202.82Z" style="fill:none;stroke:#7AC36A;stroke-width:0.625" />
<path d="M654.74,185.05L660.07,185.05L660.07,190.38L654.74,190.38Z" style="fill:none;stroke:#7AC36A;stroke-width:0.625" />
<path d="M661.7,173.12L667.03,173.12L667.03,178.45L661.7,178.45Z" style="fill:none;stroke:#7AC36A;stroke-width:0.625" />
<path d="M668.66,185.49L673.99,185.49L673.99,190.82L668.66,190.82Z" style="fill:none;stroke:#7AC36A;stroke-width:0.625" />
<path d="M675.62,215.2L680.95,215.2L680.95,220.53L675.62,220.53Z" style="fill:none;stroke:#7AC36A;stroke-width:0.625" />
<path d="M682.58,247.45L687.91,247.45L687.91,252.78L682.58,252.78Z" style="fill:none;stroke:#7AC36A;stroke-width:0.625" />
<path d="M689.54,292.9L694.87,292.9L694.87,298.24L689.54,298.24Z" style="fill:none;stroke:#7AC36A;stroke-width:0.625" />
<path d="M696.5,331.16L701.83,331.16L701.83,336.49L696.5,336.49Z" style="fill:none;stroke:#7AC36A;stroke-width:0.625" />
<path d="M703.46,367.34L708.79,367.34L708.79,372.67L703.46,372.67Z" style="fill:none;stroke:#7AC36A;stroke-width:0.625" />
<path d="M710.41,419.31L715.75,419.31L715.75,424.64L710.41,424.64Z" style="fill:none;stroke:#7AC36A;stroke-width:0.625" />
<path d="M717.37,468.49L722.71,468.49L722.71,473.82L717.37,473.82Z" style="fill:none;stroke:#7AC36A;stroke-width:0.625" />
<path d="M724.33,526.39L729.67,526.39L729.67,531.72L724.33,531.72Z" style="fill:none;stroke:#7AC36A;stroke-width:0.625" />
<path d="M731.29,579.41L736.63,579.41L736.63,584.74L731.29,584.74Z" style="fill:none;stroke:#7AC36A;stroke-width:0.625" />
<path d="M738.25,623.73L743.59,623.73L743.59,629.07L738.25,629.07Z" style="fill:none;stroke:#7AC36A;stroke-width:0.625" />
<path d="M745.21,657.61L750.55,657.61L750.55,662.94L745.21,662.94Z" style="fill:none;stroke:#7AC36A;stroke-width:0.625" />
<path d="M752.17,681.97L757.51,681.97L757.51,687.31L752.17,687.31Z" style="fill:none;stroke:#7AC36A;stroke-width:0.625" />
<path d="M759.13,688.01L764.47,688.01L764.47,693.34L759.13,693.34Z" style="fill:none;stroke:#7AC36A;stroke-width:0.625" />
<path d="M766.09,690.57L771.43,690.57L771.43,695.9L766.09,695.9Z" style="fill:none;stroke:#7AC36A;stroke-width:0.625" />
<path d="M773.05,696.1L778.39,696.1L778.39,701.43L773.05,701.43Z" style="fill:none;stroke:#7AC36A;stroke-width:0.625" />
<path d="M780.01,676.72L785.34,676.72L785.34,682.06L780.01,682.06Z" style="fill:none;stroke:#7AC36A;stroke-width:0.625" />
<path d="M786.97,650.53L792.3,650.53L792.3,655.86L786.97,655.86Z" style="fill:none;stroke:#7AC36A;stroke-width:0.625" />
<path d="M793.93,613.03L799.26,613.03L799.26,618.37L793.93,618.37Z" style="fill:none;stroke:#7AC36A;stroke-width:0.625" />
<path d="M800.89,572.44L806.22,572.44L806.22,577.78L800.89,577.78Z" style="fill:none;stroke:#7AC36A;stroke-width:0.625" />
<path d="M807.85,541.41L813.18,541.41L813.18,546.75L807.85,546.75Z" style="fill:none;stroke:#7AC36A;stroke-width:0.625" />
<path d="M814.81,506.43L820.14,506.43L820.14,511.76L814.81,511.76Z" style="fill:none;stroke:#7AC36A;stroke-width:0.625" />
<path d="M821.77,466.82L827.1,466.82L827.1,472.16L821.77,472.16Z" style="fill:none;stroke:#7AC36A;stroke-width:0.625" />
<path d="M828.73,435.74L834.06,435.74L834.06,441.07L828.73,441.07Z" style="fill:none;stroke:#7AC36A;stroke-width:0.625" />
<path d="M835.69,422.76L841.02,422.76L841.02,428.09L835.69,428.09Z" style="fill:none;stroke:#7AC36A;stroke-width:0.625" />
<path d="M842.65,406.48L847.98,406.48L847.98,411.81L842.65,411.81Z" style="fill:none;stroke:#7AC36A;stroke-width:0.625" />
<path d="M849.61,406.26L854.94,406.26L854.94,411.59L849.61,411.59Z" style="fill:none;stroke:#7AC36A;stroke-width:0.625" />
<path d="M856.57,404.72L861.9,404.72L861.9,410.06L856.57,410.06Z" style="fill:none;stroke:#7AC36A;stroke-width:0.625" />
<path d="M863.52,403.44L868.86,403.44L868.86,408.77L863.52,408.77Z" style="fill:none;stroke:#7AC36A;stroke-width:0.625" />
<path d="M870.48,420.14L875.82,420.14L875.82,425.48L870.48,425.48Z" style="fill:none;stroke:#7AC36A;stroke-width:0.625" />
<path d="M877.44,424.85L882.78,424.85L882.78,430.18L877.44,430.18Z" style="fill:none;stroke:#7AC36A;stroke-width:0.625" />
<path d="M884.4,436.35L889.74,436.35L889.74,441.68L884.4,441.68Z" style="fill:none;stroke:#7AC36A;stroke-width:0.625" />
<path d="M891.36,465.2L896.7,465.2L896.7,470.54L891.36,470.54Z" style="fill:none;stroke:#7AC36A;stroke-width:0.625" />
<path d="M898.32,480.71L903.66,480.71L903.66,486.04L898.32,486.04Z" style="fill:none;stroke:#7AC36A;stroke-width:0.625" />
<path d="M905.28,475.94L910.62,475.94L910.62,481.27L905.28,481.27Z" style="fill:none;stroke:#7AC36A;stroke-width:0.625" />
<path d="M912.24,473.67L917.58,473.67L917.58,479.01L912.24,479.01Z" style="fill:none;stroke:#7AC36A;stroke-width:0.625" />
<path d="M919.2,472.28L924.54,472.28L924.54,477.61L919.2,477.61Z" style="fill:none;stroke:#7AC36A;stroke-width:0.625" />
<path d="M926.16,464.43L931.5,464.43L931.5,469.76L926.16,469.76Z" style="fill:none;stroke:#7AC36A;stroke-width:0.625" />
<path d="M933.12,452.7L938.45,452.7L938.45,458.04L933.12,458.04Z" style="fill:none;stroke:#7AC36A;stroke-width:0.625" />
<path d="M940.08,431.08L945.41,431.08L945.41,436.42L940.08,436.42Z" style="fill:none;stroke:#7AC36A;stroke-width:0.625" />
<path d="M947.04,413.97L952.37,413.97L952.37,419.3L947.04,419.3Z" style="fill:none;stroke:#7AC36A;stroke-width:0.625" />
<path d="M954,380.36L959.33,380.36L959.33,385.7L954,385.7Z" style="fill:none;stroke:#7AC36A;stroke-width:0.625" />
<path d="M960.96,341.1L966.29,341.1L966.29,346.43L960.96,346.43Z" style="fill:none;stroke:#7AC36A;stroke-width:0.625" />
<path d="M967.92,307.4L973.25,307.4L973.25,312.74L967.92,312.74Z" style="fill:none;stroke:#7AC36A;stroke-width:0.625" />
<path d="M974.88,272.93L980.21,272.93L980.21,278.26L974.88,278.26Z" style="fill:none;stroke:#7AC36A;stroke-width:0.625" />
<path d="M981.84,237.65L987.17,237.65L987.17,242.99L981.84,242.99Z" style="fill:none;stroke:#7AC36A;stroke-width:0.625" />
<path d="M988.8,202.01L994.13,202.01L994.13,207.34L988.8,207.34Z" style="fill:none;stroke:#7AC36A;stroke-width:0.625" />
<path d="M995.76,184.67L1001.1,184.67L1001.1,190L995.76,190Z" style="fill:none;stroke:#7AC36A;stroke-width:0.625" />
<path d="M1002.7,170.39L1008.1,170.39L1008.1,175.72L1002.7,175.72Z" style="fill:none;stroke:#7AC36A;stroke-width:0.625" />
<path d="M1009.7,167.72L1015,167.72L1015,173.05L1009.7,173.05Z" style="fill:none;stroke:#7AC36A;stroke-width:0.625" />
<path d="M1016.6,169.67L1022,169.67L1022,175.01L1016.6,175.01Z" style="fill:none;stroke:#7AC36A;stroke-width:0.625" />
<path d="M1023.6,184.66L1028.9,184.66L1028.9,190L1023.6,190Z" style="fill:none;stroke:#7AC36A;stroke-width:0.625" />
<path d="M1030.6,203.71L1035.9,203.71L1035.9,209.05L1030.6,209.05Z" style="fill:none;stroke:#7AC36A;stroke-width:0.625" />
<path d="M1037.5,248.48L1042.8,248.48L1042.8,253.82L1037.5,253.82Z" style="fill:none;stroke:#7AC36A;stroke-width:0.625" />
<path d="M1044.5,299.26L1049.8,299.26L1049.8,304.6L1044.5,304.6Z" style="fill:none;stroke:#7AC36A;stroke-width:0.625" />
<path d="M1051.4,355.7L1056.8,355.7L1056.8,361.04L1051.4,361.04Z" style="fill:none;stroke:#7AC36A;stroke-width:0.625" />
<path d="M1058.4,406.72L1063.7,406.72L1063.7,412.06L1058.4,412.06Z" style="fill:none;stroke:#7AC36A;stroke-width:0.625" />
<path d="M1065.4,451.2L1070.7,451.2L1070.7,456.54L1065.4,456.54Z" style="fill:none;stroke:#7AC36A;stroke-width:0.625" />
<path d="M1072.3,513.09L1077.6,513.09L1077.6,518.42L1072.3,518.42Z" style="fill:none;stroke:#7AC36A;stroke-width:0.625" />
<path d="M1079.3,560.12L1084.6,560.12L1084.6,565.46L1079.3,565.46Z" style="fill:none;stroke:#7AC36A;stroke-width:0.625" />
<path d="M1086.2,607.37L1091.6,607.37L1091.6,612.7L1086.2,612.7Z" style="fill:none;stroke:#7AC36A;stroke-width:0.625" />
<path d="M1093.2,643.2L1098.5,643.2L1098.5,648.53L1093.2,648.53Z" style="fill:none;stroke:#7AC36A;stroke-width:0.625" />
<path d="M1100.1,668.31L1105.5,668.31L1105.5,673.65L1100.1,673.65Z" style="fill:none;stroke:#7AC36A;stroke-width:0.625" />
<path d="M1107.1,682.35L1112.4,682.35L1112.4,687.68L1107.1,687.68Z" style="fill:none;stroke:#7AC36A;stroke-width:0.625" />
<path d="M1114.1,686.07L1119.4,686.07L1119.4,691.4L1114.1,691.4Z" style="fill:none;stroke:#7AC36A;stroke-width:0.625" />
<path d="M1121,674.86L1126.4,674.86L1126.4,680.2L1121,680.2Z" style="fill:none;stroke:#7AC36A;stroke-width:0.625" />
<path d="M1128,669.88L1133.3,669.88L1133.3,675.22L1128,675.22Z" style="fill:none;stroke:#7AC36A;stroke-width:0.625" />
<path d="M1134.9,648.31L1140.3,648.31L1140.3,653.65L1134.9,653.65Z" style="fill:none;stroke:#7AC36A;stroke-width:0.625" />
<path d="M1141.9,616.98L1147.2,616.98L1147.2,622.32L1141.9,622.32Z" style="fill:none;stroke:#7AC36A;stroke-width:0.625" />
<path d="M1148.9,579.06L1154.2,579.06L1154.2,584.39L1148.9,584.39Z" style="fill:none;stroke:#7AC36A;stroke-width:0.625" />
<path d="M1155.8,532.25L1161.2,532.25L1161.2,537.58L1155.8,537.58Z" style="fill:none;stroke:#7AC36A;stroke-width:0.625" />
<path d="M1162.8,494.94L1168.1,494.94L1168.1,500.28L1162.8,500.28Z" style="fill:none;stroke:#7AC36A;stroke-width:0.625" />
<path d="M1169.7,468.6L1175.1,468.6L1175.1,473.94L1169.7,473.94Z" style="fill:none;stroke:#7AC36A;stroke-width:0.625" />
<path d="M1176.7,438.55L1182,438.55L1182,443.89L1176.7,443.89Z" style="fill:none;stroke:#7AC36A;stroke-width:0.625" />
<path d="M1183.7,411.49L1189,411.49L1189,416.82L1183.7,416.82Z" style="fill:none;stroke:#7AC36A;stroke-width:0.625" />
<path d="M1190.6,399.55L1196,399.55L1196,404.89L1190.6,404.89Z" style="fill:none;stroke:#7AC36A;stroke-width:0.625" />
<path d="M1197.6,381.05L1202.9,381.05L1202.9,386.38L1197.6,386.38Z" style="fill:none;stroke:#7AC36A;stroke-width:0.625" />
<path d="M1204.5,388.88L1209.9,388.88L1209.9,394.22L1204.5,394.22Z" style="fill:none;stroke:#7AC36A;stroke-width:0.625" />
<path d="M1211.5,394.19L1216.8,394.19L1216.8,399.53L1211.5,399.53Z" style="fill:none;stroke:#7AC36A;stroke-width:0.625" />
<path d="M1218.5,409.82L1223.8,409.82L1223.8,415.15L1218.5,415.15Z" style="fill:none;stroke:#7AC36A;stroke-width:0.625" />
<path d="M1225.4,434.27L1230.8,434.27L1230.8,439.6L1225.4,439.6Z" style="fill:none;stroke:#7AC36A;stroke-width:0.625" />
<path d="M1232.4,452.32L1237.7,452.32L1237.7,457.65L1232.4,457.65Z" style="fill:none;stroke:#7AC36A;stroke-width:0.625" />
<path d="M1239.3,473.8L1244.7,473.8L1244.7,479.14L1239.3,479.14Z" style="fill:none;stroke:#7AC36A;stroke-width:0.625" />
<path d="M1246.3,473.67L1251.6,473.67L1251.6,479L1246.3,479Z" style="fill:none;stroke:#7AC36A;stroke-width:0.625" />
<path d="M1253.3,495.75L1258.6,495.75L1258.6,501.08L1253.3,501.08Z" style="fill:none;stroke:#7AC36A;stroke-width:0.625" />
<path d="M1260.2,495.07L1265.6,495.07L1265.6,500.4L1260.2,500.4Z" style="fill:none;stroke:#7AC36A;stroke-width:0.625" />
<path d="M1267.2,492.51L1272.5,492.51L1272.5,497.84L1267.2,497.84Z" style="fill:none;stroke:#7AC36A;stroke-width:0.625" />
<path d="M1274.1,483.1L1279.5,483.1L1279.5,488.44L1274.1,488.44Z" style="fill:none;stroke:#7AC36A;stroke-width:0.625" />
<path d="M1281.1,467.67L1286.4,467.67L1286.4,473L1281.1,473Z" style="fill:none;stroke:#7AC36A;stroke-width:0.625" />
<path d="M1288.1,436.58L1293.4,436.58L1293.4,441.91L1288.1,441.91Z" style="fill:none;stroke:#7AC36A;stroke-width:0.625" />
<path d="M1295,399.49L1300.4,399.49L1300.4,404.83L1295,404.83Z" style="fill:none;stroke:#7AC36A;stroke-width:0.625" />
<path d="M1302,368.77L1307.3,368.77L1307.3,374.1L1302,374.1Z" style="fill:none;stroke:#7AC36A;stroke-width:0.625" />
<path d="M1308.9,320.25L1314.3,320.25L1314.3,325.58L1308.9,325.58Z" style="fill:none;stroke:#7AC36A;stroke-width:0.625" />
<path d="M1315.9,289.41L1321.2,289.41L1321.2,294.75L1315.9,294.75Z" style="fill:none;stroke:#7AC36A;stroke-width:0.625" />
<path d="M1322.9,250.82L1328.2,250.82L1328.2,256.16L1322.9,256.16Z" style="fill:none;stroke:#7AC36A;stroke-width:0.625" />
<path d="M1329.8,231.02L1335.1,231.02L1335.1,236.36L1329.8,236.36Z" style="fill:none;stroke:#7AC36A;stroke-width:0.625" />
<path d="M1336.8,212.85L1342.1,212.85L1342.1,218.18L1336.8,218.18Z" style="fill:none;stroke:#7AC36A;stroke-width:0.625" />
<path d="M1343.7,193.96L1349.1,193.96L1349.1,199.3L1343.7,199.3Z" style="fill:none;stroke:#7AC36A;stroke-width:0.625" />
<path d="M1350.7,177.36L1356,177.36L1356,182.7L1350.7,182.7Z" style="fill:none;stroke:#7AC36A;stroke-width:0.625" />
<path d="M1357.7,174.68L1363,174.68L1363,180.01L1357.7,180.01Z" style="fill:none;stroke:#7AC36A;stroke-width:0.625" />
<path d="M1364.6,179.19L1369.9,179.19L1369.9,184.53L1364.6,184.53Z" style="fill:none;stroke:#7AC36A;stroke-width:0.625" />
<path d="M1371.6,188.51L1376.9,188.51L1376.9,193.85L1371.6,193.85Z" style="fill:none;stroke:#7AC36A;stroke-width:0.625" />
<path d="M1378.5,199.43L1383.9,199.43L1383.9,204.77L1378.5,204.77Z" style="fill:none;stroke:#7AC36A;stroke-width:0.625" />
<path d="M1385.5,211.65L1390.8,211.65L1390.8,216.98L1385.5,216.98Z" style="fill:none;stroke:#7AC36A;stroke-width:0.625" />
<path d="M1392.5,219.04L1397.8,219.04L1397.8,224.37L1392.5,224.37Z" style="fill:none;stroke:#7AC36A;stroke-width:0.625" />
<path d="M1399.4,221.58L1404.7,221.58L1404.7,226.91L1399.4,226.91Z" style="fill:none;stroke:#7AC36A;stroke-width:0.625" />
<path d="M1406.4,231.18L1411.7,231.18L1411.7,236.51L1406.4,236.51Z" style="fill:none;stroke:#7AC36A;stroke-width:0.625" />
<path d="M1413.3,230.45L1418.7,230.45L1418.7,235.79L1413.3,235.79Z" style="fill:none;stroke:#7AC36A;stroke-width:0.625" />
<path d="M1420.3,246.61L1425.6,246.61L1425.6,251.95L1420.3,251.95Z" style="fill:none;stroke:#7AC36A;stroke-width:0.625" />
<path d="M1427.2,272.32L1432.6,272.32L1432.6,277.66L1427.2,277.66Z" style="fill:none;stroke:#7AC36A;stroke-width:0.625" />
<path d="M1434.2,307.28L1439.5,307.28L1439.5,312.62L1434.2,312.62Z" style="fill:none;stroke:#7AC36A;stroke-width:0.625" />
<path d="M1415,66.978L1440,66.978" style="fill:none;stroke:#F15A60;stroke-width:1.25" />
<path d="M1430.6,66.978A3.125,3.125 0 1 1 1424.4,66.978A3.125,3.125 0 1 1 1430.6,66.978Z" style="fill:none;stroke:#F15A60;stroke-width:0.625" />
<text x="1388.8" y="-61.188" transform="scale(1, -1)"
	style="font-family:Times;font-weight:normal;font-style:normal;font-size:12pt">raw</text>
<path d="M1415,53.117L1440,53.117" style="fill:none;stroke:#7AC36A;stroke-width:1.25;stroke-dasharray:7.5,2.5" />
<path d="M1424.8,50.45L1430.2,50.45L1430.2,55.785L1424.8,55.785Z" style="fill:none;stroke:#7AC36A;stroke-width:0.625" />
<text x="1367.1" y="-47.328" transform="scale(1, -1)"
	style="font-family:Times;font-weight:normal;font-style:normal;font-size:12pt">smooth</text>
</g>
</svg>
