<?xml version="1.0"?>
<!-- Generated by SVGo and Plotinum VG -->
<svg width="16in" height="9in"
	xmlns="http://www.w3.org/2000/svg"
	xmlns:xlink="http://www.w3.org/1999/xlink">
<g transform="scale(1, -1) translate(0, -810)">
<path d="M0,0L1440,0L1440,810L0,810Z" style="fill:#FFFFFF" />
<text x="738.98" y="-5.355" transform="scale(1, -1)"
	style="font-family:Times;font-weight:normal;font-style:normal;font-size:12pt">X</text>
<text x="48.8" y="-19.025" transform="scale(1, -1)"
	style="font-family:Times;font-weight:normal;font-style:normal;font-size:10pt">0</text>
<text x="463.25" y="-19.025" transform="scale(1, -1)"
	style="font-family:Times;font-weight:normal;font-style:normal;font-size:10pt">60</text>
<text x="877.7" y="-19.025" transform="scale(1, -1)"
	style="font-family:Times;font-weight:normal;font-style:normal;font-size:10pt">120</text>
<text x="1295.3" y="-19.025" transform="scale(1, -1)"
	style="font-family:Times;font-weight:normal;font-style:normal;font-size:10pt">180</text>
<path d="M51.925,29.625L51.925,39.625" style="fill:none;stroke:#000000;stroke-width:0.625" />
<path d="M469.5,29.625L469.5,39.625" style="fill:none;stroke:#000000;stroke-width:0.625" />
<path d="M887.07,29.625L887.07,39.625" style="fill:none;stroke:#000000;stroke-width:0.625" />
<path d="M1304.6,29.625L1304.6,39.625" style="fill:none;stroke:#000000;stroke-width:0.625" />
<path d="M191.12,34.625L191.12,39.625" style="fill:none;stroke:#000000;stroke-width:0.625" />
<path d="M330.31,34.625L330.31,39.625" style="fill:none;stroke:#000000;stroke-width:0.625" />
<path d="M608.69,34.625L608.69,39.625" style="fill:none;stroke:#000000;stroke-width:0.625" />
<path d="M747.88,34.625L747.88,39.625" style="fill:none;stroke:#000000;stroke-width:0.625" />
<path d="M1026.3,34.625L1026.3,39.625" style="fill:none;stroke:#000000;stroke-width:0.625" />
<path d="M1165.5,34.625L1165.5,39.625" style="fill:none;stroke:#000000;stroke-width:0.625" />
<path d="M51.925,39.625L1436.9,39.625" style="fill:none;stroke:#000000;stroke-width:0.625" />
<g transform="rotate(90)">
<text x="422.68" y="12.72" transform="scale(1, -1)"
	style="font-family:Times;font-weight:normal;font-style:normal;font-size:12pt">Y</text>
</g>
<text x="18.075" y="-186.07" transform="scale(1, -1)"
	style="font-family:Times;font-weight:normal;font-style:normal;font-size:10pt">-1</text>
<text x="22.237" y="-344.19" transform="scale(1, -1)"
	style="font-family:Times;font-weight:normal;font-style:normal;font-size:10pt">0</text>
<text x="22.237" y="-502.31" transform="scale(1, -1)"
	style="font-family:Times;font-weight:normal;font-style:normal;font-size:10pt">1</text>
<text x="22.237" y="-660.44" transform="scale(1, -1)"
	style="font-family:Times;font-weight:normal;font-style:normal;font-size:10pt">2</text>
<path d="M31.613,190.89L41.612,190.89" style="fill:none;stroke:#000000;stroke-width:0.625" />
<path d="M31.613,349.02L41.612,349.02" style="fill:none;stroke:#000000;stroke-width:0.625" />
<path d="M31.613,507.14L41.612,507.14" style="fill:none;stroke:#000000;stroke-width:0.625" />
<path d="M31.613,665.26L41.612,665.26" style="fill:none;stroke:#000000;stroke-width:0.625" />
<path d="M36.612,111.83L41.612,111.83" style="fill:none;stroke:#000000;stroke-width:0.625" />
<path d="M36.612,269.95L41.612,269.95" style="fill:none;stroke:#000000;stroke-width:0.625" />
<path d="M36.612,428.08L41.612,428.08" style="fill:none;stroke:#000000;stroke-width:0.625" />
<path d="M36.612,586.2L41.612,586.2" style="fill:none;stroke:#000000;stroke-width:0.625" />
<path d="M36.612,744.33L41.612,744.33" style="fill:none;stroke:#000000;stroke-width:0.625" />
<path d="M41.612,49.313L41.612,806.88" style="fill:none;stroke:#000000;stroke-width:0.625" />
<path d="M51.925,395.94L58.885,527.6L65.844,574.92L72.804,767.48L79.763,721.29L86.723,668.93L93.682,721.25L100.64,570.87L107.6,423.2L114.56,357.11L121.52,303.56L128.48,363.78L135.44,289.01L142.4,285.42L149.36,339.97L156.32,480.37L163.28,464.72L170.24,419.56L177.2,420.73L184.16,320.6L191.12,328.84L198.08,301.41L205.04,189.29L211.99,204.58L218.95,272.11L225.91,378.48L232.87,461.85L239.83,436.86L246.79,541.13L253.75,707.94L260.71,777.05L267.67,682.13L274.63,684.43L281.59,543.65L288.55,549.15L295.51,427.25L302.47,255.64L309.43,253.96L316.39,251.26L323.35,207.37L330.31,152.26L337.27,349.89L344.23,410.59L351.19,387.52L358.15,365.17L365.1,465.86L372.06,484.18L379.02,450.69L385.98,370.53L392.94,421.39L399.9,328.54L406.86,317.34L413.82,468.18L420.78,398.08L427.74,594.24L434.7,584.21L441.66,731.38L448.62,694.2L455.58,734.17L462.54,553.89L469.5,501.97L476.46,396.58L483.42,298.93L490.38,295.68L497.34,224.33L504.3,52.472L511.26,71.195L518.21,195.12L525.17,225.02L532.13,395.75L539.09,483.71L546.05,544.8L553.01,555.69L559.97,588.83L566.93,588.66L573.89,583.67L580.85,471.29L587.81,440.21L594.77,468.3L601.73,435.48L608.69,501.58L615.65,539.78L622.61,570.26L629.57,569.68L636.53,641.33L643.49,487.4L650.45,457.53L657.41,392.04L664.37,311.14L671.32,289.77L678.28,243.34L685.24,144.2L692.2,200.47L699.16,170.01L706.12,222.53L713.08,316.83L720.04,512.01L727,559.84L733.96,692.11L740.92,676.86L747.88,645.82L754.84,678.33L761.8,648.71L768.76,601.26L775.72,493.97L782.68,398.38L789.64,415.17L796.6,338.46L803.56,319.79L810.52,343.31L817.48,452.3L824.43,392.64L831.39,437.1L838.35,401L845.31,341.78L852.27,363.14L859.23,327.51L866.19,157.57L873.15,149.21L880.11,274.49L887.07,311.52L894.03,392.94L900.99,459.04L907.95,493.48L914.91,688.01L921.87,689.21L928.83,785.7L935.79,806.88L942.75,659.45L949.71,532.48L956.67,485.48L963.63,444.85L970.59,321.58L977.54,213.56L984.5,253.13L991.46,285.52L998.42,275.83L1005.4,335.65L1012.3,356.84L1019.3,343.82L1026.3,390.06L1033.2,406.14L1040.2,458.45L1047.1,332.35L1054.1,386.99L1061.1,342.14L1068,325.77L1075,311.78L1081.9,490.38L1088.9,496.4L1095.9,600.9L1102.8,607.21L1109.8,656.97L1116.7,746.35L1123.7,701.47L1130.7,663.67L1137.6,512.15L1144.6,339.5L1151.5,340.22L1158.5,179.19L1165.5,99.515L1172.4,158.77L1179.4,106.48L1186.3,211.56L1193.3,256.88L1200.3,314.83L1207.2,429.56L1214.2,512.29L1221.1,587.13L1228.1,500.2L1235,540.31L1242,461.83L1249,531.53L1255.9,474.8L1262.9,481.63L1269.8,514.53L1276.8,506.3L1283.8,602.87L1290.7,503.54L1297.7,672.57L1304.6,566.39L1311.6,523.92L1318.6,559.55L1325.5,443.3L1332.5,270.05L1339.4,188.32L1346.4,171.4L1353.4,49.313L1360.3,85.253L1367.3,196.65L1374.2,319.41L1381.2,384.79L1388.2,527.17L1395.1,543.45L1402.1,583.54L1409,606.8L1416,612.2L1423,559.72L1429.9,589.79L1436.9,490.82" style="fill:none;stroke:#F15A60;stroke-width:1.25" />
<path d="M55.05,395.94A3.125,3.125 0 1 1 48.8,395.94A3.125,3.125 0 1 1 55.05,395.94Z" style="fill:none;stroke:#F15A60;stroke-width:0.625" />
<path d="M62.01,527.6A3.125,3.125 0 1 1 55.76,527.6A3.125,3.125 0 1 1 62.01,527.6Z" style="fill:none;stroke:#F15A60;stroke-width:0.625" />
<path d="M68.969,574.92A3.125,3.125 0 1 1 62.719,574.92A3.125,3.125 0 1 1 68.969,574.92Z" style="fill:none;stroke:#F15A60;stroke-width:0.625" />
<path d="M75.929,767.48A3.125,3.125 0 1 1 69.679,767.48A3.125,3.125 0 1 1 75.929,767.48Z" style="fill:none;stroke:#F15A60;stroke-width:0.625" />
<path d="M82.888,721.29L82.888,721.29A3.125,3.125 0 1 1 76.638,721.29A3.125,3.125 0 1 1 82.888,721.29Z" style="fill:none;stroke:#F15A60;stroke-width:0.625" />
<path d="M89.848,668.93L89.848,668.93A3.125,3.125 0 1 1 83.598,668.93A3.125,3.125 0 1 1 89.848,668.93Z" style="fill:none;stroke:#F15A60;stroke-width:0.625" />
<path d="M96.807,721.25L96.807,721.25A3.125,3.125 0 1 1 90.557,721.25A3.125,3.125 0 1 1 96.807,721.25Z" style="fill:none;stroke:#F15A60;stroke-width:0.625" />
<path d="M103.77,570.87L103.77,570.87A3.125,3.125 0 1 1 97.517,570.87A3.125,3.125 0 1 1 103.77,570.87Z" style="fill:none;stroke:#F15A60;stroke-width:0.625" />
<path d="M110.73,423.2L110.73,423.2A3.125,3.125 0 1 1 104.48,423.2A3.125,3.125 0 1 1 110.73,423.2Z" style="fill:none;stroke:#F15A60;stroke-width:0.625" />
<path d="M117.69,357.11L117.69,357.11A3.125,3.125 0 1 1 111.44,357.11A3.125,3.125 0 1 1 117.69,357.11Z" style="fill:none;stroke:#F15A60;stroke-width:0.625" />
<path d="M124.65,303.56A3.125,3.125 0 1 1 118.4,303.56A3.125,3.125 0 1 1 124.65,303.56Z" style="fill:none;stroke:#F15A60;stroke-width:0.625" />
<path d="M131.61,363.78A3.125,3.125 0 1 1 125.36,363.78A3.125,3.125 0 1 1 131.61,363.78Z" style="fill:none;stroke:#F15A60;stroke-width:0.625" />
<path d="M138.56,289.01A3.125,3.125 0 1 1 132.31,289.01A3.125,3.125 0 1 1 138.56,289.01Z" style="fill:none;stroke:#F15A60;stroke-width:0.625" />
<path d="M145.52,285.42A3.125,3.125 0 1 1 139.27,285.42A3.125,3.125 0 1 1 145.52,285.42Z" style="fill:none;stroke:#F15A60;stroke-width:0.625" />
<path d="M152.48,339.97A3.125,3.125 0 1 1 146.23,339.97A3.125,3.125 0 1 1 152.48,339.97Z" style="fill:none;stroke:#F15A60;stroke-width:0.625" />
<path d="M159.44,480.37A3.125,3.125 0 1 1 153.19,480.37A3.125,3.125 0 1 1 159.44,480.37Z" style="fill:none;stroke:#F15A60;stroke-width:0.625" />
<path d="M166.4,464.72A3.125,3.125 0 1 1 160.15,464.72A3.125,3.125 0 1 1 166.4,464.72Z" style="fill:none;stroke:#F15A60;stroke-width:0.625" />
<path d="M173.36,419.56A3.125,3.125 0 1 1 167.11,419.56A3.125,3.125 0 1 1 173.36,419.56Z" style="fill:none;stroke:#F15A60;stroke-width:0.625" />
<path d="M180.32,420.73L180.32,420.73A3.125,3.125 0 1 1 174.07,420.73A3.125,3.125 0 1 1 180.32,420.73Z" style="fill:none;stroke:#F15A60;stroke-width:0.625" />
<path d="M187.28,320.6A3.125,3.125 0 1 1 181.03,320.6A3.125,3.125 0 1 1 187.28,320.6Z" style="fill:none;stroke:#F15A60;stroke-width:0.625" />
<path d="M194.24,328.84L194.24,328.84A3.125,3.125 0 1 1 187.99,328.84A3.125,3.125 0 1 1 194.24,328.84Z" style="fill:none;stroke:#F15A60;stroke-width:0.625" />
<path d="M201.2,301.41A3.125,3.125 0 1 1 194.95,301.41A3.125,3.125 0 1 1 201.2,301.41Z" style="fill:none;stroke:#F15A60;stroke-width:0.625" />
<path d="M208.16,189.29A3.125,3.125 0 1 1 201.91,189.29A3.125,3.125 0 1 1 208.16,189.29Z" style="fill:none;stroke:#F15A60;stroke-width:0.625" />
<path d="M215.12,204.58A3.125,3.125 0 1 1 208.87,204.58A3.125,3.125 0 1 1 215.12,204.58Z" style="fill:none;stroke:#F15A60;stroke-width:0.625" />
<path d="M222.08,272.11L222.08,272.11A3.125,3.125 0 1 1 215.83,272.11A3.125,3.125 0 1 1 222.08,272.11Z" style="fill:none;stroke:#F15A60;stroke-width:0.625" />
<path d="M229.04,378.48A3.125,3.125 0 1 1 222.79,378.48A3.125,3.125 0 1 1 229.04,378.48Z" style="fill:none;stroke:#F15A60;stroke-width:0.625" />
<path d="M236,461.85A3.125,3.125 0 1 1 229.75,461.85A3.125,3.125 0 1 1 236,461.85Z" style="fill:none;stroke:#F15A60;stroke-width:0.625" />
<path d="M242.96,436.86A3.125,3.125 0 1 1 236.71,436.86A3.125,3.125 0 1 1 242.96,436.86Z" style="fill:none;stroke:#F15A60;stroke-width:0.625" />
<path d="M249.92,541.13L249.92,541.13A3.125,3.125 0 1 1 243.67,541.13A3.125,3.125 0 1 1 249.92,541.13Z" style="fill:none;stroke:#F15A60;stroke-width:0.625" />
<path d="M256.88,707.94L256.88,707.94A3.125,3.125 0 1 1 250.63,707.94A3.125,3.125 0 1 1 256.88,707.94Z" style="fill:none;stroke:#F15A60;stroke-width:0.625" />
<path d="M263.84,777.05A3.125,3.125 0 1 1 257.59,777.05A3.125,3.125 0 1 1 263.84,777.05Z" style="fill:none;stroke:#F15A60;stroke-width:0.625" />
<path d="M270.8,682.13A3.125,3.125 0 1 1 264.55,682.13A3.125,3.125 0 1 1 270.8,682.13Z" style="fill:none;stroke:#F15A60;stroke-width:0.625" />
<path d="M277.76,684.43L277.76,684.43A3.125,3.125 0 1 1 271.51,684.43A3.125,3.125 0 1 1 277.76,684.43Z" style="fill:none;stroke:#F15A60;stroke-width:0.625" />
<path d="M284.72,543.65A3.125,3.125 0 1 1 278.47,543.65A3.125,3.125 0 1 1 284.72,543.65Z" style="fill:none;stroke:#F15A60;stroke-width:0.625" />
<path d="M291.67,549.15L291.67,549.15A3.125,3.125 0 1 1 285.42,549.15A3.125,3.125 0 1 1 291.67,549.15Z" style="fill:none;stroke:#F15A60;stroke-width:0.625" />
<path d="M298.63,427.25A3.125,3.125 0 1 1 292.38,427.25A3.125,3.125 0 1 1 298.63,427.25Z" style="fill:none;stroke:#F15A60;stroke-width:0.625" />
<path d="M305.59,255.64A3.125,3.125 0 1 1 299.34,255.64A3.125,3.125 0 1 1 305.59,255.64Z" style="fill:none;stroke:#F15A60;stroke-width:0.625" />
<path d="M312.55,253.96A3.125,3.125 0 1 1 306.3,253.96A3.125,3.125 0 1 1 312.55,253.96Z" style="fill:none;stroke:#F15A60;stroke-width:0.625" />
<path d="M319.51,251.26A3.125,3.125 0 1 1 313.26,251.26A3.125,3.125 0 1 1 319.51,251.26Z" style="fill:none;stroke:#F15A60;stroke-width:0.625" />
<path d="M326.47,207.37A3.125,3.125 0 1 1 320.22,207.37A3.125,3.125 0 1 1 326.47,207.37Z" style="fill:none;stroke:#F15A60;stroke-width:0.625" />
<path d="M333.43,152.26L333.43,152.26A3.125,3.125 0 1 1 327.18,152.26A3.125,3.125 0 1 1 333.43,152.26Z" style="fill:none;stroke:#F15A60;stroke-width:0.625" />
<path d="M340.39,349.89A3.125,3.125 0 1 1 334.14,349.89A3.125,3.125 0 1 1 340.39,349.89Z" style="fill:none;stroke:#F15A60;stroke-width:0.625" />
<path d="M347.35,410.59L347.35,410.59A3.125,3.125 0 1 1 341.1,410.59A3.125,3.125 0 1 1 347.35,410.59Z" style="fill:none;stroke:#F15A60;stroke-width:0.625" />
<path d="M354.31,387.52A3.125,3.125 0 1 1 348.06,387.52A3.125,3.125 0 1 1 354.31,387.52Z" style="fill:none;stroke:#F15A60;stroke-width:0.625" />
<path d="M361.27,365.17L361.27,365.17A3.125,3.125 0 1 1 355.02,365.17A3.125,3.125 0 1 1 361.27,365.17Z" style="fill:none;stroke:#F15A60;stroke-width:0.625" />
<path d="M368.23,465.86A3.125,3.125 0 1 1 361.98,465.86A3.125,3.125 0 1 1 368.23,465.86Z" style="fill:none;stroke:#F15A60;stroke-width:0.625" />
<path d="M375.19,484.18A3.125,3.125 0 1 1 368.94,484.18A3.125,3.125 0 1 1 375.19,484.18Z" style="fill:none;stroke:#F15A60;stroke-width:0.625" />
<path d="M382.15,450.69A3.125,3.125 0 1 1 375.9,450.69A3.125,3.125 0 1 1 382.15,450.69Z" style="fill:none;stroke:#F15A60;stroke-width:0.625" />
<path d="M389.11,370.53A3.125,3.125 0 1 1 382.86,370.53A3.125,3.125 0 1 1 389.11,370.53Z" style="fill:none;stroke:#F15A60;stroke-width:0.625" />
<path d="M396.07,421.39A3.125,3.125 0 1 1 389.82,421.39A3.125,3.125 0 1 1 396.07,421.39Z" style="fill:none;stroke:#F15A60;stroke-width:0.625" />
<path d="M403.03,328.54L403.03,328.54A3.125,3.125 0 1 1 396.78,328.54A3.125,3.125 0 1 1 403.03,328.54Z" style="fill:none;stroke:#F15A60;stroke-width:0.625" />
<path d="M409.99,317.34A3.125,3.125 0 1 1 403.74,317.34A3.125,3.125 0 1 1 409.99,317.34Z" style="fill:none;stroke:#F15A60;stroke-width:0.625" />
<path d="M416.95,468.18A3.125,3.125 0 1 1 410.7,468.18A3.125,3.125 0 1 1 416.95,468.18Z" style="fill:none;stroke:#F15A60;stroke-width:0.625" />
<path d="M423.91,398.08L423.91,398.08A3.125,3.125 0 1 1 417.66,398.08A3.125,3.125 0 1 1 423.91,398.08Z" style="fill:none;stroke:#F15A60;stroke-width:0.625" />
<path d="M430.87,594.24A3.125,3.125 0 1 1 424.62,594.24A3.125,3.125 0 1 1 430.87,594.24Z" style="fill:none;stroke:#F15A60;stroke-width:0.625" />
<path d="M437.83,584.21A3.125,3.125 0 1 1 431.58,584.21A3.125,3.125 0 1 1 437.83,584.21Z" style="fill:none;stroke:#F15A60;stroke-width:0.625" />
<path d="M444.78,731.38A3.125,3.125 0 1 1 438.53,731.38A3.125,3.125 0 1 1 444.78,731.38Z" style="fill:none;stroke:#F15A60;stroke-width:0.625" />
<path d="M451.74,694.2L451.74,694.2A3.125,3.125 0 1 1 445.49,694.2A3.125,3.125 0 1 1 451.74,694.2Z" style="fill:none;stroke:#F15A60;stroke-width:0.625" />
<path d="M458.7,734.17L458.7,734.17A3.125,3.125 0 1 1 452.45,734.17A3.125,3.125 0 1 1 458.7,734.17Z" style="fill:none;stroke:#F15A60;stroke-width:0.625" />
<path d="M465.66,553.89L465.66,553.89A3.125,3.125 0 1 1 459.41,553.89A3.125,3.125 0 1 1 465.66,553.89Z" style="fill:none;stroke:#F15A60;stroke-width:0.625" />
<path d="M472.62,501.97A3.125,3.125 0 1 1 466.37,501.97A3.125,3.125 0 1 1 472.62,501.97Z" style="fill:none;stroke:#F15A60;stroke-width:0.625" />
<path d="M479.58,396.58A3.125,3.125 0 1 1 473.33,396.58A3.125,3.125 0 1 1 479.58,396.58Z" style="fill:none;stroke:#F15A60;stroke-width:0.625" />
<path d="M486.54,298.93A3.125,3.125 0 1 1 480.29,298.93A3.125,3.125 0 1 1 486.54,298.93Z" style="fill:none;stroke:#F15A60;stroke-width:0.625" />
<path d="M493.5,295.68A3.125,3.125 0 1 1 487.25,295.68A3.125,3.125 0 1 1 493.5,295.68Z" style="fill:none;stroke:#F15A60;stroke-width:0.625" />
<path d="M500.46,224.33A3.125,3.125 0 1 1 494.21,224.33A3.125,3.125 0 1 1 500.46,224.33Z" style="fill:none;stroke:#F15A60;stroke-width:0.625" />
<path d="M507.42,52.472A3.125,3.125 0 1 1 501.17,52.472A3.125,3.125 0 1 1 507.42,52.472Z" style="fill:none;stroke:#F15A60;stroke-width:0.625" />
<path d="M514.38,71.195L514.38,71.195A3.125,3.125 0 1 1 508.13,71.195A3.125,3.125 0 1 1 514.38,71.195Z" style="fill:none;stroke:#F15A60;stroke-width:0.625" />
<path d="M521.34,195.12A3.125,3.125 0 1 1 515.09,195.12A3.125,3.125 0 1 1 521.34,195.12Z" style="fill:none;stroke:#F15A60;stroke-width:0.625" />
<path d="M528.3,225.02A3.125,3.125 0 1 1 522.05,225.02A3.125,3.125 0 1 1 528.3,225.02Z" style="fill:none;stroke:#F15A60;stroke-width:0.625" />
<path d="M535.26,395.75L535.26,395.75A3.125,3.125 0 1 1 529.01,395.75A3.125,3.125 0 1 1 535.26,395.75Z" style="fill:none;stroke:#F15A60;stroke-width:0.625" />
<path d="M542.22,483.71A3.125,3.125 0 1 1 535.97,483.71A3.125,3.125 0 1 1 542.22,483.71Z" style="fill:none;stroke:#F15A60;stroke-width:0.625" />
<path d="M549.18,544.8A3.125,3.125 0 1 1 542.93,544.8A3.125,3.125 0 1 1 549.18,544.8Z" style="fill:none;stroke:#F15A60;stroke-width:0.625" />
<path d="M556.14,555.69A3.125,3.125 0 1 1 549.89,555.69A3.125,3.125 0 1 1 556.14,555.69Z" style="fill:none;stroke:#F15A60;stroke-width:0.625" />
<path d="M563.1,588.83A3.125,3.125 0 1 1 556.85,588.83A3.125,3.125 0 1 1 563.1,588.83Z" style="fill:none;stroke:#F15A60;stroke-width:0.625" />
<path d="M570.06,588.66L570.06,588.66A3.125,3.125 0 1 1 563.81,588.66A3.125,3.125 0 1 1 570.06,588.66Z" style="fill:none;stroke:#F15A60;stroke-width:0.625" />
<path d="M577.02,583.67A3.125,3.125 0 1 1 570.77,583.67A3.125,3.125 0 1 1 577.02,583.67Z" style="fill:none;stroke:#F15A60;stroke-width:0.625" />
<path d="M583.98,471.29A3.125,3.125 0 1 1 577.73,471.29A3.125,3.125 0 1 1 583.98,471.29Z" style="fill:none;stroke:#F15A60;stroke-width:0.625" />
<path d="M590.94,440.21A3.125,3.125 0 1 1 584.69,440.21A3.125,3.125 0 1 1 590.94,440.21Z" style="fill:none;stroke:#F15A60;stroke-width:0.625" />
<path d="M597.89,468.3A3.125,3.125 0 1 1 591.64,468.3A3.125,3.125 0 1 1 597.89,468.3Z" style="fill:none;stroke:#F15A60;stroke-width:0.625" />
<path d="M604.85,435.48A3.125,3.125 0 1 1 598.6,435.48A3.125,3.125 0 1 1 604.85,435.48Z" style="fill:none;stroke:#F15A60;stroke-width:0.625" />
<path d="M611.81,501.58A3.125,3.125 0 1 1 605.56,501.58A3.125,3.125 0 1 1 611.81,501.58Z" style="fill:none;stroke:#F15A60;stroke-width:0.625" />
<path d="M618.77,539.78A3.125,3.125 0 1 1 612.52,539.78A3.125,3.125 0 1 1 618.77,539.78Z" style="fill:none;stroke:#F15A60;stroke-width:0.625" />
<path d="M625.73,570.26A3.125,3.125 0 1 1 619.48,570.26A3.125,3.125 0 1 1 625.73,570.26Z" style="fill:none;stroke:#F15A60;stroke-width:0.625" />
<path d="M632.69,569.68A3.125,3.125 0 1 1 626.44,569.68A3.125,3.125 0 1 1 632.69,569.68Z" style="fill:none;stroke:#F15A60;stroke-width:0.625" />
<path d="M639.65,641.33A3.125,3.125 0 1 1 633.4,641.33A3.125,3.125 0 1 1 639.65,641.33Z" style="fill:none;stroke:#F15A60;stroke-width:0.625" />
<path d="M646.61,487.4A3.125,3.125 0 1 1 640.36,487.4A3.125,3.125 0 1 1 646.61,487.4Z" style="fill:none;stroke:#F15A60;stroke-width:0.625" />
<path d="M653.57,457.53A3.125,3.125 0 1 1 647.32,457.53A3.125,3.125 0 1 1 653.57,457.53Z" style="fill:none;stroke:#F15A60;stroke-width:0.625" />
<path d="M660.53,392.04A3.125,3.125 0 1 1 654.28,392.04A3.125,3.125 0 1 1 660.53,392.04Z" style="fill:none;stroke:#F15A60;stroke-width:0.625" />
<path d="M667.49,311.14A3.125,3.125 0 1 1 661.24,311.14A3.125,3.125 0 1 1 667.49,311.14Z" style="fill:none;stroke:#F15A60;stroke-width:0.625" />
<path d="M674.45,289.77A3.125,3.125 0 1 1 668.2,289.77A3.125,3.125 0 1 1 674.45,289.77Z" style="fill:none;stroke:#F15A60;stroke-width:0.625" />
<path d="M681.41,243.34L681.41,243.34A3.125,3.125 0 1 1 675.16,243.34A3.125,3.125 0 1 1 681.41,243.34Z" style="fill:none;stroke:#F15A60;stroke-width:0.625" />
<path d="M688.37,144.2A3.125,3.125 0 1 1 682.12,144.2A3.125,3.125 0 1 1 688.37,144.2Z" style="fill:none;stroke:#F15A60;stroke-width:0.625" />
<path d="M695.33,200.47A3.125,3.125 0 1 1 689.08,200.47A3.125,3.125 0 1 1 695.33,200.47Z" style="fill:none;stroke:#F15A60;stroke-width:0.625" />
<path d="M702.29,170.01A3.125,3.125 0 1 1 696.04,170.01A3.125,3.125 0 1 1 702.29,170.01Z" style="fill:none;stroke:#F15A60;stroke-width:0.625" />
<path d="M709.25,222.53L709.25,222.53A3.125,3.125 0 1 1 703,222.53A3.125,3.125 0 1 1 709.25,222.53Z" style="fill:none;stroke:#F15A60;stroke-width:0.625" />
<path d="M716.21,316.83L716.21,316.83A3.125,3.125 0 1 1 709.96,316.83A3.125,3.125 0 1 1 716.21,316.83Z" style="fill:none;stroke:#F15A60;stroke-width:0.625" />
<path d="M723.17,512.01L723.17,512.01A3.125,3.125 0 1 1 716.92,512.01A3.125,3.125 0 1 1 723.17,512.01Z" style="fill:none;stroke:#F15A60;stroke-width:0.625" />
<path d="M730.13,559.84L730.13,559.84A3.125,3.125 0 1 1 723.88,559.84A3.125,3.125 0 1 1 730.13,559.84Z" style="fill:none;stroke:#F15A60;stroke-width:0.625" />
<path d="M737.09,692.11L737.09,692.11A3.125,3.125 0 1 1 730.84,692.11A3.125,3.125 0 1 1 737.09,692.11Z" style="fill:none;stroke:#F15A60;stroke-width:0.625" />
<path d="M744.05,676.86L744.05,676.86A3.125,3.125 0 1 1 737.8,676.86A3.125,3.125 0 1 1 744.05,676.86Z" style="fill:none;stroke:#F15A60;stroke-width:0.625" />
<path d="M751,645.82L751,645.82A3.125,3.125 0 1 1 744.75,645.82A3.125,3.125 0 1 1 751,645.82Z" style="fill:none;stroke:#F15A60;stroke-width:0.625" />
<path d="M757.96,678.33L757.96,678.33A3.125,3.125 0 1 1 751.71,678.33A3.125,3.125 0 1 1 757.96,678.33Z" style="fill:none;stroke:#F15A60;stroke-width:0.625" />
<path d="M764.92,648.71L764.92,648.71A3.125,3.125 0 1 1 758.67,648.71A3.125,3.125 0 1 1 764.92,648.71Z" style="fill:none;stroke:#F15A60;stroke-width:0.625" />
<path d="M771.88,601.26L771.88,601.26A3.125,3.125 0 1 1 765.63,601.26A3.125,3.125 0 1 1 771.88,601.26Z" style="fill:none;stroke:#F15A60;stroke-width:0.625" />
<path d="M778.84,493.97L778.84,493.97A3.125,3.125 0 1 1 772.59,493.97A3.125,3.125 0 1 1 778.84,493.97Z" style="fill:none;stroke:#F15A60;stroke-width:0.625" />
<path d="M785.8,398.38L785.8,398.38A3.125,3.125 0 1 1 779.55,398.38A3.125,3.125 0 1 1 785.8,398.38Z" style="fill:none;stroke:#F15A60;stroke-width:0.625" />
<path d="M792.76,415.17L792.76,415.17A3.125,3.125 0 1 1 786.51,415.17A3.125,3.125 0 1 1 792.76,415.17Z" style="fill:none;stroke:#F15A60;stroke-width:0.625" />
<path d="M799.72,338.46L799.72,338.46A3.125,3.125 0 1 1 793.47,338.46A3.125,3.125 0 1 1 799.72,338.46Z" style="fill:none;stroke:#F15A60;stroke-width:0.625" />
<path d="M806.68,319.79A3.125,3.125 0 1 1 800.43,319.79A3.125,3.125 0 1 1 806.68,319.79Z" style="fill:none;stroke:#F15A60;stroke-width:0.625" />
<path d="M813.64,343.31A3.125,3.125 0 1 1 807.39,343.31A3.125,3.125 0 1 1 813.64,343.31Z" style="fill:none;stroke:#F15A60;stroke-width:0.625" />
<path d="M820.6,452.3L820.6,452.3A3.125,3.125 0 1 1 814.35,452.3A3.125,3.125 0 1 1 820.6,452.3Z" style="fill:none;stroke:#F15A60;stroke-width:0.625" />
<path d="M827.56,392.64L827.56,392.64A3.125,3.125 0 1 1 821.31,392.64A3.125,3.125 0 1 1 827.56,392.64Z" style="fill:none;stroke:#F15A60;stroke-width:0.625" />
<path d="M834.52,437.1L834.52,437.1A3.125,3.125 0 1 1 828.27,437.1A3.125,3.125 0 1 1 834.52,437.1Z" style="fill:none;stroke:#F15A60;stroke-width:0.625" />
<path d="M841.48,401L841.48,401A3.125,3.125 0 1 1 835.23,401A3.125,3.125 0 1 1 841.48,401Z" style="fill:none;stroke:#F15A60;stroke-width:0.625" />
<path d="M848.44,341.78L848.44,341.78A3.125,3.125 0 1 1 842.19,341.78A3.125,3.125 0 1 1 848.44,341.78Z" style="fill:none;stroke:#F15A60;stroke-width:0.625" />
<path d="M855.4,363.14L855.4,363.14A3.125,3.125 0 1 1 849.15,363.14A3.125,3.125 0 1 1 855.4,363.14Z" style="fill:none;stroke:#F15A60;stroke-width:0.625" />
<path d="M862.36,327.51L862.36,327.51A3.125,3.125 0 1 1 856.11,327.51A3.125,3.125 0 1 1 862.36,327.51Z" style="fill:none;stroke:#F15A60;stroke-width:0.625" />
<path d="M869.32,157.57A3.125,3.125 0 1 1 863.07,157.57A3.125,3.125 0 1 1 869.32,157.57Z" style="fill:none;stroke:#F15A60;stroke-width:0.625" />
<path d="M876.28,149.21A3.125,3.125 0 1 1 870.03,149.21A3.125,3.125 0 1 1 876.28,149.21Z" style="fill:none;stroke:#F15A60;stroke-width:0.625" />
<path d="M883.24,274.49L883.24,274.49A3.125,3.125 0 1 1 876.99,274.49A3.125,3.125 0 1 1 883.24,274.49Z" style="fill:none;stroke:#F15A60;stroke-width:0.625" />
<path d="M890.2,311.52L890.2,311.52A3.125,3.125 0 1 1 883.95,311.52A3.125,3.125 0 1 1 890.2,311.52Z" style="fill:none;stroke:#F15A60;stroke-width:0.625" />
<path d="M897.16,392.94L897.16,392.94A3.125,3.125 0 1 1 890.91,392.94A3.125,3.125 0 1 1 897.16,392.94Z" style="fill:none;stroke:#F15A60;stroke-width:0.625" />
<path d="M904.11,459.04L904.11,459.04A3.125,3.125 0 1 1 897.86,459.04A3.125,3.125 0 1 1 904.11,459.04Z" style="fill:none;stroke:#F15A60;stroke-width:0.625" />
<path d="M911.07,493.48A3.125,3.125 0 1 1 904.82,493.48A3.125,3.125 0 1 1 911.07,493.48Z" style="fill:none;stroke:#F15A60;stroke-width:0.625" />
<path d="M918.03,688.01A3.125,3.125 0 1 1 911.78,688.01A3.125,3.125 0 1 1 918.03,688.01Z" style="fill:none;stroke:#F15A60;stroke-width:0.625" />
<path d="M924.99,689.21L924.99,689.21A3.125,3.125 0 1 1 918.74,689.21A3.125,3.125 0 1 1 924.99,689.21Z" style="fill:none;stroke:#F15A60;stroke-width:0.625" />
<path d="M931.95,785.7A3.125,3.125 0 1 1 925.7,785.7A3.125,3.125 0 1 1 931.95,785.7Z" style="fill:none;stroke:#F15A60;stroke-width:0.625" />
<path d="M938.91,806.88L938.91,806.88A3.125,3.125 0 1 1 932.66,806.88A3.125,3.125 0 1 1 938.91,806.88Z" style="fill:none;stroke:#F15A60;stroke-width:0.625" />
<path d="M945.87,659.45L945.87,659.45A3.125,3.125 0 1 1 939.62,659.45A3.125,3.125 0 1 1 945.87,659.45Z" style="fill:none;stroke:#F15A60;stroke-width:0.625" />
<path d="M952.83,532.48A3.125,3.125 0 1 1 946.58,532.48A3.125,3.125 0 1 1 952.83,532.48Z" style="fill:none;stroke:#F15A60;stroke-width:0.625" />
<path d="M959.79,485.48A3.125,3.125 0 1 1 953.54,485.48A3.125,3.125 0 1 1 959.79,485.48Z" style="fill:none;stroke:#F15A60;stroke-width:0.625" />
<path d="M966.75,444.85A3.125,3.125 0 1 1 960.5,444.85A3.125,3.125 0 1 1 966.75,444.85Z" style="fill:none;stroke:#F15A60;stroke-width:0.625" />
<path d="M973.71,321.58A3.125,3.125 0 1 1 967.46,321.58A3.125,3.125 0 1 1 973.71,321.58Z" style="fill:none;stroke:#F15A60;stroke-width:0.625" />
<path d="M980.67,213.56A3.125,3.125 0 1 1 974.42,213.56A3.125,3.125 0 1 1 980.67,213.56Z" style="fill:none;stroke:#F15A60;stroke-width:0.625" />
<path d="M987.63,253.13L987.63,253.13A3.125,3.125 0 1 1 981.38,253.13A3.125,3.125 0 1 1 987.63,253.13Z" style="fill:none;stroke:#F15A60;stroke-width:0.625" />
<path d="M994.59,285.52A3.125,3.125 0 1 1 988.34,285.52A3.125,3.125 0 1 1 994.59,285.52Z" style="fill:none;stroke:#F15A60;stroke-width:0.625" />
<path d="M1001.5,275.83L1001.5,275.83A3.125,3.125 0 1 1 995.3,275.83A3.125,3.125 0 1 1 1001.5,275.83Z" style="fill:none;stroke:#F15A60;stroke-width:0.625" />
<path d="M1008.5,335.65L1008.5,335.65A3.125,3.125 0 1 1 1002.3,335.65A3.125,3.125 0 1 1 1008.5,335.65Z" style="fill:none;stroke:#F15A60;stroke-width:0.625" />
<path d="M1015.5,356.84A3.125,3.125 0 1 1 1009.2,356.84A3.125,3.125 0 1 1 1015.5,356.84Z" style="fill:none;stroke:#F15A60;stroke-width:0.625" />
<path d="M1022.4,343.82L1022.4,343.82A3.125,3.125 0 1 1 1016.2,343.82A3.125,3.125 0 1 1 1022.4,343.82Z" style="fill:none;stroke:#F15A60;stroke-width:0.625" />
<path d="M1029.4,390.06A3.125,3.125 0 1 1 1023.1,390.06A3.125,3.125 0 1 1 1029.4,390.06Z" style="fill:none;stroke:#F15A60;stroke-width:0.625" />
<path d="M1036.3,406.14L1036.3,406.14A3.125,3.125 0 1 1 1030.1,406.14A3.125,3.125 0 1 1 1036.3,406.14Z" style="fill:none;stroke:#F15A60;stroke-width:0.625" />
<path d="M1043.3,458.45A3.125,3.125 0 1 1 1037.1,458.45A3.125,3.125 0 1 1 1043.3,458.45Z" style="fill:none;stroke:#F15A60;stroke-width:0.625" />
<path d="M1050.3,332.35A3.125,3.125 0 1 1 1044,332.35A3.125,3.125 0 1 1 1050.3,332.35Z" style="fill:none;stroke:#F15A60;stroke-width:0.625" />
<path d="M1057.2,386.99L1057.2,386.99A3.125,3.125 0 1 1 1051,386.99A3.125,3.125 0 1 1 1057.2,386.99Z" style="fill:none;stroke:#F15A60;stroke-width:0.625" />
<path d="M1064.2,342.14A3.125,3.125 0 1 1 1057.9,342.14A3.125,3.125 0 1 1 1064.2,342.14Z" style="fill:none;stroke:#F15A60;stroke-width:0.625" />
<path d="M1071.1,325.77A3.125,3.125 0 1 1 1064.9,325.77A3.125,3.125 0 1 1 1071.1,325.77Z" style="fill:none;stroke:#F15A60;stroke-width:0.625" />
<path d="M1078.1,311.78A3.125,3.125 0 1 1 1071.9,311.78A3.125,3.125 0 1 1 1078.1,311.78Z" style="fill:none;stroke:#F15A60;stroke-width:0.625" />
<path d="M1085.1,490.38L1085.1,490.38A3.125,3.125 0 1 1 1078.8,490.38A3.125,3.125 0 1 1 1085.1,490.38Z" style="fill:none;stroke:#F15A60;stroke-width:0.625" />
<path d="M1092,496.4A3.125,3.125 0 1 1 1085.8,496.4A3.125,3.125 0 1 1 1092,496.4Z" style="fill:none;stroke:#F15A60;stroke-width:0.625" />
<path d="M1099,600.9A3.125,3.125 0 1 1 1092.7,600.9A3.125,3.125 0 1 1 1099,600.9Z" style="fill:none;stroke:#F15A60;stroke-width:0.625" />
<path d="M1105.9,607.21A3.125,3.125 0 1 1 1099.7,607.21A3.125,3.125 0 1 1 1105.9,607.21Z" style="fill:none;stroke:#F15A60;stroke-width:0.625" />
<path d="M1112.9,656.97L1112.9,656.97A3.125,3.125 0 1 1 1106.7,656.97A3.125,3.125 0 1 1 1112.9,656.97Z" style="fill:none;stroke:#F15A60;stroke-width:0.625" />
<path d="M1119.9,746.35A3.125,3.125 0 1 1 1113.6,746.35A3.125,3.125 0 1 1 1119.9,746.35Z" style="fill:none;stroke:#F15A60;stroke-width:0.625" />
<path d="M1126.8,701.47L1126.8,701.47A3.125,3.125 0 1 1 1120.6,701.47A3.125,3.125 0 1 1 1126.8,701.47Z" style="fill:none;stroke:#F15A60;stroke-width:0.625" />
<path d="M1133.8,663.67A3.125,3.125 0 1 1 1127.5,663.67A3.125,3.125 0 1 1 1133.8,663.67Z" style="fill:none;stroke:#F15A60;stroke-width:0.625" />
<path d="M1140.7,512.15L1140.7,512.15A3.125,3.125 0 1 1 1134.5,512.15A3.125,3.125 0 1 1 1140.7,512.15Z" style="fill:none;stroke:#F15A60;stroke-width:0.625" />
<path d="M1147.7,339.5A3.125,3.125 0 1 1 1141.4,339.5A3.125,3.125 0 1 1 1147.7,339.5Z" style="fill:none;stroke:#F15A60;stroke-width:0.625" />
<path d="M1154.7,340.22A3.125,3.125 0 1 1 1148.4,340.22A3.125,3.125 0 1 1 1154.7,340.22Z" style="fill:none;stroke:#F15A60;stroke-width:0.625" />
<path d="M1161.6,179.19L1161.6,179.19A3.125,3.125 0 1 1 1155.4,179.19A3.125,3.125 0 1 1 1161.6,179.19Z" style="fill:none;stroke:#F15A60;stroke-width:0.625" />
<path d="M1168.6,99.515A3.125,3.125 0 1 1 1162.3,99.515A3.125,3.125 0 1 1 1168.6,99.515Z" style="fill:none;stroke:#F15A60;stroke-width:0.625" />
<path d="M1175.5,158.77A3.125,3.125 0 1 1 1169.3,158.77A3.125,3.125 0 1 1 1175.5,158.77Z" style="fill:none;stroke:#F15A60;stroke-width:0.625" />
<path d="M1182.5,106.48L1182.5,106.48A3.125,3.125 0 1 1 1176.2,106.48A3.125,3.125 0 1 1 1182.5,106.48Z" style="fill:none;stroke:#F15A60;stroke-width:0.625" />
<path d="M1189.5,211.56A3.125,3.125 0 1 1 1183.2,211.56A3.125,3.125 0 1 1 1189.5,211.56Z" style="fill:none;stroke:#F15A60;stroke-width:0.625" />
<path d="M1196.4,256.88A3.125,3.125 0 1 1 1190.2,256.88A3.125,3.125 0 1 1 1196.4,256.88Z" style="fill:none;stroke:#F15A60;stroke-width:0.625" />
<path d="M1203.4,314.83A3.125,3.125 0 1 1 1197.1,314.83A3.125,3.125 0 1 1 1203.4,314.83Z" style="fill:none;stroke:#F15A60;stroke-width:0.625" />
<path d="M1210.3,429.56L1210.3,429.56A3.125,3.125 0 1 1 1204.1,429.56A3.125,3.125 0 1 1 1210.3,429.56Z" style="fill:none;stroke:#F15A60;stroke-width:0.625" />
<path d="M1217.3,512.29A3.125,3.125 0 1 1 1211,512.29A3.125,3.125 0 1 1 1217.3,512.29Z" style="fill:none;stroke:#F15A60;stroke-width:0.625" />
<path d="M1224.3,587.13A3.125,3.125 0 1 1 1218,587.13A3.125,3.125 0 1 1 1224.3,587.13Z" style="fill:none;stroke:#F15A60;stroke-width:0.625" />
<path d="M1231.2,500.2L1231.2,500.2A3.125,3.125 0 1 1 1225,500.2A3.125,3.125 0 1 1 1231.2,500.2Z" style="fill:none;stroke:#F15A60;stroke-width:0.625" />
<path d="M1238.2,540.31A3.125,3.125 0 1 1 1231.9,540.31A3.125,3.125 0 1 1 1238.2,540.31Z" style="fill:none;stroke:#F15A60;stroke-width:0.625" />
<path d="M1245.1,461.83A3.125,3.125 0 1 1 1238.9,461.83A3.125,3.125 0 1 1 1245.1,461.83Z" style="fill:none;stroke:#F15A60;stroke-width:0.625" />
<path d="M1252.1,531.53A3.125,3.125 0 1 1 1245.8,531.53A3.125,3.125 0 1 1 1252.1,531.53Z" style="fill:none;stroke:#F15A60;stroke-width:0.625" />
<path d="M1259.1,474.8A3.125,3.125 0 1 1 1252.8,474.8A3.125,3.125 0 1 1 1259.1,474.8Z" style="fill:none;stroke:#F15A60;stroke-width:0.625" />
<path d="M1266,481.63A3.125,3.125 0 1 1 1259.8,481.63A3.125,3.125 0 1 1 1266,481.63Z" style="fill:none;stroke:#F15A60;stroke-width:0.625" />
<path d="M1273,514.53A3.125,3.125 0 1 1 1266.7,514.53A3.125,3.125 0 1 1 1273,514.53Z" style="fill:none;stroke:#F15A60;stroke-width:0.625" />
<path d="M1279.9,506.3A3.125,3.125 0 1 1 1273.7,506.3A3.125,3.125 0 1 1 1279.9,506.3Z" style="fill:none;stroke:#F15A60;stroke-width:0.625" />
<path d="M1286.9,602.87L1286.9,602.87A3.125,3.125 0 1 1 1280.6,602.87A3.125,3.125 0 1 1 1286.9,602.87Z" style="fill:none;stroke:#F15A60;stroke-width:0.625" />
<path d="M1293.8,503.54L1293.8,503.54A3.125,3.125 0 1 1 1287.6,503.54A3.125,3.125 0 1 1 1293.8,503.54Z" style="fill:none;stroke:#F15A60;stroke-width:0.625" />
<path d="M1300.8,672.57A3.125,3.125 0 1 1 1294.6,672.57A3.125,3.125 0 1 1 1300.8,672.57Z" style="fill:none;stroke:#F15A60;stroke-width:0.625" />
<path d="M1307.8,566.39L1307.8,566.39A3.125,3.125 0 1 1 1301.5,566.39A3.125,3.125 0 1 1 1307.8,566.39Z" style="fill:none;stroke:#F15A60;stroke-width:0.625" />
<path d="M1314.7,523.92A3.125,3.125 0 1 1 1308.5,523.92A3.125,3.125 0 1 1 1314.7,523.92Z" style="fill:none;stroke:#F15A60;stroke-width:0.625" />
<path d="M1321.7,559.55L1321.7,559.55A3.125,3.125 0 1 1 1315.4,559.55A3.125,3.125 0 1 1 1321.7,559.55Z" style="fill:none;stroke:#F15A60;stroke-width:0.625" />
<path d="M1328.6,443.3A3.125,3.125 0 1 1 1322.4,443.3A3.125,3.125 0 1 1 1328.6,443.3Z" style="fill:none;stroke:#F15A60;stroke-width:0.625" />
<path d="M1335.6,270.05L1335.6,270.05A3.125,3.125 0 1 1 1329.4,270.05A3.125,3.125 0 1 1 1335.6,270.05Z" style="fill:none;stroke:#F15A60;stroke-width:0.625" />
<path d="M1342.6,188.32A3.125,3.125 0 1 1 1336.3,188.32A3.125,3.125 0 1 1 1342.6,188.32Z" style="fill:none;stroke:#F15A60;stroke-width:0.625" />
<path d="M1349.5,171.4L1349.5,171.4A3.125,3.125 0 1 1 1343.3,171.4A3.125,3.125 0 1 1 1349.5,171.4Z" style="fill:none;stroke:#F15A60;stroke-width:0.625" />
<path d="M1356.5,49.313L1356.5,49.313A3.125,3.125 0 1 1 1350.2,49.313A3.125,3.125 0 1 1 1356.5,49.313Z" style="fill:none;stroke:#F15A60;stroke-width:0.625" />
<path d="M1363.4,85.253L1363.4,85.253A3.125,3.125 0 1 1 1357.2,85.253A3.125,3.125 0 1 1 1363.4,85.253Z" style="fill:none;stroke:#F15A60;stroke-width:0.625" />
<path d="M1370.4,196.65A3.125,3.125 0 1 1 1364.2,196.65A3.125,3.125 0 1 1 1370.4,196.65Z" style="fill:none;stroke:#F15A60;stroke-width:0.625" />
<path d="M1377.4,319.41A3.125,3.125 0 1 1 1371.1,319.41A3.125,3.125 0 1 1 1377.4,319.41Z" style="fill:none;stroke:#F15A60;stroke-width:0.625" />
<path d="M1384.3,384.79A3.125,3.125 0 1 1 1378.1,384.79A3.125,3.125 0 1 1 1384.3,384.79Z" style="fill:none;stroke:#F15A60;stroke-width:0.625" />
<path d="M1391.3,527.17L1391.3,527.17A3.125,3.125 0 1 1 1385,527.17A3.125,3.125 0 1 1 1391.3,527.17Z" style="fill:none;stroke:#F15A60;stroke-width:0.625" />
<path d="M1398.2,543.45A3.125,3.125 0 1 1 1392,543.45A3.125,3.125 0 1 1 1398.2,543.45Z" style="fill:none;stroke:#F15A60;stroke-width:0.625" />
<path d="M1405.2,583.54L1405.2,583.54A3.125,3.125 0 1 1 1399,583.54A3.125,3.125 0 1 1 1405.2,583.54Z" style="fill:none;stroke:#F15A60;stroke-width:0.625" />
<path d="M1412.2,606.8A3.125,3.125 0 1 1 1405.9,606.8A3.125,3.125 0 1 1 1412.2,606.8Z" style="fill:none;stroke:#F15A60;stroke-width:0.625" />
<path d="M1419.1,612.2L1419.1,612.2A3.125,3.125 0 1 1 1412.9,612.2A3.125,3.125 0 1 1 1419.1,612.2Z" style="fill:none;stroke:#F15A60;stroke-width:0.625" />
<path d="M1426.1,559.72A3.125,3.125 0 1 1 1419.8,559.72A3.125,3.125 0 1 1 1426.1,559.72Z" style="fill:none;stroke:#F15A60;stroke-width:0.625" />
<path d="M1433,589.79L1433,589.79A3.125,3.125 0 1 1 1426.8,589.79A3.125,3.125 0 1 1 1433,589.79Z" style="fill:none;stroke:#F15A60;stroke-width:0.625" />
<path d="M1440,490.82A3.125,3.125 0 1 1 1433.8,490.82A3.125,3.125 0 1 1 1440,490.82Z" style="fill:none;stroke:#F15A60;stroke-width:0.625" />
<path d="M51.925,473.78L58.885,513.28L65.844,531.77L72.804,602.48L79.763,638.12L86.723,647.37L93.682,669.53L100.64,639.93L107.6,574.91L114.56,509.57L121.52,447.77L128.48,422.57L135.44,382.5L142.4,353.38L149.36,349.36L156.32,388.66L163.28,411.48L170.24,413.9L177.2,415.95L184.16,387.34L191.12,369.79L198.08,349.28L205.04,301.28L211.99,272.27L218.95,272.22L225.91,304.1L232.87,351.42L239.83,377.05L246.79,426.28L253.75,510.78L260.71,590.66L267.67,618.1L274.63,638L281.59,609.69L288.55,591.53L295.51,542.25L302.47,456.26L309.43,395.57L316.39,352.28L323.35,308.81L330.31,261.84L337.27,288.26L344.23,324.96L351.19,343.73L358.15,350.16L365.1,384.87L372.06,414.66L379.02,425.47L385.98,408.99L392.94,412.71L399.9,387.46L406.86,366.42L413.82,396.95L420.78,397.29L427.74,456.38L434.7,494.72L441.66,565.72L448.62,604.26L455.58,643.24L462.54,616.43L469.5,582.09L476.46,526.44L483.42,458.19L490.38,409.43L497.34,353.9L504.3,263.47L511.26,205.79L518.21,202.59L525.17,209.32L532.13,265.25L539.09,330.78L546.05,394.99L553.01,443.2L559.97,486.89L566.93,517.42L573.89,537.29L580.85,517.49L587.81,494.31L594.77,486.51L601.73,471.2L608.69,480.31L615.65,498.15L622.61,519.78L629.57,534.75L636.53,566.73L643.49,542.93L650.45,517.31L657.41,479.73L664.37,429.15L671.32,387.34L678.28,344.14L685.24,284.16L692.2,259.05L699.16,232.34L706.12,229.4L713.08,255.63L720.04,332.54L727,400.73L733.96,488.14L740.92,544.76L747.88,575.08L754.84,606.05L761.8,618.85L768.76,613.57L775.72,577.69L782.68,523.9L789.64,491.28L796.6,445.43L803.56,407.74L810.52,388.41L817.48,407.58L824.43,403.1L831.39,413.3L838.35,409.61L845.31,389.26L852.27,381.42L859.23,365.25L866.19,302.94L873.15,256.82L880.11,262.12L887.07,276.94L894.03,311.74L900.99,355.93L907.95,397.2L914.91,484.44L921.87,545.87L928.83,617.82L935.79,674.54L942.75,670.01L949.71,628.75L956.67,585.77L963.63,543.5L970.59,476.92L977.54,397.91L984.5,354.48L991.46,333.79L998.42,316.4L1005.4,322.18L1012.3,332.58L1019.3,335.95L1026.3,352.18L1033.2,368.37L1040.2,395.39L1047.1,376.48L1054.1,379.64L1061.1,368.39L1068,355.6L1075,342.46L1081.9,386.83L1088.9,419.7L1095.9,474.06L1102.8,514L1109.8,556.89L1116.7,613.73L1123.7,640.05L1130.7,647.14L1137.6,606.64L1144.6,526.5L1151.5,470.62L1158.5,383.19L1165.5,298.09L1172.4,256.29L1179.4,211.35L1186.3,211.41L1193.3,225.05L1200.3,251.98L1207.2,305.26L1214.2,367.37L1221.1,433.3L1228.1,453.37L1235,479.45L1242,474.16L1249,491.37L1255.9,486.4L1262.9,484.97L1269.8,493.84L1276.8,497.58L1283.8,529.16L1290.7,521.48L1297.7,566.8L1304.6,566.68L1311.6,553.85L1318.6,555.56L1325.5,521.88L1332.5,446.33L1339.4,368.93L1346.4,309.67L1353.4,231.56L1360.3,187.67L1367.3,190.36L1374.2,229.08L1381.2,275.79L1388.2,351.2L1395.1,408.88L1402.1,461.28L1409,504.93L1416,537.11L1423,543.89L1429.9,557.66L1436.9,537.61" style="fill:none;stroke:#7AC36A;stroke-width:1.25;stroke-dasharray:7.5,2.5" />
<path d="M49.258,471.11L54.592,471.11L54.592,476.45L49.258,476.45Z" style="fill:none;stroke:#7AC36A;stroke-width:0.625" />
<path d="M56.217,510.61L61.552,510.61L61.552,515.94L56.217,515.94Z" style="fill:none;stroke:#7AC36A;stroke-width:0.625" />
<path d="M63.177,529.1L68.511,529.1L68.511,534.44L63.177,534.44Z" style="fill:none;stroke:#7AC36A;stroke-width:0.625" />
<path d="M70.136,599.81L75.471,599.81L75.471,605.15L70.136,605.15Z" style="fill:none;stroke:#7AC36A;stroke-width:0.625" />
<path d="M77.096,635.46L82.431,635.46L82.431,640.79L77.096,640.79Z" style="fill:none;stroke:#7AC36A;stroke-width:0.625" />
<path d="M84.055,644.7L89.39,644.7L89.39,650.03L84.055,650.03Z" style="fill:none;stroke:#7AC36A;stroke-width:0.625" />
<path d="M91.015,666.86L96.35,666.86L96.35,672.2L91.015,672.2Z" style="fill:none;stroke:#7AC36A;stroke-width:0.625" />
<path d="M97.974,637.26L103.31,637.26L103.31,642.6L97.974,642.6Z" style="fill:none;stroke:#7AC36A;stroke-width:0.625" />
<path d="M104.93,572.25L110.27,572.25L110.27,577.58L104.93,577.58Z" style="fill:none;stroke:#7AC36A;stroke-width:0.625" />
<path d="M111.89,506.91L117.23,506.91L117.23,512.24L111.89,512.24Z" style="fill:none;stroke:#7AC36A;stroke-width:0.625" />
<path d="M118.85,445.1L124.19,445.1L124.19,450.44L118.85,450.44Z" style="fill:none;stroke:#7AC36A;stroke-width:0.625" />
<path d="M125.81,419.9L131.15,419.9L131.15,425.24L125.81,425.24Z" style="fill:none;stroke:#7AC36A;stroke-width:0.625" />
<path d="M132.77,379.84L138.11,379.84L138.11,385.17L132.77,385.17Z" style="fill:none;stroke:#7AC36A;stroke-width:0.625" />
<path d="M139.73,350.71L145.07,350.71L145.07,356.04L139.73,356.04Z" style="fill:none;stroke:#7AC36A;stroke-width:0.625" />
<path d="M146.69,346.69L152.03,346.69L152.03,352.02L146.69,352.02Z" style="fill:none;stroke:#7AC36A;stroke-width:0.625" />
<path d="M153.65,385.99L158.99,385.99L158.99,391.33L153.65,391.33Z" style="fill:none;stroke:#7AC36A;stroke-width:0.625" />
<path d="M160.61,408.81L165.95,408.81L165.95,414.14L160.61,414.14Z" style="fill:none;stroke:#7AC36A;stroke-width:0.625" />
<path d="M167.57,411.23L172.9,411.23L172.9,416.57L167.57,416.57Z" style="fill:none;stroke:#7AC36A;stroke-width:0.625" />
<path d="M174.53,413.28L179.86,413.28L179.86,418.62L174.53,418.62Z" style="fill:none;stroke:#7AC36A;stroke-width:0.625" />
<path d="M181.49,384.68L186.82,384.68L186.82,390.01L181.49,390.01Z" style="fill:none;stroke:#7AC36A;stroke-width:0.625" />
<path d="M188.45,367.13L193.78,367.13L193.78,372.46L188.45,372.46Z" style="fill:none;stroke:#7AC36A;stroke-width:0.625" />
<path d="M195.41,346.61L200.74,346.61L200.74,351.94L195.41,351.94Z" style="fill:none;stroke:#7AC36A;stroke-width:0.625" />
<path d="M202.37,298.61L207.7,298.61L207.7,303.95L202.37,303.95Z" style="fill:none;stroke:#7AC36A;stroke-width:0.625" />
<path d="M209.33,269.6L214.66,269.6L214.66,274.94L209.33,274.94Z" style="fill:none;stroke:#7AC36A;stroke-width:0.625" />
<path d="M216.29,269.55L221.62,269.55L221.62,274.89L216.29,274.89Z" style="fill:none;stroke:#7AC36A;stroke-width:0.625" />
<path d="M223.25,301.43L228.58,301.43L228.58,306.77L223.25,306.77Z" style="fill:none;stroke:#7AC36A;stroke-width:0.625" />
<path d="M230.21,348.76L235.54,348.76L235.54,354.09L230.21,354.09Z" style="fill:none;stroke:#7AC36A;stroke-width:0.625" />
<path d="M237.17,374.39L242.5,374.39L242.5,379.72L237.17,379.72Z" style="fill:none;stroke:#7AC36A;stroke-width:0.625" />
<path d="M244.12,423.61L249.46,423.61L249.46,428.95L244.12,428.95Z" style="fill:none;stroke:#7AC36A;stroke-width:0.625" />
<path d="M251.08,508.11L256.42,508.11L256.42,513.44L251.08,513.44Z" style="fill:none;stroke:#7AC36A;stroke-width:0.625" />
<path d="M258.04,587.99L263.38,587.99L263.38,593.33L258.04,593.33Z" style="fill:none;stroke:#7AC36A;stroke-width:0.625" />
<path d="M265,615.43L270.34,615.43L270.34,620.77L265,620.77Z" style="fill:none;stroke:#7AC36A;stroke-width:0.625" />
<path d="M271.96,635.33L277.3,635.33L277.3,640.67L271.96,640.67Z" style="fill:none;stroke:#7AC36A;stroke-width:0.625" />
<path d="M278.92,607.03L284.26,607.03L284.26,612.36L278.92,612.36Z" style="fill:none;stroke:#7AC36A;stroke-width:0.625" />
<path d="M285.88,588.86L291.22,588.86L291.22,594.2L285.88,594.2Z" style="fill:none;stroke:#7AC36A;stroke-width:0.625" />
<path d="M292.84,539.58L298.18,539.58L298.18,544.91L292.84,544.91Z" style="fill:none;stroke:#7AC36A;stroke-width:0.625" />
<path d="M299.8,453.6L305.14,453.6L305.14,458.93L299.8,458.93Z" style="fill:none;stroke:#7AC36A;stroke-width:0.625" />
<path d="M306.76,392.91L312.1,392.91L312.1,398.24L306.76,398.24Z" style="fill:none;stroke:#7AC36A;stroke-width:0.625" />
<path d="M313.72,349.61L319.06,349.61L319.06,354.95L313.72,354.95Z" style="fill:none;stroke:#7AC36A;stroke-width:0.625" />
<path d="M320.68,306.14L326.01,306.14L326.01,311.47L320.68,311.47Z" style="fill:none;stroke:#7AC36A;stroke-width:0.625" />
<path d="M327.64,259.17L332.97,259.17L332.97,264.51L327.64,264.51Z" style="fill:none;stroke:#7AC36A;stroke-width:0.625" />
<path d="M334.6,285.59L339.93,285.59L339.93,290.92L334.6,290.92Z" style="fill:none;stroke:#7AC36A;stroke-width:0.625" />
<path d="M341.56,322.29L346.89,322.29L346.89,327.62L341.56,327.62Z" style="fill:none;stroke:#7AC36A;stroke-width:0.625" />
<path d="M348.52,341.06L353.85,341.06L353.85,346.39L348.52,346.39Z" style="fill:none;stroke:#7AC36A;stroke-width:0.625" />
<path d="M355.48,347.49L360.81,347.49L360.81,352.83L355.48,352.83Z" style="fill:none;stroke:#7AC36A;stroke-width:0.625" />
<path d="M362.44,382.2L367.77,382.2L367.77,387.54L362.44,387.54Z" style="fill:none;stroke:#7AC36A;stroke-width:0.625" />
<path d="M369.4,412L374.73,412L374.73,417.33L369.4,417.33Z" style="fill:none;stroke:#7AC36A;stroke-width:0.625" />
<path d="M376.36,422.81L381.69,422.81L381.69,428.14L376.36,428.14Z" style="fill:none;stroke:#7AC36A;stroke-width:0.625" />
<path d="M383.32,406.32L388.65,406.32L388.65,411.66L383.32,411.66Z" style="fill:none;stroke:#7AC36A;stroke-width:0.625" />
<path d="M390.28,410.04L395.61,410.04L395.61,415.38L390.28,415.38Z" style="fill:none;stroke:#7AC36A;stroke-width:0.625" />
<path d="M397.24,384.79L402.57,384.79L402.57,390.13L397.24,390.13Z" style="fill:none;stroke:#7AC36A;stroke-width:0.625" />
<path d="M404.19,363.75L409.53,363.75L409.53,369.09L404.19,369.09Z" style="fill:none;stroke:#7AC36A;stroke-width:0.625" />
<path d="M411.15,394.28L416.49,394.28L416.49,399.62L411.15,399.62Z" style="fill:none;stroke:#7AC36A;stroke-width:0.625" />
<path d="M418.11,394.62L423.45,394.62L423.45,399.96L418.11,399.96Z" style="fill:none;stroke:#7AC36A;stroke-width:0.625" />
<path d="M425.07,453.71L430.41,453.71L430.41,459.04L425.07,459.04Z" style="fill:none;stroke:#7AC36A;stroke-width:0.625" />
<path d="M432.03,492.06L437.37,492.06L437.37,497.39L432.03,497.39Z" style="fill:none;stroke:#7AC36A;stroke-width:0.625" />
<path d="M438.99,563.05L444.33,563.05L444.33,568.39L438.99,568.39Z" style="fill:none;stroke:#7AC36A;stroke-width:0.625" />
<path d="M445.95,601.6L451.29,601.6L451.29,606.93L445.95,606.93Z" style="fill:none;stroke:#7AC36A;stroke-width:0.625" />
<path d="M452.91,640.57L458.25,640.57L458.25,645.9L452.91,645.9Z" style="fill:none;stroke:#7AC36A;stroke-width:0.625" />
<path d="M459.87,613.76L465.21,613.76L465.21,619.1L459.87,619.1Z" style="fill:none;stroke:#7AC36A;stroke-width:0.625" />
<path d="M466.83,579.43L472.17,579.43L472.17,584.76L466.83,584.76Z" style="fill:none;stroke:#7AC36A;stroke-width:0.625" />
<path d="M473.79,523.77L479.12,523.77L479.12,529.11L473.79,529.11Z" style="fill:none;stroke:#7AC36A;stroke-width:0.625" />
<path d="M480.75,455.52L486.08,455.52L486.08,460.86L480.75,460.86Z" style="fill:none;stroke:#7AC36A;stroke-width:0.625" />
<path d="M487.71,406.77L493.04,406.77L493.04,412.1L487.71,412.1Z" style="fill:none;stroke:#7AC36A;stroke-width:0.625" />
<path d="M494.67,351.23L500,351.23L500,356.57L494.67,356.57Z" style="fill:none;stroke:#7AC36A;stroke-width:0.625" />
<path d="M501.63,260.81L506.96,260.81L506.96,266.14L501.63,266.14Z" style="fill:none;stroke:#7AC36A;stroke-width:0.625" />
<path d="M508.59,203.12L513.92,203.12L513.92,208.46L508.59,208.46Z" style="fill:none;stroke:#7AC36A;stroke-width:0.625" />
<path d="M515.55,199.92L520.88,199.92L520.88,205.26L515.55,205.26Z" style="fill:none;stroke:#7AC36A;stroke-width:0.625" />
<path d="M522.51,206.65L527.84,206.65L527.84,211.98L522.51,211.98Z" style="fill:none;stroke:#7AC36A;stroke-width:0.625" />
<path d="M529.47,262.58L534.8,262.58L534.8,267.91L529.47,267.91Z" style="fill:none;stroke:#7AC36A;stroke-width:0.625" />
<path d="M536.43,328.12L541.76,328.12L541.76,333.45L536.43,333.45Z" style="fill:none;stroke:#7AC36A;stroke-width:0.625" />
<path d="M543.39,392.32L548.72,392.32L548.72,397.65L543.39,397.65Z" style="fill:none;stroke:#7AC36A;stroke-width:0.625" />
<path d="M550.35,440.53L555.68,440.53L555.68,445.87L550.35,445.87Z" style="fill:none;stroke:#7AC36A;stroke-width:0.625" />
<path d="M557.3,484.22L562.64,484.22L562.64,489.55L557.3,489.55Z" style="fill:none;stroke:#7AC36A;stroke-width:0.625" />
<path d="M564.26,514.75L569.6,514.75L569.6,520.09L564.26,520.09Z" style="fill:none;stroke:#7AC36A;stroke-width:0.625" />
<path d="M571.22,534.63L576.56,534.63L576.56,539.96L571.22,539.96Z" style="fill:none;stroke:#7AC36A;stroke-width:0.625" />
<path d="M578.18,514.82L583.52,514.82L583.52,520.16L578.18,520.16Z" style="fill:none;stroke:#7AC36A;stroke-width:0.625" />
<path d="M585.14,491.64L590.48,491.64L590.48,496.97L585.14,496.97Z" style="fill:none;stroke:#7AC36A;stroke-width:0.625" />
<path d="M592.1,483.84L597.44,483.84L597.44,489.17L592.1,489.17Z" style="fill:none;stroke:#7AC36A;stroke-width:0.625" />
<path d="M599.06,468.53L604.4,468.53L604.4,473.86L599.06,473.86Z" style="fill:none;stroke:#7AC36A;stroke-width:0.625" />
<path d="M606.02,477.64L611.36,477.64L611.36,482.98L606.02,482.98Z" style="fill:none;stroke:#7AC36A;stroke-width:0.625" />
<path d="M612.98,495.48L618.32,495.48L618.32,500.82L612.98,500.82Z" style="fill:none;stroke:#7AC36A;stroke-width:0.625" />
<path d="M619.94,517.12L625.28,517.12L625.28,522.45L619.94,522.45Z" style="fill:none;stroke:#7AC36A;stroke-width:0.625" />
<path d="M626.9,532.08L632.23,532.08L632.23,537.42L626.9,537.42Z" style="fill:none;stroke:#7AC36A;stroke-width:0.625" />
<path d="M633.86,564.06L639.19,564.06L639.19,569.39L633.86,569.39Z" style="fill:none;stroke:#7AC36A;stroke-width:0.625" />
<path d="M640.82,540.26L646.15,540.26L646.15,545.6L640.82,545.6Z" style="fill:none;stroke:#7AC36A;stroke-width:0.625" />
<path d="M647.78,514.64L653.11,514.64L653.11,519.98L647.78,519.98Z" style="fill:none;stroke:#7AC36A;stroke-width:0.625" />
<path d="M654.74,477.06L660.07,477.06L660.07,482.4L654.74,482.4Z" style="fill:none;stroke:#7AC36A;stroke-width:0.625" />
<path d="M661.7,426.49L667.03,426.49L667.03,431.82L661.7,431.82Z" style="fill:none;stroke:#7AC36A;stroke-width:0.625" />
<path d="M668.66,384.67L673.99,384.67L673.99,390.01L668.66,390.01Z" style="fill:none;stroke:#7AC36A;stroke-width:0.625" />
<path d="M675.62,341.47L680.95,341.47L680.95,346.81L675.62,346.81Z" style="fill:none;stroke:#7AC36A;stroke-width:0.625" />
<path d="M682.58,281.49L687.91,281.49L687.91,286.83L682.58,286.83Z" style="fill:none;stroke:#7AC36A;stroke-width:0.625" />
<path d="M689.54,256.39L694.87,256.39L694.87,261.72L689.54,261.72Z" style="fill:none;stroke:#7AC36A;stroke-width:0.625" />
<path d="M696.5,229.67L701.83,229.67L701.83,235.01L696.5,235.01Z" style="fill:none;stroke:#7AC36A;stroke-width:0.625" />
<path d="M703.46,226.73L708.79,226.73L708.79,232.06L703.46,232.06Z" style="fill:none;stroke:#7AC36A;stroke-width:0.625" />
<path d="M710.41,252.96L715.75,252.96L715.75,258.29L710.41,258.29Z" style="fill:none;stroke:#7AC36A;stroke-width:0.625" />
<path d="M717.37,329.87L722.71,329.87L722.71,335.21L717.37,335.21Z" style="fill:none;stroke:#7AC36A;stroke-width:0.625" />
<path d="M724.33,398.06L729.67,398.06L729.67,403.4L724.33,403.4Z" style="fill:none;stroke:#7AC36A;stroke-width:0.625" />
<path d="M731.29,485.48L736.63,485.48L736.63,490.81L731.29,490.81Z" style="fill:none;stroke:#7AC36A;stroke-width:0.625" />
<path d="M738.25,542.09L743.59,542.09L743.59,547.42L738.25,547.42Z" style="fill:none;stroke:#7AC36A;stroke-width:0.625" />
<path d="M745.21,572.41L750.55,572.41L750.55,577.74L745.21,577.74Z" style="fill:none;stroke:#7AC36A;stroke-width:0.625" />
<path d="M752.17,603.38L757.51,603.38L757.51,608.72L752.17,608.72Z" style="fill:none;stroke:#7AC36A;stroke-width:0.625" />
<path d="M759.13,616.18L764.47,616.18L764.47,621.52L759.13,621.52Z" style="fill:none;stroke:#7AC36A;stroke-width:0.625" />
<path d="M766.09,610.9L771.43,610.9L771.43,616.24L766.09,616.24Z" style="fill:none;stroke:#7AC36A;stroke-width:0.625" />
<path d="M773.05,575.02L778.39,575.02L778.39,580.36L773.05,580.36Z" style="fill:none;stroke:#7AC36A;stroke-width:0.625" />
<path d="M780.01,521.23L785.34,521.23L785.34,526.56L780.01,526.56Z" style="fill:none;stroke:#7AC36A;stroke-width:0.625" />
<path d="M786.97,488.61L792.3,488.61L792.3,493.95L786.97,493.95Z" style="fill:none;stroke:#7AC36A;stroke-width:0.625" />
<path d="M793.93,442.77L799.26,442.77L799.26,448.1L793.93,448.1Z" style="fill:none;stroke:#7AC36A;stroke-width:0.625" />
<path d="M800.89,405.07L806.22,405.07L806.22,410.41L800.89,410.41Z" style="fill:none;stroke:#7AC36A;stroke-width:0.625" />
<path d="M807.85,385.74L813.18,385.74L813.18,391.08L807.85,391.08Z" style="fill:none;stroke:#7AC36A;stroke-width:0.625" />
<path d="M814.81,404.91L820.14,404.91L820.14,410.25L814.81,410.25Z" style="fill:none;stroke:#7AC36A;stroke-width:0.625" />
<path d="M821.77,400.43L827.1,400.43L827.1,405.76L821.77,405.76Z" style="fill:none;stroke:#7AC36A;stroke-width:0.625" />
<path d="M828.73,410.63L834.06,410.63L834.06,415.96L828.73,415.96Z" style="fill:none;stroke:#7AC36A;stroke-width:0.625" />
<path d="M835.69,406.94L841.02,406.94L841.02,412.28L835.69,412.28Z" style="fill:none;stroke:#7AC36A;stroke-width:0.625" />
<path d="M842.65,386.59L847.98,386.59L847.98,391.93L842.65,391.93Z" style="fill:none;stroke:#7AC36A;stroke-width:0.625" />
<path d="M849.61,378.75L854.94,378.75L854.94,384.09L849.61,384.09Z" style="fill:none;stroke:#7AC36A;stroke-width:0.625" />
<path d="M856.57,362.58L861.9,362.58L861.9,367.91L856.57,367.91Z" style="fill:none;stroke:#7AC36A;stroke-width:0.625" />
<path d="M863.52,300.28L868.86,300.28L868.86,305.61L863.52,305.61Z" style="fill:none;stroke:#7AC36A;stroke-width:0.625" />
<path d="M870.48,254.16L875.82,254.16L875.82,259.49L870.48,259.49Z" style="fill:none;stroke:#7AC36A;stroke-width:0.625" />
<path d="M877.44,259.46L882.78,259.46L882.78,264.79L877.44,264.79Z" style="fill:none;stroke:#7AC36A;stroke-width:0.625" />
<path d="M884.4,274.28L889.74,274.28L889.74,279.61L884.4,279.61Z" style="fill:none;stroke:#7AC36A;stroke-width:0.625" />
<path d="M891.36,309.08L896.7,309.08L896.7,314.41L891.36,314.41Z" style="fill:none;stroke:#7AC36A;stroke-width:0.625" />
<path d="M898.32,353.27L903.66,353.27L903.66,358.6L898.32,358.6Z" style="fill:none;stroke:#7AC36A;stroke-width:0.625" />
<path d="M905.28,394.53L910.62,394.53L910.62,399.86L905.28,399.86Z" style="fill:none;stroke:#7AC36A;stroke-width:0.625" />
<path d="M912.24,481.77L917.58,481.77L917.58,487.11L912.24,487.11Z" style="fill:none;stroke:#7AC36A;stroke-width:0.625" />
<path d="M919.2,543.2L924.54,543.2L924.54,548.54L919.2,548.54Z" style="fill:none;stroke:#7AC36A;stroke-width:0.625" />
<path d="M926.16,615.15L931.5,615.15L931.5,620.49L926.16,620.49Z" style="fill:none;stroke:#7AC36A;stroke-width:0.625" />
<path d="M933.12,671.87L938.45,671.87L938.45,677.2L933.12,677.2Z" style="fill:none;stroke:#7AC36A;stroke-width:0.625" />
<path d="M940.08,667.34L945.41,667.34L945.41,672.68L940.08,672.68Z" style="fill:none;stroke:#7AC36A;stroke-width:0.625" />
<path d="M947.04,626.08L952.37,626.08L952.37,631.42L947.04,631.42Z" style="fill:none;stroke:#7AC36A;stroke-width:0.625" />
<path d="M954,583.1L959.33,583.1L959.33,588.44L954,588.44Z" style="fill:none;stroke:#7AC36A;stroke-width:0.625" />
<path d="M960.96,540.83L966.29,540.83L966.29,546.16L960.96,546.16Z" style="fill:none;stroke:#7AC36A;stroke-width:0.625" />
<path d="M967.92,474.25L973.25,474.25L973.25,479.59L967.92,479.59Z" style="fill:none;stroke:#7AC36A;stroke-width:0.625" />
<path d="M974.88,395.25L980.21,395.25L980.21,400.58L974.88,400.58Z" style="fill:none;stroke:#7AC36A;stroke-width:0.625" />
<path d="M981.84,351.81L987.17,351.81L987.17,357.15L981.84,357.15Z" style="fill:none;stroke:#7AC36A;stroke-width:0.625" />
<path d="M988.8,331.12L994.13,331.12L994.13,336.46L988.8,336.46Z" style="fill:none;stroke:#7AC36A;stroke-width:0.625" />
<path d="M995.76,313.74L1001.1,313.74L1001.1,319.07L995.76,319.07Z" style="fill:none;stroke:#7AC36A;stroke-width:0.625" />
<path d="M1002.7,319.51L1008.1,319.51L1008.1,324.84L1002.7,324.84Z" style="fill:none;stroke:#7AC36A;stroke-width:0.625" />
<path d="M1009.7,329.91L1015,329.91L1015,335.24L1009.7,335.24Z" style="fill:none;stroke:#7AC36A;stroke-width:0.625" />
<path d="M1016.6,333.28L1022,333.28L1022,338.62L1016.6,338.62Z" style="fill:none;stroke:#7AC36A;stroke-width:0.625" />
<path d="M1023.6,349.51L1028.9,349.51L1028.9,354.85L1023.6,354.85Z" style="fill:none;stroke:#7AC36A;stroke-width:0.625" />
<path d="M1030.6,365.7L1035.9,365.7L1035.9,371.04L1030.6,371.04Z" style="fill:none;stroke:#7AC36A;stroke-width:0.625" />
<path d="M1037.5,392.73L1042.8,392.73L1042.8,398.06L1037.5,398.06Z" style="fill:none;stroke:#7AC36A;stroke-width:0.625" />
<path d="M1044.5,373.82L1049.8,373.82L1049.8,379.15L1044.5,379.15Z" style="fill:none;stroke:#7AC36A;stroke-width:0.625" />
<path d="M1051.4,376.97L1056.8,376.97L1056.8,382.3L1051.4,382.3Z" style="fill:none;stroke:#7AC36A;stroke-width:0.625" />
<path d="M1058.4,365.72L1063.7,365.72L1063.7,371.05L1058.4,371.05Z" style="fill:none;stroke:#7AC36A;stroke-width:0.625" />
<path d="M1065.4,352.94L1070.7,352.94L1070.7,358.27L1065.4,358.27Z" style="fill:none;stroke:#7AC36A;stroke-width:0.625" />
<path d="M1072.3,339.79L1077.6,339.79L1077.6,345.12L1072.3,345.12Z" style="fill:none;stroke:#7AC36A;stroke-width:0.625" />
<path d="M1079.3,384.16L1084.6,384.16L1084.6,389.5L1079.3,389.5Z" style="fill:none;stroke:#7AC36A;stroke-width:0.625" />
<path d="M1086.2,417.03L1091.6,417.03L1091.6,422.37L1086.2,422.37Z" style="fill:none;stroke:#7AC36A;stroke-width:0.625" />
<path d="M1093.2,471.39L1098.5,471.39L1098.5,476.73L1093.2,476.73Z" style="fill:none;stroke:#7AC36A;stroke-width:0.625" />
<path d="M1100.1,511.34L1105.5,511.34L1105.5,516.67L1100.1,516.67Z" style="fill:none;stroke:#7AC36A;stroke-width:0.625" />
<path d="M1107.1,554.23L1112.4,554.23L1112.4,559.56L1107.1,559.56Z" style="fill:none;stroke:#7AC36A;stroke-width:0.625" />
<path d="M1114.1,611.06L1119.4,611.06L1119.4,616.4L1114.1,616.4Z" style="fill:none;stroke:#7AC36A;stroke-width:0.625" />
<path d="M1121,637.39L1126.4,637.39L1126.4,642.72L1121,642.72Z" style="fill:none;stroke:#7AC36A;stroke-width:0.625" />
<path d="M1128,644.47L1133.3,644.47L1133.3,649.81L1128,649.81Z" style="fill:none;stroke:#7AC36A;stroke-width:0.625" />
<path d="M1134.9,603.98L1140.3,603.98L1140.3,609.31L1134.9,609.31Z" style="fill:none;stroke:#7AC36A;stroke-width:0.625" />
<path d="M1141.9,523.83L1147.2,523.83L1147.2,529.17L1141.9,529.17Z" style="fill:none;stroke:#7AC36A;stroke-width:0.625" />
<path d="M1148.9,467.95L1154.2,467.95L1154.2,473.28L1148.9,473.28Z" style="fill:none;stroke:#7AC36A;stroke-width:0.625" />
<path d="M1155.8,380.52L1161.2,380.52L1161.2,385.86L1155.8,385.86Z" style="fill:none;stroke:#7AC36A;stroke-width:0.625" />
<path d="M1162.8,295.42L1168.1,295.42L1168.1,300.75L1162.8,300.75Z" style="fill:none;stroke:#7AC36A;stroke-width:0.625" />
<path d="M1169.7,253.63L1175.1,253.63L1175.1,258.96L1169.7,258.96Z" style="fill:none;stroke:#7AC36A;stroke-width:0.625" />
<path d="M1176.7,208.68L1182,208.68L1182,214.02L1176.7,214.02Z" style="fill:none;stroke:#7AC36A;stroke-width:0.625" />
<path d="M1183.7,208.74L1189,208.74L1189,214.08L1183.7,214.08Z" style="fill:none;stroke:#7AC36A;stroke-width:0.625" />
<path d="M1190.6,222.38L1196,222.38L1196,227.72L1190.6,227.72Z" style="fill:none;stroke:#7AC36A;stroke-width:0.625" />
<path d="M1197.6,249.32L1202.9,249.32L1202.9,254.65L1197.6,254.65Z" style="fill:none;stroke:#7AC36A;stroke-width:0.625" />
<path d="M1204.5,302.59L1209.9,302.59L1209.9,307.92L1204.5,307.92Z" style="fill:none;stroke:#7AC36A;stroke-width:0.625" />
<path d="M1211.5,364.7L1216.8,364.7L1216.8,370.03L1211.5,370.03Z" style="fill:none;stroke:#7AC36A;stroke-width:0.625" />
<path d="M1218.5,430.63L1223.8,430.63L1223.8,435.96L1218.5,435.96Z" style="fill:none;stroke:#7AC36A;stroke-width:0.625" />
<path d="M1225.4,450.7L1230.8,450.7L1230.8,456.03L1225.4,456.03Z" style="fill:none;stroke:#7AC36A;stroke-width:0.625" />
<path d="M1232.4,476.78L1237.7,476.78L1237.7,482.12L1232.4,482.12Z" style="fill:none;stroke:#7AC36A;stroke-width:0.625" />
<path d="M1239.3,471.5L1244.7,471.5L1244.7,476.83L1239.3,476.83Z" style="fill:none;stroke:#7AC36A;stroke-width:0.625" />
<path d="M1246.3,488.71L1251.6,488.71L1251.6,494.04L1246.3,494.04Z" style="fill:none;stroke:#7AC36A;stroke-width:0.625" />
<path d="M1253.3,483.73L1258.6,483.73L1258.6,489.07L1253.3,489.07Z" style="fill:none;stroke:#7AC36A;stroke-width:0.625" />
<path d="M1260.2,482.3L1265.6,482.3L1265.6,487.64L1260.2,487.64Z" style="fill:none;stroke:#7AC36A;stroke-width:0.625" />
<path d="M1267.2,491.17L1272.5,491.17L1272.5,496.51L1267.2,496.51Z" style="fill:none;stroke:#7AC36A;stroke-width:0.625" />
<path d="M1274.1,494.91L1279.5,494.91L1279.5,500.24L1274.1,500.24Z" style="fill:none;stroke:#7AC36A;stroke-width:0.625" />
<path d="M1281.1,526.5L1286.4,526.5L1286.4,531.83L1281.1,531.83Z" style="fill:none;stroke:#7AC36A;stroke-width:0.625" />
<path d="M1288.1,518.81L1293.4,518.81L1293.4,524.14L1288.1,524.14Z" style="fill:none;stroke:#7AC36A;stroke-width:0.625" />
<path d="M1295,564.14L1300.4,564.14L1300.4,569.47L1295,569.47Z" style="fill:none;stroke:#7AC36A;stroke-width:0.625" />
<path d="M1302,564.01L1307.3,564.01L1307.3,569.35L1302,569.35Z" style="fill:none;stroke:#7AC36A;stroke-width:0.625" />
<path d="M1308.9,551.18L1314.3,551.18L1314.3,556.52L1308.9,556.52Z" style="fill:none;stroke:#7AC36A;stroke-width:0.625" />
<path d="M1315.9,552.89L1321.2,552.89L1321.2,558.23L1315.9,558.23Z" style="fill:none;stroke:#7AC36A;stroke-width:0.625" />
<path d="M1322.9,519.21L1328.2,519.21L1328.2,524.55L1322.9,524.55Z" style="fill:none;stroke:#7AC36A;stroke-width:0.625" />
<path d="M1329.8,443.66L1335.1,443.66L1335.1,449L1329.8,449Z" style="fill:none;stroke:#7AC36A;stroke-width:0.625" />
<path d="M1336.8,366.26L1342.1,366.26L1342.1,371.59L1336.8,371.59Z" style="fill:none;stroke:#7AC36A;stroke-width:0.625" />
<path d="M1343.7,307L1349.1,307L1349.1,312.34L1343.7,312.34Z" style="fill:none;stroke:#7AC36A;stroke-width:0.625" />
<path d="M1350.7,228.89L1356,228.89L1356,234.23L1350.7,234.23Z" style="fill:none;stroke:#7AC36A;stroke-width:0.625" />
<path d="M1357.7,185L1363,185L1363,190.34L1357.7,190.34Z" style="fill:none;stroke:#7AC36A;stroke-width:0.625" />
<path d="M1364.6,187.7L1369.9,187.7L1369.9,193.03L1364.6,193.03Z" style="fill:none;stroke:#7AC36A;stroke-width:0.625" />
<path d="M1371.6,226.41L1376.9,226.41L1376.9,231.74L1371.6,231.74Z" style="fill:none;stroke:#7AC36A;stroke-width:0.625" />
<path d="M1378.5,273.12L1383.9,273.12L1383.9,278.46L1378.5,278.46Z" style="fill:none;stroke:#7AC36A;stroke-width:0.625" />
<path d="M1385.5,348.54L1390.8,348.54L1390.8,353.87L1385.5,353.87Z" style="fill:none;stroke:#7AC36A;stroke-width:0.625" />
<path d="M1392.5,406.21L1397.8,406.21L1397.8,411.55L1392.5,411.55Z" style="fill:none;stroke:#7AC36A;stroke-width:0.625" />
<path d="M1399.4,458.61L1404.7,458.61L1404.7,463.95L1399.4,463.95Z" style="fill:none;stroke:#7AC36A;stroke-width:0.625" />
<path d="M1406.4,502.27L1411.7,502.27L1411.7,507.6L1406.4,507.6Z" style="fill:none;stroke:#7AC36A;stroke-width:0.625" />
<path d="M1413.3,534.45L1418.7,534.45L1418.7,539.78L1413.3,539.78Z" style="fill:none;stroke:#7AC36A;stroke-width:0.625" />
<path d="M1420.3,541.23L1425.6,541.23L1425.6,546.56L1420.3,546.56Z" style="fill:none;stroke:#7AC36A;stroke-width:0.625" />
<path d="M1427.2,554.99L1432.6,554.99L1432.6,560.33L1427.2,560.33Z" style="fill:none;stroke:#7AC36A;stroke-width:0.625" />
<path d="M1434.2,534.94L1439.5,534.94L1439.5,540.28L1434.2,540.28Z" style="fill:none;stroke:#7AC36A;stroke-width:0.625" />
<path d="M1415,66.978L1440,66.978" style="fill:none;stroke:#F15A60;stroke-width:1.25" />
<path d="M1430.6,66.978A3.125,3.125 0 1 1 1424.4,66.978A3.125,3.125 0 1 1 1430.6,66.978Z" style="fill:none;stroke:#F15A60;stroke-width:0.625" />
<text x="1388.8" y="-61.188" transform="scale(1, -1)"
	style="font-family:Times;font-weight:normal;font-style:normal;font-size:12pt">raw</text>
<path d="M1415,53.117L1440,53.117" style="fill:none;stroke:#7AC36A;stroke-width:1.25;stroke-dasharray:7.5,2.5" />
<path d="M1424.8,50.45L1430.2,50.45L1430.2,55.785L1424.8,55.785Z" style="fill:none;stroke:#7AC36A;stroke-width:0.625" />
<text x="1367.1" y="-47.328" transform="scale(1, -1)"
	style="font-family:Times;font-weight:normal;font-style:normal;font-size:12pt">smooth</text>
</g>
</svg>
