<?xml version="1.0"?>
<!-- Generated by SVGo and Plotinum VG -->
<svg width="16in" height="9in"
	xmlns="http://www.w3.org/2000/svg"
	xmlns:xlink="http://www.w3.org/1999/xlink">
<g transform="scale(1, -1) translate(0, -810)">
<path d="M0,0L1440,0L1440,810L0,810Z" style="fill:#FFFFFF" />
<text x="738.98" y="-5.355" transform="scale(1, -1)"
	style="font-family:Times;font-weight:normal;font-style:normal;font-size:12pt">X</text>
<text x="48.8" y="-19.025" transform="scale(1, -1)"
	style="font-family:Times;font-weight:normal;font-style:normal;font-size:10pt">0</text>
<text x="463.25" y="-19.025" transform="scale(1, -1)"
	style="font-family:Times;font-weight:normal;font-style:normal;font-size:10pt">60</text>
<text x="877.7" y="-19.025" transform="scale(1, -1)"
	style="font-family:Times;font-weight:normal;font-style:normal;font-size:10pt">120</text>
<text x="1295.3" y="-19.025" transform="scale(1, -1)"
	style="font-family:Times;font-weight:normal;font-style:normal;font-size:10pt">180</text>
<path d="M51.925,29.625L51.925,39.625" style="fill:none;stroke:#000000;stroke-width:0.625" />
<path d="M469.5,29.625L469.5,39.625" style="fill:none;stroke:#000000;stroke-width:0.625" />
<path d="M887.07,29.625L887.07,39.625" style="fill:none;stroke:#000000;stroke-width:0.625" />
<path d="M1304.6,29.625L1304.6,39.625" style="fill:none;stroke:#000000;stroke-width:0.625" />
<path d="M191.12,34.625L191.12,39.625" style="fill:none;stroke:#000000;stroke-width:0.625" />
<path d="M330.31,34.625L330.31,39.625" style="fill:none;stroke:#000000;stroke-width:0.625" />
<path d="M608.69,34.625L608.69,39.625" style="fill:none;stroke:#000000;stroke-width:0.625" />
<path d="M747.88,34.625L747.88,39.625" style="fill:none;stroke:#000000;stroke-width:0.625" />
<path d="M1026.3,34.625L1026.3,39.625" style="fill:none;stroke:#000000;stroke-width:0.625" />
<path d="M1165.5,34.625L1165.5,39.625" style="fill:none;stroke:#000000;stroke-width:0.625" />
<path d="M51.925,39.625L1436.9,39.625" style="fill:none;stroke:#000000;stroke-width:0.625" />
<g transform="rotate(90)">
<text x="422.68" y="12.72" transform="scale(1, -1)"
	style="font-family:Times;font-weight:normal;font-style:normal;font-size:12pt">Y</text>
</g>
<text x="18.075" y="-170.86" transform="scale(1, -1)"
	style="font-family:Times;font-weight:normal;font-style:normal;font-size:10pt">-1</text>
<text x="22.237" y="-343.34" transform="scale(1, -1)"
	style="font-family:Times;font-weight:normal;font-style:normal;font-size:10pt">0</text>
<text x="22.237" y="-515.83" transform="scale(1, -1)"
	style="font-family:Times;font-weight:normal;font-style:normal;font-size:10pt">1</text>
<text x="22.237" y="-688.31" transform="scale(1, -1)"
	style="font-family:Times;font-weight:normal;font-style:normal;font-size:10pt">2</text>
<path d="M31.613,175.68L41.612,175.68" style="fill:none;stroke:#000000;stroke-width:0.625" />
<path d="M31.613,348.17L41.612,348.17" style="fill:none;stroke:#000000;stroke-width:0.625" />
<path d="M31.613,520.65L41.612,520.65" style="fill:none;stroke:#000000;stroke-width:0.625" />
<path d="M31.613,693.14L41.612,693.14" style="fill:none;stroke:#000000;stroke-width:0.625" />
<path d="M36.612,89.437L41.612,89.437" style="fill:none;stroke:#000000;stroke-width:0.625" />
<path d="M36.612,261.92L41.612,261.92" style="fill:none;stroke:#000000;stroke-width:0.625" />
<path d="M36.612,434.41L41.612,434.41" style="fill:none;stroke:#000000;stroke-width:0.625" />
<path d="M36.612,606.9L41.612,606.9" style="fill:none;stroke:#000000;stroke-width:0.625" />
<path d="M36.612,779.38L41.612,779.38" style="fill:none;stroke:#000000;stroke-width:0.625" />
<path d="M41.612,49.313L41.612,806.88" style="fill:none;stroke:#000000;stroke-width:0.625" />
<path d="M51.925,348.17L58.885,484.28L65.844,600.55L72.804,580.93L79.763,650.58L86.723,636.76L93.682,803.85L100.64,741.36L107.6,704.08L114.56,806.88L121.52,702.71L128.48,600.91L135.44,573.06L142.4,532.86L149.36,585.63L156.32,461.89L163.28,395.02L170.24,384.06L177.2,474.38L184.16,415.87L191.12,355.86L198.08,379.8L205.04,322.01L211.99,400.02L218.95,441.15L225.91,375.16L232.87,418.82L239.83,480.82L246.79,544.51L253.75,548.15L260.71,411.19L267.67,409.71L274.63,488.92L281.59,489.61L288.55,349.57L295.51,356.65L302.47,243.85L309.43,315.49L316.39,257.6L323.35,138.75L330.31,184.94L337.27,201.52L344.23,143.44L351.19,49.313L358.15,218.71L365.1,241.31L372.06,189.62L379.02,166.98L385.98,312.1L392.94,398.99L399.9,452.16L406.86,463.23L413.82,609.7L420.78,576.59L427.74,598.66L434.7,759.04L441.66,642.92L448.62,791.71L455.58,704.91L462.54,795.73L469.5,706.82L476.46,734.02L483.42,556.64L490.38,551.04L497.34,508.16L504.3,479.43L511.26,542.59L518.21,505.62L525.17,323.43L532.13,310.82L539.09,379.52L546.05,323.63L553.01,414.89L559.97,425.92L566.93,431.78L573.89,415.8L580.85,458.68L587.81,494.22L594.77,541.8L601.73,474.35L608.69,482.22L615.65,528.91L622.61,476.72L629.57,500.52L636.53,469.56L643.49,419.05L650.45,339.52L657.41,359.15L664.37,164.81L671.32,143.41L678.28,118.9L685.24,104.38L692.2,167.46L699.16,199.44L706.12,154.82L713.08,249.6L720.04,215.2L727,239.84L733.96,288.52L740.92,440.48L747.88,441.41L754.84,558.95L761.8,549.99L768.76,561.22L775.72,674.53L782.68,741.39L789.64,794.24L796.6,770.04L803.56,731.73L810.52,779.23L817.48,685.09L824.43,619.26L831.39,575.62L838.35,616.52L845.31,480.78L852.27,479.44L859.23,419.27L866.19,364.16L873.15,421.42L880.11,429.4L887.07,289.03L894.03,308.43L900.99,445.8L907.95,453.71L914.91,478.59L921.87,464.09L928.83,406.41L935.79,531.2L942.75,468.47L949.71,544.4L956.67,577.62L963.63,463.48L970.59,398.08L977.54,431.06L984.5,464.64L991.46,385.61L998.42,289.16L1005.4,314.97L1012.3,297.32L1019.3,208.34L1026.3,185.01L1033.2,126.52L1040.2,53.314L1047.1,78.31L1054.1,108.21L1061.1,212.21L1068,146.36L1075,288.27L1081.9,316.83L1088.9,358.25L1095.9,375.51L1102.8,574.23L1109.8,561.14L1116.7,642.69L1123.7,618.43L1130.7,657L1137.6,765.22L1144.6,758.59L1151.5,789.31L1158.5,716.53L1165.5,626.65L1172.4,714.6L1179.4,598.34L1186.3,530.65L1193.3,568.63L1200.3,441.3L1207.2,451.92L1214.2,379.36L1221.1,321.19L1228.1,343.48L1235,363.25L1242,414.1L1249,327.7L1255.9,411.28L1262.9,383.57L1269.8,519.68L1276.8,504.98L1283.8,535.61L1290.7,565.69L1297.7,523.99L1304.6,578.11L1311.6,412.76L1318.6,548.46L1325.5,404.48L1332.5,357.98L1339.4,425.63L1346.4,350.62L1353.4,224.71L1360.3,194.87L1367.3,216.74L1374.2,92.907L1381.2,104.39L1388.2,162.56L1395.1,206.48L1402.1,176.24L1409,236.76L1416,184.63L1423,197.86L1429.9,240.03L1436.9,309.95" style="fill:none;stroke:#F15A60;stroke-width:1.25" />
<path d="M55.05,348.17A3.125,3.125 0 1 1 48.8,348.17A3.125,3.125 0 1 1 55.05,348.17Z" style="fill:none;stroke:#F15A60;stroke-width:0.625" />
<path d="M62.01,484.28A3.125,3.125 0 1 1 55.76,484.28A3.125,3.125 0 1 1 62.01,484.28Z" style="fill:none;stroke:#F15A60;stroke-width:0.625" />
<path d="M68.969,600.55A3.125,3.125 0 1 1 62.719,600.55A3.125,3.125 0 1 1 68.969,600.55Z" style="fill:none;stroke:#F15A60;stroke-width:0.625" />
<path d="M75.929,580.93A3.125,3.125 0 1 1 69.679,580.93A3.125,3.125 0 1 1 75.929,580.93Z" style="fill:none;stroke:#F15A60;stroke-width:0.625" />
<path d="M82.888,650.58L82.888,650.58A3.125,3.125 0 1 1 76.638,650.58A3.125,3.125 0 1 1 82.888,650.58Z" style="fill:none;stroke:#F15A60;stroke-width:0.625" />
<path d="M89.848,636.76L89.848,636.76A3.125,3.125 0 1 1 83.598,636.76A3.125,3.125 0 1 1 89.848,636.76Z" style="fill:none;stroke:#F15A60;stroke-width:0.625" />
<path d="M96.807,803.85L96.807,803.85A3.125,3.125 0 1 1 90.557,803.85A3.125,3.125 0 1 1 96.807,803.85Z" style="fill:none;stroke:#F15A60;stroke-width:0.625" />
<path d="M103.77,741.36L103.77,741.36A3.125,3.125 0 1 1 97.517,741.36A3.125,3.125 0 1 1 103.77,741.36Z" style="fill:none;stroke:#F15A60;stroke-width:0.625" />
<path d="M110.73,704.08L110.73,704.08A3.125,3.125 0 1 1 104.48,704.08A3.125,3.125 0 1 1 110.73,704.08Z" style="fill:none;stroke:#F15A60;stroke-width:0.625" />
<path d="M117.69,806.88L117.69,806.88A3.125,3.125 0 1 1 111.44,806.88A3.125,3.125 0 1 1 117.69,806.88Z" style="fill:none;stroke:#F15A60;stroke-width:0.625" />
<path d="M124.65,702.71A3.125,3.125 0 1 1 118.4,702.71A3.125,3.125 0 1 1 124.65,702.71Z" style="fill:none;stroke:#F15A60;stroke-width:0.625" />
<path d="M131.61,600.91A3.125,3.125 0 1 1 125.36,600.91A3.125,3.125 0 1 1 131.61,600.91Z" style="fill:none;stroke:#F15A60;stroke-width:0.625" />
<path d="M138.56,573.06A3.125,3.125 0 1 1 132.31,573.06A3.125,3.125 0 1 1 138.56,573.06Z" style="fill:none;stroke:#F15A60;stroke-width:0.625" />
<path d="M145.52,532.86A3.125,3.125 0 1 1 139.27,532.86A3.125,3.125 0 1 1 145.52,532.86Z" style="fill:none;stroke:#F15A60;stroke-width:0.625" />
<path d="M152.48,585.63A3.125,3.125 0 1 1 146.23,585.63A3.125,3.125 0 1 1 152.48,585.63Z" style="fill:none;stroke:#F15A60;stroke-width:0.625" />
<path d="M159.44,461.89A3.125,3.125 0 1 1 153.19,461.89A3.125,3.125 0 1 1 159.44,461.89Z" style="fill:none;stroke:#F15A60;stroke-width:0.625" />
<path d="M166.4,395.02A3.125,3.125 0 1 1 160.15,395.02A3.125,3.125 0 1 1 166.4,395.02Z" style="fill:none;stroke:#F15A60;stroke-width:0.625" />
<path d="M173.36,384.06A3.125,3.125 0 1 1 167.11,384.06A3.125,3.125 0 1 1 173.36,384.06Z" style="fill:none;stroke:#F15A60;stroke-width:0.625" />
<path d="M180.32,474.38L180.32,474.38A3.125,3.125 0 1 1 174.07,474.38A3.125,3.125 0 1 1 180.32,474.38Z" style="fill:none;stroke:#F15A60;stroke-width:0.625" />
<path d="M187.28,415.87A3.125,3.125 0 1 1 181.03,415.87A3.125,3.125 0 1 1 187.28,415.87Z" style="fill:none;stroke:#F15A60;stroke-width:0.625" />
<path d="M194.24,355.86L194.24,355.86A3.125,3.125 0 1 1 187.99,355.86A3.125,3.125 0 1 1 194.24,355.86Z" style="fill:none;stroke:#F15A60;stroke-width:0.625" />
<path d="M201.2,379.8A3.125,3.125 0 1 1 194.95,379.8A3.125,3.125 0 1 1 201.2,379.8Z" style="fill:none;stroke:#F15A60;stroke-width:0.625" />
<path d="M208.16,322.01A3.125,3.125 0 1 1 201.91,322.01A3.125,3.125 0 1 1 208.16,322.01Z" style="fill:none;stroke:#F15A60;stroke-width:0.625" />
<path d="M215.12,400.02A3.125,3.125 0 1 1 208.87,400.02A3.125,3.125 0 1 1 215.12,400.02Z" style="fill:none;stroke:#F15A60;stroke-width:0.625" />
<path d="M222.08,441.15L222.08,441.15A3.125,3.125 0 1 1 215.83,441.15A3.125,3.125 0 1 1 222.08,441.15Z" style="fill:none;stroke:#F15A60;stroke-width:0.625" />
<path d="M229.04,375.16A3.125,3.125 0 1 1 222.79,375.16A3.125,3.125 0 1 1 229.04,375.16Z" style="fill:none;stroke:#F15A60;stroke-width:0.625" />
<path d="M236,418.82A3.125,3.125 0 1 1 229.75,418.82A3.125,3.125 0 1 1 236,418.82Z" style="fill:none;stroke:#F15A60;stroke-width:0.625" />
<path d="M242.96,480.82A3.125,3.125 0 1 1 236.71,480.82A3.125,3.125 0 1 1 242.96,480.82Z" style="fill:none;stroke:#F15A60;stroke-width:0.625" />
<path d="M249.92,544.51L249.92,544.51A3.125,3.125 0 1 1 243.67,544.51A3.125,3.125 0 1 1 249.92,544.51Z" style="fill:none;stroke:#F15A60;stroke-width:0.625" />
<path d="M256.88,548.15L256.88,548.15A3.125,3.125 0 1 1 250.63,548.15A3.125,3.125 0 1 1 256.88,548.15Z" style="fill:none;stroke:#F15A60;stroke-width:0.625" />
<path d="M263.84,411.19A3.125,3.125 0 1 1 257.59,411.19A3.125,3.125 0 1 1 263.84,411.19Z" style="fill:none;stroke:#F15A60;stroke-width:0.625" />
<path d="M270.8,409.71A3.125,3.125 0 1 1 264.55,409.71A3.125,3.125 0 1 1 270.8,409.71Z" style="fill:none;stroke:#F15A60;stroke-width:0.625" />
<path d="M277.76,488.92L277.76,488.92A3.125,3.125 0 1 1 271.51,488.92A3.125,3.125 0 1 1 277.76,488.92Z" style="fill:none;stroke:#F15A60;stroke-width:0.625" />
<path d="M284.72,489.61A3.125,3.125 0 1 1 278.47,489.61A3.125,3.125 0 1 1 284.72,489.61Z" style="fill:none;stroke:#F15A60;stroke-width:0.625" />
<path d="M291.67,349.57L291.67,349.57A3.125,3.125 0 1 1 285.42,349.57A3.125,3.125 0 1 1 291.67,349.57Z" style="fill:none;stroke:#F15A60;stroke-width:0.625" />
<path d="M298.63,356.65A3.125,3.125 0 1 1 292.38,356.65A3.125,3.125 0 1 1 298.63,356.65Z" style="fill:none;stroke:#F15A60;stroke-width:0.625" />
<path d="M305.59,243.85A3.125,3.125 0 1 1 299.34,243.85A3.125,3.125 0 1 1 305.59,243.85Z" style="fill:none;stroke:#F15A60;stroke-width:0.625" />
<path d="M312.55,315.49A3.125,3.125 0 1 1 306.3,315.49A3.125,3.125 0 1 1 312.55,315.49Z" style="fill:none;stroke:#F15A60;stroke-width:0.625" />
<path d="M319.51,257.6A3.125,3.125 0 1 1 313.26,257.6A3.125,3.125 0 1 1 319.51,257.6Z" style="fill:none;stroke:#F15A60;stroke-width:0.625" />
<path d="M326.47,138.75A3.125,3.125 0 1 1 320.22,138.75A3.125,3.125 0 1 1 326.47,138.75Z" style="fill:none;stroke:#F15A60;stroke-width:0.625" />
<path d="M333.43,184.94L333.43,184.94A3.125,3.125 0 1 1 327.18,184.94A3.125,3.125 0 1 1 333.43,184.94Z" style="fill:none;stroke:#F15A60;stroke-width:0.625" />
<path d="M340.39,201.52A3.125,3.125 0 1 1 334.14,201.52A3.125,3.125 0 1 1 340.39,201.52Z" style="fill:none;stroke:#F15A60;stroke-width:0.625" />
<path d="M347.35,143.44L347.35,143.44A3.125,3.125 0 1 1 341.1,143.44A3.125,3.125 0 1 1 347.35,143.44Z" style="fill:none;stroke:#F15A60;stroke-width:0.625" />
<path d="M354.31,49.313A3.125,3.125 0 1 1 348.06,49.313A3.125,3.125 0 1 1 354.31,49.313Z" style="fill:none;stroke:#F15A60;stroke-width:0.625" />
<path d="M361.27,218.71L361.27,218.71A3.125,3.125 0 1 1 355.02,218.71A3.125,3.125 0 1 1 361.27,218.71Z" style="fill:none;stroke:#F15A60;stroke-width:0.625" />
<path d="M368.23,241.31A3.125,3.125 0 1 1 361.98,241.31A3.125,3.125 0 1 1 368.23,241.31Z" style="fill:none;stroke:#F15A60;stroke-width:0.625" />
<path d="M375.19,189.62A3.125,3.125 0 1 1 368.94,189.62A3.125,3.125 0 1 1 375.19,189.62Z" style="fill:none;stroke:#F15A60;stroke-width:0.625" />
<path d="M382.15,166.98A3.125,3.125 0 1 1 375.9,166.98A3.125,3.125 0 1 1 382.15,166.98Z" style="fill:none;stroke:#F15A60;stroke-width:0.625" />
<path d="M389.11,312.1A3.125,3.125 0 1 1 382.86,312.1A3.125,3.125 0 1 1 389.11,312.1Z" style="fill:none;stroke:#F15A60;stroke-width:0.625" />
<path d="M396.07,398.99A3.125,3.125 0 1 1 389.82,398.99A3.125,3.125 0 1 1 396.07,398.99Z" style="fill:none;stroke:#F15A60;stroke-width:0.625" />
<path d="M403.03,452.16L403.03,452.16A3.125,3.125 0 1 1 396.78,452.16A3.125,3.125 0 1 1 403.03,452.16Z" style="fill:none;stroke:#F15A60;stroke-width:0.625" />
<path d="M409.99,463.23A3.125,3.125 0 1 1 403.74,463.23A3.125,3.125 0 1 1 409.99,463.23Z" style="fill:none;stroke:#F15A60;stroke-width:0.625" />
<path d="M416.95,609.7A3.125,3.125 0 1 1 410.7,609.7A3.125,3.125 0 1 1 416.95,609.7Z" style="fill:none;stroke:#F15A60;stroke-width:0.625" />
<path d="M423.91,576.59L423.91,576.59A3.125,3.125 0 1 1 417.66,576.59A3.125,3.125 0 1 1 423.91,576.59Z" style="fill:none;stroke:#F15A60;stroke-width:0.625" />
<path d="M430.87,598.66A3.125,3.125 0 1 1 424.62,598.66A3.125,3.125 0 1 1 430.87,598.66Z" style="fill:none;stroke:#F15A60;stroke-width:0.625" />
<path d="M437.83,759.04A3.125,3.125 0 1 1 431.58,759.04A3.125,3.125 0 1 1 437.83,759.04Z" style="fill:none;stroke:#F15A60;stroke-width:0.625" />
<path d="M444.78,642.92A3.125,3.125 0 1 1 438.53,642.92A3.125,3.125 0 1 1 444.78,642.92Z" style="fill:none;stroke:#F15A60;stroke-width:0.625" />
<path d="M451.74,791.71L451.74,791.71A3.125,3.125 0 1 1 445.49,791.71A3.125,3.125 0 1 1 451.74,791.71Z" style="fill:none;stroke:#F15A60;stroke-width:0.625" />
<path d="M458.7,704.91L458.7,704.91A3.125,3.125 0 1 1 452.45,704.91A3.125,3.125 0 1 1 458.7,704.91Z" style="fill:none;stroke:#F15A60;stroke-width:0.625" />
<path d="M465.66,795.73L465.66,795.73A3.125,3.125 0 1 1 459.41,795.73A3.125,3.125 0 1 1 465.66,795.73Z" style="fill:none;stroke:#F15A60;stroke-width:0.625" />
<path d="M472.62,706.82A3.125,3.125 0 1 1 466.37,706.82A3.125,3.125 0 1 1 472.62,706.82Z" style="fill:none;stroke:#F15A60;stroke-width:0.625" />
<path d="M479.58,734.02A3.125,3.125 0 1 1 473.33,734.02A3.125,3.125 0 1 1 479.58,734.02Z" style="fill:none;stroke:#F15A60;stroke-width:0.625" />
<path d="M486.54,556.64A3.125,3.125 0 1 1 480.29,556.64A3.125,3.125 0 1 1 486.54,556.64Z" style="fill:none;stroke:#F15A60;stroke-width:0.625" />
<path d="M493.5,551.04A3.125,3.125 0 1 1 487.25,551.04A3.125,3.125 0 1 1 493.5,551.04Z" style="fill:none;stroke:#F15A60;stroke-width:0.625" />
<path d="M500.46,508.16A3.125,3.125 0 1 1 494.21,508.16A3.125,3.125 0 1 1 500.46,508.16Z" style="fill:none;stroke:#F15A60;stroke-width:0.625" />
<path d="M507.42,479.43A3.125,3.125 0 1 1 501.17,479.43A3.125,3.125 0 1 1 507.42,479.43Z" style="fill:none;stroke:#F15A60;stroke-width:0.625" />
<path d="M514.38,542.59L514.38,542.59A3.125,3.125 0 1 1 508.13,542.59A3.125,3.125 0 1 1 514.38,542.59Z" style="fill:none;stroke:#F15A60;stroke-width:0.625" />
<path d="M521.34,505.62A3.125,3.125 0 1 1 515.09,505.62A3.125,3.125 0 1 1 521.34,505.62Z" style="fill:none;stroke:#F15A60;stroke-width:0.625" />
<path d="M528.3,323.43A3.125,3.125 0 1 1 522.05,323.43A3.125,3.125 0 1 1 528.3,323.43Z" style="fill:none;stroke:#F15A60;stroke-width:0.625" />
<path d="M535.26,310.82L535.26,310.82A3.125,3.125 0 1 1 529.01,310.82A3.125,3.125 0 1 1 535.26,310.82Z" style="fill:none;stroke:#F15A60;stroke-width:0.625" />
<path d="M542.22,379.52A3.125,3.125 0 1 1 535.97,379.52A3.125,3.125 0 1 1 542.22,379.52Z" style="fill:none;stroke:#F15A60;stroke-width:0.625" />
<path d="M549.18,323.63A3.125,3.125 0 1 1 542.93,323.63A3.125,3.125 0 1 1 549.18,323.63Z" style="fill:none;stroke:#F15A60;stroke-width:0.625" />
<path d="M556.14,414.89A3.125,3.125 0 1 1 549.89,414.89A3.125,3.125 0 1 1 556.14,414.89Z" style="fill:none;stroke:#F15A60;stroke-width:0.625" />
<path d="M563.1,425.92A3.125,3.125 0 1 1 556.85,425.92A3.125,3.125 0 1 1 563.1,425.92Z" style="fill:none;stroke:#F15A60;stroke-width:0.625" />
<path d="M570.06,431.78L570.06,431.78A3.125,3.125 0 1 1 563.81,431.78A3.125,3.125 0 1 1 570.06,431.78Z" style="fill:none;stroke:#F15A60;stroke-width:0.625" />
<path d="M577.02,415.8A3.125,3.125 0 1 1 570.77,415.8A3.125,3.125 0 1 1 577.02,415.8Z" style="fill:none;stroke:#F15A60;stroke-width:0.625" />
<path d="M583.98,458.68A3.125,3.125 0 1 1 577.73,458.68A3.125,3.125 0 1 1 583.98,458.68Z" style="fill:none;stroke:#F15A60;stroke-width:0.625" />
<path d="M590.94,494.22A3.125,3.125 0 1 1 584.69,494.22A3.125,3.125 0 1 1 590.94,494.22Z" style="fill:none;stroke:#F15A60;stroke-width:0.625" />
<path d="M597.89,541.8A3.125,3.125 0 1 1 591.64,541.8A3.125,3.125 0 1 1 597.89,541.8Z" style="fill:none;stroke:#F15A60;stroke-width:0.625" />
<path d="M604.85,474.35A3.125,3.125 0 1 1 598.6,474.35A3.125,3.125 0 1 1 604.85,474.35Z" style="fill:none;stroke:#F15A60;stroke-width:0.625" />
<path d="M611.81,482.22A3.125,3.125 0 1 1 605.56,482.22A3.125,3.125 0 1 1 611.81,482.22Z" style="fill:none;stroke:#F15A60;stroke-width:0.625" />
<path d="M618.77,528.91A3.125,3.125 0 1 1 612.52,528.91A3.125,3.125 0 1 1 618.77,528.91Z" style="fill:none;stroke:#F15A60;stroke-width:0.625" />
<path d="M625.73,476.72A3.125,3.125 0 1 1 619.48,476.72A3.125,3.125 0 1 1 625.73,476.72Z" style="fill:none;stroke:#F15A60;stroke-width:0.625" />
<path d="M632.69,500.52A3.125,3.125 0 1 1 626.44,500.52A3.125,3.125 0 1 1 632.69,500.52Z" style="fill:none;stroke:#F15A60;stroke-width:0.625" />
<path d="M639.65,469.56A3.125,3.125 0 1 1 633.4,469.56A3.125,3.125 0 1 1 639.65,469.56Z" style="fill:none;stroke:#F15A60;stroke-width:0.625" />
<path d="M646.61,419.05A3.125,3.125 0 1 1 640.36,419.05A3.125,3.125 0 1 1 646.61,419.05Z" style="fill:none;stroke:#F15A60;stroke-width:0.625" />
<path d="M653.57,339.52A3.125,3.125 0 1 1 647.32,339.52A3.125,3.125 0 1 1 653.57,339.52Z" style="fill:none;stroke:#F15A60;stroke-width:0.625" />
<path d="M660.53,359.15A3.125,3.125 0 1 1 654.28,359.15A3.125,3.125 0 1 1 660.53,359.15Z" style="fill:none;stroke:#F15A60;stroke-width:0.625" />
<path d="M667.49,164.81A3.125,3.125 0 1 1 661.24,164.81A3.125,3.125 0 1 1 667.49,164.81Z" style="fill:none;stroke:#F15A60;stroke-width:0.625" />
<path d="M674.45,143.41A3.125,3.125 0 1 1 668.2,143.41A3.125,3.125 0 1 1 674.45,143.41Z" style="fill:none;stroke:#F15A60;stroke-width:0.625" />
<path d="M681.41,118.9L681.41,118.9A3.125,3.125 0 1 1 675.16,118.9A3.125,3.125 0 1 1 681.41,118.9Z" style="fill:none;stroke:#F15A60;stroke-width:0.625" />
<path d="M688.37,104.38A3.125,3.125 0 1 1 682.12,104.38A3.125,3.125 0 1 1 688.37,104.38Z" style="fill:none;stroke:#F15A60;stroke-width:0.625" />
<path d="M695.33,167.46A3.125,3.125 0 1 1 689.08,167.46A3.125,3.125 0 1 1 695.33,167.46Z" style="fill:none;stroke:#F15A60;stroke-width:0.625" />
<path d="M702.29,199.44A3.125,3.125 0 1 1 696.04,199.44A3.125,3.125 0 1 1 702.29,199.44Z" style="fill:none;stroke:#F15A60;stroke-width:0.625" />
<path d="M709.25,154.82L709.25,154.82A3.125,3.125 0 1 1 703,154.82A3.125,3.125 0 1 1 709.25,154.82Z" style="fill:none;stroke:#F15A60;stroke-width:0.625" />
<path d="M716.21,249.6L716.21,249.6A3.125,3.125 0 1 1 709.96,249.6A3.125,3.125 0 1 1 716.21,249.6Z" style="fill:none;stroke:#F15A60;stroke-width:0.625" />
<path d="M723.17,215.2L723.17,215.2A3.125,3.125 0 1 1 716.92,215.2A3.125,3.125 0 1 1 723.17,215.2Z" style="fill:none;stroke:#F15A60;stroke-width:0.625" />
<path d="M730.13,239.84L730.13,239.84A3.125,3.125 0 1 1 723.88,239.84A3.125,3.125 0 1 1 730.13,239.84Z" style="fill:none;stroke:#F15A60;stroke-width:0.625" />
<path d="M737.09,288.52L737.09,288.52A3.125,3.125 0 1 1 730.84,288.52A3.125,3.125 0 1 1 737.09,288.52Z" style="fill:none;stroke:#F15A60;stroke-width:0.625" />
<path d="M744.05,440.48L744.05,440.48A3.125,3.125 0 1 1 737.8,440.48A3.125,3.125 0 1 1 744.05,440.48Z" style="fill:none;stroke:#F15A60;stroke-width:0.625" />
<path d="M751,441.41L751,441.41A3.125,3.125 0 1 1 744.75,441.41A3.125,3.125 0 1 1 751,441.41Z" style="fill:none;stroke:#F15A60;stroke-width:0.625" />
<path d="M757.96,558.95L757.96,558.95A3.125,3.125 0 1 1 751.71,558.95A3.125,3.125 0 1 1 757.96,558.95Z" style="fill:none;stroke:#F15A60;stroke-width:0.625" />
<path d="M764.92,549.99L764.92,549.99A3.125,3.125 0 1 1 758.67,549.99A3.125,3.125 0 1 1 764.92,549.99Z" style="fill:none;stroke:#F15A60;stroke-width:0.625" />
<path d="M771.88,561.22L771.88,561.22A3.125,3.125 0 1 1 765.63,561.22A3.125,3.125 0 1 1 771.88,561.22Z" style="fill:none;stroke:#F15A60;stroke-width:0.625" />
<path d="M778.84,674.53L778.84,674.53A3.125,3.125 0 1 1 772.59,674.53A3.125,3.125 0 1 1 778.84,674.53Z" style="fill:none;stroke:#F15A60;stroke-width:0.625" />
<path d="M785.8,741.39L785.8,741.39A3.125,3.125 0 1 1 779.55,741.39A3.125,3.125 0 1 1 785.8,741.39Z" style="fill:none;stroke:#F15A60;stroke-width:0.625" />
<path d="M792.76,794.24L792.76,794.24A3.125,3.125 0 1 1 786.51,794.24A3.125,3.125 0 1 1 792.76,794.24Z" style="fill:none;stroke:#F15A60;stroke-width:0.625" />
<path d="M799.72,770.04L799.72,770.04A3.125,3.125 0 1 1 793.47,770.04A3.125,3.125 0 1 1 799.72,770.04Z" style="fill:none;stroke:#F15A60;stroke-width:0.625" />
<path d="M806.68,731.73A3.125,3.125 0 1 1 800.43,731.73A3.125,3.125 0 1 1 806.68,731.73Z" style="fill:none;stroke:#F15A60;stroke-width:0.625" />
<path d="M813.64,779.23A3.125,3.125 0 1 1 807.39,779.23A3.125,3.125 0 1 1 813.64,779.23Z" style="fill:none;stroke:#F15A60;stroke-width:0.625" />
<path d="M820.6,685.09L820.6,685.09A3.125,3.125 0 1 1 814.35,685.09A3.125,3.125 0 1 1 820.6,685.09Z" style="fill:none;stroke:#F15A60;stroke-width:0.625" />
<path d="M827.56,619.26L827.56,619.26A3.125,3.125 0 1 1 821.31,619.26A3.125,3.125 0 1 1 827.56,619.26Z" style="fill:none;stroke:#F15A60;stroke-width:0.625" />
<path d="M834.52,575.62L834.52,575.62A3.125,3.125 0 1 1 828.27,575.62A3.125,3.125 0 1 1 834.52,575.62Z" style="fill:none;stroke:#F15A60;stroke-width:0.625" />
<path d="M841.48,616.52L841.48,616.52A3.125,3.125 0 1 1 835.23,616.52A3.125,3.125 0 1 1 841.48,616.52Z" style="fill:none;stroke:#F15A60;stroke-width:0.625" />
<path d="M848.44,480.78L848.44,480.78A3.125,3.125 0 1 1 842.19,480.78A3.125,3.125 0 1 1 848.44,480.78Z" style="fill:none;stroke:#F15A60;stroke-width:0.625" />
<path d="M855.4,479.44L855.4,479.44A3.125,3.125 0 1 1 849.15,479.44A3.125,3.125 0 1 1 855.4,479.44Z" style="fill:none;stroke:#F15A60;stroke-width:0.625" />
<path d="M862.36,419.27L862.36,419.27A3.125,3.125 0 1 1 856.11,419.27A3.125,3.125 0 1 1 862.36,419.27Z" style="fill:none;stroke:#F15A60;stroke-width:0.625" />
<path d="M869.32,364.16A3.125,3.125 0 1 1 863.07,364.16A3.125,3.125 0 1 1 869.32,364.16Z" style="fill:none;stroke:#F15A60;stroke-width:0.625" />
<path d="M876.28,421.42A3.125,3.125 0 1 1 870.03,421.42A3.125,3.125 0 1 1 876.28,421.42Z" style="fill:none;stroke:#F15A60;stroke-width:0.625" />
<path d="M883.24,429.4L883.24,429.4A3.125,3.125 0 1 1 876.99,429.4A3.125,3.125 0 1 1 883.24,429.4Z" style="fill:none;stroke:#F15A60;stroke-width:0.625" />
<path d="M890.2,289.03L890.2,289.03A3.125,3.125 0 1 1 883.95,289.03A3.125,3.125 0 1 1 890.2,289.03Z" style="fill:none;stroke:#F15A60;stroke-width:0.625" />
<path d="M897.16,308.43L897.16,308.43A3.125,3.125 0 1 1 890.91,308.43A3.125,3.125 0 1 1 897.16,308.43Z" style="fill:none;stroke:#F15A60;stroke-width:0.625" />
<path d="M904.11,445.8L904.11,445.8A3.125,3.125 0 1 1 897.86,445.8A3.125,3.125 0 1 1 904.11,445.8Z" style="fill:none;stroke:#F15A60;stroke-width:0.625" />
<path d="M911.07,453.71A3.125,3.125 0 1 1 904.82,453.71A3.125,3.125 0 1 1 911.07,453.71Z" style="fill:none;stroke:#F15A60;stroke-width:0.625" />
<path d="M918.03,478.59A3.125,3.125 0 1 1 911.78,478.59A3.125,3.125 0 1 1 918.03,478.59Z" style="fill:none;stroke:#F15A60;stroke-width:0.625" />
<path d="M924.99,464.09L924.99,464.09A3.125,3.125 0 1 1 918.74,464.09A3.125,3.125 0 1 1 924.99,464.09Z" style="fill:none;stroke:#F15A60;stroke-width:0.625" />
<path d="M931.95,406.41A3.125,3.125 0 1 1 925.7,406.41A3.125,3.125 0 1 1 931.95,406.41Z" style="fill:none;stroke:#F15A60;stroke-width:0.625" />
<path d="M938.91,531.2L938.91,531.2A3.125,3.125 0 1 1 932.66,531.2A3.125,3.125 0 1 1 938.91,531.2Z" style="fill:none;stroke:#F15A60;stroke-width:0.625" />
<path d="M945.87,468.47L945.87,468.47A3.125,3.125 0 1 1 939.62,468.47A3.125,3.125 0 1 1 945.87,468.47Z" style="fill:none;stroke:#F15A60;stroke-width:0.625" />
<path d="M952.83,544.4A3.125,3.125 0 1 1 946.58,544.4A3.125,3.125 0 1 1 952.83,544.4Z" style="fill:none;stroke:#F15A60;stroke-width:0.625" />
<path d="M959.79,577.62A3.125,3.125 0 1 1 953.54,577.62A3.125,3.125 0 1 1 959.79,577.62Z" style="fill:none;stroke:#F15A60;stroke-width:0.625" />
<path d="M966.75,463.48A3.125,3.125 0 1 1 960.5,463.48A3.125,3.125 0 1 1 966.75,463.48Z" style="fill:none;stroke:#F15A60;stroke-width:0.625" />
<path d="M973.71,398.08A3.125,3.125 0 1 1 967.46,398.08A3.125,3.125 0 1 1 973.71,398.08Z" style="fill:none;stroke:#F15A60;stroke-width:0.625" />
<path d="M980.67,431.06A3.125,3.125 0 1 1 974.42,431.06A3.125,3.125 0 1 1 980.67,431.06Z" style="fill:none;stroke:#F15A60;stroke-width:0.625" />
<path d="M987.63,464.64L987.63,464.64A3.125,3.125 0 1 1 981.38,464.64A3.125,3.125 0 1 1 987.63,464.64Z" style="fill:none;stroke:#F15A60;stroke-width:0.625" />
<path d="M994.59,385.61A3.125,3.125 0 1 1 988.34,385.61A3.125,3.125 0 1 1 994.59,385.61Z" style="fill:none;stroke:#F15A60;stroke-width:0.625" />
<path d="M1001.5,289.16L1001.5,289.16A3.125,3.125 0 1 1 995.3,289.16A3.125,3.125 0 1 1 1001.5,289.16Z" style="fill:none;stroke:#F15A60;stroke-width:0.625" />
<path d="M1008.5,314.97L1008.5,314.97A3.125,3.125 0 1 1 1002.3,314.97A3.125,3.125 0 1 1 1008.5,314.97Z" style="fill:none;stroke:#F15A60;stroke-width:0.625" />
<path d="M1015.5,297.32A3.125,3.125 0 1 1 1009.2,297.32A3.125,3.125 0 1 1 1015.5,297.32Z" style="fill:none;stroke:#F15A60;stroke-width:0.625" />
<path d="M1022.4,208.34L1022.4,208.34A3.125,3.125 0 1 1 1016.2,208.34A3.125,3.125 0 1 1 1022.4,208.34Z" style="fill:none;stroke:#F15A60;stroke-width:0.625" />
<path d="M1029.4,185.01A3.125,3.125 0 1 1 1023.1,185.01A3.125,3.125 0 1 1 1029.4,185.01Z" style="fill:none;stroke:#F15A60;stroke-width:0.625" />
<path d="M1036.3,126.52L1036.3,126.52A3.125,3.125 0 1 1 1030.1,126.52A3.125,3.125 0 1 1 1036.3,126.52Z" style="fill:none;stroke:#F15A60;stroke-width:0.625" />
<path d="M1043.3,53.314A3.125,3.125 0 1 1 1037.1,53.314A3.125,3.125 0 1 1 1043.3,53.314Z" style="fill:none;stroke:#F15A60;stroke-width:0.625" />
<path d="M1050.3,78.31A3.125,3.125 0 1 1 1044,78.31A3.125,3.125 0 1 1 1050.3,78.31Z" style="fill:none;stroke:#F15A60;stroke-width:0.625" />
<path d="M1057.2,108.21L1057.2,108.21A3.125,3.125 0 1 1 1051,108.21A3.125,3.125 0 1 1 1057.2,108.21Z" style="fill:none;stroke:#F15A60;stroke-width:0.625" />
<path d="M1064.2,212.21A3.125,3.125 0 1 1 1057.9,212.21A3.125,3.125 0 1 1 1064.2,212.21Z" style="fill:none;stroke:#F15A60;stroke-width:0.625" />
<path d="M1071.1,146.36A3.125,3.125 0 1 1 1064.9,146.36A3.125,3.125 0 1 1 1071.1,146.36Z" style="fill:none;stroke:#F15A60;stroke-width:0.625" />
<path d="M1078.1,288.27A3.125,3.125 0 1 1 1071.9,288.27A3.125,3.125 0 1 1 1078.1,288.27Z" style="fill:none;stroke:#F15A60;stroke-width:0.625" />
<path d="M1085.1,316.83L1085.1,316.83A3.125,3.125 0 1 1 1078.8,316.83A3.125,3.125 0 1 1 1085.1,316.83Z" style="fill:none;stroke:#F15A60;stroke-width:0.625" />
<path d="M1092,358.25A3.125,3.125 0 1 1 1085.8,358.25A3.125,3.125 0 1 1 1092,358.25Z" style="fill:none;stroke:#F15A60;stroke-width:0.625" />
<path d="M1099,375.51A3.125,3.125 0 1 1 1092.7,375.51A3.125,3.125 0 1 1 1099,375.51Z" style="fill:none;stroke:#F15A60;stroke-width:0.625" />
<path d="M1105.9,574.23A3.125,3.125 0 1 1 1099.7,574.23A3.125,3.125 0 1 1 1105.9,574.23Z" style="fill:none;stroke:#F15A60;stroke-width:0.625" />
<path d="M1112.9,561.14L1112.9,561.14A3.125,3.125 0 1 1 1106.7,561.14A3.125,3.125 0 1 1 1112.9,561.14Z" style="fill:none;stroke:#F15A60;stroke-width:0.625" />
<path d="M1119.9,642.69A3.125,3.125 0 1 1 1113.6,642.69A3.125,3.125 0 1 1 1119.9,642.69Z" style="fill:none;stroke:#F15A60;stroke-width:0.625" />
<path d="M1126.8,618.43L1126.8,618.43A3.125,3.125 0 1 1 1120.6,618.43A3.125,3.125 0 1 1 1126.8,618.43Z" style="fill:none;stroke:#F15A60;stroke-width:0.625" />
<path d="M1133.8,657A3.125,3.125 0 1 1 1127.5,657A3.125,3.125 0 1 1 1133.8,657Z" style="fill:none;stroke:#F15A60;stroke-width:0.625" />
<path d="M1140.7,765.22L1140.7,765.22A3.125,3.125 0 1 1 1134.5,765.22A3.125,3.125 0 1 1 1140.7,765.22Z" style="fill:none;stroke:#F15A60;stroke-width:0.625" />
<path d="M1147.7,758.59A3.125,3.125 0 1 1 1141.4,758.59A3.125,3.125 0 1 1 1147.7,758.59Z" style="fill:none;stroke:#F15A60;stroke-width:0.625" />
<path d="M1154.7,789.31A3.125,3.125 0 1 1 1148.4,789.31A3.125,3.125 0 1 1 1154.7,789.31Z" style="fill:none;stroke:#F15A60;stroke-width:0.625" />
<path d="M1161.6,716.53L1161.6,716.53A3.125,3.125 0 1 1 1155.4,716.53A3.125,3.125 0 1 1 1161.6,716.53Z" style="fill:none;stroke:#F15A60;stroke-width:0.625" />
<path d="M1168.6,626.65A3.125,3.125 0 1 1 1162.3,626.65A3.125,3.125 0 1 1 1168.6,626.65Z" style="fill:none;stroke:#F15A60;stroke-width:0.625" />
<path d="M1175.5,714.6A3.125,3.125 0 1 1 1169.3,714.6A3.125,3.125 0 1 1 1175.5,714.6Z" style="fill:none;stroke:#F15A60;stroke-width:0.625" />
<path d="M1182.5,598.34L1182.5,598.34A3.125,3.125 0 1 1 1176.2,598.34A3.125,3.125 0 1 1 1182.5,598.34Z" style="fill:none;stroke:#F15A60;stroke-width:0.625" />
<path d="M1189.5,530.65A3.125,3.125 0 1 1 1183.2,530.65A3.125,3.125 0 1 1 1189.5,530.65Z" style="fill:none;stroke:#F15A60;stroke-width:0.625" />
<path d="M1196.4,568.63A3.125,3.125 0 1 1 1190.2,568.63A3.125,3.125 0 1 1 1196.4,568.63Z" style="fill:none;stroke:#F15A60;stroke-width:0.625" />
<path d="M1203.4,441.3A3.125,3.125 0 1 1 1197.1,441.3A3.125,3.125 0 1 1 1203.4,441.3Z" style="fill:none;stroke:#F15A60;stroke-width:0.625" />
<path d="M1210.3,451.92L1210.3,451.92A3.125,3.125 0 1 1 1204.1,451.92A3.125,3.125 0 1 1 1210.3,451.92Z" style="fill:none;stroke:#F15A60;stroke-width:0.625" />
<path d="M1217.3,379.36A3.125,3.125 0 1 1 1211,379.36A3.125,3.125 0 1 1 1217.3,379.36Z" style="fill:none;stroke:#F15A60;stroke-width:0.625" />
<path d="M1224.3,321.19A3.125,3.125 0 1 1 1218,321.19A3.125,3.125 0 1 1 1224.3,321.19Z" style="fill:none;stroke:#F15A60;stroke-width:0.625" />
<path d="M1231.2,343.48L1231.2,343.48A3.125,3.125 0 1 1 1225,343.48A3.125,3.125 0 1 1 1231.2,343.48Z" style="fill:none;stroke:#F15A60;stroke-width:0.625" />
<path d="M1238.2,363.25A3.125,3.125 0 1 1 1231.9,363.25A3.125,3.125 0 1 1 1238.2,363.25Z" style="fill:none;stroke:#F15A60;stroke-width:0.625" />
<path d="M1245.1,414.1A3.125,3.125 0 1 1 1238.9,414.1A3.125,3.125 0 1 1 1245.1,414.1Z" style="fill:none;stroke:#F15A60;stroke-width:0.625" />
<path d="M1252.1,327.7A3.125,3.125 0 1 1 1245.8,327.7A3.125,3.125 0 1 1 1252.1,327.7Z" style="fill:none;stroke:#F15A60;stroke-width:0.625" />
<path d="M1259.1,411.28A3.125,3.125 0 1 1 1252.8,411.28A3.125,3.125 0 1 1 1259.1,411.28Z" style="fill:none;stroke:#F15A60;stroke-width:0.625" />
<path d="M1266,383.57A3.125,3.125 0 1 1 1259.8,383.57A3.125,3.125 0 1 1 1266,383.57Z" style="fill:none;stroke:#F15A60;stroke-width:0.625" />
<path d="M1273,519.68A3.125,3.125 0 1 1 1266.7,519.68A3.125,3.125 0 1 1 1273,519.68Z" style="fill:none;stroke:#F15A60;stroke-width:0.625" />
<path d="M1279.9,504.98A3.125,3.125 0 1 1 1273.7,504.98A3.125,3.125 0 1 1 1279.9,504.98Z" style="fill:none;stroke:#F15A60;stroke-width:0.625" />
<path d="M1286.9,535.61L1286.9,535.61A3.125,3.125 0 1 1 1280.6,535.61A3.125,3.125 0 1 1 1286.9,535.61Z" style="fill:none;stroke:#F15A60;stroke-width:0.625" />
<path d="M1293.8,565.69L1293.8,565.69A3.125,3.125 0 1 1 1287.6,565.69A3.125,3.125 0 1 1 1293.8,565.69Z" style="fill:none;stroke:#F15A60;stroke-width:0.625" />
<path d="M1300.8,523.99A3.125,3.125 0 1 1 1294.6,523.99A3.125,3.125 0 1 1 1300.8,523.99Z" style="fill:none;stroke:#F15A60;stroke-width:0.625" />
<path d="M1307.8,578.11L1307.8,578.11A3.125,3.125 0 1 1 1301.5,578.11A3.125,3.125 0 1 1 1307.8,578.11Z" style="fill:none;stroke:#F15A60;stroke-width:0.625" />
<path d="M1314.7,412.76A3.125,3.125 0 1 1 1308.5,412.76A3.125,3.125 0 1 1 1314.7,412.76Z" style="fill:none;stroke:#F15A60;stroke-width:0.625" />
<path d="M1321.7,548.46L1321.7,548.46A3.125,3.125 0 1 1 1315.4,548.46A3.125,3.125 0 1 1 1321.7,548.46Z" style="fill:none;stroke:#F15A60;stroke-width:0.625" />
<path d="M1328.6,404.48A3.125,3.125 0 1 1 1322.4,404.48A3.125,3.125 0 1 1 1328.6,404.48Z" style="fill:none;stroke:#F15A60;stroke-width:0.625" />
<path d="M1335.6,357.98L1335.6,357.98A3.125,3.125 0 1 1 1329.4,357.98A3.125,3.125 0 1 1 1335.6,357.98Z" style="fill:none;stroke:#F15A60;stroke-width:0.625" />
<path d="M1342.6,425.63A3.125,3.125 0 1 1 1336.3,425.63A3.125,3.125 0 1 1 1342.6,425.63Z" style="fill:none;stroke:#F15A60;stroke-width:0.625" />
<path d="M1349.5,350.62L1349.5,350.62A3.125,3.125 0 1 1 1343.3,350.62A3.125,3.125 0 1 1 1349.5,350.62Z" style="fill:none;stroke:#F15A60;stroke-width:0.625" />
<path d="M1356.5,224.71L1356.5,224.71A3.125,3.125 0 1 1 1350.2,224.71A3.125,3.125 0 1 1 1356.5,224.71Z" style="fill:none;stroke:#F15A60;stroke-width:0.625" />
<path d="M1363.4,194.87L1363.4,194.87A3.125,3.125 0 1 1 1357.2,194.87A3.125,3.125 0 1 1 1363.4,194.87Z" style="fill:none;stroke:#F15A60;stroke-width:0.625" />
<path d="M1370.4,216.74A3.125,3.125 0 1 1 1364.2,216.74A3.125,3.125 0 1 1 1370.4,216.74Z" style="fill:none;stroke:#F15A60;stroke-width:0.625" />
<path d="M1377.4,92.907A3.125,3.125 0 1 1 1371.1,92.907A3.125,3.125 0 1 1 1377.4,92.907Z" style="fill:none;stroke:#F15A60;stroke-width:0.625" />
<path d="M1384.3,104.39A3.125,3.125 0 1 1 1378.1,104.39A3.125,3.125 0 1 1 1384.3,104.39Z" style="fill:none;stroke:#F15A60;stroke-width:0.625" />
<path d="M1391.3,162.56L1391.3,162.56A3.125,3.125 0 1 1 1385,162.56A3.125,3.125 0 1 1 1391.3,162.56Z" style="fill:none;stroke:#F15A60;stroke-width:0.625" />
<path d="M1398.2,206.48A3.125,3.125 0 1 1 1392,206.48A3.125,3.125 0 1 1 1398.2,206.48Z" style="fill:none;stroke:#F15A60;stroke-width:0.625" />
<path d="M1405.2,176.24L1405.2,176.24A3.125,3.125 0 1 1 1399,176.24A3.125,3.125 0 1 1 1405.2,176.24Z" style="fill:none;stroke:#F15A60;stroke-width:0.625" />
<path d="M1412.2,236.76A3.125,3.125 0 1 1 1405.9,236.76A3.125,3.125 0 1 1 1412.2,236.76Z" style="fill:none;stroke:#F15A60;stroke-width:0.625" />
<path d="M1419.1,184.63L1419.1,184.63A3.125,3.125 0 1 1 1412.9,184.63A3.125,3.125 0 1 1 1419.1,184.63Z" style="fill:none;stroke:#F15A60;stroke-width:0.625" />
<path d="M1426.1,197.86A3.125,3.125 0 1 1 1419.8,197.86A3.125,3.125 0 1 1 1426.1,197.86Z" style="fill:none;stroke:#F15A60;stroke-width:0.625" />
<path d="M1433,240.03L1433,240.03A3.125,3.125 0 1 1 1426.8,240.03A3.125,3.125 0 1 1 1433,240.03Z" style="fill:none;stroke:#F15A60;stroke-width:0.625" />
<path d="M1440,309.95A3.125,3.125 0 1 1 1433.8,309.95A3.125,3.125 0 1 1 1440,309.95Z" style="fill:none;stroke:#F15A60;stroke-width:0.625" />
<path d="M51.925,468.91L58.885,509.74L65.844,536.98L72.804,550.17L79.763,580.29L86.723,597.23L93.682,659.22L100.64,683.86L107.6,689.93L114.56,725.01L121.52,718.32L128.48,683.1L135.44,650.09L142.4,614.92L149.36,606.13L156.32,562.86L163.28,512.51L170.24,473.97L177.2,474.09L184.16,456.63L191.12,426.4L198.08,412.42L205.04,385.29L211.99,389.71L218.95,405.14L225.91,396.15L232.87,402.95L239.83,426.31L246.79,461.77L253.75,487.69L260.71,464.74L267.67,448.23L274.63,460.44L281.59,469.19L288.55,433.3L295.51,410.31L302.47,360.37L309.43,346.91L316.39,320.12L323.35,265.71L330.31,241.48L337.27,229.49L344.23,203.67L351.19,157.37L358.15,175.77L365.1,195.43L372.06,193.69L379.02,185.68L385.98,223.6L392.94,276.22L399.9,329L406.86,369.27L413.82,441.4L420.78,481.96L427.74,516.97L434.7,589.59L441.66,605.59L448.62,661.42L455.58,674.47L462.54,710.85L469.5,709.64L476.46,716.95L483.42,668.86L490.38,633.51L497.34,595.91L504.3,560.96L511.26,555.45L518.21,540.5L525.17,475.38L532.13,426.01L539.09,412.07L546.05,385.53L553.01,394.34L559.97,403.81L566.93,412.21L573.89,413.28L580.85,426.9L587.81,447.1L594.77,475.51L601.73,475.16L608.69,477.28L615.65,492.77L622.61,487.96L629.57,491.72L636.53,485.08L643.49,465.27L650.45,427.54L657.41,407.03L664.37,334.36L671.32,277.07L678.28,229.62L685.24,192.05L692.2,184.67L699.16,189.1L706.12,178.82L713.08,200.05L720.04,204.6L727,215.17L733.96,237.17L740.92,298.16L747.88,341.14L754.84,406.48L761.8,449.54L768.76,483.04L775.72,540.49L782.68,600.76L789.64,658.8L796.6,692.17L803.56,704.04L810.52,726.6L817.48,714.14L824.43,685.68L831.39,652.66L838.35,641.82L845.31,593.51L852.27,559.29L859.23,517.28L866.19,471.35L873.15,456.37L880.11,448.28L887.07,400.51L894.03,372.88L900.99,394.76L907.95,412.44L914.91,432.29L921.87,441.83L928.83,431.2L935.79,461.2L942.75,463.38L949.71,487.69L956.67,514.67L963.63,499.31L970.59,468.94L977.54,457.58L984.5,459.7L991.46,437.47L998.42,392.98L1005.4,369.58L1012.3,347.9L1019.3,306.03L1026.3,269.72L1033.2,226.76L1040.2,174.73L1047.1,145.8L1054.1,134.53L1061.1,157.83L1068,154.39L1075,194.55L1081.9,231.24L1088.9,269.34L1095.9,301.19L1102.8,383.1L1109.8,436.51L1116.7,498.37L1123.7,534.39L1130.7,571.17L1137.6,629.39L1144.6,668.15L1151.5,704.5L1158.5,708.11L1165.5,683.67L1172.4,692.95L1179.4,664.57L1186.3,624.39L1193.3,607.66L1200.3,557.75L1207.2,526L1214.2,482.01L1221.1,433.76L1228.1,406.68L1235,393.65L1242,399.78L1249,378.16L1255.9,388.09L1262.9,386.74L1269.8,426.62L1276.8,450.13L1283.8,475.77L1290.7,502.75L1297.7,509.12L1304.6,529.82L1311.6,494.7L1318.6,510.83L1325.5,478.92L1332.5,442.64L1339.4,437.54L1346.4,411.46L1353.4,355.44L1360.3,307.27L1367.3,280.11L1374.2,223.95L1381.2,188.08L1388.2,180.42L1395.1,188.24L1402.1,184.64L1409,200.28L1416,195.58L1423,196.27L1429.9,209.39L1436.9,239.56" style="fill:none;stroke:#7AC36A;stroke-width:1.25;stroke-dasharray:7.5,2.5" />
<path d="M49.258,466.24L54.592,466.24L54.592,471.57L49.258,471.57Z" style="fill:none;stroke:#7AC36A;stroke-width:0.625" />
<path d="M56.217,507.07L61.552,507.07L61.552,512.41L56.217,512.41Z" style="fill:none;stroke:#7AC36A;stroke-width:0.625" />
<path d="M63.177,534.32L68.511,534.32L68.511,539.65L63.177,539.65Z" style="fill:none;stroke:#7AC36A;stroke-width:0.625" />
<path d="M70.136,547.5L75.471,547.5L75.471,552.83L70.136,552.83Z" style="fill:none;stroke:#7AC36A;stroke-width:0.625" />
<path d="M77.096,577.62L82.431,577.62L82.431,582.96L77.096,582.96Z" style="fill:none;stroke:#7AC36A;stroke-width:0.625" />
<path d="M84.055,594.56L89.39,594.56L89.39,599.9L84.055,599.9Z" style="fill:none;stroke:#7AC36A;stroke-width:0.625" />
<path d="M91.015,656.55L96.35,656.55L96.35,661.88L91.015,661.88Z" style="fill:none;stroke:#7AC36A;stroke-width:0.625" />
<path d="M97.974,681.19L103.31,681.19L103.31,686.53L97.974,686.53Z" style="fill:none;stroke:#7AC36A;stroke-width:0.625" />
<path d="M104.93,687.26L110.27,687.26L110.27,692.59L104.93,692.59Z" style="fill:none;stroke:#7AC36A;stroke-width:0.625" />
<path d="M111.89,722.34L117.23,722.34L117.23,727.68L111.89,727.68Z" style="fill:none;stroke:#7AC36A;stroke-width:0.625" />
<path d="M118.85,715.65L124.19,715.65L124.19,720.99L118.85,720.99Z" style="fill:none;stroke:#7AC36A;stroke-width:0.625" />
<path d="M125.81,680.43L131.15,680.43L131.15,685.77L125.81,685.77Z" style="fill:none;stroke:#7AC36A;stroke-width:0.625" />
<path d="M132.77,647.42L138.11,647.42L138.11,652.75L132.77,652.75Z" style="fill:none;stroke:#7AC36A;stroke-width:0.625" />
<path d="M139.73,612.25L145.07,612.25L145.07,617.59L139.73,617.59Z" style="fill:none;stroke:#7AC36A;stroke-width:0.625" />
<path d="M146.69,603.46L152.03,603.46L152.03,608.8L146.69,608.8Z" style="fill:none;stroke:#7AC36A;stroke-width:0.625" />
<path d="M153.65,560.19L158.99,560.19L158.99,565.53L153.65,565.53Z" style="fill:none;stroke:#7AC36A;stroke-width:0.625" />
<path d="M160.61,509.84L165.95,509.84L165.95,515.18L160.61,515.18Z" style="fill:none;stroke:#7AC36A;stroke-width:0.625" />
<path d="M167.57,471.31L172.9,471.31L172.9,476.64L167.57,476.64Z" style="fill:none;stroke:#7AC36A;stroke-width:0.625" />
<path d="M174.53,471.43L179.86,471.43L179.86,476.76L174.53,476.76Z" style="fill:none;stroke:#7AC36A;stroke-width:0.625" />
<path d="M181.49,453.96L186.82,453.96L186.82,459.29L181.49,459.29Z" style="fill:none;stroke:#7AC36A;stroke-width:0.625" />
<path d="M188.45,423.73L193.78,423.73L193.78,429.07L188.45,429.07Z" style="fill:none;stroke:#7AC36A;stroke-width:0.625" />
<path d="M195.41,409.75L200.74,409.75L200.74,415.08L195.41,415.08Z" style="fill:none;stroke:#7AC36A;stroke-width:0.625" />
<path d="M202.37,382.63L207.7,382.63L207.7,387.96L202.37,387.96Z" style="fill:none;stroke:#7AC36A;stroke-width:0.625" />
<path d="M209.33,387.05L214.66,387.05L214.66,392.38L209.33,392.38Z" style="fill:none;stroke:#7AC36A;stroke-width:0.625" />
<path d="M216.29,402.48L221.62,402.48L221.62,407.81L216.29,407.81Z" style="fill:none;stroke:#7AC36A;stroke-width:0.625" />
<path d="M223.25,393.48L228.58,393.48L228.58,398.82L223.25,398.82Z" style="fill:none;stroke:#7AC36A;stroke-width:0.625" />
<path d="M230.21,400.28L235.54,400.28L235.54,405.62L230.21,405.62Z" style="fill:none;stroke:#7AC36A;stroke-width:0.625" />
<path d="M237.17,423.64L242.5,423.64L242.5,428.98L237.17,428.98Z" style="fill:none;stroke:#7AC36A;stroke-width:0.625" />
<path d="M244.12,459.1L249.46,459.1L249.46,464.44L244.12,464.44Z" style="fill:none;stroke:#7AC36A;stroke-width:0.625" />
<path d="M251.08,485.02L256.42,485.02L256.42,490.35L251.08,490.35Z" style="fill:none;stroke:#7AC36A;stroke-width:0.625" />
<path d="M258.04,462.07L263.38,462.07L263.38,467.4L258.04,467.4Z" style="fill:none;stroke:#7AC36A;stroke-width:0.625" />
<path d="M265,445.56L270.34,445.56L270.34,450.9L265,450.9Z" style="fill:none;stroke:#7AC36A;stroke-width:0.625" />
<path d="M271.96,457.77L277.3,457.77L277.3,463.1L271.96,463.1Z" style="fill:none;stroke:#7AC36A;stroke-width:0.625" />
<path d="M278.92,466.52L284.26,466.52L284.26,471.86L278.92,471.86Z" style="fill:none;stroke:#7AC36A;stroke-width:0.625" />
<path d="M285.88,430.64L291.22,430.64L291.22,435.97L285.88,435.97Z" style="fill:none;stroke:#7AC36A;stroke-width:0.625" />
<path d="M292.84,407.64L298.18,407.64L298.18,412.97L292.84,412.97Z" style="fill:none;stroke:#7AC36A;stroke-width:0.625" />
<path d="M299.8,357.7L305.14,357.7L305.14,363.04L299.8,363.04Z" style="fill:none;stroke:#7AC36A;stroke-width:0.625" />
<path d="M306.76,344.24L312.1,344.24L312.1,349.58L306.76,349.58Z" style="fill:none;stroke:#7AC36A;stroke-width:0.625" />
<path d="M313.72,317.45L319.06,317.45L319.06,322.78L313.72,322.78Z" style="fill:none;stroke:#7AC36A;stroke-width:0.625" />
<path d="M320.68,263.04L326.01,263.04L326.01,268.37L320.68,268.37Z" style="fill:none;stroke:#7AC36A;stroke-width:0.625" />
<path d="M327.64,238.81L332.97,238.81L332.97,244.15L327.64,244.15Z" style="fill:none;stroke:#7AC36A;stroke-width:0.625" />
<path d="M334.6,226.82L339.93,226.82L339.93,232.16L334.6,232.16Z" style="fill:none;stroke:#7AC36A;stroke-width:0.625" />
<path d="M341.56,201.01L346.89,201.01L346.89,206.34L341.56,206.34Z" style="fill:none;stroke:#7AC36A;stroke-width:0.625" />
<path d="M348.52,154.7L353.85,154.7L353.85,160.03L348.52,160.03Z" style="fill:none;stroke:#7AC36A;stroke-width:0.625" />
<path d="M355.48,173.1L360.81,173.1L360.81,178.44L355.48,178.44Z" style="fill:none;stroke:#7AC36A;stroke-width:0.625" />
<path d="M362.44,192.76L367.77,192.76L367.77,198.1L362.44,198.1Z" style="fill:none;stroke:#7AC36A;stroke-width:0.625" />
<path d="M369.4,191.02L374.73,191.02L374.73,196.35L369.4,196.35Z" style="fill:none;stroke:#7AC36A;stroke-width:0.625" />
<path d="M376.36,183.01L381.69,183.01L381.69,188.34L376.36,188.34Z" style="fill:none;stroke:#7AC36A;stroke-width:0.625" />
<path d="M383.32,220.94L388.65,220.94L388.65,226.27L383.32,226.27Z" style="fill:none;stroke:#7AC36A;stroke-width:0.625" />
<path d="M390.28,273.55L395.61,273.55L395.61,278.89L390.28,278.89Z" style="fill:none;stroke:#7AC36A;stroke-width:0.625" />
<path d="M397.24,326.33L402.57,326.33L402.57,331.67L397.24,331.67Z" style="fill:none;stroke:#7AC36A;stroke-width:0.625" />
<path d="M404.19,366.6L409.53,366.6L409.53,371.94L404.19,371.94Z" style="fill:none;stroke:#7AC36A;stroke-width:0.625" />
<path d="M411.15,438.73L416.49,438.73L416.49,444.07L411.15,444.07Z" style="fill:none;stroke:#7AC36A;stroke-width:0.625" />
<path d="M418.11,479.29L423.45,479.29L423.45,484.62L418.11,484.62Z" style="fill:none;stroke:#7AC36A;stroke-width:0.625" />
<path d="M425.07,514.3L430.41,514.3L430.41,519.63L425.07,519.63Z" style="fill:none;stroke:#7AC36A;stroke-width:0.625" />
<path d="M432.03,586.92L437.37,586.92L437.37,592.25L432.03,592.25Z" style="fill:none;stroke:#7AC36A;stroke-width:0.625" />
<path d="M438.99,602.92L444.33,602.92L444.33,608.25L438.99,608.25Z" style="fill:none;stroke:#7AC36A;stroke-width:0.625" />
<path d="M445.95,658.76L451.29,658.76L451.29,664.09L445.95,664.09Z" style="fill:none;stroke:#7AC36A;stroke-width:0.625" />
<path d="M452.91,671.8L458.25,671.8L458.25,677.14L452.91,677.14Z" style="fill:none;stroke:#7AC36A;stroke-width:0.625" />
<path d="M459.87,708.18L465.21,708.18L465.21,713.51L459.87,713.51Z" style="fill:none;stroke:#7AC36A;stroke-width:0.625" />
<path d="M466.83,706.97L472.17,706.97L472.17,712.3L466.83,712.3Z" style="fill:none;stroke:#7AC36A;stroke-width:0.625" />
<path d="M473.79,714.29L479.12,714.29L479.12,719.62L473.79,719.62Z" style="fill:none;stroke:#7AC36A;stroke-width:0.625" />
<path d="M480.75,666.19L486.08,666.19L486.08,671.53L480.75,671.53Z" style="fill:none;stroke:#7AC36A;stroke-width:0.625" />
<path d="M487.71,630.85L493.04,630.85L493.04,636.18L487.71,636.18Z" style="fill:none;stroke:#7AC36A;stroke-width:0.625" />
<path d="M494.67,593.24L500,593.24L500,598.58L494.67,598.58Z" style="fill:none;stroke:#7AC36A;stroke-width:0.625" />
<path d="M501.63,558.3L506.96,558.3L506.96,563.63L501.63,563.63Z" style="fill:none;stroke:#7AC36A;stroke-width:0.625" />
<path d="M508.59,552.79L513.92,552.79L513.92,558.12L508.59,558.12Z" style="fill:none;stroke:#7AC36A;stroke-width:0.625" />
<path d="M515.55,537.84L520.88,537.84L520.88,543.17L515.55,543.17Z" style="fill:none;stroke:#7AC36A;stroke-width:0.625" />
<path d="M522.51,472.71L527.84,472.71L527.84,478.05L522.51,478.05Z" style="fill:none;stroke:#7AC36A;stroke-width:0.625" />
<path d="M529.47,423.35L534.8,423.35L534.8,428.68L529.47,428.68Z" style="fill:none;stroke:#7AC36A;stroke-width:0.625" />
<path d="M536.43,409.4L541.76,409.4L541.76,414.73L536.43,414.73Z" style="fill:none;stroke:#7AC36A;stroke-width:0.625" />
<path d="M543.39,382.87L548.72,382.87L548.72,388.2L543.39,388.2Z" style="fill:none;stroke:#7AC36A;stroke-width:0.625" />
<path d="M550.35,391.67L555.68,391.67L555.68,397.01L550.35,397.01Z" style="fill:none;stroke:#7AC36A;stroke-width:0.625" />
<path d="M557.3,401.15L562.64,401.15L562.64,406.48L557.3,406.48Z" style="fill:none;stroke:#7AC36A;stroke-width:0.625" />
<path d="M564.26,409.54L569.6,409.54L569.6,414.87L564.26,414.87Z" style="fill:none;stroke:#7AC36A;stroke-width:0.625" />
<path d="M571.22,410.62L576.56,410.62L576.56,415.95L571.22,415.95Z" style="fill:none;stroke:#7AC36A;stroke-width:0.625" />
<path d="M578.18,424.24L583.52,424.24L583.52,429.57L578.18,429.57Z" style="fill:none;stroke:#7AC36A;stroke-width:0.625" />
<path d="M585.14,444.43L590.48,444.43L590.48,449.77L585.14,449.77Z" style="fill:none;stroke:#7AC36A;stroke-width:0.625" />
<path d="M592.1,472.84L597.44,472.84L597.44,478.18L592.1,478.18Z" style="fill:none;stroke:#7AC36A;stroke-width:0.625" />
<path d="M599.06,472.49L604.4,472.49L604.4,477.83L599.06,477.83Z" style="fill:none;stroke:#7AC36A;stroke-width:0.625" />
<path d="M606.02,474.61L611.36,474.61L611.36,479.95L606.02,479.95Z" style="fill:none;stroke:#7AC36A;stroke-width:0.625" />
<path d="M612.98,490.1L618.32,490.1L618.32,495.44L612.98,495.44Z" style="fill:none;stroke:#7AC36A;stroke-width:0.625" />
<path d="M619.94,485.29L625.28,485.29L625.28,490.62L619.94,490.62Z" style="fill:none;stroke:#7AC36A;stroke-width:0.625" />
<path d="M626.9,489.06L632.23,489.06L632.23,494.39L626.9,494.39Z" style="fill:none;stroke:#7AC36A;stroke-width:0.625" />
<path d="M633.86,482.41L639.19,482.41L639.19,487.74L633.86,487.74Z" style="fill:none;stroke:#7AC36A;stroke-width:0.625" />
<path d="M640.82,462.6L646.15,462.6L646.15,467.93L640.82,467.93Z" style="fill:none;stroke:#7AC36A;stroke-width:0.625" />
<path d="M647.78,424.88L653.11,424.88L653.11,430.21L647.78,430.21Z" style="fill:none;stroke:#7AC36A;stroke-width:0.625" />
<path d="M654.74,404.36L660.07,404.36L660.07,409.69L654.74,409.69Z" style="fill:none;stroke:#7AC36A;stroke-width:0.625" />
<path d="M661.7,331.69L667.03,331.69L667.03,337.03L661.7,337.03Z" style="fill:none;stroke:#7AC36A;stroke-width:0.625" />
<path d="M668.66,274.41L673.99,274.41L673.99,279.74L668.66,279.74Z" style="fill:none;stroke:#7AC36A;stroke-width:0.625" />
<path d="M675.62,226.96L680.95,226.96L680.95,232.29L675.62,232.29Z" style="fill:none;stroke:#7AC36A;stroke-width:0.625" />
<path d="M682.58,189.38L687.91,189.38L687.91,194.72L682.58,194.72Z" style="fill:none;stroke:#7AC36A;stroke-width:0.625" />
<path d="M689.54,182.01L694.87,182.01L694.87,187.34L689.54,187.34Z" style="fill:none;stroke:#7AC36A;stroke-width:0.625" />
<path d="M696.5,186.44L701.83,186.44L701.83,191.77L696.5,191.77Z" style="fill:none;stroke:#7AC36A;stroke-width:0.625" />
<path d="M703.46,176.15L708.79,176.15L708.79,181.49L703.46,181.49Z" style="fill:none;stroke:#7AC36A;stroke-width:0.625" />
<path d="M710.41,197.38L715.75,197.38L715.75,202.72L710.41,202.72Z" style="fill:none;stroke:#7AC36A;stroke-width:0.625" />
<path d="M717.37,201.93L722.71,201.93L722.71,207.26L717.37,207.26Z" style="fill:none;stroke:#7AC36A;stroke-width:0.625" />
<path d="M724.33,212.5L729.67,212.5L729.67,217.84L724.33,217.84Z" style="fill:none;stroke:#7AC36A;stroke-width:0.625" />
<path d="M731.29,234.51L736.63,234.51L736.63,239.84L731.29,239.84Z" style="fill:none;stroke:#7AC36A;stroke-width:0.625" />
<path d="M738.25,295.5L743.59,295.5L743.59,300.83L738.25,300.83Z" style="fill:none;stroke:#7AC36A;stroke-width:0.625" />
<path d="M745.21,338.47L750.55,338.47L750.55,343.81L745.21,343.81Z" style="fill:none;stroke:#7AC36A;stroke-width:0.625" />
<path d="M752.17,403.82L757.51,403.82L757.51,409.15L752.17,409.15Z" style="fill:none;stroke:#7AC36A;stroke-width:0.625" />
<path d="M759.13,446.87L764.47,446.87L764.47,452.2L759.13,452.2Z" style="fill:none;stroke:#7AC36A;stroke-width:0.625" />
<path d="M766.09,480.38L771.43,480.38L771.43,485.71L766.09,485.71Z" style="fill:none;stroke:#7AC36A;stroke-width:0.625" />
<path d="M773.05,537.82L778.39,537.82L778.39,543.16L773.05,543.16Z" style="fill:none;stroke:#7AC36A;stroke-width:0.625" />
<path d="M780.01,598.09L785.34,598.09L785.34,603.43L780.01,603.43Z" style="fill:none;stroke:#7AC36A;stroke-width:0.625" />
<path d="M786.97,656.14L792.3,656.14L792.3,661.47L786.97,661.47Z" style="fill:none;stroke:#7AC36A;stroke-width:0.625" />
<path d="M793.93,689.51L799.26,689.51L799.26,694.84L793.93,694.84Z" style="fill:none;stroke:#7AC36A;stroke-width:0.625" />
<path d="M800.89,701.37L806.22,701.37L806.22,706.71L800.89,706.71Z" style="fill:none;stroke:#7AC36A;stroke-width:0.625" />
<path d="M807.85,723.93L813.18,723.93L813.18,729.27L807.85,729.27Z" style="fill:none;stroke:#7AC36A;stroke-width:0.625" />
<path d="M814.81,711.48L820.14,711.48L820.14,716.81L814.81,716.81Z" style="fill:none;stroke:#7AC36A;stroke-width:0.625" />
<path d="M821.77,683.01L827.1,683.01L827.1,688.35L821.77,688.35Z" style="fill:none;stroke:#7AC36A;stroke-width:0.625" />
<path d="M828.73,650L834.06,650L834.06,655.33L828.73,655.33Z" style="fill:none;stroke:#7AC36A;stroke-width:0.625" />
<path d="M835.69,639.15L841.02,639.15L841.02,644.49L835.69,644.49Z" style="fill:none;stroke:#7AC36A;stroke-width:0.625" />
<path d="M842.65,590.84L847.98,590.84L847.98,596.17L842.65,596.17Z" style="fill:none;stroke:#7AC36A;stroke-width:0.625" />
<path d="M849.61,556.62L854.94,556.62L854.94,561.95L849.61,561.95Z" style="fill:none;stroke:#7AC36A;stroke-width:0.625" />
<path d="M856.57,514.62L861.9,514.62L861.9,519.95L856.57,519.95Z" style="fill:none;stroke:#7AC36A;stroke-width:0.625" />
<path d="M863.52,468.68L868.86,468.68L868.86,474.01L863.52,474.01Z" style="fill:none;stroke:#7AC36A;stroke-width:0.625" />
<path d="M870.48,453.7L875.82,453.7L875.82,459.04L870.48,459.04Z" style="fill:none;stroke:#7AC36A;stroke-width:0.625" />
<path d="M877.44,445.61L882.78,445.61L882.78,450.95L877.44,450.95Z" style="fill:none;stroke:#7AC36A;stroke-width:0.625" />
<path d="M884.4,397.84L889.74,397.84L889.74,403.17L884.4,403.17Z" style="fill:none;stroke:#7AC36A;stroke-width:0.625" />
<path d="M891.36,370.21L896.7,370.21L896.7,375.55L891.36,375.55Z" style="fill:none;stroke:#7AC36A;stroke-width:0.625" />
<path d="M898.32,392.09L903.66,392.09L903.66,397.43L898.32,397.43Z" style="fill:none;stroke:#7AC36A;stroke-width:0.625" />
<path d="M905.28,409.78L910.62,409.78L910.62,415.11L905.28,415.11Z" style="fill:none;stroke:#7AC36A;stroke-width:0.625" />
<path d="M912.24,429.62L917.58,429.62L917.58,434.96L912.24,434.96Z" style="fill:none;stroke:#7AC36A;stroke-width:0.625" />
<path d="M919.2,439.16L924.54,439.16L924.54,444.5L919.2,444.5Z" style="fill:none;stroke:#7AC36A;stroke-width:0.625" />
<path d="M926.16,428.53L931.5,428.53L931.5,433.87L926.16,433.87Z" style="fill:none;stroke:#7AC36A;stroke-width:0.625" />
<path d="M933.12,458.53L938.45,458.53L938.45,463.87L933.12,463.87Z" style="fill:none;stroke:#7AC36A;stroke-width:0.625" />
<path d="M940.08,460.71L945.41,460.71L945.41,466.05L940.08,466.05Z" style="fill:none;stroke:#7AC36A;stroke-width:0.625" />
<path d="M947.04,485.02L952.37,485.02L952.37,490.35L947.04,490.35Z" style="fill:none;stroke:#7AC36A;stroke-width:0.625" />
<path d="M954,512L959.33,512L959.33,517.34L954,517.34Z" style="fill:none;stroke:#7AC36A;stroke-width:0.625" />
<path d="M960.96,496.64L966.29,496.64L966.29,501.98L960.96,501.98Z" style="fill:none;stroke:#7AC36A;stroke-width:0.625" />
<path d="M967.92,466.28L973.25,466.28L973.25,471.61L967.92,471.61Z" style="fill:none;stroke:#7AC36A;stroke-width:0.625" />
<path d="M974.88,454.91L980.21,454.91L980.21,460.24L974.88,460.24Z" style="fill:none;stroke:#7AC36A;stroke-width:0.625" />
<path d="M981.84,457.03L987.17,457.03L987.17,462.36L981.84,462.36Z" style="fill:none;stroke:#7AC36A;stroke-width:0.625" />
<path d="M988.8,434.8L994.13,434.8L994.13,440.14L988.8,440.14Z" style="fill:none;stroke:#7AC36A;stroke-width:0.625" />
<path d="M995.76,390.31L1001.1,390.31L1001.1,395.64L995.76,395.64Z" style="fill:none;stroke:#7AC36A;stroke-width:0.625" />
<path d="M1002.7,366.91L1008.1,366.91L1008.1,372.24L1002.7,372.24Z" style="fill:none;stroke:#7AC36A;stroke-width:0.625" />
<path d="M1009.7,345.23L1015,345.23L1015,350.57L1009.7,350.57Z" style="fill:none;stroke:#7AC36A;stroke-width:0.625" />
<path d="M1016.6,303.36L1022,303.36L1022,308.7L1016.6,308.7Z" style="fill:none;stroke:#7AC36A;stroke-width:0.625" />
<path d="M1023.6,267.06L1028.9,267.06L1028.9,272.39L1023.6,272.39Z" style="fill:none;stroke:#7AC36A;stroke-width:0.625" />
<path d="M1030.6,224.1L1035.9,224.1L1035.9,229.43L1030.6,229.43Z" style="fill:none;stroke:#7AC36A;stroke-width:0.625" />
<path d="M1037.5,172.06L1042.8,172.06L1042.8,177.4L1037.5,177.4Z" style="fill:none;stroke:#7AC36A;stroke-width:0.625" />
<path d="M1044.5,143.14L1049.8,143.14L1049.8,148.47L1044.5,148.47Z" style="fill:none;stroke:#7AC36A;stroke-width:0.625" />
<path d="M1051.4,131.86L1056.8,131.86L1056.8,137.19L1051.4,137.19Z" style="fill:none;stroke:#7AC36A;stroke-width:0.625" />
<path d="M1058.4,155.16L1063.7,155.16L1063.7,160.5L1058.4,160.5Z" style="fill:none;stroke:#7AC36A;stroke-width:0.625" />
<path d="M1065.4,151.72L1070.7,151.72L1070.7,157.06L1065.4,157.06Z" style="fill:none;stroke:#7AC36A;stroke-width:0.625" />
<path d="M1072.3,191.89L1077.6,191.89L1077.6,197.22L1072.3,197.22Z" style="fill:none;stroke:#7AC36A;stroke-width:0.625" />
<path d="M1079.3,228.57L1084.6,228.57L1084.6,233.91L1079.3,233.91Z" style="fill:none;stroke:#7AC36A;stroke-width:0.625" />
<path d="M1086.2,266.67L1091.6,266.67L1091.6,272.01L1086.2,272.01Z" style="fill:none;stroke:#7AC36A;stroke-width:0.625" />
<path d="M1093.2,298.52L1098.5,298.52L1098.5,303.86L1093.2,303.86Z" style="fill:none;stroke:#7AC36A;stroke-width:0.625" />
<path d="M1100.1,380.44L1105.5,380.44L1105.5,385.77L1100.1,385.77Z" style="fill:none;stroke:#7AC36A;stroke-width:0.625" />
<path d="M1107.1,433.85L1112.4,433.85L1112.4,439.18L1107.1,439.18Z" style="fill:none;stroke:#7AC36A;stroke-width:0.625" />
<path d="M1114.1,495.7L1119.4,495.7L1119.4,501.03L1114.1,501.03Z" style="fill:none;stroke:#7AC36A;stroke-width:0.625" />
<path d="M1121,531.72L1126.4,531.72L1126.4,537.05L1121,537.05Z" style="fill:none;stroke:#7AC36A;stroke-width:0.625" />
<path d="M1128,568.5L1133.3,568.5L1133.3,573.84L1128,573.84Z" style="fill:none;stroke:#7AC36A;stroke-width:0.625" />
<path d="M1134.9,626.72L1140.3,626.72L1140.3,632.05L1134.9,632.05Z" style="fill:none;stroke:#7AC36A;stroke-width:0.625" />
<path d="M1141.9,665.48L1147.2,665.48L1147.2,670.82L1141.9,670.82Z" style="fill:none;stroke:#7AC36A;stroke-width:0.625" />
<path d="M1148.9,701.83L1154.2,701.83L1154.2,707.16L1148.9,707.16Z" style="fill:none;stroke:#7AC36A;stroke-width:0.625" />
<path d="M1155.8,705.44L1161.2,705.44L1161.2,710.77L1155.8,710.77Z" style="fill:none;stroke:#7AC36A;stroke-width:0.625" />
<path d="M1162.8,681L1168.1,681L1168.1,686.33L1162.8,686.33Z" style="fill:none;stroke:#7AC36A;stroke-width:0.625" />
<path d="M1169.7,690.28L1175.1,690.28L1175.1,695.62L1169.7,695.62Z" style="fill:none;stroke:#7AC36A;stroke-width:0.625" />
<path d="M1176.7,661.9L1182,661.9L1182,667.23L1176.7,667.23Z" style="fill:none;stroke:#7AC36A;stroke-width:0.625" />
<path d="M1183.7,621.72L1189,621.72L1189,627.06L1183.7,627.06Z" style="fill:none;stroke:#7AC36A;stroke-width:0.625" />
<path d="M1190.6,604.99L1196,604.99L1196,610.33L1190.6,610.33Z" style="fill:none;stroke:#7AC36A;stroke-width:0.625" />
<path d="M1197.6,555.09L1202.9,555.09L1202.9,560.42L1197.6,560.42Z" style="fill:none;stroke:#7AC36A;stroke-width:0.625" />
<path d="M1204.5,523.33L1209.9,523.33L1209.9,528.67L1204.5,528.67Z" style="fill:none;stroke:#7AC36A;stroke-width:0.625" />
<path d="M1211.5,479.34L1216.8,479.34L1216.8,484.68L1211.5,484.68Z" style="fill:none;stroke:#7AC36A;stroke-width:0.625" />
<path d="M1218.5,431.1L1223.8,431.1L1223.8,436.43L1218.5,436.43Z" style="fill:none;stroke:#7AC36A;stroke-width:0.625" />
<path d="M1225.4,404.01L1230.8,404.01L1230.8,409.35L1225.4,409.35Z" style="fill:none;stroke:#7AC36A;stroke-width:0.625" />
<path d="M1232.4,390.98L1237.7,390.98L1237.7,396.32L1232.4,396.32Z" style="fill:none;stroke:#7AC36A;stroke-width:0.625" />
<path d="M1239.3,397.12L1244.7,397.12L1244.7,402.45L1239.3,402.45Z" style="fill:none;stroke:#7AC36A;stroke-width:0.625" />
<path d="M1246.3,375.49L1251.6,375.49L1251.6,380.83L1246.3,380.83Z" style="fill:none;stroke:#7AC36A;stroke-width:0.625" />
<path d="M1253.3,385.43L1258.6,385.43L1258.6,390.76L1253.3,390.76Z" style="fill:none;stroke:#7AC36A;stroke-width:0.625" />
<path d="M1260.2,384.07L1265.6,384.07L1265.6,389.4L1260.2,389.4Z" style="fill:none;stroke:#7AC36A;stroke-width:0.625" />
<path d="M1267.2,423.95L1272.5,423.95L1272.5,429.29L1267.2,429.29Z" style="fill:none;stroke:#7AC36A;stroke-width:0.625" />
<path d="M1274.1,447.46L1279.5,447.46L1279.5,452.8L1274.1,452.8Z" style="fill:none;stroke:#7AC36A;stroke-width:0.625" />
<path d="M1281.1,473.11L1286.4,473.11L1286.4,478.44L1281.1,478.44Z" style="fill:none;stroke:#7AC36A;stroke-width:0.625" />
<path d="M1288.1,500.08L1293.4,500.08L1293.4,505.42L1288.1,505.42Z" style="fill:none;stroke:#7AC36A;stroke-width:0.625" />
<path d="M1295,506.45L1300.4,506.45L1300.4,511.79L1295,511.79Z" style="fill:none;stroke:#7AC36A;stroke-width:0.625" />
<path d="M1302,527.15L1307.3,527.15L1307.3,532.48L1302,532.48Z" style="fill:none;stroke:#7AC36A;stroke-width:0.625" />
<path d="M1308.9,492.03L1314.3,492.03L1314.3,497.37L1308.9,497.37Z" style="fill:none;stroke:#7AC36A;stroke-width:0.625" />
<path d="M1315.9,508.16L1321.2,508.16L1321.2,513.49L1315.9,513.49Z" style="fill:none;stroke:#7AC36A;stroke-width:0.625" />
<path d="M1322.9,476.26L1328.2,476.26L1328.2,481.59L1322.9,481.59Z" style="fill:none;stroke:#7AC36A;stroke-width:0.625" />
<path d="M1329.8,439.97L1335.1,439.97L1335.1,445.31L1329.8,445.31Z" style="fill:none;stroke:#7AC36A;stroke-width:0.625" />
<path d="M1336.8,434.87L1342.1,434.87L1342.1,440.2L1336.8,440.2Z" style="fill:none;stroke:#7AC36A;stroke-width:0.625" />
<path d="M1343.7,408.79L1349.1,408.79L1349.1,414.13L1343.7,414.13Z" style="fill:none;stroke:#7AC36A;stroke-width:0.625" />
<path d="M1350.7,352.77L1356,352.77L1356,358.1L1350.7,358.1Z" style="fill:none;stroke:#7AC36A;stroke-width:0.625" />
<path d="M1357.7,304.6L1363,304.6L1363,309.93L1357.7,309.93Z" style="fill:none;stroke:#7AC36A;stroke-width:0.625" />
<path d="M1364.6,277.44L1369.9,277.44L1369.9,282.78L1364.6,282.78Z" style="fill:none;stroke:#7AC36A;stroke-width:0.625" />
<path d="M1371.6,221.28L1376.9,221.28L1376.9,226.62L1371.6,226.62Z" style="fill:none;stroke:#7AC36A;stroke-width:0.625" />
<path d="M1378.5,185.41L1383.9,185.41L1383.9,190.75L1378.5,190.75Z" style="fill:none;stroke:#7AC36A;stroke-width:0.625" />
<path d="M1385.5,177.76L1390.8,177.76L1390.8,183.09L1385.5,183.09Z" style="fill:none;stroke:#7AC36A;stroke-width:0.625" />
<path d="M1392.5,185.57L1397.8,185.57L1397.8,190.91L1392.5,190.91Z" style="fill:none;stroke:#7AC36A;stroke-width:0.625" />
<path d="M1399.4,181.97L1404.7,181.97L1404.7,187.31L1399.4,187.31Z" style="fill:none;stroke:#7AC36A;stroke-width:0.625" />
<path d="M1406.4,197.61L1411.7,197.61L1411.7,202.94L1406.4,202.94Z" style="fill:none;stroke:#7AC36A;stroke-width:0.625" />
<path d="M1413.3,192.92L1418.7,192.92L1418.7,198.25L1413.3,198.25Z" style="fill:none;stroke:#7AC36A;stroke-width:0.625" />
<path d="M1420.3,193.6L1425.6,193.6L1425.6,198.93L1420.3,198.93Z" style="fill:none;stroke:#7AC36A;stroke-width:0.625" />
<path d="M1427.2,206.73L1432.6,206.73L1432.6,212.06L1427.2,212.06Z" style="fill:none;stroke:#7AC36A;stroke-width:0.625" />
<path d="M1434.2,236.89L1439.5,236.89L1439.5,242.23L1434.2,242.23Z" style="fill:none;stroke:#7AC36A;stroke-width:0.625" />
<path d="M1415,66.978L1440,66.978" style="fill:none;stroke:#7AC36A;stroke-width:1.25;stroke-dasharray:7.5,2.5" />
<path d="M1424.8,64.31L1430.2,64.31L1430.2,69.645L1424.8,69.645Z" style="fill:none;stroke:#7AC36A;stroke-width:0.625" />
<text x="1367.1" y="-61.188" transform="scale(1, -1)"
	style="font-family:Times;font-weight:normal;font-style:normal;font-size:12pt">smooth</text>
<path d="M1415,53.117L1440,53.117" style="fill:none;stroke:#F15A60;stroke-width:1.25" />
<path d="M1430.6,53.117A3.125,3.125 0 1 1 1424.4,53.117A3.125,3.125 0 1 1 1430.6,53.117Z" style="fill:none;stroke:#F15A60;stroke-width:0.625" />
<text x="1388.8" y="-47.328" transform="scale(1, -1)"
	style="font-family:Times;font-weight:normal;font-style:normal;font-size:12pt">raw</text>
</g>
</svg>
