<?xml version="1.0"?>
<!-- Generated by SVGo and Plotinum VG -->
<svg width="16in" height="9in"
	xmlns="http://www.w3.org/2000/svg"
	xmlns:xlink="http://www.w3.org/1999/xlink">
<g transform="scale(1, -1) translate(0, -810)">
<path d="M0,0L1440,0L1440,810L0,810Z" style="fill:#FFFFFF" />
<text x="738.98" y="-5.355" transform="scale(1, -1)"
	style="font-family:Times;font-weight:normal;font-style:normal;font-size:12pt">X</text>
<text x="48.8" y="-19.025" transform="scale(1, -1)"
	style="font-family:Times;font-weight:normal;font-style:normal;font-size:10pt">0</text>
<text x="463.25" y="-19.025" transform="scale(1, -1)"
	style="font-family:Times;font-weight:normal;font-style:normal;font-size:10pt">60</text>
<text x="877.7" y="-19.025" transform="scale(1, -1)"
	style="font-family:Times;font-weight:normal;font-style:normal;font-size:10pt">120</text>
<text x="1295.3" y="-19.025" transform="scale(1, -1)"
	style="font-family:Times;font-weight:normal;font-style:normal;font-size:10pt">180</text>
<path d="M51.925,29.625L51.925,39.625" style="fill:none;stroke:#000000;stroke-width:0.625" />
<path d="M469.5,29.625L469.5,39.625" style="fill:none;stroke:#000000;stroke-width:0.625" />
<path d="M887.07,29.625L887.07,39.625" style="fill:none;stroke:#000000;stroke-width:0.625" />
<path d="M1304.6,29.625L1304.6,39.625" style="fill:none;stroke:#000000;stroke-width:0.625" />
<path d="M191.12,34.625L191.12,39.625" style="fill:none;stroke:#000000;stroke-width:0.625" />
<path d="M330.31,34.625L330.31,39.625" style="fill:none;stroke:#000000;stroke-width:0.625" />
<path d="M608.69,34.625L608.69,39.625" style="fill:none;stroke:#000000;stroke-width:0.625" />
<path d="M747.88,34.625L747.88,39.625" style="fill:none;stroke:#000000;stroke-width:0.625" />
<path d="M1026.3,34.625L1026.3,39.625" style="fill:none;stroke:#000000;stroke-width:0.625" />
<path d="M1165.5,34.625L1165.5,39.625" style="fill:none;stroke:#000000;stroke-width:0.625" />
<path d="M51.925,39.625L1436.9,39.625" style="fill:none;stroke:#000000;stroke-width:0.625" />
<g transform="rotate(90)">
<text x="422.68" y="12.72" transform="scale(1, -1)"
	style="font-family:Times;font-weight:normal;font-style:normal;font-size:12pt">Y</text>
</g>
<text x="18.075" y="-170.86" transform="scale(1, -1)"
	style="font-family:Times;font-weight:normal;font-style:normal;font-size:10pt">-1</text>
<text x="22.237" y="-343.34" transform="scale(1, -1)"
	style="font-family:Times;font-weight:normal;font-style:normal;font-size:10pt">0</text>
<text x="22.237" y="-515.83" transform="scale(1, -1)"
	style="font-family:Times;font-weight:normal;font-style:normal;font-size:10pt">1</text>
<text x="22.237" y="-688.31" transform="scale(1, -1)"
	style="font-family:Times;font-weight:normal;font-style:normal;font-size:10pt">2</text>
<path d="M31.613,175.68L41.612,175.68" style="fill:none;stroke:#000000;stroke-width:0.625" />
<path d="M31.613,348.17L41.612,348.17" style="fill:none;stroke:#000000;stroke-width:0.625" />
<path d="M31.613,520.65L41.612,520.65" style="fill:none;stroke:#000000;stroke-width:0.625" />
<path d="M31.613,693.14L41.612,693.14" style="fill:none;stroke:#000000;stroke-width:0.625" />
<path d="M36.612,89.437L41.612,89.437" style="fill:none;stroke:#000000;stroke-width:0.625" />
<path d="M36.612,261.92L41.612,261.92" style="fill:none;stroke:#000000;stroke-width:0.625" />
<path d="M36.612,434.41L41.612,434.41" style="fill:none;stroke:#000000;stroke-width:0.625" />
<path d="M36.612,606.9L41.612,606.9" style="fill:none;stroke:#000000;stroke-width:0.625" />
<path d="M36.612,779.38L41.612,779.38" style="fill:none;stroke:#000000;stroke-width:0.625" />
<path d="M41.612,49.313L41.612,806.88" style="fill:none;stroke:#000000;stroke-width:0.625" />
<path d="M51.925,348.17L58.885,484.28L65.844,600.55L72.804,580.93L79.763,650.58L86.723,636.76L93.682,803.85L100.64,741.36L107.6,704.08L114.56,806.88L121.52,702.71L128.48,600.91L135.44,573.06L142.4,532.86L149.36,585.63L156.32,461.89L163.28,395.02L170.24,384.06L177.2,474.38L184.16,415.87L191.12,355.86L198.08,379.8L205.04,322.01L211.99,400.02L218.95,441.15L225.91,375.16L232.87,418.82L239.83,480.82L246.79,544.51L253.75,548.15L260.71,411.19L267.67,409.71L274.63,488.92L281.59,489.61L288.55,349.57L295.51,356.65L302.47,243.85L309.43,315.49L316.39,257.6L323.35,138.75L330.31,184.94L337.27,201.52L344.23,143.44L351.19,49.313L358.15,218.71L365.1,241.31L372.06,189.62L379.02,166.98L385.98,312.1L392.94,398.99L399.9,452.16L406.86,463.23L413.82,609.7L420.78,576.59L427.74,598.66L434.7,759.04L441.66,642.92L448.62,791.71L455.58,704.91L462.54,795.73L469.5,706.82L476.46,734.02L483.42,556.64L490.38,551.04L497.34,508.16L504.3,479.43L511.26,542.59L518.21,505.62L525.17,323.43L532.13,310.82L539.09,379.52L546.05,323.63L553.01,414.89L559.97,425.92L566.93,431.78L573.89,415.8L580.85,458.68L587.81,494.22L594.77,541.8L601.73,474.35L608.69,482.22L615.65,528.91L622.61,476.72L629.57,500.52L636.53,469.56L643.49,419.05L650.45,339.52L657.41,359.15L664.37,164.81L671.32,143.41L678.28,118.9L685.24,104.38L692.2,167.46L699.16,199.44L706.12,154.82L713.08,249.6L720.04,215.2L727,239.84L733.96,288.52L740.92,440.48L747.88,441.41L754.84,558.95L761.8,549.99L768.76,561.22L775.72,674.53L782.68,741.39L789.64,794.24L796.6,770.04L803.56,731.73L810.52,779.23L817.48,685.09L824.43,619.26L831.39,575.62L838.35,616.52L845.31,480.78L852.27,479.44L859.23,419.27L866.19,364.16L873.15,421.42L880.11,429.4L887.07,289.03L894.03,308.43L900.99,445.8L907.95,453.71L914.91,478.59L921.87,464.09L928.83,406.41L935.79,531.2L942.75,468.47L949.71,544.4L956.67,577.62L963.63,463.48L970.59,398.08L977.54,431.06L984.5,464.64L991.46,385.61L998.42,289.16L1005.4,314.97L1012.3,297.32L1019.3,208.34L1026.3,185.01L1033.2,126.52L1040.2,53.314L1047.1,78.31L1054.1,108.21L1061.1,212.21L1068,146.36L1075,288.27L1081.9,316.83L1088.9,358.25L1095.9,375.51L1102.8,574.23L1109.8,561.14L1116.7,642.69L1123.7,618.43L1130.7,657L1137.6,765.22L1144.6,758.59L1151.5,789.31L1158.5,716.53L1165.5,626.65L1172.4,714.6L1179.4,598.34L1186.3,530.65L1193.3,568.63L1200.3,441.3L1207.2,451.92L1214.2,379.36L1221.1,321.19L1228.1,343.48L1235,363.25L1242,414.1L1249,327.7L1255.9,411.28L1262.9,383.57L1269.8,519.68L1276.8,504.98L1283.8,535.61L1290.7,565.69L1297.7,523.99L1304.6,578.11L1311.6,412.76L1318.6,548.46L1325.5,404.48L1332.5,357.98L1339.4,425.63L1346.4,350.62L1353.4,224.71L1360.3,194.87L1367.3,216.74L1374.2,92.907L1381.2,104.39L1388.2,162.56L1395.1,206.48L1402.1,176.24L1409,236.76L1416,184.63L1423,197.86L1429.9,240.03L1436.9,309.95" style="fill:none;stroke:#F15A60;stroke-width:1.25" />
<path d="M55.05,348.17A3.125,3.125 0 1 1 48.8,348.17A3.125,3.125 0 1 1 55.05,348.17Z" style="fill:none;stroke:#F15A60;stroke-width:0.625" />
<path d="M62.01,484.28A3.125,3.125 0 1 1 55.76,484.28A3.125,3.125 0 1 1 62.01,484.28Z" style="fill:none;stroke:#F15A60;stroke-width:0.625" />
<path d="M68.969,600.55A3.125,3.125 0 1 1 62.719,600.55A3.125,3.125 0 1 1 68.969,600.55Z" style="fill:none;stroke:#F15A60;stroke-width:0.625" />
<path d="M75.929,580.93A3.125,3.125 0 1 1 69.679,580.93A3.125,3.125 0 1 1 75.929,580.93Z" style="fill:none;stroke:#F15A60;stroke-width:0.625" />
<path d="M82.888,650.58L82.888,650.58A3.125,3.125 0 1 1 76.638,650.58A3.125,3.125 0 1 1 82.888,650.58Z" style="fill:none;stroke:#F15A60;stroke-width:0.625" />
<path d="M89.848,636.76L89.848,636.76A3.125,3.125 0 1 1 83.598,636.76A3.125,3.125 0 1 1 89.848,636.76Z" style="fill:none;stroke:#F15A60;stroke-width:0.625" />
<path d="M96.807,803.85L96.807,803.85A3.125,3.125 0 1 1 90.557,803.85A3.125,3.125 0 1 1 96.807,803.85Z" style="fill:none;stroke:#F15A60;stroke-width:0.625" />
<path d="M103.77,741.36L103.77,741.36A3.125,3.125 0 1 1 97.517,741.36A3.125,3.125 0 1 1 103.77,741.36Z" style="fill:none;stroke:#F15A60;stroke-width:0.625" />
<path d="M110.73,704.08L110.73,704.08A3.125,3.125 0 1 1 104.48,704.08A3.125,3.125 0 1 1 110.73,704.08Z" style="fill:none;stroke:#F15A60;stroke-width:0.625" />
<path d="M117.69,806.88L117.69,806.88A3.125,3.125 0 1 1 111.44,806.88A3.125,3.125 0 1 1 117.69,806.88Z" style="fill:none;stroke:#F15A60;stroke-width:0.625" />
<path d="M124.65,702.71A3.125,3.125 0 1 1 118.4,702.71A3.125,3.125 0 1 1 124.65,702.71Z" style="fill:none;stroke:#F15A60;stroke-width:0.625" />
<path d="M131.61,600.91A3.125,3.125 0 1 1 125.36,600.91A3.125,3.125 0 1 1 131.61,600.91Z" style="fill:none;stroke:#F15A60;stroke-width:0.625" />
<path d="M138.56,573.06A3.125,3.125 0 1 1 132.31,573.06A3.125,3.125 0 1 1 138.56,573.06Z" style="fill:none;stroke:#F15A60;stroke-width:0.625" />
<path d="M145.52,532.86A3.125,3.125 0 1 1 139.27,532.86A3.125,3.125 0 1 1 145.52,532.86Z" style="fill:none;stroke:#F15A60;stroke-width:0.625" />
<path d="M152.48,585.63A3.125,3.125 0 1 1 146.23,585.63A3.125,3.125 0 1 1 152.48,585.63Z" style="fill:none;stroke:#F15A60;stroke-width:0.625" />
<path d="M159.44,461.89A3.125,3.125 0 1 1 153.19,461.89A3.125,3.125 0 1 1 159.44,461.89Z" style="fill:none;stroke:#F15A60;stroke-width:0.625" />
<path d="M166.4,395.02A3.125,3.125 0 1 1 160.15,395.02A3.125,3.125 0 1 1 166.4,395.02Z" style="fill:none;stroke:#F15A60;stroke-width:0.625" />
<path d="M173.36,384.06A3.125,3.125 0 1 1 167.11,384.06A3.125,3.125 0 1 1 173.36,384.06Z" style="fill:none;stroke:#F15A60;stroke-width:0.625" />
<path d="M180.32,474.38L180.32,474.38A3.125,3.125 0 1 1 174.07,474.38A3.125,3.125 0 1 1 180.32,474.38Z" style="fill:none;stroke:#F15A60;stroke-width:0.625" />
<path d="M187.28,415.87A3.125,3.125 0 1 1 181.03,415.87A3.125,3.125 0 1 1 187.28,415.87Z" style="fill:none;stroke:#F15A60;stroke-width:0.625" />
<path d="M194.24,355.86L194.24,355.86A3.125,3.125 0 1 1 187.99,355.86A3.125,3.125 0 1 1 194.24,355.86Z" style="fill:none;stroke:#F15A60;stroke-width:0.625" />
<path d="M201.2,379.8A3.125,3.125 0 1 1 194.95,379.8A3.125,3.125 0 1 1 201.2,379.8Z" style="fill:none;stroke:#F15A60;stroke-width:0.625" />
<path d="M208.16,322.01A3.125,3.125 0 1 1 201.91,322.01A3.125,3.125 0 1 1 208.16,322.01Z" style="fill:none;stroke:#F15A60;stroke-width:0.625" />
<path d="M215.12,400.02A3.125,3.125 0 1 1 208.87,400.02A3.125,3.125 0 1 1 215.12,400.02Z" style="fill:none;stroke:#F15A60;stroke-width:0.625" />
<path d="M222.08,441.15L222.08,441.15A3.125,3.125 0 1 1 215.83,441.15A3.125,3.125 0 1 1 222.08,441.15Z" style="fill:none;stroke:#F15A60;stroke-width:0.625" />
<path d="M229.04,375.16A3.125,3.125 0 1 1 222.79,375.16A3.125,3.125 0 1 1 229.04,375.16Z" style="fill:none;stroke:#F15A60;stroke-width:0.625" />
<path d="M236,418.82A3.125,3.125 0 1 1 229.75,418.82A3.125,3.125 0 1 1 236,418.82Z" style="fill:none;stroke:#F15A60;stroke-width:0.625" />
<path d="M242.96,480.82A3.125,3.125 0 1 1 236.71,480.82A3.125,3.125 0 1 1 242.96,480.82Z" style="fill:none;stroke:#F15A60;stroke-width:0.625" />
<path d="M249.92,544.51L249.92,544.51A3.125,3.125 0 1 1 243.67,544.51A3.125,3.125 0 1 1 249.92,544.51Z" style="fill:none;stroke:#F15A60;stroke-width:0.625" />
<path d="M256.88,548.15L256.88,548.15A3.125,3.125 0 1 1 250.63,548.15A3.125,3.125 0 1 1 256.88,548.15Z" style="fill:none;stroke:#F15A60;stroke-width:0.625" />
<path d="M263.84,411.19A3.125,3.125 0 1 1 257.59,411.19A3.125,3.125 0 1 1 263.84,411.19Z" style="fill:none;stroke:#F15A60;stroke-width:0.625" />
<path d="M270.8,409.71A3.125,3.125 0 1 1 264.55,409.71A3.125,3.125 0 1 1 270.8,409.71Z" style="fill:none;stroke:#F15A60;stroke-width:0.625" />
<path d="M277.76,488.92L277.76,488.92A3.125,3.125 0 1 1 271.51,488.92A3.125,3.125 0 1 1 277.76,488.92Z" style="fill:none;stroke:#F15A60;stroke-width:0.625" />
<path d="M284.72,489.61A3.125,3.125 0 1 1 278.47,489.61A3.125,3.125 0 1 1 284.72,489.61Z" style="fill:none;stroke:#F15A60;stroke-width:0.625" />
<path d="M291.67,349.57L291.67,349.57A3.125,3.125 0 1 1 285.42,349.57A3.125,3.125 0 1 1 291.67,349.57Z" style="fill:none;stroke:#F15A60;stroke-width:0.625" />
<path d="M298.63,356.65A3.125,3.125 0 1 1 292.38,356.65A3.125,3.125 0 1 1 298.63,356.65Z" style="fill:none;stroke:#F15A60;stroke-width:0.625" />
<path d="M305.59,243.85A3.125,3.125 0 1 1 299.34,243.85A3.125,3.125 0 1 1 305.59,243.85Z" style="fill:none;stroke:#F15A60;stroke-width:0.625" />
<path d="M312.55,315.49A3.125,3.125 0 1 1 306.3,315.49A3.125,3.125 0 1 1 312.55,315.49Z" style="fill:none;stroke:#F15A60;stroke-width:0.625" />
<path d="M319.51,257.6A3.125,3.125 0 1 1 313.26,257.6A3.125,3.125 0 1 1 319.51,257.6Z" style="fill:none;stroke:#F15A60;stroke-width:0.625" />
<path d="M326.47,138.75A3.125,3.125 0 1 1 320.22,138.75A3.125,3.125 0 1 1 326.47,138.75Z" style="fill:none;stroke:#F15A60;stroke-width:0.625" />
<path d="M333.43,184.94L333.43,184.94A3.125,3.125 0 1 1 327.18,184.94A3.125,3.125 0 1 1 333.43,184.94Z" style="fill:none;stroke:#F15A60;stroke-width:0.625" />
<path d="M340.39,201.52A3.125,3.125 0 1 1 334.14,201.52A3.125,3.125 0 1 1 340.39,201.52Z" style="fill:none;stroke:#F15A60;stroke-width:0.625" />
<path d="M347.35,143.44L347.35,143.44A3.125,3.125 0 1 1 341.1,143.44A3.125,3.125 0 1 1 347.35,143.44Z" style="fill:none;stroke:#F15A60;stroke-width:0.625" />
<path d="M354.31,49.313A3.125,3.125 0 1 1 348.06,49.313A3.125,3.125 0 1 1 354.31,49.313Z" style="fill:none;stroke:#F15A60;stroke-width:0.625" />
<path d="M361.27,218.71L361.27,218.71A3.125,3.125 0 1 1 355.02,218.71A3.125,3.125 0 1 1 361.27,218.71Z" style="fill:none;stroke:#F15A60;stroke-width:0.625" />
<path d="M368.23,241.31A3.125,3.125 0 1 1 361.98,241.31A3.125,3.125 0 1 1 368.23,241.31Z" style="fill:none;stroke:#F15A60;stroke-width:0.625" />
<path d="M375.19,189.62A3.125,3.125 0 1 1 368.94,189.62A3.125,3.125 0 1 1 375.19,189.62Z" style="fill:none;stroke:#F15A60;stroke-width:0.625" />
<path d="M382.15,166.98A3.125,3.125 0 1 1 375.9,166.98A3.125,3.125 0 1 1 382.15,166.98Z" style="fill:none;stroke:#F15A60;stroke-width:0.625" />
<path d="M389.11,312.1A3.125,3.125 0 1 1 382.86,312.1A3.125,3.125 0 1 1 389.11,312.1Z" style="fill:none;stroke:#F15A60;stroke-width:0.625" />
<path d="M396.07,398.99A3.125,3.125 0 1 1 389.82,398.99A3.125,3.125 0 1 1 396.07,398.99Z" style="fill:none;stroke:#F15A60;stroke-width:0.625" />
<path d="M403.03,452.16L403.03,452.16A3.125,3.125 0 1 1 396.78,452.16A3.125,3.125 0 1 1 403.03,452.16Z" style="fill:none;stroke:#F15A60;stroke-width:0.625" />
<path d="M409.99,463.23A3.125,3.125 0 1 1 403.74,463.23A3.125,3.125 0 1 1 409.99,463.23Z" style="fill:none;stroke:#F15A60;stroke-width:0.625" />
<path d="M416.95,609.7A3.125,3.125 0 1 1 410.7,609.7A3.125,3.125 0 1 1 416.95,609.7Z" style="fill:none;stroke:#F15A60;stroke-width:0.625" />
<path d="M423.91,576.59L423.91,576.59A3.125,3.125 0 1 1 417.66,576.59A3.125,3.125 0 1 1 423.91,576.59Z" style="fill:none;stroke:#F15A60;stroke-width:0.625" />
<path d="M430.87,598.66A3.125,3.125 0 1 1 424.62,598.66A3.125,3.125 0 1 1 430.87,598.66Z" style="fill:none;stroke:#F15A60;stroke-width:0.625" />
<path d="M437.83,759.04A3.125,3.125 0 1 1 431.58,759.04A3.125,3.125 0 1 1 437.83,759.04Z" style="fill:none;stroke:#F15A60;stroke-width:0.625" />
<path d="M444.78,642.92A3.125,3.125 0 1 1 438.53,642.92A3.125,3.125 0 1 1 444.78,642.92Z" style="fill:none;stroke:#F15A60;stroke-width:0.625" />
<path d="M451.74,791.71L451.74,791.71A3.125,3.125 0 1 1 445.49,791.71A3.125,3.125 0 1 1 451.74,791.71Z" style="fill:none;stroke:#F15A60;stroke-width:0.625" />
<path d="M458.7,704.91L458.7,704.91A3.125,3.125 0 1 1 452.45,704.91A3.125,3.125 0 1 1 458.7,704.91Z" style="fill:none;stroke:#F15A60;stroke-width:0.625" />
<path d="M465.66,795.73L465.66,795.73A3.125,3.125 0 1 1 459.41,795.73A3.125,3.125 0 1 1 465.66,795.73Z" style="fill:none;stroke:#F15A60;stroke-width:0.625" />
<path d="M472.62,706.82A3.125,3.125 0 1 1 466.37,706.82A3.125,3.125 0 1 1 472.62,706.82Z" style="fill:none;stroke:#F15A60;stroke-width:0.625" />
<path d="M479.58,734.02A3.125,3.125 0 1 1 473.33,734.02A3.125,3.125 0 1 1 479.58,734.02Z" style="fill:none;stroke:#F15A60;stroke-width:0.625" />
<path d="M486.54,556.64A3.125,3.125 0 1 1 480.29,556.64A3.125,3.125 0 1 1 486.54,556.64Z" style="fill:none;stroke:#F15A60;stroke-width:0.625" />
<path d="M493.5,551.04A3.125,3.125 0 1 1 487.25,551.04A3.125,3.125 0 1 1 493.5,551.04Z" style="fill:none;stroke:#F15A60;stroke-width:0.625" />
<path d="M500.46,508.16A3.125,3.125 0 1 1 494.21,508.16A3.125,3.125 0 1 1 500.46,508.16Z" style="fill:none;stroke:#F15A60;stroke-width:0.625" />
<path d="M507.42,479.43A3.125,3.125 0 1 1 501.17,479.43A3.125,3.125 0 1 1 507.42,479.43Z" style="fill:none;stroke:#F15A60;stroke-width:0.625" />
<path d="M514.38,542.59L514.38,542.59A3.125,3.125 0 1 1 508.13,542.59A3.125,3.125 0 1 1 514.38,542.59Z" style="fill:none;stroke:#F15A60;stroke-width:0.625" />
<path d="M521.34,505.62A3.125,3.125 0 1 1 515.09,505.62A3.125,3.125 0 1 1 521.34,505.62Z" style="fill:none;stroke:#F15A60;stroke-width:0.625" />
<path d="M528.3,323.43A3.125,3.125 0 1 1 522.05,323.43A3.125,3.125 0 1 1 528.3,323.43Z" style="fill:none;stroke:#F15A60;stroke-width:0.625" />
<path d="M535.26,310.82L535.26,310.82A3.125,3.125 0 1 1 529.01,310.82A3.125,3.125 0 1 1 535.26,310.82Z" style="fill:none;stroke:#F15A60;stroke-width:0.625" />
<path d="M542.22,379.52A3.125,3.125 0 1 1 535.97,379.52A3.125,3.125 0 1 1 542.22,379.52Z" style="fill:none;stroke:#F15A60;stroke-width:0.625" />
<path d="M549.18,323.63A3.125,3.125 0 1 1 542.93,323.63A3.125,3.125 0 1 1 549.18,323.63Z" style="fill:none;stroke:#F15A60;stroke-width:0.625" />
<path d="M556.14,414.89A3.125,3.125 0 1 1 549.89,414.89A3.125,3.125 0 1 1 556.14,414.89Z" style="fill:none;stroke:#F15A60;stroke-width:0.625" />
<path d="M563.1,425.92A3.125,3.125 0 1 1 556.85,425.92A3.125,3.125 0 1 1 563.1,425.92Z" style="fill:none;stroke:#F15A60;stroke-width:0.625" />
<path d="M570.06,431.78L570.06,431.78A3.125,3.125 0 1 1 563.81,431.78A3.125,3.125 0 1 1 570.06,431.78Z" style="fill:none;stroke:#F15A60;stroke-width:0.625" />
<path d="M577.02,415.8A3.125,3.125 0 1 1 570.77,415.8A3.125,3.125 0 1 1 577.02,415.8Z" style="fill:none;stroke:#F15A60;stroke-width:0.625" />
<path d="M583.98,458.68A3.125,3.125 0 1 1 577.73,458.68A3.125,3.125 0 1 1 583.98,458.68Z" style="fill:none;stroke:#F15A60;stroke-width:0.625" />
<path d="M590.94,494.22A3.125,3.125 0 1 1 584.69,494.22A3.125,3.125 0 1 1 590.94,494.22Z" style="fill:none;stroke:#F15A60;stroke-width:0.625" />
<path d="M597.89,541.8A3.125,3.125 0 1 1 591.64,541.8A3.125,3.125 0 1 1 597.89,541.8Z" style="fill:none;stroke:#F15A60;stroke-width:0.625" />
<path d="M604.85,474.35A3.125,3.125 0 1 1 598.6,474.35A3.125,3.125 0 1 1 604.85,474.35Z" style="fill:none;stroke:#F15A60;stroke-width:0.625" />
<path d="M611.81,482.22A3.125,3.125 0 1 1 605.56,482.22A3.125,3.125 0 1 1 611.81,482.22Z" style="fill:none;stroke:#F15A60;stroke-width:0.625" />
<path d="M618.77,528.91A3.125,3.125 0 1 1 612.52,528.91A3.125,3.125 0 1 1 618.77,528.91Z" style="fill:none;stroke:#F15A60;stroke-width:0.625" />
<path d="M625.73,476.72A3.125,3.125 0 1 1 619.48,476.72A3.125,3.125 0 1 1 625.73,476.72Z" style="fill:none;stroke:#F15A60;stroke-width:0.625" />
<path d="M632.69,500.52A3.125,3.125 0 1 1 626.44,500.52A3.125,3.125 0 1 1 632.69,500.52Z" style="fill:none;stroke:#F15A60;stroke-width:0.625" />
<path d="M639.65,469.56A3.125,3.125 0 1 1 633.4,469.56A3.125,3.125 0 1 1 639.65,469.56Z" style="fill:none;stroke:#F15A60;stroke-width:0.625" />
<path d="M646.61,419.05A3.125,3.125 0 1 1 640.36,419.05A3.125,3.125 0 1 1 646.61,419.05Z" style="fill:none;stroke:#F15A60;stroke-width:0.625" />
<path d="M653.57,339.52A3.125,3.125 0 1 1 647.32,339.52A3.125,3.125 0 1 1 653.57,339.52Z" style="fill:none;stroke:#F15A60;stroke-width:0.625" />
<path d="M660.53,359.15A3.125,3.125 0 1 1 654.28,359.15A3.125,3.125 0 1 1 660.53,359.15Z" style="fill:none;stroke:#F15A60;stroke-width:0.625" />
<path d="M667.49,164.81A3.125,3.125 0 1 1 661.24,164.81A3.125,3.125 0 1 1 667.49,164.81Z" style="fill:none;stroke:#F15A60;stroke-width:0.625" />
<path d="M674.45,143.41A3.125,3.125 0 1 1 668.2,143.41A3.125,3.125 0 1 1 674.45,143.41Z" style="fill:none;stroke:#F15A60;stroke-width:0.625" />
<path d="M681.41,118.9L681.41,118.9A3.125,3.125 0 1 1 675.16,118.9A3.125,3.125 0 1 1 681.41,118.9Z" style="fill:none;stroke:#F15A60;stroke-width:0.625" />
<path d="M688.37,104.38A3.125,3.125 0 1 1 682.12,104.38A3.125,3.125 0 1 1 688.37,104.38Z" style="fill:none;stroke:#F15A60;stroke-width:0.625" />
<path d="M695.33,167.46A3.125,3.125 0 1 1 689.08,167.46A3.125,3.125 0 1 1 695.33,167.46Z" style="fill:none;stroke:#F15A60;stroke-width:0.625" />
<path d="M702.29,199.44A3.125,3.125 0 1 1 696.04,199.44A3.125,3.125 0 1 1 702.29,199.44Z" style="fill:none;stroke:#F15A60;stroke-width:0.625" />
<path d="M709.25,154.82L709.25,154.82A3.125,3.125 0 1 1 703,154.82A3.125,3.125 0 1 1 709.25,154.82Z" style="fill:none;stroke:#F15A60;stroke-width:0.625" />
<path d="M716.21,249.6L716.21,249.6A3.125,3.125 0 1 1 709.96,249.6A3.125,3.125 0 1 1 716.21,249.6Z" style="fill:none;stroke:#F15A60;stroke-width:0.625" />
<path d="M723.17,215.2L723.17,215.2A3.125,3.125 0 1 1 716.92,215.2A3.125,3.125 0 1 1 723.17,215.2Z" style="fill:none;stroke:#F15A60;stroke-width:0.625" />
<path d="M730.13,239.84L730.13,239.84A3.125,3.125 0 1 1 723.88,239.84A3.125,3.125 0 1 1 730.13,239.84Z" style="fill:none;stroke:#F15A60;stroke-width:0.625" />
<path d="M737.09,288.52L737.09,288.52A3.125,3.125 0 1 1 730.84,288.52A3.125,3.125 0 1 1 737.09,288.52Z" style="fill:none;stroke:#F15A60;stroke-width:0.625" />
<path d="M744.05,440.48L744.05,440.48A3.125,3.125 0 1 1 737.8,440.48A3.125,3.125 0 1 1 744.05,440.48Z" style="fill:none;stroke:#F15A60;stroke-width:0.625" />
<path d="M751,441.41L751,441.41A3.125,3.125 0 1 1 744.75,441.41A3.125,3.125 0 1 1 751,441.41Z" style="fill:none;stroke:#F15A60;stroke-width:0.625" />
<path d="M757.96,558.95L757.96,558.95A3.125,3.125 0 1 1 751.71,558.95A3.125,3.125 0 1 1 757.96,558.95Z" style="fill:none;stroke:#F15A60;stroke-width:0.625" />
<path d="M764.92,549.99L764.92,549.99A3.125,3.125 0 1 1 758.67,549.99A3.125,3.125 0 1 1 764.92,549.99Z" style="fill:none;stroke:#F15A60;stroke-width:0.625" />
<path d="M771.88,561.22L771.88,561.22A3.125,3.125 0 1 1 765.63,561.22A3.125,3.125 0 1 1 771.88,561.22Z" style="fill:none;stroke:#F15A60;stroke-width:0.625" />
<path d="M778.84,674.53L778.84,674.53A3.125,3.125 0 1 1 772.59,674.53A3.125,3.125 0 1 1 778.84,674.53Z" style="fill:none;stroke:#F15A60;stroke-width:0.625" />
<path d="M785.8,741.39L785.8,741.39A3.125,3.125 0 1 1 779.55,741.39A3.125,3.125 0 1 1 785.8,741.39Z" style="fill:none;stroke:#F15A60;stroke-width:0.625" />
<path d="M792.76,794.24L792.76,794.24A3.125,3.125 0 1 1 786.51,794.24A3.125,3.125 0 1 1 792.76,794.24Z" style="fill:none;stroke:#F15A60;stroke-width:0.625" />
<path d="M799.72,770.04L799.72,770.04A3.125,3.125 0 1 1 793.47,770.04A3.125,3.125 0 1 1 799.72,770.04Z" style="fill:none;stroke:#F15A60;stroke-width:0.625" />
<path d="M806.68,731.73A3.125,3.125 0 1 1 800.43,731.73A3.125,3.125 0 1 1 806.68,731.73Z" style="fill:none;stroke:#F15A60;stroke-width:0.625" />
<path d="M813.64,779.23A3.125,3.125 0 1 1 807.39,779.23A3.125,3.125 0 1 1 813.64,779.23Z" style="fill:none;stroke:#F15A60;stroke-width:0.625" />
<path d="M820.6,685.09L820.6,685.09A3.125,3.125 0 1 1 814.35,685.09A3.125,3.125 0 1 1 820.6,685.09Z" style="fill:none;stroke:#F15A60;stroke-width:0.625" />
<path d="M827.56,619.26L827.56,619.26A3.125,3.125 0 1 1 821.31,619.26A3.125,3.125 0 1 1 827.56,619.26Z" style="fill:none;stroke:#F15A60;stroke-width:0.625" />
<path d="M834.52,575.62L834.52,575.62A3.125,3.125 0 1 1 828.27,575.62A3.125,3.125 0 1 1 834.52,575.62Z" style="fill:none;stroke:#F15A60;stroke-width:0.625" />
<path d="M841.48,616.52L841.48,616.52A3.125,3.125 0 1 1 835.23,616.52A3.125,3.125 0 1 1 841.48,616.52Z" style="fill:none;stroke:#F15A60;stroke-width:0.625" />
<path d="M848.44,480.78L848.44,480.78A3.125,3.125 0 1 1 842.19,480.78A3.125,3.125 0 1 1 848.44,480.78Z" style="fill:none;stroke:#F15A60;stroke-width:0.625" />
<path d="M855.4,479.44L855.4,479.44A3.125,3.125 0 1 1 849.15,479.44A3.125,3.125 0 1 1 855.4,479.44Z" style="fill:none;stroke:#F15A60;stroke-width:0.625" />
<path d="M862.36,419.27L862.36,419.27A3.125,3.125 0 1 1 856.11,419.27A3.125,3.125 0 1 1 862.36,419.27Z" style="fill:none;stroke:#F15A60;stroke-width:0.625" />
<path d="M869.32,364.16A3.125,3.125 0 1 1 863.07,364.16A3.125,3.125 0 1 1 869.32,364.16Z" style="fill:none;stroke:#F15A60;stroke-width:0.625" />
<path d="M876.28,421.42A3.125,3.125 0 1 1 870.03,421.42A3.125,3.125 0 1 1 876.28,421.42Z" style="fill:none;stroke:#F15A60;stroke-width:0.625" />
<path d="M883.24,429.4L883.24,429.4A3.125,3.125 0 1 1 876.99,429.4A3.125,3.125 0 1 1 883.24,429.4Z" style="fill:none;stroke:#F15A60;stroke-width:0.625" />
<path d="M890.2,289.03L890.2,289.03A3.125,3.125 0 1 1 883.95,289.03A3.125,3.125 0 1 1 890.2,289.03Z" style="fill:none;stroke:#F15A60;stroke-width:0.625" />
<path d="M897.16,308.43L897.16,308.43A3.125,3.125 0 1 1 890.91,308.43A3.125,3.125 0 1 1 897.16,308.43Z" style="fill:none;stroke:#F15A60;stroke-width:0.625" />
<path d="M904.11,445.8L904.11,445.8A3.125,3.125 0 1 1 897.86,445.8A3.125,3.125 0 1 1 904.11,445.8Z" style="fill:none;stroke:#F15A60;stroke-width:0.625" />
<path d="M911.07,453.71A3.125,3.125 0 1 1 904.82,453.71A3.125,3.125 0 1 1 911.07,453.71Z" style="fill:none;stroke:#F15A60;stroke-width:0.625" />
<path d="M918.03,478.59A3.125,3.125 0 1 1 911.78,478.59A3.125,3.125 0 1 1 918.03,478.59Z" style="fill:none;stroke:#F15A60;stroke-width:0.625" />
<path d="M924.99,464.09L924.99,464.09A3.125,3.125 0 1 1 918.74,464.09A3.125,3.125 0 1 1 924.99,464.09Z" style="fill:none;stroke:#F15A60;stroke-width:0.625" />
<path d="M931.95,406.41A3.125,3.125 0 1 1 925.7,406.41A3.125,3.125 0 1 1 931.95,406.41Z" style="fill:none;stroke:#F15A60;stroke-width:0.625" />
<path d="M938.91,531.2L938.91,531.2A3.125,3.125 0 1 1 932.66,531.2A3.125,3.125 0 1 1 938.91,531.2Z" style="fill:none;stroke:#F15A60;stroke-width:0.625" />
<path d="M945.87,468.47L945.87,468.47A3.125,3.125 0 1 1 939.62,468.47A3.125,3.125 0 1 1 945.87,468.47Z" style="fill:none;stroke:#F15A60;stroke-width:0.625" />
<path d="M952.83,544.4A3.125,3.125 0 1 1 946.58,544.4A3.125,3.125 0 1 1 952.83,544.4Z" style="fill:none;stroke:#F15A60;stroke-width:0.625" />
<path d="M959.79,577.62A3.125,3.125 0 1 1 953.54,577.62A3.125,3.125 0 1 1 959.79,577.62Z" style="fill:none;stroke:#F15A60;stroke-width:0.625" />
<path d="M966.75,463.48A3.125,3.125 0 1 1 960.5,463.48A3.125,3.125 0 1 1 966.75,463.48Z" style="fill:none;stroke:#F15A60;stroke-width:0.625" />
<path d="M973.71,398.08A3.125,3.125 0 1 1 967.46,398.08A3.125,3.125 0 1 1 973.71,398.08Z" style="fill:none;stroke:#F15A60;stroke-width:0.625" />
<path d="M980.67,431.06A3.125,3.125 0 1 1 974.42,431.06A3.125,3.125 0 1 1 980.67,431.06Z" style="fill:none;stroke:#F15A60;stroke-width:0.625" />
<path d="M987.63,464.64L987.63,464.64A3.125,3.125 0 1 1 981.38,464.64A3.125,3.125 0 1 1 987.63,464.64Z" style="fill:none;stroke:#F15A60;stroke-width:0.625" />
<path d="M994.59,385.61A3.125,3.125 0 1 1 988.34,385.61A3.125,3.125 0 1 1 994.59,385.61Z" style="fill:none;stroke:#F15A60;stroke-width:0.625" />
<path d="M1001.5,289.16L1001.5,289.16A3.125,3.125 0 1 1 995.3,289.16A3.125,3.125 0 1 1 1001.5,289.16Z" style="fill:none;stroke:#F15A60;stroke-width:0.625" />
<path d="M1008.5,314.97L1008.5,314.97A3.125,3.125 0 1 1 1002.3,314.97A3.125,3.125 0 1 1 1008.5,314.97Z" style="fill:none;stroke:#F15A60;stroke-width:0.625" />
<path d="M1015.5,297.32A3.125,3.125 0 1 1 1009.2,297.32A3.125,3.125 0 1 1 1015.5,297.32Z" style="fill:none;stroke:#F15A60;stroke-width:0.625" />
<path d="M1022.4,208.34L1022.4,208.34A3.125,3.125 0 1 1 1016.2,208.34A3.125,3.125 0 1 1 1022.4,208.34Z" style="fill:none;stroke:#F15A60;stroke-width:0.625" />
<path d="M1029.4,185.01A3.125,3.125 0 1 1 1023.1,185.01A3.125,3.125 0 1 1 1029.4,185.01Z" style="fill:none;stroke:#F15A60;stroke-width:0.625" />
<path d="M1036.3,126.52L1036.3,126.52A3.125,3.125 0 1 1 1030.1,126.52A3.125,3.125 0 1 1 1036.3,126.52Z" style="fill:none;stroke:#F15A60;stroke-width:0.625" />
<path d="M1043.3,53.314A3.125,3.125 0 1 1 1037.1,53.314A3.125,3.125 0 1 1 1043.3,53.314Z" style="fill:none;stroke:#F15A60;stroke-width:0.625" />
<path d="M1050.3,78.31A3.125,3.125 0 1 1 1044,78.31A3.125,3.125 0 1 1 1050.3,78.31Z" style="fill:none;stroke:#F15A60;stroke-width:0.625" />
<path d="M1057.2,108.21L1057.2,108.21A3.125,3.125 0 1 1 1051,108.21A3.125,3.125 0 1 1 1057.2,108.21Z" style="fill:none;stroke:#F15A60;stroke-width:0.625" />
<path d="M1064.2,212.21A3.125,3.125 0 1 1 1057.9,212.21A3.125,3.125 0 1 1 1064.2,212.21Z" style="fill:none;stroke:#F15A60;stroke-width:0.625" />
<path d="M1071.1,146.36A3.125,3.125 0 1 1 1064.9,146.36A3.125,3.125 0 1 1 1071.1,146.36Z" style="fill:none;stroke:#F15A60;stroke-width:0.625" />
<path d="M1078.1,288.27A3.125,3.125 0 1 1 1071.9,288.27A3.125,3.125 0 1 1 1078.1,288.27Z" style="fill:none;stroke:#F15A60;stroke-width:0.625" />
<path d="M1085.1,316.83L1085.1,316.83A3.125,3.125 0 1 1 1078.8,316.83A3.125,3.125 0 1 1 1085.1,316.83Z" style="fill:none;stroke:#F15A60;stroke-width:0.625" />
<path d="M1092,358.25A3.125,3.125 0 1 1 1085.8,358.25A3.125,3.125 0 1 1 1092,358.25Z" style="fill:none;stroke:#F15A60;stroke-width:0.625" />
<path d="M1099,375.51A3.125,3.125 0 1 1 1092.7,375.51A3.125,3.125 0 1 1 1099,375.51Z" style="fill:none;stroke:#F15A60;stroke-width:0.625" />
<path d="M1105.9,574.23A3.125,3.125 0 1 1 1099.7,574.23A3.125,3.125 0 1 1 1105.9,574.23Z" style="fill:none;stroke:#F15A60;stroke-width:0.625" />
<path d="M1112.9,561.14L1112.9,561.14A3.125,3.125 0 1 1 1106.7,561.14A3.125,3.125 0 1 1 1112.9,561.14Z" style="fill:none;stroke:#F15A60;stroke-width:0.625" />
<path d="M1119.9,642.69A3.125,3.125 0 1 1 1113.6,642.69A3.125,3.125 0 1 1 1119.9,642.69Z" style="fill:none;stroke:#F15A60;stroke-width:0.625" />
<path d="M1126.8,618.43L1126.8,618.43A3.125,3.125 0 1 1 1120.6,618.43A3.125,3.125 0 1 1 1126.8,618.43Z" style="fill:none;stroke:#F15A60;stroke-width:0.625" />
<path d="M1133.8,657A3.125,3.125 0 1 1 1127.5,657A3.125,3.125 0 1 1 1133.8,657Z" style="fill:none;stroke:#F15A60;stroke-width:0.625" />
<path d="M1140.7,765.22L1140.7,765.22A3.125,3.125 0 1 1 1134.5,765.22A3.125,3.125 0 1 1 1140.7,765.22Z" style="fill:none;stroke:#F15A60;stroke-width:0.625" />
<path d="M1147.7,758.59A3.125,3.125 0 1 1 1141.4,758.59A3.125,3.125 0 1 1 1147.7,758.59Z" style="fill:none;stroke:#F15A60;stroke-width:0.625" />
<path d="M1154.7,789.31A3.125,3.125 0 1 1 1148.4,789.31A3.125,3.125 0 1 1 1154.7,789.31Z" style="fill:none;stroke:#F15A60;stroke-width:0.625" />
<path d="M1161.6,716.53L1161.6,716.53A3.125,3.125 0 1 1 1155.4,716.53A3.125,3.125 0 1 1 1161.6,716.53Z" style="fill:none;stroke:#F15A60;stroke-width:0.625" />
<path d="M1168.6,626.65A3.125,3.125 0 1 1 1162.3,626.65A3.125,3.125 0 1 1 1168.6,626.65Z" style="fill:none;stroke:#F15A60;stroke-width:0.625" />
<path d="M1175.5,714.6A3.125,3.125 0 1 1 1169.3,714.6A3.125,3.125 0 1 1 1175.5,714.6Z" style="fill:none;stroke:#F15A60;stroke-width:0.625" />
<path d="M1182.5,598.34L1182.5,598.34A3.125,3.125 0 1 1 1176.2,598.34A3.125,3.125 0 1 1 1182.5,598.34Z" style="fill:none;stroke:#F15A60;stroke-width:0.625" />
<path d="M1189.5,530.65A3.125,3.125 0 1 1 1183.2,530.65A3.125,3.125 0 1 1 1189.5,530.65Z" style="fill:none;stroke:#F15A60;stroke-width:0.625" />
<path d="M1196.4,568.63A3.125,3.125 0 1 1 1190.2,568.63A3.125,3.125 0 1 1 1196.4,568.63Z" style="fill:none;stroke:#F15A60;stroke-width:0.625" />
<path d="M1203.4,441.3A3.125,3.125 0 1 1 1197.1,441.3A3.125,3.125 0 1 1 1203.4,441.3Z" style="fill:none;stroke:#F15A60;stroke-width:0.625" />
<path d="M1210.3,451.92L1210.3,451.92A3.125,3.125 0 1 1 1204.1,451.92A3.125,3.125 0 1 1 1210.3,451.92Z" style="fill:none;stroke:#F15A60;stroke-width:0.625" />
<path d="M1217.3,379.36A3.125,3.125 0 1 1 1211,379.36A3.125,3.125 0 1 1 1217.3,379.36Z" style="fill:none;stroke:#F15A60;stroke-width:0.625" />
<path d="M1224.3,321.19A3.125,3.125 0 1 1 1218,321.19A3.125,3.125 0 1 1 1224.3,321.19Z" style="fill:none;stroke:#F15A60;stroke-width:0.625" />
<path d="M1231.2,343.48L1231.2,343.48A3.125,3.125 0 1 1 1225,343.48A3.125,3.125 0 1 1 1231.2,343.48Z" style="fill:none;stroke:#F15A60;stroke-width:0.625" />
<path d="M1238.2,363.25A3.125,3.125 0 1 1 1231.9,363.25A3.125,3.125 0 1 1 1238.2,363.25Z" style="fill:none;stroke:#F15A60;stroke-width:0.625" />
<path d="M1245.1,414.1A3.125,3.125 0 1 1 1238.9,414.1A3.125,3.125 0 1 1 1245.1,414.1Z" style="fill:none;stroke:#F15A60;stroke-width:0.625" />
<path d="M1252.1,327.7A3.125,3.125 0 1 1 1245.8,327.7A3.125,3.125 0 1 1 1252.1,327.7Z" style="fill:none;stroke:#F15A60;stroke-width:0.625" />
<path d="M1259.1,411.28A3.125,3.125 0 1 1 1252.8,411.28A3.125,3.125 0 1 1 1259.1,411.28Z" style="fill:none;stroke:#F15A60;stroke-width:0.625" />
<path d="M1266,383.57A3.125,3.125 0 1 1 1259.8,383.57A3.125,3.125 0 1 1 1266,383.57Z" style="fill:none;stroke:#F15A60;stroke-width:0.625" />
<path d="M1273,519.68A3.125,3.125 0 1 1 1266.7,519.68A3.125,3.125 0 1 1 1273,519.68Z" style="fill:none;stroke:#F15A60;stroke-width:0.625" />
<path d="M1279.9,504.98A3.125,3.125 0 1 1 1273.7,504.98A3.125,3.125 0 1 1 1279.9,504.98Z" style="fill:none;stroke:#F15A60;stroke-width:0.625" />
<path d="M1286.9,535.61L1286.9,535.61A3.125,3.125 0 1 1 1280.6,535.61A3.125,3.125 0 1 1 1286.9,535.61Z" style="fill:none;stroke:#F15A60;stroke-width:0.625" />
<path d="M1293.8,565.69L1293.8,565.69A3.125,3.125 0 1 1 1287.6,565.69A3.125,3.125 0 1 1 1293.8,565.69Z" style="fill:none;stroke:#F15A60;stroke-width:0.625" />
<path d="M1300.8,523.99A3.125,3.125 0 1 1 1294.6,523.99A3.125,3.125 0 1 1 1300.8,523.99Z" style="fill:none;stroke:#F15A60;stroke-width:0.625" />
<path d="M1307.8,578.11L1307.8,578.11A3.125,3.125 0 1 1 1301.5,578.11A3.125,3.125 0 1 1 1307.8,578.11Z" style="fill:none;stroke:#F15A60;stroke-width:0.625" />
<path d="M1314.7,412.76A3.125,3.125 0 1 1 1308.5,412.76A3.125,3.125 0 1 1 1314.7,412.76Z" style="fill:none;stroke:#F15A60;stroke-width:0.625" />
<path d="M1321.7,548.46L1321.7,548.46A3.125,3.125 0 1 1 1315.4,548.46A3.125,3.125 0 1 1 1321.7,548.46Z" style="fill:none;stroke:#F15A60;stroke-width:0.625" />
<path d="M1328.6,404.48A3.125,3.125 0 1 1 1322.4,404.48A3.125,3.125 0 1 1 1328.6,404.48Z" style="fill:none;stroke:#F15A60;stroke-width:0.625" />
<path d="M1335.6,357.98L1335.6,357.98A3.125,3.125 0 1 1 1329.4,357.98A3.125,3.125 0 1 1 1335.6,357.98Z" style="fill:none;stroke:#F15A60;stroke-width:0.625" />
<path d="M1342.6,425.63A3.125,3.125 0 1 1 1336.3,425.63A3.125,3.125 0 1 1 1342.6,425.63Z" style="fill:none;stroke:#F15A60;stroke-width:0.625" />
<path d="M1349.5,350.62L1349.5,350.62A3.125,3.125 0 1 1 1343.3,350.62A3.125,3.125 0 1 1 1349.5,350.62Z" style="fill:none;stroke:#F15A60;stroke-width:0.625" />
<path d="M1356.5,224.71L1356.5,224.71A3.125,3.125 0 1 1 1350.2,224.71A3.125,3.125 0 1 1 1356.5,224.71Z" style="fill:none;stroke:#F15A60;stroke-width:0.625" />
<path d="M1363.4,194.87L1363.4,194.87A3.125,3.125 0 1 1 1357.2,194.87A3.125,3.125 0 1 1 1363.4,194.87Z" style="fill:none;stroke:#F15A60;stroke-width:0.625" />
<path d="M1370.4,216.74A3.125,3.125 0 1 1 1364.2,216.74A3.125,3.125 0 1 1 1370.4,216.74Z" style="fill:none;stroke:#F15A60;stroke-width:0.625" />
<path d="M1377.4,92.907A3.125,3.125 0 1 1 1371.1,92.907A3.125,3.125 0 1 1 1377.4,92.907Z" style="fill:none;stroke:#F15A60;stroke-width:0.625" />
<path d="M1384.3,104.39A3.125,3.125 0 1 1 1378.1,104.39A3.125,3.125 0 1 1 1384.3,104.39Z" style="fill:none;stroke:#F15A60;stroke-width:0.625" />
<path d="M1391.3,162.56L1391.3,162.56A3.125,3.125 0 1 1 1385,162.56A3.125,3.125 0 1 1 1391.3,162.56Z" style="fill:none;stroke:#F15A60;stroke-width:0.625" />
<path d="M1398.2,206.48A3.125,3.125 0 1 1 1392,206.48A3.125,3.125 0 1 1 1398.2,206.48Z" style="fill:none;stroke:#F15A60;stroke-width:0.625" />
<path d="M1405.2,176.24L1405.2,176.24A3.125,3.125 0 1 1 1399,176.24A3.125,3.125 0 1 1 1405.2,176.24Z" style="fill:none;stroke:#F15A60;stroke-width:0.625" />
<path d="M1412.2,236.76A3.125,3.125 0 1 1 1405.9,236.76A3.125,3.125 0 1 1 1412.2,236.76Z" style="fill:none;stroke:#F15A60;stroke-width:0.625" />
<path d="M1419.1,184.63L1419.1,184.63A3.125,3.125 0 1 1 1412.9,184.63A3.125,3.125 0 1 1 1419.1,184.63Z" style="fill:none;stroke:#F15A60;stroke-width:0.625" />
<path d="M1426.1,197.86A3.125,3.125 0 1 1 1419.8,197.86A3.125,3.125 0 1 1 1426.1,197.86Z" style="fill:none;stroke:#F15A60;stroke-width:0.625" />
<path d="M1433,240.03L1433,240.03A3.125,3.125 0 1 1 1426.8,240.03A3.125,3.125 0 1 1 1433,240.03Z" style="fill:none;stroke:#F15A60;stroke-width:0.625" />
<path d="M1440,309.95A3.125,3.125 0 1 1 1433.8,309.95A3.125,3.125 0 1 1 1440,309.95Z" style="fill:none;stroke:#F15A60;stroke-width:0.625" />
<path d="M51.925,759.51L58.885,767.39L65.844,746.91L72.804,720.14L79.763,684.53L86.723,663.74L93.682,616.38L100.64,562.52L107.6,514.86L114.56,495.52L121.52,471.33L128.48,440.81L135.44,421.79L142.4,394.61L149.36,390.25L156.32,399.79L163.28,395L170.24,400.52L177.2,419.13L184.16,451.91L191.12,482.29L198.08,477.05L205.04,470.69L211.99,479.95L218.95,487.16L225.91,461.64L232.87,438.35L239.83,391.24L246.79,366.17L253.75,333.8L260.71,281.96L267.67,247.31L274.63,222.02L281.59,190.84L288.55,147.14L295.51,149.07L302.47,159.52L309.43,158.41L316.39,155.35L323.35,187.21L330.31,234.28L337.27,287.97L344.23,337.88L351.19,412.75L358.15,466.16L365.1,515.59L372.06,592.17L379.02,628.4L385.98,686.2L392.94,712.47L399.9,751.54L406.86,762.01L413.82,772.52L420.78,740L427.74,706.72L434.7,664.99L441.66,623.06L448.62,599.44L455.58,573.72L462.54,511.99L469.5,459.23L476.46,431.83L483.42,400.71L490.38,395.96L497.34,397.08L504.3,401.59L511.26,403.69L518.21,418.61L525.17,442.7L532.13,473.22L539.09,482.79L546.05,491.77L553.01,507.28L559.97,508.2L566.93,513.2L573.89,509.52L580.85,493.13L587.81,459.84L594.77,434.83L601.73,370.67L608.69,309.42L615.65,251.13L622.61,199.83L629.57,172.03L636.53,159.74L643.49,144.17L650.45,156.54L657.41,163.41L664.37,179.42L671.32,204.51L678.28,260.16L685.24,307.99L692.2,373.83L699.16,427.88L706.12,475.68L713.08,538.82L720.04,606.38L727,672.67L733.96,719.66L740.92,746L747.88,775.74L754.84,775.85L761.8,758L768.76,728.59L775.72,708.03L782.68,658.38L789.64,614.94L796.6,565.83L803.56,513.1L810.52,482.43L817.48,462.51L824.43,417.39L831.39,384.9L838.35,389.99L845.31,401.13L852.27,418.55L859.23,432.72L866.19,432.8L873.15,459.9L880.11,470.14L887.07,496.48L894.03,523.92L900.99,518.95L907.95,498.82L914.91,487.49L921.87,484.92L928.83,464.55L935.79,422.99L942.75,393.3L949.71,363.47L956.67,319.8L963.63,280.11L970.59,234.22L977.54,178.65L984.5,138.15L991.46,114.03L998.42,120.25L1005.4,113.58L1012.3,143.05L1019.3,179.17L1026.3,221.9L1033.2,264.18L1040.2,344.95L1047.1,409.76L1054.1,480.84L1061.1,533.1L1068,583.88L1075,646.25L1081.9,695.2L1088.9,740.01L1095.9,757.68L1102.8,746.6L1109.8,753.99L1116.7,731.39L1123.7,694.67L1130.7,668.69L1137.6,616.27L1144.6,574.34L1151.5,523.75L1158.5,470.32L1165.5,431.78L1172.4,404.78L1179.4,398L1186.3,376.38L1193.3,378.64L1200.3,378.61L1207.2,410.64L1214.2,437.67L1221.1,468.45L1228.1,500.64L1235,517.89L1242,543.3L1249,527.41L1255.9,539.92L1262.9,516.61L1269.8,482.31L1276.8,467.27L1283.8,437.35L1290.7,383.71L1297.7,331.89L1304.6,293.22L1311.6,235.72L1318.6,188.79L1325.5,166.06L1332.5,159.26L1339.4,149.44L1346.4,159.47L1353.4,160.62L1360.3,165.75L1367.3,180.29L1374.2,209.99L1381.2,218.15L1388.2,225.44L1395.1,233.04L1402.1,243.1L1409,254.02L1416,272.97L1423,296.9L1429.9,324.28L1436.9,348.17" style="fill:none;stroke:#7AC36A;stroke-width:1.25;stroke-dasharray:7.5,2.5" />
<path d="M49.258,756.85L54.592,756.85L54.592,762.18L49.258,762.18Z" style="fill:none;stroke:#7AC36A;stroke-width:0.625" />
<path d="M56.217,764.72L61.552,764.72L61.552,770.06L56.217,770.06Z" style="fill:none;stroke:#7AC36A;stroke-width:0.625" />
<path d="M63.177,744.24L68.511,744.24L68.511,749.57L63.177,749.57Z" style="fill:none;stroke:#7AC36A;stroke-width:0.625" />
<path d="M70.136,717.48L75.471,717.48L75.471,722.81L70.136,722.81Z" style="fill:none;stroke:#7AC36A;stroke-width:0.625" />
<path d="M77.096,681.87L82.431,681.87L82.431,687.2L77.096,687.2Z" style="fill:none;stroke:#7AC36A;stroke-width:0.625" />
<path d="M84.055,661.07L89.39,661.07L89.39,666.4L84.055,666.4Z" style="fill:none;stroke:#7AC36A;stroke-width:0.625" />
<path d="M91.015,613.71L96.35,613.71L96.35,619.05L91.015,619.05Z" style="fill:none;stroke:#7AC36A;stroke-width:0.625" />
<path d="M97.974,559.86L103.31,559.86L103.31,565.19L97.974,565.19Z" style="fill:none;stroke:#7AC36A;stroke-width:0.625" />
<path d="M104.93,512.19L110.27,512.19L110.27,517.53L104.93,517.53Z" style="fill:none;stroke:#7AC36A;stroke-width:0.625" />
<path d="M111.89,492.85L117.23,492.85L117.23,498.19L111.89,498.19Z" style="fill:none;stroke:#7AC36A;stroke-width:0.625" />
<path d="M118.85,468.66L124.19,468.66L124.19,474L118.85,474Z" style="fill:none;stroke:#7AC36A;stroke-width:0.625" />
<path d="M125.81,438.14L131.15,438.14L131.15,443.47L125.81,443.47Z" style="fill:none;stroke:#7AC36A;stroke-width:0.625" />
<path d="M132.77,419.13L138.11,419.13L138.11,424.46L132.77,424.46Z" style="fill:none;stroke:#7AC36A;stroke-width:0.625" />
<path d="M139.73,391.94L145.07,391.94L145.07,397.28L139.73,397.28Z" style="fill:none;stroke:#7AC36A;stroke-width:0.625" />
<path d="M146.69,387.59L152.03,387.59L152.03,392.92L146.69,392.92Z" style="fill:none;stroke:#7AC36A;stroke-width:0.625" />
<path d="M153.65,397.12L158.99,397.12L158.99,402.46L153.65,402.46Z" style="fill:none;stroke:#7AC36A;stroke-width:0.625" />
<path d="M160.61,392.33L165.95,392.33L165.95,397.66L160.61,397.66Z" style="fill:none;stroke:#7AC36A;stroke-width:0.625" />
<path d="M167.57,397.86L172.9,397.86L172.9,403.19L167.57,403.19Z" style="fill:none;stroke:#7AC36A;stroke-width:0.625" />
<path d="M174.53,416.46L179.86,416.46L179.86,421.8L174.53,421.8Z" style="fill:none;stroke:#7AC36A;stroke-width:0.625" />
<path d="M181.49,449.24L186.82,449.24L186.82,454.58L181.49,454.58Z" style="fill:none;stroke:#7AC36A;stroke-width:0.625" />
<path d="M188.45,479.62L193.78,479.62L193.78,484.96L188.45,484.96Z" style="fill:none;stroke:#7AC36A;stroke-width:0.625" />
<path d="M195.41,474.38L200.74,474.38L200.74,479.71L195.41,479.71Z" style="fill:none;stroke:#7AC36A;stroke-width:0.625" />
<path d="M202.37,468.02L207.7,468.02L207.7,473.35L202.37,473.35Z" style="fill:none;stroke:#7AC36A;stroke-width:0.625" />
<path d="M209.33,477.29L214.66,477.29L214.66,482.62L209.33,482.62Z" style="fill:none;stroke:#7AC36A;stroke-width:0.625" />
<path d="M216.29,484.49L221.62,484.49L221.62,489.82L216.29,489.82Z" style="fill:none;stroke:#7AC36A;stroke-width:0.625" />
<path d="M223.25,458.97L228.58,458.97L228.58,464.3L223.25,464.3Z" style="fill:none;stroke:#7AC36A;stroke-width:0.625" />
<path d="M230.21,435.68L235.54,435.68L235.54,441.02L230.21,441.02Z" style="fill:none;stroke:#7AC36A;stroke-width:0.625" />
<path d="M237.17,388.57L242.5,388.57L242.5,393.91L237.17,393.91Z" style="fill:none;stroke:#7AC36A;stroke-width:0.625" />
<path d="M244.12,363.5L249.46,363.5L249.46,368.84L244.12,368.84Z" style="fill:none;stroke:#7AC36A;stroke-width:0.625" />
<path d="M251.08,331.13L256.42,331.13L256.42,336.47L251.08,336.47Z" style="fill:none;stroke:#7AC36A;stroke-width:0.625" />
<path d="M258.04,279.29L263.38,279.29L263.38,284.62L258.04,284.62Z" style="fill:none;stroke:#7AC36A;stroke-width:0.625" />
<path d="M265,244.65L270.34,244.65L270.34,249.98L265,249.98Z" style="fill:none;stroke:#7AC36A;stroke-width:0.625" />
<path d="M271.96,219.35L277.3,219.35L277.3,224.69L271.96,224.69Z" style="fill:none;stroke:#7AC36A;stroke-width:0.625" />
<path d="M278.92,188.18L284.26,188.18L284.26,193.51L278.92,193.51Z" style="fill:none;stroke:#7AC36A;stroke-width:0.625" />
<path d="M285.88,144.48L291.22,144.48L291.22,149.81L285.88,149.81Z" style="fill:none;stroke:#7AC36A;stroke-width:0.625" />
<path d="M292.84,146.4L298.18,146.4L298.18,151.73L292.84,151.73Z" style="fill:none;stroke:#7AC36A;stroke-width:0.625" />
<path d="M299.8,156.85L305.14,156.85L305.14,162.19L299.8,162.19Z" style="fill:none;stroke:#7AC36A;stroke-width:0.625" />
<path d="M306.76,155.74L312.1,155.74L312.1,161.07L306.76,161.07Z" style="fill:none;stroke:#7AC36A;stroke-width:0.625" />
<path d="M313.72,152.68L319.06,152.68L319.06,158.01L313.72,158.01Z" style="fill:none;stroke:#7AC36A;stroke-width:0.625" />
<path d="M320.68,184.54L326.01,184.54L326.01,189.87L320.68,189.87Z" style="fill:none;stroke:#7AC36A;stroke-width:0.625" />
<path d="M327.64,231.61L332.97,231.61L332.97,236.95L327.64,236.95Z" style="fill:none;stroke:#7AC36A;stroke-width:0.625" />
<path d="M334.6,285.3L339.93,285.3L339.93,290.63L334.6,290.63Z" style="fill:none;stroke:#7AC36A;stroke-width:0.625" />
<path d="M341.56,335.21L346.89,335.21L346.89,340.54L341.56,340.54Z" style="fill:none;stroke:#7AC36A;stroke-width:0.625" />
<path d="M348.52,410.08L353.85,410.08L353.85,415.42L348.52,415.42Z" style="fill:none;stroke:#7AC36A;stroke-width:0.625" />
<path d="M355.48,463.49L360.81,463.49L360.81,468.83L355.48,468.83Z" style="fill:none;stroke:#7AC36A;stroke-width:0.625" />
<path d="M362.44,512.92L367.77,512.92L367.77,518.26L362.44,518.26Z" style="fill:none;stroke:#7AC36A;stroke-width:0.625" />
<path d="M369.4,589.51L374.73,589.51L374.73,594.84L369.4,594.84Z" style="fill:none;stroke:#7AC36A;stroke-width:0.625" />
<path d="M376.36,625.73L381.69,625.73L381.69,631.06L376.36,631.06Z" style="fill:none;stroke:#7AC36A;stroke-width:0.625" />
<path d="M383.32,683.53L388.65,683.53L388.65,688.86L383.32,688.86Z" style="fill:none;stroke:#7AC36A;stroke-width:0.625" />
<path d="M390.28,709.81L395.61,709.81L395.61,715.14L390.28,715.14Z" style="fill:none;stroke:#7AC36A;stroke-width:0.625" />
<path d="M397.24,748.87L402.57,748.87L402.57,754.21L397.24,754.21Z" style="fill:none;stroke:#7AC36A;stroke-width:0.625" />
<path d="M404.19,759.35L409.53,759.35L409.53,764.68L404.19,764.68Z" style="fill:none;stroke:#7AC36A;stroke-width:0.625" />
<path d="M411.15,769.85L416.49,769.85L416.49,775.18L411.15,775.18Z" style="fill:none;stroke:#7AC36A;stroke-width:0.625" />
<path d="M418.11,737.33L423.45,737.33L423.45,742.67L418.11,742.67Z" style="fill:none;stroke:#7AC36A;stroke-width:0.625" />
<path d="M425.07,704.06L430.41,704.06L430.41,709.39L425.07,709.39Z" style="fill:none;stroke:#7AC36A;stroke-width:0.625" />
<path d="M432.03,662.32L437.37,662.32L437.37,667.66L432.03,667.66Z" style="fill:none;stroke:#7AC36A;stroke-width:0.625" />
<path d="M438.99,620.4L444.33,620.4L444.33,625.73L438.99,625.73Z" style="fill:none;stroke:#7AC36A;stroke-width:0.625" />
<path d="M445.95,596.77L451.29,596.77L451.29,602.1L445.95,602.1Z" style="fill:none;stroke:#7AC36A;stroke-width:0.625" />
<path d="M452.91,571.05L458.25,571.05L458.25,576.39L452.91,576.39Z" style="fill:none;stroke:#7AC36A;stroke-width:0.625" />
<path d="M459.87,509.32L465.21,509.32L465.21,514.66L459.87,514.66Z" style="fill:none;stroke:#7AC36A;stroke-width:0.625" />
<path d="M466.83,456.56L472.17,456.56L472.17,461.9L466.83,461.9Z" style="fill:none;stroke:#7AC36A;stroke-width:0.625" />
<path d="M473.79,429.16L479.12,429.16L479.12,434.49L473.79,434.49Z" style="fill:none;stroke:#7AC36A;stroke-width:0.625" />
<path d="M480.75,398.04L486.08,398.04L486.08,403.38L480.75,403.38Z" style="fill:none;stroke:#7AC36A;stroke-width:0.625" />
<path d="M487.71,393.29L493.04,393.29L493.04,398.62L487.71,398.62Z" style="fill:none;stroke:#7AC36A;stroke-width:0.625" />
<path d="M494.67,394.42L500,394.42L500,399.75L494.67,399.75Z" style="fill:none;stroke:#7AC36A;stroke-width:0.625" />
<path d="M501.63,398.92L506.96,398.92L506.96,404.26L501.63,404.26Z" style="fill:none;stroke:#7AC36A;stroke-width:0.625" />
<path d="M508.59,401.02L513.92,401.02L513.92,406.36L508.59,406.36Z" style="fill:none;stroke:#7AC36A;stroke-width:0.625" />
<path d="M515.55,415.94L520.88,415.94L520.88,421.28L515.55,421.28Z" style="fill:none;stroke:#7AC36A;stroke-width:0.625" />
<path d="M522.51,440.03L527.84,440.03L527.84,445.36L522.51,445.36Z" style="fill:none;stroke:#7AC36A;stroke-width:0.625" />
<path d="M529.47,470.55L534.8,470.55L534.8,475.89L529.47,475.89Z" style="fill:none;stroke:#7AC36A;stroke-width:0.625" />
<path d="M536.43,480.12L541.76,480.12L541.76,485.46L536.43,485.46Z" style="fill:none;stroke:#7AC36A;stroke-width:0.625" />
<path d="M543.39,489.1L548.72,489.1L548.72,494.43L543.39,494.43Z" style="fill:none;stroke:#7AC36A;stroke-width:0.625" />
<path d="M550.35,504.61L555.68,504.61L555.68,509.95L550.35,509.95Z" style="fill:none;stroke:#7AC36A;stroke-width:0.625" />
<path d="M557.3,505.53L562.64,505.53L562.64,510.87L557.3,510.87Z" style="fill:none;stroke:#7AC36A;stroke-width:0.625" />
<path d="M564.26,510.54L569.6,510.54L569.6,515.87L564.26,515.87Z" style="fill:none;stroke:#7AC36A;stroke-width:0.625" />
<path d="M571.22,506.86L576.56,506.86L576.56,512.19L571.22,512.19Z" style="fill:none;stroke:#7AC36A;stroke-width:0.625" />
<path d="M578.18,490.47L583.52,490.47L583.52,495.8L578.18,495.8Z" style="fill:none;stroke:#7AC36A;stroke-width:0.625" />
<path d="M585.14,457.18L590.48,457.18L590.48,462.51L585.14,462.51Z" style="fill:none;stroke:#7AC36A;stroke-width:0.625" />
<path d="M592.1,432.17L597.44,432.17L597.44,437.5L592.1,437.5Z" style="fill:none;stroke:#7AC36A;stroke-width:0.625" />
<path d="M599.06,368L604.4,368L604.4,373.33L599.06,373.33Z" style="fill:none;stroke:#7AC36A;stroke-width:0.625" />
<path d="M606.02,306.75L611.36,306.75L611.36,312.09L606.02,312.09Z" style="fill:none;stroke:#7AC36A;stroke-width:0.625" />
<path d="M612.98,248.47L618.32,248.47L618.32,253.8L612.98,253.8Z" style="fill:none;stroke:#7AC36A;stroke-width:0.625" />
<path d="M619.94,197.16L625.28,197.16L625.28,202.5L619.94,202.5Z" style="fill:none;stroke:#7AC36A;stroke-width:0.625" />
<path d="M626.9,169.36L632.23,169.36L632.23,174.69L626.9,174.69Z" style="fill:none;stroke:#7AC36A;stroke-width:0.625" />
<path d="M633.86,157.08L639.19,157.08L639.19,162.41L633.86,162.41Z" style="fill:none;stroke:#7AC36A;stroke-width:0.625" />
<path d="M640.82,141.51L646.15,141.51L646.15,146.84L640.82,146.84Z" style="fill:none;stroke:#7AC36A;stroke-width:0.625" />
<path d="M647.78,153.87L653.11,153.87L653.11,159.2L647.78,159.2Z" style="fill:none;stroke:#7AC36A;stroke-width:0.625" />
<path d="M654.74,160.74L660.07,160.74L660.07,166.08L654.74,166.08Z" style="fill:none;stroke:#7AC36A;stroke-width:0.625" />
<path d="M661.7,176.75L667.03,176.75L667.03,182.09L661.7,182.09Z" style="fill:none;stroke:#7AC36A;stroke-width:0.625" />
<path d="M668.66,201.84L673.99,201.84L673.99,207.18L668.66,207.18Z" style="fill:none;stroke:#7AC36A;stroke-width:0.625" />
<path d="M675.62,257.5L680.95,257.5L680.95,262.83L675.62,262.83Z" style="fill:none;stroke:#7AC36A;stroke-width:0.625" />
<path d="M682.58,305.32L687.91,305.32L687.91,310.66L682.58,310.66Z" style="fill:none;stroke:#7AC36A;stroke-width:0.625" />
<path d="M689.54,371.17L694.87,371.17L694.87,376.5L689.54,376.5Z" style="fill:none;stroke:#7AC36A;stroke-width:0.625" />
<path d="M696.5,425.21L701.83,425.21L701.83,430.54L696.5,430.54Z" style="fill:none;stroke:#7AC36A;stroke-width:0.625" />
<path d="M703.46,473.01L708.79,473.01L708.79,478.35L703.46,478.35Z" style="fill:none;stroke:#7AC36A;stroke-width:0.625" />
<path d="M710.41,536.15L715.75,536.15L715.75,541.49L710.41,541.49Z" style="fill:none;stroke:#7AC36A;stroke-width:0.625" />
<path d="M717.37,603.71L722.71,603.71L722.71,609.05L717.37,609.05Z" style="fill:none;stroke:#7AC36A;stroke-width:0.625" />
<path d="M724.33,670.01L729.67,670.01L729.67,675.34L724.33,675.34Z" style="fill:none;stroke:#7AC36A;stroke-width:0.625" />
<path d="M731.29,717L736.63,717L736.63,722.33L731.29,722.33Z" style="fill:none;stroke:#7AC36A;stroke-width:0.625" />
<path d="M738.25,743.33L743.59,743.33L743.59,748.67L738.25,748.67Z" style="fill:none;stroke:#7AC36A;stroke-width:0.625" />
<path d="M745.21,773.07L750.55,773.07L750.55,778.4L745.21,778.4Z" style="fill:none;stroke:#7AC36A;stroke-width:0.625" />
<path d="M752.17,773.18L757.51,773.18L757.51,778.52L752.17,778.52Z" style="fill:none;stroke:#7AC36A;stroke-width:0.625" />
<path d="M759.13,755.33L764.47,755.33L764.47,760.66L759.13,760.66Z" style="fill:none;stroke:#7AC36A;stroke-width:0.625" />
<path d="M766.09,725.92L771.43,725.92L771.43,731.26L766.09,731.26Z" style="fill:none;stroke:#7AC36A;stroke-width:0.625" />
<path d="M773.05,705.36L778.39,705.36L778.39,710.7L773.05,710.7Z" style="fill:none;stroke:#7AC36A;stroke-width:0.625" />
<path d="M780.01,655.71L785.34,655.71L785.34,661.04L780.01,661.04Z" style="fill:none;stroke:#7AC36A;stroke-width:0.625" />
<path d="M786.97,612.27L792.3,612.27L792.3,617.61L786.97,617.61Z" style="fill:none;stroke:#7AC36A;stroke-width:0.625" />
<path d="M793.93,563.17L799.26,563.17L799.26,568.5L793.93,568.5Z" style="fill:none;stroke:#7AC36A;stroke-width:0.625" />
<path d="M800.89,510.43L806.22,510.43L806.22,515.76L800.89,515.76Z" style="fill:none;stroke:#7AC36A;stroke-width:0.625" />
<path d="M807.85,479.76L813.18,479.76L813.18,485.1L807.85,485.1Z" style="fill:none;stroke:#7AC36A;stroke-width:0.625" />
<path d="M814.81,459.84L820.14,459.84L820.14,465.17L814.81,465.17Z" style="fill:none;stroke:#7AC36A;stroke-width:0.625" />
<path d="M821.77,414.73L827.1,414.73L827.1,420.06L821.77,420.06Z" style="fill:none;stroke:#7AC36A;stroke-width:0.625" />
<path d="M828.73,382.23L834.06,382.23L834.06,387.57L828.73,387.57Z" style="fill:none;stroke:#7AC36A;stroke-width:0.625" />
<path d="M835.69,387.32L841.02,387.32L841.02,392.66L835.69,392.66Z" style="fill:none;stroke:#7AC36A;stroke-width:0.625" />
<path d="M842.65,398.47L847.98,398.47L847.98,403.8L842.65,403.8Z" style="fill:none;stroke:#7AC36A;stroke-width:0.625" />
<path d="M849.61,415.88L854.94,415.88L854.94,421.22L849.61,421.22Z" style="fill:none;stroke:#7AC36A;stroke-width:0.625" />
<path d="M856.57,430.06L861.9,430.06L861.9,435.39L856.57,435.39Z" style="fill:none;stroke:#7AC36A;stroke-width:0.625" />
<path d="M863.52,430.13L868.86,430.13L868.86,435.47L863.52,435.47Z" style="fill:none;stroke:#7AC36A;stroke-width:0.625" />
<path d="M870.48,457.23L875.82,457.23L875.82,462.57L870.48,462.57Z" style="fill:none;stroke:#7AC36A;stroke-width:0.625" />
<path d="M877.44,467.47L882.78,467.47L882.78,472.8L877.44,472.8Z" style="fill:none;stroke:#7AC36A;stroke-width:0.625" />
<path d="M884.4,493.82L889.74,493.82L889.74,499.15L884.4,499.15Z" style="fill:none;stroke:#7AC36A;stroke-width:0.625" />
<path d="M891.36,521.25L896.7,521.25L896.7,526.59L891.36,526.59Z" style="fill:none;stroke:#7AC36A;stroke-width:0.625" />
<path d="M898.32,516.28L903.66,516.28L903.66,521.61L898.32,521.61Z" style="fill:none;stroke:#7AC36A;stroke-width:0.625" />
<path d="M905.28,496.15L910.62,496.15L910.62,501.48L905.28,501.48Z" style="fill:none;stroke:#7AC36A;stroke-width:0.625" />
<path d="M912.24,484.83L917.58,484.83L917.58,490.16L912.24,490.16Z" style="fill:none;stroke:#7AC36A;stroke-width:0.625" />
<path d="M919.2,482.25L924.54,482.25L924.54,487.59L919.2,487.59Z" style="fill:none;stroke:#7AC36A;stroke-width:0.625" />
<path d="M926.16,461.88L931.5,461.88L931.5,467.21L926.16,467.21Z" style="fill:none;stroke:#7AC36A;stroke-width:0.625" />
<path d="M933.12,420.33L938.45,420.33L938.45,425.66L933.12,425.66Z" style="fill:none;stroke:#7AC36A;stroke-width:0.625" />
<path d="M940.08,390.63L945.41,390.63L945.41,395.97L940.08,395.97Z" style="fill:none;stroke:#7AC36A;stroke-width:0.625" />
<path d="M947.04,360.8L952.37,360.8L952.37,366.14L947.04,366.14Z" style="fill:none;stroke:#7AC36A;stroke-width:0.625" />
<path d="M954,317.13L959.33,317.13L959.33,322.47L954,322.47Z" style="fill:none;stroke:#7AC36A;stroke-width:0.625" />
<path d="M960.96,277.44L966.29,277.44L966.29,282.78L960.96,282.78Z" style="fill:none;stroke:#7AC36A;stroke-width:0.625" />
<path d="M967.92,231.56L973.25,231.56L973.25,236.89L967.92,236.89Z" style="fill:none;stroke:#7AC36A;stroke-width:0.625" />
<path d="M974.88,175.99L980.21,175.99L980.21,181.32L974.88,181.32Z" style="fill:none;stroke:#7AC36A;stroke-width:0.625" />
<path d="M981.84,135.48L987.17,135.48L987.17,140.82L981.84,140.82Z" style="fill:none;stroke:#7AC36A;stroke-width:0.625" />
<path d="M988.8,111.37L994.13,111.37L994.13,116.7L988.8,116.7Z" style="fill:none;stroke:#7AC36A;stroke-width:0.625" />
<path d="M995.76,117.58L1001.1,117.58L1001.1,122.92L995.76,122.92Z" style="fill:none;stroke:#7AC36A;stroke-width:0.625" />
<path d="M1002.7,110.91L1008.1,110.91L1008.1,116.24L1002.7,116.24Z" style="fill:none;stroke:#7AC36A;stroke-width:0.625" />
<path d="M1009.7,140.38L1015,140.38L1015,145.72L1009.7,145.72Z" style="fill:none;stroke:#7AC36A;stroke-width:0.625" />
<path d="M1016.6,176.51L1022,176.51L1022,181.84L1016.6,181.84Z" style="fill:none;stroke:#7AC36A;stroke-width:0.625" />
<path d="M1023.6,219.23L1028.9,219.23L1028.9,224.57L1023.6,224.57Z" style="fill:none;stroke:#7AC36A;stroke-width:0.625" />
<path d="M1030.6,261.52L1035.9,261.52L1035.9,266.85L1030.6,266.85Z" style="fill:none;stroke:#7AC36A;stroke-width:0.625" />
<path d="M1037.5,342.29L1042.8,342.29L1042.8,347.62L1037.5,347.62Z" style="fill:none;stroke:#7AC36A;stroke-width:0.625" />
<path d="M1044.5,407.09L1049.8,407.09L1049.8,412.42L1044.5,412.42Z" style="fill:none;stroke:#7AC36A;stroke-width:0.625" />
<path d="M1051.4,478.17L1056.8,478.17L1056.8,483.5L1051.4,483.5Z" style="fill:none;stroke:#7AC36A;stroke-width:0.625" />
<path d="M1058.4,530.43L1063.7,530.43L1063.7,535.76L1058.4,535.76Z" style="fill:none;stroke:#7AC36A;stroke-width:0.625" />
<path d="M1065.4,581.21L1070.7,581.21L1070.7,586.55L1065.4,586.55Z" style="fill:none;stroke:#7AC36A;stroke-width:0.625" />
<path d="M1072.3,643.58L1077.6,643.58L1077.6,648.91L1072.3,648.91Z" style="fill:none;stroke:#7AC36A;stroke-width:0.625" />
<path d="M1079.3,692.53L1084.6,692.53L1084.6,697.86L1079.3,697.86Z" style="fill:none;stroke:#7AC36A;stroke-width:0.625" />
<path d="M1086.2,737.35L1091.6,737.35L1091.6,742.68L1086.2,742.68Z" style="fill:none;stroke:#7AC36A;stroke-width:0.625" />
<path d="M1093.2,755.01L1098.5,755.01L1098.5,760.35L1093.2,760.35Z" style="fill:none;stroke:#7AC36A;stroke-width:0.625" />
<path d="M1100.1,743.93L1105.5,743.93L1105.5,749.26L1100.1,749.26Z" style="fill:none;stroke:#7AC36A;stroke-width:0.625" />
<path d="M1107.1,751.33L1112.4,751.33L1112.4,756.66L1107.1,756.66Z" style="fill:none;stroke:#7AC36A;stroke-width:0.625" />
<path d="M1114.1,728.73L1119.4,728.73L1119.4,734.06L1114.1,734.06Z" style="fill:none;stroke:#7AC36A;stroke-width:0.625" />
<path d="M1121,692L1126.4,692L1126.4,697.34L1121,697.34Z" style="fill:none;stroke:#7AC36A;stroke-width:0.625" />
<path d="M1128,666.02L1133.3,666.02L1133.3,671.36L1128,671.36Z" style="fill:none;stroke:#7AC36A;stroke-width:0.625" />
<path d="M1134.9,613.6L1140.3,613.6L1140.3,618.94L1134.9,618.94Z" style="fill:none;stroke:#7AC36A;stroke-width:0.625" />
<path d="M1141.9,571.67L1147.2,571.67L1147.2,577.01L1141.9,577.01Z" style="fill:none;stroke:#7AC36A;stroke-width:0.625" />
<path d="M1148.9,521.08L1154.2,521.08L1154.2,526.41L1148.9,526.41Z" style="fill:none;stroke:#7AC36A;stroke-width:0.625" />
<path d="M1155.8,467.65L1161.2,467.65L1161.2,472.98L1155.8,472.98Z" style="fill:none;stroke:#7AC36A;stroke-width:0.625" />
<path d="M1162.8,429.11L1168.1,429.11L1168.1,434.45L1162.8,434.45Z" style="fill:none;stroke:#7AC36A;stroke-width:0.625" />
<path d="M1169.7,402.11L1175.1,402.11L1175.1,407.44L1169.7,407.44Z" style="fill:none;stroke:#7AC36A;stroke-width:0.625" />
<path d="M1176.7,395.33L1182,395.33L1182,400.66L1176.7,400.66Z" style="fill:none;stroke:#7AC36A;stroke-width:0.625" />
<path d="M1183.7,373.71L1189,373.71L1189,379.05L1183.7,379.05Z" style="fill:none;stroke:#7AC36A;stroke-width:0.625" />
<path d="M1190.6,375.98L1196,375.98L1196,381.31L1190.6,381.31Z" style="fill:none;stroke:#7AC36A;stroke-width:0.625" />
<path d="M1197.6,375.94L1202.9,375.94L1202.9,381.28L1197.6,381.28Z" style="fill:none;stroke:#7AC36A;stroke-width:0.625" />
<path d="M1204.5,407.97L1209.9,407.97L1209.9,413.31L1204.5,413.31Z" style="fill:none;stroke:#7AC36A;stroke-width:0.625" />
<path d="M1211.5,435.01L1216.8,435.01L1216.8,440.34L1211.5,440.34Z" style="fill:none;stroke:#7AC36A;stroke-width:0.625" />
<path d="M1218.5,465.79L1223.8,465.79L1223.8,471.12L1218.5,471.12Z" style="fill:none;stroke:#7AC36A;stroke-width:0.625" />
<path d="M1225.4,497.98L1230.8,497.98L1230.8,503.31L1225.4,503.31Z" style="fill:none;stroke:#7AC36A;stroke-width:0.625" />
<path d="M1232.4,515.23L1237.7,515.23L1237.7,520.56L1232.4,520.56Z" style="fill:none;stroke:#7AC36A;stroke-width:0.625" />
<path d="M1239.3,540.64L1244.7,540.64L1244.7,545.97L1239.3,545.97Z" style="fill:none;stroke:#7AC36A;stroke-width:0.625" />
<path d="M1246.3,524.74L1251.6,524.74L1251.6,530.08L1246.3,530.08Z" style="fill:none;stroke:#7AC36A;stroke-width:0.625" />
<path d="M1253.3,537.25L1258.6,537.25L1258.6,542.59L1253.3,542.59Z" style="fill:none;stroke:#7AC36A;stroke-width:0.625" />
<path d="M1260.2,513.94L1265.6,513.94L1265.6,519.28L1260.2,519.28Z" style="fill:none;stroke:#7AC36A;stroke-width:0.625" />
<path d="M1267.2,479.64L1272.5,479.64L1272.5,484.98L1267.2,484.98Z" style="fill:none;stroke:#7AC36A;stroke-width:0.625" />
<path d="M1274.1,464.61L1279.5,464.61L1279.5,469.94L1274.1,469.94Z" style="fill:none;stroke:#7AC36A;stroke-width:0.625" />
<path d="M1281.1,434.68L1286.4,434.68L1286.4,440.01L1281.1,440.01Z" style="fill:none;stroke:#7AC36A;stroke-width:0.625" />
<path d="M1288.1,381.05L1293.4,381.05L1293.4,386.38L1288.1,386.38Z" style="fill:none;stroke:#7AC36A;stroke-width:0.625" />
<path d="M1295,329.22L1300.4,329.22L1300.4,334.56L1295,334.56Z" style="fill:none;stroke:#7AC36A;stroke-width:0.625" />
<path d="M1302,290.55L1307.3,290.55L1307.3,295.88L1302,295.88Z" style="fill:none;stroke:#7AC36A;stroke-width:0.625" />
<path d="M1308.9,233.05L1314.3,233.05L1314.3,238.38L1308.9,238.38Z" style="fill:none;stroke:#7AC36A;stroke-width:0.625" />
<path d="M1315.9,186.13L1321.2,186.13L1321.2,191.46L1315.9,191.46Z" style="fill:none;stroke:#7AC36A;stroke-width:0.625" />
<path d="M1322.9,163.39L1328.2,163.39L1328.2,168.73L1322.9,168.73Z" style="fill:none;stroke:#7AC36A;stroke-width:0.625" />
<path d="M1329.8,156.59L1335.1,156.59L1335.1,161.93L1329.8,161.93Z" style="fill:none;stroke:#7AC36A;stroke-width:0.625" />
<path d="M1336.8,146.77L1342.1,146.77L1342.1,152.11L1336.8,152.11Z" style="fill:none;stroke:#7AC36A;stroke-width:0.625" />
<path d="M1343.7,156.8L1349.1,156.8L1349.1,162.14L1343.7,162.14Z" style="fill:none;stroke:#7AC36A;stroke-width:0.625" />
<path d="M1350.7,157.96L1356,157.96L1356,163.29L1350.7,163.29Z" style="fill:none;stroke:#7AC36A;stroke-width:0.625" />
<path d="M1357.7,163.08L1363,163.08L1363,168.42L1357.7,168.42Z" style="fill:none;stroke:#7AC36A;stroke-width:0.625" />
<path d="M1364.6,177.63L1369.9,177.63L1369.9,182.96L1364.6,182.96Z" style="fill:none;stroke:#7AC36A;stroke-width:0.625" />
<path d="M1371.6,207.32L1376.9,207.32L1376.9,212.65L1371.6,212.65Z" style="fill:none;stroke:#7AC36A;stroke-width:0.625" />
<path d="M1378.5,215.48L1383.9,215.48L1383.9,220.82L1378.5,220.82Z" style="fill:none;stroke:#7AC36A;stroke-width:0.625" />
<path d="M1385.5,222.77L1390.8,222.77L1390.8,228.11L1385.5,228.11Z" style="fill:none;stroke:#7AC36A;stroke-width:0.625" />
<path d="M1392.5,230.37L1397.8,230.37L1397.8,235.7L1392.5,235.7Z" style="fill:none;stroke:#7AC36A;stroke-width:0.625" />
<path d="M1399.4,240.43L1404.7,240.43L1404.7,245.76L1399.4,245.76Z" style="fill:none;stroke:#7AC36A;stroke-width:0.625" />
<path d="M1406.4,251.36L1411.7,251.36L1411.7,256.69L1406.4,256.69Z" style="fill:none;stroke:#7AC36A;stroke-width:0.625" />
<path d="M1413.3,270.31L1418.7,270.31L1418.7,275.64L1413.3,275.64Z" style="fill:none;stroke:#7AC36A;stroke-width:0.625" />
<path d="M1420.3,294.23L1425.6,294.23L1425.6,299.57L1420.3,299.57Z" style="fill:none;stroke:#7AC36A;stroke-width:0.625" />
<path d="M1427.2,321.61L1432.6,321.61L1432.6,326.95L1427.2,326.95Z" style="fill:none;stroke:#7AC36A;stroke-width:0.625" />
<path d="M1434.2,345.5L1439.5,345.5L1439.5,350.83L1434.2,350.83Z" style="fill:none;stroke:#7AC36A;stroke-width:0.625" />
<path d="M1415,66.978L1440,66.978" style="fill:none;stroke:#F15A60;stroke-width:1.25" />
<path d="M1430.6,66.978A3.125,3.125 0 1 1 1424.4,66.978A3.125,3.125 0 1 1 1430.6,66.978Z" style="fill:none;stroke:#F15A60;stroke-width:0.625" />
<text x="1388.8" y="-61.188" transform="scale(1, -1)"
	style="font-family:Times;font-weight:normal;font-style:normal;font-size:12pt">raw</text>
<path d="M1415,53.117L1440,53.117" style="fill:none;stroke:#7AC36A;stroke-width:1.25;stroke-dasharray:7.5,2.5" />
<path d="M1424.8,50.45L1430.2,50.45L1430.2,55.785L1424.8,55.785Z" style="fill:none;stroke:#7AC36A;stroke-width:0.625" />
<text x="1367.1" y="-47.328" transform="scale(1, -1)"
	style="font-family:Times;font-weight:normal;font-style:normal;font-size:12pt">smooth</text>
</g>
</svg>
