<?xml version="1.0"?>
<!-- Generated by SVGo and Plotinum VG -->
<svg width="16in" height="9in"
	xmlns="http://www.w3.org/2000/svg"
	xmlns:xlink="http://www.w3.org/1999/xlink">
<g transform="scale(1, -1) translate(0, -810)">
<path d="M0,0L1440,0L1440,810L0,810Z" style="fill:#FFFFFF" />
<text x="738.98" y="-5.355" transform="scale(1, -1)"
	style="font-family:Times;font-weight:normal;font-style:normal;font-size:12pt">X</text>
<text x="48.8" y="-19.025" transform="scale(1, -1)"
	style="font-family:Times;font-weight:normal;font-style:normal;font-size:10pt">0</text>
<text x="463.25" y="-19.025" transform="scale(1, -1)"
	style="font-family:Times;font-weight:normal;font-style:normal;font-size:10pt">60</text>
<text x="877.7" y="-19.025" transform="scale(1, -1)"
	style="font-family:Times;font-weight:normal;font-style:normal;font-size:10pt">120</text>
<text x="1295.3" y="-19.025" transform="scale(1, -1)"
	style="font-family:Times;font-weight:normal;font-style:normal;font-size:10pt">180</text>
<path d="M51.925,29.625L51.925,39.625" style="fill:none;stroke:#000000;stroke-width:0.625" />
<path d="M469.5,29.625L469.5,39.625" style="fill:none;stroke:#000000;stroke-width:0.625" />
<path d="M887.07,29.625L887.07,39.625" style="fill:none;stroke:#000000;stroke-width:0.625" />
<path d="M1304.6,29.625L1304.6,39.625" style="fill:none;stroke:#000000;stroke-width:0.625" />
<path d="M191.12,34.625L191.12,39.625" style="fill:none;stroke:#000000;stroke-width:0.625" />
<path d="M330.31,34.625L330.31,39.625" style="fill:none;stroke:#000000;stroke-width:0.625" />
<path d="M608.69,34.625L608.69,39.625" style="fill:none;stroke:#000000;stroke-width:0.625" />
<path d="M747.88,34.625L747.88,39.625" style="fill:none;stroke:#000000;stroke-width:0.625" />
<path d="M1026.3,34.625L1026.3,39.625" style="fill:none;stroke:#000000;stroke-width:0.625" />
<path d="M1165.5,34.625L1165.5,39.625" style="fill:none;stroke:#000000;stroke-width:0.625" />
<path d="M51.925,39.625L1436.9,39.625" style="fill:none;stroke:#000000;stroke-width:0.625" />
<g transform="rotate(90)">
<text x="422.68" y="12.72" transform="scale(1, -1)"
	style="font-family:Times;font-weight:normal;font-style:normal;font-size:12pt">Y</text>
</g>
<text x="18.075" y="-186.07" transform="scale(1, -1)"
	style="font-family:Times;font-weight:normal;font-style:normal;font-size:10pt">-1</text>
<text x="22.237" y="-344.19" transform="scale(1, -1)"
	style="font-family:Times;font-weight:normal;font-style:normal;font-size:10pt">0</text>
<text x="22.237" y="-502.31" transform="scale(1, -1)"
	style="font-family:Times;font-weight:normal;font-style:normal;font-size:10pt">1</text>
<text x="22.237" y="-660.44" transform="scale(1, -1)"
	style="font-family:Times;font-weight:normal;font-style:normal;font-size:10pt">2</text>
<path d="M31.613,190.89L41.612,190.89" style="fill:none;stroke:#000000;stroke-width:0.625" />
<path d="M31.613,349.02L41.612,349.02" style="fill:none;stroke:#000000;stroke-width:0.625" />
<path d="M31.613,507.14L41.612,507.14" style="fill:none;stroke:#000000;stroke-width:0.625" />
<path d="M31.613,665.26L41.612,665.26" style="fill:none;stroke:#000000;stroke-width:0.625" />
<path d="M36.612,111.83L41.612,111.83" style="fill:none;stroke:#000000;stroke-width:0.625" />
<path d="M36.612,269.95L41.612,269.95" style="fill:none;stroke:#000000;stroke-width:0.625" />
<path d="M36.612,428.08L41.612,428.08" style="fill:none;stroke:#000000;stroke-width:0.625" />
<path d="M36.612,586.2L41.612,586.2" style="fill:none;stroke:#000000;stroke-width:0.625" />
<path d="M36.612,744.33L41.612,744.33" style="fill:none;stroke:#000000;stroke-width:0.625" />
<path d="M41.612,49.313L41.612,806.88" style="fill:none;stroke:#000000;stroke-width:0.625" />
<path d="M51.925,395.94L58.885,527.6L65.844,574.92L72.804,767.48L79.763,721.29L86.723,668.93L93.682,721.25L100.64,570.87L107.6,423.2L114.56,357.11L121.52,303.56L128.48,363.78L135.44,289.01L142.4,285.42L149.36,339.97L156.32,480.37L163.28,464.72L170.24,419.56L177.2,420.73L184.16,320.6L191.12,328.84L198.08,301.41L205.04,189.29L211.99,204.58L218.95,272.11L225.91,378.48L232.87,461.85L239.83,436.86L246.79,541.13L253.75,707.94L260.71,777.05L267.67,682.13L274.63,684.43L281.59,543.65L288.55,549.15L295.51,427.25L302.47,255.64L309.43,253.96L316.39,251.26L323.35,207.37L330.31,152.26L337.27,349.89L344.23,410.59L351.19,387.52L358.15,365.17L365.1,465.86L372.06,484.18L379.02,450.69L385.98,370.53L392.94,421.39L399.9,328.54L406.86,317.34L413.82,468.18L420.78,398.08L427.74,594.24L434.7,584.21L441.66,731.38L448.62,694.2L455.58,734.17L462.54,553.89L469.5,501.97L476.46,396.58L483.42,298.93L490.38,295.68L497.34,224.33L504.3,52.472L511.26,71.195L518.21,195.12L525.17,225.02L532.13,395.75L539.09,483.71L546.05,544.8L553.01,555.69L559.97,588.83L566.93,588.66L573.89,583.67L580.85,471.29L587.81,440.21L594.77,468.3L601.73,435.48L608.69,501.58L615.65,539.78L622.61,570.26L629.57,569.68L636.53,641.33L643.49,487.4L650.45,457.53L657.41,392.04L664.37,311.14L671.32,289.77L678.28,243.34L685.24,144.2L692.2,200.47L699.16,170.01L706.12,222.53L713.08,316.83L720.04,512.01L727,559.84L733.96,692.11L740.92,676.86L747.88,645.82L754.84,678.33L761.8,648.71L768.76,601.26L775.72,493.97L782.68,398.38L789.64,415.17L796.6,338.46L803.56,319.79L810.52,343.31L817.48,452.3L824.43,392.64L831.39,437.1L838.35,401L845.31,341.78L852.27,363.14L859.23,327.51L866.19,157.57L873.15,149.21L880.11,274.49L887.07,311.52L894.03,392.94L900.99,459.04L907.95,493.48L914.91,688.01L921.87,689.21L928.83,785.7L935.79,806.88L942.75,659.45L949.71,532.48L956.67,485.48L963.63,444.85L970.59,321.58L977.54,213.56L984.5,253.13L991.46,285.52L998.42,275.83L1005.4,335.65L1012.3,356.84L1019.3,343.82L1026.3,390.06L1033.2,406.14L1040.2,458.45L1047.1,332.35L1054.1,386.99L1061.1,342.14L1068,325.77L1075,311.78L1081.9,490.38L1088.9,496.4L1095.9,600.9L1102.8,607.21L1109.8,656.97L1116.7,746.35L1123.7,701.47L1130.7,663.67L1137.6,512.15L1144.6,339.5L1151.5,340.22L1158.5,179.19L1165.5,99.515L1172.4,158.77L1179.4,106.48L1186.3,211.56L1193.3,256.88L1200.3,314.83L1207.2,429.56L1214.2,512.29L1221.1,587.13L1228.1,500.2L1235,540.31L1242,461.83L1249,531.53L1255.9,474.8L1262.9,481.63L1269.8,514.53L1276.8,506.3L1283.8,602.87L1290.7,503.54L1297.7,672.57L1304.6,566.39L1311.6,523.92L1318.6,559.55L1325.5,443.3L1332.5,270.05L1339.4,188.32L1346.4,171.4L1353.4,49.313L1360.3,85.253L1367.3,196.65L1374.2,319.41L1381.2,384.79L1388.2,527.17L1395.1,543.45L1402.1,583.54L1409,606.8L1416,612.2L1423,559.72L1429.9,589.79L1436.9,490.82" style="fill:none;stroke:#F15A60;stroke-width:1.25" />
<path d="M55.05,395.94A3.125,3.125 0 1 1 48.8,395.94A3.125,3.125 0 1 1 55.05,395.94Z" style="fill:none;stroke:#F15A60;stroke-width:0.625" />
<path d="M62.01,527.6A3.125,3.125 0 1 1 55.76,527.6A3.125,3.125 0 1 1 62.01,527.6Z" style="fill:none;stroke:#F15A60;stroke-width:0.625" />
<path d="M68.969,574.92A3.125,3.125 0 1 1 62.719,574.92A3.125,3.125 0 1 1 68.969,574.92Z" style="fill:none;stroke:#F15A60;stroke-width:0.625" />
<path d="M75.929,767.48A3.125,3.125 0 1 1 69.679,767.48A3.125,3.125 0 1 1 75.929,767.48Z" style="fill:none;stroke:#F15A60;stroke-width:0.625" />
<path d="M82.888,721.29L82.888,721.29A3.125,3.125 0 1 1 76.638,721.29A3.125,3.125 0 1 1 82.888,721.29Z" style="fill:none;stroke:#F15A60;stroke-width:0.625" />
<path d="M89.848,668.93L89.848,668.93A3.125,3.125 0 1 1 83.598,668.93A3.125,3.125 0 1 1 89.848,668.93Z" style="fill:none;stroke:#F15A60;stroke-width:0.625" />
<path d="M96.807,721.25L96.807,721.25A3.125,3.125 0 1 1 90.557,721.25A3.125,3.125 0 1 1 96.807,721.25Z" style="fill:none;stroke:#F15A60;stroke-width:0.625" />
<path d="M103.77,570.87L103.77,570.87A3.125,3.125 0 1 1 97.517,570.87A3.125,3.125 0 1 1 103.77,570.87Z" style="fill:none;stroke:#F15A60;stroke-width:0.625" />
<path d="M110.73,423.2L110.73,423.2A3.125,3.125 0 1 1 104.48,423.2A3.125,3.125 0 1 1 110.73,423.2Z" style="fill:none;stroke:#F15A60;stroke-width:0.625" />
<path d="M117.69,357.11L117.69,357.11A3.125,3.125 0 1 1 111.44,357.11A3.125,3.125 0 1 1 117.69,357.11Z" style="fill:none;stroke:#F15A60;stroke-width:0.625" />
<path d="M124.65,303.56A3.125,3.125 0 1 1 118.4,303.56A3.125,3.125 0 1 1 124.65,303.56Z" style="fill:none;stroke:#F15A60;stroke-width:0.625" />
<path d="M131.61,363.78A3.125,3.125 0 1 1 125.36,363.78A3.125,3.125 0 1 1 131.61,363.78Z" style="fill:none;stroke:#F15A60;stroke-width:0.625" />
<path d="M138.56,289.01A3.125,3.125 0 1 1 132.31,289.01A3.125,3.125 0 1 1 138.56,289.01Z" style="fill:none;stroke:#F15A60;stroke-width:0.625" />
<path d="M145.52,285.42A3.125,3.125 0 1 1 139.27,285.42A3.125,3.125 0 1 1 145.52,285.42Z" style="fill:none;stroke:#F15A60;stroke-width:0.625" />
<path d="M152.48,339.97A3.125,3.125 0 1 1 146.23,339.97A3.125,3.125 0 1 1 152.48,339.97Z" style="fill:none;stroke:#F15A60;stroke-width:0.625" />
<path d="M159.44,480.37A3.125,3.125 0 1 1 153.19,480.37A3.125,3.125 0 1 1 159.44,480.37Z" style="fill:none;stroke:#F15A60;stroke-width:0.625" />
<path d="M166.4,464.72A3.125,3.125 0 1 1 160.15,464.72A3.125,3.125 0 1 1 166.4,464.72Z" style="fill:none;stroke:#F15A60;stroke-width:0.625" />
<path d="M173.36,419.56A3.125,3.125 0 1 1 167.11,419.56A3.125,3.125 0 1 1 173.36,419.56Z" style="fill:none;stroke:#F15A60;stroke-width:0.625" />
<path d="M180.32,420.73L180.32,420.73A3.125,3.125 0 1 1 174.07,420.73A3.125,3.125 0 1 1 180.32,420.73Z" style="fill:none;stroke:#F15A60;stroke-width:0.625" />
<path d="M187.28,320.6A3.125,3.125 0 1 1 181.03,320.6A3.125,3.125 0 1 1 187.28,320.6Z" style="fill:none;stroke:#F15A60;stroke-width:0.625" />
<path d="M194.24,328.84L194.24,328.84A3.125,3.125 0 1 1 187.99,328.84A3.125,3.125 0 1 1 194.24,328.84Z" style="fill:none;stroke:#F15A60;stroke-width:0.625" />
<path d="M201.2,301.41A3.125,3.125 0 1 1 194.95,301.41A3.125,3.125 0 1 1 201.2,301.41Z" style="fill:none;stroke:#F15A60;stroke-width:0.625" />
<path d="M208.16,189.29A3.125,3.125 0 1 1 201.91,189.29A3.125,3.125 0 1 1 208.16,189.29Z" style="fill:none;stroke:#F15A60;stroke-width:0.625" />
<path d="M215.12,204.58A3.125,3.125 0 1 1 208.87,204.58A3.125,3.125 0 1 1 215.12,204.58Z" style="fill:none;stroke:#F15A60;stroke-width:0.625" />
<path d="M222.08,272.11L222.08,272.11A3.125,3.125 0 1 1 215.83,272.11A3.125,3.125 0 1 1 222.08,272.11Z" style="fill:none;stroke:#F15A60;stroke-width:0.625" />
<path d="M229.04,378.48A3.125,3.125 0 1 1 222.79,378.48A3.125,3.125 0 1 1 229.04,378.48Z" style="fill:none;stroke:#F15A60;stroke-width:0.625" />
<path d="M236,461.85A3.125,3.125 0 1 1 229.75,461.85A3.125,3.125 0 1 1 236,461.85Z" style="fill:none;stroke:#F15A60;stroke-width:0.625" />
<path d="M242.96,436.86A3.125,3.125 0 1 1 236.71,436.86A3.125,3.125 0 1 1 242.96,436.86Z" style="fill:none;stroke:#F15A60;stroke-width:0.625" />
<path d="M249.92,541.13L249.92,541.13A3.125,3.125 0 1 1 243.67,541.13A3.125,3.125 0 1 1 249.92,541.13Z" style="fill:none;stroke:#F15A60;stroke-width:0.625" />
<path d="M256.88,707.94L256.88,707.94A3.125,3.125 0 1 1 250.63,707.94A3.125,3.125 0 1 1 256.88,707.94Z" style="fill:none;stroke:#F15A60;stroke-width:0.625" />
<path d="M263.84,777.05A3.125,3.125 0 1 1 257.59,777.05A3.125,3.125 0 1 1 263.84,777.05Z" style="fill:none;stroke:#F15A60;stroke-width:0.625" />
<path d="M270.8,682.13A3.125,3.125 0 1 1 264.55,682.13A3.125,3.125 0 1 1 270.8,682.13Z" style="fill:none;stroke:#F15A60;stroke-width:0.625" />
<path d="M277.76,684.43L277.76,684.43A3.125,3.125 0 1 1 271.51,684.43A3.125,3.125 0 1 1 277.76,684.43Z" style="fill:none;stroke:#F15A60;stroke-width:0.625" />
<path d="M284.72,543.65A3.125,3.125 0 1 1 278.47,543.65A3.125,3.125 0 1 1 284.72,543.65Z" style="fill:none;stroke:#F15A60;stroke-width:0.625" />
<path d="M291.67,549.15L291.67,549.15A3.125,3.125 0 1 1 285.42,549.15A3.125,3.125 0 1 1 291.67,549.15Z" style="fill:none;stroke:#F15A60;stroke-width:0.625" />
<path d="M298.63,427.25A3.125,3.125 0 1 1 292.38,427.25A3.125,3.125 0 1 1 298.63,427.25Z" style="fill:none;stroke:#F15A60;stroke-width:0.625" />
<path d="M305.59,255.64A3.125,3.125 0 1 1 299.34,255.64A3.125,3.125 0 1 1 305.59,255.64Z" style="fill:none;stroke:#F15A60;stroke-width:0.625" />
<path d="M312.55,253.96A3.125,3.125 0 1 1 306.3,253.96A3.125,3.125 0 1 1 312.55,253.96Z" style="fill:none;stroke:#F15A60;stroke-width:0.625" />
<path d="M319.51,251.26A3.125,3.125 0 1 1 313.26,251.26A3.125,3.125 0 1 1 319.51,251.26Z" style="fill:none;stroke:#F15A60;stroke-width:0.625" />
<path d="M326.47,207.37A3.125,3.125 0 1 1 320.22,207.37A3.125,3.125 0 1 1 326.47,207.37Z" style="fill:none;stroke:#F15A60;stroke-width:0.625" />
<path d="M333.43,152.26L333.43,152.26A3.125,3.125 0 1 1 327.18,152.26A3.125,3.125 0 1 1 333.43,152.26Z" style="fill:none;stroke:#F15A60;stroke-width:0.625" />
<path d="M340.39,349.89A3.125,3.125 0 1 1 334.14,349.89A3.125,3.125 0 1 1 340.39,349.89Z" style="fill:none;stroke:#F15A60;stroke-width:0.625" />
<path d="M347.35,410.59L347.35,410.59A3.125,3.125 0 1 1 341.1,410.59A3.125,3.125 0 1 1 347.35,410.59Z" style="fill:none;stroke:#F15A60;stroke-width:0.625" />
<path d="M354.31,387.52A3.125,3.125 0 1 1 348.06,387.52A3.125,3.125 0 1 1 354.31,387.52Z" style="fill:none;stroke:#F15A60;stroke-width:0.625" />
<path d="M361.27,365.17L361.27,365.17A3.125,3.125 0 1 1 355.02,365.17A3.125,3.125 0 1 1 361.27,365.17Z" style="fill:none;stroke:#F15A60;stroke-width:0.625" />
<path d="M368.23,465.86A3.125,3.125 0 1 1 361.98,465.86A3.125,3.125 0 1 1 368.23,465.86Z" style="fill:none;stroke:#F15A60;stroke-width:0.625" />
<path d="M375.19,484.18A3.125,3.125 0 1 1 368.94,484.18A3.125,3.125 0 1 1 375.19,484.18Z" style="fill:none;stroke:#F15A60;stroke-width:0.625" />
<path d="M382.15,450.69A3.125,3.125 0 1 1 375.9,450.69A3.125,3.125 0 1 1 382.15,450.69Z" style="fill:none;stroke:#F15A60;stroke-width:0.625" />
<path d="M389.11,370.53A3.125,3.125 0 1 1 382.86,370.53A3.125,3.125 0 1 1 389.11,370.53Z" style="fill:none;stroke:#F15A60;stroke-width:0.625" />
<path d="M396.07,421.39A3.125,3.125 0 1 1 389.82,421.39A3.125,3.125 0 1 1 396.07,421.39Z" style="fill:none;stroke:#F15A60;stroke-width:0.625" />
<path d="M403.03,328.54L403.03,328.54A3.125,3.125 0 1 1 396.78,328.54A3.125,3.125 0 1 1 403.03,328.54Z" style="fill:none;stroke:#F15A60;stroke-width:0.625" />
<path d="M409.99,317.34A3.125,3.125 0 1 1 403.74,317.34A3.125,3.125 0 1 1 409.99,317.34Z" style="fill:none;stroke:#F15A60;stroke-width:0.625" />
<path d="M416.95,468.18A3.125,3.125 0 1 1 410.7,468.18A3.125,3.125 0 1 1 416.95,468.18Z" style="fill:none;stroke:#F15A60;stroke-width:0.625" />
<path d="M423.91,398.08L423.91,398.08A3.125,3.125 0 1 1 417.66,398.08A3.125,3.125 0 1 1 423.91,398.08Z" style="fill:none;stroke:#F15A60;stroke-width:0.625" />
<path d="M430.87,594.24A3.125,3.125 0 1 1 424.62,594.24A3.125,3.125 0 1 1 430.87,594.24Z" style="fill:none;stroke:#F15A60;stroke-width:0.625" />
<path d="M437.83,584.21A3.125,3.125 0 1 1 431.58,584.21A3.125,3.125 0 1 1 437.83,584.21Z" style="fill:none;stroke:#F15A60;stroke-width:0.625" />
<path d="M444.78,731.38A3.125,3.125 0 1 1 438.53,731.38A3.125,3.125 0 1 1 444.78,731.38Z" style="fill:none;stroke:#F15A60;stroke-width:0.625" />
<path d="M451.74,694.2L451.74,694.2A3.125,3.125 0 1 1 445.49,694.2A3.125,3.125 0 1 1 451.74,694.2Z" style="fill:none;stroke:#F15A60;stroke-width:0.625" />
<path d="M458.7,734.17L458.7,734.17A3.125,3.125 0 1 1 452.45,734.17A3.125,3.125 0 1 1 458.7,734.17Z" style="fill:none;stroke:#F15A60;stroke-width:0.625" />
<path d="M465.66,553.89L465.66,553.89A3.125,3.125 0 1 1 459.41,553.89A3.125,3.125 0 1 1 465.66,553.89Z" style="fill:none;stroke:#F15A60;stroke-width:0.625" />
<path d="M472.62,501.97A3.125,3.125 0 1 1 466.37,501.97A3.125,3.125 0 1 1 472.62,501.97Z" style="fill:none;stroke:#F15A60;stroke-width:0.625" />
<path d="M479.58,396.58A3.125,3.125 0 1 1 473.33,396.58A3.125,3.125 0 1 1 479.58,396.58Z" style="fill:none;stroke:#F15A60;stroke-width:0.625" />
<path d="M486.54,298.93A3.125,3.125 0 1 1 480.29,298.93A3.125,3.125 0 1 1 486.54,298.93Z" style="fill:none;stroke:#F15A60;stroke-width:0.625" />
<path d="M493.5,295.68A3.125,3.125 0 1 1 487.25,295.68A3.125,3.125 0 1 1 493.5,295.68Z" style="fill:none;stroke:#F15A60;stroke-width:0.625" />
<path d="M500.46,224.33A3.125,3.125 0 1 1 494.21,224.33A3.125,3.125 0 1 1 500.46,224.33Z" style="fill:none;stroke:#F15A60;stroke-width:0.625" />
<path d="M507.42,52.472A3.125,3.125 0 1 1 501.17,52.472A3.125,3.125 0 1 1 507.42,52.472Z" style="fill:none;stroke:#F15A60;stroke-width:0.625" />
<path d="M514.38,71.195L514.38,71.195A3.125,3.125 0 1 1 508.13,71.195A3.125,3.125 0 1 1 514.38,71.195Z" style="fill:none;stroke:#F15A60;stroke-width:0.625" />
<path d="M521.34,195.12A3.125,3.125 0 1 1 515.09,195.12A3.125,3.125 0 1 1 521.34,195.12Z" style="fill:none;stroke:#F15A60;stroke-width:0.625" />
<path d="M528.3,225.02A3.125,3.125 0 1 1 522.05,225.02A3.125,3.125 0 1 1 528.3,225.02Z" style="fill:none;stroke:#F15A60;stroke-width:0.625" />
<path d="M535.26,395.75L535.26,395.75A3.125,3.125 0 1 1 529.01,395.75A3.125,3.125 0 1 1 535.26,395.75Z" style="fill:none;stroke:#F15A60;stroke-width:0.625" />
<path d="M542.22,483.71A3.125,3.125 0 1 1 535.97,483.71A3.125,3.125 0 1 1 542.22,483.71Z" style="fill:none;stroke:#F15A60;stroke-width:0.625" />
<path d="M549.18,544.8A3.125,3.125 0 1 1 542.93,544.8A3.125,3.125 0 1 1 549.18,544.8Z" style="fill:none;stroke:#F15A60;stroke-width:0.625" />
<path d="M556.14,555.69A3.125,3.125 0 1 1 549.89,555.69A3.125,3.125 0 1 1 556.14,555.69Z" style="fill:none;stroke:#F15A60;stroke-width:0.625" />
<path d="M563.1,588.83A3.125,3.125 0 1 1 556.85,588.83A3.125,3.125 0 1 1 563.1,588.83Z" style="fill:none;stroke:#F15A60;stroke-width:0.625" />
<path d="M570.06,588.66L570.06,588.66A3.125,3.125 0 1 1 563.81,588.66A3.125,3.125 0 1 1 570.06,588.66Z" style="fill:none;stroke:#F15A60;stroke-width:0.625" />
<path d="M577.02,583.67A3.125,3.125 0 1 1 570.77,583.67A3.125,3.125 0 1 1 577.02,583.67Z" style="fill:none;stroke:#F15A60;stroke-width:0.625" />
<path d="M583.98,471.29A3.125,3.125 0 1 1 577.73,471.29A3.125,3.125 0 1 1 583.98,471.29Z" style="fill:none;stroke:#F15A60;stroke-width:0.625" />
<path d="M590.94,440.21A3.125,3.125 0 1 1 584.69,440.21A3.125,3.125 0 1 1 590.94,440.21Z" style="fill:none;stroke:#F15A60;stroke-width:0.625" />
<path d="M597.89,468.3A3.125,3.125 0 1 1 591.64,468.3A3.125,3.125 0 1 1 597.89,468.3Z" style="fill:none;stroke:#F15A60;stroke-width:0.625" />
<path d="M604.85,435.48A3.125,3.125 0 1 1 598.6,435.48A3.125,3.125 0 1 1 604.85,435.48Z" style="fill:none;stroke:#F15A60;stroke-width:0.625" />
<path d="M611.81,501.58A3.125,3.125 0 1 1 605.56,501.58A3.125,3.125 0 1 1 611.81,501.58Z" style="fill:none;stroke:#F15A60;stroke-width:0.625" />
<path d="M618.77,539.78A3.125,3.125 0 1 1 612.52,539.78A3.125,3.125 0 1 1 618.77,539.78Z" style="fill:none;stroke:#F15A60;stroke-width:0.625" />
<path d="M625.73,570.26A3.125,3.125 0 1 1 619.48,570.26A3.125,3.125 0 1 1 625.73,570.26Z" style="fill:none;stroke:#F15A60;stroke-width:0.625" />
<path d="M632.69,569.68A3.125,3.125 0 1 1 626.44,569.68A3.125,3.125 0 1 1 632.69,569.68Z" style="fill:none;stroke:#F15A60;stroke-width:0.625" />
<path d="M639.65,641.33A3.125,3.125 0 1 1 633.4,641.33A3.125,3.125 0 1 1 639.65,641.33Z" style="fill:none;stroke:#F15A60;stroke-width:0.625" />
<path d="M646.61,487.4A3.125,3.125 0 1 1 640.36,487.4A3.125,3.125 0 1 1 646.61,487.4Z" style="fill:none;stroke:#F15A60;stroke-width:0.625" />
<path d="M653.57,457.53A3.125,3.125 0 1 1 647.32,457.53A3.125,3.125 0 1 1 653.57,457.53Z" style="fill:none;stroke:#F15A60;stroke-width:0.625" />
<path d="M660.53,392.04A3.125,3.125 0 1 1 654.28,392.04A3.125,3.125 0 1 1 660.53,392.04Z" style="fill:none;stroke:#F15A60;stroke-width:0.625" />
<path d="M667.49,311.14A3.125,3.125 0 1 1 661.24,311.14A3.125,3.125 0 1 1 667.49,311.14Z" style="fill:none;stroke:#F15A60;stroke-width:0.625" />
<path d="M674.45,289.77A3.125,3.125 0 1 1 668.2,289.77A3.125,3.125 0 1 1 674.45,289.77Z" style="fill:none;stroke:#F15A60;stroke-width:0.625" />
<path d="M681.41,243.34L681.41,243.34A3.125,3.125 0 1 1 675.16,243.34A3.125,3.125 0 1 1 681.41,243.34Z" style="fill:none;stroke:#F15A60;stroke-width:0.625" />
<path d="M688.37,144.2A3.125,3.125 0 1 1 682.12,144.2A3.125,3.125 0 1 1 688.37,144.2Z" style="fill:none;stroke:#F15A60;stroke-width:0.625" />
<path d="M695.33,200.47A3.125,3.125 0 1 1 689.08,200.47A3.125,3.125 0 1 1 695.33,200.47Z" style="fill:none;stroke:#F15A60;stroke-width:0.625" />
<path d="M702.29,170.01A3.125,3.125 0 1 1 696.04,170.01A3.125,3.125 0 1 1 702.29,170.01Z" style="fill:none;stroke:#F15A60;stroke-width:0.625" />
<path d="M709.25,222.53L709.25,222.53A3.125,3.125 0 1 1 703,222.53A3.125,3.125 0 1 1 709.25,222.53Z" style="fill:none;stroke:#F15A60;stroke-width:0.625" />
<path d="M716.21,316.83L716.21,316.83A3.125,3.125 0 1 1 709.96,316.83A3.125,3.125 0 1 1 716.21,316.83Z" style="fill:none;stroke:#F15A60;stroke-width:0.625" />
<path d="M723.17,512.01L723.17,512.01A3.125,3.125 0 1 1 716.92,512.01A3.125,3.125 0 1 1 723.17,512.01Z" style="fill:none;stroke:#F15A60;stroke-width:0.625" />
<path d="M730.13,559.84L730.13,559.84A3.125,3.125 0 1 1 723.88,559.84A3.125,3.125 0 1 1 730.13,559.84Z" style="fill:none;stroke:#F15A60;stroke-width:0.625" />
<path d="M737.09,692.11L737.09,692.11A3.125,3.125 0 1 1 730.84,692.11A3.125,3.125 0 1 1 737.09,692.11Z" style="fill:none;stroke:#F15A60;stroke-width:0.625" />
<path d="M744.05,676.86L744.05,676.86A3.125,3.125 0 1 1 737.8,676.86A3.125,3.125 0 1 1 744.05,676.86Z" style="fill:none;stroke:#F15A60;stroke-width:0.625" />
<path d="M751,645.82L751,645.82A3.125,3.125 0 1 1 744.75,645.82A3.125,3.125 0 1 1 751,645.82Z" style="fill:none;stroke:#F15A60;stroke-width:0.625" />
<path d="M757.96,678.33L757.96,678.33A3.125,3.125 0 1 1 751.71,678.33A3.125,3.125 0 1 1 757.96,678.33Z" style="fill:none;stroke:#F15A60;stroke-width:0.625" />
<path d="M764.92,648.71L764.92,648.71A3.125,3.125 0 1 1 758.67,648.71A3.125,3.125 0 1 1 764.92,648.71Z" style="fill:none;stroke:#F15A60;stroke-width:0.625" />
<path d="M771.88,601.26L771.88,601.26A3.125,3.125 0 1 1 765.63,601.26A3.125,3.125 0 1 1 771.88,601.26Z" style="fill:none;stroke:#F15A60;stroke-width:0.625" />
<path d="M778.84,493.97L778.84,493.97A3.125,3.125 0 1 1 772.59,493.97A3.125,3.125 0 1 1 778.84,493.97Z" style="fill:none;stroke:#F15A60;stroke-width:0.625" />
<path d="M785.8,398.38L785.8,398.38A3.125,3.125 0 1 1 779.55,398.38A3.125,3.125 0 1 1 785.8,398.38Z" style="fill:none;stroke:#F15A60;stroke-width:0.625" />
<path d="M792.76,415.17L792.76,415.17A3.125,3.125 0 1 1 786.51,415.17A3.125,3.125 0 1 1 792.76,415.17Z" style="fill:none;stroke:#F15A60;stroke-width:0.625" />
<path d="M799.72,338.46L799.72,338.46A3.125,3.125 0 1 1 793.47,338.46A3.125,3.125 0 1 1 799.72,338.46Z" style="fill:none;stroke:#F15A60;stroke-width:0.625" />
<path d="M806.68,319.79A3.125,3.125 0 1 1 800.43,319.79A3.125,3.125 0 1 1 806.68,319.79Z" style="fill:none;stroke:#F15A60;stroke-width:0.625" />
<path d="M813.64,343.31A3.125,3.125 0 1 1 807.39,343.31A3.125,3.125 0 1 1 813.64,343.31Z" style="fill:none;stroke:#F15A60;stroke-width:0.625" />
<path d="M820.6,452.3L820.6,452.3A3.125,3.125 0 1 1 814.35,452.3A3.125,3.125 0 1 1 820.6,452.3Z" style="fill:none;stroke:#F15A60;stroke-width:0.625" />
<path d="M827.56,392.64L827.56,392.64A3.125,3.125 0 1 1 821.31,392.64A3.125,3.125 0 1 1 827.56,392.64Z" style="fill:none;stroke:#F15A60;stroke-width:0.625" />
<path d="M834.52,437.1L834.52,437.1A3.125,3.125 0 1 1 828.27,437.1A3.125,3.125 0 1 1 834.52,437.1Z" style="fill:none;stroke:#F15A60;stroke-width:0.625" />
<path d="M841.48,401L841.48,401A3.125,3.125 0 1 1 835.23,401A3.125,3.125 0 1 1 841.48,401Z" style="fill:none;stroke:#F15A60;stroke-width:0.625" />
<path d="M848.44,341.78L848.44,341.78A3.125,3.125 0 1 1 842.19,341.78A3.125,3.125 0 1 1 848.44,341.78Z" style="fill:none;stroke:#F15A60;stroke-width:0.625" />
<path d="M855.4,363.14L855.4,363.14A3.125,3.125 0 1 1 849.15,363.14A3.125,3.125 0 1 1 855.4,363.14Z" style="fill:none;stroke:#F15A60;stroke-width:0.625" />
<path d="M862.36,327.51L862.36,327.51A3.125,3.125 0 1 1 856.11,327.51A3.125,3.125 0 1 1 862.36,327.51Z" style="fill:none;stroke:#F15A60;stroke-width:0.625" />
<path d="M869.32,157.57A3.125,3.125 0 1 1 863.07,157.57A3.125,3.125 0 1 1 869.32,157.57Z" style="fill:none;stroke:#F15A60;stroke-width:0.625" />
<path d="M876.28,149.21A3.125,3.125 0 1 1 870.03,149.21A3.125,3.125 0 1 1 876.28,149.21Z" style="fill:none;stroke:#F15A60;stroke-width:0.625" />
<path d="M883.24,274.49L883.24,274.49A3.125,3.125 0 1 1 876.99,274.49A3.125,3.125 0 1 1 883.24,274.49Z" style="fill:none;stroke:#F15A60;stroke-width:0.625" />
<path d="M890.2,311.52L890.2,311.52A3.125,3.125 0 1 1 883.95,311.52A3.125,3.125 0 1 1 890.2,311.52Z" style="fill:none;stroke:#F15A60;stroke-width:0.625" />
<path d="M897.16,392.94L897.16,392.94A3.125,3.125 0 1 1 890.91,392.94A3.125,3.125 0 1 1 897.16,392.94Z" style="fill:none;stroke:#F15A60;stroke-width:0.625" />
<path d="M904.11,459.04L904.11,459.04A3.125,3.125 0 1 1 897.86,459.04A3.125,3.125 0 1 1 904.11,459.04Z" style="fill:none;stroke:#F15A60;stroke-width:0.625" />
<path d="M911.07,493.48A3.125,3.125 0 1 1 904.82,493.48A3.125,3.125 0 1 1 911.07,493.48Z" style="fill:none;stroke:#F15A60;stroke-width:0.625" />
<path d="M918.03,688.01A3.125,3.125 0 1 1 911.78,688.01A3.125,3.125 0 1 1 918.03,688.01Z" style="fill:none;stroke:#F15A60;stroke-width:0.625" />
<path d="M924.99,689.21L924.99,689.21A3.125,3.125 0 1 1 918.74,689.21A3.125,3.125 0 1 1 924.99,689.21Z" style="fill:none;stroke:#F15A60;stroke-width:0.625" />
<path d="M931.95,785.7A3.125,3.125 0 1 1 925.7,785.7A3.125,3.125 0 1 1 931.95,785.7Z" style="fill:none;stroke:#F15A60;stroke-width:0.625" />
<path d="M938.91,806.88L938.91,806.88A3.125,3.125 0 1 1 932.66,806.88A3.125,3.125 0 1 1 938.91,806.88Z" style="fill:none;stroke:#F15A60;stroke-width:0.625" />
<path d="M945.87,659.45L945.87,659.45A3.125,3.125 0 1 1 939.62,659.45A3.125,3.125 0 1 1 945.87,659.45Z" style="fill:none;stroke:#F15A60;stroke-width:0.625" />
<path d="M952.83,532.48A3.125,3.125 0 1 1 946.58,532.48A3.125,3.125 0 1 1 952.83,532.48Z" style="fill:none;stroke:#F15A60;stroke-width:0.625" />
<path d="M959.79,485.48A3.125,3.125 0 1 1 953.54,485.48A3.125,3.125 0 1 1 959.79,485.48Z" style="fill:none;stroke:#F15A60;stroke-width:0.625" />
<path d="M966.75,444.85A3.125,3.125 0 1 1 960.5,444.85A3.125,3.125 0 1 1 966.75,444.85Z" style="fill:none;stroke:#F15A60;stroke-width:0.625" />
<path d="M973.71,321.58A3.125,3.125 0 1 1 967.46,321.58A3.125,3.125 0 1 1 973.71,321.58Z" style="fill:none;stroke:#F15A60;stroke-width:0.625" />
<path d="M980.67,213.56A3.125,3.125 0 1 1 974.42,213.56A3.125,3.125 0 1 1 980.67,213.56Z" style="fill:none;stroke:#F15A60;stroke-width:0.625" />
<path d="M987.63,253.13L987.63,253.13A3.125,3.125 0 1 1 981.38,253.13A3.125,3.125 0 1 1 987.63,253.13Z" style="fill:none;stroke:#F15A60;stroke-width:0.625" />
<path d="M994.59,285.52A3.125,3.125 0 1 1 988.34,285.52A3.125,3.125 0 1 1 994.59,285.52Z" style="fill:none;stroke:#F15A60;stroke-width:0.625" />
<path d="M1001.5,275.83L1001.5,275.83A3.125,3.125 0 1 1 995.3,275.83A3.125,3.125 0 1 1 1001.5,275.83Z" style="fill:none;stroke:#F15A60;stroke-width:0.625" />
<path d="M1008.5,335.65L1008.5,335.65A3.125,3.125 0 1 1 1002.3,335.65A3.125,3.125 0 1 1 1008.5,335.65Z" style="fill:none;stroke:#F15A60;stroke-width:0.625" />
<path d="M1015.5,356.84A3.125,3.125 0 1 1 1009.2,356.84A3.125,3.125 0 1 1 1015.5,356.84Z" style="fill:none;stroke:#F15A60;stroke-width:0.625" />
<path d="M1022.4,343.82L1022.4,343.82A3.125,3.125 0 1 1 1016.2,343.82A3.125,3.125 0 1 1 1022.4,343.82Z" style="fill:none;stroke:#F15A60;stroke-width:0.625" />
<path d="M1029.4,390.06A3.125,3.125 0 1 1 1023.1,390.06A3.125,3.125 0 1 1 1029.4,390.06Z" style="fill:none;stroke:#F15A60;stroke-width:0.625" />
<path d="M1036.3,406.14L1036.3,406.14A3.125,3.125 0 1 1 1030.1,406.14A3.125,3.125 0 1 1 1036.3,406.14Z" style="fill:none;stroke:#F15A60;stroke-width:0.625" />
<path d="M1043.3,458.45A3.125,3.125 0 1 1 1037.1,458.45A3.125,3.125 0 1 1 1043.3,458.45Z" style="fill:none;stroke:#F15A60;stroke-width:0.625" />
<path d="M1050.3,332.35A3.125,3.125 0 1 1 1044,332.35A3.125,3.125 0 1 1 1050.3,332.35Z" style="fill:none;stroke:#F15A60;stroke-width:0.625" />
<path d="M1057.2,386.99L1057.2,386.99A3.125,3.125 0 1 1 1051,386.99A3.125,3.125 0 1 1 1057.2,386.99Z" style="fill:none;stroke:#F15A60;stroke-width:0.625" />
<path d="M1064.2,342.14A3.125,3.125 0 1 1 1057.9,342.14A3.125,3.125 0 1 1 1064.2,342.14Z" style="fill:none;stroke:#F15A60;stroke-width:0.625" />
<path d="M1071.1,325.77A3.125,3.125 0 1 1 1064.9,325.77A3.125,3.125 0 1 1 1071.1,325.77Z" style="fill:none;stroke:#F15A60;stroke-width:0.625" />
<path d="M1078.1,311.78A3.125,3.125 0 1 1 1071.9,311.78A3.125,3.125 0 1 1 1078.1,311.78Z" style="fill:none;stroke:#F15A60;stroke-width:0.625" />
<path d="M1085.1,490.38L1085.1,490.38A3.125,3.125 0 1 1 1078.8,490.38A3.125,3.125 0 1 1 1085.1,490.38Z" style="fill:none;stroke:#F15A60;stroke-width:0.625" />
<path d="M1092,496.4A3.125,3.125 0 1 1 1085.8,496.4A3.125,3.125 0 1 1 1092,496.4Z" style="fill:none;stroke:#F15A60;stroke-width:0.625" />
<path d="M1099,600.9A3.125,3.125 0 1 1 1092.7,600.9A3.125,3.125 0 1 1 1099,600.9Z" style="fill:none;stroke:#F15A60;stroke-width:0.625" />
<path d="M1105.9,607.21A3.125,3.125 0 1 1 1099.7,607.21A3.125,3.125 0 1 1 1105.9,607.21Z" style="fill:none;stroke:#F15A60;stroke-width:0.625" />
<path d="M1112.9,656.97L1112.9,656.97A3.125,3.125 0 1 1 1106.7,656.97A3.125,3.125 0 1 1 1112.9,656.97Z" style="fill:none;stroke:#F15A60;stroke-width:0.625" />
<path d="M1119.9,746.35A3.125,3.125 0 1 1 1113.6,746.35A3.125,3.125 0 1 1 1119.9,746.35Z" style="fill:none;stroke:#F15A60;stroke-width:0.625" />
<path d="M1126.8,701.47L1126.8,701.47A3.125,3.125 0 1 1 1120.6,701.47A3.125,3.125 0 1 1 1126.8,701.47Z" style="fill:none;stroke:#F15A60;stroke-width:0.625" />
<path d="M1133.8,663.67A3.125,3.125 0 1 1 1127.5,663.67A3.125,3.125 0 1 1 1133.8,663.67Z" style="fill:none;stroke:#F15A60;stroke-width:0.625" />
<path d="M1140.7,512.15L1140.7,512.15A3.125,3.125 0 1 1 1134.5,512.15A3.125,3.125 0 1 1 1140.7,512.15Z" style="fill:none;stroke:#F15A60;stroke-width:0.625" />
<path d="M1147.7,339.5A3.125,3.125 0 1 1 1141.4,339.5A3.125,3.125 0 1 1 1147.7,339.5Z" style="fill:none;stroke:#F15A60;stroke-width:0.625" />
<path d="M1154.7,340.22A3.125,3.125 0 1 1 1148.4,340.22A3.125,3.125 0 1 1 1154.7,340.22Z" style="fill:none;stroke:#F15A60;stroke-width:0.625" />
<path d="M1161.6,179.19L1161.6,179.19A3.125,3.125 0 1 1 1155.4,179.19A3.125,3.125 0 1 1 1161.6,179.19Z" style="fill:none;stroke:#F15A60;stroke-width:0.625" />
<path d="M1168.6,99.515A3.125,3.125 0 1 1 1162.3,99.515A3.125,3.125 0 1 1 1168.6,99.515Z" style="fill:none;stroke:#F15A60;stroke-width:0.625" />
<path d="M1175.5,158.77A3.125,3.125 0 1 1 1169.3,158.77A3.125,3.125 0 1 1 1175.5,158.77Z" style="fill:none;stroke:#F15A60;stroke-width:0.625" />
<path d="M1182.5,106.48L1182.5,106.48A3.125,3.125 0 1 1 1176.2,106.48A3.125,3.125 0 1 1 1182.5,106.48Z" style="fill:none;stroke:#F15A60;stroke-width:0.625" />
<path d="M1189.5,211.56A3.125,3.125 0 1 1 1183.2,211.56A3.125,3.125 0 1 1 1189.5,211.56Z" style="fill:none;stroke:#F15A60;stroke-width:0.625" />
<path d="M1196.4,256.88A3.125,3.125 0 1 1 1190.2,256.88A3.125,3.125 0 1 1 1196.4,256.88Z" style="fill:none;stroke:#F15A60;stroke-width:0.625" />
<path d="M1203.4,314.83A3.125,3.125 0 1 1 1197.1,314.83A3.125,3.125 0 1 1 1203.4,314.83Z" style="fill:none;stroke:#F15A60;stroke-width:0.625" />
<path d="M1210.3,429.56L1210.3,429.56A3.125,3.125 0 1 1 1204.1,429.56A3.125,3.125 0 1 1 1210.3,429.56Z" style="fill:none;stroke:#F15A60;stroke-width:0.625" />
<path d="M1217.3,512.29A3.125,3.125 0 1 1 1211,512.29A3.125,3.125 0 1 1 1217.3,512.29Z" style="fill:none;stroke:#F15A60;stroke-width:0.625" />
<path d="M1224.3,587.13A3.125,3.125 0 1 1 1218,587.13A3.125,3.125 0 1 1 1224.3,587.13Z" style="fill:none;stroke:#F15A60;stroke-width:0.625" />
<path d="M1231.2,500.2L1231.2,500.2A3.125,3.125 0 1 1 1225,500.2A3.125,3.125 0 1 1 1231.2,500.2Z" style="fill:none;stroke:#F15A60;stroke-width:0.625" />
<path d="M1238.2,540.31A3.125,3.125 0 1 1 1231.9,540.31A3.125,3.125 0 1 1 1238.2,540.31Z" style="fill:none;stroke:#F15A60;stroke-width:0.625" />
<path d="M1245.1,461.83A3.125,3.125 0 1 1 1238.9,461.83A3.125,3.125 0 1 1 1245.1,461.83Z" style="fill:none;stroke:#F15A60;stroke-width:0.625" />
<path d="M1252.1,531.53A3.125,3.125 0 1 1 1245.8,531.53A3.125,3.125 0 1 1 1252.1,531.53Z" style="fill:none;stroke:#F15A60;stroke-width:0.625" />
<path d="M1259.1,474.8A3.125,3.125 0 1 1 1252.8,474.8A3.125,3.125 0 1 1 1259.1,474.8Z" style="fill:none;stroke:#F15A60;stroke-width:0.625" />
<path d="M1266,481.63A3.125,3.125 0 1 1 1259.8,481.63A3.125,3.125 0 1 1 1266,481.63Z" style="fill:none;stroke:#F15A60;stroke-width:0.625" />
<path d="M1273,514.53A3.125,3.125 0 1 1 1266.7,514.53A3.125,3.125 0 1 1 1273,514.53Z" style="fill:none;stroke:#F15A60;stroke-width:0.625" />
<path d="M1279.9,506.3A3.125,3.125 0 1 1 1273.7,506.3A3.125,3.125 0 1 1 1279.9,506.3Z" style="fill:none;stroke:#F15A60;stroke-width:0.625" />
<path d="M1286.9,602.87L1286.9,602.87A3.125,3.125 0 1 1 1280.6,602.87A3.125,3.125 0 1 1 1286.9,602.87Z" style="fill:none;stroke:#F15A60;stroke-width:0.625" />
<path d="M1293.8,503.54L1293.8,503.54A3.125,3.125 0 1 1 1287.6,503.54A3.125,3.125 0 1 1 1293.8,503.54Z" style="fill:none;stroke:#F15A60;stroke-width:0.625" />
<path d="M1300.8,672.57A3.125,3.125 0 1 1 1294.6,672.57A3.125,3.125 0 1 1 1300.8,672.57Z" style="fill:none;stroke:#F15A60;stroke-width:0.625" />
<path d="M1307.8,566.39L1307.8,566.39A3.125,3.125 0 1 1 1301.5,566.39A3.125,3.125 0 1 1 1307.8,566.39Z" style="fill:none;stroke:#F15A60;stroke-width:0.625" />
<path d="M1314.7,523.92A3.125,3.125 0 1 1 1308.5,523.92A3.125,3.125 0 1 1 1314.7,523.92Z" style="fill:none;stroke:#F15A60;stroke-width:0.625" />
<path d="M1321.7,559.55L1321.7,559.55A3.125,3.125 0 1 1 1315.4,559.55A3.125,3.125 0 1 1 1321.7,559.55Z" style="fill:none;stroke:#F15A60;stroke-width:0.625" />
<path d="M1328.6,443.3A3.125,3.125 0 1 1 1322.4,443.3A3.125,3.125 0 1 1 1328.6,443.3Z" style="fill:none;stroke:#F15A60;stroke-width:0.625" />
<path d="M1335.6,270.05L1335.6,270.05A3.125,3.125 0 1 1 1329.4,270.05A3.125,3.125 0 1 1 1335.6,270.05Z" style="fill:none;stroke:#F15A60;stroke-width:0.625" />
<path d="M1342.6,188.32A3.125,3.125 0 1 1 1336.3,188.32A3.125,3.125 0 1 1 1342.6,188.32Z" style="fill:none;stroke:#F15A60;stroke-width:0.625" />
<path d="M1349.5,171.4L1349.5,171.4A3.125,3.125 0 1 1 1343.3,171.4A3.125,3.125 0 1 1 1349.5,171.4Z" style="fill:none;stroke:#F15A60;stroke-width:0.625" />
<path d="M1356.5,49.313L1356.5,49.313A3.125,3.125 0 1 1 1350.2,49.313A3.125,3.125 0 1 1 1356.5,49.313Z" style="fill:none;stroke:#F15A60;stroke-width:0.625" />
<path d="M1363.4,85.253L1363.4,85.253A3.125,3.125 0 1 1 1357.2,85.253A3.125,3.125 0 1 1 1363.4,85.253Z" style="fill:none;stroke:#F15A60;stroke-width:0.625" />
<path d="M1370.4,196.65A3.125,3.125 0 1 1 1364.2,196.65A3.125,3.125 0 1 1 1370.4,196.65Z" style="fill:none;stroke:#F15A60;stroke-width:0.625" />
<path d="M1377.4,319.41A3.125,3.125 0 1 1 1371.1,319.41A3.125,3.125 0 1 1 1377.4,319.41Z" style="fill:none;stroke:#F15A60;stroke-width:0.625" />
<path d="M1384.3,384.79A3.125,3.125 0 1 1 1378.1,384.79A3.125,3.125 0 1 1 1384.3,384.79Z" style="fill:none;stroke:#F15A60;stroke-width:0.625" />
<path d="M1391.3,527.17L1391.3,527.17A3.125,3.125 0 1 1 1385,527.17A3.125,3.125 0 1 1 1391.3,527.17Z" style="fill:none;stroke:#F15A60;stroke-width:0.625" />
<path d="M1398.2,543.45A3.125,3.125 0 1 1 1392,543.45A3.125,3.125 0 1 1 1398.2,543.45Z" style="fill:none;stroke:#F15A60;stroke-width:0.625" />
<path d="M1405.2,583.54L1405.2,583.54A3.125,3.125 0 1 1 1399,583.54A3.125,3.125 0 1 1 1405.2,583.54Z" style="fill:none;stroke:#F15A60;stroke-width:0.625" />
<path d="M1412.2,606.8A3.125,3.125 0 1 1 1405.9,606.8A3.125,3.125 0 1 1 1412.2,606.8Z" style="fill:none;stroke:#F15A60;stroke-width:0.625" />
<path d="M1419.1,612.2L1419.1,612.2A3.125,3.125 0 1 1 1412.9,612.2A3.125,3.125 0 1 1 1419.1,612.2Z" style="fill:none;stroke:#F15A60;stroke-width:0.625" />
<path d="M1426.1,559.72A3.125,3.125 0 1 1 1419.8,559.72A3.125,3.125 0 1 1 1426.1,559.72Z" style="fill:none;stroke:#F15A60;stroke-width:0.625" />
<path d="M1433,589.79L1433,589.79A3.125,3.125 0 1 1 1426.8,589.79A3.125,3.125 0 1 1 1433,589.79Z" style="fill:none;stroke:#F15A60;stroke-width:0.625" />
<path d="M1440,490.82A3.125,3.125 0 1 1 1433.8,490.82A3.125,3.125 0 1 1 1440,490.82Z" style="fill:none;stroke:#F15A60;stroke-width:0.625" />
<path d="M51.925,584.7L58.885,519.68L65.844,473.81L72.804,416.4L79.763,370.15L86.723,347.06L93.682,363.79L100.64,383.02L107.6,394.74L114.56,406.82L121.52,394.78L128.48,384.16L135.44,368.25L142.4,326.8L149.36,291.19L156.32,274.17L163.28,286.28L170.24,319.3L177.2,345.65L184.16,395.06L191.12,476.48L198.08,563.97L205.04,618.22L211.99,660.66L218.95,659.44L225.91,652.66L232.87,614.18L239.83,537.96L246.79,465.89L253.75,400.4L260.71,336.44L267.67,274.33L274.63,269.93L281.59,287.55L288.55,303.31L295.51,318.08L302.47,357.06L309.43,394.9L316.39,419.45L323.35,420.99L330.31,429.88L337.27,411.16L344.23,390.45L351.19,406.01L358.15,403.78L365.1,444.86L372.06,480.48L379.02,546.71L385.98,597.56L392.94,649.31L399.9,652.67L406.86,638.72L413.82,596.45L420.78,533.99L427.74,473.28L434.7,403.98L441.66,305L448.62,227.22L455.58,192.89L462.54,178.76L469.5,211.27L476.46,266.23L483.42,332.75L490.38,395.58L497.34,459.37L504.3,514L511.26,554.11L518.21,556.12L525.17,544.23L532.13,533.28L539.09,513.14L546.05,509.07L553.01,514.68L559.97,527.54L566.93,540.74L573.89,570.53L580.85,564.25L587.81,550.84L594.77,522.27L601.73,477.4L608.69,430.83L615.65,379.11L622.61,312.49L629.57,269.19L636.53,228.26L643.49,210.93L650.45,221.44L657.41,279.38L664.37,345.09L671.32,434.34L678.28,510.1L685.24,568.03L692.2,620.75L699.16,654.85L706.12,666.3L713.08,644.15L720.04,596.07L727,554.6L733.96,499.49L740.92,449.02L747.88,412.76L754.84,408.6L761.8,396.66L768.76,401.12L775.72,401.57L782.68,391.02L789.64,386.68L796.6,375.63L803.56,326.62L810.52,279.79L817.48,265.99L824.43,264.97L831.39,284.3L838.35,319.61L845.31,361.21L852.27,442.79L859.23,516.52L866.19,602.92L873.15,678.37L880.11,704.22L887.07,691.87L894.03,663.42L900.99,623.52L907.95,556.24L914.91,468.95L921.87,402.42L928.83,354.09L935.79,316.08L942.75,304.8L949.71,306.39L956.67,309.44L963.63,326.43L970.59,348.41L977.54,380.05L984.5,377.19L991.46,384.65L998.42,379.48L1005.4,368.96L1012.3,355.55L1019.3,383.45L1026.3,409.03L1033.2,455.48L1040.2,498.47L1047.1,548.94L1054.1,611.41L1061.1,654.79L1068,680.68L1075,664.04L1081.9,603.54L1088.9,546.97L1095.9,458.08L1102.8,361.8L1109.8,291.55L1116.7,221.99L1123.7,192.06L1130.7,184.59L1137.6,200.32L1144.6,246.79L1151.5,309.63L1158.5,385.01L1165.5,430.63L1172.4,475.26L1179.4,492.69L1186.3,516.92L1193.3,520.38L1200.3,519.94L1207.2,522.73L1214.2,521.54L1221.1,542.23L1228.1,540.17L1235,576.07L1242,584.77L1249,581.29L1255.9,586.03L1262.9,562.49L1269.8,500.92L1276.8,427.08L1283.8,357.39L1290.7,271.01L1297.7,204.07L1304.6,176.88L1311.6,186.55L1318.6,216.05L1325.5,281.95L1332.5,349.42L1339.4,419.07L1346.4,484.07L1353.4,539.41L1360.3,568.86L1367.3,593.22L1374.2,585.49L1381.2,586.72L1388.2,582.62L1395.1,575.4L1402.1,563.49L1409,546.43L1416,523.65L1423,494.68L1429.9,437.64L1436.9,349.02" style="fill:none;stroke:#7AC36A;stroke-width:1.25;stroke-dasharray:7.5,2.5" />
<path d="M49.258,582.03L54.592,582.03L54.592,587.36L49.258,587.36Z" style="fill:none;stroke:#7AC36A;stroke-width:0.625" />
<path d="M56.217,517.01L61.552,517.01L61.552,522.35L56.217,522.35Z" style="fill:none;stroke:#7AC36A;stroke-width:0.625" />
<path d="M63.177,471.15L68.511,471.15L68.511,476.48L63.177,476.48Z" style="fill:none;stroke:#7AC36A;stroke-width:0.625" />
<path d="M70.136,413.74L75.471,413.74L75.471,419.07L70.136,419.07Z" style="fill:none;stroke:#7AC36A;stroke-width:0.625" />
<path d="M77.096,367.48L82.431,367.48L82.431,372.82L77.096,372.82Z" style="fill:none;stroke:#7AC36A;stroke-width:0.625" />
<path d="M84.055,344.4L89.39,344.4L89.39,349.73L84.055,349.73Z" style="fill:none;stroke:#7AC36A;stroke-width:0.625" />
<path d="M91.015,361.13L96.35,361.13L96.35,366.46L91.015,366.46Z" style="fill:none;stroke:#7AC36A;stroke-width:0.625" />
<path d="M97.974,380.35L103.31,380.35L103.31,385.69L97.974,385.69Z" style="fill:none;stroke:#7AC36A;stroke-width:0.625" />
<path d="M104.93,392.08L110.27,392.08L110.27,397.41L104.93,397.41Z" style="fill:none;stroke:#7AC36A;stroke-width:0.625" />
<path d="M111.89,404.15L117.23,404.15L117.23,409.49L111.89,409.49Z" style="fill:none;stroke:#7AC36A;stroke-width:0.625" />
<path d="M118.85,392.11L124.19,392.11L124.19,397.45L118.85,397.45Z" style="fill:none;stroke:#7AC36A;stroke-width:0.625" />
<path d="M125.81,381.5L131.15,381.5L131.15,386.83L125.81,386.83Z" style="fill:none;stroke:#7AC36A;stroke-width:0.625" />
<path d="M132.77,365.58L138.11,365.58L138.11,370.92L132.77,370.92Z" style="fill:none;stroke:#7AC36A;stroke-width:0.625" />
<path d="M139.73,324.13L145.07,324.13L145.07,329.47L139.73,329.47Z" style="fill:none;stroke:#7AC36A;stroke-width:0.625" />
<path d="M146.69,288.53L152.03,288.53L152.03,293.86L146.69,293.86Z" style="fill:none;stroke:#7AC36A;stroke-width:0.625" />
<path d="M153.65,271.5L158.99,271.5L158.99,276.83L153.65,276.83Z" style="fill:none;stroke:#7AC36A;stroke-width:0.625" />
<path d="M160.61,283.61L165.95,283.61L165.95,288.95L160.61,288.95Z" style="fill:none;stroke:#7AC36A;stroke-width:0.625" />
<path d="M167.57,316.64L172.9,316.64L172.9,321.97L167.57,321.97Z" style="fill:none;stroke:#7AC36A;stroke-width:0.625" />
<path d="M174.53,342.98L179.86,342.98L179.86,348.32L174.53,348.32Z" style="fill:none;stroke:#7AC36A;stroke-width:0.625" />
<path d="M181.49,392.39L186.82,392.39L186.82,397.72L181.49,397.72Z" style="fill:none;stroke:#7AC36A;stroke-width:0.625" />
<path d="M188.45,473.81L193.78,473.81L193.78,479.15L188.45,479.15Z" style="fill:none;stroke:#7AC36A;stroke-width:0.625" />
<path d="M195.41,561.31L200.74,561.31L200.74,566.64L195.41,566.64Z" style="fill:none;stroke:#7AC36A;stroke-width:0.625" />
<path d="M202.37,615.55L207.7,615.55L207.7,620.89L202.37,620.89Z" style="fill:none;stroke:#7AC36A;stroke-width:0.625" />
<path d="M209.33,658L214.66,658L214.66,663.33L209.33,663.33Z" style="fill:none;stroke:#7AC36A;stroke-width:0.625" />
<path d="M216.29,656.77L221.62,656.77L221.62,662.1L216.29,662.1Z" style="fill:none;stroke:#7AC36A;stroke-width:0.625" />
<path d="M223.25,649.99L228.58,649.99L228.58,655.32L223.25,655.32Z" style="fill:none;stroke:#7AC36A;stroke-width:0.625" />
<path d="M230.21,611.51L235.54,611.51L235.54,616.85L230.21,616.85Z" style="fill:none;stroke:#7AC36A;stroke-width:0.625" />
<path d="M237.17,535.29L242.5,535.29L242.5,540.63L237.17,540.63Z" style="fill:none;stroke:#7AC36A;stroke-width:0.625" />
<path d="M244.12,463.23L249.46,463.23L249.46,468.56L244.12,468.56Z" style="fill:none;stroke:#7AC36A;stroke-width:0.625" />
<path d="M251.08,397.73L256.42,397.73L256.42,403.06L251.08,403.06Z" style="fill:none;stroke:#7AC36A;stroke-width:0.625" />
<path d="M258.04,333.78L263.38,333.78L263.38,339.11L258.04,339.11Z" style="fill:none;stroke:#7AC36A;stroke-width:0.625" />
<path d="M265,271.66L270.34,271.66L270.34,277L265,277Z" style="fill:none;stroke:#7AC36A;stroke-width:0.625" />
<path d="M271.96,267.26L277.3,267.26L277.3,272.6L271.96,272.6Z" style="fill:none;stroke:#7AC36A;stroke-width:0.625" />
<path d="M278.92,284.88L284.26,284.88L284.26,290.22L278.92,290.22Z" style="fill:none;stroke:#7AC36A;stroke-width:0.625" />
<path d="M285.88,300.64L291.22,300.64L291.22,305.98L285.88,305.98Z" style="fill:none;stroke:#7AC36A;stroke-width:0.625" />
<path d="M292.84,315.41L298.18,315.41L298.18,320.75L292.84,320.75Z" style="fill:none;stroke:#7AC36A;stroke-width:0.625" />
<path d="M299.8,354.39L305.14,354.39L305.14,359.72L299.8,359.72Z" style="fill:none;stroke:#7AC36A;stroke-width:0.625" />
<path d="M306.76,392.23L312.1,392.23L312.1,397.57L306.76,397.57Z" style="fill:none;stroke:#7AC36A;stroke-width:0.625" />
<path d="M313.72,416.79L319.06,416.79L319.06,422.12L313.72,422.12Z" style="fill:none;stroke:#7AC36A;stroke-width:0.625" />
<path d="M320.68,418.32L326.01,418.32L326.01,423.65L320.68,423.65Z" style="fill:none;stroke:#7AC36A;stroke-width:0.625" />
<path d="M327.64,427.21L332.97,427.21L332.97,432.55L327.64,432.55Z" style="fill:none;stroke:#7AC36A;stroke-width:0.625" />
<path d="M334.6,408.49L339.93,408.49L339.93,413.82L334.6,413.82Z" style="fill:none;stroke:#7AC36A;stroke-width:0.625" />
<path d="M341.56,387.78L346.89,387.78L346.89,393.11L341.56,393.11Z" style="fill:none;stroke:#7AC36A;stroke-width:0.625" />
<path d="M348.52,403.34L353.85,403.34L353.85,408.67L348.52,408.67Z" style="fill:none;stroke:#7AC36A;stroke-width:0.625" />
<path d="M355.48,401.11L360.81,401.11L360.81,406.44L355.48,406.44Z" style="fill:none;stroke:#7AC36A;stroke-width:0.625" />
<path d="M362.44,442.19L367.77,442.19L367.77,447.53L362.44,447.53Z" style="fill:none;stroke:#7AC36A;stroke-width:0.625" />
<path d="M369.4,477.81L374.73,477.81L374.73,483.15L369.4,483.15Z" style="fill:none;stroke:#7AC36A;stroke-width:0.625" />
<path d="M376.36,544.04L381.69,544.04L381.69,549.38L376.36,549.38Z" style="fill:none;stroke:#7AC36A;stroke-width:0.625" />
<path d="M383.32,594.89L388.65,594.89L388.65,600.22L383.32,600.22Z" style="fill:none;stroke:#7AC36A;stroke-width:0.625" />
<path d="M390.28,646.64L395.61,646.64L395.61,651.97L390.28,651.97Z" style="fill:none;stroke:#7AC36A;stroke-width:0.625" />
<path d="M397.24,650.01L402.57,650.01L402.57,655.34L397.24,655.34Z" style="fill:none;stroke:#7AC36A;stroke-width:0.625" />
<path d="M404.19,636.06L409.53,636.06L409.53,641.39L404.19,641.39Z" style="fill:none;stroke:#7AC36A;stroke-width:0.625" />
<path d="M411.15,593.78L416.49,593.78L416.49,599.12L411.15,599.12Z" style="fill:none;stroke:#7AC36A;stroke-width:0.625" />
<path d="M418.11,531.32L423.45,531.32L423.45,536.66L418.11,536.66Z" style="fill:none;stroke:#7AC36A;stroke-width:0.625" />
<path d="M425.07,470.61L430.41,470.61L430.41,475.94L425.07,475.94Z" style="fill:none;stroke:#7AC36A;stroke-width:0.625" />
<path d="M432.03,401.31L437.37,401.31L437.37,406.64L432.03,406.64Z" style="fill:none;stroke:#7AC36A;stroke-width:0.625" />
<path d="M438.99,302.34L444.33,302.34L444.33,307.67L438.99,307.67Z" style="fill:none;stroke:#7AC36A;stroke-width:0.625" />
<path d="M445.95,224.55L451.29,224.55L451.29,229.88L445.95,229.88Z" style="fill:none;stroke:#7AC36A;stroke-width:0.625" />
<path d="M452.91,190.22L458.25,190.22L458.25,195.55L452.91,195.55Z" style="fill:none;stroke:#7AC36A;stroke-width:0.625" />
<path d="M459.87,176.09L465.21,176.09L465.21,181.43L459.87,181.43Z" style="fill:none;stroke:#7AC36A;stroke-width:0.625" />
<path d="M466.83,208.61L472.17,208.61L472.17,213.94L466.83,213.94Z" style="fill:none;stroke:#7AC36A;stroke-width:0.625" />
<path d="M473.79,263.56L479.12,263.56L479.12,268.9L473.79,268.9Z" style="fill:none;stroke:#7AC36A;stroke-width:0.625" />
<path d="M480.75,330.09L486.08,330.09L486.08,335.42L480.75,335.42Z" style="fill:none;stroke:#7AC36A;stroke-width:0.625" />
<path d="M487.71,392.92L493.04,392.92L493.04,398.25L487.71,398.25Z" style="fill:none;stroke:#7AC36A;stroke-width:0.625" />
<path d="M494.67,456.7L500,456.7L500,462.04L494.67,462.04Z" style="fill:none;stroke:#7AC36A;stroke-width:0.625" />
<path d="M501.63,511.33L506.96,511.33L506.96,516.67L501.63,516.67Z" style="fill:none;stroke:#7AC36A;stroke-width:0.625" />
<path d="M508.59,551.44L513.92,551.44L513.92,556.78L508.59,556.78Z" style="fill:none;stroke:#7AC36A;stroke-width:0.625" />
<path d="M515.55,553.45L520.88,553.45L520.88,558.79L515.55,558.79Z" style="fill:none;stroke:#7AC36A;stroke-width:0.625" />
<path d="M522.51,541.56L527.84,541.56L527.84,546.9L522.51,546.9Z" style="fill:none;stroke:#7AC36A;stroke-width:0.625" />
<path d="M529.47,530.62L534.8,530.62L534.8,535.95L529.47,535.95Z" style="fill:none;stroke:#7AC36A;stroke-width:0.625" />
<path d="M536.43,510.47L541.76,510.47L541.76,515.8L536.43,515.8Z" style="fill:none;stroke:#7AC36A;stroke-width:0.625" />
<path d="M543.39,506.4L548.72,506.4L548.72,511.74L543.39,511.74Z" style="fill:none;stroke:#7AC36A;stroke-width:0.625" />
<path d="M550.35,512.01L555.68,512.01L555.68,517.34L550.35,517.34Z" style="fill:none;stroke:#7AC36A;stroke-width:0.625" />
<path d="M557.3,524.87L562.64,524.87L562.64,530.21L557.3,530.21Z" style="fill:none;stroke:#7AC36A;stroke-width:0.625" />
<path d="M564.26,538.07L569.6,538.07L569.6,543.4L564.26,543.4Z" style="fill:none;stroke:#7AC36A;stroke-width:0.625" />
<path d="M571.22,567.86L576.56,567.86L576.56,573.2L571.22,573.2Z" style="fill:none;stroke:#7AC36A;stroke-width:0.625" />
<path d="M578.18,561.58L583.52,561.58L583.52,566.92L578.18,566.92Z" style="fill:none;stroke:#7AC36A;stroke-width:0.625" />
<path d="M585.14,548.18L590.48,548.18L590.48,553.51L585.14,553.51Z" style="fill:none;stroke:#7AC36A;stroke-width:0.625" />
<path d="M592.1,519.6L597.44,519.6L597.44,524.94L592.1,524.94Z" style="fill:none;stroke:#7AC36A;stroke-width:0.625" />
<path d="M599.06,474.73L604.4,474.73L604.4,480.07L599.06,480.07Z" style="fill:none;stroke:#7AC36A;stroke-width:0.625" />
<path d="M606.02,428.16L611.36,428.16L611.36,433.5L606.02,433.5Z" style="fill:none;stroke:#7AC36A;stroke-width:0.625" />
<path d="M612.98,376.44L618.32,376.44L618.32,381.78L612.98,381.78Z" style="fill:none;stroke:#7AC36A;stroke-width:0.625" />
<path d="M619.94,309.82L625.28,309.82L625.28,315.16L619.94,315.16Z" style="fill:none;stroke:#7AC36A;stroke-width:0.625" />
<path d="M626.9,266.52L632.23,266.52L632.23,271.85L626.9,271.85Z" style="fill:none;stroke:#7AC36A;stroke-width:0.625" />
<path d="M633.86,225.59L639.19,225.59L639.19,230.92L633.86,230.92Z" style="fill:none;stroke:#7AC36A;stroke-width:0.625" />
<path d="M640.82,208.26L646.15,208.26L646.15,213.6L640.82,213.6Z" style="fill:none;stroke:#7AC36A;stroke-width:0.625" />
<path d="M647.78,218.77L653.11,218.77L653.11,224.11L647.78,224.11Z" style="fill:none;stroke:#7AC36A;stroke-width:0.625" />
<path d="M654.74,276.71L660.07,276.71L660.07,282.05L654.74,282.05Z" style="fill:none;stroke:#7AC36A;stroke-width:0.625" />
<path d="M661.7,342.42L667.03,342.42L667.03,347.75L661.7,347.75Z" style="fill:none;stroke:#7AC36A;stroke-width:0.625" />
<path d="M668.66,431.67L673.99,431.67L673.99,437L668.66,437Z" style="fill:none;stroke:#7AC36A;stroke-width:0.625" />
<path d="M675.62,507.43L680.95,507.43L680.95,512.76L675.62,512.76Z" style="fill:none;stroke:#7AC36A;stroke-width:0.625" />
<path d="M682.58,565.37L687.91,565.37L687.91,570.7L682.58,570.7Z" style="fill:none;stroke:#7AC36A;stroke-width:0.625" />
<path d="M689.54,618.08L694.87,618.08L694.87,623.41L689.54,623.41Z" style="fill:none;stroke:#7AC36A;stroke-width:0.625" />
<path d="M696.5,652.18L701.83,652.18L701.83,657.51L696.5,657.51Z" style="fill:none;stroke:#7AC36A;stroke-width:0.625" />
<path d="M703.46,663.64L708.79,663.64L708.79,668.97L703.46,668.97Z" style="fill:none;stroke:#7AC36A;stroke-width:0.625" />
<path d="M710.41,641.49L715.75,641.49L715.75,646.82L710.41,646.82Z" style="fill:none;stroke:#7AC36A;stroke-width:0.625" />
<path d="M717.37,593.4L722.71,593.4L722.71,598.73L717.37,598.73Z" style="fill:none;stroke:#7AC36A;stroke-width:0.625" />
<path d="M724.33,551.93L729.67,551.93L729.67,557.27L724.33,557.27Z" style="fill:none;stroke:#7AC36A;stroke-width:0.625" />
<path d="M731.29,496.82L736.63,496.82L736.63,502.16L731.29,502.16Z" style="fill:none;stroke:#7AC36A;stroke-width:0.625" />
<path d="M738.25,446.35L743.59,446.35L743.59,451.68L738.25,451.68Z" style="fill:none;stroke:#7AC36A;stroke-width:0.625" />
<path d="M745.21,410.1L750.55,410.1L750.55,415.43L745.21,415.43Z" style="fill:none;stroke:#7AC36A;stroke-width:0.625" />
<path d="M752.17,405.93L757.51,405.93L757.51,411.26L752.17,411.26Z" style="fill:none;stroke:#7AC36A;stroke-width:0.625" />
<path d="M759.13,393.99L764.47,393.99L764.47,399.32L759.13,399.32Z" style="fill:none;stroke:#7AC36A;stroke-width:0.625" />
<path d="M766.09,398.45L771.43,398.45L771.43,403.79L766.09,403.79Z" style="fill:none;stroke:#7AC36A;stroke-width:0.625" />
<path d="M773.05,398.9L778.39,398.9L778.39,404.24L773.05,404.24Z" style="fill:none;stroke:#7AC36A;stroke-width:0.625" />
<path d="M780.01,388.35L785.34,388.35L785.34,393.68L780.01,393.68Z" style="fill:none;stroke:#7AC36A;stroke-width:0.625" />
<path d="M786.97,384.02L792.3,384.02L792.3,389.35L786.97,389.35Z" style="fill:none;stroke:#7AC36A;stroke-width:0.625" />
<path d="M793.93,372.97L799.26,372.97L799.26,378.3L793.93,378.3Z" style="fill:none;stroke:#7AC36A;stroke-width:0.625" />
<path d="M800.89,323.96L806.22,323.96L806.22,329.29L800.89,329.29Z" style="fill:none;stroke:#7AC36A;stroke-width:0.625" />
<path d="M807.85,277.12L813.18,277.12L813.18,282.46L807.85,282.46Z" style="fill:none;stroke:#7AC36A;stroke-width:0.625" />
<path d="M814.81,263.32L820.14,263.32L820.14,268.66L814.81,268.66Z" style="fill:none;stroke:#7AC36A;stroke-width:0.625" />
<path d="M821.77,262.31L827.1,262.31L827.1,267.64L821.77,267.64Z" style="fill:none;stroke:#7AC36A;stroke-width:0.625" />
<path d="M828.73,281.64L834.06,281.64L834.06,286.97L828.73,286.97Z" style="fill:none;stroke:#7AC36A;stroke-width:0.625" />
<path d="M835.69,316.94L841.02,316.94L841.02,322.28L835.69,322.28Z" style="fill:none;stroke:#7AC36A;stroke-width:0.625" />
<path d="M842.65,358.54L847.98,358.54L847.98,363.88L842.65,363.88Z" style="fill:none;stroke:#7AC36A;stroke-width:0.625" />
<path d="M849.61,440.12L854.94,440.12L854.94,445.46L849.61,445.46Z" style="fill:none;stroke:#7AC36A;stroke-width:0.625" />
<path d="M856.57,513.85L861.9,513.85L861.9,519.19L856.57,519.19Z" style="fill:none;stroke:#7AC36A;stroke-width:0.625" />
<path d="M863.52,600.25L868.86,600.25L868.86,605.58L863.52,605.58Z" style="fill:none;stroke:#7AC36A;stroke-width:0.625" />
<path d="M870.48,675.7L875.82,675.7L875.82,681.04L870.48,681.04Z" style="fill:none;stroke:#7AC36A;stroke-width:0.625" />
<path d="M877.44,701.55L882.78,701.55L882.78,706.88L877.44,706.88Z" style="fill:none;stroke:#7AC36A;stroke-width:0.625" />
<path d="M884.4,689.2L889.74,689.2L889.74,694.54L884.4,694.54Z" style="fill:none;stroke:#7AC36A;stroke-width:0.625" />
<path d="M891.36,660.75L896.7,660.75L896.7,666.09L891.36,666.09Z" style="fill:none;stroke:#7AC36A;stroke-width:0.625" />
<path d="M898.32,620.85L903.66,620.85L903.66,626.19L898.32,626.19Z" style="fill:none;stroke:#7AC36A;stroke-width:0.625" />
<path d="M905.28,553.57L910.62,553.57L910.62,558.91L905.28,558.91Z" style="fill:none;stroke:#7AC36A;stroke-width:0.625" />
<path d="M912.24,466.28L917.58,466.28L917.58,471.62L912.24,471.62Z" style="fill:none;stroke:#7AC36A;stroke-width:0.625" />
<path d="M919.2,399.76L924.54,399.76L924.54,405.09L919.2,405.09Z" style="fill:none;stroke:#7AC36A;stroke-width:0.625" />
<path d="M926.16,351.42L931.5,351.42L931.5,356.75L926.16,356.75Z" style="fill:none;stroke:#7AC36A;stroke-width:0.625" />
<path d="M933.12,313.41L938.45,313.41L938.45,318.74L933.12,318.74Z" style="fill:none;stroke:#7AC36A;stroke-width:0.625" />
<path d="M940.08,302.13L945.41,302.13L945.41,307.47L940.08,307.47Z" style="fill:none;stroke:#7AC36A;stroke-width:0.625" />
<path d="M947.04,303.72L952.37,303.72L952.37,309.05L947.04,309.05Z" style="fill:none;stroke:#7AC36A;stroke-width:0.625" />
<path d="M954,306.77L959.33,306.77L959.33,312.1L954,312.1Z" style="fill:none;stroke:#7AC36A;stroke-width:0.625" />
<path d="M960.96,323.76L966.29,323.76L966.29,329.1L960.96,329.1Z" style="fill:none;stroke:#7AC36A;stroke-width:0.625" />
<path d="M967.92,345.74L973.25,345.74L973.25,351.08L967.92,351.08Z" style="fill:none;stroke:#7AC36A;stroke-width:0.625" />
<path d="M974.88,377.38L980.21,377.38L980.21,382.72L974.88,382.72Z" style="fill:none;stroke:#7AC36A;stroke-width:0.625" />
<path d="M981.84,374.52L987.17,374.52L987.17,379.86L981.84,379.86Z" style="fill:none;stroke:#7AC36A;stroke-width:0.625" />
<path d="M988.8,381.98L994.13,381.98L994.13,387.32L988.8,387.32Z" style="fill:none;stroke:#7AC36A;stroke-width:0.625" />
<path d="M995.76,376.81L1001.1,376.81L1001.1,382.14L995.76,382.14Z" style="fill:none;stroke:#7AC36A;stroke-width:0.625" />
<path d="M1002.7,366.3L1008.1,366.3L1008.1,371.63L1002.7,371.63Z" style="fill:none;stroke:#7AC36A;stroke-width:0.625" />
<path d="M1009.7,352.88L1015,352.88L1015,358.22L1009.7,358.22Z" style="fill:none;stroke:#7AC36A;stroke-width:0.625" />
<path d="M1016.6,380.78L1022,380.78L1022,386.11L1016.6,386.11Z" style="fill:none;stroke:#7AC36A;stroke-width:0.625" />
<path d="M1023.6,406.37L1028.9,406.37L1028.9,411.7L1023.6,411.7Z" style="fill:none;stroke:#7AC36A;stroke-width:0.625" />
<path d="M1030.6,452.81L1035.9,452.81L1035.9,458.14L1030.6,458.14Z" style="fill:none;stroke:#7AC36A;stroke-width:0.625" />
<path d="M1037.5,495.8L1042.8,495.8L1042.8,501.14L1037.5,501.14Z" style="fill:none;stroke:#7AC36A;stroke-width:0.625" />
<path d="M1044.5,546.27L1049.8,546.27L1049.8,551.61L1044.5,551.61Z" style="fill:none;stroke:#7AC36A;stroke-width:0.625" />
<path d="M1051.4,608.74L1056.8,608.74L1056.8,614.07L1051.4,614.07Z" style="fill:none;stroke:#7AC36A;stroke-width:0.625" />
<path d="M1058.4,652.12L1063.7,652.12L1063.7,657.46L1058.4,657.46Z" style="fill:none;stroke:#7AC36A;stroke-width:0.625" />
<path d="M1065.4,678.02L1070.7,678.02L1070.7,683.35L1065.4,683.35Z" style="fill:none;stroke:#7AC36A;stroke-width:0.625" />
<path d="M1072.3,661.37L1077.6,661.37L1077.6,666.71L1072.3,666.71Z" style="fill:none;stroke:#7AC36A;stroke-width:0.625" />
<path d="M1079.3,600.87L1084.6,600.87L1084.6,606.21L1079.3,606.21Z" style="fill:none;stroke:#7AC36A;stroke-width:0.625" />
<path d="M1086.2,544.31L1091.6,544.31L1091.6,549.64L1086.2,549.64Z" style="fill:none;stroke:#7AC36A;stroke-width:0.625" />
<path d="M1093.2,455.41L1098.5,455.41L1098.5,460.75L1093.2,460.75Z" style="fill:none;stroke:#7AC36A;stroke-width:0.625" />
<path d="M1100.1,359.14L1105.5,359.14L1105.5,364.47L1100.1,364.47Z" style="fill:none;stroke:#7AC36A;stroke-width:0.625" />
<path d="M1107.1,288.88L1112.4,288.88L1112.4,294.22L1107.1,294.22Z" style="fill:none;stroke:#7AC36A;stroke-width:0.625" />
<path d="M1114.1,219.32L1119.4,219.32L1119.4,224.66L1114.1,224.66Z" style="fill:none;stroke:#7AC36A;stroke-width:0.625" />
<path d="M1121,189.4L1126.4,189.4L1126.4,194.73L1121,194.73Z" style="fill:none;stroke:#7AC36A;stroke-width:0.625" />
<path d="M1128,181.92L1133.3,181.92L1133.3,187.25L1128,187.25Z" style="fill:none;stroke:#7AC36A;stroke-width:0.625" />
<path d="M1134.9,197.65L1140.3,197.65L1140.3,202.98L1134.9,202.98Z" style="fill:none;stroke:#7AC36A;stroke-width:0.625" />
<path d="M1141.9,244.13L1147.2,244.13L1147.2,249.46L1141.9,249.46Z" style="fill:none;stroke:#7AC36A;stroke-width:0.625" />
<path d="M1148.9,306.97L1154.2,306.97L1154.2,312.3L1148.9,312.3Z" style="fill:none;stroke:#7AC36A;stroke-width:0.625" />
<path d="M1155.8,382.34L1161.2,382.34L1161.2,387.68L1155.8,387.68Z" style="fill:none;stroke:#7AC36A;stroke-width:0.625" />
<path d="M1162.8,427.96L1168.1,427.96L1168.1,433.3L1162.8,433.3Z" style="fill:none;stroke:#7AC36A;stroke-width:0.625" />
<path d="M1169.7,472.59L1175.1,472.59L1175.1,477.92L1169.7,477.92Z" style="fill:none;stroke:#7AC36A;stroke-width:0.625" />
<path d="M1176.7,490.02L1182,490.02L1182,495.36L1176.7,495.36Z" style="fill:none;stroke:#7AC36A;stroke-width:0.625" />
<path d="M1183.7,514.25L1189,514.25L1189,519.59L1183.7,519.59Z" style="fill:none;stroke:#7AC36A;stroke-width:0.625" />
<path d="M1190.6,517.72L1196,517.72L1196,523.05L1190.6,523.05Z" style="fill:none;stroke:#7AC36A;stroke-width:0.625" />
<path d="M1197.6,517.27L1202.9,517.27L1202.9,522.61L1197.6,522.61Z" style="fill:none;stroke:#7AC36A;stroke-width:0.625" />
<path d="M1204.5,520.06L1209.9,520.06L1209.9,525.39L1204.5,525.39Z" style="fill:none;stroke:#7AC36A;stroke-width:0.625" />
<path d="M1211.5,518.87L1216.8,518.87L1216.8,524.2L1211.5,524.2Z" style="fill:none;stroke:#7AC36A;stroke-width:0.625" />
<path d="M1218.5,539.56L1223.8,539.56L1223.8,544.89L1218.5,544.89Z" style="fill:none;stroke:#7AC36A;stroke-width:0.625" />
<path d="M1225.4,537.51L1230.8,537.51L1230.8,542.84L1225.4,542.84Z" style="fill:none;stroke:#7AC36A;stroke-width:0.625" />
<path d="M1232.4,573.4L1237.7,573.4L1237.7,578.73L1232.4,578.73Z" style="fill:none;stroke:#7AC36A;stroke-width:0.625" />
<path d="M1239.3,582.1L1244.7,582.1L1244.7,587.43L1239.3,587.43Z" style="fill:none;stroke:#7AC36A;stroke-width:0.625" />
<path d="M1246.3,578.63L1251.6,578.63L1251.6,583.96L1246.3,583.96Z" style="fill:none;stroke:#7AC36A;stroke-width:0.625" />
<path d="M1253.3,583.36L1258.6,583.36L1258.6,588.69L1253.3,588.69Z" style="fill:none;stroke:#7AC36A;stroke-width:0.625" />
<path d="M1260.2,559.82L1265.6,559.82L1265.6,565.15L1260.2,565.15Z" style="fill:none;stroke:#7AC36A;stroke-width:0.625" />
<path d="M1267.2,498.26L1272.5,498.26L1272.5,503.59L1267.2,503.59Z" style="fill:none;stroke:#7AC36A;stroke-width:0.625" />
<path d="M1274.1,424.42L1279.5,424.42L1279.5,429.75L1274.1,429.75Z" style="fill:none;stroke:#7AC36A;stroke-width:0.625" />
<path d="M1281.1,354.72L1286.4,354.72L1286.4,360.05L1281.1,360.05Z" style="fill:none;stroke:#7AC36A;stroke-width:0.625" />
<path d="M1288.1,268.34L1293.4,268.34L1293.4,273.67L1288.1,273.67Z" style="fill:none;stroke:#7AC36A;stroke-width:0.625" />
<path d="M1295,201.4L1300.4,201.4L1300.4,206.73L1295,206.73Z" style="fill:none;stroke:#7AC36A;stroke-width:0.625" />
<path d="M1302,174.21L1307.3,174.21L1307.3,179.54L1302,179.54Z" style="fill:none;stroke:#7AC36A;stroke-width:0.625" />
<path d="M1308.9,183.88L1314.3,183.88L1314.3,189.22L1308.9,189.22Z" style="fill:none;stroke:#7AC36A;stroke-width:0.625" />
<path d="M1315.9,213.38L1321.2,213.38L1321.2,218.71L1315.9,218.71Z" style="fill:none;stroke:#7AC36A;stroke-width:0.625" />
<path d="M1322.9,279.28L1328.2,279.28L1328.2,284.61L1322.9,284.61Z" style="fill:none;stroke:#7AC36A;stroke-width:0.625" />
<path d="M1329.8,346.75L1335.1,346.75L1335.1,352.08L1329.8,352.08Z" style="fill:none;stroke:#7AC36A;stroke-width:0.625" />
<path d="M1336.8,416.4L1342.1,416.4L1342.1,421.74L1336.8,421.74Z" style="fill:none;stroke:#7AC36A;stroke-width:0.625" />
<path d="M1343.7,481.41L1349.1,481.41L1349.1,486.74L1343.7,486.74Z" style="fill:none;stroke:#7AC36A;stroke-width:0.625" />
<path d="M1350.7,536.74L1356,536.74L1356,542.08L1350.7,542.08Z" style="fill:none;stroke:#7AC36A;stroke-width:0.625" />
<path d="M1357.7,566.2L1363,566.2L1363,571.53L1357.7,571.53Z" style="fill:none;stroke:#7AC36A;stroke-width:0.625" />
<path d="M1364.6,590.56L1369.9,590.56L1369.9,595.89L1364.6,595.89Z" style="fill:none;stroke:#7AC36A;stroke-width:0.625" />
<path d="M1371.6,582.82L1376.9,582.82L1376.9,588.15L1371.6,588.15Z" style="fill:none;stroke:#7AC36A;stroke-width:0.625" />
<path d="M1378.5,584.06L1383.9,584.06L1383.9,589.39L1378.5,589.39Z" style="fill:none;stroke:#7AC36A;stroke-width:0.625" />
<path d="M1385.5,579.96L1390.8,579.96L1390.8,585.29L1385.5,585.29Z" style="fill:none;stroke:#7AC36A;stroke-width:0.625" />
<path d="M1392.5,572.73L1397.8,572.73L1397.8,578.07L1392.5,578.07Z" style="fill:none;stroke:#7AC36A;stroke-width:0.625" />
<path d="M1399.4,560.82L1404.7,560.82L1404.7,566.15L1399.4,566.15Z" style="fill:none;stroke:#7AC36A;stroke-width:0.625" />
<path d="M1406.4,543.76L1411.7,543.76L1411.7,549.1L1406.4,549.1Z" style="fill:none;stroke:#7AC36A;stroke-width:0.625" />
<path d="M1413.3,520.98L1418.7,520.98L1418.7,526.32L1413.3,526.32Z" style="fill:none;stroke:#7AC36A;stroke-width:0.625" />
<path d="M1420.3,492.01L1425.6,492.01L1425.6,497.35L1420.3,497.35Z" style="fill:none;stroke:#7AC36A;stroke-width:0.625" />
<path d="M1427.2,434.98L1432.6,434.98L1432.6,440.31L1427.2,440.31Z" style="fill:none;stroke:#7AC36A;stroke-width:0.625" />
<path d="M1434.2,346.35L1439.5,346.35L1439.5,351.68L1434.2,351.68Z" style="fill:none;stroke:#7AC36A;stroke-width:0.625" />
<path d="M1415,66.978L1440,66.978" style="fill:none;stroke:#F15A60;stroke-width:1.25" />
<path d="M1430.6,66.978A3.125,3.125 0 1 1 1424.4,66.978A3.125,3.125 0 1 1 1430.6,66.978Z" style="fill:none;stroke:#F15A60;stroke-width:0.625" />
<text x="1388.8" y="-61.188" transform="scale(1, -1)"
	style="font-family:Times;font-weight:normal;font-style:normal;font-size:12pt">raw</text>
<path d="M1415,53.117L1440,53.117" style="fill:none;stroke:#7AC36A;stroke-width:1.25;stroke-dasharray:7.5,2.5" />
<path d="M1424.8,50.45L1430.2,50.45L1430.2,55.785L1424.8,55.785Z" style="fill:none;stroke:#7AC36A;stroke-width:0.625" />
<text x="1367.1" y="-47.328" transform="scale(1, -1)"
	style="font-family:Times;font-weight:normal;font-style:normal;font-size:12pt">smooth</text>
</g>
</svg>
