<?xml version="1.0"?>
<!-- Generated by SVGo and Plotinum VG -->
<svg width="16in" height="9in"
	xmlns="http://www.w3.org/2000/svg"
	xmlns:xlink="http://www.w3.org/1999/xlink">
<g transform="scale(1, -1) translate(0, -810)">
<path d="M0,0L1440,0L1440,810L0,810Z" style="fill:#FFFFFF" />
<text x="743.67" y="-5.355" transform="scale(1, -1)"
	style="font-family:Times;font-weight:normal;font-style:normal;font-size:12pt">X</text>
<text x="58.175" y="-19.025" transform="scale(1, -1)"
	style="font-family:Times;font-weight:normal;font-style:normal;font-size:10pt">0</text>
<text x="469.8" y="-19.025" transform="scale(1, -1)"
	style="font-family:Times;font-weight:normal;font-style:normal;font-size:10pt">60</text>
<text x="881.42" y="-19.025" transform="scale(1, -1)"
	style="font-family:Times;font-weight:normal;font-style:normal;font-size:10pt">120</text>
<text x="1296.2" y="-19.025" transform="scale(1, -1)"
	style="font-family:Times;font-weight:normal;font-style:normal;font-size:10pt">180</text>
<path d="M61.3,29.625L61.3,39.625" style="fill:none;stroke:#000000;stroke-width:0.625" />
<path d="M476.05,29.625L476.05,39.625" style="fill:none;stroke:#000000;stroke-width:0.625" />
<path d="M890.79,29.625L890.79,39.625" style="fill:none;stroke:#000000;stroke-width:0.625" />
<path d="M1305.5,29.625L1305.5,39.625" style="fill:none;stroke:#000000;stroke-width:0.625" />
<path d="M199.55,34.625L199.55,39.625" style="fill:none;stroke:#000000;stroke-width:0.625" />
<path d="M337.8,34.625L337.8,39.625" style="fill:none;stroke:#000000;stroke-width:0.625" />
<path d="M614.29,34.625L614.29,39.625" style="fill:none;stroke:#000000;stroke-width:0.625" />
<path d="M752.54,34.625L752.54,39.625" style="fill:none;stroke:#000000;stroke-width:0.625" />
<path d="M1029,34.625L1029,39.625" style="fill:none;stroke:#000000;stroke-width:0.625" />
<path d="M1167.3,34.625L1167.3,39.625" style="fill:none;stroke:#000000;stroke-width:0.625" />
<path d="M61.3,39.625L1436.9,39.625" style="fill:none;stroke:#000000;stroke-width:0.625" />
<g transform="rotate(90)">
<text x="422.68" y="12.72" transform="scale(1, -1)"
	style="font-family:Times;font-weight:normal;font-style:normal;font-size:12pt">Y</text>
</g>
<text x="18.075" y="-86.406" transform="scale(1, -1)"
	style="font-family:Times;font-weight:normal;font-style:normal;font-size:10pt">-0.8</text>
<text x="31.613" y="-291.32" transform="scale(1, -1)"
	style="font-family:Times;font-weight:normal;font-style:normal;font-size:10pt">0</text>
<text x="22.237" y="-496.24" transform="scale(1, -1)"
	style="font-family:Times;font-weight:normal;font-style:normal;font-size:10pt">0.8</text>
<text x="22.237" y="-701.16" transform="scale(1, -1)"
	style="font-family:Times;font-weight:normal;font-style:normal;font-size:10pt">1.6</text>
<path d="M40.987,91.231L50.987,91.231" style="fill:none;stroke:#000000;stroke-width:0.625" />
<path d="M40.987,296.15L50.987,296.15" style="fill:none;stroke:#000000;stroke-width:0.625" />
<path d="M40.987,501.07L50.987,501.07" style="fill:none;stroke:#000000;stroke-width:0.625" />
<path d="M40.987,705.98L50.987,705.98" style="fill:none;stroke:#000000;stroke-width:0.625" />
<path d="M45.987,91.231L50.987,91.231" style="fill:none;stroke:#000000;stroke-width:0.625" />
<path d="M45.987,193.69L50.987,193.69" style="fill:none;stroke:#000000;stroke-width:0.625" />
<path d="M45.987,296.15L50.987,296.15" style="fill:none;stroke:#000000;stroke-width:0.625" />
<path d="M45.987,398.61L50.987,398.61" style="fill:none;stroke:#000000;stroke-width:0.625" />
<path d="M45.987,501.07L50.987,501.07" style="fill:none;stroke:#000000;stroke-width:0.625" />
<path d="M45.987,603.52L50.987,603.52" style="fill:none;stroke:#000000;stroke-width:0.625" />
<path d="M50.987,49.313L50.987,806.88" style="fill:none;stroke:#000000;stroke-width:0.625" />
<path d="M61.3,494.1L68.212,532.59L75.125,568.14L82.037,537.49L88.95,713.2L95.862,554.17L102.77,620.7L109.69,652.78L116.6,683.33L123.51,774.26L130.42,589.3L137.34,757.3L144.25,691.29L151.16,501.11L158.07,675.51L164.99,673.11L171.9,611.3L178.81,413.32L185.72,417.24L192.64,285.81L199.55,429.54L206.46,243.26L213.37,393.94L220.29,260.99L227.2,154.42L234.11,218.18L241.02,283.16L247.94,237.47L254.85,246.82L261.76,127.05L268.67,275.89L275.59,280.34L282.5,328.01L289.41,218.28L296.32,299.47L303.24,454.49L310.15,388.72L317.06,314.97L323.97,517.88L330.89,477.63L337.8,678.43L344.71,672.04L351.62,663.86L358.53,660.23L365.45,650.09L372.36,744L379.27,712.18L386.18,590.91L393.1,596.81L400.01,726.83L406.92,716.69L413.83,701.43L420.75,454.62L427.66,393.95L434.57,504.08L441.48,442.98L448.4,351.39L455.31,398.37L462.22,283.18L469.13,206.34L476.05,316.95L482.96,221.55L489.87,156.3L496.78,276.84L503.7,177.78L510.61,214.79L517.52,304.07L524.43,68.735L531.35,313.18L538.26,335.24L545.17,318.45L552.08,341.42L559,244.48L565.91,512.11L572.82,337.68L579.73,522.19L586.65,529.79L593.56,609.61L600.47,608.52L607.38,586.7L614.29,589.29L621.21,546.61L628.12,764.96L635.03,578.69L641.94,616.87L648.86,786.57L655.77,711.38L662.68,577.31L669.59,461.68L676.51,491L683.42,531.9L690.33,459.63L697.24,517.79L704.16,405.24L711.07,345.11L717.98,211.87L724.89,280.98L731.81,173.37L738.72,198.94L745.63,79.972L752.54,149.25L759.46,249.71L766.37,184.98L773.28,269.34L780.19,306.8L787.11,129.01L794.02,301.18L800.93,212.09L807.84,327.55L814.76,426.32L821.67,465.92L828.58,425.25L835.49,469.42L842.41,600.59L849.32,484.24L856.23,640.89L863.14,709.45L870.06,686.11L876.97,574.03L883.88,623.75L890.79,656.04L897.7,717.32L904.62,591.88L911.53,738.16L918.44,708.34L925.35,551.19L932.27,422.46L939.18,456.36L946.09,402.26L953,293.64L959.92,403.45L966.83,443.58L973.74,382.92L980.65,221.14L987.57,214.48L994.48,155.58L1001.4,262.47L1008.3,49.313L1015.2,95.402L1022.1,268.41L1029,62.602L1036,179.35L1042.9,346.77L1049.8,201.05L1056.7,169.55L1063.6,198.01L1070.5,452.03L1077.4,507.96L1084.3,539.14L1091.3,441.66L1098.2,639.69L1105.1,474.41L1112,676.72L1118.9,551.69L1125.8,684.28L1132.7,668.82L1139.6,684.47L1146.6,806.88L1153.5,765.59L1160.4,678.47L1167.3,610.28L1174.2,720.38L1181.1,469.68L1188,544.08L1194.9,461.26L1201.9,379.12L1208.8,472.73L1215.7,472.92L1222.6,284.21L1229.5,219.47L1236.4,154.05L1243.3,272.6L1250.2,201.72L1257.2,180.97L1264.1,261.01L1271,143.14L1277.9,105.66L1284.8,265.05L1291.7,294.84L1298.6,149.72L1305.5,341.97L1312.5,324.7L1319.4,263.5L1326.3,345.54L1333.2,293.39L1340.1,529.52L1347,589.27L1353.9,614.18L1360.8,506.59L1367.8,550.86L1374.7,541.34L1381.6,756.74L1388.5,763.41L1395.4,781.96L1402.3,556.98L1409.2,728.24L1416.1,752.43L1423.1,740.86L1430,730.59L1436.9,492.51" style="fill:none;stroke:#F15A60;stroke-width:1.25" />
<path d="M64.425,494.1A3.125,3.125 0 1 1 58.175,494.1A3.125,3.125 0 1 1 64.425,494.1Z" style="fill:none;stroke:#F15A60;stroke-width:0.625" />
<path d="M71.337,532.59A3.125,3.125 0 1 1 65.087,532.59A3.125,3.125 0 1 1 71.337,532.59Z" style="fill:none;stroke:#F15A60;stroke-width:0.625" />
<path d="M78.25,568.14A3.125,3.125 0 1 1 72,568.14A3.125,3.125 0 1 1 78.25,568.14Z" style="fill:none;stroke:#F15A60;stroke-width:0.625" />
<path d="M85.162,537.49A3.125,3.125 0 1 1 78.912,537.49A3.125,3.125 0 1 1 85.162,537.49Z" style="fill:none;stroke:#F15A60;stroke-width:0.625" />
<path d="M92.075,713.2A3.125,3.125 0 1 1 85.825,713.2A3.125,3.125 0 1 1 92.075,713.2Z" style="fill:none;stroke:#F15A60;stroke-width:0.625" />
<path d="M98.987,554.17L98.987,554.17A3.125,3.125 0 1 1 92.737,554.17A3.125,3.125 0 1 1 98.987,554.17Z" style="fill:none;stroke:#F15A60;stroke-width:0.625" />
<path d="M105.9,620.7L105.9,620.7A3.125,3.125 0 1 1 99.65,620.7A3.125,3.125 0 1 1 105.9,620.7Z" style="fill:none;stroke:#F15A60;stroke-width:0.625" />
<path d="M112.81,652.78L112.81,652.78A3.125,3.125 0 1 1 106.56,652.78A3.125,3.125 0 1 1 112.81,652.78Z" style="fill:none;stroke:#F15A60;stroke-width:0.625" />
<path d="M119.72,683.33L119.72,683.33A3.125,3.125 0 1 1 113.47,683.33A3.125,3.125 0 1 1 119.72,683.33Z" style="fill:none;stroke:#F15A60;stroke-width:0.625" />
<path d="M126.64,774.26L126.64,774.26A3.125,3.125 0 1 1 120.39,774.26A3.125,3.125 0 1 1 126.64,774.26Z" style="fill:none;stroke:#F15A60;stroke-width:0.625" />
<path d="M133.55,589.3L133.55,589.3A3.125,3.125 0 1 1 127.3,589.3A3.125,3.125 0 1 1 133.55,589.3Z" style="fill:none;stroke:#F15A60;stroke-width:0.625" />
<path d="M140.46,757.3A3.125,3.125 0 1 1 134.21,757.3A3.125,3.125 0 1 1 140.46,757.3Z" style="fill:none;stroke:#F15A60;stroke-width:0.625" />
<path d="M147.37,691.29A3.125,3.125 0 1 1 141.12,691.29A3.125,3.125 0 1 1 147.37,691.29Z" style="fill:none;stroke:#F15A60;stroke-width:0.625" />
<path d="M154.29,501.11A3.125,3.125 0 1 1 148.04,501.11A3.125,3.125 0 1 1 154.29,501.11Z" style="fill:none;stroke:#F15A60;stroke-width:0.625" />
<path d="M161.2,675.51L161.2,675.51A3.125,3.125 0 1 1 154.95,675.51A3.125,3.125 0 1 1 161.2,675.51Z" style="fill:none;stroke:#F15A60;stroke-width:0.625" />
<path d="M168.11,673.11A3.125,3.125 0 1 1 161.86,673.11A3.125,3.125 0 1 1 168.11,673.11Z" style="fill:none;stroke:#F15A60;stroke-width:0.625" />
<path d="M175.02,611.3L175.02,611.3A3.125,3.125 0 1 1 168.77,611.3A3.125,3.125 0 1 1 175.02,611.3Z" style="fill:none;stroke:#F15A60;stroke-width:0.625" />
<path d="M181.94,413.32A3.125,3.125 0 1 1 175.69,413.32A3.125,3.125 0 1 1 181.94,413.32Z" style="fill:none;stroke:#F15A60;stroke-width:0.625" />
<path d="M188.85,417.24A3.125,3.125 0 1 1 182.6,417.24A3.125,3.125 0 1 1 188.85,417.24Z" style="fill:none;stroke:#F15A60;stroke-width:0.625" />
<path d="M195.76,285.81L195.76,285.81A3.125,3.125 0 1 1 189.51,285.81A3.125,3.125 0 1 1 195.76,285.81Z" style="fill:none;stroke:#F15A60;stroke-width:0.625" />
<path d="M202.67,429.54A3.125,3.125 0 1 1 196.42,429.54A3.125,3.125 0 1 1 202.67,429.54Z" style="fill:none;stroke:#F15A60;stroke-width:0.625" />
<path d="M209.59,243.26A3.125,3.125 0 1 1 203.34,243.26A3.125,3.125 0 1 1 209.59,243.26Z" style="fill:none;stroke:#F15A60;stroke-width:0.625" />
<path d="M216.5,393.94A3.125,3.125 0 1 1 210.25,393.94A3.125,3.125 0 1 1 216.5,393.94Z" style="fill:none;stroke:#F15A60;stroke-width:0.625" />
<path d="M223.41,260.99L223.41,260.99A3.125,3.125 0 1 1 217.16,260.99A3.125,3.125 0 1 1 223.41,260.99Z" style="fill:none;stroke:#F15A60;stroke-width:0.625" />
<path d="M230.32,154.42L230.32,154.42A3.125,3.125 0 1 1 224.07,154.42A3.125,3.125 0 1 1 230.32,154.42Z" style="fill:none;stroke:#F15A60;stroke-width:0.625" />
<path d="M237.24,218.18A3.125,3.125 0 1 1 230.99,218.18A3.125,3.125 0 1 1 237.24,218.18Z" style="fill:none;stroke:#F15A60;stroke-width:0.625" />
<path d="M244.15,283.16L244.15,283.16A3.125,3.125 0 1 1 237.9,283.16A3.125,3.125 0 1 1 244.15,283.16Z" style="fill:none;stroke:#F15A60;stroke-width:0.625" />
<path d="M251.06,237.47A3.125,3.125 0 1 1 244.81,237.47A3.125,3.125 0 1 1 251.06,237.47Z" style="fill:none;stroke:#F15A60;stroke-width:0.625" />
<path d="M257.97,246.82A3.125,3.125 0 1 1 251.72,246.82A3.125,3.125 0 1 1 257.97,246.82Z" style="fill:none;stroke:#F15A60;stroke-width:0.625" />
<path d="M264.89,127.05A3.125,3.125 0 1 1 258.64,127.05A3.125,3.125 0 1 1 264.89,127.05Z" style="fill:none;stroke:#F15A60;stroke-width:0.625" />
<path d="M271.8,275.89A3.125,3.125 0 1 1 265.55,275.89A3.125,3.125 0 1 1 271.8,275.89Z" style="fill:none;stroke:#F15A60;stroke-width:0.625" />
<path d="M278.71,280.34A3.125,3.125 0 1 1 272.46,280.34A3.125,3.125 0 1 1 278.71,280.34Z" style="fill:none;stroke:#F15A60;stroke-width:0.625" />
<path d="M285.62,328.01L285.62,328.01A3.125,3.125 0 1 1 279.37,328.01A3.125,3.125 0 1 1 285.62,328.01Z" style="fill:none;stroke:#F15A60;stroke-width:0.625" />
<path d="M292.54,218.28A3.125,3.125 0 1 1 286.29,218.28A3.125,3.125 0 1 1 292.54,218.28Z" style="fill:none;stroke:#F15A60;stroke-width:0.625" />
<path d="M299.45,299.47A3.125,3.125 0 1 1 293.2,299.47A3.125,3.125 0 1 1 299.45,299.47Z" style="fill:none;stroke:#F15A60;stroke-width:0.625" />
<path d="M306.36,454.49A3.125,3.125 0 1 1 300.11,454.49A3.125,3.125 0 1 1 306.36,454.49Z" style="fill:none;stroke:#F15A60;stroke-width:0.625" />
<path d="M313.27,388.72A3.125,3.125 0 1 1 307.02,388.72A3.125,3.125 0 1 1 313.27,388.72Z" style="fill:none;stroke:#F15A60;stroke-width:0.625" />
<path d="M320.19,314.97A3.125,3.125 0 1 1 313.94,314.97A3.125,3.125 0 1 1 320.19,314.97Z" style="fill:none;stroke:#F15A60;stroke-width:0.625" />
<path d="M327.1,517.88L327.1,517.88A3.125,3.125 0 1 1 320.85,517.88A3.125,3.125 0 1 1 327.1,517.88Z" style="fill:none;stroke:#F15A60;stroke-width:0.625" />
<path d="M334.01,477.63L334.01,477.63A3.125,3.125 0 1 1 327.76,477.63A3.125,3.125 0 1 1 334.01,477.63Z" style="fill:none;stroke:#F15A60;stroke-width:0.625" />
<path d="M340.92,678.43A3.125,3.125 0 1 1 334.67,678.43A3.125,3.125 0 1 1 340.92,678.43Z" style="fill:none;stroke:#F15A60;stroke-width:0.625" />
<path d="M347.83,672.04A3.125,3.125 0 1 1 341.58,672.04A3.125,3.125 0 1 1 347.83,672.04Z" style="fill:none;stroke:#F15A60;stroke-width:0.625" />
<path d="M354.75,663.86A3.125,3.125 0 1 1 348.5,663.86A3.125,3.125 0 1 1 354.75,663.86Z" style="fill:none;stroke:#F15A60;stroke-width:0.625" />
<path d="M361.66,660.23L361.66,660.23A3.125,3.125 0 1 1 355.41,660.23A3.125,3.125 0 1 1 361.66,660.23Z" style="fill:none;stroke:#F15A60;stroke-width:0.625" />
<path d="M368.57,650.09A3.125,3.125 0 1 1 362.32,650.09A3.125,3.125 0 1 1 368.57,650.09Z" style="fill:none;stroke:#F15A60;stroke-width:0.625" />
<path d="M375.48,744A3.125,3.125 0 1 1 369.23,744A3.125,3.125 0 1 1 375.48,744Z" style="fill:none;stroke:#F15A60;stroke-width:0.625" />
<path d="M382.4,712.18A3.125,3.125 0 1 1 376.15,712.18A3.125,3.125 0 1 1 382.4,712.18Z" style="fill:none;stroke:#F15A60;stroke-width:0.625" />
<path d="M389.31,590.91A3.125,3.125 0 1 1 383.06,590.91A3.125,3.125 0 1 1 389.31,590.91Z" style="fill:none;stroke:#F15A60;stroke-width:0.625" />
<path d="M396.22,596.81L396.22,596.81A3.125,3.125 0 1 1 389.97,596.81A3.125,3.125 0 1 1 396.22,596.81Z" style="fill:none;stroke:#F15A60;stroke-width:0.625" />
<path d="M403.13,726.83L403.13,726.83A3.125,3.125 0 1 1 396.88,726.83A3.125,3.125 0 1 1 403.13,726.83Z" style="fill:none;stroke:#F15A60;stroke-width:0.625" />
<path d="M410.05,716.69A3.125,3.125 0 1 1 403.8,716.69A3.125,3.125 0 1 1 410.05,716.69Z" style="fill:none;stroke:#F15A60;stroke-width:0.625" />
<path d="M416.96,701.43A3.125,3.125 0 1 1 410.71,701.43A3.125,3.125 0 1 1 416.96,701.43Z" style="fill:none;stroke:#F15A60;stroke-width:0.625" />
<path d="M423.87,454.62L423.87,454.62A3.125,3.125 0 1 1 417.62,454.62A3.125,3.125 0 1 1 423.87,454.62Z" style="fill:none;stroke:#F15A60;stroke-width:0.625" />
<path d="M430.78,393.95A3.125,3.125 0 1 1 424.53,393.95A3.125,3.125 0 1 1 430.78,393.95Z" style="fill:none;stroke:#F15A60;stroke-width:0.625" />
<path d="M437.7,504.08A3.125,3.125 0 1 1 431.45,504.08A3.125,3.125 0 1 1 437.7,504.08Z" style="fill:none;stroke:#F15A60;stroke-width:0.625" />
<path d="M444.61,442.98A3.125,3.125 0 1 1 438.36,442.98A3.125,3.125 0 1 1 444.61,442.98Z" style="fill:none;stroke:#F15A60;stroke-width:0.625" />
<path d="M451.52,351.39A3.125,3.125 0 1 1 445.27,351.39A3.125,3.125 0 1 1 451.52,351.39Z" style="fill:none;stroke:#F15A60;stroke-width:0.625" />
<path d="M458.43,398.37A3.125,3.125 0 1 1 452.18,398.37A3.125,3.125 0 1 1 458.43,398.37Z" style="fill:none;stroke:#F15A60;stroke-width:0.625" />
<path d="M465.35,283.18A3.125,3.125 0 1 1 459.1,283.18A3.125,3.125 0 1 1 465.35,283.18Z" style="fill:none;stroke:#F15A60;stroke-width:0.625" />
<path d="M472.26,206.34A3.125,3.125 0 1 1 466.01,206.34A3.125,3.125 0 1 1 472.26,206.34Z" style="fill:none;stroke:#F15A60;stroke-width:0.625" />
<path d="M479.17,316.95A3.125,3.125 0 1 1 472.92,316.95A3.125,3.125 0 1 1 479.17,316.95Z" style="fill:none;stroke:#F15A60;stroke-width:0.625" />
<path d="M486.08,221.55L486.08,221.55A3.125,3.125 0 1 1 479.83,221.55A3.125,3.125 0 1 1 486.08,221.55Z" style="fill:none;stroke:#F15A60;stroke-width:0.625" />
<path d="M493,156.3L493,156.3A3.125,3.125 0 1 1 486.75,156.3A3.125,3.125 0 1 1 493,156.3Z" style="fill:none;stroke:#F15A60;stroke-width:0.625" />
<path d="M499.91,276.84A3.125,3.125 0 1 1 493.66,276.84A3.125,3.125 0 1 1 499.91,276.84Z" style="fill:none;stroke:#F15A60;stroke-width:0.625" />
<path d="M506.82,177.78A3.125,3.125 0 1 1 500.57,177.78A3.125,3.125 0 1 1 506.82,177.78Z" style="fill:none;stroke:#F15A60;stroke-width:0.625" />
<path d="M513.73,214.79A3.125,3.125 0 1 1 507.48,214.79A3.125,3.125 0 1 1 513.73,214.79Z" style="fill:none;stroke:#F15A60;stroke-width:0.625" />
<path d="M520.65,304.07A3.125,3.125 0 1 1 514.4,304.07A3.125,3.125 0 1 1 520.65,304.07Z" style="fill:none;stroke:#F15A60;stroke-width:0.625" />
<path d="M527.56,68.735A3.125,3.125 0 1 1 521.31,68.735A3.125,3.125 0 1 1 527.56,68.735Z" style="fill:none;stroke:#F15A60;stroke-width:0.625" />
<path d="M534.47,313.18A3.125,3.125 0 1 1 528.22,313.18A3.125,3.125 0 1 1 534.47,313.18Z" style="fill:none;stroke:#F15A60;stroke-width:0.625" />
<path d="M541.38,335.24A3.125,3.125 0 1 1 535.13,335.24A3.125,3.125 0 1 1 541.38,335.24Z" style="fill:none;stroke:#F15A60;stroke-width:0.625" />
<path d="M548.3,318.45A3.125,3.125 0 1 1 542.05,318.45A3.125,3.125 0 1 1 548.3,318.45Z" style="fill:none;stroke:#F15A60;stroke-width:0.625" />
<path d="M555.21,341.42A3.125,3.125 0 1 1 548.96,341.42A3.125,3.125 0 1 1 555.21,341.42Z" style="fill:none;stroke:#F15A60;stroke-width:0.625" />
<path d="M562.12,244.48A3.125,3.125 0 1 1 555.87,244.48A3.125,3.125 0 1 1 562.12,244.48Z" style="fill:none;stroke:#F15A60;stroke-width:0.625" />
<path d="M569.03,512.11A3.125,3.125 0 1 1 562.78,512.11A3.125,3.125 0 1 1 569.03,512.11Z" style="fill:none;stroke:#F15A60;stroke-width:0.625" />
<path d="M575.95,337.68A3.125,3.125 0 1 1 569.7,337.68A3.125,3.125 0 1 1 575.95,337.68Z" style="fill:none;stroke:#F15A60;stroke-width:0.625" />
<path d="M582.86,522.19A3.125,3.125 0 1 1 576.61,522.19A3.125,3.125 0 1 1 582.86,522.19Z" style="fill:none;stroke:#F15A60;stroke-width:0.625" />
<path d="M589.77,529.79A3.125,3.125 0 1 1 583.52,529.79A3.125,3.125 0 1 1 589.77,529.79Z" style="fill:none;stroke:#F15A60;stroke-width:0.625" />
<path d="M596.68,609.61A3.125,3.125 0 1 1 590.43,609.61A3.125,3.125 0 1 1 596.68,609.61Z" style="fill:none;stroke:#F15A60;stroke-width:0.625" />
<path d="M603.6,608.52A3.125,3.125 0 1 1 597.35,608.52A3.125,3.125 0 1 1 603.6,608.52Z" style="fill:none;stroke:#F15A60;stroke-width:0.625" />
<path d="M610.51,586.7L610.51,586.7A3.125,3.125 0 1 1 604.26,586.7A3.125,3.125 0 1 1 610.51,586.7Z" style="fill:none;stroke:#F15A60;stroke-width:0.625" />
<path d="M617.42,589.29A3.125,3.125 0 1 1 611.17,589.29A3.125,3.125 0 1 1 617.42,589.29Z" style="fill:none;stroke:#F15A60;stroke-width:0.625" />
<path d="M624.33,546.61A3.125,3.125 0 1 1 618.08,546.61A3.125,3.125 0 1 1 624.33,546.61Z" style="fill:none;stroke:#F15A60;stroke-width:0.625" />
<path d="M631.24,764.96A3.125,3.125 0 1 1 624.99,764.96A3.125,3.125 0 1 1 631.24,764.96Z" style="fill:none;stroke:#F15A60;stroke-width:0.625" />
<path d="M638.16,578.69A3.125,3.125 0 1 1 631.91,578.69A3.125,3.125 0 1 1 638.16,578.69Z" style="fill:none;stroke:#F15A60;stroke-width:0.625" />
<path d="M645.07,616.87A3.125,3.125 0 1 1 638.82,616.87A3.125,3.125 0 1 1 645.07,616.87Z" style="fill:none;stroke:#F15A60;stroke-width:0.625" />
<path d="M651.98,786.57A3.125,3.125 0 1 1 645.73,786.57A3.125,3.125 0 1 1 651.98,786.57Z" style="fill:none;stroke:#F15A60;stroke-width:0.625" />
<path d="M658.89,711.38A3.125,3.125 0 1 1 652.64,711.38A3.125,3.125 0 1 1 658.89,711.38Z" style="fill:none;stroke:#F15A60;stroke-width:0.625" />
<path d="M665.81,577.31A3.125,3.125 0 1 1 659.56,577.31A3.125,3.125 0 1 1 665.81,577.31Z" style="fill:none;stroke:#F15A60;stroke-width:0.625" />
<path d="M672.72,461.68L672.72,461.68A3.125,3.125 0 1 1 666.47,461.68A3.125,3.125 0 1 1 672.72,461.68Z" style="fill:none;stroke:#F15A60;stroke-width:0.625" />
<path d="M679.63,491L679.63,491A3.125,3.125 0 1 1 673.38,491A3.125,3.125 0 1 1 679.63,491Z" style="fill:none;stroke:#F15A60;stroke-width:0.625" />
<path d="M686.54,531.9A3.125,3.125 0 1 1 680.29,531.9A3.125,3.125 0 1 1 686.54,531.9Z" style="fill:none;stroke:#F15A60;stroke-width:0.625" />
<path d="M693.46,459.63A3.125,3.125 0 1 1 687.21,459.63A3.125,3.125 0 1 1 693.46,459.63Z" style="fill:none;stroke:#F15A60;stroke-width:0.625" />
<path d="M700.37,517.79A3.125,3.125 0 1 1 694.12,517.79A3.125,3.125 0 1 1 700.37,517.79Z" style="fill:none;stroke:#F15A60;stroke-width:0.625" />
<path d="M707.28,405.24A3.125,3.125 0 1 1 701.03,405.24A3.125,3.125 0 1 1 707.28,405.24Z" style="fill:none;stroke:#F15A60;stroke-width:0.625" />
<path d="M714.19,345.11A3.125,3.125 0 1 1 707.94,345.11A3.125,3.125 0 1 1 714.19,345.11Z" style="fill:none;stroke:#F15A60;stroke-width:0.625" />
<path d="M721.11,211.87A3.125,3.125 0 1 1 714.86,211.87A3.125,3.125 0 1 1 721.11,211.87Z" style="fill:none;stroke:#F15A60;stroke-width:0.625" />
<path d="M728.02,280.98L728.02,280.98A3.125,3.125 0 1 1 721.77,280.98A3.125,3.125 0 1 1 728.02,280.98Z" style="fill:none;stroke:#F15A60;stroke-width:0.625" />
<path d="M734.93,173.37L734.93,173.37A3.125,3.125 0 1 1 728.68,173.37A3.125,3.125 0 1 1 734.93,173.37Z" style="fill:none;stroke:#F15A60;stroke-width:0.625" />
<path d="M741.84,198.94A3.125,3.125 0 1 1 735.59,198.94A3.125,3.125 0 1 1 741.84,198.94Z" style="fill:none;stroke:#F15A60;stroke-width:0.625" />
<path d="M748.76,79.972L748.76,79.972A3.125,3.125 0 1 1 742.51,79.972A3.125,3.125 0 1 1 748.76,79.972Z" style="fill:none;stroke:#F15A60;stroke-width:0.625" />
<path d="M755.67,149.25L755.67,149.25A3.125,3.125 0 1 1 749.42,149.25A3.125,3.125 0 1 1 755.67,149.25Z" style="fill:none;stroke:#F15A60;stroke-width:0.625" />
<path d="M762.58,249.71L762.58,249.71A3.125,3.125 0 1 1 756.33,249.71A3.125,3.125 0 1 1 762.58,249.71Z" style="fill:none;stroke:#F15A60;stroke-width:0.625" />
<path d="M769.49,184.98A3.125,3.125 0 1 1 763.24,184.98A3.125,3.125 0 1 1 769.49,184.98Z" style="fill:none;stroke:#F15A60;stroke-width:0.625" />
<path d="M776.41,269.34L776.41,269.34A3.125,3.125 0 1 1 770.16,269.34A3.125,3.125 0 1 1 776.41,269.34Z" style="fill:none;stroke:#F15A60;stroke-width:0.625" />
<path d="M783.32,306.8A3.125,3.125 0 1 1 777.07,306.8A3.125,3.125 0 1 1 783.32,306.8Z" style="fill:none;stroke:#F15A60;stroke-width:0.625" />
<path d="M790.23,129.01L790.23,129.01A3.125,3.125 0 1 1 783.98,129.01A3.125,3.125 0 1 1 790.23,129.01Z" style="fill:none;stroke:#F15A60;stroke-width:0.625" />
<path d="M797.14,301.18A3.125,3.125 0 1 1 790.89,301.18A3.125,3.125 0 1 1 797.14,301.18Z" style="fill:none;stroke:#F15A60;stroke-width:0.625" />
<path d="M804.06,212.09L804.06,212.09A3.125,3.125 0 1 1 797.81,212.09A3.125,3.125 0 1 1 804.06,212.09Z" style="fill:none;stroke:#F15A60;stroke-width:0.625" />
<path d="M810.97,327.55A3.125,3.125 0 1 1 804.72,327.55A3.125,3.125 0 1 1 810.97,327.55Z" style="fill:none;stroke:#F15A60;stroke-width:0.625" />
<path d="M817.88,426.32L817.88,426.32A3.125,3.125 0 1 1 811.63,426.32A3.125,3.125 0 1 1 817.88,426.32Z" style="fill:none;stroke:#F15A60;stroke-width:0.625" />
<path d="M824.79,465.92L824.79,465.92A3.125,3.125 0 1 1 818.54,465.92A3.125,3.125 0 1 1 824.79,465.92Z" style="fill:none;stroke:#F15A60;stroke-width:0.625" />
<path d="M831.71,425.25A3.125,3.125 0 1 1 825.46,425.25A3.125,3.125 0 1 1 831.71,425.25Z" style="fill:none;stroke:#F15A60;stroke-width:0.625" />
<path d="M838.62,469.42A3.125,3.125 0 1 1 832.37,469.42A3.125,3.125 0 1 1 838.62,469.42Z" style="fill:none;stroke:#F15A60;stroke-width:0.625" />
<path d="M845.53,600.59L845.53,600.59A3.125,3.125 0 1 1 839.28,600.59A3.125,3.125 0 1 1 845.53,600.59Z" style="fill:none;stroke:#F15A60;stroke-width:0.625" />
<path d="M852.44,484.24A3.125,3.125 0 1 1 846.19,484.24A3.125,3.125 0 1 1 852.44,484.24Z" style="fill:none;stroke:#F15A60;stroke-width:0.625" />
<path d="M859.36,640.89L859.36,640.89A3.125,3.125 0 1 1 853.11,640.89A3.125,3.125 0 1 1 859.36,640.89Z" style="fill:none;stroke:#F15A60;stroke-width:0.625" />
<path d="M866.27,709.45L866.27,709.45A3.125,3.125 0 1 1 860.02,709.45A3.125,3.125 0 1 1 866.27,709.45Z" style="fill:none;stroke:#F15A60;stroke-width:0.625" />
<path d="M873.18,686.11A3.125,3.125 0 1 1 866.93,686.11A3.125,3.125 0 1 1 873.18,686.11Z" style="fill:none;stroke:#F15A60;stroke-width:0.625" />
<path d="M880.09,574.03L880.09,574.03A3.125,3.125 0 1 1 873.84,574.03A3.125,3.125 0 1 1 880.09,574.03Z" style="fill:none;stroke:#F15A60;stroke-width:0.625" />
<path d="M887.01,623.75L887.01,623.75A3.125,3.125 0 1 1 880.76,623.75A3.125,3.125 0 1 1 887.01,623.75Z" style="fill:none;stroke:#F15A60;stroke-width:0.625" />
<path d="M893.92,656.04L893.92,656.04A3.125,3.125 0 1 1 887.67,656.04A3.125,3.125 0 1 1 893.92,656.04Z" style="fill:none;stroke:#F15A60;stroke-width:0.625" />
<path d="M900.83,717.32A3.125,3.125 0 1 1 894.58,717.32A3.125,3.125 0 1 1 900.83,717.32Z" style="fill:none;stroke:#F15A60;stroke-width:0.625" />
<path d="M907.74,591.88A3.125,3.125 0 1 1 901.49,591.88A3.125,3.125 0 1 1 907.74,591.88Z" style="fill:none;stroke:#F15A60;stroke-width:0.625" />
<path d="M914.65,738.16L914.65,738.16A3.125,3.125 0 1 1 908.4,738.16A3.125,3.125 0 1 1 914.65,738.16Z" style="fill:none;stroke:#F15A60;stroke-width:0.625" />
<path d="M921.57,708.34L921.57,708.34A3.125,3.125 0 1 1 915.32,708.34A3.125,3.125 0 1 1 921.57,708.34Z" style="fill:none;stroke:#F15A60;stroke-width:0.625" />
<path d="M928.48,551.19L928.48,551.19A3.125,3.125 0 1 1 922.23,551.19A3.125,3.125 0 1 1 928.48,551.19Z" style="fill:none;stroke:#F15A60;stroke-width:0.625" />
<path d="M935.39,422.46L935.39,422.46A3.125,3.125 0 1 1 929.14,422.46A3.125,3.125 0 1 1 935.39,422.46Z" style="fill:none;stroke:#F15A60;stroke-width:0.625" />
<path d="M942.3,456.36A3.125,3.125 0 1 1 936.05,456.36A3.125,3.125 0 1 1 942.3,456.36Z" style="fill:none;stroke:#F15A60;stroke-width:0.625" />
<path d="M949.22,402.26L949.22,402.26A3.125,3.125 0 1 1 942.97,402.26A3.125,3.125 0 1 1 949.22,402.26Z" style="fill:none;stroke:#F15A60;stroke-width:0.625" />
<path d="M956.13,293.64L956.13,293.64A3.125,3.125 0 1 1 949.88,293.64A3.125,3.125 0 1 1 956.13,293.64Z" style="fill:none;stroke:#F15A60;stroke-width:0.625" />
<path d="M963.04,403.45L963.04,403.45A3.125,3.125 0 1 1 956.79,403.45A3.125,3.125 0 1 1 963.04,403.45Z" style="fill:none;stroke:#F15A60;stroke-width:0.625" />
<path d="M969.95,443.58A3.125,3.125 0 1 1 963.7,443.58A3.125,3.125 0 1 1 969.95,443.58Z" style="fill:none;stroke:#F15A60;stroke-width:0.625" />
<path d="M976.87,382.92L976.87,382.92A3.125,3.125 0 1 1 970.62,382.92A3.125,3.125 0 1 1 976.87,382.92Z" style="fill:none;stroke:#F15A60;stroke-width:0.625" />
<path d="M983.78,221.14L983.78,221.14A3.125,3.125 0 1 1 977.53,221.14A3.125,3.125 0 1 1 983.78,221.14Z" style="fill:none;stroke:#F15A60;stroke-width:0.625" />
<path d="M990.69,214.48L990.69,214.48A3.125,3.125 0 1 1 984.44,214.48A3.125,3.125 0 1 1 990.69,214.48Z" style="fill:none;stroke:#F15A60;stroke-width:0.625" />
<path d="M997.6,155.58L997.6,155.58A3.125,3.125 0 1 1 991.35,155.58A3.125,3.125 0 1 1 997.6,155.58Z" style="fill:none;stroke:#F15A60;stroke-width:0.625" />
<path d="M1004.5,262.47L1004.5,262.47A3.125,3.125 0 1 1 998.27,262.47A3.125,3.125 0 1 1 1004.5,262.47Z" style="fill:none;stroke:#F15A60;stroke-width:0.625" />
<path d="M1011.4,49.313L1011.4,49.313A3.125,3.125 0 1 1 1005.2,49.313A3.125,3.125 0 1 1 1011.4,49.313Z" style="fill:none;stroke:#F15A60;stroke-width:0.625" />
<path d="M1018.3,95.402L1018.3,95.402A3.125,3.125 0 1 1 1012.1,95.402A3.125,3.125 0 1 1 1018.3,95.402Z" style="fill:none;stroke:#F15A60;stroke-width:0.625" />
<path d="M1025.3,268.41A3.125,3.125 0 1 1 1019,268.41A3.125,3.125 0 1 1 1025.3,268.41Z" style="fill:none;stroke:#F15A60;stroke-width:0.625" />
<path d="M1032.2,62.602L1032.2,62.602A3.125,3.125 0 1 1 1025.9,62.602A3.125,3.125 0 1 1 1032.2,62.602Z" style="fill:none;stroke:#F15A60;stroke-width:0.625" />
<path d="M1039.1,179.35A3.125,3.125 0 1 1 1032.8,179.35A3.125,3.125 0 1 1 1039.1,179.35Z" style="fill:none;stroke:#F15A60;stroke-width:0.625" />
<path d="M1046,346.77A3.125,3.125 0 1 1 1039.7,346.77A3.125,3.125 0 1 1 1046,346.77Z" style="fill:none;stroke:#F15A60;stroke-width:0.625" />
<path d="M1052.9,201.05L1052.9,201.05A3.125,3.125 0 1 1 1046.7,201.05A3.125,3.125 0 1 1 1052.9,201.05Z" style="fill:none;stroke:#F15A60;stroke-width:0.625" />
<path d="M1059.8,169.55A3.125,3.125 0 1 1 1053.6,169.55A3.125,3.125 0 1 1 1059.8,169.55Z" style="fill:none;stroke:#F15A60;stroke-width:0.625" />
<path d="M1066.7,198.01L1066.7,198.01A3.125,3.125 0 1 1 1060.5,198.01A3.125,3.125 0 1 1 1066.7,198.01Z" style="fill:none;stroke:#F15A60;stroke-width:0.625" />
<path d="M1073.6,452.03A3.125,3.125 0 1 1 1067.4,452.03A3.125,3.125 0 1 1 1073.6,452.03Z" style="fill:none;stroke:#F15A60;stroke-width:0.625" />
<path d="M1080.6,507.96A3.125,3.125 0 1 1 1074.3,507.96A3.125,3.125 0 1 1 1080.6,507.96Z" style="fill:none;stroke:#F15A60;stroke-width:0.625" />
<path d="M1087.5,539.14A3.125,3.125 0 1 1 1081.2,539.14A3.125,3.125 0 1 1 1087.5,539.14Z" style="fill:none;stroke:#F15A60;stroke-width:0.625" />
<path d="M1094.4,441.66A3.125,3.125 0 1 1 1088.1,441.66A3.125,3.125 0 1 1 1094.4,441.66Z" style="fill:none;stroke:#F15A60;stroke-width:0.625" />
<path d="M1101.3,639.69A3.125,3.125 0 1 1 1095,639.69A3.125,3.125 0 1 1 1101.3,639.69Z" style="fill:none;stroke:#F15A60;stroke-width:0.625" />
<path d="M1108.2,474.41L1108.2,474.41A3.125,3.125 0 1 1 1102,474.41A3.125,3.125 0 1 1 1108.2,474.41Z" style="fill:none;stroke:#F15A60;stroke-width:0.625" />
<path d="M1115.1,676.72A3.125,3.125 0 1 1 1108.9,676.72A3.125,3.125 0 1 1 1115.1,676.72Z" style="fill:none;stroke:#F15A60;stroke-width:0.625" />
<path d="M1122,551.69A3.125,3.125 0 1 1 1115.8,551.69A3.125,3.125 0 1 1 1122,551.69Z" style="fill:none;stroke:#F15A60;stroke-width:0.625" />
<path d="M1128.9,684.28A3.125,3.125 0 1 1 1122.7,684.28A3.125,3.125 0 1 1 1128.9,684.28Z" style="fill:none;stroke:#F15A60;stroke-width:0.625" />
<path d="M1135.9,668.82L1135.9,668.82A3.125,3.125 0 1 1 1129.6,668.82A3.125,3.125 0 1 1 1135.9,668.82Z" style="fill:none;stroke:#F15A60;stroke-width:0.625" />
<path d="M1142.8,684.47A3.125,3.125 0 1 1 1136.5,684.47A3.125,3.125 0 1 1 1142.8,684.47Z" style="fill:none;stroke:#F15A60;stroke-width:0.625" />
<path d="M1149.7,806.88A3.125,3.125 0 1 1 1143.4,806.88A3.125,3.125 0 1 1 1149.7,806.88Z" style="fill:none;stroke:#F15A60;stroke-width:0.625" />
<path d="M1156.6,765.59A3.125,3.125 0 1 1 1150.3,765.59A3.125,3.125 0 1 1 1156.6,765.59Z" style="fill:none;stroke:#F15A60;stroke-width:0.625" />
<path d="M1163.5,678.47L1163.5,678.47A3.125,3.125 0 1 1 1157.3,678.47A3.125,3.125 0 1 1 1163.5,678.47Z" style="fill:none;stroke:#F15A60;stroke-width:0.625" />
<path d="M1170.4,610.28A3.125,3.125 0 1 1 1164.2,610.28A3.125,3.125 0 1 1 1170.4,610.28Z" style="fill:none;stroke:#F15A60;stroke-width:0.625" />
<path d="M1177.3,720.38A3.125,3.125 0 1 1 1171.1,720.38A3.125,3.125 0 1 1 1177.3,720.38Z" style="fill:none;stroke:#F15A60;stroke-width:0.625" />
<path d="M1184.2,469.68L1184.2,469.68A3.125,3.125 0 1 1 1178,469.68A3.125,3.125 0 1 1 1184.2,469.68Z" style="fill:none;stroke:#F15A60;stroke-width:0.625" />
<path d="M1191.2,544.08L1191.2,544.08A3.125,3.125 0 1 1 1184.9,544.08A3.125,3.125 0 1 1 1191.2,544.08Z" style="fill:none;stroke:#F15A60;stroke-width:0.625" />
<path d="M1198.1,461.26L1198.1,461.26A3.125,3.125 0 1 1 1191.8,461.26A3.125,3.125 0 1 1 1198.1,461.26Z" style="fill:none;stroke:#F15A60;stroke-width:0.625" />
<path d="M1205,379.12A3.125,3.125 0 1 1 1198.7,379.12A3.125,3.125 0 1 1 1205,379.12Z" style="fill:none;stroke:#F15A60;stroke-width:0.625" />
<path d="M1211.9,472.73A3.125,3.125 0 1 1 1205.6,472.73A3.125,3.125 0 1 1 1211.9,472.73Z" style="fill:none;stroke:#F15A60;stroke-width:0.625" />
<path d="M1218.8,472.92A3.125,3.125 0 1 1 1212.6,472.92A3.125,3.125 0 1 1 1218.8,472.92Z" style="fill:none;stroke:#F15A60;stroke-width:0.625" />
<path d="M1225.7,284.21A3.125,3.125 0 1 1 1219.5,284.21A3.125,3.125 0 1 1 1225.7,284.21Z" style="fill:none;stroke:#F15A60;stroke-width:0.625" />
<path d="M1232.6,219.47A3.125,3.125 0 1 1 1226.4,219.47A3.125,3.125 0 1 1 1232.6,219.47Z" style="fill:none;stroke:#F15A60;stroke-width:0.625" />
<path d="M1239.5,154.05A3.125,3.125 0 1 1 1233.3,154.05A3.125,3.125 0 1 1 1239.5,154.05Z" style="fill:none;stroke:#F15A60;stroke-width:0.625" />
<path d="M1246.5,272.6A3.125,3.125 0 1 1 1240.2,272.6A3.125,3.125 0 1 1 1246.5,272.6Z" style="fill:none;stroke:#F15A60;stroke-width:0.625" />
<path d="M1253.4,201.72A3.125,3.125 0 1 1 1247.1,201.72A3.125,3.125 0 1 1 1253.4,201.72Z" style="fill:none;stroke:#F15A60;stroke-width:0.625" />
<path d="M1260.3,180.97L1260.3,180.97A3.125,3.125 0 1 1 1254,180.97A3.125,3.125 0 1 1 1260.3,180.97Z" style="fill:none;stroke:#F15A60;stroke-width:0.625" />
<path d="M1267.2,261.01L1267.2,261.01A3.125,3.125 0 1 1 1260.9,261.01A3.125,3.125 0 1 1 1267.2,261.01Z" style="fill:none;stroke:#F15A60;stroke-width:0.625" />
<path d="M1274.1,143.14L1274.1,143.14A3.125,3.125 0 1 1 1267.9,143.14A3.125,3.125 0 1 1 1274.1,143.14Z" style="fill:none;stroke:#F15A60;stroke-width:0.625" />
<path d="M1281,105.66A3.125,3.125 0 1 1 1274.8,105.66A3.125,3.125 0 1 1 1281,105.66Z" style="fill:none;stroke:#F15A60;stroke-width:0.625" />
<path d="M1287.9,265.05A3.125,3.125 0 1 1 1281.7,265.05A3.125,3.125 0 1 1 1287.9,265.05Z" style="fill:none;stroke:#F15A60;stroke-width:0.625" />
<path d="M1294.8,294.84L1294.8,294.84A3.125,3.125 0 1 1 1288.6,294.84A3.125,3.125 0 1 1 1294.8,294.84Z" style="fill:none;stroke:#F15A60;stroke-width:0.625" />
<path d="M1301.8,149.72A3.125,3.125 0 1 1 1295.5,149.72A3.125,3.125 0 1 1 1301.8,149.72Z" style="fill:none;stroke:#F15A60;stroke-width:0.625" />
<path d="M1308.7,341.97A3.125,3.125 0 1 1 1302.4,341.97A3.125,3.125 0 1 1 1308.7,341.97Z" style="fill:none;stroke:#F15A60;stroke-width:0.625" />
<path d="M1315.6,324.7L1315.6,324.7A3.125,3.125 0 1 1 1309.3,324.7A3.125,3.125 0 1 1 1315.6,324.7Z" style="fill:none;stroke:#F15A60;stroke-width:0.625" />
<path d="M1322.5,263.5L1322.5,263.5A3.125,3.125 0 1 1 1316.2,263.5A3.125,3.125 0 1 1 1322.5,263.5Z" style="fill:none;stroke:#F15A60;stroke-width:0.625" />
<path d="M1329.4,345.54A3.125,3.125 0 1 1 1323.2,345.54A3.125,3.125 0 1 1 1329.4,345.54Z" style="fill:none;stroke:#F15A60;stroke-width:0.625" />
<path d="M1336.3,293.39A3.125,3.125 0 1 1 1330.1,293.39A3.125,3.125 0 1 1 1336.3,293.39Z" style="fill:none;stroke:#F15A60;stroke-width:0.625" />
<path d="M1343.2,529.52L1343.2,529.52A3.125,3.125 0 1 1 1337,529.52A3.125,3.125 0 1 1 1343.2,529.52Z" style="fill:none;stroke:#F15A60;stroke-width:0.625" />
<path d="M1350.1,589.27A3.125,3.125 0 1 1 1343.9,589.27A3.125,3.125 0 1 1 1350.1,589.27Z" style="fill:none;stroke:#F15A60;stroke-width:0.625" />
<path d="M1357.1,614.18A3.125,3.125 0 1 1 1350.8,614.18A3.125,3.125 0 1 1 1357.1,614.18Z" style="fill:none;stroke:#F15A60;stroke-width:0.625" />
<path d="M1364,506.59L1364,506.59A3.125,3.125 0 1 1 1357.7,506.59A3.125,3.125 0 1 1 1364,506.59Z" style="fill:none;stroke:#F15A60;stroke-width:0.625" />
<path d="M1370.9,550.86A3.125,3.125 0 1 1 1364.6,550.86A3.125,3.125 0 1 1 1370.9,550.86Z" style="fill:none;stroke:#F15A60;stroke-width:0.625" />
<path d="M1377.8,541.34A3.125,3.125 0 1 1 1371.5,541.34A3.125,3.125 0 1 1 1377.8,541.34Z" style="fill:none;stroke:#F15A60;stroke-width:0.625" />
<path d="M1384.7,756.74A3.125,3.125 0 1 1 1378.5,756.74A3.125,3.125 0 1 1 1384.7,756.74Z" style="fill:none;stroke:#F15A60;stroke-width:0.625" />
<path d="M1391.6,763.41A3.125,3.125 0 1 1 1385.4,763.41A3.125,3.125 0 1 1 1391.6,763.41Z" style="fill:none;stroke:#F15A60;stroke-width:0.625" />
<path d="M1398.5,781.96L1398.5,781.96A3.125,3.125 0 1 1 1392.3,781.96A3.125,3.125 0 1 1 1398.5,781.96Z" style="fill:none;stroke:#F15A60;stroke-width:0.625" />
<path d="M1405.4,556.98L1405.4,556.98A3.125,3.125 0 1 1 1399.2,556.98A3.125,3.125 0 1 1 1405.4,556.98Z" style="fill:none;stroke:#F15A60;stroke-width:0.625" />
<path d="M1412.4,728.24A3.125,3.125 0 1 1 1406.1,728.24A3.125,3.125 0 1 1 1412.4,728.24Z" style="fill:none;stroke:#F15A60;stroke-width:0.625" />
<path d="M1419.3,752.43A3.125,3.125 0 1 1 1413,752.43A3.125,3.125 0 1 1 1419.3,752.43Z" style="fill:none;stroke:#F15A60;stroke-width:0.625" />
<path d="M1426.2,740.86L1426.2,740.86A3.125,3.125 0 1 1 1419.9,740.86A3.125,3.125 0 1 1 1426.2,740.86Z" style="fill:none;stroke:#F15A60;stroke-width:0.625" />
<path d="M1433.1,730.59A3.125,3.125 0 1 1 1426.8,730.59A3.125,3.125 0 1 1 1433.1,730.59Z" style="fill:none;stroke:#F15A60;stroke-width:0.625" />
<path d="M1440,492.51A3.125,3.125 0 1 1 1433.8,492.51A3.125,3.125 0 1 1 1440,492.51Z" style="fill:none;stroke:#F15A60;stroke-width:0.625" />
<path d="M61.3,466.35L68.212,534.47L75.125,559.25L82.037,589.48L88.95,620.68L95.862,652.72L102.77,656.54L109.69,652.89L116.6,665.22L123.51,671.31L130.42,655.98L137.34,655.62L144.25,660.27L151.16,609.58L158.07,534.98L164.99,518.41L171.9,487.4L178.81,467.43L185.72,397.38L192.64,360.35L199.55,308.01L206.46,286.67L213.37,271.17L220.29,287.31L227.2,223.44L234.11,214.75L241.02,246.92L247.94,258.03L254.85,257.06L261.76,244.95L268.67,285.54L275.59,325.46L282.5,341.91L289.41,337.56L296.32,399.75L303.24,458.04L310.15,504.64L317.06,528.33L323.97,562.84L330.89,594.89L337.8,648.2L344.71,673.79L351.62,671.78L358.53,652.28L365.45,659.17L372.36,694.08L379.27,681.23L386.18,631.3L393.1,566.47L400.01,569.28L406.92,534.23L413.83,452.71L420.75,405.61L427.66,376.59L434.57,343.28L441.48,323.97L448.4,295.87L455.31,253.17L462.22,243.99L469.13,240.08L476.05,221.45L482.96,221.75L489.87,213.5L496.78,238.63L503.7,269.16L510.61,270.84L517.52,266.48L524.43,300.31L531.35,355.23L538.26,375.47L545.17,409.06L552.08,438.55L559,505.77L565.91,538.65L572.82,564.09L579.73,594.61L586.65,624.9L593.56,619.14L600.47,626.67L607.38,654.76L614.29,660.61L621.21,608.31L628.12,588.92L635.03,598.4L641.94,589.39L648.86,540.85L655.77,493.3L662.68,449.83L669.59,416L676.51,374.06L683.42,356.38L690.33,302.71L697.24,256.06L704.16,207.59L711.07,204.2L717.98,204.31L724.89,191.01L731.81,208.7L738.72,208.46L745.63,234.14L752.54,261.67L759.46,292.79L766.37,312.15L773.28,345.13L780.19,359.66L787.11,408.83L794.02,467.38L800.93,499.64L807.84,538.72L814.76,576.07L821.67,595.31L828.58,587.93L835.49,626.85L842.41,655.17L849.32,667.33L856.23,645.69L863.14,655.94L870.06,647.72L876.97,613.15L883.88,565.79L890.79,523.1L897.7,467.92L904.62,436.14L911.53,415.15L918.44,368.98L925.35,311.62L932.27,302.49L939.18,288.81L946.09,264.95L953,203.15L959.92,175.6L966.83,179.77L973.74,171.7L980.65,161.8L987.57,192.61L994.48,192.27L1001.4,185.08L1008.3,239.41L1015.2,323.12L1022.1,351.05L1029,366.87L1036,386.47L1042.9,473.49L1049.8,512.42L1056.7,563.38L1063.6,603.65L1070.5,618.08L1077.4,659.89L1084.3,677.79L1091.3,693.82L1098.2,681.97L1105.1,676.19L1112,687.39L1118.9,641.93L1125.8,600.54L1132.7,559.91L1139.6,532.7L1146.6,492.55L1153.5,461.2L1160.4,384.71L1167.3,338.34L1174.2,323.29L1181.1,315.11L1188,269.65L1194.9,225.92L1201.9,204.43L1208.8,198.6L1215.7,192.79L1222.6,228.97L1229.5,207.85L1236.4,230.27L1243.3,263.65L1250.2,270.76L1257.2,288.83L1264.1,336.21L1271,394.87L1277.9,430.58L1284.8,449.97L1291.7,456.54L1298.6,521.01L1305.5,578.34L1312.5,639.33L1319.4,640.79L1326.3,640.37L1333.2,633.01L1340.1,693.73L1347,725.45L1353.9,726.72L1360.8,699.69L1367.8,713.04L1374.7,719.22L1381.6,728.24" style="fill:none;stroke:#7AC36A;stroke-width:1.25;stroke-dasharray:7.5,2.5" />
<path d="M58.633,463.68L63.967,463.68L63.967,469.02L58.633,469.02Z" style="fill:none;stroke:#7AC36A;stroke-width:0.625" />
<path d="M65.545,531.81L70.88,531.81L70.88,537.14L65.545,537.14Z" style="fill:none;stroke:#7AC36A;stroke-width:0.625" />
<path d="M72.458,556.58L77.792,556.58L77.792,561.92L72.458,561.92Z" style="fill:none;stroke:#7AC36A;stroke-width:0.625" />
<path d="M79.37,586.81L84.705,586.81L84.705,592.14L79.37,592.14Z" style="fill:none;stroke:#7AC36A;stroke-width:0.625" />
<path d="M86.282,618.01L91.617,618.01L91.617,623.34L86.282,623.34Z" style="fill:none;stroke:#7AC36A;stroke-width:0.625" />
<path d="M93.195,650.05L98.53,650.05L98.53,655.39L93.195,655.39Z" style="fill:none;stroke:#7AC36A;stroke-width:0.625" />
<path d="M100.11,653.88L105.44,653.88L105.44,659.21L100.11,659.21Z" style="fill:none;stroke:#7AC36A;stroke-width:0.625" />
<path d="M107.02,650.22L112.35,650.22L112.35,655.55L107.02,655.55Z" style="fill:none;stroke:#7AC36A;stroke-width:0.625" />
<path d="M113.93,662.55L119.27,662.55L119.27,667.88L113.93,667.88Z" style="fill:none;stroke:#7AC36A;stroke-width:0.625" />
<path d="M120.84,668.64L126.18,668.64L126.18,673.98L120.84,673.98Z" style="fill:none;stroke:#7AC36A;stroke-width:0.625" />
<path d="M127.76,653.31L133.09,653.31L133.09,658.64L127.76,658.64Z" style="fill:none;stroke:#7AC36A;stroke-width:0.625" />
<path d="M134.67,652.95L140,652.95L140,658.28L134.67,658.28Z" style="fill:none;stroke:#7AC36A;stroke-width:0.625" />
<path d="M141.58,657.6L146.92,657.6L146.92,662.94L141.58,662.94Z" style="fill:none;stroke:#7AC36A;stroke-width:0.625" />
<path d="M148.49,606.92L153.83,606.92L153.83,612.25L148.49,612.25Z" style="fill:none;stroke:#7AC36A;stroke-width:0.625" />
<path d="M155.41,532.31L160.74,532.31L160.74,537.65L155.41,537.65Z" style="fill:none;stroke:#7AC36A;stroke-width:0.625" />
<path d="M162.32,515.75L167.65,515.75L167.65,521.08L162.32,521.08Z" style="fill:none;stroke:#7AC36A;stroke-width:0.625" />
<path d="M169.23,484.73L174.57,484.73L174.57,490.07L169.23,490.07Z" style="fill:none;stroke:#7AC36A;stroke-width:0.625" />
<path d="M176.14,464.76L181.48,464.76L181.48,470.09L176.14,470.09Z" style="fill:none;stroke:#7AC36A;stroke-width:0.625" />
<path d="M183.06,394.72L188.39,394.72L188.39,400.05L183.06,400.05Z" style="fill:none;stroke:#7AC36A;stroke-width:0.625" />
<path d="M189.97,357.69L195.3,357.69L195.3,363.02L189.97,363.02Z" style="fill:none;stroke:#7AC36A;stroke-width:0.625" />
<path d="M196.88,305.35L202.22,305.35L202.22,310.68L196.88,310.68Z" style="fill:none;stroke:#7AC36A;stroke-width:0.625" />
<path d="M203.79,284L209.13,284L209.13,289.34L203.79,289.34Z" style="fill:none;stroke:#7AC36A;stroke-width:0.625" />
<path d="M210.71,268.5L216.04,268.5L216.04,273.83L210.71,273.83Z" style="fill:none;stroke:#7AC36A;stroke-width:0.625" />
<path d="M217.62,284.65L222.95,284.65L222.95,289.98L217.62,289.98Z" style="fill:none;stroke:#7AC36A;stroke-width:0.625" />
<path d="M224.53,220.77L229.87,220.77L229.87,226.11L224.53,226.11Z" style="fill:none;stroke:#7AC36A;stroke-width:0.625" />
<path d="M231.44,212.09L236.78,212.09L236.78,217.42L231.44,217.42Z" style="fill:none;stroke:#7AC36A;stroke-width:0.625" />
<path d="M238.36,244.26L243.69,244.26L243.69,249.59L238.36,249.59Z" style="fill:none;stroke:#7AC36A;stroke-width:0.625" />
<path d="M245.27,255.36L250.6,255.36L250.6,260.69L245.27,260.69Z" style="fill:none;stroke:#7AC36A;stroke-width:0.625" />
<path d="M252.18,254.39L257.52,254.39L257.52,259.73L252.18,259.73Z" style="fill:none;stroke:#7AC36A;stroke-width:0.625" />
<path d="M259.09,242.28L264.43,242.28L264.43,247.61L259.09,247.61Z" style="fill:none;stroke:#7AC36A;stroke-width:0.625" />
<path d="M266.01,282.88L271.34,282.88L271.34,288.21L266.01,288.21Z" style="fill:none;stroke:#7AC36A;stroke-width:0.625" />
<path d="M272.92,322.8L278.25,322.8L278.25,328.13L272.92,328.13Z" style="fill:none;stroke:#7AC36A;stroke-width:0.625" />
<path d="M279.83,339.24L285.17,339.24L285.17,344.58L279.83,344.58Z" style="fill:none;stroke:#7AC36A;stroke-width:0.625" />
<path d="M286.74,334.89L292.08,334.89L292.08,340.23L286.74,340.23Z" style="fill:none;stroke:#7AC36A;stroke-width:0.625" />
<path d="M293.66,397.08L298.99,397.08L298.99,402.42L293.66,402.42Z" style="fill:none;stroke:#7AC36A;stroke-width:0.625" />
<path d="M300.57,455.37L305.9,455.37L305.9,460.71L300.57,460.71Z" style="fill:none;stroke:#7AC36A;stroke-width:0.625" />
<path d="M307.48,501.97L312.82,501.97L312.82,507.3L307.48,507.3Z" style="fill:none;stroke:#7AC36A;stroke-width:0.625" />
<path d="M314.39,525.66L319.73,525.66L319.73,530.99L314.39,530.99Z" style="fill:none;stroke:#7AC36A;stroke-width:0.625" />
<path d="M321.31,560.17L326.64,560.17L326.64,565.51L321.31,565.51Z" style="fill:none;stroke:#7AC36A;stroke-width:0.625" />
<path d="M328.22,592.23L333.55,592.23L333.55,597.56L328.22,597.56Z" style="fill:none;stroke:#7AC36A;stroke-width:0.625" />
<path d="M335.13,645.53L340.46,645.53L340.46,650.87L335.13,650.87Z" style="fill:none;stroke:#7AC36A;stroke-width:0.625" />
<path d="M342.04,671.12L347.38,671.12L347.38,676.46L342.04,676.46Z" style="fill:none;stroke:#7AC36A;stroke-width:0.625" />
<path d="M348.96,669.11L354.29,669.11L354.29,674.45L348.96,674.45Z" style="fill:none;stroke:#7AC36A;stroke-width:0.625" />
<path d="M355.87,649.61L361.2,649.61L361.2,654.95L355.87,654.95Z" style="fill:none;stroke:#7AC36A;stroke-width:0.625" />
<path d="M362.78,656.51L368.11,656.51L368.11,661.84L362.78,661.84Z" style="fill:none;stroke:#7AC36A;stroke-width:0.625" />
<path d="M369.69,691.41L375.03,691.41L375.03,696.74L369.69,696.74Z" style="fill:none;stroke:#7AC36A;stroke-width:0.625" />
<path d="M376.6,678.56L381.94,678.56L381.94,683.9L376.6,683.9Z" style="fill:none;stroke:#7AC36A;stroke-width:0.625" />
<path d="M383.52,628.63L388.85,628.63L388.85,633.97L383.52,633.97Z" style="fill:none;stroke:#7AC36A;stroke-width:0.625" />
<path d="M390.43,563.8L395.76,563.8L395.76,569.13L390.43,569.13Z" style="fill:none;stroke:#7AC36A;stroke-width:0.625" />
<path d="M397.34,566.61L402.68,566.61L402.68,571.95L397.34,571.95Z" style="fill:none;stroke:#7AC36A;stroke-width:0.625" />
<path d="M404.25,531.56L409.59,531.56L409.59,536.9L404.25,536.9Z" style="fill:none;stroke:#7AC36A;stroke-width:0.625" />
<path d="M411.17,450.04L416.5,450.04L416.5,455.37L411.17,455.37Z" style="fill:none;stroke:#7AC36A;stroke-width:0.625" />
<path d="M418.08,402.94L423.41,402.94L423.41,408.28L418.08,408.28Z" style="fill:none;stroke:#7AC36A;stroke-width:0.625" />
<path d="M424.99,373.93L430.33,373.93L430.33,379.26L424.99,379.26Z" style="fill:none;stroke:#7AC36A;stroke-width:0.625" />
<path d="M431.9,340.61L437.24,340.61L437.24,345.95L431.9,345.95Z" style="fill:none;stroke:#7AC36A;stroke-width:0.625" />
<path d="M438.82,321.3L444.15,321.3L444.15,326.64L438.82,326.64Z" style="fill:none;stroke:#7AC36A;stroke-width:0.625" />
<path d="M445.73,293.2L451.06,293.2L451.06,298.53L445.73,298.53Z" style="fill:none;stroke:#7AC36A;stroke-width:0.625" />
<path d="M452.64,250.5L457.98,250.5L457.98,255.84L452.64,255.84Z" style="fill:none;stroke:#7AC36A;stroke-width:0.625" />
<path d="M459.55,241.32L464.89,241.32L464.89,246.66L459.55,246.66Z" style="fill:none;stroke:#7AC36A;stroke-width:0.625" />
<path d="M466.47,237.41L471.8,237.41L471.8,242.75L466.47,242.75Z" style="fill:none;stroke:#7AC36A;stroke-width:0.625" />
<path d="M473.38,218.78L478.71,218.78L478.71,224.11L473.38,224.11Z" style="fill:none;stroke:#7AC36A;stroke-width:0.625" />
<path d="M480.29,219.08L485.63,219.08L485.63,224.42L480.29,224.42Z" style="fill:none;stroke:#7AC36A;stroke-width:0.625" />
<path d="M487.2,210.83L492.54,210.83L492.54,216.17L487.2,216.17Z" style="fill:none;stroke:#7AC36A;stroke-width:0.625" />
<path d="M494.12,235.96L499.45,235.96L499.45,241.29L494.12,241.29Z" style="fill:none;stroke:#7AC36A;stroke-width:0.625" />
<path d="M501.03,266.5L506.36,266.5L506.36,271.83L501.03,271.83Z" style="fill:none;stroke:#7AC36A;stroke-width:0.625" />
<path d="M507.94,268.17L513.28,268.17L513.28,273.51L507.94,273.51Z" style="fill:none;stroke:#7AC36A;stroke-width:0.625" />
<path d="M514.85,263.81L520.19,263.81L520.19,269.15L514.85,269.15Z" style="fill:none;stroke:#7AC36A;stroke-width:0.625" />
<path d="M521.77,297.64L527.1,297.64L527.1,302.98L521.77,302.98Z" style="fill:none;stroke:#7AC36A;stroke-width:0.625" />
<path d="M528.68,352.56L534.01,352.56L534.01,357.9L528.68,357.9Z" style="fill:none;stroke:#7AC36A;stroke-width:0.625" />
<path d="M535.59,372.8L540.93,372.8L540.93,378.14L535.59,378.14Z" style="fill:none;stroke:#7AC36A;stroke-width:0.625" />
<path d="M542.5,406.4L547.84,406.4L547.84,411.73L542.5,411.73Z" style="fill:none;stroke:#7AC36A;stroke-width:0.625" />
<path d="M549.42,435.88L554.75,435.88L554.75,441.21L549.42,441.21Z" style="fill:none;stroke:#7AC36A;stroke-width:0.625" />
<path d="M556.33,503.1L561.66,503.1L561.66,508.43L556.33,508.43Z" style="fill:none;stroke:#7AC36A;stroke-width:0.625" />
<path d="M563.24,535.99L568.58,535.99L568.58,541.32L563.24,541.32Z" style="fill:none;stroke:#7AC36A;stroke-width:0.625" />
<path d="M570.15,561.42L575.49,561.42L575.49,566.76L570.15,566.76Z" style="fill:none;stroke:#7AC36A;stroke-width:0.625" />
<path d="M577.07,591.94L582.4,591.94L582.4,597.28L577.07,597.28Z" style="fill:none;stroke:#7AC36A;stroke-width:0.625" />
<path d="M583.98,622.23L589.31,622.23L589.31,627.57L583.98,627.57Z" style="fill:none;stroke:#7AC36A;stroke-width:0.625" />
<path d="M590.89,616.47L596.23,616.47L596.23,621.8L590.89,621.8Z" style="fill:none;stroke:#7AC36A;stroke-width:0.625" />
<path d="M597.8,624L603.14,624L603.14,629.33L597.8,629.33Z" style="fill:none;stroke:#7AC36A;stroke-width:0.625" />
<path d="M604.72,652.09L610.05,652.09L610.05,657.43L604.72,657.43Z" style="fill:none;stroke:#7AC36A;stroke-width:0.625" />
<path d="M611.63,657.94L616.96,657.94L616.96,663.28L611.63,663.28Z" style="fill:none;stroke:#7AC36A;stroke-width:0.625" />
<path d="M618.54,605.65L623.87,605.65L623.87,610.98L618.54,610.98Z" style="fill:none;stroke:#7AC36A;stroke-width:0.625" />
<path d="M625.45,586.26L630.79,586.26L630.79,591.59L625.45,591.59Z" style="fill:none;stroke:#7AC36A;stroke-width:0.625" />
<path d="M632.36,595.73L637.7,595.73L637.7,601.06L632.36,601.06Z" style="fill:none;stroke:#7AC36A;stroke-width:0.625" />
<path d="M639.28,586.73L644.61,586.73L644.61,592.06L639.28,592.06Z" style="fill:none;stroke:#7AC36A;stroke-width:0.625" />
<path d="M646.19,538.18L651.52,538.18L651.52,543.51L646.19,543.51Z" style="fill:none;stroke:#7AC36A;stroke-width:0.625" />
<path d="M653.1,490.63L658.44,490.63L658.44,495.96L653.1,495.96Z" style="fill:none;stroke:#7AC36A;stroke-width:0.625" />
<path d="M660.01,447.16L665.35,447.16L665.35,452.49L660.01,452.49Z" style="fill:none;stroke:#7AC36A;stroke-width:0.625" />
<path d="M666.93,413.33L672.26,413.33L672.26,418.67L666.93,418.67Z" style="fill:none;stroke:#7AC36A;stroke-width:0.625" />
<path d="M673.84,371.4L679.17,371.4L679.17,376.73L673.84,376.73Z" style="fill:none;stroke:#7AC36A;stroke-width:0.625" />
<path d="M680.75,353.72L686.09,353.72L686.09,359.05L680.75,359.05Z" style="fill:none;stroke:#7AC36A;stroke-width:0.625" />
<path d="M687.66,300.05L693,300.05L693,305.38L687.66,305.38Z" style="fill:none;stroke:#7AC36A;stroke-width:0.625" />
<path d="M694.58,253.39L699.91,253.39L699.91,258.73L694.58,258.73Z" style="fill:none;stroke:#7AC36A;stroke-width:0.625" />
<path d="M701.49,204.93L706.82,204.93L706.82,210.26L701.49,210.26Z" style="fill:none;stroke:#7AC36A;stroke-width:0.625" />
<path d="M708.4,201.53L713.74,201.53L713.74,206.87L708.4,206.87Z" style="fill:none;stroke:#7AC36A;stroke-width:0.625" />
<path d="M715.31,201.64L720.65,201.64L720.65,206.97L715.31,206.97Z" style="fill:none;stroke:#7AC36A;stroke-width:0.625" />
<path d="M722.23,188.35L727.56,188.35L727.56,193.68L722.23,193.68Z" style="fill:none;stroke:#7AC36A;stroke-width:0.625" />
<path d="M729.14,206.04L734.47,206.04L734.47,211.37L729.14,211.37Z" style="fill:none;stroke:#7AC36A;stroke-width:0.625" />
<path d="M736.05,205.79L741.39,205.79L741.39,211.13L736.05,211.13Z" style="fill:none;stroke:#7AC36A;stroke-width:0.625" />
<path d="M742.96,231.47L748.3,231.47L748.3,236.8L742.96,236.8Z" style="fill:none;stroke:#7AC36A;stroke-width:0.625" />
<path d="M749.88,259.01L755.21,259.01L755.21,264.34L749.88,264.34Z" style="fill:none;stroke:#7AC36A;stroke-width:0.625" />
<path d="M756.79,290.12L762.12,290.12L762.12,295.46L756.79,295.46Z" style="fill:none;stroke:#7AC36A;stroke-width:0.625" />
<path d="M763.7,309.49L769.04,309.49L769.04,314.82L763.7,314.82Z" style="fill:none;stroke:#7AC36A;stroke-width:0.625" />
<path d="M770.61,342.47L775.95,342.47L775.95,347.8L770.61,347.8Z" style="fill:none;stroke:#7AC36A;stroke-width:0.625" />
<path d="M777.53,356.99L782.86,356.99L782.86,362.32L777.53,362.32Z" style="fill:none;stroke:#7AC36A;stroke-width:0.625" />
<path d="M784.44,406.16L789.77,406.16L789.77,411.5L784.44,411.5Z" style="fill:none;stroke:#7AC36A;stroke-width:0.625" />
<path d="M791.35,464.71L796.69,464.71L796.69,470.04L791.35,470.04Z" style="fill:none;stroke:#7AC36A;stroke-width:0.625" />
<path d="M798.26,496.97L803.6,496.97L803.6,502.31L798.26,502.31Z" style="fill:none;stroke:#7AC36A;stroke-width:0.625" />
<path d="M805.18,536.05L810.51,536.05L810.51,541.39L805.18,541.39Z" style="fill:none;stroke:#7AC36A;stroke-width:0.625" />
<path d="M812.09,573.4L817.42,573.4L817.42,578.74L812.09,578.74Z" style="fill:none;stroke:#7AC36A;stroke-width:0.625" />
<path d="M819,592.65L824.34,592.65L824.34,597.98L819,597.98Z" style="fill:none;stroke:#7AC36A;stroke-width:0.625" />
<path d="M825.91,585.26L831.25,585.26L831.25,590.6L825.91,590.6Z" style="fill:none;stroke:#7AC36A;stroke-width:0.625" />
<path d="M832.83,624.18L838.16,624.18L838.16,629.51L832.83,629.51Z" style="fill:none;stroke:#7AC36A;stroke-width:0.625" />
<path d="M839.74,652.5L845.07,652.5L845.07,657.84L839.74,657.84Z" style="fill:none;stroke:#7AC36A;stroke-width:0.625" />
<path d="M846.65,664.67L851.99,664.67L851.99,670L846.65,670Z" style="fill:none;stroke:#7AC36A;stroke-width:0.625" />
<path d="M853.56,643.03L858.9,643.03L858.9,648.36L853.56,648.36Z" style="fill:none;stroke:#7AC36A;stroke-width:0.625" />
<path d="M860.48,653.27L865.81,653.27L865.81,658.61L860.48,658.61Z" style="fill:none;stroke:#7AC36A;stroke-width:0.625" />
<path d="M867.39,645.06L872.72,645.06L872.72,650.39L867.39,650.39Z" style="fill:none;stroke:#7AC36A;stroke-width:0.625" />
<path d="M874.3,610.48L879.63,610.48L879.63,615.81L874.3,615.81Z" style="fill:none;stroke:#7AC36A;stroke-width:0.625" />
<path d="M881.21,563.13L886.55,563.13L886.55,568.46L881.21,568.46Z" style="fill:none;stroke:#7AC36A;stroke-width:0.625" />
<path d="M888.13,520.43L893.46,520.43L893.46,525.77L888.13,525.77Z" style="fill:none;stroke:#7AC36A;stroke-width:0.625" />
<path d="M895.04,465.25L900.37,465.25L900.37,470.58L895.04,470.58Z" style="fill:none;stroke:#7AC36A;stroke-width:0.625" />
<path d="M901.95,433.47L907.28,433.47L907.28,438.81L901.95,438.81Z" style="fill:none;stroke:#7AC36A;stroke-width:0.625" />
<path d="M908.86,412.49L914.2,412.49L914.2,417.82L908.86,417.82Z" style="fill:none;stroke:#7AC36A;stroke-width:0.625" />
<path d="M915.77,366.31L921.11,366.31L921.11,371.64L915.77,371.64Z" style="fill:none;stroke:#7AC36A;stroke-width:0.625" />
<path d="M922.69,308.96L928.02,308.96L928.02,314.29L922.69,314.29Z" style="fill:none;stroke:#7AC36A;stroke-width:0.625" />
<path d="M929.6,299.82L934.93,299.82L934.93,305.15L929.6,305.15Z" style="fill:none;stroke:#7AC36A;stroke-width:0.625" />
<path d="M936.51,286.14L941.85,286.14L941.85,291.48L936.51,291.48Z" style="fill:none;stroke:#7AC36A;stroke-width:0.625" />
<path d="M943.42,262.29L948.76,262.29L948.76,267.62L943.42,267.62Z" style="fill:none;stroke:#7AC36A;stroke-width:0.625" />
<path d="M950.34,200.49L955.67,200.49L955.67,205.82L950.34,205.82Z" style="fill:none;stroke:#7AC36A;stroke-width:0.625" />
<path d="M957.25,172.93L962.58,172.93L962.58,178.27L957.25,178.27Z" style="fill:none;stroke:#7AC36A;stroke-width:0.625" />
<path d="M964.16,177.11L969.5,177.11L969.5,182.44L964.16,182.44Z" style="fill:none;stroke:#7AC36A;stroke-width:0.625" />
<path d="M971.07,169.03L976.41,169.03L976.41,174.36L971.07,174.36Z" style="fill:none;stroke:#7AC36A;stroke-width:0.625" />
<path d="M977.99,159.13L983.32,159.13L983.32,164.47L977.99,164.47Z" style="fill:none;stroke:#7AC36A;stroke-width:0.625" />
<path d="M984.9,189.94L990.23,189.94L990.23,195.28L984.9,195.28Z" style="fill:none;stroke:#7AC36A;stroke-width:0.625" />
<path d="M991.81,189.61L997.15,189.61L997.15,194.94L991.81,194.94Z" style="fill:none;stroke:#7AC36A;stroke-width:0.625" />
<path d="M998.72,182.41L1004.1,182.41L1004.1,187.74L998.72,187.74Z" style="fill:none;stroke:#7AC36A;stroke-width:0.625" />
<path d="M1005.6,236.74L1011,236.74L1011,242.08L1005.6,242.08Z" style="fill:none;stroke:#7AC36A;stroke-width:0.625" />
<path d="M1012.5,320.45L1017.9,320.45L1017.9,325.78L1012.5,325.78Z" style="fill:none;stroke:#7AC36A;stroke-width:0.625" />
<path d="M1019.5,348.39L1024.8,348.39L1024.8,353.72L1019.5,353.72Z" style="fill:none;stroke:#7AC36A;stroke-width:0.625" />
<path d="M1026.4,364.21L1031.7,364.21L1031.7,369.54L1026.4,369.54Z" style="fill:none;stroke:#7AC36A;stroke-width:0.625" />
<path d="M1033.3,383.8L1038.6,383.8L1038.6,389.14L1033.3,389.14Z" style="fill:none;stroke:#7AC36A;stroke-width:0.625" />
<path d="M1040.2,470.82L1045.5,470.82L1045.5,476.16L1040.2,476.16Z" style="fill:none;stroke:#7AC36A;stroke-width:0.625" />
<path d="M1047.1,509.75L1052.4,509.75L1052.4,515.09L1047.1,515.09Z" style="fill:none;stroke:#7AC36A;stroke-width:0.625" />
<path d="M1054,560.71L1059.4,560.71L1059.4,566.05L1054,566.05Z" style="fill:none;stroke:#7AC36A;stroke-width:0.625" />
<path d="M1060.9,600.98L1066.3,600.98L1066.3,606.32L1060.9,606.32Z" style="fill:none;stroke:#7AC36A;stroke-width:0.625" />
<path d="M1067.8,615.41L1073.2,615.41L1073.2,620.75L1067.8,620.75Z" style="fill:none;stroke:#7AC36A;stroke-width:0.625" />
<path d="M1074.8,657.22L1080.1,657.22L1080.1,662.56L1074.8,662.56Z" style="fill:none;stroke:#7AC36A;stroke-width:0.625" />
<path d="M1081.7,675.13L1087,675.13L1087,680.46L1081.7,680.46Z" style="fill:none;stroke:#7AC36A;stroke-width:0.625" />
<path d="M1088.6,691.16L1093.9,691.16L1093.9,696.49L1088.6,696.49Z" style="fill:none;stroke:#7AC36A;stroke-width:0.625" />
<path d="M1095.5,679.3L1100.8,679.3L1100.8,684.63L1095.5,684.63Z" style="fill:none;stroke:#7AC36A;stroke-width:0.625" />
<path d="M1102.4,673.53L1107.7,673.53L1107.7,678.86L1102.4,678.86Z" style="fill:none;stroke:#7AC36A;stroke-width:0.625" />
<path d="M1109.3,684.72L1114.7,684.72L1114.7,690.06L1109.3,690.06Z" style="fill:none;stroke:#7AC36A;stroke-width:0.625" />
<path d="M1116.2,639.26L1121.6,639.26L1121.6,644.6L1116.2,644.6Z" style="fill:none;stroke:#7AC36A;stroke-width:0.625" />
<path d="M1123.1,597.87L1128.5,597.87L1128.5,603.2L1123.1,603.2Z" style="fill:none;stroke:#7AC36A;stroke-width:0.625" />
<path d="M1130.1,557.24L1135.4,557.24L1135.4,562.58L1130.1,562.58Z" style="fill:none;stroke:#7AC36A;stroke-width:0.625" />
<path d="M1137,530.04L1142.3,530.04L1142.3,535.37L1137,535.37Z" style="fill:none;stroke:#7AC36A;stroke-width:0.625" />
<path d="M1143.9,489.88L1149.2,489.88L1149.2,495.21L1143.9,495.21Z" style="fill:none;stroke:#7AC36A;stroke-width:0.625" />
<path d="M1150.8,458.53L1156.1,458.53L1156.1,463.86L1150.8,463.86Z" style="fill:none;stroke:#7AC36A;stroke-width:0.625" />
<path d="M1157.7,382.04L1163,382.04L1163,387.38L1157.7,387.38Z" style="fill:none;stroke:#7AC36A;stroke-width:0.625" />
<path d="M1164.6,335.67L1170,335.67L1170,341.01L1164.6,341.01Z" style="fill:none;stroke:#7AC36A;stroke-width:0.625" />
<path d="M1171.5,320.62L1176.9,320.62L1176.9,325.96L1171.5,325.96Z" style="fill:none;stroke:#7AC36A;stroke-width:0.625" />
<path d="M1178.4,312.44L1183.8,312.44L1183.8,317.78L1178.4,317.78Z" style="fill:none;stroke:#7AC36A;stroke-width:0.625" />
<path d="M1185.4,266.99L1190.7,266.99L1190.7,272.32L1185.4,272.32Z" style="fill:none;stroke:#7AC36A;stroke-width:0.625" />
<path d="M1192.3,223.25L1197.6,223.25L1197.6,228.58L1192.3,228.58Z" style="fill:none;stroke:#7AC36A;stroke-width:0.625" />
<path d="M1199.2,201.76L1204.5,201.76L1204.5,207.1L1199.2,207.1Z" style="fill:none;stroke:#7AC36A;stroke-width:0.625" />
<path d="M1206.1,195.93L1211.4,195.93L1211.4,201.26L1206.1,201.26Z" style="fill:none;stroke:#7AC36A;stroke-width:0.625" />
<path d="M1213,190.12L1218.3,190.12L1218.3,195.45L1213,195.45Z" style="fill:none;stroke:#7AC36A;stroke-width:0.625" />
<path d="M1219.9,226.31L1225.3,226.31L1225.3,231.64L1219.9,231.64Z" style="fill:none;stroke:#7AC36A;stroke-width:0.625" />
<path d="M1226.8,205.18L1232.2,205.18L1232.2,210.52L1226.8,210.52Z" style="fill:none;stroke:#7AC36A;stroke-width:0.625" />
<path d="M1233.7,227.6L1239.1,227.6L1239.1,232.94L1233.7,232.94Z" style="fill:none;stroke:#7AC36A;stroke-width:0.625" />
<path d="M1240.7,260.98L1246,260.98L1246,266.32L1240.7,266.32Z" style="fill:none;stroke:#7AC36A;stroke-width:0.625" />
<path d="M1247.6,268.09L1252.9,268.09L1252.9,273.43L1247.6,273.43Z" style="fill:none;stroke:#7AC36A;stroke-width:0.625" />
<path d="M1254.5,286.16L1259.8,286.16L1259.8,291.5L1254.5,291.5Z" style="fill:none;stroke:#7AC36A;stroke-width:0.625" />
<path d="M1261.4,333.55L1266.7,333.55L1266.7,338.88L1261.4,338.88Z" style="fill:none;stroke:#7AC36A;stroke-width:0.625" />
<path d="M1268.3,392.21L1273.6,392.21L1273.6,397.54L1268.3,397.54Z" style="fill:none;stroke:#7AC36A;stroke-width:0.625" />
<path d="M1275.2,427.91L1280.6,427.91L1280.6,433.24L1275.2,433.24Z" style="fill:none;stroke:#7AC36A;stroke-width:0.625" />
<path d="M1282.1,447.31L1287.5,447.31L1287.5,452.64L1282.1,452.64Z" style="fill:none;stroke:#7AC36A;stroke-width:0.625" />
<path d="M1289,453.87L1294.4,453.87L1294.4,459.21L1289,459.21Z" style="fill:none;stroke:#7AC36A;stroke-width:0.625" />
<path d="M1296,518.34L1301.3,518.34L1301.3,523.68L1296,523.68Z" style="fill:none;stroke:#7AC36A;stroke-width:0.625" />
<path d="M1302.9,575.67L1308.2,575.67L1308.2,581.01L1302.9,581.01Z" style="fill:none;stroke:#7AC36A;stroke-width:0.625" />
<path d="M1309.8,636.66L1315.1,636.66L1315.1,642L1309.8,642Z" style="fill:none;stroke:#7AC36A;stroke-width:0.625" />
<path d="M1316.7,638.13L1322,638.13L1322,643.46L1316.7,643.46Z" style="fill:none;stroke:#7AC36A;stroke-width:0.625" />
<path d="M1323.6,637.71L1328.9,637.71L1328.9,643.04L1323.6,643.04Z" style="fill:none;stroke:#7AC36A;stroke-width:0.625" />
<path d="M1330.5,630.34L1335.9,630.34L1335.9,635.67L1330.5,635.67Z" style="fill:none;stroke:#7AC36A;stroke-width:0.625" />
<path d="M1337.4,691.06L1342.8,691.06L1342.8,696.4L1337.4,696.4Z" style="fill:none;stroke:#7AC36A;stroke-width:0.625" />
<path d="M1344.3,722.78L1349.7,722.78L1349.7,728.11L1344.3,728.11Z" style="fill:none;stroke:#7AC36A;stroke-width:0.625" />
<path d="M1351.3,724.06L1356.6,724.06L1356.6,729.39L1351.3,729.39Z" style="fill:none;stroke:#7AC36A;stroke-width:0.625" />
<path d="M1358.2,697.02L1363.5,697.02L1363.5,702.36L1358.2,702.36Z" style="fill:none;stroke:#7AC36A;stroke-width:0.625" />
<path d="M1365.1,710.37L1370.4,710.37L1370.4,715.71L1365.1,715.71Z" style="fill:none;stroke:#7AC36A;stroke-width:0.625" />
<path d="M1372,716.56L1377.3,716.56L1377.3,721.89L1372,721.89Z" style="fill:none;stroke:#7AC36A;stroke-width:0.625" />
<path d="M1378.9,725.57L1384.2,725.57L1384.2,730.91L1378.9,730.91Z" style="fill:none;stroke:#7AC36A;stroke-width:0.625" />
<path d="M1415,66.978L1440,66.978" style="fill:none;stroke:#F15A60;stroke-width:1.25" />
<path d="M1430.6,66.978A3.125,3.125 0 1 1 1424.4,66.978A3.125,3.125 0 1 1 1430.6,66.978Z" style="fill:none;stroke:#F15A60;stroke-width:0.625" />
<text x="1388.8" y="-61.188" transform="scale(1, -1)"
	style="font-family:Times;font-weight:normal;font-style:normal;font-size:12pt">raw</text>
<path d="M1415,53.117L1440,53.117" style="fill:none;stroke:#7AC36A;stroke-width:1.25;stroke-dasharray:7.5,2.5" />
<path d="M1424.8,50.45L1430.2,50.45L1430.2,55.785L1424.8,55.785Z" style="fill:none;stroke:#7AC36A;stroke-width:0.625" />
<text x="1367.1" y="-47.328" transform="scale(1, -1)"
	style="font-family:Times;font-weight:normal;font-style:normal;font-size:12pt">smooth</text>
</g>
</svg>
