<?xml version="1.0"?>
<!-- Generated by SVGo and Plotinum VG -->
<svg width="16in" height="9in"
	xmlns="http://www.w3.org/2000/svg"
	xmlns:xlink="http://www.w3.org/1999/xlink">
<g transform="scale(1, -1) translate(0, -810)">
<path d="M0,0L1440,0L1440,810L0,810Z" style="fill:#FFFFFF" />
<text x="736.9" y="-5.355" transform="scale(1, -1)"
	style="font-family:Times;font-weight:normal;font-style:normal;font-size:12pt">X</text>
<text x="44.638" y="-19.025" transform="scale(1, -1)"
	style="font-family:Times;font-weight:normal;font-style:normal;font-size:10pt">0</text>
<text x="460.34" y="-19.025" transform="scale(1, -1)"
	style="font-family:Times;font-weight:normal;font-style:normal;font-size:10pt">60</text>
<text x="876.04" y="-19.025" transform="scale(1, -1)"
	style="font-family:Times;font-weight:normal;font-style:normal;font-size:10pt">120</text>
<text x="1294.9" y="-19.025" transform="scale(1, -1)"
	style="font-family:Times;font-weight:normal;font-style:normal;font-size:10pt">180</text>
<path d="M47.763,29.625L47.763,39.625" style="fill:none;stroke:#000000;stroke-width:0.625" />
<path d="M466.59,29.625L466.59,39.625" style="fill:none;stroke:#000000;stroke-width:0.625" />
<path d="M885.42,29.625L885.42,39.625" style="fill:none;stroke:#000000;stroke-width:0.625" />
<path d="M1304.2,29.625L1304.2,39.625" style="fill:none;stroke:#000000;stroke-width:0.625" />
<path d="M187.37,34.625L187.37,39.625" style="fill:none;stroke:#000000;stroke-width:0.625" />
<path d="M326.98,34.625L326.98,39.625" style="fill:none;stroke:#000000;stroke-width:0.625" />
<path d="M606.2,34.625L606.2,39.625" style="fill:none;stroke:#000000;stroke-width:0.625" />
<path d="M745.81,34.625L745.81,39.625" style="fill:none;stroke:#000000;stroke-width:0.625" />
<path d="M1025,34.625L1025,39.625" style="fill:none;stroke:#000000;stroke-width:0.625" />
<path d="M1164.6,34.625L1164.6,39.625" style="fill:none;stroke:#000000;stroke-width:0.625" />
<path d="M47.763,39.625L1436.9,39.625" style="fill:none;stroke:#000000;stroke-width:0.625" />
<g transform="rotate(90)">
<text x="422.68" y="12.72" transform="scale(1, -1)"
	style="font-family:Times;font-weight:normal;font-style:normal;font-size:12pt">Y</text>
</g>
<text x="18.075" y="-286.51" transform="scale(1, -1)"
	style="font-family:Times;font-weight:normal;font-style:normal;font-size:10pt">0</text>
<text x="18.075" y="-535.3" transform="scale(1, -1)"
	style="font-family:Times;font-weight:normal;font-style:normal;font-size:10pt">1</text>
<text x="18.075" y="-784.09" transform="scale(1, -1)"
	style="font-family:Times;font-weight:normal;font-style:normal;font-size:10pt">2</text>
<path d="M27.45,291.33L37.45,291.33" style="fill:none;stroke:#000000;stroke-width:0.625" />
<path d="M27.45,540.12L37.45,540.12" style="fill:none;stroke:#000000;stroke-width:0.625" />
<path d="M27.45,788.91L37.45,788.91" style="fill:none;stroke:#000000;stroke-width:0.625" />
<path d="M32.45,166.94L37.45,166.94" style="fill:none;stroke:#000000;stroke-width:0.625" />
<path d="M32.45,415.73L37.45,415.73" style="fill:none;stroke:#000000;stroke-width:0.625" />
<path d="M32.45,664.52L37.45,664.52" style="fill:none;stroke:#000000;stroke-width:0.625" />
<path d="M37.45,49.313L37.45,806.88" style="fill:none;stroke:#000000;stroke-width:0.625" />
<path d="M47.763,483.6L54.743,520.99L61.723,555.51L68.704,525.74L75.684,696.4L82.665,541.94L89.645,606.57L96.626,637.72L103.61,667.4L110.59,755.71L117.57,576.06L124.55,739.24L131.53,675.13L138.51,490.41L145.49,659.79L152.47,657.47L159.45,597.43L166.43,405.14L173.41,408.95L180.39,281.3L187.37,420.9L194.35,239.97L201.33,386.31L208.31,257.19L215.29,153.68L222.27,215.61L229.25,278.72L236.24,234.34L243.22,243.42L250.2,127.1L257.18,271.66L264.16,275.98L271.14,322.28L278.12,215.7L285.1,294.56L292.08,445.12L299.06,381.25L306.04,309.62L313.02,506.7L320,467.6L326.98,662.63L333.96,656.43L340.94,648.48L347.92,644.96L354.9,635.11L361.88,726.32L368.86,695.42L375.84,577.63L382.82,583.36L389.81,709.65L396.79,699.79L403.77,684.97L410.75,445.25L417.73,386.33L424.71,493.29L431.69,433.95L438.67,344.99L445.65,390.62L452.63,278.74L459.61,204.11L466.59,311.53L473.57,218.88L480.55,155.5L487.53,272.58L494.51,176.37L501.49,212.32L508.47,299.03L515.45,70.455L522.43,307.88L529.41,329.3L536.4,313L543.38,335.31L550.36,241.15L557.34,501.09L564.32,331.68L571.3,510.88L578.28,518.27L585.26,595.79L592.24,594.73L599.22,573.53L606.2,576.06L613.18,534.6L620.16,746.68L627.14,565.76L634.12,602.85L641.1,767.66L648.08,694.64L655.06,564.42L662.04,452.11L669.02,480.59L676,520.31L682.98,450.12L689.97,506.61L696.95,397.29L703.93,338.89L710.91,209.48L717.89,276.6L724.87,172.09L731.85,196.92L738.83,81.369L745.81,148.66L752.79,246.23L759.77,183.36L766.75,265.3L773.73,301.68L780.71,129L787.69,296.23L794.67,209.69L801.65,321.84L808.63,417.77L815.61,456.23L822.59,416.73L829.57,459.63L836.56,587.03L843.54,474.02L850.52,626.17L857.5,692.76L864.48,670.09L871.46,561.23L878.44,609.53L885.42,640.88L892.4,700.41L899.38,578.57L906.36,720.65L913.34,691.68L920.32,539.05L927.3,414.02L934.28,446.95L941.26,394.4L948.24,288.89L955.22,395.55L962.2,434.53L969.18,375.61L976.16,218.48L983.14,212.01L990.13,154.81L997.11,258.62L1004.1,51.59L1011.1,96.356L1018,264.4L1025,64.498L1032,177.89L1039,340.5L1046,198.97L1052.9,168.37L1059.9,196.02L1066.9,442.74L1073.9,497.06L1080.9,527.35L1087.9,432.66L1094.8,625L1101.8,464.48L1108.8,660.97L1115.8,539.54L1122.8,668.32L1129.7,653.3L1136.7,668.5L1143.7,787.39L1150.7,747.29L1157.7,662.67L1164.6,596.44L1171.6,703.38L1178.6,459.88L1185.6,532.14L1192.6,451.7L1199.5,371.93L1206.5,462.84L1213.5,463.03L1220.5,279.74L1227.5,216.86L1234.4,153.32L1241.4,268.47L1248.4,199.62L1255.4,179.46L1262.4,257.21L1269.3,142.72L1276.3,106.32L1283.3,261.13L1290.3,290.07L1297.3,149.11L1304.2,335.84L1311.2,319.07L1318.2,259.62L1325.2,339.31L1332.2,288.65L1339.1,518.01L1346.1,576.04L1353.1,600.23L1360.1,495.73L1367.1,538.73L1374.1,529.49L1381,738.69L1388,745.17L1395,763.19L1402,544.67L1409,711.01L1415.9,734.5L1422.9,723.27L1429.9,713.29L1436.9,482.06" style="fill:none;stroke:#F15A60;stroke-width:1.25" />
<path d="M50.888,483.6A3.125,3.125 0 1 1 44.638,483.6A3.125,3.125 0 1 1 50.888,483.6Z" style="fill:none;stroke:#F15A60;stroke-width:0.625" />
<path d="M57.868,520.99A3.125,3.125 0 1 1 51.618,520.99A3.125,3.125 0 1 1 57.868,520.99Z" style="fill:none;stroke:#F15A60;stroke-width:0.625" />
<path d="M64.848,555.51A3.125,3.125 0 1 1 58.598,555.51A3.125,3.125 0 1 1 64.848,555.51Z" style="fill:none;stroke:#F15A60;stroke-width:0.625" />
<path d="M71.829,525.74A3.125,3.125 0 1 1 65.579,525.74A3.125,3.125 0 1 1 71.829,525.74Z" style="fill:none;stroke:#F15A60;stroke-width:0.625" />
<path d="M78.809,696.4A3.125,3.125 0 1 1 72.559,696.4A3.125,3.125 0 1 1 78.809,696.4Z" style="fill:none;stroke:#F15A60;stroke-width:0.625" />
<path d="M85.79,541.94A3.125,3.125 0 1 1 79.54,541.94A3.125,3.125 0 1 1 85.79,541.94Z" style="fill:none;stroke:#F15A60;stroke-width:0.625" />
<path d="M92.77,606.57L92.77,606.57A3.125,3.125 0 1 1 86.52,606.57A3.125,3.125 0 1 1 92.77,606.57Z" style="fill:none;stroke:#F15A60;stroke-width:0.625" />
<path d="M99.751,637.72A3.125,3.125 0 1 1 93.501,637.72A3.125,3.125 0 1 1 99.751,637.72Z" style="fill:none;stroke:#F15A60;stroke-width:0.625" />
<path d="M106.73,667.4L106.73,667.4A3.125,3.125 0 1 1 100.48,667.4A3.125,3.125 0 1 1 106.73,667.4Z" style="fill:none;stroke:#F15A60;stroke-width:0.625" />
<path d="M113.71,755.71L113.71,755.71A3.125,3.125 0 1 1 107.46,755.71A3.125,3.125 0 1 1 113.71,755.71Z" style="fill:none;stroke:#F15A60;stroke-width:0.625" />
<path d="M120.69,576.06L120.69,576.06A3.125,3.125 0 1 1 114.44,576.06A3.125,3.125 0 1 1 120.69,576.06Z" style="fill:none;stroke:#F15A60;stroke-width:0.625" />
<path d="M127.67,739.24L127.67,739.24A3.125,3.125 0 1 1 121.42,739.24A3.125,3.125 0 1 1 127.67,739.24Z" style="fill:none;stroke:#F15A60;stroke-width:0.625" />
<path d="M134.65,675.13A3.125,3.125 0 1 1 128.4,675.13A3.125,3.125 0 1 1 134.65,675.13Z" style="fill:none;stroke:#F15A60;stroke-width:0.625" />
<path d="M141.63,490.41A3.125,3.125 0 1 1 135.38,490.41A3.125,3.125 0 1 1 141.63,490.41Z" style="fill:none;stroke:#F15A60;stroke-width:0.625" />
<path d="M148.61,659.79A3.125,3.125 0 1 1 142.36,659.79A3.125,3.125 0 1 1 148.61,659.79Z" style="fill:none;stroke:#F15A60;stroke-width:0.625" />
<path d="M155.59,657.47A3.125,3.125 0 1 1 149.34,657.47A3.125,3.125 0 1 1 155.59,657.47Z" style="fill:none;stroke:#F15A60;stroke-width:0.625" />
<path d="M162.57,597.43L162.57,597.43A3.125,3.125 0 1 1 156.32,597.43A3.125,3.125 0 1 1 162.57,597.43Z" style="fill:none;stroke:#F15A60;stroke-width:0.625" />
<path d="M169.56,405.14A3.125,3.125 0 1 1 163.31,405.14A3.125,3.125 0 1 1 169.56,405.14Z" style="fill:none;stroke:#F15A60;stroke-width:0.625" />
<path d="M176.54,408.95L176.54,408.95A3.125,3.125 0 1 1 170.29,408.95A3.125,3.125 0 1 1 176.54,408.95Z" style="fill:none;stroke:#F15A60;stroke-width:0.625" />
<path d="M183.52,281.3L183.52,281.3A3.125,3.125 0 1 1 177.27,281.3A3.125,3.125 0 1 1 183.52,281.3Z" style="fill:none;stroke:#F15A60;stroke-width:0.625" />
<path d="M190.5,420.9L190.5,420.9A3.125,3.125 0 1 1 184.25,420.9A3.125,3.125 0 1 1 190.5,420.9Z" style="fill:none;stroke:#F15A60;stroke-width:0.625" />
<path d="M197.48,239.97A3.125,3.125 0 1 1 191.23,239.97A3.125,3.125 0 1 1 197.48,239.97Z" style="fill:none;stroke:#F15A60;stroke-width:0.625" />
<path d="M204.46,386.31A3.125,3.125 0 1 1 198.21,386.31A3.125,3.125 0 1 1 204.46,386.31Z" style="fill:none;stroke:#F15A60;stroke-width:0.625" />
<path d="M211.44,257.19L211.44,257.19A3.125,3.125 0 1 1 205.19,257.19A3.125,3.125 0 1 1 211.44,257.19Z" style="fill:none;stroke:#F15A60;stroke-width:0.625" />
<path d="M218.42,153.68A3.125,3.125 0 1 1 212.17,153.68A3.125,3.125 0 1 1 218.42,153.68Z" style="fill:none;stroke:#F15A60;stroke-width:0.625" />
<path d="M225.4,215.61A3.125,3.125 0 1 1 219.15,215.61A3.125,3.125 0 1 1 225.4,215.61Z" style="fill:none;stroke:#F15A60;stroke-width:0.625" />
<path d="M232.38,278.72A3.125,3.125 0 1 1 226.13,278.72A3.125,3.125 0 1 1 232.38,278.72Z" style="fill:none;stroke:#F15A60;stroke-width:0.625" />
<path d="M239.36,234.34A3.125,3.125 0 1 1 233.11,234.34A3.125,3.125 0 1 1 239.36,234.34Z" style="fill:none;stroke:#F15A60;stroke-width:0.625" />
<path d="M246.34,243.42L246.34,243.42A3.125,3.125 0 1 1 240.09,243.42A3.125,3.125 0 1 1 246.34,243.42Z" style="fill:none;stroke:#F15A60;stroke-width:0.625" />
<path d="M253.32,127.1L253.32,127.1A3.125,3.125 0 1 1 247.07,127.1A3.125,3.125 0 1 1 253.32,127.1Z" style="fill:none;stroke:#F15A60;stroke-width:0.625" />
<path d="M260.3,271.66A3.125,3.125 0 1 1 254.05,271.66A3.125,3.125 0 1 1 260.3,271.66Z" style="fill:none;stroke:#F15A60;stroke-width:0.625" />
<path d="M267.28,275.98A3.125,3.125 0 1 1 261.03,275.98A3.125,3.125 0 1 1 267.28,275.98Z" style="fill:none;stroke:#F15A60;stroke-width:0.625" />
<path d="M274.26,322.28L274.26,322.28A3.125,3.125 0 1 1 268.01,322.28A3.125,3.125 0 1 1 274.26,322.28Z" style="fill:none;stroke:#F15A60;stroke-width:0.625" />
<path d="M281.24,215.7A3.125,3.125 0 1 1 274.99,215.7A3.125,3.125 0 1 1 281.24,215.7Z" style="fill:none;stroke:#F15A60;stroke-width:0.625" />
<path d="M288.22,294.56A3.125,3.125 0 1 1 281.97,294.56A3.125,3.125 0 1 1 288.22,294.56Z" style="fill:none;stroke:#F15A60;stroke-width:0.625" />
<path d="M295.2,445.12A3.125,3.125 0 1 1 288.95,445.12A3.125,3.125 0 1 1 295.2,445.12Z" style="fill:none;stroke:#F15A60;stroke-width:0.625" />
<path d="M302.18,381.25A3.125,3.125 0 1 1 295.93,381.25A3.125,3.125 0 1 1 302.18,381.25Z" style="fill:none;stroke:#F15A60;stroke-width:0.625" />
<path d="M309.16,309.62L309.16,309.62A3.125,3.125 0 1 1 302.91,309.62A3.125,3.125 0 1 1 309.16,309.62Z" style="fill:none;stroke:#F15A60;stroke-width:0.625" />
<path d="M316.15,506.7A3.125,3.125 0 1 1 309.9,506.7A3.125,3.125 0 1 1 316.15,506.7Z" style="fill:none;stroke:#F15A60;stroke-width:0.625" />
<path d="M323.13,467.6A3.125,3.125 0 1 1 316.88,467.6A3.125,3.125 0 1 1 323.13,467.6Z" style="fill:none;stroke:#F15A60;stroke-width:0.625" />
<path d="M330.11,662.63A3.125,3.125 0 1 1 323.86,662.63A3.125,3.125 0 1 1 330.11,662.63Z" style="fill:none;stroke:#F15A60;stroke-width:0.625" />
<path d="M337.09,656.43A3.125,3.125 0 1 1 330.84,656.43A3.125,3.125 0 1 1 337.09,656.43Z" style="fill:none;stroke:#F15A60;stroke-width:0.625" />
<path d="M344.07,648.48A3.125,3.125 0 1 1 337.82,648.48A3.125,3.125 0 1 1 344.07,648.48Z" style="fill:none;stroke:#F15A60;stroke-width:0.625" />
<path d="M351.05,644.96A3.125,3.125 0 1 1 344.8,644.96A3.125,3.125 0 1 1 351.05,644.96Z" style="fill:none;stroke:#F15A60;stroke-width:0.625" />
<path d="M358.03,635.11A3.125,3.125 0 1 1 351.78,635.11A3.125,3.125 0 1 1 358.03,635.11Z" style="fill:none;stroke:#F15A60;stroke-width:0.625" />
<path d="M365.01,726.32A3.125,3.125 0 1 1 358.76,726.32A3.125,3.125 0 1 1 365.01,726.32Z" style="fill:none;stroke:#F15A60;stroke-width:0.625" />
<path d="M371.99,695.42A3.125,3.125 0 1 1 365.74,695.42A3.125,3.125 0 1 1 371.99,695.42Z" style="fill:none;stroke:#F15A60;stroke-width:0.625" />
<path d="M378.97,577.63A3.125,3.125 0 1 1 372.72,577.63A3.125,3.125 0 1 1 378.97,577.63Z" style="fill:none;stroke:#F15A60;stroke-width:0.625" />
<path d="M385.95,583.36A3.125,3.125 0 1 1 379.7,583.36A3.125,3.125 0 1 1 385.95,583.36Z" style="fill:none;stroke:#F15A60;stroke-width:0.625" />
<path d="M392.93,709.65A3.125,3.125 0 1 1 386.68,709.65A3.125,3.125 0 1 1 392.93,709.65Z" style="fill:none;stroke:#F15A60;stroke-width:0.625" />
<path d="M399.91,699.79L399.91,699.79A3.125,3.125 0 1 1 393.66,699.79A3.125,3.125 0 1 1 399.91,699.79Z" style="fill:none;stroke:#F15A60;stroke-width:0.625" />
<path d="M406.89,684.97A3.125,3.125 0 1 1 400.64,684.97A3.125,3.125 0 1 1 406.89,684.97Z" style="fill:none;stroke:#F15A60;stroke-width:0.625" />
<path d="M413.87,445.25L413.87,445.25A3.125,3.125 0 1 1 407.62,445.25A3.125,3.125 0 1 1 413.87,445.25Z" style="fill:none;stroke:#F15A60;stroke-width:0.625" />
<path d="M420.85,386.33A3.125,3.125 0 1 1 414.6,386.33A3.125,3.125 0 1 1 420.85,386.33Z" style="fill:none;stroke:#F15A60;stroke-width:0.625" />
<path d="M427.83,493.29A3.125,3.125 0 1 1 421.58,493.29A3.125,3.125 0 1 1 427.83,493.29Z" style="fill:none;stroke:#F15A60;stroke-width:0.625" />
<path d="M434.81,433.95A3.125,3.125 0 1 1 428.56,433.95A3.125,3.125 0 1 1 434.81,433.95Z" style="fill:none;stroke:#F15A60;stroke-width:0.625" />
<path d="M441.79,344.99A3.125,3.125 0 1 1 435.54,344.99A3.125,3.125 0 1 1 441.79,344.99Z" style="fill:none;stroke:#F15A60;stroke-width:0.625" />
<path d="M448.77,390.62A3.125,3.125 0 1 1 442.52,390.62A3.125,3.125 0 1 1 448.77,390.62Z" style="fill:none;stroke:#F15A60;stroke-width:0.625" />
<path d="M455.75,278.74A3.125,3.125 0 1 1 449.5,278.74A3.125,3.125 0 1 1 455.75,278.74Z" style="fill:none;stroke:#F15A60;stroke-width:0.625" />
<path d="M462.73,204.11L462.73,204.11A3.125,3.125 0 1 1 456.48,204.11A3.125,3.125 0 1 1 462.73,204.11Z" style="fill:none;stroke:#F15A60;stroke-width:0.625" />
<path d="M469.72,311.53A3.125,3.125 0 1 1 463.47,311.53A3.125,3.125 0 1 1 469.72,311.53Z" style="fill:none;stroke:#F15A60;stroke-width:0.625" />
<path d="M476.7,218.88L476.7,218.88A3.125,3.125 0 1 1 470.45,218.88A3.125,3.125 0 1 1 476.7,218.88Z" style="fill:none;stroke:#F15A60;stroke-width:0.625" />
<path d="M483.68,155.5L483.68,155.5A3.125,3.125 0 1 1 477.43,155.5A3.125,3.125 0 1 1 483.68,155.5Z" style="fill:none;stroke:#F15A60;stroke-width:0.625" />
<path d="M490.66,272.58A3.125,3.125 0 1 1 484.41,272.58A3.125,3.125 0 1 1 490.66,272.58Z" style="fill:none;stroke:#F15A60;stroke-width:0.625" />
<path d="M497.64,176.37A3.125,3.125 0 1 1 491.39,176.37A3.125,3.125 0 1 1 497.64,176.37Z" style="fill:none;stroke:#F15A60;stroke-width:0.625" />
<path d="M504.62,212.32A3.125,3.125 0 1 1 498.37,212.32A3.125,3.125 0 1 1 504.62,212.32Z" style="fill:none;stroke:#F15A60;stroke-width:0.625" />
<path d="M511.6,299.03A3.125,3.125 0 1 1 505.35,299.03A3.125,3.125 0 1 1 511.6,299.03Z" style="fill:none;stroke:#F15A60;stroke-width:0.625" />
<path d="M518.58,70.455A3.125,3.125 0 1 1 512.33,70.455A3.125,3.125 0 1 1 518.58,70.455Z" style="fill:none;stroke:#F15A60;stroke-width:0.625" />
<path d="M525.56,307.88A3.125,3.125 0 1 1 519.31,307.88A3.125,3.125 0 1 1 525.56,307.88Z" style="fill:none;stroke:#F15A60;stroke-width:0.625" />
<path d="M532.54,329.3L532.54,329.3A3.125,3.125 0 1 1 526.29,329.3A3.125,3.125 0 1 1 532.54,329.3Z" style="fill:none;stroke:#F15A60;stroke-width:0.625" />
<path d="M539.52,313L539.52,313A3.125,3.125 0 1 1 533.27,313A3.125,3.125 0 1 1 539.52,313Z" style="fill:none;stroke:#F15A60;stroke-width:0.625" />
<path d="M546.5,335.31A3.125,3.125 0 1 1 540.25,335.31A3.125,3.125 0 1 1 546.5,335.31Z" style="fill:none;stroke:#F15A60;stroke-width:0.625" />
<path d="M553.48,241.15A3.125,3.125 0 1 1 547.23,241.15A3.125,3.125 0 1 1 553.48,241.15Z" style="fill:none;stroke:#F15A60;stroke-width:0.625" />
<path d="M560.46,501.09A3.125,3.125 0 1 1 554.21,501.09A3.125,3.125 0 1 1 560.46,501.09Z" style="fill:none;stroke:#F15A60;stroke-width:0.625" />
<path d="M567.44,331.68A3.125,3.125 0 1 1 561.19,331.68A3.125,3.125 0 1 1 567.44,331.68Z" style="fill:none;stroke:#F15A60;stroke-width:0.625" />
<path d="M574.42,510.88A3.125,3.125 0 1 1 568.17,510.88A3.125,3.125 0 1 1 574.42,510.88Z" style="fill:none;stroke:#F15A60;stroke-width:0.625" />
<path d="M581.4,518.27A3.125,3.125 0 1 1 575.15,518.27A3.125,3.125 0 1 1 581.4,518.27Z" style="fill:none;stroke:#F15A60;stroke-width:0.625" />
<path d="M588.38,595.79A3.125,3.125 0 1 1 582.13,595.79A3.125,3.125 0 1 1 588.38,595.79Z" style="fill:none;stroke:#F15A60;stroke-width:0.625" />
<path d="M595.36,594.73A3.125,3.125 0 1 1 589.11,594.73A3.125,3.125 0 1 1 595.36,594.73Z" style="fill:none;stroke:#F15A60;stroke-width:0.625" />
<path d="M602.34,573.53A3.125,3.125 0 1 1 596.09,573.53A3.125,3.125 0 1 1 602.34,573.53Z" style="fill:none;stroke:#F15A60;stroke-width:0.625" />
<path d="M609.32,576.06A3.125,3.125 0 1 1 603.07,576.06A3.125,3.125 0 1 1 609.32,576.06Z" style="fill:none;stroke:#F15A60;stroke-width:0.625" />
<path d="M616.31,534.6A3.125,3.125 0 1 1 610.06,534.6A3.125,3.125 0 1 1 616.31,534.6Z" style="fill:none;stroke:#F15A60;stroke-width:0.625" />
<path d="M623.29,746.68A3.125,3.125 0 1 1 617.04,746.68A3.125,3.125 0 1 1 623.29,746.68Z" style="fill:none;stroke:#F15A60;stroke-width:0.625" />
<path d="M630.27,565.76A3.125,3.125 0 1 1 624.02,565.76A3.125,3.125 0 1 1 630.27,565.76Z" style="fill:none;stroke:#F15A60;stroke-width:0.625" />
<path d="M637.25,602.85A3.125,3.125 0 1 1 631,602.85A3.125,3.125 0 1 1 637.25,602.85Z" style="fill:none;stroke:#F15A60;stroke-width:0.625" />
<path d="M644.23,767.66A3.125,3.125 0 1 1 637.98,767.66A3.125,3.125 0 1 1 644.23,767.66Z" style="fill:none;stroke:#F15A60;stroke-width:0.625" />
<path d="M651.21,694.64L651.21,694.64A3.125,3.125 0 1 1 644.96,694.64A3.125,3.125 0 1 1 651.21,694.64Z" style="fill:none;stroke:#F15A60;stroke-width:0.625" />
<path d="M658.19,564.42A3.125,3.125 0 1 1 651.94,564.42A3.125,3.125 0 1 1 658.19,564.42Z" style="fill:none;stroke:#F15A60;stroke-width:0.625" />
<path d="M665.17,452.11A3.125,3.125 0 1 1 658.92,452.11A3.125,3.125 0 1 1 665.17,452.11Z" style="fill:none;stroke:#F15A60;stroke-width:0.625" />
<path d="M672.15,480.59A3.125,3.125 0 1 1 665.9,480.59A3.125,3.125 0 1 1 672.15,480.59Z" style="fill:none;stroke:#F15A60;stroke-width:0.625" />
<path d="M679.13,520.31L679.13,520.31A3.125,3.125 0 1 1 672.88,520.31A3.125,3.125 0 1 1 679.13,520.31Z" style="fill:none;stroke:#F15A60;stroke-width:0.625" />
<path d="M686.11,450.12A3.125,3.125 0 1 1 679.86,450.12A3.125,3.125 0 1 1 686.11,450.12Z" style="fill:none;stroke:#F15A60;stroke-width:0.625" />
<path d="M693.09,506.61A3.125,3.125 0 1 1 686.84,506.61A3.125,3.125 0 1 1 693.09,506.61Z" style="fill:none;stroke:#F15A60;stroke-width:0.625" />
<path d="M700.07,397.29A3.125,3.125 0 1 1 693.82,397.29A3.125,3.125 0 1 1 700.07,397.29Z" style="fill:none;stroke:#F15A60;stroke-width:0.625" />
<path d="M707.05,338.89A3.125,3.125 0 1 1 700.8,338.89A3.125,3.125 0 1 1 707.05,338.89Z" style="fill:none;stroke:#F15A60;stroke-width:0.625" />
<path d="M714.03,209.48A3.125,3.125 0 1 1 707.78,209.48A3.125,3.125 0 1 1 714.03,209.48Z" style="fill:none;stroke:#F15A60;stroke-width:0.625" />
<path d="M721.01,276.6L721.01,276.6A3.125,3.125 0 1 1 714.76,276.6A3.125,3.125 0 1 1 721.01,276.6Z" style="fill:none;stroke:#F15A60;stroke-width:0.625" />
<path d="M727.99,172.09L727.99,172.09A3.125,3.125 0 1 1 721.74,172.09A3.125,3.125 0 1 1 727.99,172.09Z" style="fill:none;stroke:#F15A60;stroke-width:0.625" />
<path d="M734.97,196.92L734.97,196.92A3.125,3.125 0 1 1 728.72,196.92A3.125,3.125 0 1 1 734.97,196.92Z" style="fill:none;stroke:#F15A60;stroke-width:0.625" />
<path d="M741.95,81.369L741.95,81.369A3.125,3.125 0 1 1 735.7,81.369A3.125,3.125 0 1 1 741.95,81.369Z" style="fill:none;stroke:#F15A60;stroke-width:0.625" />
<path d="M748.93,148.66L748.93,148.66A3.125,3.125 0 1 1 742.68,148.66A3.125,3.125 0 1 1 748.93,148.66Z" style="fill:none;stroke:#F15A60;stroke-width:0.625" />
<path d="M755.91,246.23L755.91,246.23A3.125,3.125 0 1 1 749.66,246.23A3.125,3.125 0 1 1 755.91,246.23Z" style="fill:none;stroke:#F15A60;stroke-width:0.625" />
<path d="M762.89,183.36A3.125,3.125 0 1 1 756.64,183.36A3.125,3.125 0 1 1 762.89,183.36Z" style="fill:none;stroke:#F15A60;stroke-width:0.625" />
<path d="M769.88,265.3A3.125,3.125 0 1 1 763.63,265.3A3.125,3.125 0 1 1 769.88,265.3Z" style="fill:none;stroke:#F15A60;stroke-width:0.625" />
<path d="M776.86,301.68L776.86,301.68A3.125,3.125 0 1 1 770.61,301.68A3.125,3.125 0 1 1 776.86,301.68Z" style="fill:none;stroke:#F15A60;stroke-width:0.625" />
<path d="M783.84,129L783.84,129A3.125,3.125 0 1 1 777.59,129A3.125,3.125 0 1 1 783.84,129Z" style="fill:none;stroke:#F15A60;stroke-width:0.625" />
<path d="M790.82,296.23L790.82,296.23A3.125,3.125 0 1 1 784.57,296.23A3.125,3.125 0 1 1 790.82,296.23Z" style="fill:none;stroke:#F15A60;stroke-width:0.625" />
<path d="M797.8,209.69A3.125,3.125 0 1 1 791.55,209.69A3.125,3.125 0 1 1 797.8,209.69Z" style="fill:none;stroke:#F15A60;stroke-width:0.625" />
<path d="M804.78,321.84L804.78,321.84A3.125,3.125 0 1 1 798.53,321.84A3.125,3.125 0 1 1 804.78,321.84Z" style="fill:none;stroke:#F15A60;stroke-width:0.625" />
<path d="M811.76,417.77A3.125,3.125 0 1 1 805.51,417.77A3.125,3.125 0 1 1 811.76,417.77Z" style="fill:none;stroke:#F15A60;stroke-width:0.625" />
<path d="M818.74,456.23L818.74,456.23A3.125,3.125 0 1 1 812.49,456.23A3.125,3.125 0 1 1 818.74,456.23Z" style="fill:none;stroke:#F15A60;stroke-width:0.625" />
<path d="M825.72,416.73L825.72,416.73A3.125,3.125 0 1 1 819.47,416.73A3.125,3.125 0 1 1 825.72,416.73Z" style="fill:none;stroke:#F15A60;stroke-width:0.625" />
<path d="M832.7,459.63L832.7,459.63A3.125,3.125 0 1 1 826.45,459.63A3.125,3.125 0 1 1 832.7,459.63Z" style="fill:none;stroke:#F15A60;stroke-width:0.625" />
<path d="M839.68,587.03L839.68,587.03A3.125,3.125 0 1 1 833.43,587.03A3.125,3.125 0 1 1 839.68,587.03Z" style="fill:none;stroke:#F15A60;stroke-width:0.625" />
<path d="M846.66,474.02L846.66,474.02A3.125,3.125 0 1 1 840.41,474.02A3.125,3.125 0 1 1 846.66,474.02Z" style="fill:none;stroke:#F15A60;stroke-width:0.625" />
<path d="M853.64,626.17L853.64,626.17A3.125,3.125 0 1 1 847.39,626.17A3.125,3.125 0 1 1 853.64,626.17Z" style="fill:none;stroke:#F15A60;stroke-width:0.625" />
<path d="M860.62,692.76L860.62,692.76A3.125,3.125 0 1 1 854.37,692.76A3.125,3.125 0 1 1 860.62,692.76Z" style="fill:none;stroke:#F15A60;stroke-width:0.625" />
<path d="M867.6,670.09L867.6,670.09A3.125,3.125 0 1 1 861.35,670.09A3.125,3.125 0 1 1 867.6,670.09Z" style="fill:none;stroke:#F15A60;stroke-width:0.625" />
<path d="M874.58,561.23A3.125,3.125 0 1 1 868.33,561.23A3.125,3.125 0 1 1 874.58,561.23Z" style="fill:none;stroke:#F15A60;stroke-width:0.625" />
<path d="M881.56,609.53A3.125,3.125 0 1 1 875.31,609.53A3.125,3.125 0 1 1 881.56,609.53Z" style="fill:none;stroke:#F15A60;stroke-width:0.625" />
<path d="M888.54,640.88A3.125,3.125 0 1 1 882.29,640.88A3.125,3.125 0 1 1 888.54,640.88Z" style="fill:none;stroke:#F15A60;stroke-width:0.625" />
<path d="M895.52,700.41L895.52,700.41A3.125,3.125 0 1 1 889.27,700.41A3.125,3.125 0 1 1 895.52,700.41Z" style="fill:none;stroke:#F15A60;stroke-width:0.625" />
<path d="M902.5,578.57L902.5,578.57A3.125,3.125 0 1 1 896.25,578.57A3.125,3.125 0 1 1 902.5,578.57Z" style="fill:none;stroke:#F15A60;stroke-width:0.625" />
<path d="M909.48,720.65L909.48,720.65A3.125,3.125 0 1 1 903.23,720.65A3.125,3.125 0 1 1 909.48,720.65Z" style="fill:none;stroke:#F15A60;stroke-width:0.625" />
<path d="M916.47,691.68A3.125,3.125 0 1 1 910.22,691.68A3.125,3.125 0 1 1 916.47,691.68Z" style="fill:none;stroke:#F15A60;stroke-width:0.625" />
<path d="M923.45,539.05L923.45,539.05A3.125,3.125 0 1 1 917.2,539.05A3.125,3.125 0 1 1 923.45,539.05Z" style="fill:none;stroke:#F15A60;stroke-width:0.625" />
<path d="M930.43,414.02L930.43,414.02A3.125,3.125 0 1 1 924.18,414.02A3.125,3.125 0 1 1 930.43,414.02Z" style="fill:none;stroke:#F15A60;stroke-width:0.625" />
<path d="M937.41,446.95L937.41,446.95A3.125,3.125 0 1 1 931.16,446.95A3.125,3.125 0 1 1 937.41,446.95Z" style="fill:none;stroke:#F15A60;stroke-width:0.625" />
<path d="M944.39,394.4A3.125,3.125 0 1 1 938.14,394.4A3.125,3.125 0 1 1 944.39,394.4Z" style="fill:none;stroke:#F15A60;stroke-width:0.625" />
<path d="M951.37,288.89L951.37,288.89A3.125,3.125 0 1 1 945.12,288.89A3.125,3.125 0 1 1 951.37,288.89Z" style="fill:none;stroke:#F15A60;stroke-width:0.625" />
<path d="M958.35,395.55L958.35,395.55A3.125,3.125 0 1 1 952.1,395.55A3.125,3.125 0 1 1 958.35,395.55Z" style="fill:none;stroke:#F15A60;stroke-width:0.625" />
<path d="M965.33,434.53L965.33,434.53A3.125,3.125 0 1 1 959.08,434.53A3.125,3.125 0 1 1 965.33,434.53Z" style="fill:none;stroke:#F15A60;stroke-width:0.625" />
<path d="M972.31,375.61A3.125,3.125 0 1 1 966.06,375.61A3.125,3.125 0 1 1 972.31,375.61Z" style="fill:none;stroke:#F15A60;stroke-width:0.625" />
<path d="M979.29,218.48L979.29,218.48A3.125,3.125 0 1 1 973.04,218.48A3.125,3.125 0 1 1 979.29,218.48Z" style="fill:none;stroke:#F15A60;stroke-width:0.625" />
<path d="M986.27,212.01L986.27,212.01A3.125,3.125 0 1 1 980.02,212.01A3.125,3.125 0 1 1 986.27,212.01Z" style="fill:none;stroke:#F15A60;stroke-width:0.625" />
<path d="M993.25,154.81A3.125,3.125 0 1 1 987,154.81A3.125,3.125 0 1 1 993.25,154.81Z" style="fill:none;stroke:#F15A60;stroke-width:0.625" />
<path d="M1000.2,258.62L1000.2,258.62A3.125,3.125 0 1 1 993.98,258.62A3.125,3.125 0 1 1 1000.2,258.62Z" style="fill:none;stroke:#F15A60;stroke-width:0.625" />
<path d="M1007.2,51.59L1007.2,51.59A3.125,3.125 0 1 1 1001,51.59A3.125,3.125 0 1 1 1007.2,51.59Z" style="fill:none;stroke:#F15A60;stroke-width:0.625" />
<path d="M1014.2,96.356L1014.2,96.356A3.125,3.125 0 1 1 1007.9,96.356A3.125,3.125 0 1 1 1014.2,96.356Z" style="fill:none;stroke:#F15A60;stroke-width:0.625" />
<path d="M1021.2,264.4L1021.2,264.4A3.125,3.125 0 1 1 1014.9,264.4A3.125,3.125 0 1 1 1021.2,264.4Z" style="fill:none;stroke:#F15A60;stroke-width:0.625" />
<path d="M1028.2,64.498L1028.2,64.498A3.125,3.125 0 1 1 1021.9,64.498A3.125,3.125 0 1 1 1028.2,64.498Z" style="fill:none;stroke:#F15A60;stroke-width:0.625" />
<path d="M1035.1,177.89L1035.1,177.89A3.125,3.125 0 1 1 1028.9,177.89A3.125,3.125 0 1 1 1035.1,177.89Z" style="fill:none;stroke:#F15A60;stroke-width:0.625" />
<path d="M1042.1,340.5L1042.1,340.5A3.125,3.125 0 1 1 1035.9,340.5A3.125,3.125 0 1 1 1042.1,340.5Z" style="fill:none;stroke:#F15A60;stroke-width:0.625" />
<path d="M1049.1,198.97A3.125,3.125 0 1 1 1042.8,198.97A3.125,3.125 0 1 1 1049.1,198.97Z" style="fill:none;stroke:#F15A60;stroke-width:0.625" />
<path d="M1056.1,168.37L1056.1,168.37A3.125,3.125 0 1 1 1049.8,168.37A3.125,3.125 0 1 1 1056.1,168.37Z" style="fill:none;stroke:#F15A60;stroke-width:0.625" />
<path d="M1063.1,196.02A3.125,3.125 0 1 1 1056.8,196.02A3.125,3.125 0 1 1 1063.1,196.02Z" style="fill:none;stroke:#F15A60;stroke-width:0.625" />
<path d="M1070,442.74L1070,442.74A3.125,3.125 0 1 1 1063.8,442.74A3.125,3.125 0 1 1 1070,442.74Z" style="fill:none;stroke:#F15A60;stroke-width:0.625" />
<path d="M1077,497.06A3.125,3.125 0 1 1 1070.8,497.06A3.125,3.125 0 1 1 1077,497.06Z" style="fill:none;stroke:#F15A60;stroke-width:0.625" />
<path d="M1084,527.35A3.125,3.125 0 1 1 1077.7,527.35A3.125,3.125 0 1 1 1084,527.35Z" style="fill:none;stroke:#F15A60;stroke-width:0.625" />
<path d="M1091,432.66L1091,432.66A3.125,3.125 0 1 1 1084.7,432.66A3.125,3.125 0 1 1 1091,432.66Z" style="fill:none;stroke:#F15A60;stroke-width:0.625" />
<path d="M1098,625L1098,625A3.125,3.125 0 1 1 1091.7,625A3.125,3.125 0 1 1 1098,625Z" style="fill:none;stroke:#F15A60;stroke-width:0.625" />
<path d="M1104.9,464.48L1104.9,464.48A3.125,3.125 0 1 1 1098.7,464.48A3.125,3.125 0 1 1 1104.9,464.48Z" style="fill:none;stroke:#F15A60;stroke-width:0.625" />
<path d="M1111.9,660.97L1111.9,660.97A3.125,3.125 0 1 1 1105.7,660.97A3.125,3.125 0 1 1 1111.9,660.97Z" style="fill:none;stroke:#F15A60;stroke-width:0.625" />
<path d="M1118.9,539.54L1118.9,539.54A3.125,3.125 0 1 1 1112.6,539.54A3.125,3.125 0 1 1 1118.9,539.54Z" style="fill:none;stroke:#F15A60;stroke-width:0.625" />
<path d="M1125.9,668.32L1125.9,668.32A3.125,3.125 0 1 1 1119.6,668.32A3.125,3.125 0 1 1 1125.9,668.32Z" style="fill:none;stroke:#F15A60;stroke-width:0.625" />
<path d="M1132.9,653.3A3.125,3.125 0 1 1 1126.6,653.3A3.125,3.125 0 1 1 1132.9,653.3Z" style="fill:none;stroke:#F15A60;stroke-width:0.625" />
<path d="M1139.8,668.5A3.125,3.125 0 1 1 1133.6,668.5A3.125,3.125 0 1 1 1139.8,668.5Z" style="fill:none;stroke:#F15A60;stroke-width:0.625" />
<path d="M1146.8,787.39A3.125,3.125 0 1 1 1140.6,787.39A3.125,3.125 0 1 1 1146.8,787.39Z" style="fill:none;stroke:#F15A60;stroke-width:0.625" />
<path d="M1153.8,747.29L1153.8,747.29A3.125,3.125 0 1 1 1147.6,747.29A3.125,3.125 0 1 1 1153.8,747.29Z" style="fill:none;stroke:#F15A60;stroke-width:0.625" />
<path d="M1160.8,662.67L1160.8,662.67A3.125,3.125 0 1 1 1154.5,662.67A3.125,3.125 0 1 1 1160.8,662.67Z" style="fill:none;stroke:#F15A60;stroke-width:0.625" />
<path d="M1167.8,596.44A3.125,3.125 0 1 1 1161.5,596.44A3.125,3.125 0 1 1 1167.8,596.44Z" style="fill:none;stroke:#F15A60;stroke-width:0.625" />
<path d="M1174.7,703.38L1174.7,703.38A3.125,3.125 0 1 1 1168.5,703.38A3.125,3.125 0 1 1 1174.7,703.38Z" style="fill:none;stroke:#F15A60;stroke-width:0.625" />
<path d="M1181.7,459.88L1181.7,459.88A3.125,3.125 0 1 1 1175.5,459.88A3.125,3.125 0 1 1 1181.7,459.88Z" style="fill:none;stroke:#F15A60;stroke-width:0.625" />
<path d="M1188.7,532.14A3.125,3.125 0 1 1 1182.5,532.14A3.125,3.125 0 1 1 1188.7,532.14Z" style="fill:none;stroke:#F15A60;stroke-width:0.625" />
<path d="M1195.7,451.7A3.125,3.125 0 1 1 1189.4,451.7A3.125,3.125 0 1 1 1195.7,451.7Z" style="fill:none;stroke:#F15A60;stroke-width:0.625" />
<path d="M1202.7,371.93L1202.7,371.93A3.125,3.125 0 1 1 1196.4,371.93A3.125,3.125 0 1 1 1202.7,371.93Z" style="fill:none;stroke:#F15A60;stroke-width:0.625" />
<path d="M1209.6,462.84A3.125,3.125 0 1 1 1203.4,462.84A3.125,3.125 0 1 1 1209.6,462.84Z" style="fill:none;stroke:#F15A60;stroke-width:0.625" />
<path d="M1216.6,463.03A3.125,3.125 0 1 1 1210.4,463.03A3.125,3.125 0 1 1 1216.6,463.03Z" style="fill:none;stroke:#F15A60;stroke-width:0.625" />
<path d="M1223.6,279.74L1223.6,279.74A3.125,3.125 0 1 1 1217.4,279.74A3.125,3.125 0 1 1 1223.6,279.74Z" style="fill:none;stroke:#F15A60;stroke-width:0.625" />
<path d="M1230.6,216.86L1230.6,216.86A3.125,3.125 0 1 1 1224.3,216.86A3.125,3.125 0 1 1 1230.6,216.86Z" style="fill:none;stroke:#F15A60;stroke-width:0.625" />
<path d="M1237.6,153.32L1237.6,153.32A3.125,3.125 0 1 1 1231.3,153.32A3.125,3.125 0 1 1 1237.6,153.32Z" style="fill:none;stroke:#F15A60;stroke-width:0.625" />
<path d="M1244.5,268.47L1244.5,268.47A3.125,3.125 0 1 1 1238.3,268.47A3.125,3.125 0 1 1 1244.5,268.47Z" style="fill:none;stroke:#F15A60;stroke-width:0.625" />
<path d="M1251.5,199.62A3.125,3.125 0 1 1 1245.3,199.62A3.125,3.125 0 1 1 1251.5,199.62Z" style="fill:none;stroke:#F15A60;stroke-width:0.625" />
<path d="M1258.5,179.46A3.125,3.125 0 1 1 1252.3,179.46A3.125,3.125 0 1 1 1258.5,179.46Z" style="fill:none;stroke:#F15A60;stroke-width:0.625" />
<path d="M1265.5,257.21A3.125,3.125 0 1 1 1259.2,257.21A3.125,3.125 0 1 1 1265.5,257.21Z" style="fill:none;stroke:#F15A60;stroke-width:0.625" />
<path d="M1272.5,142.72L1272.5,142.72A3.125,3.125 0 1 1 1266.2,142.72A3.125,3.125 0 1 1 1272.5,142.72Z" style="fill:none;stroke:#F15A60;stroke-width:0.625" />
<path d="M1279.4,106.32A3.125,3.125 0 1 1 1273.2,106.32A3.125,3.125 0 1 1 1279.4,106.32Z" style="fill:none;stroke:#F15A60;stroke-width:0.625" />
<path d="M1286.4,261.13A3.125,3.125 0 1 1 1280.2,261.13A3.125,3.125 0 1 1 1286.4,261.13Z" style="fill:none;stroke:#F15A60;stroke-width:0.625" />
<path d="M1293.4,290.07A3.125,3.125 0 1 1 1287.2,290.07A3.125,3.125 0 1 1 1293.4,290.07Z" style="fill:none;stroke:#F15A60;stroke-width:0.625" />
<path d="M1300.4,149.11L1300.4,149.11A3.125,3.125 0 1 1 1294.1,149.11A3.125,3.125 0 1 1 1300.4,149.11Z" style="fill:none;stroke:#F15A60;stroke-width:0.625" />
<path d="M1307.4,335.84A3.125,3.125 0 1 1 1301.1,335.84A3.125,3.125 0 1 1 1307.4,335.84Z" style="fill:none;stroke:#F15A60;stroke-width:0.625" />
<path d="M1314.4,319.07A3.125,3.125 0 1 1 1308.1,319.07A3.125,3.125 0 1 1 1314.4,319.07Z" style="fill:none;stroke:#F15A60;stroke-width:0.625" />
<path d="M1321.3,259.62A3.125,3.125 0 1 1 1315.1,259.62A3.125,3.125 0 1 1 1321.3,259.62Z" style="fill:none;stroke:#F15A60;stroke-width:0.625" />
<path d="M1328.3,339.31A3.125,3.125 0 1 1 1322.1,339.31A3.125,3.125 0 1 1 1328.3,339.31Z" style="fill:none;stroke:#F15A60;stroke-width:0.625" />
<path d="M1335.3,288.65L1335.3,288.65A3.125,3.125 0 1 1 1329,288.65A3.125,3.125 0 1 1 1335.3,288.65Z" style="fill:none;stroke:#F15A60;stroke-width:0.625" />
<path d="M1342.3,518.01L1342.3,518.01A3.125,3.125 0 1 1 1336,518.01A3.125,3.125 0 1 1 1342.3,518.01Z" style="fill:none;stroke:#F15A60;stroke-width:0.625" />
<path d="M1349.3,576.04A3.125,3.125 0 1 1 1343,576.04A3.125,3.125 0 1 1 1349.3,576.04Z" style="fill:none;stroke:#F15A60;stroke-width:0.625" />
<path d="M1356.2,600.23A3.125,3.125 0 1 1 1350,600.23A3.125,3.125 0 1 1 1356.2,600.23Z" style="fill:none;stroke:#F15A60;stroke-width:0.625" />
<path d="M1363.2,495.73A3.125,3.125 0 1 1 1357,495.73A3.125,3.125 0 1 1 1363.2,495.73Z" style="fill:none;stroke:#F15A60;stroke-width:0.625" />
<path d="M1370.2,538.73L1370.2,538.73A3.125,3.125 0 1 1 1363.9,538.73A3.125,3.125 0 1 1 1370.2,538.73Z" style="fill:none;stroke:#F15A60;stroke-width:0.625" />
<path d="M1377.2,529.49A3.125,3.125 0 1 1 1370.9,529.49A3.125,3.125 0 1 1 1377.2,529.49Z" style="fill:none;stroke:#F15A60;stroke-width:0.625" />
<path d="M1384.2,738.69L1384.2,738.69A3.125,3.125 0 1 1 1377.9,738.69A3.125,3.125 0 1 1 1384.2,738.69Z" style="fill:none;stroke:#F15A60;stroke-width:0.625" />
<path d="M1391.1,745.17A3.125,3.125 0 1 1 1384.9,745.17A3.125,3.125 0 1 1 1391.1,745.17Z" style="fill:none;stroke:#F15A60;stroke-width:0.625" />
<path d="M1398.1,763.19A3.125,3.125 0 1 1 1391.9,763.19A3.125,3.125 0 1 1 1398.1,763.19Z" style="fill:none;stroke:#F15A60;stroke-width:0.625" />
<path d="M1405.1,544.67L1405.1,544.67A3.125,3.125 0 1 1 1398.8,544.67A3.125,3.125 0 1 1 1405.1,544.67Z" style="fill:none;stroke:#F15A60;stroke-width:0.625" />
<path d="M1412.1,711.01L1412.1,711.01A3.125,3.125 0 1 1 1405.8,711.01A3.125,3.125 0 1 1 1412.1,711.01Z" style="fill:none;stroke:#F15A60;stroke-width:0.625" />
<path d="M1419.1,734.5A3.125,3.125 0 1 1 1412.8,734.5A3.125,3.125 0 1 1 1419.1,734.5Z" style="fill:none;stroke:#F15A60;stroke-width:0.625" />
<path d="M1426,723.27A3.125,3.125 0 1 1 1419.8,723.27A3.125,3.125 0 1 1 1426,723.27Z" style="fill:none;stroke:#F15A60;stroke-width:0.625" />
<path d="M1433,713.29L1433,713.29A3.125,3.125 0 1 1 1426.8,713.29A3.125,3.125 0 1 1 1433,713.29Z" style="fill:none;stroke:#F15A60;stroke-width:0.625" />
<path d="M1440,482.06A3.125,3.125 0 1 1 1433.8,482.06A3.125,3.125 0 1 1 1440,482.06Z" style="fill:none;stroke:#F15A60;stroke-width:0.625" />
<path d="M47.763,483.6L54.743,520.99L61.723,557.8L68.704,581.16L75.684,630.65L82.665,643.3L89.645,660.26L96.626,676.84L103.61,693.69L110.59,723.26L117.57,712.93L124.55,729.09L131.53,729.8L138.51,690.15L145.49,680.32L152.47,670.76L159.45,650.31L166.43,592.31L173.41,535.45L180.39,456.84L187.37,411.34L194.35,339.32L201.33,305.02L208.31,256.63L215.29,197.25L222.27,159.52L229.25,145.32L236.24,133.09L243.22,131.2L250.2,113.15L257.18,128.46L264.16,150.17L271.14,184.34L278.12,198.64L285.1,226.88L292.08,283.64L299.06,325.96L306.04,348.81L313.02,404.16L320,446.76L326.98,521.11L333.96,587.83L340.94,643.74L347.92,688.05L354.9,718.93L361.88,756.86L368.86,779.18L375.84,768.46L382.82,749.58L389.81,749.76L396.79,745.52L403.77,736.43L410.75,678.12L417.73,605.72L424.71,556.02L431.69,500.64L438.67,434.53L445.65,385.41L452.63,324.04L459.61,257.3L466.59,222.21L473.57,180.96L480.55,137.56L487.53,127.33L494.51,108.62L501.49,104.91L508.47,125.73L515.45,107.06L522.43,137.42L529.41,176.22L536.4,213.18L543.38,253.2L550.36,271.32L557.34,335.98L564.32,363.74L571.3,419.86L578.28,471.7L585.26,531.47L592.24,582.93L599.22,620.57L606.2,648.36L613.18,657.97L620.16,700.66L627.14,701.4L634.12,701.27L641.1,728.22L648.08,737.54L655.06,716.38L662.04,667.87L669.02,621.82L676,584.44L682.98,536.66L689.97,504.54L696.95,457.1L703.93,403.88L710.91,331.52L717.89,279.74L724.87,217.22L731.85,169.47L738.83,109.8L745.81,73.817L752.79,69.035L759.77,63.269L766.75,82.248L773.73,115.69L780.71,119.07L787.69,155.81L794.67,176.32L801.65,217.17L808.63,275.31L815.61,338.06L822.59,387.45L829.57,437.3L836.56,504L843.54,539.74L850.52,594.82L857.5,654.08L864.48,699.28L871.46,711.91L878.44,722.64L885.42,730.7L892.4,743.67L899.38,727.08L906.36,733.32L913.34,731.75L920.32,697.57L927.3,635.7L934.28,579.5L941.26,516.07L948.24,436.93L955.22,386.06L962.2,353.73L969.18,320.94L976.16,266.55L983.14,218.87L990.13,168.87L997.11,148.79L1004.1,97.906L1011.1,63.376L1018,71.339L1025,49.313L1032,55.281L1039,99.934L1046,121.79L1052.9,137.78L1059.9,157.94L1066.9,225.69L1073.9,303.78L1080.9,383.91L1087.9,437.68L1094.8,518.87L1101.8,558.08L1108.8,623.13L1115.8,653.15L1122.8,696.11L1129.7,725.81L1136.7,748.25L1143.7,785.2L1150.7,806.88L1157.7,803.71L1164.6,779.48L1171.6,770.49L1178.6,710.58L1185.6,662.06L1192.6,599.36L1199.5,524.38L1206.5,473.44L1213.5,432.09L1220.5,364.2L1227.5,292.25L1234.4,217.46L1241.4,176.81L1248.4,136.01L1255.4,103.17L1262.4,97.014L1269.3,78.806L1276.3,60.795L1283.3,80.08L1290.3,112.16L1297.3,120.3L1304.2,165.9L1311.2,209.21L1318.2,238.57L1325.2,279.25L1332.2,305.27L1339.1,370.96L1346.1,443.94L1353.1,515.09L1360.1,556.22L1367.1,594.09L1374.1,619.22L1381,675.78L1388,726.1L1395,771.1L1402,762.92L1409,776.56L1415.9,788.23L1422.9,792.1L1429.9,789.06L1436.9,735.85" style="fill:none;stroke:#7AC36A;stroke-width:1.25;stroke-dasharray:7.5,2.5" />
<path d="M45.095,480.94L50.43,480.94L50.43,486.27L45.095,486.27Z" style="fill:none;stroke:#7AC36A;stroke-width:0.625" />
<path d="M52.076,518.32L57.41,518.32L57.41,523.66L52.076,523.66Z" style="fill:none;stroke:#7AC36A;stroke-width:0.625" />
<path d="M59.056,555.13L64.391,555.13L64.391,560.47L59.056,560.47Z" style="fill:none;stroke:#7AC36A;stroke-width:0.625" />
<path d="M66.037,578.49L71.371,578.49L71.371,583.83L66.037,583.83Z" style="fill:none;stroke:#7AC36A;stroke-width:0.625" />
<path d="M73.017,627.99L78.352,627.99L78.352,633.32L73.017,633.32Z" style="fill:none;stroke:#7AC36A;stroke-width:0.625" />
<path d="M79.997,640.63L85.332,640.63L85.332,645.97L79.997,645.97Z" style="fill:none;stroke:#7AC36A;stroke-width:0.625" />
<path d="M86.978,657.6L92.313,657.6L92.313,662.93L86.978,662.93Z" style="fill:none;stroke:#7AC36A;stroke-width:0.625" />
<path d="M93.958,674.17L99.293,674.17L99.293,679.51L93.958,679.51Z" style="fill:none;stroke:#7AC36A;stroke-width:0.625" />
<path d="M100.94,691.03L106.27,691.03L106.27,696.36L100.94,696.36Z" style="fill:none;stroke:#7AC36A;stroke-width:0.625" />
<path d="M107.92,720.59L113.25,720.59L113.25,725.92L107.92,725.92Z" style="fill:none;stroke:#7AC36A;stroke-width:0.625" />
<path d="M114.9,710.26L120.23,710.26L120.23,715.59L114.9,715.59Z" style="fill:none;stroke:#7AC36A;stroke-width:0.625" />
<path d="M121.88,726.42L127.21,726.42L127.21,731.75L121.88,731.75Z" style="fill:none;stroke:#7AC36A;stroke-width:0.625" />
<path d="M128.86,727.13L134.2,727.13L134.2,732.47L128.86,732.47Z" style="fill:none;stroke:#7AC36A;stroke-width:0.625" />
<path d="M135.84,687.48L141.18,687.48L141.18,692.82L135.84,692.82Z" style="fill:none;stroke:#7AC36A;stroke-width:0.625" />
<path d="M142.82,677.65L148.16,677.65L148.16,682.99L142.82,682.99Z" style="fill:none;stroke:#7AC36A;stroke-width:0.625" />
<path d="M149.8,668.09L155.14,668.09L155.14,673.43L149.8,673.43Z" style="fill:none;stroke:#7AC36A;stroke-width:0.625" />
<path d="M156.78,647.64L162.12,647.64L162.12,652.97L156.78,652.97Z" style="fill:none;stroke:#7AC36A;stroke-width:0.625" />
<path d="M163.76,589.65L169.1,589.65L169.1,594.98L163.76,594.98Z" style="fill:none;stroke:#7AC36A;stroke-width:0.625" />
<path d="M170.74,532.78L176.08,532.78L176.08,538.12L170.74,538.12Z" style="fill:none;stroke:#7AC36A;stroke-width:0.625" />
<path d="M177.72,454.17L183.06,454.17L183.06,459.51L177.72,459.51Z" style="fill:none;stroke:#7AC36A;stroke-width:0.625" />
<path d="M184.7,408.67L190.04,408.67L190.04,414L184.7,414Z" style="fill:none;stroke:#7AC36A;stroke-width:0.625" />
<path d="M191.68,336.66L197.02,336.66L197.02,341.99L191.68,341.99Z" style="fill:none;stroke:#7AC36A;stroke-width:0.625" />
<path d="M198.67,302.35L204,302.35L204,307.69L198.67,307.69Z" style="fill:none;stroke:#7AC36A;stroke-width:0.625" />
<path d="M205.65,253.96L210.98,253.96L210.98,259.3L205.65,259.3Z" style="fill:none;stroke:#7AC36A;stroke-width:0.625" />
<path d="M212.63,194.58L217.96,194.58L217.96,199.92L212.63,199.92Z" style="fill:none;stroke:#7AC36A;stroke-width:0.625" />
<path d="M219.61,156.85L224.94,156.85L224.94,162.19L219.61,162.19Z" style="fill:none;stroke:#7AC36A;stroke-width:0.625" />
<path d="M226.59,142.65L231.92,142.65L231.92,147.99L226.59,147.99Z" style="fill:none;stroke:#7AC36A;stroke-width:0.625" />
<path d="M233.57,130.42L238.9,130.42L238.9,135.76L233.57,135.76Z" style="fill:none;stroke:#7AC36A;stroke-width:0.625" />
<path d="M240.55,128.53L245.88,128.53L245.88,133.86L240.55,133.86Z" style="fill:none;stroke:#7AC36A;stroke-width:0.625" />
<path d="M247.53,110.48L252.86,110.48L252.86,115.82L247.53,115.82Z" style="fill:none;stroke:#7AC36A;stroke-width:0.625" />
<path d="M254.51,125.8L259.84,125.8L259.84,131.13L254.51,131.13Z" style="fill:none;stroke:#7AC36A;stroke-width:0.625" />
<path d="M261.49,147.5L266.82,147.5L266.82,152.84L261.49,152.84Z" style="fill:none;stroke:#7AC36A;stroke-width:0.625" />
<path d="M268.47,181.67L273.8,181.67L273.8,187.01L268.47,187.01Z" style="fill:none;stroke:#7AC36A;stroke-width:0.625" />
<path d="M275.45,195.97L280.79,195.97L280.79,201.31L275.45,201.31Z" style="fill:none;stroke:#7AC36A;stroke-width:0.625" />
<path d="M282.43,224.21L287.77,224.21L287.77,229.54L282.43,229.54Z" style="fill:none;stroke:#7AC36A;stroke-width:0.625" />
<path d="M289.41,280.97L294.75,280.97L294.75,286.31L289.41,286.31Z" style="fill:none;stroke:#7AC36A;stroke-width:0.625" />
<path d="M296.39,323.29L301.73,323.29L301.73,328.63L296.39,328.63Z" style="fill:none;stroke:#7AC36A;stroke-width:0.625" />
<path d="M303.37,346.14L308.71,346.14L308.71,351.48L303.37,351.48Z" style="fill:none;stroke:#7AC36A;stroke-width:0.625" />
<path d="M310.35,401.49L315.69,401.49L315.69,406.82L310.35,406.82Z" style="fill:none;stroke:#7AC36A;stroke-width:0.625" />
<path d="M317.33,444.1L322.67,444.1L322.67,449.43L317.33,449.43Z" style="fill:none;stroke:#7AC36A;stroke-width:0.625" />
<path d="M324.31,518.44L329.65,518.44L329.65,523.78L324.31,523.78Z" style="fill:none;stroke:#7AC36A;stroke-width:0.625" />
<path d="M331.29,585.17L336.63,585.17L336.63,590.5L331.29,590.5Z" style="fill:none;stroke:#7AC36A;stroke-width:0.625" />
<path d="M338.27,641.07L343.61,641.07L343.61,646.41L338.27,646.41Z" style="fill:none;stroke:#7AC36A;stroke-width:0.625" />
<path d="M345.26,685.38L350.59,685.38L350.59,690.71L345.26,690.71Z" style="fill:none;stroke:#7AC36A;stroke-width:0.625" />
<path d="M352.24,716.27L357.57,716.27L357.57,721.6L352.24,721.6Z" style="fill:none;stroke:#7AC36A;stroke-width:0.625" />
<path d="M359.22,754.19L364.55,754.19L364.55,759.52L359.22,759.52Z" style="fill:none;stroke:#7AC36A;stroke-width:0.625" />
<path d="M366.2,776.52L371.53,776.52L371.53,781.85L366.2,781.85Z" style="fill:none;stroke:#7AC36A;stroke-width:0.625" />
<path d="M373.18,765.79L378.51,765.79L378.51,771.13L373.18,771.13Z" style="fill:none;stroke:#7AC36A;stroke-width:0.625" />
<path d="M380.16,746.91L385.49,746.91L385.49,752.25L380.16,752.25Z" style="fill:none;stroke:#7AC36A;stroke-width:0.625" />
<path d="M387.14,747.09L392.47,747.09L392.47,752.43L387.14,752.43Z" style="fill:none;stroke:#7AC36A;stroke-width:0.625" />
<path d="M394.12,742.86L399.45,742.86L399.45,748.19L394.12,748.19Z" style="fill:none;stroke:#7AC36A;stroke-width:0.625" />
<path d="M401.1,733.76L406.43,733.76L406.43,739.1L401.1,739.1Z" style="fill:none;stroke:#7AC36A;stroke-width:0.625" />
<path d="M408.08,675.45L413.41,675.45L413.41,680.79L408.08,680.79Z" style="fill:none;stroke:#7AC36A;stroke-width:0.625" />
<path d="M415.06,603.05L420.39,603.05L420.39,608.38L415.06,608.38Z" style="fill:none;stroke:#7AC36A;stroke-width:0.625" />
<path d="M422.04,553.36L427.37,553.36L427.37,558.69L422.04,558.69Z" style="fill:none;stroke:#7AC36A;stroke-width:0.625" />
<path d="M429.02,497.97L434.36,497.97L434.36,503.3L429.02,503.3Z" style="fill:none;stroke:#7AC36A;stroke-width:0.625" />
<path d="M436,431.87L441.34,431.87L441.34,437.2L436,437.2Z" style="fill:none;stroke:#7AC36A;stroke-width:0.625" />
<path d="M442.98,382.74L448.32,382.74L448.32,388.07L442.98,388.07Z" style="fill:none;stroke:#7AC36A;stroke-width:0.625" />
<path d="M449.96,321.37L455.3,321.37L455.3,326.71L449.96,326.71Z" style="fill:none;stroke:#7AC36A;stroke-width:0.625" />
<path d="M456.94,254.63L462.28,254.63L462.28,259.97L456.94,259.97Z" style="fill:none;stroke:#7AC36A;stroke-width:0.625" />
<path d="M463.92,219.54L469.26,219.54L469.26,224.87L463.92,224.87Z" style="fill:none;stroke:#7AC36A;stroke-width:0.625" />
<path d="M470.9,178.29L476.24,178.29L476.24,183.62L470.9,183.62Z" style="fill:none;stroke:#7AC36A;stroke-width:0.625" />
<path d="M477.88,134.89L483.22,134.89L483.22,140.23L477.88,140.23Z" style="fill:none;stroke:#7AC36A;stroke-width:0.625" />
<path d="M484.86,124.66L490.2,124.66L490.2,130L484.86,130Z" style="fill:none;stroke:#7AC36A;stroke-width:0.625" />
<path d="M491.84,105.96L497.18,105.96L497.18,111.29L491.84,111.29Z" style="fill:none;stroke:#7AC36A;stroke-width:0.625" />
<path d="M498.83,102.24L504.16,102.24L504.16,107.58L498.83,107.58Z" style="fill:none;stroke:#7AC36A;stroke-width:0.625" />
<path d="M505.81,123.06L511.14,123.06L511.14,128.39L505.81,128.39Z" style="fill:none;stroke:#7AC36A;stroke-width:0.625" />
<path d="M512.79,104.4L518.12,104.4L518.12,109.73L512.79,109.73Z" style="fill:none;stroke:#7AC36A;stroke-width:0.625" />
<path d="M519.77,134.75L525.1,134.75L525.1,140.09L519.77,140.09Z" style="fill:none;stroke:#7AC36A;stroke-width:0.625" />
<path d="M526.75,173.55L532.08,173.55L532.08,178.89L526.75,178.89Z" style="fill:none;stroke:#7AC36A;stroke-width:0.625" />
<path d="M533.73,210.52L539.06,210.52L539.06,215.85L533.73,215.85Z" style="fill:none;stroke:#7AC36A;stroke-width:0.625" />
<path d="M540.71,250.54L546.04,250.54L546.04,255.87L540.71,255.87Z" style="fill:none;stroke:#7AC36A;stroke-width:0.625" />
<path d="M547.69,268.65L553.02,268.65L553.02,273.98L547.69,273.98Z" style="fill:none;stroke:#7AC36A;stroke-width:0.625" />
<path d="M554.67,333.32L560,333.32L560,338.65L554.67,338.65Z" style="fill:none;stroke:#7AC36A;stroke-width:0.625" />
<path d="M561.65,361.07L566.98,361.07L566.98,366.41L561.65,366.41Z" style="fill:none;stroke:#7AC36A;stroke-width:0.625" />
<path d="M568.63,417.2L573.96,417.2L573.96,422.53L568.63,422.53Z" style="fill:none;stroke:#7AC36A;stroke-width:0.625" />
<path d="M575.61,469.03L580.95,469.03L580.95,474.37L575.61,474.37Z" style="fill:none;stroke:#7AC36A;stroke-width:0.625" />
<path d="M582.59,528.8L587.93,528.8L587.93,534.14L582.59,534.14Z" style="fill:none;stroke:#7AC36A;stroke-width:0.625" />
<path d="M589.57,580.26L594.91,580.26L594.91,585.6L589.57,585.6Z" style="fill:none;stroke:#7AC36A;stroke-width:0.625" />
<path d="M596.55,617.9L601.89,617.9L601.89,623.24L596.55,623.24Z" style="fill:none;stroke:#7AC36A;stroke-width:0.625" />
<path d="M603.53,645.69L608.87,645.69L608.87,651.03L603.53,651.03Z" style="fill:none;stroke:#7AC36A;stroke-width:0.625" />
<path d="M610.51,655.3L615.85,655.3L615.85,660.63L610.51,660.63Z" style="fill:none;stroke:#7AC36A;stroke-width:0.625" />
<path d="M617.49,698L622.83,698L622.83,703.33L617.49,703.33Z" style="fill:none;stroke:#7AC36A;stroke-width:0.625" />
<path d="M624.47,698.73L629.81,698.73L629.81,704.07L624.47,704.07Z" style="fill:none;stroke:#7AC36A;stroke-width:0.625" />
<path d="M631.45,698.6L636.79,698.6L636.79,703.93L631.45,703.93Z" style="fill:none;stroke:#7AC36A;stroke-width:0.625" />
<path d="M638.43,725.55L643.77,725.55L643.77,730.88L638.43,730.88Z" style="fill:none;stroke:#7AC36A;stroke-width:0.625" />
<path d="M645.42,734.87L650.75,734.87L650.75,740.21L645.42,740.21Z" style="fill:none;stroke:#7AC36A;stroke-width:0.625" />
<path d="M652.4,713.71L657.73,713.71L657.73,719.05L652.4,719.05Z" style="fill:none;stroke:#7AC36A;stroke-width:0.625" />
<path d="M659.38,665.21L664.71,665.21L664.71,670.54L659.38,670.54Z" style="fill:none;stroke:#7AC36A;stroke-width:0.625" />
<path d="M666.36,619.15L671.69,619.15L671.69,624.49L666.36,624.49Z" style="fill:none;stroke:#7AC36A;stroke-width:0.625" />
<path d="M673.34,581.78L678.67,581.78L678.67,587.11L673.34,587.11Z" style="fill:none;stroke:#7AC36A;stroke-width:0.625" />
<path d="M680.32,533.99L685.65,533.99L685.65,539.33L680.32,539.33Z" style="fill:none;stroke:#7AC36A;stroke-width:0.625" />
<path d="M687.3,501.87L692.63,501.87L692.63,507.2L687.3,507.2Z" style="fill:none;stroke:#7AC36A;stroke-width:0.625" />
<path d="M694.28,454.43L699.61,454.43L699.61,459.77L694.28,459.77Z" style="fill:none;stroke:#7AC36A;stroke-width:0.625" />
<path d="M701.26,401.21L706.59,401.21L706.59,406.55L701.26,406.55Z" style="fill:none;stroke:#7AC36A;stroke-width:0.625" />
<path d="M708.24,328.86L713.57,328.86L713.57,334.19L708.24,334.19Z" style="fill:none;stroke:#7AC36A;stroke-width:0.625" />
<path d="M715.22,277.07L720.55,277.07L720.55,282.41L715.22,282.41Z" style="fill:none;stroke:#7AC36A;stroke-width:0.625" />
<path d="M722.2,214.56L727.53,214.56L727.53,219.89L722.2,219.89Z" style="fill:none;stroke:#7AC36A;stroke-width:0.625" />
<path d="M729.18,166.8L734.52,166.8L734.52,172.13L729.18,172.13Z" style="fill:none;stroke:#7AC36A;stroke-width:0.625" />
<path d="M736.16,107.13L741.5,107.13L741.5,112.47L736.16,112.47Z" style="fill:none;stroke:#7AC36A;stroke-width:0.625" />
<path d="M743.14,71.149L748.48,71.149L748.48,76.484L743.14,76.484Z" style="fill:none;stroke:#7AC36A;stroke-width:0.625" />
<path d="M750.12,66.368L755.46,66.368L755.46,71.702L750.12,71.702Z" style="fill:none;stroke:#7AC36A;stroke-width:0.625" />
<path d="M757.1,60.601L762.44,60.601L762.44,65.936L757.1,65.936Z" style="fill:none;stroke:#7AC36A;stroke-width:0.625" />
<path d="M764.08,79.58L769.42,79.58L769.42,84.915L764.08,84.915Z" style="fill:none;stroke:#7AC36A;stroke-width:0.625" />
<path d="M771.06,113.02L776.4,113.02L776.4,118.36L771.06,118.36Z" style="fill:none;stroke:#7AC36A;stroke-width:0.625" />
<path d="M778.04,116.4L783.38,116.4L783.38,121.74L778.04,121.74Z" style="fill:none;stroke:#7AC36A;stroke-width:0.625" />
<path d="M785.02,153.14L790.36,153.14L790.36,158.48L785.02,158.48Z" style="fill:none;stroke:#7AC36A;stroke-width:0.625" />
<path d="M792,173.66L797.34,173.66L797.34,178.99L792,178.99Z" style="fill:none;stroke:#7AC36A;stroke-width:0.625" />
<path d="M798.99,214.5L804.32,214.5L804.32,219.83L798.99,219.83Z" style="fill:none;stroke:#7AC36A;stroke-width:0.625" />
<path d="M805.97,272.64L811.3,272.64L811.3,277.97L805.97,277.97Z" style="fill:none;stroke:#7AC36A;stroke-width:0.625" />
<path d="M812.95,335.39L818.28,335.39L818.28,340.72L812.95,340.72Z" style="fill:none;stroke:#7AC36A;stroke-width:0.625" />
<path d="M819.93,384.78L825.26,384.78L825.26,390.12L819.93,390.12Z" style="fill:none;stroke:#7AC36A;stroke-width:0.625" />
<path d="M826.91,434.63L832.24,434.63L832.24,439.97L826.91,439.97Z" style="fill:none;stroke:#7AC36A;stroke-width:0.625" />
<path d="M833.89,501.33L839.22,501.33L839.22,506.67L833.89,506.67Z" style="fill:none;stroke:#7AC36A;stroke-width:0.625" />
<path d="M840.87,537.07L846.2,537.07L846.2,542.41L840.87,542.41Z" style="fill:none;stroke:#7AC36A;stroke-width:0.625" />
<path d="M847.85,592.15L853.18,592.15L853.18,597.49L847.85,597.49Z" style="fill:none;stroke:#7AC36A;stroke-width:0.625" />
<path d="M854.83,651.41L860.16,651.41L860.16,656.75L854.83,656.75Z" style="fill:none;stroke:#7AC36A;stroke-width:0.625" />
<path d="M861.81,696.61L867.14,696.61L867.14,701.95L861.81,701.95Z" style="fill:none;stroke:#7AC36A;stroke-width:0.625" />
<path d="M868.79,709.25L874.12,709.25L874.12,714.58L868.79,714.58Z" style="fill:none;stroke:#7AC36A;stroke-width:0.625" />
<path d="M875.77,719.97L881.11,719.97L881.11,725.31L875.77,725.31Z" style="fill:none;stroke:#7AC36A;stroke-width:0.625" />
<path d="M882.75,728.04L888.09,728.04L888.09,733.37L882.75,733.37Z" style="fill:none;stroke:#7AC36A;stroke-width:0.625" />
<path d="M889.73,741L895.07,741L895.07,746.34L889.73,746.34Z" style="fill:none;stroke:#7AC36A;stroke-width:0.625" />
<path d="M896.71,724.42L902.05,724.42L902.05,729.75L896.71,729.75Z" style="fill:none;stroke:#7AC36A;stroke-width:0.625" />
<path d="M903.69,730.65L909.03,730.65L909.03,735.98L903.69,735.98Z" style="fill:none;stroke:#7AC36A;stroke-width:0.625" />
<path d="M910.67,729.08L916.01,729.08L916.01,734.42L910.67,734.42Z" style="fill:none;stroke:#7AC36A;stroke-width:0.625" />
<path d="M917.65,694.9L922.99,694.9L922.99,700.23L917.65,700.23Z" style="fill:none;stroke:#7AC36A;stroke-width:0.625" />
<path d="M924.63,633.04L929.97,633.04L929.97,638.37L924.63,638.37Z" style="fill:none;stroke:#7AC36A;stroke-width:0.625" />
<path d="M931.61,576.83L936.95,576.83L936.95,582.16L931.61,582.16Z" style="fill:none;stroke:#7AC36A;stroke-width:0.625" />
<path d="M938.59,513.4L943.93,513.4L943.93,518.74L938.59,518.74Z" style="fill:none;stroke:#7AC36A;stroke-width:0.625" />
<path d="M945.58,434.26L950.91,434.26L950.91,439.59L945.58,439.59Z" style="fill:none;stroke:#7AC36A;stroke-width:0.625" />
<path d="M952.56,383.39L957.89,383.39L957.89,388.73L952.56,388.73Z" style="fill:none;stroke:#7AC36A;stroke-width:0.625" />
<path d="M959.54,351.07L964.87,351.07L964.87,356.4L959.54,356.4Z" style="fill:none;stroke:#7AC36A;stroke-width:0.625" />
<path d="M966.52,318.27L971.85,318.27L971.85,323.6L966.52,323.6Z" style="fill:none;stroke:#7AC36A;stroke-width:0.625" />
<path d="M973.5,263.88L978.83,263.88L978.83,269.22L973.5,269.22Z" style="fill:none;stroke:#7AC36A;stroke-width:0.625" />
<path d="M980.48,216.2L985.81,216.2L985.81,221.53L980.48,221.53Z" style="fill:none;stroke:#7AC36A;stroke-width:0.625" />
<path d="M987.46,166.2L992.79,166.2L992.79,171.54L987.46,171.54Z" style="fill:none;stroke:#7AC36A;stroke-width:0.625" />
<path d="M994.44,146.12L999.77,146.12L999.77,151.45L994.44,151.45Z" style="fill:none;stroke:#7AC36A;stroke-width:0.625" />
<path d="M1001.4,95.239L1006.8,95.239L1006.8,100.57L1001.4,100.57Z" style="fill:none;stroke:#7AC36A;stroke-width:0.625" />
<path d="M1008.4,60.709L1013.7,60.709L1013.7,66.043L1008.4,66.043Z" style="fill:none;stroke:#7AC36A;stroke-width:0.625" />
<path d="M1015.4,68.671L1020.7,68.671L1020.7,74.006L1015.4,74.006Z" style="fill:none;stroke:#7AC36A;stroke-width:0.625" />
<path d="M1022.4,46.645L1027.7,46.645L1027.7,51.98L1022.4,51.98Z" style="fill:none;stroke:#7AC36A;stroke-width:0.625" />
<path d="M1029.3,52.613L1034.7,52.613L1034.7,57.948L1029.3,57.948Z" style="fill:none;stroke:#7AC36A;stroke-width:0.625" />
<path d="M1036.3,97.267L1041.7,97.267L1041.7,102.6L1036.3,102.6Z" style="fill:none;stroke:#7AC36A;stroke-width:0.625" />
<path d="M1043.3,119.12L1048.6,119.12L1048.6,124.45L1043.3,124.45Z" style="fill:none;stroke:#7AC36A;stroke-width:0.625" />
<path d="M1050.3,135.11L1055.6,135.11L1055.6,140.44L1050.3,140.44Z" style="fill:none;stroke:#7AC36A;stroke-width:0.625" />
<path d="M1057.3,155.27L1062.6,155.27L1062.6,160.6L1057.3,160.6Z" style="fill:none;stroke:#7AC36A;stroke-width:0.625" />
<path d="M1064.2,223.02L1069.6,223.02L1069.6,228.36L1064.2,228.36Z" style="fill:none;stroke:#7AC36A;stroke-width:0.625" />
<path d="M1071.2,301.12L1076.6,301.12L1076.6,306.45L1071.2,306.45Z" style="fill:none;stroke:#7AC36A;stroke-width:0.625" />
<path d="M1078.2,381.24L1083.5,381.24L1083.5,386.58L1078.2,386.58Z" style="fill:none;stroke:#7AC36A;stroke-width:0.625" />
<path d="M1085.2,435.01L1090.5,435.01L1090.5,440.35L1085.2,440.35Z" style="fill:none;stroke:#7AC36A;stroke-width:0.625" />
<path d="M1092.2,516.2L1097.5,516.2L1097.5,521.53L1092.2,521.53Z" style="fill:none;stroke:#7AC36A;stroke-width:0.625" />
<path d="M1099.1,555.41L1104.5,555.41L1104.5,560.74L1099.1,560.74Z" style="fill:none;stroke:#7AC36A;stroke-width:0.625" />
<path d="M1106.1,620.46L1111.5,620.46L1111.5,625.8L1106.1,625.8Z" style="fill:none;stroke:#7AC36A;stroke-width:0.625" />
<path d="M1113.1,650.48L1118.4,650.48L1118.4,655.82L1113.1,655.82Z" style="fill:none;stroke:#7AC36A;stroke-width:0.625" />
<path d="M1120.1,693.44L1125.4,693.44L1125.4,698.78L1120.1,698.78Z" style="fill:none;stroke:#7AC36A;stroke-width:0.625" />
<path d="M1127.1,723.14L1132.4,723.14L1132.4,728.47L1127.1,728.47Z" style="fill:none;stroke:#7AC36A;stroke-width:0.625" />
<path d="M1134,745.59L1139.4,745.59L1139.4,750.92L1134,750.92Z" style="fill:none;stroke:#7AC36A;stroke-width:0.625" />
<path d="M1141,782.54L1146.4,782.54L1146.4,787.87L1141,787.87Z" style="fill:none;stroke:#7AC36A;stroke-width:0.625" />
<path d="M1148,804.21L1153.3,804.21L1153.3,809.54L1148,809.54Z" style="fill:none;stroke:#7AC36A;stroke-width:0.625" />
<path d="M1155,801.05L1160.3,801.05L1160.3,806.38L1155,806.38Z" style="fill:none;stroke:#7AC36A;stroke-width:0.625" />
<path d="M1162,776.81L1167.3,776.81L1167.3,782.14L1162,782.14Z" style="fill:none;stroke:#7AC36A;stroke-width:0.625" />
<path d="M1168.9,767.82L1174.3,767.82L1174.3,773.16L1168.9,773.16Z" style="fill:none;stroke:#7AC36A;stroke-width:0.625" />
<path d="M1175.9,707.91L1181.3,707.91L1181.3,713.24L1175.9,713.24Z" style="fill:none;stroke:#7AC36A;stroke-width:0.625" />
<path d="M1182.9,659.39L1188.2,659.39L1188.2,664.72L1182.9,664.72Z" style="fill:none;stroke:#7AC36A;stroke-width:0.625" />
<path d="M1189.9,596.69L1195.2,596.69L1195.2,602.02L1189.9,602.02Z" style="fill:none;stroke:#7AC36A;stroke-width:0.625" />
<path d="M1196.9,521.71L1202.2,521.71L1202.2,527.05L1196.9,527.05Z" style="fill:none;stroke:#7AC36A;stroke-width:0.625" />
<path d="M1203.9,470.77L1209.2,470.77L1209.2,476.11L1203.9,476.11Z" style="fill:none;stroke:#7AC36A;stroke-width:0.625" />
<path d="M1210.8,429.42L1216.2,429.42L1216.2,434.75L1210.8,434.75Z" style="fill:none;stroke:#7AC36A;stroke-width:0.625" />
<path d="M1217.8,361.53L1223.1,361.53L1223.1,366.87L1217.8,366.87Z" style="fill:none;stroke:#7AC36A;stroke-width:0.625" />
<path d="M1224.8,289.58L1230.1,289.58L1230.1,294.92L1224.8,294.92Z" style="fill:none;stroke:#7AC36A;stroke-width:0.625" />
<path d="M1231.8,214.79L1237.1,214.79L1237.1,220.13L1231.8,220.13Z" style="fill:none;stroke:#7AC36A;stroke-width:0.625" />
<path d="M1238.8,174.14L1244.1,174.14L1244.1,179.47L1238.8,179.47Z" style="fill:none;stroke:#7AC36A;stroke-width:0.625" />
<path d="M1245.7,133.35L1251.1,133.35L1251.1,138.68L1245.7,138.68Z" style="fill:none;stroke:#7AC36A;stroke-width:0.625" />
<path d="M1252.7,100.5L1258.1,100.5L1258.1,105.83L1252.7,105.83Z" style="fill:none;stroke:#7AC36A;stroke-width:0.625" />
<path d="M1259.7,94.347L1265,94.347L1265,99.681L1259.7,99.681Z" style="fill:none;stroke:#7AC36A;stroke-width:0.625" />
<path d="M1266.7,76.139L1272,76.139L1272,81.473L1266.7,81.473Z" style="fill:none;stroke:#7AC36A;stroke-width:0.625" />
<path d="M1273.7,58.128L1279,58.128L1279,63.463L1273.7,63.463Z" style="fill:none;stroke:#7AC36A;stroke-width:0.625" />
<path d="M1280.6,77.413L1286,77.413L1286,82.747L1280.6,82.747Z" style="fill:none;stroke:#7AC36A;stroke-width:0.625" />
<path d="M1287.6,109.49L1293,109.49L1293,114.83L1287.6,114.83Z" style="fill:none;stroke:#7AC36A;stroke-width:0.625" />
<path d="M1294.6,117.64L1299.9,117.64L1299.9,122.97L1294.6,122.97Z" style="fill:none;stroke:#7AC36A;stroke-width:0.625" />
<path d="M1301.6,163.23L1306.9,163.23L1306.9,168.56L1301.6,168.56Z" style="fill:none;stroke:#7AC36A;stroke-width:0.625" />
<path d="M1308.6,206.54L1313.9,206.54L1313.9,211.88L1308.6,211.88Z" style="fill:none;stroke:#7AC36A;stroke-width:0.625" />
<path d="M1315.5,235.9L1320.9,235.9L1320.9,241.23L1315.5,241.23Z" style="fill:none;stroke:#7AC36A;stroke-width:0.625" />
<path d="M1322.5,276.58L1327.9,276.58L1327.9,281.92L1322.5,281.92Z" style="fill:none;stroke:#7AC36A;stroke-width:0.625" />
<path d="M1329.5,302.6L1334.8,302.6L1334.8,307.94L1329.5,307.94Z" style="fill:none;stroke:#7AC36A;stroke-width:0.625" />
<path d="M1336.5,368.29L1341.8,368.29L1341.8,373.63L1336.5,373.63Z" style="fill:none;stroke:#7AC36A;stroke-width:0.625" />
<path d="M1343.5,441.27L1348.8,441.27L1348.8,446.61L1343.5,446.61Z" style="fill:none;stroke:#7AC36A;stroke-width:0.625" />
<path d="M1350.4,512.42L1355.8,512.42L1355.8,517.76L1350.4,517.76Z" style="fill:none;stroke:#7AC36A;stroke-width:0.625" />
<path d="M1357.4,553.55L1362.8,553.55L1362.8,558.88L1357.4,558.88Z" style="fill:none;stroke:#7AC36A;stroke-width:0.625" />
<path d="M1364.4,591.42L1369.7,591.42L1369.7,596.76L1364.4,596.76Z" style="fill:none;stroke:#7AC36A;stroke-width:0.625" />
<path d="M1371.4,616.55L1376.7,616.55L1376.7,621.88L1371.4,621.88Z" style="fill:none;stroke:#7AC36A;stroke-width:0.625" />
<path d="M1378.4,673.11L1383.7,673.11L1383.7,678.44L1378.4,678.44Z" style="fill:none;stroke:#7AC36A;stroke-width:0.625" />
<path d="M1385.3,723.43L1390.7,723.43L1390.7,728.76L1385.3,728.76Z" style="fill:none;stroke:#7AC36A;stroke-width:0.625" />
<path d="M1392.3,768.43L1397.7,768.43L1397.7,773.77L1392.3,773.77Z" style="fill:none;stroke:#7AC36A;stroke-width:0.625" />
<path d="M1399.3,760.26L1404.6,760.26L1404.6,765.59L1399.3,765.59Z" style="fill:none;stroke:#7AC36A;stroke-width:0.625" />
<path d="M1406.3,773.89L1411.6,773.89L1411.6,779.22L1406.3,779.22Z" style="fill:none;stroke:#7AC36A;stroke-width:0.625" />
<path d="M1413.3,785.56L1418.6,785.56L1418.6,790.89L1413.3,790.89Z" style="fill:none;stroke:#7AC36A;stroke-width:0.625" />
<path d="M1420.2,789.43L1425.6,789.43L1425.6,794.76L1420.2,794.76Z" style="fill:none;stroke:#7AC36A;stroke-width:0.625" />
<path d="M1427.2,786.4L1432.6,786.4L1432.6,791.73L1427.2,791.73Z" style="fill:none;stroke:#7AC36A;stroke-width:0.625" />
<path d="M1434.2,733.18L1439.5,733.18L1439.5,738.51L1434.2,738.51Z" style="fill:none;stroke:#7AC36A;stroke-width:0.625" />
<path d="M1415,66.978L1440,66.978" style="fill:none;stroke:#F15A60;stroke-width:1.25" />
<path d="M1430.6,66.978A3.125,3.125 0 1 1 1424.4,66.978A3.125,3.125 0 1 1 1430.6,66.978Z" style="fill:none;stroke:#F15A60;stroke-width:0.625" />
<text x="1388.8" y="-61.188" transform="scale(1, -1)"
	style="font-family:Times;font-weight:normal;font-style:normal;font-size:12pt">raw</text>
<path d="M1415,53.117L1440,53.117" style="fill:none;stroke:#7AC36A;stroke-width:1.25;stroke-dasharray:7.5,2.5" />
<path d="M1424.8,50.45L1430.2,50.45L1430.2,55.785L1424.8,55.785Z" style="fill:none;stroke:#7AC36A;stroke-width:0.625" />
<text x="1367.1" y="-47.328" transform="scale(1, -1)"
	style="font-family:Times;font-weight:normal;font-style:normal;font-size:12pt">smooth</text>
</g>
</svg>
