<?xml version="1.0"?>
<!-- Generated by SVGo and Plotinum VG -->
<svg width="16in" height="9in"
	xmlns="http://www.w3.org/2000/svg"
	xmlns:xlink="http://www.w3.org/1999/xlink">
<g transform="scale(1, -1) translate(0, -810)">
<path d="M0,0L1440,0L1440,810L0,810Z" style="fill:#FFFFFF" />
<text x="739.58" y="-4.8267" transform="scale(1, -1)"
	style="font-family:Times;font-weight:normal;font-style:normal;font-size:12pt">X</text>
<text x="49.995" y="-19.502" transform="scale(1, -1)"
	style="font-family:Times;font-weight:normal;font-style:normal;font-size:10pt">0</text>
<text x="464.08" y="-19.502" transform="scale(1, -1)"
	style="font-family:Times;font-weight:normal;font-style:normal;font-size:10pt">60</text>
<text x="878.17" y="-19.502" transform="scale(1, -1)"
	style="font-family:Times;font-weight:normal;font-style:normal;font-size:10pt">120</text>
<text x="1295.4" y="-19.502" transform="scale(1, -1)"
	style="font-family:Times;font-weight:normal;font-style:normal;font-size:10pt">180</text>
<path d="M53.12,31.538L53.12,41.538" style="fill:none;stroke:#000000;stroke-width:0.625" />
<path d="M470.33,31.538L470.33,41.538" style="fill:none;stroke:#000000;stroke-width:0.625" />
<path d="M887.55,31.538L887.55,41.538" style="fill:none;stroke:#000000;stroke-width:0.625" />
<path d="M1304.8,31.538L1304.8,41.538" style="fill:none;stroke:#000000;stroke-width:0.625" />
<path d="M192.19,36.538L192.19,41.538" style="fill:none;stroke:#000000;stroke-width:0.625" />
<path d="M331.26,36.538L331.26,41.538" style="fill:none;stroke:#000000;stroke-width:0.625" />
<path d="M609.4,36.538L609.4,41.538" style="fill:none;stroke:#000000;stroke-width:0.625" />
<path d="M748.47,36.538L748.47,41.538" style="fill:none;stroke:#000000;stroke-width:0.625" />
<path d="M1026.6,36.538L1026.6,41.538" style="fill:none;stroke:#000000;stroke-width:0.625" />
<path d="M1165.7,36.538L1165.7,41.538" style="fill:none;stroke:#000000;stroke-width:0.625" />
<path d="M53.12,41.538L1436.9,41.538" style="fill:none;stroke:#000000;stroke-width:0.625" />
<g transform="rotate(90)">
<text x="423.63" y="14.443" transform="scale(1, -1)"
	style="font-family:Times;font-weight:normal;font-style:normal;font-size:12pt">Y</text>
</g>
<text x="19.27" y="-57.925" transform="scale(1, -1)"
	style="font-family:Times;font-weight:normal;font-style:normal;font-size:10pt">-1</text>
<text x="23.433" y="-299.93" transform="scale(1, -1)"
	style="font-family:Times;font-weight:normal;font-style:normal;font-size:10pt">0</text>
<text x="23.433" y="-541.93" transform="scale(1, -1)"
	style="font-family:Times;font-weight:normal;font-style:normal;font-size:10pt">1</text>
<text x="23.433" y="-783.94" transform="scale(1, -1)"
	style="font-family:Times;font-weight:normal;font-style:normal;font-size:10pt">2</text>
<path d="M32.808,63.827L42.808,63.827" style="fill:none;stroke:#000000;stroke-width:0.625" />
<path d="M32.808,305.83L42.808,305.83" style="fill:none;stroke:#000000;stroke-width:0.625" />
<path d="M32.808,547.84L42.808,547.84" style="fill:none;stroke:#000000;stroke-width:0.625" />
<path d="M32.808,789.84L42.808,789.84" style="fill:none;stroke:#000000;stroke-width:0.625" />
<path d="M37.808,184.83L42.808,184.83" style="fill:none;stroke:#000000;stroke-width:0.625" />
<path d="M37.808,426.83L42.808,426.83" style="fill:none;stroke:#000000;stroke-width:0.625" />
<path d="M37.808,668.84L42.808,668.84" style="fill:none;stroke:#000000;stroke-width:0.625" />
<path d="M42.808,51.226L42.808,806.88" style="fill:none;stroke:#000000;stroke-width:0.625" />
<path d="M53.12,419.32L60.074,363.1L67.027,580.95L73.981,641.37L80.934,613.31L87.888,676.65L94.841,756.31L101.79,566.47L108.75,614.01L115.7,551.59L122.66,590.31L129.61,630.22L136.56,531.17L143.52,541.04L150.47,633.5L157.42,462.34L164.38,491.6L171.33,359.86L178.28,506.41L185.24,370L192.19,249.03L199.14,277.59L206.1,373.36L213.05,143.52L220.01,273.33L226.96,224.84L233.91,309.09L240.87,68.752L247.82,132.27L254.77,114.8L261.73,182.44L268.68,361.81L275.63,285.21L282.59,217.68L289.54,365.05L296.49,370.17L303.45,445.46L310.4,397.53L317.35,542.83L324.31,519.3L331.26,569.65L338.22,649.06L345.17,744.73L352.12,707.27L359.08,683.17L366.03,613.36L372.98,709.89L379.94,593.58L386.89,541.91L393.84,517.78L400.8,472.97L407.75,557.3L414.7,449.67L421.66,492.87L428.61,515.84L435.56,381.33L442.52,288.59L449.47,243.74L456.43,218.58L463.38,164.82L470.33,221.07L477.29,203.21L484.24,208.4L491.19,163.38L498.15,110.44L505.1,163.89L512.05,181.51L519.01,359.64L525.96,212.64L532.91,410.54L539.87,343.08L546.82,427.45L553.78,376.53L560.73,492.19L567.68,534.02L574.64,616.41L581.59,597.57L588.54,615.5L595.5,693.5L602.45,580.5L609.4,713.95L616.36,767.92L623.31,732.87L630.26,614.51L637.22,718L644.17,634.4L651.12,478.65L658.08,460.2L665.03,428.41L671.99,507.77L678.94,506.37L685.89,269.1L692.85,440.04L699.8,367.22L706.75,160.79L713.71,321.02L720.66,224.36L727.61,314L734.57,130.63L741.52,179.87L748.47,184.95L755.43,81.312L762.38,225.33L769.33,277L776.29,237.77L783.24,417.34L790.2,237.94L797.15,287.69L804.1,340.36L811.06,523.09L818.01,455.21L824.96,651.7L831.92,526.01L838.87,576.55L845.82,561.66L852.78,644.76L859.73,786.03L866.68,562.23L873.64,735.98L880.59,680.94L887.55,523.77L894.5,699.85L901.45,467.63L908.41,548.39L915.36,453.67L922.31,526.09L929.27,308.1L936.22,292.28L943.17,283.35L950.13,186.24L957.08,334.36L964.03,235.29L970.99,95.92L977.94,145.54L984.89,123.71L991.85,304.34L998.8,203.38L1005.8,307.5L1012.7,145.57L1019.7,220.44L1026.6,208.07L1033.6,399.39L1040.5,457.15L1047.5,443.23L1054.4,319.51L1061.4,468.25L1068.3,503.52L1075.3,543.27L1082.2,462.33L1089.2,705.82L1096.2,615.08L1103.1,736.41L1110.1,559.27L1117,709.85L1124,602.69L1130.9,738.62L1137.9,722.56L1144.8,652.41L1151.8,503.86L1158.7,524.62L1165.7,561.92L1172.6,410.16L1179.6,463.63L1186.5,488.7L1193.5,419.64L1200.5,205L1207.4,224.57L1214.4,122.34L1221.3,131.5L1228.3,258.86L1235.2,272.09L1242.2,299.56L1249.1,77.843L1256.1,98.893L1263,303.57L1270,167.15L1276.9,234.57L1283.9,241.13L1290.9,257.16L1297.8,282.44L1304.8,406.6L1311.7,383.17L1318.7,423.26L1325.6,654.94L1332.6,661.18L1339.5,693.07L1346.5,651.84L1353.4,565.94L1360.4,683.05L1367.3,562.9L1374.3,754.26L1381.2,544.76L1388.2,542.95L1395.2,518.07L1402.1,541.21L1409.1,471.9L1416,509.61L1423,560.8L1429.9,321.97L1436.9,457.67" style="fill:none;stroke:#F15A60;stroke-width:1.25" />
<path d="M56.245,419.32A3.125,3.125 0 1 1 49.995,419.32A3.125,3.125 0 1 1 56.245,419.32Z" style="fill:none;stroke:#F15A60;stroke-width:0.625" />
<path d="M63.199,363.1A3.125,3.125 0 1 1 56.949,363.1A3.125,3.125 0 1 1 63.199,363.1Z" style="fill:none;stroke:#F15A60;stroke-width:0.625" />
<path d="M70.152,580.95A3.125,3.125 0 1 1 63.902,580.95A3.125,3.125 0 1 1 70.152,580.95Z" style="fill:none;stroke:#F15A60;stroke-width:0.625" />
<path d="M77.106,641.37A3.125,3.125 0 1 1 70.856,641.37A3.125,3.125 0 1 1 77.106,641.37Z" style="fill:none;stroke:#F15A60;stroke-width:0.625" />
<path d="M84.059,613.31A3.125,3.125 0 1 1 77.809,613.31A3.125,3.125 0 1 1 84.059,613.31Z" style="fill:none;stroke:#F15A60;stroke-width:0.625" />
<path d="M91.013,676.65A3.125,3.125 0 1 1 84.763,676.65A3.125,3.125 0 1 1 91.013,676.65Z" style="fill:none;stroke:#F15A60;stroke-width:0.625" />
<path d="M97.966,756.31A3.125,3.125 0 1 1 91.716,756.31A3.125,3.125 0 1 1 97.966,756.31Z" style="fill:none;stroke:#F15A60;stroke-width:0.625" />
<path d="M104.92,566.47L104.92,566.47A3.125,3.125 0 1 1 98.67,566.47A3.125,3.125 0 1 1 104.92,566.47Z" style="fill:none;stroke:#F15A60;stroke-width:0.625" />
<path d="M111.87,614.01L111.87,614.01A3.125,3.125 0 1 1 105.62,614.01A3.125,3.125 0 1 1 111.87,614.01Z" style="fill:none;stroke:#F15A60;stroke-width:0.625" />
<path d="M118.83,551.59A3.125,3.125 0 1 1 112.58,551.59A3.125,3.125 0 1 1 118.83,551.59Z" style="fill:none;stroke:#F15A60;stroke-width:0.625" />
<path d="M125.78,590.31L125.78,590.31A3.125,3.125 0 1 1 119.53,590.31A3.125,3.125 0 1 1 125.78,590.31Z" style="fill:none;stroke:#F15A60;stroke-width:0.625" />
<path d="M132.73,630.22L132.73,630.22A3.125,3.125 0 1 1 126.48,630.22A3.125,3.125 0 1 1 132.73,630.22Z" style="fill:none;stroke:#F15A60;stroke-width:0.625" />
<path d="M139.69,531.17A3.125,3.125 0 1 1 133.44,531.17A3.125,3.125 0 1 1 139.69,531.17Z" style="fill:none;stroke:#F15A60;stroke-width:0.625" />
<path d="M146.64,541.04A3.125,3.125 0 1 1 140.39,541.04A3.125,3.125 0 1 1 146.64,541.04Z" style="fill:none;stroke:#F15A60;stroke-width:0.625" />
<path d="M153.59,633.5L153.59,633.5A3.125,3.125 0 1 1 147.34,633.5A3.125,3.125 0 1 1 153.59,633.5Z" style="fill:none;stroke:#F15A60;stroke-width:0.625" />
<path d="M160.55,462.34L160.55,462.34A3.125,3.125 0 1 1 154.3,462.34A3.125,3.125 0 1 1 160.55,462.34Z" style="fill:none;stroke:#F15A60;stroke-width:0.625" />
<path d="M167.5,491.6A3.125,3.125 0 1 1 161.25,491.6A3.125,3.125 0 1 1 167.5,491.6Z" style="fill:none;stroke:#F15A60;stroke-width:0.625" />
<path d="M174.46,359.86L174.46,359.86A3.125,3.125 0 1 1 168.21,359.86A3.125,3.125 0 1 1 174.46,359.86Z" style="fill:none;stroke:#F15A60;stroke-width:0.625" />
<path d="M181.41,506.41A3.125,3.125 0 1 1 175.16,506.41A3.125,3.125 0 1 1 181.41,506.41Z" style="fill:none;stroke:#F15A60;stroke-width:0.625" />
<path d="M188.36,370A3.125,3.125 0 1 1 182.11,370A3.125,3.125 0 1 1 188.36,370Z" style="fill:none;stroke:#F15A60;stroke-width:0.625" />
<path d="M195.32,249.03A3.125,3.125 0 1 1 189.07,249.03A3.125,3.125 0 1 1 195.32,249.03Z" style="fill:none;stroke:#F15A60;stroke-width:0.625" />
<path d="M202.27,277.59L202.27,277.59A3.125,3.125 0 1 1 196.02,277.59A3.125,3.125 0 1 1 202.27,277.59Z" style="fill:none;stroke:#F15A60;stroke-width:0.625" />
<path d="M209.22,373.36A3.125,3.125 0 1 1 202.97,373.36A3.125,3.125 0 1 1 209.22,373.36Z" style="fill:none;stroke:#F15A60;stroke-width:0.625" />
<path d="M216.18,143.52A3.125,3.125 0 1 1 209.93,143.52A3.125,3.125 0 1 1 216.18,143.52Z" style="fill:none;stroke:#F15A60;stroke-width:0.625" />
<path d="M223.13,273.33A3.125,3.125 0 1 1 216.88,273.33A3.125,3.125 0 1 1 223.13,273.33Z" style="fill:none;stroke:#F15A60;stroke-width:0.625" />
<path d="M230.08,224.84A3.125,3.125 0 1 1 223.83,224.84A3.125,3.125 0 1 1 230.08,224.84Z" style="fill:none;stroke:#F15A60;stroke-width:0.625" />
<path d="M237.04,309.09A3.125,3.125 0 1 1 230.79,309.09A3.125,3.125 0 1 1 237.04,309.09Z" style="fill:none;stroke:#F15A60;stroke-width:0.625" />
<path d="M243.99,68.752L243.99,68.752A3.125,3.125 0 1 1 237.74,68.752A3.125,3.125 0 1 1 243.99,68.752Z" style="fill:none;stroke:#F15A60;stroke-width:0.625" />
<path d="M250.94,132.27A3.125,3.125 0 1 1 244.69,132.27A3.125,3.125 0 1 1 250.94,132.27Z" style="fill:none;stroke:#F15A60;stroke-width:0.625" />
<path d="M257.9,114.8A3.125,3.125 0 1 1 251.65,114.8A3.125,3.125 0 1 1 257.9,114.8Z" style="fill:none;stroke:#F15A60;stroke-width:0.625" />
<path d="M264.85,182.44A3.125,3.125 0 1 1 258.6,182.44A3.125,3.125 0 1 1 264.85,182.44Z" style="fill:none;stroke:#F15A60;stroke-width:0.625" />
<path d="M271.8,361.81A3.125,3.125 0 1 1 265.55,361.81A3.125,3.125 0 1 1 271.8,361.81Z" style="fill:none;stroke:#F15A60;stroke-width:0.625" />
<path d="M278.76,285.21A3.125,3.125 0 1 1 272.51,285.21A3.125,3.125 0 1 1 278.76,285.21Z" style="fill:none;stroke:#F15A60;stroke-width:0.625" />
<path d="M285.71,217.68L285.71,217.68A3.125,3.125 0 1 1 279.46,217.68A3.125,3.125 0 1 1 285.71,217.68Z" style="fill:none;stroke:#F15A60;stroke-width:0.625" />
<path d="M292.67,365.05A3.125,3.125 0 1 1 286.42,365.05A3.125,3.125 0 1 1 292.67,365.05Z" style="fill:none;stroke:#F15A60;stroke-width:0.625" />
<path d="M299.62,370.17A3.125,3.125 0 1 1 293.37,370.17A3.125,3.125 0 1 1 299.62,370.17Z" style="fill:none;stroke:#F15A60;stroke-width:0.625" />
<path d="M306.57,445.46A3.125,3.125 0 1 1 300.32,445.46A3.125,3.125 0 1 1 306.57,445.46Z" style="fill:none;stroke:#F15A60;stroke-width:0.625" />
<path d="M313.53,397.53A3.125,3.125 0 1 1 307.28,397.53A3.125,3.125 0 1 1 313.53,397.53Z" style="fill:none;stroke:#F15A60;stroke-width:0.625" />
<path d="M320.48,542.83A3.125,3.125 0 1 1 314.23,542.83A3.125,3.125 0 1 1 320.48,542.83Z" style="fill:none;stroke:#F15A60;stroke-width:0.625" />
<path d="M327.43,519.3A3.125,3.125 0 1 1 321.18,519.3A3.125,3.125 0 1 1 327.43,519.3Z" style="fill:none;stroke:#F15A60;stroke-width:0.625" />
<path d="M334.39,569.65L334.39,569.65A3.125,3.125 0 1 1 328.14,569.65A3.125,3.125 0 1 1 334.39,569.65Z" style="fill:none;stroke:#F15A60;stroke-width:0.625" />
<path d="M341.34,649.06L341.34,649.06A3.125,3.125 0 1 1 335.09,649.06A3.125,3.125 0 1 1 341.34,649.06Z" style="fill:none;stroke:#F15A60;stroke-width:0.625" />
<path d="M348.29,744.73A3.125,3.125 0 1 1 342.04,744.73A3.125,3.125 0 1 1 348.29,744.73Z" style="fill:none;stroke:#F15A60;stroke-width:0.625" />
<path d="M355.25,707.27A3.125,3.125 0 1 1 349,707.27A3.125,3.125 0 1 1 355.25,707.27Z" style="fill:none;stroke:#F15A60;stroke-width:0.625" />
<path d="M362.2,683.17A3.125,3.125 0 1 1 355.95,683.17A3.125,3.125 0 1 1 362.2,683.17Z" style="fill:none;stroke:#F15A60;stroke-width:0.625" />
<path d="M369.15,613.36A3.125,3.125 0 1 1 362.9,613.36A3.125,3.125 0 1 1 369.15,613.36Z" style="fill:none;stroke:#F15A60;stroke-width:0.625" />
<path d="M376.11,709.89A3.125,3.125 0 1 1 369.86,709.89A3.125,3.125 0 1 1 376.11,709.89Z" style="fill:none;stroke:#F15A60;stroke-width:0.625" />
<path d="M383.06,593.58A3.125,3.125 0 1 1 376.81,593.58A3.125,3.125 0 1 1 383.06,593.58Z" style="fill:none;stroke:#F15A60;stroke-width:0.625" />
<path d="M390.02,541.91A3.125,3.125 0 1 1 383.77,541.91A3.125,3.125 0 1 1 390.02,541.91Z" style="fill:none;stroke:#F15A60;stroke-width:0.625" />
<path d="M396.97,517.78A3.125,3.125 0 1 1 390.72,517.78A3.125,3.125 0 1 1 396.97,517.78Z" style="fill:none;stroke:#F15A60;stroke-width:0.625" />
<path d="M403.92,472.97L403.92,472.97A3.125,3.125 0 1 1 397.67,472.97A3.125,3.125 0 1 1 403.92,472.97Z" style="fill:none;stroke:#F15A60;stroke-width:0.625" />
<path d="M410.88,557.3L410.88,557.3A3.125,3.125 0 1 1 404.63,557.3A3.125,3.125 0 1 1 410.88,557.3Z" style="fill:none;stroke:#F15A60;stroke-width:0.625" />
<path d="M417.83,449.67A3.125,3.125 0 1 1 411.58,449.67A3.125,3.125 0 1 1 417.83,449.67Z" style="fill:none;stroke:#F15A60;stroke-width:0.625" />
<path d="M424.78,492.87A3.125,3.125 0 1 1 418.53,492.87A3.125,3.125 0 1 1 424.78,492.87Z" style="fill:none;stroke:#F15A60;stroke-width:0.625" />
<path d="M431.74,515.84A3.125,3.125 0 1 1 425.49,515.84A3.125,3.125 0 1 1 431.74,515.84Z" style="fill:none;stroke:#F15A60;stroke-width:0.625" />
<path d="M438.69,381.33A3.125,3.125 0 1 1 432.44,381.33A3.125,3.125 0 1 1 438.69,381.33Z" style="fill:none;stroke:#F15A60;stroke-width:0.625" />
<path d="M445.64,288.59A3.125,3.125 0 1 1 439.39,288.59A3.125,3.125 0 1 1 445.64,288.59Z" style="fill:none;stroke:#F15A60;stroke-width:0.625" />
<path d="M452.6,243.74A3.125,3.125 0 1 1 446.35,243.74A3.125,3.125 0 1 1 452.6,243.74Z" style="fill:none;stroke:#F15A60;stroke-width:0.625" />
<path d="M459.55,218.58L459.55,218.58A3.125,3.125 0 1 1 453.3,218.58A3.125,3.125 0 1 1 459.55,218.58Z" style="fill:none;stroke:#F15A60;stroke-width:0.625" />
<path d="M466.5,164.82L466.5,164.82A3.125,3.125 0 1 1 460.25,164.82A3.125,3.125 0 1 1 466.5,164.82Z" style="fill:none;stroke:#F15A60;stroke-width:0.625" />
<path d="M473.46,221.07A3.125,3.125 0 1 1 467.21,221.07A3.125,3.125 0 1 1 473.46,221.07Z" style="fill:none;stroke:#F15A60;stroke-width:0.625" />
<path d="M480.41,203.21A3.125,3.125 0 1 1 474.16,203.21A3.125,3.125 0 1 1 480.41,203.21Z" style="fill:none;stroke:#F15A60;stroke-width:0.625" />
<path d="M487.36,208.4A3.125,3.125 0 1 1 481.11,208.4A3.125,3.125 0 1 1 487.36,208.4Z" style="fill:none;stroke:#F15A60;stroke-width:0.625" />
<path d="M494.32,163.38A3.125,3.125 0 1 1 488.07,163.38A3.125,3.125 0 1 1 494.32,163.38Z" style="fill:none;stroke:#F15A60;stroke-width:0.625" />
<path d="M501.27,110.44A3.125,3.125 0 1 1 495.02,110.44A3.125,3.125 0 1 1 501.27,110.44Z" style="fill:none;stroke:#F15A60;stroke-width:0.625" />
<path d="M508.23,163.89A3.125,3.125 0 1 1 501.98,163.89A3.125,3.125 0 1 1 508.23,163.89Z" style="fill:none;stroke:#F15A60;stroke-width:0.625" />
<path d="M515.18,181.51L515.18,181.51A3.125,3.125 0 1 1 508.93,181.51A3.125,3.125 0 1 1 515.18,181.51Z" style="fill:none;stroke:#F15A60;stroke-width:0.625" />
<path d="M522.13,359.64A3.125,3.125 0 1 1 515.88,359.64A3.125,3.125 0 1 1 522.13,359.64Z" style="fill:none;stroke:#F15A60;stroke-width:0.625" />
<path d="M529.09,212.64A3.125,3.125 0 1 1 522.84,212.64A3.125,3.125 0 1 1 529.09,212.64Z" style="fill:none;stroke:#F15A60;stroke-width:0.625" />
<path d="M536.04,410.54A3.125,3.125 0 1 1 529.79,410.54A3.125,3.125 0 1 1 536.04,410.54Z" style="fill:none;stroke:#F15A60;stroke-width:0.625" />
<path d="M542.99,343.08A3.125,3.125 0 1 1 536.74,343.08A3.125,3.125 0 1 1 542.99,343.08Z" style="fill:none;stroke:#F15A60;stroke-width:0.625" />
<path d="M549.95,427.45A3.125,3.125 0 1 1 543.7,427.45A3.125,3.125 0 1 1 549.95,427.45Z" style="fill:none;stroke:#F15A60;stroke-width:0.625" />
<path d="M556.9,376.53A3.125,3.125 0 1 1 550.65,376.53A3.125,3.125 0 1 1 556.9,376.53Z" style="fill:none;stroke:#F15A60;stroke-width:0.625" />
<path d="M563.85,492.19A3.125,3.125 0 1 1 557.6,492.19A3.125,3.125 0 1 1 563.85,492.19Z" style="fill:none;stroke:#F15A60;stroke-width:0.625" />
<path d="M570.81,534.02A3.125,3.125 0 1 1 564.56,534.02A3.125,3.125 0 1 1 570.81,534.02Z" style="fill:none;stroke:#F15A60;stroke-width:0.625" />
<path d="M577.76,616.41L577.76,616.41A3.125,3.125 0 1 1 571.51,616.41A3.125,3.125 0 1 1 577.76,616.41Z" style="fill:none;stroke:#F15A60;stroke-width:0.625" />
<path d="M584.71,597.57A3.125,3.125 0 1 1 578.46,597.57A3.125,3.125 0 1 1 584.71,597.57Z" style="fill:none;stroke:#F15A60;stroke-width:0.625" />
<path d="M591.67,615.5A3.125,3.125 0 1 1 585.42,615.5A3.125,3.125 0 1 1 591.67,615.5Z" style="fill:none;stroke:#F15A60;stroke-width:0.625" />
<path d="M598.62,693.5A3.125,3.125 0 1 1 592.37,693.5A3.125,3.125 0 1 1 598.62,693.5Z" style="fill:none;stroke:#F15A60;stroke-width:0.625" />
<path d="M605.57,580.5A3.125,3.125 0 1 1 599.32,580.5A3.125,3.125 0 1 1 605.57,580.5Z" style="fill:none;stroke:#F15A60;stroke-width:0.625" />
<path d="M612.53,713.95A3.125,3.125 0 1 1 606.28,713.95A3.125,3.125 0 1 1 612.53,713.95Z" style="fill:none;stroke:#F15A60;stroke-width:0.625" />
<path d="M619.48,767.92A3.125,3.125 0 1 1 613.23,767.92A3.125,3.125 0 1 1 619.48,767.92Z" style="fill:none;stroke:#F15A60;stroke-width:0.625" />
<path d="M626.44,732.87A3.125,3.125 0 1 1 620.19,732.87A3.125,3.125 0 1 1 626.44,732.87Z" style="fill:none;stroke:#F15A60;stroke-width:0.625" />
<path d="M633.39,614.51L633.39,614.51A3.125,3.125 0 1 1 627.14,614.51A3.125,3.125 0 1 1 633.39,614.51Z" style="fill:none;stroke:#F15A60;stroke-width:0.625" />
<path d="M640.34,718L640.34,718A3.125,3.125 0 1 1 634.09,718A3.125,3.125 0 1 1 640.34,718Z" style="fill:none;stroke:#F15A60;stroke-width:0.625" />
<path d="M647.3,634.4A3.125,3.125 0 1 1 641.05,634.4A3.125,3.125 0 1 1 647.3,634.4Z" style="fill:none;stroke:#F15A60;stroke-width:0.625" />
<path d="M654.25,478.65A3.125,3.125 0 1 1 648,478.65A3.125,3.125 0 1 1 654.25,478.65Z" style="fill:none;stroke:#F15A60;stroke-width:0.625" />
<path d="M661.2,460.2A3.125,3.125 0 1 1 654.95,460.2A3.125,3.125 0 1 1 661.2,460.2Z" style="fill:none;stroke:#F15A60;stroke-width:0.625" />
<path d="M668.16,428.41A3.125,3.125 0 1 1 661.91,428.41A3.125,3.125 0 1 1 668.16,428.41Z" style="fill:none;stroke:#F15A60;stroke-width:0.625" />
<path d="M675.11,507.77A3.125,3.125 0 1 1 668.86,507.77A3.125,3.125 0 1 1 675.11,507.77Z" style="fill:none;stroke:#F15A60;stroke-width:0.625" />
<path d="M682.06,506.37A3.125,3.125 0 1 1 675.81,506.37A3.125,3.125 0 1 1 682.06,506.37Z" style="fill:none;stroke:#F15A60;stroke-width:0.625" />
<path d="M689.02,269.1A3.125,3.125 0 1 1 682.77,269.1A3.125,3.125 0 1 1 689.02,269.1Z" style="fill:none;stroke:#F15A60;stroke-width:0.625" />
<path d="M695.97,440.04A3.125,3.125 0 1 1 689.72,440.04A3.125,3.125 0 1 1 695.97,440.04Z" style="fill:none;stroke:#F15A60;stroke-width:0.625" />
<path d="M702.92,367.22A3.125,3.125 0 1 1 696.67,367.22A3.125,3.125 0 1 1 702.92,367.22Z" style="fill:none;stroke:#F15A60;stroke-width:0.625" />
<path d="M709.88,160.79A3.125,3.125 0 1 1 703.63,160.79A3.125,3.125 0 1 1 709.88,160.79Z" style="fill:none;stroke:#F15A60;stroke-width:0.625" />
<path d="M716.83,321.02A3.125,3.125 0 1 1 710.58,321.02A3.125,3.125 0 1 1 716.83,321.02Z" style="fill:none;stroke:#F15A60;stroke-width:0.625" />
<path d="M723.79,224.36L723.79,224.36A3.125,3.125 0 1 1 717.54,224.36A3.125,3.125 0 1 1 723.79,224.36Z" style="fill:none;stroke:#F15A60;stroke-width:0.625" />
<path d="M730.74,314L730.74,314A3.125,3.125 0 1 1 724.49,314A3.125,3.125 0 1 1 730.74,314Z" style="fill:none;stroke:#F15A60;stroke-width:0.625" />
<path d="M737.69,130.63L737.69,130.63A3.125,3.125 0 1 1 731.44,130.63A3.125,3.125 0 1 1 737.69,130.63Z" style="fill:none;stroke:#F15A60;stroke-width:0.625" />
<path d="M744.65,179.87A3.125,3.125 0 1 1 738.4,179.87A3.125,3.125 0 1 1 744.65,179.87Z" style="fill:none;stroke:#F15A60;stroke-width:0.625" />
<path d="M751.6,184.95L751.6,184.95A3.125,3.125 0 1 1 745.35,184.95A3.125,3.125 0 1 1 751.6,184.95Z" style="fill:none;stroke:#F15A60;stroke-width:0.625" />
<path d="M758.55,81.312L758.55,81.312A3.125,3.125 0 1 1 752.3,81.312A3.125,3.125 0 1 1 758.55,81.312Z" style="fill:none;stroke:#F15A60;stroke-width:0.625" />
<path d="M765.51,225.33L765.51,225.33A3.125,3.125 0 1 1 759.26,225.33A3.125,3.125 0 1 1 765.51,225.33Z" style="fill:none;stroke:#F15A60;stroke-width:0.625" />
<path d="M772.46,277A3.125,3.125 0 1 1 766.21,277A3.125,3.125 0 1 1 772.46,277Z" style="fill:none;stroke:#F15A60;stroke-width:0.625" />
<path d="M779.41,237.77A3.125,3.125 0 1 1 773.16,237.77A3.125,3.125 0 1 1 779.41,237.77Z" style="fill:none;stroke:#F15A60;stroke-width:0.625" />
<path d="M786.37,417.34A3.125,3.125 0 1 1 780.12,417.34A3.125,3.125 0 1 1 786.37,417.34Z" style="fill:none;stroke:#F15A60;stroke-width:0.625" />
<path d="M793.32,237.94A3.125,3.125 0 1 1 787.07,237.94A3.125,3.125 0 1 1 793.32,237.94Z" style="fill:none;stroke:#F15A60;stroke-width:0.625" />
<path d="M800.27,287.69A3.125,3.125 0 1 1 794.02,287.69A3.125,3.125 0 1 1 800.27,287.69Z" style="fill:none;stroke:#F15A60;stroke-width:0.625" />
<path d="M807.23,340.36L807.23,340.36A3.125,3.125 0 1 1 800.98,340.36A3.125,3.125 0 1 1 807.23,340.36Z" style="fill:none;stroke:#F15A60;stroke-width:0.625" />
<path d="M814.18,523.09L814.18,523.09A3.125,3.125 0 1 1 807.93,523.09A3.125,3.125 0 1 1 814.18,523.09Z" style="fill:none;stroke:#F15A60;stroke-width:0.625" />
<path d="M821.13,455.21A3.125,3.125 0 1 1 814.88,455.21A3.125,3.125 0 1 1 821.13,455.21Z" style="fill:none;stroke:#F15A60;stroke-width:0.625" />
<path d="M828.09,651.7L828.09,651.7A3.125,3.125 0 1 1 821.84,651.7A3.125,3.125 0 1 1 828.09,651.7Z" style="fill:none;stroke:#F15A60;stroke-width:0.625" />
<path d="M835.04,526.01L835.04,526.01A3.125,3.125 0 1 1 828.79,526.01A3.125,3.125 0 1 1 835.04,526.01Z" style="fill:none;stroke:#F15A60;stroke-width:0.625" />
<path d="M842,576.55L842,576.55A3.125,3.125 0 1 1 835.75,576.55A3.125,3.125 0 1 1 842,576.55Z" style="fill:none;stroke:#F15A60;stroke-width:0.625" />
<path d="M848.95,561.66A3.125,3.125 0 1 1 842.7,561.66A3.125,3.125 0 1 1 848.95,561.66Z" style="fill:none;stroke:#F15A60;stroke-width:0.625" />
<path d="M855.9,644.76L855.9,644.76A3.125,3.125 0 1 1 849.65,644.76A3.125,3.125 0 1 1 855.9,644.76Z" style="fill:none;stroke:#F15A60;stroke-width:0.625" />
<path d="M862.86,786.03L862.86,786.03A3.125,3.125 0 1 1 856.61,786.03A3.125,3.125 0 1 1 862.86,786.03Z" style="fill:none;stroke:#F15A60;stroke-width:0.625" />
<path d="M869.81,562.23L869.81,562.23A3.125,3.125 0 1 1 863.56,562.23A3.125,3.125 0 1 1 869.81,562.23Z" style="fill:none;stroke:#F15A60;stroke-width:0.625" />
<path d="M876.76,735.98L876.76,735.98A3.125,3.125 0 1 1 870.51,735.98A3.125,3.125 0 1 1 876.76,735.98Z" style="fill:none;stroke:#F15A60;stroke-width:0.625" />
<path d="M883.72,680.94L883.72,680.94A3.125,3.125 0 1 1 877.47,680.94A3.125,3.125 0 1 1 883.72,680.94Z" style="fill:none;stroke:#F15A60;stroke-width:0.625" />
<path d="M890.67,523.77A3.125,3.125 0 1 1 884.42,523.77A3.125,3.125 0 1 1 890.67,523.77Z" style="fill:none;stroke:#F15A60;stroke-width:0.625" />
<path d="M897.62,699.85A3.125,3.125 0 1 1 891.37,699.85A3.125,3.125 0 1 1 897.62,699.85Z" style="fill:none;stroke:#F15A60;stroke-width:0.625" />
<path d="M904.58,467.63L904.58,467.63A3.125,3.125 0 1 1 898.33,467.63A3.125,3.125 0 1 1 904.58,467.63Z" style="fill:none;stroke:#F15A60;stroke-width:0.625" />
<path d="M911.53,548.39L911.53,548.39A3.125,3.125 0 1 1 905.28,548.39A3.125,3.125 0 1 1 911.53,548.39Z" style="fill:none;stroke:#F15A60;stroke-width:0.625" />
<path d="M918.48,453.67L918.48,453.67A3.125,3.125 0 1 1 912.23,453.67A3.125,3.125 0 1 1 918.48,453.67Z" style="fill:none;stroke:#F15A60;stroke-width:0.625" />
<path d="M925.44,526.09L925.44,526.09A3.125,3.125 0 1 1 919.19,526.09A3.125,3.125 0 1 1 925.44,526.09Z" style="fill:none;stroke:#F15A60;stroke-width:0.625" />
<path d="M932.39,308.1A3.125,3.125 0 1 1 926.14,308.1A3.125,3.125 0 1 1 932.39,308.1Z" style="fill:none;stroke:#F15A60;stroke-width:0.625" />
<path d="M939.34,292.28L939.34,292.28A3.125,3.125 0 1 1 933.09,292.28A3.125,3.125 0 1 1 939.34,292.28Z" style="fill:none;stroke:#F15A60;stroke-width:0.625" />
<path d="M946.3,283.35L946.3,283.35A3.125,3.125 0 1 1 940.05,283.35A3.125,3.125 0 1 1 946.3,283.35Z" style="fill:none;stroke:#F15A60;stroke-width:0.625" />
<path d="M953.25,186.24L953.25,186.24A3.125,3.125 0 1 1 947,186.24A3.125,3.125 0 1 1 953.25,186.24Z" style="fill:none;stroke:#F15A60;stroke-width:0.625" />
<path d="M960.21,334.36L960.21,334.36A3.125,3.125 0 1 1 953.96,334.36A3.125,3.125 0 1 1 960.21,334.36Z" style="fill:none;stroke:#F15A60;stroke-width:0.625" />
<path d="M967.16,235.29L967.16,235.29A3.125,3.125 0 1 1 960.91,235.29A3.125,3.125 0 1 1 967.16,235.29Z" style="fill:none;stroke:#F15A60;stroke-width:0.625" />
<path d="M974.11,95.92L974.11,95.92A3.125,3.125 0 1 1 967.86,95.92A3.125,3.125 0 1 1 974.11,95.92Z" style="fill:none;stroke:#F15A60;stroke-width:0.625" />
<path d="M981.07,145.54A3.125,3.125 0 1 1 974.82,145.54A3.125,3.125 0 1 1 981.07,145.54Z" style="fill:none;stroke:#F15A60;stroke-width:0.625" />
<path d="M988.02,123.71A3.125,3.125 0 1 1 981.77,123.71A3.125,3.125 0 1 1 988.02,123.71Z" style="fill:none;stroke:#F15A60;stroke-width:0.625" />
<path d="M994.97,304.34A3.125,3.125 0 1 1 988.72,304.34A3.125,3.125 0 1 1 994.97,304.34Z" style="fill:none;stroke:#F15A60;stroke-width:0.625" />
<path d="M1001.9,203.38A3.125,3.125 0 1 1 995.68,203.38A3.125,3.125 0 1 1 1001.9,203.38Z" style="fill:none;stroke:#F15A60;stroke-width:0.625" />
<path d="M1008.9,307.5A3.125,3.125 0 1 1 1002.6,307.5A3.125,3.125 0 1 1 1008.9,307.5Z" style="fill:none;stroke:#F15A60;stroke-width:0.625" />
<path d="M1015.8,145.57L1015.8,145.57A3.125,3.125 0 1 1 1009.6,145.57A3.125,3.125 0 1 1 1015.8,145.57Z" style="fill:none;stroke:#F15A60;stroke-width:0.625" />
<path d="M1022.8,220.44L1022.8,220.44A3.125,3.125 0 1 1 1016.5,220.44A3.125,3.125 0 1 1 1022.8,220.44Z" style="fill:none;stroke:#F15A60;stroke-width:0.625" />
<path d="M1029.7,208.07A3.125,3.125 0 1 1 1023.5,208.07A3.125,3.125 0 1 1 1029.7,208.07Z" style="fill:none;stroke:#F15A60;stroke-width:0.625" />
<path d="M1036.7,399.39A3.125,3.125 0 1 1 1030.4,399.39A3.125,3.125 0 1 1 1036.7,399.39Z" style="fill:none;stroke:#F15A60;stroke-width:0.625" />
<path d="M1043.6,457.15A3.125,3.125 0 1 1 1037.4,457.15A3.125,3.125 0 1 1 1043.6,457.15Z" style="fill:none;stroke:#F15A60;stroke-width:0.625" />
<path d="M1050.6,443.23A3.125,3.125 0 1 1 1044.4,443.23A3.125,3.125 0 1 1 1050.6,443.23Z" style="fill:none;stroke:#F15A60;stroke-width:0.625" />
<path d="M1057.6,319.51L1057.6,319.51A3.125,3.125 0 1 1 1051.3,319.51A3.125,3.125 0 1 1 1057.6,319.51Z" style="fill:none;stroke:#F15A60;stroke-width:0.625" />
<path d="M1064.5,468.25L1064.5,468.25A3.125,3.125 0 1 1 1058.3,468.25A3.125,3.125 0 1 1 1064.5,468.25Z" style="fill:none;stroke:#F15A60;stroke-width:0.625" />
<path d="M1071.5,503.52A3.125,3.125 0 1 1 1065.2,503.52A3.125,3.125 0 1 1 1071.5,503.52Z" style="fill:none;stroke:#F15A60;stroke-width:0.625" />
<path d="M1078.4,543.27A3.125,3.125 0 1 1 1072.2,543.27A3.125,3.125 0 1 1 1078.4,543.27Z" style="fill:none;stroke:#F15A60;stroke-width:0.625" />
<path d="M1085.4,462.33A3.125,3.125 0 1 1 1079.1,462.33A3.125,3.125 0 1 1 1085.4,462.33Z" style="fill:none;stroke:#F15A60;stroke-width:0.625" />
<path d="M1092.3,705.82L1092.3,705.82A3.125,3.125 0 1 1 1086.1,705.82A3.125,3.125 0 1 1 1092.3,705.82Z" style="fill:none;stroke:#F15A60;stroke-width:0.625" />
<path d="M1099.3,615.08L1099.3,615.08A3.125,3.125 0 1 1 1093,615.08A3.125,3.125 0 1 1 1099.3,615.08Z" style="fill:none;stroke:#F15A60;stroke-width:0.625" />
<path d="M1106.2,736.41A3.125,3.125 0 1 1 1100,736.41A3.125,3.125 0 1 1 1106.2,736.41Z" style="fill:none;stroke:#F15A60;stroke-width:0.625" />
<path d="M1113.2,559.27A3.125,3.125 0 1 1 1106.9,559.27A3.125,3.125 0 1 1 1113.2,559.27Z" style="fill:none;stroke:#F15A60;stroke-width:0.625" />
<path d="M1120.1,709.85A3.125,3.125 0 1 1 1113.9,709.85A3.125,3.125 0 1 1 1120.1,709.85Z" style="fill:none;stroke:#F15A60;stroke-width:0.625" />
<path d="M1127.1,602.69A3.125,3.125 0 1 1 1120.8,602.69A3.125,3.125 0 1 1 1127.1,602.69Z" style="fill:none;stroke:#F15A60;stroke-width:0.625" />
<path d="M1134,738.62L1134,738.62A3.125,3.125 0 1 1 1127.8,738.62A3.125,3.125 0 1 1 1134,738.62Z" style="fill:none;stroke:#F15A60;stroke-width:0.625" />
<path d="M1141,722.56A3.125,3.125 0 1 1 1134.7,722.56A3.125,3.125 0 1 1 1141,722.56Z" style="fill:none;stroke:#F15A60;stroke-width:0.625" />
<path d="M1148,652.41A3.125,3.125 0 1 1 1141.7,652.41A3.125,3.125 0 1 1 1148,652.41Z" style="fill:none;stroke:#F15A60;stroke-width:0.625" />
<path d="M1154.9,503.86A3.125,3.125 0 1 1 1148.7,503.86A3.125,3.125 0 1 1 1154.9,503.86Z" style="fill:none;stroke:#F15A60;stroke-width:0.625" />
<path d="M1161.9,524.62A3.125,3.125 0 1 1 1155.6,524.62A3.125,3.125 0 1 1 1161.9,524.62Z" style="fill:none;stroke:#F15A60;stroke-width:0.625" />
<path d="M1168.8,561.92A3.125,3.125 0 1 1 1162.6,561.92A3.125,3.125 0 1 1 1168.8,561.92Z" style="fill:none;stroke:#F15A60;stroke-width:0.625" />
<path d="M1175.8,410.16A3.125,3.125 0 1 1 1169.5,410.16A3.125,3.125 0 1 1 1175.8,410.16Z" style="fill:none;stroke:#F15A60;stroke-width:0.625" />
<path d="M1182.7,463.63A3.125,3.125 0 1 1 1176.5,463.63A3.125,3.125 0 1 1 1182.7,463.63Z" style="fill:none;stroke:#F15A60;stroke-width:0.625" />
<path d="M1189.7,488.7L1189.7,488.7A3.125,3.125 0 1 1 1183.4,488.7A3.125,3.125 0 1 1 1189.7,488.7Z" style="fill:none;stroke:#F15A60;stroke-width:0.625" />
<path d="M1196.6,419.64L1196.6,419.64A3.125,3.125 0 1 1 1190.4,419.64A3.125,3.125 0 1 1 1196.6,419.64Z" style="fill:none;stroke:#F15A60;stroke-width:0.625" />
<path d="M1203.6,205A3.125,3.125 0 1 1 1197.3,205A3.125,3.125 0 1 1 1203.6,205Z" style="fill:none;stroke:#F15A60;stroke-width:0.625" />
<path d="M1210.5,224.57L1210.5,224.57A3.125,3.125 0 1 1 1204.3,224.57A3.125,3.125 0 1 1 1210.5,224.57Z" style="fill:none;stroke:#F15A60;stroke-width:0.625" />
<path d="M1217.5,122.34L1217.5,122.34A3.125,3.125 0 1 1 1211.2,122.34A3.125,3.125 0 1 1 1217.5,122.34Z" style="fill:none;stroke:#F15A60;stroke-width:0.625" />
<path d="M1224.4,131.5A3.125,3.125 0 1 1 1218.2,131.5A3.125,3.125 0 1 1 1224.4,131.5Z" style="fill:none;stroke:#F15A60;stroke-width:0.625" />
<path d="M1231.4,258.86A3.125,3.125 0 1 1 1225.1,258.86A3.125,3.125 0 1 1 1231.4,258.86Z" style="fill:none;stroke:#F15A60;stroke-width:0.625" />
<path d="M1238.3,272.09A3.125,3.125 0 1 1 1232.1,272.09A3.125,3.125 0 1 1 1238.3,272.09Z" style="fill:none;stroke:#F15A60;stroke-width:0.625" />
<path d="M1245.3,299.56A3.125,3.125 0 1 1 1239.1,299.56A3.125,3.125 0 1 1 1245.3,299.56Z" style="fill:none;stroke:#F15A60;stroke-width:0.625" />
<path d="M1252.3,77.843A3.125,3.125 0 1 1 1246,77.843A3.125,3.125 0 1 1 1252.3,77.843Z" style="fill:none;stroke:#F15A60;stroke-width:0.625" />
<path d="M1259.2,98.893A3.125,3.125 0 1 1 1253,98.893A3.125,3.125 0 1 1 1259.2,98.893Z" style="fill:none;stroke:#F15A60;stroke-width:0.625" />
<path d="M1266.2,303.57L1266.2,303.57A3.125,3.125 0 1 1 1259.9,303.57A3.125,3.125 0 1 1 1266.2,303.57Z" style="fill:none;stroke:#F15A60;stroke-width:0.625" />
<path d="M1273.1,167.15L1273.1,167.15A3.125,3.125 0 1 1 1266.9,167.15A3.125,3.125 0 1 1 1273.1,167.15Z" style="fill:none;stroke:#F15A60;stroke-width:0.625" />
<path d="M1280.1,234.57A3.125,3.125 0 1 1 1273.8,234.57A3.125,3.125 0 1 1 1280.1,234.57Z" style="fill:none;stroke:#F15A60;stroke-width:0.625" />
<path d="M1287,241.13L1287,241.13A3.125,3.125 0 1 1 1280.8,241.13A3.125,3.125 0 1 1 1287,241.13Z" style="fill:none;stroke:#F15A60;stroke-width:0.625" />
<path d="M1294,257.16L1294,257.16A3.125,3.125 0 1 1 1287.7,257.16A3.125,3.125 0 1 1 1294,257.16Z" style="fill:none;stroke:#F15A60;stroke-width:0.625" />
<path d="M1300.9,282.44L1300.9,282.44A3.125,3.125 0 1 1 1294.7,282.44A3.125,3.125 0 1 1 1300.9,282.44Z" style="fill:none;stroke:#F15A60;stroke-width:0.625" />
<path d="M1307.9,406.6L1307.9,406.6A3.125,3.125 0 1 1 1301.6,406.6A3.125,3.125 0 1 1 1307.9,406.6Z" style="fill:none;stroke:#F15A60;stroke-width:0.625" />
<path d="M1314.8,383.17L1314.8,383.17A3.125,3.125 0 1 1 1308.6,383.17A3.125,3.125 0 1 1 1314.8,383.17Z" style="fill:none;stroke:#F15A60;stroke-width:0.625" />
<path d="M1321.8,423.26A3.125,3.125 0 1 1 1315.5,423.26A3.125,3.125 0 1 1 1321.8,423.26Z" style="fill:none;stroke:#F15A60;stroke-width:0.625" />
<path d="M1328.7,654.94A3.125,3.125 0 1 1 1322.5,654.94A3.125,3.125 0 1 1 1328.7,654.94Z" style="fill:none;stroke:#F15A60;stroke-width:0.625" />
<path d="M1335.7,661.18A3.125,3.125 0 1 1 1329.4,661.18A3.125,3.125 0 1 1 1335.7,661.18Z" style="fill:none;stroke:#F15A60;stroke-width:0.625" />
<path d="M1342.7,693.07A3.125,3.125 0 1 1 1336.4,693.07A3.125,3.125 0 1 1 1342.7,693.07Z" style="fill:none;stroke:#F15A60;stroke-width:0.625" />
<path d="M1349.6,651.84A3.125,3.125 0 1 1 1343.4,651.84A3.125,3.125 0 1 1 1349.6,651.84Z" style="fill:none;stroke:#F15A60;stroke-width:0.625" />
<path d="M1356.6,565.94A3.125,3.125 0 1 1 1350.3,565.94A3.125,3.125 0 1 1 1356.6,565.94Z" style="fill:none;stroke:#F15A60;stroke-width:0.625" />
<path d="M1363.5,683.05A3.125,3.125 0 1 1 1357.3,683.05A3.125,3.125 0 1 1 1363.5,683.05Z" style="fill:none;stroke:#F15A60;stroke-width:0.625" />
<path d="M1370.5,562.9A3.125,3.125 0 1 1 1364.2,562.9A3.125,3.125 0 1 1 1370.5,562.9Z" style="fill:none;stroke:#F15A60;stroke-width:0.625" />
<path d="M1377.4,754.26A3.125,3.125 0 1 1 1371.2,754.26A3.125,3.125 0 1 1 1377.4,754.26Z" style="fill:none;stroke:#F15A60;stroke-width:0.625" />
<path d="M1384.4,544.76L1384.4,544.76A3.125,3.125 0 1 1 1378.1,544.76A3.125,3.125 0 1 1 1384.4,544.76Z" style="fill:none;stroke:#F15A60;stroke-width:0.625" />
<path d="M1391.3,542.95L1391.3,542.95A3.125,3.125 0 1 1 1385.1,542.95A3.125,3.125 0 1 1 1391.3,542.95Z" style="fill:none;stroke:#F15A60;stroke-width:0.625" />
<path d="M1398.3,518.07L1398.3,518.07A3.125,3.125 0 1 1 1392,518.07A3.125,3.125 0 1 1 1398.3,518.07Z" style="fill:none;stroke:#F15A60;stroke-width:0.625" />
<path d="M1405.2,541.21A3.125,3.125 0 1 1 1399,541.21A3.125,3.125 0 1 1 1405.2,541.21Z" style="fill:none;stroke:#F15A60;stroke-width:0.625" />
<path d="M1412.2,471.9A3.125,3.125 0 1 1 1405.9,471.9A3.125,3.125 0 1 1 1412.2,471.9Z" style="fill:none;stroke:#F15A60;stroke-width:0.625" />
<path d="M1419.1,509.61A3.125,3.125 0 1 1 1412.9,509.61A3.125,3.125 0 1 1 1419.1,509.61Z" style="fill:none;stroke:#F15A60;stroke-width:0.625" />
<path d="M1426.1,560.8A3.125,3.125 0 1 1 1419.8,560.8A3.125,3.125 0 1 1 1426.1,560.8Z" style="fill:none;stroke:#F15A60;stroke-width:0.625" />
<path d="M1433,321.97A3.125,3.125 0 1 1 1426.8,321.97A3.125,3.125 0 1 1 1433,321.97Z" style="fill:none;stroke:#F15A60;stroke-width:0.625" />
<path d="M1440,457.67A3.125,3.125 0 1 1 1433.8,457.67A3.125,3.125 0 1 1 1440,457.67Z" style="fill:none;stroke:#F15A60;stroke-width:0.625" />
<path d="M53.12,419.32L60.074,363.1L67.027,361.7L73.981,385.82L80.934,414.83L87.888,462.62L94.841,529.63L101.79,558.86L108.75,592.22L115.7,607.72L122.66,624.5L129.61,643.86L136.56,638.71L143.52,630.12L150.47,636.39L157.42,607L164.38,580.67L171.33,527.9L178.28,504.92L185.24,459.34L192.19,393.32L199.14,337.56L206.1,308.51L213.05,243.19L220.01,210.92L226.96,179.15L233.91,173.32L240.87,128.74L247.82,102.18L254.77,79.241L261.73,76.553L268.68,116.63L275.63,148.08L282.59,167.97L289.54,216.33L296.49,264.97L303.45,325.25L310.4,371.1L317.35,438.43L324.31,493.85L331.26,549.78L338.22,611.6L345.17,682.44L352.12,735.35L359.08,771.18L366.03,780.6L372.98,797.41L379.94,782.34L386.89,748.63L393.84,704.43L400.8,648.91L407.75,610.8L414.7,555.58L421.66,513.69L428.61,483.52L435.56,434.42L442.52,373.41L449.47,310.54L456.43,251.21L463.38,191.03L470.33,152.57L477.29,122.33L484.24,104.04L491.19,86.658L498.15,66.769L505.1,64.169L512.05,71.597L519.01,119.76L525.96,143.28L532.91,205.84L539.87,254.68L546.82,315.93L553.78,361.43L560.73,421.88L567.68,482.81L574.64,551.11L581.59,605.9L588.54,652.82L595.5,703.72L602.45,721.22L609.4,753.47L616.36,787.69L623.31,806.88L630.26,794.11L637.22,793.82L644.17,772.32L651.12,715.69L658.08,652.48L665.03,584.01L671.99,535.77L678.94,495.22L685.89,416L692.85,377.99L699.8,336.75L706.75,264.29L713.71,232.17L720.66,192.46L727.61,180.54L734.57,142.34L741.52,120.92L748.47,108.34L755.43,82.147L762.38,89.944L769.33,114.64L776.29,136.29L783.24,195.61L790.2,220.5L797.15,251.4L804.1,288.83L811.06,358.42L818.01,410.39L824.96,493.95L831.92,545.13L838.87,595.03L845.82,630.87L852.78,672.01L859.73,731.53L866.68,737.67L873.64,766.8L880.59,777.24L887.55,748.39L894.5,747.04L901.45,696.69L908.41,658.82L915.36,602.95L922.31,563.78L929.27,486.59L936.22,410.96L943.17,341.55L950.13,263.11L957.08,225.37L964.03,181.9L970.99,122.46L977.94,83.233L984.89,51.226L991.85,66.095L998.8,72.093L1005.8,105.59L1012.7,112.12L1019.7,134.32L1026.6,154.78L1033.6,212.61L1040.5,281.63L1047.5,344.59L1054.4,376.13L1061.4,427.72L1068.3,478.47L1075.3,528.53L1082.2,553.27L1089.2,616.31L1096.2,653.96L1103.1,706.01L1110.1,714.05L1117,741.31L1124,739.8L1130.9,757.55L1137.9,767.4L1144.8,758.56L1151.8,715.41L1158.7,672.35L1165.7,636.5L1172.6,572.99L1179.6,523.11L1186.5,484.65L1193.5,440.31L1200.5,360.67L1207.4,291.53L1214.4,211.76L1221.3,144.41L1228.3,115.23L1235.2,103.14L1242.2,109.11L1249.1,80.963L1256.1,62.47L1263,90.797L1270,98.94L1276.9,123.03L1283.9,150.31L1290.9,180.78L1297.8,214.81L1304.8,270.91L1311.7,319.25L1318.7,369.78L1325.6,459.74L1332.6,544.67L1339.5,625.99L1346.5,686.82L1353.4,716.21L1360.4,754.12L1367.3,756.16L1374.3,784.46L1381.2,763.4L1388.2,733.06L1395.2,692.41L1402.1,654.06L1409.1,602.74L1416,561.38L1423,535.42L1429.9,468.42L1436.9,433.16" style="fill:none;stroke:#7AC36A;stroke-width:1.25;stroke-dasharray:7.5,2.5" />
<path d="M50.453,416.65L55.787,416.65L55.787,421.98L50.453,421.98Z" style="fill:none;stroke:#7AC36A;stroke-width:0.625" />
<path d="M57.406,360.43L62.741,360.43L62.741,365.77L57.406,365.77Z" style="fill:none;stroke:#7AC36A;stroke-width:0.625" />
<path d="M64.36,359.03L69.695,359.03L69.695,364.37L64.36,364.37Z" style="fill:none;stroke:#7AC36A;stroke-width:0.625" />
<path d="M71.313,383.15L76.648,383.15L76.648,388.48L71.313,388.48Z" style="fill:none;stroke:#7AC36A;stroke-width:0.625" />
<path d="M78.267,412.16L83.602,412.16L83.602,417.5L78.267,417.5Z" style="fill:none;stroke:#7AC36A;stroke-width:0.625" />
<path d="M85.22,459.95L90.555,459.95L90.555,465.29L85.22,465.29Z" style="fill:none;stroke:#7AC36A;stroke-width:0.625" />
<path d="M92.174,526.96L97.509,526.96L97.509,532.29L92.174,532.29Z" style="fill:none;stroke:#7AC36A;stroke-width:0.625" />
<path d="M99.128,556.2L104.46,556.2L104.46,561.53L99.128,561.53Z" style="fill:none;stroke:#7AC36A;stroke-width:0.625" />
<path d="M106.08,589.55L111.42,589.55L111.42,594.88L106.08,594.88Z" style="fill:none;stroke:#7AC36A;stroke-width:0.625" />
<path d="M113.03,605.06L118.37,605.06L118.37,610.39L113.03,610.39Z" style="fill:none;stroke:#7AC36A;stroke-width:0.625" />
<path d="M119.99,621.84L125.32,621.84L125.32,627.17L119.99,627.17Z" style="fill:none;stroke:#7AC36A;stroke-width:0.625" />
<path d="M126.94,641.19L132.28,641.19L132.28,646.53L126.94,646.53Z" style="fill:none;stroke:#7AC36A;stroke-width:0.625" />
<path d="M133.9,636.05L139.23,636.05L139.23,641.38L133.9,641.38Z" style="fill:none;stroke:#7AC36A;stroke-width:0.625" />
<path d="M140.85,627.45L146.18,627.45L146.18,632.79L140.85,632.79Z" style="fill:none;stroke:#7AC36A;stroke-width:0.625" />
<path d="M147.8,633.73L153.14,633.73L153.14,639.06L147.8,639.06Z" style="fill:none;stroke:#7AC36A;stroke-width:0.625" />
<path d="M154.76,604.34L160.09,604.34L160.09,609.67L154.76,609.67Z" style="fill:none;stroke:#7AC36A;stroke-width:0.625" />
<path d="M161.71,578L167.04,578L167.04,583.33L161.71,583.33Z" style="fill:none;stroke:#7AC36A;stroke-width:0.625" />
<path d="M168.66,525.24L174,525.24L174,530.57L168.66,530.57Z" style="fill:none;stroke:#7AC36A;stroke-width:0.625" />
<path d="M175.62,502.25L180.95,502.25L180.95,507.59L175.62,507.59Z" style="fill:none;stroke:#7AC36A;stroke-width:0.625" />
<path d="M182.57,456.67L187.9,456.67L187.9,462.01L182.57,462.01Z" style="fill:none;stroke:#7AC36A;stroke-width:0.625" />
<path d="M189.52,390.66L194.86,390.66L194.86,395.99L189.52,395.99Z" style="fill:none;stroke:#7AC36A;stroke-width:0.625" />
<path d="M196.48,334.89L201.81,334.89L201.81,340.23L196.48,340.23Z" style="fill:none;stroke:#7AC36A;stroke-width:0.625" />
<path d="M203.43,305.84L208.77,305.84L208.77,311.18L203.43,311.18Z" style="fill:none;stroke:#7AC36A;stroke-width:0.625" />
<path d="M210.38,240.52L215.72,240.52L215.72,245.86L210.38,245.86Z" style="fill:none;stroke:#7AC36A;stroke-width:0.625" />
<path d="M217.34,208.25L222.67,208.25L222.67,213.59L217.34,213.59Z" style="fill:none;stroke:#7AC36A;stroke-width:0.625" />
<path d="M224.29,176.48L229.63,176.48L229.63,181.81L224.29,181.81Z" style="fill:none;stroke:#7AC36A;stroke-width:0.625" />
<path d="M231.24,170.65L236.58,170.65L236.58,175.99L231.24,175.99Z" style="fill:none;stroke:#7AC36A;stroke-width:0.625" />
<path d="M238.2,126.07L243.53,126.07L243.53,131.41L238.2,131.41Z" style="fill:none;stroke:#7AC36A;stroke-width:0.625" />
<path d="M245.15,99.511L250.49,99.511L250.49,104.85L245.15,104.85Z" style="fill:none;stroke:#7AC36A;stroke-width:0.625" />
<path d="M252.11,76.574L257.44,76.574L257.44,81.909L252.11,81.909Z" style="fill:none;stroke:#7AC36A;stroke-width:0.625" />
<path d="M259.06,73.886L264.39,73.886L264.39,79.221L259.06,79.221Z" style="fill:none;stroke:#7AC36A;stroke-width:0.625" />
<path d="M266.01,113.96L271.35,113.96L271.35,119.3L266.01,119.3Z" style="fill:none;stroke:#7AC36A;stroke-width:0.625" />
<path d="M272.97,145.42L278.3,145.42L278.3,150.75L272.97,150.75Z" style="fill:none;stroke:#7AC36A;stroke-width:0.625" />
<path d="M279.92,165.3L285.25,165.3L285.25,170.63L279.92,170.63Z" style="fill:none;stroke:#7AC36A;stroke-width:0.625" />
<path d="M286.87,213.66L292.21,213.66L292.21,219L286.87,219Z" style="fill:none;stroke:#7AC36A;stroke-width:0.625" />
<path d="M293.83,262.3L299.16,262.3L299.16,267.63L293.83,267.63Z" style="fill:none;stroke:#7AC36A;stroke-width:0.625" />
<path d="M300.78,322.58L306.11,322.58L306.11,327.92L300.78,327.92Z" style="fill:none;stroke:#7AC36A;stroke-width:0.625" />
<path d="M307.73,368.43L313.07,368.43L313.07,373.77L307.73,373.77Z" style="fill:none;stroke:#7AC36A;stroke-width:0.625" />
<path d="M314.69,435.76L320.02,435.76L320.02,441.09L314.69,441.09Z" style="fill:none;stroke:#7AC36A;stroke-width:0.625" />
<path d="M321.64,491.18L326.98,491.18L326.98,496.51L321.64,496.51Z" style="fill:none;stroke:#7AC36A;stroke-width:0.625" />
<path d="M328.59,547.11L333.93,547.11L333.93,552.45L328.59,552.45Z" style="fill:none;stroke:#7AC36A;stroke-width:0.625" />
<path d="M335.55,608.93L340.88,608.93L340.88,614.27L335.55,614.27Z" style="fill:none;stroke:#7AC36A;stroke-width:0.625" />
<path d="M342.5,679.77L347.84,679.77L347.84,685.11L342.5,685.11Z" style="fill:none;stroke:#7AC36A;stroke-width:0.625" />
<path d="M349.46,732.69L354.79,732.69L354.79,738.02L349.46,738.02Z" style="fill:none;stroke:#7AC36A;stroke-width:0.625" />
<path d="M356.41,768.52L361.74,768.52L361.74,773.85L356.41,773.85Z" style="fill:none;stroke:#7AC36A;stroke-width:0.625" />
<path d="M363.36,777.93L368.7,777.93L368.7,783.27L363.36,783.27Z" style="fill:none;stroke:#7AC36A;stroke-width:0.625" />
<path d="M370.32,794.74L375.65,794.74L375.65,800.08L370.32,800.08Z" style="fill:none;stroke:#7AC36A;stroke-width:0.625" />
<path d="M377.27,779.67L382.6,779.67L382.6,785.01L377.27,785.01Z" style="fill:none;stroke:#7AC36A;stroke-width:0.625" />
<path d="M384.22,745.96L389.56,745.96L389.56,751.3L384.22,751.3Z" style="fill:none;stroke:#7AC36A;stroke-width:0.625" />
<path d="M391.18,701.76L396.51,701.76L396.51,707.1L391.18,707.1Z" style="fill:none;stroke:#7AC36A;stroke-width:0.625" />
<path d="M398.13,646.24L403.46,646.24L403.46,651.57L398.13,651.57Z" style="fill:none;stroke:#7AC36A;stroke-width:0.625" />
<path d="M405.08,608.13L410.42,608.13L410.42,613.47L405.08,613.47Z" style="fill:none;stroke:#7AC36A;stroke-width:0.625" />
<path d="M412.04,552.91L417.37,552.91L417.37,558.25L412.04,558.25Z" style="fill:none;stroke:#7AC36A;stroke-width:0.625" />
<path d="M418.99,511.02L424.33,511.02L424.33,516.35L418.99,516.35Z" style="fill:none;stroke:#7AC36A;stroke-width:0.625" />
<path d="M425.94,480.85L431.28,480.85L431.28,486.18L425.94,486.18Z" style="fill:none;stroke:#7AC36A;stroke-width:0.625" />
<path d="M432.9,431.75L438.23,431.75L438.23,437.09L432.9,437.09Z" style="fill:none;stroke:#7AC36A;stroke-width:0.625" />
<path d="M439.85,370.74L445.19,370.74L445.19,376.08L439.85,376.08Z" style="fill:none;stroke:#7AC36A;stroke-width:0.625" />
<path d="M446.8,307.87L452.14,307.87L452.14,313.21L446.8,313.21Z" style="fill:none;stroke:#7AC36A;stroke-width:0.625" />
<path d="M453.76,248.54L459.09,248.54L459.09,253.87L453.76,253.87Z" style="fill:none;stroke:#7AC36A;stroke-width:0.625" />
<path d="M460.71,188.36L466.05,188.36L466.05,193.7L460.71,193.7Z" style="fill:none;stroke:#7AC36A;stroke-width:0.625" />
<path d="M467.67,149.9L473,149.9L473,155.23L467.67,155.23Z" style="fill:none;stroke:#7AC36A;stroke-width:0.625" />
<path d="M474.62,119.67L479.95,119.67L479.95,125L474.62,125Z" style="fill:none;stroke:#7AC36A;stroke-width:0.625" />
<path d="M481.57,101.37L486.91,101.37L486.91,106.7L481.57,106.7Z" style="fill:none;stroke:#7AC36A;stroke-width:0.625" />
<path d="M488.53,83.99L493.86,83.99L493.86,89.325L488.53,89.325Z" style="fill:none;stroke:#7AC36A;stroke-width:0.625" />
<path d="M495.48,64.102L500.81,64.102L500.81,69.437L495.48,69.437Z" style="fill:none;stroke:#7AC36A;stroke-width:0.625" />
<path d="M502.43,61.502L507.77,61.502L507.77,66.837L502.43,66.837Z" style="fill:none;stroke:#7AC36A;stroke-width:0.625" />
<path d="M509.39,68.93L514.72,68.93L514.72,74.264L509.39,74.264Z" style="fill:none;stroke:#7AC36A;stroke-width:0.625" />
<path d="M516.34,117.09L521.67,117.09L521.67,122.43L516.34,122.43Z" style="fill:none;stroke:#7AC36A;stroke-width:0.625" />
<path d="M523.29,140.62L528.63,140.62L528.63,145.95L523.29,145.95Z" style="fill:none;stroke:#7AC36A;stroke-width:0.625" />
<path d="M530.25,203.17L535.58,203.17L535.58,208.51L530.25,208.51Z" style="fill:none;stroke:#7AC36A;stroke-width:0.625" />
<path d="M537.2,252.01L542.54,252.01L542.54,257.35L537.2,257.35Z" style="fill:none;stroke:#7AC36A;stroke-width:0.625" />
<path d="M544.15,313.26L549.49,313.26L549.49,318.6L544.15,318.6Z" style="fill:none;stroke:#7AC36A;stroke-width:0.625" />
<path d="M551.11,358.77L556.44,358.77L556.44,364.1L551.11,364.1Z" style="fill:none;stroke:#7AC36A;stroke-width:0.625" />
<path d="M558.06,419.21L563.4,419.21L563.4,424.54L558.06,424.54Z" style="fill:none;stroke:#7AC36A;stroke-width:0.625" />
<path d="M565.01,480.15L570.35,480.15L570.35,485.48L565.01,485.48Z" style="fill:none;stroke:#7AC36A;stroke-width:0.625" />
<path d="M571.97,548.45L577.3,548.45L577.3,553.78L571.97,553.78Z" style="fill:none;stroke:#7AC36A;stroke-width:0.625" />
<path d="M578.92,603.24L584.26,603.24L584.26,608.57L578.92,608.57Z" style="fill:none;stroke:#7AC36A;stroke-width:0.625" />
<path d="M585.88,650.16L591.21,650.16L591.21,655.49L585.88,655.49Z" style="fill:none;stroke:#7AC36A;stroke-width:0.625" />
<path d="M592.83,701.05L598.16,701.05L598.16,706.39L592.83,706.39Z" style="fill:none;stroke:#7AC36A;stroke-width:0.625" />
<path d="M599.78,718.56L605.12,718.56L605.12,723.89L599.78,723.89Z" style="fill:none;stroke:#7AC36A;stroke-width:0.625" />
<path d="M606.74,750.81L612.07,750.81L612.07,756.14L606.74,756.14Z" style="fill:none;stroke:#7AC36A;stroke-width:0.625" />
<path d="M613.69,785.03L619.02,785.03L619.02,790.36L613.69,790.36Z" style="fill:none;stroke:#7AC36A;stroke-width:0.625" />
<path d="M620.64,804.21L625.98,804.21L625.98,809.54L620.64,809.54Z" style="fill:none;stroke:#7AC36A;stroke-width:0.625" />
<path d="M627.6,791.44L632.93,791.44L632.93,796.78L627.6,796.78Z" style="fill:none;stroke:#7AC36A;stroke-width:0.625" />
<path d="M634.55,791.15L639.89,791.15L639.89,796.48L634.55,796.48Z" style="fill:none;stroke:#7AC36A;stroke-width:0.625" />
<path d="M641.5,769.65L646.84,769.65L646.84,774.98L641.5,774.98Z" style="fill:none;stroke:#7AC36A;stroke-width:0.625" />
<path d="M648.46,713.02L653.79,713.02L653.79,718.36L648.46,718.36Z" style="fill:none;stroke:#7AC36A;stroke-width:0.625" />
<path d="M655.41,649.81L660.75,649.81L660.75,655.14L655.41,655.14Z" style="fill:none;stroke:#7AC36A;stroke-width:0.625" />
<path d="M662.36,581.34L667.7,581.34L667.7,586.68L662.36,586.68Z" style="fill:none;stroke:#7AC36A;stroke-width:0.625" />
<path d="M669.32,533.11L674.65,533.11L674.65,538.44L669.32,538.44Z" style="fill:none;stroke:#7AC36A;stroke-width:0.625" />
<path d="M676.27,492.56L681.61,492.56L681.61,497.89L676.27,497.89Z" style="fill:none;stroke:#7AC36A;stroke-width:0.625" />
<path d="M683.23,413.33L688.56,413.33L688.56,418.67L683.23,418.67Z" style="fill:none;stroke:#7AC36A;stroke-width:0.625" />
<path d="M690.18,375.33L695.51,375.33L695.51,380.66L690.18,380.66Z" style="fill:none;stroke:#7AC36A;stroke-width:0.625" />
<path d="M697.13,334.08L702.47,334.08L702.47,339.41L697.13,339.41Z" style="fill:none;stroke:#7AC36A;stroke-width:0.625" />
<path d="M704.09,261.63L709.42,261.63L709.42,266.96L704.09,266.96Z" style="fill:none;stroke:#7AC36A;stroke-width:0.625" />
<path d="M711.04,229.5L716.37,229.5L716.37,234.83L711.04,234.83Z" style="fill:none;stroke:#7AC36A;stroke-width:0.625" />
<path d="M717.99,189.8L723.33,189.8L723.33,195.13L717.99,195.13Z" style="fill:none;stroke:#7AC36A;stroke-width:0.625" />
<path d="M724.95,177.88L730.28,177.88L730.28,183.21L724.95,183.21Z" style="fill:none;stroke:#7AC36A;stroke-width:0.625" />
<path d="M731.9,139.67L737.23,139.67L737.23,145.01L731.9,145.01Z" style="fill:none;stroke:#7AC36A;stroke-width:0.625" />
<path d="M738.85,118.26L744.19,118.26L744.19,123.59L738.85,123.59Z" style="fill:none;stroke:#7AC36A;stroke-width:0.625" />
<path d="M745.81,105.68L751.14,105.68L751.14,111.01L745.81,111.01Z" style="fill:none;stroke:#7AC36A;stroke-width:0.625" />
<path d="M752.76,79.48L758.1,79.48L758.1,84.815L752.76,84.815Z" style="fill:none;stroke:#7AC36A;stroke-width:0.625" />
<path d="M759.71,87.277L765.05,87.277L765.05,92.611L759.71,92.611Z" style="fill:none;stroke:#7AC36A;stroke-width:0.625" />
<path d="M766.67,111.97L772,111.97L772,117.31L766.67,117.31Z" style="fill:none;stroke:#7AC36A;stroke-width:0.625" />
<path d="M773.62,133.62L778.96,133.62L778.96,138.96L773.62,138.96Z" style="fill:none;stroke:#7AC36A;stroke-width:0.625" />
<path d="M780.57,192.95L785.91,192.95L785.91,198.28L780.57,198.28Z" style="fill:none;stroke:#7AC36A;stroke-width:0.625" />
<path d="M787.53,217.83L792.86,217.83L792.86,223.16L787.53,223.16Z" style="fill:none;stroke:#7AC36A;stroke-width:0.625" />
<path d="M794.48,248.73L799.82,248.73L799.82,254.07L794.48,254.07Z" style="fill:none;stroke:#7AC36A;stroke-width:0.625" />
<path d="M801.44,286.17L806.77,286.17L806.77,291.5L801.44,291.5Z" style="fill:none;stroke:#7AC36A;stroke-width:0.625" />
<path d="M808.39,355.75L813.72,355.75L813.72,361.08L808.39,361.08Z" style="fill:none;stroke:#7AC36A;stroke-width:0.625" />
<path d="M815.34,407.72L820.68,407.72L820.68,413.06L815.34,413.06Z" style="fill:none;stroke:#7AC36A;stroke-width:0.625" />
<path d="M822.3,491.29L827.63,491.29L827.63,496.62L822.3,496.62Z" style="fill:none;stroke:#7AC36A;stroke-width:0.625" />
<path d="M829.25,542.46L834.58,542.46L834.58,547.8L829.25,547.8Z" style="fill:none;stroke:#7AC36A;stroke-width:0.625" />
<path d="M836.2,592.37L841.54,592.37L841.54,597.7L836.2,597.7Z" style="fill:none;stroke:#7AC36A;stroke-width:0.625" />
<path d="M843.16,628.2L848.49,628.2L848.49,633.54L843.16,633.54Z" style="fill:none;stroke:#7AC36A;stroke-width:0.625" />
<path d="M850.11,669.34L855.44,669.34L855.44,674.67L850.11,674.67Z" style="fill:none;stroke:#7AC36A;stroke-width:0.625" />
<path d="M857.06,728.87L862.4,728.87L862.4,734.2L857.06,734.2Z" style="fill:none;stroke:#7AC36A;stroke-width:0.625" />
<path d="M864.02,735L869.35,735L869.35,740.33L864.02,740.33Z" style="fill:none;stroke:#7AC36A;stroke-width:0.625" />
<path d="M870.97,764.13L876.31,764.13L876.31,769.46L870.97,769.46Z" style="fill:none;stroke:#7AC36A;stroke-width:0.625" />
<path d="M877.92,774.57L883.26,774.57L883.26,779.91L877.92,779.91Z" style="fill:none;stroke:#7AC36A;stroke-width:0.625" />
<path d="M884.88,745.72L890.21,745.72L890.21,751.06L884.88,751.06Z" style="fill:none;stroke:#7AC36A;stroke-width:0.625" />
<path d="M891.83,744.38L897.17,744.38L897.17,749.71L891.83,749.71Z" style="fill:none;stroke:#7AC36A;stroke-width:0.625" />
<path d="M898.78,694.02L904.12,694.02L904.12,699.36L898.78,699.36Z" style="fill:none;stroke:#7AC36A;stroke-width:0.625" />
<path d="M905.74,656.15L911.07,656.15L911.07,661.49L905.74,661.49Z" style="fill:none;stroke:#7AC36A;stroke-width:0.625" />
<path d="M912.69,600.28L918.03,600.28L918.03,605.62L912.69,605.62Z" style="fill:none;stroke:#7AC36A;stroke-width:0.625" />
<path d="M919.65,561.12L924.98,561.12L924.98,566.45L919.65,566.45Z" style="fill:none;stroke:#7AC36A;stroke-width:0.625" />
<path d="M926.6,483.92L931.93,483.92L931.93,489.26L926.6,489.26Z" style="fill:none;stroke:#7AC36A;stroke-width:0.625" />
<path d="M933.55,408.29L938.89,408.29L938.89,413.63L933.55,413.63Z" style="fill:none;stroke:#7AC36A;stroke-width:0.625" />
<path d="M940.51,338.88L945.84,338.88L945.84,344.22L940.51,344.22Z" style="fill:none;stroke:#7AC36A;stroke-width:0.625" />
<path d="M947.46,260.44L952.79,260.44L952.79,265.78L947.46,265.78Z" style="fill:none;stroke:#7AC36A;stroke-width:0.625" />
<path d="M954.41,222.7L959.75,222.7L959.75,228.04L954.41,228.04Z" style="fill:none;stroke:#7AC36A;stroke-width:0.625" />
<path d="M961.37,179.23L966.7,179.23L966.7,184.57L961.37,184.57Z" style="fill:none;stroke:#7AC36A;stroke-width:0.625" />
<path d="M968.32,119.79L973.66,119.79L973.66,125.12L968.32,125.12Z" style="fill:none;stroke:#7AC36A;stroke-width:0.625" />
<path d="M975.27,80.565L980.61,80.565L980.61,85.9L975.27,85.9Z" style="fill:none;stroke:#7AC36A;stroke-width:0.625" />
<path d="M982.23,48.558L987.56,48.558L987.56,53.893L982.23,53.893Z" style="fill:none;stroke:#7AC36A;stroke-width:0.625" />
<path d="M989.18,63.428L994.52,63.428L994.52,68.762L989.18,68.762Z" style="fill:none;stroke:#7AC36A;stroke-width:0.625" />
<path d="M996.13,69.426L1001.5,69.426L1001.5,74.76L996.13,74.76Z" style="fill:none;stroke:#7AC36A;stroke-width:0.625" />
<path d="M1003.1,102.93L1008.4,102.93L1008.4,108.26L1003.1,108.26Z" style="fill:none;stroke:#7AC36A;stroke-width:0.625" />
<path d="M1010,109.45L1015.4,109.45L1015.4,114.79L1010,114.79Z" style="fill:none;stroke:#7AC36A;stroke-width:0.625" />
<path d="M1017,131.66L1022.3,131.66L1022.3,136.99L1017,136.99Z" style="fill:none;stroke:#7AC36A;stroke-width:0.625" />
<path d="M1023.9,152.11L1029.3,152.11L1029.3,157.45L1023.9,157.45Z" style="fill:none;stroke:#7AC36A;stroke-width:0.625" />
<path d="M1030.9,209.94L1036.2,209.94L1036.2,215.27L1030.9,215.27Z" style="fill:none;stroke:#7AC36A;stroke-width:0.625" />
<path d="M1037.9,278.96L1043.2,278.96L1043.2,284.29L1037.9,284.29Z" style="fill:none;stroke:#7AC36A;stroke-width:0.625" />
<path d="M1044.8,341.92L1050.1,341.92L1050.1,347.26L1044.8,347.26Z" style="fill:none;stroke:#7AC36A;stroke-width:0.625" />
<path d="M1051.8,373.47L1057.1,373.47L1057.1,378.8L1051.8,378.8Z" style="fill:none;stroke:#7AC36A;stroke-width:0.625" />
<path d="M1058.7,425.05L1064.1,425.05L1064.1,430.39L1058.7,430.39Z" style="fill:none;stroke:#7AC36A;stroke-width:0.625" />
<path d="M1065.7,475.81L1071,475.81L1071,481.14L1065.7,481.14Z" style="fill:none;stroke:#7AC36A;stroke-width:0.625" />
<path d="M1072.6,525.86L1078,525.86L1078,531.2L1072.6,531.2Z" style="fill:none;stroke:#7AC36A;stroke-width:0.625" />
<path d="M1079.6,550.61L1084.9,550.61L1084.9,555.94L1079.6,555.94Z" style="fill:none;stroke:#7AC36A;stroke-width:0.625" />
<path d="M1086.5,613.64L1091.9,613.64L1091.9,618.98L1086.5,618.98Z" style="fill:none;stroke:#7AC36A;stroke-width:0.625" />
<path d="M1093.5,651.29L1098.8,651.29L1098.8,656.63L1093.5,656.63Z" style="fill:none;stroke:#7AC36A;stroke-width:0.625" />
<path d="M1100.4,703.35L1105.8,703.35L1105.8,708.68L1100.4,708.68Z" style="fill:none;stroke:#7AC36A;stroke-width:0.625" />
<path d="M1107.4,711.39L1112.7,711.39L1112.7,716.72L1107.4,716.72Z" style="fill:none;stroke:#7AC36A;stroke-width:0.625" />
<path d="M1114.3,738.65L1119.7,738.65L1119.7,743.98L1114.3,743.98Z" style="fill:none;stroke:#7AC36A;stroke-width:0.625" />
<path d="M1121.3,737.13L1126.6,737.13L1126.6,742.47L1121.3,742.47Z" style="fill:none;stroke:#7AC36A;stroke-width:0.625" />
<path d="M1128.3,754.88L1133.6,754.88L1133.6,760.22L1128.3,760.22Z" style="fill:none;stroke:#7AC36A;stroke-width:0.625" />
<path d="M1135.2,764.74L1140.5,764.74L1140.5,770.07L1135.2,770.07Z" style="fill:none;stroke:#7AC36A;stroke-width:0.625" />
<path d="M1142.2,755.9L1147.5,755.9L1147.5,761.23L1142.2,761.23Z" style="fill:none;stroke:#7AC36A;stroke-width:0.625" />
<path d="M1149.1,712.75L1154.4,712.75L1154.4,718.08L1149.1,718.08Z" style="fill:none;stroke:#7AC36A;stroke-width:0.625" />
<path d="M1156.1,669.69L1161.4,669.69L1161.4,675.02L1156.1,675.02Z" style="fill:none;stroke:#7AC36A;stroke-width:0.625" />
<path d="M1163,633.83L1168.4,633.83L1168.4,639.17L1163,639.17Z" style="fill:none;stroke:#7AC36A;stroke-width:0.625" />
<path d="M1170,570.32L1175.3,570.32L1175.3,575.66L1170,575.66Z" style="fill:none;stroke:#7AC36A;stroke-width:0.625" />
<path d="M1176.9,520.44L1182.3,520.44L1182.3,525.78L1176.9,525.78Z" style="fill:none;stroke:#7AC36A;stroke-width:0.625" />
<path d="M1183.9,481.98L1189.2,481.98L1189.2,487.31L1183.9,487.31Z" style="fill:none;stroke:#7AC36A;stroke-width:0.625" />
<path d="M1190.8,437.64L1196.2,437.64L1196.2,442.98L1190.8,442.98Z" style="fill:none;stroke:#7AC36A;stroke-width:0.625" />
<path d="M1197.8,358L1203.1,358L1203.1,363.34L1197.8,363.34Z" style="fill:none;stroke:#7AC36A;stroke-width:0.625" />
<path d="M1204.7,288.87L1210.1,288.87L1210.1,294.2L1204.7,294.2Z" style="fill:none;stroke:#7AC36A;stroke-width:0.625" />
<path d="M1211.7,209.09L1217,209.09L1217,214.43L1211.7,214.43Z" style="fill:none;stroke:#7AC36A;stroke-width:0.625" />
<path d="M1218.6,141.74L1224,141.74L1224,147.08L1218.6,147.08Z" style="fill:none;stroke:#7AC36A;stroke-width:0.625" />
<path d="M1225.6,112.56L1230.9,112.56L1230.9,117.89L1225.6,117.89Z" style="fill:none;stroke:#7AC36A;stroke-width:0.625" />
<path d="M1232.6,100.48L1237.9,100.48L1237.9,105.81L1232.6,105.81Z" style="fill:none;stroke:#7AC36A;stroke-width:0.625" />
<path d="M1239.5,106.44L1244.8,106.44L1244.8,111.78L1239.5,111.78Z" style="fill:none;stroke:#7AC36A;stroke-width:0.625" />
<path d="M1246.5,78.296L1251.8,78.296L1251.8,83.63L1246.5,83.63Z" style="fill:none;stroke:#7AC36A;stroke-width:0.625" />
<path d="M1253.4,59.803L1258.8,59.803L1258.8,65.137L1253.4,65.137Z" style="fill:none;stroke:#7AC36A;stroke-width:0.625" />
<path d="M1260.4,88.13L1265.7,88.13L1265.7,93.464L1260.4,93.464Z" style="fill:none;stroke:#7AC36A;stroke-width:0.625" />
<path d="M1267.3,96.272L1272.7,96.272L1272.7,101.61L1267.3,101.61Z" style="fill:none;stroke:#7AC36A;stroke-width:0.625" />
<path d="M1274.3,120.36L1279.6,120.36L1279.6,125.7L1274.3,125.7Z" style="fill:none;stroke:#7AC36A;stroke-width:0.625" />
<path d="M1281.2,147.64L1286.6,147.64L1286.6,152.98L1281.2,152.98Z" style="fill:none;stroke:#7AC36A;stroke-width:0.625" />
<path d="M1288.2,178.12L1293.5,178.12L1293.5,183.45L1288.2,183.45Z" style="fill:none;stroke:#7AC36A;stroke-width:0.625" />
<path d="M1295.1,212.14L1300.5,212.14L1300.5,217.47L1295.1,217.47Z" style="fill:none;stroke:#7AC36A;stroke-width:0.625" />
<path d="M1302.1,268.24L1307.4,268.24L1307.4,273.58L1302.1,273.58Z" style="fill:none;stroke:#7AC36A;stroke-width:0.625" />
<path d="M1309,316.58L1314.4,316.58L1314.4,321.92L1309,321.92Z" style="fill:none;stroke:#7AC36A;stroke-width:0.625" />
<path d="M1316,367.11L1321.3,367.11L1321.3,372.44L1316,372.44Z" style="fill:none;stroke:#7AC36A;stroke-width:0.625" />
<path d="M1323,457.07L1328.3,457.07L1328.3,462.41L1323,462.41Z" style="fill:none;stroke:#7AC36A;stroke-width:0.625" />
<path d="M1329.9,542.01L1335.2,542.01L1335.2,547.34L1329.9,547.34Z" style="fill:none;stroke:#7AC36A;stroke-width:0.625" />
<path d="M1336.9,623.32L1342.2,623.32L1342.2,628.66L1336.9,628.66Z" style="fill:none;stroke:#7AC36A;stroke-width:0.625" />
<path d="M1343.8,684.15L1349.1,684.15L1349.1,689.49L1343.8,689.49Z" style="fill:none;stroke:#7AC36A;stroke-width:0.625" />
<path d="M1350.8,713.54L1356.1,713.54L1356.1,718.87L1350.8,718.87Z" style="fill:none;stroke:#7AC36A;stroke-width:0.625" />
<path d="M1357.7,751.45L1363.1,751.45L1363.1,756.79L1357.7,756.79Z" style="fill:none;stroke:#7AC36A;stroke-width:0.625" />
<path d="M1364.7,753.49L1370,753.49L1370,758.82L1364.7,758.82Z" style="fill:none;stroke:#7AC36A;stroke-width:0.625" />
<path d="M1371.6,781.8L1377,781.8L1377,787.13L1371.6,787.13Z" style="fill:none;stroke:#7AC36A;stroke-width:0.625" />
<path d="M1378.6,760.73L1383.9,760.73L1383.9,766.06L1378.6,766.06Z" style="fill:none;stroke:#7AC36A;stroke-width:0.625" />
<path d="M1385.5,730.4L1390.9,730.4L1390.9,735.73L1385.5,735.73Z" style="fill:none;stroke:#7AC36A;stroke-width:0.625" />
<path d="M1392.5,689.74L1397.8,689.74L1397.8,695.08L1392.5,695.08Z" style="fill:none;stroke:#7AC36A;stroke-width:0.625" />
<path d="M1399.4,651.39L1404.8,651.39L1404.8,656.73L1399.4,656.73Z" style="fill:none;stroke:#7AC36A;stroke-width:0.625" />
<path d="M1406.4,600.08L1411.7,600.08L1411.7,605.41L1406.4,605.41Z" style="fill:none;stroke:#7AC36A;stroke-width:0.625" />
<path d="M1413.3,558.71L1418.7,558.71L1418.7,564.05L1413.3,564.05Z" style="fill:none;stroke:#7AC36A;stroke-width:0.625" />
<path d="M1420.3,532.76L1425.6,532.76L1425.6,538.09L1420.3,538.09Z" style="fill:none;stroke:#7AC36A;stroke-width:0.625" />
<path d="M1427.3,465.75L1432.6,465.75L1432.6,471.08L1427.3,471.08Z" style="fill:none;stroke:#7AC36A;stroke-width:0.625" />
<path d="M1434.2,430.49L1439.5,430.49L1439.5,435.83L1434.2,435.83Z" style="fill:none;stroke:#7AC36A;stroke-width:0.625" />
<path d="M1415,70.183L1440,70.183" style="fill:none;stroke:#F15A60;stroke-width:1.25" />
<path d="M1430.6,70.183A3.125,3.125 0 1 1 1424.4,70.183A3.125,3.125 0 1 1 1430.6,70.183Z" style="fill:none;stroke:#F15A60;stroke-width:0.625" />
<text x="1388.8" y="-63.101" transform="scale(1, -1)"
	style="font-family:Times;font-weight:normal;font-style:normal;font-size:12pt">raw</text>
<path d="M1415,55.461L1440,55.461" style="fill:none;stroke:#7AC36A;stroke-width:1.25;stroke-dasharray:7.5,2.5" />
<path d="M1424.8,52.794L1430.2,52.794L1430.2,58.129L1424.8,58.129Z" style="fill:none;stroke:#7AC36A;stroke-width:0.625" />
<text x="1367.1" y="-48.379" transform="scale(1, -1)"
	style="font-family:Times;font-weight:normal;font-style:normal;font-size:12pt">smooth</text>
</g>
</svg>
