<?xml version="1.0"?>
<!-- Generated by SVGo and Plotinum VG -->
<svg width="16in" height="9in"
	xmlns="http://www.w3.org/2000/svg"
	xmlns:xlink="http://www.w3.org/1999/xlink">
<g transform="scale(1, -1) translate(0, -810)">
<path d="M0,0L1440,0L1440,810L0,810Z" style="fill:#FFFFFF" />
<text x="743.67" y="-5.355" transform="scale(1, -1)"
	style="font-family:Times;font-weight:normal;font-style:normal;font-size:12pt">X</text>
<text x="58.175" y="-19.025" transform="scale(1, -1)"
	style="font-family:Times;font-weight:normal;font-style:normal;font-size:10pt">0</text>
<text x="469.8" y="-19.025" transform="scale(1, -1)"
	style="font-family:Times;font-weight:normal;font-style:normal;font-size:10pt">60</text>
<text x="881.42" y="-19.025" transform="scale(1, -1)"
	style="font-family:Times;font-weight:normal;font-style:normal;font-size:10pt">120</text>
<text x="1296.2" y="-19.025" transform="scale(1, -1)"
	style="font-family:Times;font-weight:normal;font-style:normal;font-size:10pt">180</text>
<path d="M61.3,29.625L61.3,39.625" style="fill:none;stroke:#000000;stroke-width:0.625" />
<path d="M476.05,29.625L476.05,39.625" style="fill:none;stroke:#000000;stroke-width:0.625" />
<path d="M890.79,29.625L890.79,39.625" style="fill:none;stroke:#000000;stroke-width:0.625" />
<path d="M1305.5,29.625L1305.5,39.625" style="fill:none;stroke:#000000;stroke-width:0.625" />
<path d="M199.55,34.625L199.55,39.625" style="fill:none;stroke:#000000;stroke-width:0.625" />
<path d="M337.8,34.625L337.8,39.625" style="fill:none;stroke:#000000;stroke-width:0.625" />
<path d="M614.29,34.625L614.29,39.625" style="fill:none;stroke:#000000;stroke-width:0.625" />
<path d="M752.54,34.625L752.54,39.625" style="fill:none;stroke:#000000;stroke-width:0.625" />
<path d="M1029,34.625L1029,39.625" style="fill:none;stroke:#000000;stroke-width:0.625" />
<path d="M1167.3,34.625L1167.3,39.625" style="fill:none;stroke:#000000;stroke-width:0.625" />
<path d="M61.3,39.625L1436.9,39.625" style="fill:none;stroke:#000000;stroke-width:0.625" />
<g transform="rotate(90)">
<text x="422.68" y="12.72" transform="scale(1, -1)"
	style="font-family:Times;font-weight:normal;font-style:normal;font-size:12pt">Y</text>
</g>
<text x="18.075" y="-84.956" transform="scale(1, -1)"
	style="font-family:Times;font-weight:normal;font-style:normal;font-size:10pt">-0.8</text>
<text x="31.613" y="-294.52" transform="scale(1, -1)"
	style="font-family:Times;font-weight:normal;font-style:normal;font-size:10pt">0</text>
<text x="22.237" y="-504.09" transform="scale(1, -1)"
	style="font-family:Times;font-weight:normal;font-style:normal;font-size:10pt">0.8</text>
<text x="22.237" y="-713.66" transform="scale(1, -1)"
	style="font-family:Times;font-weight:normal;font-style:normal;font-size:10pt">1.6</text>
<path d="M40.987,89.781L50.987,89.781" style="fill:none;stroke:#000000;stroke-width:0.625" />
<path d="M40.987,299.35L50.987,299.35" style="fill:none;stroke:#000000;stroke-width:0.625" />
<path d="M40.987,508.92L50.987,508.92" style="fill:none;stroke:#000000;stroke-width:0.625" />
<path d="M40.987,718.49L50.987,718.49" style="fill:none;stroke:#000000;stroke-width:0.625" />
<path d="M45.987,89.781L50.987,89.781" style="fill:none;stroke:#000000;stroke-width:0.625" />
<path d="M45.987,194.57L50.987,194.57" style="fill:none;stroke:#000000;stroke-width:0.625" />
<path d="M45.987,299.35L50.987,299.35" style="fill:none;stroke:#000000;stroke-width:0.625" />
<path d="M45.987,404.13L50.987,404.13" style="fill:none;stroke:#000000;stroke-width:0.625" />
<path d="M45.987,508.92L50.987,508.92" style="fill:none;stroke:#000000;stroke-width:0.625" />
<path d="M45.987,613.7L50.987,613.7" style="fill:none;stroke:#000000;stroke-width:0.625" />
<path d="M50.987,49.313L50.987,806.88" style="fill:none;stroke:#000000;stroke-width:0.625" />
<path d="M61.3,491.31L68.212,400.97L75.125,458.81L82.037,405.37L88.95,644.19L95.862,552.79L102.77,518.09L109.69,713.36L116.6,609.43L123.51,521.26L130.42,553.9L137.34,572.25L144.25,732.01L151.16,619.78L158.07,586.13L164.99,626.37L171.9,806.88L178.81,746.21L185.72,667.48L192.64,700.83L199.55,596.01L206.46,685.59L213.37,710.18L220.29,566.54L227.2,587.55L234.11,638.22L241.02,696.69L247.94,672.2L254.85,444.71L261.76,435.01L268.67,560.42L275.59,578.7L282.5,393.99L289.41,441.17L296.32,311.77L303.24,464.4L310.15,418.35L317.06,273.86L323.97,370.41L330.89,409.07L337.8,318.82L344.71,156.52L351.62,376.32L358.53,355.29L365.45,204.91L372.36,84.436L379.27,207.75L386.18,235.55L393.1,209.53L400.01,121.64L406.92,246.12L413.83,108.97L420.75,70.59L427.66,260.34L434.57,50.403L441.48,264.18L448.4,141.59L455.31,309.14L462.22,222.08L469.13,326.8L476.05,132.62L482.96,207.1L489.87,228.45L496.78,270.55L503.7,447.59L510.61,464.53L517.52,250.26L524.43,281.12L531.35,422.23L538.26,361.05L545.17,511.42L552.08,529.96L559,533.33L565.91,499.32L572.82,553.9L579.73,599.91L586.65,669.95L593.56,573.7L600.47,602.28L607.38,701.42L614.29,662.24L621.21,749.59L628.12,763.24L635.03,754.09L641.94,704.53L648.86,805.42L655.77,577.11L662.68,603.09L669.59,612.06L676.51,620.45L683.42,728.16L690.33,768.22L697.24,670.63L704.16,763.64L711.07,640.62L717.98,589.73L724.89,561.08L731.81,679L738.72,561.75L745.63,620.59L752.54,491.1L759.46,400.59L766.37,477.45L773.28,499.41L780.19,518.13L787.11,439.22L794.02,358.61L800.93,427.21L807.84,297.87L814.76,226.05L821.67,199.13L828.58,308.05L835.49,152.18L842.41,200L849.32,154.41L856.23,109.38L863.14,225.51L870.06,255.83L876.97,49.313L883.88,74.333L890.79,268.79L897.7,259.05L904.62,270.38L911.53,220.46L918.44,107.1L925.35,276.51L932.27,170.01L939.18,285.77L946.09,350.38L953,206.07L959.92,150.96L966.83,259.64L973.74,381.89L980.65,343.13L987.57,284.57L994.48,414.41L1001.4,476.7L1008.3,424.82L1015.2,462.64L1022.1,433.41L1029,365.13L1036,427.16L1042.9,476.63L1049.8,618.54L1056.7,483.39L1063.6,646.7L1070.5,623.71L1077.4,609.78L1084.3,552.92L1091.3,769.89L1098.2,667.9L1105.1,716.64L1112,615.42L1118.9,623.41L1125.8,753.1L1132.7,725.46L1139.6,771.7L1146.6,676.96L1153.5,570.54L1160.4,745.72L1167.3,618.83L1174.2,569.95L1181.1,681.77L1188,538.79L1194.9,597.95L1201.9,520.39L1208.8,451.96L1215.7,491.58L1222.6,512.81L1229.5,567.22L1236.4,400.67L1243.3,482.11L1250.2,387.42L1257.2,537.94L1264.1,459.6L1271,454.05L1277.9,455.15L1284.8,357.73L1291.7,418.71L1298.6,160.7L1305.5,374.81L1312.5,178.58L1319.4,143.39L1326.3,292.22L1333.2,231.97L1340.1,98.353L1347,110.58L1353.9,197.25L1360.8,54.651L1367.8,106.12L1374.7,214.25L1381.6,284.55L1388.5,225.01L1395.4,286.17L1402.3,160.23L1409.2,119.63L1416.1,112.11L1423.1,139.55L1430,127.53L1436.9,291.03" style="fill:none;stroke:#F15A60;stroke-width:1.25" />
<path d="M64.425,491.31A3.125,3.125 0 1 1 58.175,491.31A3.125,3.125 0 1 1 64.425,491.31Z" style="fill:none;stroke:#F15A60;stroke-width:0.625" />
<path d="M71.337,400.97A3.125,3.125 0 1 1 65.087,400.97A3.125,3.125 0 1 1 71.337,400.97Z" style="fill:none;stroke:#F15A60;stroke-width:0.625" />
<path d="M78.25,458.81A3.125,3.125 0 1 1 72,458.81A3.125,3.125 0 1 1 78.25,458.81Z" style="fill:none;stroke:#F15A60;stroke-width:0.625" />
<path d="M85.162,405.37A3.125,3.125 0 1 1 78.912,405.37A3.125,3.125 0 1 1 85.162,405.37Z" style="fill:none;stroke:#F15A60;stroke-width:0.625" />
<path d="M92.075,644.19A3.125,3.125 0 1 1 85.825,644.19A3.125,3.125 0 1 1 92.075,644.19Z" style="fill:none;stroke:#F15A60;stroke-width:0.625" />
<path d="M98.987,552.79L98.987,552.79A3.125,3.125 0 1 1 92.737,552.79A3.125,3.125 0 1 1 98.987,552.79Z" style="fill:none;stroke:#F15A60;stroke-width:0.625" />
<path d="M105.9,518.09L105.9,518.09A3.125,3.125 0 1 1 99.65,518.09A3.125,3.125 0 1 1 105.9,518.09Z" style="fill:none;stroke:#F15A60;stroke-width:0.625" />
<path d="M112.81,713.36L112.81,713.36A3.125,3.125 0 1 1 106.56,713.36A3.125,3.125 0 1 1 112.81,713.36Z" style="fill:none;stroke:#F15A60;stroke-width:0.625" />
<path d="M119.72,609.43L119.72,609.43A3.125,3.125 0 1 1 113.47,609.43A3.125,3.125 0 1 1 119.72,609.43Z" style="fill:none;stroke:#F15A60;stroke-width:0.625" />
<path d="M126.64,521.26L126.64,521.26A3.125,3.125 0 1 1 120.39,521.26A3.125,3.125 0 1 1 126.64,521.26Z" style="fill:none;stroke:#F15A60;stroke-width:0.625" />
<path d="M133.55,553.9L133.55,553.9A3.125,3.125 0 1 1 127.3,553.9A3.125,3.125 0 1 1 133.55,553.9Z" style="fill:none;stroke:#F15A60;stroke-width:0.625" />
<path d="M140.46,572.25A3.125,3.125 0 1 1 134.21,572.25A3.125,3.125 0 1 1 140.46,572.25Z" style="fill:none;stroke:#F15A60;stroke-width:0.625" />
<path d="M147.37,732.01A3.125,3.125 0 1 1 141.12,732.01A3.125,3.125 0 1 1 147.37,732.01Z" style="fill:none;stroke:#F15A60;stroke-width:0.625" />
<path d="M154.29,619.78A3.125,3.125 0 1 1 148.04,619.78A3.125,3.125 0 1 1 154.29,619.78Z" style="fill:none;stroke:#F15A60;stroke-width:0.625" />
<path d="M161.2,586.13L161.2,586.13A3.125,3.125 0 1 1 154.95,586.13A3.125,3.125 0 1 1 161.2,586.13Z" style="fill:none;stroke:#F15A60;stroke-width:0.625" />
<path d="M168.11,626.37A3.125,3.125 0 1 1 161.86,626.37A3.125,3.125 0 1 1 168.11,626.37Z" style="fill:none;stroke:#F15A60;stroke-width:0.625" />
<path d="M175.02,806.88L175.02,806.88A3.125,3.125 0 1 1 168.77,806.88A3.125,3.125 0 1 1 175.02,806.88Z" style="fill:none;stroke:#F15A60;stroke-width:0.625" />
<path d="M181.94,746.21A3.125,3.125 0 1 1 175.69,746.21A3.125,3.125 0 1 1 181.94,746.21Z" style="fill:none;stroke:#F15A60;stroke-width:0.625" />
<path d="M188.85,667.48A3.125,3.125 0 1 1 182.6,667.48A3.125,3.125 0 1 1 188.85,667.48Z" style="fill:none;stroke:#F15A60;stroke-width:0.625" />
<path d="M195.76,700.83L195.76,700.83A3.125,3.125 0 1 1 189.51,700.83A3.125,3.125 0 1 1 195.76,700.83Z" style="fill:none;stroke:#F15A60;stroke-width:0.625" />
<path d="M202.67,596.01A3.125,3.125 0 1 1 196.42,596.01A3.125,3.125 0 1 1 202.67,596.01Z" style="fill:none;stroke:#F15A60;stroke-width:0.625" />
<path d="M209.59,685.59A3.125,3.125 0 1 1 203.34,685.59A3.125,3.125 0 1 1 209.59,685.59Z" style="fill:none;stroke:#F15A60;stroke-width:0.625" />
<path d="M216.5,710.18A3.125,3.125 0 1 1 210.25,710.18A3.125,3.125 0 1 1 216.5,710.18Z" style="fill:none;stroke:#F15A60;stroke-width:0.625" />
<path d="M223.41,566.54L223.41,566.54A3.125,3.125 0 1 1 217.16,566.54A3.125,3.125 0 1 1 223.41,566.54Z" style="fill:none;stroke:#F15A60;stroke-width:0.625" />
<path d="M230.32,587.55L230.32,587.55A3.125,3.125 0 1 1 224.07,587.55A3.125,3.125 0 1 1 230.32,587.55Z" style="fill:none;stroke:#F15A60;stroke-width:0.625" />
<path d="M237.24,638.22A3.125,3.125 0 1 1 230.99,638.22A3.125,3.125 0 1 1 237.24,638.22Z" style="fill:none;stroke:#F15A60;stroke-width:0.625" />
<path d="M244.15,696.69L244.15,696.69A3.125,3.125 0 1 1 237.9,696.69A3.125,3.125 0 1 1 244.15,696.69Z" style="fill:none;stroke:#F15A60;stroke-width:0.625" />
<path d="M251.06,672.2A3.125,3.125 0 1 1 244.81,672.2A3.125,3.125 0 1 1 251.06,672.2Z" style="fill:none;stroke:#F15A60;stroke-width:0.625" />
<path d="M257.97,444.71A3.125,3.125 0 1 1 251.72,444.71A3.125,3.125 0 1 1 257.97,444.71Z" style="fill:none;stroke:#F15A60;stroke-width:0.625" />
<path d="M264.89,435.01A3.125,3.125 0 1 1 258.64,435.01A3.125,3.125 0 1 1 264.89,435.01Z" style="fill:none;stroke:#F15A60;stroke-width:0.625" />
<path d="M271.8,560.42A3.125,3.125 0 1 1 265.55,560.42A3.125,3.125 0 1 1 271.8,560.42Z" style="fill:none;stroke:#F15A60;stroke-width:0.625" />
<path d="M278.71,578.7A3.125,3.125 0 1 1 272.46,578.7A3.125,3.125 0 1 1 278.71,578.7Z" style="fill:none;stroke:#F15A60;stroke-width:0.625" />
<path d="M285.62,393.99L285.62,393.99A3.125,3.125 0 1 1 279.37,393.99A3.125,3.125 0 1 1 285.62,393.99Z" style="fill:none;stroke:#F15A60;stroke-width:0.625" />
<path d="M292.54,441.17A3.125,3.125 0 1 1 286.29,441.17A3.125,3.125 0 1 1 292.54,441.17Z" style="fill:none;stroke:#F15A60;stroke-width:0.625" />
<path d="M299.45,311.77A3.125,3.125 0 1 1 293.2,311.77A3.125,3.125 0 1 1 299.45,311.77Z" style="fill:none;stroke:#F15A60;stroke-width:0.625" />
<path d="M306.36,464.4A3.125,3.125 0 1 1 300.11,464.4A3.125,3.125 0 1 1 306.36,464.4Z" style="fill:none;stroke:#F15A60;stroke-width:0.625" />
<path d="M313.27,418.35A3.125,3.125 0 1 1 307.02,418.35A3.125,3.125 0 1 1 313.27,418.35Z" style="fill:none;stroke:#F15A60;stroke-width:0.625" />
<path d="M320.19,273.86A3.125,3.125 0 1 1 313.94,273.86A3.125,3.125 0 1 1 320.19,273.86Z" style="fill:none;stroke:#F15A60;stroke-width:0.625" />
<path d="M327.1,370.41L327.1,370.41A3.125,3.125 0 1 1 320.85,370.41A3.125,3.125 0 1 1 327.1,370.41Z" style="fill:none;stroke:#F15A60;stroke-width:0.625" />
<path d="M334.01,409.07L334.01,409.07A3.125,3.125 0 1 1 327.76,409.07A3.125,3.125 0 1 1 334.01,409.07Z" style="fill:none;stroke:#F15A60;stroke-width:0.625" />
<path d="M340.92,318.82A3.125,3.125 0 1 1 334.67,318.82A3.125,3.125 0 1 1 340.92,318.82Z" style="fill:none;stroke:#F15A60;stroke-width:0.625" />
<path d="M347.83,156.52A3.125,3.125 0 1 1 341.58,156.52A3.125,3.125 0 1 1 347.83,156.52Z" style="fill:none;stroke:#F15A60;stroke-width:0.625" />
<path d="M354.75,376.32A3.125,3.125 0 1 1 348.5,376.32A3.125,3.125 0 1 1 354.75,376.32Z" style="fill:none;stroke:#F15A60;stroke-width:0.625" />
<path d="M361.66,355.29L361.66,355.29A3.125,3.125 0 1 1 355.41,355.29A3.125,3.125 0 1 1 361.66,355.29Z" style="fill:none;stroke:#F15A60;stroke-width:0.625" />
<path d="M368.57,204.91A3.125,3.125 0 1 1 362.32,204.91A3.125,3.125 0 1 1 368.57,204.91Z" style="fill:none;stroke:#F15A60;stroke-width:0.625" />
<path d="M375.48,84.436A3.125,3.125 0 1 1 369.23,84.436A3.125,3.125 0 1 1 375.48,84.436Z" style="fill:none;stroke:#F15A60;stroke-width:0.625" />
<path d="M382.4,207.75A3.125,3.125 0 1 1 376.15,207.75A3.125,3.125 0 1 1 382.4,207.75Z" style="fill:none;stroke:#F15A60;stroke-width:0.625" />
<path d="M389.31,235.55A3.125,3.125 0 1 1 383.06,235.55A3.125,3.125 0 1 1 389.31,235.55Z" style="fill:none;stroke:#F15A60;stroke-width:0.625" />
<path d="M396.22,209.53L396.22,209.53A3.125,3.125 0 1 1 389.97,209.53A3.125,3.125 0 1 1 396.22,209.53Z" style="fill:none;stroke:#F15A60;stroke-width:0.625" />
<path d="M403.13,121.64L403.13,121.64A3.125,3.125 0 1 1 396.88,121.64A3.125,3.125 0 1 1 403.13,121.64Z" style="fill:none;stroke:#F15A60;stroke-width:0.625" />
<path d="M410.05,246.12A3.125,3.125 0 1 1 403.8,246.12A3.125,3.125 0 1 1 410.05,246.12Z" style="fill:none;stroke:#F15A60;stroke-width:0.625" />
<path d="M416.96,108.97A3.125,3.125 0 1 1 410.71,108.97A3.125,3.125 0 1 1 416.96,108.97Z" style="fill:none;stroke:#F15A60;stroke-width:0.625" />
<path d="M423.87,70.59L423.87,70.59A3.125,3.125 0 1 1 417.62,70.59A3.125,3.125 0 1 1 423.87,70.59Z" style="fill:none;stroke:#F15A60;stroke-width:0.625" />
<path d="M430.78,260.34A3.125,3.125 0 1 1 424.53,260.34A3.125,3.125 0 1 1 430.78,260.34Z" style="fill:none;stroke:#F15A60;stroke-width:0.625" />
<path d="M437.7,50.403A3.125,3.125 0 1 1 431.45,50.403A3.125,3.125 0 1 1 437.7,50.403Z" style="fill:none;stroke:#F15A60;stroke-width:0.625" />
<path d="M444.61,264.18A3.125,3.125 0 1 1 438.36,264.18A3.125,3.125 0 1 1 444.61,264.18Z" style="fill:none;stroke:#F15A60;stroke-width:0.625" />
<path d="M451.52,141.59A3.125,3.125 0 1 1 445.27,141.59A3.125,3.125 0 1 1 451.52,141.59Z" style="fill:none;stroke:#F15A60;stroke-width:0.625" />
<path d="M458.43,309.14A3.125,3.125 0 1 1 452.18,309.14A3.125,3.125 0 1 1 458.43,309.14Z" style="fill:none;stroke:#F15A60;stroke-width:0.625" />
<path d="M465.35,222.08A3.125,3.125 0 1 1 459.1,222.08A3.125,3.125 0 1 1 465.35,222.08Z" style="fill:none;stroke:#F15A60;stroke-width:0.625" />
<path d="M472.26,326.8A3.125,3.125 0 1 1 466.01,326.8A3.125,3.125 0 1 1 472.26,326.8Z" style="fill:none;stroke:#F15A60;stroke-width:0.625" />
<path d="M479.17,132.62A3.125,3.125 0 1 1 472.92,132.62A3.125,3.125 0 1 1 479.17,132.62Z" style="fill:none;stroke:#F15A60;stroke-width:0.625" />
<path d="M486.08,207.1L486.08,207.1A3.125,3.125 0 1 1 479.83,207.1A3.125,3.125 0 1 1 486.08,207.1Z" style="fill:none;stroke:#F15A60;stroke-width:0.625" />
<path d="M493,228.45L493,228.45A3.125,3.125 0 1 1 486.75,228.45A3.125,3.125 0 1 1 493,228.45Z" style="fill:none;stroke:#F15A60;stroke-width:0.625" />
<path d="M499.91,270.55A3.125,3.125 0 1 1 493.66,270.55A3.125,3.125 0 1 1 499.91,270.55Z" style="fill:none;stroke:#F15A60;stroke-width:0.625" />
<path d="M506.82,447.59A3.125,3.125 0 1 1 500.57,447.59A3.125,3.125 0 1 1 506.82,447.59Z" style="fill:none;stroke:#F15A60;stroke-width:0.625" />
<path d="M513.73,464.53A3.125,3.125 0 1 1 507.48,464.53A3.125,3.125 0 1 1 513.73,464.53Z" style="fill:none;stroke:#F15A60;stroke-width:0.625" />
<path d="M520.65,250.26A3.125,3.125 0 1 1 514.4,250.26A3.125,3.125 0 1 1 520.65,250.26Z" style="fill:none;stroke:#F15A60;stroke-width:0.625" />
<path d="M527.56,281.12A3.125,3.125 0 1 1 521.31,281.12A3.125,3.125 0 1 1 527.56,281.12Z" style="fill:none;stroke:#F15A60;stroke-width:0.625" />
<path d="M534.47,422.23A3.125,3.125 0 1 1 528.22,422.23A3.125,3.125 0 1 1 534.47,422.23Z" style="fill:none;stroke:#F15A60;stroke-width:0.625" />
<path d="M541.38,361.05A3.125,3.125 0 1 1 535.13,361.05A3.125,3.125 0 1 1 541.38,361.05Z" style="fill:none;stroke:#F15A60;stroke-width:0.625" />
<path d="M548.3,511.42A3.125,3.125 0 1 1 542.05,511.42A3.125,3.125 0 1 1 548.3,511.42Z" style="fill:none;stroke:#F15A60;stroke-width:0.625" />
<path d="M555.21,529.96A3.125,3.125 0 1 1 548.96,529.96A3.125,3.125 0 1 1 555.21,529.96Z" style="fill:none;stroke:#F15A60;stroke-width:0.625" />
<path d="M562.12,533.33A3.125,3.125 0 1 1 555.87,533.33A3.125,3.125 0 1 1 562.12,533.33Z" style="fill:none;stroke:#F15A60;stroke-width:0.625" />
<path d="M569.03,499.32A3.125,3.125 0 1 1 562.78,499.32A3.125,3.125 0 1 1 569.03,499.32Z" style="fill:none;stroke:#F15A60;stroke-width:0.625" />
<path d="M575.95,553.9A3.125,3.125 0 1 1 569.7,553.9A3.125,3.125 0 1 1 575.95,553.9Z" style="fill:none;stroke:#F15A60;stroke-width:0.625" />
<path d="M582.86,599.91A3.125,3.125 0 1 1 576.61,599.91A3.125,3.125 0 1 1 582.86,599.91Z" style="fill:none;stroke:#F15A60;stroke-width:0.625" />
<path d="M589.77,669.95A3.125,3.125 0 1 1 583.52,669.95A3.125,3.125 0 1 1 589.77,669.95Z" style="fill:none;stroke:#F15A60;stroke-width:0.625" />
<path d="M596.68,573.7A3.125,3.125 0 1 1 590.43,573.7A3.125,3.125 0 1 1 596.68,573.7Z" style="fill:none;stroke:#F15A60;stroke-width:0.625" />
<path d="M603.6,602.28A3.125,3.125 0 1 1 597.35,602.28A3.125,3.125 0 1 1 603.6,602.28Z" style="fill:none;stroke:#F15A60;stroke-width:0.625" />
<path d="M610.51,701.42L610.51,701.42A3.125,3.125 0 1 1 604.26,701.42A3.125,3.125 0 1 1 610.51,701.42Z" style="fill:none;stroke:#F15A60;stroke-width:0.625" />
<path d="M617.42,662.24A3.125,3.125 0 1 1 611.17,662.24A3.125,3.125 0 1 1 617.42,662.24Z" style="fill:none;stroke:#F15A60;stroke-width:0.625" />
<path d="M624.33,749.59A3.125,3.125 0 1 1 618.08,749.59A3.125,3.125 0 1 1 624.33,749.59Z" style="fill:none;stroke:#F15A60;stroke-width:0.625" />
<path d="M631.24,763.24A3.125,3.125 0 1 1 624.99,763.24A3.125,3.125 0 1 1 631.24,763.24Z" style="fill:none;stroke:#F15A60;stroke-width:0.625" />
<path d="M638.16,754.09A3.125,3.125 0 1 1 631.91,754.09A3.125,3.125 0 1 1 638.16,754.09Z" style="fill:none;stroke:#F15A60;stroke-width:0.625" />
<path d="M645.07,704.53A3.125,3.125 0 1 1 638.82,704.53A3.125,3.125 0 1 1 645.07,704.53Z" style="fill:none;stroke:#F15A60;stroke-width:0.625" />
<path d="M651.98,805.42A3.125,3.125 0 1 1 645.73,805.42A3.125,3.125 0 1 1 651.98,805.42Z" style="fill:none;stroke:#F15A60;stroke-width:0.625" />
<path d="M658.89,577.11A3.125,3.125 0 1 1 652.64,577.11A3.125,3.125 0 1 1 658.89,577.11Z" style="fill:none;stroke:#F15A60;stroke-width:0.625" />
<path d="M665.81,603.09A3.125,3.125 0 1 1 659.56,603.09A3.125,3.125 0 1 1 665.81,603.09Z" style="fill:none;stroke:#F15A60;stroke-width:0.625" />
<path d="M672.72,612.06L672.72,612.06A3.125,3.125 0 1 1 666.47,612.06A3.125,3.125 0 1 1 672.72,612.06Z" style="fill:none;stroke:#F15A60;stroke-width:0.625" />
<path d="M679.63,620.45L679.63,620.45A3.125,3.125 0 1 1 673.38,620.45A3.125,3.125 0 1 1 679.63,620.45Z" style="fill:none;stroke:#F15A60;stroke-width:0.625" />
<path d="M686.54,728.16A3.125,3.125 0 1 1 680.29,728.16A3.125,3.125 0 1 1 686.54,728.16Z" style="fill:none;stroke:#F15A60;stroke-width:0.625" />
<path d="M693.46,768.22A3.125,3.125 0 1 1 687.21,768.22A3.125,3.125 0 1 1 693.46,768.22Z" style="fill:none;stroke:#F15A60;stroke-width:0.625" />
<path d="M700.37,670.63A3.125,3.125 0 1 1 694.12,670.63A3.125,3.125 0 1 1 700.37,670.63Z" style="fill:none;stroke:#F15A60;stroke-width:0.625" />
<path d="M707.28,763.64A3.125,3.125 0 1 1 701.03,763.64A3.125,3.125 0 1 1 707.28,763.64Z" style="fill:none;stroke:#F15A60;stroke-width:0.625" />
<path d="M714.19,640.62A3.125,3.125 0 1 1 707.94,640.62A3.125,3.125 0 1 1 714.19,640.62Z" style="fill:none;stroke:#F15A60;stroke-width:0.625" />
<path d="M721.11,589.73A3.125,3.125 0 1 1 714.86,589.73A3.125,3.125 0 1 1 721.11,589.73Z" style="fill:none;stroke:#F15A60;stroke-width:0.625" />
<path d="M728.02,561.08L728.02,561.08A3.125,3.125 0 1 1 721.77,561.08A3.125,3.125 0 1 1 728.02,561.08Z" style="fill:none;stroke:#F15A60;stroke-width:0.625" />
<path d="M734.93,679L734.93,679A3.125,3.125 0 1 1 728.68,679A3.125,3.125 0 1 1 734.93,679Z" style="fill:none;stroke:#F15A60;stroke-width:0.625" />
<path d="M741.84,561.75A3.125,3.125 0 1 1 735.59,561.75A3.125,3.125 0 1 1 741.84,561.75Z" style="fill:none;stroke:#F15A60;stroke-width:0.625" />
<path d="M748.76,620.59L748.76,620.59A3.125,3.125 0 1 1 742.51,620.59A3.125,3.125 0 1 1 748.76,620.59Z" style="fill:none;stroke:#F15A60;stroke-width:0.625" />
<path d="M755.67,491.1L755.67,491.1A3.125,3.125 0 1 1 749.42,491.1A3.125,3.125 0 1 1 755.67,491.1Z" style="fill:none;stroke:#F15A60;stroke-width:0.625" />
<path d="M762.58,400.59L762.58,400.59A3.125,3.125 0 1 1 756.33,400.59A3.125,3.125 0 1 1 762.58,400.59Z" style="fill:none;stroke:#F15A60;stroke-width:0.625" />
<path d="M769.49,477.45A3.125,3.125 0 1 1 763.24,477.45A3.125,3.125 0 1 1 769.49,477.45Z" style="fill:none;stroke:#F15A60;stroke-width:0.625" />
<path d="M776.41,499.41L776.41,499.41A3.125,3.125 0 1 1 770.16,499.41A3.125,3.125 0 1 1 776.41,499.41Z" style="fill:none;stroke:#F15A60;stroke-width:0.625" />
<path d="M783.32,518.13A3.125,3.125 0 1 1 777.07,518.13A3.125,3.125 0 1 1 783.32,518.13Z" style="fill:none;stroke:#F15A60;stroke-width:0.625" />
<path d="M790.23,439.22L790.23,439.22A3.125,3.125 0 1 1 783.98,439.22A3.125,3.125 0 1 1 790.23,439.22Z" style="fill:none;stroke:#F15A60;stroke-width:0.625" />
<path d="M797.14,358.61A3.125,3.125 0 1 1 790.89,358.61A3.125,3.125 0 1 1 797.14,358.61Z" style="fill:none;stroke:#F15A60;stroke-width:0.625" />
<path d="M804.06,427.21L804.06,427.21A3.125,3.125 0 1 1 797.81,427.21A3.125,3.125 0 1 1 804.06,427.21Z" style="fill:none;stroke:#F15A60;stroke-width:0.625" />
<path d="M810.97,297.87A3.125,3.125 0 1 1 804.72,297.87A3.125,3.125 0 1 1 810.97,297.87Z" style="fill:none;stroke:#F15A60;stroke-width:0.625" />
<path d="M817.88,226.05L817.88,226.05A3.125,3.125 0 1 1 811.63,226.05A3.125,3.125 0 1 1 817.88,226.05Z" style="fill:none;stroke:#F15A60;stroke-width:0.625" />
<path d="M824.79,199.13L824.79,199.13A3.125,3.125 0 1 1 818.54,199.13A3.125,3.125 0 1 1 824.79,199.13Z" style="fill:none;stroke:#F15A60;stroke-width:0.625" />
<path d="M831.71,308.05A3.125,3.125 0 1 1 825.46,308.05A3.125,3.125 0 1 1 831.71,308.05Z" style="fill:none;stroke:#F15A60;stroke-width:0.625" />
<path d="M838.62,152.18A3.125,3.125 0 1 1 832.37,152.18A3.125,3.125 0 1 1 838.62,152.18Z" style="fill:none;stroke:#F15A60;stroke-width:0.625" />
<path d="M845.53,200L845.53,200A3.125,3.125 0 1 1 839.28,200A3.125,3.125 0 1 1 845.53,200Z" style="fill:none;stroke:#F15A60;stroke-width:0.625" />
<path d="M852.44,154.41A3.125,3.125 0 1 1 846.19,154.41A3.125,3.125 0 1 1 852.44,154.41Z" style="fill:none;stroke:#F15A60;stroke-width:0.625" />
<path d="M859.36,109.38L859.36,109.38A3.125,3.125 0 1 1 853.11,109.38A3.125,3.125 0 1 1 859.36,109.38Z" style="fill:none;stroke:#F15A60;stroke-width:0.625" />
<path d="M866.27,225.51L866.27,225.51A3.125,3.125 0 1 1 860.02,225.51A3.125,3.125 0 1 1 866.27,225.51Z" style="fill:none;stroke:#F15A60;stroke-width:0.625" />
<path d="M873.18,255.83A3.125,3.125 0 1 1 866.93,255.83A3.125,3.125 0 1 1 873.18,255.83Z" style="fill:none;stroke:#F15A60;stroke-width:0.625" />
<path d="M880.09,49.313L880.09,49.313A3.125,3.125 0 1 1 873.84,49.313A3.125,3.125 0 1 1 880.09,49.313Z" style="fill:none;stroke:#F15A60;stroke-width:0.625" />
<path d="M887.01,74.333L887.01,74.333A3.125,3.125 0 1 1 880.76,74.333A3.125,3.125 0 1 1 887.01,74.333Z" style="fill:none;stroke:#F15A60;stroke-width:0.625" />
<path d="M893.92,268.79L893.92,268.79A3.125,3.125 0 1 1 887.67,268.79A3.125,3.125 0 1 1 893.92,268.79Z" style="fill:none;stroke:#F15A60;stroke-width:0.625" />
<path d="M900.83,259.05A3.125,3.125 0 1 1 894.58,259.05A3.125,3.125 0 1 1 900.83,259.05Z" style="fill:none;stroke:#F15A60;stroke-width:0.625" />
<path d="M907.74,270.38A3.125,3.125 0 1 1 901.49,270.38A3.125,3.125 0 1 1 907.74,270.38Z" style="fill:none;stroke:#F15A60;stroke-width:0.625" />
<path d="M914.65,220.46L914.65,220.46A3.125,3.125 0 1 1 908.4,220.46A3.125,3.125 0 1 1 914.65,220.46Z" style="fill:none;stroke:#F15A60;stroke-width:0.625" />
<path d="M921.57,107.1L921.57,107.1A3.125,3.125 0 1 1 915.32,107.1A3.125,3.125 0 1 1 921.57,107.1Z" style="fill:none;stroke:#F15A60;stroke-width:0.625" />
<path d="M928.48,276.51L928.48,276.51A3.125,3.125 0 1 1 922.23,276.51A3.125,3.125 0 1 1 928.48,276.51Z" style="fill:none;stroke:#F15A60;stroke-width:0.625" />
<path d="M935.39,170.01L935.39,170.01A3.125,3.125 0 1 1 929.14,170.01A3.125,3.125 0 1 1 935.39,170.01Z" style="fill:none;stroke:#F15A60;stroke-width:0.625" />
<path d="M942.3,285.77A3.125,3.125 0 1 1 936.05,285.77A3.125,3.125 0 1 1 942.3,285.77Z" style="fill:none;stroke:#F15A60;stroke-width:0.625" />
<path d="M949.22,350.38L949.22,350.38A3.125,3.125 0 1 1 942.97,350.38A3.125,3.125 0 1 1 949.22,350.38Z" style="fill:none;stroke:#F15A60;stroke-width:0.625" />
<path d="M956.13,206.07L956.13,206.07A3.125,3.125 0 1 1 949.88,206.07A3.125,3.125 0 1 1 956.13,206.07Z" style="fill:none;stroke:#F15A60;stroke-width:0.625" />
<path d="M963.04,150.96L963.04,150.96A3.125,3.125 0 1 1 956.79,150.96A3.125,3.125 0 1 1 963.04,150.96Z" style="fill:none;stroke:#F15A60;stroke-width:0.625" />
<path d="M969.95,259.64A3.125,3.125 0 1 1 963.7,259.64A3.125,3.125 0 1 1 969.95,259.64Z" style="fill:none;stroke:#F15A60;stroke-width:0.625" />
<path d="M976.87,381.89L976.87,381.89A3.125,3.125 0 1 1 970.62,381.89A3.125,3.125 0 1 1 976.87,381.89Z" style="fill:none;stroke:#F15A60;stroke-width:0.625" />
<path d="M983.78,343.13L983.78,343.13A3.125,3.125 0 1 1 977.53,343.13A3.125,3.125 0 1 1 983.78,343.13Z" style="fill:none;stroke:#F15A60;stroke-width:0.625" />
<path d="M990.69,284.57L990.69,284.57A3.125,3.125 0 1 1 984.44,284.57A3.125,3.125 0 1 1 990.69,284.57Z" style="fill:none;stroke:#F15A60;stroke-width:0.625" />
<path d="M997.6,414.41L997.6,414.41A3.125,3.125 0 1 1 991.35,414.41A3.125,3.125 0 1 1 997.6,414.41Z" style="fill:none;stroke:#F15A60;stroke-width:0.625" />
<path d="M1004.5,476.7L1004.5,476.7A3.125,3.125 0 1 1 998.27,476.7A3.125,3.125 0 1 1 1004.5,476.7Z" style="fill:none;stroke:#F15A60;stroke-width:0.625" />
<path d="M1011.4,424.82L1011.4,424.82A3.125,3.125 0 1 1 1005.2,424.82A3.125,3.125 0 1 1 1011.4,424.82Z" style="fill:none;stroke:#F15A60;stroke-width:0.625" />
<path d="M1018.3,462.64L1018.3,462.64A3.125,3.125 0 1 1 1012.1,462.64A3.125,3.125 0 1 1 1018.3,462.64Z" style="fill:none;stroke:#F15A60;stroke-width:0.625" />
<path d="M1025.3,433.41A3.125,3.125 0 1 1 1019,433.41A3.125,3.125 0 1 1 1025.3,433.41Z" style="fill:none;stroke:#F15A60;stroke-width:0.625" />
<path d="M1032.2,365.13L1032.2,365.13A3.125,3.125 0 1 1 1025.9,365.13A3.125,3.125 0 1 1 1032.2,365.13Z" style="fill:none;stroke:#F15A60;stroke-width:0.625" />
<path d="M1039.1,427.16A3.125,3.125 0 1 1 1032.8,427.16A3.125,3.125 0 1 1 1039.1,427.16Z" style="fill:none;stroke:#F15A60;stroke-width:0.625" />
<path d="M1046,476.63A3.125,3.125 0 1 1 1039.7,476.63A3.125,3.125 0 1 1 1046,476.63Z" style="fill:none;stroke:#F15A60;stroke-width:0.625" />
<path d="M1052.9,618.54L1052.9,618.54A3.125,3.125 0 1 1 1046.7,618.54A3.125,3.125 0 1 1 1052.9,618.54Z" style="fill:none;stroke:#F15A60;stroke-width:0.625" />
<path d="M1059.8,483.39A3.125,3.125 0 1 1 1053.6,483.39A3.125,3.125 0 1 1 1059.8,483.39Z" style="fill:none;stroke:#F15A60;stroke-width:0.625" />
<path d="M1066.7,646.7L1066.7,646.7A3.125,3.125 0 1 1 1060.5,646.7A3.125,3.125 0 1 1 1066.7,646.7Z" style="fill:none;stroke:#F15A60;stroke-width:0.625" />
<path d="M1073.6,623.71A3.125,3.125 0 1 1 1067.4,623.71A3.125,3.125 0 1 1 1073.6,623.71Z" style="fill:none;stroke:#F15A60;stroke-width:0.625" />
<path d="M1080.6,609.78A3.125,3.125 0 1 1 1074.3,609.78A3.125,3.125 0 1 1 1080.6,609.78Z" style="fill:none;stroke:#F15A60;stroke-width:0.625" />
<path d="M1087.5,552.92A3.125,3.125 0 1 1 1081.2,552.92A3.125,3.125 0 1 1 1087.5,552.92Z" style="fill:none;stroke:#F15A60;stroke-width:0.625" />
<path d="M1094.4,769.89A3.125,3.125 0 1 1 1088.1,769.89A3.125,3.125 0 1 1 1094.4,769.89Z" style="fill:none;stroke:#F15A60;stroke-width:0.625" />
<path d="M1101.3,667.9A3.125,3.125 0 1 1 1095,667.9A3.125,3.125 0 1 1 1101.3,667.9Z" style="fill:none;stroke:#F15A60;stroke-width:0.625" />
<path d="M1108.2,716.64L1108.2,716.64A3.125,3.125 0 1 1 1102,716.64A3.125,3.125 0 1 1 1108.2,716.64Z" style="fill:none;stroke:#F15A60;stroke-width:0.625" />
<path d="M1115.1,615.42A3.125,3.125 0 1 1 1108.9,615.42A3.125,3.125 0 1 1 1115.1,615.42Z" style="fill:none;stroke:#F15A60;stroke-width:0.625" />
<path d="M1122,623.41A3.125,3.125 0 1 1 1115.8,623.41A3.125,3.125 0 1 1 1122,623.41Z" style="fill:none;stroke:#F15A60;stroke-width:0.625" />
<path d="M1128.9,753.1A3.125,3.125 0 1 1 1122.7,753.1A3.125,3.125 0 1 1 1128.9,753.1Z" style="fill:none;stroke:#F15A60;stroke-width:0.625" />
<path d="M1135.9,725.46L1135.9,725.46A3.125,3.125 0 1 1 1129.6,725.46A3.125,3.125 0 1 1 1135.9,725.46Z" style="fill:none;stroke:#F15A60;stroke-width:0.625" />
<path d="M1142.8,771.7A3.125,3.125 0 1 1 1136.5,771.7A3.125,3.125 0 1 1 1142.8,771.7Z" style="fill:none;stroke:#F15A60;stroke-width:0.625" />
<path d="M1149.7,676.96A3.125,3.125 0 1 1 1143.4,676.96A3.125,3.125 0 1 1 1149.7,676.96Z" style="fill:none;stroke:#F15A60;stroke-width:0.625" />
<path d="M1156.6,570.54A3.125,3.125 0 1 1 1150.3,570.54A3.125,3.125 0 1 1 1156.6,570.54Z" style="fill:none;stroke:#F15A60;stroke-width:0.625" />
<path d="M1163.5,745.72L1163.5,745.72A3.125,3.125 0 1 1 1157.3,745.72A3.125,3.125 0 1 1 1163.5,745.72Z" style="fill:none;stroke:#F15A60;stroke-width:0.625" />
<path d="M1170.4,618.83A3.125,3.125 0 1 1 1164.2,618.83A3.125,3.125 0 1 1 1170.4,618.83Z" style="fill:none;stroke:#F15A60;stroke-width:0.625" />
<path d="M1177.3,569.95A3.125,3.125 0 1 1 1171.1,569.95A3.125,3.125 0 1 1 1177.3,569.95Z" style="fill:none;stroke:#F15A60;stroke-width:0.625" />
<path d="M1184.2,681.77L1184.2,681.77A3.125,3.125 0 1 1 1178,681.77A3.125,3.125 0 1 1 1184.2,681.77Z" style="fill:none;stroke:#F15A60;stroke-width:0.625" />
<path d="M1191.2,538.79L1191.2,538.79A3.125,3.125 0 1 1 1184.9,538.79A3.125,3.125 0 1 1 1191.2,538.79Z" style="fill:none;stroke:#F15A60;stroke-width:0.625" />
<path d="M1198.1,597.95L1198.1,597.95A3.125,3.125 0 1 1 1191.8,597.95A3.125,3.125 0 1 1 1198.1,597.95Z" style="fill:none;stroke:#F15A60;stroke-width:0.625" />
<path d="M1205,520.39A3.125,3.125 0 1 1 1198.7,520.39A3.125,3.125 0 1 1 1205,520.39Z" style="fill:none;stroke:#F15A60;stroke-width:0.625" />
<path d="M1211.9,451.96A3.125,3.125 0 1 1 1205.6,451.96A3.125,3.125 0 1 1 1211.9,451.96Z" style="fill:none;stroke:#F15A60;stroke-width:0.625" />
<path d="M1218.8,491.58A3.125,3.125 0 1 1 1212.6,491.58A3.125,3.125 0 1 1 1218.8,491.58Z" style="fill:none;stroke:#F15A60;stroke-width:0.625" />
<path d="M1225.7,512.81A3.125,3.125 0 1 1 1219.5,512.81A3.125,3.125 0 1 1 1225.7,512.81Z" style="fill:none;stroke:#F15A60;stroke-width:0.625" />
<path d="M1232.6,567.22A3.125,3.125 0 1 1 1226.4,567.22A3.125,3.125 0 1 1 1232.6,567.22Z" style="fill:none;stroke:#F15A60;stroke-width:0.625" />
<path d="M1239.5,400.67A3.125,3.125 0 1 1 1233.3,400.67A3.125,3.125 0 1 1 1239.5,400.67Z" style="fill:none;stroke:#F15A60;stroke-width:0.625" />
<path d="M1246.5,482.11A3.125,3.125 0 1 1 1240.2,482.11A3.125,3.125 0 1 1 1246.5,482.11Z" style="fill:none;stroke:#F15A60;stroke-width:0.625" />
<path d="M1253.4,387.42A3.125,3.125 0 1 1 1247.1,387.42A3.125,3.125 0 1 1 1253.4,387.42Z" style="fill:none;stroke:#F15A60;stroke-width:0.625" />
<path d="M1260.3,537.94L1260.3,537.94A3.125,3.125 0 1 1 1254,537.94A3.125,3.125 0 1 1 1260.3,537.94Z" style="fill:none;stroke:#F15A60;stroke-width:0.625" />
<path d="M1267.2,459.6L1267.2,459.6A3.125,3.125 0 1 1 1260.9,459.6A3.125,3.125 0 1 1 1267.2,459.6Z" style="fill:none;stroke:#F15A60;stroke-width:0.625" />
<path d="M1274.1,454.05L1274.1,454.05A3.125,3.125 0 1 1 1267.9,454.05A3.125,3.125 0 1 1 1274.1,454.05Z" style="fill:none;stroke:#F15A60;stroke-width:0.625" />
<path d="M1281,455.15A3.125,3.125 0 1 1 1274.8,455.15A3.125,3.125 0 1 1 1281,455.15Z" style="fill:none;stroke:#F15A60;stroke-width:0.625" />
<path d="M1287.9,357.73A3.125,3.125 0 1 1 1281.7,357.73A3.125,3.125 0 1 1 1287.9,357.73Z" style="fill:none;stroke:#F15A60;stroke-width:0.625" />
<path d="M1294.8,418.71L1294.8,418.71A3.125,3.125 0 1 1 1288.6,418.71A3.125,3.125 0 1 1 1294.8,418.71Z" style="fill:none;stroke:#F15A60;stroke-width:0.625" />
<path d="M1301.8,160.7A3.125,3.125 0 1 1 1295.5,160.7A3.125,3.125 0 1 1 1301.8,160.7Z" style="fill:none;stroke:#F15A60;stroke-width:0.625" />
<path d="M1308.7,374.81A3.125,3.125 0 1 1 1302.4,374.81A3.125,3.125 0 1 1 1308.7,374.81Z" style="fill:none;stroke:#F15A60;stroke-width:0.625" />
<path d="M1315.6,178.58L1315.6,178.58A3.125,3.125 0 1 1 1309.3,178.58A3.125,3.125 0 1 1 1315.6,178.58Z" style="fill:none;stroke:#F15A60;stroke-width:0.625" />
<path d="M1322.5,143.39L1322.5,143.39A3.125,3.125 0 1 1 1316.2,143.39A3.125,3.125 0 1 1 1322.5,143.39Z" style="fill:none;stroke:#F15A60;stroke-width:0.625" />
<path d="M1329.4,292.22A3.125,3.125 0 1 1 1323.2,292.22A3.125,3.125 0 1 1 1329.4,292.22Z" style="fill:none;stroke:#F15A60;stroke-width:0.625" />
<path d="M1336.3,231.97A3.125,3.125 0 1 1 1330.1,231.97A3.125,3.125 0 1 1 1336.3,231.97Z" style="fill:none;stroke:#F15A60;stroke-width:0.625" />
<path d="M1343.2,98.353L1343.2,98.353A3.125,3.125 0 1 1 1337,98.353A3.125,3.125 0 1 1 1343.2,98.353Z" style="fill:none;stroke:#F15A60;stroke-width:0.625" />
<path d="M1350.1,110.58A3.125,3.125 0 1 1 1343.9,110.58A3.125,3.125 0 1 1 1350.1,110.58Z" style="fill:none;stroke:#F15A60;stroke-width:0.625" />
<path d="M1357.1,197.25A3.125,3.125 0 1 1 1350.8,197.25A3.125,3.125 0 1 1 1357.1,197.25Z" style="fill:none;stroke:#F15A60;stroke-width:0.625" />
<path d="M1364,54.651L1364,54.651A3.125,3.125 0 1 1 1357.7,54.651A3.125,3.125 0 1 1 1364,54.651Z" style="fill:none;stroke:#F15A60;stroke-width:0.625" />
<path d="M1370.9,106.12A3.125,3.125 0 1 1 1364.6,106.12A3.125,3.125 0 1 1 1370.9,106.12Z" style="fill:none;stroke:#F15A60;stroke-width:0.625" />
<path d="M1377.8,214.25A3.125,3.125 0 1 1 1371.5,214.25A3.125,3.125 0 1 1 1377.8,214.25Z" style="fill:none;stroke:#F15A60;stroke-width:0.625" />
<path d="M1384.7,284.55A3.125,3.125 0 1 1 1378.5,284.55A3.125,3.125 0 1 1 1384.7,284.55Z" style="fill:none;stroke:#F15A60;stroke-width:0.625" />
<path d="M1391.6,225.01A3.125,3.125 0 1 1 1385.4,225.01A3.125,3.125 0 1 1 1391.6,225.01Z" style="fill:none;stroke:#F15A60;stroke-width:0.625" />
<path d="M1398.5,286.17L1398.5,286.17A3.125,3.125 0 1 1 1392.3,286.17A3.125,3.125 0 1 1 1398.5,286.17Z" style="fill:none;stroke:#F15A60;stroke-width:0.625" />
<path d="M1405.4,160.23L1405.4,160.23A3.125,3.125 0 1 1 1399.2,160.23A3.125,3.125 0 1 1 1405.4,160.23Z" style="fill:none;stroke:#F15A60;stroke-width:0.625" />
<path d="M1412.4,119.63A3.125,3.125 0 1 1 1406.1,119.63A3.125,3.125 0 1 1 1412.4,119.63Z" style="fill:none;stroke:#F15A60;stroke-width:0.625" />
<path d="M1419.3,112.11A3.125,3.125 0 1 1 1413,112.11A3.125,3.125 0 1 1 1419.3,112.11Z" style="fill:none;stroke:#F15A60;stroke-width:0.625" />
<path d="M1426.2,139.55L1426.2,139.55A3.125,3.125 0 1 1 1419.9,139.55A3.125,3.125 0 1 1 1426.2,139.55Z" style="fill:none;stroke:#F15A60;stroke-width:0.625" />
<path d="M1433.1,127.53A3.125,3.125 0 1 1 1426.8,127.53A3.125,3.125 0 1 1 1433.1,127.53Z" style="fill:none;stroke:#F15A60;stroke-width:0.625" />
<path d="M1440,291.03A3.125,3.125 0 1 1 1433.8,291.03A3.125,3.125 0 1 1 1440,291.03Z" style="fill:none;stroke:#F15A60;stroke-width:0.625" />
<path d="M61.3,491.31L68.212,400.97L75.125,340.27L82.037,288.13L88.95,301.21L95.862,313.98L102.77,331.58L109.69,395.91L116.6,445.63L123.51,477.6L130.42,512.33L137.34,546.27L144.25,606.94L151.16,640.53L158.07,659.43L164.99,678.2L171.9,726.2L178.81,757.31L185.72,765.79L192.64,773.35L199.55,754.07L206.46,747.09L213.37,742.73L220.29,708.56L227.2,676.9L234.11,656.35L241.02,650.52L247.94,643.72L254.85,594.5L261.76,544.19L268.67,522.48L275.59,511.04L282.5,469L289.41,440.31L296.32,391.53L303.24,378.24L310.15,363.58L317.06,326.23L323.97,312.52L330.89,312.76L337.8,300.68L344.71,259.64L351.62,264.58L358.53,271.04L365.45,251.18L372.36,208.42L379.27,191.44L386.18,184.39L393.1,176.62L400.01,154.8L406.92,160.25L413.83,142.33L420.75,118.32L427.66,134.19L434.57,112.48L441.48,134.13L448.4,134.74L455.31,169.15L462.22,187.67L469.13,225.49L476.05,222.99L482.96,230.46L489.87,239.31L496.78,254.16L503.7,302.42L510.61,353.14L517.52,357.54L524.43,360.79L531.35,386.84L538.26,397.56L545.17,434.02L552.08,471.55L559,505.74L565.91,527.95L572.82,554.92L579.73,585.63L586.65,625.07L593.56,640.06L600.47,653.79L607.38,681.51L614.29,697.04L621.21,724.85L628.12,751.31L635.03,771.37L641.94,776.46L648.86,796.4L655.77,767.23L662.68,737.68L669.59,707.76L676.51,679.76L683.42,675.35L690.33,683L697.24,674.71L704.16,686.44L711.07,675.85L717.98,655.08L724.89,628.82L731.81,627.33L738.72,605.79L745.63,597.69L752.54,566.68L759.46,519.23L766.37,489.53L773.28,469.44L780.19,458.9L787.11,438.25L794.02,405.66L800.93,390.49L807.84,354.68L814.76,308.27L821.67,260.82L828.58,240.94L835.49,197.89L842.41,170.27L849.32,140.85L856.23,109.11L863.14,106.96L870.06,118.42L876.97,94.532L883.88,77.71L890.79,102.94L897.7,131.13L904.62,163.62L911.53,186.04L918.44,183.36L925.35,210.53L932.27,214.92L939.18,238.89L946.09,273.8L953,277.46L959.92,265.09L966.83,270.07L973.74,297.89L980.65,317.43L987.57,322.89L994.48,350.93L1001.4,389.63L1008.3,415.43L1015.2,444.21L1022.1,462.49L1029,461.71L1036,467.7L1042.9,479.95L1049.8,517.93L1056.7,527.33L1063.6,564.87L1070.5,595.21L1077.4,618.42L1084.3,625.08L1091.3,669.49L1098.2,690.63L1105.1,715.93L1112,715.97L1118.9,711.57L1125.8,728.7L1132.7,738.33L1139.6,754.52L1146.6,749.55L1153.5,719.94L1160.4,722.32L1167.3,700.25L1174.2,667.93L1181.1,658.56L1188,623.86L1194.9,602.83L1201.9,570.2L1208.8,527.43L1215.7,496.6L1222.6,475.88L1229.5,472.41L1236.4,442L1243.3,431.49L1250.2,407.18L1257.2,416.65L1264.1,415.83L1271,416.7L1277.9,419.85L1284.8,405L1291.7,402.49L1298.6,349.85L1305.5,339.21L1312.5,293.59L1319.4,243.15L1326.3,226.58L1333.2,205.22L1340.1,163L1347,127.8L1353.9,115.94L1360.8,82.812L1367.8,64.912L1374.7,74.692L1381.6,104.95L1388.5,128.02L1395.4,164.53L1402.3,175.85L1409.2,175.85L1416.1,170.97L1423.1,169.02L1430,163.29L1436.9,189.26" style="fill:none;stroke:#7AC36A;stroke-width:1.25;stroke-dasharray:7.5,2.5" />
<path d="M58.633,488.65L63.967,488.65L63.967,493.98L58.633,493.98Z" style="fill:none;stroke:#7AC36A;stroke-width:0.625" />
<path d="M65.545,398.3L70.88,398.3L70.88,403.64L65.545,403.64Z" style="fill:none;stroke:#7AC36A;stroke-width:0.625" />
<path d="M72.458,337.6L77.792,337.6L77.792,342.93L72.458,342.93Z" style="fill:none;stroke:#7AC36A;stroke-width:0.625" />
<path d="M79.37,285.46L84.705,285.46L84.705,290.79L79.37,290.79Z" style="fill:none;stroke:#7AC36A;stroke-width:0.625" />
<path d="M86.282,298.54L91.617,298.54L91.617,303.88L86.282,303.88Z" style="fill:none;stroke:#7AC36A;stroke-width:0.625" />
<path d="M93.195,311.31L98.53,311.31L98.53,316.65L93.195,316.65Z" style="fill:none;stroke:#7AC36A;stroke-width:0.625" />
<path d="M100.11,328.91L105.44,328.91L105.44,334.25L100.11,334.25Z" style="fill:none;stroke:#7AC36A;stroke-width:0.625" />
<path d="M107.02,393.24L112.35,393.24L112.35,398.58L107.02,398.58Z" style="fill:none;stroke:#7AC36A;stroke-width:0.625" />
<path d="M113.93,442.96L119.27,442.96L119.27,448.3L113.93,448.3Z" style="fill:none;stroke:#7AC36A;stroke-width:0.625" />
<path d="M120.84,474.94L126.18,474.94L126.18,480.27L120.84,480.27Z" style="fill:none;stroke:#7AC36A;stroke-width:0.625" />
<path d="M127.76,509.66L133.09,509.66L133.09,515L127.76,515Z" style="fill:none;stroke:#7AC36A;stroke-width:0.625" />
<path d="M134.67,543.61L140,543.61L140,548.94L134.67,548.94Z" style="fill:none;stroke:#7AC36A;stroke-width:0.625" />
<path d="M141.58,604.27L146.92,604.27L146.92,609.61L141.58,609.61Z" style="fill:none;stroke:#7AC36A;stroke-width:0.625" />
<path d="M148.49,637.86L153.83,637.86L153.83,643.2L148.49,643.2Z" style="fill:none;stroke:#7AC36A;stroke-width:0.625" />
<path d="M155.41,656.76L160.74,656.76L160.74,662.1L155.41,662.1Z" style="fill:none;stroke:#7AC36A;stroke-width:0.625" />
<path d="M162.32,675.53L167.65,675.53L167.65,680.86L162.32,680.86Z" style="fill:none;stroke:#7AC36A;stroke-width:0.625" />
<path d="M169.23,723.54L174.57,723.54L174.57,728.87L169.23,728.87Z" style="fill:none;stroke:#7AC36A;stroke-width:0.625" />
<path d="M176.14,754.65L181.48,754.65L181.48,759.98L176.14,759.98Z" style="fill:none;stroke:#7AC36A;stroke-width:0.625" />
<path d="M183.06,763.12L188.39,763.12L188.39,768.46L183.06,768.46Z" style="fill:none;stroke:#7AC36A;stroke-width:0.625" />
<path d="M189.97,770.68L195.3,770.68L195.3,776.01L189.97,776.01Z" style="fill:none;stroke:#7AC36A;stroke-width:0.625" />
<path d="M196.88,751.41L202.22,751.41L202.22,756.74L196.88,756.74Z" style="fill:none;stroke:#7AC36A;stroke-width:0.625" />
<path d="M203.79,744.42L209.13,744.42L209.13,749.75L203.79,749.75Z" style="fill:none;stroke:#7AC36A;stroke-width:0.625" />
<path d="M210.71,740.06L216.04,740.06L216.04,745.39L210.71,745.39Z" style="fill:none;stroke:#7AC36A;stroke-width:0.625" />
<path d="M217.62,705.89L222.95,705.89L222.95,711.23L217.62,711.23Z" style="fill:none;stroke:#7AC36A;stroke-width:0.625" />
<path d="M224.53,674.24L229.87,674.24L229.87,679.57L224.53,679.57Z" style="fill:none;stroke:#7AC36A;stroke-width:0.625" />
<path d="M231.44,653.69L236.78,653.69L236.78,659.02L231.44,659.02Z" style="fill:none;stroke:#7AC36A;stroke-width:0.625" />
<path d="M238.36,647.85L243.69,647.85L243.69,653.19L238.36,653.19Z" style="fill:none;stroke:#7AC36A;stroke-width:0.625" />
<path d="M245.27,641.06L250.6,641.06L250.6,646.39L245.27,646.39Z" style="fill:none;stroke:#7AC36A;stroke-width:0.625" />
<path d="M252.18,591.83L257.52,591.83L257.52,597.17L252.18,597.17Z" style="fill:none;stroke:#7AC36A;stroke-width:0.625" />
<path d="M259.09,541.52L264.43,541.52L264.43,546.86L259.09,546.86Z" style="fill:none;stroke:#7AC36A;stroke-width:0.625" />
<path d="M266.01,519.81L271.34,519.81L271.34,525.14L266.01,525.14Z" style="fill:none;stroke:#7AC36A;stroke-width:0.625" />
<path d="M272.92,508.37L278.25,508.37L278.25,513.7L272.92,513.7Z" style="fill:none;stroke:#7AC36A;stroke-width:0.625" />
<path d="M279.83,466.33L285.17,466.33L285.17,471.67L279.83,471.67Z" style="fill:none;stroke:#7AC36A;stroke-width:0.625" />
<path d="M286.74,437.64L292.08,437.64L292.08,442.98L286.74,442.98Z" style="fill:none;stroke:#7AC36A;stroke-width:0.625" />
<path d="M293.66,388.86L298.99,388.86L298.99,394.2L293.66,394.2Z" style="fill:none;stroke:#7AC36A;stroke-width:0.625" />
<path d="M300.57,375.58L305.9,375.58L305.9,380.91L300.57,380.91Z" style="fill:none;stroke:#7AC36A;stroke-width:0.625" />
<path d="M307.48,360.91L312.82,360.91L312.82,366.24L307.48,366.24Z" style="fill:none;stroke:#7AC36A;stroke-width:0.625" />
<path d="M314.39,323.56L319.73,323.56L319.73,328.9L314.39,328.9Z" style="fill:none;stroke:#7AC36A;stroke-width:0.625" />
<path d="M321.31,309.85L326.64,309.85L326.64,315.19L321.31,315.19Z" style="fill:none;stroke:#7AC36A;stroke-width:0.625" />
<path d="M328.22,310.09L333.55,310.09L333.55,315.42L328.22,315.42Z" style="fill:none;stroke:#7AC36A;stroke-width:0.625" />
<path d="M335.13,298.01L340.46,298.01L340.46,303.34L335.13,303.34Z" style="fill:none;stroke:#7AC36A;stroke-width:0.625" />
<path d="M342.04,256.97L347.38,256.97L347.38,262.31L342.04,262.31Z" style="fill:none;stroke:#7AC36A;stroke-width:0.625" />
<path d="M348.96,261.92L354.29,261.92L354.29,267.25L348.96,267.25Z" style="fill:none;stroke:#7AC36A;stroke-width:0.625" />
<path d="M355.87,268.37L361.2,268.37L361.2,273.71L355.87,273.71Z" style="fill:none;stroke:#7AC36A;stroke-width:0.625" />
<path d="M362.78,248.51L368.11,248.51L368.11,253.85L362.78,253.85Z" style="fill:none;stroke:#7AC36A;stroke-width:0.625" />
<path d="M369.69,205.75L375.03,205.75L375.03,211.09L369.69,211.09Z" style="fill:none;stroke:#7AC36A;stroke-width:0.625" />
<path d="M376.6,188.77L381.94,188.77L381.94,194.11L376.6,194.11Z" style="fill:none;stroke:#7AC36A;stroke-width:0.625" />
<path d="M383.52,181.72L388.85,181.72L388.85,187.06L383.52,187.06Z" style="fill:none;stroke:#7AC36A;stroke-width:0.625" />
<path d="M390.43,173.95L395.76,173.95L395.76,179.29L390.43,179.29Z" style="fill:none;stroke:#7AC36A;stroke-width:0.625" />
<path d="M397.34,152.13L402.68,152.13L402.68,157.47L397.34,157.47Z" style="fill:none;stroke:#7AC36A;stroke-width:0.625" />
<path d="M404.25,157.58L409.59,157.58L409.59,162.92L404.25,162.92Z" style="fill:none;stroke:#7AC36A;stroke-width:0.625" />
<path d="M411.17,139.66L416.5,139.66L416.5,145L411.17,145Z" style="fill:none;stroke:#7AC36A;stroke-width:0.625" />
<path d="M418.08,115.65L423.41,115.65L423.41,120.99L418.08,120.99Z" style="fill:none;stroke:#7AC36A;stroke-width:0.625" />
<path d="M424.99,131.53L430.33,131.53L430.33,136.86L424.99,136.86Z" style="fill:none;stroke:#7AC36A;stroke-width:0.625" />
<path d="M431.9,109.81L437.24,109.81L437.24,115.14L431.9,115.14Z" style="fill:none;stroke:#7AC36A;stroke-width:0.625" />
<path d="M438.82,131.47L444.15,131.47L444.15,136.8L438.82,136.8Z" style="fill:none;stroke:#7AC36A;stroke-width:0.625" />
<path d="M445.73,132.08L451.06,132.08L451.06,137.41L445.73,137.41Z" style="fill:none;stroke:#7AC36A;stroke-width:0.625" />
<path d="M452.64,166.49L457.98,166.49L457.98,171.82L452.64,171.82Z" style="fill:none;stroke:#7AC36A;stroke-width:0.625" />
<path d="M459.55,185L464.89,185L464.89,190.34L459.55,190.34Z" style="fill:none;stroke:#7AC36A;stroke-width:0.625" />
<path d="M466.47,222.82L471.8,222.82L471.8,228.16L466.47,228.16Z" style="fill:none;stroke:#7AC36A;stroke-width:0.625" />
<path d="M473.38,220.32L478.71,220.32L478.71,225.66L473.38,225.66Z" style="fill:none;stroke:#7AC36A;stroke-width:0.625" />
<path d="M480.29,227.79L485.63,227.79L485.63,233.13L480.29,233.13Z" style="fill:none;stroke:#7AC36A;stroke-width:0.625" />
<path d="M487.2,236.64L492.54,236.64L492.54,241.98L487.2,241.98Z" style="fill:none;stroke:#7AC36A;stroke-width:0.625" />
<path d="M494.12,251.49L499.45,251.49L499.45,256.82L494.12,256.82Z" style="fill:none;stroke:#7AC36A;stroke-width:0.625" />
<path d="M501.03,299.76L506.36,299.76L506.36,305.09L501.03,305.09Z" style="fill:none;stroke:#7AC36A;stroke-width:0.625" />
<path d="M507.94,350.47L513.28,350.47L513.28,355.8L507.94,355.8Z" style="fill:none;stroke:#7AC36A;stroke-width:0.625" />
<path d="M514.85,354.87L520.19,354.87L520.19,360.2L514.85,360.2Z" style="fill:none;stroke:#7AC36A;stroke-width:0.625" />
<path d="M521.77,358.12L527.1,358.12L527.1,363.46L521.77,363.46Z" style="fill:none;stroke:#7AC36A;stroke-width:0.625" />
<path d="M528.68,384.17L534.01,384.17L534.01,389.5L528.68,389.5Z" style="fill:none;stroke:#7AC36A;stroke-width:0.625" />
<path d="M535.59,394.89L540.93,394.89L540.93,400.23L535.59,400.23Z" style="fill:none;stroke:#7AC36A;stroke-width:0.625" />
<path d="M542.5,431.36L547.84,431.36L547.84,436.69L542.5,436.69Z" style="fill:none;stroke:#7AC36A;stroke-width:0.625" />
<path d="M549.42,468.88L554.75,468.88L554.75,474.21L549.42,474.21Z" style="fill:none;stroke:#7AC36A;stroke-width:0.625" />
<path d="M556.33,503.08L561.66,503.08L561.66,508.41L556.33,508.41Z" style="fill:none;stroke:#7AC36A;stroke-width:0.625" />
<path d="M563.24,525.29L568.58,525.29L568.58,530.62L563.24,530.62Z" style="fill:none;stroke:#7AC36A;stroke-width:0.625" />
<path d="M570.15,552.25L575.49,552.25L575.49,557.59L570.15,557.59Z" style="fill:none;stroke:#7AC36A;stroke-width:0.625" />
<path d="M577.07,582.97L582.4,582.97L582.4,588.3L577.07,588.3Z" style="fill:none;stroke:#7AC36A;stroke-width:0.625" />
<path d="M583.98,622.4L589.31,622.4L589.31,627.74L583.98,627.74Z" style="fill:none;stroke:#7AC36A;stroke-width:0.625" />
<path d="M590.89,637.39L596.23,637.39L596.23,642.73L590.89,642.73Z" style="fill:none;stroke:#7AC36A;stroke-width:0.625" />
<path d="M597.8,651.12L603.14,651.12L603.14,656.46L597.8,656.46Z" style="fill:none;stroke:#7AC36A;stroke-width:0.625" />
<path d="M604.72,678.84L610.05,678.84L610.05,684.18L604.72,684.18Z" style="fill:none;stroke:#7AC36A;stroke-width:0.625" />
<path d="M611.63,694.37L616.96,694.37L616.96,699.71L611.63,699.71Z" style="fill:none;stroke:#7AC36A;stroke-width:0.625" />
<path d="M618.54,722.18L623.87,722.18L623.87,727.52L618.54,727.52Z" style="fill:none;stroke:#7AC36A;stroke-width:0.625" />
<path d="M625.45,748.65L630.79,748.65L630.79,753.98L625.45,753.98Z" style="fill:none;stroke:#7AC36A;stroke-width:0.625" />
<path d="M632.36,768.7L637.7,768.7L637.7,774.04L632.36,774.04Z" style="fill:none;stroke:#7AC36A;stroke-width:0.625" />
<path d="M639.28,773.8L644.61,773.8L644.61,779.13L639.28,779.13Z" style="fill:none;stroke:#7AC36A;stroke-width:0.625" />
<path d="M646.19,793.73L651.52,793.73L651.52,799.07L646.19,799.07Z" style="fill:none;stroke:#7AC36A;stroke-width:0.625" />
<path d="M653.1,764.56L658.44,764.56L658.44,769.9L653.1,769.9Z" style="fill:none;stroke:#7AC36A;stroke-width:0.625" />
<path d="M660.01,735.02L665.35,735.02L665.35,740.35L660.01,740.35Z" style="fill:none;stroke:#7AC36A;stroke-width:0.625" />
<path d="M666.93,705.1L672.26,705.1L672.26,710.43L666.93,710.43Z" style="fill:none;stroke:#7AC36A;stroke-width:0.625" />
<path d="M673.84,677.1L679.17,677.1L679.17,682.43L673.84,682.43Z" style="fill:none;stroke:#7AC36A;stroke-width:0.625" />
<path d="M680.75,672.68L686.09,672.68L686.09,678.02L680.75,678.02Z" style="fill:none;stroke:#7AC36A;stroke-width:0.625" />
<path d="M687.66,680.33L693,680.33L693,685.66L687.66,685.66Z" style="fill:none;stroke:#7AC36A;stroke-width:0.625" />
<path d="M694.58,672.04L699.91,672.04L699.91,677.38L694.58,677.38Z" style="fill:none;stroke:#7AC36A;stroke-width:0.625" />
<path d="M701.49,683.77L706.82,683.77L706.82,689.1L701.49,689.1Z" style="fill:none;stroke:#7AC36A;stroke-width:0.625" />
<path d="M708.4,673.18L713.74,673.18L713.74,678.51L708.4,678.51Z" style="fill:none;stroke:#7AC36A;stroke-width:0.625" />
<path d="M715.31,652.42L720.65,652.42L720.65,657.75L715.31,657.75Z" style="fill:none;stroke:#7AC36A;stroke-width:0.625" />
<path d="M722.23,626.16L727.56,626.16L727.56,631.49L722.23,631.49Z" style="fill:none;stroke:#7AC36A;stroke-width:0.625" />
<path d="M729.14,624.67L734.47,624.67L734.47,630L729.14,630Z" style="fill:none;stroke:#7AC36A;stroke-width:0.625" />
<path d="M736.05,603.13L741.39,603.13L741.39,608.46L736.05,608.46Z" style="fill:none;stroke:#7AC36A;stroke-width:0.625" />
<path d="M742.96,595.02L748.3,595.02L748.3,600.35L742.96,600.35Z" style="fill:none;stroke:#7AC36A;stroke-width:0.625" />
<path d="M749.88,564.01L755.21,564.01L755.21,569.34L749.88,569.34Z" style="fill:none;stroke:#7AC36A;stroke-width:0.625" />
<path d="M756.79,516.56L762.12,516.56L762.12,521.9L756.79,521.9Z" style="fill:none;stroke:#7AC36A;stroke-width:0.625" />
<path d="M763.7,486.86L769.04,486.86L769.04,492.2L763.7,492.2Z" style="fill:none;stroke:#7AC36A;stroke-width:0.625" />
<path d="M770.61,466.77L775.95,466.77L775.95,472.1L770.61,472.1Z" style="fill:none;stroke:#7AC36A;stroke-width:0.625" />
<path d="M777.53,456.23L782.86,456.23L782.86,461.57L777.53,461.57Z" style="fill:none;stroke:#7AC36A;stroke-width:0.625" />
<path d="M784.44,435.58L789.77,435.58L789.77,440.92L784.44,440.92Z" style="fill:none;stroke:#7AC36A;stroke-width:0.625" />
<path d="M791.35,402.99L796.69,402.99L796.69,408.33L791.35,408.33Z" style="fill:none;stroke:#7AC36A;stroke-width:0.625" />
<path d="M798.26,387.82L803.6,387.82L803.6,393.16L798.26,393.16Z" style="fill:none;stroke:#7AC36A;stroke-width:0.625" />
<path d="M805.18,352.02L810.51,352.02L810.51,357.35L805.18,357.35Z" style="fill:none;stroke:#7AC36A;stroke-width:0.625" />
<path d="M812.09,305.6L817.42,305.6L817.42,310.94L812.09,310.94Z" style="fill:none;stroke:#7AC36A;stroke-width:0.625" />
<path d="M819,258.15L824.34,258.15L824.34,263.49L819,263.49Z" style="fill:none;stroke:#7AC36A;stroke-width:0.625" />
<path d="M825.91,238.27L831.25,238.27L831.25,243.61L825.91,243.61Z" style="fill:none;stroke:#7AC36A;stroke-width:0.625" />
<path d="M832.83,195.23L838.16,195.23L838.16,200.56L832.83,200.56Z" style="fill:none;stroke:#7AC36A;stroke-width:0.625" />
<path d="M839.74,167.61L845.07,167.61L845.07,172.94L839.74,172.94Z" style="fill:none;stroke:#7AC36A;stroke-width:0.625" />
<path d="M846.65,138.18L851.99,138.18L851.99,143.51L846.65,143.51Z" style="fill:none;stroke:#7AC36A;stroke-width:0.625" />
<path d="M853.56,106.44L858.9,106.44L858.9,111.78L853.56,111.78Z" style="fill:none;stroke:#7AC36A;stroke-width:0.625" />
<path d="M860.48,104.3L865.81,104.3L865.81,109.63L860.48,109.63Z" style="fill:none;stroke:#7AC36A;stroke-width:0.625" />
<path d="M867.39,115.76L872.72,115.76L872.72,121.09L867.39,121.09Z" style="fill:none;stroke:#7AC36A;stroke-width:0.625" />
<path d="M874.3,91.865L879.63,91.865L879.63,97.2L874.3,97.2Z" style="fill:none;stroke:#7AC36A;stroke-width:0.625" />
<path d="M881.21,75.043L886.55,75.043L886.55,80.378L881.21,80.378Z" style="fill:none;stroke:#7AC36A;stroke-width:0.625" />
<path d="M888.13,100.27L893.46,100.27L893.46,105.61L888.13,105.61Z" style="fill:none;stroke:#7AC36A;stroke-width:0.625" />
<path d="M895.04,128.46L900.37,128.46L900.37,133.8L895.04,133.8Z" style="fill:none;stroke:#7AC36A;stroke-width:0.625" />
<path d="M901.95,160.95L907.28,160.95L907.28,166.29L901.95,166.29Z" style="fill:none;stroke:#7AC36A;stroke-width:0.625" />
<path d="M908.86,183.37L914.2,183.37L914.2,188.7L908.86,188.7Z" style="fill:none;stroke:#7AC36A;stroke-width:0.625" />
<path d="M915.77,180.69L921.11,180.69L921.11,186.03L915.77,186.03Z" style="fill:none;stroke:#7AC36A;stroke-width:0.625" />
<path d="M922.69,207.86L928.02,207.86L928.02,213.2L922.69,213.2Z" style="fill:none;stroke:#7AC36A;stroke-width:0.625" />
<path d="M929.6,212.25L934.93,212.25L934.93,217.59L929.6,217.59Z" style="fill:none;stroke:#7AC36A;stroke-width:0.625" />
<path d="M936.51,236.22L941.85,236.22L941.85,241.56L936.51,241.56Z" style="fill:none;stroke:#7AC36A;stroke-width:0.625" />
<path d="M943.42,271.13L948.76,271.13L948.76,276.47L943.42,276.47Z" style="fill:none;stroke:#7AC36A;stroke-width:0.625" />
<path d="M950.34,274.8L955.67,274.8L955.67,280.13L950.34,280.13Z" style="fill:none;stroke:#7AC36A;stroke-width:0.625" />
<path d="M957.25,262.42L962.58,262.42L962.58,267.76L957.25,267.76Z" style="fill:none;stroke:#7AC36A;stroke-width:0.625" />
<path d="M964.16,267.41L969.5,267.41L969.5,272.74L964.16,272.74Z" style="fill:none;stroke:#7AC36A;stroke-width:0.625" />
<path d="M971.07,295.22L976.41,295.22L976.41,300.56L971.07,300.56Z" style="fill:none;stroke:#7AC36A;stroke-width:0.625" />
<path d="M977.99,314.76L983.32,314.76L983.32,320.1L977.99,320.1Z" style="fill:none;stroke:#7AC36A;stroke-width:0.625" />
<path d="M984.9,320.22L990.23,320.22L990.23,325.56L984.9,325.56Z" style="fill:none;stroke:#7AC36A;stroke-width:0.625" />
<path d="M991.81,348.26L997.15,348.26L997.15,353.6L991.81,353.6Z" style="fill:none;stroke:#7AC36A;stroke-width:0.625" />
<path d="M998.72,386.96L1004.1,386.96L1004.1,392.3L998.72,392.3Z" style="fill:none;stroke:#7AC36A;stroke-width:0.625" />
<path d="M1005.6,412.77L1011,412.77L1011,418.1L1005.6,418.1Z" style="fill:none;stroke:#7AC36A;stroke-width:0.625" />
<path d="M1012.5,441.54L1017.9,441.54L1017.9,446.87L1012.5,446.87Z" style="fill:none;stroke:#7AC36A;stroke-width:0.625" />
<path d="M1019.5,459.82L1024.8,459.82L1024.8,465.15L1019.5,465.15Z" style="fill:none;stroke:#7AC36A;stroke-width:0.625" />
<path d="M1026.4,459.04L1031.7,459.04L1031.7,464.38L1026.4,464.38Z" style="fill:none;stroke:#7AC36A;stroke-width:0.625" />
<path d="M1033.3,465.03L1038.6,465.03L1038.6,470.36L1033.3,470.36Z" style="fill:none;stroke:#7AC36A;stroke-width:0.625" />
<path d="M1040.2,477.28L1045.5,477.28L1045.5,482.62L1040.2,482.62Z" style="fill:none;stroke:#7AC36A;stroke-width:0.625" />
<path d="M1047.1,515.27L1052.4,515.27L1052.4,520.6L1047.1,520.6Z" style="fill:none;stroke:#7AC36A;stroke-width:0.625" />
<path d="M1054,524.66L1059.4,524.66L1059.4,530L1054,530Z" style="fill:none;stroke:#7AC36A;stroke-width:0.625" />
<path d="M1060.9,562.2L1066.3,562.2L1066.3,567.54L1060.9,567.54Z" style="fill:none;stroke:#7AC36A;stroke-width:0.625" />
<path d="M1067.8,592.55L1073.2,592.55L1073.2,597.88L1067.8,597.88Z" style="fill:none;stroke:#7AC36A;stroke-width:0.625" />
<path d="M1074.8,615.75L1080.1,615.75L1080.1,621.08L1074.8,621.08Z" style="fill:none;stroke:#7AC36A;stroke-width:0.625" />
<path d="M1081.7,622.42L1087,622.42L1087,627.75L1081.7,627.75Z" style="fill:none;stroke:#7AC36A;stroke-width:0.625" />
<path d="M1088.6,666.82L1093.9,666.82L1093.9,672.15L1088.6,672.15Z" style="fill:none;stroke:#7AC36A;stroke-width:0.625" />
<path d="M1095.5,687.96L1100.8,687.96L1100.8,693.3L1095.5,693.3Z" style="fill:none;stroke:#7AC36A;stroke-width:0.625" />
<path d="M1102.4,713.27L1107.7,713.27L1107.7,718.6L1102.4,718.6Z" style="fill:none;stroke:#7AC36A;stroke-width:0.625" />
<path d="M1109.3,713.31L1114.7,713.31L1114.7,718.64L1109.3,718.64Z" style="fill:none;stroke:#7AC36A;stroke-width:0.625" />
<path d="M1116.2,708.9L1121.6,708.9L1121.6,714.24L1116.2,714.24Z" style="fill:none;stroke:#7AC36A;stroke-width:0.625" />
<path d="M1123.1,726.03L1128.5,726.03L1128.5,731.36L1123.1,731.36Z" style="fill:none;stroke:#7AC36A;stroke-width:0.625" />
<path d="M1130.1,735.66L1135.4,735.66L1135.4,741L1130.1,741Z" style="fill:none;stroke:#7AC36A;stroke-width:0.625" />
<path d="M1137,751.85L1142.3,751.85L1142.3,757.19L1137,757.19Z" style="fill:none;stroke:#7AC36A;stroke-width:0.625" />
<path d="M1143.9,746.88L1149.2,746.88L1149.2,752.22L1143.9,752.22Z" style="fill:none;stroke:#7AC36A;stroke-width:0.625" />
<path d="M1150.8,717.27L1156.1,717.27L1156.1,722.6L1150.8,722.6Z" style="fill:none;stroke:#7AC36A;stroke-width:0.625" />
<path d="M1157.7,719.65L1163,719.65L1163,724.99L1157.7,724.99Z" style="fill:none;stroke:#7AC36A;stroke-width:0.625" />
<path d="M1164.6,697.58L1170,697.58L1170,702.92L1164.6,702.92Z" style="fill:none;stroke:#7AC36A;stroke-width:0.625" />
<path d="M1171.5,665.26L1176.9,665.26L1176.9,670.6L1171.5,670.6Z" style="fill:none;stroke:#7AC36A;stroke-width:0.625" />
<path d="M1178.4,655.9L1183.8,655.9L1183.8,661.23L1178.4,661.23Z" style="fill:none;stroke:#7AC36A;stroke-width:0.625" />
<path d="M1185.4,621.2L1190.7,621.2L1190.7,626.53L1185.4,626.53Z" style="fill:none;stroke:#7AC36A;stroke-width:0.625" />
<path d="M1192.3,600.17L1197.6,600.17L1197.6,605.5L1192.3,605.5Z" style="fill:none;stroke:#7AC36A;stroke-width:0.625" />
<path d="M1199.2,567.54L1204.5,567.54L1204.5,572.87L1199.2,572.87Z" style="fill:none;stroke:#7AC36A;stroke-width:0.625" />
<path d="M1206.1,524.76L1211.4,524.76L1211.4,530.09L1206.1,530.09Z" style="fill:none;stroke:#7AC36A;stroke-width:0.625" />
<path d="M1213,493.93L1218.3,493.93L1218.3,499.27L1213,499.27Z" style="fill:none;stroke:#7AC36A;stroke-width:0.625" />
<path d="M1219.9,473.22L1225.3,473.22L1225.3,478.55L1219.9,478.55Z" style="fill:none;stroke:#7AC36A;stroke-width:0.625" />
<path d="M1226.8,469.74L1232.2,469.74L1232.2,475.07L1226.8,475.07Z" style="fill:none;stroke:#7AC36A;stroke-width:0.625" />
<path d="M1233.7,439.34L1239.1,439.34L1239.1,444.67L1233.7,444.67Z" style="fill:none;stroke:#7AC36A;stroke-width:0.625" />
<path d="M1240.7,428.82L1246,428.82L1246,434.16L1240.7,434.16Z" style="fill:none;stroke:#7AC36A;stroke-width:0.625" />
<path d="M1247.6,404.51L1252.9,404.51L1252.9,409.85L1247.6,409.85Z" style="fill:none;stroke:#7AC36A;stroke-width:0.625" />
<path d="M1254.5,413.98L1259.8,413.98L1259.8,419.32L1254.5,419.32Z" style="fill:none;stroke:#7AC36A;stroke-width:0.625" />
<path d="M1261.4,413.17L1266.7,413.17L1266.7,418.5L1261.4,418.5Z" style="fill:none;stroke:#7AC36A;stroke-width:0.625" />
<path d="M1268.3,414.03L1273.6,414.03L1273.6,419.36L1268.3,419.36Z" style="fill:none;stroke:#7AC36A;stroke-width:0.625" />
<path d="M1275.2,417.18L1280.6,417.18L1280.6,422.52L1275.2,422.52Z" style="fill:none;stroke:#7AC36A;stroke-width:0.625" />
<path d="M1282.1,402.34L1287.5,402.34L1287.5,407.67L1282.1,407.67Z" style="fill:none;stroke:#7AC36A;stroke-width:0.625" />
<path d="M1289,399.82L1294.4,399.82L1294.4,405.15L1289,405.15Z" style="fill:none;stroke:#7AC36A;stroke-width:0.625" />
<path d="M1296,347.18L1301.3,347.18L1301.3,352.51L1296,352.51Z" style="fill:none;stroke:#7AC36A;stroke-width:0.625" />
<path d="M1302.9,336.54L1308.2,336.54L1308.2,341.87L1302.9,341.87Z" style="fill:none;stroke:#7AC36A;stroke-width:0.625" />
<path d="M1309.8,290.92L1315.1,290.92L1315.1,296.25L1309.8,296.25Z" style="fill:none;stroke:#7AC36A;stroke-width:0.625" />
<path d="M1316.7,240.48L1322,240.48L1322,245.82L1316.7,245.82Z" style="fill:none;stroke:#7AC36A;stroke-width:0.625" />
<path d="M1323.6,223.91L1328.9,223.91L1328.9,229.25L1323.6,229.25Z" style="fill:none;stroke:#7AC36A;stroke-width:0.625" />
<path d="M1330.5,202.55L1335.9,202.55L1335.9,207.88L1330.5,207.88Z" style="fill:none;stroke:#7AC36A;stroke-width:0.625" />
<path d="M1337.4,160.34L1342.8,160.34L1342.8,165.67L1337.4,165.67Z" style="fill:none;stroke:#7AC36A;stroke-width:0.625" />
<path d="M1344.3,125.14L1349.7,125.14L1349.7,130.47L1344.3,130.47Z" style="fill:none;stroke:#7AC36A;stroke-width:0.625" />
<path d="M1351.3,113.28L1356.6,113.28L1356.6,118.61L1351.3,118.61Z" style="fill:none;stroke:#7AC36A;stroke-width:0.625" />
<path d="M1358.2,80.145L1363.5,80.145L1363.5,85.479L1358.2,85.479Z" style="fill:none;stroke:#7AC36A;stroke-width:0.625" />
<path d="M1365.1,62.245L1370.4,62.245L1370.4,67.58L1365.1,67.58Z" style="fill:none;stroke:#7AC36A;stroke-width:0.625" />
<path d="M1372,72.024L1377.3,72.024L1377.3,77.359L1372,77.359Z" style="fill:none;stroke:#7AC36A;stroke-width:0.625" />
<path d="M1378.9,102.28L1384.2,102.28L1384.2,107.62L1378.9,107.62Z" style="fill:none;stroke:#7AC36A;stroke-width:0.625" />
<path d="M1385.8,125.35L1391.2,125.35L1391.2,130.69L1385.8,130.69Z" style="fill:none;stroke:#7AC36A;stroke-width:0.625" />
<path d="M1392.7,161.87L1398.1,161.87L1398.1,167.2L1392.7,167.2Z" style="fill:none;stroke:#7AC36A;stroke-width:0.625" />
<path d="M1399.6,173.18L1405,173.18L1405,178.52L1399.6,178.52Z" style="fill:none;stroke:#7AC36A;stroke-width:0.625" />
<path d="M1406.6,173.18L1411.9,173.18L1411.9,178.52L1406.6,178.52Z" style="fill:none;stroke:#7AC36A;stroke-width:0.625" />
<path d="M1413.5,168.3L1418.8,168.3L1418.8,173.64L1413.5,173.64Z" style="fill:none;stroke:#7AC36A;stroke-width:0.625" />
<path d="M1420.4,166.35L1425.7,166.35L1425.7,171.69L1420.4,171.69Z" style="fill:none;stroke:#7AC36A;stroke-width:0.625" />
<path d="M1427.3,160.62L1432.6,160.62L1432.6,165.96L1427.3,165.96Z" style="fill:none;stroke:#7AC36A;stroke-width:0.625" />
<path d="M1434.2,186.6L1439.5,186.6L1439.5,191.93L1434.2,191.93Z" style="fill:none;stroke:#7AC36A;stroke-width:0.625" />
<path d="M1415,66.978L1440,66.978" style="fill:none;stroke:#F15A60;stroke-width:1.25" />
<path d="M1430.6,66.978A3.125,3.125 0 1 1 1424.4,66.978A3.125,3.125 0 1 1 1430.6,66.978Z" style="fill:none;stroke:#F15A60;stroke-width:0.625" />
<text x="1388.8" y="-61.188" transform="scale(1, -1)"
	style="font-family:Times;font-weight:normal;font-style:normal;font-size:12pt">raw</text>
<path d="M1415,53.117L1440,53.117" style="fill:none;stroke:#7AC36A;stroke-width:1.25;stroke-dasharray:7.5,2.5" />
<path d="M1424.8,50.45L1430.2,50.45L1430.2,55.785L1424.8,55.785Z" style="fill:none;stroke:#7AC36A;stroke-width:0.625" />
<text x="1367.1" y="-47.328" transform="scale(1, -1)"
	style="font-family:Times;font-weight:normal;font-style:normal;font-size:12pt">smooth</text>
</g>
</svg>
