<?xml version="1.0"?>
<!-- Generated by SVGo and Plotinum VG -->
<svg width="16in" height="9in"
	xmlns="http://www.w3.org/2000/svg"
	xmlns:xlink="http://www.w3.org/1999/xlink">
<g transform="scale(1, -1) translate(0, -810)">
<path d="M0,0L1440,0L1440,810L0,810Z" style="fill:#FFFFFF" />
<text x="736.9" y="-5.355" transform="scale(1, -1)"
	style="font-family:Times;font-weight:normal;font-style:normal;font-size:12pt">X</text>
<text x="44.638" y="-19.025" transform="scale(1, -1)"
	style="font-family:Times;font-weight:normal;font-style:normal;font-size:10pt">0</text>
<text x="413.18" y="-19.025" transform="scale(1, -1)"
	style="font-family:Times;font-weight:normal;font-style:normal;font-size:10pt">80</text>
<text x="781.73" y="-19.025" transform="scale(1, -1)"
	style="font-family:Times;font-weight:normal;font-style:normal;font-size:10pt">160</text>
<text x="1153.4" y="-19.025" transform="scale(1, -1)"
	style="font-family:Times;font-weight:normal;font-style:normal;font-size:10pt">240</text>
<path d="M47.763,29.625L47.763,39.625" style="fill:none;stroke:#000000;stroke-width:0.625" />
<path d="M419.43,29.625L419.43,39.625" style="fill:none;stroke:#000000;stroke-width:0.625" />
<path d="M791.1,29.625L791.1,39.625" style="fill:none;stroke:#000000;stroke-width:0.625" />
<path d="M1162.8,29.625L1162.8,39.625" style="fill:none;stroke:#000000;stroke-width:0.625" />
<path d="M233.6,34.625L233.6,39.625" style="fill:none;stroke:#000000;stroke-width:0.625" />
<path d="M605.27,34.625L605.27,39.625" style="fill:none;stroke:#000000;stroke-width:0.625" />
<path d="M976.93,34.625L976.93,39.625" style="fill:none;stroke:#000000;stroke-width:0.625" />
<path d="M1348.6,34.625L1348.6,39.625" style="fill:none;stroke:#000000;stroke-width:0.625" />
<path d="M47.763,39.625L1436.9,39.625" style="fill:none;stroke:#000000;stroke-width:0.625" />
<g transform="rotate(90)">
<text x="422.68" y="12.72" transform="scale(1, -1)"
	style="font-family:Times;font-weight:normal;font-style:normal;font-size:12pt">Y</text>
</g>
<text x="18.075" y="-179.77" transform="scale(1, -1)"
	style="font-family:Times;font-weight:normal;font-style:normal;font-size:10pt">0</text>
<text x="18.075" y="-320.15" transform="scale(1, -1)"
	style="font-family:Times;font-weight:normal;font-style:normal;font-size:10pt">1</text>
<text x="18.075" y="-460.53" transform="scale(1, -1)"
	style="font-family:Times;font-weight:normal;font-style:normal;font-size:10pt">2</text>
<text x="18.075" y="-600.91" transform="scale(1, -1)"
	style="font-family:Times;font-weight:normal;font-style:normal;font-size:10pt">3</text>
<text x="18.075" y="-741.29" transform="scale(1, -1)"
	style="font-family:Times;font-weight:normal;font-style:normal;font-size:10pt">4</text>
<path d="M27.45,184.59L37.45,184.59" style="fill:none;stroke:#000000;stroke-width:0.625" />
<path d="M27.45,324.97L37.45,324.97" style="fill:none;stroke:#000000;stroke-width:0.625" />
<path d="M27.45,465.35L37.45,465.35" style="fill:none;stroke:#000000;stroke-width:0.625" />
<path d="M27.45,605.74L37.45,605.74" style="fill:none;stroke:#000000;stroke-width:0.625" />
<path d="M27.45,746.12L37.45,746.12" style="fill:none;stroke:#000000;stroke-width:0.625" />
<path d="M32.45,114.4L37.45,114.4" style="fill:none;stroke:#000000;stroke-width:0.625" />
<path d="M32.45,254.78L37.45,254.78" style="fill:none;stroke:#000000;stroke-width:0.625" />
<path d="M32.45,395.16L37.45,395.16" style="fill:none;stroke:#000000;stroke-width:0.625" />
<path d="M32.45,535.54L37.45,535.54" style="fill:none;stroke:#000000;stroke-width:0.625" />
<path d="M32.45,675.93L37.45,675.93" style="fill:none;stroke:#000000;stroke-width:0.625" />
<path d="M37.45,49.313L37.45,806.88" style="fill:none;stroke:#000000;stroke-width:0.625" />
<path d="M47.763,293.08L52.408,314.18L57.054,333.66L61.7,316.86L66.346,413.16L70.992,326L75.638,362.46L80.284,380.04L84.929,396.79L89.575,446.62L94.221,345.25L98.867,437.33L103.51,401.15L108.16,296.92L112.8,392.5L117.45,391.19L122.1,357.31L126.74,248.81L131.39,250.96L136.03,178.93L140.68,257.7L145.33,155.61L149.97,238.18L154.62,165.32L159.26,106.92L163.91,141.86L168.55,177.47L173.2,152.43L177.85,157.56L182.49,91.919L187.14,173.49L191.78,175.93L196.43,202.05L201.08,141.91L205.72,186.41L210.37,271.37L215.01,235.33L219.66,194.91L224.31,306.11L228.95,284.05L233.6,394.1L238.24,390.6L242.89,386.12L247.53,384.13L252.18,378.57L256.83,430.03L261.47,412.6L266.12,346.14L270.76,349.37L275.41,420.63L280.06,415.07L284.7,406.7L289.35,271.44L293.99,238.19L298.64,298.55L303.28,265.06L307.93,214.87L312.58,240.61L317.22,177.48L321.87,135.37L326.51,195.99L331.16,143.71L335.81,107.95L340.45,174.01L345.1,119.72L349.74,140L354.39,188.93L359.04,59.957L363.68,193.93L368.33,206.02L372.97,196.82L377.62,209.4L382.26,156.27L386.91,302.95L391.56,207.35L396.2,308.47L400.85,312.64L405.49,356.38L410.14,355.79L414.79,343.83L419.43,345.25L424.08,321.86L428.72,441.53L433.37,339.44L438.01,360.36L442.66,453.36L447.31,412.16L451.95,338.68L456.6,275.31L461.24,291.38L465.89,313.79L470.54,274.19L475.18,306.06L479.83,244.38L484.47,211.42L489.12,138.4L493.77,176.28L498.41,117.3L503.06,131.31L507.7,66.116L512.35,104.08L516.99,159.14L521.64,123.67L526.29,169.9L530.93,190.43L535.58,92.993L540.22,187.35L544.87,138.52L549.52,201.8L554.16,255.93L558.81,277.64L563.45,255.35L568.1,279.56L572.74,351.44L577.39,287.67L582.04,373.53L586.68,411.1L591.33,398.31L595.97,336.88L600.62,364.13L605.27,381.83L609.91,415.42L614.56,346.67L619.2,426.84L623.85,410.49L628.5,324.37L633.14,253.82L637.79,272.4L642.43,242.75L647.08,183.21L651.72,243.4L656.37,265.39L661.02,232.15L665.66,143.48L670.31,139.83L674.95,107.55L679.6,166.13L684.25,49.313L688.89,74.572L693.54,169.39L698.18,56.596L702.83,120.58L707.47,212.33L712.12,132.47L716.77,115.21L721.41,130.81L726.06,270.02L730.7,300.67L735.35,317.76L740,264.34L744.64,372.87L749.29,282.29L753.93,393.16L758.58,324.64L763.23,397.31L767.87,388.83L772.52,397.41L777.16,464.5L781.81,441.87L786.45,394.12L791.1,356.75L795.75,417.09L800.39,279.7L805.04,320.47L809.68,275.08L814.33,230.07L818.98,281.37L823.62,281.47L828.27,178.05L832.91,142.57L837.56,106.71L842.2,171.69L846.85,132.84L851.5,121.47L856.14,165.33L860.79,100.73L865.43,80.196L870.08,167.55L874.73,183.88L879.37,104.34L884.02,209.71L888.66,200.24L893.31,166.7L897.96,211.66L902.6,183.08L907.25,312.49L911.89,345.24L916.54,358.89L921.18,299.92L925.83,324.19L930.48,318.97L935.12,437.02L939.77,440.67L944.41,450.84L949.06,327.54L953.71,421.4L958.35,434.65L963,428.32L967.64,422.69L972.29,292.21" style="fill:none;stroke:#F15A60;stroke-width:1.25" />
<path d="M50.888,293.08A3.125,3.125 0 1 1 44.638,293.08A3.125,3.125 0 1 1 50.888,293.08Z" style="fill:none;stroke:#F15A60;stroke-width:0.625" />
<path d="M55.533,314.18A3.125,3.125 0 1 1 49.283,314.18A3.125,3.125 0 1 1 55.533,314.18Z" style="fill:none;stroke:#F15A60;stroke-width:0.625" />
<path d="M60.179,333.66L60.179,333.66A3.125,3.125 0 1 1 53.929,333.66A3.125,3.125 0 1 1 60.179,333.66Z" style="fill:none;stroke:#F15A60;stroke-width:0.625" />
<path d="M64.825,316.86A3.125,3.125 0 1 1 58.575,316.86A3.125,3.125 0 1 1 64.825,316.86Z" style="fill:none;stroke:#F15A60;stroke-width:0.625" />
<path d="M69.471,413.16L69.471,413.16A3.125,3.125 0 1 1 63.221,413.16A3.125,3.125 0 1 1 69.471,413.16Z" style="fill:none;stroke:#F15A60;stroke-width:0.625" />
<path d="M74.117,326A3.125,3.125 0 1 1 67.867,326A3.125,3.125 0 1 1 74.117,326Z" style="fill:none;stroke:#F15A60;stroke-width:0.625" />
<path d="M78.763,362.46A3.125,3.125 0 1 1 72.513,362.46A3.125,3.125 0 1 1 78.763,362.46Z" style="fill:none;stroke:#F15A60;stroke-width:0.625" />
<path d="M83.409,380.04L83.409,380.04A3.125,3.125 0 1 1 77.159,380.04A3.125,3.125 0 1 1 83.409,380.04Z" style="fill:none;stroke:#F15A60;stroke-width:0.625" />
<path d="M88.054,396.79A3.125,3.125 0 1 1 81.804,396.79A3.125,3.125 0 1 1 88.054,396.79Z" style="fill:none;stroke:#F15A60;stroke-width:0.625" />
<path d="M92.7,446.62A3.125,3.125 0 1 1 86.45,446.62A3.125,3.125 0 1 1 92.7,446.62Z" style="fill:none;stroke:#F15A60;stroke-width:0.625" />
<path d="M97.346,345.25L97.346,345.25A3.125,3.125 0 1 1 91.096,345.25A3.125,3.125 0 1 1 97.346,345.25Z" style="fill:none;stroke:#F15A60;stroke-width:0.625" />
<path d="M101.99,437.33L101.99,437.33A3.125,3.125 0 1 1 95.742,437.33A3.125,3.125 0 1 1 101.99,437.33Z" style="fill:none;stroke:#F15A60;stroke-width:0.625" />
<path d="M106.64,401.15A3.125,3.125 0 1 1 100.39,401.15A3.125,3.125 0 1 1 106.64,401.15Z" style="fill:none;stroke:#F15A60;stroke-width:0.625" />
<path d="M111.28,296.92A3.125,3.125 0 1 1 105.03,296.92A3.125,3.125 0 1 1 111.28,296.92Z" style="fill:none;stroke:#F15A60;stroke-width:0.625" />
<path d="M115.93,392.5L115.93,392.5A3.125,3.125 0 1 1 109.68,392.5A3.125,3.125 0 1 1 115.93,392.5Z" style="fill:none;stroke:#F15A60;stroke-width:0.625" />
<path d="M120.58,391.19A3.125,3.125 0 1 1 114.33,391.19A3.125,3.125 0 1 1 120.58,391.19Z" style="fill:none;stroke:#F15A60;stroke-width:0.625" />
<path d="M125.22,357.31L125.22,357.31A3.125,3.125 0 1 1 118.97,357.31A3.125,3.125 0 1 1 125.22,357.31Z" style="fill:none;stroke:#F15A60;stroke-width:0.625" />
<path d="M129.87,248.81L129.87,248.81A3.125,3.125 0 1 1 123.62,248.81A3.125,3.125 0 1 1 129.87,248.81Z" style="fill:none;stroke:#F15A60;stroke-width:0.625" />
<path d="M134.51,250.96A3.125,3.125 0 1 1 128.26,250.96A3.125,3.125 0 1 1 134.51,250.96Z" style="fill:none;stroke:#F15A60;stroke-width:0.625" />
<path d="M139.16,178.93L139.16,178.93A3.125,3.125 0 1 1 132.91,178.93A3.125,3.125 0 1 1 139.16,178.93Z" style="fill:none;stroke:#F15A60;stroke-width:0.625" />
<path d="M143.8,257.7A3.125,3.125 0 1 1 137.55,257.7A3.125,3.125 0 1 1 143.8,257.7Z" style="fill:none;stroke:#F15A60;stroke-width:0.625" />
<path d="M148.45,155.61A3.125,3.125 0 1 1 142.2,155.61A3.125,3.125 0 1 1 148.45,155.61Z" style="fill:none;stroke:#F15A60;stroke-width:0.625" />
<path d="M153.1,238.18A3.125,3.125 0 1 1 146.85,238.18A3.125,3.125 0 1 1 153.1,238.18Z" style="fill:none;stroke:#F15A60;stroke-width:0.625" />
<path d="M157.74,165.32A3.125,3.125 0 1 1 151.49,165.32A3.125,3.125 0 1 1 157.74,165.32Z" style="fill:none;stroke:#F15A60;stroke-width:0.625" />
<path d="M162.39,106.92A3.125,3.125 0 1 1 156.14,106.92A3.125,3.125 0 1 1 162.39,106.92Z" style="fill:none;stroke:#F15A60;stroke-width:0.625" />
<path d="M167.03,141.86A3.125,3.125 0 1 1 160.78,141.86A3.125,3.125 0 1 1 167.03,141.86Z" style="fill:none;stroke:#F15A60;stroke-width:0.625" />
<path d="M171.68,177.47L171.68,177.47A3.125,3.125 0 1 1 165.43,177.47A3.125,3.125 0 1 1 171.68,177.47Z" style="fill:none;stroke:#F15A60;stroke-width:0.625" />
<path d="M176.33,152.43L176.33,152.43A3.125,3.125 0 1 1 170.08,152.43A3.125,3.125 0 1 1 176.33,152.43Z" style="fill:none;stroke:#F15A60;stroke-width:0.625" />
<path d="M180.97,157.56L180.97,157.56A3.125,3.125 0 1 1 174.72,157.56A3.125,3.125 0 1 1 180.97,157.56Z" style="fill:none;stroke:#F15A60;stroke-width:0.625" />
<path d="M185.62,91.919L185.62,91.919A3.125,3.125 0 1 1 179.37,91.919A3.125,3.125 0 1 1 185.62,91.919Z" style="fill:none;stroke:#F15A60;stroke-width:0.625" />
<path d="M190.26,173.49L190.26,173.49A3.125,3.125 0 1 1 184.01,173.49A3.125,3.125 0 1 1 190.26,173.49Z" style="fill:none;stroke:#F15A60;stroke-width:0.625" />
<path d="M194.91,175.93A3.125,3.125 0 1 1 188.66,175.93A3.125,3.125 0 1 1 194.91,175.93Z" style="fill:none;stroke:#F15A60;stroke-width:0.625" />
<path d="M199.56,202.05A3.125,3.125 0 1 1 193.31,202.05A3.125,3.125 0 1 1 199.56,202.05Z" style="fill:none;stroke:#F15A60;stroke-width:0.625" />
<path d="M204.2,141.91A3.125,3.125 0 1 1 197.95,141.91A3.125,3.125 0 1 1 204.2,141.91Z" style="fill:none;stroke:#F15A60;stroke-width:0.625" />
<path d="M208.85,186.41A3.125,3.125 0 1 1 202.6,186.41A3.125,3.125 0 1 1 208.85,186.41Z" style="fill:none;stroke:#F15A60;stroke-width:0.625" />
<path d="M213.49,271.37L213.49,271.37A3.125,3.125 0 1 1 207.24,271.37A3.125,3.125 0 1 1 213.49,271.37Z" style="fill:none;stroke:#F15A60;stroke-width:0.625" />
<path d="M218.14,235.33A3.125,3.125 0 1 1 211.89,235.33A3.125,3.125 0 1 1 218.14,235.33Z" style="fill:none;stroke:#F15A60;stroke-width:0.625" />
<path d="M222.78,194.91A3.125,3.125 0 1 1 216.53,194.91A3.125,3.125 0 1 1 222.78,194.91Z" style="fill:none;stroke:#F15A60;stroke-width:0.625" />
<path d="M227.43,306.11L227.43,306.11A3.125,3.125 0 1 1 221.18,306.11A3.125,3.125 0 1 1 227.43,306.11Z" style="fill:none;stroke:#F15A60;stroke-width:0.625" />
<path d="M232.08,284.05L232.08,284.05A3.125,3.125 0 1 1 225.83,284.05A3.125,3.125 0 1 1 232.08,284.05Z" style="fill:none;stroke:#F15A60;stroke-width:0.625" />
<path d="M236.72,394.1A3.125,3.125 0 1 1 230.47,394.1A3.125,3.125 0 1 1 236.72,394.1Z" style="fill:none;stroke:#F15A60;stroke-width:0.625" />
<path d="M241.37,390.6A3.125,3.125 0 1 1 235.12,390.6A3.125,3.125 0 1 1 241.37,390.6Z" style="fill:none;stroke:#F15A60;stroke-width:0.625" />
<path d="M246.01,386.12A3.125,3.125 0 1 1 239.76,386.12A3.125,3.125 0 1 1 246.01,386.12Z" style="fill:none;stroke:#F15A60;stroke-width:0.625" />
<path d="M250.66,384.13A3.125,3.125 0 1 1 244.41,384.13A3.125,3.125 0 1 1 250.66,384.13Z" style="fill:none;stroke:#F15A60;stroke-width:0.625" />
<path d="M255.31,378.57L255.31,378.57A3.125,3.125 0 1 1 249.06,378.57A3.125,3.125 0 1 1 255.31,378.57Z" style="fill:none;stroke:#F15A60;stroke-width:0.625" />
<path d="M259.95,430.03A3.125,3.125 0 1 1 253.7,430.03A3.125,3.125 0 1 1 259.95,430.03Z" style="fill:none;stroke:#F15A60;stroke-width:0.625" />
<path d="M264.6,412.6A3.125,3.125 0 1 1 258.35,412.6A3.125,3.125 0 1 1 264.6,412.6Z" style="fill:none;stroke:#F15A60;stroke-width:0.625" />
<path d="M269.24,346.14L269.24,346.14A3.125,3.125 0 1 1 262.99,346.14A3.125,3.125 0 1 1 269.24,346.14Z" style="fill:none;stroke:#F15A60;stroke-width:0.625" />
<path d="M273.89,349.37A3.125,3.125 0 1 1 267.64,349.37A3.125,3.125 0 1 1 273.89,349.37Z" style="fill:none;stroke:#F15A60;stroke-width:0.625" />
<path d="M278.53,420.63A3.125,3.125 0 1 1 272.28,420.63A3.125,3.125 0 1 1 278.53,420.63Z" style="fill:none;stroke:#F15A60;stroke-width:0.625" />
<path d="M283.18,415.07A3.125,3.125 0 1 1 276.93,415.07A3.125,3.125 0 1 1 283.18,415.07Z" style="fill:none;stroke:#F15A60;stroke-width:0.625" />
<path d="M287.83,406.7A3.125,3.125 0 1 1 281.58,406.7A3.125,3.125 0 1 1 287.83,406.7Z" style="fill:none;stroke:#F15A60;stroke-width:0.625" />
<path d="M292.47,271.44A3.125,3.125 0 1 1 286.22,271.44A3.125,3.125 0 1 1 292.47,271.44Z" style="fill:none;stroke:#F15A60;stroke-width:0.625" />
<path d="M297.12,238.19A3.125,3.125 0 1 1 290.87,238.19A3.125,3.125 0 1 1 297.12,238.19Z" style="fill:none;stroke:#F15A60;stroke-width:0.625" />
<path d="M301.76,298.55A3.125,3.125 0 1 1 295.51,298.55A3.125,3.125 0 1 1 301.76,298.55Z" style="fill:none;stroke:#F15A60;stroke-width:0.625" />
<path d="M306.41,265.06A3.125,3.125 0 1 1 300.16,265.06A3.125,3.125 0 1 1 306.41,265.06Z" style="fill:none;stroke:#F15A60;stroke-width:0.625" />
<path d="M311.06,214.87L311.06,214.87A3.125,3.125 0 1 1 304.81,214.87A3.125,3.125 0 1 1 311.06,214.87Z" style="fill:none;stroke:#F15A60;stroke-width:0.625" />
<path d="M315.7,240.61A3.125,3.125 0 1 1 309.45,240.61A3.125,3.125 0 1 1 315.7,240.61Z" style="fill:none;stroke:#F15A60;stroke-width:0.625" />
<path d="M320.35,177.48L320.35,177.48A3.125,3.125 0 1 1 314.1,177.48A3.125,3.125 0 1 1 320.35,177.48Z" style="fill:none;stroke:#F15A60;stroke-width:0.625" />
<path d="M324.99,135.37A3.125,3.125 0 1 1 318.74,135.37A3.125,3.125 0 1 1 324.99,135.37Z" style="fill:none;stroke:#F15A60;stroke-width:0.625" />
<path d="M329.64,195.99L329.64,195.99A3.125,3.125 0 1 1 323.39,195.99A3.125,3.125 0 1 1 329.64,195.99Z" style="fill:none;stroke:#F15A60;stroke-width:0.625" />
<path d="M334.29,143.71A3.125,3.125 0 1 1 328.04,143.71A3.125,3.125 0 1 1 334.29,143.71Z" style="fill:none;stroke:#F15A60;stroke-width:0.625" />
<path d="M338.93,107.95L338.93,107.95A3.125,3.125 0 1 1 332.68,107.95A3.125,3.125 0 1 1 338.93,107.95Z" style="fill:none;stroke:#F15A60;stroke-width:0.625" />
<path d="M343.58,174.01A3.125,3.125 0 1 1 337.33,174.01A3.125,3.125 0 1 1 343.58,174.01Z" style="fill:none;stroke:#F15A60;stroke-width:0.625" />
<path d="M348.22,119.72A3.125,3.125 0 1 1 341.97,119.72A3.125,3.125 0 1 1 348.22,119.72Z" style="fill:none;stroke:#F15A60;stroke-width:0.625" />
<path d="M352.87,140A3.125,3.125 0 1 1 346.62,140A3.125,3.125 0 1 1 352.87,140Z" style="fill:none;stroke:#F15A60;stroke-width:0.625" />
<path d="M357.51,188.93A3.125,3.125 0 1 1 351.26,188.93A3.125,3.125 0 1 1 357.51,188.93Z" style="fill:none;stroke:#F15A60;stroke-width:0.625" />
<path d="M362.16,59.957L362.16,59.957A3.125,3.125 0 1 1 355.91,59.957A3.125,3.125 0 1 1 362.16,59.957Z" style="fill:none;stroke:#F15A60;stroke-width:0.625" />
<path d="M366.81,193.93L366.81,193.93A3.125,3.125 0 1 1 360.56,193.93A3.125,3.125 0 1 1 366.81,193.93Z" style="fill:none;stroke:#F15A60;stroke-width:0.625" />
<path d="M371.45,206.02L371.45,206.02A3.125,3.125 0 1 1 365.2,206.02A3.125,3.125 0 1 1 371.45,206.02Z" style="fill:none;stroke:#F15A60;stroke-width:0.625" />
<path d="M376.1,196.82L376.1,196.82A3.125,3.125 0 1 1 369.85,196.82A3.125,3.125 0 1 1 376.1,196.82Z" style="fill:none;stroke:#F15A60;stroke-width:0.625" />
<path d="M380.74,209.4A3.125,3.125 0 1 1 374.49,209.4A3.125,3.125 0 1 1 380.74,209.4Z" style="fill:none;stroke:#F15A60;stroke-width:0.625" />
<path d="M385.39,156.27L385.39,156.27A3.125,3.125 0 1 1 379.14,156.27A3.125,3.125 0 1 1 385.39,156.27Z" style="fill:none;stroke:#F15A60;stroke-width:0.625" />
<path d="M390.04,302.95A3.125,3.125 0 1 1 383.79,302.95A3.125,3.125 0 1 1 390.04,302.95Z" style="fill:none;stroke:#F15A60;stroke-width:0.625" />
<path d="M394.68,207.35L394.68,207.35A3.125,3.125 0 1 1 388.43,207.35A3.125,3.125 0 1 1 394.68,207.35Z" style="fill:none;stroke:#F15A60;stroke-width:0.625" />
<path d="M399.33,308.47A3.125,3.125 0 1 1 393.08,308.47A3.125,3.125 0 1 1 399.33,308.47Z" style="fill:none;stroke:#F15A60;stroke-width:0.625" />
<path d="M403.97,312.64A3.125,3.125 0 1 1 397.72,312.64A3.125,3.125 0 1 1 403.97,312.64Z" style="fill:none;stroke:#F15A60;stroke-width:0.625" />
<path d="M408.62,356.38A3.125,3.125 0 1 1 402.37,356.38A3.125,3.125 0 1 1 408.62,356.38Z" style="fill:none;stroke:#F15A60;stroke-width:0.625" />
<path d="M413.26,355.79A3.125,3.125 0 1 1 407.01,355.79A3.125,3.125 0 1 1 413.26,355.79Z" style="fill:none;stroke:#F15A60;stroke-width:0.625" />
<path d="M417.91,343.83A3.125,3.125 0 1 1 411.66,343.83A3.125,3.125 0 1 1 417.91,343.83Z" style="fill:none;stroke:#F15A60;stroke-width:0.625" />
<path d="M422.56,345.25A3.125,3.125 0 1 1 416.31,345.25A3.125,3.125 0 1 1 422.56,345.25Z" style="fill:none;stroke:#F15A60;stroke-width:0.625" />
<path d="M427.2,321.86A3.125,3.125 0 1 1 420.95,321.86A3.125,3.125 0 1 1 427.2,321.86Z" style="fill:none;stroke:#F15A60;stroke-width:0.625" />
<path d="M431.85,441.53A3.125,3.125 0 1 1 425.6,441.53A3.125,3.125 0 1 1 431.85,441.53Z" style="fill:none;stroke:#F15A60;stroke-width:0.625" />
<path d="M436.49,339.44A3.125,3.125 0 1 1 430.24,339.44A3.125,3.125 0 1 1 436.49,339.44Z" style="fill:none;stroke:#F15A60;stroke-width:0.625" />
<path d="M441.14,360.36A3.125,3.125 0 1 1 434.89,360.36A3.125,3.125 0 1 1 441.14,360.36Z" style="fill:none;stroke:#F15A60;stroke-width:0.625" />
<path d="M445.79,453.36A3.125,3.125 0 1 1 439.54,453.36A3.125,3.125 0 1 1 445.79,453.36Z" style="fill:none;stroke:#F15A60;stroke-width:0.625" />
<path d="M450.43,412.16A3.125,3.125 0 1 1 444.18,412.16A3.125,3.125 0 1 1 450.43,412.16Z" style="fill:none;stroke:#F15A60;stroke-width:0.625" />
<path d="M455.08,338.68A3.125,3.125 0 1 1 448.83,338.68A3.125,3.125 0 1 1 455.08,338.68Z" style="fill:none;stroke:#F15A60;stroke-width:0.625" />
<path d="M459.72,275.31L459.72,275.31A3.125,3.125 0 1 1 453.47,275.31A3.125,3.125 0 1 1 459.72,275.31Z" style="fill:none;stroke:#F15A60;stroke-width:0.625" />
<path d="M464.37,291.38A3.125,3.125 0 1 1 458.12,291.38A3.125,3.125 0 1 1 464.37,291.38Z" style="fill:none;stroke:#F15A60;stroke-width:0.625" />
<path d="M469.02,313.79L469.02,313.79A3.125,3.125 0 1 1 462.77,313.79A3.125,3.125 0 1 1 469.02,313.79Z" style="fill:none;stroke:#F15A60;stroke-width:0.625" />
<path d="M473.66,274.19A3.125,3.125 0 1 1 467.41,274.19A3.125,3.125 0 1 1 473.66,274.19Z" style="fill:none;stroke:#F15A60;stroke-width:0.625" />
<path d="M478.31,306.06A3.125,3.125 0 1 1 472.06,306.06A3.125,3.125 0 1 1 478.31,306.06Z" style="fill:none;stroke:#F15A60;stroke-width:0.625" />
<path d="M482.95,244.38A3.125,3.125 0 1 1 476.7,244.38A3.125,3.125 0 1 1 482.95,244.38Z" style="fill:none;stroke:#F15A60;stroke-width:0.625" />
<path d="M487.6,211.42A3.125,3.125 0 1 1 481.35,211.42A3.125,3.125 0 1 1 487.6,211.42Z" style="fill:none;stroke:#F15A60;stroke-width:0.625" />
<path d="M492.24,138.4A3.125,3.125 0 1 1 485.99,138.4A3.125,3.125 0 1 1 492.24,138.4Z" style="fill:none;stroke:#F15A60;stroke-width:0.625" />
<path d="M496.89,176.28A3.125,3.125 0 1 1 490.64,176.28A3.125,3.125 0 1 1 496.89,176.28Z" style="fill:none;stroke:#F15A60;stroke-width:0.625" />
<path d="M501.54,117.3A3.125,3.125 0 1 1 495.29,117.3A3.125,3.125 0 1 1 501.54,117.3Z" style="fill:none;stroke:#F15A60;stroke-width:0.625" />
<path d="M506.18,131.31A3.125,3.125 0 1 1 499.93,131.31A3.125,3.125 0 1 1 506.18,131.31Z" style="fill:none;stroke:#F15A60;stroke-width:0.625" />
<path d="M510.83,66.116L510.83,66.116A3.125,3.125 0 1 1 504.58,66.116A3.125,3.125 0 1 1 510.83,66.116Z" style="fill:none;stroke:#F15A60;stroke-width:0.625" />
<path d="M515.47,104.08L515.47,104.08A3.125,3.125 0 1 1 509.22,104.08A3.125,3.125 0 1 1 515.47,104.08Z" style="fill:none;stroke:#F15A60;stroke-width:0.625" />
<path d="M520.12,159.14L520.12,159.14A3.125,3.125 0 1 1 513.87,159.14A3.125,3.125 0 1 1 520.12,159.14Z" style="fill:none;stroke:#F15A60;stroke-width:0.625" />
<path d="M524.77,123.67A3.125,3.125 0 1 1 518.52,123.67A3.125,3.125 0 1 1 524.77,123.67Z" style="fill:none;stroke:#F15A60;stroke-width:0.625" />
<path d="M529.41,169.9L529.41,169.9A3.125,3.125 0 1 1 523.16,169.9A3.125,3.125 0 1 1 529.41,169.9Z" style="fill:none;stroke:#F15A60;stroke-width:0.625" />
<path d="M534.06,190.43A3.125,3.125 0 1 1 527.81,190.43A3.125,3.125 0 1 1 534.06,190.43Z" style="fill:none;stroke:#F15A60;stroke-width:0.625" />
<path d="M538.7,92.993A3.125,3.125 0 1 1 532.45,92.993A3.125,3.125 0 1 1 538.7,92.993Z" style="fill:none;stroke:#F15A60;stroke-width:0.625" />
<path d="M543.35,187.35A3.125,3.125 0 1 1 537.1,187.35A3.125,3.125 0 1 1 543.35,187.35Z" style="fill:none;stroke:#F15A60;stroke-width:0.625" />
<path d="M547.99,138.52A3.125,3.125 0 1 1 541.74,138.52A3.125,3.125 0 1 1 547.99,138.52Z" style="fill:none;stroke:#F15A60;stroke-width:0.625" />
<path d="M552.64,201.8A3.125,3.125 0 1 1 546.39,201.8A3.125,3.125 0 1 1 552.64,201.8Z" style="fill:none;stroke:#F15A60;stroke-width:0.625" />
<path d="M557.29,255.93A3.125,3.125 0 1 1 551.04,255.93A3.125,3.125 0 1 1 557.29,255.93Z" style="fill:none;stroke:#F15A60;stroke-width:0.625" />
<path d="M561.93,277.64A3.125,3.125 0 1 1 555.68,277.64A3.125,3.125 0 1 1 561.93,277.64Z" style="fill:none;stroke:#F15A60;stroke-width:0.625" />
<path d="M566.58,255.35A3.125,3.125 0 1 1 560.33,255.35A3.125,3.125 0 1 1 566.58,255.35Z" style="fill:none;stroke:#F15A60;stroke-width:0.625" />
<path d="M571.22,279.56A3.125,3.125 0 1 1 564.97,279.56A3.125,3.125 0 1 1 571.22,279.56Z" style="fill:none;stroke:#F15A60;stroke-width:0.625" />
<path d="M575.87,351.44A3.125,3.125 0 1 1 569.62,351.44A3.125,3.125 0 1 1 575.87,351.44Z" style="fill:none;stroke:#F15A60;stroke-width:0.625" />
<path d="M580.52,287.67L580.52,287.67A3.125,3.125 0 1 1 574.27,287.67A3.125,3.125 0 1 1 580.52,287.67Z" style="fill:none;stroke:#F15A60;stroke-width:0.625" />
<path d="M585.16,373.53A3.125,3.125 0 1 1 578.91,373.53A3.125,3.125 0 1 1 585.16,373.53Z" style="fill:none;stroke:#F15A60;stroke-width:0.625" />
<path d="M589.81,411.1A3.125,3.125 0 1 1 583.56,411.1A3.125,3.125 0 1 1 589.81,411.1Z" style="fill:none;stroke:#F15A60;stroke-width:0.625" />
<path d="M594.45,398.31A3.125,3.125 0 1 1 588.2,398.31A3.125,3.125 0 1 1 594.45,398.31Z" style="fill:none;stroke:#F15A60;stroke-width:0.625" />
<path d="M599.1,336.88A3.125,3.125 0 1 1 592.85,336.88A3.125,3.125 0 1 1 599.1,336.88Z" style="fill:none;stroke:#F15A60;stroke-width:0.625" />
<path d="M603.74,364.13A3.125,3.125 0 1 1 597.49,364.13A3.125,3.125 0 1 1 603.74,364.13Z" style="fill:none;stroke:#F15A60;stroke-width:0.625" />
<path d="M608.39,381.83A3.125,3.125 0 1 1 602.14,381.83A3.125,3.125 0 1 1 608.39,381.83Z" style="fill:none;stroke:#F15A60;stroke-width:0.625" />
<path d="M613.04,415.42A3.125,3.125 0 1 1 606.79,415.42A3.125,3.125 0 1 1 613.04,415.42Z" style="fill:none;stroke:#F15A60;stroke-width:0.625" />
<path d="M617.68,346.67A3.125,3.125 0 1 1 611.43,346.67A3.125,3.125 0 1 1 617.68,346.67Z" style="fill:none;stroke:#F15A60;stroke-width:0.625" />
<path d="M622.33,426.84A3.125,3.125 0 1 1 616.08,426.84A3.125,3.125 0 1 1 622.33,426.84Z" style="fill:none;stroke:#F15A60;stroke-width:0.625" />
<path d="M626.97,410.49A3.125,3.125 0 1 1 620.72,410.49A3.125,3.125 0 1 1 626.97,410.49Z" style="fill:none;stroke:#F15A60;stroke-width:0.625" />
<path d="M631.62,324.37A3.125,3.125 0 1 1 625.37,324.37A3.125,3.125 0 1 1 631.62,324.37Z" style="fill:none;stroke:#F15A60;stroke-width:0.625" />
<path d="M636.27,253.82A3.125,3.125 0 1 1 630.02,253.82A3.125,3.125 0 1 1 636.27,253.82Z" style="fill:none;stroke:#F15A60;stroke-width:0.625" />
<path d="M640.91,272.4A3.125,3.125 0 1 1 634.66,272.4A3.125,3.125 0 1 1 640.91,272.4Z" style="fill:none;stroke:#F15A60;stroke-width:0.625" />
<path d="M645.56,242.75A3.125,3.125 0 1 1 639.31,242.75A3.125,3.125 0 1 1 645.56,242.75Z" style="fill:none;stroke:#F15A60;stroke-width:0.625" />
<path d="M650.2,183.21L650.2,183.21A3.125,3.125 0 1 1 643.95,183.21A3.125,3.125 0 1 1 650.2,183.21Z" style="fill:none;stroke:#F15A60;stroke-width:0.625" />
<path d="M654.85,243.4A3.125,3.125 0 1 1 648.6,243.4A3.125,3.125 0 1 1 654.85,243.4Z" style="fill:none;stroke:#F15A60;stroke-width:0.625" />
<path d="M659.5,265.39A3.125,3.125 0 1 1 653.25,265.39A3.125,3.125 0 1 1 659.5,265.39Z" style="fill:none;stroke:#F15A60;stroke-width:0.625" />
<path d="M664.14,232.15L664.14,232.15A3.125,3.125 0 1 1 657.89,232.15A3.125,3.125 0 1 1 664.14,232.15Z" style="fill:none;stroke:#F15A60;stroke-width:0.625" />
<path d="M668.79,143.48A3.125,3.125 0 1 1 662.54,143.48A3.125,3.125 0 1 1 668.79,143.48Z" style="fill:none;stroke:#F15A60;stroke-width:0.625" />
<path d="M673.43,139.83A3.125,3.125 0 1 1 667.18,139.83A3.125,3.125 0 1 1 673.43,139.83Z" style="fill:none;stroke:#F15A60;stroke-width:0.625" />
<path d="M678.08,107.55A3.125,3.125 0 1 1 671.83,107.55A3.125,3.125 0 1 1 678.08,107.55Z" style="fill:none;stroke:#F15A60;stroke-width:0.625" />
<path d="M682.72,166.13L682.72,166.13A3.125,3.125 0 1 1 676.47,166.13A3.125,3.125 0 1 1 682.72,166.13Z" style="fill:none;stroke:#F15A60;stroke-width:0.625" />
<path d="M687.37,49.313A3.125,3.125 0 1 1 681.12,49.313A3.125,3.125 0 1 1 687.37,49.313Z" style="fill:none;stroke:#F15A60;stroke-width:0.625" />
<path d="M692.02,74.572A3.125,3.125 0 1 1 685.77,74.572A3.125,3.125 0 1 1 692.02,74.572Z" style="fill:none;stroke:#F15A60;stroke-width:0.625" />
<path d="M696.66,169.39A3.125,3.125 0 1 1 690.41,169.39A3.125,3.125 0 1 1 696.66,169.39Z" style="fill:none;stroke:#F15A60;stroke-width:0.625" />
<path d="M701.31,56.596A3.125,3.125 0 1 1 695.06,56.596A3.125,3.125 0 1 1 701.31,56.596Z" style="fill:none;stroke:#F15A60;stroke-width:0.625" />
<path d="M705.95,120.58A3.125,3.125 0 1 1 699.7,120.58A3.125,3.125 0 1 1 705.95,120.58Z" style="fill:none;stroke:#F15A60;stroke-width:0.625" />
<path d="M710.6,212.33A3.125,3.125 0 1 1 704.35,212.33A3.125,3.125 0 1 1 710.6,212.33Z" style="fill:none;stroke:#F15A60;stroke-width:0.625" />
<path d="M715.25,132.47A3.125,3.125 0 1 1 709,132.47A3.125,3.125 0 1 1 715.25,132.47Z" style="fill:none;stroke:#F15A60;stroke-width:0.625" />
<path d="M719.89,115.21A3.125,3.125 0 1 1 713.64,115.21A3.125,3.125 0 1 1 719.89,115.21Z" style="fill:none;stroke:#F15A60;stroke-width:0.625" />
<path d="M724.54,130.81L724.54,130.81A3.125,3.125 0 1 1 718.29,130.81A3.125,3.125 0 1 1 724.54,130.81Z" style="fill:none;stroke:#F15A60;stroke-width:0.625" />
<path d="M729.18,270.02L729.18,270.02A3.125,3.125 0 1 1 722.93,270.02A3.125,3.125 0 1 1 729.18,270.02Z" style="fill:none;stroke:#F15A60;stroke-width:0.625" />
<path d="M733.83,300.67A3.125,3.125 0 1 1 727.58,300.67A3.125,3.125 0 1 1 733.83,300.67Z" style="fill:none;stroke:#F15A60;stroke-width:0.625" />
<path d="M738.47,317.76A3.125,3.125 0 1 1 732.22,317.76A3.125,3.125 0 1 1 738.47,317.76Z" style="fill:none;stroke:#F15A60;stroke-width:0.625" />
<path d="M743.12,264.34L743.12,264.34A3.125,3.125 0 1 1 736.87,264.34A3.125,3.125 0 1 1 743.12,264.34Z" style="fill:none;stroke:#F15A60;stroke-width:0.625" />
<path d="M747.77,372.87A3.125,3.125 0 1 1 741.52,372.87A3.125,3.125 0 1 1 747.77,372.87Z" style="fill:none;stroke:#F15A60;stroke-width:0.625" />
<path d="M752.41,282.29L752.41,282.29A3.125,3.125 0 1 1 746.16,282.29A3.125,3.125 0 1 1 752.41,282.29Z" style="fill:none;stroke:#F15A60;stroke-width:0.625" />
<path d="M757.06,393.16L757.06,393.16A3.125,3.125 0 1 1 750.81,393.16A3.125,3.125 0 1 1 757.06,393.16Z" style="fill:none;stroke:#F15A60;stroke-width:0.625" />
<path d="M761.7,324.64A3.125,3.125 0 1 1 755.45,324.64A3.125,3.125 0 1 1 761.7,324.64Z" style="fill:none;stroke:#F15A60;stroke-width:0.625" />
<path d="M766.35,397.31A3.125,3.125 0 1 1 760.1,397.31A3.125,3.125 0 1 1 766.35,397.31Z" style="fill:none;stroke:#F15A60;stroke-width:0.625" />
<path d="M771,388.83L771,388.83A3.125,3.125 0 1 1 764.75,388.83A3.125,3.125 0 1 1 771,388.83Z" style="fill:none;stroke:#F15A60;stroke-width:0.625" />
<path d="M775.64,397.41L775.64,397.41A3.125,3.125 0 1 1 769.39,397.41A3.125,3.125 0 1 1 775.64,397.41Z" style="fill:none;stroke:#F15A60;stroke-width:0.625" />
<path d="M780.29,464.5A3.125,3.125 0 1 1 774.04,464.5A3.125,3.125 0 1 1 780.29,464.5Z" style="fill:none;stroke:#F15A60;stroke-width:0.625" />
<path d="M784.93,441.87L784.93,441.87A3.125,3.125 0 1 1 778.68,441.87A3.125,3.125 0 1 1 784.93,441.87Z" style="fill:none;stroke:#F15A60;stroke-width:0.625" />
<path d="M789.58,394.12A3.125,3.125 0 1 1 783.33,394.12A3.125,3.125 0 1 1 789.58,394.12Z" style="fill:none;stroke:#F15A60;stroke-width:0.625" />
<path d="M794.23,356.75L794.23,356.75A3.125,3.125 0 1 1 787.98,356.75A3.125,3.125 0 1 1 794.23,356.75Z" style="fill:none;stroke:#F15A60;stroke-width:0.625" />
<path d="M798.87,417.09L798.87,417.09A3.125,3.125 0 1 1 792.62,417.09A3.125,3.125 0 1 1 798.87,417.09Z" style="fill:none;stroke:#F15A60;stroke-width:0.625" />
<path d="M803.52,279.7L803.52,279.7A3.125,3.125 0 1 1 797.27,279.7A3.125,3.125 0 1 1 803.52,279.7Z" style="fill:none;stroke:#F15A60;stroke-width:0.625" />
<path d="M808.16,320.47A3.125,3.125 0 1 1 801.91,320.47A3.125,3.125 0 1 1 808.16,320.47Z" style="fill:none;stroke:#F15A60;stroke-width:0.625" />
<path d="M812.81,275.08L812.81,275.08A3.125,3.125 0 1 1 806.56,275.08A3.125,3.125 0 1 1 812.81,275.08Z" style="fill:none;stroke:#F15A60;stroke-width:0.625" />
<path d="M817.45,230.07L817.45,230.07A3.125,3.125 0 1 1 811.2,230.07A3.125,3.125 0 1 1 817.45,230.07Z" style="fill:none;stroke:#F15A60;stroke-width:0.625" />
<path d="M822.1,281.37L822.1,281.37A3.125,3.125 0 1 1 815.85,281.37A3.125,3.125 0 1 1 822.1,281.37Z" style="fill:none;stroke:#F15A60;stroke-width:0.625" />
<path d="M826.75,281.47L826.75,281.47A3.125,3.125 0 1 1 820.5,281.47A3.125,3.125 0 1 1 826.75,281.47Z" style="fill:none;stroke:#F15A60;stroke-width:0.625" />
<path d="M831.39,178.05A3.125,3.125 0 1 1 825.14,178.05A3.125,3.125 0 1 1 831.39,178.05Z" style="fill:none;stroke:#F15A60;stroke-width:0.625" />
<path d="M836.04,142.57A3.125,3.125 0 1 1 829.79,142.57A3.125,3.125 0 1 1 836.04,142.57Z" style="fill:none;stroke:#F15A60;stroke-width:0.625" />
<path d="M840.68,106.71L840.68,106.71A3.125,3.125 0 1 1 834.43,106.71A3.125,3.125 0 1 1 840.68,106.71Z" style="fill:none;stroke:#F15A60;stroke-width:0.625" />
<path d="M845.33,171.69L845.33,171.69A3.125,3.125 0 1 1 839.08,171.69A3.125,3.125 0 1 1 845.33,171.69Z" style="fill:none;stroke:#F15A60;stroke-width:0.625" />
<path d="M849.98,132.84A3.125,3.125 0 1 1 843.73,132.84A3.125,3.125 0 1 1 849.98,132.84Z" style="fill:none;stroke:#F15A60;stroke-width:0.625" />
<path d="M854.62,121.47A3.125,3.125 0 1 1 848.37,121.47A3.125,3.125 0 1 1 854.62,121.47Z" style="fill:none;stroke:#F15A60;stroke-width:0.625" />
<path d="M859.27,165.33L859.27,165.33A3.125,3.125 0 1 1 853.02,165.33A3.125,3.125 0 1 1 859.27,165.33Z" style="fill:none;stroke:#F15A60;stroke-width:0.625" />
<path d="M863.91,100.73L863.91,100.73A3.125,3.125 0 1 1 857.66,100.73A3.125,3.125 0 1 1 863.91,100.73Z" style="fill:none;stroke:#F15A60;stroke-width:0.625" />
<path d="M868.56,80.196L868.56,80.196A3.125,3.125 0 1 1 862.31,80.196A3.125,3.125 0 1 1 868.56,80.196Z" style="fill:none;stroke:#F15A60;stroke-width:0.625" />
<path d="M873.2,167.55A3.125,3.125 0 1 1 866.95,167.55A3.125,3.125 0 1 1 873.2,167.55Z" style="fill:none;stroke:#F15A60;stroke-width:0.625" />
<path d="M877.85,183.88L877.85,183.88A3.125,3.125 0 1 1 871.6,183.88A3.125,3.125 0 1 1 877.85,183.88Z" style="fill:none;stroke:#F15A60;stroke-width:0.625" />
<path d="M882.5,104.34L882.5,104.34A3.125,3.125 0 1 1 876.25,104.34A3.125,3.125 0 1 1 882.5,104.34Z" style="fill:none;stroke:#F15A60;stroke-width:0.625" />
<path d="M887.14,209.71L887.14,209.71A3.125,3.125 0 1 1 880.89,209.71A3.125,3.125 0 1 1 887.14,209.71Z" style="fill:none;stroke:#F15A60;stroke-width:0.625" />
<path d="M891.79,200.24A3.125,3.125 0 1 1 885.54,200.24A3.125,3.125 0 1 1 891.79,200.24Z" style="fill:none;stroke:#F15A60;stroke-width:0.625" />
<path d="M896.43,166.7L896.43,166.7A3.125,3.125 0 1 1 890.18,166.7A3.125,3.125 0 1 1 896.43,166.7Z" style="fill:none;stroke:#F15A60;stroke-width:0.625" />
<path d="M901.08,211.66A3.125,3.125 0 1 1 894.83,211.66A3.125,3.125 0 1 1 901.08,211.66Z" style="fill:none;stroke:#F15A60;stroke-width:0.625" />
<path d="M905.73,183.08L905.73,183.08A3.125,3.125 0 1 1 899.48,183.08A3.125,3.125 0 1 1 905.73,183.08Z" style="fill:none;stroke:#F15A60;stroke-width:0.625" />
<path d="M910.37,312.49L910.37,312.49A3.125,3.125 0 1 1 904.12,312.49A3.125,3.125 0 1 1 910.37,312.49Z" style="fill:none;stroke:#F15A60;stroke-width:0.625" />
<path d="M915.02,345.24L915.02,345.24A3.125,3.125 0 1 1 908.77,345.24A3.125,3.125 0 1 1 915.02,345.24Z" style="fill:none;stroke:#F15A60;stroke-width:0.625" />
<path d="M919.66,358.89A3.125,3.125 0 1 1 913.41,358.89A3.125,3.125 0 1 1 919.66,358.89Z" style="fill:none;stroke:#F15A60;stroke-width:0.625" />
<path d="M924.31,299.92L924.31,299.92A3.125,3.125 0 1 1 918.06,299.92A3.125,3.125 0 1 1 924.31,299.92Z" style="fill:none;stroke:#F15A60;stroke-width:0.625" />
<path d="M928.96,324.19L928.96,324.19A3.125,3.125 0 1 1 922.71,324.19A3.125,3.125 0 1 1 928.96,324.19Z" style="fill:none;stroke:#F15A60;stroke-width:0.625" />
<path d="M933.6,318.97L933.6,318.97A3.125,3.125 0 1 1 927.35,318.97A3.125,3.125 0 1 1 933.6,318.97Z" style="fill:none;stroke:#F15A60;stroke-width:0.625" />
<path d="M938.25,437.02L938.25,437.02A3.125,3.125 0 1 1 932,437.02A3.125,3.125 0 1 1 938.25,437.02Z" style="fill:none;stroke:#F15A60;stroke-width:0.625" />
<path d="M942.89,440.67A3.125,3.125 0 1 1 936.64,440.67A3.125,3.125 0 1 1 942.89,440.67Z" style="fill:none;stroke:#F15A60;stroke-width:0.625" />
<path d="M947.54,450.84L947.54,450.84A3.125,3.125 0 1 1 941.29,450.84A3.125,3.125 0 1 1 947.54,450.84Z" style="fill:none;stroke:#F15A60;stroke-width:0.625" />
<path d="M952.18,327.54L952.18,327.54A3.125,3.125 0 1 1 945.93,327.54A3.125,3.125 0 1 1 952.18,327.54Z" style="fill:none;stroke:#F15A60;stroke-width:0.625" />
<path d="M956.83,421.4L956.83,421.4A3.125,3.125 0 1 1 950.58,421.4A3.125,3.125 0 1 1 956.83,421.4Z" style="fill:none;stroke:#F15A60;stroke-width:0.625" />
<path d="M961.48,434.65A3.125,3.125 0 1 1 955.23,434.65A3.125,3.125 0 1 1 961.48,434.65Z" style="fill:none;stroke:#F15A60;stroke-width:0.625" />
<path d="M966.12,428.32L966.12,428.32A3.125,3.125 0 1 1 959.87,428.32A3.125,3.125 0 1 1 966.12,428.32Z" style="fill:none;stroke:#F15A60;stroke-width:0.625" />
<path d="M970.77,422.69A3.125,3.125 0 1 1 964.52,422.69A3.125,3.125 0 1 1 970.77,422.69Z" style="fill:none;stroke:#F15A60;stroke-width:0.625" />
<path d="M975.41,292.21L975.41,292.21A3.125,3.125 0 1 1 969.16,292.21A3.125,3.125 0 1 1 975.41,292.21Z" style="fill:none;stroke:#F15A60;stroke-width:0.625" />
<path d="M47.763,293.08L52.408,314.18L57.054,334.46L61.7,336.09L66.346,382.16L70.992,366.27L75.638,370.52L80.284,380.22L84.929,393.42L89.575,425.44L94.221,393.94L98.867,416.93L103.51,413.39L108.16,357.67L112.8,368.49L117.45,376.84L122.1,366.23L126.74,305.34L131.39,267.49L136.03,210.06L140.68,216.07L145.33,174.27L149.97,191.86L154.62,171.17L159.26,130.75L163.91,124.43L168.55,141.7L173.2,143.17L177.85,147.86L182.49,118.84L187.14,141.08L191.78,158.28L196.43,182.59L201.08,167.59L205.72,178.49L210.37,227.61L215.01,240.71L219.66,226.24L224.31,269.91L228.95,286.15L233.6,348.97L238.24,385.41L242.89,402.16L247.53,407.13L252.18,403.39L256.83,423.53L261.47,425.86L266.12,391.8L270.76,369.54L275.41,391.01L280.06,403.41L284.7,407.18L289.35,341.36L293.99,281.34L298.64,275.03L303.28,258.66L307.93,226.34L312.58,221.33L317.22,190.16L321.87,151.61L326.51,160.21L331.16,143.74L335.81,117.61L340.45,136.13L345.1,123.93L349.74,127.34L354.39,155.41L359.04,109.98L363.68,146.75L368.33,178.26L372.97,193.57L377.62,208.01L382.26,188.87L386.91,247.75L391.56,237.68L396.2,278.65L400.85,305.69L405.49,342.13L410.14,362.18L414.79,365.27L419.43,364.31L424.08,349.28L428.72,397.48L433.37,377.14L438.01,371.78L442.66,413.89L447.31,420.26L451.95,385.5L456.6,329.4L461.24,301.28L465.89,296.94L470.54,277.49L475.18,283.21L479.83,258.66L484.47,227.76L489.12,173.35L493.77,159.84L498.41,126.07L503.06,114.87L507.7,79.138L512.35,78.303L516.99,109.28L521.64,114.51L526.29,141.62L530.93,169.68L535.58,138.1L540.22,162.73L544.87,154.32L549.52,179.39L554.16,222.35L558.81,259.72L563.45,269.94L568.1,284.97L572.74,327.62L577.39,320.63L582.04,355.12L586.68,393.91L591.33,409.49L595.97,384.89L600.62,379.01L605.27,382.69L609.91,401.19L614.56,378.21L619.2,402.06L623.85,409.54L628.5,370.36L633.14,308.59L637.79,278.78L642.43,248.1L647.08,202.18L651.72,206.47L656.37,225.15L661.02,223.91L665.66,180.19L670.31,151L674.95,118.59L679.6,130.02L684.25,82.74L688.89,66.717L693.54,107.29L698.18,80.498L702.83,95.506L707.47,152.65L712.12,150.24L716.77,137.74L721.41,135.91L726.06,203.84L730.7,263.05L735.35,306.85L740,303.67L744.64,350.45L749.29,331.91L753.93,370.63L758.58,359.12L763.23,384.52L767.87,394.9L772.52,403.47L777.16,440.39L781.81,451.15L786.45,431.27L791.1,397.07L795.75,404.09L800.39,340.85L805.04,320.45L809.68,287.55L814.33,246.73L818.98,249.47L823.62,255.67L828.27,210.94L832.91,165.89L837.56,121.95L842.2,130.17L846.85,121.09L851.5,112.63L856.14,131.65L860.79,113.92L865.43,92.804L870.08,124.03L874.73,154.34L879.37,134.15L884.02,172.27L888.66,192.21L893.31,186.62L897.96,203.31L902.6,198.62L907.25,258.65L911.89,313.12L916.54,351.99L921.18,342.98L925.83,344.15L930.48,339.13L935.12,392.62L939.77,427.85L944.41,452.48L949.06,402.89L953.71,413.73L958.35,426.92L963,431.51L967.64,430.51L972.29,363.6L976.93,363.6L981.58,368.08L986.23,372.55L990.87,377.03L995.52,381.51L1000.2,385.99L1004.8,390.46L1009.5,394.94L1014.1,399.42L1018.7,403.9L1023.4,408.37L1028,412.85L1032.7,417.33L1037.3,421.81L1042,426.28L1046.6,430.76L1051.3,435.24L1055.9,439.72L1060.6,444.19L1065.2,448.67L1069.9,453.15L1074.5,457.63L1079.1,462.1L1083.8,466.58L1088.4,471.06L1093.1,475.54L1097.7,480.01L1102.4,484.49L1107,488.97L1111.7,493.45L1116.3,497.92L1121,502.4L1125.6,506.88L1130.2,511.36L1134.9,515.83L1139.5,520.31L1144.2,524.79L1148.8,529.27L1153.5,533.74L1158.1,538.22L1162.8,542.7L1167.4,547.18L1172.1,551.66L1176.7,556.13L1181.4,560.61L1186,565.09L1190.6,569.57L1195.3,574.04L1199.9,578.52L1204.6,583L1209.2,587.48L1213.9,591.95L1218.5,596.43L1223.2,600.91L1227.8,605.39L1232.5,609.86L1237.1,614.34L1241.7,618.82L1246.4,623.3L1251,627.77L1255.7,632.25L1260.3,636.73L1265,641.21L1269.6,645.68L1274.3,650.16L1278.9,654.64L1283.6,659.12L1288.2,663.59L1292.9,668.07L1297.5,672.55L1302.1,677.03L1306.8,681.5L1311.4,685.98L1316.1,690.46L1320.7,694.94L1325.4,699.41L1330,703.89L1334.7,708.37L1339.3,712.85L1344,717.32L1348.6,721.8L1353.2,726.28L1357.9,730.76L1362.5,735.23L1367.2,739.71L1371.8,744.19L1376.5,748.67L1381.1,753.14L1385.8,757.62L1390.4,762.1L1395.1,766.58L1399.7,771.05L1404.4,775.53L1409,780.01L1413.6,784.49L1418.3,788.96L1422.9,793.44L1427.6,797.92L1432.2,802.4L1436.9,806.88" style="fill:none;stroke:#7AC36A;stroke-width:1.25;stroke-dasharray:7.5,2.5" />
<path d="M45.095,290.41L50.43,290.41L50.43,295.75L45.095,295.75Z" style="fill:none;stroke:#7AC36A;stroke-width:0.625" />
<path d="M49.741,311.51L55.076,311.51L55.076,316.84L49.741,316.84Z" style="fill:none;stroke:#7AC36A;stroke-width:0.625" />
<path d="M54.387,331.8L59.722,331.8L59.722,337.13L54.387,337.13Z" style="fill:none;stroke:#7AC36A;stroke-width:0.625" />
<path d="M59.033,333.42L64.367,333.42L64.367,338.76L59.033,338.76Z" style="fill:none;stroke:#7AC36A;stroke-width:0.625" />
<path d="M63.679,379.5L69.013,379.5L69.013,384.83L63.679,384.83Z" style="fill:none;stroke:#7AC36A;stroke-width:0.625" />
<path d="M68.324,363.6L73.659,363.6L73.659,368.94L68.324,368.94Z" style="fill:none;stroke:#7AC36A;stroke-width:0.625" />
<path d="M72.97,367.85L78.305,367.85L78.305,373.19L72.97,373.19Z" style="fill:none;stroke:#7AC36A;stroke-width:0.625" />
<path d="M77.616,377.55L82.951,377.55L82.951,382.89L77.616,382.89Z" style="fill:none;stroke:#7AC36A;stroke-width:0.625" />
<path d="M82.262,390.75L87.597,390.75L87.597,396.09L82.262,396.09Z" style="fill:none;stroke:#7AC36A;stroke-width:0.625" />
<path d="M86.908,422.77L92.243,422.77L92.243,428.11L86.908,428.11Z" style="fill:none;stroke:#7AC36A;stroke-width:0.625" />
<path d="M91.554,391.28L96.888,391.28L96.888,396.61L91.554,396.61Z" style="fill:none;stroke:#7AC36A;stroke-width:0.625" />
<path d="M96.2,414.26L101.53,414.26L101.53,419.59L96.2,419.59Z" style="fill:none;stroke:#7AC36A;stroke-width:0.625" />
<path d="M100.85,410.72L106.18,410.72L106.18,416.06L100.85,416.06Z" style="fill:none;stroke:#7AC36A;stroke-width:0.625" />
<path d="M105.49,355.01L110.83,355.01L110.83,360.34L105.49,360.34Z" style="fill:none;stroke:#7AC36A;stroke-width:0.625" />
<path d="M110.14,365.82L115.47,365.82L115.47,371.16L110.14,371.16Z" style="fill:none;stroke:#7AC36A;stroke-width:0.625" />
<path d="M114.78,374.18L120.12,374.18L120.12,379.51L114.78,379.51Z" style="fill:none;stroke:#7AC36A;stroke-width:0.625" />
<path d="M119.43,363.57L124.76,363.57L124.76,368.9L119.43,368.9Z" style="fill:none;stroke:#7AC36A;stroke-width:0.625" />
<path d="M124.07,302.67L129.41,302.67L129.41,308.01L124.07,308.01Z" style="fill:none;stroke:#7AC36A;stroke-width:0.625" />
<path d="M128.72,264.82L134.06,264.82L134.06,270.15L128.72,270.15Z" style="fill:none;stroke:#7AC36A;stroke-width:0.625" />
<path d="M133.37,207.4L138.7,207.4L138.7,212.73L133.37,212.73Z" style="fill:none;stroke:#7AC36A;stroke-width:0.625" />
<path d="M138.01,213.4L143.35,213.4L143.35,218.74L138.01,218.74Z" style="fill:none;stroke:#7AC36A;stroke-width:0.625" />
<path d="M142.66,171.6L147.99,171.6L147.99,176.94L142.66,176.94Z" style="fill:none;stroke:#7AC36A;stroke-width:0.625" />
<path d="M147.3,189.19L152.64,189.19L152.64,194.53L147.3,194.53Z" style="fill:none;stroke:#7AC36A;stroke-width:0.625" />
<path d="M151.95,168.51L157.28,168.51L157.28,173.84L151.95,173.84Z" style="fill:none;stroke:#7AC36A;stroke-width:0.625" />
<path d="M156.6,128.08L161.93,128.08L161.93,133.42L156.6,133.42Z" style="fill:none;stroke:#7AC36A;stroke-width:0.625" />
<path d="M161.24,121.77L166.58,121.77L166.58,127.1L161.24,127.1Z" style="fill:none;stroke:#7AC36A;stroke-width:0.625" />
<path d="M165.89,139.03L171.22,139.03L171.22,144.36L165.89,144.36Z" style="fill:none;stroke:#7AC36A;stroke-width:0.625" />
<path d="M170.53,140.51L175.87,140.51L175.87,145.84L170.53,145.84Z" style="fill:none;stroke:#7AC36A;stroke-width:0.625" />
<path d="M175.18,145.2L180.51,145.2L180.51,150.53L175.18,150.53Z" style="fill:none;stroke:#7AC36A;stroke-width:0.625" />
<path d="M179.83,116.18L185.16,116.18L185.16,121.51L179.83,121.51Z" style="fill:none;stroke:#7AC36A;stroke-width:0.625" />
<path d="M184.47,138.41L189.81,138.41L189.81,143.75L184.47,143.75Z" style="fill:none;stroke:#7AC36A;stroke-width:0.625" />
<path d="M189.12,155.61L194.45,155.61L194.45,160.95L189.12,160.95Z" style="fill:none;stroke:#7AC36A;stroke-width:0.625" />
<path d="M193.76,179.92L199.1,179.92L199.1,185.25L193.76,185.25Z" style="fill:none;stroke:#7AC36A;stroke-width:0.625" />
<path d="M198.41,164.93L203.74,164.93L203.74,170.26L198.41,170.26Z" style="fill:none;stroke:#7AC36A;stroke-width:0.625" />
<path d="M203.05,175.82L208.39,175.82L208.39,181.16L203.05,181.16Z" style="fill:none;stroke:#7AC36A;stroke-width:0.625" />
<path d="M207.7,224.94L213.03,224.94L213.03,230.28L207.7,230.28Z" style="fill:none;stroke:#7AC36A;stroke-width:0.625" />
<path d="M212.35,238.04L217.68,238.04L217.68,243.38L212.35,243.38Z" style="fill:none;stroke:#7AC36A;stroke-width:0.625" />
<path d="M216.99,223.58L222.33,223.58L222.33,228.91L216.99,228.91Z" style="fill:none;stroke:#7AC36A;stroke-width:0.625" />
<path d="M221.64,267.24L226.97,267.24L226.97,272.58L221.64,272.58Z" style="fill:none;stroke:#7AC36A;stroke-width:0.625" />
<path d="M226.28,283.48L231.62,283.48L231.62,288.81L226.28,288.81Z" style="fill:none;stroke:#7AC36A;stroke-width:0.625" />
<path d="M230.93,346.31L236.26,346.31L236.26,351.64L230.93,351.64Z" style="fill:none;stroke:#7AC36A;stroke-width:0.625" />
<path d="M235.58,382.74L240.91,382.74L240.91,388.07L235.58,388.07Z" style="fill:none;stroke:#7AC36A;stroke-width:0.625" />
<path d="M240.22,399.49L245.56,399.49L245.56,404.83L240.22,404.83Z" style="fill:none;stroke:#7AC36A;stroke-width:0.625" />
<path d="M244.87,404.47L250.2,404.47L250.2,409.8L244.87,409.8Z" style="fill:none;stroke:#7AC36A;stroke-width:0.625" />
<path d="M249.51,400.72L254.85,400.72L254.85,406.06L249.51,406.06Z" style="fill:none;stroke:#7AC36A;stroke-width:0.625" />
<path d="M254.16,420.86L259.49,420.86L259.49,426.2L254.16,426.2Z" style="fill:none;stroke:#7AC36A;stroke-width:0.625" />
<path d="M258.8,423.19L264.14,423.19L264.14,428.52L258.8,428.52Z" style="fill:none;stroke:#7AC36A;stroke-width:0.625" />
<path d="M263.45,389.13L268.79,389.13L268.79,394.47L263.45,394.47Z" style="fill:none;stroke:#7AC36A;stroke-width:0.625" />
<path d="M268.1,366.87L273.43,366.87L273.43,372.21L268.1,372.21Z" style="fill:none;stroke:#7AC36A;stroke-width:0.625" />
<path d="M272.74,388.35L278.08,388.35L278.08,393.68L272.74,393.68Z" style="fill:none;stroke:#7AC36A;stroke-width:0.625" />
<path d="M277.39,400.74L282.72,400.74L282.72,406.08L277.39,406.08Z" style="fill:none;stroke:#7AC36A;stroke-width:0.625" />
<path d="M282.03,404.51L287.37,404.51L287.37,409.85L282.03,409.85Z" style="fill:none;stroke:#7AC36A;stroke-width:0.625" />
<path d="M286.68,338.69L292.01,338.69L292.01,344.03L286.68,344.03Z" style="fill:none;stroke:#7AC36A;stroke-width:0.625" />
<path d="M291.33,278.67L296.66,278.67L296.66,284L291.33,284Z" style="fill:none;stroke:#7AC36A;stroke-width:0.625" />
<path d="M295.97,272.36L301.31,272.36L301.31,277.7L295.97,277.7Z" style="fill:none;stroke:#7AC36A;stroke-width:0.625" />
<path d="M300.62,256L305.95,256L305.95,261.33L300.62,261.33Z" style="fill:none;stroke:#7AC36A;stroke-width:0.625" />
<path d="M305.26,223.68L310.6,223.68L310.6,229.01L305.26,229.01Z" style="fill:none;stroke:#7AC36A;stroke-width:0.625" />
<path d="M309.91,218.67L315.24,218.67L315.24,224L309.91,224Z" style="fill:none;stroke:#7AC36A;stroke-width:0.625" />
<path d="M314.56,187.49L319.89,187.49L319.89,192.82L314.56,192.82Z" style="fill:none;stroke:#7AC36A;stroke-width:0.625" />
<path d="M319.2,148.94L324.54,148.94L324.54,154.28L319.2,154.28Z" style="fill:none;stroke:#7AC36A;stroke-width:0.625" />
<path d="M323.85,157.54L329.18,157.54L329.18,162.88L323.85,162.88Z" style="fill:none;stroke:#7AC36A;stroke-width:0.625" />
<path d="M328.49,141.07L333.83,141.07L333.83,146.4L328.49,146.4Z" style="fill:none;stroke:#7AC36A;stroke-width:0.625" />
<path d="M333.14,114.95L338.47,114.95L338.47,120.28L333.14,120.28Z" style="fill:none;stroke:#7AC36A;stroke-width:0.625" />
<path d="M337.78,133.47L343.12,133.47L343.12,138.8L337.78,138.8Z" style="fill:none;stroke:#7AC36A;stroke-width:0.625" />
<path d="M342.43,121.26L347.76,121.26L347.76,126.6L342.43,126.6Z" style="fill:none;stroke:#7AC36A;stroke-width:0.625" />
<path d="M347.08,124.67L352.41,124.67L352.41,130.01L347.08,130.01Z" style="fill:none;stroke:#7AC36A;stroke-width:0.625" />
<path d="M351.72,152.74L357.06,152.74L357.06,158.08L351.72,158.08Z" style="fill:none;stroke:#7AC36A;stroke-width:0.625" />
<path d="M356.37,107.32L361.7,107.32L361.7,112.65L356.37,112.65Z" style="fill:none;stroke:#7AC36A;stroke-width:0.625" />
<path d="M361.01,144.08L366.35,144.08L366.35,149.42L361.01,149.42Z" style="fill:none;stroke:#7AC36A;stroke-width:0.625" />
<path d="M365.66,175.59L370.99,175.59L370.99,180.92L365.66,180.92Z" style="fill:none;stroke:#7AC36A;stroke-width:0.625" />
<path d="M370.31,190.91L375.64,190.91L375.64,196.24L370.31,196.24Z" style="fill:none;stroke:#7AC36A;stroke-width:0.625" />
<path d="M374.95,205.34L380.29,205.34L380.29,210.68L374.95,210.68Z" style="fill:none;stroke:#7AC36A;stroke-width:0.625" />
<path d="M379.6,186.21L384.93,186.21L384.93,191.54L379.6,191.54Z" style="fill:none;stroke:#7AC36A;stroke-width:0.625" />
<path d="M384.24,245.09L389.58,245.09L389.58,250.42L384.24,250.42Z" style="fill:none;stroke:#7AC36A;stroke-width:0.625" />
<path d="M388.89,235.01L394.22,235.01L394.22,240.34L388.89,240.34Z" style="fill:none;stroke:#7AC36A;stroke-width:0.625" />
<path d="M393.53,275.98L398.87,275.98L398.87,281.31L393.53,281.31Z" style="fill:none;stroke:#7AC36A;stroke-width:0.625" />
<path d="M398.18,303.02L403.52,303.02L403.52,308.36L398.18,308.36Z" style="fill:none;stroke:#7AC36A;stroke-width:0.625" />
<path d="M402.83,339.46L408.16,339.46L408.16,344.79L402.83,344.79Z" style="fill:none;stroke:#7AC36A;stroke-width:0.625" />
<path d="M407.47,359.52L412.81,359.52L412.81,364.85L407.47,364.85Z" style="fill:none;stroke:#7AC36A;stroke-width:0.625" />
<path d="M412.12,362.61L417.45,362.61L417.45,367.94L412.12,367.94Z" style="fill:none;stroke:#7AC36A;stroke-width:0.625" />
<path d="M416.76,361.65L422.1,361.65L422.1,366.98L416.76,366.98Z" style="fill:none;stroke:#7AC36A;stroke-width:0.625" />
<path d="M421.41,346.61L426.74,346.61L426.74,351.94L421.41,351.94Z" style="fill:none;stroke:#7AC36A;stroke-width:0.625" />
<path d="M426.06,394.81L431.39,394.81L431.39,400.15L426.06,400.15Z" style="fill:none;stroke:#7AC36A;stroke-width:0.625" />
<path d="M430.7,374.48L436.04,374.48L436.04,379.81L430.7,379.81Z" style="fill:none;stroke:#7AC36A;stroke-width:0.625" />
<path d="M435.35,369.12L440.68,369.12L440.68,374.45L435.35,374.45Z" style="fill:none;stroke:#7AC36A;stroke-width:0.625" />
<path d="M439.99,411.22L445.33,411.22L445.33,416.56L439.99,416.56Z" style="fill:none;stroke:#7AC36A;stroke-width:0.625" />
<path d="M444.64,417.6L449.97,417.6L449.97,422.93L444.64,422.93Z" style="fill:none;stroke:#7AC36A;stroke-width:0.625" />
<path d="M449.29,382.83L454.62,382.83L454.62,388.16L449.29,388.16Z" style="fill:none;stroke:#7AC36A;stroke-width:0.625" />
<path d="M453.93,326.74L459.27,326.74L459.27,332.07L453.93,332.07Z" style="fill:none;stroke:#7AC36A;stroke-width:0.625" />
<path d="M458.58,298.61L463.91,298.61L463.91,303.94L458.58,303.94Z" style="fill:none;stroke:#7AC36A;stroke-width:0.625" />
<path d="M463.22,294.27L468.56,294.27L468.56,299.61L463.22,299.61Z" style="fill:none;stroke:#7AC36A;stroke-width:0.625" />
<path d="M467.87,274.83L473.2,274.83L473.2,280.16L467.87,280.16Z" style="fill:none;stroke:#7AC36A;stroke-width:0.625" />
<path d="M472.51,280.55L477.85,280.55L477.85,285.88L472.51,285.88Z" style="fill:none;stroke:#7AC36A;stroke-width:0.625" />
<path d="M477.16,255.99L482.49,255.99L482.49,261.33L477.16,261.33Z" style="fill:none;stroke:#7AC36A;stroke-width:0.625" />
<path d="M481.81,225.09L487.14,225.09L487.14,230.43L481.81,230.43Z" style="fill:none;stroke:#7AC36A;stroke-width:0.625" />
<path d="M486.45,170.68L491.79,170.68L491.79,176.02L486.45,176.02Z" style="fill:none;stroke:#7AC36A;stroke-width:0.625" />
<path d="M491.1,157.18L496.43,157.18L496.43,162.51L491.1,162.51Z" style="fill:none;stroke:#7AC36A;stroke-width:0.625" />
<path d="M495.74,123.4L501.08,123.4L501.08,128.73L495.74,128.73Z" style="fill:none;stroke:#7AC36A;stroke-width:0.625" />
<path d="M500.39,112.2L505.72,112.2L505.72,117.54L500.39,117.54Z" style="fill:none;stroke:#7AC36A;stroke-width:0.625" />
<path d="M505.04,76.47L510.37,76.47L510.37,81.805L505.04,81.805Z" style="fill:none;stroke:#7AC36A;stroke-width:0.625" />
<path d="M509.68,75.636L515.02,75.636L515.02,80.97L509.68,80.97Z" style="fill:none;stroke:#7AC36A;stroke-width:0.625" />
<path d="M514.33,106.61L519.66,106.61L519.66,111.95L514.33,111.95Z" style="fill:none;stroke:#7AC36A;stroke-width:0.625" />
<path d="M518.97,111.84L524.31,111.84L524.31,117.18L518.97,117.18Z" style="fill:none;stroke:#7AC36A;stroke-width:0.625" />
<path d="M523.62,138.95L528.95,138.95L528.95,144.28L523.62,144.28Z" style="fill:none;stroke:#7AC36A;stroke-width:0.625" />
<path d="M528.26,167.01L533.6,167.01L533.6,172.34L528.26,172.34Z" style="fill:none;stroke:#7AC36A;stroke-width:0.625" />
<path d="M532.91,135.43L538.25,135.43L538.25,140.77L532.91,140.77Z" style="fill:none;stroke:#7AC36A;stroke-width:0.625" />
<path d="M537.56,160.06L542.89,160.06L542.89,165.39L537.56,165.39Z" style="fill:none;stroke:#7AC36A;stroke-width:0.625" />
<path d="M542.2,151.65L547.54,151.65L547.54,156.99L542.2,156.99Z" style="fill:none;stroke:#7AC36A;stroke-width:0.625" />
<path d="M546.85,176.72L552.18,176.72L552.18,182.05L546.85,182.05Z" style="fill:none;stroke:#7AC36A;stroke-width:0.625" />
<path d="M551.49,219.68L556.83,219.68L556.83,225.01L551.49,225.01Z" style="fill:none;stroke:#7AC36A;stroke-width:0.625" />
<path d="M556.14,257.05L561.47,257.05L561.47,262.38L556.14,262.38Z" style="fill:none;stroke:#7AC36A;stroke-width:0.625" />
<path d="M560.79,267.28L566.12,267.28L566.12,272.61L560.79,272.61Z" style="fill:none;stroke:#7AC36A;stroke-width:0.625" />
<path d="M565.43,282.31L570.77,282.31L570.77,287.64L565.43,287.64Z" style="fill:none;stroke:#7AC36A;stroke-width:0.625" />
<path d="M570.08,324.95L575.41,324.95L575.41,330.29L570.08,330.29Z" style="fill:none;stroke:#7AC36A;stroke-width:0.625" />
<path d="M574.72,317.96L580.06,317.96L580.06,323.3L574.72,323.3Z" style="fill:none;stroke:#7AC36A;stroke-width:0.625" />
<path d="M579.37,352.45L584.7,352.45L584.7,357.79L579.37,357.79Z" style="fill:none;stroke:#7AC36A;stroke-width:0.625" />
<path d="M584.02,391.25L589.35,391.25L589.35,396.58L584.02,396.58Z" style="fill:none;stroke:#7AC36A;stroke-width:0.625" />
<path d="M588.66,406.82L594,406.82L594,412.16L588.66,412.16Z" style="fill:none;stroke:#7AC36A;stroke-width:0.625" />
<path d="M593.31,382.22L598.64,382.22L598.64,387.56L593.31,387.56Z" style="fill:none;stroke:#7AC36A;stroke-width:0.625" />
<path d="M597.95,376.35L603.29,376.35L603.29,381.68L597.95,381.68Z" style="fill:none;stroke:#7AC36A;stroke-width:0.625" />
<path d="M602.6,380.02L607.93,380.02L607.93,385.36L602.6,385.36Z" style="fill:none;stroke:#7AC36A;stroke-width:0.625" />
<path d="M607.24,398.53L612.58,398.53L612.58,403.86L607.24,403.86Z" style="fill:none;stroke:#7AC36A;stroke-width:0.625" />
<path d="M611.89,375.54L617.22,375.54L617.22,380.87L611.89,380.87Z" style="fill:none;stroke:#7AC36A;stroke-width:0.625" />
<path d="M616.54,399.4L621.87,399.4L621.87,404.73L616.54,404.73Z" style="fill:none;stroke:#7AC36A;stroke-width:0.625" />
<path d="M621.18,406.87L626.52,406.87L626.52,412.21L621.18,412.21Z" style="fill:none;stroke:#7AC36A;stroke-width:0.625" />
<path d="M625.83,367.69L631.16,367.69L631.16,373.02L625.83,373.02Z" style="fill:none;stroke:#7AC36A;stroke-width:0.625" />
<path d="M630.47,305.92L635.81,305.92L635.81,311.26L630.47,311.26Z" style="fill:none;stroke:#7AC36A;stroke-width:0.625" />
<path d="M635.12,276.11L640.45,276.11L640.45,281.45L635.12,281.45Z" style="fill:none;stroke:#7AC36A;stroke-width:0.625" />
<path d="M639.77,245.43L645.1,245.43L645.1,250.76L639.77,250.76Z" style="fill:none;stroke:#7AC36A;stroke-width:0.625" />
<path d="M644.41,199.52L649.75,199.52L649.75,204.85L644.41,204.85Z" style="fill:none;stroke:#7AC36A;stroke-width:0.625" />
<path d="M649.06,203.81L654.39,203.81L654.39,209.14L649.06,209.14Z" style="fill:none;stroke:#7AC36A;stroke-width:0.625" />
<path d="M653.7,222.49L659.04,222.49L659.04,227.82L653.7,227.82Z" style="fill:none;stroke:#7AC36A;stroke-width:0.625" />
<path d="M658.35,221.24L663.68,221.24L663.68,226.57L658.35,226.57Z" style="fill:none;stroke:#7AC36A;stroke-width:0.625" />
<path d="M662.99,177.52L668.33,177.52L668.33,182.85L662.99,182.85Z" style="fill:none;stroke:#7AC36A;stroke-width:0.625" />
<path d="M667.64,148.33L672.98,148.33L672.98,153.66L667.64,153.66Z" style="fill:none;stroke:#7AC36A;stroke-width:0.625" />
<path d="M672.29,115.92L677.62,115.92L677.62,121.26L672.29,121.26Z" style="fill:none;stroke:#7AC36A;stroke-width:0.625" />
<path d="M676.93,127.35L682.27,127.35L682.27,132.69L676.93,132.69Z" style="fill:none;stroke:#7AC36A;stroke-width:0.625" />
<path d="M681.58,80.073L686.91,80.073L686.91,85.408L681.58,85.408Z" style="fill:none;stroke:#7AC36A;stroke-width:0.625" />
<path d="M686.22,64.049L691.56,64.049L691.56,69.384L686.22,69.384Z" style="fill:none;stroke:#7AC36A;stroke-width:0.625" />
<path d="M690.87,104.63L696.2,104.63L696.2,109.96L690.87,109.96Z" style="fill:none;stroke:#7AC36A;stroke-width:0.625" />
<path d="M695.52,77.831L700.85,77.831L700.85,83.165L695.52,83.165Z" style="fill:none;stroke:#7AC36A;stroke-width:0.625" />
<path d="M700.16,92.839L705.5,92.839L705.5,98.174L700.16,98.174Z" style="fill:none;stroke:#7AC36A;stroke-width:0.625" />
<path d="M704.81,149.98L710.14,149.98L710.14,155.32L704.81,155.32Z" style="fill:none;stroke:#7AC36A;stroke-width:0.625" />
<path d="M709.45,147.58L714.79,147.58L714.79,152.91L709.45,152.91Z" style="fill:none;stroke:#7AC36A;stroke-width:0.625" />
<path d="M714.1,135.07L719.43,135.07L719.43,140.41L714.1,140.41Z" style="fill:none;stroke:#7AC36A;stroke-width:0.625" />
<path d="M718.75,133.24L724.08,133.24L724.08,138.58L718.75,138.58Z" style="fill:none;stroke:#7AC36A;stroke-width:0.625" />
<path d="M723.39,201.17L728.73,201.17L728.73,206.5L723.39,206.5Z" style="fill:none;stroke:#7AC36A;stroke-width:0.625" />
<path d="M728.04,260.39L733.37,260.39L733.37,265.72L728.04,265.72Z" style="fill:none;stroke:#7AC36A;stroke-width:0.625" />
<path d="M732.68,304.18L738.02,304.18L738.02,309.52L732.68,309.52Z" style="fill:none;stroke:#7AC36A;stroke-width:0.625" />
<path d="M737.33,301L742.66,301L742.66,306.34L737.33,306.34Z" style="fill:none;stroke:#7AC36A;stroke-width:0.625" />
<path d="M741.97,347.78L747.31,347.78L747.31,353.12L741.97,353.12Z" style="fill:none;stroke:#7AC36A;stroke-width:0.625" />
<path d="M746.62,329.24L751.95,329.24L751.95,334.58L746.62,334.58Z" style="fill:none;stroke:#7AC36A;stroke-width:0.625" />
<path d="M751.27,367.97L756.6,367.97L756.6,373.3L751.27,373.3Z" style="fill:none;stroke:#7AC36A;stroke-width:0.625" />
<path d="M755.91,356.45L761.25,356.45L761.25,361.78L755.91,361.78Z" style="fill:none;stroke:#7AC36A;stroke-width:0.625" />
<path d="M760.56,381.85L765.89,381.85L765.89,387.19L760.56,387.19Z" style="fill:none;stroke:#7AC36A;stroke-width:0.625" />
<path d="M765.2,392.23L770.54,392.23L770.54,397.57L765.2,397.57Z" style="fill:none;stroke:#7AC36A;stroke-width:0.625" />
<path d="M769.85,400.8L775.18,400.8L775.18,406.14L769.85,406.14Z" style="fill:none;stroke:#7AC36A;stroke-width:0.625" />
<path d="M774.5,437.72L779.83,437.72L779.83,443.06L774.5,443.06Z" style="fill:none;stroke:#7AC36A;stroke-width:0.625" />
<path d="M779.14,448.48L784.48,448.48L784.48,453.82L779.14,453.82Z" style="fill:none;stroke:#7AC36A;stroke-width:0.625" />
<path d="M783.79,428.6L789.12,428.6L789.12,433.93L783.79,433.93Z" style="fill:none;stroke:#7AC36A;stroke-width:0.625" />
<path d="M788.43,394.4L793.77,394.4L793.77,399.73L788.43,399.73Z" style="fill:none;stroke:#7AC36A;stroke-width:0.625" />
<path d="M793.08,401.42L798.41,401.42L798.41,406.76L793.08,406.76Z" style="fill:none;stroke:#7AC36A;stroke-width:0.625" />
<path d="M797.72,338.19L803.06,338.19L803.06,343.52L797.72,343.52Z" style="fill:none;stroke:#7AC36A;stroke-width:0.625" />
<path d="M802.37,317.78L807.71,317.78L807.71,323.12L802.37,323.12Z" style="fill:none;stroke:#7AC36A;stroke-width:0.625" />
<path d="M807.02,284.89L812.35,284.89L812.35,290.22L807.02,290.22Z" style="fill:none;stroke:#7AC36A;stroke-width:0.625" />
<path d="M811.66,244.06L817,244.06L817,249.4L811.66,249.4Z" style="fill:none;stroke:#7AC36A;stroke-width:0.625" />
<path d="M816.31,246.8L821.64,246.8L821.64,252.13L816.31,252.13Z" style="fill:none;stroke:#7AC36A;stroke-width:0.625" />
<path d="M820.95,253.01L826.29,253.01L826.29,258.34L820.95,258.34Z" style="fill:none;stroke:#7AC36A;stroke-width:0.625" />
<path d="M825.6,208.27L830.93,208.27L830.93,213.6L825.6,213.6Z" style="fill:none;stroke:#7AC36A;stroke-width:0.625" />
<path d="M830.25,163.23L835.58,163.23L835.58,168.56L830.25,168.56Z" style="fill:none;stroke:#7AC36A;stroke-width:0.625" />
<path d="M834.89,119.28L840.23,119.28L840.23,124.61L834.89,124.61Z" style="fill:none;stroke:#7AC36A;stroke-width:0.625" />
<path d="M839.54,127.51L844.87,127.51L844.87,132.84L839.54,132.84Z" style="fill:none;stroke:#7AC36A;stroke-width:0.625" />
<path d="M844.18,118.42L849.52,118.42L849.52,123.76L844.18,123.76Z" style="fill:none;stroke:#7AC36A;stroke-width:0.625" />
<path d="M848.83,109.96L854.16,109.96L854.16,115.29L848.83,115.29Z" style="fill:none;stroke:#7AC36A;stroke-width:0.625" />
<path d="M853.47,128.99L858.81,128.99L858.81,134.32L853.47,134.32Z" style="fill:none;stroke:#7AC36A;stroke-width:0.625" />
<path d="M858.12,111.25L863.46,111.25L863.46,116.59L858.12,116.59Z" style="fill:none;stroke:#7AC36A;stroke-width:0.625" />
<path d="M862.77,90.137L868.1,90.137L868.1,95.471L862.77,95.471Z" style="fill:none;stroke:#7AC36A;stroke-width:0.625" />
<path d="M867.41,121.36L872.75,121.36L872.75,126.7L867.41,126.7Z" style="fill:none;stroke:#7AC36A;stroke-width:0.625" />
<path d="M872.06,151.67L877.39,151.67L877.39,157L872.06,157Z" style="fill:none;stroke:#7AC36A;stroke-width:0.625" />
<path d="M876.7,131.49L882.04,131.49L882.04,136.82L876.7,136.82Z" style="fill:none;stroke:#7AC36A;stroke-width:0.625" />
<path d="M881.35,169.6L886.68,169.6L886.68,174.94L881.35,174.94Z" style="fill:none;stroke:#7AC36A;stroke-width:0.625" />
<path d="M886,189.55L891.33,189.55L891.33,194.88L886,194.88Z" style="fill:none;stroke:#7AC36A;stroke-width:0.625" />
<path d="M890.64,183.95L895.98,183.95L895.98,189.28L890.64,189.28Z" style="fill:none;stroke:#7AC36A;stroke-width:0.625" />
<path d="M895.29,200.65L900.62,200.65L900.62,205.98L895.29,205.98Z" style="fill:none;stroke:#7AC36A;stroke-width:0.625" />
<path d="M899.93,195.95L905.27,195.95L905.27,201.29L899.93,201.29Z" style="fill:none;stroke:#7AC36A;stroke-width:0.625" />
<path d="M904.58,255.98L909.91,255.98L909.91,261.32L904.58,261.32Z" style="fill:none;stroke:#7AC36A;stroke-width:0.625" />
<path d="M909.23,310.45L914.56,310.45L914.56,315.78L909.23,315.78Z" style="fill:none;stroke:#7AC36A;stroke-width:0.625" />
<path d="M913.87,349.32L919.21,349.32L919.21,354.66L913.87,354.66Z" style="fill:none;stroke:#7AC36A;stroke-width:0.625" />
<path d="M918.52,340.31L923.85,340.31L923.85,345.65L918.52,345.65Z" style="fill:none;stroke:#7AC36A;stroke-width:0.625" />
<path d="M923.16,341.48L928.5,341.48L928.5,346.82L923.16,346.82Z" style="fill:none;stroke:#7AC36A;stroke-width:0.625" />
<path d="M927.81,336.46L933.14,336.46L933.14,341.8L927.81,341.8Z" style="fill:none;stroke:#7AC36A;stroke-width:0.625" />
<path d="M932.45,389.95L937.79,389.95L937.79,395.29L932.45,395.29Z" style="fill:none;stroke:#7AC36A;stroke-width:0.625" />
<path d="M937.1,425.19L942.44,425.19L942.44,430.52L937.1,430.52Z" style="fill:none;stroke:#7AC36A;stroke-width:0.625" />
<path d="M941.75,449.81L947.08,449.81L947.08,455.14L941.75,455.14Z" style="fill:none;stroke:#7AC36A;stroke-width:0.625" />
<path d="M946.39,400.22L951.73,400.22L951.73,405.56L946.39,405.56Z" style="fill:none;stroke:#7AC36A;stroke-width:0.625" />
<path d="M951.04,411.06L956.37,411.06L956.37,416.39L951.04,416.39Z" style="fill:none;stroke:#7AC36A;stroke-width:0.625" />
<path d="M955.68,424.26L961.02,424.26L961.02,429.59L955.68,429.59Z" style="fill:none;stroke:#7AC36A;stroke-width:0.625" />
<path d="M960.33,428.84L965.66,428.84L965.66,434.18L960.33,434.18Z" style="fill:none;stroke:#7AC36A;stroke-width:0.625" />
<path d="M964.98,427.84L970.31,427.84L970.31,433.18L964.98,433.18Z" style="fill:none;stroke:#7AC36A;stroke-width:0.625" />
<path d="M969.62,360.93L974.96,360.93L974.96,366.27L969.62,366.27Z" style="fill:none;stroke:#7AC36A;stroke-width:0.625" />
<path d="M974.27,360.93L979.6,360.93L979.6,366.27L974.27,366.27Z" style="fill:none;stroke:#7AC36A;stroke-width:0.625" />
<path d="M978.91,365.41L984.25,365.41L984.25,370.74L978.91,370.74Z" style="fill:none;stroke:#7AC36A;stroke-width:0.625" />
<path d="M983.56,369.89L988.89,369.89L988.89,375.22L983.56,375.22Z" style="fill:none;stroke:#7AC36A;stroke-width:0.625" />
<path d="M988.2,374.36L993.54,374.36L993.54,379.7L988.2,379.7Z" style="fill:none;stroke:#7AC36A;stroke-width:0.625" />
<path d="M992.85,378.84L998.19,378.84L998.19,384.18L992.85,384.18Z" style="fill:none;stroke:#7AC36A;stroke-width:0.625" />
<path d="M997.5,383.32L1002.8,383.32L1002.8,388.65L997.5,388.65Z" style="fill:none;stroke:#7AC36A;stroke-width:0.625" />
<path d="M1002.1,387.8L1007.5,387.8L1007.5,393.13L1002.1,393.13Z" style="fill:none;stroke:#7AC36A;stroke-width:0.625" />
<path d="M1006.8,392.27L1012.1,392.27L1012.1,397.61L1006.8,397.61Z" style="fill:none;stroke:#7AC36A;stroke-width:0.625" />
<path d="M1011.4,396.75L1016.8,396.75L1016.8,402.09L1011.4,402.09Z" style="fill:none;stroke:#7AC36A;stroke-width:0.625" />
<path d="M1016.1,401.23L1021.4,401.23L1021.4,406.56L1016.1,406.56Z" style="fill:none;stroke:#7AC36A;stroke-width:0.625" />
<path d="M1020.7,405.71L1026.1,405.71L1026.1,411.04L1020.7,411.04Z" style="fill:none;stroke:#7AC36A;stroke-width:0.625" />
<path d="M1025.4,410.18L1030.7,410.18L1030.7,415.52L1025.4,415.52Z" style="fill:none;stroke:#7AC36A;stroke-width:0.625" />
<path d="M1030,414.66L1035.4,414.66L1035.4,420L1030,420Z" style="fill:none;stroke:#7AC36A;stroke-width:0.625" />
<path d="M1034.7,419.14L1040,419.14L1040,424.47L1034.7,424.47Z" style="fill:none;stroke:#7AC36A;stroke-width:0.625" />
<path d="M1039.3,423.62L1044.6,423.62L1044.6,428.95L1039.3,428.95Z" style="fill:none;stroke:#7AC36A;stroke-width:0.625" />
<path d="M1044,428.09L1049.3,428.09L1049.3,433.43L1044,433.43Z" style="fill:none;stroke:#7AC36A;stroke-width:0.625" />
<path d="M1048.6,432.57L1053.9,432.57L1053.9,437.91L1048.6,437.91Z" style="fill:none;stroke:#7AC36A;stroke-width:0.625" />
<path d="M1053.2,437.05L1058.6,437.05L1058.6,442.38L1053.2,442.38Z" style="fill:none;stroke:#7AC36A;stroke-width:0.625" />
<path d="M1057.9,441.53L1063.2,441.53L1063.2,446.86L1057.9,446.86Z" style="fill:none;stroke:#7AC36A;stroke-width:0.625" />
<path d="M1062.5,446L1067.9,446L1067.9,451.34L1062.5,451.34Z" style="fill:none;stroke:#7AC36A;stroke-width:0.625" />
<path d="M1067.2,450.48L1072.5,450.48L1072.5,455.82L1067.2,455.82Z" style="fill:none;stroke:#7AC36A;stroke-width:0.625" />
<path d="M1071.8,454.96L1077.2,454.96L1077.2,460.29L1071.8,460.29Z" style="fill:none;stroke:#7AC36A;stroke-width:0.625" />
<path d="M1076.5,459.44L1081.8,459.44L1081.8,464.77L1076.5,464.77Z" style="fill:none;stroke:#7AC36A;stroke-width:0.625" />
<path d="M1081.1,463.91L1086.5,463.91L1086.5,469.25L1081.1,469.25Z" style="fill:none;stroke:#7AC36A;stroke-width:0.625" />
<path d="M1085.8,468.39L1091.1,468.39L1091.1,473.73L1085.8,473.73Z" style="fill:none;stroke:#7AC36A;stroke-width:0.625" />
<path d="M1090.4,472.87L1095.7,472.87L1095.7,478.2L1090.4,478.2Z" style="fill:none;stroke:#7AC36A;stroke-width:0.625" />
<path d="M1095.1,477.35L1100.4,477.35L1100.4,482.68L1095.1,482.68Z" style="fill:none;stroke:#7AC36A;stroke-width:0.625" />
<path d="M1099.7,481.82L1105,481.82L1105,487.16L1099.7,487.16Z" style="fill:none;stroke:#7AC36A;stroke-width:0.625" />
<path d="M1104.4,486.3L1109.7,486.3L1109.7,491.64L1104.4,491.64Z" style="fill:none;stroke:#7AC36A;stroke-width:0.625" />
<path d="M1109,490.78L1114.3,490.78L1114.3,496.11L1109,496.11Z" style="fill:none;stroke:#7AC36A;stroke-width:0.625" />
<path d="M1113.6,495.26L1119,495.26L1119,500.59L1113.6,500.59Z" style="fill:none;stroke:#7AC36A;stroke-width:0.625" />
<path d="M1118.3,499.73L1123.6,499.73L1123.6,505.07L1118.3,505.07Z" style="fill:none;stroke:#7AC36A;stroke-width:0.625" />
<path d="M1122.9,504.21L1128.3,504.21L1128.3,509.55L1122.9,509.55Z" style="fill:none;stroke:#7AC36A;stroke-width:0.625" />
<path d="M1127.6,508.69L1132.9,508.69L1132.9,514.02L1127.6,514.02Z" style="fill:none;stroke:#7AC36A;stroke-width:0.625" />
<path d="M1132.2,513.17L1137.6,513.17L1137.6,518.5L1132.2,518.5Z" style="fill:none;stroke:#7AC36A;stroke-width:0.625" />
<path d="M1136.9,517.64L1142.2,517.64L1142.2,522.98L1136.9,522.98Z" style="fill:none;stroke:#7AC36A;stroke-width:0.625" />
<path d="M1141.5,522.12L1146.9,522.12L1146.9,527.46L1141.5,527.46Z" style="fill:none;stroke:#7AC36A;stroke-width:0.625" />
<path d="M1146.2,526.6L1151.5,526.6L1151.5,531.93L1146.2,531.93Z" style="fill:none;stroke:#7AC36A;stroke-width:0.625" />
<path d="M1150.8,531.08L1156.1,531.08L1156.1,536.41L1150.8,536.41Z" style="fill:none;stroke:#7AC36A;stroke-width:0.625" />
<path d="M1155.5,535.56L1160.8,535.56L1160.8,540.89L1155.5,540.89Z" style="fill:none;stroke:#7AC36A;stroke-width:0.625" />
<path d="M1160.1,540.03L1165.4,540.03L1165.4,545.37L1160.1,545.37Z" style="fill:none;stroke:#7AC36A;stroke-width:0.625" />
<path d="M1164.7,544.51L1170.1,544.51L1170.1,549.84L1164.7,549.84Z" style="fill:none;stroke:#7AC36A;stroke-width:0.625" />
<path d="M1169.4,548.99L1174.7,548.99L1174.7,554.32L1169.4,554.32Z" style="fill:none;stroke:#7AC36A;stroke-width:0.625" />
<path d="M1174,553.47L1179.4,553.47L1179.4,558.8L1174,558.8Z" style="fill:none;stroke:#7AC36A;stroke-width:0.625" />
<path d="M1178.7,557.94L1184,557.94L1184,563.28L1178.7,563.28Z" style="fill:none;stroke:#7AC36A;stroke-width:0.625" />
<path d="M1183.3,562.42L1188.7,562.42L1188.7,567.76L1183.3,567.76Z" style="fill:none;stroke:#7AC36A;stroke-width:0.625" />
<path d="M1188,566.9L1193.3,566.9L1193.3,572.23L1188,572.23Z" style="fill:none;stroke:#7AC36A;stroke-width:0.625" />
<path d="M1192.6,571.38L1198,571.38L1198,576.71L1192.6,576.71Z" style="fill:none;stroke:#7AC36A;stroke-width:0.625" />
<path d="M1197.3,575.85L1202.6,575.85L1202.6,581.19L1197.3,581.19Z" style="fill:none;stroke:#7AC36A;stroke-width:0.625" />
<path d="M1201.9,580.33L1207.2,580.33L1207.2,585.67L1201.9,585.67Z" style="fill:none;stroke:#7AC36A;stroke-width:0.625" />
<path d="M1206.6,584.81L1211.9,584.81L1211.9,590.14L1206.6,590.14Z" style="fill:none;stroke:#7AC36A;stroke-width:0.625" />
<path d="M1211.2,589.29L1216.5,589.29L1216.5,594.62L1211.2,594.62Z" style="fill:none;stroke:#7AC36A;stroke-width:0.625" />
<path d="M1215.9,593.76L1221.2,593.76L1221.2,599.1L1215.9,599.1Z" style="fill:none;stroke:#7AC36A;stroke-width:0.625" />
<path d="M1220.5,598.24L1225.8,598.24L1225.8,603.58L1220.5,603.58Z" style="fill:none;stroke:#7AC36A;stroke-width:0.625" />
<path d="M1225.1,602.72L1230.5,602.72L1230.5,608.05L1225.1,608.05Z" style="fill:none;stroke:#7AC36A;stroke-width:0.625" />
<path d="M1229.8,607.2L1235.1,607.2L1235.1,612.53L1229.8,612.53Z" style="fill:none;stroke:#7AC36A;stroke-width:0.625" />
<path d="M1234.4,611.67L1239.8,611.67L1239.8,617.01L1234.4,617.01Z" style="fill:none;stroke:#7AC36A;stroke-width:0.625" />
<path d="M1239.1,616.15L1244.4,616.15L1244.4,621.49L1239.1,621.49Z" style="fill:none;stroke:#7AC36A;stroke-width:0.625" />
<path d="M1243.7,620.63L1249.1,620.63L1249.1,625.96L1243.7,625.96Z" style="fill:none;stroke:#7AC36A;stroke-width:0.625" />
<path d="M1248.4,625.11L1253.7,625.11L1253.7,630.44L1248.4,630.44Z" style="fill:none;stroke:#7AC36A;stroke-width:0.625" />
<path d="M1253,629.58L1258.4,629.58L1258.4,634.92L1253,634.92Z" style="fill:none;stroke:#7AC36A;stroke-width:0.625" />
<path d="M1257.7,634.06L1263,634.06L1263,639.4L1257.7,639.4Z" style="fill:none;stroke:#7AC36A;stroke-width:0.625" />
<path d="M1262.3,638.54L1267.6,638.54L1267.6,643.87L1262.3,643.87Z" style="fill:none;stroke:#7AC36A;stroke-width:0.625" />
<path d="M1267,643.02L1272.3,643.02L1272.3,648.35L1267,648.35Z" style="fill:none;stroke:#7AC36A;stroke-width:0.625" />
<path d="M1271.6,647.49L1276.9,647.49L1276.9,652.83L1271.6,652.83Z" style="fill:none;stroke:#7AC36A;stroke-width:0.625" />
<path d="M1276.2,651.97L1281.6,651.97L1281.6,657.31L1276.2,657.31Z" style="fill:none;stroke:#7AC36A;stroke-width:0.625" />
<path d="M1280.9,656.45L1286.2,656.45L1286.2,661.78L1280.9,661.78Z" style="fill:none;stroke:#7AC36A;stroke-width:0.625" />
<path d="M1285.5,660.93L1290.9,660.93L1290.9,666.26L1285.5,666.26Z" style="fill:none;stroke:#7AC36A;stroke-width:0.625" />
<path d="M1290.2,665.4L1295.5,665.4L1295.5,670.74L1290.2,670.74Z" style="fill:none;stroke:#7AC36A;stroke-width:0.625" />
<path d="M1294.8,669.88L1300.2,669.88L1300.2,675.22L1294.8,675.22Z" style="fill:none;stroke:#7AC36A;stroke-width:0.625" />
<path d="M1299.5,674.36L1304.8,674.36L1304.8,679.69L1299.5,679.69Z" style="fill:none;stroke:#7AC36A;stroke-width:0.625" />
<path d="M1304.1,678.84L1309.5,678.84L1309.5,684.17L1304.1,684.17Z" style="fill:none;stroke:#7AC36A;stroke-width:0.625" />
<path d="M1308.8,683.31L1314.1,683.31L1314.1,688.65L1308.8,688.65Z" style="fill:none;stroke:#7AC36A;stroke-width:0.625" />
<path d="M1313.4,687.79L1318.7,687.79L1318.7,693.13L1313.4,693.13Z" style="fill:none;stroke:#7AC36A;stroke-width:0.625" />
<path d="M1318.1,692.27L1323.4,692.27L1323.4,697.6L1318.1,697.6Z" style="fill:none;stroke:#7AC36A;stroke-width:0.625" />
<path d="M1322.7,696.75L1328,696.75L1328,702.08L1322.7,702.08Z" style="fill:none;stroke:#7AC36A;stroke-width:0.625" />
<path d="M1327.4,701.22L1332.7,701.22L1332.7,706.56L1327.4,706.56Z" style="fill:none;stroke:#7AC36A;stroke-width:0.625" />
<path d="M1332,705.7L1337.3,705.7L1337.3,711.04L1332,711.04Z" style="fill:none;stroke:#7AC36A;stroke-width:0.625" />
<path d="M1336.6,710.18L1342,710.18L1342,715.51L1336.6,715.51Z" style="fill:none;stroke:#7AC36A;stroke-width:0.625" />
<path d="M1341.3,714.66L1346.6,714.66L1346.6,719.99L1341.3,719.99Z" style="fill:none;stroke:#7AC36A;stroke-width:0.625" />
<path d="M1345.9,719.13L1351.3,719.13L1351.3,724.47L1345.9,724.47Z" style="fill:none;stroke:#7AC36A;stroke-width:0.625" />
<path d="M1350.6,723.61L1355.9,723.61L1355.9,728.95L1350.6,728.95Z" style="fill:none;stroke:#7AC36A;stroke-width:0.625" />
<path d="M1355.2,728.09L1360.6,728.09L1360.6,733.42L1355.2,733.42Z" style="fill:none;stroke:#7AC36A;stroke-width:0.625" />
<path d="M1359.9,732.57L1365.2,732.57L1365.2,737.9L1359.9,737.9Z" style="fill:none;stroke:#7AC36A;stroke-width:0.625" />
<path d="M1364.5,737.04L1369.9,737.04L1369.9,742.38L1364.5,742.38Z" style="fill:none;stroke:#7AC36A;stroke-width:0.625" />
<path d="M1369.2,741.52L1374.5,741.52L1374.5,746.86L1369.2,746.86Z" style="fill:none;stroke:#7AC36A;stroke-width:0.625" />
<path d="M1373.8,746L1379.1,746L1379.1,751.33L1373.8,751.33Z" style="fill:none;stroke:#7AC36A;stroke-width:0.625" />
<path d="M1378.5,750.48L1383.8,750.48L1383.8,755.81L1378.5,755.81Z" style="fill:none;stroke:#7AC36A;stroke-width:0.625" />
<path d="M1383.1,754.95L1388.4,754.95L1388.4,760.29L1383.1,760.29Z" style="fill:none;stroke:#7AC36A;stroke-width:0.625" />
<path d="M1387.7,759.43L1393.1,759.43L1393.1,764.77L1387.7,764.77Z" style="fill:none;stroke:#7AC36A;stroke-width:0.625" />
<path d="M1392.4,763.91L1397.7,763.91L1397.7,769.24L1392.4,769.24Z" style="fill:none;stroke:#7AC36A;stroke-width:0.625" />
<path d="M1397,768.39L1402.4,768.39L1402.4,773.72L1397,773.72Z" style="fill:none;stroke:#7AC36A;stroke-width:0.625" />
<path d="M1401.7,772.86L1407,772.86L1407,778.2L1401.7,778.2Z" style="fill:none;stroke:#7AC36A;stroke-width:0.625" />
<path d="M1406.3,777.34L1411.7,777.34L1411.7,782.68L1406.3,782.68Z" style="fill:none;stroke:#7AC36A;stroke-width:0.625" />
<path d="M1411,781.82L1416.3,781.82L1416.3,787.15L1411,787.15Z" style="fill:none;stroke:#7AC36A;stroke-width:0.625" />
<path d="M1415.6,786.3L1421,786.3L1421,791.63L1415.6,791.63Z" style="fill:none;stroke:#7AC36A;stroke-width:0.625" />
<path d="M1420.3,790.78L1425.6,790.78L1425.6,796.11L1420.3,796.11Z" style="fill:none;stroke:#7AC36A;stroke-width:0.625" />
<path d="M1424.9,795.25L1430.3,795.25L1430.3,800.59L1424.9,800.59Z" style="fill:none;stroke:#7AC36A;stroke-width:0.625" />
<path d="M1429.6,799.73L1434.9,799.73L1434.9,805.06L1429.6,805.06Z" style="fill:none;stroke:#7AC36A;stroke-width:0.625" />
<path d="M1434.2,804.21L1439.5,804.21L1439.5,809.54L1434.2,809.54Z" style="fill:none;stroke:#7AC36A;stroke-width:0.625" />
<path d="M1415,66.978L1440,66.978" style="fill:none;stroke:#F15A60;stroke-width:1.25" />
<path d="M1430.6,66.978A3.125,3.125 0 1 1 1424.4,66.978A3.125,3.125 0 1 1 1430.6,66.978Z" style="fill:none;stroke:#F15A60;stroke-width:0.625" />
<text x="1388.8" y="-61.188" transform="scale(1, -1)"
	style="font-family:Times;font-weight:normal;font-style:normal;font-size:12pt">raw</text>
<path d="M1415,53.117L1440,53.117" style="fill:none;stroke:#7AC36A;stroke-width:1.25;stroke-dasharray:7.5,2.5" />
<path d="M1424.8,50.45L1430.2,50.45L1430.2,55.785L1424.8,55.785Z" style="fill:none;stroke:#7AC36A;stroke-width:0.625" />
<text x="1367.1" y="-47.328" transform="scale(1, -1)"
	style="font-family:Times;font-weight:normal;font-style:normal;font-size:12pt">smooth</text>
</g>
</svg>
