<?xml version="1.0"?>
<!-- Generated by SVGo and Plotinum VG -->
<svg width="16in" height="9in"
	xmlns="http://www.w3.org/2000/svg"
	xmlns:xlink="http://www.w3.org/1999/xlink">
<g transform="scale(1, -1) translate(0, -810)">
<path d="M0,0L1440,0L1440,810L0,810Z" style="fill:#FFFFFF" />
<text x="742.71" y="-4.8267" transform="scale(1, -1)"
	style="font-family:Times;font-weight:normal;font-style:normal;font-size:12pt">X</text>
<text x="56.245" y="-19.502" transform="scale(1, -1)"
	style="font-family:Times;font-weight:normal;font-style:normal;font-size:10pt">0</text>
<text x="421.68" y="-19.502" transform="scale(1, -1)"
	style="font-family:Times;font-weight:normal;font-style:normal;font-size:10pt">80</text>
<text x="787.12" y="-19.502" transform="scale(1, -1)"
	style="font-family:Times;font-weight:normal;font-style:normal;font-size:10pt">160</text>
<text x="1155.7" y="-19.502" transform="scale(1, -1)"
	style="font-family:Times;font-weight:normal;font-style:normal;font-size:10pt">240</text>
<path d="M59.37,31.538L59.37,41.538" style="fill:none;stroke:#000000;stroke-width:0.625" />
<path d="M427.93,31.538L427.93,41.538" style="fill:none;stroke:#000000;stroke-width:0.625" />
<path d="M796.5,31.538L796.5,41.538" style="fill:none;stroke:#000000;stroke-width:0.625" />
<path d="M1165.1,31.538L1165.1,41.538" style="fill:none;stroke:#000000;stroke-width:0.625" />
<path d="M243.65,36.538L243.65,41.538" style="fill:none;stroke:#000000;stroke-width:0.625" />
<path d="M612.21,36.538L612.21,41.538" style="fill:none;stroke:#000000;stroke-width:0.625" />
<path d="M980.78,36.538L980.78,41.538" style="fill:none;stroke:#000000;stroke-width:0.625" />
<path d="M1349.3,36.538L1349.3,41.538" style="fill:none;stroke:#000000;stroke-width:0.625" />
<path d="M59.37,41.538L1436.9,41.538" style="fill:none;stroke:#000000;stroke-width:0.625" />
<g transform="rotate(90)">
<text x="423.63" y="14.443" transform="scale(1, -1)"
	style="font-family:Times;font-weight:normal;font-style:normal;font-size:12pt">Y</text>
</g>
<text x="19.27" y="-46.039" transform="scale(1, -1)"
	style="font-family:Times;font-weight:normal;font-style:normal;font-size:10pt">-18</text>
<text x="19.27" y="-272.22" transform="scale(1, -1)"
	style="font-family:Times;font-weight:normal;font-style:normal;font-size:10pt">-12</text>
<text x="25.52" y="-498.4" transform="scale(1, -1)"
	style="font-family:Times;font-weight:normal;font-style:normal;font-size:10pt">-6</text>
<text x="29.683" y="-724.58" transform="scale(1, -1)"
	style="font-family:Times;font-weight:normal;font-style:normal;font-size:10pt">0</text>
<path d="M39.058,51.941L49.058,51.941" style="fill:none;stroke:#000000;stroke-width:0.625" />
<path d="M39.058,278.12L49.058,278.12" style="fill:none;stroke:#000000;stroke-width:0.625" />
<path d="M39.058,504.3L49.058,504.3" style="fill:none;stroke:#000000;stroke-width:0.625" />
<path d="M39.058,730.48L49.058,730.48" style="fill:none;stroke:#000000;stroke-width:0.625" />
<path d="M44.058,127.33L49.058,127.33" style="fill:none;stroke:#000000;stroke-width:0.625" />
<path d="M44.058,202.73L49.058,202.73" style="fill:none;stroke:#000000;stroke-width:0.625" />
<path d="M44.058,353.51L49.058,353.51" style="fill:none;stroke:#000000;stroke-width:0.625" />
<path d="M44.058,428.91L49.058,428.91" style="fill:none;stroke:#000000;stroke-width:0.625" />
<path d="M44.058,579.69L49.058,579.69" style="fill:none;stroke:#000000;stroke-width:0.625" />
<path d="M44.058,655.09L49.058,655.09" style="fill:none;stroke:#000000;stroke-width:0.625" />
<path d="M44.058,805.87L49.058,805.87" style="fill:none;stroke:#000000;stroke-width:0.625" />
<path d="M49.058,51.226L49.058,806.88" style="fill:none;stroke:#000000;stroke-width:0.625" />
<path d="M59.37,743.7L63.977,745.77L68.584,776.62L73.191,764.97L77.798,761.72L82.405,764.95L87.012,785.72L91.619,786.43L96.226,770.37L100.83,783.67L105.44,795.49L110.05,779.77L114.65,755.19L119.26,772.82L123.87,741.33L128.48,730L133.08,758.23L137.69,748.9L142.3,737.66L146.9,707.54L151.51,704.22L156.12,703.24L160.72,713.08L165.33,729.28L169.94,708.37L174.55,718.93L179.15,732.65L183.76,738.22L188.37,749.38L192.97,735.03L197.58,748.26L202.19,753.84L206.8,771.45L211.4,757.11L216.01,785.78L220.62,800.23L225.22,772.76L229.83,797.63L234.44,788.89L239.04,775.06L243.65,764.74L248.26,757.37L252.87,751.86L257.47,751.59L262.08,765.22L266.69,739.44L271.29,728.65L275.9,735.09L280.51,725.09L285.12,719.64L289.72,704.79L294.33,721.15L298.94,704.19L303.54,720.94L308.15,721.13L312.76,716.95L317.36,744.19L321.97,737.13L326.58,749.86L331.19,759.74L335.79,768.13L340.4,766.19L345.01,787.31L349.61,764.58L354.22,799.08L358.83,794.45L363.43,787.91L368.04,772.35L372.65,774.16L377.26,793.25L381.86,790.44L386.47,758.78L391.08,772.87L395.68,762.92L400.29,746.29L404.9,724.76L409.51,715.07L414.11,726.16L418.72,716.74L423.33,704.66L427.93,713.64L432.54,715.77L437.15,712.87L441.75,698.29L446.36,715.02L450.97,705.65L455.58,722.05L460.18,719.51L464.79,733.16L469.4,759.1L474,769.43L478.61,771.64L483.22,793.19L487.82,778.86L492.43,797.88L497.04,777.13L501.65,791.18L506.25,797.53L510.86,788.41L515.47,769.85L520.07,762.55L524.68,762.76L529.29,771.03L533.9,749.23L538.5,751.35L543.11,748.87L547.72,710.48L552.32,736.79L556.93,706.4L561.54,697.62L566.14,719.86L570.75,711.84L575.36,721.87L579.97,733.87L584.57,736.83L589.18,708.72L593.79,744.16L598.39,732.19L603,766.45L607.61,772.28L612.21,748.88L616.82,778.02L621.43,776.78L626.04,799.78L630.64,794.74L635.25,801.31L639.86,803.06L644.46,768.31L649.07,775.54L653.68,792.59L658.29,770.99L662.89,771.26L667.5,767.03L672.11,740.77L676.71,733.03L681.32,733.19L685.93,731.87L690.53,725.25L695.14,700.29L699.75,697.07L704.36,707.18L708.96,724.87L713.57,699L718.18,735.47L722.78,711.7L727.39,730.55L732,725.41L736.6,749.48L741.21,747.94L745.82,758.56L750.43,776.08L755.03,760.66L759.64,783.63L764.25,789.78L768.85,804.59L773.46,774.08L778.07,796.56L782.68,792.55L787.28,797.23L791.89,761.93L796.5,777.82L801.1,769.82L805.71,749.11L810.32,740.28L814.92,734.74L819.53,732.36L824.14,706.36L828.75,728.15L833.35,720.1L837.96,730.14L842.57,695.68L847.17,731.25L851.78,709.05L856.39,728.79L861,735.05L865.6,749.57L870.21,754.91L874.82,742.03L879.42,741.94L884.03,761.21L888.64,785.46L893.24,780.02L897.85,776.94L902.46,770.32L907.07,785.34L911.67,805.5L916.28,779.3L920.89,765.83L925.49,783.67L930.1,780.54L934.71,755.23L939.31,740.46L943.92,755.55L948.53,734.7L953.14,723.99L957.74,714.95L962.35,704.87L966.96,714.8L971.56,701.97L976.17,694.67" style="fill:none;stroke:#F15A60;stroke-width:1.25" />
<path d="M62.495,743.7A3.125,3.125 0 1 1 56.245,743.7A3.125,3.125 0 1 1 62.495,743.7Z" style="fill:none;stroke:#F15A60;stroke-width:0.625" />
<path d="M67.102,745.77L67.102,745.77A3.125,3.125 0 1 1 60.852,745.77A3.125,3.125 0 1 1 67.102,745.77Z" style="fill:none;stroke:#F15A60;stroke-width:0.625" />
<path d="M71.709,776.62A3.125,3.125 0 1 1 65.459,776.62A3.125,3.125 0 1 1 71.709,776.62Z" style="fill:none;stroke:#F15A60;stroke-width:0.625" />
<path d="M76.316,764.97A3.125,3.125 0 1 1 70.066,764.97A3.125,3.125 0 1 1 76.316,764.97Z" style="fill:none;stroke:#F15A60;stroke-width:0.625" />
<path d="M80.923,761.72A3.125,3.125 0 1 1 74.673,761.72A3.125,3.125 0 1 1 80.923,761.72Z" style="fill:none;stroke:#F15A60;stroke-width:0.625" />
<path d="M85.53,764.95A3.125,3.125 0 1 1 79.28,764.95A3.125,3.125 0 1 1 85.53,764.95Z" style="fill:none;stroke:#F15A60;stroke-width:0.625" />
<path d="M90.137,785.72A3.125,3.125 0 1 1 83.887,785.72A3.125,3.125 0 1 1 90.137,785.72Z" style="fill:none;stroke:#F15A60;stroke-width:0.625" />
<path d="M94.744,786.43A3.125,3.125 0 1 1 88.494,786.43A3.125,3.125 0 1 1 94.744,786.43Z" style="fill:none;stroke:#F15A60;stroke-width:0.625" />
<path d="M99.351,770.37L99.351,770.37A3.125,3.125 0 1 1 93.101,770.37A3.125,3.125 0 1 1 99.351,770.37Z" style="fill:none;stroke:#F15A60;stroke-width:0.625" />
<path d="M103.96,783.67L103.96,783.67A3.125,3.125 0 1 1 97.708,783.67A3.125,3.125 0 1 1 103.96,783.67Z" style="fill:none;stroke:#F15A60;stroke-width:0.625" />
<path d="M108.57,795.49A3.125,3.125 0 1 1 102.32,795.49A3.125,3.125 0 1 1 108.57,795.49Z" style="fill:none;stroke:#F15A60;stroke-width:0.625" />
<path d="M113.17,779.77A3.125,3.125 0 1 1 106.92,779.77A3.125,3.125 0 1 1 113.17,779.77Z" style="fill:none;stroke:#F15A60;stroke-width:0.625" />
<path d="M117.78,755.19L117.78,755.19A3.125,3.125 0 1 1 111.53,755.19A3.125,3.125 0 1 1 117.78,755.19Z" style="fill:none;stroke:#F15A60;stroke-width:0.625" />
<path d="M122.39,772.82L122.39,772.82A3.125,3.125 0 1 1 116.14,772.82A3.125,3.125 0 1 1 122.39,772.82Z" style="fill:none;stroke:#F15A60;stroke-width:0.625" />
<path d="M126.99,741.33L126.99,741.33A3.125,3.125 0 1 1 120.74,741.33A3.125,3.125 0 1 1 126.99,741.33Z" style="fill:none;stroke:#F15A60;stroke-width:0.625" />
<path d="M131.6,730L131.6,730A3.125,3.125 0 1 1 125.35,730A3.125,3.125 0 1 1 131.6,730Z" style="fill:none;stroke:#F15A60;stroke-width:0.625" />
<path d="M136.21,758.23A3.125,3.125 0 1 1 129.96,758.23A3.125,3.125 0 1 1 136.21,758.23Z" style="fill:none;stroke:#F15A60;stroke-width:0.625" />
<path d="M140.81,748.9L140.81,748.9A3.125,3.125 0 1 1 134.56,748.9A3.125,3.125 0 1 1 140.81,748.9Z" style="fill:none;stroke:#F15A60;stroke-width:0.625" />
<path d="M145.42,737.66A3.125,3.125 0 1 1 139.17,737.66A3.125,3.125 0 1 1 145.42,737.66Z" style="fill:none;stroke:#F15A60;stroke-width:0.625" />
<path d="M150.03,707.54A3.125,3.125 0 1 1 143.78,707.54A3.125,3.125 0 1 1 150.03,707.54Z" style="fill:none;stroke:#F15A60;stroke-width:0.625" />
<path d="M154.64,704.22A3.125,3.125 0 1 1 148.39,704.22A3.125,3.125 0 1 1 154.64,704.22Z" style="fill:none;stroke:#F15A60;stroke-width:0.625" />
<path d="M159.24,703.24A3.125,3.125 0 1 1 152.99,703.24A3.125,3.125 0 1 1 159.24,703.24Z" style="fill:none;stroke:#F15A60;stroke-width:0.625" />
<path d="M163.85,713.08A3.125,3.125 0 1 1 157.6,713.08A3.125,3.125 0 1 1 163.85,713.08Z" style="fill:none;stroke:#F15A60;stroke-width:0.625" />
<path d="M168.46,729.28A3.125,3.125 0 1 1 162.21,729.28A3.125,3.125 0 1 1 168.46,729.28Z" style="fill:none;stroke:#F15A60;stroke-width:0.625" />
<path d="M173.06,708.37A3.125,3.125 0 1 1 166.81,708.37A3.125,3.125 0 1 1 173.06,708.37Z" style="fill:none;stroke:#F15A60;stroke-width:0.625" />
<path d="M177.67,718.93A3.125,3.125 0 1 1 171.42,718.93A3.125,3.125 0 1 1 177.67,718.93Z" style="fill:none;stroke:#F15A60;stroke-width:0.625" />
<path d="M182.28,732.65A3.125,3.125 0 1 1 176.03,732.65A3.125,3.125 0 1 1 182.28,732.65Z" style="fill:none;stroke:#F15A60;stroke-width:0.625" />
<path d="M186.89,738.22L186.89,738.22A3.125,3.125 0 1 1 180.64,738.22A3.125,3.125 0 1 1 186.89,738.22Z" style="fill:none;stroke:#F15A60;stroke-width:0.625" />
<path d="M191.49,749.38A3.125,3.125 0 1 1 185.24,749.38A3.125,3.125 0 1 1 191.49,749.38Z" style="fill:none;stroke:#F15A60;stroke-width:0.625" />
<path d="M196.1,735.03L196.1,735.03A3.125,3.125 0 1 1 189.85,735.03A3.125,3.125 0 1 1 196.1,735.03Z" style="fill:none;stroke:#F15A60;stroke-width:0.625" />
<path d="M200.71,748.26L200.71,748.26A3.125,3.125 0 1 1 194.46,748.26A3.125,3.125 0 1 1 200.71,748.26Z" style="fill:none;stroke:#F15A60;stroke-width:0.625" />
<path d="M205.31,753.84L205.31,753.84A3.125,3.125 0 1 1 199.06,753.84A3.125,3.125 0 1 1 205.31,753.84Z" style="fill:none;stroke:#F15A60;stroke-width:0.625" />
<path d="M209.92,771.45L209.92,771.45A3.125,3.125 0 1 1 203.67,771.45A3.125,3.125 0 1 1 209.92,771.45Z" style="fill:none;stroke:#F15A60;stroke-width:0.625" />
<path d="M214.53,757.11A3.125,3.125 0 1 1 208.28,757.11A3.125,3.125 0 1 1 214.53,757.11Z" style="fill:none;stroke:#F15A60;stroke-width:0.625" />
<path d="M219.13,785.78A3.125,3.125 0 1 1 212.88,785.78A3.125,3.125 0 1 1 219.13,785.78Z" style="fill:none;stroke:#F15A60;stroke-width:0.625" />
<path d="M223.74,800.23L223.74,800.23A3.125,3.125 0 1 1 217.49,800.23A3.125,3.125 0 1 1 223.74,800.23Z" style="fill:none;stroke:#F15A60;stroke-width:0.625" />
<path d="M228.35,772.76L228.35,772.76A3.125,3.125 0 1 1 222.1,772.76A3.125,3.125 0 1 1 228.35,772.76Z" style="fill:none;stroke:#F15A60;stroke-width:0.625" />
<path d="M232.96,797.63A3.125,3.125 0 1 1 226.71,797.63A3.125,3.125 0 1 1 232.96,797.63Z" style="fill:none;stroke:#F15A60;stroke-width:0.625" />
<path d="M237.56,788.89A3.125,3.125 0 1 1 231.31,788.89A3.125,3.125 0 1 1 237.56,788.89Z" style="fill:none;stroke:#F15A60;stroke-width:0.625" />
<path d="M242.17,775.06A3.125,3.125 0 1 1 235.92,775.06A3.125,3.125 0 1 1 242.17,775.06Z" style="fill:none;stroke:#F15A60;stroke-width:0.625" />
<path d="M246.78,764.74A3.125,3.125 0 1 1 240.53,764.74A3.125,3.125 0 1 1 246.78,764.74Z" style="fill:none;stroke:#F15A60;stroke-width:0.625" />
<path d="M251.38,757.37A3.125,3.125 0 1 1 245.13,757.37A3.125,3.125 0 1 1 251.38,757.37Z" style="fill:none;stroke:#F15A60;stroke-width:0.625" />
<path d="M255.99,751.86A3.125,3.125 0 1 1 249.74,751.86A3.125,3.125 0 1 1 255.99,751.86Z" style="fill:none;stroke:#F15A60;stroke-width:0.625" />
<path d="M260.6,751.59L260.6,751.59A3.125,3.125 0 1 1 254.35,751.59A3.125,3.125 0 1 1 260.6,751.59Z" style="fill:none;stroke:#F15A60;stroke-width:0.625" />
<path d="M265.2,765.22A3.125,3.125 0 1 1 258.95,765.22A3.125,3.125 0 1 1 265.2,765.22Z" style="fill:none;stroke:#F15A60;stroke-width:0.625" />
<path d="M269.81,739.44A3.125,3.125 0 1 1 263.56,739.44A3.125,3.125 0 1 1 269.81,739.44Z" style="fill:none;stroke:#F15A60;stroke-width:0.625" />
<path d="M274.42,728.65A3.125,3.125 0 1 1 268.17,728.65A3.125,3.125 0 1 1 274.42,728.65Z" style="fill:none;stroke:#F15A60;stroke-width:0.625" />
<path d="M279.03,735.09A3.125,3.125 0 1 1 272.78,735.09A3.125,3.125 0 1 1 279.03,735.09Z" style="fill:none;stroke:#F15A60;stroke-width:0.625" />
<path d="M283.63,725.09A3.125,3.125 0 1 1 277.38,725.09A3.125,3.125 0 1 1 283.63,725.09Z" style="fill:none;stroke:#F15A60;stroke-width:0.625" />
<path d="M288.24,719.64L288.24,719.64A3.125,3.125 0 1 1 281.99,719.64A3.125,3.125 0 1 1 288.24,719.64Z" style="fill:none;stroke:#F15A60;stroke-width:0.625" />
<path d="M292.85,704.79L292.85,704.79A3.125,3.125 0 1 1 286.6,704.79A3.125,3.125 0 1 1 292.85,704.79Z" style="fill:none;stroke:#F15A60;stroke-width:0.625" />
<path d="M297.45,721.15A3.125,3.125 0 1 1 291.2,721.15A3.125,3.125 0 1 1 297.45,721.15Z" style="fill:none;stroke:#F15A60;stroke-width:0.625" />
<path d="M302.06,704.19A3.125,3.125 0 1 1 295.81,704.19A3.125,3.125 0 1 1 302.06,704.19Z" style="fill:none;stroke:#F15A60;stroke-width:0.625" />
<path d="M306.67,720.94A3.125,3.125 0 1 1 300.42,720.94A3.125,3.125 0 1 1 306.67,720.94Z" style="fill:none;stroke:#F15A60;stroke-width:0.625" />
<path d="M311.28,721.13A3.125,3.125 0 1 1 305.03,721.13A3.125,3.125 0 1 1 311.28,721.13Z" style="fill:none;stroke:#F15A60;stroke-width:0.625" />
<path d="M315.88,716.95A3.125,3.125 0 1 1 309.63,716.95A3.125,3.125 0 1 1 315.88,716.95Z" style="fill:none;stroke:#F15A60;stroke-width:0.625" />
<path d="M320.49,744.19A3.125,3.125 0 1 1 314.24,744.19A3.125,3.125 0 1 1 320.49,744.19Z" style="fill:none;stroke:#F15A60;stroke-width:0.625" />
<path d="M325.1,737.13A3.125,3.125 0 1 1 318.85,737.13A3.125,3.125 0 1 1 325.1,737.13Z" style="fill:none;stroke:#F15A60;stroke-width:0.625" />
<path d="M329.7,749.86A3.125,3.125 0 1 1 323.45,749.86A3.125,3.125 0 1 1 329.7,749.86Z" style="fill:none;stroke:#F15A60;stroke-width:0.625" />
<path d="M334.31,759.74L334.31,759.74A3.125,3.125 0 1 1 328.06,759.74A3.125,3.125 0 1 1 334.31,759.74Z" style="fill:none;stroke:#F15A60;stroke-width:0.625" />
<path d="M338.92,768.13L338.92,768.13A3.125,3.125 0 1 1 332.67,768.13A3.125,3.125 0 1 1 338.92,768.13Z" style="fill:none;stroke:#F15A60;stroke-width:0.625" />
<path d="M343.52,766.19A3.125,3.125 0 1 1 337.27,766.19A3.125,3.125 0 1 1 343.52,766.19Z" style="fill:none;stroke:#F15A60;stroke-width:0.625" />
<path d="M348.13,787.31L348.13,787.31A3.125,3.125 0 1 1 341.88,787.31A3.125,3.125 0 1 1 348.13,787.31Z" style="fill:none;stroke:#F15A60;stroke-width:0.625" />
<path d="M352.74,764.58A3.125,3.125 0 1 1 346.49,764.58A3.125,3.125 0 1 1 352.74,764.58Z" style="fill:none;stroke:#F15A60;stroke-width:0.625" />
<path d="M357.35,799.08L357.35,799.08A3.125,3.125 0 1 1 351.1,799.08A3.125,3.125 0 1 1 357.35,799.08Z" style="fill:none;stroke:#F15A60;stroke-width:0.625" />
<path d="M361.95,794.45A3.125,3.125 0 1 1 355.7,794.45A3.125,3.125 0 1 1 361.95,794.45Z" style="fill:none;stroke:#F15A60;stroke-width:0.625" />
<path d="M366.56,787.91A3.125,3.125 0 1 1 360.31,787.91A3.125,3.125 0 1 1 366.56,787.91Z" style="fill:none;stroke:#F15A60;stroke-width:0.625" />
<path d="M371.17,772.35L371.17,772.35A3.125,3.125 0 1 1 364.92,772.35A3.125,3.125 0 1 1 371.17,772.35Z" style="fill:none;stroke:#F15A60;stroke-width:0.625" />
<path d="M375.77,774.16A3.125,3.125 0 1 1 369.52,774.16A3.125,3.125 0 1 1 375.77,774.16Z" style="fill:none;stroke:#F15A60;stroke-width:0.625" />
<path d="M380.38,793.25A3.125,3.125 0 1 1 374.13,793.25A3.125,3.125 0 1 1 380.38,793.25Z" style="fill:none;stroke:#F15A60;stroke-width:0.625" />
<path d="M384.99,790.44A3.125,3.125 0 1 1 378.74,790.44A3.125,3.125 0 1 1 384.99,790.44Z" style="fill:none;stroke:#F15A60;stroke-width:0.625" />
<path d="M389.59,758.78A3.125,3.125 0 1 1 383.34,758.78A3.125,3.125 0 1 1 389.59,758.78Z" style="fill:none;stroke:#F15A60;stroke-width:0.625" />
<path d="M394.2,772.87L394.2,772.87A3.125,3.125 0 1 1 387.95,772.87A3.125,3.125 0 1 1 394.2,772.87Z" style="fill:none;stroke:#F15A60;stroke-width:0.625" />
<path d="M398.81,762.92A3.125,3.125 0 1 1 392.56,762.92A3.125,3.125 0 1 1 398.81,762.92Z" style="fill:none;stroke:#F15A60;stroke-width:0.625" />
<path d="M403.42,746.29A3.125,3.125 0 1 1 397.17,746.29A3.125,3.125 0 1 1 403.42,746.29Z" style="fill:none;stroke:#F15A60;stroke-width:0.625" />
<path d="M408.02,724.76L408.02,724.76A3.125,3.125 0 1 1 401.77,724.76A3.125,3.125 0 1 1 408.02,724.76Z" style="fill:none;stroke:#F15A60;stroke-width:0.625" />
<path d="M412.63,715.07A3.125,3.125 0 1 1 406.38,715.07A3.125,3.125 0 1 1 412.63,715.07Z" style="fill:none;stroke:#F15A60;stroke-width:0.625" />
<path d="M417.24,726.16A3.125,3.125 0 1 1 410.99,726.16A3.125,3.125 0 1 1 417.24,726.16Z" style="fill:none;stroke:#F15A60;stroke-width:0.625" />
<path d="M421.84,716.74A3.125,3.125 0 1 1 415.59,716.74A3.125,3.125 0 1 1 421.84,716.74Z" style="fill:none;stroke:#F15A60;stroke-width:0.625" />
<path d="M426.45,704.66L426.45,704.66A3.125,3.125 0 1 1 420.2,704.66A3.125,3.125 0 1 1 426.45,704.66Z" style="fill:none;stroke:#F15A60;stroke-width:0.625" />
<path d="M431.06,713.64A3.125,3.125 0 1 1 424.81,713.64A3.125,3.125 0 1 1 431.06,713.64Z" style="fill:none;stroke:#F15A60;stroke-width:0.625" />
<path d="M435.67,715.77A3.125,3.125 0 1 1 429.42,715.77A3.125,3.125 0 1 1 435.67,715.77Z" style="fill:none;stroke:#F15A60;stroke-width:0.625" />
<path d="M440.27,712.87A3.125,3.125 0 1 1 434.02,712.87A3.125,3.125 0 1 1 440.27,712.87Z" style="fill:none;stroke:#F15A60;stroke-width:0.625" />
<path d="M444.88,698.29A3.125,3.125 0 1 1 438.63,698.29A3.125,3.125 0 1 1 444.88,698.29Z" style="fill:none;stroke:#F15A60;stroke-width:0.625" />
<path d="M449.49,715.02A3.125,3.125 0 1 1 443.24,715.02A3.125,3.125 0 1 1 449.49,715.02Z" style="fill:none;stroke:#F15A60;stroke-width:0.625" />
<path d="M454.09,705.65A3.125,3.125 0 1 1 447.84,705.65A3.125,3.125 0 1 1 454.09,705.65Z" style="fill:none;stroke:#F15A60;stroke-width:0.625" />
<path d="M458.7,722.05A3.125,3.125 0 1 1 452.45,722.05A3.125,3.125 0 1 1 458.7,722.05Z" style="fill:none;stroke:#F15A60;stroke-width:0.625" />
<path d="M463.31,719.51A3.125,3.125 0 1 1 457.06,719.51A3.125,3.125 0 1 1 463.31,719.51Z" style="fill:none;stroke:#F15A60;stroke-width:0.625" />
<path d="M467.91,733.16A3.125,3.125 0 1 1 461.66,733.16A3.125,3.125 0 1 1 467.91,733.16Z" style="fill:none;stroke:#F15A60;stroke-width:0.625" />
<path d="M472.52,759.1A3.125,3.125 0 1 1 466.27,759.1A3.125,3.125 0 1 1 472.52,759.1Z" style="fill:none;stroke:#F15A60;stroke-width:0.625" />
<path d="M477.13,769.43A3.125,3.125 0 1 1 470.88,769.43A3.125,3.125 0 1 1 477.13,769.43Z" style="fill:none;stroke:#F15A60;stroke-width:0.625" />
<path d="M481.74,771.64L481.74,771.64A3.125,3.125 0 1 1 475.49,771.64A3.125,3.125 0 1 1 481.74,771.64Z" style="fill:none;stroke:#F15A60;stroke-width:0.625" />
<path d="M486.34,793.19A3.125,3.125 0 1 1 480.09,793.19A3.125,3.125 0 1 1 486.34,793.19Z" style="fill:none;stroke:#F15A60;stroke-width:0.625" />
<path d="M490.95,778.86L490.95,778.86A3.125,3.125 0 1 1 484.7,778.86A3.125,3.125 0 1 1 490.95,778.86Z" style="fill:none;stroke:#F15A60;stroke-width:0.625" />
<path d="M495.56,797.88L495.56,797.88A3.125,3.125 0 1 1 489.31,797.88A3.125,3.125 0 1 1 495.56,797.88Z" style="fill:none;stroke:#F15A60;stroke-width:0.625" />
<path d="M500.16,777.13A3.125,3.125 0 1 1 493.91,777.13A3.125,3.125 0 1 1 500.16,777.13Z" style="fill:none;stroke:#F15A60;stroke-width:0.625" />
<path d="M504.77,791.18A3.125,3.125 0 1 1 498.52,791.18A3.125,3.125 0 1 1 504.77,791.18Z" style="fill:none;stroke:#F15A60;stroke-width:0.625" />
<path d="M509.38,797.53A3.125,3.125 0 1 1 503.13,797.53A3.125,3.125 0 1 1 509.38,797.53Z" style="fill:none;stroke:#F15A60;stroke-width:0.625" />
<path d="M513.99,788.41A3.125,3.125 0 1 1 507.74,788.41A3.125,3.125 0 1 1 513.99,788.41Z" style="fill:none;stroke:#F15A60;stroke-width:0.625" />
<path d="M518.59,769.85A3.125,3.125 0 1 1 512.34,769.85A3.125,3.125 0 1 1 518.59,769.85Z" style="fill:none;stroke:#F15A60;stroke-width:0.625" />
<path d="M523.2,762.55L523.2,762.55A3.125,3.125 0 1 1 516.95,762.55A3.125,3.125 0 1 1 523.2,762.55Z" style="fill:none;stroke:#F15A60;stroke-width:0.625" />
<path d="M527.81,762.76A3.125,3.125 0 1 1 521.56,762.76A3.125,3.125 0 1 1 527.81,762.76Z" style="fill:none;stroke:#F15A60;stroke-width:0.625" />
<path d="M532.41,771.03A3.125,3.125 0 1 1 526.16,771.03A3.125,3.125 0 1 1 532.41,771.03Z" style="fill:none;stroke:#F15A60;stroke-width:0.625" />
<path d="M537.02,749.23A3.125,3.125 0 1 1 530.77,749.23A3.125,3.125 0 1 1 537.02,749.23Z" style="fill:none;stroke:#F15A60;stroke-width:0.625" />
<path d="M541.63,751.35A3.125,3.125 0 1 1 535.38,751.35A3.125,3.125 0 1 1 541.63,751.35Z" style="fill:none;stroke:#F15A60;stroke-width:0.625" />
<path d="M546.23,748.87A3.125,3.125 0 1 1 539.98,748.87A3.125,3.125 0 1 1 546.23,748.87Z" style="fill:none;stroke:#F15A60;stroke-width:0.625" />
<path d="M550.84,710.48A3.125,3.125 0 1 1 544.59,710.48A3.125,3.125 0 1 1 550.84,710.48Z" style="fill:none;stroke:#F15A60;stroke-width:0.625" />
<path d="M555.45,736.79L555.45,736.79A3.125,3.125 0 1 1 549.2,736.79A3.125,3.125 0 1 1 555.45,736.79Z" style="fill:none;stroke:#F15A60;stroke-width:0.625" />
<path d="M560.06,706.4A3.125,3.125 0 1 1 553.81,706.4A3.125,3.125 0 1 1 560.06,706.4Z" style="fill:none;stroke:#F15A60;stroke-width:0.625" />
<path d="M564.66,697.62A3.125,3.125 0 1 1 558.41,697.62A3.125,3.125 0 1 1 564.66,697.62Z" style="fill:none;stroke:#F15A60;stroke-width:0.625" />
<path d="M569.27,719.86A3.125,3.125 0 1 1 563.02,719.86A3.125,3.125 0 1 1 569.27,719.86Z" style="fill:none;stroke:#F15A60;stroke-width:0.625" />
<path d="M573.88,711.84A3.125,3.125 0 1 1 567.63,711.84A3.125,3.125 0 1 1 573.88,711.84Z" style="fill:none;stroke:#F15A60;stroke-width:0.625" />
<path d="M578.48,721.87A3.125,3.125 0 1 1 572.23,721.87A3.125,3.125 0 1 1 578.48,721.87Z" style="fill:none;stroke:#F15A60;stroke-width:0.625" />
<path d="M583.09,733.87A3.125,3.125 0 1 1 576.84,733.87A3.125,3.125 0 1 1 583.09,733.87Z" style="fill:none;stroke:#F15A60;stroke-width:0.625" />
<path d="M587.7,736.83A3.125,3.125 0 1 1 581.45,736.83A3.125,3.125 0 1 1 587.7,736.83Z" style="fill:none;stroke:#F15A60;stroke-width:0.625" />
<path d="M592.3,708.72A3.125,3.125 0 1 1 586.05,708.72A3.125,3.125 0 1 1 592.3,708.72Z" style="fill:none;stroke:#F15A60;stroke-width:0.625" />
<path d="M596.91,744.16A3.125,3.125 0 1 1 590.66,744.16A3.125,3.125 0 1 1 596.91,744.16Z" style="fill:none;stroke:#F15A60;stroke-width:0.625" />
<path d="M601.52,732.19A3.125,3.125 0 1 1 595.27,732.19A3.125,3.125 0 1 1 601.52,732.19Z" style="fill:none;stroke:#F15A60;stroke-width:0.625" />
<path d="M606.13,766.45A3.125,3.125 0 1 1 599.88,766.45A3.125,3.125 0 1 1 606.13,766.45Z" style="fill:none;stroke:#F15A60;stroke-width:0.625" />
<path d="M610.73,772.28L610.73,772.28A3.125,3.125 0 1 1 604.48,772.28A3.125,3.125 0 1 1 610.73,772.28Z" style="fill:none;stroke:#F15A60;stroke-width:0.625" />
<path d="M615.34,748.88A3.125,3.125 0 1 1 609.09,748.88A3.125,3.125 0 1 1 615.34,748.88Z" style="fill:none;stroke:#F15A60;stroke-width:0.625" />
<path d="M619.95,778.02A3.125,3.125 0 1 1 613.7,778.02A3.125,3.125 0 1 1 619.95,778.02Z" style="fill:none;stroke:#F15A60;stroke-width:0.625" />
<path d="M624.55,776.78A3.125,3.125 0 1 1 618.3,776.78A3.125,3.125 0 1 1 624.55,776.78Z" style="fill:none;stroke:#F15A60;stroke-width:0.625" />
<path d="M629.16,799.78A3.125,3.125 0 1 1 622.91,799.78A3.125,3.125 0 1 1 629.16,799.78Z" style="fill:none;stroke:#F15A60;stroke-width:0.625" />
<path d="M633.77,794.74A3.125,3.125 0 1 1 627.52,794.74A3.125,3.125 0 1 1 633.77,794.74Z" style="fill:none;stroke:#F15A60;stroke-width:0.625" />
<path d="M638.38,801.31A3.125,3.125 0 1 1 632.13,801.31A3.125,3.125 0 1 1 638.38,801.31Z" style="fill:none;stroke:#F15A60;stroke-width:0.625" />
<path d="M642.98,803.06L642.98,803.06A3.125,3.125 0 1 1 636.73,803.06A3.125,3.125 0 1 1 642.98,803.06Z" style="fill:none;stroke:#F15A60;stroke-width:0.625" />
<path d="M647.59,768.31A3.125,3.125 0 1 1 641.34,768.31A3.125,3.125 0 1 1 647.59,768.31Z" style="fill:none;stroke:#F15A60;stroke-width:0.625" />
<path d="M652.2,775.54L652.2,775.54A3.125,3.125 0 1 1 645.95,775.54A3.125,3.125 0 1 1 652.2,775.54Z" style="fill:none;stroke:#F15A60;stroke-width:0.625" />
<path d="M656.8,792.59A3.125,3.125 0 1 1 650.55,792.59A3.125,3.125 0 1 1 656.8,792.59Z" style="fill:none;stroke:#F15A60;stroke-width:0.625" />
<path d="M661.41,770.99A3.125,3.125 0 1 1 655.16,770.99A3.125,3.125 0 1 1 661.41,770.99Z" style="fill:none;stroke:#F15A60;stroke-width:0.625" />
<path d="M666.02,771.26L666.02,771.26A3.125,3.125 0 1 1 659.77,771.26A3.125,3.125 0 1 1 666.02,771.26Z" style="fill:none;stroke:#F15A60;stroke-width:0.625" />
<path d="M670.62,767.03A3.125,3.125 0 1 1 664.37,767.03A3.125,3.125 0 1 1 670.62,767.03Z" style="fill:none;stroke:#F15A60;stroke-width:0.625" />
<path d="M675.23,740.77A3.125,3.125 0 1 1 668.98,740.77A3.125,3.125 0 1 1 675.23,740.77Z" style="fill:none;stroke:#F15A60;stroke-width:0.625" />
<path d="M679.84,733.03A3.125,3.125 0 1 1 673.59,733.03A3.125,3.125 0 1 1 679.84,733.03Z" style="fill:none;stroke:#F15A60;stroke-width:0.625" />
<path d="M684.45,733.19A3.125,3.125 0 1 1 678.2,733.19A3.125,3.125 0 1 1 684.45,733.19Z" style="fill:none;stroke:#F15A60;stroke-width:0.625" />
<path d="M689.05,731.87A3.125,3.125 0 1 1 682.8,731.87A3.125,3.125 0 1 1 689.05,731.87Z" style="fill:none;stroke:#F15A60;stroke-width:0.625" />
<path d="M693.66,725.25A3.125,3.125 0 1 1 687.41,725.25A3.125,3.125 0 1 1 693.66,725.25Z" style="fill:none;stroke:#F15A60;stroke-width:0.625" />
<path d="M698.27,700.29A3.125,3.125 0 1 1 692.02,700.29A3.125,3.125 0 1 1 698.27,700.29Z" style="fill:none;stroke:#F15A60;stroke-width:0.625" />
<path d="M702.87,697.07A3.125,3.125 0 1 1 696.62,697.07A3.125,3.125 0 1 1 702.87,697.07Z" style="fill:none;stroke:#F15A60;stroke-width:0.625" />
<path d="M707.48,707.18A3.125,3.125 0 1 1 701.23,707.18A3.125,3.125 0 1 1 707.48,707.18Z" style="fill:none;stroke:#F15A60;stroke-width:0.625" />
<path d="M712.09,724.87A3.125,3.125 0 1 1 705.84,724.87A3.125,3.125 0 1 1 712.09,724.87Z" style="fill:none;stroke:#F15A60;stroke-width:0.625" />
<path d="M716.69,699A3.125,3.125 0 1 1 710.44,699A3.125,3.125 0 1 1 716.69,699Z" style="fill:none;stroke:#F15A60;stroke-width:0.625" />
<path d="M721.3,735.47A3.125,3.125 0 1 1 715.05,735.47A3.125,3.125 0 1 1 721.3,735.47Z" style="fill:none;stroke:#F15A60;stroke-width:0.625" />
<path d="M725.91,711.7L725.91,711.7A3.125,3.125 0 1 1 719.66,711.7A3.125,3.125 0 1 1 725.91,711.7Z" style="fill:none;stroke:#F15A60;stroke-width:0.625" />
<path d="M730.52,730.55L730.52,730.55A3.125,3.125 0 1 1 724.27,730.55A3.125,3.125 0 1 1 730.52,730.55Z" style="fill:none;stroke:#F15A60;stroke-width:0.625" />
<path d="M735.12,725.41A3.125,3.125 0 1 1 728.87,725.41A3.125,3.125 0 1 1 735.12,725.41Z" style="fill:none;stroke:#F15A60;stroke-width:0.625" />
<path d="M739.73,749.48L739.73,749.48A3.125,3.125 0 1 1 733.48,749.48A3.125,3.125 0 1 1 739.73,749.48Z" style="fill:none;stroke:#F15A60;stroke-width:0.625" />
<path d="M744.34,747.94A3.125,3.125 0 1 1 738.09,747.94A3.125,3.125 0 1 1 744.34,747.94Z" style="fill:none;stroke:#F15A60;stroke-width:0.625" />
<path d="M748.94,758.56A3.125,3.125 0 1 1 742.69,758.56A3.125,3.125 0 1 1 748.94,758.56Z" style="fill:none;stroke:#F15A60;stroke-width:0.625" />
<path d="M753.55,776.08A3.125,3.125 0 1 1 747.3,776.08A3.125,3.125 0 1 1 753.55,776.08Z" style="fill:none;stroke:#F15A60;stroke-width:0.625" />
<path d="M758.16,760.66A3.125,3.125 0 1 1 751.91,760.66A3.125,3.125 0 1 1 758.16,760.66Z" style="fill:none;stroke:#F15A60;stroke-width:0.625" />
<path d="M762.77,783.63L762.77,783.63A3.125,3.125 0 1 1 756.52,783.63A3.125,3.125 0 1 1 762.77,783.63Z" style="fill:none;stroke:#F15A60;stroke-width:0.625" />
<path d="M767.37,789.78A3.125,3.125 0 1 1 761.12,789.78A3.125,3.125 0 1 1 767.37,789.78Z" style="fill:none;stroke:#F15A60;stroke-width:0.625" />
<path d="M771.98,804.59L771.98,804.59A3.125,3.125 0 1 1 765.73,804.59A3.125,3.125 0 1 1 771.98,804.59Z" style="fill:none;stroke:#F15A60;stroke-width:0.625" />
<path d="M776.59,774.08L776.59,774.08A3.125,3.125 0 1 1 770.34,774.08A3.125,3.125 0 1 1 776.59,774.08Z" style="fill:none;stroke:#F15A60;stroke-width:0.625" />
<path d="M781.19,796.56L781.19,796.56A3.125,3.125 0 1 1 774.94,796.56A3.125,3.125 0 1 1 781.19,796.56Z" style="fill:none;stroke:#F15A60;stroke-width:0.625" />
<path d="M785.8,792.55L785.8,792.55A3.125,3.125 0 1 1 779.55,792.55A3.125,3.125 0 1 1 785.8,792.55Z" style="fill:none;stroke:#F15A60;stroke-width:0.625" />
<path d="M790.41,797.23L790.41,797.23A3.125,3.125 0 1 1 784.16,797.23A3.125,3.125 0 1 1 790.41,797.23Z" style="fill:none;stroke:#F15A60;stroke-width:0.625" />
<path d="M795.01,761.93A3.125,3.125 0 1 1 788.76,761.93A3.125,3.125 0 1 1 795.01,761.93Z" style="fill:none;stroke:#F15A60;stroke-width:0.625" />
<path d="M799.62,777.82L799.62,777.82A3.125,3.125 0 1 1 793.37,777.82A3.125,3.125 0 1 1 799.62,777.82Z" style="fill:none;stroke:#F15A60;stroke-width:0.625" />
<path d="M804.23,769.82A3.125,3.125 0 1 1 797.98,769.82A3.125,3.125 0 1 1 804.23,769.82Z" style="fill:none;stroke:#F15A60;stroke-width:0.625" />
<path d="M808.84,749.11L808.84,749.11A3.125,3.125 0 1 1 802.59,749.11A3.125,3.125 0 1 1 808.84,749.11Z" style="fill:none;stroke:#F15A60;stroke-width:0.625" />
<path d="M813.44,740.28A3.125,3.125 0 1 1 807.19,740.28A3.125,3.125 0 1 1 813.44,740.28Z" style="fill:none;stroke:#F15A60;stroke-width:0.625" />
<path d="M818.05,734.74L818.05,734.74A3.125,3.125 0 1 1 811.8,734.74A3.125,3.125 0 1 1 818.05,734.74Z" style="fill:none;stroke:#F15A60;stroke-width:0.625" />
<path d="M822.66,732.36L822.66,732.36A3.125,3.125 0 1 1 816.41,732.36A3.125,3.125 0 1 1 822.66,732.36Z" style="fill:none;stroke:#F15A60;stroke-width:0.625" />
<path d="M827.26,706.36L827.26,706.36A3.125,3.125 0 1 1 821.01,706.36A3.125,3.125 0 1 1 827.26,706.36Z" style="fill:none;stroke:#F15A60;stroke-width:0.625" />
<path d="M831.87,728.15L831.87,728.15A3.125,3.125 0 1 1 825.62,728.15A3.125,3.125 0 1 1 831.87,728.15Z" style="fill:none;stroke:#F15A60;stroke-width:0.625" />
<path d="M836.48,720.1L836.48,720.1A3.125,3.125 0 1 1 830.23,720.1A3.125,3.125 0 1 1 836.48,720.1Z" style="fill:none;stroke:#F15A60;stroke-width:0.625" />
<path d="M841.08,730.14L841.08,730.14A3.125,3.125 0 1 1 834.83,730.14A3.125,3.125 0 1 1 841.08,730.14Z" style="fill:none;stroke:#F15A60;stroke-width:0.625" />
<path d="M845.69,695.68L845.69,695.68A3.125,3.125 0 1 1 839.44,695.68A3.125,3.125 0 1 1 845.69,695.68Z" style="fill:none;stroke:#F15A60;stroke-width:0.625" />
<path d="M850.3,731.25L850.3,731.25A3.125,3.125 0 1 1 844.05,731.25A3.125,3.125 0 1 1 850.3,731.25Z" style="fill:none;stroke:#F15A60;stroke-width:0.625" />
<path d="M854.91,709.05L854.91,709.05A3.125,3.125 0 1 1 848.66,709.05A3.125,3.125 0 1 1 854.91,709.05Z" style="fill:none;stroke:#F15A60;stroke-width:0.625" />
<path d="M859.51,728.79L859.51,728.79A3.125,3.125 0 1 1 853.26,728.79A3.125,3.125 0 1 1 859.51,728.79Z" style="fill:none;stroke:#F15A60;stroke-width:0.625" />
<path d="M864.12,735.05L864.12,735.05A3.125,3.125 0 1 1 857.87,735.05A3.125,3.125 0 1 1 864.12,735.05Z" style="fill:none;stroke:#F15A60;stroke-width:0.625" />
<path d="M868.73,749.57L868.73,749.57A3.125,3.125 0 1 1 862.48,749.57A3.125,3.125 0 1 1 868.73,749.57Z" style="fill:none;stroke:#F15A60;stroke-width:0.625" />
<path d="M873.33,754.91A3.125,3.125 0 1 1 867.08,754.91A3.125,3.125 0 1 1 873.33,754.91Z" style="fill:none;stroke:#F15A60;stroke-width:0.625" />
<path d="M877.94,742.03L877.94,742.03A3.125,3.125 0 1 1 871.69,742.03A3.125,3.125 0 1 1 877.94,742.03Z" style="fill:none;stroke:#F15A60;stroke-width:0.625" />
<path d="M882.55,741.94A3.125,3.125 0 1 1 876.3,741.94A3.125,3.125 0 1 1 882.55,741.94Z" style="fill:none;stroke:#F15A60;stroke-width:0.625" />
<path d="M887.16,761.21L887.16,761.21A3.125,3.125 0 1 1 880.91,761.21A3.125,3.125 0 1 1 887.16,761.21Z" style="fill:none;stroke:#F15A60;stroke-width:0.625" />
<path d="M891.76,785.46A3.125,3.125 0 1 1 885.51,785.46A3.125,3.125 0 1 1 891.76,785.46Z" style="fill:none;stroke:#F15A60;stroke-width:0.625" />
<path d="M896.37,780.02L896.37,780.02A3.125,3.125 0 1 1 890.12,780.02A3.125,3.125 0 1 1 896.37,780.02Z" style="fill:none;stroke:#F15A60;stroke-width:0.625" />
<path d="M900.98,776.94A3.125,3.125 0 1 1 894.73,776.94A3.125,3.125 0 1 1 900.98,776.94Z" style="fill:none;stroke:#F15A60;stroke-width:0.625" />
<path d="M905.58,770.32L905.58,770.32A3.125,3.125 0 1 1 899.33,770.32A3.125,3.125 0 1 1 905.58,770.32Z" style="fill:none;stroke:#F15A60;stroke-width:0.625" />
<path d="M910.19,785.34L910.19,785.34A3.125,3.125 0 1 1 903.94,785.34A3.125,3.125 0 1 1 910.19,785.34Z" style="fill:none;stroke:#F15A60;stroke-width:0.625" />
<path d="M914.8,805.5L914.8,805.5A3.125,3.125 0 1 1 908.55,805.5A3.125,3.125 0 1 1 914.8,805.5Z" style="fill:none;stroke:#F15A60;stroke-width:0.625" />
<path d="M919.4,779.3L919.4,779.3A3.125,3.125 0 1 1 913.15,779.3A3.125,3.125 0 1 1 919.4,779.3Z" style="fill:none;stroke:#F15A60;stroke-width:0.625" />
<path d="M924.01,765.83A3.125,3.125 0 1 1 917.76,765.83A3.125,3.125 0 1 1 924.01,765.83Z" style="fill:none;stroke:#F15A60;stroke-width:0.625" />
<path d="M928.62,783.67A3.125,3.125 0 1 1 922.37,783.67A3.125,3.125 0 1 1 928.62,783.67Z" style="fill:none;stroke:#F15A60;stroke-width:0.625" />
<path d="M933.23,780.54A3.125,3.125 0 1 1 926.98,780.54A3.125,3.125 0 1 1 933.23,780.54Z" style="fill:none;stroke:#F15A60;stroke-width:0.625" />
<path d="M937.83,755.23L937.83,755.23A3.125,3.125 0 1 1 931.58,755.23A3.125,3.125 0 1 1 937.83,755.23Z" style="fill:none;stroke:#F15A60;stroke-width:0.625" />
<path d="M942.44,740.46A3.125,3.125 0 1 1 936.19,740.46A3.125,3.125 0 1 1 942.44,740.46Z" style="fill:none;stroke:#F15A60;stroke-width:0.625" />
<path d="M947.05,755.55L947.05,755.55A3.125,3.125 0 1 1 940.8,755.55A3.125,3.125 0 1 1 947.05,755.55Z" style="fill:none;stroke:#F15A60;stroke-width:0.625" />
<path d="M951.65,734.7L951.65,734.7A3.125,3.125 0 1 1 945.4,734.7A3.125,3.125 0 1 1 951.65,734.7Z" style="fill:none;stroke:#F15A60;stroke-width:0.625" />
<path d="M956.26,723.99L956.26,723.99A3.125,3.125 0 1 1 950.01,723.99A3.125,3.125 0 1 1 956.26,723.99Z" style="fill:none;stroke:#F15A60;stroke-width:0.625" />
<path d="M960.87,714.95L960.87,714.95A3.125,3.125 0 1 1 954.62,714.95A3.125,3.125 0 1 1 960.87,714.95Z" style="fill:none;stroke:#F15A60;stroke-width:0.625" />
<path d="M965.47,704.87L965.47,704.87A3.125,3.125 0 1 1 959.22,704.87A3.125,3.125 0 1 1 965.47,704.87Z" style="fill:none;stroke:#F15A60;stroke-width:0.625" />
<path d="M970.08,714.8L970.08,714.8A3.125,3.125 0 1 1 963.83,714.8A3.125,3.125 0 1 1 970.08,714.8Z" style="fill:none;stroke:#F15A60;stroke-width:0.625" />
<path d="M974.69,701.97L974.69,701.97A3.125,3.125 0 1 1 968.44,701.97A3.125,3.125 0 1 1 974.69,701.97Z" style="fill:none;stroke:#F15A60;stroke-width:0.625" />
<path d="M979.3,694.67L979.3,694.67A3.125,3.125 0 1 1 973.05,694.67A3.125,3.125 0 1 1 979.3,694.67Z" style="fill:none;stroke:#F15A60;stroke-width:0.625" />
<path d="M59.37,743.7L63.977,745.77L68.584,762.23L73.191,766.79L77.798,767.17L82.405,768.16L87.012,778.56L91.619,785.19L96.226,780.66L100.83,783.5L105.44,790.86L110.05,787.37L114.65,772.2L119.26,770.87L123.87,754.76L128.48,739.02L133.08,743.92L137.69,743.84L142.3,738.95L146.9,721.25L151.51,708.68L156.12,701.24L160.72,702.74L165.33,713.14L169.94,710.31L174.55,713.88L179.15,723.28L183.76,732.18L188.37,743.11L192.97,742.34L197.58,747.48L202.19,752.95L206.8,764.63L211.4,764.32L216.01,777.42L220.62,792.45L225.22,787.4L229.83,795.11L234.44,794.97L239.04,787.08L243.65,776.17L248.26,765.31L252.87,755.94L257.47,750.51L262.08,754.77L266.69,745.58L271.29,734.67L275.9,731.53L280.51,725.49L285.12,719.69L289.72,709.35L294.33,711.68L298.94,705.79L303.54,710.97L308.15,715.16L312.76,716.05L317.36,730.26L321.97,735.92L326.58,745.3L331.19,755.61L335.79,765.58L340.4,769.98L345.01,782.17L349.61,777.67L354.22,790.71L358.83,796.16L363.43,795.37L368.04,786.07L372.65,780.27L377.26,786L381.86,788.54L386.47,774.27L391.08,771.86L395.68,765.83L400.29,754.06L404.9,736.25L409.51,720.77L414.11,717.72L418.72,712.76L423.33,704.83L427.93,705.33L432.54,707.9L437.15,708.91L441.75,702.72L446.36,707.32L450.97,706.1L455.58,713.61L460.18,717.37L464.79,726.39L469.4,744.89L474,761.44L478.61,772.01L483.22,788.02L487.82,789.63L492.43,798.33L497.04,792.24L501.65,793.96L506.25,797.57L510.86,794.81L515.47,783.19L520.07,771.73L524.68,764.73L529.29,765.06L533.9,755.23L538.5,750.47L543.11,746.98L547.72,726.33L552.32,726.78L556.93,713.31L561.54,701.15L566.14,705.66L570.75,706.03L575.36,712.11L579.97,722.61L584.57,731.03L589.18,722.05L593.79,733.28L598.39,734.55L603,751.95L607.61,765.75L612.21,761.93L616.82,772.63L621.43,778.16L626.04,792.23L630.64,797.87L635.25,803.51L639.86,806.88L644.46,790.61L649.07,782.75L653.68,786.26L658.29,778.17L662.89,773.18L667.5,768.28L672.11,752.51L676.71,739L681.32,731.43L685.93,727.24L690.53,722.54L695.14,708.11L699.75,698.11L704.36,698.01L708.96,708.19L713.57,702.84L718.18,717.82L722.78,716.08L727.39,723.97L732,726.34L736.6,739.42L741.21,746.69L745.82,755.83L750.43,769.57L755.03,769.7L759.64,779.9L764.25,788.63L768.85,800.58L773.46,791.9L778.07,796.12L782.68,796.29L787.28,798.16L791.89,781.3L796.5,777.91L801.1,772.2L805.71,758.64L810.32,746.01L814.92,736.07L819.53,729.71L824.14,713.93L828.75,715.79L833.35,714.56L837.96,719.79L842.57,706.73L847.17,716.33L851.78,712.26L856.39,719.62L861,727.8L865.6,740.24L870.21,750.53L874.82,749.89L879.42,748.35L884.03,756.25L888.64,773.07L893.24,780.62L897.85,782.76L902.46,779.65L907.07,784.2L911.67,796.73L916.28,791.21L920.89,779.93L925.49,781.09L930.1,780.5L934.71,767.55L939.31,751.84L943.92,749.83L948.53,739.25L953.14,727.93L957.74,717.16L962.35,706.4L966.96,705.76L971.56,700.38L976.17,694.28L980.78,694.28L985.39,687.78L989.99,681.29L994.6,674.79L999.21,668.29L1003.8,661.8L1008.4,655.3L1013,648.81L1017.6,642.31L1022.2,635.82L1026.8,629.32L1031.5,622.83L1036.1,616.33L1040.7,609.84L1045.3,603.34L1049.9,596.84L1054.5,590.35L1059.1,583.85L1063.7,577.36L1068.3,570.86L1072.9,564.37L1077.5,557.87L1082.1,551.38L1086.7,544.88L1091.3,538.39L1096,531.89L1100.6,525.39L1105.2,518.9L1109.8,512.4L1114.4,505.91L1119,499.41L1123.6,492.92L1128.2,486.42L1132.8,479.93L1137.4,473.43L1142,466.94L1146.6,460.44L1151.2,453.94L1155.8,447.45L1160.5,440.95L1165.1,434.46L1169.7,427.96L1174.3,421.47L1178.9,414.97L1183.5,408.48L1188.1,401.98L1192.7,395.49L1197.3,388.99L1201.9,382.49L1206.5,376L1211.1,369.5L1215.7,363.01L1220.3,356.51L1225,350.02L1229.6,343.52L1234.2,337.03L1238.8,330.53L1243.4,324.04L1248,317.54L1252.6,311.04L1257.2,304.55L1261.8,298.05L1266.4,291.56L1271,285.06L1275.6,278.57L1280.2,272.07L1284.8,265.58L1289.4,259.08L1294.1,252.58L1298.7,246.09L1303.3,239.59L1307.9,233.1L1312.5,226.6L1317.1,220.11L1321.7,213.61L1326.3,207.12L1330.9,200.62L1335.5,194.13L1340.1,187.63L1344.7,181.13L1349.3,174.64L1353.9,168.14L1358.6,161.65L1363.2,155.15L1367.8,148.66L1372.4,142.16L1377,135.67L1381.6,129.17L1386.2,122.68L1390.8,116.18L1395.4,109.68L1400,103.19L1404.6,96.694L1409.2,90.198L1413.8,83.703L1418.4,77.207L1423.1,70.712L1427.7,64.217L1432.3,57.721L1436.9,51.226" style="fill:none;stroke:#7AC36A;stroke-width:1.25;stroke-dasharray:7.5,2.5" />
<path d="M56.703,741.03L62.037,741.03L62.037,746.37L56.703,746.37Z" style="fill:none;stroke:#7AC36A;stroke-width:0.625" />
<path d="M61.31,743.1L66.645,743.1L66.645,748.43L61.31,748.43Z" style="fill:none;stroke:#7AC36A;stroke-width:0.625" />
<path d="M65.917,759.56L71.252,759.56L71.252,764.89L65.917,764.89Z" style="fill:none;stroke:#7AC36A;stroke-width:0.625" />
<path d="M70.524,764.12L75.859,764.12L75.859,769.46L70.524,769.46Z" style="fill:none;stroke:#7AC36A;stroke-width:0.625" />
<path d="M75.131,764.51L80.466,764.51L80.466,769.84L75.131,769.84Z" style="fill:none;stroke:#7AC36A;stroke-width:0.625" />
<path d="M79.738,765.49L85.073,765.49L85.073,770.83L79.738,770.83Z" style="fill:none;stroke:#7AC36A;stroke-width:0.625" />
<path d="M84.345,775.89L89.68,775.89L89.68,781.23L84.345,781.23Z" style="fill:none;stroke:#7AC36A;stroke-width:0.625" />
<path d="M88.952,782.52L94.287,782.52L94.287,787.86L88.952,787.86Z" style="fill:none;stroke:#7AC36A;stroke-width:0.625" />
<path d="M93.559,777.99L98.894,777.99L98.894,783.33L93.559,783.33Z" style="fill:none;stroke:#7AC36A;stroke-width:0.625" />
<path d="M98.166,780.84L103.5,780.84L103.5,786.17L98.166,786.17Z" style="fill:none;stroke:#7AC36A;stroke-width:0.625" />
<path d="M102.77,788.19L108.11,788.19L108.11,793.53L102.77,793.53Z" style="fill:none;stroke:#7AC36A;stroke-width:0.625" />
<path d="M107.38,784.71L112.71,784.71L112.71,790.04L107.38,790.04Z" style="fill:none;stroke:#7AC36A;stroke-width:0.625" />
<path d="M111.99,769.53L117.32,769.53L117.32,774.87L111.99,774.87Z" style="fill:none;stroke:#7AC36A;stroke-width:0.625" />
<path d="M116.59,768.21L121.93,768.21L121.93,773.54L116.59,773.54Z" style="fill:none;stroke:#7AC36A;stroke-width:0.625" />
<path d="M121.2,752.09L126.54,752.09L126.54,757.43L121.2,757.43Z" style="fill:none;stroke:#7AC36A;stroke-width:0.625" />
<path d="M125.81,736.35L131.14,736.35L131.14,741.69L125.81,741.69Z" style="fill:none;stroke:#7AC36A;stroke-width:0.625" />
<path d="M130.42,741.25L135.75,741.25L135.75,746.58L130.42,746.58Z" style="fill:none;stroke:#7AC36A;stroke-width:0.625" />
<path d="M135.02,741.18L140.36,741.18L140.36,746.51L135.02,746.51Z" style="fill:none;stroke:#7AC36A;stroke-width:0.625" />
<path d="M139.63,736.28L144.96,736.28L144.96,741.61L139.63,741.61Z" style="fill:none;stroke:#7AC36A;stroke-width:0.625" />
<path d="M144.24,718.58L149.57,718.58L149.57,723.91L144.24,723.91Z" style="fill:none;stroke:#7AC36A;stroke-width:0.625" />
<path d="M148.84,706.01L154.18,706.01L154.18,711.35L148.84,711.35Z" style="fill:none;stroke:#7AC36A;stroke-width:0.625" />
<path d="M153.45,698.57L158.79,698.57L158.79,703.91L153.45,703.91Z" style="fill:none;stroke:#7AC36A;stroke-width:0.625" />
<path d="M158.06,700.07L163.39,700.07L163.39,705.4L158.06,705.4Z" style="fill:none;stroke:#7AC36A;stroke-width:0.625" />
<path d="M162.66,710.47L168,710.47L168,715.81L162.66,715.81Z" style="fill:none;stroke:#7AC36A;stroke-width:0.625" />
<path d="M167.27,707.64L172.61,707.64L172.61,712.98L167.27,712.98Z" style="fill:none;stroke:#7AC36A;stroke-width:0.625" />
<path d="M171.88,711.21L177.21,711.21L177.21,716.55L171.88,716.55Z" style="fill:none;stroke:#7AC36A;stroke-width:0.625" />
<path d="M176.49,720.62L181.82,720.62L181.82,725.95L176.49,725.95Z" style="fill:none;stroke:#7AC36A;stroke-width:0.625" />
<path d="M181.09,729.51L186.43,729.51L186.43,734.84L181.09,734.84Z" style="fill:none;stroke:#7AC36A;stroke-width:0.625" />
<path d="M185.7,740.44L191.03,740.44L191.03,745.78L185.7,745.78Z" style="fill:none;stroke:#7AC36A;stroke-width:0.625" />
<path d="M190.31,739.67L195.64,739.67L195.64,745.01L190.31,745.01Z" style="fill:none;stroke:#7AC36A;stroke-width:0.625" />
<path d="M194.91,744.81L200.25,744.81L200.25,750.14L194.91,750.14Z" style="fill:none;stroke:#7AC36A;stroke-width:0.625" />
<path d="M199.52,750.28L204.86,750.28L204.86,755.62L199.52,755.62Z" style="fill:none;stroke:#7AC36A;stroke-width:0.625" />
<path d="M204.13,761.96L209.46,761.96L209.46,767.29L204.13,767.29Z" style="fill:none;stroke:#7AC36A;stroke-width:0.625" />
<path d="M208.74,761.65L214.07,761.65L214.07,766.99L208.74,766.99Z" style="fill:none;stroke:#7AC36A;stroke-width:0.625" />
<path d="M213.34,774.75L218.68,774.75L218.68,780.08L213.34,780.08Z" style="fill:none;stroke:#7AC36A;stroke-width:0.625" />
<path d="M217.95,789.78L223.28,789.78L223.28,795.12L217.95,795.12Z" style="fill:none;stroke:#7AC36A;stroke-width:0.625" />
<path d="M222.56,784.73L227.89,784.73L227.89,790.06L222.56,790.06Z" style="fill:none;stroke:#7AC36A;stroke-width:0.625" />
<path d="M227.16,792.44L232.5,792.44L232.5,797.77L227.16,797.77Z" style="fill:none;stroke:#7AC36A;stroke-width:0.625" />
<path d="M231.77,792.31L237.1,792.31L237.1,797.64L231.77,797.64Z" style="fill:none;stroke:#7AC36A;stroke-width:0.625" />
<path d="M236.38,784.41L241.71,784.41L241.71,789.74L236.38,789.74Z" style="fill:none;stroke:#7AC36A;stroke-width:0.625" />
<path d="M240.98,773.5L246.32,773.5L246.32,778.83L240.98,778.83Z" style="fill:none;stroke:#7AC36A;stroke-width:0.625" />
<path d="M245.59,762.64L250.93,762.64L250.93,767.98L245.59,767.98Z" style="fill:none;stroke:#7AC36A;stroke-width:0.625" />
<path d="M250.2,753.27L255.53,753.27L255.53,758.61L250.2,758.61Z" style="fill:none;stroke:#7AC36A;stroke-width:0.625" />
<path d="M254.81,747.84L260.14,747.84L260.14,753.18L254.81,753.18Z" style="fill:none;stroke:#7AC36A;stroke-width:0.625" />
<path d="M259.41,752.1L264.75,752.1L264.75,757.44L259.41,757.44Z" style="fill:none;stroke:#7AC36A;stroke-width:0.625" />
<path d="M264.02,742.91L269.35,742.91L269.35,748.24L264.02,748.24Z" style="fill:none;stroke:#7AC36A;stroke-width:0.625" />
<path d="M268.63,732L273.96,732L273.96,737.33L268.63,737.33Z" style="fill:none;stroke:#7AC36A;stroke-width:0.625" />
<path d="M273.23,728.86L278.57,728.86L278.57,734.19L273.23,734.19Z" style="fill:none;stroke:#7AC36A;stroke-width:0.625" />
<path d="M277.84,722.82L283.18,722.82L283.18,728.16L277.84,728.16Z" style="fill:none;stroke:#7AC36A;stroke-width:0.625" />
<path d="M282.45,717.02L287.78,717.02L287.78,722.36L282.45,722.36Z" style="fill:none;stroke:#7AC36A;stroke-width:0.625" />
<path d="M287.05,706.69L292.39,706.69L292.39,712.02L287.05,712.02Z" style="fill:none;stroke:#7AC36A;stroke-width:0.625" />
<path d="M291.66,709.02L297,709.02L297,714.35L291.66,714.35Z" style="fill:none;stroke:#7AC36A;stroke-width:0.625" />
<path d="M296.27,703.12L301.6,703.12L301.6,708.45L296.27,708.45Z" style="fill:none;stroke:#7AC36A;stroke-width:0.625" />
<path d="M300.88,708.3L306.21,708.3L306.21,713.64L300.88,713.64Z" style="fill:none;stroke:#7AC36A;stroke-width:0.625" />
<path d="M305.48,712.49L310.82,712.49L310.82,717.82L305.48,717.82Z" style="fill:none;stroke:#7AC36A;stroke-width:0.625" />
<path d="M310.09,713.38L315.42,713.38L315.42,718.72L310.09,718.72Z" style="fill:none;stroke:#7AC36A;stroke-width:0.625" />
<path d="M314.7,727.59L320.03,727.59L320.03,732.93L314.7,732.93Z" style="fill:none;stroke:#7AC36A;stroke-width:0.625" />
<path d="M319.3,733.25L324.64,733.25L324.64,738.59L319.3,738.59Z" style="fill:none;stroke:#7AC36A;stroke-width:0.625" />
<path d="M323.91,742.63L329.25,742.63L329.25,747.96L323.91,747.96Z" style="fill:none;stroke:#7AC36A;stroke-width:0.625" />
<path d="M328.52,752.94L333.85,752.94L333.85,758.28L328.52,758.28Z" style="fill:none;stroke:#7AC36A;stroke-width:0.625" />
<path d="M333.13,762.92L338.46,762.92L338.46,768.25L333.13,768.25Z" style="fill:none;stroke:#7AC36A;stroke-width:0.625" />
<path d="M337.73,767.31L343.07,767.31L343.07,772.65L337.73,772.65Z" style="fill:none;stroke:#7AC36A;stroke-width:0.625" />
<path d="M342.34,779.5L347.67,779.5L347.67,784.84L342.34,784.84Z" style="fill:none;stroke:#7AC36A;stroke-width:0.625" />
<path d="M346.95,775L352.28,775L352.28,780.34L346.95,780.34Z" style="fill:none;stroke:#7AC36A;stroke-width:0.625" />
<path d="M351.55,788.04L356.89,788.04L356.89,793.37L351.55,793.37Z" style="fill:none;stroke:#7AC36A;stroke-width:0.625" />
<path d="M356.16,793.5L361.5,793.5L361.5,798.83L356.16,798.83Z" style="fill:none;stroke:#7AC36A;stroke-width:0.625" />
<path d="M360.77,792.7L366.1,792.7L366.1,798.04L360.77,798.04Z" style="fill:none;stroke:#7AC36A;stroke-width:0.625" />
<path d="M365.37,783.41L370.71,783.41L370.71,788.74L365.37,788.74Z" style="fill:none;stroke:#7AC36A;stroke-width:0.625" />
<path d="M369.98,777.6L375.32,777.6L375.32,782.94L369.98,782.94Z" style="fill:none;stroke:#7AC36A;stroke-width:0.625" />
<path d="M374.59,783.33L379.92,783.33L379.92,788.66L374.59,788.66Z" style="fill:none;stroke:#7AC36A;stroke-width:0.625" />
<path d="M379.2,785.88L384.53,785.88L384.53,791.21L379.2,791.21Z" style="fill:none;stroke:#7AC36A;stroke-width:0.625" />
<path d="M383.8,771.6L389.14,771.6L389.14,776.94L383.8,776.94Z" style="fill:none;stroke:#7AC36A;stroke-width:0.625" />
<path d="M388.41,769.19L393.74,769.19L393.74,774.53L388.41,774.53Z" style="fill:none;stroke:#7AC36A;stroke-width:0.625" />
<path d="M393.02,763.16L398.35,763.16L398.35,768.49L393.02,768.49Z" style="fill:none;stroke:#7AC36A;stroke-width:0.625" />
<path d="M397.62,751.39L402.96,751.39L402.96,756.73L397.62,756.73Z" style="fill:none;stroke:#7AC36A;stroke-width:0.625" />
<path d="M402.23,733.58L407.57,733.58L407.57,738.91L402.23,738.91Z" style="fill:none;stroke:#7AC36A;stroke-width:0.625" />
<path d="M406.84,718.1L412.17,718.1L412.17,723.44L406.84,723.44Z" style="fill:none;stroke:#7AC36A;stroke-width:0.625" />
<path d="M411.44,715.06L416.78,715.06L416.78,720.39L411.44,720.39Z" style="fill:none;stroke:#7AC36A;stroke-width:0.625" />
<path d="M416.05,710.09L421.39,710.09L421.39,715.43L416.05,715.43Z" style="fill:none;stroke:#7AC36A;stroke-width:0.625" />
<path d="M420.66,702.17L425.99,702.17L425.99,707.5L420.66,707.5Z" style="fill:none;stroke:#7AC36A;stroke-width:0.625" />
<path d="M425.27,702.67L430.6,702.67L430.6,708L425.27,708Z" style="fill:none;stroke:#7AC36A;stroke-width:0.625" />
<path d="M429.87,705.23L435.21,705.23L435.21,710.56L429.87,710.56Z" style="fill:none;stroke:#7AC36A;stroke-width:0.625" />
<path d="M434.48,706.24L439.81,706.24L439.81,711.58L434.48,711.58Z" style="fill:none;stroke:#7AC36A;stroke-width:0.625" />
<path d="M439.09,700.05L444.42,700.05L444.42,705.39L439.09,705.39Z" style="fill:none;stroke:#7AC36A;stroke-width:0.625" />
<path d="M443.69,704.66L449.03,704.66L449.03,709.99L443.69,709.99Z" style="fill:none;stroke:#7AC36A;stroke-width:0.625" />
<path d="M448.3,703.43L453.64,703.43L453.64,708.76L448.3,708.76Z" style="fill:none;stroke:#7AC36A;stroke-width:0.625" />
<path d="M452.91,710.95L458.24,710.95L458.24,716.28L452.91,716.28Z" style="fill:none;stroke:#7AC36A;stroke-width:0.625" />
<path d="M457.52,714.7L462.85,714.7L462.85,720.04L457.52,720.04Z" style="fill:none;stroke:#7AC36A;stroke-width:0.625" />
<path d="M462.12,723.73L467.46,723.73L467.46,729.06L462.12,729.06Z" style="fill:none;stroke:#7AC36A;stroke-width:0.625" />
<path d="M466.73,742.22L472.06,742.22L472.06,747.56L466.73,747.56Z" style="fill:none;stroke:#7AC36A;stroke-width:0.625" />
<path d="M471.34,758.77L476.67,758.77L476.67,764.1L471.34,764.1Z" style="fill:none;stroke:#7AC36A;stroke-width:0.625" />
<path d="M475.94,769.34L481.28,769.34L481.28,774.68L475.94,774.68Z" style="fill:none;stroke:#7AC36A;stroke-width:0.625" />
<path d="M480.55,785.35L485.89,785.35L485.89,790.68L480.55,790.68Z" style="fill:none;stroke:#7AC36A;stroke-width:0.625" />
<path d="M485.16,786.97L490.49,786.97L490.49,792.3L485.16,792.3Z" style="fill:none;stroke:#7AC36A;stroke-width:0.625" />
<path d="M489.76,795.67L495.1,795.67L495.1,801L489.76,801Z" style="fill:none;stroke:#7AC36A;stroke-width:0.625" />
<path d="M494.37,789.57L499.71,789.57L499.71,794.91L494.37,794.91Z" style="fill:none;stroke:#7AC36A;stroke-width:0.625" />
<path d="M498.98,791.29L504.31,791.29L504.31,796.62L498.98,796.62Z" style="fill:none;stroke:#7AC36A;stroke-width:0.625" />
<path d="M503.59,794.9L508.92,794.9L508.92,800.24L503.59,800.24Z" style="fill:none;stroke:#7AC36A;stroke-width:0.625" />
<path d="M508.19,792.14L513.53,792.14L513.53,797.48L508.19,797.48Z" style="fill:none;stroke:#7AC36A;stroke-width:0.625" />
<path d="M512.8,780.52L518.13,780.52L518.13,785.86L512.8,785.86Z" style="fill:none;stroke:#7AC36A;stroke-width:0.625" />
<path d="M517.41,769.06L522.74,769.06L522.74,774.4L517.41,774.4Z" style="fill:none;stroke:#7AC36A;stroke-width:0.625" />
<path d="M522.01,762.06L527.35,762.06L527.35,767.39L522.01,767.39Z" style="fill:none;stroke:#7AC36A;stroke-width:0.625" />
<path d="M526.62,762.4L531.96,762.4L531.96,767.73L526.62,767.73Z" style="fill:none;stroke:#7AC36A;stroke-width:0.625" />
<path d="M531.23,752.56L536.56,752.56L536.56,757.89L531.23,757.89Z" style="fill:none;stroke:#7AC36A;stroke-width:0.625" />
<path d="M535.83,747.8L541.17,747.8L541.17,753.14L535.83,753.14Z" style="fill:none;stroke:#7AC36A;stroke-width:0.625" />
<path d="M540.44,744.32L545.78,744.32L545.78,749.65L540.44,749.65Z" style="fill:none;stroke:#7AC36A;stroke-width:0.625" />
<path d="M545.05,723.66L550.38,723.66L550.38,729L545.05,729Z" style="fill:none;stroke:#7AC36A;stroke-width:0.625" />
<path d="M549.66,724.11L554.99,724.11L554.99,729.45L549.66,729.45Z" style="fill:none;stroke:#7AC36A;stroke-width:0.625" />
<path d="M554.26,710.64L559.6,710.64L559.6,715.98L554.26,715.98Z" style="fill:none;stroke:#7AC36A;stroke-width:0.625" />
<path d="M558.87,698.48L564.2,698.48L564.2,703.82L558.87,703.82Z" style="fill:none;stroke:#7AC36A;stroke-width:0.625" />
<path d="M563.48,702.99L568.81,702.99L568.81,708.33L563.48,708.33Z" style="fill:none;stroke:#7AC36A;stroke-width:0.625" />
<path d="M568.08,703.37L573.42,703.37L573.42,708.7L568.08,708.7Z" style="fill:none;stroke:#7AC36A;stroke-width:0.625" />
<path d="M572.69,709.44L578.03,709.44L578.03,714.78L572.69,714.78Z" style="fill:none;stroke:#7AC36A;stroke-width:0.625" />
<path d="M577.3,719.94L582.63,719.94L582.63,725.27L577.3,725.27Z" style="fill:none;stroke:#7AC36A;stroke-width:0.625" />
<path d="M581.91,728.36L587.24,728.36L587.24,733.7L581.91,733.7Z" style="fill:none;stroke:#7AC36A;stroke-width:0.625" />
<path d="M586.51,719.38L591.85,719.38L591.85,724.72L586.51,724.72Z" style="fill:none;stroke:#7AC36A;stroke-width:0.625" />
<path d="M591.12,730.62L596.45,730.62L596.45,735.95L591.12,735.95Z" style="fill:none;stroke:#7AC36A;stroke-width:0.625" />
<path d="M595.73,731.88L601.06,731.88L601.06,737.21L595.73,737.21Z" style="fill:none;stroke:#7AC36A;stroke-width:0.625" />
<path d="M600.33,749.29L605.67,749.29L605.67,754.62L600.33,754.62Z" style="fill:none;stroke:#7AC36A;stroke-width:0.625" />
<path d="M604.94,763.08L610.28,763.08L610.28,768.41L604.94,768.41Z" style="fill:none;stroke:#7AC36A;stroke-width:0.625" />
<path d="M609.55,759.26L614.88,759.26L614.88,764.59L609.55,764.59Z" style="fill:none;stroke:#7AC36A;stroke-width:0.625" />
<path d="M614.15,769.96L619.49,769.96L619.49,775.29L614.15,775.29Z" style="fill:none;stroke:#7AC36A;stroke-width:0.625" />
<path d="M618.76,775.5L624.1,775.5L624.1,780.83L618.76,780.83Z" style="fill:none;stroke:#7AC36A;stroke-width:0.625" />
<path d="M623.37,789.56L628.7,789.56L628.7,794.89L623.37,794.89Z" style="fill:none;stroke:#7AC36A;stroke-width:0.625" />
<path d="M627.98,795.2L633.31,795.2L633.31,800.54L627.98,800.54Z" style="fill:none;stroke:#7AC36A;stroke-width:0.625" />
<path d="M632.58,800.84L637.92,800.84L637.92,806.18L632.58,806.18Z" style="fill:none;stroke:#7AC36A;stroke-width:0.625" />
<path d="M637.19,804.21L642.52,804.21L642.52,809.54L637.19,809.54Z" style="fill:none;stroke:#7AC36A;stroke-width:0.625" />
<path d="M641.8,787.94L647.13,787.94L647.13,793.28L641.8,793.28Z" style="fill:none;stroke:#7AC36A;stroke-width:0.625" />
<path d="M646.4,780.08L651.74,780.08L651.74,785.41L646.4,785.41Z" style="fill:none;stroke:#7AC36A;stroke-width:0.625" />
<path d="M651.01,783.59L656.35,783.59L656.35,788.93L651.01,788.93Z" style="fill:none;stroke:#7AC36A;stroke-width:0.625" />
<path d="M655.62,775.5L660.95,775.5L660.95,780.83L655.62,780.83Z" style="fill:none;stroke:#7AC36A;stroke-width:0.625" />
<path d="M660.22,770.51L665.56,770.51L665.56,775.85L660.22,775.85Z" style="fill:none;stroke:#7AC36A;stroke-width:0.625" />
<path d="M664.83,765.62L670.17,765.62L670.17,770.95L664.83,770.95Z" style="fill:none;stroke:#7AC36A;stroke-width:0.625" />
<path d="M669.44,749.85L674.77,749.85L674.77,755.18L669.44,755.18Z" style="fill:none;stroke:#7AC36A;stroke-width:0.625" />
<path d="M674.05,736.33L679.38,736.33L679.38,741.67L674.05,741.67Z" style="fill:none;stroke:#7AC36A;stroke-width:0.625" />
<path d="M678.65,728.76L683.99,728.76L683.99,734.09L678.65,734.09Z" style="fill:none;stroke:#7AC36A;stroke-width:0.625" />
<path d="M683.26,724.58L688.59,724.58L688.59,729.91L683.26,729.91Z" style="fill:none;stroke:#7AC36A;stroke-width:0.625" />
<path d="M687.87,719.87L693.2,719.87L693.2,725.21L687.87,725.21Z" style="fill:none;stroke:#7AC36A;stroke-width:0.625" />
<path d="M692.47,705.44L697.81,705.44L697.81,710.78L692.47,710.78Z" style="fill:none;stroke:#7AC36A;stroke-width:0.625" />
<path d="M697.08,695.45L702.42,695.45L702.42,700.78L697.08,700.78Z" style="fill:none;stroke:#7AC36A;stroke-width:0.625" />
<path d="M701.69,695.35L707.02,695.35L707.02,700.68L701.69,700.68Z" style="fill:none;stroke:#7AC36A;stroke-width:0.625" />
<path d="M706.3,705.52L711.63,705.52L711.63,710.85L706.3,710.85Z" style="fill:none;stroke:#7AC36A;stroke-width:0.625" />
<path d="M710.9,700.17L716.24,700.17L716.24,705.51L710.9,705.51Z" style="fill:none;stroke:#7AC36A;stroke-width:0.625" />
<path d="M715.51,715.16L720.84,715.16L720.84,720.49L715.51,720.49Z" style="fill:none;stroke:#7AC36A;stroke-width:0.625" />
<path d="M720.12,713.41L725.45,713.41L725.45,718.75L720.12,718.75Z" style="fill:none;stroke:#7AC36A;stroke-width:0.625" />
<path d="M724.72,721.31L730.06,721.31L730.06,726.64L724.72,726.64Z" style="fill:none;stroke:#7AC36A;stroke-width:0.625" />
<path d="M729.33,723.67L734.67,723.67L734.67,729.01L729.33,729.01Z" style="fill:none;stroke:#7AC36A;stroke-width:0.625" />
<path d="M733.94,736.75L739.27,736.75L739.27,742.08L733.94,742.08Z" style="fill:none;stroke:#7AC36A;stroke-width:0.625" />
<path d="M738.54,744.03L743.88,744.03L743.88,749.36L738.54,749.36Z" style="fill:none;stroke:#7AC36A;stroke-width:0.625" />
<path d="M743.15,753.16L748.49,753.16L748.49,758.5L743.15,758.5Z" style="fill:none;stroke:#7AC36A;stroke-width:0.625" />
<path d="M747.76,766.9L753.09,766.9L753.09,772.23L747.76,772.23Z" style="fill:none;stroke:#7AC36A;stroke-width:0.625" />
<path d="M752.37,767.04L757.7,767.04L757.7,772.37L752.37,772.37Z" style="fill:none;stroke:#7AC36A;stroke-width:0.625" />
<path d="M756.97,777.23L762.31,777.23L762.31,782.57L756.97,782.57Z" style="fill:none;stroke:#7AC36A;stroke-width:0.625" />
<path d="M761.58,785.97L766.91,785.97L766.91,791.3L761.58,791.3Z" style="fill:none;stroke:#7AC36A;stroke-width:0.625" />
<path d="M766.19,797.91L771.52,797.91L771.52,803.25L766.19,803.25Z" style="fill:none;stroke:#7AC36A;stroke-width:0.625" />
<path d="M770.79,789.23L776.13,789.23L776.13,794.56L770.79,794.56Z" style="fill:none;stroke:#7AC36A;stroke-width:0.625" />
<path d="M775.4,793.46L780.74,793.46L780.74,798.79L775.4,798.79Z" style="fill:none;stroke:#7AC36A;stroke-width:0.625" />
<path d="M780.01,793.63L785.34,793.63L785.34,798.96L780.01,798.96Z" style="fill:none;stroke:#7AC36A;stroke-width:0.625" />
<path d="M784.62,795.49L789.95,795.49L789.95,800.83L784.62,800.83Z" style="fill:none;stroke:#7AC36A;stroke-width:0.625" />
<path d="M789.22,778.63L794.56,778.63L794.56,783.97L789.22,783.97Z" style="fill:none;stroke:#7AC36A;stroke-width:0.625" />
<path d="M793.83,775.24L799.16,775.24L799.16,780.58L793.83,780.58Z" style="fill:none;stroke:#7AC36A;stroke-width:0.625" />
<path d="M798.44,769.53L803.77,769.53L803.77,774.87L798.44,774.87Z" style="fill:none;stroke:#7AC36A;stroke-width:0.625" />
<path d="M803.04,755.97L808.38,755.97L808.38,761.31L803.04,761.31Z" style="fill:none;stroke:#7AC36A;stroke-width:0.625" />
<path d="M807.65,743.34L812.98,743.34L812.98,748.68L807.65,748.68Z" style="fill:none;stroke:#7AC36A;stroke-width:0.625" />
<path d="M812.26,733.4L817.59,733.4L817.59,738.74L812.26,738.74Z" style="fill:none;stroke:#7AC36A;stroke-width:0.625" />
<path d="M816.86,727.04L822.2,727.04L822.2,732.38L816.86,732.38Z" style="fill:none;stroke:#7AC36A;stroke-width:0.625" />
<path d="M821.47,711.26L826.81,711.26L826.81,716.59L821.47,716.59Z" style="fill:none;stroke:#7AC36A;stroke-width:0.625" />
<path d="M826.08,713.13L831.41,713.13L831.41,718.46L826.08,718.46Z" style="fill:none;stroke:#7AC36A;stroke-width:0.625" />
<path d="M830.69,711.89L836.02,711.89L836.02,717.23L830.69,717.23Z" style="fill:none;stroke:#7AC36A;stroke-width:0.625" />
<path d="M835.29,717.13L840.63,717.13L840.63,722.46L835.29,722.46Z" style="fill:none;stroke:#7AC36A;stroke-width:0.625" />
<path d="M839.9,704.07L845.23,704.07L845.23,709.4L839.9,709.4Z" style="fill:none;stroke:#7AC36A;stroke-width:0.625" />
<path d="M844.51,713.66L849.84,713.66L849.84,718.99L844.51,718.99Z" style="fill:none;stroke:#7AC36A;stroke-width:0.625" />
<path d="M849.11,709.59L854.45,709.59L854.45,714.93L849.11,714.93Z" style="fill:none;stroke:#7AC36A;stroke-width:0.625" />
<path d="M853.72,716.95L859.06,716.95L859.06,722.29L853.72,722.29Z" style="fill:none;stroke:#7AC36A;stroke-width:0.625" />
<path d="M858.33,725.14L863.66,725.14L863.66,730.47L858.33,730.47Z" style="fill:none;stroke:#7AC36A;stroke-width:0.625" />
<path d="M862.93,737.57L868.27,737.57L868.27,742.91L862.93,742.91Z" style="fill:none;stroke:#7AC36A;stroke-width:0.625" />
<path d="M867.54,747.86L872.88,747.86L872.88,753.2L867.54,753.2Z" style="fill:none;stroke:#7AC36A;stroke-width:0.625" />
<path d="M872.15,747.23L877.48,747.23L877.48,752.56L872.15,752.56Z" style="fill:none;stroke:#7AC36A;stroke-width:0.625" />
<path d="M876.76,745.68L882.09,745.68L882.09,751.02L876.76,751.02Z" style="fill:none;stroke:#7AC36A;stroke-width:0.625" />
<path d="M881.36,753.59L886.7,753.59L886.7,758.92L881.36,758.92Z" style="fill:none;stroke:#7AC36A;stroke-width:0.625" />
<path d="M885.97,770.41L891.3,770.41L891.3,775.74L885.97,775.74Z" style="fill:none;stroke:#7AC36A;stroke-width:0.625" />
<path d="M890.58,777.95L895.91,777.95L895.91,783.29L890.58,783.29Z" style="fill:none;stroke:#7AC36A;stroke-width:0.625" />
<path d="M895.18,780.1L900.52,780.1L900.52,785.43L895.18,785.43Z" style="fill:none;stroke:#7AC36A;stroke-width:0.625" />
<path d="M899.79,776.98L905.13,776.98L905.13,782.32L899.79,782.32Z" style="fill:none;stroke:#7AC36A;stroke-width:0.625" />
<path d="M904.4,781.54L909.73,781.54L909.73,786.87L904.4,786.87Z" style="fill:none;stroke:#7AC36A;stroke-width:0.625" />
<path d="M909.01,794.06L914.34,794.06L914.34,799.4L909.01,799.4Z" style="fill:none;stroke:#7AC36A;stroke-width:0.625" />
<path d="M913.61,788.54L918.95,788.54L918.95,793.88L913.61,793.88Z" style="fill:none;stroke:#7AC36A;stroke-width:0.625" />
<path d="M918.22,777.26L923.55,777.26L923.55,782.6L918.22,782.6Z" style="fill:none;stroke:#7AC36A;stroke-width:0.625" />
<path d="M922.83,778.43L928.16,778.43L928.16,783.76L922.83,783.76Z" style="fill:none;stroke:#7AC36A;stroke-width:0.625" />
<path d="M927.43,777.83L932.77,777.83L932.77,783.16L927.43,783.16Z" style="fill:none;stroke:#7AC36A;stroke-width:0.625" />
<path d="M932.04,764.88L937.38,764.88L937.38,770.22L932.04,770.22Z" style="fill:none;stroke:#7AC36A;stroke-width:0.625" />
<path d="M936.65,749.18L941.98,749.18L941.98,754.51L936.65,754.51Z" style="fill:none;stroke:#7AC36A;stroke-width:0.625" />
<path d="M941.25,747.16L946.59,747.16L946.59,752.5L941.25,752.5Z" style="fill:none;stroke:#7AC36A;stroke-width:0.625" />
<path d="M945.86,736.59L951.2,736.59L951.2,741.92L945.86,741.92Z" style="fill:none;stroke:#7AC36A;stroke-width:0.625" />
<path d="M950.47,725.26L955.8,725.26L955.8,730.6L950.47,730.6Z" style="fill:none;stroke:#7AC36A;stroke-width:0.625" />
<path d="M955.08,714.49L960.41,714.49L960.41,719.82L955.08,719.82Z" style="fill:none;stroke:#7AC36A;stroke-width:0.625" />
<path d="M959.68,703.73L965.02,703.73L965.02,709.06L959.68,709.06Z" style="fill:none;stroke:#7AC36A;stroke-width:0.625" />
<path d="M964.29,703.09L969.62,703.09L969.62,708.42L964.29,708.42Z" style="fill:none;stroke:#7AC36A;stroke-width:0.625" />
<path d="M968.9,697.71L974.23,697.71L974.23,703.04L968.9,703.04Z" style="fill:none;stroke:#7AC36A;stroke-width:0.625" />
<path d="M973.5,691.61L978.84,691.61L978.84,696.94L973.5,696.94Z" style="fill:none;stroke:#7AC36A;stroke-width:0.625" />
<path d="M978.11,691.61L983.45,691.61L983.45,696.94L978.11,696.94Z" style="fill:none;stroke:#7AC36A;stroke-width:0.625" />
<path d="M982.72,685.11L988.05,685.11L988.05,690.45L982.72,690.45Z" style="fill:none;stroke:#7AC36A;stroke-width:0.625" />
<path d="M987.32,678.62L992.66,678.62L992.66,683.95L987.32,683.95Z" style="fill:none;stroke:#7AC36A;stroke-width:0.625" />
<path d="M991.93,672.12L997.27,672.12L997.27,677.46L991.93,677.46Z" style="fill:none;stroke:#7AC36A;stroke-width:0.625" />
<path d="M996.54,665.63L1001.9,665.63L1001.9,670.96L996.54,670.96Z" style="fill:none;stroke:#7AC36A;stroke-width:0.625" />
<path d="M1001.1,659.13L1006.5,659.13L1006.5,664.47L1001.1,664.47Z" style="fill:none;stroke:#7AC36A;stroke-width:0.625" />
<path d="M1005.8,652.64L1011.1,652.64L1011.1,657.97L1005.8,657.97Z" style="fill:none;stroke:#7AC36A;stroke-width:0.625" />
<path d="M1010.4,646.14L1015.7,646.14L1015.7,651.48L1010.4,651.48Z" style="fill:none;stroke:#7AC36A;stroke-width:0.625" />
<path d="M1015,639.65L1020.3,639.65L1020.3,644.98L1015,644.98Z" style="fill:none;stroke:#7AC36A;stroke-width:0.625" />
<path d="M1019.6,633.15L1024.9,633.15L1024.9,638.48L1019.6,638.48Z" style="fill:none;stroke:#7AC36A;stroke-width:0.625" />
<path d="M1024.2,626.65L1029.5,626.65L1029.5,631.99L1024.2,631.99Z" style="fill:none;stroke:#7AC36A;stroke-width:0.625" />
<path d="M1028.8,620.16L1034.1,620.16L1034.1,625.49L1028.8,625.49Z" style="fill:none;stroke:#7AC36A;stroke-width:0.625" />
<path d="M1033.4,613.66L1038.7,613.66L1038.7,619L1033.4,619Z" style="fill:none;stroke:#7AC36A;stroke-width:0.625" />
<path d="M1038,607.17L1043.3,607.17L1043.3,612.5L1038,612.5Z" style="fill:none;stroke:#7AC36A;stroke-width:0.625" />
<path d="M1042.6,600.67L1047.9,600.67L1047.9,606.01L1042.6,606.01Z" style="fill:none;stroke:#7AC36A;stroke-width:0.625" />
<path d="M1047.2,594.18L1052.6,594.18L1052.6,599.51L1047.2,599.51Z" style="fill:none;stroke:#7AC36A;stroke-width:0.625" />
<path d="M1051.8,587.68L1057.2,587.68L1057.2,593.02L1051.8,593.02Z" style="fill:none;stroke:#7AC36A;stroke-width:0.625" />
<path d="M1056.4,581.19L1061.8,581.19L1061.8,586.52L1056.4,586.52Z" style="fill:none;stroke:#7AC36A;stroke-width:0.625" />
<path d="M1061,574.69L1066.4,574.69L1066.4,580.03L1061,580.03Z" style="fill:none;stroke:#7AC36A;stroke-width:0.625" />
<path d="M1065.6,568.2L1071,568.2L1071,573.53L1065.6,573.53Z" style="fill:none;stroke:#7AC36A;stroke-width:0.625" />
<path d="M1070.3,561.7L1075.6,561.7L1075.6,567.03L1070.3,567.03Z" style="fill:none;stroke:#7AC36A;stroke-width:0.625" />
<path d="M1074.9,555.2L1080.2,555.2L1080.2,560.54L1074.9,560.54Z" style="fill:none;stroke:#7AC36A;stroke-width:0.625" />
<path d="M1079.5,548.71L1084.8,548.71L1084.8,554.04L1079.5,554.04Z" style="fill:none;stroke:#7AC36A;stroke-width:0.625" />
<path d="M1084.1,542.21L1089.4,542.21L1089.4,547.55L1084.1,547.55Z" style="fill:none;stroke:#7AC36A;stroke-width:0.625" />
<path d="M1088.7,535.72L1094,535.72L1094,541.05L1088.7,541.05Z" style="fill:none;stroke:#7AC36A;stroke-width:0.625" />
<path d="M1093.3,529.22L1098.6,529.22L1098.6,534.56L1093.3,534.56Z" style="fill:none;stroke:#7AC36A;stroke-width:0.625" />
<path d="M1097.9,522.73L1103.2,522.73L1103.2,528.06L1097.9,528.06Z" style="fill:none;stroke:#7AC36A;stroke-width:0.625" />
<path d="M1102.5,516.23L1107.8,516.23L1107.8,521.57L1102.5,521.57Z" style="fill:none;stroke:#7AC36A;stroke-width:0.625" />
<path d="M1107.1,509.74L1112.4,509.74L1112.4,515.07L1107.1,515.07Z" style="fill:none;stroke:#7AC36A;stroke-width:0.625" />
<path d="M1111.7,503.24L1117,503.24L1117,508.58L1111.7,508.58Z" style="fill:none;stroke:#7AC36A;stroke-width:0.625" />
<path d="M1116.3,496.75L1121.7,496.75L1121.7,502.08L1116.3,502.08Z" style="fill:none;stroke:#7AC36A;stroke-width:0.625" />
<path d="M1120.9,490.25L1126.3,490.25L1126.3,495.58L1120.9,495.58Z" style="fill:none;stroke:#7AC36A;stroke-width:0.625" />
<path d="M1125.5,483.75L1130.9,483.75L1130.9,489.09L1125.5,489.09Z" style="fill:none;stroke:#7AC36A;stroke-width:0.625" />
<path d="M1130.1,477.26L1135.5,477.26L1135.5,482.59L1130.1,482.59Z" style="fill:none;stroke:#7AC36A;stroke-width:0.625" />
<path d="M1134.8,470.76L1140.1,470.76L1140.1,476.1L1134.8,476.1Z" style="fill:none;stroke:#7AC36A;stroke-width:0.625" />
<path d="M1139.4,464.27L1144.7,464.27L1144.7,469.6L1139.4,469.6Z" style="fill:none;stroke:#7AC36A;stroke-width:0.625" />
<path d="M1144,457.77L1149.3,457.77L1149.3,463.11L1144,463.11Z" style="fill:none;stroke:#7AC36A;stroke-width:0.625" />
<path d="M1148.6,451.28L1153.9,451.28L1153.9,456.61L1148.6,456.61Z" style="fill:none;stroke:#7AC36A;stroke-width:0.625" />
<path d="M1153.2,444.78L1158.5,444.78L1158.5,450.12L1153.2,450.12Z" style="fill:none;stroke:#7AC36A;stroke-width:0.625" />
<path d="M1157.8,438.29L1163.1,438.29L1163.1,443.62L1157.8,443.62Z" style="fill:none;stroke:#7AC36A;stroke-width:0.625" />
<path d="M1162.4,431.79L1167.7,431.79L1167.7,437.13L1162.4,437.13Z" style="fill:none;stroke:#7AC36A;stroke-width:0.625" />
<path d="M1167,425.3L1172.3,425.3L1172.3,430.63L1167,430.63Z" style="fill:none;stroke:#7AC36A;stroke-width:0.625" />
<path d="M1171.6,418.8L1176.9,418.8L1176.9,424.13L1171.6,424.13Z" style="fill:none;stroke:#7AC36A;stroke-width:0.625" />
<path d="M1176.2,412.3L1181.5,412.3L1181.5,417.64L1176.2,417.64Z" style="fill:none;stroke:#7AC36A;stroke-width:0.625" />
<path d="M1180.8,405.81L1186.2,405.81L1186.2,411.14L1180.8,411.14Z" style="fill:none;stroke:#7AC36A;stroke-width:0.625" />
<path d="M1185.4,399.31L1190.8,399.31L1190.8,404.65L1185.4,404.65Z" style="fill:none;stroke:#7AC36A;stroke-width:0.625" />
<path d="M1190,392.82L1195.4,392.82L1195.4,398.15L1190,398.15Z" style="fill:none;stroke:#7AC36A;stroke-width:0.625" />
<path d="M1194.6,386.32L1200,386.32L1200,391.66L1194.6,391.66Z" style="fill:none;stroke:#7AC36A;stroke-width:0.625" />
<path d="M1199.2,379.83L1204.6,379.83L1204.6,385.16L1199.2,385.16Z" style="fill:none;stroke:#7AC36A;stroke-width:0.625" />
<path d="M1203.9,373.33L1209.2,373.33L1209.2,378.67L1203.9,378.67Z" style="fill:none;stroke:#7AC36A;stroke-width:0.625" />
<path d="M1208.5,366.84L1213.8,366.84L1213.8,372.17L1208.5,372.17Z" style="fill:none;stroke:#7AC36A;stroke-width:0.625" />
<path d="M1213.1,360.34L1218.4,360.34L1218.4,365.68L1213.1,365.68Z" style="fill:none;stroke:#7AC36A;stroke-width:0.625" />
<path d="M1217.7,353.85L1223,353.85L1223,359.18L1217.7,359.18Z" style="fill:none;stroke:#7AC36A;stroke-width:0.625" />
<path d="M1222.3,347.35L1227.6,347.35L1227.6,352.68L1222.3,352.68Z" style="fill:none;stroke:#7AC36A;stroke-width:0.625" />
<path d="M1226.9,340.85L1232.2,340.85L1232.2,346.19L1226.9,346.19Z" style="fill:none;stroke:#7AC36A;stroke-width:0.625" />
<path d="M1231.5,334.36L1236.8,334.36L1236.8,339.69L1231.5,339.69Z" style="fill:none;stroke:#7AC36A;stroke-width:0.625" />
<path d="M1236.1,327.86L1241.4,327.86L1241.4,333.2L1236.1,333.2Z" style="fill:none;stroke:#7AC36A;stroke-width:0.625" />
<path d="M1240.7,321.37L1246,321.37L1246,326.7L1240.7,326.7Z" style="fill:none;stroke:#7AC36A;stroke-width:0.625" />
<path d="M1245.3,314.87L1250.7,314.87L1250.7,320.21L1245.3,320.21Z" style="fill:none;stroke:#7AC36A;stroke-width:0.625" />
<path d="M1249.9,308.38L1255.3,308.38L1255.3,313.71L1249.9,313.71Z" style="fill:none;stroke:#7AC36A;stroke-width:0.625" />
<path d="M1254.5,301.88L1259.9,301.88L1259.9,307.22L1254.5,307.22Z" style="fill:none;stroke:#7AC36A;stroke-width:0.625" />
<path d="M1259.1,295.39L1264.5,295.39L1264.5,300.72L1259.1,300.72Z" style="fill:none;stroke:#7AC36A;stroke-width:0.625" />
<path d="M1263.7,288.89L1269.1,288.89L1269.1,294.23L1263.7,294.23Z" style="fill:none;stroke:#7AC36A;stroke-width:0.625" />
<path d="M1268.4,282.39L1273.7,282.39L1273.7,287.73L1268.4,287.73Z" style="fill:none;stroke:#7AC36A;stroke-width:0.625" />
<path d="M1273,275.9L1278.3,275.9L1278.3,281.23L1273,281.23Z" style="fill:none;stroke:#7AC36A;stroke-width:0.625" />
<path d="M1277.6,269.4L1282.9,269.4L1282.9,274.74L1277.6,274.74Z" style="fill:none;stroke:#7AC36A;stroke-width:0.625" />
<path d="M1282.2,262.91L1287.5,262.91L1287.5,268.24L1282.2,268.24Z" style="fill:none;stroke:#7AC36A;stroke-width:0.625" />
<path d="M1286.8,256.41L1292.1,256.41L1292.1,261.75L1286.8,261.75Z" style="fill:none;stroke:#7AC36A;stroke-width:0.625" />
<path d="M1291.4,249.92L1296.7,249.92L1296.7,255.25L1291.4,255.25Z" style="fill:none;stroke:#7AC36A;stroke-width:0.625" />
<path d="M1296,243.42L1301.3,243.42L1301.3,248.76L1296,248.76Z" style="fill:none;stroke:#7AC36A;stroke-width:0.625" />
<path d="M1300.6,236.93L1305.9,236.93L1305.9,242.26L1300.6,242.26Z" style="fill:none;stroke:#7AC36A;stroke-width:0.625" />
<path d="M1305.2,230.43L1310.5,230.43L1310.5,235.77L1305.2,235.77Z" style="fill:none;stroke:#7AC36A;stroke-width:0.625" />
<path d="M1309.8,223.94L1315.2,223.94L1315.2,229.27L1309.8,229.27Z" style="fill:none;stroke:#7AC36A;stroke-width:0.625" />
<path d="M1314.4,217.44L1319.8,217.44L1319.8,222.78L1314.4,222.78Z" style="fill:none;stroke:#7AC36A;stroke-width:0.625" />
<path d="M1319,210.94L1324.4,210.94L1324.4,216.28L1319,216.28Z" style="fill:none;stroke:#7AC36A;stroke-width:0.625" />
<path d="M1323.6,204.45L1329,204.45L1329,209.78L1323.6,209.78Z" style="fill:none;stroke:#7AC36A;stroke-width:0.625" />
<path d="M1328.2,197.95L1333.6,197.95L1333.6,203.29L1328.2,203.29Z" style="fill:none;stroke:#7AC36A;stroke-width:0.625" />
<path d="M1332.9,191.46L1338.2,191.46L1338.2,196.79L1332.9,196.79Z" style="fill:none;stroke:#7AC36A;stroke-width:0.625" />
<path d="M1337.5,184.96L1342.8,184.96L1342.8,190.3L1337.5,190.3Z" style="fill:none;stroke:#7AC36A;stroke-width:0.625" />
<path d="M1342.1,178.47L1347.4,178.47L1347.4,183.8L1342.1,183.8Z" style="fill:none;stroke:#7AC36A;stroke-width:0.625" />
<path d="M1346.7,171.97L1352,171.97L1352,177.31L1346.7,177.31Z" style="fill:none;stroke:#7AC36A;stroke-width:0.625" />
<path d="M1351.3,165.48L1356.6,165.48L1356.6,170.81L1351.3,170.81Z" style="fill:none;stroke:#7AC36A;stroke-width:0.625" />
<path d="M1355.9,158.98L1361.2,158.98L1361.2,164.32L1355.9,164.32Z" style="fill:none;stroke:#7AC36A;stroke-width:0.625" />
<path d="M1360.5,152.49L1365.8,152.49L1365.8,157.82L1360.5,157.82Z" style="fill:none;stroke:#7AC36A;stroke-width:0.625" />
<path d="M1365.1,145.99L1370.4,145.99L1370.4,151.32L1365.1,151.32Z" style="fill:none;stroke:#7AC36A;stroke-width:0.625" />
<path d="M1369.7,139.49L1375,139.49L1375,144.83L1369.7,144.83Z" style="fill:none;stroke:#7AC36A;stroke-width:0.625" />
<path d="M1374.3,133L1379.7,133L1379.7,138.33L1374.3,138.33Z" style="fill:none;stroke:#7AC36A;stroke-width:0.625" />
<path d="M1378.9,126.5L1384.3,126.5L1384.3,131.84L1378.9,131.84Z" style="fill:none;stroke:#7AC36A;stroke-width:0.625" />
<path d="M1383.5,120.01L1388.9,120.01L1388.9,125.34L1383.5,125.34Z" style="fill:none;stroke:#7AC36A;stroke-width:0.625" />
<path d="M1388.1,113.51L1393.5,113.51L1393.5,118.85L1388.1,118.85Z" style="fill:none;stroke:#7AC36A;stroke-width:0.625" />
<path d="M1392.7,107.02L1398.1,107.02L1398.1,112.35L1392.7,112.35Z" style="fill:none;stroke:#7AC36A;stroke-width:0.625" />
<path d="M1397.4,100.52L1402.7,100.52L1402.7,105.86L1397.4,105.86Z" style="fill:none;stroke:#7AC36A;stroke-width:0.625" />
<path d="M1402,94.026L1407.3,94.026L1407.3,99.361L1402,99.361Z" style="fill:none;stroke:#7AC36A;stroke-width:0.625" />
<path d="M1406.6,87.531L1411.9,87.531L1411.9,92.866L1406.6,92.866Z" style="fill:none;stroke:#7AC36A;stroke-width:0.625" />
<path d="M1411.2,81.036L1416.5,81.036L1416.5,86.37L1411.2,86.37Z" style="fill:none;stroke:#7AC36A;stroke-width:0.625" />
<path d="M1415.8,74.54L1421.1,74.54L1421.1,79.875L1415.8,79.875Z" style="fill:none;stroke:#7AC36A;stroke-width:0.625" />
<path d="M1420.4,68.045L1425.7,68.045L1425.7,73.379L1420.4,73.379Z" style="fill:none;stroke:#7AC36A;stroke-width:0.625" />
<path d="M1425,61.549L1430.3,61.549L1430.3,66.884L1425,66.884Z" style="fill:none;stroke:#7AC36A;stroke-width:0.625" />
<path d="M1429.6,55.054L1434.9,55.054L1434.9,60.388L1429.6,60.388Z" style="fill:none;stroke:#7AC36A;stroke-width:0.625" />
<path d="M1434.2,48.558L1439.5,48.558L1439.5,53.893L1434.2,53.893Z" style="fill:none;stroke:#7AC36A;stroke-width:0.625" />
<path d="M1415,70.183L1440,70.183" style="fill:none;stroke:#F15A60;stroke-width:1.25" />
<path d="M1430.6,70.183A3.125,3.125 0 1 1 1424.4,70.183A3.125,3.125 0 1 1 1430.6,70.183Z" style="fill:none;stroke:#F15A60;stroke-width:0.625" />
<text x="1388.8" y="-63.101" transform="scale(1, -1)"
	style="font-family:Times;font-weight:normal;font-style:normal;font-size:12pt">raw</text>
<path d="M1415,55.461L1440,55.461" style="fill:none;stroke:#7AC36A;stroke-width:1.25;stroke-dasharray:7.5,2.5" />
<path d="M1424.8,52.794L1430.2,52.794L1430.2,58.129L1424.8,58.129Z" style="fill:none;stroke:#7AC36A;stroke-width:0.625" />
<text x="1367.1" y="-48.379" transform="scale(1, -1)"
	style="font-family:Times;font-weight:normal;font-style:normal;font-size:12pt">smooth</text>
</g>
</svg>
