<?xml version="1.0"?>
<!-- Generated by SVGo and Plotinum VG -->
<svg width="16in" height="9in"
	xmlns="http://www.w3.org/2000/svg"
	xmlns:xlink="http://www.w3.org/1999/xlink">
<g transform="scale(1, -1) translate(0, -810)">
<path d="M0,0L1440,0L1440,810L0,810Z" style="fill:#FFFFFF" />
<text x="739.58" y="-4.8267" transform="scale(1, -1)"
	style="font-family:Times;font-weight:normal;font-style:normal;font-size:12pt">X</text>
<text x="49.995" y="-19.502" transform="scale(1, -1)"
	style="font-family:Times;font-weight:normal;font-style:normal;font-size:10pt">0</text>
<text x="464.08" y="-19.502" transform="scale(1, -1)"
	style="font-family:Times;font-weight:normal;font-style:normal;font-size:10pt">60</text>
<text x="878.17" y="-19.502" transform="scale(1, -1)"
	style="font-family:Times;font-weight:normal;font-style:normal;font-size:10pt">120</text>
<text x="1295.4" y="-19.502" transform="scale(1, -1)"
	style="font-family:Times;font-weight:normal;font-style:normal;font-size:10pt">180</text>
<path d="M53.12,31.538L53.12,41.538" style="fill:none;stroke:#000000;stroke-width:0.625" />
<path d="M470.33,31.538L470.33,41.538" style="fill:none;stroke:#000000;stroke-width:0.625" />
<path d="M887.55,31.538L887.55,41.538" style="fill:none;stroke:#000000;stroke-width:0.625" />
<path d="M1304.8,31.538L1304.8,41.538" style="fill:none;stroke:#000000;stroke-width:0.625" />
<path d="M192.19,36.538L192.19,41.538" style="fill:none;stroke:#000000;stroke-width:0.625" />
<path d="M331.26,36.538L331.26,41.538" style="fill:none;stroke:#000000;stroke-width:0.625" />
<path d="M609.4,36.538L609.4,41.538" style="fill:none;stroke:#000000;stroke-width:0.625" />
<path d="M748.47,36.538L748.47,41.538" style="fill:none;stroke:#000000;stroke-width:0.625" />
<path d="M1026.6,36.538L1026.6,41.538" style="fill:none;stroke:#000000;stroke-width:0.625" />
<path d="M1165.7,36.538L1165.7,41.538" style="fill:none;stroke:#000000;stroke-width:0.625" />
<path d="M53.12,41.538L1436.9,41.538" style="fill:none;stroke:#000000;stroke-width:0.625" />
<g transform="rotate(90)">
<text x="423.63" y="14.443" transform="scale(1, -1)"
	style="font-family:Times;font-weight:normal;font-style:normal;font-size:12pt">Y</text>
</g>
<text x="19.27" y="-86.513" transform="scale(1, -1)"
	style="font-family:Times;font-weight:normal;font-style:normal;font-size:10pt">-1</text>
<text x="23.433" y="-305.71" transform="scale(1, -1)"
	style="font-family:Times;font-weight:normal;font-style:normal;font-size:10pt">0</text>
<text x="23.433" y="-524.91" transform="scale(1, -1)"
	style="font-family:Times;font-weight:normal;font-style:normal;font-size:10pt">1</text>
<text x="23.433" y="-744.11" transform="scale(1, -1)"
	style="font-family:Times;font-weight:normal;font-style:normal;font-size:10pt">2</text>
<path d="M32.808,92.415L42.808,92.415" style="fill:none;stroke:#000000;stroke-width:0.625" />
<path d="M32.808,311.62L42.808,311.62" style="fill:none;stroke:#000000;stroke-width:0.625" />
<path d="M32.808,530.82L42.808,530.82" style="fill:none;stroke:#000000;stroke-width:0.625" />
<path d="M32.808,750.02L42.808,750.02" style="fill:none;stroke:#000000;stroke-width:0.625" />
<path d="M37.808,202.01L42.808,202.01" style="fill:none;stroke:#000000;stroke-width:0.625" />
<path d="M37.808,421.22L42.808,421.22" style="fill:none;stroke:#000000;stroke-width:0.625" />
<path d="M37.808,640.42L42.808,640.42" style="fill:none;stroke:#000000;stroke-width:0.625" />
<path d="M42.808,51.226L42.808,806.88" style="fill:none;stroke:#000000;stroke-width:0.625" />
<path d="M53.12,388.5L60.074,400.5L67.027,579.91L73.981,512.17L80.934,493.28L87.888,512.03L94.841,632.85L101.79,636.95L108.75,543.6L115.7,620.93L122.66,689.65L129.61,598.24L136.56,455.33L143.52,557.8L150.47,374.72L157.42,308.8L164.38,472.98L171.33,418.72L178.28,353.37L185.24,178.23L192.19,158.93L199.14,153.22L206.1,210.44L213.05,304.67L220.01,183.07L226.96,244.45L233.91,324.24L240.87,356.65L247.82,421.53L254.77,338.07L261.73,415.01L268.68,447.45L275.63,549.84L282.59,466.49L289.54,633.15L296.49,717.23L303.45,557.49L310.4,702.06L317.35,651.28L324.31,570.82L331.26,510.83L338.22,467.96L345.17,435.96L352.12,434.39L359.08,513.63L366.03,363.73L372.98,300.98L379.94,338.4L386.89,280.28L393.84,248.56L400.8,162.23L407.75,257.36L414.7,158.73L421.66,256.11L428.61,257.24L435.56,232.91L442.52,391.35L449.47,350.28L456.43,424.31L463.38,481.77L470.33,530.56L477.29,519.27L484.24,642.06L491.19,509.89L498.15,710.5L505.1,683.57L512.05,645.57L519.01,555.11L525.96,565.6L532.91,676.61L539.87,660.27L546.82,476.16L553.78,558.13L560.73,500.24L567.68,403.52L574.64,278.36L581.59,222.01L588.54,286.49L595.5,231.75L602.45,161.5L609.4,213.7L616.36,226.09L623.31,209.24L630.26,124.43L637.22,221.7L644.17,167.26L651.12,262.58L658.08,247.81L665.03,327.21L671.99,478.05L678.94,538.1L685.89,550.93L692.85,676.24L699.8,592.97L706.75,703.51L713.71,582.88L720.66,664.6L727.61,701.49L734.57,648.46L741.52,540.53L748.47,498.09L755.43,499.31L762.38,547.39L769.33,420.63L776.29,432.99L783.24,418.53L790.2,195.33L797.15,348.3L804.1,171.62L811.06,120.54L818.01,249.86L824.96,203.21L831.92,261.57L838.87,331.3L845.82,348.54L852.78,185.06L859.73,391.15L866.68,321.55L873.64,520.77L880.59,554.66L887.55,418.64L894.5,588.03L901.45,580.82L908.41,714.58L915.36,685.26L922.31,723.5L929.27,733.68L936.22,531.57L943.17,573.66L950.13,672.75L957.08,547.19L964.03,548.76L970.99,524.17L977.94,371.43L984.89,326.47L991.85,327.35L998.8,319.69L1005.8,281.22L1012.7,136.06L1019.7,117.33L1026.6,176.14L1033.6,279.01L1040.5,128.59L1047.5,340.62L1054.4,202.43L1061.4,312.01L1068.3,282.15L1075.3,422.08L1082.2,413.13L1089.2,474.9L1096.2,576.75L1103.1,487.12L1110.1,620.7L1117,656.44L1124,742.58L1130.9,565.15L1137.9,695.86L1144.8,672.52L1151.8,699.73L1158.7,494.46L1165.7,586.88L1172.6,540.34L1179.6,419.97L1186.5,368.62L1193.5,336.42L1200.5,322.54L1207.4,171.39L1214.4,298.06L1221.3,251.28L1228.3,309.66L1235.2,109.28L1242.2,316.08L1249.1,186.98L1256.1,301.82L1263,338.19L1270,422.61L1276.9,453.67L1283.9,378.81L1290.9,378.25L1297.8,490.33L1304.8,631.34L1311.7,599.7L1318.7,581.76L1325.6,543.28L1332.6,630.6L1339.5,747.82L1346.5,595.48L1353.4,517.2L1360.4,620.91L1367.3,602.68L1374.3,455.53L1381.2,369.66L1388.2,457.39L1395.2,336.17L1402.1,273.87L1409.1,221.33L1416,162.68L1423,220.46L1429.9,145.86L1436.9,103.39" style="fill:none;stroke:#F15A60;stroke-width:1.25" />
<path d="M56.245,388.5A3.125,3.125 0 1 1 49.995,388.5A3.125,3.125 0 1 1 56.245,388.5Z" style="fill:none;stroke:#F15A60;stroke-width:0.625" />
<path d="M63.199,400.5A3.125,3.125 0 1 1 56.949,400.5A3.125,3.125 0 1 1 63.199,400.5Z" style="fill:none;stroke:#F15A60;stroke-width:0.625" />
<path d="M70.152,579.91A3.125,3.125 0 1 1 63.902,579.91A3.125,3.125 0 1 1 70.152,579.91Z" style="fill:none;stroke:#F15A60;stroke-width:0.625" />
<path d="M77.106,512.17A3.125,3.125 0 1 1 70.856,512.17A3.125,3.125 0 1 1 77.106,512.17Z" style="fill:none;stroke:#F15A60;stroke-width:0.625" />
<path d="M84.059,493.28A3.125,3.125 0 1 1 77.809,493.28A3.125,3.125 0 1 1 84.059,493.28Z" style="fill:none;stroke:#F15A60;stroke-width:0.625" />
<path d="M91.013,512.03A3.125,3.125 0 1 1 84.763,512.03A3.125,3.125 0 1 1 91.013,512.03Z" style="fill:none;stroke:#F15A60;stroke-width:0.625" />
<path d="M97.966,632.85A3.125,3.125 0 1 1 91.716,632.85A3.125,3.125 0 1 1 97.966,632.85Z" style="fill:none;stroke:#F15A60;stroke-width:0.625" />
<path d="M104.92,636.95L104.92,636.95A3.125,3.125 0 1 1 98.67,636.95A3.125,3.125 0 1 1 104.92,636.95Z" style="fill:none;stroke:#F15A60;stroke-width:0.625" />
<path d="M111.87,543.6L111.87,543.6A3.125,3.125 0 1 1 105.62,543.6A3.125,3.125 0 1 1 111.87,543.6Z" style="fill:none;stroke:#F15A60;stroke-width:0.625" />
<path d="M118.83,620.93A3.125,3.125 0 1 1 112.58,620.93A3.125,3.125 0 1 1 118.83,620.93Z" style="fill:none;stroke:#F15A60;stroke-width:0.625" />
<path d="M125.78,689.65L125.78,689.65A3.125,3.125 0 1 1 119.53,689.65A3.125,3.125 0 1 1 125.78,689.65Z" style="fill:none;stroke:#F15A60;stroke-width:0.625" />
<path d="M132.73,598.24L132.73,598.24A3.125,3.125 0 1 1 126.48,598.24A3.125,3.125 0 1 1 132.73,598.24Z" style="fill:none;stroke:#F15A60;stroke-width:0.625" />
<path d="M139.69,455.33A3.125,3.125 0 1 1 133.44,455.33A3.125,3.125 0 1 1 139.69,455.33Z" style="fill:none;stroke:#F15A60;stroke-width:0.625" />
<path d="M146.64,557.8A3.125,3.125 0 1 1 140.39,557.8A3.125,3.125 0 1 1 146.64,557.8Z" style="fill:none;stroke:#F15A60;stroke-width:0.625" />
<path d="M153.59,374.72L153.59,374.72A3.125,3.125 0 1 1 147.34,374.72A3.125,3.125 0 1 1 153.59,374.72Z" style="fill:none;stroke:#F15A60;stroke-width:0.625" />
<path d="M160.55,308.8L160.55,308.8A3.125,3.125 0 1 1 154.3,308.8A3.125,3.125 0 1 1 160.55,308.8Z" style="fill:none;stroke:#F15A60;stroke-width:0.625" />
<path d="M167.5,472.98A3.125,3.125 0 1 1 161.25,472.98A3.125,3.125 0 1 1 167.5,472.98Z" style="fill:none;stroke:#F15A60;stroke-width:0.625" />
<path d="M174.46,418.72L174.46,418.72A3.125,3.125 0 1 1 168.21,418.72A3.125,3.125 0 1 1 174.46,418.72Z" style="fill:none;stroke:#F15A60;stroke-width:0.625" />
<path d="M181.41,353.37A3.125,3.125 0 1 1 175.16,353.37A3.125,3.125 0 1 1 181.41,353.37Z" style="fill:none;stroke:#F15A60;stroke-width:0.625" />
<path d="M188.36,178.23A3.125,3.125 0 1 1 182.11,178.23A3.125,3.125 0 1 1 188.36,178.23Z" style="fill:none;stroke:#F15A60;stroke-width:0.625" />
<path d="M195.32,158.93A3.125,3.125 0 1 1 189.07,158.93A3.125,3.125 0 1 1 195.32,158.93Z" style="fill:none;stroke:#F15A60;stroke-width:0.625" />
<path d="M202.27,153.22L202.27,153.22A3.125,3.125 0 1 1 196.02,153.22A3.125,3.125 0 1 1 202.27,153.22Z" style="fill:none;stroke:#F15A60;stroke-width:0.625" />
<path d="M209.22,210.44A3.125,3.125 0 1 1 202.97,210.44A3.125,3.125 0 1 1 209.22,210.44Z" style="fill:none;stroke:#F15A60;stroke-width:0.625" />
<path d="M216.18,304.67A3.125,3.125 0 1 1 209.93,304.67A3.125,3.125 0 1 1 216.18,304.67Z" style="fill:none;stroke:#F15A60;stroke-width:0.625" />
<path d="M223.13,183.07A3.125,3.125 0 1 1 216.88,183.07A3.125,3.125 0 1 1 223.13,183.07Z" style="fill:none;stroke:#F15A60;stroke-width:0.625" />
<path d="M230.08,244.45A3.125,3.125 0 1 1 223.83,244.45A3.125,3.125 0 1 1 230.08,244.45Z" style="fill:none;stroke:#F15A60;stroke-width:0.625" />
<path d="M237.04,324.24A3.125,3.125 0 1 1 230.79,324.24A3.125,3.125 0 1 1 237.04,324.24Z" style="fill:none;stroke:#F15A60;stroke-width:0.625" />
<path d="M243.99,356.65L243.99,356.65A3.125,3.125 0 1 1 237.74,356.65A3.125,3.125 0 1 1 243.99,356.65Z" style="fill:none;stroke:#F15A60;stroke-width:0.625" />
<path d="M250.94,421.53A3.125,3.125 0 1 1 244.69,421.53A3.125,3.125 0 1 1 250.94,421.53Z" style="fill:none;stroke:#F15A60;stroke-width:0.625" />
<path d="M257.9,338.07A3.125,3.125 0 1 1 251.65,338.07A3.125,3.125 0 1 1 257.9,338.07Z" style="fill:none;stroke:#F15A60;stroke-width:0.625" />
<path d="M264.85,415.01A3.125,3.125 0 1 1 258.6,415.01A3.125,3.125 0 1 1 264.85,415.01Z" style="fill:none;stroke:#F15A60;stroke-width:0.625" />
<path d="M271.8,447.45A3.125,3.125 0 1 1 265.55,447.45A3.125,3.125 0 1 1 271.8,447.45Z" style="fill:none;stroke:#F15A60;stroke-width:0.625" />
<path d="M278.76,549.84A3.125,3.125 0 1 1 272.51,549.84A3.125,3.125 0 1 1 278.76,549.84Z" style="fill:none;stroke:#F15A60;stroke-width:0.625" />
<path d="M285.71,466.49L285.71,466.49A3.125,3.125 0 1 1 279.46,466.49A3.125,3.125 0 1 1 285.71,466.49Z" style="fill:none;stroke:#F15A60;stroke-width:0.625" />
<path d="M292.67,633.15A3.125,3.125 0 1 1 286.42,633.15A3.125,3.125 0 1 1 292.67,633.15Z" style="fill:none;stroke:#F15A60;stroke-width:0.625" />
<path d="M299.62,717.23A3.125,3.125 0 1 1 293.37,717.23A3.125,3.125 0 1 1 299.62,717.23Z" style="fill:none;stroke:#F15A60;stroke-width:0.625" />
<path d="M306.57,557.49A3.125,3.125 0 1 1 300.32,557.49A3.125,3.125 0 1 1 306.57,557.49Z" style="fill:none;stroke:#F15A60;stroke-width:0.625" />
<path d="M313.53,702.06A3.125,3.125 0 1 1 307.28,702.06A3.125,3.125 0 1 1 313.53,702.06Z" style="fill:none;stroke:#F15A60;stroke-width:0.625" />
<path d="M320.48,651.28A3.125,3.125 0 1 1 314.23,651.28A3.125,3.125 0 1 1 320.48,651.28Z" style="fill:none;stroke:#F15A60;stroke-width:0.625" />
<path d="M327.43,570.82A3.125,3.125 0 1 1 321.18,570.82A3.125,3.125 0 1 1 327.43,570.82Z" style="fill:none;stroke:#F15A60;stroke-width:0.625" />
<path d="M334.39,510.83L334.39,510.83A3.125,3.125 0 1 1 328.14,510.83A3.125,3.125 0 1 1 334.39,510.83Z" style="fill:none;stroke:#F15A60;stroke-width:0.625" />
<path d="M341.34,467.96L341.34,467.96A3.125,3.125 0 1 1 335.09,467.96A3.125,3.125 0 1 1 341.34,467.96Z" style="fill:none;stroke:#F15A60;stroke-width:0.625" />
<path d="M348.29,435.96A3.125,3.125 0 1 1 342.04,435.96A3.125,3.125 0 1 1 348.29,435.96Z" style="fill:none;stroke:#F15A60;stroke-width:0.625" />
<path d="M355.25,434.39A3.125,3.125 0 1 1 349,434.39A3.125,3.125 0 1 1 355.25,434.39Z" style="fill:none;stroke:#F15A60;stroke-width:0.625" />
<path d="M362.2,513.63A3.125,3.125 0 1 1 355.95,513.63A3.125,3.125 0 1 1 362.2,513.63Z" style="fill:none;stroke:#F15A60;stroke-width:0.625" />
<path d="M369.15,363.73A3.125,3.125 0 1 1 362.9,363.73A3.125,3.125 0 1 1 369.15,363.73Z" style="fill:none;stroke:#F15A60;stroke-width:0.625" />
<path d="M376.11,300.98A3.125,3.125 0 1 1 369.86,300.98A3.125,3.125 0 1 1 376.11,300.98Z" style="fill:none;stroke:#F15A60;stroke-width:0.625" />
<path d="M383.06,338.4A3.125,3.125 0 1 1 376.81,338.4A3.125,3.125 0 1 1 383.06,338.4Z" style="fill:none;stroke:#F15A60;stroke-width:0.625" />
<path d="M390.02,280.28A3.125,3.125 0 1 1 383.77,280.28A3.125,3.125 0 1 1 390.02,280.28Z" style="fill:none;stroke:#F15A60;stroke-width:0.625" />
<path d="M396.97,248.56A3.125,3.125 0 1 1 390.72,248.56A3.125,3.125 0 1 1 396.97,248.56Z" style="fill:none;stroke:#F15A60;stroke-width:0.625" />
<path d="M403.92,162.23L403.92,162.23A3.125,3.125 0 1 1 397.67,162.23A3.125,3.125 0 1 1 403.92,162.23Z" style="fill:none;stroke:#F15A60;stroke-width:0.625" />
<path d="M410.88,257.36L410.88,257.36A3.125,3.125 0 1 1 404.63,257.36A3.125,3.125 0 1 1 410.88,257.36Z" style="fill:none;stroke:#F15A60;stroke-width:0.625" />
<path d="M417.83,158.73A3.125,3.125 0 1 1 411.58,158.73A3.125,3.125 0 1 1 417.83,158.73Z" style="fill:none;stroke:#F15A60;stroke-width:0.625" />
<path d="M424.78,256.11A3.125,3.125 0 1 1 418.53,256.11A3.125,3.125 0 1 1 424.78,256.11Z" style="fill:none;stroke:#F15A60;stroke-width:0.625" />
<path d="M431.74,257.24A3.125,3.125 0 1 1 425.49,257.24A3.125,3.125 0 1 1 431.74,257.24Z" style="fill:none;stroke:#F15A60;stroke-width:0.625" />
<path d="M438.69,232.91A3.125,3.125 0 1 1 432.44,232.91A3.125,3.125 0 1 1 438.69,232.91Z" style="fill:none;stroke:#F15A60;stroke-width:0.625" />
<path d="M445.64,391.35A3.125,3.125 0 1 1 439.39,391.35A3.125,3.125 0 1 1 445.64,391.35Z" style="fill:none;stroke:#F15A60;stroke-width:0.625" />
<path d="M452.6,350.28A3.125,3.125 0 1 1 446.35,350.28A3.125,3.125 0 1 1 452.6,350.28Z" style="fill:none;stroke:#F15A60;stroke-width:0.625" />
<path d="M459.55,424.31L459.55,424.31A3.125,3.125 0 1 1 453.3,424.31A3.125,3.125 0 1 1 459.55,424.31Z" style="fill:none;stroke:#F15A60;stroke-width:0.625" />
<path d="M466.5,481.77L466.5,481.77A3.125,3.125 0 1 1 460.25,481.77A3.125,3.125 0 1 1 466.5,481.77Z" style="fill:none;stroke:#F15A60;stroke-width:0.625" />
<path d="M473.46,530.56A3.125,3.125 0 1 1 467.21,530.56A3.125,3.125 0 1 1 473.46,530.56Z" style="fill:none;stroke:#F15A60;stroke-width:0.625" />
<path d="M480.41,519.27A3.125,3.125 0 1 1 474.16,519.27A3.125,3.125 0 1 1 480.41,519.27Z" style="fill:none;stroke:#F15A60;stroke-width:0.625" />
<path d="M487.36,642.06A3.125,3.125 0 1 1 481.11,642.06A3.125,3.125 0 1 1 487.36,642.06Z" style="fill:none;stroke:#F15A60;stroke-width:0.625" />
<path d="M494.32,509.89A3.125,3.125 0 1 1 488.07,509.89A3.125,3.125 0 1 1 494.32,509.89Z" style="fill:none;stroke:#F15A60;stroke-width:0.625" />
<path d="M501.27,710.5A3.125,3.125 0 1 1 495.02,710.5A3.125,3.125 0 1 1 501.27,710.5Z" style="fill:none;stroke:#F15A60;stroke-width:0.625" />
<path d="M508.23,683.57A3.125,3.125 0 1 1 501.98,683.57A3.125,3.125 0 1 1 508.23,683.57Z" style="fill:none;stroke:#F15A60;stroke-width:0.625" />
<path d="M515.18,645.57L515.18,645.57A3.125,3.125 0 1 1 508.93,645.57A3.125,3.125 0 1 1 515.18,645.57Z" style="fill:none;stroke:#F15A60;stroke-width:0.625" />
<path d="M522.13,555.11A3.125,3.125 0 1 1 515.88,555.11A3.125,3.125 0 1 1 522.13,555.11Z" style="fill:none;stroke:#F15A60;stroke-width:0.625" />
<path d="M529.09,565.6A3.125,3.125 0 1 1 522.84,565.6A3.125,3.125 0 1 1 529.09,565.6Z" style="fill:none;stroke:#F15A60;stroke-width:0.625" />
<path d="M536.04,676.61A3.125,3.125 0 1 1 529.79,676.61A3.125,3.125 0 1 1 536.04,676.61Z" style="fill:none;stroke:#F15A60;stroke-width:0.625" />
<path d="M542.99,660.27A3.125,3.125 0 1 1 536.74,660.27A3.125,3.125 0 1 1 542.99,660.27Z" style="fill:none;stroke:#F15A60;stroke-width:0.625" />
<path d="M549.95,476.16A3.125,3.125 0 1 1 543.7,476.16A3.125,3.125 0 1 1 549.95,476.16Z" style="fill:none;stroke:#F15A60;stroke-width:0.625" />
<path d="M556.9,558.13A3.125,3.125 0 1 1 550.65,558.13A3.125,3.125 0 1 1 556.9,558.13Z" style="fill:none;stroke:#F15A60;stroke-width:0.625" />
<path d="M563.85,500.24A3.125,3.125 0 1 1 557.6,500.24A3.125,3.125 0 1 1 563.85,500.24Z" style="fill:none;stroke:#F15A60;stroke-width:0.625" />
<path d="M570.81,403.52A3.125,3.125 0 1 1 564.56,403.52A3.125,3.125 0 1 1 570.81,403.52Z" style="fill:none;stroke:#F15A60;stroke-width:0.625" />
<path d="M577.76,278.36L577.76,278.36A3.125,3.125 0 1 1 571.51,278.36A3.125,3.125 0 1 1 577.76,278.36Z" style="fill:none;stroke:#F15A60;stroke-width:0.625" />
<path d="M584.71,222.01A3.125,3.125 0 1 1 578.46,222.01A3.125,3.125 0 1 1 584.71,222.01Z" style="fill:none;stroke:#F15A60;stroke-width:0.625" />
<path d="M591.67,286.49A3.125,3.125 0 1 1 585.42,286.49A3.125,3.125 0 1 1 591.67,286.49Z" style="fill:none;stroke:#F15A60;stroke-width:0.625" />
<path d="M598.62,231.75A3.125,3.125 0 1 1 592.37,231.75A3.125,3.125 0 1 1 598.62,231.75Z" style="fill:none;stroke:#F15A60;stroke-width:0.625" />
<path d="M605.57,161.5A3.125,3.125 0 1 1 599.32,161.5A3.125,3.125 0 1 1 605.57,161.5Z" style="fill:none;stroke:#F15A60;stroke-width:0.625" />
<path d="M612.53,213.7A3.125,3.125 0 1 1 606.28,213.7A3.125,3.125 0 1 1 612.53,213.7Z" style="fill:none;stroke:#F15A60;stroke-width:0.625" />
<path d="M619.48,226.09A3.125,3.125 0 1 1 613.23,226.09A3.125,3.125 0 1 1 619.48,226.09Z" style="fill:none;stroke:#F15A60;stroke-width:0.625" />
<path d="M626.44,209.24A3.125,3.125 0 1 1 620.19,209.24A3.125,3.125 0 1 1 626.44,209.24Z" style="fill:none;stroke:#F15A60;stroke-width:0.625" />
<path d="M633.39,124.43L633.39,124.43A3.125,3.125 0 1 1 627.14,124.43A3.125,3.125 0 1 1 633.39,124.43Z" style="fill:none;stroke:#F15A60;stroke-width:0.625" />
<path d="M640.34,221.7L640.34,221.7A3.125,3.125 0 1 1 634.09,221.7A3.125,3.125 0 1 1 640.34,221.7Z" style="fill:none;stroke:#F15A60;stroke-width:0.625" />
<path d="M647.3,167.26A3.125,3.125 0 1 1 641.05,167.26A3.125,3.125 0 1 1 647.3,167.26Z" style="fill:none;stroke:#F15A60;stroke-width:0.625" />
<path d="M654.25,262.58A3.125,3.125 0 1 1 648,262.58A3.125,3.125 0 1 1 654.25,262.58Z" style="fill:none;stroke:#F15A60;stroke-width:0.625" />
<path d="M661.2,247.81A3.125,3.125 0 1 1 654.95,247.81A3.125,3.125 0 1 1 661.2,247.81Z" style="fill:none;stroke:#F15A60;stroke-width:0.625" />
<path d="M668.16,327.21A3.125,3.125 0 1 1 661.91,327.21A3.125,3.125 0 1 1 668.16,327.21Z" style="fill:none;stroke:#F15A60;stroke-width:0.625" />
<path d="M675.11,478.05A3.125,3.125 0 1 1 668.86,478.05A3.125,3.125 0 1 1 675.11,478.05Z" style="fill:none;stroke:#F15A60;stroke-width:0.625" />
<path d="M682.06,538.1A3.125,3.125 0 1 1 675.81,538.1A3.125,3.125 0 1 1 682.06,538.1Z" style="fill:none;stroke:#F15A60;stroke-width:0.625" />
<path d="M689.02,550.93A3.125,3.125 0 1 1 682.77,550.93A3.125,3.125 0 1 1 689.02,550.93Z" style="fill:none;stroke:#F15A60;stroke-width:0.625" />
<path d="M695.97,676.24A3.125,3.125 0 1 1 689.72,676.24A3.125,3.125 0 1 1 695.97,676.24Z" style="fill:none;stroke:#F15A60;stroke-width:0.625" />
<path d="M702.92,592.97A3.125,3.125 0 1 1 696.67,592.97A3.125,3.125 0 1 1 702.92,592.97Z" style="fill:none;stroke:#F15A60;stroke-width:0.625" />
<path d="M709.88,703.51A3.125,3.125 0 1 1 703.63,703.51A3.125,3.125 0 1 1 709.88,703.51Z" style="fill:none;stroke:#F15A60;stroke-width:0.625" />
<path d="M716.83,582.88A3.125,3.125 0 1 1 710.58,582.88A3.125,3.125 0 1 1 716.83,582.88Z" style="fill:none;stroke:#F15A60;stroke-width:0.625" />
<path d="M723.79,664.6L723.79,664.6A3.125,3.125 0 1 1 717.54,664.6A3.125,3.125 0 1 1 723.79,664.6Z" style="fill:none;stroke:#F15A60;stroke-width:0.625" />
<path d="M730.74,701.49L730.74,701.49A3.125,3.125 0 1 1 724.49,701.49A3.125,3.125 0 1 1 730.74,701.49Z" style="fill:none;stroke:#F15A60;stroke-width:0.625" />
<path d="M737.69,648.46L737.69,648.46A3.125,3.125 0 1 1 731.44,648.46A3.125,3.125 0 1 1 737.69,648.46Z" style="fill:none;stroke:#F15A60;stroke-width:0.625" />
<path d="M744.65,540.53A3.125,3.125 0 1 1 738.4,540.53A3.125,3.125 0 1 1 744.65,540.53Z" style="fill:none;stroke:#F15A60;stroke-width:0.625" />
<path d="M751.6,498.09L751.6,498.09A3.125,3.125 0 1 1 745.35,498.09A3.125,3.125 0 1 1 751.6,498.09Z" style="fill:none;stroke:#F15A60;stroke-width:0.625" />
<path d="M758.55,499.31L758.55,499.31A3.125,3.125 0 1 1 752.3,499.31A3.125,3.125 0 1 1 758.55,499.31Z" style="fill:none;stroke:#F15A60;stroke-width:0.625" />
<path d="M765.51,547.39L765.51,547.39A3.125,3.125 0 1 1 759.26,547.39A3.125,3.125 0 1 1 765.51,547.39Z" style="fill:none;stroke:#F15A60;stroke-width:0.625" />
<path d="M772.46,420.63A3.125,3.125 0 1 1 766.21,420.63A3.125,3.125 0 1 1 772.46,420.63Z" style="fill:none;stroke:#F15A60;stroke-width:0.625" />
<path d="M779.41,432.99A3.125,3.125 0 1 1 773.16,432.99A3.125,3.125 0 1 1 779.41,432.99Z" style="fill:none;stroke:#F15A60;stroke-width:0.625" />
<path d="M786.37,418.53A3.125,3.125 0 1 1 780.12,418.53A3.125,3.125 0 1 1 786.37,418.53Z" style="fill:none;stroke:#F15A60;stroke-width:0.625" />
<path d="M793.32,195.33A3.125,3.125 0 1 1 787.07,195.33A3.125,3.125 0 1 1 793.32,195.33Z" style="fill:none;stroke:#F15A60;stroke-width:0.625" />
<path d="M800.27,348.3A3.125,3.125 0 1 1 794.02,348.3A3.125,3.125 0 1 1 800.27,348.3Z" style="fill:none;stroke:#F15A60;stroke-width:0.625" />
<path d="M807.23,171.62L807.23,171.62A3.125,3.125 0 1 1 800.98,171.62A3.125,3.125 0 1 1 807.23,171.62Z" style="fill:none;stroke:#F15A60;stroke-width:0.625" />
<path d="M814.18,120.54L814.18,120.54A3.125,3.125 0 1 1 807.93,120.54A3.125,3.125 0 1 1 814.18,120.54Z" style="fill:none;stroke:#F15A60;stroke-width:0.625" />
<path d="M821.13,249.86A3.125,3.125 0 1 1 814.88,249.86A3.125,3.125 0 1 1 821.13,249.86Z" style="fill:none;stroke:#F15A60;stroke-width:0.625" />
<path d="M828.09,203.21L828.09,203.21A3.125,3.125 0 1 1 821.84,203.21A3.125,3.125 0 1 1 828.09,203.21Z" style="fill:none;stroke:#F15A60;stroke-width:0.625" />
<path d="M835.04,261.57L835.04,261.57A3.125,3.125 0 1 1 828.79,261.57A3.125,3.125 0 1 1 835.04,261.57Z" style="fill:none;stroke:#F15A60;stroke-width:0.625" />
<path d="M842,331.3L842,331.3A3.125,3.125 0 1 1 835.75,331.3A3.125,3.125 0 1 1 842,331.3Z" style="fill:none;stroke:#F15A60;stroke-width:0.625" />
<path d="M848.95,348.54A3.125,3.125 0 1 1 842.7,348.54A3.125,3.125 0 1 1 848.95,348.54Z" style="fill:none;stroke:#F15A60;stroke-width:0.625" />
<path d="M855.9,185.06L855.9,185.06A3.125,3.125 0 1 1 849.65,185.06A3.125,3.125 0 1 1 855.9,185.06Z" style="fill:none;stroke:#F15A60;stroke-width:0.625" />
<path d="M862.86,391.15L862.86,391.15A3.125,3.125 0 1 1 856.61,391.15A3.125,3.125 0 1 1 862.86,391.15Z" style="fill:none;stroke:#F15A60;stroke-width:0.625" />
<path d="M869.81,321.55L869.81,321.55A3.125,3.125 0 1 1 863.56,321.55A3.125,3.125 0 1 1 869.81,321.55Z" style="fill:none;stroke:#F15A60;stroke-width:0.625" />
<path d="M876.76,520.77L876.76,520.77A3.125,3.125 0 1 1 870.51,520.77A3.125,3.125 0 1 1 876.76,520.77Z" style="fill:none;stroke:#F15A60;stroke-width:0.625" />
<path d="M883.72,554.66L883.72,554.66A3.125,3.125 0 1 1 877.47,554.66A3.125,3.125 0 1 1 883.72,554.66Z" style="fill:none;stroke:#F15A60;stroke-width:0.625" />
<path d="M890.67,418.64A3.125,3.125 0 1 1 884.42,418.64A3.125,3.125 0 1 1 890.67,418.64Z" style="fill:none;stroke:#F15A60;stroke-width:0.625" />
<path d="M897.62,588.03A3.125,3.125 0 1 1 891.37,588.03A3.125,3.125 0 1 1 897.62,588.03Z" style="fill:none;stroke:#F15A60;stroke-width:0.625" />
<path d="M904.58,580.82L904.58,580.82A3.125,3.125 0 1 1 898.33,580.82A3.125,3.125 0 1 1 904.58,580.82Z" style="fill:none;stroke:#F15A60;stroke-width:0.625" />
<path d="M911.53,714.58L911.53,714.58A3.125,3.125 0 1 1 905.28,714.58A3.125,3.125 0 1 1 911.53,714.58Z" style="fill:none;stroke:#F15A60;stroke-width:0.625" />
<path d="M918.48,685.26L918.48,685.26A3.125,3.125 0 1 1 912.23,685.26A3.125,3.125 0 1 1 918.48,685.26Z" style="fill:none;stroke:#F15A60;stroke-width:0.625" />
<path d="M925.44,723.5L925.44,723.5A3.125,3.125 0 1 1 919.19,723.5A3.125,3.125 0 1 1 925.44,723.5Z" style="fill:none;stroke:#F15A60;stroke-width:0.625" />
<path d="M932.39,733.68A3.125,3.125 0 1 1 926.14,733.68A3.125,3.125 0 1 1 932.39,733.68Z" style="fill:none;stroke:#F15A60;stroke-width:0.625" />
<path d="M939.34,531.57L939.34,531.57A3.125,3.125 0 1 1 933.09,531.57A3.125,3.125 0 1 1 939.34,531.57Z" style="fill:none;stroke:#F15A60;stroke-width:0.625" />
<path d="M946.3,573.66L946.3,573.66A3.125,3.125 0 1 1 940.05,573.66A3.125,3.125 0 1 1 946.3,573.66Z" style="fill:none;stroke:#F15A60;stroke-width:0.625" />
<path d="M953.25,672.75L953.25,672.75A3.125,3.125 0 1 1 947,672.75A3.125,3.125 0 1 1 953.25,672.75Z" style="fill:none;stroke:#F15A60;stroke-width:0.625" />
<path d="M960.21,547.19L960.21,547.19A3.125,3.125 0 1 1 953.96,547.19A3.125,3.125 0 1 1 960.21,547.19Z" style="fill:none;stroke:#F15A60;stroke-width:0.625" />
<path d="M967.16,548.76L967.16,548.76A3.125,3.125 0 1 1 960.91,548.76A3.125,3.125 0 1 1 967.16,548.76Z" style="fill:none;stroke:#F15A60;stroke-width:0.625" />
<path d="M974.11,524.17L974.11,524.17A3.125,3.125 0 1 1 967.86,524.17A3.125,3.125 0 1 1 974.11,524.17Z" style="fill:none;stroke:#F15A60;stroke-width:0.625" />
<path d="M981.07,371.43A3.125,3.125 0 1 1 974.82,371.43A3.125,3.125 0 1 1 981.07,371.43Z" style="fill:none;stroke:#F15A60;stroke-width:0.625" />
<path d="M988.02,326.47A3.125,3.125 0 1 1 981.77,326.47A3.125,3.125 0 1 1 988.02,326.47Z" style="fill:none;stroke:#F15A60;stroke-width:0.625" />
<path d="M994.97,327.35A3.125,3.125 0 1 1 988.72,327.35A3.125,3.125 0 1 1 994.97,327.35Z" style="fill:none;stroke:#F15A60;stroke-width:0.625" />
<path d="M1001.9,319.69A3.125,3.125 0 1 1 995.68,319.69A3.125,3.125 0 1 1 1001.9,319.69Z" style="fill:none;stroke:#F15A60;stroke-width:0.625" />
<path d="M1008.9,281.22A3.125,3.125 0 1 1 1002.6,281.22A3.125,3.125 0 1 1 1008.9,281.22Z" style="fill:none;stroke:#F15A60;stroke-width:0.625" />
<path d="M1015.8,136.06L1015.8,136.06A3.125,3.125 0 1 1 1009.6,136.06A3.125,3.125 0 1 1 1015.8,136.06Z" style="fill:none;stroke:#F15A60;stroke-width:0.625" />
<path d="M1022.8,117.33L1022.8,117.33A3.125,3.125 0 1 1 1016.5,117.33A3.125,3.125 0 1 1 1022.8,117.33Z" style="fill:none;stroke:#F15A60;stroke-width:0.625" />
<path d="M1029.7,176.14A3.125,3.125 0 1 1 1023.5,176.14A3.125,3.125 0 1 1 1029.7,176.14Z" style="fill:none;stroke:#F15A60;stroke-width:0.625" />
<path d="M1036.7,279.01A3.125,3.125 0 1 1 1030.4,279.01A3.125,3.125 0 1 1 1036.7,279.01Z" style="fill:none;stroke:#F15A60;stroke-width:0.625" />
<path d="M1043.6,128.59A3.125,3.125 0 1 1 1037.4,128.59A3.125,3.125 0 1 1 1043.6,128.59Z" style="fill:none;stroke:#F15A60;stroke-width:0.625" />
<path d="M1050.6,340.62A3.125,3.125 0 1 1 1044.4,340.62A3.125,3.125 0 1 1 1050.6,340.62Z" style="fill:none;stroke:#F15A60;stroke-width:0.625" />
<path d="M1057.6,202.43L1057.6,202.43A3.125,3.125 0 1 1 1051.3,202.43A3.125,3.125 0 1 1 1057.6,202.43Z" style="fill:none;stroke:#F15A60;stroke-width:0.625" />
<path d="M1064.5,312.01L1064.5,312.01A3.125,3.125 0 1 1 1058.3,312.01A3.125,3.125 0 1 1 1064.5,312.01Z" style="fill:none;stroke:#F15A60;stroke-width:0.625" />
<path d="M1071.5,282.15A3.125,3.125 0 1 1 1065.2,282.15A3.125,3.125 0 1 1 1071.5,282.15Z" style="fill:none;stroke:#F15A60;stroke-width:0.625" />
<path d="M1078.4,422.08A3.125,3.125 0 1 1 1072.2,422.08A3.125,3.125 0 1 1 1078.4,422.08Z" style="fill:none;stroke:#F15A60;stroke-width:0.625" />
<path d="M1085.4,413.13A3.125,3.125 0 1 1 1079.1,413.13A3.125,3.125 0 1 1 1085.4,413.13Z" style="fill:none;stroke:#F15A60;stroke-width:0.625" />
<path d="M1092.3,474.9L1092.3,474.9A3.125,3.125 0 1 1 1086.1,474.9A3.125,3.125 0 1 1 1092.3,474.9Z" style="fill:none;stroke:#F15A60;stroke-width:0.625" />
<path d="M1099.3,576.75L1099.3,576.75A3.125,3.125 0 1 1 1093,576.75A3.125,3.125 0 1 1 1099.3,576.75Z" style="fill:none;stroke:#F15A60;stroke-width:0.625" />
<path d="M1106.2,487.12A3.125,3.125 0 1 1 1100,487.12A3.125,3.125 0 1 1 1106.2,487.12Z" style="fill:none;stroke:#F15A60;stroke-width:0.625" />
<path d="M1113.2,620.7A3.125,3.125 0 1 1 1106.9,620.7A3.125,3.125 0 1 1 1113.2,620.7Z" style="fill:none;stroke:#F15A60;stroke-width:0.625" />
<path d="M1120.1,656.44A3.125,3.125 0 1 1 1113.9,656.44A3.125,3.125 0 1 1 1120.1,656.44Z" style="fill:none;stroke:#F15A60;stroke-width:0.625" />
<path d="M1127.1,742.58A3.125,3.125 0 1 1 1120.8,742.58A3.125,3.125 0 1 1 1127.1,742.58Z" style="fill:none;stroke:#F15A60;stroke-width:0.625" />
<path d="M1134,565.15L1134,565.15A3.125,3.125 0 1 1 1127.8,565.15A3.125,3.125 0 1 1 1134,565.15Z" style="fill:none;stroke:#F15A60;stroke-width:0.625" />
<path d="M1141,695.86A3.125,3.125 0 1 1 1134.7,695.86A3.125,3.125 0 1 1 1141,695.86Z" style="fill:none;stroke:#F15A60;stroke-width:0.625" />
<path d="M1148,672.52A3.125,3.125 0 1 1 1141.7,672.52A3.125,3.125 0 1 1 1148,672.52Z" style="fill:none;stroke:#F15A60;stroke-width:0.625" />
<path d="M1154.9,699.73A3.125,3.125 0 1 1 1148.7,699.73A3.125,3.125 0 1 1 1154.9,699.73Z" style="fill:none;stroke:#F15A60;stroke-width:0.625" />
<path d="M1161.9,494.46A3.125,3.125 0 1 1 1155.6,494.46A3.125,3.125 0 1 1 1161.9,494.46Z" style="fill:none;stroke:#F15A60;stroke-width:0.625" />
<path d="M1168.8,586.88A3.125,3.125 0 1 1 1162.6,586.88A3.125,3.125 0 1 1 1168.8,586.88Z" style="fill:none;stroke:#F15A60;stroke-width:0.625" />
<path d="M1175.8,540.34A3.125,3.125 0 1 1 1169.5,540.34A3.125,3.125 0 1 1 1175.8,540.34Z" style="fill:none;stroke:#F15A60;stroke-width:0.625" />
<path d="M1182.7,419.97A3.125,3.125 0 1 1 1176.5,419.97A3.125,3.125 0 1 1 1182.7,419.97Z" style="fill:none;stroke:#F15A60;stroke-width:0.625" />
<path d="M1189.7,368.62L1189.7,368.62A3.125,3.125 0 1 1 1183.4,368.62A3.125,3.125 0 1 1 1189.7,368.62Z" style="fill:none;stroke:#F15A60;stroke-width:0.625" />
<path d="M1196.6,336.42L1196.6,336.42A3.125,3.125 0 1 1 1190.4,336.42A3.125,3.125 0 1 1 1196.6,336.42Z" style="fill:none;stroke:#F15A60;stroke-width:0.625" />
<path d="M1203.6,322.54A3.125,3.125 0 1 1 1197.3,322.54A3.125,3.125 0 1 1 1203.6,322.54Z" style="fill:none;stroke:#F15A60;stroke-width:0.625" />
<path d="M1210.5,171.39L1210.5,171.39A3.125,3.125 0 1 1 1204.3,171.39A3.125,3.125 0 1 1 1210.5,171.39Z" style="fill:none;stroke:#F15A60;stroke-width:0.625" />
<path d="M1217.5,298.06L1217.5,298.06A3.125,3.125 0 1 1 1211.2,298.06A3.125,3.125 0 1 1 1217.5,298.06Z" style="fill:none;stroke:#F15A60;stroke-width:0.625" />
<path d="M1224.4,251.28A3.125,3.125 0 1 1 1218.2,251.28A3.125,3.125 0 1 1 1224.4,251.28Z" style="fill:none;stroke:#F15A60;stroke-width:0.625" />
<path d="M1231.4,309.66A3.125,3.125 0 1 1 1225.1,309.66A3.125,3.125 0 1 1 1231.4,309.66Z" style="fill:none;stroke:#F15A60;stroke-width:0.625" />
<path d="M1238.3,109.28A3.125,3.125 0 1 1 1232.1,109.28A3.125,3.125 0 1 1 1238.3,109.28Z" style="fill:none;stroke:#F15A60;stroke-width:0.625" />
<path d="M1245.3,316.08A3.125,3.125 0 1 1 1239.1,316.08A3.125,3.125 0 1 1 1245.3,316.08Z" style="fill:none;stroke:#F15A60;stroke-width:0.625" />
<path d="M1252.3,186.98A3.125,3.125 0 1 1 1246,186.98A3.125,3.125 0 1 1 1252.3,186.98Z" style="fill:none;stroke:#F15A60;stroke-width:0.625" />
<path d="M1259.2,301.82A3.125,3.125 0 1 1 1253,301.82A3.125,3.125 0 1 1 1259.2,301.82Z" style="fill:none;stroke:#F15A60;stroke-width:0.625" />
<path d="M1266.2,338.19L1266.2,338.19A3.125,3.125 0 1 1 1259.9,338.19A3.125,3.125 0 1 1 1266.2,338.19Z" style="fill:none;stroke:#F15A60;stroke-width:0.625" />
<path d="M1273.1,422.61L1273.1,422.61A3.125,3.125 0 1 1 1266.9,422.61A3.125,3.125 0 1 1 1273.1,422.61Z" style="fill:none;stroke:#F15A60;stroke-width:0.625" />
<path d="M1280.1,453.67A3.125,3.125 0 1 1 1273.8,453.67A3.125,3.125 0 1 1 1280.1,453.67Z" style="fill:none;stroke:#F15A60;stroke-width:0.625" />
<path d="M1287,378.81L1287,378.81A3.125,3.125 0 1 1 1280.8,378.81A3.125,3.125 0 1 1 1287,378.81Z" style="fill:none;stroke:#F15A60;stroke-width:0.625" />
<path d="M1294,378.25L1294,378.25A3.125,3.125 0 1 1 1287.7,378.25A3.125,3.125 0 1 1 1294,378.25Z" style="fill:none;stroke:#F15A60;stroke-width:0.625" />
<path d="M1300.9,490.33L1300.9,490.33A3.125,3.125 0 1 1 1294.7,490.33A3.125,3.125 0 1 1 1300.9,490.33Z" style="fill:none;stroke:#F15A60;stroke-width:0.625" />
<path d="M1307.9,631.34L1307.9,631.34A3.125,3.125 0 1 1 1301.6,631.34A3.125,3.125 0 1 1 1307.9,631.34Z" style="fill:none;stroke:#F15A60;stroke-width:0.625" />
<path d="M1314.8,599.7L1314.8,599.7A3.125,3.125 0 1 1 1308.6,599.7A3.125,3.125 0 1 1 1314.8,599.7Z" style="fill:none;stroke:#F15A60;stroke-width:0.625" />
<path d="M1321.8,581.76A3.125,3.125 0 1 1 1315.5,581.76A3.125,3.125 0 1 1 1321.8,581.76Z" style="fill:none;stroke:#F15A60;stroke-width:0.625" />
<path d="M1328.7,543.28A3.125,3.125 0 1 1 1322.5,543.28A3.125,3.125 0 1 1 1328.7,543.28Z" style="fill:none;stroke:#F15A60;stroke-width:0.625" />
<path d="M1335.7,630.6A3.125,3.125 0 1 1 1329.4,630.6A3.125,3.125 0 1 1 1335.7,630.6Z" style="fill:none;stroke:#F15A60;stroke-width:0.625" />
<path d="M1342.7,747.82A3.125,3.125 0 1 1 1336.4,747.82A3.125,3.125 0 1 1 1342.7,747.82Z" style="fill:none;stroke:#F15A60;stroke-width:0.625" />
<path d="M1349.6,595.48A3.125,3.125 0 1 1 1343.4,595.48A3.125,3.125 0 1 1 1349.6,595.48Z" style="fill:none;stroke:#F15A60;stroke-width:0.625" />
<path d="M1356.6,517.2A3.125,3.125 0 1 1 1350.3,517.2A3.125,3.125 0 1 1 1356.6,517.2Z" style="fill:none;stroke:#F15A60;stroke-width:0.625" />
<path d="M1363.5,620.91A3.125,3.125 0 1 1 1357.3,620.91A3.125,3.125 0 1 1 1363.5,620.91Z" style="fill:none;stroke:#F15A60;stroke-width:0.625" />
<path d="M1370.5,602.68A3.125,3.125 0 1 1 1364.2,602.68A3.125,3.125 0 1 1 1370.5,602.68Z" style="fill:none;stroke:#F15A60;stroke-width:0.625" />
<path d="M1377.4,455.53A3.125,3.125 0 1 1 1371.2,455.53A3.125,3.125 0 1 1 1377.4,455.53Z" style="fill:none;stroke:#F15A60;stroke-width:0.625" />
<path d="M1384.4,369.66L1384.4,369.66A3.125,3.125 0 1 1 1378.1,369.66A3.125,3.125 0 1 1 1384.4,369.66Z" style="fill:none;stroke:#F15A60;stroke-width:0.625" />
<path d="M1391.3,457.39L1391.3,457.39A3.125,3.125 0 1 1 1385.1,457.39A3.125,3.125 0 1 1 1391.3,457.39Z" style="fill:none;stroke:#F15A60;stroke-width:0.625" />
<path d="M1398.3,336.17L1398.3,336.17A3.125,3.125 0 1 1 1392,336.17A3.125,3.125 0 1 1 1398.3,336.17Z" style="fill:none;stroke:#F15A60;stroke-width:0.625" />
<path d="M1405.2,273.87A3.125,3.125 0 1 1 1399,273.87A3.125,3.125 0 1 1 1405.2,273.87Z" style="fill:none;stroke:#F15A60;stroke-width:0.625" />
<path d="M1412.2,221.33A3.125,3.125 0 1 1 1405.9,221.33A3.125,3.125 0 1 1 1412.2,221.33Z" style="fill:none;stroke:#F15A60;stroke-width:0.625" />
<path d="M1419.1,162.68A3.125,3.125 0 1 1 1412.9,162.68A3.125,3.125 0 1 1 1419.1,162.68Z" style="fill:none;stroke:#F15A60;stroke-width:0.625" />
<path d="M1426.1,220.46A3.125,3.125 0 1 1 1419.8,220.46A3.125,3.125 0 1 1 1426.1,220.46Z" style="fill:none;stroke:#F15A60;stroke-width:0.625" />
<path d="M1433,145.86A3.125,3.125 0 1 1 1426.8,145.86A3.125,3.125 0 1 1 1433,145.86Z" style="fill:none;stroke:#F15A60;stroke-width:0.625" />
<path d="M1440,103.39A3.125,3.125 0 1 1 1433.8,103.39A3.125,3.125 0 1 1 1440,103.39Z" style="fill:none;stroke:#F15A60;stroke-width:0.625" />
<path d="M53.12,388.5L60.074,400.5L67.027,445.98L73.981,476.86L80.934,499.9L87.888,521.68L94.841,562.7L101.79,600.54L108.75,614.32L115.7,636.57L122.66,667.18L129.61,674.73L136.56,647.6L143.52,634.86L150.47,583.42L157.42,516.56L164.38,483.45L171.33,445.48L178.28,400.43L185.24,326.53L192.19,254.66L199.14,190.28L206.1,147.99L213.05,136.75L220.01,113.52L226.96,111.38L233.91,133.61L240.87,169.32L247.82,222.1L254.77,259.6L261.73,309.69L268.68,362.57L275.63,430.45L282.59,475.25L289.54,543.89L296.49,620.97L303.45,656.47L310.4,707.84L317.35,738.44L324.31,741.59L331.26,721.87L338.22,684.86L345.17,635.83L352.12,584.31L359.08,549.94L366.03,490.29L372.98,422.42L379.94,368.32L386.89,311.63L393.84,258.05L400.8,197.35L407.75,165.71L414.7,126.17L421.66,115.97L428.61,116.44L435.56,120.4L442.52,162.01L449.47,200.84L456.43,255.68L463.38,321.16L470.33,392.94L477.29,456.36L484.24,535.43L491.19,578.65L498.15,649.22L505.1,703.97L512.05,738.95L519.01,743.23L525.96,737.47L532.91,744.75L539.87,743.22L546.82,700.2L553.78,668.73L560.73,625.34L567.68,563.78L574.64,479.89L581.59,389.41L588.54,319.88L595.5,251.3L602.45,181.22L609.4,134.41L616.36,104.2L623.31,83.97L630.26,58.344L637.22,61.262L644.17,62.335L651.12,88.552L658.08,117.01L665.03,163.51L671.99,240.7L678.94,328.7L685.89,414.23L692.85,515.92L699.8,590.24L706.75,671.96L713.71,715.11L720.66,758.03L727.61,794.15L734.57,806.88L741.52,785.96L748.47,746.02L755.43,699.44L762.38,659.78L769.33,595.95L776.29,536.84L783.24,480.44L790.2,386.96L797.15,331.27L804.1,252.4L811.06,174.25L818.01,134.36L824.96,100.06L831.92,90.473L838.87,107.02L845.82,137.16L852.78,141.26L859.73,188.38L866.68,224.33L873.64,298.77L880.59,378.41L887.55,425.5L894.5,496.64L901.45,557.59L908.41,634.49L915.36,694.96L922.31,750.4L929.27,795.17L936.22,786.88L943.17,773.34L950.13,770.35L957.08,736.99L964.03,699.23L970.99,655.07L977.94,581.34L984.89,500.77L991.85,426.04L998.8,358.79L1005.8,294.96L1012.7,214.03L1019.7,140.87L1026.6,92.689L1033.6,79.724L1040.5,51.226L1047.5,75.474L1054.4,83.145L1061.4,118.35L1068.3,152.17L1075.3,215.01L1082.2,275.91L1089.2,345.22L1096.2,428.82L1103.1,486.65L1110.1,559.66L1117,628.87L1124,703.13L1130.9,729.41L1137.9,766.73L1144.8,787.66L1151.8,802.94L1158.7,767.92L1165.7,741.97L1172.6,702.61L1179.6,637.3L1186.5,561.75L1193.5,483.28L1200.5,408.92L1207.4,314.01L1214.4,254.87L1221.3,200.78L1228.3,172.22L1235.2,117.55L1242.2,114.67L1249.1,98.632L1256.1,114.07L1263,144.96L1270,198.15L1276.9,260.38L1283.9,306.79L1290.9,348.13L1297.8,405.42L1304.8,484.55L1311.7,550.34L1318.7,602.34L1325.6,635.01L1332.6,673.1L1339.5,724.47L1346.5,736.5L1353.4,722.01L1360.4,718.87L1367.3,706.83L1374.3,661.52L1381.2,595.74L1388.2,547.1L1395.2,478.56L1402.1,402.72L1409.1,323.81L1416,242.81L1423,184.75L1429.9,125.53L1436.9,70.875" style="fill:none;stroke:#7AC36A;stroke-width:1.25;stroke-dasharray:7.5,2.5" />
<path d="M50.453,385.83L55.787,385.83L55.787,391.17L50.453,391.17Z" style="fill:none;stroke:#7AC36A;stroke-width:0.625" />
<path d="M57.406,397.83L62.741,397.83L62.741,403.17L57.406,403.17Z" style="fill:none;stroke:#7AC36A;stroke-width:0.625" />
<path d="M64.36,443.32L69.695,443.32L69.695,448.65L64.36,448.65Z" style="fill:none;stroke:#7AC36A;stroke-width:0.625" />
<path d="M71.313,474.19L76.648,474.19L76.648,479.53L71.313,479.53Z" style="fill:none;stroke:#7AC36A;stroke-width:0.625" />
<path d="M78.267,497.23L83.602,497.23L83.602,502.56L78.267,502.56Z" style="fill:none;stroke:#7AC36A;stroke-width:0.625" />
<path d="M85.22,519.02L90.555,519.02L90.555,524.35L85.22,524.35Z" style="fill:none;stroke:#7AC36A;stroke-width:0.625" />
<path d="M92.174,560.03L97.509,560.03L97.509,565.36L92.174,565.36Z" style="fill:none;stroke:#7AC36A;stroke-width:0.625" />
<path d="M99.128,597.87L104.46,597.87L104.46,603.2L99.128,603.2Z" style="fill:none;stroke:#7AC36A;stroke-width:0.625" />
<path d="M106.08,611.65L111.42,611.65L111.42,616.99L106.08,616.99Z" style="fill:none;stroke:#7AC36A;stroke-width:0.625" />
<path d="M113.03,633.91L118.37,633.91L118.37,639.24L113.03,639.24Z" style="fill:none;stroke:#7AC36A;stroke-width:0.625" />
<path d="M119.99,664.51L125.32,664.51L125.32,669.85L119.99,669.85Z" style="fill:none;stroke:#7AC36A;stroke-width:0.625" />
<path d="M126.94,672.07L132.28,672.07L132.28,677.4L126.94,677.4Z" style="fill:none;stroke:#7AC36A;stroke-width:0.625" />
<path d="M133.9,644.93L139.23,644.93L139.23,650.27L133.9,650.27Z" style="fill:none;stroke:#7AC36A;stroke-width:0.625" />
<path d="M140.85,632.19L146.18,632.19L146.18,637.52L140.85,637.52Z" style="fill:none;stroke:#7AC36A;stroke-width:0.625" />
<path d="M147.8,580.75L153.14,580.75L153.14,586.09L147.8,586.09Z" style="fill:none;stroke:#7AC36A;stroke-width:0.625" />
<path d="M154.76,513.9L160.09,513.9L160.09,519.23L154.76,519.23Z" style="fill:none;stroke:#7AC36A;stroke-width:0.625" />
<path d="M161.71,480.78L167.04,480.78L167.04,486.12L161.71,486.12Z" style="fill:none;stroke:#7AC36A;stroke-width:0.625" />
<path d="M168.66,442.81L174,442.81L174,448.15L168.66,448.15Z" style="fill:none;stroke:#7AC36A;stroke-width:0.625" />
<path d="M175.62,397.76L180.95,397.76L180.95,403.09L175.62,403.09Z" style="fill:none;stroke:#7AC36A;stroke-width:0.625" />
<path d="M182.57,323.87L187.9,323.87L187.9,329.2L182.57,329.2Z" style="fill:none;stroke:#7AC36A;stroke-width:0.625" />
<path d="M189.52,251.99L194.86,251.99L194.86,257.33L189.52,257.33Z" style="fill:none;stroke:#7AC36A;stroke-width:0.625" />
<path d="M196.48,187.61L201.81,187.61L201.81,192.94L196.48,192.94Z" style="fill:none;stroke:#7AC36A;stroke-width:0.625" />
<path d="M203.43,145.32L208.77,145.32L208.77,150.66L203.43,150.66Z" style="fill:none;stroke:#7AC36A;stroke-width:0.625" />
<path d="M210.38,134.09L215.72,134.09L215.72,139.42L210.38,139.42Z" style="fill:none;stroke:#7AC36A;stroke-width:0.625" />
<path d="M217.34,110.85L222.67,110.85L222.67,116.19L217.34,116.19Z" style="fill:none;stroke:#7AC36A;stroke-width:0.625" />
<path d="M224.29,108.71L229.63,108.71L229.63,114.05L224.29,114.05Z" style="fill:none;stroke:#7AC36A;stroke-width:0.625" />
<path d="M231.24,130.94L236.58,130.94L236.58,136.28L231.24,136.28Z" style="fill:none;stroke:#7AC36A;stroke-width:0.625" />
<path d="M238.2,166.65L243.53,166.65L243.53,171.98L238.2,171.98Z" style="fill:none;stroke:#7AC36A;stroke-width:0.625" />
<path d="M245.15,219.43L250.49,219.43L250.49,224.76L245.15,224.76Z" style="fill:none;stroke:#7AC36A;stroke-width:0.625" />
<path d="M252.11,256.93L257.44,256.93L257.44,262.26L252.11,262.26Z" style="fill:none;stroke:#7AC36A;stroke-width:0.625" />
<path d="M259.06,307.02L264.39,307.02L264.39,312.36L259.06,312.36Z" style="fill:none;stroke:#7AC36A;stroke-width:0.625" />
<path d="M266.01,359.91L271.35,359.91L271.35,365.24L266.01,365.24Z" style="fill:none;stroke:#7AC36A;stroke-width:0.625" />
<path d="M272.97,427.78L278.3,427.78L278.3,433.12L272.97,433.12Z" style="fill:none;stroke:#7AC36A;stroke-width:0.625" />
<path d="M279.92,472.58L285.25,472.58L285.25,477.91L279.92,477.91Z" style="fill:none;stroke:#7AC36A;stroke-width:0.625" />
<path d="M286.87,541.22L292.21,541.22L292.21,546.56L286.87,546.56Z" style="fill:none;stroke:#7AC36A;stroke-width:0.625" />
<path d="M293.83,618.31L299.16,618.31L299.16,623.64L293.83,623.64Z" style="fill:none;stroke:#7AC36A;stroke-width:0.625" />
<path d="M300.78,653.8L306.11,653.8L306.11,659.14L300.78,659.14Z" style="fill:none;stroke:#7AC36A;stroke-width:0.625" />
<path d="M307.73,705.18L313.07,705.18L313.07,710.51L307.73,710.51Z" style="fill:none;stroke:#7AC36A;stroke-width:0.625" />
<path d="M314.69,735.77L320.02,735.77L320.02,741.11L314.69,741.11Z" style="fill:none;stroke:#7AC36A;stroke-width:0.625" />
<path d="M321.64,738.92L326.98,738.92L326.98,744.26L321.64,744.26Z" style="fill:none;stroke:#7AC36A;stroke-width:0.625" />
<path d="M328.59,719.2L333.93,719.2L333.93,724.54L328.59,724.54Z" style="fill:none;stroke:#7AC36A;stroke-width:0.625" />
<path d="M335.55,682.19L340.88,682.19L340.88,687.53L335.55,687.53Z" style="fill:none;stroke:#7AC36A;stroke-width:0.625" />
<path d="M342.5,633.17L347.84,633.17L347.84,638.5L342.5,638.5Z" style="fill:none;stroke:#7AC36A;stroke-width:0.625" />
<path d="M349.46,581.64L354.79,581.64L354.79,586.97L349.46,586.97Z" style="fill:none;stroke:#7AC36A;stroke-width:0.625" />
<path d="M356.41,547.27L361.74,547.27L361.74,552.61L356.41,552.61Z" style="fill:none;stroke:#7AC36A;stroke-width:0.625" />
<path d="M363.36,487.62L368.7,487.62L368.7,492.95L363.36,492.95Z" style="fill:none;stroke:#7AC36A;stroke-width:0.625" />
<path d="M370.32,419.75L375.65,419.75L375.65,425.09L370.32,425.09Z" style="fill:none;stroke:#7AC36A;stroke-width:0.625" />
<path d="M377.27,365.66L382.6,365.66L382.6,370.99L377.27,370.99Z" style="fill:none;stroke:#7AC36A;stroke-width:0.625" />
<path d="M384.22,308.96L389.56,308.96L389.56,314.3L384.22,314.3Z" style="fill:none;stroke:#7AC36A;stroke-width:0.625" />
<path d="M391.18,255.38L396.51,255.38L396.51,260.72L391.18,260.72Z" style="fill:none;stroke:#7AC36A;stroke-width:0.625" />
<path d="M398.13,194.68L403.46,194.68L403.46,200.02L398.13,200.02Z" style="fill:none;stroke:#7AC36A;stroke-width:0.625" />
<path d="M405.08,163.04L410.42,163.04L410.42,168.37L405.08,168.37Z" style="fill:none;stroke:#7AC36A;stroke-width:0.625" />
<path d="M412.04,123.5L417.37,123.5L417.37,128.83L412.04,128.83Z" style="fill:none;stroke:#7AC36A;stroke-width:0.625" />
<path d="M418.99,113.3L424.33,113.3L424.33,118.63L418.99,118.63Z" style="fill:none;stroke:#7AC36A;stroke-width:0.625" />
<path d="M425.94,113.77L431.28,113.77L431.28,119.1L425.94,119.1Z" style="fill:none;stroke:#7AC36A;stroke-width:0.625" />
<path d="M432.9,117.73L438.23,117.73L438.23,123.07L432.9,123.07Z" style="fill:none;stroke:#7AC36A;stroke-width:0.625" />
<path d="M439.85,159.34L445.19,159.34L445.19,164.67L439.85,164.67Z" style="fill:none;stroke:#7AC36A;stroke-width:0.625" />
<path d="M446.8,198.17L452.14,198.17L452.14,203.51L446.8,203.51Z" style="fill:none;stroke:#7AC36A;stroke-width:0.625" />
<path d="M453.76,253.01L459.09,253.01L459.09,258.34L453.76,258.34Z" style="fill:none;stroke:#7AC36A;stroke-width:0.625" />
<path d="M460.71,318.49L466.05,318.49L466.05,323.82L460.71,323.82Z" style="fill:none;stroke:#7AC36A;stroke-width:0.625" />
<path d="M467.67,390.27L473,390.27L473,395.6L467.67,395.6Z" style="fill:none;stroke:#7AC36A;stroke-width:0.625" />
<path d="M474.62,453.69L479.95,453.69L479.95,459.03L474.62,459.03Z" style="fill:none;stroke:#7AC36A;stroke-width:0.625" />
<path d="M481.57,532.76L486.91,532.76L486.91,538.1L481.57,538.1Z" style="fill:none;stroke:#7AC36A;stroke-width:0.625" />
<path d="M488.53,575.98L493.86,575.98L493.86,581.32L488.53,581.32Z" style="fill:none;stroke:#7AC36A;stroke-width:0.625" />
<path d="M495.48,646.55L500.81,646.55L500.81,651.89L495.48,651.89Z" style="fill:none;stroke:#7AC36A;stroke-width:0.625" />
<path d="M502.43,701.3L507.77,701.3L507.77,706.64L502.43,706.64Z" style="fill:none;stroke:#7AC36A;stroke-width:0.625" />
<path d="M509.39,736.28L514.72,736.28L514.72,741.61L509.39,741.61Z" style="fill:none;stroke:#7AC36A;stroke-width:0.625" />
<path d="M516.34,740.56L521.67,740.56L521.67,745.9L516.34,745.9Z" style="fill:none;stroke:#7AC36A;stroke-width:0.625" />
<path d="M523.29,734.8L528.63,734.8L528.63,740.14L523.29,740.14Z" style="fill:none;stroke:#7AC36A;stroke-width:0.625" />
<path d="M530.25,742.09L535.58,742.09L535.58,747.42L530.25,747.42Z" style="fill:none;stroke:#7AC36A;stroke-width:0.625" />
<path d="M537.2,740.55L542.54,740.55L542.54,745.89L537.2,745.89Z" style="fill:none;stroke:#7AC36A;stroke-width:0.625" />
<path d="M544.15,697.53L549.49,697.53L549.49,702.86L544.15,702.86Z" style="fill:none;stroke:#7AC36A;stroke-width:0.625" />
<path d="M551.11,666.06L556.44,666.06L556.44,671.4L551.11,671.4Z" style="fill:none;stroke:#7AC36A;stroke-width:0.625" />
<path d="M558.06,622.68L563.4,622.68L563.4,628.01L558.06,628.01Z" style="fill:none;stroke:#7AC36A;stroke-width:0.625" />
<path d="M565.01,561.11L570.35,561.11L570.35,566.45L565.01,566.45Z" style="fill:none;stroke:#7AC36A;stroke-width:0.625" />
<path d="M571.97,477.22L577.3,477.22L577.3,482.55L571.97,482.55Z" style="fill:none;stroke:#7AC36A;stroke-width:0.625" />
<path d="M578.92,386.74L584.26,386.74L584.26,392.08L578.92,392.08Z" style="fill:none;stroke:#7AC36A;stroke-width:0.625" />
<path d="M585.88,317.21L591.21,317.21L591.21,322.55L585.88,322.55Z" style="fill:none;stroke:#7AC36A;stroke-width:0.625" />
<path d="M592.83,248.63L598.16,248.63L598.16,253.97L592.83,253.97Z" style="fill:none;stroke:#7AC36A;stroke-width:0.625" />
<path d="M599.78,178.55L605.12,178.55L605.12,183.89L599.78,183.89Z" style="fill:none;stroke:#7AC36A;stroke-width:0.625" />
<path d="M606.74,131.74L612.07,131.74L612.07,137.08L606.74,137.08Z" style="fill:none;stroke:#7AC36A;stroke-width:0.625" />
<path d="M613.69,101.53L619.02,101.53L619.02,106.86L613.69,106.86Z" style="fill:none;stroke:#7AC36A;stroke-width:0.625" />
<path d="M620.64,81.303L625.98,81.303L625.98,86.638L620.64,86.638Z" style="fill:none;stroke:#7AC36A;stroke-width:0.625" />
<path d="M627.6,55.676L632.93,55.676L632.93,61.011L627.6,61.011Z" style="fill:none;stroke:#7AC36A;stroke-width:0.625" />
<path d="M634.55,58.595L639.89,58.595L639.89,63.929L634.55,63.929Z" style="fill:none;stroke:#7AC36A;stroke-width:0.625" />
<path d="M641.5,59.668L646.84,59.668L646.84,65.002L641.5,65.002Z" style="fill:none;stroke:#7AC36A;stroke-width:0.625" />
<path d="M648.46,85.885L653.79,85.885L653.79,91.219L648.46,91.219Z" style="fill:none;stroke:#7AC36A;stroke-width:0.625" />
<path d="M655.41,114.35L660.75,114.35L660.75,119.68L655.41,119.68Z" style="fill:none;stroke:#7AC36A;stroke-width:0.625" />
<path d="M662.36,160.84L667.7,160.84L667.7,166.18L662.36,166.18Z" style="fill:none;stroke:#7AC36A;stroke-width:0.625" />
<path d="M669.32,238.03L674.65,238.03L674.65,243.37L669.32,243.37Z" style="fill:none;stroke:#7AC36A;stroke-width:0.625" />
<path d="M676.27,326.03L681.61,326.03L681.61,331.37L676.27,331.37Z" style="fill:none;stroke:#7AC36A;stroke-width:0.625" />
<path d="M683.23,411.56L688.56,411.56L688.56,416.9L683.23,416.9Z" style="fill:none;stroke:#7AC36A;stroke-width:0.625" />
<path d="M690.18,513.25L695.51,513.25L695.51,518.59L690.18,518.59Z" style="fill:none;stroke:#7AC36A;stroke-width:0.625" />
<path d="M697.13,587.57L702.47,587.57L702.47,592.9L697.13,592.9Z" style="fill:none;stroke:#7AC36A;stroke-width:0.625" />
<path d="M704.09,669.29L709.42,669.29L709.42,674.63L704.09,674.63Z" style="fill:none;stroke:#7AC36A;stroke-width:0.625" />
<path d="M711.04,712.44L716.37,712.44L716.37,717.77L711.04,717.77Z" style="fill:none;stroke:#7AC36A;stroke-width:0.625" />
<path d="M717.99,755.37L723.33,755.37L723.33,760.7L717.99,760.7Z" style="fill:none;stroke:#7AC36A;stroke-width:0.625" />
<path d="M724.95,791.48L730.28,791.48L730.28,796.82L724.95,796.82Z" style="fill:none;stroke:#7AC36A;stroke-width:0.625" />
<path d="M731.9,804.21L737.23,804.21L737.23,809.54L731.9,809.54Z" style="fill:none;stroke:#7AC36A;stroke-width:0.625" />
<path d="M738.85,783.3L744.19,783.3L744.19,788.63L738.85,788.63Z" style="fill:none;stroke:#7AC36A;stroke-width:0.625" />
<path d="M745.81,743.35L751.14,743.35L751.14,748.69L745.81,748.69Z" style="fill:none;stroke:#7AC36A;stroke-width:0.625" />
<path d="M752.76,696.77L758.1,696.77L758.1,702.1L752.76,702.1Z" style="fill:none;stroke:#7AC36A;stroke-width:0.625" />
<path d="M759.71,657.11L765.05,657.11L765.05,662.44L759.71,662.44Z" style="fill:none;stroke:#7AC36A;stroke-width:0.625" />
<path d="M766.67,593.28L772,593.28L772,598.62L766.67,598.62Z" style="fill:none;stroke:#7AC36A;stroke-width:0.625" />
<path d="M773.62,534.18L778.96,534.18L778.96,539.51L773.62,539.51Z" style="fill:none;stroke:#7AC36A;stroke-width:0.625" />
<path d="M780.57,477.77L785.91,477.77L785.91,483.11L780.57,483.11Z" style="fill:none;stroke:#7AC36A;stroke-width:0.625" />
<path d="M787.53,384.29L792.86,384.29L792.86,389.62L787.53,389.62Z" style="fill:none;stroke:#7AC36A;stroke-width:0.625" />
<path d="M794.48,328.6L799.82,328.6L799.82,333.93L794.48,333.93Z" style="fill:none;stroke:#7AC36A;stroke-width:0.625" />
<path d="M801.44,249.73L806.77,249.73L806.77,255.07L801.44,255.07Z" style="fill:none;stroke:#7AC36A;stroke-width:0.625" />
<path d="M808.39,171.58L813.72,171.58L813.72,176.91L808.39,176.91Z" style="fill:none;stroke:#7AC36A;stroke-width:0.625" />
<path d="M815.34,131.7L820.68,131.7L820.68,137.03L815.34,137.03Z" style="fill:none;stroke:#7AC36A;stroke-width:0.625" />
<path d="M822.3,97.39L827.63,97.39L827.63,102.72L822.3,102.72Z" style="fill:none;stroke:#7AC36A;stroke-width:0.625" />
<path d="M829.25,87.805L834.58,87.805L834.58,93.14L829.25,93.14Z" style="fill:none;stroke:#7AC36A;stroke-width:0.625" />
<path d="M836.2,104.35L841.54,104.35L841.54,109.68L836.2,109.68Z" style="fill:none;stroke:#7AC36A;stroke-width:0.625" />
<path d="M843.16,134.49L848.49,134.49L848.49,139.83L843.16,139.83Z" style="fill:none;stroke:#7AC36A;stroke-width:0.625" />
<path d="M850.11,138.59L855.44,138.59L855.44,143.93L850.11,143.93Z" style="fill:none;stroke:#7AC36A;stroke-width:0.625" />
<path d="M857.06,185.72L862.4,185.72L862.4,191.05L857.06,191.05Z" style="fill:none;stroke:#7AC36A;stroke-width:0.625" />
<path d="M864.02,221.66L869.35,221.66L869.35,227L864.02,227Z" style="fill:none;stroke:#7AC36A;stroke-width:0.625" />
<path d="M870.97,296.1L876.31,296.1L876.31,301.43L870.97,301.43Z" style="fill:none;stroke:#7AC36A;stroke-width:0.625" />
<path d="M877.92,375.74L883.26,375.74L883.26,381.08L877.92,381.08Z" style="fill:none;stroke:#7AC36A;stroke-width:0.625" />
<path d="M884.88,422.83L890.21,422.83L890.21,428.17L884.88,428.17Z" style="fill:none;stroke:#7AC36A;stroke-width:0.625" />
<path d="M891.83,493.97L897.17,493.97L897.17,499.3L891.83,499.3Z" style="fill:none;stroke:#7AC36A;stroke-width:0.625" />
<path d="M898.78,554.92L904.12,554.92L904.12,560.25L898.78,560.25Z" style="fill:none;stroke:#7AC36A;stroke-width:0.625" />
<path d="M905.74,631.83L911.07,631.83L911.07,637.16L905.74,637.16Z" style="fill:none;stroke:#7AC36A;stroke-width:0.625" />
<path d="M912.69,692.29L918.03,692.29L918.03,697.63L912.69,697.63Z" style="fill:none;stroke:#7AC36A;stroke-width:0.625" />
<path d="M919.65,747.73L924.98,747.73L924.98,753.07L919.65,753.07Z" style="fill:none;stroke:#7AC36A;stroke-width:0.625" />
<path d="M926.6,792.51L931.93,792.51L931.93,797.84L926.6,797.84Z" style="fill:none;stroke:#7AC36A;stroke-width:0.625" />
<path d="M933.55,784.21L938.89,784.21L938.89,789.55L933.55,789.55Z" style="fill:none;stroke:#7AC36A;stroke-width:0.625" />
<path d="M940.51,770.68L945.84,770.68L945.84,776.01L940.51,776.01Z" style="fill:none;stroke:#7AC36A;stroke-width:0.625" />
<path d="M947.46,767.69L952.79,767.69L952.79,773.02L947.46,773.02Z" style="fill:none;stroke:#7AC36A;stroke-width:0.625" />
<path d="M954.41,734.32L959.75,734.32L959.75,739.66L954.41,739.66Z" style="fill:none;stroke:#7AC36A;stroke-width:0.625" />
<path d="M961.37,696.56L966.7,696.56L966.7,701.9L961.37,701.9Z" style="fill:none;stroke:#7AC36A;stroke-width:0.625" />
<path d="M968.32,652.41L973.66,652.41L973.66,657.74L968.32,657.74Z" style="fill:none;stroke:#7AC36A;stroke-width:0.625" />
<path d="M975.27,578.68L980.61,578.68L980.61,584.01L975.27,584.01Z" style="fill:none;stroke:#7AC36A;stroke-width:0.625" />
<path d="M982.23,498.11L987.56,498.11L987.56,503.44L982.23,503.44Z" style="fill:none;stroke:#7AC36A;stroke-width:0.625" />
<path d="M989.18,423.37L994.52,423.37L994.52,428.7L989.18,428.7Z" style="fill:none;stroke:#7AC36A;stroke-width:0.625" />
<path d="M996.13,356.13L1001.5,356.13L1001.5,361.46L996.13,361.46Z" style="fill:none;stroke:#7AC36A;stroke-width:0.625" />
<path d="M1003.1,292.29L1008.4,292.29L1008.4,297.63L1003.1,297.63Z" style="fill:none;stroke:#7AC36A;stroke-width:0.625" />
<path d="M1010,211.37L1015.4,211.37L1015.4,216.7L1010,216.7Z" style="fill:none;stroke:#7AC36A;stroke-width:0.625" />
<path d="M1017,138.2L1022.3,138.2L1022.3,143.54L1017,143.54Z" style="fill:none;stroke:#7AC36A;stroke-width:0.625" />
<path d="M1023.9,90.021L1029.3,90.021L1029.3,95.356L1023.9,95.356Z" style="fill:none;stroke:#7AC36A;stroke-width:0.625" />
<path d="M1030.9,77.057L1036.2,77.057L1036.2,82.391L1030.9,82.391Z" style="fill:none;stroke:#7AC36A;stroke-width:0.625" />
<path d="M1037.9,48.558L1043.2,48.558L1043.2,53.893L1037.9,53.893Z" style="fill:none;stroke:#7AC36A;stroke-width:0.625" />
<path d="M1044.8,72.807L1050.1,72.807L1050.1,78.142L1044.8,78.142Z" style="fill:none;stroke:#7AC36A;stroke-width:0.625" />
<path d="M1051.8,80.478L1057.1,80.478L1057.1,85.812L1051.8,85.812Z" style="fill:none;stroke:#7AC36A;stroke-width:0.625" />
<path d="M1058.7,115.69L1064.1,115.69L1064.1,121.02L1058.7,121.02Z" style="fill:none;stroke:#7AC36A;stroke-width:0.625" />
<path d="M1065.7,149.5L1071,149.5L1071,154.84L1065.7,154.84Z" style="fill:none;stroke:#7AC36A;stroke-width:0.625" />
<path d="M1072.6,212.34L1078,212.34L1078,217.67L1072.6,217.67Z" style="fill:none;stroke:#7AC36A;stroke-width:0.625" />
<path d="M1079.6,273.24L1084.9,273.24L1084.9,278.58L1079.6,278.58Z" style="fill:none;stroke:#7AC36A;stroke-width:0.625" />
<path d="M1086.5,342.56L1091.9,342.56L1091.9,347.89L1086.5,347.89Z" style="fill:none;stroke:#7AC36A;stroke-width:0.625" />
<path d="M1093.5,426.16L1098.8,426.16L1098.8,431.49L1093.5,431.49Z" style="fill:none;stroke:#7AC36A;stroke-width:0.625" />
<path d="M1100.4,483.98L1105.8,483.98L1105.8,489.32L1100.4,489.32Z" style="fill:none;stroke:#7AC36A;stroke-width:0.625" />
<path d="M1107.4,556.99L1112.7,556.99L1112.7,562.33L1107.4,562.33Z" style="fill:none;stroke:#7AC36A;stroke-width:0.625" />
<path d="M1114.3,626.21L1119.7,626.21L1119.7,631.54L1114.3,631.54Z" style="fill:none;stroke:#7AC36A;stroke-width:0.625" />
<path d="M1121.3,700.46L1126.6,700.46L1126.6,705.8L1121.3,705.8Z" style="fill:none;stroke:#7AC36A;stroke-width:0.625" />
<path d="M1128.3,726.75L1133.6,726.75L1133.6,732.08L1128.3,732.08Z" style="fill:none;stroke:#7AC36A;stroke-width:0.625" />
<path d="M1135.2,764.06L1140.5,764.06L1140.5,769.39L1135.2,769.39Z" style="fill:none;stroke:#7AC36A;stroke-width:0.625" />
<path d="M1142.2,784.99L1147.5,784.99L1147.5,790.33L1142.2,790.33Z" style="fill:none;stroke:#7AC36A;stroke-width:0.625" />
<path d="M1149.1,800.27L1154.4,800.27L1154.4,805.61L1149.1,805.61Z" style="fill:none;stroke:#7AC36A;stroke-width:0.625" />
<path d="M1156.1,765.25L1161.4,765.25L1161.4,770.58L1156.1,770.58Z" style="fill:none;stroke:#7AC36A;stroke-width:0.625" />
<path d="M1163,739.31L1168.4,739.31L1168.4,744.64L1163,744.64Z" style="fill:none;stroke:#7AC36A;stroke-width:0.625" />
<path d="M1170,699.94L1175.3,699.94L1175.3,705.27L1170,705.27Z" style="fill:none;stroke:#7AC36A;stroke-width:0.625" />
<path d="M1176.9,634.64L1182.3,634.64L1182.3,639.97L1176.9,639.97Z" style="fill:none;stroke:#7AC36A;stroke-width:0.625" />
<path d="M1183.9,559.08L1189.2,559.08L1189.2,564.42L1183.9,564.42Z" style="fill:none;stroke:#7AC36A;stroke-width:0.625" />
<path d="M1190.8,480.61L1196.2,480.61L1196.2,485.95L1190.8,485.95Z" style="fill:none;stroke:#7AC36A;stroke-width:0.625" />
<path d="M1197.8,406.25L1203.1,406.25L1203.1,411.58L1197.8,411.58Z" style="fill:none;stroke:#7AC36A;stroke-width:0.625" />
<path d="M1204.7,311.34L1210.1,311.34L1210.1,316.68L1204.7,316.68Z" style="fill:none;stroke:#7AC36A;stroke-width:0.625" />
<path d="M1211.7,252.2L1217,252.2L1217,257.53L1211.7,257.53Z" style="fill:none;stroke:#7AC36A;stroke-width:0.625" />
<path d="M1218.6,198.12L1224,198.12L1224,203.45L1218.6,203.45Z" style="fill:none;stroke:#7AC36A;stroke-width:0.625" />
<path d="M1225.6,169.56L1230.9,169.56L1230.9,174.89L1225.6,174.89Z" style="fill:none;stroke:#7AC36A;stroke-width:0.625" />
<path d="M1232.6,114.88L1237.9,114.88L1237.9,120.22L1232.6,120.22Z" style="fill:none;stroke:#7AC36A;stroke-width:0.625" />
<path d="M1239.5,112L1244.8,112L1244.8,117.34L1239.5,117.34Z" style="fill:none;stroke:#7AC36A;stroke-width:0.625" />
<path d="M1246.5,95.965L1251.8,95.965L1251.8,101.3L1246.5,101.3Z" style="fill:none;stroke:#7AC36A;stroke-width:0.625" />
<path d="M1253.4,111.4L1258.8,111.4L1258.8,116.74L1253.4,116.74Z" style="fill:none;stroke:#7AC36A;stroke-width:0.625" />
<path d="M1260.4,142.29L1265.7,142.29L1265.7,147.63L1260.4,147.63Z" style="fill:none;stroke:#7AC36A;stroke-width:0.625" />
<path d="M1267.3,195.48L1272.7,195.48L1272.7,200.82L1267.3,200.82Z" style="fill:none;stroke:#7AC36A;stroke-width:0.625" />
<path d="M1274.3,257.71L1279.6,257.71L1279.6,263.05L1274.3,263.05Z" style="fill:none;stroke:#7AC36A;stroke-width:0.625" />
<path d="M1281.2,304.12L1286.6,304.12L1286.6,309.46L1281.2,309.46Z" style="fill:none;stroke:#7AC36A;stroke-width:0.625" />
<path d="M1288.2,345.46L1293.5,345.46L1293.5,350.8L1288.2,350.8Z" style="fill:none;stroke:#7AC36A;stroke-width:0.625" />
<path d="M1295.1,402.75L1300.5,402.75L1300.5,408.09L1295.1,408.09Z" style="fill:none;stroke:#7AC36A;stroke-width:0.625" />
<path d="M1302.1,481.88L1307.4,481.88L1307.4,487.22L1302.1,487.22Z" style="fill:none;stroke:#7AC36A;stroke-width:0.625" />
<path d="M1309,547.67L1314.4,547.67L1314.4,553L1309,553Z" style="fill:none;stroke:#7AC36A;stroke-width:0.625" />
<path d="M1316,599.67L1321.3,599.67L1321.3,605L1316,605Z" style="fill:none;stroke:#7AC36A;stroke-width:0.625" />
<path d="M1323,632.34L1328.3,632.34L1328.3,637.67L1323,637.67Z" style="fill:none;stroke:#7AC36A;stroke-width:0.625" />
<path d="M1329.9,670.44L1335.2,670.44L1335.2,675.77L1329.9,675.77Z" style="fill:none;stroke:#7AC36A;stroke-width:0.625" />
<path d="M1336.9,721.81L1342.2,721.81L1342.2,727.14L1336.9,727.14Z" style="fill:none;stroke:#7AC36A;stroke-width:0.625" />
<path d="M1343.8,733.84L1349.1,733.84L1349.1,739.17L1343.8,739.17Z" style="fill:none;stroke:#7AC36A;stroke-width:0.625" />
<path d="M1350.8,719.34L1356.1,719.34L1356.1,724.68L1350.8,724.68Z" style="fill:none;stroke:#7AC36A;stroke-width:0.625" />
<path d="M1357.7,716.2L1363.1,716.2L1363.1,721.53L1357.7,721.53Z" style="fill:none;stroke:#7AC36A;stroke-width:0.625" />
<path d="M1364.7,704.16L1370,704.16L1370,709.5L1364.7,709.5Z" style="fill:none;stroke:#7AC36A;stroke-width:0.625" />
<path d="M1371.6,658.85L1377,658.85L1377,664.19L1371.6,664.19Z" style="fill:none;stroke:#7AC36A;stroke-width:0.625" />
<path d="M1378.6,593.07L1383.9,593.07L1383.9,598.41L1378.6,598.41Z" style="fill:none;stroke:#7AC36A;stroke-width:0.625" />
<path d="M1385.5,544.43L1390.9,544.43L1390.9,549.77L1385.5,549.77Z" style="fill:none;stroke:#7AC36A;stroke-width:0.625" />
<path d="M1392.5,475.89L1397.8,475.89L1397.8,481.23L1392.5,481.23Z" style="fill:none;stroke:#7AC36A;stroke-width:0.625" />
<path d="M1399.4,400.05L1404.8,400.05L1404.8,405.39L1399.4,405.39Z" style="fill:none;stroke:#7AC36A;stroke-width:0.625" />
<path d="M1406.4,321.14L1411.7,321.14L1411.7,326.48L1406.4,326.48Z" style="fill:none;stroke:#7AC36A;stroke-width:0.625" />
<path d="M1413.3,240.14L1418.7,240.14L1418.7,245.47L1413.3,245.47Z" style="fill:none;stroke:#7AC36A;stroke-width:0.625" />
<path d="M1420.3,182.08L1425.6,182.08L1425.6,187.42L1420.3,187.42Z" style="fill:none;stroke:#7AC36A;stroke-width:0.625" />
<path d="M1427.3,122.86L1432.6,122.86L1432.6,128.19L1427.3,128.19Z" style="fill:none;stroke:#7AC36A;stroke-width:0.625" />
<path d="M1434.2,68.208L1439.5,68.208L1439.5,73.543L1434.2,73.543Z" style="fill:none;stroke:#7AC36A;stroke-width:0.625" />
<path d="M1415,70.183L1440,70.183" style="fill:none;stroke:#F15A60;stroke-width:1.25" />
<path d="M1430.6,70.183A3.125,3.125 0 1 1 1424.4,70.183A3.125,3.125 0 1 1 1430.6,70.183Z" style="fill:none;stroke:#F15A60;stroke-width:0.625" />
<text x="1388.8" y="-63.101" transform="scale(1, -1)"
	style="font-family:Times;font-weight:normal;font-style:normal;font-size:12pt">raw</text>
<path d="M1415,55.461L1440,55.461" style="fill:none;stroke:#7AC36A;stroke-width:1.25;stroke-dasharray:7.5,2.5" />
<path d="M1424.8,52.794L1430.2,52.794L1430.2,58.129L1424.8,58.129Z" style="fill:none;stroke:#7AC36A;stroke-width:0.625" />
<text x="1367.1" y="-48.379" transform="scale(1, -1)"
	style="font-family:Times;font-weight:normal;font-style:normal;font-size:12pt">smooth</text>
</g>
</svg>
