<?xml version="1.0"?>
<!-- Generated by SVGo and Plotinum VG -->
<svg width="16in" height="9in"
	xmlns="http://www.w3.org/2000/svg"
	xmlns:xlink="http://www.w3.org/1999/xlink">
<g transform="scale(1, -1) translate(0, -810)">
<path d="M0,0L1440,0L1440,810L0,810Z" style="fill:#FFFFFF" />
<text x="739.58" y="-4.8267" transform="scale(1, -1)"
	style="font-family:Times;font-weight:normal;font-style:normal;font-size:12pt">X</text>
<text x="49.995" y="-19.502" transform="scale(1, -1)"
	style="font-family:Times;font-weight:normal;font-style:normal;font-size:10pt">0</text>
<text x="464.08" y="-19.502" transform="scale(1, -1)"
	style="font-family:Times;font-weight:normal;font-style:normal;font-size:10pt">60</text>
<text x="878.17" y="-19.502" transform="scale(1, -1)"
	style="font-family:Times;font-weight:normal;font-style:normal;font-size:10pt">120</text>
<text x="1295.4" y="-19.502" transform="scale(1, -1)"
	style="font-family:Times;font-weight:normal;font-style:normal;font-size:10pt">180</text>
<path d="M53.12,31.538L53.12,41.538" style="fill:none;stroke:#000000;stroke-width:0.625" />
<path d="M470.33,31.538L470.33,41.538" style="fill:none;stroke:#000000;stroke-width:0.625" />
<path d="M887.55,31.538L887.55,41.538" style="fill:none;stroke:#000000;stroke-width:0.625" />
<path d="M1304.8,31.538L1304.8,41.538" style="fill:none;stroke:#000000;stroke-width:0.625" />
<path d="M192.19,36.538L192.19,41.538" style="fill:none;stroke:#000000;stroke-width:0.625" />
<path d="M331.26,36.538L331.26,41.538" style="fill:none;stroke:#000000;stroke-width:0.625" />
<path d="M609.4,36.538L609.4,41.538" style="fill:none;stroke:#000000;stroke-width:0.625" />
<path d="M748.47,36.538L748.47,41.538" style="fill:none;stroke:#000000;stroke-width:0.625" />
<path d="M1026.6,36.538L1026.6,41.538" style="fill:none;stroke:#000000;stroke-width:0.625" />
<path d="M1165.7,36.538L1165.7,41.538" style="fill:none;stroke:#000000;stroke-width:0.625" />
<path d="M53.12,41.538L1436.9,41.538" style="fill:none;stroke:#000000;stroke-width:0.625" />
<g transform="rotate(90)">
<text x="423.63" y="14.443" transform="scale(1, -1)"
	style="font-family:Times;font-weight:normal;font-style:normal;font-size:12pt">Y</text>
</g>
<text x="19.27" y="-50.818" transform="scale(1, -1)"
	style="font-family:Times;font-weight:normal;font-style:normal;font-size:10pt">-1</text>
<text x="23.433" y="-291.42" transform="scale(1, -1)"
	style="font-family:Times;font-weight:normal;font-style:normal;font-size:10pt">0</text>
<text x="23.433" y="-532.03" transform="scale(1, -1)"
	style="font-family:Times;font-weight:normal;font-style:normal;font-size:10pt">1</text>
<text x="23.433" y="-772.63" transform="scale(1, -1)"
	style="font-family:Times;font-weight:normal;font-style:normal;font-size:10pt">2</text>
<path d="M32.808,56.72L42.808,56.72" style="fill:none;stroke:#000000;stroke-width:0.625" />
<path d="M32.808,297.32L42.808,297.32" style="fill:none;stroke:#000000;stroke-width:0.625" />
<path d="M32.808,537.93L42.808,537.93" style="fill:none;stroke:#000000;stroke-width:0.625" />
<path d="M32.808,778.53L42.808,778.53" style="fill:none;stroke:#000000;stroke-width:0.625" />
<path d="M37.808,177.02L42.808,177.02" style="fill:none;stroke:#000000;stroke-width:0.625" />
<path d="M37.808,417.63L42.808,417.63" style="fill:none;stroke:#000000;stroke-width:0.625" />
<path d="M37.808,658.23L42.808,658.23" style="fill:none;stroke:#000000;stroke-width:0.625" />
<path d="M42.808,51.226L42.808,806.88" style="fill:none;stroke:#000000;stroke-width:0.625" />
<path d="M53.12,454.27L60.074,348.66L67.027,483.1L73.981,631.53L80.934,525.3L87.888,491.24L94.841,638.79L101.79,739.88L108.75,711.14L115.7,688.44L122.66,700.64L129.61,671.17L136.56,557.16L143.52,725.75L150.47,655.4L157.42,459.37L164.38,568.94L171.33,497.75L178.28,562.43L185.24,357.6L192.19,442.33L199.14,219.62L206.1,178.72L213.05,306.1L220.01,163.87L226.96,326.73L233.91,126.68L240.87,105.08L247.82,202.19L254.77,212.65L261.73,144.59L268.68,162.37L275.63,295.63L282.59,291.19L289.54,212.36L296.49,248.31L303.45,426.41L310.4,431.98L317.35,472.79L324.31,364.95L331.26,625.58L338.22,536.85L345.17,698.14L352.12,562.56L359.08,512.41L366.03,689.07L372.98,696.62L379.94,765.47L386.89,534.55L393.84,697.65L400.8,646.59L407.75,528.37L414.7,576.04L421.66,504.16L428.61,577.65L435.56,497.51L442.52,513.37L449.47,342.46L456.43,251.19L463.38,218.97L470.33,248.17L477.29,195.29L484.24,118.89L491.19,136.38L498.15,288.56L505.1,132.92L512.05,208.39L519.01,107.92L525.96,177.07L532.91,101.33L539.87,273.66L546.82,169.19L553.78,242.5L560.73,362.18L567.68,257.58L574.64,303.18L581.59,470.94L588.54,388.34L595.5,435.59L602.45,623.37L609.4,599.73L616.36,570.55L623.31,550.11L630.26,616.59L637.22,556.48L644.17,574.78L651.12,541.74L658.08,544.02L665.03,583.63L671.99,624.6L678.94,471.3L685.89,562.26L692.85,613.38L699.8,522.73L706.75,471.22L713.71,334.33L720.66,337.92L727.61,187.17L734.57,244.6L741.52,352.88L748.47,306L755.43,241.98L762.38,91.093L769.33,219.95L776.29,246.08L783.24,299.19L790.2,133.93L797.15,228.04L804.1,267.19L811.06,227.33L818.01,397.26L824.96,259.23L831.92,399.19L838.87,501.08L845.82,397.6L852.78,475.84L859.73,647.44L866.68,684.75L873.64,482.98L880.59,626.07L887.55,689.61L894.5,746.99L901.45,701.53L908.41,742.15L915.36,696.13L922.31,689.46L929.27,704.86L936.22,689.64L943.17,478.48L950.13,581.93L957.08,410.19L964.03,362.71L970.99,338.39L977.94,436.63L984.89,364.76L991.85,288.22L998.8,347.85L1005.8,257.24L1012.7,198.86L1019.7,109.43L1026.6,187.45L1033.6,284.6L1040.5,137.39L1047.5,85.776L1054.4,145.22L1061.4,213.48L1068.3,358.14L1075.3,314.34L1082.2,302.2L1089.2,372.19L1096.2,315.39L1103.1,546.61L1110.1,584.77L1117,484.47L1124,574.53L1130.9,495.58L1137.9,722.55L1144.8,589.51L1151.8,594.05L1158.7,645.66L1165.7,757.17L1172.6,698.53L1179.6,574.53L1186.5,706.62L1193.5,499.44L1200.5,453.93L1207.4,647.96L1214.4,590.27L1221.3,551L1228.3,415.84L1235.2,471.83L1242.2,277.53L1249.1,199.16L1256.1,203.55L1263,305.7L1270,297.79L1276.9,111.64L1283.9,272.78L1290.9,69.471L1297.8,138.3L1304.8,219.86L1311.7,282.62L1318.7,117.08L1325.6,279.72L1332.6,354.38L1339.5,423.06L1346.5,457.65L1353.4,501.92L1360.4,509.95L1367.3,519.81L1374.3,485.97L1381.2,535.32L1388.2,493.23L1395.2,585.89L1402.1,637.7L1409.1,589.58L1416,580.94L1423,559.11L1429.9,674.69L1436.9,629.55" style="fill:none;stroke:#F15A60;stroke-width:1.25" />
<path d="M56.245,454.27A3.125,3.125 0 1 1 49.995,454.27A3.125,3.125 0 1 1 56.245,454.27Z" style="fill:none;stroke:#F15A60;stroke-width:0.625" />
<path d="M63.199,348.66A3.125,3.125 0 1 1 56.949,348.66A3.125,3.125 0 1 1 63.199,348.66Z" style="fill:none;stroke:#F15A60;stroke-width:0.625" />
<path d="M70.152,483.1A3.125,3.125 0 1 1 63.902,483.1A3.125,3.125 0 1 1 70.152,483.1Z" style="fill:none;stroke:#F15A60;stroke-width:0.625" />
<path d="M77.106,631.53A3.125,3.125 0 1 1 70.856,631.53A3.125,3.125 0 1 1 77.106,631.53Z" style="fill:none;stroke:#F15A60;stroke-width:0.625" />
<path d="M84.059,525.3A3.125,3.125 0 1 1 77.809,525.3A3.125,3.125 0 1 1 84.059,525.3Z" style="fill:none;stroke:#F15A60;stroke-width:0.625" />
<path d="M91.013,491.24A3.125,3.125 0 1 1 84.763,491.24A3.125,3.125 0 1 1 91.013,491.24Z" style="fill:none;stroke:#F15A60;stroke-width:0.625" />
<path d="M97.966,638.79A3.125,3.125 0 1 1 91.716,638.79A3.125,3.125 0 1 1 97.966,638.79Z" style="fill:none;stroke:#F15A60;stroke-width:0.625" />
<path d="M104.92,739.88L104.92,739.88A3.125,3.125 0 1 1 98.67,739.88A3.125,3.125 0 1 1 104.92,739.88Z" style="fill:none;stroke:#F15A60;stroke-width:0.625" />
<path d="M111.87,711.14L111.87,711.14A3.125,3.125 0 1 1 105.62,711.14A3.125,3.125 0 1 1 111.87,711.14Z" style="fill:none;stroke:#F15A60;stroke-width:0.625" />
<path d="M118.83,688.44A3.125,3.125 0 1 1 112.58,688.44A3.125,3.125 0 1 1 118.83,688.44Z" style="fill:none;stroke:#F15A60;stroke-width:0.625" />
<path d="M125.78,700.64L125.78,700.64A3.125,3.125 0 1 1 119.53,700.64A3.125,3.125 0 1 1 125.78,700.64Z" style="fill:none;stroke:#F15A60;stroke-width:0.625" />
<path d="M132.73,671.17L132.73,671.17A3.125,3.125 0 1 1 126.48,671.17A3.125,3.125 0 1 1 132.73,671.17Z" style="fill:none;stroke:#F15A60;stroke-width:0.625" />
<path d="M139.69,557.16A3.125,3.125 0 1 1 133.44,557.16A3.125,3.125 0 1 1 139.69,557.16Z" style="fill:none;stroke:#F15A60;stroke-width:0.625" />
<path d="M146.64,725.75A3.125,3.125 0 1 1 140.39,725.75A3.125,3.125 0 1 1 146.64,725.75Z" style="fill:none;stroke:#F15A60;stroke-width:0.625" />
<path d="M153.59,655.4L153.59,655.4A3.125,3.125 0 1 1 147.34,655.4A3.125,3.125 0 1 1 153.59,655.4Z" style="fill:none;stroke:#F15A60;stroke-width:0.625" />
<path d="M160.55,459.37L160.55,459.37A3.125,3.125 0 1 1 154.3,459.37A3.125,3.125 0 1 1 160.55,459.37Z" style="fill:none;stroke:#F15A60;stroke-width:0.625" />
<path d="M167.5,568.94A3.125,3.125 0 1 1 161.25,568.94A3.125,3.125 0 1 1 167.5,568.94Z" style="fill:none;stroke:#F15A60;stroke-width:0.625" />
<path d="M174.46,497.75L174.46,497.75A3.125,3.125 0 1 1 168.21,497.75A3.125,3.125 0 1 1 174.46,497.75Z" style="fill:none;stroke:#F15A60;stroke-width:0.625" />
<path d="M181.41,562.43A3.125,3.125 0 1 1 175.16,562.43A3.125,3.125 0 1 1 181.41,562.43Z" style="fill:none;stroke:#F15A60;stroke-width:0.625" />
<path d="M188.36,357.6A3.125,3.125 0 1 1 182.11,357.6A3.125,3.125 0 1 1 188.36,357.6Z" style="fill:none;stroke:#F15A60;stroke-width:0.625" />
<path d="M195.32,442.33A3.125,3.125 0 1 1 189.07,442.33A3.125,3.125 0 1 1 195.32,442.33Z" style="fill:none;stroke:#F15A60;stroke-width:0.625" />
<path d="M202.27,219.62L202.27,219.62A3.125,3.125 0 1 1 196.02,219.62A3.125,3.125 0 1 1 202.27,219.62Z" style="fill:none;stroke:#F15A60;stroke-width:0.625" />
<path d="M209.22,178.72A3.125,3.125 0 1 1 202.97,178.72A3.125,3.125 0 1 1 209.22,178.72Z" style="fill:none;stroke:#F15A60;stroke-width:0.625" />
<path d="M216.18,306.1A3.125,3.125 0 1 1 209.93,306.1A3.125,3.125 0 1 1 216.18,306.1Z" style="fill:none;stroke:#F15A60;stroke-width:0.625" />
<path d="M223.13,163.87A3.125,3.125 0 1 1 216.88,163.87A3.125,3.125 0 1 1 223.13,163.87Z" style="fill:none;stroke:#F15A60;stroke-width:0.625" />
<path d="M230.08,326.73A3.125,3.125 0 1 1 223.83,326.73A3.125,3.125 0 1 1 230.08,326.73Z" style="fill:none;stroke:#F15A60;stroke-width:0.625" />
<path d="M237.04,126.68A3.125,3.125 0 1 1 230.79,126.68A3.125,3.125 0 1 1 237.04,126.68Z" style="fill:none;stroke:#F15A60;stroke-width:0.625" />
<path d="M243.99,105.08L243.99,105.08A3.125,3.125 0 1 1 237.74,105.08A3.125,3.125 0 1 1 243.99,105.08Z" style="fill:none;stroke:#F15A60;stroke-width:0.625" />
<path d="M250.94,202.19A3.125,3.125 0 1 1 244.69,202.19A3.125,3.125 0 1 1 250.94,202.19Z" style="fill:none;stroke:#F15A60;stroke-width:0.625" />
<path d="M257.9,212.65A3.125,3.125 0 1 1 251.65,212.65A3.125,3.125 0 1 1 257.9,212.65Z" style="fill:none;stroke:#F15A60;stroke-width:0.625" />
<path d="M264.85,144.59A3.125,3.125 0 1 1 258.6,144.59A3.125,3.125 0 1 1 264.85,144.59Z" style="fill:none;stroke:#F15A60;stroke-width:0.625" />
<path d="M271.8,162.37A3.125,3.125 0 1 1 265.55,162.37A3.125,3.125 0 1 1 271.8,162.37Z" style="fill:none;stroke:#F15A60;stroke-width:0.625" />
<path d="M278.76,295.63A3.125,3.125 0 1 1 272.51,295.63A3.125,3.125 0 1 1 278.76,295.63Z" style="fill:none;stroke:#F15A60;stroke-width:0.625" />
<path d="M285.71,291.19L285.71,291.19A3.125,3.125 0 1 1 279.46,291.19A3.125,3.125 0 1 1 285.71,291.19Z" style="fill:none;stroke:#F15A60;stroke-width:0.625" />
<path d="M292.67,212.36A3.125,3.125 0 1 1 286.42,212.36A3.125,3.125 0 1 1 292.67,212.36Z" style="fill:none;stroke:#F15A60;stroke-width:0.625" />
<path d="M299.62,248.31A3.125,3.125 0 1 1 293.37,248.31A3.125,3.125 0 1 1 299.62,248.31Z" style="fill:none;stroke:#F15A60;stroke-width:0.625" />
<path d="M306.57,426.41A3.125,3.125 0 1 1 300.32,426.41A3.125,3.125 0 1 1 306.57,426.41Z" style="fill:none;stroke:#F15A60;stroke-width:0.625" />
<path d="M313.53,431.98A3.125,3.125 0 1 1 307.28,431.98A3.125,3.125 0 1 1 313.53,431.98Z" style="fill:none;stroke:#F15A60;stroke-width:0.625" />
<path d="M320.48,472.79A3.125,3.125 0 1 1 314.23,472.79A3.125,3.125 0 1 1 320.48,472.79Z" style="fill:none;stroke:#F15A60;stroke-width:0.625" />
<path d="M327.43,364.95A3.125,3.125 0 1 1 321.18,364.95A3.125,3.125 0 1 1 327.43,364.95Z" style="fill:none;stroke:#F15A60;stroke-width:0.625" />
<path d="M334.39,625.58L334.39,625.58A3.125,3.125 0 1 1 328.14,625.58A3.125,3.125 0 1 1 334.39,625.58Z" style="fill:none;stroke:#F15A60;stroke-width:0.625" />
<path d="M341.34,536.85L341.34,536.85A3.125,3.125 0 1 1 335.09,536.85A3.125,3.125 0 1 1 341.34,536.85Z" style="fill:none;stroke:#F15A60;stroke-width:0.625" />
<path d="M348.29,698.14A3.125,3.125 0 1 1 342.04,698.14A3.125,3.125 0 1 1 348.29,698.14Z" style="fill:none;stroke:#F15A60;stroke-width:0.625" />
<path d="M355.25,562.56A3.125,3.125 0 1 1 349,562.56A3.125,3.125 0 1 1 355.25,562.56Z" style="fill:none;stroke:#F15A60;stroke-width:0.625" />
<path d="M362.2,512.41A3.125,3.125 0 1 1 355.95,512.41A3.125,3.125 0 1 1 362.2,512.41Z" style="fill:none;stroke:#F15A60;stroke-width:0.625" />
<path d="M369.15,689.07A3.125,3.125 0 1 1 362.9,689.07A3.125,3.125 0 1 1 369.15,689.07Z" style="fill:none;stroke:#F15A60;stroke-width:0.625" />
<path d="M376.11,696.62A3.125,3.125 0 1 1 369.86,696.62A3.125,3.125 0 1 1 376.11,696.62Z" style="fill:none;stroke:#F15A60;stroke-width:0.625" />
<path d="M383.06,765.47A3.125,3.125 0 1 1 376.81,765.47A3.125,3.125 0 1 1 383.06,765.47Z" style="fill:none;stroke:#F15A60;stroke-width:0.625" />
<path d="M390.02,534.55A3.125,3.125 0 1 1 383.77,534.55A3.125,3.125 0 1 1 390.02,534.55Z" style="fill:none;stroke:#F15A60;stroke-width:0.625" />
<path d="M396.97,697.65A3.125,3.125 0 1 1 390.72,697.65A3.125,3.125 0 1 1 396.97,697.65Z" style="fill:none;stroke:#F15A60;stroke-width:0.625" />
<path d="M403.92,646.59L403.92,646.59A3.125,3.125 0 1 1 397.67,646.59A3.125,3.125 0 1 1 403.92,646.59Z" style="fill:none;stroke:#F15A60;stroke-width:0.625" />
<path d="M410.88,528.37L410.88,528.37A3.125,3.125 0 1 1 404.63,528.37A3.125,3.125 0 1 1 410.88,528.37Z" style="fill:none;stroke:#F15A60;stroke-width:0.625" />
<path d="M417.83,576.04A3.125,3.125 0 1 1 411.58,576.04A3.125,3.125 0 1 1 417.83,576.04Z" style="fill:none;stroke:#F15A60;stroke-width:0.625" />
<path d="M424.78,504.16A3.125,3.125 0 1 1 418.53,504.16A3.125,3.125 0 1 1 424.78,504.16Z" style="fill:none;stroke:#F15A60;stroke-width:0.625" />
<path d="M431.74,577.65A3.125,3.125 0 1 1 425.49,577.65A3.125,3.125 0 1 1 431.74,577.65Z" style="fill:none;stroke:#F15A60;stroke-width:0.625" />
<path d="M438.69,497.51A3.125,3.125 0 1 1 432.44,497.51A3.125,3.125 0 1 1 438.69,497.51Z" style="fill:none;stroke:#F15A60;stroke-width:0.625" />
<path d="M445.64,513.37A3.125,3.125 0 1 1 439.39,513.37A3.125,3.125 0 1 1 445.64,513.37Z" style="fill:none;stroke:#F15A60;stroke-width:0.625" />
<path d="M452.6,342.46A3.125,3.125 0 1 1 446.35,342.46A3.125,3.125 0 1 1 452.6,342.46Z" style="fill:none;stroke:#F15A60;stroke-width:0.625" />
<path d="M459.55,251.19L459.55,251.19A3.125,3.125 0 1 1 453.3,251.19A3.125,3.125 0 1 1 459.55,251.19Z" style="fill:none;stroke:#F15A60;stroke-width:0.625" />
<path d="M466.5,218.97L466.5,218.97A3.125,3.125 0 1 1 460.25,218.97A3.125,3.125 0 1 1 466.5,218.97Z" style="fill:none;stroke:#F15A60;stroke-width:0.625" />
<path d="M473.46,248.17A3.125,3.125 0 1 1 467.21,248.17A3.125,3.125 0 1 1 473.46,248.17Z" style="fill:none;stroke:#F15A60;stroke-width:0.625" />
<path d="M480.41,195.29A3.125,3.125 0 1 1 474.16,195.29A3.125,3.125 0 1 1 480.41,195.29Z" style="fill:none;stroke:#F15A60;stroke-width:0.625" />
<path d="M487.36,118.89A3.125,3.125 0 1 1 481.11,118.89A3.125,3.125 0 1 1 487.36,118.89Z" style="fill:none;stroke:#F15A60;stroke-width:0.625" />
<path d="M494.32,136.38A3.125,3.125 0 1 1 488.07,136.38A3.125,3.125 0 1 1 494.32,136.38Z" style="fill:none;stroke:#F15A60;stroke-width:0.625" />
<path d="M501.27,288.56A3.125,3.125 0 1 1 495.02,288.56A3.125,3.125 0 1 1 501.27,288.56Z" style="fill:none;stroke:#F15A60;stroke-width:0.625" />
<path d="M508.23,132.92A3.125,3.125 0 1 1 501.98,132.92A3.125,3.125 0 1 1 508.23,132.92Z" style="fill:none;stroke:#F15A60;stroke-width:0.625" />
<path d="M515.18,208.39L515.18,208.39A3.125,3.125 0 1 1 508.93,208.39A3.125,3.125 0 1 1 515.18,208.39Z" style="fill:none;stroke:#F15A60;stroke-width:0.625" />
<path d="M522.13,107.92A3.125,3.125 0 1 1 515.88,107.92A3.125,3.125 0 1 1 522.13,107.92Z" style="fill:none;stroke:#F15A60;stroke-width:0.625" />
<path d="M529.09,177.07A3.125,3.125 0 1 1 522.84,177.07A3.125,3.125 0 1 1 529.09,177.07Z" style="fill:none;stroke:#F15A60;stroke-width:0.625" />
<path d="M536.04,101.33A3.125,3.125 0 1 1 529.79,101.33A3.125,3.125 0 1 1 536.04,101.33Z" style="fill:none;stroke:#F15A60;stroke-width:0.625" />
<path d="M542.99,273.66A3.125,3.125 0 1 1 536.74,273.66A3.125,3.125 0 1 1 542.99,273.66Z" style="fill:none;stroke:#F15A60;stroke-width:0.625" />
<path d="M549.95,169.19A3.125,3.125 0 1 1 543.7,169.19A3.125,3.125 0 1 1 549.95,169.19Z" style="fill:none;stroke:#F15A60;stroke-width:0.625" />
<path d="M556.9,242.5A3.125,3.125 0 1 1 550.65,242.5A3.125,3.125 0 1 1 556.9,242.5Z" style="fill:none;stroke:#F15A60;stroke-width:0.625" />
<path d="M563.85,362.18A3.125,3.125 0 1 1 557.6,362.18A3.125,3.125 0 1 1 563.85,362.18Z" style="fill:none;stroke:#F15A60;stroke-width:0.625" />
<path d="M570.81,257.58A3.125,3.125 0 1 1 564.56,257.58A3.125,3.125 0 1 1 570.81,257.58Z" style="fill:none;stroke:#F15A60;stroke-width:0.625" />
<path d="M577.76,303.18L577.76,303.18A3.125,3.125 0 1 1 571.51,303.18A3.125,3.125 0 1 1 577.76,303.18Z" style="fill:none;stroke:#F15A60;stroke-width:0.625" />
<path d="M584.71,470.94A3.125,3.125 0 1 1 578.46,470.94A3.125,3.125 0 1 1 584.71,470.94Z" style="fill:none;stroke:#F15A60;stroke-width:0.625" />
<path d="M591.67,388.34A3.125,3.125 0 1 1 585.42,388.34A3.125,3.125 0 1 1 591.67,388.34Z" style="fill:none;stroke:#F15A60;stroke-width:0.625" />
<path d="M598.62,435.59A3.125,3.125 0 1 1 592.37,435.59A3.125,3.125 0 1 1 598.62,435.59Z" style="fill:none;stroke:#F15A60;stroke-width:0.625" />
<path d="M605.57,623.37A3.125,3.125 0 1 1 599.32,623.37A3.125,3.125 0 1 1 605.57,623.37Z" style="fill:none;stroke:#F15A60;stroke-width:0.625" />
<path d="M612.53,599.73A3.125,3.125 0 1 1 606.28,599.73A3.125,3.125 0 1 1 612.53,599.73Z" style="fill:none;stroke:#F15A60;stroke-width:0.625" />
<path d="M619.48,570.55A3.125,3.125 0 1 1 613.23,570.55A3.125,3.125 0 1 1 619.48,570.55Z" style="fill:none;stroke:#F15A60;stroke-width:0.625" />
<path d="M626.44,550.11A3.125,3.125 0 1 1 620.19,550.11A3.125,3.125 0 1 1 626.44,550.11Z" style="fill:none;stroke:#F15A60;stroke-width:0.625" />
<path d="M633.39,616.59L633.39,616.59A3.125,3.125 0 1 1 627.14,616.59A3.125,3.125 0 1 1 633.39,616.59Z" style="fill:none;stroke:#F15A60;stroke-width:0.625" />
<path d="M640.34,556.48L640.34,556.48A3.125,3.125 0 1 1 634.09,556.48A3.125,3.125 0 1 1 640.34,556.48Z" style="fill:none;stroke:#F15A60;stroke-width:0.625" />
<path d="M647.3,574.78A3.125,3.125 0 1 1 641.05,574.78A3.125,3.125 0 1 1 647.3,574.78Z" style="fill:none;stroke:#F15A60;stroke-width:0.625" />
<path d="M654.25,541.74A3.125,3.125 0 1 1 648,541.74A3.125,3.125 0 1 1 654.25,541.74Z" style="fill:none;stroke:#F15A60;stroke-width:0.625" />
<path d="M661.2,544.02A3.125,3.125 0 1 1 654.95,544.02A3.125,3.125 0 1 1 661.2,544.02Z" style="fill:none;stroke:#F15A60;stroke-width:0.625" />
<path d="M668.16,583.63A3.125,3.125 0 1 1 661.91,583.63A3.125,3.125 0 1 1 668.16,583.63Z" style="fill:none;stroke:#F15A60;stroke-width:0.625" />
<path d="M675.11,624.6A3.125,3.125 0 1 1 668.86,624.6A3.125,3.125 0 1 1 675.11,624.6Z" style="fill:none;stroke:#F15A60;stroke-width:0.625" />
<path d="M682.06,471.3A3.125,3.125 0 1 1 675.81,471.3A3.125,3.125 0 1 1 682.06,471.3Z" style="fill:none;stroke:#F15A60;stroke-width:0.625" />
<path d="M689.02,562.26A3.125,3.125 0 1 1 682.77,562.26A3.125,3.125 0 1 1 689.02,562.26Z" style="fill:none;stroke:#F15A60;stroke-width:0.625" />
<path d="M695.97,613.38A3.125,3.125 0 1 1 689.72,613.38A3.125,3.125 0 1 1 695.97,613.38Z" style="fill:none;stroke:#F15A60;stroke-width:0.625" />
<path d="M702.92,522.73A3.125,3.125 0 1 1 696.67,522.73A3.125,3.125 0 1 1 702.92,522.73Z" style="fill:none;stroke:#F15A60;stroke-width:0.625" />
<path d="M709.88,471.22A3.125,3.125 0 1 1 703.63,471.22A3.125,3.125 0 1 1 709.88,471.22Z" style="fill:none;stroke:#F15A60;stroke-width:0.625" />
<path d="M716.83,334.33A3.125,3.125 0 1 1 710.58,334.33A3.125,3.125 0 1 1 716.83,334.33Z" style="fill:none;stroke:#F15A60;stroke-width:0.625" />
<path d="M723.79,337.92L723.79,337.92A3.125,3.125 0 1 1 717.54,337.92A3.125,3.125 0 1 1 723.79,337.92Z" style="fill:none;stroke:#F15A60;stroke-width:0.625" />
<path d="M730.74,187.17L730.74,187.17A3.125,3.125 0 1 1 724.49,187.17A3.125,3.125 0 1 1 730.74,187.17Z" style="fill:none;stroke:#F15A60;stroke-width:0.625" />
<path d="M737.69,244.6L737.69,244.6A3.125,3.125 0 1 1 731.44,244.6A3.125,3.125 0 1 1 737.69,244.6Z" style="fill:none;stroke:#F15A60;stroke-width:0.625" />
<path d="M744.65,352.88A3.125,3.125 0 1 1 738.4,352.88A3.125,3.125 0 1 1 744.65,352.88Z" style="fill:none;stroke:#F15A60;stroke-width:0.625" />
<path d="M751.6,306L751.6,306A3.125,3.125 0 1 1 745.35,306A3.125,3.125 0 1 1 751.6,306Z" style="fill:none;stroke:#F15A60;stroke-width:0.625" />
<path d="M758.55,241.98L758.55,241.98A3.125,3.125 0 1 1 752.3,241.98A3.125,3.125 0 1 1 758.55,241.98Z" style="fill:none;stroke:#F15A60;stroke-width:0.625" />
<path d="M765.51,91.093L765.51,91.093A3.125,3.125 0 1 1 759.26,91.093A3.125,3.125 0 1 1 765.51,91.093Z" style="fill:none;stroke:#F15A60;stroke-width:0.625" />
<path d="M772.46,219.95A3.125,3.125 0 1 1 766.21,219.95A3.125,3.125 0 1 1 772.46,219.95Z" style="fill:none;stroke:#F15A60;stroke-width:0.625" />
<path d="M779.41,246.08A3.125,3.125 0 1 1 773.16,246.08A3.125,3.125 0 1 1 779.41,246.08Z" style="fill:none;stroke:#F15A60;stroke-width:0.625" />
<path d="M786.37,299.19A3.125,3.125 0 1 1 780.12,299.19A3.125,3.125 0 1 1 786.37,299.19Z" style="fill:none;stroke:#F15A60;stroke-width:0.625" />
<path d="M793.32,133.93A3.125,3.125 0 1 1 787.07,133.93A3.125,3.125 0 1 1 793.32,133.93Z" style="fill:none;stroke:#F15A60;stroke-width:0.625" />
<path d="M800.27,228.04A3.125,3.125 0 1 1 794.02,228.04A3.125,3.125 0 1 1 800.27,228.04Z" style="fill:none;stroke:#F15A60;stroke-width:0.625" />
<path d="M807.23,267.19L807.23,267.19A3.125,3.125 0 1 1 800.98,267.19A3.125,3.125 0 1 1 807.23,267.19Z" style="fill:none;stroke:#F15A60;stroke-width:0.625" />
<path d="M814.18,227.33L814.18,227.33A3.125,3.125 0 1 1 807.93,227.33A3.125,3.125 0 1 1 814.18,227.33Z" style="fill:none;stroke:#F15A60;stroke-width:0.625" />
<path d="M821.13,397.26A3.125,3.125 0 1 1 814.88,397.26A3.125,3.125 0 1 1 821.13,397.26Z" style="fill:none;stroke:#F15A60;stroke-width:0.625" />
<path d="M828.09,259.23L828.09,259.23A3.125,3.125 0 1 1 821.84,259.23A3.125,3.125 0 1 1 828.09,259.23Z" style="fill:none;stroke:#F15A60;stroke-width:0.625" />
<path d="M835.04,399.19L835.04,399.19A3.125,3.125 0 1 1 828.79,399.19A3.125,3.125 0 1 1 835.04,399.19Z" style="fill:none;stroke:#F15A60;stroke-width:0.625" />
<path d="M842,501.08L842,501.08A3.125,3.125 0 1 1 835.75,501.08A3.125,3.125 0 1 1 842,501.08Z" style="fill:none;stroke:#F15A60;stroke-width:0.625" />
<path d="M848.95,397.6A3.125,3.125 0 1 1 842.7,397.6A3.125,3.125 0 1 1 848.95,397.6Z" style="fill:none;stroke:#F15A60;stroke-width:0.625" />
<path d="M855.9,475.84L855.9,475.84A3.125,3.125 0 1 1 849.65,475.84A3.125,3.125 0 1 1 855.9,475.84Z" style="fill:none;stroke:#F15A60;stroke-width:0.625" />
<path d="M862.86,647.44L862.86,647.44A3.125,3.125 0 1 1 856.61,647.44A3.125,3.125 0 1 1 862.86,647.44Z" style="fill:none;stroke:#F15A60;stroke-width:0.625" />
<path d="M869.81,684.75L869.81,684.75A3.125,3.125 0 1 1 863.56,684.75A3.125,3.125 0 1 1 869.81,684.75Z" style="fill:none;stroke:#F15A60;stroke-width:0.625" />
<path d="M876.76,482.98L876.76,482.98A3.125,3.125 0 1 1 870.51,482.98A3.125,3.125 0 1 1 876.76,482.98Z" style="fill:none;stroke:#F15A60;stroke-width:0.625" />
<path d="M883.72,626.07L883.72,626.07A3.125,3.125 0 1 1 877.47,626.07A3.125,3.125 0 1 1 883.72,626.07Z" style="fill:none;stroke:#F15A60;stroke-width:0.625" />
<path d="M890.67,689.61A3.125,3.125 0 1 1 884.42,689.61A3.125,3.125 0 1 1 890.67,689.61Z" style="fill:none;stroke:#F15A60;stroke-width:0.625" />
<path d="M897.62,746.99A3.125,3.125 0 1 1 891.37,746.99A3.125,3.125 0 1 1 897.62,746.99Z" style="fill:none;stroke:#F15A60;stroke-width:0.625" />
<path d="M904.58,701.53L904.58,701.53A3.125,3.125 0 1 1 898.33,701.53A3.125,3.125 0 1 1 904.58,701.53Z" style="fill:none;stroke:#F15A60;stroke-width:0.625" />
<path d="M911.53,742.15L911.53,742.15A3.125,3.125 0 1 1 905.28,742.15A3.125,3.125 0 1 1 911.53,742.15Z" style="fill:none;stroke:#F15A60;stroke-width:0.625" />
<path d="M918.48,696.13L918.48,696.13A3.125,3.125 0 1 1 912.23,696.13A3.125,3.125 0 1 1 918.48,696.13Z" style="fill:none;stroke:#F15A60;stroke-width:0.625" />
<path d="M925.44,689.46L925.44,689.46A3.125,3.125 0 1 1 919.19,689.46A3.125,3.125 0 1 1 925.44,689.46Z" style="fill:none;stroke:#F15A60;stroke-width:0.625" />
<path d="M932.39,704.86A3.125,3.125 0 1 1 926.14,704.86A3.125,3.125 0 1 1 932.39,704.86Z" style="fill:none;stroke:#F15A60;stroke-width:0.625" />
<path d="M939.34,689.64L939.34,689.64A3.125,3.125 0 1 1 933.09,689.64A3.125,3.125 0 1 1 939.34,689.64Z" style="fill:none;stroke:#F15A60;stroke-width:0.625" />
<path d="M946.3,478.48L946.3,478.48A3.125,3.125 0 1 1 940.05,478.48A3.125,3.125 0 1 1 946.3,478.48Z" style="fill:none;stroke:#F15A60;stroke-width:0.625" />
<path d="M953.25,581.93L953.25,581.93A3.125,3.125 0 1 1 947,581.93A3.125,3.125 0 1 1 953.25,581.93Z" style="fill:none;stroke:#F15A60;stroke-width:0.625" />
<path d="M960.21,410.19L960.21,410.19A3.125,3.125 0 1 1 953.96,410.19A3.125,3.125 0 1 1 960.21,410.19Z" style="fill:none;stroke:#F15A60;stroke-width:0.625" />
<path d="M967.16,362.71L967.16,362.71A3.125,3.125 0 1 1 960.91,362.71A3.125,3.125 0 1 1 967.16,362.71Z" style="fill:none;stroke:#F15A60;stroke-width:0.625" />
<path d="M974.11,338.39L974.11,338.39A3.125,3.125 0 1 1 967.86,338.39A3.125,3.125 0 1 1 974.11,338.39Z" style="fill:none;stroke:#F15A60;stroke-width:0.625" />
<path d="M981.07,436.63A3.125,3.125 0 1 1 974.82,436.63A3.125,3.125 0 1 1 981.07,436.63Z" style="fill:none;stroke:#F15A60;stroke-width:0.625" />
<path d="M988.02,364.76A3.125,3.125 0 1 1 981.77,364.76A3.125,3.125 0 1 1 988.02,364.76Z" style="fill:none;stroke:#F15A60;stroke-width:0.625" />
<path d="M994.97,288.22A3.125,3.125 0 1 1 988.72,288.22A3.125,3.125 0 1 1 994.97,288.22Z" style="fill:none;stroke:#F15A60;stroke-width:0.625" />
<path d="M1001.9,347.85A3.125,3.125 0 1 1 995.68,347.85A3.125,3.125 0 1 1 1001.9,347.85Z" style="fill:none;stroke:#F15A60;stroke-width:0.625" />
<path d="M1008.9,257.24A3.125,3.125 0 1 1 1002.6,257.24A3.125,3.125 0 1 1 1008.9,257.24Z" style="fill:none;stroke:#F15A60;stroke-width:0.625" />
<path d="M1015.8,198.86L1015.8,198.86A3.125,3.125 0 1 1 1009.6,198.86A3.125,3.125 0 1 1 1015.8,198.86Z" style="fill:none;stroke:#F15A60;stroke-width:0.625" />
<path d="M1022.8,109.43L1022.8,109.43A3.125,3.125 0 1 1 1016.5,109.43A3.125,3.125 0 1 1 1022.8,109.43Z" style="fill:none;stroke:#F15A60;stroke-width:0.625" />
<path d="M1029.7,187.45A3.125,3.125 0 1 1 1023.5,187.45A3.125,3.125 0 1 1 1029.7,187.45Z" style="fill:none;stroke:#F15A60;stroke-width:0.625" />
<path d="M1036.7,284.6A3.125,3.125 0 1 1 1030.4,284.6A3.125,3.125 0 1 1 1036.7,284.6Z" style="fill:none;stroke:#F15A60;stroke-width:0.625" />
<path d="M1043.6,137.39A3.125,3.125 0 1 1 1037.4,137.39A3.125,3.125 0 1 1 1043.6,137.39Z" style="fill:none;stroke:#F15A60;stroke-width:0.625" />
<path d="M1050.6,85.776A3.125,3.125 0 1 1 1044.4,85.776A3.125,3.125 0 1 1 1050.6,85.776Z" style="fill:none;stroke:#F15A60;stroke-width:0.625" />
<path d="M1057.6,145.22L1057.6,145.22A3.125,3.125 0 1 1 1051.3,145.22A3.125,3.125 0 1 1 1057.6,145.22Z" style="fill:none;stroke:#F15A60;stroke-width:0.625" />
<path d="M1064.5,213.48L1064.5,213.48A3.125,3.125 0 1 1 1058.3,213.48A3.125,3.125 0 1 1 1064.5,213.48Z" style="fill:none;stroke:#F15A60;stroke-width:0.625" />
<path d="M1071.5,358.14A3.125,3.125 0 1 1 1065.2,358.14A3.125,3.125 0 1 1 1071.5,358.14Z" style="fill:none;stroke:#F15A60;stroke-width:0.625" />
<path d="M1078.4,314.34A3.125,3.125 0 1 1 1072.2,314.34A3.125,3.125 0 1 1 1078.4,314.34Z" style="fill:none;stroke:#F15A60;stroke-width:0.625" />
<path d="M1085.4,302.2A3.125,3.125 0 1 1 1079.1,302.2A3.125,3.125 0 1 1 1085.4,302.2Z" style="fill:none;stroke:#F15A60;stroke-width:0.625" />
<path d="M1092.3,372.19L1092.3,372.19A3.125,3.125 0 1 1 1086.1,372.19A3.125,3.125 0 1 1 1092.3,372.19Z" style="fill:none;stroke:#F15A60;stroke-width:0.625" />
<path d="M1099.3,315.39L1099.3,315.39A3.125,3.125 0 1 1 1093,315.39A3.125,3.125 0 1 1 1099.3,315.39Z" style="fill:none;stroke:#F15A60;stroke-width:0.625" />
<path d="M1106.2,546.61A3.125,3.125 0 1 1 1100,546.61A3.125,3.125 0 1 1 1106.2,546.61Z" style="fill:none;stroke:#F15A60;stroke-width:0.625" />
<path d="M1113.2,584.77A3.125,3.125 0 1 1 1106.9,584.77A3.125,3.125 0 1 1 1113.2,584.77Z" style="fill:none;stroke:#F15A60;stroke-width:0.625" />
<path d="M1120.1,484.47A3.125,3.125 0 1 1 1113.9,484.47A3.125,3.125 0 1 1 1120.1,484.47Z" style="fill:none;stroke:#F15A60;stroke-width:0.625" />
<path d="M1127.1,574.53A3.125,3.125 0 1 1 1120.8,574.53A3.125,3.125 0 1 1 1127.1,574.53Z" style="fill:none;stroke:#F15A60;stroke-width:0.625" />
<path d="M1134,495.58L1134,495.58A3.125,3.125 0 1 1 1127.8,495.58A3.125,3.125 0 1 1 1134,495.58Z" style="fill:none;stroke:#F15A60;stroke-width:0.625" />
<path d="M1141,722.55A3.125,3.125 0 1 1 1134.7,722.55A3.125,3.125 0 1 1 1141,722.55Z" style="fill:none;stroke:#F15A60;stroke-width:0.625" />
<path d="M1148,589.51A3.125,3.125 0 1 1 1141.7,589.51A3.125,3.125 0 1 1 1148,589.51Z" style="fill:none;stroke:#F15A60;stroke-width:0.625" />
<path d="M1154.9,594.05A3.125,3.125 0 1 1 1148.7,594.05A3.125,3.125 0 1 1 1154.9,594.05Z" style="fill:none;stroke:#F15A60;stroke-width:0.625" />
<path d="M1161.9,645.66A3.125,3.125 0 1 1 1155.6,645.66A3.125,3.125 0 1 1 1161.9,645.66Z" style="fill:none;stroke:#F15A60;stroke-width:0.625" />
<path d="M1168.8,757.17A3.125,3.125 0 1 1 1162.6,757.17A3.125,3.125 0 1 1 1168.8,757.17Z" style="fill:none;stroke:#F15A60;stroke-width:0.625" />
<path d="M1175.8,698.53A3.125,3.125 0 1 1 1169.5,698.53A3.125,3.125 0 1 1 1175.8,698.53Z" style="fill:none;stroke:#F15A60;stroke-width:0.625" />
<path d="M1182.7,574.53A3.125,3.125 0 1 1 1176.5,574.53A3.125,3.125 0 1 1 1182.7,574.53Z" style="fill:none;stroke:#F15A60;stroke-width:0.625" />
<path d="M1189.7,706.62L1189.7,706.62A3.125,3.125 0 1 1 1183.4,706.62A3.125,3.125 0 1 1 1189.7,706.62Z" style="fill:none;stroke:#F15A60;stroke-width:0.625" />
<path d="M1196.6,499.44L1196.6,499.44A3.125,3.125 0 1 1 1190.4,499.44A3.125,3.125 0 1 1 1196.6,499.44Z" style="fill:none;stroke:#F15A60;stroke-width:0.625" />
<path d="M1203.6,453.93A3.125,3.125 0 1 1 1197.3,453.93A3.125,3.125 0 1 1 1203.6,453.93Z" style="fill:none;stroke:#F15A60;stroke-width:0.625" />
<path d="M1210.5,647.96L1210.5,647.96A3.125,3.125 0 1 1 1204.3,647.96A3.125,3.125 0 1 1 1210.5,647.96Z" style="fill:none;stroke:#F15A60;stroke-width:0.625" />
<path d="M1217.5,590.27L1217.5,590.27A3.125,3.125 0 1 1 1211.2,590.27A3.125,3.125 0 1 1 1217.5,590.27Z" style="fill:none;stroke:#F15A60;stroke-width:0.625" />
<path d="M1224.4,551A3.125,3.125 0 1 1 1218.2,551A3.125,3.125 0 1 1 1224.4,551Z" style="fill:none;stroke:#F15A60;stroke-width:0.625" />
<path d="M1231.4,415.84A3.125,3.125 0 1 1 1225.1,415.84A3.125,3.125 0 1 1 1231.4,415.84Z" style="fill:none;stroke:#F15A60;stroke-width:0.625" />
<path d="M1238.3,471.83A3.125,3.125 0 1 1 1232.1,471.83A3.125,3.125 0 1 1 1238.3,471.83Z" style="fill:none;stroke:#F15A60;stroke-width:0.625" />
<path d="M1245.3,277.53A3.125,3.125 0 1 1 1239.1,277.53A3.125,3.125 0 1 1 1245.3,277.53Z" style="fill:none;stroke:#F15A60;stroke-width:0.625" />
<path d="M1252.3,199.16A3.125,3.125 0 1 1 1246,199.16A3.125,3.125 0 1 1 1252.3,199.16Z" style="fill:none;stroke:#F15A60;stroke-width:0.625" />
<path d="M1259.2,203.55A3.125,3.125 0 1 1 1253,203.55A3.125,3.125 0 1 1 1259.2,203.55Z" style="fill:none;stroke:#F15A60;stroke-width:0.625" />
<path d="M1266.2,305.7L1266.2,305.7A3.125,3.125 0 1 1 1259.9,305.7A3.125,3.125 0 1 1 1266.2,305.7Z" style="fill:none;stroke:#F15A60;stroke-width:0.625" />
<path d="M1273.1,297.79L1273.1,297.79A3.125,3.125 0 1 1 1266.9,297.79A3.125,3.125 0 1 1 1273.1,297.79Z" style="fill:none;stroke:#F15A60;stroke-width:0.625" />
<path d="M1280.1,111.64A3.125,3.125 0 1 1 1273.8,111.64A3.125,3.125 0 1 1 1280.1,111.64Z" style="fill:none;stroke:#F15A60;stroke-width:0.625" />
<path d="M1287,272.78L1287,272.78A3.125,3.125 0 1 1 1280.8,272.78A3.125,3.125 0 1 1 1287,272.78Z" style="fill:none;stroke:#F15A60;stroke-width:0.625" />
<path d="M1294,69.471L1294,69.471A3.125,3.125 0 1 1 1287.7,69.471A3.125,3.125 0 1 1 1294,69.471Z" style="fill:none;stroke:#F15A60;stroke-width:0.625" />
<path d="M1300.9,138.3L1300.9,138.3A3.125,3.125 0 1 1 1294.7,138.3A3.125,3.125 0 1 1 1300.9,138.3Z" style="fill:none;stroke:#F15A60;stroke-width:0.625" />
<path d="M1307.9,219.86L1307.9,219.86A3.125,3.125 0 1 1 1301.6,219.86A3.125,3.125 0 1 1 1307.9,219.86Z" style="fill:none;stroke:#F15A60;stroke-width:0.625" />
<path d="M1314.8,282.62L1314.8,282.62A3.125,3.125 0 1 1 1308.6,282.62A3.125,3.125 0 1 1 1314.8,282.62Z" style="fill:none;stroke:#F15A60;stroke-width:0.625" />
<path d="M1321.8,117.08A3.125,3.125 0 1 1 1315.5,117.08A3.125,3.125 0 1 1 1321.8,117.08Z" style="fill:none;stroke:#F15A60;stroke-width:0.625" />
<path d="M1328.7,279.72A3.125,3.125 0 1 1 1322.5,279.72A3.125,3.125 0 1 1 1328.7,279.72Z" style="fill:none;stroke:#F15A60;stroke-width:0.625" />
<path d="M1335.7,354.38A3.125,3.125 0 1 1 1329.4,354.38A3.125,3.125 0 1 1 1335.7,354.38Z" style="fill:none;stroke:#F15A60;stroke-width:0.625" />
<path d="M1342.7,423.06A3.125,3.125 0 1 1 1336.4,423.06A3.125,3.125 0 1 1 1342.7,423.06Z" style="fill:none;stroke:#F15A60;stroke-width:0.625" />
<path d="M1349.6,457.65A3.125,3.125 0 1 1 1343.4,457.65A3.125,3.125 0 1 1 1349.6,457.65Z" style="fill:none;stroke:#F15A60;stroke-width:0.625" />
<path d="M1356.6,501.92A3.125,3.125 0 1 1 1350.3,501.92A3.125,3.125 0 1 1 1356.6,501.92Z" style="fill:none;stroke:#F15A60;stroke-width:0.625" />
<path d="M1363.5,509.95A3.125,3.125 0 1 1 1357.3,509.95A3.125,3.125 0 1 1 1363.5,509.95Z" style="fill:none;stroke:#F15A60;stroke-width:0.625" />
<path d="M1370.5,519.81A3.125,3.125 0 1 1 1364.2,519.81A3.125,3.125 0 1 1 1370.5,519.81Z" style="fill:none;stroke:#F15A60;stroke-width:0.625" />
<path d="M1377.4,485.97A3.125,3.125 0 1 1 1371.2,485.97A3.125,3.125 0 1 1 1377.4,485.97Z" style="fill:none;stroke:#F15A60;stroke-width:0.625" />
<path d="M1384.4,535.32L1384.4,535.32A3.125,3.125 0 1 1 1378.1,535.32A3.125,3.125 0 1 1 1384.4,535.32Z" style="fill:none;stroke:#F15A60;stroke-width:0.625" />
<path d="M1391.3,493.23L1391.3,493.23A3.125,3.125 0 1 1 1385.1,493.23A3.125,3.125 0 1 1 1391.3,493.23Z" style="fill:none;stroke:#F15A60;stroke-width:0.625" />
<path d="M1398.3,585.89L1398.3,585.89A3.125,3.125 0 1 1 1392,585.89A3.125,3.125 0 1 1 1398.3,585.89Z" style="fill:none;stroke:#F15A60;stroke-width:0.625" />
<path d="M1405.2,637.7A3.125,3.125 0 1 1 1399,637.7A3.125,3.125 0 1 1 1405.2,637.7Z" style="fill:none;stroke:#F15A60;stroke-width:0.625" />
<path d="M1412.2,589.58A3.125,3.125 0 1 1 1405.9,589.58A3.125,3.125 0 1 1 1412.2,589.58Z" style="fill:none;stroke:#F15A60;stroke-width:0.625" />
<path d="M1419.1,580.94A3.125,3.125 0 1 1 1412.9,580.94A3.125,3.125 0 1 1 1419.1,580.94Z" style="fill:none;stroke:#F15A60;stroke-width:0.625" />
<path d="M1426.1,559.11A3.125,3.125 0 1 1 1419.8,559.11A3.125,3.125 0 1 1 1426.1,559.11Z" style="fill:none;stroke:#F15A60;stroke-width:0.625" />
<path d="M1433,674.69A3.125,3.125 0 1 1 1426.8,674.69A3.125,3.125 0 1 1 1433,674.69Z" style="fill:none;stroke:#F15A60;stroke-width:0.625" />
<path d="M1440,629.55A3.125,3.125 0 1 1 1433.8,629.55A3.125,3.125 0 1 1 1440,629.55Z" style="fill:none;stroke:#F15A60;stroke-width:0.625" />
<path d="M53.12,454.27L60.074,348.66L67.027,291.06L73.981,286.19L80.934,281.77L87.888,286.03L94.841,331.27L101.79,406.12L108.75,480.28L115.7,548.93L122.66,614.65L129.61,666.49L136.56,685.45L143.52,726.63L150.47,745.45L157.42,715.9L164.38,698.79L171.33,663.06L178.28,637.5L185.24,571.58L192.19,522.95L199.14,434.67L206.1,342.96L213.05,285.22L220.01,211.83L226.96,182.81L233.91,128.22L240.87,80.137L247.82,62.589L254.77,59.019L261.73,51.768L268.68,55.093L275.63,90.842L282.59,130.84L289.54,156.69L296.49,187.91L303.45,252.12L310.4,315.06L317.35,380.59L324.31,416.98L331.26,495.1L338.22,547.67L345.17,621.34L352.12,657.77L359.08,671.17L366.03,707.69L372.98,737.31L379.94,772.33L386.89,753.75L393.84,758.35L400.8,748.18L407.75,710.3L414.7,678.62L421.66,632.74L428.61,603.03L435.56,561.7L442.52,527.96L449.47,465.91L456.43,390.61L463.38,315.56L470.33,255.57L477.29,196.55L484.24,133.98L491.19,86.521L498.15,81.978L505.1,59.611L512.05,61.21L519.01,51.226L525.96,60.469L532.91,59.712L539.87,96.069L546.82,114.92L553.78,147.91L560.73,203.92L567.68,237.3L574.64,274.35L581.59,339.26L588.54,382.58L595.5,427.02L602.45,500.65L609.4,562.19L616.36,607.83L623.31,638.03L630.26,670.2L637.22,680.7L644.17,685.31L651.12,675.76L658.08,660.53L665.03,649.28L671.99,644.53L678.94,608.88L685.89,590.3L692.85,583.97L699.8,562.54L706.75,532.71L713.71,477.78L720.66,425.94L727.61,349.04L734.57,289.3L741.52,260.47L748.47,233.58L755.43,203.61L762.38,151.76L769.33,132.41L776.29,127.41L783.24,141.15L790.2,128.57L797.15,137.65L804.1,158.17L811.06,173.16L818.01,222.38L824.96,244.64L831.92,291.32L838.87,355.52L845.82,394.91L852.78,442.23L859.73,516.43L866.68,591.11L873.64,616.11L880.59,656.75L887.55,700.13L894.5,745.67L901.45,773.1L908.41,798.87L915.36,806.88L922.31,805.3L929.27,800.17L936.22,787.31L943.17,728.92L950.13,687.88L957.08,614.34L964.03,533.77L970.99,454.18L977.94,403.21L984.89,350.06L991.85,293.12L998.8,259.2L1005.8,219.26L1012.7,177.91L1019.7,128.2L1026.6,102.91L1033.6,107.18L1040.5,91.803L1047.5,71.912L1054.4,68.719L1061.4,84.407L1068.3,133.63L1075.3,177.72L1082.2,218.77L1089.2,270.6L1096.2,306.81L1103.1,382.53L1110.1,460.59L1117,510.42L1124,566.75L1130.9,596.48L1137.9,659.61L1144.8,687.28L1151.8,704.46L1158.7,721.9L1165.7,753.58L1172.6,767.41L1179.6,749.54L1186.5,751.17L1193.5,708.36L1200.5,652.47L1207.4,634.66L1214.4,609.66L1221.3,580.65L1228.3,528.63L1235.2,491.45L1242.2,421.66L1249.1,341.51L1256.1,269.73L1263,228.76L1270,199.02L1276.9,143.93L1283.9,130.14L1290.9,87.009L1297.8,65.216L1304.8,68.479L1311.7,92.724L1318.7,90.407L1325.6,122.68L1332.6,172.85L1339.5,237.62L1346.5,307.48L1353.4,381.23L1360.4,449.08L1367.3,508.98L1374.3,550.78L1381.2,590.21L1388.2,610.04L1395.2,637.42L1402.1,666.6L1409.1,678.59L1416,681.11L1423,672.75L1429.9,682.36L1436.9,680.56" style="fill:none;stroke:#7AC36A;stroke-width:1.25;stroke-dasharray:7.5,2.5" />
<path d="M50.453,451.6L55.787,451.6L55.787,456.93L50.453,456.93Z" style="fill:none;stroke:#7AC36A;stroke-width:0.625" />
<path d="M57.406,345.99L62.741,345.99L62.741,351.33L57.406,351.33Z" style="fill:none;stroke:#7AC36A;stroke-width:0.625" />
<path d="M64.36,288.39L69.695,288.39L69.695,293.73L64.36,293.73Z" style="fill:none;stroke:#7AC36A;stroke-width:0.625" />
<path d="M71.313,283.53L76.648,283.53L76.648,288.86L71.313,288.86Z" style="fill:none;stroke:#7AC36A;stroke-width:0.625" />
<path d="M78.267,279.1L83.602,279.1L83.602,284.44L78.267,284.44Z" style="fill:none;stroke:#7AC36A;stroke-width:0.625" />
<path d="M85.22,283.37L90.555,283.37L90.555,288.7L85.22,288.7Z" style="fill:none;stroke:#7AC36A;stroke-width:0.625" />
<path d="M92.174,328.6L97.509,328.6L97.509,333.93L92.174,333.93Z" style="fill:none;stroke:#7AC36A;stroke-width:0.625" />
<path d="M99.128,403.45L104.46,403.45L104.46,408.79L99.128,408.79Z" style="fill:none;stroke:#7AC36A;stroke-width:0.625" />
<path d="M106.08,477.62L111.42,477.62L111.42,482.95L106.08,482.95Z" style="fill:none;stroke:#7AC36A;stroke-width:0.625" />
<path d="M113.03,546.26L118.37,546.26L118.37,551.59L113.03,551.59Z" style="fill:none;stroke:#7AC36A;stroke-width:0.625" />
<path d="M119.99,611.98L125.32,611.98L125.32,617.32L119.99,617.32Z" style="fill:none;stroke:#7AC36A;stroke-width:0.625" />
<path d="M126.94,663.82L132.28,663.82L132.28,669.16L126.94,669.16Z" style="fill:none;stroke:#7AC36A;stroke-width:0.625" />
<path d="M133.9,682.78L139.23,682.78L139.23,688.11L133.9,688.11Z" style="fill:none;stroke:#7AC36A;stroke-width:0.625" />
<path d="M140.85,723.96L146.18,723.96L146.18,729.3L140.85,729.3Z" style="fill:none;stroke:#7AC36A;stroke-width:0.625" />
<path d="M147.8,742.79L153.14,742.79L153.14,748.12L147.8,748.12Z" style="fill:none;stroke:#7AC36A;stroke-width:0.625" />
<path d="M154.76,713.24L160.09,713.24L160.09,718.57L154.76,718.57Z" style="fill:none;stroke:#7AC36A;stroke-width:0.625" />
<path d="M161.71,696.12L167.04,696.12L167.04,701.45L161.71,701.45Z" style="fill:none;stroke:#7AC36A;stroke-width:0.625" />
<path d="M168.66,660.4L174,660.4L174,665.73L168.66,665.73Z" style="fill:none;stroke:#7AC36A;stroke-width:0.625" />
<path d="M175.62,634.83L180.95,634.83L180.95,640.17L175.62,640.17Z" style="fill:none;stroke:#7AC36A;stroke-width:0.625" />
<path d="M182.57,568.92L187.9,568.92L187.9,574.25L182.57,574.25Z" style="fill:none;stroke:#7AC36A;stroke-width:0.625" />
<path d="M189.52,520.29L194.86,520.29L194.86,525.62L189.52,525.62Z" style="fill:none;stroke:#7AC36A;stroke-width:0.625" />
<path d="M196.48,432.01L201.81,432.01L201.81,437.34L196.48,437.34Z" style="fill:none;stroke:#7AC36A;stroke-width:0.625" />
<path d="M203.43,340.3L208.77,340.3L208.77,345.63L203.43,345.63Z" style="fill:none;stroke:#7AC36A;stroke-width:0.625" />
<path d="M210.38,282.55L215.72,282.55L215.72,287.88L210.38,287.88Z" style="fill:none;stroke:#7AC36A;stroke-width:0.625" />
<path d="M217.34,209.16L222.67,209.16L222.67,214.49L217.34,214.49Z" style="fill:none;stroke:#7AC36A;stroke-width:0.625" />
<path d="M224.29,180.14L229.63,180.14L229.63,185.48L224.29,185.48Z" style="fill:none;stroke:#7AC36A;stroke-width:0.625" />
<path d="M231.24,125.55L236.58,125.55L236.58,130.89L231.24,130.89Z" style="fill:none;stroke:#7AC36A;stroke-width:0.625" />
<path d="M238.2,77.47L243.53,77.47L243.53,82.804L238.2,82.804Z" style="fill:none;stroke:#7AC36A;stroke-width:0.625" />
<path d="M245.15,59.922L250.49,59.922L250.49,65.257L245.15,65.257Z" style="fill:none;stroke:#7AC36A;stroke-width:0.625" />
<path d="M252.11,56.352L257.44,56.352L257.44,61.686L252.11,61.686Z" style="fill:none;stroke:#7AC36A;stroke-width:0.625" />
<path d="M259.06,49.101L264.39,49.101L264.39,54.435L259.06,54.435Z" style="fill:none;stroke:#7AC36A;stroke-width:0.625" />
<path d="M266.01,52.425L271.35,52.425L271.35,57.76L266.01,57.76Z" style="fill:none;stroke:#7AC36A;stroke-width:0.625" />
<path d="M272.97,88.174L278.3,88.174L278.3,93.509L272.97,93.509Z" style="fill:none;stroke:#7AC36A;stroke-width:0.625" />
<path d="M279.92,128.17L285.25,128.17L285.25,133.51L279.92,133.51Z" style="fill:none;stroke:#7AC36A;stroke-width:0.625" />
<path d="M286.87,154.03L292.21,154.03L292.21,159.36L286.87,159.36Z" style="fill:none;stroke:#7AC36A;stroke-width:0.625" />
<path d="M293.83,185.24L299.16,185.24L299.16,190.57L293.83,190.57Z" style="fill:none;stroke:#7AC36A;stroke-width:0.625" />
<path d="M300.78,249.45L306.11,249.45L306.11,254.79L300.78,254.79Z" style="fill:none;stroke:#7AC36A;stroke-width:0.625" />
<path d="M307.73,312.4L313.07,312.4L313.07,317.73L307.73,317.73Z" style="fill:none;stroke:#7AC36A;stroke-width:0.625" />
<path d="M314.69,377.93L320.02,377.93L320.02,383.26L314.69,383.26Z" style="fill:none;stroke:#7AC36A;stroke-width:0.625" />
<path d="M321.64,414.32L326.98,414.32L326.98,419.65L321.64,419.65Z" style="fill:none;stroke:#7AC36A;stroke-width:0.625" />
<path d="M328.59,492.43L333.93,492.43L333.93,497.77L328.59,497.77Z" style="fill:none;stroke:#7AC36A;stroke-width:0.625" />
<path d="M335.55,545.01L340.88,545.01L340.88,550.34L335.55,550.34Z" style="fill:none;stroke:#7AC36A;stroke-width:0.625" />
<path d="M342.5,618.68L347.84,618.68L347.84,624.01L342.5,624.01Z" style="fill:none;stroke:#7AC36A;stroke-width:0.625" />
<path d="M349.46,655.1L354.79,655.1L354.79,660.44L349.46,660.44Z" style="fill:none;stroke:#7AC36A;stroke-width:0.625" />
<path d="M356.41,668.5L361.74,668.5L361.74,673.84L356.41,673.84Z" style="fill:none;stroke:#7AC36A;stroke-width:0.625" />
<path d="M363.36,705.03L368.7,705.03L368.7,710.36L363.36,710.36Z" style="fill:none;stroke:#7AC36A;stroke-width:0.625" />
<path d="M370.32,734.64L375.65,734.64L375.65,739.97L370.32,739.97Z" style="fill:none;stroke:#7AC36A;stroke-width:0.625" />
<path d="M377.27,769.66L382.6,769.66L382.6,774.99L377.27,774.99Z" style="fill:none;stroke:#7AC36A;stroke-width:0.625" />
<path d="M384.22,751.08L389.56,751.08L389.56,756.42L384.22,756.42Z" style="fill:none;stroke:#7AC36A;stroke-width:0.625" />
<path d="M391.18,755.68L396.51,755.68L396.51,761.02L391.18,761.02Z" style="fill:none;stroke:#7AC36A;stroke-width:0.625" />
<path d="M398.13,745.51L403.46,745.51L403.46,750.85L398.13,750.85Z" style="fill:none;stroke:#7AC36A;stroke-width:0.625" />
<path d="M405.08,707.64L410.42,707.64L410.42,712.97L405.08,712.97Z" style="fill:none;stroke:#7AC36A;stroke-width:0.625" />
<path d="M412.04,675.95L417.37,675.95L417.37,681.29L412.04,681.29Z" style="fill:none;stroke:#7AC36A;stroke-width:0.625" />
<path d="M418.99,630.08L424.33,630.08L424.33,635.41L418.99,635.41Z" style="fill:none;stroke:#7AC36A;stroke-width:0.625" />
<path d="M425.94,600.36L431.28,600.36L431.28,605.69L425.94,605.69Z" style="fill:none;stroke:#7AC36A;stroke-width:0.625" />
<path d="M432.9,559.03L438.23,559.03L438.23,564.37L432.9,564.37Z" style="fill:none;stroke:#7AC36A;stroke-width:0.625" />
<path d="M439.85,525.29L445.19,525.29L445.19,530.63L439.85,530.63Z" style="fill:none;stroke:#7AC36A;stroke-width:0.625" />
<path d="M446.8,463.25L452.14,463.25L452.14,468.58L446.8,468.58Z" style="fill:none;stroke:#7AC36A;stroke-width:0.625" />
<path d="M453.76,387.94L459.09,387.94L459.09,393.28L453.76,393.28Z" style="fill:none;stroke:#7AC36A;stroke-width:0.625" />
<path d="M460.71,312.89L466.05,312.89L466.05,318.23L460.71,318.23Z" style="fill:none;stroke:#7AC36A;stroke-width:0.625" />
<path d="M467.67,252.9L473,252.9L473,258.23L467.67,258.23Z" style="fill:none;stroke:#7AC36A;stroke-width:0.625" />
<path d="M474.62,193.88L479.95,193.88L479.95,199.22L474.62,199.22Z" style="fill:none;stroke:#7AC36A;stroke-width:0.625" />
<path d="M481.57,131.31L486.91,131.31L486.91,136.65L481.57,136.65Z" style="fill:none;stroke:#7AC36A;stroke-width:0.625" />
<path d="M488.53,83.853L493.86,83.853L493.86,89.188L488.53,89.188Z" style="fill:none;stroke:#7AC36A;stroke-width:0.625" />
<path d="M495.48,79.311L500.81,79.311L500.81,84.645L495.48,84.645Z" style="fill:none;stroke:#7AC36A;stroke-width:0.625" />
<path d="M502.43,56.944L507.77,56.944L507.77,62.279L502.43,62.279Z" style="fill:none;stroke:#7AC36A;stroke-width:0.625" />
<path d="M509.39,58.543L514.72,58.543L514.72,63.877L509.39,63.877Z" style="fill:none;stroke:#7AC36A;stroke-width:0.625" />
<path d="M516.34,48.558L521.67,48.558L521.67,53.893L516.34,53.893Z" style="fill:none;stroke:#7AC36A;stroke-width:0.625" />
<path d="M523.29,57.802L528.63,57.802L528.63,63.137L523.29,63.137Z" style="fill:none;stroke:#7AC36A;stroke-width:0.625" />
<path d="M530.25,57.045L535.58,57.045L535.58,62.38L530.25,62.38Z" style="fill:none;stroke:#7AC36A;stroke-width:0.625" />
<path d="M537.2,93.402L542.54,93.402L542.54,98.737L537.2,98.737Z" style="fill:none;stroke:#7AC36A;stroke-width:0.625" />
<path d="M544.15,112.25L549.49,112.25L549.49,117.58L544.15,117.58Z" style="fill:none;stroke:#7AC36A;stroke-width:0.625" />
<path d="M551.11,145.25L556.44,145.25L556.44,150.58L551.11,150.58Z" style="fill:none;stroke:#7AC36A;stroke-width:0.625" />
<path d="M558.06,201.25L563.4,201.25L563.4,206.59L558.06,206.59Z" style="fill:none;stroke:#7AC36A;stroke-width:0.625" />
<path d="M565.01,234.64L570.35,234.64L570.35,239.97L565.01,239.97Z" style="fill:none;stroke:#7AC36A;stroke-width:0.625" />
<path d="M571.97,271.68L577.3,271.68L577.3,277.01L571.97,277.01Z" style="fill:none;stroke:#7AC36A;stroke-width:0.625" />
<path d="M578.92,336.59L584.26,336.59L584.26,341.93L578.92,341.93Z" style="fill:none;stroke:#7AC36A;stroke-width:0.625" />
<path d="M585.88,379.91L591.21,379.91L591.21,385.24L585.88,385.24Z" style="fill:none;stroke:#7AC36A;stroke-width:0.625" />
<path d="M592.83,424.35L598.16,424.35L598.16,429.69L592.83,429.69Z" style="fill:none;stroke:#7AC36A;stroke-width:0.625" />
<path d="M599.78,497.98L605.12,497.98L605.12,503.32L599.78,503.32Z" style="fill:none;stroke:#7AC36A;stroke-width:0.625" />
<path d="M606.74,559.52L612.07,559.52L612.07,564.85L606.74,564.85Z" style="fill:none;stroke:#7AC36A;stroke-width:0.625" />
<path d="M613.69,605.17L619.02,605.17L619.02,610.5L613.69,610.5Z" style="fill:none;stroke:#7AC36A;stroke-width:0.625" />
<path d="M620.64,635.36L625.98,635.36L625.98,640.69L620.64,640.69Z" style="fill:none;stroke:#7AC36A;stroke-width:0.625" />
<path d="M627.6,667.53L632.93,667.53L632.93,672.87L627.6,672.87Z" style="fill:none;stroke:#7AC36A;stroke-width:0.625" />
<path d="M634.55,678.03L639.89,678.03L639.89,683.37L634.55,683.37Z" style="fill:none;stroke:#7AC36A;stroke-width:0.625" />
<path d="M641.5,682.64L646.84,682.64L646.84,687.98L641.5,687.98Z" style="fill:none;stroke:#7AC36A;stroke-width:0.625" />
<path d="M648.46,673.09L653.79,673.09L653.79,678.42L648.46,678.42Z" style="fill:none;stroke:#7AC36A;stroke-width:0.625" />
<path d="M655.41,657.86L660.75,657.86L660.75,663.2L655.41,663.2Z" style="fill:none;stroke:#7AC36A;stroke-width:0.625" />
<path d="M662.36,646.61L667.7,646.61L667.7,651.95L662.36,651.95Z" style="fill:none;stroke:#7AC36A;stroke-width:0.625" />
<path d="M669.32,641.86L674.65,641.86L674.65,647.2L669.32,647.2Z" style="fill:none;stroke:#7AC36A;stroke-width:0.625" />
<path d="M676.27,606.21L681.61,606.21L681.61,611.55L676.27,611.55Z" style="fill:none;stroke:#7AC36A;stroke-width:0.625" />
<path d="M683.23,587.63L688.56,587.63L688.56,592.96L683.23,592.96Z" style="fill:none;stroke:#7AC36A;stroke-width:0.625" />
<path d="M690.18,581.3L695.51,581.3L695.51,586.64L690.18,586.64Z" style="fill:none;stroke:#7AC36A;stroke-width:0.625" />
<path d="M697.13,559.88L702.47,559.88L702.47,565.21L697.13,565.21Z" style="fill:none;stroke:#7AC36A;stroke-width:0.625" />
<path d="M704.09,530.04L709.42,530.04L709.42,535.38L704.09,535.38Z" style="fill:none;stroke:#7AC36A;stroke-width:0.625" />
<path d="M711.04,475.11L716.37,475.11L716.37,480.44L711.04,480.44Z" style="fill:none;stroke:#7AC36A;stroke-width:0.625" />
<path d="M717.99,423.27L723.33,423.27L723.33,428.61L717.99,428.61Z" style="fill:none;stroke:#7AC36A;stroke-width:0.625" />
<path d="M724.95,346.38L730.28,346.38L730.28,351.71L724.95,351.71Z" style="fill:none;stroke:#7AC36A;stroke-width:0.625" />
<path d="M731.9,286.63L737.23,286.63L737.23,291.96L731.9,291.96Z" style="fill:none;stroke:#7AC36A;stroke-width:0.625" />
<path d="M738.85,257.81L744.19,257.81L744.19,263.14L738.85,263.14Z" style="fill:none;stroke:#7AC36A;stroke-width:0.625" />
<path d="M745.81,230.92L751.14,230.92L751.14,236.25L745.81,236.25Z" style="fill:none;stroke:#7AC36A;stroke-width:0.625" />
<path d="M752.76,200.95L758.1,200.95L758.1,206.28L752.76,206.28Z" style="fill:none;stroke:#7AC36A;stroke-width:0.625" />
<path d="M759.71,149.09L765.05,149.09L765.05,154.43L759.71,154.43Z" style="fill:none;stroke:#7AC36A;stroke-width:0.625" />
<path d="M766.67,129.74L772,129.74L772,135.08L766.67,135.08Z" style="fill:none;stroke:#7AC36A;stroke-width:0.625" />
<path d="M773.62,124.74L778.96,124.74L778.96,130.08L773.62,130.08Z" style="fill:none;stroke:#7AC36A;stroke-width:0.625" />
<path d="M780.57,138.48L785.91,138.48L785.91,143.82L780.57,143.82Z" style="fill:none;stroke:#7AC36A;stroke-width:0.625" />
<path d="M787.53,125.9L792.86,125.9L792.86,131.24L787.53,131.24Z" style="fill:none;stroke:#7AC36A;stroke-width:0.625" />
<path d="M794.48,134.99L799.82,134.99L799.82,140.32L794.48,140.32Z" style="fill:none;stroke:#7AC36A;stroke-width:0.625" />
<path d="M801.44,155.51L806.77,155.51L806.77,160.84L801.44,160.84Z" style="fill:none;stroke:#7AC36A;stroke-width:0.625" />
<path d="M808.39,170.49L813.72,170.49L813.72,175.82L808.39,175.82Z" style="fill:none;stroke:#7AC36A;stroke-width:0.625" />
<path d="M815.34,219.71L820.68,219.71L820.68,225.05L815.34,225.05Z" style="fill:none;stroke:#7AC36A;stroke-width:0.625" />
<path d="M822.3,241.98L827.63,241.98L827.63,247.31L822.3,247.31Z" style="fill:none;stroke:#7AC36A;stroke-width:0.625" />
<path d="M829.25,288.66L834.58,288.66L834.58,293.99L829.25,293.99Z" style="fill:none;stroke:#7AC36A;stroke-width:0.625" />
<path d="M836.2,352.85L841.54,352.85L841.54,358.18L836.2,358.18Z" style="fill:none;stroke:#7AC36A;stroke-width:0.625" />
<path d="M843.16,392.24L848.49,392.24L848.49,397.58L843.16,397.58Z" style="fill:none;stroke:#7AC36A;stroke-width:0.625" />
<path d="M850.11,439.57L855.44,439.57L855.44,444.9L850.11,444.9Z" style="fill:none;stroke:#7AC36A;stroke-width:0.625" />
<path d="M857.06,513.76L862.4,513.76L862.4,519.1L857.06,519.1Z" style="fill:none;stroke:#7AC36A;stroke-width:0.625" />
<path d="M864.02,588.44L869.35,588.44L869.35,593.77L864.02,593.77Z" style="fill:none;stroke:#7AC36A;stroke-width:0.625" />
<path d="M870.97,613.45L876.31,613.45L876.31,618.78L870.97,618.78Z" style="fill:none;stroke:#7AC36A;stroke-width:0.625" />
<path d="M877.92,654.08L883.26,654.08L883.26,659.42L877.92,659.42Z" style="fill:none;stroke:#7AC36A;stroke-width:0.625" />
<path d="M884.88,697.46L890.21,697.46L890.21,702.79L884.88,702.79Z" style="fill:none;stroke:#7AC36A;stroke-width:0.625" />
<path d="M891.83,743.01L897.17,743.01L897.17,748.34L891.83,748.34Z" style="fill:none;stroke:#7AC36A;stroke-width:0.625" />
<path d="M898.78,770.43L904.12,770.43L904.12,775.76L898.78,775.76Z" style="fill:none;stroke:#7AC36A;stroke-width:0.625" />
<path d="M905.74,796.2L911.07,796.2L911.07,801.53L905.74,801.53Z" style="fill:none;stroke:#7AC36A;stroke-width:0.625" />
<path d="M912.69,804.21L918.03,804.21L918.03,809.54L912.69,809.54Z" style="fill:none;stroke:#7AC36A;stroke-width:0.625" />
<path d="M919.65,802.64L924.98,802.64L924.98,807.97L919.65,807.97Z" style="fill:none;stroke:#7AC36A;stroke-width:0.625" />
<path d="M926.6,797.51L931.93,797.51L931.93,802.84L926.6,802.84Z" style="fill:none;stroke:#7AC36A;stroke-width:0.625" />
<path d="M933.55,784.64L938.89,784.64L938.89,789.98L933.55,789.98Z" style="fill:none;stroke:#7AC36A;stroke-width:0.625" />
<path d="M940.51,726.26L945.84,726.26L945.84,731.59L940.51,731.59Z" style="fill:none;stroke:#7AC36A;stroke-width:0.625" />
<path d="M947.46,685.21L952.79,685.21L952.79,690.55L947.46,690.55Z" style="fill:none;stroke:#7AC36A;stroke-width:0.625" />
<path d="M954.41,611.67L959.75,611.67L959.75,617.01L954.41,617.01Z" style="fill:none;stroke:#7AC36A;stroke-width:0.625" />
<path d="M961.37,531.1L966.7,531.1L966.7,536.43L961.37,536.43Z" style="fill:none;stroke:#7AC36A;stroke-width:0.625" />
<path d="M968.32,451.51L973.66,451.51L973.66,456.84L968.32,456.84Z" style="fill:none;stroke:#7AC36A;stroke-width:0.625" />
<path d="M975.27,400.54L980.61,400.54L980.61,405.87L975.27,405.87Z" style="fill:none;stroke:#7AC36A;stroke-width:0.625" />
<path d="M982.23,347.39L987.56,347.39L987.56,352.73L982.23,352.73Z" style="fill:none;stroke:#7AC36A;stroke-width:0.625" />
<path d="M989.18,290.45L994.52,290.45L994.52,295.79L989.18,295.79Z" style="fill:none;stroke:#7AC36A;stroke-width:0.625" />
<path d="M996.13,256.53L1001.5,256.53L1001.5,261.87L996.13,261.87Z" style="fill:none;stroke:#7AC36A;stroke-width:0.625" />
<path d="M1003.1,216.59L1008.4,216.59L1008.4,221.93L1003.1,221.93Z" style="fill:none;stroke:#7AC36A;stroke-width:0.625" />
<path d="M1010,175.24L1015.4,175.24L1015.4,180.58L1010,180.58Z" style="fill:none;stroke:#7AC36A;stroke-width:0.625" />
<path d="M1017,125.53L1022.3,125.53L1022.3,130.87L1017,130.87Z" style="fill:none;stroke:#7AC36A;stroke-width:0.625" />
<path d="M1023.9,100.24L1029.3,100.24L1029.3,105.58L1023.9,105.58Z" style="fill:none;stroke:#7AC36A;stroke-width:0.625" />
<path d="M1030.9,104.52L1036.2,104.52L1036.2,109.85L1030.9,109.85Z" style="fill:none;stroke:#7AC36A;stroke-width:0.625" />
<path d="M1037.9,89.136L1043.2,89.136L1043.2,94.471L1037.9,94.471Z" style="fill:none;stroke:#7AC36A;stroke-width:0.625" />
<path d="M1044.8,69.244L1050.1,69.244L1050.1,74.579L1044.8,74.579Z" style="fill:none;stroke:#7AC36A;stroke-width:0.625" />
<path d="M1051.8,66.051L1057.1,66.051L1057.1,71.386L1051.8,71.386Z" style="fill:none;stroke:#7AC36A;stroke-width:0.625" />
<path d="M1058.7,81.74L1064.1,81.74L1064.1,87.075L1058.7,87.075Z" style="fill:none;stroke:#7AC36A;stroke-width:0.625" />
<path d="M1065.7,130.97L1071,130.97L1071,136.3L1065.7,136.3Z" style="fill:none;stroke:#7AC36A;stroke-width:0.625" />
<path d="M1072.6,175.06L1078,175.06L1078,180.39L1072.6,180.39Z" style="fill:none;stroke:#7AC36A;stroke-width:0.625" />
<path d="M1079.6,216.1L1084.9,216.1L1084.9,221.43L1079.6,221.43Z" style="fill:none;stroke:#7AC36A;stroke-width:0.625" />
<path d="M1086.5,267.94L1091.9,267.94L1091.9,273.27L1086.5,273.27Z" style="fill:none;stroke:#7AC36A;stroke-width:0.625" />
<path d="M1093.5,304.14L1098.8,304.14L1098.8,309.48L1093.5,309.48Z" style="fill:none;stroke:#7AC36A;stroke-width:0.625" />
<path d="M1100.4,379.87L1105.8,379.87L1105.8,385.2L1100.4,385.2Z" style="fill:none;stroke:#7AC36A;stroke-width:0.625" />
<path d="M1107.4,457.92L1112.7,457.92L1112.7,463.26L1107.4,463.26Z" style="fill:none;stroke:#7AC36A;stroke-width:0.625" />
<path d="M1114.3,507.76L1119.7,507.76L1119.7,513.09L1114.3,513.09Z" style="fill:none;stroke:#7AC36A;stroke-width:0.625" />
<path d="M1121.3,564.08L1126.6,564.08L1126.6,569.42L1121.3,569.42Z" style="fill:none;stroke:#7AC36A;stroke-width:0.625" />
<path d="M1128.3,593.82L1133.6,593.82L1133.6,599.15L1128.3,599.15Z" style="fill:none;stroke:#7AC36A;stroke-width:0.625" />
<path d="M1135.2,656.94L1140.5,656.94L1140.5,662.28L1135.2,662.28Z" style="fill:none;stroke:#7AC36A;stroke-width:0.625" />
<path d="M1142.2,684.62L1147.5,684.62L1147.5,689.95L1142.2,689.95Z" style="fill:none;stroke:#7AC36A;stroke-width:0.625" />
<path d="M1149.1,701.79L1154.4,701.79L1154.4,707.13L1149.1,707.13Z" style="fill:none;stroke:#7AC36A;stroke-width:0.625" />
<path d="M1156.1,719.23L1161.4,719.23L1161.4,724.57L1156.1,724.57Z" style="fill:none;stroke:#7AC36A;stroke-width:0.625" />
<path d="M1163,750.91L1168.4,750.91L1168.4,756.25L1163,756.25Z" style="fill:none;stroke:#7AC36A;stroke-width:0.625" />
<path d="M1170,764.74L1175.3,764.74L1175.3,770.08L1170,770.08Z" style="fill:none;stroke:#7AC36A;stroke-width:0.625" />
<path d="M1176.9,746.88L1182.3,746.88L1182.3,752.21L1176.9,752.21Z" style="fill:none;stroke:#7AC36A;stroke-width:0.625" />
<path d="M1183.9,748.5L1189.2,748.5L1189.2,753.83L1183.9,753.83Z" style="fill:none;stroke:#7AC36A;stroke-width:0.625" />
<path d="M1190.8,705.69L1196.2,705.69L1196.2,711.02L1190.8,711.02Z" style="fill:none;stroke:#7AC36A;stroke-width:0.625" />
<path d="M1197.8,649.8L1203.1,649.8L1203.1,655.14L1197.8,655.14Z" style="fill:none;stroke:#7AC36A;stroke-width:0.625" />
<path d="M1204.7,631.99L1210.1,631.99L1210.1,637.32L1204.7,637.32Z" style="fill:none;stroke:#7AC36A;stroke-width:0.625" />
<path d="M1211.7,607L1217,607L1217,612.33L1211.7,612.33Z" style="fill:none;stroke:#7AC36A;stroke-width:0.625" />
<path d="M1218.6,577.99L1224,577.99L1224,583.32L1218.6,583.32Z" style="fill:none;stroke:#7AC36A;stroke-width:0.625" />
<path d="M1225.6,525.97L1230.9,525.97L1230.9,531.3L1225.6,531.3Z" style="fill:none;stroke:#7AC36A;stroke-width:0.625" />
<path d="M1232.6,488.78L1237.9,488.78L1237.9,494.12L1232.6,494.12Z" style="fill:none;stroke:#7AC36A;stroke-width:0.625" />
<path d="M1239.5,419L1244.8,419L1244.8,424.33L1239.5,424.33Z" style="fill:none;stroke:#7AC36A;stroke-width:0.625" />
<path d="M1246.5,338.85L1251.8,338.85L1251.8,344.18L1246.5,344.18Z" style="fill:none;stroke:#7AC36A;stroke-width:0.625" />
<path d="M1253.4,267.06L1258.8,267.06L1258.8,272.4L1253.4,272.4Z" style="fill:none;stroke:#7AC36A;stroke-width:0.625" />
<path d="M1260.4,226.1L1265.7,226.1L1265.7,231.43L1260.4,231.43Z" style="fill:none;stroke:#7AC36A;stroke-width:0.625" />
<path d="M1267.3,196.36L1272.7,196.36L1272.7,201.69L1267.3,201.69Z" style="fill:none;stroke:#7AC36A;stroke-width:0.625" />
<path d="M1274.3,141.26L1279.6,141.26L1279.6,146.59L1274.3,146.59Z" style="fill:none;stroke:#7AC36A;stroke-width:0.625" />
<path d="M1281.2,127.47L1286.6,127.47L1286.6,132.81L1281.2,132.81Z" style="fill:none;stroke:#7AC36A;stroke-width:0.625" />
<path d="M1288.2,84.341L1293.5,84.341L1293.5,89.676L1288.2,89.676Z" style="fill:none;stroke:#7AC36A;stroke-width:0.625" />
<path d="M1295.1,62.549L1300.5,62.549L1300.5,67.883L1295.1,67.883Z" style="fill:none;stroke:#7AC36A;stroke-width:0.625" />
<path d="M1302.1,65.812L1307.4,65.812L1307.4,71.147L1302.1,71.147Z" style="fill:none;stroke:#7AC36A;stroke-width:0.625" />
<path d="M1309,90.057L1314.4,90.057L1314.4,95.392L1309,95.392Z" style="fill:none;stroke:#7AC36A;stroke-width:0.625" />
<path d="M1316,87.739L1321.3,87.739L1321.3,93.074L1316,93.074Z" style="fill:none;stroke:#7AC36A;stroke-width:0.625" />
<path d="M1323,120.01L1328.3,120.01L1328.3,125.35L1323,125.35Z" style="fill:none;stroke:#7AC36A;stroke-width:0.625" />
<path d="M1329.9,170.19L1335.2,170.19L1335.2,175.52L1329.9,175.52Z" style="fill:none;stroke:#7AC36A;stroke-width:0.625" />
<path d="M1336.9,234.95L1342.2,234.95L1342.2,240.29L1336.9,240.29Z" style="fill:none;stroke:#7AC36A;stroke-width:0.625" />
<path d="M1343.8,304.81L1349.1,304.81L1349.1,310.14L1343.8,310.14Z" style="fill:none;stroke:#7AC36A;stroke-width:0.625" />
<path d="M1350.8,378.56L1356.1,378.56L1356.1,383.9L1350.8,383.9Z" style="fill:none;stroke:#7AC36A;stroke-width:0.625" />
<path d="M1357.7,446.41L1363.1,446.41L1363.1,451.74L1357.7,451.74Z" style="fill:none;stroke:#7AC36A;stroke-width:0.625" />
<path d="M1364.7,506.31L1370,506.31L1370,511.65L1364.7,511.65Z" style="fill:none;stroke:#7AC36A;stroke-width:0.625" />
<path d="M1371.6,548.12L1377,548.12L1377,553.45L1371.6,553.45Z" style="fill:none;stroke:#7AC36A;stroke-width:0.625" />
<path d="M1378.6,587.54L1383.9,587.54L1383.9,592.88L1378.6,592.88Z" style="fill:none;stroke:#7AC36A;stroke-width:0.625" />
<path d="M1385.5,607.37L1390.9,607.37L1390.9,612.71L1385.5,612.71Z" style="fill:none;stroke:#7AC36A;stroke-width:0.625" />
<path d="M1392.5,634.76L1397.8,634.76L1397.8,640.09L1392.5,640.09Z" style="fill:none;stroke:#7AC36A;stroke-width:0.625" />
<path d="M1399.4,663.94L1404.8,663.94L1404.8,669.27L1399.4,669.27Z" style="fill:none;stroke:#7AC36A;stroke-width:0.625" />
<path d="M1406.4,675.92L1411.7,675.92L1411.7,681.25L1406.4,681.25Z" style="fill:none;stroke:#7AC36A;stroke-width:0.625" />
<path d="M1413.3,678.44L1418.7,678.44L1418.7,683.77L1413.3,683.77Z" style="fill:none;stroke:#7AC36A;stroke-width:0.625" />
<path d="M1420.3,670.08L1425.6,670.08L1425.6,675.41L1420.3,675.41Z" style="fill:none;stroke:#7AC36A;stroke-width:0.625" />
<path d="M1427.3,679.69L1432.6,679.69L1432.6,685.02L1427.3,685.02Z" style="fill:none;stroke:#7AC36A;stroke-width:0.625" />
<path d="M1434.2,677.89L1439.5,677.89L1439.5,683.22L1434.2,683.22Z" style="fill:none;stroke:#7AC36A;stroke-width:0.625" />
<path d="M1415,70.183L1440,70.183" style="fill:none;stroke:#F15A60;stroke-width:1.25" />
<path d="M1430.6,70.183A3.125,3.125 0 1 1 1424.4,70.183A3.125,3.125 0 1 1 1430.6,70.183Z" style="fill:none;stroke:#F15A60;stroke-width:0.625" />
<text x="1388.8" y="-63.101" transform="scale(1, -1)"
	style="font-family:Times;font-weight:normal;font-style:normal;font-size:12pt">raw</text>
<path d="M1415,55.461L1440,55.461" style="fill:none;stroke:#7AC36A;stroke-width:1.25;stroke-dasharray:7.5,2.5" />
<path d="M1424.8,52.794L1430.2,52.794L1430.2,58.129L1424.8,58.129Z" style="fill:none;stroke:#7AC36A;stroke-width:0.625" />
<text x="1367.1" y="-48.379" transform="scale(1, -1)"
	style="font-family:Times;font-weight:normal;font-style:normal;font-size:12pt">smooth</text>
</g>
</svg>
