<?xml version="1.0"?>
<!-- Generated by SVGo and Plotinum VG -->
<svg width="16in" height="9in"
	xmlns="http://www.w3.org/2000/svg"
	xmlns:xlink="http://www.w3.org/1999/xlink">
<g transform="scale(1, -1) translate(0, -810)">
<path d="M0,0L1440,0L1440,810L0,810Z" style="fill:#FFFFFF" />
<text x="743.67" y="-5.355" transform="scale(1, -1)"
	style="font-family:Times;font-weight:normal;font-style:normal;font-size:12pt">X</text>
<text x="58.175" y="-19.025" transform="scale(1, -1)"
	style="font-family:Times;font-weight:normal;font-style:normal;font-size:10pt">0</text>
<text x="469.8" y="-19.025" transform="scale(1, -1)"
	style="font-family:Times;font-weight:normal;font-style:normal;font-size:10pt">60</text>
<text x="881.42" y="-19.025" transform="scale(1, -1)"
	style="font-family:Times;font-weight:normal;font-style:normal;font-size:10pt">120</text>
<text x="1296.2" y="-19.025" transform="scale(1, -1)"
	style="font-family:Times;font-weight:normal;font-style:normal;font-size:10pt">180</text>
<path d="M61.3,29.625L61.3,39.625" style="fill:none;stroke:#000000;stroke-width:0.625" />
<path d="M476.05,29.625L476.05,39.625" style="fill:none;stroke:#000000;stroke-width:0.625" />
<path d="M890.79,29.625L890.79,39.625" style="fill:none;stroke:#000000;stroke-width:0.625" />
<path d="M1305.5,29.625L1305.5,39.625" style="fill:none;stroke:#000000;stroke-width:0.625" />
<path d="M199.55,34.625L199.55,39.625" style="fill:none;stroke:#000000;stroke-width:0.625" />
<path d="M337.8,34.625L337.8,39.625" style="fill:none;stroke:#000000;stroke-width:0.625" />
<path d="M614.29,34.625L614.29,39.625" style="fill:none;stroke:#000000;stroke-width:0.625" />
<path d="M752.54,34.625L752.54,39.625" style="fill:none;stroke:#000000;stroke-width:0.625" />
<path d="M1029,34.625L1029,39.625" style="fill:none;stroke:#000000;stroke-width:0.625" />
<path d="M1167.3,34.625L1167.3,39.625" style="fill:none;stroke:#000000;stroke-width:0.625" />
<path d="M61.3,39.625L1436.9,39.625" style="fill:none;stroke:#000000;stroke-width:0.625" />
<g transform="rotate(90)">
<text x="422.68" y="12.72" transform="scale(1, -1)"
	style="font-family:Times;font-weight:normal;font-style:normal;font-size:12pt">Y</text>
</g>
<text x="18.075" y="-84.956" transform="scale(1, -1)"
	style="font-family:Times;font-weight:normal;font-style:normal;font-size:10pt">-0.8</text>
<text x="31.613" y="-294.52" transform="scale(1, -1)"
	style="font-family:Times;font-weight:normal;font-style:normal;font-size:10pt">0</text>
<text x="22.237" y="-504.09" transform="scale(1, -1)"
	style="font-family:Times;font-weight:normal;font-style:normal;font-size:10pt">0.8</text>
<text x="22.237" y="-713.66" transform="scale(1, -1)"
	style="font-family:Times;font-weight:normal;font-style:normal;font-size:10pt">1.6</text>
<path d="M40.987,89.781L50.987,89.781" style="fill:none;stroke:#000000;stroke-width:0.625" />
<path d="M40.987,299.35L50.987,299.35" style="fill:none;stroke:#000000;stroke-width:0.625" />
<path d="M40.987,508.92L50.987,508.92" style="fill:none;stroke:#000000;stroke-width:0.625" />
<path d="M40.987,718.49L50.987,718.49" style="fill:none;stroke:#000000;stroke-width:0.625" />
<path d="M45.987,89.781L50.987,89.781" style="fill:none;stroke:#000000;stroke-width:0.625" />
<path d="M45.987,194.57L50.987,194.57" style="fill:none;stroke:#000000;stroke-width:0.625" />
<path d="M45.987,299.35L50.987,299.35" style="fill:none;stroke:#000000;stroke-width:0.625" />
<path d="M45.987,404.13L50.987,404.13" style="fill:none;stroke:#000000;stroke-width:0.625" />
<path d="M45.987,508.92L50.987,508.92" style="fill:none;stroke:#000000;stroke-width:0.625" />
<path d="M45.987,613.7L50.987,613.7" style="fill:none;stroke:#000000;stroke-width:0.625" />
<path d="M50.987,49.313L50.987,806.88" style="fill:none;stroke:#000000;stroke-width:0.625" />
<path d="M61.3,491.31L68.212,400.97L75.125,458.81L82.037,405.37L88.95,644.19L95.862,552.79L102.77,518.09L109.69,713.36L116.6,609.43L123.51,521.26L130.42,553.9L137.34,572.25L144.25,732.01L151.16,619.78L158.07,586.13L164.99,626.37L171.9,806.88L178.81,746.21L185.72,667.48L192.64,700.83L199.55,596.01L206.46,685.59L213.37,710.18L220.29,566.54L227.2,587.55L234.11,638.22L241.02,696.69L247.94,672.2L254.85,444.71L261.76,435.01L268.67,560.42L275.59,578.7L282.5,393.99L289.41,441.17L296.32,311.77L303.24,464.4L310.15,418.35L317.06,273.86L323.97,370.41L330.89,409.07L337.8,318.82L344.71,156.52L351.62,376.32L358.53,355.29L365.45,204.91L372.36,84.436L379.27,207.75L386.18,235.55L393.1,209.53L400.01,121.64L406.92,246.12L413.83,108.97L420.75,70.59L427.66,260.34L434.57,50.403L441.48,264.18L448.4,141.59L455.31,309.14L462.22,222.08L469.13,326.8L476.05,132.62L482.96,207.1L489.87,228.45L496.78,270.55L503.7,447.59L510.61,464.53L517.52,250.26L524.43,281.12L531.35,422.23L538.26,361.05L545.17,511.42L552.08,529.96L559,533.33L565.91,499.32L572.82,553.9L579.73,599.91L586.65,669.95L593.56,573.7L600.47,602.28L607.38,701.42L614.29,662.24L621.21,749.59L628.12,763.24L635.03,754.09L641.94,704.53L648.86,805.42L655.77,577.11L662.68,603.09L669.59,612.06L676.51,620.45L683.42,728.16L690.33,768.22L697.24,670.63L704.16,763.64L711.07,640.62L717.98,589.73L724.89,561.08L731.81,679L738.72,561.75L745.63,620.59L752.54,491.1L759.46,400.59L766.37,477.45L773.28,499.41L780.19,518.13L787.11,439.22L794.02,358.61L800.93,427.21L807.84,297.87L814.76,226.05L821.67,199.13L828.58,308.05L835.49,152.18L842.41,200L849.32,154.41L856.23,109.38L863.14,225.51L870.06,255.83L876.97,49.313L883.88,74.333L890.79,268.79L897.7,259.05L904.62,270.38L911.53,220.46L918.44,107.1L925.35,276.51L932.27,170.01L939.18,285.77L946.09,350.38L953,206.07L959.92,150.96L966.83,259.64L973.74,381.89L980.65,343.13L987.57,284.57L994.48,414.41L1001.4,476.7L1008.3,424.82L1015.2,462.64L1022.1,433.41L1029,365.13L1036,427.16L1042.9,476.63L1049.8,618.54L1056.7,483.39L1063.6,646.7L1070.5,623.71L1077.4,609.78L1084.3,552.92L1091.3,769.89L1098.2,667.9L1105.1,716.64L1112,615.42L1118.9,623.41L1125.8,753.1L1132.7,725.46L1139.6,771.7L1146.6,676.96L1153.5,570.54L1160.4,745.72L1167.3,618.83L1174.2,569.95L1181.1,681.77L1188,538.79L1194.9,597.95L1201.9,520.39L1208.8,451.96L1215.7,491.58L1222.6,512.81L1229.5,567.22L1236.4,400.67L1243.3,482.11L1250.2,387.42L1257.2,537.94L1264.1,459.6L1271,454.05L1277.9,455.15L1284.8,357.73L1291.7,418.71L1298.6,160.7L1305.5,374.81L1312.5,178.58L1319.4,143.39L1326.3,292.22L1333.2,231.97L1340.1,98.353L1347,110.58L1353.9,197.25L1360.8,54.651L1367.8,106.12L1374.7,214.25L1381.6,284.55L1388.5,225.01L1395.4,286.17L1402.3,160.23L1409.2,119.63L1416.1,112.11L1423.1,139.55L1430,127.53L1436.9,291.03" style="fill:none;stroke:#F15A60;stroke-width:1.25" />
<path d="M64.425,491.31A3.125,3.125 0 1 1 58.175,491.31A3.125,3.125 0 1 1 64.425,491.31Z" style="fill:none;stroke:#F15A60;stroke-width:0.625" />
<path d="M71.337,400.97A3.125,3.125 0 1 1 65.087,400.97A3.125,3.125 0 1 1 71.337,400.97Z" style="fill:none;stroke:#F15A60;stroke-width:0.625" />
<path d="M78.25,458.81A3.125,3.125 0 1 1 72,458.81A3.125,3.125 0 1 1 78.25,458.81Z" style="fill:none;stroke:#F15A60;stroke-width:0.625" />
<path d="M85.162,405.37A3.125,3.125 0 1 1 78.912,405.37A3.125,3.125 0 1 1 85.162,405.37Z" style="fill:none;stroke:#F15A60;stroke-width:0.625" />
<path d="M92.075,644.19A3.125,3.125 0 1 1 85.825,644.19A3.125,3.125 0 1 1 92.075,644.19Z" style="fill:none;stroke:#F15A60;stroke-width:0.625" />
<path d="M98.987,552.79L98.987,552.79A3.125,3.125 0 1 1 92.737,552.79A3.125,3.125 0 1 1 98.987,552.79Z" style="fill:none;stroke:#F15A60;stroke-width:0.625" />
<path d="M105.9,518.09L105.9,518.09A3.125,3.125 0 1 1 99.65,518.09A3.125,3.125 0 1 1 105.9,518.09Z" style="fill:none;stroke:#F15A60;stroke-width:0.625" />
<path d="M112.81,713.36L112.81,713.36A3.125,3.125 0 1 1 106.56,713.36A3.125,3.125 0 1 1 112.81,713.36Z" style="fill:none;stroke:#F15A60;stroke-width:0.625" />
<path d="M119.72,609.43L119.72,609.43A3.125,3.125 0 1 1 113.47,609.43A3.125,3.125 0 1 1 119.72,609.43Z" style="fill:none;stroke:#F15A60;stroke-width:0.625" />
<path d="M126.64,521.26L126.64,521.26A3.125,3.125 0 1 1 120.39,521.26A3.125,3.125 0 1 1 126.64,521.26Z" style="fill:none;stroke:#F15A60;stroke-width:0.625" />
<path d="M133.55,553.9L133.55,553.9A3.125,3.125 0 1 1 127.3,553.9A3.125,3.125 0 1 1 133.55,553.9Z" style="fill:none;stroke:#F15A60;stroke-width:0.625" />
<path d="M140.46,572.25A3.125,3.125 0 1 1 134.21,572.25A3.125,3.125 0 1 1 140.46,572.25Z" style="fill:none;stroke:#F15A60;stroke-width:0.625" />
<path d="M147.37,732.01A3.125,3.125 0 1 1 141.12,732.01A3.125,3.125 0 1 1 147.37,732.01Z" style="fill:none;stroke:#F15A60;stroke-width:0.625" />
<path d="M154.29,619.78A3.125,3.125 0 1 1 148.04,619.78A3.125,3.125 0 1 1 154.29,619.78Z" style="fill:none;stroke:#F15A60;stroke-width:0.625" />
<path d="M161.2,586.13L161.2,586.13A3.125,3.125 0 1 1 154.95,586.13A3.125,3.125 0 1 1 161.2,586.13Z" style="fill:none;stroke:#F15A60;stroke-width:0.625" />
<path d="M168.11,626.37A3.125,3.125 0 1 1 161.86,626.37A3.125,3.125 0 1 1 168.11,626.37Z" style="fill:none;stroke:#F15A60;stroke-width:0.625" />
<path d="M175.02,806.88L175.02,806.88A3.125,3.125 0 1 1 168.77,806.88A3.125,3.125 0 1 1 175.02,806.88Z" style="fill:none;stroke:#F15A60;stroke-width:0.625" />
<path d="M181.94,746.21A3.125,3.125 0 1 1 175.69,746.21A3.125,3.125 0 1 1 181.94,746.21Z" style="fill:none;stroke:#F15A60;stroke-width:0.625" />
<path d="M188.85,667.48A3.125,3.125 0 1 1 182.6,667.48A3.125,3.125 0 1 1 188.85,667.48Z" style="fill:none;stroke:#F15A60;stroke-width:0.625" />
<path d="M195.76,700.83L195.76,700.83A3.125,3.125 0 1 1 189.51,700.83A3.125,3.125 0 1 1 195.76,700.83Z" style="fill:none;stroke:#F15A60;stroke-width:0.625" />
<path d="M202.67,596.01A3.125,3.125 0 1 1 196.42,596.01A3.125,3.125 0 1 1 202.67,596.01Z" style="fill:none;stroke:#F15A60;stroke-width:0.625" />
<path d="M209.59,685.59A3.125,3.125 0 1 1 203.34,685.59A3.125,3.125 0 1 1 209.59,685.59Z" style="fill:none;stroke:#F15A60;stroke-width:0.625" />
<path d="M216.5,710.18A3.125,3.125 0 1 1 210.25,710.18A3.125,3.125 0 1 1 216.5,710.18Z" style="fill:none;stroke:#F15A60;stroke-width:0.625" />
<path d="M223.41,566.54L223.41,566.54A3.125,3.125 0 1 1 217.16,566.54A3.125,3.125 0 1 1 223.41,566.54Z" style="fill:none;stroke:#F15A60;stroke-width:0.625" />
<path d="M230.32,587.55L230.32,587.55A3.125,3.125 0 1 1 224.07,587.55A3.125,3.125 0 1 1 230.32,587.55Z" style="fill:none;stroke:#F15A60;stroke-width:0.625" />
<path d="M237.24,638.22A3.125,3.125 0 1 1 230.99,638.22A3.125,3.125 0 1 1 237.24,638.22Z" style="fill:none;stroke:#F15A60;stroke-width:0.625" />
<path d="M244.15,696.69L244.15,696.69A3.125,3.125 0 1 1 237.9,696.69A3.125,3.125 0 1 1 244.15,696.69Z" style="fill:none;stroke:#F15A60;stroke-width:0.625" />
<path d="M251.06,672.2A3.125,3.125 0 1 1 244.81,672.2A3.125,3.125 0 1 1 251.06,672.2Z" style="fill:none;stroke:#F15A60;stroke-width:0.625" />
<path d="M257.97,444.71A3.125,3.125 0 1 1 251.72,444.71A3.125,3.125 0 1 1 257.97,444.71Z" style="fill:none;stroke:#F15A60;stroke-width:0.625" />
<path d="M264.89,435.01A3.125,3.125 0 1 1 258.64,435.01A3.125,3.125 0 1 1 264.89,435.01Z" style="fill:none;stroke:#F15A60;stroke-width:0.625" />
<path d="M271.8,560.42A3.125,3.125 0 1 1 265.55,560.42A3.125,3.125 0 1 1 271.8,560.42Z" style="fill:none;stroke:#F15A60;stroke-width:0.625" />
<path d="M278.71,578.7A3.125,3.125 0 1 1 272.46,578.7A3.125,3.125 0 1 1 278.71,578.7Z" style="fill:none;stroke:#F15A60;stroke-width:0.625" />
<path d="M285.62,393.99L285.62,393.99A3.125,3.125 0 1 1 279.37,393.99A3.125,3.125 0 1 1 285.62,393.99Z" style="fill:none;stroke:#F15A60;stroke-width:0.625" />
<path d="M292.54,441.17A3.125,3.125 0 1 1 286.29,441.17A3.125,3.125 0 1 1 292.54,441.17Z" style="fill:none;stroke:#F15A60;stroke-width:0.625" />
<path d="M299.45,311.77A3.125,3.125 0 1 1 293.2,311.77A3.125,3.125 0 1 1 299.45,311.77Z" style="fill:none;stroke:#F15A60;stroke-width:0.625" />
<path d="M306.36,464.4A3.125,3.125 0 1 1 300.11,464.4A3.125,3.125 0 1 1 306.36,464.4Z" style="fill:none;stroke:#F15A60;stroke-width:0.625" />
<path d="M313.27,418.35A3.125,3.125 0 1 1 307.02,418.35A3.125,3.125 0 1 1 313.27,418.35Z" style="fill:none;stroke:#F15A60;stroke-width:0.625" />
<path d="M320.19,273.86A3.125,3.125 0 1 1 313.94,273.86A3.125,3.125 0 1 1 320.19,273.86Z" style="fill:none;stroke:#F15A60;stroke-width:0.625" />
<path d="M327.1,370.41L327.1,370.41A3.125,3.125 0 1 1 320.85,370.41A3.125,3.125 0 1 1 327.1,370.41Z" style="fill:none;stroke:#F15A60;stroke-width:0.625" />
<path d="M334.01,409.07L334.01,409.07A3.125,3.125 0 1 1 327.76,409.07A3.125,3.125 0 1 1 334.01,409.07Z" style="fill:none;stroke:#F15A60;stroke-width:0.625" />
<path d="M340.92,318.82A3.125,3.125 0 1 1 334.67,318.82A3.125,3.125 0 1 1 340.92,318.82Z" style="fill:none;stroke:#F15A60;stroke-width:0.625" />
<path d="M347.83,156.52A3.125,3.125 0 1 1 341.58,156.52A3.125,3.125 0 1 1 347.83,156.52Z" style="fill:none;stroke:#F15A60;stroke-width:0.625" />
<path d="M354.75,376.32A3.125,3.125 0 1 1 348.5,376.32A3.125,3.125 0 1 1 354.75,376.32Z" style="fill:none;stroke:#F15A60;stroke-width:0.625" />
<path d="M361.66,355.29L361.66,355.29A3.125,3.125 0 1 1 355.41,355.29A3.125,3.125 0 1 1 361.66,355.29Z" style="fill:none;stroke:#F15A60;stroke-width:0.625" />
<path d="M368.57,204.91A3.125,3.125 0 1 1 362.32,204.91A3.125,3.125 0 1 1 368.57,204.91Z" style="fill:none;stroke:#F15A60;stroke-width:0.625" />
<path d="M375.48,84.436A3.125,3.125 0 1 1 369.23,84.436A3.125,3.125 0 1 1 375.48,84.436Z" style="fill:none;stroke:#F15A60;stroke-width:0.625" />
<path d="M382.4,207.75A3.125,3.125 0 1 1 376.15,207.75A3.125,3.125 0 1 1 382.4,207.75Z" style="fill:none;stroke:#F15A60;stroke-width:0.625" />
<path d="M389.31,235.55A3.125,3.125 0 1 1 383.06,235.55A3.125,3.125 0 1 1 389.31,235.55Z" style="fill:none;stroke:#F15A60;stroke-width:0.625" />
<path d="M396.22,209.53L396.22,209.53A3.125,3.125 0 1 1 389.97,209.53A3.125,3.125 0 1 1 396.22,209.53Z" style="fill:none;stroke:#F15A60;stroke-width:0.625" />
<path d="M403.13,121.64L403.13,121.64A3.125,3.125 0 1 1 396.88,121.64A3.125,3.125 0 1 1 403.13,121.64Z" style="fill:none;stroke:#F15A60;stroke-width:0.625" />
<path d="M410.05,246.12A3.125,3.125 0 1 1 403.8,246.12A3.125,3.125 0 1 1 410.05,246.12Z" style="fill:none;stroke:#F15A60;stroke-width:0.625" />
<path d="M416.96,108.97A3.125,3.125 0 1 1 410.71,108.97A3.125,3.125 0 1 1 416.96,108.97Z" style="fill:none;stroke:#F15A60;stroke-width:0.625" />
<path d="M423.87,70.59L423.87,70.59A3.125,3.125 0 1 1 417.62,70.59A3.125,3.125 0 1 1 423.87,70.59Z" style="fill:none;stroke:#F15A60;stroke-width:0.625" />
<path d="M430.78,260.34A3.125,3.125 0 1 1 424.53,260.34A3.125,3.125 0 1 1 430.78,260.34Z" style="fill:none;stroke:#F15A60;stroke-width:0.625" />
<path d="M437.7,50.403A3.125,3.125 0 1 1 431.45,50.403A3.125,3.125 0 1 1 437.7,50.403Z" style="fill:none;stroke:#F15A60;stroke-width:0.625" />
<path d="M444.61,264.18A3.125,3.125 0 1 1 438.36,264.18A3.125,3.125 0 1 1 444.61,264.18Z" style="fill:none;stroke:#F15A60;stroke-width:0.625" />
<path d="M451.52,141.59A3.125,3.125 0 1 1 445.27,141.59A3.125,3.125 0 1 1 451.52,141.59Z" style="fill:none;stroke:#F15A60;stroke-width:0.625" />
<path d="M458.43,309.14A3.125,3.125 0 1 1 452.18,309.14A3.125,3.125 0 1 1 458.43,309.14Z" style="fill:none;stroke:#F15A60;stroke-width:0.625" />
<path d="M465.35,222.08A3.125,3.125 0 1 1 459.1,222.08A3.125,3.125 0 1 1 465.35,222.08Z" style="fill:none;stroke:#F15A60;stroke-width:0.625" />
<path d="M472.26,326.8A3.125,3.125 0 1 1 466.01,326.8A3.125,3.125 0 1 1 472.26,326.8Z" style="fill:none;stroke:#F15A60;stroke-width:0.625" />
<path d="M479.17,132.62A3.125,3.125 0 1 1 472.92,132.62A3.125,3.125 0 1 1 479.17,132.62Z" style="fill:none;stroke:#F15A60;stroke-width:0.625" />
<path d="M486.08,207.1L486.08,207.1A3.125,3.125 0 1 1 479.83,207.1A3.125,3.125 0 1 1 486.08,207.1Z" style="fill:none;stroke:#F15A60;stroke-width:0.625" />
<path d="M493,228.45L493,228.45A3.125,3.125 0 1 1 486.75,228.45A3.125,3.125 0 1 1 493,228.45Z" style="fill:none;stroke:#F15A60;stroke-width:0.625" />
<path d="M499.91,270.55A3.125,3.125 0 1 1 493.66,270.55A3.125,3.125 0 1 1 499.91,270.55Z" style="fill:none;stroke:#F15A60;stroke-width:0.625" />
<path d="M506.82,447.59A3.125,3.125 0 1 1 500.57,447.59A3.125,3.125 0 1 1 506.82,447.59Z" style="fill:none;stroke:#F15A60;stroke-width:0.625" />
<path d="M513.73,464.53A3.125,3.125 0 1 1 507.48,464.53A3.125,3.125 0 1 1 513.73,464.53Z" style="fill:none;stroke:#F15A60;stroke-width:0.625" />
<path d="M520.65,250.26A3.125,3.125 0 1 1 514.4,250.26A3.125,3.125 0 1 1 520.65,250.26Z" style="fill:none;stroke:#F15A60;stroke-width:0.625" />
<path d="M527.56,281.12A3.125,3.125 0 1 1 521.31,281.12A3.125,3.125 0 1 1 527.56,281.12Z" style="fill:none;stroke:#F15A60;stroke-width:0.625" />
<path d="M534.47,422.23A3.125,3.125 0 1 1 528.22,422.23A3.125,3.125 0 1 1 534.47,422.23Z" style="fill:none;stroke:#F15A60;stroke-width:0.625" />
<path d="M541.38,361.05A3.125,3.125 0 1 1 535.13,361.05A3.125,3.125 0 1 1 541.38,361.05Z" style="fill:none;stroke:#F15A60;stroke-width:0.625" />
<path d="M548.3,511.42A3.125,3.125 0 1 1 542.05,511.42A3.125,3.125 0 1 1 548.3,511.42Z" style="fill:none;stroke:#F15A60;stroke-width:0.625" />
<path d="M555.21,529.96A3.125,3.125 0 1 1 548.96,529.96A3.125,3.125 0 1 1 555.21,529.96Z" style="fill:none;stroke:#F15A60;stroke-width:0.625" />
<path d="M562.12,533.33A3.125,3.125 0 1 1 555.87,533.33A3.125,3.125 0 1 1 562.12,533.33Z" style="fill:none;stroke:#F15A60;stroke-width:0.625" />
<path d="M569.03,499.32A3.125,3.125 0 1 1 562.78,499.32A3.125,3.125 0 1 1 569.03,499.32Z" style="fill:none;stroke:#F15A60;stroke-width:0.625" />
<path d="M575.95,553.9A3.125,3.125 0 1 1 569.7,553.9A3.125,3.125 0 1 1 575.95,553.9Z" style="fill:none;stroke:#F15A60;stroke-width:0.625" />
<path d="M582.86,599.91A3.125,3.125 0 1 1 576.61,599.91A3.125,3.125 0 1 1 582.86,599.91Z" style="fill:none;stroke:#F15A60;stroke-width:0.625" />
<path d="M589.77,669.95A3.125,3.125 0 1 1 583.52,669.95A3.125,3.125 0 1 1 589.77,669.95Z" style="fill:none;stroke:#F15A60;stroke-width:0.625" />
<path d="M596.68,573.7A3.125,3.125 0 1 1 590.43,573.7A3.125,3.125 0 1 1 596.68,573.7Z" style="fill:none;stroke:#F15A60;stroke-width:0.625" />
<path d="M603.6,602.28A3.125,3.125 0 1 1 597.35,602.28A3.125,3.125 0 1 1 603.6,602.28Z" style="fill:none;stroke:#F15A60;stroke-width:0.625" />
<path d="M610.51,701.42L610.51,701.42A3.125,3.125 0 1 1 604.26,701.42A3.125,3.125 0 1 1 610.51,701.42Z" style="fill:none;stroke:#F15A60;stroke-width:0.625" />
<path d="M617.42,662.24A3.125,3.125 0 1 1 611.17,662.24A3.125,3.125 0 1 1 617.42,662.24Z" style="fill:none;stroke:#F15A60;stroke-width:0.625" />
<path d="M624.33,749.59A3.125,3.125 0 1 1 618.08,749.59A3.125,3.125 0 1 1 624.33,749.59Z" style="fill:none;stroke:#F15A60;stroke-width:0.625" />
<path d="M631.24,763.24A3.125,3.125 0 1 1 624.99,763.24A3.125,3.125 0 1 1 631.24,763.24Z" style="fill:none;stroke:#F15A60;stroke-width:0.625" />
<path d="M638.16,754.09A3.125,3.125 0 1 1 631.91,754.09A3.125,3.125 0 1 1 638.16,754.09Z" style="fill:none;stroke:#F15A60;stroke-width:0.625" />
<path d="M645.07,704.53A3.125,3.125 0 1 1 638.82,704.53A3.125,3.125 0 1 1 645.07,704.53Z" style="fill:none;stroke:#F15A60;stroke-width:0.625" />
<path d="M651.98,805.42A3.125,3.125 0 1 1 645.73,805.42A3.125,3.125 0 1 1 651.98,805.42Z" style="fill:none;stroke:#F15A60;stroke-width:0.625" />
<path d="M658.89,577.11A3.125,3.125 0 1 1 652.64,577.11A3.125,3.125 0 1 1 658.89,577.11Z" style="fill:none;stroke:#F15A60;stroke-width:0.625" />
<path d="M665.81,603.09A3.125,3.125 0 1 1 659.56,603.09A3.125,3.125 0 1 1 665.81,603.09Z" style="fill:none;stroke:#F15A60;stroke-width:0.625" />
<path d="M672.72,612.06L672.72,612.06A3.125,3.125 0 1 1 666.47,612.06A3.125,3.125 0 1 1 672.72,612.06Z" style="fill:none;stroke:#F15A60;stroke-width:0.625" />
<path d="M679.63,620.45L679.63,620.45A3.125,3.125 0 1 1 673.38,620.45A3.125,3.125 0 1 1 679.63,620.45Z" style="fill:none;stroke:#F15A60;stroke-width:0.625" />
<path d="M686.54,728.16A3.125,3.125 0 1 1 680.29,728.16A3.125,3.125 0 1 1 686.54,728.16Z" style="fill:none;stroke:#F15A60;stroke-width:0.625" />
<path d="M693.46,768.22A3.125,3.125 0 1 1 687.21,768.22A3.125,3.125 0 1 1 693.46,768.22Z" style="fill:none;stroke:#F15A60;stroke-width:0.625" />
<path d="M700.37,670.63A3.125,3.125 0 1 1 694.12,670.63A3.125,3.125 0 1 1 700.37,670.63Z" style="fill:none;stroke:#F15A60;stroke-width:0.625" />
<path d="M707.28,763.64A3.125,3.125 0 1 1 701.03,763.64A3.125,3.125 0 1 1 707.28,763.64Z" style="fill:none;stroke:#F15A60;stroke-width:0.625" />
<path d="M714.19,640.62A3.125,3.125 0 1 1 707.94,640.62A3.125,3.125 0 1 1 714.19,640.62Z" style="fill:none;stroke:#F15A60;stroke-width:0.625" />
<path d="M721.11,589.73A3.125,3.125 0 1 1 714.86,589.73A3.125,3.125 0 1 1 721.11,589.73Z" style="fill:none;stroke:#F15A60;stroke-width:0.625" />
<path d="M728.02,561.08L728.02,561.08A3.125,3.125 0 1 1 721.77,561.08A3.125,3.125 0 1 1 728.02,561.08Z" style="fill:none;stroke:#F15A60;stroke-width:0.625" />
<path d="M734.93,679L734.93,679A3.125,3.125 0 1 1 728.68,679A3.125,3.125 0 1 1 734.93,679Z" style="fill:none;stroke:#F15A60;stroke-width:0.625" />
<path d="M741.84,561.75A3.125,3.125 0 1 1 735.59,561.75A3.125,3.125 0 1 1 741.84,561.75Z" style="fill:none;stroke:#F15A60;stroke-width:0.625" />
<path d="M748.76,620.59L748.76,620.59A3.125,3.125 0 1 1 742.51,620.59A3.125,3.125 0 1 1 748.76,620.59Z" style="fill:none;stroke:#F15A60;stroke-width:0.625" />
<path d="M755.67,491.1L755.67,491.1A3.125,3.125 0 1 1 749.42,491.1A3.125,3.125 0 1 1 755.67,491.1Z" style="fill:none;stroke:#F15A60;stroke-width:0.625" />
<path d="M762.58,400.59L762.58,400.59A3.125,3.125 0 1 1 756.33,400.59A3.125,3.125 0 1 1 762.58,400.59Z" style="fill:none;stroke:#F15A60;stroke-width:0.625" />
<path d="M769.49,477.45A3.125,3.125 0 1 1 763.24,477.45A3.125,3.125 0 1 1 769.49,477.45Z" style="fill:none;stroke:#F15A60;stroke-width:0.625" />
<path d="M776.41,499.41L776.41,499.41A3.125,3.125 0 1 1 770.16,499.41A3.125,3.125 0 1 1 776.41,499.41Z" style="fill:none;stroke:#F15A60;stroke-width:0.625" />
<path d="M783.32,518.13A3.125,3.125 0 1 1 777.07,518.13A3.125,3.125 0 1 1 783.32,518.13Z" style="fill:none;stroke:#F15A60;stroke-width:0.625" />
<path d="M790.23,439.22L790.23,439.22A3.125,3.125 0 1 1 783.98,439.22A3.125,3.125 0 1 1 790.23,439.22Z" style="fill:none;stroke:#F15A60;stroke-width:0.625" />
<path d="M797.14,358.61A3.125,3.125 0 1 1 790.89,358.61A3.125,3.125 0 1 1 797.14,358.61Z" style="fill:none;stroke:#F15A60;stroke-width:0.625" />
<path d="M804.06,427.21L804.06,427.21A3.125,3.125 0 1 1 797.81,427.21A3.125,3.125 0 1 1 804.06,427.21Z" style="fill:none;stroke:#F15A60;stroke-width:0.625" />
<path d="M810.97,297.87A3.125,3.125 0 1 1 804.72,297.87A3.125,3.125 0 1 1 810.97,297.87Z" style="fill:none;stroke:#F15A60;stroke-width:0.625" />
<path d="M817.88,226.05L817.88,226.05A3.125,3.125 0 1 1 811.63,226.05A3.125,3.125 0 1 1 817.88,226.05Z" style="fill:none;stroke:#F15A60;stroke-width:0.625" />
<path d="M824.79,199.13L824.79,199.13A3.125,3.125 0 1 1 818.54,199.13A3.125,3.125 0 1 1 824.79,199.13Z" style="fill:none;stroke:#F15A60;stroke-width:0.625" />
<path d="M831.71,308.05A3.125,3.125 0 1 1 825.46,308.05A3.125,3.125 0 1 1 831.71,308.05Z" style="fill:none;stroke:#F15A60;stroke-width:0.625" />
<path d="M838.62,152.18A3.125,3.125 0 1 1 832.37,152.18A3.125,3.125 0 1 1 838.62,152.18Z" style="fill:none;stroke:#F15A60;stroke-width:0.625" />
<path d="M845.53,200L845.53,200A3.125,3.125 0 1 1 839.28,200A3.125,3.125 0 1 1 845.53,200Z" style="fill:none;stroke:#F15A60;stroke-width:0.625" />
<path d="M852.44,154.41A3.125,3.125 0 1 1 846.19,154.41A3.125,3.125 0 1 1 852.44,154.41Z" style="fill:none;stroke:#F15A60;stroke-width:0.625" />
<path d="M859.36,109.38L859.36,109.38A3.125,3.125 0 1 1 853.11,109.38A3.125,3.125 0 1 1 859.36,109.38Z" style="fill:none;stroke:#F15A60;stroke-width:0.625" />
<path d="M866.27,225.51L866.27,225.51A3.125,3.125 0 1 1 860.02,225.51A3.125,3.125 0 1 1 866.27,225.51Z" style="fill:none;stroke:#F15A60;stroke-width:0.625" />
<path d="M873.18,255.83A3.125,3.125 0 1 1 866.93,255.83A3.125,3.125 0 1 1 873.18,255.83Z" style="fill:none;stroke:#F15A60;stroke-width:0.625" />
<path d="M880.09,49.313L880.09,49.313A3.125,3.125 0 1 1 873.84,49.313A3.125,3.125 0 1 1 880.09,49.313Z" style="fill:none;stroke:#F15A60;stroke-width:0.625" />
<path d="M887.01,74.333L887.01,74.333A3.125,3.125 0 1 1 880.76,74.333A3.125,3.125 0 1 1 887.01,74.333Z" style="fill:none;stroke:#F15A60;stroke-width:0.625" />
<path d="M893.92,268.79L893.92,268.79A3.125,3.125 0 1 1 887.67,268.79A3.125,3.125 0 1 1 893.92,268.79Z" style="fill:none;stroke:#F15A60;stroke-width:0.625" />
<path d="M900.83,259.05A3.125,3.125 0 1 1 894.58,259.05A3.125,3.125 0 1 1 900.83,259.05Z" style="fill:none;stroke:#F15A60;stroke-width:0.625" />
<path d="M907.74,270.38A3.125,3.125 0 1 1 901.49,270.38A3.125,3.125 0 1 1 907.74,270.38Z" style="fill:none;stroke:#F15A60;stroke-width:0.625" />
<path d="M914.65,220.46L914.65,220.46A3.125,3.125 0 1 1 908.4,220.46A3.125,3.125 0 1 1 914.65,220.46Z" style="fill:none;stroke:#F15A60;stroke-width:0.625" />
<path d="M921.57,107.1L921.57,107.1A3.125,3.125 0 1 1 915.32,107.1A3.125,3.125 0 1 1 921.57,107.1Z" style="fill:none;stroke:#F15A60;stroke-width:0.625" />
<path d="M928.48,276.51L928.48,276.51A3.125,3.125 0 1 1 922.23,276.51A3.125,3.125 0 1 1 928.48,276.51Z" style="fill:none;stroke:#F15A60;stroke-width:0.625" />
<path d="M935.39,170.01L935.39,170.01A3.125,3.125 0 1 1 929.14,170.01A3.125,3.125 0 1 1 935.39,170.01Z" style="fill:none;stroke:#F15A60;stroke-width:0.625" />
<path d="M942.3,285.77A3.125,3.125 0 1 1 936.05,285.77A3.125,3.125 0 1 1 942.3,285.77Z" style="fill:none;stroke:#F15A60;stroke-width:0.625" />
<path d="M949.22,350.38L949.22,350.38A3.125,3.125 0 1 1 942.97,350.38A3.125,3.125 0 1 1 949.22,350.38Z" style="fill:none;stroke:#F15A60;stroke-width:0.625" />
<path d="M956.13,206.07L956.13,206.07A3.125,3.125 0 1 1 949.88,206.07A3.125,3.125 0 1 1 956.13,206.07Z" style="fill:none;stroke:#F15A60;stroke-width:0.625" />
<path d="M963.04,150.96L963.04,150.96A3.125,3.125 0 1 1 956.79,150.96A3.125,3.125 0 1 1 963.04,150.96Z" style="fill:none;stroke:#F15A60;stroke-width:0.625" />
<path d="M969.95,259.64A3.125,3.125 0 1 1 963.7,259.64A3.125,3.125 0 1 1 969.95,259.64Z" style="fill:none;stroke:#F15A60;stroke-width:0.625" />
<path d="M976.87,381.89L976.87,381.89A3.125,3.125 0 1 1 970.62,381.89A3.125,3.125 0 1 1 976.87,381.89Z" style="fill:none;stroke:#F15A60;stroke-width:0.625" />
<path d="M983.78,343.13L983.78,343.13A3.125,3.125 0 1 1 977.53,343.13A3.125,3.125 0 1 1 983.78,343.13Z" style="fill:none;stroke:#F15A60;stroke-width:0.625" />
<path d="M990.69,284.57L990.69,284.57A3.125,3.125 0 1 1 984.44,284.57A3.125,3.125 0 1 1 990.69,284.57Z" style="fill:none;stroke:#F15A60;stroke-width:0.625" />
<path d="M997.6,414.41L997.6,414.41A3.125,3.125 0 1 1 991.35,414.41A3.125,3.125 0 1 1 997.6,414.41Z" style="fill:none;stroke:#F15A60;stroke-width:0.625" />
<path d="M1004.5,476.7L1004.5,476.7A3.125,3.125 0 1 1 998.27,476.7A3.125,3.125 0 1 1 1004.5,476.7Z" style="fill:none;stroke:#F15A60;stroke-width:0.625" />
<path d="M1011.4,424.82L1011.4,424.82A3.125,3.125 0 1 1 1005.2,424.82A3.125,3.125 0 1 1 1011.4,424.82Z" style="fill:none;stroke:#F15A60;stroke-width:0.625" />
<path d="M1018.3,462.64L1018.3,462.64A3.125,3.125 0 1 1 1012.1,462.64A3.125,3.125 0 1 1 1018.3,462.64Z" style="fill:none;stroke:#F15A60;stroke-width:0.625" />
<path d="M1025.3,433.41A3.125,3.125 0 1 1 1019,433.41A3.125,3.125 0 1 1 1025.3,433.41Z" style="fill:none;stroke:#F15A60;stroke-width:0.625" />
<path d="M1032.2,365.13L1032.2,365.13A3.125,3.125 0 1 1 1025.9,365.13A3.125,3.125 0 1 1 1032.2,365.13Z" style="fill:none;stroke:#F15A60;stroke-width:0.625" />
<path d="M1039.1,427.16A3.125,3.125 0 1 1 1032.8,427.16A3.125,3.125 0 1 1 1039.1,427.16Z" style="fill:none;stroke:#F15A60;stroke-width:0.625" />
<path d="M1046,476.63A3.125,3.125 0 1 1 1039.7,476.63A3.125,3.125 0 1 1 1046,476.63Z" style="fill:none;stroke:#F15A60;stroke-width:0.625" />
<path d="M1052.9,618.54L1052.9,618.54A3.125,3.125 0 1 1 1046.7,618.54A3.125,3.125 0 1 1 1052.9,618.54Z" style="fill:none;stroke:#F15A60;stroke-width:0.625" />
<path d="M1059.8,483.39A3.125,3.125 0 1 1 1053.6,483.39A3.125,3.125 0 1 1 1059.8,483.39Z" style="fill:none;stroke:#F15A60;stroke-width:0.625" />
<path d="M1066.7,646.7L1066.7,646.7A3.125,3.125 0 1 1 1060.5,646.7A3.125,3.125 0 1 1 1066.7,646.7Z" style="fill:none;stroke:#F15A60;stroke-width:0.625" />
<path d="M1073.6,623.71A3.125,3.125 0 1 1 1067.4,623.71A3.125,3.125 0 1 1 1073.6,623.71Z" style="fill:none;stroke:#F15A60;stroke-width:0.625" />
<path d="M1080.6,609.78A3.125,3.125 0 1 1 1074.3,609.78A3.125,3.125 0 1 1 1080.6,609.78Z" style="fill:none;stroke:#F15A60;stroke-width:0.625" />
<path d="M1087.5,552.92A3.125,3.125 0 1 1 1081.2,552.92A3.125,3.125 0 1 1 1087.5,552.92Z" style="fill:none;stroke:#F15A60;stroke-width:0.625" />
<path d="M1094.4,769.89A3.125,3.125 0 1 1 1088.1,769.89A3.125,3.125 0 1 1 1094.4,769.89Z" style="fill:none;stroke:#F15A60;stroke-width:0.625" />
<path d="M1101.3,667.9A3.125,3.125 0 1 1 1095,667.9A3.125,3.125 0 1 1 1101.3,667.9Z" style="fill:none;stroke:#F15A60;stroke-width:0.625" />
<path d="M1108.2,716.64L1108.2,716.64A3.125,3.125 0 1 1 1102,716.64A3.125,3.125 0 1 1 1108.2,716.64Z" style="fill:none;stroke:#F15A60;stroke-width:0.625" />
<path d="M1115.1,615.42A3.125,3.125 0 1 1 1108.9,615.42A3.125,3.125 0 1 1 1115.1,615.42Z" style="fill:none;stroke:#F15A60;stroke-width:0.625" />
<path d="M1122,623.41A3.125,3.125 0 1 1 1115.8,623.41A3.125,3.125 0 1 1 1122,623.41Z" style="fill:none;stroke:#F15A60;stroke-width:0.625" />
<path d="M1128.9,753.1A3.125,3.125 0 1 1 1122.7,753.1A3.125,3.125 0 1 1 1128.9,753.1Z" style="fill:none;stroke:#F15A60;stroke-width:0.625" />
<path d="M1135.9,725.46L1135.9,725.46A3.125,3.125 0 1 1 1129.6,725.46A3.125,3.125 0 1 1 1135.9,725.46Z" style="fill:none;stroke:#F15A60;stroke-width:0.625" />
<path d="M1142.8,771.7A3.125,3.125 0 1 1 1136.5,771.7A3.125,3.125 0 1 1 1142.8,771.7Z" style="fill:none;stroke:#F15A60;stroke-width:0.625" />
<path d="M1149.7,676.96A3.125,3.125 0 1 1 1143.4,676.96A3.125,3.125 0 1 1 1149.7,676.96Z" style="fill:none;stroke:#F15A60;stroke-width:0.625" />
<path d="M1156.6,570.54A3.125,3.125 0 1 1 1150.3,570.54A3.125,3.125 0 1 1 1156.6,570.54Z" style="fill:none;stroke:#F15A60;stroke-width:0.625" />
<path d="M1163.5,745.72L1163.5,745.72A3.125,3.125 0 1 1 1157.3,745.72A3.125,3.125 0 1 1 1163.5,745.72Z" style="fill:none;stroke:#F15A60;stroke-width:0.625" />
<path d="M1170.4,618.83A3.125,3.125 0 1 1 1164.2,618.83A3.125,3.125 0 1 1 1170.4,618.83Z" style="fill:none;stroke:#F15A60;stroke-width:0.625" />
<path d="M1177.3,569.95A3.125,3.125 0 1 1 1171.1,569.95A3.125,3.125 0 1 1 1177.3,569.95Z" style="fill:none;stroke:#F15A60;stroke-width:0.625" />
<path d="M1184.2,681.77L1184.2,681.77A3.125,3.125 0 1 1 1178,681.77A3.125,3.125 0 1 1 1184.2,681.77Z" style="fill:none;stroke:#F15A60;stroke-width:0.625" />
<path d="M1191.2,538.79L1191.2,538.79A3.125,3.125 0 1 1 1184.9,538.79A3.125,3.125 0 1 1 1191.2,538.79Z" style="fill:none;stroke:#F15A60;stroke-width:0.625" />
<path d="M1198.1,597.95L1198.1,597.95A3.125,3.125 0 1 1 1191.8,597.95A3.125,3.125 0 1 1 1198.1,597.95Z" style="fill:none;stroke:#F15A60;stroke-width:0.625" />
<path d="M1205,520.39A3.125,3.125 0 1 1 1198.7,520.39A3.125,3.125 0 1 1 1205,520.39Z" style="fill:none;stroke:#F15A60;stroke-width:0.625" />
<path d="M1211.9,451.96A3.125,3.125 0 1 1 1205.6,451.96A3.125,3.125 0 1 1 1211.9,451.96Z" style="fill:none;stroke:#F15A60;stroke-width:0.625" />
<path d="M1218.8,491.58A3.125,3.125 0 1 1 1212.6,491.58A3.125,3.125 0 1 1 1218.8,491.58Z" style="fill:none;stroke:#F15A60;stroke-width:0.625" />
<path d="M1225.7,512.81A3.125,3.125 0 1 1 1219.5,512.81A3.125,3.125 0 1 1 1225.7,512.81Z" style="fill:none;stroke:#F15A60;stroke-width:0.625" />
<path d="M1232.6,567.22A3.125,3.125 0 1 1 1226.4,567.22A3.125,3.125 0 1 1 1232.6,567.22Z" style="fill:none;stroke:#F15A60;stroke-width:0.625" />
<path d="M1239.5,400.67A3.125,3.125 0 1 1 1233.3,400.67A3.125,3.125 0 1 1 1239.5,400.67Z" style="fill:none;stroke:#F15A60;stroke-width:0.625" />
<path d="M1246.5,482.11A3.125,3.125 0 1 1 1240.2,482.11A3.125,3.125 0 1 1 1246.5,482.11Z" style="fill:none;stroke:#F15A60;stroke-width:0.625" />
<path d="M1253.4,387.42A3.125,3.125 0 1 1 1247.1,387.42A3.125,3.125 0 1 1 1253.4,387.42Z" style="fill:none;stroke:#F15A60;stroke-width:0.625" />
<path d="M1260.3,537.94L1260.3,537.94A3.125,3.125 0 1 1 1254,537.94A3.125,3.125 0 1 1 1260.3,537.94Z" style="fill:none;stroke:#F15A60;stroke-width:0.625" />
<path d="M1267.2,459.6L1267.2,459.6A3.125,3.125 0 1 1 1260.9,459.6A3.125,3.125 0 1 1 1267.2,459.6Z" style="fill:none;stroke:#F15A60;stroke-width:0.625" />
<path d="M1274.1,454.05L1274.1,454.05A3.125,3.125 0 1 1 1267.9,454.05A3.125,3.125 0 1 1 1274.1,454.05Z" style="fill:none;stroke:#F15A60;stroke-width:0.625" />
<path d="M1281,455.15A3.125,3.125 0 1 1 1274.8,455.15A3.125,3.125 0 1 1 1281,455.15Z" style="fill:none;stroke:#F15A60;stroke-width:0.625" />
<path d="M1287.9,357.73A3.125,3.125 0 1 1 1281.7,357.73A3.125,3.125 0 1 1 1287.9,357.73Z" style="fill:none;stroke:#F15A60;stroke-width:0.625" />
<path d="M1294.8,418.71L1294.8,418.71A3.125,3.125 0 1 1 1288.6,418.71A3.125,3.125 0 1 1 1294.8,418.71Z" style="fill:none;stroke:#F15A60;stroke-width:0.625" />
<path d="M1301.8,160.7A3.125,3.125 0 1 1 1295.5,160.7A3.125,3.125 0 1 1 1301.8,160.7Z" style="fill:none;stroke:#F15A60;stroke-width:0.625" />
<path d="M1308.7,374.81A3.125,3.125 0 1 1 1302.4,374.81A3.125,3.125 0 1 1 1308.7,374.81Z" style="fill:none;stroke:#F15A60;stroke-width:0.625" />
<path d="M1315.6,178.58L1315.6,178.58A3.125,3.125 0 1 1 1309.3,178.58A3.125,3.125 0 1 1 1315.6,178.58Z" style="fill:none;stroke:#F15A60;stroke-width:0.625" />
<path d="M1322.5,143.39L1322.5,143.39A3.125,3.125 0 1 1 1316.2,143.39A3.125,3.125 0 1 1 1322.5,143.39Z" style="fill:none;stroke:#F15A60;stroke-width:0.625" />
<path d="M1329.4,292.22A3.125,3.125 0 1 1 1323.2,292.22A3.125,3.125 0 1 1 1329.4,292.22Z" style="fill:none;stroke:#F15A60;stroke-width:0.625" />
<path d="M1336.3,231.97A3.125,3.125 0 1 1 1330.1,231.97A3.125,3.125 0 1 1 1336.3,231.97Z" style="fill:none;stroke:#F15A60;stroke-width:0.625" />
<path d="M1343.2,98.353L1343.2,98.353A3.125,3.125 0 1 1 1337,98.353A3.125,3.125 0 1 1 1343.2,98.353Z" style="fill:none;stroke:#F15A60;stroke-width:0.625" />
<path d="M1350.1,110.58A3.125,3.125 0 1 1 1343.9,110.58A3.125,3.125 0 1 1 1350.1,110.58Z" style="fill:none;stroke:#F15A60;stroke-width:0.625" />
<path d="M1357.1,197.25A3.125,3.125 0 1 1 1350.8,197.25A3.125,3.125 0 1 1 1357.1,197.25Z" style="fill:none;stroke:#F15A60;stroke-width:0.625" />
<path d="M1364,54.651L1364,54.651A3.125,3.125 0 1 1 1357.7,54.651A3.125,3.125 0 1 1 1364,54.651Z" style="fill:none;stroke:#F15A60;stroke-width:0.625" />
<path d="M1370.9,106.12A3.125,3.125 0 1 1 1364.6,106.12A3.125,3.125 0 1 1 1370.9,106.12Z" style="fill:none;stroke:#F15A60;stroke-width:0.625" />
<path d="M1377.8,214.25A3.125,3.125 0 1 1 1371.5,214.25A3.125,3.125 0 1 1 1377.8,214.25Z" style="fill:none;stroke:#F15A60;stroke-width:0.625" />
<path d="M1384.7,284.55A3.125,3.125 0 1 1 1378.5,284.55A3.125,3.125 0 1 1 1384.7,284.55Z" style="fill:none;stroke:#F15A60;stroke-width:0.625" />
<path d="M1391.6,225.01A3.125,3.125 0 1 1 1385.4,225.01A3.125,3.125 0 1 1 1391.6,225.01Z" style="fill:none;stroke:#F15A60;stroke-width:0.625" />
<path d="M1398.5,286.17L1398.5,286.17A3.125,3.125 0 1 1 1392.3,286.17A3.125,3.125 0 1 1 1398.5,286.17Z" style="fill:none;stroke:#F15A60;stroke-width:0.625" />
<path d="M1405.4,160.23L1405.4,160.23A3.125,3.125 0 1 1 1399.2,160.23A3.125,3.125 0 1 1 1405.4,160.23Z" style="fill:none;stroke:#F15A60;stroke-width:0.625" />
<path d="M1412.4,119.63A3.125,3.125 0 1 1 1406.1,119.63A3.125,3.125 0 1 1 1412.4,119.63Z" style="fill:none;stroke:#F15A60;stroke-width:0.625" />
<path d="M1419.3,112.11A3.125,3.125 0 1 1 1413,112.11A3.125,3.125 0 1 1 1419.3,112.11Z" style="fill:none;stroke:#F15A60;stroke-width:0.625" />
<path d="M1426.2,139.55L1426.2,139.55A3.125,3.125 0 1 1 1419.9,139.55A3.125,3.125 0 1 1 1426.2,139.55Z" style="fill:none;stroke:#F15A60;stroke-width:0.625" />
<path d="M1433.1,127.53A3.125,3.125 0 1 1 1426.8,127.53A3.125,3.125 0 1 1 1433.1,127.53Z" style="fill:none;stroke:#F15A60;stroke-width:0.625" />
<path d="M1440,291.03A3.125,3.125 0 1 1 1433.8,291.03A3.125,3.125 0 1 1 1440,291.03Z" style="fill:none;stroke:#F15A60;stroke-width:0.625" />
<path d="M61.3,531.56L68.212,537.82L75.125,554.94L82.037,582.27L88.95,603.71L95.862,597.9L102.77,605.26L109.69,634.14L116.6,637.42L123.51,643.23L130.42,661.18L137.34,665.39L144.25,676.73L151.16,674.54L158.07,669.22L164.99,669.36L171.9,670.55L178.81,659.53L185.72,652.13L192.64,629.85L199.55,603.27L206.46,599.71L213.37,589.02L220.29,557.4L227.2,544.87L234.11,517.29L241.02,499.91L247.94,472.07L254.85,432.24L261.76,424.81L268.67,422.21L275.59,398.05L282.5,355.84L289.41,354.07L296.32,345.48L303.24,334.79L310.15,296.8L317.06,275.74L323.97,271.91L330.89,255.82L337.8,227.08L344.71,219.81L351.62,215.05L358.53,184.48L365.45,174.98L372.36,159.53L379.27,177.51L386.18,170.89L393.1,178.25L400.01,179.51L406.92,200.02L413.83,188.67L420.75,198.49L427.66,214.27L434.57,215.29L441.48,255.01L448.4,275.05L455.31,285.91L462.22,283.11L469.13,303.13L476.05,306.55L482.96,344.43L489.87,376.72L496.78,407.2L503.7,430.08L510.61,440.71L517.52,454.25L524.43,496.22L531.35,525.48L538.26,543.48L545.17,577.52L552.08,592.6L559,614.56L565.91,637.56L572.82,663.03L579.73,678.1L586.65,698.65L593.56,689.36L600.47,692.3L607.38,693.28L614.29,685.18L621.21,691.77L628.12,693.64L635.03,684.38L641.94,685.33L648.86,678.94L655.77,657.37L662.68,655.77L669.59,663.36L676.51,658.33L683.42,658.34L690.33,634.64L697.24,597.87L704.16,578.56L711.07,552.13L717.98,539.89L724.89,524.83L731.81,504.59L738.72,479.41L745.63,453.02L752.54,413.56L759.46,384.37L766.37,375.11L773.28,342.59L780.19,312.64L787.11,276.27L794.02,243.29L800.93,229.98L807.84,212.84L814.76,187.98L821.67,172.81L828.58,179.78L835.49,174.88L842.41,186.7L849.32,188.75L856.23,184.01L863.14,200.73L870.06,195.18L876.97,198.17L883.88,228.28L890.79,241.45L897.7,229.67L904.62,229.73L911.53,240.88L918.44,253.15L925.35,270.89L932.27,284.68L939.18,315.35L946.09,329.26L953,340.49L959.92,363.22L966.83,384.64L973.74,401.39L980.65,410.86L987.57,438.4L994.48,458.29L1001.4,481.51L1008.3,496.21L1015.2,514.71L1022.1,523.74L1029,557.39L1036,587.66L1042.9,616.61L1049.8,630.49L1056.7,630.98L1063.6,657.95L1070.5,665.83L1077.4,680.62L1084.3,687.34L1091.3,689.1L1098.2,686.69L1105.1,681.78L1112,667.11L1118.9,673.75L1125.8,665.28L1132.7,649.77L1139.6,629.26L1146.6,597.29L1153.5,578.75L1160.4,572.98L1167.3,555.13L1174.2,533.31L1181.1,524.52L1188,495.09L1194.9,495.01L1201.9,481.17L1208.8,474.54L1215.7,474.85L1222.6,461.47L1229.5,452.06L1236.4,411.41L1243.3,408.82L1250.2,378.47L1257.2,354.07L1264.1,329.49L1271,306.73L1277.9,271.16L1284.8,236.7L1291.7,220.66L1298.6,184.25L1305.5,178.79L1312.5,162.74L1319.4,173.34L1326.3,181.5L1333.2,180.89L1340.1,173.72L1347,175.85L1353.9,176L1360.8,170.23L1367.8,177.52L1374.7,196.01L1381.6,193.98L1388.5,182.66L1395.4,176.61L1402.3,158.35L1409.2,157.97L1416.1,167.55L1423.1,186.04L1430,209.28L1436.9,291.03" style="fill:none;stroke:#7AC36A;stroke-width:1.25;stroke-dasharray:7.5,2.5" />
<path d="M58.633,528.89L63.967,528.89L63.967,534.23L58.633,534.23Z" style="fill:none;stroke:#7AC36A;stroke-width:0.625" />
<path d="M65.545,535.15L70.88,535.15L70.88,540.48L65.545,540.48Z" style="fill:none;stroke:#7AC36A;stroke-width:0.625" />
<path d="M72.458,552.28L77.792,552.28L77.792,557.61L72.458,557.61Z" style="fill:none;stroke:#7AC36A;stroke-width:0.625" />
<path d="M79.37,579.6L84.705,579.6L84.705,584.93L79.37,584.93Z" style="fill:none;stroke:#7AC36A;stroke-width:0.625" />
<path d="M86.282,601.04L91.617,601.04L91.617,606.37L86.282,606.37Z" style="fill:none;stroke:#7AC36A;stroke-width:0.625" />
<path d="M93.195,595.23L98.53,595.23L98.53,600.57L93.195,600.57Z" style="fill:none;stroke:#7AC36A;stroke-width:0.625" />
<path d="M100.11,602.59L105.44,602.59L105.44,607.93L100.11,607.93Z" style="fill:none;stroke:#7AC36A;stroke-width:0.625" />
<path d="M107.02,631.47L112.35,631.47L112.35,636.8L107.02,636.8Z" style="fill:none;stroke:#7AC36A;stroke-width:0.625" />
<path d="M113.93,634.75L119.27,634.75L119.27,640.09L113.93,640.09Z" style="fill:none;stroke:#7AC36A;stroke-width:0.625" />
<path d="M120.84,640.56L126.18,640.56L126.18,645.89L120.84,645.89Z" style="fill:none;stroke:#7AC36A;stroke-width:0.625" />
<path d="M127.76,658.52L133.09,658.52L133.09,663.85L127.76,663.85Z" style="fill:none;stroke:#7AC36A;stroke-width:0.625" />
<path d="M134.67,662.73L140,662.73L140,668.06L134.67,668.06Z" style="fill:none;stroke:#7AC36A;stroke-width:0.625" />
<path d="M141.58,674.06L146.92,674.06L146.92,679.4L141.58,679.4Z" style="fill:none;stroke:#7AC36A;stroke-width:0.625" />
<path d="M148.49,671.88L153.83,671.88L153.83,677.21L148.49,677.21Z" style="fill:none;stroke:#7AC36A;stroke-width:0.625" />
<path d="M155.41,666.55L160.74,666.55L160.74,671.89L155.41,671.89Z" style="fill:none;stroke:#7AC36A;stroke-width:0.625" />
<path d="M162.32,666.7L167.65,666.7L167.65,672.03L162.32,672.03Z" style="fill:none;stroke:#7AC36A;stroke-width:0.625" />
<path d="M169.23,667.88L174.57,667.88L174.57,673.22L169.23,673.22Z" style="fill:none;stroke:#7AC36A;stroke-width:0.625" />
<path d="M176.14,656.86L181.48,656.86L181.48,662.2L176.14,662.2Z" style="fill:none;stroke:#7AC36A;stroke-width:0.625" />
<path d="M183.06,649.46L188.39,649.46L188.39,654.8L183.06,654.8Z" style="fill:none;stroke:#7AC36A;stroke-width:0.625" />
<path d="M189.97,627.19L195.3,627.19L195.3,632.52L189.97,632.52Z" style="fill:none;stroke:#7AC36A;stroke-width:0.625" />
<path d="M196.88,600.6L202.22,600.6L202.22,605.94L196.88,605.94Z" style="fill:none;stroke:#7AC36A;stroke-width:0.625" />
<path d="M203.79,597.04L209.13,597.04L209.13,602.38L203.79,602.38Z" style="fill:none;stroke:#7AC36A;stroke-width:0.625" />
<path d="M210.71,586.36L216.04,586.36L216.04,591.69L210.71,591.69Z" style="fill:none;stroke:#7AC36A;stroke-width:0.625" />
<path d="M217.62,554.74L222.95,554.74L222.95,560.07L217.62,560.07Z" style="fill:none;stroke:#7AC36A;stroke-width:0.625" />
<path d="M224.53,542.2L229.87,542.2L229.87,547.53L224.53,547.53Z" style="fill:none;stroke:#7AC36A;stroke-width:0.625" />
<path d="M231.44,514.62L236.78,514.62L236.78,519.96L231.44,519.96Z" style="fill:none;stroke:#7AC36A;stroke-width:0.625" />
<path d="M238.36,497.24L243.69,497.24L243.69,502.57L238.36,502.57Z" style="fill:none;stroke:#7AC36A;stroke-width:0.625" />
<path d="M245.27,469.41L250.6,469.41L250.6,474.74L245.27,474.74Z" style="fill:none;stroke:#7AC36A;stroke-width:0.625" />
<path d="M252.18,429.57L257.52,429.57L257.52,434.91L252.18,434.91Z" style="fill:none;stroke:#7AC36A;stroke-width:0.625" />
<path d="M259.09,422.14L264.43,422.14L264.43,427.48L259.09,427.48Z" style="fill:none;stroke:#7AC36A;stroke-width:0.625" />
<path d="M266.01,419.55L271.34,419.55L271.34,424.88L266.01,424.88Z" style="fill:none;stroke:#7AC36A;stroke-width:0.625" />
<path d="M272.92,395.39L278.25,395.39L278.25,400.72L272.92,400.72Z" style="fill:none;stroke:#7AC36A;stroke-width:0.625" />
<path d="M279.83,353.17L285.17,353.17L285.17,358.5L279.83,358.5Z" style="fill:none;stroke:#7AC36A;stroke-width:0.625" />
<path d="M286.74,351.4L292.08,351.4L292.08,356.74L286.74,356.74Z" style="fill:none;stroke:#7AC36A;stroke-width:0.625" />
<path d="M293.66,342.81L298.99,342.81L298.99,348.15L293.66,348.15Z" style="fill:none;stroke:#7AC36A;stroke-width:0.625" />
<path d="M300.57,332.13L305.9,332.13L305.9,337.46L300.57,337.46Z" style="fill:none;stroke:#7AC36A;stroke-width:0.625" />
<path d="M307.48,294.13L312.82,294.13L312.82,299.47L307.48,299.47Z" style="fill:none;stroke:#7AC36A;stroke-width:0.625" />
<path d="M314.39,273.07L319.73,273.07L319.73,278.41L314.39,278.41Z" style="fill:none;stroke:#7AC36A;stroke-width:0.625" />
<path d="M321.31,269.24L326.64,269.24L326.64,274.58L321.31,274.58Z" style="fill:none;stroke:#7AC36A;stroke-width:0.625" />
<path d="M328.22,253.15L333.55,253.15L333.55,258.49L328.22,258.49Z" style="fill:none;stroke:#7AC36A;stroke-width:0.625" />
<path d="M335.13,224.41L340.46,224.41L340.46,229.74L335.13,229.74Z" style="fill:none;stroke:#7AC36A;stroke-width:0.625" />
<path d="M342.04,217.14L347.38,217.14L347.38,222.47L342.04,222.47Z" style="fill:none;stroke:#7AC36A;stroke-width:0.625" />
<path d="M348.96,212.38L354.29,212.38L354.29,217.72L348.96,217.72Z" style="fill:none;stroke:#7AC36A;stroke-width:0.625" />
<path d="M355.87,181.81L361.2,181.81L361.2,187.15L355.87,187.15Z" style="fill:none;stroke:#7AC36A;stroke-width:0.625" />
<path d="M362.78,172.32L368.11,172.32L368.11,177.65L362.78,177.65Z" style="fill:none;stroke:#7AC36A;stroke-width:0.625" />
<path d="M369.69,156.87L375.03,156.87L375.03,162.2L369.69,162.2Z" style="fill:none;stroke:#7AC36A;stroke-width:0.625" />
<path d="M376.6,174.84L381.94,174.84L381.94,180.17L376.6,180.17Z" style="fill:none;stroke:#7AC36A;stroke-width:0.625" />
<path d="M383.52,168.22L388.85,168.22L388.85,173.56L383.52,173.56Z" style="fill:none;stroke:#7AC36A;stroke-width:0.625" />
<path d="M390.43,175.58L395.76,175.58L395.76,180.92L390.43,180.92Z" style="fill:none;stroke:#7AC36A;stroke-width:0.625" />
<path d="M397.34,176.84L402.68,176.84L402.68,182.17L397.34,182.17Z" style="fill:none;stroke:#7AC36A;stroke-width:0.625" />
<path d="M404.25,197.35L409.59,197.35L409.59,202.69L404.25,202.69Z" style="fill:none;stroke:#7AC36A;stroke-width:0.625" />
<path d="M411.17,186L416.5,186L416.5,191.34L411.17,191.34Z" style="fill:none;stroke:#7AC36A;stroke-width:0.625" />
<path d="M418.08,195.82L423.41,195.82L423.41,201.15L418.08,201.15Z" style="fill:none;stroke:#7AC36A;stroke-width:0.625" />
<path d="M424.99,211.6L430.33,211.6L430.33,216.94L424.99,216.94Z" style="fill:none;stroke:#7AC36A;stroke-width:0.625" />
<path d="M431.9,212.63L437.24,212.63L437.24,217.96L431.9,217.96Z" style="fill:none;stroke:#7AC36A;stroke-width:0.625" />
<path d="M438.82,252.34L444.15,252.34L444.15,257.68L438.82,257.68Z" style="fill:none;stroke:#7AC36A;stroke-width:0.625" />
<path d="M445.73,272.38L451.06,272.38L451.06,277.71L445.73,277.71Z" style="fill:none;stroke:#7AC36A;stroke-width:0.625" />
<path d="M452.64,283.25L457.98,283.25L457.98,288.58L452.64,288.58Z" style="fill:none;stroke:#7AC36A;stroke-width:0.625" />
<path d="M459.55,280.44L464.89,280.44L464.89,285.78L459.55,285.78Z" style="fill:none;stroke:#7AC36A;stroke-width:0.625" />
<path d="M466.47,300.46L471.8,300.46L471.8,305.79L466.47,305.79Z" style="fill:none;stroke:#7AC36A;stroke-width:0.625" />
<path d="M473.38,303.88L478.71,303.88L478.71,309.22L473.38,309.22Z" style="fill:none;stroke:#7AC36A;stroke-width:0.625" />
<path d="M480.29,341.76L485.63,341.76L485.63,347.1L480.29,347.1Z" style="fill:none;stroke:#7AC36A;stroke-width:0.625" />
<path d="M487.2,374.05L492.54,374.05L492.54,379.38L487.2,379.38Z" style="fill:none;stroke:#7AC36A;stroke-width:0.625" />
<path d="M494.12,404.54L499.45,404.54L499.45,409.87L494.12,409.87Z" style="fill:none;stroke:#7AC36A;stroke-width:0.625" />
<path d="M501.03,427.41L506.36,427.41L506.36,432.75L501.03,432.75Z" style="fill:none;stroke:#7AC36A;stroke-width:0.625" />
<path d="M507.94,438.05L513.28,438.05L513.28,443.38L507.94,443.38Z" style="fill:none;stroke:#7AC36A;stroke-width:0.625" />
<path d="M514.85,451.58L520.19,451.58L520.19,456.92L514.85,456.92Z" style="fill:none;stroke:#7AC36A;stroke-width:0.625" />
<path d="M521.77,493.55L527.1,493.55L527.1,498.89L521.77,498.89Z" style="fill:none;stroke:#7AC36A;stroke-width:0.625" />
<path d="M528.68,522.81L534.01,522.81L534.01,528.14L528.68,528.14Z" style="fill:none;stroke:#7AC36A;stroke-width:0.625" />
<path d="M535.59,540.82L540.93,540.82L540.93,546.15L535.59,546.15Z" style="fill:none;stroke:#7AC36A;stroke-width:0.625" />
<path d="M542.5,574.85L547.84,574.85L547.84,580.19L542.5,580.19Z" style="fill:none;stroke:#7AC36A;stroke-width:0.625" />
<path d="M549.42,589.93L554.75,589.93L554.75,595.27L549.42,595.27Z" style="fill:none;stroke:#7AC36A;stroke-width:0.625" />
<path d="M556.33,611.9L561.66,611.9L561.66,617.23L556.33,617.23Z" style="fill:none;stroke:#7AC36A;stroke-width:0.625" />
<path d="M563.24,634.89L568.58,634.89L568.58,640.22L563.24,640.22Z" style="fill:none;stroke:#7AC36A;stroke-width:0.625" />
<path d="M570.15,660.37L575.49,660.37L575.49,665.7L570.15,665.7Z" style="fill:none;stroke:#7AC36A;stroke-width:0.625" />
<path d="M577.07,675.43L582.4,675.43L582.4,680.76L577.07,680.76Z" style="fill:none;stroke:#7AC36A;stroke-width:0.625" />
<path d="M583.98,695.98L589.31,695.98L589.31,701.31L583.98,701.31Z" style="fill:none;stroke:#7AC36A;stroke-width:0.625" />
<path d="M590.89,686.69L596.23,686.69L596.23,692.03L590.89,692.03Z" style="fill:none;stroke:#7AC36A;stroke-width:0.625" />
<path d="M597.8,689.63L603.14,689.63L603.14,694.97L597.8,694.97Z" style="fill:none;stroke:#7AC36A;stroke-width:0.625" />
<path d="M604.72,690.61L610.05,690.61L610.05,695.95L604.72,695.95Z" style="fill:none;stroke:#7AC36A;stroke-width:0.625" />
<path d="M611.63,682.51L616.96,682.51L616.96,687.85L611.63,687.85Z" style="fill:none;stroke:#7AC36A;stroke-width:0.625" />
<path d="M618.54,689.11L623.87,689.11L623.87,694.44L618.54,694.44Z" style="fill:none;stroke:#7AC36A;stroke-width:0.625" />
<path d="M625.45,690.97L630.79,690.97L630.79,696.31L625.45,696.31Z" style="fill:none;stroke:#7AC36A;stroke-width:0.625" />
<path d="M632.36,681.71L637.7,681.71L637.7,687.04L632.36,687.04Z" style="fill:none;stroke:#7AC36A;stroke-width:0.625" />
<path d="M639.28,682.66L644.61,682.66L644.61,688L639.28,688Z" style="fill:none;stroke:#7AC36A;stroke-width:0.625" />
<path d="M646.19,676.27L651.52,676.27L651.52,681.61L646.19,681.61Z" style="fill:none;stroke:#7AC36A;stroke-width:0.625" />
<path d="M653.1,654.7L658.44,654.7L658.44,660.04L653.1,660.04Z" style="fill:none;stroke:#7AC36A;stroke-width:0.625" />
<path d="M660.01,653.1L665.35,653.1L665.35,658.44L660.01,658.44Z" style="fill:none;stroke:#7AC36A;stroke-width:0.625" />
<path d="M666.93,660.69L672.26,660.69L672.26,666.03L666.93,666.03Z" style="fill:none;stroke:#7AC36A;stroke-width:0.625" />
<path d="M673.84,655.66L679.17,655.66L679.17,661L673.84,661Z" style="fill:none;stroke:#7AC36A;stroke-width:0.625" />
<path d="M680.75,655.68L686.09,655.68L686.09,661.01L680.75,661.01Z" style="fill:none;stroke:#7AC36A;stroke-width:0.625" />
<path d="M687.66,631.97L693,631.97L693,637.31L687.66,637.31Z" style="fill:none;stroke:#7AC36A;stroke-width:0.625" />
<path d="M694.58,595.21L699.91,595.21L699.91,600.54L694.58,600.54Z" style="fill:none;stroke:#7AC36A;stroke-width:0.625" />
<path d="M701.49,575.89L706.82,575.89L706.82,581.22L701.49,581.22Z" style="fill:none;stroke:#7AC36A;stroke-width:0.625" />
<path d="M708.4,549.47L713.74,549.47L713.74,554.8L708.4,554.8Z" style="fill:none;stroke:#7AC36A;stroke-width:0.625" />
<path d="M715.31,537.22L720.65,537.22L720.65,542.55L715.31,542.55Z" style="fill:none;stroke:#7AC36A;stroke-width:0.625" />
<path d="M722.23,522.17L727.56,522.17L727.56,527.5L722.23,527.5Z" style="fill:none;stroke:#7AC36A;stroke-width:0.625" />
<path d="M729.14,501.92L734.47,501.92L734.47,507.25L729.14,507.25Z" style="fill:none;stroke:#7AC36A;stroke-width:0.625" />
<path d="M736.05,476.74L741.39,476.74L741.39,482.08L736.05,482.08Z" style="fill:none;stroke:#7AC36A;stroke-width:0.625" />
<path d="M742.96,450.35L748.3,450.35L748.3,455.69L742.96,455.69Z" style="fill:none;stroke:#7AC36A;stroke-width:0.625" />
<path d="M749.88,410.9L755.21,410.9L755.21,416.23L749.88,416.23Z" style="fill:none;stroke:#7AC36A;stroke-width:0.625" />
<path d="M756.79,381.7L762.12,381.7L762.12,387.03L756.79,387.03Z" style="fill:none;stroke:#7AC36A;stroke-width:0.625" />
<path d="M763.7,372.45L769.04,372.45L769.04,377.78L763.7,377.78Z" style="fill:none;stroke:#7AC36A;stroke-width:0.625" />
<path d="M770.61,339.92L775.95,339.92L775.95,345.25L770.61,345.25Z" style="fill:none;stroke:#7AC36A;stroke-width:0.625" />
<path d="M777.53,309.98L782.86,309.98L782.86,315.31L777.53,315.31Z" style="fill:none;stroke:#7AC36A;stroke-width:0.625" />
<path d="M784.44,273.61L789.77,273.61L789.77,278.94L784.44,278.94Z" style="fill:none;stroke:#7AC36A;stroke-width:0.625" />
<path d="M791.35,240.62L796.69,240.62L796.69,245.96L791.35,245.96Z" style="fill:none;stroke:#7AC36A;stroke-width:0.625" />
<path d="M798.26,227.31L803.6,227.31L803.6,232.65L798.26,232.65Z" style="fill:none;stroke:#7AC36A;stroke-width:0.625" />
<path d="M805.18,210.17L810.51,210.17L810.51,215.51L805.18,215.51Z" style="fill:none;stroke:#7AC36A;stroke-width:0.625" />
<path d="M812.09,185.32L817.42,185.32L817.42,190.65L812.09,190.65Z" style="fill:none;stroke:#7AC36A;stroke-width:0.625" />
<path d="M819,170.15L824.34,170.15L824.34,175.48L819,175.48Z" style="fill:none;stroke:#7AC36A;stroke-width:0.625" />
<path d="M825.91,177.11L831.25,177.11L831.25,182.45L825.91,182.45Z" style="fill:none;stroke:#7AC36A;stroke-width:0.625" />
<path d="M832.83,172.21L838.16,172.21L838.16,177.55L832.83,177.55Z" style="fill:none;stroke:#7AC36A;stroke-width:0.625" />
<path d="M839.74,184.03L845.07,184.03L845.07,189.37L839.74,189.37Z" style="fill:none;stroke:#7AC36A;stroke-width:0.625" />
<path d="M846.65,186.08L851.99,186.08L851.99,191.41L846.65,191.41Z" style="fill:none;stroke:#7AC36A;stroke-width:0.625" />
<path d="M853.56,181.35L858.9,181.35L858.9,186.68L853.56,186.68Z" style="fill:none;stroke:#7AC36A;stroke-width:0.625" />
<path d="M860.48,198.06L865.81,198.06L865.81,203.4L860.48,203.4Z" style="fill:none;stroke:#7AC36A;stroke-width:0.625" />
<path d="M867.39,192.51L872.72,192.51L872.72,197.85L867.39,197.85Z" style="fill:none;stroke:#7AC36A;stroke-width:0.625" />
<path d="M874.3,195.5L879.63,195.5L879.63,200.84L874.3,200.84Z" style="fill:none;stroke:#7AC36A;stroke-width:0.625" />
<path d="M881.21,225.61L886.55,225.61L886.55,230.95L881.21,230.95Z" style="fill:none;stroke:#7AC36A;stroke-width:0.625" />
<path d="M888.13,238.79L893.46,238.79L893.46,244.12L888.13,244.12Z" style="fill:none;stroke:#7AC36A;stroke-width:0.625" />
<path d="M895.04,227L900.37,227L900.37,232.34L895.04,232.34Z" style="fill:none;stroke:#7AC36A;stroke-width:0.625" />
<path d="M901.95,227.06L907.28,227.06L907.28,232.39L901.95,232.39Z" style="fill:none;stroke:#7AC36A;stroke-width:0.625" />
<path d="M908.86,238.21L914.2,238.21L914.2,243.55L908.86,243.55Z" style="fill:none;stroke:#7AC36A;stroke-width:0.625" />
<path d="M915.77,250.48L921.11,250.48L921.11,255.81L915.77,255.81Z" style="fill:none;stroke:#7AC36A;stroke-width:0.625" />
<path d="M922.69,268.23L928.02,268.23L928.02,273.56L922.69,273.56Z" style="fill:none;stroke:#7AC36A;stroke-width:0.625" />
<path d="M929.6,282.02L934.93,282.02L934.93,287.35L929.6,287.35Z" style="fill:none;stroke:#7AC36A;stroke-width:0.625" />
<path d="M936.51,312.69L941.85,312.69L941.85,318.02L936.51,318.02Z" style="fill:none;stroke:#7AC36A;stroke-width:0.625" />
<path d="M943.42,326.59L948.76,326.59L948.76,331.93L943.42,331.93Z" style="fill:none;stroke:#7AC36A;stroke-width:0.625" />
<path d="M950.34,337.82L955.67,337.82L955.67,343.15L950.34,343.15Z" style="fill:none;stroke:#7AC36A;stroke-width:0.625" />
<path d="M957.25,360.55L962.58,360.55L962.58,365.89L957.25,365.89Z" style="fill:none;stroke:#7AC36A;stroke-width:0.625" />
<path d="M964.16,381.97L969.5,381.97L969.5,387.3L964.16,387.3Z" style="fill:none;stroke:#7AC36A;stroke-width:0.625" />
<path d="M971.07,398.72L976.41,398.72L976.41,404.06L971.07,404.06Z" style="fill:none;stroke:#7AC36A;stroke-width:0.625" />
<path d="M977.99,408.2L983.32,408.2L983.32,413.53L977.99,413.53Z" style="fill:none;stroke:#7AC36A;stroke-width:0.625" />
<path d="M984.9,435.74L990.23,435.74L990.23,441.07L984.9,441.07Z" style="fill:none;stroke:#7AC36A;stroke-width:0.625" />
<path d="M991.81,455.62L997.15,455.62L997.15,460.95L991.81,460.95Z" style="fill:none;stroke:#7AC36A;stroke-width:0.625" />
<path d="M998.72,478.85L1004.1,478.85L1004.1,484.18L998.72,484.18Z" style="fill:none;stroke:#7AC36A;stroke-width:0.625" />
<path d="M1005.6,493.55L1011,493.55L1011,498.88L1005.6,498.88Z" style="fill:none;stroke:#7AC36A;stroke-width:0.625" />
<path d="M1012.5,512.04L1017.9,512.04L1017.9,517.38L1012.5,517.38Z" style="fill:none;stroke:#7AC36A;stroke-width:0.625" />
<path d="M1019.5,521.07L1024.8,521.07L1024.8,526.41L1019.5,526.41Z" style="fill:none;stroke:#7AC36A;stroke-width:0.625" />
<path d="M1026.4,554.72L1031.7,554.72L1031.7,560.05L1026.4,560.05Z" style="fill:none;stroke:#7AC36A;stroke-width:0.625" />
<path d="M1033.3,585L1038.6,585L1038.6,590.33L1033.3,590.33Z" style="fill:none;stroke:#7AC36A;stroke-width:0.625" />
<path d="M1040.2,613.94L1045.5,613.94L1045.5,619.28L1040.2,619.28Z" style="fill:none;stroke:#7AC36A;stroke-width:0.625" />
<path d="M1047.1,627.82L1052.4,627.82L1052.4,633.16L1047.1,633.16Z" style="fill:none;stroke:#7AC36A;stroke-width:0.625" />
<path d="M1054,628.31L1059.4,628.31L1059.4,633.65L1054,633.65Z" style="fill:none;stroke:#7AC36A;stroke-width:0.625" />
<path d="M1060.9,655.28L1066.3,655.28L1066.3,660.62L1060.9,660.62Z" style="fill:none;stroke:#7AC36A;stroke-width:0.625" />
<path d="M1067.8,663.16L1073.2,663.16L1073.2,668.49L1067.8,668.49Z" style="fill:none;stroke:#7AC36A;stroke-width:0.625" />
<path d="M1074.8,677.96L1080.1,677.96L1080.1,683.29L1074.8,683.29Z" style="fill:none;stroke:#7AC36A;stroke-width:0.625" />
<path d="M1081.7,684.67L1087,684.67L1087,690.01L1081.7,690.01Z" style="fill:none;stroke:#7AC36A;stroke-width:0.625" />
<path d="M1088.6,686.44L1093.9,686.44L1093.9,691.77L1088.6,691.77Z" style="fill:none;stroke:#7AC36A;stroke-width:0.625" />
<path d="M1095.5,684.02L1100.8,684.02L1100.8,689.36L1095.5,689.36Z" style="fill:none;stroke:#7AC36A;stroke-width:0.625" />
<path d="M1102.4,679.11L1107.7,679.11L1107.7,684.45L1102.4,684.45Z" style="fill:none;stroke:#7AC36A;stroke-width:0.625" />
<path d="M1109.3,664.44L1114.7,664.44L1114.7,669.78L1109.3,669.78Z" style="fill:none;stroke:#7AC36A;stroke-width:0.625" />
<path d="M1116.2,671.08L1121.6,671.08L1121.6,676.41L1116.2,676.41Z" style="fill:none;stroke:#7AC36A;stroke-width:0.625" />
<path d="M1123.1,662.62L1128.5,662.62L1128.5,667.95L1123.1,667.95Z" style="fill:none;stroke:#7AC36A;stroke-width:0.625" />
<path d="M1130.1,647.1L1135.4,647.1L1135.4,652.44L1130.1,652.44Z" style="fill:none;stroke:#7AC36A;stroke-width:0.625" />
<path d="M1137,626.59L1142.3,626.59L1142.3,631.93L1137,631.93Z" style="fill:none;stroke:#7AC36A;stroke-width:0.625" />
<path d="M1143.9,594.62L1149.2,594.62L1149.2,599.95L1143.9,599.95Z" style="fill:none;stroke:#7AC36A;stroke-width:0.625" />
<path d="M1150.8,576.08L1156.1,576.08L1156.1,581.42L1150.8,581.42Z" style="fill:none;stroke:#7AC36A;stroke-width:0.625" />
<path d="M1157.7,570.31L1163,570.31L1163,575.64L1157.7,575.64Z" style="fill:none;stroke:#7AC36A;stroke-width:0.625" />
<path d="M1164.6,552.46L1170,552.46L1170,557.79L1164.6,557.79Z" style="fill:none;stroke:#7AC36A;stroke-width:0.625" />
<path d="M1171.5,530.64L1176.9,530.64L1176.9,535.98L1171.5,535.98Z" style="fill:none;stroke:#7AC36A;stroke-width:0.625" />
<path d="M1178.4,521.86L1183.8,521.86L1183.8,527.19L1178.4,527.19Z" style="fill:none;stroke:#7AC36A;stroke-width:0.625" />
<path d="M1185.4,492.42L1190.7,492.42L1190.7,497.76L1185.4,497.76Z" style="fill:none;stroke:#7AC36A;stroke-width:0.625" />
<path d="M1192.3,492.34L1197.6,492.34L1197.6,497.67L1192.3,497.67Z" style="fill:none;stroke:#7AC36A;stroke-width:0.625" />
<path d="M1199.2,478.5L1204.5,478.5L1204.5,483.84L1199.2,483.84Z" style="fill:none;stroke:#7AC36A;stroke-width:0.625" />
<path d="M1206.1,471.87L1211.4,471.87L1211.4,477.2L1206.1,477.2Z" style="fill:none;stroke:#7AC36A;stroke-width:0.625" />
<path d="M1213,472.19L1218.3,472.19L1218.3,477.52L1213,477.52Z" style="fill:none;stroke:#7AC36A;stroke-width:0.625" />
<path d="M1219.9,458.8L1225.3,458.8L1225.3,464.14L1219.9,464.14Z" style="fill:none;stroke:#7AC36A;stroke-width:0.625" />
<path d="M1226.8,449.39L1232.2,449.39L1232.2,454.73L1226.8,454.73Z" style="fill:none;stroke:#7AC36A;stroke-width:0.625" />
<path d="M1233.7,408.74L1239.1,408.74L1239.1,414.07L1233.7,414.07Z" style="fill:none;stroke:#7AC36A;stroke-width:0.625" />
<path d="M1240.7,406.15L1246,406.15L1246,411.49L1240.7,411.49Z" style="fill:none;stroke:#7AC36A;stroke-width:0.625" />
<path d="M1247.6,375.8L1252.9,375.8L1252.9,381.14L1247.6,381.14Z" style="fill:none;stroke:#7AC36A;stroke-width:0.625" />
<path d="M1254.5,351.4L1259.8,351.4L1259.8,356.73L1254.5,356.73Z" style="fill:none;stroke:#7AC36A;stroke-width:0.625" />
<path d="M1261.4,326.83L1266.7,326.83L1266.7,332.16L1261.4,332.16Z" style="fill:none;stroke:#7AC36A;stroke-width:0.625" />
<path d="M1268.3,304.06L1273.6,304.06L1273.6,309.4L1268.3,309.4Z" style="fill:none;stroke:#7AC36A;stroke-width:0.625" />
<path d="M1275.2,268.49L1280.6,268.49L1280.6,273.83L1275.2,273.83Z" style="fill:none;stroke:#7AC36A;stroke-width:0.625" />
<path d="M1282.1,234.04L1287.5,234.04L1287.5,239.37L1282.1,239.37Z" style="fill:none;stroke:#7AC36A;stroke-width:0.625" />
<path d="M1289,217.99L1294.4,217.99L1294.4,223.32L1289,223.32Z" style="fill:none;stroke:#7AC36A;stroke-width:0.625" />
<path d="M1296,181.58L1301.3,181.58L1301.3,186.92L1296,186.92Z" style="fill:none;stroke:#7AC36A;stroke-width:0.625" />
<path d="M1302.9,176.13L1308.2,176.13L1308.2,181.46L1302.9,181.46Z" style="fill:none;stroke:#7AC36A;stroke-width:0.625" />
<path d="M1309.8,160.07L1315.1,160.07L1315.1,165.41L1309.8,165.41Z" style="fill:none;stroke:#7AC36A;stroke-width:0.625" />
<path d="M1316.7,170.67L1322,170.67L1322,176L1316.7,176Z" style="fill:none;stroke:#7AC36A;stroke-width:0.625" />
<path d="M1323.6,178.83L1328.9,178.83L1328.9,184.16L1323.6,184.16Z" style="fill:none;stroke:#7AC36A;stroke-width:0.625" />
<path d="M1330.5,178.23L1335.9,178.23L1335.9,183.56L1330.5,183.56Z" style="fill:none;stroke:#7AC36A;stroke-width:0.625" />
<path d="M1337.4,171.05L1342.8,171.05L1342.8,176.39L1337.4,176.39Z" style="fill:none;stroke:#7AC36A;stroke-width:0.625" />
<path d="M1344.3,173.18L1349.7,173.18L1349.7,178.51L1344.3,178.51Z" style="fill:none;stroke:#7AC36A;stroke-width:0.625" />
<path d="M1351.3,173.33L1356.6,173.33L1356.6,178.67L1351.3,178.67Z" style="fill:none;stroke:#7AC36A;stroke-width:0.625" />
<path d="M1358.2,167.56L1363.5,167.56L1363.5,172.9L1358.2,172.9Z" style="fill:none;stroke:#7AC36A;stroke-width:0.625" />
<path d="M1365.1,174.85L1370.4,174.85L1370.4,180.18L1365.1,180.18Z" style="fill:none;stroke:#7AC36A;stroke-width:0.625" />
<path d="M1372,193.34L1377.3,193.34L1377.3,198.67L1372,198.67Z" style="fill:none;stroke:#7AC36A;stroke-width:0.625" />
<path d="M1378.9,191.31L1384.2,191.31L1384.2,196.65L1378.9,196.65Z" style="fill:none;stroke:#7AC36A;stroke-width:0.625" />
<path d="M1385.8,179.99L1391.2,179.99L1391.2,185.33L1385.8,185.33Z" style="fill:none;stroke:#7AC36A;stroke-width:0.625" />
<path d="M1392.7,173.94L1398.1,173.94L1398.1,179.28L1392.7,179.28Z" style="fill:none;stroke:#7AC36A;stroke-width:0.625" />
<path d="M1399.6,155.68L1405,155.68L1405,161.01L1399.6,161.01Z" style="fill:none;stroke:#7AC36A;stroke-width:0.625" />
<path d="M1406.6,155.3L1411.9,155.3L1411.9,160.64L1406.6,160.64Z" style="fill:none;stroke:#7AC36A;stroke-width:0.625" />
<path d="M1413.5,164.89L1418.8,164.89L1418.8,170.22L1413.5,170.22Z" style="fill:none;stroke:#7AC36A;stroke-width:0.625" />
<path d="M1420.4,183.37L1425.7,183.37L1425.7,188.7L1420.4,188.7Z" style="fill:none;stroke:#7AC36A;stroke-width:0.625" />
<path d="M1427.3,206.61L1432.6,206.61L1432.6,211.95L1427.3,211.95Z" style="fill:none;stroke:#7AC36A;stroke-width:0.625" />
<path d="M1434.2,288.36L1439.5,288.36L1439.5,293.7L1434.2,293.7Z" style="fill:none;stroke:#7AC36A;stroke-width:0.625" />
<path d="M1415,66.978L1440,66.978" style="fill:none;stroke:#F15A60;stroke-width:1.25" />
<path d="M1430.6,66.978A3.125,3.125 0 1 1 1424.4,66.978A3.125,3.125 0 1 1 1430.6,66.978Z" style="fill:none;stroke:#F15A60;stroke-width:0.625" />
<text x="1388.8" y="-61.188" transform="scale(1, -1)"
	style="font-family:Times;font-weight:normal;font-style:normal;font-size:12pt">raw</text>
<path d="M1415,53.117L1440,53.117" style="fill:none;stroke:#7AC36A;stroke-width:1.25;stroke-dasharray:7.5,2.5" />
<path d="M1424.8,50.45L1430.2,50.45L1430.2,55.785L1424.8,55.785Z" style="fill:none;stroke:#7AC36A;stroke-width:0.625" />
<text x="1367.1" y="-47.328" transform="scale(1, -1)"
	style="font-family:Times;font-weight:normal;font-style:normal;font-size:12pt">smooth</text>
</g>
</svg>
