<?xml version="1.0"?>
<!-- Generated by SVGo and Plotinum VG -->
<svg width="16in" height="9in"
	xmlns="http://www.w3.org/2000/svg"
	xmlns:xlink="http://www.w3.org/1999/xlink">
<g transform="scale(1, -1) translate(0, -810)">
<path d="M0,0L1440,0L1440,810L0,810Z" style="fill:#FFFFFF" />
<text x="744.27" y="-4.8267" transform="scale(1, -1)"
	style="font-family:Times;font-weight:normal;font-style:normal;font-size:12pt">X</text>
<text x="59.37" y="-19.502" transform="scale(1, -1)"
	style="font-family:Times;font-weight:normal;font-style:normal;font-size:10pt">0</text>
<text x="470.63" y="-19.502" transform="scale(1, -1)"
	style="font-family:Times;font-weight:normal;font-style:normal;font-size:10pt">60</text>
<text x="881.89" y="-19.502" transform="scale(1, -1)"
	style="font-family:Times;font-weight:normal;font-style:normal;font-size:10pt">120</text>
<text x="1296.3" y="-19.502" transform="scale(1, -1)"
	style="font-family:Times;font-weight:normal;font-style:normal;font-size:10pt">180</text>
<path d="M62.495,31.538L62.495,41.538" style="fill:none;stroke:#000000;stroke-width:0.625" />
<path d="M476.88,31.538L476.88,41.538" style="fill:none;stroke:#000000;stroke-width:0.625" />
<path d="M891.27,31.538L891.27,41.538" style="fill:none;stroke:#000000;stroke-width:0.625" />
<path d="M1305.7,31.538L1305.7,41.538" style="fill:none;stroke:#000000;stroke-width:0.625" />
<path d="M200.62,36.538L200.62,41.538" style="fill:none;stroke:#000000;stroke-width:0.625" />
<path d="M338.75,36.538L338.75,41.538" style="fill:none;stroke:#000000;stroke-width:0.625" />
<path d="M615.01,36.538L615.01,41.538" style="fill:none;stroke:#000000;stroke-width:0.625" />
<path d="M753.14,36.538L753.14,41.538" style="fill:none;stroke:#000000;stroke-width:0.625" />
<path d="M1029.4,36.538L1029.4,41.538" style="fill:none;stroke:#000000;stroke-width:0.625" />
<path d="M1167.5,36.538L1167.5,41.538" style="fill:none;stroke:#000000;stroke-width:0.625" />
<path d="M62.495,41.538L1436.9,41.538" style="fill:none;stroke:#000000;stroke-width:0.625" />
<g transform="rotate(90)">
<text x="423.63" y="14.443" transform="scale(1, -1)"
	style="font-family:Times;font-weight:normal;font-style:normal;font-size:12pt">Y</text>
</g>
<text x="19.27" y="-83.857" transform="scale(1, -1)"
	style="font-family:Times;font-weight:normal;font-style:normal;font-size:10pt">-0.8</text>
<text x="32.808" y="-289.48" transform="scale(1, -1)"
	style="font-family:Times;font-weight:normal;font-style:normal;font-size:10pt">0</text>
<text x="23.433" y="-495.11" transform="scale(1, -1)"
	style="font-family:Times;font-weight:normal;font-style:normal;font-size:10pt">0.8</text>
<text x="23.433" y="-700.74" transform="scale(1, -1)"
	style="font-family:Times;font-weight:normal;font-style:normal;font-size:10pt">1.6</text>
<path d="M42.183,89.76L52.183,89.76" style="fill:none;stroke:#000000;stroke-width:0.625" />
<path d="M42.183,295.39L52.183,295.39" style="fill:none;stroke:#000000;stroke-width:0.625" />
<path d="M42.183,501.01L52.183,501.01" style="fill:none;stroke:#000000;stroke-width:0.625" />
<path d="M42.183,706.64L52.183,706.64" style="fill:none;stroke:#000000;stroke-width:0.625" />
<path d="M47.183,89.76L52.183,89.76" style="fill:none;stroke:#000000;stroke-width:0.625" />
<path d="M47.183,192.57L52.183,192.57" style="fill:none;stroke:#000000;stroke-width:0.625" />
<path d="M47.183,295.39L52.183,295.39" style="fill:none;stroke:#000000;stroke-width:0.625" />
<path d="M47.183,398.2L52.183,398.2" style="fill:none;stroke:#000000;stroke-width:0.625" />
<path d="M47.183,501.01L52.183,501.01" style="fill:none;stroke:#000000;stroke-width:0.625" />
<path d="M47.183,603.83L52.183,603.83" style="fill:none;stroke:#000000;stroke-width:0.625" />
<path d="M52.183,51.226L52.183,806.88" style="fill:none;stroke:#000000;stroke-width:0.625" />
<path d="M62.495,385.54L69.402,399.61L76.308,609.99L83.214,530.55L90.121,508.41L97.027,530.4L103.93,672.06L110.84,676.88L117.75,567.41L124.65,658.09L131.56,738.67L138.47,631.48L145.37,463.9L152.28,584.06L159.19,369.38L166.09,292.09L173,484.61L179.9,420.98L186.81,344.35L193.72,138.98L200.62,116.35L207.53,109.66L214.44,176.75L221.34,287.24L228.25,144.65L235.16,216.63L242.06,310.18L248.97,348.19L255.88,424.28L262.78,326.41L269.69,416.63L276.59,454.67L283.5,574.73L290.41,476.99L297.31,672.42L304.22,771.01L311.13,583.7L318.03,753.23L324.94,693.68L331.85,599.33L338.75,528.99L345.66,478.72L352.57,441.19L359.47,439.35L366.38,532.27L373.28,356.49L380.19,282.92L387.1,326.79L394,258.65L400.91,221.45L407.82,120.22L414.72,231.76L421.63,116.12L428.54,230.3L435.44,231.62L442.35,203.1L449.26,388.89L456.16,340.73L463.07,427.53L469.97,494.91L476.88,552.12L483.79,538.88L490.69,682.87L497.6,527.88L504.51,763.11L511.41,731.53L518.32,686.99L525.23,580.91L532.13,593.21L539.04,723.38L545.95,704.22L552.85,488.34L559.76,584.45L566.66,516.57L573.57,403.15L580.48,256.4L587.38,190.32L594.29,265.93L601.2,201.73L608.1,119.36L615.01,180.57L621.92,195.1L628.82,175.35L635.73,75.895L642.64,189.96L649.54,126.12L656.45,237.89L663.35,220.57L670.26,313.67L677.17,490.55L684.07,560.97L690.98,576.01L697.89,722.94L704.79,625.3L711.7,754.92L718.61,613.47L725.51,709.29L732.42,752.55L739.33,690.38L746.23,563.81L753.14,514.05L760.04,515.47L766.95,571.85L773.86,423.22L780.76,437.7L787.67,420.76L794.58,159.03L801.48,338.4L808.39,131.22L815.3,71.337L822.2,222.97L829.11,168.27L836.02,236.7L842.92,318.47L849.83,338.69L856.73,146.99L863.64,388.65L870.55,307.04L877.45,540.64L884.36,580.38L891.27,420.88L898.17,619.51L905.08,611.06L911.99,767.9L918.89,733.53L925.8,778.36L932.71,790.3L939.61,553.31L946.52,602.65L953.42,718.85L960.33,571.62L967.24,573.47L974.14,544.63L981.05,365.52L987.96,312.8L994.86,313.84L1001.8,304.86L1008.7,259.74L1015.6,89.527L1022.5,67.565L1029.4,136.53L1036.3,257.15L1043.2,80.771L1050.1,329.4L1057,167.36L1063.9,295.85L1070.8,260.84L1077.7,424.92L1084.6,414.43L1091.6,486.86L1098.5,606.29L1105.4,501.18L1112.3,657.82L1119.2,699.73L1126.1,800.73L1133,592.68L1139.9,745.95L1146.8,718.59L1153.7,750.49L1160.6,509.79L1167.5,618.16L1174.4,563.59L1181.3,422.45L1188.2,362.23L1195.1,324.47L1202.1,308.19L1209,130.96L1215.9,279.49L1222.8,224.64L1229.7,293.09L1236.6,58.133L1243.5,300.62L1250.4,149.24L1257.3,283.9L1264.2,326.55L1271.1,425.54L1278,461.96L1284.9,374.17L1291.8,373.52L1298.7,504.94L1305.7,670.29L1312.6,633.19L1319.5,612.16L1326.4,567.03L1333.3,669.42L1340.2,806.88L1347.1,628.25L1354,536.45L1360.9,658.06L1367.8,636.69L1374.7,464.14L1381.6,363.45L1388.5,466.32L1395.4,324.18L1402.3,251.12L1409.2,189.52L1416.2,120.74L1423.1,188.49L1430,101.02L1436.9,51.226" style="fill:none;stroke:#F15A60;stroke-width:1.25" />
<path d="M65.62,385.54A3.125,3.125 0 1 1 59.37,385.54A3.125,3.125 0 1 1 65.62,385.54Z" style="fill:none;stroke:#F15A60;stroke-width:0.625" />
<path d="M72.527,399.61A3.125,3.125 0 1 1 66.277,399.61A3.125,3.125 0 1 1 72.527,399.61Z" style="fill:none;stroke:#F15A60;stroke-width:0.625" />
<path d="M79.433,609.99A3.125,3.125 0 1 1 73.183,609.99A3.125,3.125 0 1 1 79.433,609.99Z" style="fill:none;stroke:#F15A60;stroke-width:0.625" />
<path d="M86.339,530.55L86.339,530.55A3.125,3.125 0 1 1 80.089,530.55A3.125,3.125 0 1 1 86.339,530.55Z" style="fill:none;stroke:#F15A60;stroke-width:0.625" />
<path d="M93.246,508.41A3.125,3.125 0 1 1 86.996,508.41A3.125,3.125 0 1 1 93.246,508.41Z" style="fill:none;stroke:#F15A60;stroke-width:0.625" />
<path d="M100.15,530.4A3.125,3.125 0 1 1 93.902,530.4A3.125,3.125 0 1 1 100.15,530.4Z" style="fill:none;stroke:#F15A60;stroke-width:0.625" />
<path d="M107.06,672.06L107.06,672.06A3.125,3.125 0 1 1 100.81,672.06A3.125,3.125 0 1 1 107.06,672.06Z" style="fill:none;stroke:#F15A60;stroke-width:0.625" />
<path d="M113.97,676.88L113.97,676.88A3.125,3.125 0 1 1 107.72,676.88A3.125,3.125 0 1 1 113.97,676.88Z" style="fill:none;stroke:#F15A60;stroke-width:0.625" />
<path d="M120.87,567.41L120.87,567.41A3.125,3.125 0 1 1 114.62,567.41A3.125,3.125 0 1 1 120.87,567.41Z" style="fill:none;stroke:#F15A60;stroke-width:0.625" />
<path d="M127.78,658.09L127.78,658.09A3.125,3.125 0 1 1 121.53,658.09A3.125,3.125 0 1 1 127.78,658.09Z" style="fill:none;stroke:#F15A60;stroke-width:0.625" />
<path d="M134.68,738.67L134.68,738.67A3.125,3.125 0 1 1 128.43,738.67A3.125,3.125 0 1 1 134.68,738.67Z" style="fill:none;stroke:#F15A60;stroke-width:0.625" />
<path d="M141.59,631.48A3.125,3.125 0 1 1 135.34,631.48A3.125,3.125 0 1 1 141.59,631.48Z" style="fill:none;stroke:#F15A60;stroke-width:0.625" />
<path d="M148.5,463.9A3.125,3.125 0 1 1 142.25,463.9A3.125,3.125 0 1 1 148.5,463.9Z" style="fill:none;stroke:#F15A60;stroke-width:0.625" />
<path d="M155.4,584.06L155.4,584.06A3.125,3.125 0 1 1 149.15,584.06A3.125,3.125 0 1 1 155.4,584.06Z" style="fill:none;stroke:#F15A60;stroke-width:0.625" />
<path d="M162.31,369.38L162.31,369.38A3.125,3.125 0 1 1 156.06,369.38A3.125,3.125 0 1 1 162.31,369.38Z" style="fill:none;stroke:#F15A60;stroke-width:0.625" />
<path d="M169.22,292.09A3.125,3.125 0 1 1 162.97,292.09A3.125,3.125 0 1 1 169.22,292.09Z" style="fill:none;stroke:#F15A60;stroke-width:0.625" />
<path d="M176.12,484.61A3.125,3.125 0 1 1 169.87,484.61A3.125,3.125 0 1 1 176.12,484.61Z" style="fill:none;stroke:#F15A60;stroke-width:0.625" />
<path d="M183.03,420.98A3.125,3.125 0 1 1 176.78,420.98A3.125,3.125 0 1 1 183.03,420.98Z" style="fill:none;stroke:#F15A60;stroke-width:0.625" />
<path d="M189.94,344.35L189.94,344.35A3.125,3.125 0 1 1 183.69,344.35A3.125,3.125 0 1 1 189.94,344.35Z" style="fill:none;stroke:#F15A60;stroke-width:0.625" />
<path d="M196.84,138.98A3.125,3.125 0 1 1 190.59,138.98A3.125,3.125 0 1 1 196.84,138.98Z" style="fill:none;stroke:#F15A60;stroke-width:0.625" />
<path d="M203.75,116.35L203.75,116.35A3.125,3.125 0 1 1 197.5,116.35A3.125,3.125 0 1 1 203.75,116.35Z" style="fill:none;stroke:#F15A60;stroke-width:0.625" />
<path d="M210.66,109.66L210.66,109.66A3.125,3.125 0 1 1 204.41,109.66A3.125,3.125 0 1 1 210.66,109.66Z" style="fill:none;stroke:#F15A60;stroke-width:0.625" />
<path d="M217.56,176.75A3.125,3.125 0 1 1 211.31,176.75A3.125,3.125 0 1 1 217.56,176.75Z" style="fill:none;stroke:#F15A60;stroke-width:0.625" />
<path d="M224.47,287.24L224.47,287.24A3.125,3.125 0 1 1 218.22,287.24A3.125,3.125 0 1 1 224.47,287.24Z" style="fill:none;stroke:#F15A60;stroke-width:0.625" />
<path d="M231.37,144.65A3.125,3.125 0 1 1 225.12,144.65A3.125,3.125 0 1 1 231.37,144.65Z" style="fill:none;stroke:#F15A60;stroke-width:0.625" />
<path d="M238.28,216.63L238.28,216.63A3.125,3.125 0 1 1 232.03,216.63A3.125,3.125 0 1 1 238.28,216.63Z" style="fill:none;stroke:#F15A60;stroke-width:0.625" />
<path d="M245.19,310.18A3.125,3.125 0 1 1 238.94,310.18A3.125,3.125 0 1 1 245.19,310.18Z" style="fill:none;stroke:#F15A60;stroke-width:0.625" />
<path d="M252.09,348.19A3.125,3.125 0 1 1 245.84,348.19A3.125,3.125 0 1 1 252.09,348.19Z" style="fill:none;stroke:#F15A60;stroke-width:0.625" />
<path d="M259,424.28A3.125,3.125 0 1 1 252.75,424.28A3.125,3.125 0 1 1 259,424.28Z" style="fill:none;stroke:#F15A60;stroke-width:0.625" />
<path d="M265.91,326.41A3.125,3.125 0 1 1 259.66,326.41A3.125,3.125 0 1 1 265.91,326.41Z" style="fill:none;stroke:#F15A60;stroke-width:0.625" />
<path d="M272.81,416.63A3.125,3.125 0 1 1 266.56,416.63A3.125,3.125 0 1 1 272.81,416.63Z" style="fill:none;stroke:#F15A60;stroke-width:0.625" />
<path d="M279.72,454.67A3.125,3.125 0 1 1 273.47,454.67A3.125,3.125 0 1 1 279.72,454.67Z" style="fill:none;stroke:#F15A60;stroke-width:0.625" />
<path d="M286.63,574.73L286.63,574.73A3.125,3.125 0 1 1 280.38,574.73A3.125,3.125 0 1 1 286.63,574.73Z" style="fill:none;stroke:#F15A60;stroke-width:0.625" />
<path d="M293.53,476.99A3.125,3.125 0 1 1 287.28,476.99A3.125,3.125 0 1 1 293.53,476.99Z" style="fill:none;stroke:#F15A60;stroke-width:0.625" />
<path d="M300.44,672.42A3.125,3.125 0 1 1 294.19,672.42A3.125,3.125 0 1 1 300.44,672.42Z" style="fill:none;stroke:#F15A60;stroke-width:0.625" />
<path d="M307.35,771.01A3.125,3.125 0 1 1 301.1,771.01A3.125,3.125 0 1 1 307.35,771.01Z" style="fill:none;stroke:#F15A60;stroke-width:0.625" />
<path d="M314.25,583.7A3.125,3.125 0 1 1 308,583.7A3.125,3.125 0 1 1 314.25,583.7Z" style="fill:none;stroke:#F15A60;stroke-width:0.625" />
<path d="M321.16,753.23L321.16,753.23A3.125,3.125 0 1 1 314.91,753.23A3.125,3.125 0 1 1 321.16,753.23Z" style="fill:none;stroke:#F15A60;stroke-width:0.625" />
<path d="M328.06,693.68A3.125,3.125 0 1 1 321.81,693.68A3.125,3.125 0 1 1 328.06,693.68Z" style="fill:none;stroke:#F15A60;stroke-width:0.625" />
<path d="M334.97,599.33A3.125,3.125 0 1 1 328.72,599.33A3.125,3.125 0 1 1 334.97,599.33Z" style="fill:none;stroke:#F15A60;stroke-width:0.625" />
<path d="M341.88,528.99L341.88,528.99A3.125,3.125 0 1 1 335.63,528.99A3.125,3.125 0 1 1 341.88,528.99Z" style="fill:none;stroke:#F15A60;stroke-width:0.625" />
<path d="M348.78,478.72A3.125,3.125 0 1 1 342.53,478.72A3.125,3.125 0 1 1 348.78,478.72Z" style="fill:none;stroke:#F15A60;stroke-width:0.625" />
<path d="M355.69,441.19A3.125,3.125 0 1 1 349.44,441.19A3.125,3.125 0 1 1 355.69,441.19Z" style="fill:none;stroke:#F15A60;stroke-width:0.625" />
<path d="M362.6,439.35A3.125,3.125 0 1 1 356.35,439.35A3.125,3.125 0 1 1 362.6,439.35Z" style="fill:none;stroke:#F15A60;stroke-width:0.625" />
<path d="M369.5,532.27A3.125,3.125 0 1 1 363.25,532.27A3.125,3.125 0 1 1 369.5,532.27Z" style="fill:none;stroke:#F15A60;stroke-width:0.625" />
<path d="M376.41,356.49A3.125,3.125 0 1 1 370.16,356.49A3.125,3.125 0 1 1 376.41,356.49Z" style="fill:none;stroke:#F15A60;stroke-width:0.625" />
<path d="M383.32,282.92A3.125,3.125 0 1 1 377.07,282.92A3.125,3.125 0 1 1 383.32,282.92Z" style="fill:none;stroke:#F15A60;stroke-width:0.625" />
<path d="M390.22,326.79A3.125,3.125 0 1 1 383.97,326.79A3.125,3.125 0 1 1 390.22,326.79Z" style="fill:none;stroke:#F15A60;stroke-width:0.625" />
<path d="M397.13,258.65A3.125,3.125 0 1 1 390.88,258.65A3.125,3.125 0 1 1 397.13,258.65Z" style="fill:none;stroke:#F15A60;stroke-width:0.625" />
<path d="M404.04,221.45L404.04,221.45A3.125,3.125 0 1 1 397.79,221.45A3.125,3.125 0 1 1 404.04,221.45Z" style="fill:none;stroke:#F15A60;stroke-width:0.625" />
<path d="M410.94,120.22A3.125,3.125 0 1 1 404.69,120.22A3.125,3.125 0 1 1 410.94,120.22Z" style="fill:none;stroke:#F15A60;stroke-width:0.625" />
<path d="M417.85,231.76A3.125,3.125 0 1 1 411.6,231.76A3.125,3.125 0 1 1 417.85,231.76Z" style="fill:none;stroke:#F15A60;stroke-width:0.625" />
<path d="M424.75,116.12A3.125,3.125 0 1 1 418.5,116.12A3.125,3.125 0 1 1 424.75,116.12Z" style="fill:none;stroke:#F15A60;stroke-width:0.625" />
<path d="M431.66,230.3L431.66,230.3A3.125,3.125 0 1 1 425.41,230.3A3.125,3.125 0 1 1 431.66,230.3Z" style="fill:none;stroke:#F15A60;stroke-width:0.625" />
<path d="M438.57,231.62A3.125,3.125 0 1 1 432.32,231.62A3.125,3.125 0 1 1 438.57,231.62Z" style="fill:none;stroke:#F15A60;stroke-width:0.625" />
<path d="M445.47,203.1A3.125,3.125 0 1 1 439.22,203.1A3.125,3.125 0 1 1 445.47,203.1Z" style="fill:none;stroke:#F15A60;stroke-width:0.625" />
<path d="M452.38,388.89L452.38,388.89A3.125,3.125 0 1 1 446.13,388.89A3.125,3.125 0 1 1 452.38,388.89Z" style="fill:none;stroke:#F15A60;stroke-width:0.625" />
<path d="M459.29,340.73A3.125,3.125 0 1 1 453.04,340.73A3.125,3.125 0 1 1 459.29,340.73Z" style="fill:none;stroke:#F15A60;stroke-width:0.625" />
<path d="M466.19,427.53A3.125,3.125 0 1 1 459.94,427.53A3.125,3.125 0 1 1 466.19,427.53Z" style="fill:none;stroke:#F15A60;stroke-width:0.625" />
<path d="M473.1,494.91A3.125,3.125 0 1 1 466.85,494.91A3.125,3.125 0 1 1 473.1,494.91Z" style="fill:none;stroke:#F15A60;stroke-width:0.625" />
<path d="M480.01,552.12A3.125,3.125 0 1 1 473.76,552.12A3.125,3.125 0 1 1 480.01,552.12Z" style="fill:none;stroke:#F15A60;stroke-width:0.625" />
<path d="M486.91,538.88A3.125,3.125 0 1 1 480.66,538.88A3.125,3.125 0 1 1 486.91,538.88Z" style="fill:none;stroke:#F15A60;stroke-width:0.625" />
<path d="M493.82,682.87A3.125,3.125 0 1 1 487.57,682.87A3.125,3.125 0 1 1 493.82,682.87Z" style="fill:none;stroke:#F15A60;stroke-width:0.625" />
<path d="M500.73,527.88L500.73,527.88A3.125,3.125 0 1 1 494.48,527.88A3.125,3.125 0 1 1 500.73,527.88Z" style="fill:none;stroke:#F15A60;stroke-width:0.625" />
<path d="M507.63,763.11A3.125,3.125 0 1 1 501.38,763.11A3.125,3.125 0 1 1 507.63,763.11Z" style="fill:none;stroke:#F15A60;stroke-width:0.625" />
<path d="M514.54,731.53A3.125,3.125 0 1 1 508.29,731.53A3.125,3.125 0 1 1 514.54,731.53Z" style="fill:none;stroke:#F15A60;stroke-width:0.625" />
<path d="M521.44,686.99A3.125,3.125 0 1 1 515.19,686.99A3.125,3.125 0 1 1 521.44,686.99Z" style="fill:none;stroke:#F15A60;stroke-width:0.625" />
<path d="M528.35,580.91A3.125,3.125 0 1 1 522.1,580.91A3.125,3.125 0 1 1 528.35,580.91Z" style="fill:none;stroke:#F15A60;stroke-width:0.625" />
<path d="M535.26,593.21A3.125,3.125 0 1 1 529.01,593.21A3.125,3.125 0 1 1 535.26,593.21Z" style="fill:none;stroke:#F15A60;stroke-width:0.625" />
<path d="M542.16,723.38A3.125,3.125 0 1 1 535.91,723.38A3.125,3.125 0 1 1 542.16,723.38Z" style="fill:none;stroke:#F15A60;stroke-width:0.625" />
<path d="M549.07,704.22A3.125,3.125 0 1 1 542.82,704.22A3.125,3.125 0 1 1 549.07,704.22Z" style="fill:none;stroke:#F15A60;stroke-width:0.625" />
<path d="M555.98,488.34A3.125,3.125 0 1 1 549.73,488.34A3.125,3.125 0 1 1 555.98,488.34Z" style="fill:none;stroke:#F15A60;stroke-width:0.625" />
<path d="M562.88,584.45A3.125,3.125 0 1 1 556.63,584.45A3.125,3.125 0 1 1 562.88,584.45Z" style="fill:none;stroke:#F15A60;stroke-width:0.625" />
<path d="M569.79,516.57A3.125,3.125 0 1 1 563.54,516.57A3.125,3.125 0 1 1 569.79,516.57Z" style="fill:none;stroke:#F15A60;stroke-width:0.625" />
<path d="M576.7,403.15A3.125,3.125 0 1 1 570.45,403.15A3.125,3.125 0 1 1 576.7,403.15Z" style="fill:none;stroke:#F15A60;stroke-width:0.625" />
<path d="M583.6,256.4A3.125,3.125 0 1 1 577.35,256.4A3.125,3.125 0 1 1 583.6,256.4Z" style="fill:none;stroke:#F15A60;stroke-width:0.625" />
<path d="M590.51,190.32A3.125,3.125 0 1 1 584.26,190.32A3.125,3.125 0 1 1 590.51,190.32Z" style="fill:none;stroke:#F15A60;stroke-width:0.625" />
<path d="M597.42,265.93A3.125,3.125 0 1 1 591.17,265.93A3.125,3.125 0 1 1 597.42,265.93Z" style="fill:none;stroke:#F15A60;stroke-width:0.625" />
<path d="M604.32,201.73L604.32,201.73A3.125,3.125 0 1 1 598.07,201.73A3.125,3.125 0 1 1 604.32,201.73Z" style="fill:none;stroke:#F15A60;stroke-width:0.625" />
<path d="M611.23,119.36A3.125,3.125 0 1 1 604.98,119.36A3.125,3.125 0 1 1 611.23,119.36Z" style="fill:none;stroke:#F15A60;stroke-width:0.625" />
<path d="M618.13,180.57A3.125,3.125 0 1 1 611.88,180.57A3.125,3.125 0 1 1 618.13,180.57Z" style="fill:none;stroke:#F15A60;stroke-width:0.625" />
<path d="M625.04,195.1A3.125,3.125 0 1 1 618.79,195.1A3.125,3.125 0 1 1 625.04,195.1Z" style="fill:none;stroke:#F15A60;stroke-width:0.625" />
<path d="M631.95,175.35A3.125,3.125 0 1 1 625.7,175.35A3.125,3.125 0 1 1 631.95,175.35Z" style="fill:none;stroke:#F15A60;stroke-width:0.625" />
<path d="M638.85,75.895A3.125,3.125 0 1 1 632.6,75.895A3.125,3.125 0 1 1 638.85,75.895Z" style="fill:none;stroke:#F15A60;stroke-width:0.625" />
<path d="M645.76,189.96A3.125,3.125 0 1 1 639.51,189.96A3.125,3.125 0 1 1 645.76,189.96Z" style="fill:none;stroke:#F15A60;stroke-width:0.625" />
<path d="M652.67,126.12A3.125,3.125 0 1 1 646.42,126.12A3.125,3.125 0 1 1 652.67,126.12Z" style="fill:none;stroke:#F15A60;stroke-width:0.625" />
<path d="M659.57,237.89A3.125,3.125 0 1 1 653.32,237.89A3.125,3.125 0 1 1 659.57,237.89Z" style="fill:none;stroke:#F15A60;stroke-width:0.625" />
<path d="M666.48,220.57A3.125,3.125 0 1 1 660.23,220.57A3.125,3.125 0 1 1 666.48,220.57Z" style="fill:none;stroke:#F15A60;stroke-width:0.625" />
<path d="M673.39,313.67A3.125,3.125 0 1 1 667.14,313.67A3.125,3.125 0 1 1 673.39,313.67Z" style="fill:none;stroke:#F15A60;stroke-width:0.625" />
<path d="M680.29,490.55A3.125,3.125 0 1 1 674.04,490.55A3.125,3.125 0 1 1 680.29,490.55Z" style="fill:none;stroke:#F15A60;stroke-width:0.625" />
<path d="M687.2,560.97A3.125,3.125 0 1 1 680.95,560.97A3.125,3.125 0 1 1 687.2,560.97Z" style="fill:none;stroke:#F15A60;stroke-width:0.625" />
<path d="M694.11,576.01A3.125,3.125 0 1 1 687.86,576.01A3.125,3.125 0 1 1 694.11,576.01Z" style="fill:none;stroke:#F15A60;stroke-width:0.625" />
<path d="M701.01,722.94A3.125,3.125 0 1 1 694.76,722.94A3.125,3.125 0 1 1 701.01,722.94Z" style="fill:none;stroke:#F15A60;stroke-width:0.625" />
<path d="M707.92,625.3A3.125,3.125 0 1 1 701.67,625.3A3.125,3.125 0 1 1 707.92,625.3Z" style="fill:none;stroke:#F15A60;stroke-width:0.625" />
<path d="M714.82,754.92A3.125,3.125 0 1 1 708.57,754.92A3.125,3.125 0 1 1 714.82,754.92Z" style="fill:none;stroke:#F15A60;stroke-width:0.625" />
<path d="M721.73,613.47A3.125,3.125 0 1 1 715.48,613.47A3.125,3.125 0 1 1 721.73,613.47Z" style="fill:none;stroke:#F15A60;stroke-width:0.625" />
<path d="M728.64,709.29A3.125,3.125 0 1 1 722.39,709.29A3.125,3.125 0 1 1 728.64,709.29Z" style="fill:none;stroke:#F15A60;stroke-width:0.625" />
<path d="M735.54,752.55A3.125,3.125 0 1 1 729.29,752.55A3.125,3.125 0 1 1 735.54,752.55Z" style="fill:none;stroke:#F15A60;stroke-width:0.625" />
<path d="M742.45,690.38A3.125,3.125 0 1 1 736.2,690.38A3.125,3.125 0 1 1 742.45,690.38Z" style="fill:none;stroke:#F15A60;stroke-width:0.625" />
<path d="M749.36,563.81L749.36,563.81A3.125,3.125 0 1 1 743.11,563.81A3.125,3.125 0 1 1 749.36,563.81Z" style="fill:none;stroke:#F15A60;stroke-width:0.625" />
<path d="M756.26,514.05A3.125,3.125 0 1 1 750.01,514.05A3.125,3.125 0 1 1 756.26,514.05Z" style="fill:none;stroke:#F15A60;stroke-width:0.625" />
<path d="M763.17,515.47A3.125,3.125 0 1 1 756.92,515.47A3.125,3.125 0 1 1 763.17,515.47Z" style="fill:none;stroke:#F15A60;stroke-width:0.625" />
<path d="M770.08,571.85L770.08,571.85A3.125,3.125 0 1 1 763.83,571.85A3.125,3.125 0 1 1 770.08,571.85Z" style="fill:none;stroke:#F15A60;stroke-width:0.625" />
<path d="M776.98,423.22L776.98,423.22A3.125,3.125 0 1 1 770.73,423.22A3.125,3.125 0 1 1 776.98,423.22Z" style="fill:none;stroke:#F15A60;stroke-width:0.625" />
<path d="M783.89,437.7L783.89,437.7A3.125,3.125 0 1 1 777.64,437.7A3.125,3.125 0 1 1 783.89,437.7Z" style="fill:none;stroke:#F15A60;stroke-width:0.625" />
<path d="M790.8,420.76A3.125,3.125 0 1 1 784.55,420.76A3.125,3.125 0 1 1 790.8,420.76Z" style="fill:none;stroke:#F15A60;stroke-width:0.625" />
<path d="M797.7,159.03L797.7,159.03A3.125,3.125 0 1 1 791.45,159.03A3.125,3.125 0 1 1 797.7,159.03Z" style="fill:none;stroke:#F15A60;stroke-width:0.625" />
<path d="M804.61,338.4L804.61,338.4A3.125,3.125 0 1 1 798.36,338.4A3.125,3.125 0 1 1 804.61,338.4Z" style="fill:none;stroke:#F15A60;stroke-width:0.625" />
<path d="M811.51,131.22A3.125,3.125 0 1 1 805.26,131.22A3.125,3.125 0 1 1 811.51,131.22Z" style="fill:none;stroke:#F15A60;stroke-width:0.625" />
<path d="M818.42,71.337L818.42,71.337A3.125,3.125 0 1 1 812.17,71.337A3.125,3.125 0 1 1 818.42,71.337Z" style="fill:none;stroke:#F15A60;stroke-width:0.625" />
<path d="M825.33,222.97A3.125,3.125 0 1 1 819.08,222.97A3.125,3.125 0 1 1 825.33,222.97Z" style="fill:none;stroke:#F15A60;stroke-width:0.625" />
<path d="M832.23,168.27L832.23,168.27A3.125,3.125 0 1 1 825.98,168.27A3.125,3.125 0 1 1 832.23,168.27Z" style="fill:none;stroke:#F15A60;stroke-width:0.625" />
<path d="M839.14,236.7A3.125,3.125 0 1 1 832.89,236.7A3.125,3.125 0 1 1 839.14,236.7Z" style="fill:none;stroke:#F15A60;stroke-width:0.625" />
<path d="M846.05,318.47A3.125,3.125 0 1 1 839.8,318.47A3.125,3.125 0 1 1 846.05,318.47Z" style="fill:none;stroke:#F15A60;stroke-width:0.625" />
<path d="M852.95,338.69L852.95,338.69A3.125,3.125 0 1 1 846.7,338.69A3.125,3.125 0 1 1 852.95,338.69Z" style="fill:none;stroke:#F15A60;stroke-width:0.625" />
<path d="M859.86,146.99A3.125,3.125 0 1 1 853.61,146.99A3.125,3.125 0 1 1 859.86,146.99Z" style="fill:none;stroke:#F15A60;stroke-width:0.625" />
<path d="M866.77,388.65L866.77,388.65A3.125,3.125 0 1 1 860.52,388.65A3.125,3.125 0 1 1 866.77,388.65Z" style="fill:none;stroke:#F15A60;stroke-width:0.625" />
<path d="M873.67,307.04L873.67,307.04A3.125,3.125 0 1 1 867.42,307.04A3.125,3.125 0 1 1 873.67,307.04Z" style="fill:none;stroke:#F15A60;stroke-width:0.625" />
<path d="M880.58,540.64L880.58,540.64A3.125,3.125 0 1 1 874.33,540.64A3.125,3.125 0 1 1 880.58,540.64Z" style="fill:none;stroke:#F15A60;stroke-width:0.625" />
<path d="M887.49,580.38A3.125,3.125 0 1 1 881.24,580.38A3.125,3.125 0 1 1 887.49,580.38Z" style="fill:none;stroke:#F15A60;stroke-width:0.625" />
<path d="M894.39,420.88L894.39,420.88A3.125,3.125 0 1 1 888.14,420.88A3.125,3.125 0 1 1 894.39,420.88Z" style="fill:none;stroke:#F15A60;stroke-width:0.625" />
<path d="M901.3,619.51L901.3,619.51A3.125,3.125 0 1 1 895.05,619.51A3.125,3.125 0 1 1 901.3,619.51Z" style="fill:none;stroke:#F15A60;stroke-width:0.625" />
<path d="M908.2,611.06A3.125,3.125 0 1 1 901.95,611.06A3.125,3.125 0 1 1 908.2,611.06Z" style="fill:none;stroke:#F15A60;stroke-width:0.625" />
<path d="M915.11,767.9L915.11,767.9A3.125,3.125 0 1 1 908.86,767.9A3.125,3.125 0 1 1 915.11,767.9Z" style="fill:none;stroke:#F15A60;stroke-width:0.625" />
<path d="M922.02,733.53L922.02,733.53A3.125,3.125 0 1 1 915.77,733.53A3.125,3.125 0 1 1 922.02,733.53Z" style="fill:none;stroke:#F15A60;stroke-width:0.625" />
<path d="M928.92,778.36L928.92,778.36A3.125,3.125 0 1 1 922.67,778.36A3.125,3.125 0 1 1 928.92,778.36Z" style="fill:none;stroke:#F15A60;stroke-width:0.625" />
<path d="M935.83,790.3A3.125,3.125 0 1 1 929.58,790.3A3.125,3.125 0 1 1 935.83,790.3Z" style="fill:none;stroke:#F15A60;stroke-width:0.625" />
<path d="M942.74,553.31A3.125,3.125 0 1 1 936.49,553.31A3.125,3.125 0 1 1 942.74,553.31Z" style="fill:none;stroke:#F15A60;stroke-width:0.625" />
<path d="M949.64,602.65L949.64,602.65A3.125,3.125 0 1 1 943.39,602.65A3.125,3.125 0 1 1 949.64,602.65Z" style="fill:none;stroke:#F15A60;stroke-width:0.625" />
<path d="M956.55,718.85L956.55,718.85A3.125,3.125 0 1 1 950.3,718.85A3.125,3.125 0 1 1 956.55,718.85Z" style="fill:none;stroke:#F15A60;stroke-width:0.625" />
<path d="M963.46,571.62L963.46,571.62A3.125,3.125 0 1 1 957.21,571.62A3.125,3.125 0 1 1 963.46,571.62Z" style="fill:none;stroke:#F15A60;stroke-width:0.625" />
<path d="M970.36,573.47A3.125,3.125 0 1 1 964.11,573.47A3.125,3.125 0 1 1 970.36,573.47Z" style="fill:none;stroke:#F15A60;stroke-width:0.625" />
<path d="M977.27,544.63A3.125,3.125 0 1 1 971.02,544.63A3.125,3.125 0 1 1 977.27,544.63Z" style="fill:none;stroke:#F15A60;stroke-width:0.625" />
<path d="M984.18,365.52L984.18,365.52A3.125,3.125 0 1 1 977.93,365.52A3.125,3.125 0 1 1 984.18,365.52Z" style="fill:none;stroke:#F15A60;stroke-width:0.625" />
<path d="M991.08,312.8A3.125,3.125 0 1 1 984.83,312.8A3.125,3.125 0 1 1 991.08,312.8Z" style="fill:none;stroke:#F15A60;stroke-width:0.625" />
<path d="M997.99,313.84L997.99,313.84A3.125,3.125 0 1 1 991.74,313.84A3.125,3.125 0 1 1 997.99,313.84Z" style="fill:none;stroke:#F15A60;stroke-width:0.625" />
<path d="M1004.9,304.86A3.125,3.125 0 1 1 998.64,304.86A3.125,3.125 0 1 1 1004.9,304.86Z" style="fill:none;stroke:#F15A60;stroke-width:0.625" />
<path d="M1011.8,259.74L1011.8,259.74A3.125,3.125 0 1 1 1005.6,259.74A3.125,3.125 0 1 1 1011.8,259.74Z" style="fill:none;stroke:#F15A60;stroke-width:0.625" />
<path d="M1018.7,89.527L1018.7,89.527A3.125,3.125 0 1 1 1012.5,89.527A3.125,3.125 0 1 1 1018.7,89.527Z" style="fill:none;stroke:#F15A60;stroke-width:0.625" />
<path d="M1025.6,67.565L1025.6,67.565A3.125,3.125 0 1 1 1019.4,67.565A3.125,3.125 0 1 1 1025.6,67.565Z" style="fill:none;stroke:#F15A60;stroke-width:0.625" />
<path d="M1032.5,136.53L1032.5,136.53A3.125,3.125 0 1 1 1026.3,136.53A3.125,3.125 0 1 1 1032.5,136.53Z" style="fill:none;stroke:#F15A60;stroke-width:0.625" />
<path d="M1039.4,257.15L1039.4,257.15A3.125,3.125 0 1 1 1033.2,257.15A3.125,3.125 0 1 1 1039.4,257.15Z" style="fill:none;stroke:#F15A60;stroke-width:0.625" />
<path d="M1046.3,80.771A3.125,3.125 0 1 1 1040.1,80.771A3.125,3.125 0 1 1 1046.3,80.771Z" style="fill:none;stroke:#F15A60;stroke-width:0.625" />
<path d="M1053.2,329.4A3.125,3.125 0 1 1 1047,329.4A3.125,3.125 0 1 1 1053.2,329.4Z" style="fill:none;stroke:#F15A60;stroke-width:0.625" />
<path d="M1060.1,167.36A3.125,3.125 0 1 1 1053.9,167.36A3.125,3.125 0 1 1 1060.1,167.36Z" style="fill:none;stroke:#F15A60;stroke-width:0.625" />
<path d="M1067.1,295.85L1067.1,295.85A3.125,3.125 0 1 1 1060.8,295.85A3.125,3.125 0 1 1 1067.1,295.85Z" style="fill:none;stroke:#F15A60;stroke-width:0.625" />
<path d="M1074,260.84L1074,260.84A3.125,3.125 0 1 1 1067.7,260.84A3.125,3.125 0 1 1 1074,260.84Z" style="fill:none;stroke:#F15A60;stroke-width:0.625" />
<path d="M1080.9,424.92A3.125,3.125 0 1 1 1074.6,424.92A3.125,3.125 0 1 1 1080.9,424.92Z" style="fill:none;stroke:#F15A60;stroke-width:0.625" />
<path d="M1087.8,414.43A3.125,3.125 0 1 1 1081.5,414.43A3.125,3.125 0 1 1 1087.8,414.43Z" style="fill:none;stroke:#F15A60;stroke-width:0.625" />
<path d="M1094.7,486.86L1094.7,486.86A3.125,3.125 0 1 1 1088.4,486.86A3.125,3.125 0 1 1 1094.7,486.86Z" style="fill:none;stroke:#F15A60;stroke-width:0.625" />
<path d="M1101.6,606.29A3.125,3.125 0 1 1 1095.3,606.29A3.125,3.125 0 1 1 1101.6,606.29Z" style="fill:none;stroke:#F15A60;stroke-width:0.625" />
<path d="M1108.5,501.18A3.125,3.125 0 1 1 1102.2,501.18A3.125,3.125 0 1 1 1108.5,501.18Z" style="fill:none;stroke:#F15A60;stroke-width:0.625" />
<path d="M1115.4,657.82A3.125,3.125 0 1 1 1109.1,657.82A3.125,3.125 0 1 1 1115.4,657.82Z" style="fill:none;stroke:#F15A60;stroke-width:0.625" />
<path d="M1122.3,699.73A3.125,3.125 0 1 1 1116.1,699.73A3.125,3.125 0 1 1 1122.3,699.73Z" style="fill:none;stroke:#F15A60;stroke-width:0.625" />
<path d="M1129.2,800.73A3.125,3.125 0 1 1 1123,800.73A3.125,3.125 0 1 1 1129.2,800.73Z" style="fill:none;stroke:#F15A60;stroke-width:0.625" />
<path d="M1136.1,592.68A3.125,3.125 0 1 1 1129.9,592.68A3.125,3.125 0 1 1 1136.1,592.68Z" style="fill:none;stroke:#F15A60;stroke-width:0.625" />
<path d="M1143,745.95L1143,745.95A3.125,3.125 0 1 1 1136.8,745.95A3.125,3.125 0 1 1 1143,745.95Z" style="fill:none;stroke:#F15A60;stroke-width:0.625" />
<path d="M1149.9,718.59A3.125,3.125 0 1 1 1143.7,718.59A3.125,3.125 0 1 1 1149.9,718.59Z" style="fill:none;stroke:#F15A60;stroke-width:0.625" />
<path d="M1156.8,750.49L1156.8,750.49A3.125,3.125 0 1 1 1150.6,750.49A3.125,3.125 0 1 1 1156.8,750.49Z" style="fill:none;stroke:#F15A60;stroke-width:0.625" />
<path d="M1163.7,509.79A3.125,3.125 0 1 1 1157.5,509.79A3.125,3.125 0 1 1 1163.7,509.79Z" style="fill:none;stroke:#F15A60;stroke-width:0.625" />
<path d="M1170.6,618.16A3.125,3.125 0 1 1 1164.4,618.16A3.125,3.125 0 1 1 1170.6,618.16Z" style="fill:none;stroke:#F15A60;stroke-width:0.625" />
<path d="M1177.6,563.59L1177.6,563.59A3.125,3.125 0 1 1 1171.3,563.59A3.125,3.125 0 1 1 1177.6,563.59Z" style="fill:none;stroke:#F15A60;stroke-width:0.625" />
<path d="M1184.5,422.45L1184.5,422.45A3.125,3.125 0 1 1 1178.2,422.45A3.125,3.125 0 1 1 1184.5,422.45Z" style="fill:none;stroke:#F15A60;stroke-width:0.625" />
<path d="M1191.4,362.23A3.125,3.125 0 1 1 1185.1,362.23A3.125,3.125 0 1 1 1191.4,362.23Z" style="fill:none;stroke:#F15A60;stroke-width:0.625" />
<path d="M1198.3,324.47A3.125,3.125 0 1 1 1192,324.47A3.125,3.125 0 1 1 1198.3,324.47Z" style="fill:none;stroke:#F15A60;stroke-width:0.625" />
<path d="M1205.2,308.19A3.125,3.125 0 1 1 1198.9,308.19A3.125,3.125 0 1 1 1205.2,308.19Z" style="fill:none;stroke:#F15A60;stroke-width:0.625" />
<path d="M1212.1,130.96A3.125,3.125 0 1 1 1205.8,130.96A3.125,3.125 0 1 1 1212.1,130.96Z" style="fill:none;stroke:#F15A60;stroke-width:0.625" />
<path d="M1219,279.49A3.125,3.125 0 1 1 1212.7,279.49A3.125,3.125 0 1 1 1219,279.49Z" style="fill:none;stroke:#F15A60;stroke-width:0.625" />
<path d="M1225.9,224.64A3.125,3.125 0 1 1 1219.7,224.64A3.125,3.125 0 1 1 1225.9,224.64Z" style="fill:none;stroke:#F15A60;stroke-width:0.625" />
<path d="M1232.8,293.09L1232.8,293.09A3.125,3.125 0 1 1 1226.6,293.09A3.125,3.125 0 1 1 1232.8,293.09Z" style="fill:none;stroke:#F15A60;stroke-width:0.625" />
<path d="M1239.7,58.133A3.125,3.125 0 1 1 1233.5,58.133A3.125,3.125 0 1 1 1239.7,58.133Z" style="fill:none;stroke:#F15A60;stroke-width:0.625" />
<path d="M1246.6,300.62L1246.6,300.62A3.125,3.125 0 1 1 1240.4,300.62A3.125,3.125 0 1 1 1246.6,300.62Z" style="fill:none;stroke:#F15A60;stroke-width:0.625" />
<path d="M1253.5,149.24A3.125,3.125 0 1 1 1247.3,149.24A3.125,3.125 0 1 1 1253.5,149.24Z" style="fill:none;stroke:#F15A60;stroke-width:0.625" />
<path d="M1260.4,283.9L1260.4,283.9A3.125,3.125 0 1 1 1254.2,283.9A3.125,3.125 0 1 1 1260.4,283.9Z" style="fill:none;stroke:#F15A60;stroke-width:0.625" />
<path d="M1267.3,326.55A3.125,3.125 0 1 1 1261.1,326.55A3.125,3.125 0 1 1 1267.3,326.55Z" style="fill:none;stroke:#F15A60;stroke-width:0.625" />
<path d="M1274.2,425.54A3.125,3.125 0 1 1 1268,425.54A3.125,3.125 0 1 1 1274.2,425.54Z" style="fill:none;stroke:#F15A60;stroke-width:0.625" />
<path d="M1281.2,461.96L1281.2,461.96A3.125,3.125 0 1 1 1274.9,461.96A3.125,3.125 0 1 1 1281.2,461.96Z" style="fill:none;stroke:#F15A60;stroke-width:0.625" />
<path d="M1288.1,374.17L1288.1,374.17A3.125,3.125 0 1 1 1281.8,374.17A3.125,3.125 0 1 1 1288.1,374.17Z" style="fill:none;stroke:#F15A60;stroke-width:0.625" />
<path d="M1295,373.52L1295,373.52A3.125,3.125 0 1 1 1288.7,373.52A3.125,3.125 0 1 1 1295,373.52Z" style="fill:none;stroke:#F15A60;stroke-width:0.625" />
<path d="M1301.9,504.94A3.125,3.125 0 1 1 1295.6,504.94A3.125,3.125 0 1 1 1301.9,504.94Z" style="fill:none;stroke:#F15A60;stroke-width:0.625" />
<path d="M1308.8,670.29A3.125,3.125 0 1 1 1302.5,670.29A3.125,3.125 0 1 1 1308.8,670.29Z" style="fill:none;stroke:#F15A60;stroke-width:0.625" />
<path d="M1315.7,633.19A3.125,3.125 0 1 1 1309.4,633.19A3.125,3.125 0 1 1 1315.7,633.19Z" style="fill:none;stroke:#F15A60;stroke-width:0.625" />
<path d="M1322.6,612.16A3.125,3.125 0 1 1 1316.3,612.16A3.125,3.125 0 1 1 1322.6,612.16Z" style="fill:none;stroke:#F15A60;stroke-width:0.625" />
<path d="M1329.5,567.03A3.125,3.125 0 1 1 1323.2,567.03A3.125,3.125 0 1 1 1329.5,567.03Z" style="fill:none;stroke:#F15A60;stroke-width:0.625" />
<path d="M1336.4,669.42L1336.4,669.42A3.125,3.125 0 1 1 1330.2,669.42A3.125,3.125 0 1 1 1336.4,669.42Z" style="fill:none;stroke:#F15A60;stroke-width:0.625" />
<path d="M1343.3,806.88L1343.3,806.88A3.125,3.125 0 1 1 1337.1,806.88A3.125,3.125 0 1 1 1343.3,806.88Z" style="fill:none;stroke:#F15A60;stroke-width:0.625" />
<path d="M1350.2,628.25L1350.2,628.25A3.125,3.125 0 1 1 1344,628.25A3.125,3.125 0 1 1 1350.2,628.25Z" style="fill:none;stroke:#F15A60;stroke-width:0.625" />
<path d="M1357.1,536.45A3.125,3.125 0 1 1 1350.9,536.45A3.125,3.125 0 1 1 1357.1,536.45Z" style="fill:none;stroke:#F15A60;stroke-width:0.625" />
<path d="M1364,658.06A3.125,3.125 0 1 1 1357.8,658.06A3.125,3.125 0 1 1 1364,658.06Z" style="fill:none;stroke:#F15A60;stroke-width:0.625" />
<path d="M1370.9,636.69A3.125,3.125 0 1 1 1364.7,636.69A3.125,3.125 0 1 1 1370.9,636.69Z" style="fill:none;stroke:#F15A60;stroke-width:0.625" />
<path d="M1377.8,464.14A3.125,3.125 0 1 1 1371.6,464.14A3.125,3.125 0 1 1 1377.8,464.14Z" style="fill:none;stroke:#F15A60;stroke-width:0.625" />
<path d="M1384.7,363.45A3.125,3.125 0 1 1 1378.5,363.45A3.125,3.125 0 1 1 1384.7,363.45Z" style="fill:none;stroke:#F15A60;stroke-width:0.625" />
<path d="M1391.7,466.32L1391.7,466.32A3.125,3.125 0 1 1 1385.4,466.32A3.125,3.125 0 1 1 1391.7,466.32Z" style="fill:none;stroke:#F15A60;stroke-width:0.625" />
<path d="M1398.6,324.18A3.125,3.125 0 1 1 1392.3,324.18A3.125,3.125 0 1 1 1398.6,324.18Z" style="fill:none;stroke:#F15A60;stroke-width:0.625" />
<path d="M1405.5,251.12L1405.5,251.12A3.125,3.125 0 1 1 1399.2,251.12A3.125,3.125 0 1 1 1405.5,251.12Z" style="fill:none;stroke:#F15A60;stroke-width:0.625" />
<path d="M1412.4,189.52L1412.4,189.52A3.125,3.125 0 1 1 1406.1,189.52A3.125,3.125 0 1 1 1412.4,189.52Z" style="fill:none;stroke:#F15A60;stroke-width:0.625" />
<path d="M1419.3,120.74A3.125,3.125 0 1 1 1413,120.74A3.125,3.125 0 1 1 1419.3,120.74Z" style="fill:none;stroke:#F15A60;stroke-width:0.625" />
<path d="M1426.2,188.49L1426.2,188.49A3.125,3.125 0 1 1 1419.9,188.49A3.125,3.125 0 1 1 1426.2,188.49Z" style="fill:none;stroke:#F15A60;stroke-width:0.625" />
<path d="M1433.1,101.02A3.125,3.125 0 1 1 1426.8,101.02A3.125,3.125 0 1 1 1433.1,101.02Z" style="fill:none;stroke:#F15A60;stroke-width:0.625" />
<path d="M1440,51.226A3.125,3.125 0 1 1 1433.8,51.226A3.125,3.125 0 1 1 1440,51.226Z" style="fill:none;stroke:#F15A60;stroke-width:0.625" />
<path d="M62.495,553.89L69.402,589.21L76.308,612.39L83.214,597.79L90.121,603.14L97.027,589.23L103.93,565.4L110.84,546.66L117.75,521.07L124.65,498.76L131.56,446.85L138.47,384.62L145.37,332.43L152.28,303.72L159.19,274.04L166.09,251.56L173,244.02L179.9,226.58L186.81,219.3L193.72,227.29L200.62,246.03L207.53,276.06L214.44,310.56L221.34,350.36L228.25,369.34L235.16,422.11L242.06,477.55L248.97,504.9L255.88,545.41L262.78,572.35L269.69,599.64L276.59,610.87L283.5,613.28L290.41,599.92L297.31,596.16L304.22,582.15L311.13,540.69L318.03,510.62L324.94,467.97L331.85,424.47L338.75,386.68L345.66,345.8L352.57,321.11L359.47,288.6L366.38,267.7L373.28,237.63L380.19,222.29L387.1,232.89L394,234.28L400.91,251.17L407.82,278.52L414.72,321.71L421.63,352.42L428.54,409.09L435.44,438.85L442.35,492L449.26,544.84L456.16,574.65L463.07,598.67L469.97,615.24L476.88,638.09L483.79,653.3L490.69,648.24L497.6,638.4L504.51,637.27L511.41,601.28L518.32,553.76L525.23,504.09L532.13,472.6L539.04,433.45L545.95,373.05L552.85,320.68L559.76,291.36L566.66,250.45L573.57,206.38L580.48,185.06L587.38,172.03L594.29,176.79L601.2,172.25L608.1,183.45L615.01,220.57L621.92,258.61L628.82,296.7L635.73,351.46L642.64,406.4L649.54,462.89L656.45,511.63L663.35,558.77L670.26,611.97L677.17,649.64L684.07,656.96L690.98,652.27L697.89,646.22L704.79,631.11L711.7,610.9L718.61,579.18L725.51,559.91L732.42,504.88L739.33,463.47L746.23,407.55L753.14,358.3L760.04,329.2L766.95,294.48L773.86,260.96L780.76,250.49L787.67,240.58L794.58,213.21L801.48,236.17L808.39,233.03L815.3,273.97L822.2,324.88L829.11,344.67L836.02,389.79L842.92,427.23L849.83,472.17L856.73,511.66L863.64,574.79L870.55,614.96L877.45,639.59L884.36,645.79L891.27,659.64L898.17,674.71L905.08,670.1L911.99,663.46L918.89,623.22L925.8,581.15L932.71,534.7L939.61,486.15L946.52,456.8L953.42,405.48L960.33,340.36L967.24,296.85L974.14,265.22L981.05,218.83L987.96,215.22L994.86,200.67L1001.8,198.87L1008.7,194.47L1015.6,210.99L1022.5,243.48L1029.4,285.41L1036.3,332.39L1043.2,356.79L1050.1,414.49L1057,451.53L1063.9,514.86L1070.8,544.55L1077.7,593.06L1084.6,622.42L1091.6,656.03L1098.5,658.32L1105.4,659.51L1112.3,665.75L1119.2,642.22L1126.1,608.47L1133,560.84L1139.9,532.39L1146.8,470.89L1153.7,426.98L1160.6,374.4L1167.5,352.73L1174.4,296.72L1181.3,270.43L1188.2,243.11L1195.1,235.27L1202.1,235.48L1209,247.22L1215.9,280.32L1222.8,289.78L1229.7,304.67L1236.6,325.86L1243.5,387.07L1250.4,420.33L1257.3,466.62L1264.2,494.94L1271.1,529.22L1278,567.36L1284.9,583.99L1291.8,600.21L1298.7,628.67L1305.7,641.84L1312.6,621.23L1319.5,594.25L1326.4,579.67L1333.3,555.38L1340.2,513.55L1347.1,451.82L1354,401.07L1360.9,366.27L1367.8,310.57L1374.7,252.02L1381.6,228.45L1388.5,211.58L1395.4,175.18L1402.3,150.35L1409.2,130.2L1416.2,115.37L1423.1,113.58L1430,76.122L1436.9,51.226" style="fill:none;stroke:#7AC36A;stroke-width:1.25;stroke-dasharray:7.5,2.5" />
<path d="M59.828,551.23L65.162,551.23L65.162,556.56L59.828,556.56Z" style="fill:none;stroke:#7AC36A;stroke-width:0.625" />
<path d="M66.734,586.54L72.069,586.54L72.069,591.88L66.734,591.88Z" style="fill:none;stroke:#7AC36A;stroke-width:0.625" />
<path d="M73.641,609.73L78.975,609.73L78.975,615.06L73.641,615.06Z" style="fill:none;stroke:#7AC36A;stroke-width:0.625" />
<path d="M80.547,595.12L85.882,595.12L85.882,600.45L80.547,600.45Z" style="fill:none;stroke:#7AC36A;stroke-width:0.625" />
<path d="M87.453,600.47L92.788,600.47L92.788,605.8L87.453,605.8Z" style="fill:none;stroke:#7AC36A;stroke-width:0.625" />
<path d="M94.36,586.57L99.695,586.57L99.695,591.9L94.36,591.9Z" style="fill:none;stroke:#7AC36A;stroke-width:0.625" />
<path d="M101.27,562.74L106.6,562.74L106.6,568.07L101.27,568.07Z" style="fill:none;stroke:#7AC36A;stroke-width:0.625" />
<path d="M108.17,543.99L113.51,543.99L113.51,549.32L108.17,549.32Z" style="fill:none;stroke:#7AC36A;stroke-width:0.625" />
<path d="M115.08,518.4L120.41,518.4L120.41,523.73L115.08,523.73Z" style="fill:none;stroke:#7AC36A;stroke-width:0.625" />
<path d="M121.99,496.09L127.32,496.09L127.32,501.43L121.99,501.43Z" style="fill:none;stroke:#7AC36A;stroke-width:0.625" />
<path d="M128.89,444.18L134.23,444.18L134.23,449.52L128.89,449.52Z" style="fill:none;stroke:#7AC36A;stroke-width:0.625" />
<path d="M135.8,381.95L141.13,381.95L141.13,387.28L135.8,387.28Z" style="fill:none;stroke:#7AC36A;stroke-width:0.625" />
<path d="M142.7,329.77L148.04,329.77L148.04,335.1L142.7,335.1Z" style="fill:none;stroke:#7AC36A;stroke-width:0.625" />
<path d="M149.61,301.05L154.95,301.05L154.95,306.39L149.61,306.39Z" style="fill:none;stroke:#7AC36A;stroke-width:0.625" />
<path d="M156.52,271.37L161.85,271.37L161.85,276.7L156.52,276.7Z" style="fill:none;stroke:#7AC36A;stroke-width:0.625" />
<path d="M163.42,248.9L168.76,248.9L168.76,254.23L163.42,254.23Z" style="fill:none;stroke:#7AC36A;stroke-width:0.625" />
<path d="M170.33,241.35L175.67,241.35L175.67,246.69L170.33,246.69Z" style="fill:none;stroke:#7AC36A;stroke-width:0.625" />
<path d="M177.24,223.91L182.57,223.91L182.57,229.24L177.24,229.24Z" style="fill:none;stroke:#7AC36A;stroke-width:0.625" />
<path d="M184.14,216.63L189.48,216.63L189.48,221.96L184.14,221.96Z" style="fill:none;stroke:#7AC36A;stroke-width:0.625" />
<path d="M191.05,224.62L196.38,224.62L196.38,229.96L191.05,229.96Z" style="fill:none;stroke:#7AC36A;stroke-width:0.625" />
<path d="M197.96,243.37L203.29,243.37L203.29,248.7L197.96,248.7Z" style="fill:none;stroke:#7AC36A;stroke-width:0.625" />
<path d="M204.86,273.39L210.2,273.39L210.2,278.73L204.86,278.73Z" style="fill:none;stroke:#7AC36A;stroke-width:0.625" />
<path d="M211.77,307.9L217.1,307.9L217.1,313.23L211.77,313.23Z" style="fill:none;stroke:#7AC36A;stroke-width:0.625" />
<path d="M218.68,347.69L224.01,347.69L224.01,353.03L218.68,353.03Z" style="fill:none;stroke:#7AC36A;stroke-width:0.625" />
<path d="M225.58,366.67L230.92,366.67L230.92,372L225.58,372Z" style="fill:none;stroke:#7AC36A;stroke-width:0.625" />
<path d="M232.49,419.45L237.82,419.45L237.82,424.78L232.49,424.78Z" style="fill:none;stroke:#7AC36A;stroke-width:0.625" />
<path d="M239.39,474.88L244.73,474.88L244.73,480.22L239.39,480.22Z" style="fill:none;stroke:#7AC36A;stroke-width:0.625" />
<path d="M246.3,502.23L251.64,502.23L251.64,507.57L246.3,507.57Z" style="fill:none;stroke:#7AC36A;stroke-width:0.625" />
<path d="M253.21,542.74L258.54,542.74L258.54,548.07L253.21,548.07Z" style="fill:none;stroke:#7AC36A;stroke-width:0.625" />
<path d="M260.11,569.68L265.45,569.68L265.45,575.01L260.11,575.01Z" style="fill:none;stroke:#7AC36A;stroke-width:0.625" />
<path d="M267.02,596.97L272.36,596.97L272.36,602.31L267.02,602.31Z" style="fill:none;stroke:#7AC36A;stroke-width:0.625" />
<path d="M273.93,608.21L279.26,608.21L279.26,613.54L273.93,613.54Z" style="fill:none;stroke:#7AC36A;stroke-width:0.625" />
<path d="M280.83,610.61L286.17,610.61L286.17,615.95L280.83,615.95Z" style="fill:none;stroke:#7AC36A;stroke-width:0.625" />
<path d="M287.74,597.26L293.07,597.26L293.07,602.59L287.74,602.59Z" style="fill:none;stroke:#7AC36A;stroke-width:0.625" />
<path d="M294.65,593.49L299.98,593.49L299.98,598.83L294.65,598.83Z" style="fill:none;stroke:#7AC36A;stroke-width:0.625" />
<path d="M301.55,579.48L306.89,579.48L306.89,584.81L301.55,584.81Z" style="fill:none;stroke:#7AC36A;stroke-width:0.625" />
<path d="M308.46,538.03L313.79,538.03L313.79,543.36L308.46,543.36Z" style="fill:none;stroke:#7AC36A;stroke-width:0.625" />
<path d="M315.37,507.95L320.7,507.95L320.7,513.28L315.37,513.28Z" style="fill:none;stroke:#7AC36A;stroke-width:0.625" />
<path d="M322.27,465.31L327.61,465.31L327.61,470.64L322.27,470.64Z" style="fill:none;stroke:#7AC36A;stroke-width:0.625" />
<path d="M329.18,421.8L334.51,421.8L334.51,427.14L329.18,427.14Z" style="fill:none;stroke:#7AC36A;stroke-width:0.625" />
<path d="M336.09,384.01L341.42,384.01L341.42,389.35L336.09,389.35Z" style="fill:none;stroke:#7AC36A;stroke-width:0.625" />
<path d="M342.99,343.14L348.33,343.14L348.33,348.47L342.99,348.47Z" style="fill:none;stroke:#7AC36A;stroke-width:0.625" />
<path d="M349.9,318.44L355.23,318.44L355.23,323.78L349.9,323.78Z" style="fill:none;stroke:#7AC36A;stroke-width:0.625" />
<path d="M356.8,285.93L362.14,285.93L362.14,291.27L356.8,291.27Z" style="fill:none;stroke:#7AC36A;stroke-width:0.625" />
<path d="M363.71,265.03L369.05,265.03L369.05,270.36L363.71,270.36Z" style="fill:none;stroke:#7AC36A;stroke-width:0.625" />
<path d="M370.62,234.96L375.95,234.96L375.95,240.3L370.62,240.3Z" style="fill:none;stroke:#7AC36A;stroke-width:0.625" />
<path d="M377.52,219.63L382.86,219.63L382.86,224.96L377.52,224.96Z" style="fill:none;stroke:#7AC36A;stroke-width:0.625" />
<path d="M384.43,230.22L389.76,230.22L389.76,235.56L384.43,235.56Z" style="fill:none;stroke:#7AC36A;stroke-width:0.625" />
<path d="M391.34,231.62L396.67,231.62L396.67,236.95L391.34,236.95Z" style="fill:none;stroke:#7AC36A;stroke-width:0.625" />
<path d="M398.24,248.5L403.58,248.5L403.58,253.84L398.24,253.84Z" style="fill:none;stroke:#7AC36A;stroke-width:0.625" />
<path d="M405.15,275.85L410.48,275.85L410.48,281.18L405.15,281.18Z" style="fill:none;stroke:#7AC36A;stroke-width:0.625" />
<path d="M412.06,319.04L417.39,319.04L417.39,324.37L412.06,324.37Z" style="fill:none;stroke:#7AC36A;stroke-width:0.625" />
<path d="M418.96,349.75L424.3,349.75L424.3,355.09L418.96,355.09Z" style="fill:none;stroke:#7AC36A;stroke-width:0.625" />
<path d="M425.87,406.43L431.2,406.43L431.2,411.76L425.87,411.76Z" style="fill:none;stroke:#7AC36A;stroke-width:0.625" />
<path d="M432.78,436.19L438.11,436.19L438.11,441.52L432.78,441.52Z" style="fill:none;stroke:#7AC36A;stroke-width:0.625" />
<path d="M439.68,489.33L445.02,489.33L445.02,494.67L439.68,494.67Z" style="fill:none;stroke:#7AC36A;stroke-width:0.625" />
<path d="M446.59,542.18L451.92,542.18L451.92,547.51L446.59,547.51Z" style="fill:none;stroke:#7AC36A;stroke-width:0.625" />
<path d="M453.49,571.99L458.83,571.99L458.83,577.32L453.49,577.32Z" style="fill:none;stroke:#7AC36A;stroke-width:0.625" />
<path d="M460.4,596.01L465.74,596.01L465.74,601.34L460.4,601.34Z" style="fill:none;stroke:#7AC36A;stroke-width:0.625" />
<path d="M467.31,612.57L472.64,612.57L472.64,617.91L467.31,617.91Z" style="fill:none;stroke:#7AC36A;stroke-width:0.625" />
<path d="M474.21,635.42L479.55,635.42L479.55,640.76L474.21,640.76Z" style="fill:none;stroke:#7AC36A;stroke-width:0.625" />
<path d="M481.12,650.63L486.45,650.63L486.45,655.97L481.12,655.97Z" style="fill:none;stroke:#7AC36A;stroke-width:0.625" />
<path d="M488.03,645.58L493.36,645.58L493.36,650.91L488.03,650.91Z" style="fill:none;stroke:#7AC36A;stroke-width:0.625" />
<path d="M494.93,635.74L500.27,635.74L500.27,641.07L494.93,641.07Z" style="fill:none;stroke:#7AC36A;stroke-width:0.625" />
<path d="M501.84,634.6L507.17,634.6L507.17,639.94L501.84,639.94Z" style="fill:none;stroke:#7AC36A;stroke-width:0.625" />
<path d="M508.75,598.61L514.08,598.61L514.08,603.94L508.75,603.94Z" style="fill:none;stroke:#7AC36A;stroke-width:0.625" />
<path d="M515.65,551.09L520.99,551.09L520.99,556.43L515.65,556.43Z" style="fill:none;stroke:#7AC36A;stroke-width:0.625" />
<path d="M522.56,501.43L527.89,501.43L527.89,506.76L522.56,506.76Z" style="fill:none;stroke:#7AC36A;stroke-width:0.625" />
<path d="M529.47,469.93L534.8,469.93L534.8,475.26L529.47,475.26Z" style="fill:none;stroke:#7AC36A;stroke-width:0.625" />
<path d="M536.37,430.78L541.71,430.78L541.71,436.12L536.37,436.12Z" style="fill:none;stroke:#7AC36A;stroke-width:0.625" />
<path d="M543.28,370.38L548.61,370.38L548.61,375.71L543.28,375.71Z" style="fill:none;stroke:#7AC36A;stroke-width:0.625" />
<path d="M550.18,318.01L555.52,318.01L555.52,323.35L550.18,323.35Z" style="fill:none;stroke:#7AC36A;stroke-width:0.625" />
<path d="M557.09,288.69L562.43,288.69L562.43,294.03L557.09,294.03Z" style="fill:none;stroke:#7AC36A;stroke-width:0.625" />
<path d="M564,247.78L569.33,247.78L569.33,253.12L564,253.12Z" style="fill:none;stroke:#7AC36A;stroke-width:0.625" />
<path d="M570.9,203.71L576.24,203.71L576.24,209.05L570.9,209.05Z" style="fill:none;stroke:#7AC36A;stroke-width:0.625" />
<path d="M577.81,182.39L583.14,182.39L583.14,187.73L577.81,187.73Z" style="fill:none;stroke:#7AC36A;stroke-width:0.625" />
<path d="M584.72,169.37L590.05,169.37L590.05,174.7L584.72,174.7Z" style="fill:none;stroke:#7AC36A;stroke-width:0.625" />
<path d="M591.62,174.12L596.96,174.12L596.96,179.46L591.62,179.46Z" style="fill:none;stroke:#7AC36A;stroke-width:0.625" />
<path d="M598.53,169.59L603.86,169.59L603.86,174.92L598.53,174.92Z" style="fill:none;stroke:#7AC36A;stroke-width:0.625" />
<path d="M605.44,180.78L610.77,180.78L610.77,186.12L605.44,186.12Z" style="fill:none;stroke:#7AC36A;stroke-width:0.625" />
<path d="M612.34,217.9L617.68,217.9L617.68,223.23L612.34,223.23Z" style="fill:none;stroke:#7AC36A;stroke-width:0.625" />
<path d="M619.25,255.94L624.58,255.94L624.58,261.27L619.25,261.27Z" style="fill:none;stroke:#7AC36A;stroke-width:0.625" />
<path d="M626.16,294.03L631.49,294.03L631.49,299.36L626.16,299.36Z" style="fill:none;stroke:#7AC36A;stroke-width:0.625" />
<path d="M633.06,348.79L638.4,348.79L638.4,354.12L633.06,354.12Z" style="fill:none;stroke:#7AC36A;stroke-width:0.625" />
<path d="M639.97,403.73L645.3,403.73L645.3,409.06L639.97,409.06Z" style="fill:none;stroke:#7AC36A;stroke-width:0.625" />
<path d="M646.87,460.23L652.21,460.23L652.21,465.56L646.87,465.56Z" style="fill:none;stroke:#7AC36A;stroke-width:0.625" />
<path d="M653.78,508.96L659.12,508.96L659.12,514.3L653.78,514.3Z" style="fill:none;stroke:#7AC36A;stroke-width:0.625" />
<path d="M660.69,556.1L666.02,556.1L666.02,561.44L660.69,561.44Z" style="fill:none;stroke:#7AC36A;stroke-width:0.625" />
<path d="M667.59,609.3L672.93,609.3L672.93,614.63L667.59,614.63Z" style="fill:none;stroke:#7AC36A;stroke-width:0.625" />
<path d="M674.5,646.97L679.83,646.97L679.83,652.3L674.5,652.3Z" style="fill:none;stroke:#7AC36A;stroke-width:0.625" />
<path d="M681.41,654.3L686.74,654.3L686.74,659.63L681.41,659.63Z" style="fill:none;stroke:#7AC36A;stroke-width:0.625" />
<path d="M688.31,649.6L693.65,649.6L693.65,654.94L688.31,654.94Z" style="fill:none;stroke:#7AC36A;stroke-width:0.625" />
<path d="M695.22,643.55L700.55,643.55L700.55,648.89L695.22,648.89Z" style="fill:none;stroke:#7AC36A;stroke-width:0.625" />
<path d="M702.13,628.44L707.46,628.44L707.46,633.78L702.13,633.78Z" style="fill:none;stroke:#7AC36A;stroke-width:0.625" />
<path d="M709.03,608.23L714.37,608.23L714.37,613.57L709.03,613.57Z" style="fill:none;stroke:#7AC36A;stroke-width:0.625" />
<path d="M715.94,576.51L721.27,576.51L721.27,581.85L715.94,581.85Z" style="fill:none;stroke:#7AC36A;stroke-width:0.625" />
<path d="M722.85,557.24L728.18,557.24L728.18,562.58L722.85,562.58Z" style="fill:none;stroke:#7AC36A;stroke-width:0.625" />
<path d="M729.75,502.21L735.09,502.21L735.09,507.55L729.75,507.55Z" style="fill:none;stroke:#7AC36A;stroke-width:0.625" />
<path d="M736.66,460.8L741.99,460.8L741.99,466.13L736.66,466.13Z" style="fill:none;stroke:#7AC36A;stroke-width:0.625" />
<path d="M743.56,404.88L748.9,404.88L748.9,410.22L743.56,410.22Z" style="fill:none;stroke:#7AC36A;stroke-width:0.625" />
<path d="M750.47,355.64L755.81,355.64L755.81,360.97L750.47,360.97Z" style="fill:none;stroke:#7AC36A;stroke-width:0.625" />
<path d="M757.38,326.53L762.71,326.53L762.71,331.86L757.38,331.86Z" style="fill:none;stroke:#7AC36A;stroke-width:0.625" />
<path d="M764.28,291.81L769.62,291.81L769.62,297.14L764.28,297.14Z" style="fill:none;stroke:#7AC36A;stroke-width:0.625" />
<path d="M771.19,258.29L776.52,258.29L776.52,263.63L771.19,263.63Z" style="fill:none;stroke:#7AC36A;stroke-width:0.625" />
<path d="M778.1,247.82L783.43,247.82L783.43,253.15L778.1,253.15Z" style="fill:none;stroke:#7AC36A;stroke-width:0.625" />
<path d="M785,237.92L790.34,237.92L790.34,243.25L785,243.25Z" style="fill:none;stroke:#7AC36A;stroke-width:0.625" />
<path d="M791.91,210.54L797.24,210.54L797.24,215.87L791.91,215.87Z" style="fill:none;stroke:#7AC36A;stroke-width:0.625" />
<path d="M798.82,233.5L804.15,233.5L804.15,238.84L798.82,238.84Z" style="fill:none;stroke:#7AC36A;stroke-width:0.625" />
<path d="M805.72,230.37L811.06,230.37L811.06,235.7L805.72,235.7Z" style="fill:none;stroke:#7AC36A;stroke-width:0.625" />
<path d="M812.63,271.31L817.96,271.31L817.96,276.64L812.63,276.64Z" style="fill:none;stroke:#7AC36A;stroke-width:0.625" />
<path d="M819.54,322.21L824.87,322.21L824.87,327.55L819.54,327.55Z" style="fill:none;stroke:#7AC36A;stroke-width:0.625" />
<path d="M826.44,342L831.78,342L831.78,347.34L826.44,347.34Z" style="fill:none;stroke:#7AC36A;stroke-width:0.625" />
<path d="M833.35,387.13L838.68,387.13L838.68,392.46L833.35,392.46Z" style="fill:none;stroke:#7AC36A;stroke-width:0.625" />
<path d="M840.25,424.56L845.59,424.56L845.59,429.9L840.25,429.9Z" style="fill:none;stroke:#7AC36A;stroke-width:0.625" />
<path d="M847.16,469.51L852.5,469.51L852.5,474.84L847.16,474.84Z" style="fill:none;stroke:#7AC36A;stroke-width:0.625" />
<path d="M854.07,508.99L859.4,508.99L859.4,514.32L854.07,514.32Z" style="fill:none;stroke:#7AC36A;stroke-width:0.625" />
<path d="M860.97,572.13L866.31,572.13L866.31,577.46L860.97,577.46Z" style="fill:none;stroke:#7AC36A;stroke-width:0.625" />
<path d="M867.88,612.29L873.21,612.29L873.21,617.63L867.88,617.63Z" style="fill:none;stroke:#7AC36A;stroke-width:0.625" />
<path d="M874.79,636.92L880.12,636.92L880.12,642.25L874.79,642.25Z" style="fill:none;stroke:#7AC36A;stroke-width:0.625" />
<path d="M881.69,643.12L887.03,643.12L887.03,648.45L881.69,648.45Z" style="fill:none;stroke:#7AC36A;stroke-width:0.625" />
<path d="M888.6,656.97L893.93,656.97L893.93,662.3L888.6,662.3Z" style="fill:none;stroke:#7AC36A;stroke-width:0.625" />
<path d="M895.51,672.04L900.84,672.04L900.84,677.38L895.51,677.38Z" style="fill:none;stroke:#7AC36A;stroke-width:0.625" />
<path d="M902.41,667.44L907.75,667.44L907.75,672.77L902.41,672.77Z" style="fill:none;stroke:#7AC36A;stroke-width:0.625" />
<path d="M909.32,660.79L914.65,660.79L914.65,666.13L909.32,666.13Z" style="fill:none;stroke:#7AC36A;stroke-width:0.625" />
<path d="M916.23,620.56L921.56,620.56L921.56,625.89L916.23,625.89Z" style="fill:none;stroke:#7AC36A;stroke-width:0.625" />
<path d="M923.13,578.48L928.47,578.48L928.47,583.82L923.13,583.82Z" style="fill:none;stroke:#7AC36A;stroke-width:0.625" />
<path d="M930.04,532.03L935.37,532.03L935.37,537.37L930.04,537.37Z" style="fill:none;stroke:#7AC36A;stroke-width:0.625" />
<path d="M936.94,483.49L942.28,483.49L942.28,488.82L936.94,488.82Z" style="fill:none;stroke:#7AC36A;stroke-width:0.625" />
<path d="M943.85,454.13L949.19,454.13L949.19,459.46L943.85,459.46Z" style="fill:none;stroke:#7AC36A;stroke-width:0.625" />
<path d="M950.76,402.82L956.09,402.82L956.09,408.15L950.76,408.15Z" style="fill:none;stroke:#7AC36A;stroke-width:0.625" />
<path d="M957.66,337.69L963,337.69L963,343.02L957.66,343.02Z" style="fill:none;stroke:#7AC36A;stroke-width:0.625" />
<path d="M964.57,294.18L969.91,294.18L969.91,299.51L964.57,299.51Z" style="fill:none;stroke:#7AC36A;stroke-width:0.625" />
<path d="M971.48,262.55L976.81,262.55L976.81,267.88L971.48,267.88Z" style="fill:none;stroke:#7AC36A;stroke-width:0.625" />
<path d="M978.38,216.16L983.72,216.16L983.72,221.5L978.38,221.5Z" style="fill:none;stroke:#7AC36A;stroke-width:0.625" />
<path d="M985.29,212.55L990.62,212.55L990.62,217.89L985.29,217.89Z" style="fill:none;stroke:#7AC36A;stroke-width:0.625" />
<path d="M992.2,198.01L997.53,198.01L997.53,203.34L992.2,203.34Z" style="fill:none;stroke:#7AC36A;stroke-width:0.625" />
<path d="M999.1,196.21L1004.4,196.21L1004.4,201.54L999.1,201.54Z" style="fill:none;stroke:#7AC36A;stroke-width:0.625" />
<path d="M1006,191.81L1011.3,191.81L1011.3,197.14L1006,197.14Z" style="fill:none;stroke:#7AC36A;stroke-width:0.625" />
<path d="M1012.9,208.32L1018.3,208.32L1018.3,213.66L1012.9,213.66Z" style="fill:none;stroke:#7AC36A;stroke-width:0.625" />
<path d="M1019.8,240.81L1025.2,240.81L1025.2,246.15L1019.8,246.15Z" style="fill:none;stroke:#7AC36A;stroke-width:0.625" />
<path d="M1026.7,282.74L1032.1,282.74L1032.1,288.08L1026.7,288.08Z" style="fill:none;stroke:#7AC36A;stroke-width:0.625" />
<path d="M1033.6,329.72L1039,329.72L1039,335.05L1033.6,335.05Z" style="fill:none;stroke:#7AC36A;stroke-width:0.625" />
<path d="M1040.5,354.12L1045.9,354.12L1045.9,359.46L1040.5,359.46Z" style="fill:none;stroke:#7AC36A;stroke-width:0.625" />
<path d="M1047.4,411.83L1052.8,411.83L1052.8,417.16L1047.4,417.16Z" style="fill:none;stroke:#7AC36A;stroke-width:0.625" />
<path d="M1054.4,448.86L1059.7,448.86L1059.7,454.19L1054.4,454.19Z" style="fill:none;stroke:#7AC36A;stroke-width:0.625" />
<path d="M1061.3,512.2L1066.6,512.2L1066.6,517.53L1061.3,517.53Z" style="fill:none;stroke:#7AC36A;stroke-width:0.625" />
<path d="M1068.2,541.88L1073.5,541.88L1073.5,547.22L1068.2,547.22Z" style="fill:none;stroke:#7AC36A;stroke-width:0.625" />
<path d="M1075.1,590.39L1080.4,590.39L1080.4,595.73L1075.1,595.73Z" style="fill:none;stroke:#7AC36A;stroke-width:0.625" />
<path d="M1082,619.76L1087.3,619.76L1087.3,625.09L1082,625.09Z" style="fill:none;stroke:#7AC36A;stroke-width:0.625" />
<path d="M1088.9,653.36L1094.2,653.36L1094.2,658.7L1088.9,658.7Z" style="fill:none;stroke:#7AC36A;stroke-width:0.625" />
<path d="M1095.8,655.66L1101.1,655.66L1101.1,660.99L1095.8,660.99Z" style="fill:none;stroke:#7AC36A;stroke-width:0.625" />
<path d="M1102.7,656.84L1108,656.84L1108,662.18L1102.7,662.18Z" style="fill:none;stroke:#7AC36A;stroke-width:0.625" />
<path d="M1109.6,663.09L1114.9,663.09L1114.9,668.42L1109.6,668.42Z" style="fill:none;stroke:#7AC36A;stroke-width:0.625" />
<path d="M1116.5,639.55L1121.8,639.55L1121.8,644.88L1116.5,644.88Z" style="fill:none;stroke:#7AC36A;stroke-width:0.625" />
<path d="M1123.4,605.8L1128.8,605.8L1128.8,611.13L1123.4,611.13Z" style="fill:none;stroke:#7AC36A;stroke-width:0.625" />
<path d="M1130.3,558.17L1135.7,558.17L1135.7,563.51L1130.3,563.51Z" style="fill:none;stroke:#7AC36A;stroke-width:0.625" />
<path d="M1137.2,529.72L1142.6,529.72L1142.6,535.06L1137.2,535.06Z" style="fill:none;stroke:#7AC36A;stroke-width:0.625" />
<path d="M1144.1,468.23L1149.5,468.23L1149.5,473.56L1144.1,473.56Z" style="fill:none;stroke:#7AC36A;stroke-width:0.625" />
<path d="M1151,424.32L1156.4,424.32L1156.4,429.65L1151,429.65Z" style="fill:none;stroke:#7AC36A;stroke-width:0.625" />
<path d="M1158,371.73L1163.3,371.73L1163.3,377.06L1158,377.06Z" style="fill:none;stroke:#7AC36A;stroke-width:0.625" />
<path d="M1164.9,350.06L1170.2,350.06L1170.2,355.39L1164.9,355.39Z" style="fill:none;stroke:#7AC36A;stroke-width:0.625" />
<path d="M1171.8,294.06L1177.1,294.06L1177.1,299.39L1171.8,299.39Z" style="fill:none;stroke:#7AC36A;stroke-width:0.625" />
<path d="M1178.7,267.76L1184,267.76L1184,273.09L1178.7,273.09Z" style="fill:none;stroke:#7AC36A;stroke-width:0.625" />
<path d="M1185.6,240.44L1190.9,240.44L1190.9,245.77L1185.6,245.77Z" style="fill:none;stroke:#7AC36A;stroke-width:0.625" />
<path d="M1192.5,232.61L1197.8,232.61L1197.8,237.94L1192.5,237.94Z" style="fill:none;stroke:#7AC36A;stroke-width:0.625" />
<path d="M1199.4,232.81L1204.7,232.81L1204.7,238.15L1199.4,238.15Z" style="fill:none;stroke:#7AC36A;stroke-width:0.625" />
<path d="M1206.3,244.55L1211.6,244.55L1211.6,249.88L1206.3,249.88Z" style="fill:none;stroke:#7AC36A;stroke-width:0.625" />
<path d="M1213.2,277.65L1218.5,277.65L1218.5,282.98L1213.2,282.98Z" style="fill:none;stroke:#7AC36A;stroke-width:0.625" />
<path d="M1220.1,287.12L1225.4,287.12L1225.4,292.45L1220.1,292.45Z" style="fill:none;stroke:#7AC36A;stroke-width:0.625" />
<path d="M1227,302.01L1232.3,302.01L1232.3,307.34L1227,307.34Z" style="fill:none;stroke:#7AC36A;stroke-width:0.625" />
<path d="M1233.9,323.19L1239.3,323.19L1239.3,328.53L1233.9,328.53Z" style="fill:none;stroke:#7AC36A;stroke-width:0.625" />
<path d="M1240.8,384.41L1246.2,384.41L1246.2,389.74L1240.8,389.74Z" style="fill:none;stroke:#7AC36A;stroke-width:0.625" />
<path d="M1247.7,417.66L1253.1,417.66L1253.1,423L1247.7,423Z" style="fill:none;stroke:#7AC36A;stroke-width:0.625" />
<path d="M1254.6,463.96L1260,463.96L1260,469.29L1254.6,469.29Z" style="fill:none;stroke:#7AC36A;stroke-width:0.625" />
<path d="M1261.5,492.27L1266.9,492.27L1266.9,497.6L1261.5,497.6Z" style="fill:none;stroke:#7AC36A;stroke-width:0.625" />
<path d="M1268.5,526.56L1273.8,526.56L1273.8,531.89L1268.5,531.89Z" style="fill:none;stroke:#7AC36A;stroke-width:0.625" />
<path d="M1275.4,564.69L1280.7,564.69L1280.7,570.02L1275.4,570.02Z" style="fill:none;stroke:#7AC36A;stroke-width:0.625" />
<path d="M1282.3,581.32L1287.6,581.32L1287.6,586.65L1282.3,586.65Z" style="fill:none;stroke:#7AC36A;stroke-width:0.625" />
<path d="M1289.2,597.55L1294.5,597.55L1294.5,602.88L1289.2,602.88Z" style="fill:none;stroke:#7AC36A;stroke-width:0.625" />
<path d="M1296.1,626L1301.4,626L1301.4,631.34L1296.1,631.34Z" style="fill:none;stroke:#7AC36A;stroke-width:0.625" />
<path d="M1303,639.18L1308.3,639.18L1308.3,644.51L1303,644.51Z" style="fill:none;stroke:#7AC36A;stroke-width:0.625" />
<path d="M1309.9,618.56L1315.2,618.56L1315.2,623.9L1309.9,623.9Z" style="fill:none;stroke:#7AC36A;stroke-width:0.625" />
<path d="M1316.8,591.59L1322.1,591.59L1322.1,596.92L1316.8,596.92Z" style="fill:none;stroke:#7AC36A;stroke-width:0.625" />
<path d="M1323.7,577L1329,577L1329,582.34L1323.7,582.34Z" style="fill:none;stroke:#7AC36A;stroke-width:0.625" />
<path d="M1330.6,552.72L1335.9,552.72L1335.9,558.05L1330.6,558.05Z" style="fill:none;stroke:#7AC36A;stroke-width:0.625" />
<path d="M1337.5,510.89L1342.9,510.89L1342.9,516.22L1337.5,516.22Z" style="fill:none;stroke:#7AC36A;stroke-width:0.625" />
<path d="M1344.4,449.15L1349.8,449.15L1349.8,454.49L1344.4,454.49Z" style="fill:none;stroke:#7AC36A;stroke-width:0.625" />
<path d="M1351.3,398.4L1356.7,398.4L1356.7,403.73L1351.3,403.73Z" style="fill:none;stroke:#7AC36A;stroke-width:0.625" />
<path d="M1358.2,363.6L1363.6,363.6L1363.6,368.94L1358.2,368.94Z" style="fill:none;stroke:#7AC36A;stroke-width:0.625" />
<path d="M1365.1,307.9L1370.5,307.9L1370.5,313.23L1365.1,313.23Z" style="fill:none;stroke:#7AC36A;stroke-width:0.625" />
<path d="M1372,249.35L1377.4,249.35L1377.4,254.69L1372,254.69Z" style="fill:none;stroke:#7AC36A;stroke-width:0.625" />
<path d="M1379,225.78L1384.3,225.78L1384.3,231.12L1379,231.12Z" style="fill:none;stroke:#7AC36A;stroke-width:0.625" />
<path d="M1385.9,208.91L1391.2,208.91L1391.2,214.24L1385.9,214.24Z" style="fill:none;stroke:#7AC36A;stroke-width:0.625" />
<path d="M1392.8,172.52L1398.1,172.52L1398.1,177.85L1392.8,177.85Z" style="fill:none;stroke:#7AC36A;stroke-width:0.625" />
<path d="M1399.7,147.69L1405,147.69L1405,153.02L1399.7,153.02Z" style="fill:none;stroke:#7AC36A;stroke-width:0.625" />
<path d="M1406.6,127.53L1411.9,127.53L1411.9,132.87L1406.6,132.87Z" style="fill:none;stroke:#7AC36A;stroke-width:0.625" />
<path d="M1413.5,112.7L1418.8,112.7L1418.8,118.04L1413.5,118.04Z" style="fill:none;stroke:#7AC36A;stroke-width:0.625" />
<path d="M1420.4,110.91L1425.7,110.91L1425.7,116.25L1420.4,116.25Z" style="fill:none;stroke:#7AC36A;stroke-width:0.625" />
<path d="M1427.3,73.454L1432.6,73.454L1432.6,78.789L1427.3,78.789Z" style="fill:none;stroke:#7AC36A;stroke-width:0.625" />
<path d="M1434.2,48.558L1439.5,48.558L1439.5,53.893L1434.2,53.893Z" style="fill:none;stroke:#7AC36A;stroke-width:0.625" />
<path d="M1415,70.183L1440,70.183" style="fill:none;stroke:#F15A60;stroke-width:1.25" />
<path d="M1430.6,70.183A3.125,3.125 0 1 1 1424.4,70.183A3.125,3.125 0 1 1 1430.6,70.183Z" style="fill:none;stroke:#F15A60;stroke-width:0.625" />
<text x="1388.8" y="-63.101" transform="scale(1, -1)"
	style="font-family:Times;font-weight:normal;font-style:normal;font-size:12pt">raw</text>
<path d="M1415,55.461L1440,55.461" style="fill:none;stroke:#7AC36A;stroke-width:1.25;stroke-dasharray:7.5,2.5" />
<path d="M1424.8,52.794L1430.2,52.794L1430.2,58.129L1424.8,58.129Z" style="fill:none;stroke:#7AC36A;stroke-width:0.625" />
<text x="1367.1" y="-48.379" transform="scale(1, -1)"
	style="font-family:Times;font-weight:normal;font-style:normal;font-size:12pt">smooth</text>
</g>
</svg>
