<?xml version="1.0"?>
<!-- Generated by SVGo and Plotinum VG -->
<svg width="16in" height="9in"
	xmlns="http://www.w3.org/2000/svg"
	xmlns:xlink="http://www.w3.org/1999/xlink">
<g transform="scale(1, -1) translate(0, -810)">
<path d="M0,0L1440,0L1440,810L0,810Z" style="fill:#FFFFFF" />
<text x="744.27" y="-4.8267" transform="scale(1, -1)"
	style="font-family:Times;font-weight:normal;font-style:normal;font-size:12pt">X</text>
<text x="59.37" y="-19.502" transform="scale(1, -1)"
	style="font-family:Times;font-weight:normal;font-style:normal;font-size:10pt">0</text>
<text x="470.63" y="-19.502" transform="scale(1, -1)"
	style="font-family:Times;font-weight:normal;font-style:normal;font-size:10pt">60</text>
<text x="881.89" y="-19.502" transform="scale(1, -1)"
	style="font-family:Times;font-weight:normal;font-style:normal;font-size:10pt">120</text>
<text x="1296.3" y="-19.502" transform="scale(1, -1)"
	style="font-family:Times;font-weight:normal;font-style:normal;font-size:10pt">180</text>
<path d="M62.495,31.538L62.495,41.538" style="fill:none;stroke:#000000;stroke-width:0.625" />
<path d="M476.88,31.538L476.88,41.538" style="fill:none;stroke:#000000;stroke-width:0.625" />
<path d="M891.27,31.538L891.27,41.538" style="fill:none;stroke:#000000;stroke-width:0.625" />
<path d="M1305.7,31.538L1305.7,41.538" style="fill:none;stroke:#000000;stroke-width:0.625" />
<path d="M200.62,36.538L200.62,41.538" style="fill:none;stroke:#000000;stroke-width:0.625" />
<path d="M338.75,36.538L338.75,41.538" style="fill:none;stroke:#000000;stroke-width:0.625" />
<path d="M615.01,36.538L615.01,41.538" style="fill:none;stroke:#000000;stroke-width:0.625" />
<path d="M753.14,36.538L753.14,41.538" style="fill:none;stroke:#000000;stroke-width:0.625" />
<path d="M1029.4,36.538L1029.4,41.538" style="fill:none;stroke:#000000;stroke-width:0.625" />
<path d="M1167.5,36.538L1167.5,41.538" style="fill:none;stroke:#000000;stroke-width:0.625" />
<path d="M62.495,41.538L1436.9,41.538" style="fill:none;stroke:#000000;stroke-width:0.625" />
<g transform="rotate(90)">
<text x="423.63" y="14.443" transform="scale(1, -1)"
	style="font-family:Times;font-weight:normal;font-style:normal;font-size:12pt">Y</text>
</g>
<text x="19.27" y="-91.126" transform="scale(1, -1)"
	style="font-family:Times;font-weight:normal;font-style:normal;font-size:10pt">-0.8</text>
<text x="32.808" y="-295.09" transform="scale(1, -1)"
	style="font-family:Times;font-weight:normal;font-style:normal;font-size:10pt">0</text>
<text x="23.433" y="-499.05" transform="scale(1, -1)"
	style="font-family:Times;font-weight:normal;font-style:normal;font-size:10pt">0.8</text>
<text x="23.433" y="-703.01" transform="scale(1, -1)"
	style="font-family:Times;font-weight:normal;font-style:normal;font-size:10pt">1.6</text>
<path d="M42.183,97.028L52.183,97.028" style="fill:none;stroke:#000000;stroke-width:0.625" />
<path d="M42.183,300.99L52.183,300.99" style="fill:none;stroke:#000000;stroke-width:0.625" />
<path d="M42.183,504.95L52.183,504.95" style="fill:none;stroke:#000000;stroke-width:0.625" />
<path d="M42.183,708.91L52.183,708.91" style="fill:none;stroke:#000000;stroke-width:0.625" />
<path d="M47.183,97.028L52.183,97.028" style="fill:none;stroke:#000000;stroke-width:0.625" />
<path d="M47.183,199.01L52.183,199.01" style="fill:none;stroke:#000000;stroke-width:0.625" />
<path d="M47.183,300.99L52.183,300.99" style="fill:none;stroke:#000000;stroke-width:0.625" />
<path d="M47.183,402.97L52.183,402.97" style="fill:none;stroke:#000000;stroke-width:0.625" />
<path d="M47.183,504.95L52.183,504.95" style="fill:none;stroke:#000000;stroke-width:0.625" />
<path d="M47.183,606.93L52.183,606.93" style="fill:none;stroke:#000000;stroke-width:0.625" />
<path d="M52.183,51.226L52.183,806.88" style="fill:none;stroke:#000000;stroke-width:0.625" />
<path d="M62.495,420.54L69.402,361.32L76.308,590.82L83.214,654.48L90.121,624.92L97.027,691.65L103.93,775.57L110.84,575.57L117.75,625.65L124.65,559.89L131.56,600.68L138.47,642.73L145.37,538.38L152.28,548.78L159.19,646.19L166.09,465.87L173,496.69L179.9,357.91L186.81,512.3L193.72,368.59L200.62,241.14L207.53,271.23L214.44,372.13L221.34,129.99L228.25,266.75L235.16,215.67L242.06,304.42L248.97,51.226L255.88,118.15L262.78,99.74L269.69,171L276.59,359.96L283.5,279.27L290.41,208.12L297.31,363.37L304.22,368.77L311.13,448.09L318.03,397.59L324.94,550.66L331.85,525.88L338.75,578.92L345.66,662.58L352.57,763.36L359.47,723.9L366.38,698.52L373.28,624.96L380.19,726.66L387.1,604.13L394,549.7L400.91,524.28L407.82,477.07L414.72,565.91L421.63,452.52L428.54,498.03L435.44,522.23L442.35,380.53L449.26,282.83L456.16,235.57L463.07,209.07L469.97,152.44L476.88,211.7L483.79,192.87L490.69,198.35L497.6,150.92L504.51,95.141L511.41,151.45L518.32,170.02L525.23,357.68L532.13,202.81L539.04,411.3L545.95,340.23L552.85,429.12L559.76,375.47L566.66,497.31L573.57,541.38L580.48,628.18L587.38,608.33L594.29,627.23L601.2,709.39L608.1,590.36L615.01,730.94L621.92,787.79L628.82,750.87L635.73,626.18L642.64,735.2L649.54,647.14L656.45,483.06L663.35,463.62L670.26,430.12L677.17,513.72L684.07,512.25L690.98,262.29L697.89,442.38L704.79,365.66L711.7,148.19L718.61,316.99L725.51,215.16L732.42,309.59L739.33,116.42L746.23,168.28L753.14,173.64L760.04,64.458L766.95,216.18L773.86,270.62L780.76,229.29L787.67,418.46L794.58,229.46L801.48,281.88L808.39,337.36L815.3,529.87L822.2,458.36L829.11,665.36L836.02,532.94L842.92,586.19L849.83,570.5L856.73,658.05L863.64,806.88L870.55,571.11L877.45,754.14L884.36,696.16L891.27,530.59L898.17,716.09L905.08,471.44L911.99,556.52L918.89,456.73L925.8,533.03L932.71,303.38L939.61,286.71L946.52,277.3L953.42,175L960.33,331.05L967.24,226.68L974.14,79.848L981.05,132.12L987.96,109.12L994.86,299.42L1001.8,193.05L1008.7,302.75L1015.6,132.15L1022.5,211.03L1029.4,198L1036.3,399.55L1043.2,460.4L1050.1,445.73L1057,315.4L1063.9,472.09L1070.8,509.25L1077.7,551.13L1084.6,465.86L1091.6,722.37L1098.5,626.78L1105.4,754.6L1112.3,567.99L1119.2,726.62L1126.1,613.72L1133,756.93L1139.9,740.01L1146.8,666.1L1153.7,509.61L1160.6,531.48L1167.5,570.78L1174.4,410.9L1181.3,467.23L1188.2,493.64L1195.1,420.89L1202.1,194.76L1209,215.37L1215.9,107.69L1222.8,117.33L1229.7,251.51L1236.6,265.45L1243.5,294.38L1250.4,60.803L1257.3,82.979L1264.2,298.61L1271.1,154.88L1278,225.92L1284.9,232.82L1291.8,249.71L1298.7,276.35L1305.7,407.15L1312.6,382.46L1319.5,424.7L1326.4,668.77L1333.3,675.35L1340.2,708.94L1347.1,665.51L1354,575.01L1360.9,698.39L1367.8,571.81L1374.7,773.41L1381.6,552.69L1388.5,550.79L1395.4,524.58L1402.3,548.96L1409.2,475.94L1416.2,515.67L1423.1,569.59L1430,317.99L1436.9,460.95" style="fill:none;stroke:#F15A60;stroke-width:1.25" />
<path d="M65.62,420.54A3.125,3.125 0 1 1 59.37,420.54A3.125,3.125 0 1 1 65.62,420.54Z" style="fill:none;stroke:#F15A60;stroke-width:0.625" />
<path d="M72.527,361.32A3.125,3.125 0 1 1 66.277,361.32A3.125,3.125 0 1 1 72.527,361.32Z" style="fill:none;stroke:#F15A60;stroke-width:0.625" />
<path d="M79.433,590.82A3.125,3.125 0 1 1 73.183,590.82A3.125,3.125 0 1 1 79.433,590.82Z" style="fill:none;stroke:#F15A60;stroke-width:0.625" />
<path d="M86.339,654.48L86.339,654.48A3.125,3.125 0 1 1 80.089,654.48A3.125,3.125 0 1 1 86.339,654.48Z" style="fill:none;stroke:#F15A60;stroke-width:0.625" />
<path d="M93.246,624.92A3.125,3.125 0 1 1 86.996,624.92A3.125,3.125 0 1 1 93.246,624.92Z" style="fill:none;stroke:#F15A60;stroke-width:0.625" />
<path d="M100.15,691.65A3.125,3.125 0 1 1 93.902,691.65A3.125,3.125 0 1 1 100.15,691.65Z" style="fill:none;stroke:#F15A60;stroke-width:0.625" />
<path d="M107.06,775.57L107.06,775.57A3.125,3.125 0 1 1 100.81,775.57A3.125,3.125 0 1 1 107.06,775.57Z" style="fill:none;stroke:#F15A60;stroke-width:0.625" />
<path d="M113.97,575.57L113.97,575.57A3.125,3.125 0 1 1 107.72,575.57A3.125,3.125 0 1 1 113.97,575.57Z" style="fill:none;stroke:#F15A60;stroke-width:0.625" />
<path d="M120.87,625.65L120.87,625.65A3.125,3.125 0 1 1 114.62,625.65A3.125,3.125 0 1 1 120.87,625.65Z" style="fill:none;stroke:#F15A60;stroke-width:0.625" />
<path d="M127.78,559.89L127.78,559.89A3.125,3.125 0 1 1 121.53,559.89A3.125,3.125 0 1 1 127.78,559.89Z" style="fill:none;stroke:#F15A60;stroke-width:0.625" />
<path d="M134.68,600.68L134.68,600.68A3.125,3.125 0 1 1 128.43,600.68A3.125,3.125 0 1 1 134.68,600.68Z" style="fill:none;stroke:#F15A60;stroke-width:0.625" />
<path d="M141.59,642.73A3.125,3.125 0 1 1 135.34,642.73A3.125,3.125 0 1 1 141.59,642.73Z" style="fill:none;stroke:#F15A60;stroke-width:0.625" />
<path d="M148.5,538.38A3.125,3.125 0 1 1 142.25,538.38A3.125,3.125 0 1 1 148.5,538.38Z" style="fill:none;stroke:#F15A60;stroke-width:0.625" />
<path d="M155.4,548.78L155.4,548.78A3.125,3.125 0 1 1 149.15,548.78A3.125,3.125 0 1 1 155.4,548.78Z" style="fill:none;stroke:#F15A60;stroke-width:0.625" />
<path d="M162.31,646.19L162.31,646.19A3.125,3.125 0 1 1 156.06,646.19A3.125,3.125 0 1 1 162.31,646.19Z" style="fill:none;stroke:#F15A60;stroke-width:0.625" />
<path d="M169.22,465.87A3.125,3.125 0 1 1 162.97,465.87A3.125,3.125 0 1 1 169.22,465.87Z" style="fill:none;stroke:#F15A60;stroke-width:0.625" />
<path d="M176.12,496.69A3.125,3.125 0 1 1 169.87,496.69A3.125,3.125 0 1 1 176.12,496.69Z" style="fill:none;stroke:#F15A60;stroke-width:0.625" />
<path d="M183.03,357.91A3.125,3.125 0 1 1 176.78,357.91A3.125,3.125 0 1 1 183.03,357.91Z" style="fill:none;stroke:#F15A60;stroke-width:0.625" />
<path d="M189.94,512.3L189.94,512.3A3.125,3.125 0 1 1 183.69,512.3A3.125,3.125 0 1 1 189.94,512.3Z" style="fill:none;stroke:#F15A60;stroke-width:0.625" />
<path d="M196.84,368.59A3.125,3.125 0 1 1 190.59,368.59A3.125,3.125 0 1 1 196.84,368.59Z" style="fill:none;stroke:#F15A60;stroke-width:0.625" />
<path d="M203.75,241.14L203.75,241.14A3.125,3.125 0 1 1 197.5,241.14A3.125,3.125 0 1 1 203.75,241.14Z" style="fill:none;stroke:#F15A60;stroke-width:0.625" />
<path d="M210.66,271.23L210.66,271.23A3.125,3.125 0 1 1 204.41,271.23A3.125,3.125 0 1 1 210.66,271.23Z" style="fill:none;stroke:#F15A60;stroke-width:0.625" />
<path d="M217.56,372.13A3.125,3.125 0 1 1 211.31,372.13A3.125,3.125 0 1 1 217.56,372.13Z" style="fill:none;stroke:#F15A60;stroke-width:0.625" />
<path d="M224.47,129.99L224.47,129.99A3.125,3.125 0 1 1 218.22,129.99A3.125,3.125 0 1 1 224.47,129.99Z" style="fill:none;stroke:#F15A60;stroke-width:0.625" />
<path d="M231.37,266.75A3.125,3.125 0 1 1 225.12,266.75A3.125,3.125 0 1 1 231.37,266.75Z" style="fill:none;stroke:#F15A60;stroke-width:0.625" />
<path d="M238.28,215.67L238.28,215.67A3.125,3.125 0 1 1 232.03,215.67A3.125,3.125 0 1 1 238.28,215.67Z" style="fill:none;stroke:#F15A60;stroke-width:0.625" />
<path d="M245.19,304.42A3.125,3.125 0 1 1 238.94,304.42A3.125,3.125 0 1 1 245.19,304.42Z" style="fill:none;stroke:#F15A60;stroke-width:0.625" />
<path d="M252.09,51.226A3.125,3.125 0 1 1 245.84,51.226A3.125,3.125 0 1 1 252.09,51.226Z" style="fill:none;stroke:#F15A60;stroke-width:0.625" />
<path d="M259,118.15A3.125,3.125 0 1 1 252.75,118.15A3.125,3.125 0 1 1 259,118.15Z" style="fill:none;stroke:#F15A60;stroke-width:0.625" />
<path d="M265.91,99.74A3.125,3.125 0 1 1 259.66,99.74A3.125,3.125 0 1 1 265.91,99.74Z" style="fill:none;stroke:#F15A60;stroke-width:0.625" />
<path d="M272.81,171A3.125,3.125 0 1 1 266.56,171A3.125,3.125 0 1 1 272.81,171Z" style="fill:none;stroke:#F15A60;stroke-width:0.625" />
<path d="M279.72,359.96A3.125,3.125 0 1 1 273.47,359.96A3.125,3.125 0 1 1 279.72,359.96Z" style="fill:none;stroke:#F15A60;stroke-width:0.625" />
<path d="M286.63,279.27L286.63,279.27A3.125,3.125 0 1 1 280.38,279.27A3.125,3.125 0 1 1 286.63,279.27Z" style="fill:none;stroke:#F15A60;stroke-width:0.625" />
<path d="M293.53,208.12A3.125,3.125 0 1 1 287.28,208.12A3.125,3.125 0 1 1 293.53,208.12Z" style="fill:none;stroke:#F15A60;stroke-width:0.625" />
<path d="M300.44,363.37A3.125,3.125 0 1 1 294.19,363.37A3.125,3.125 0 1 1 300.44,363.37Z" style="fill:none;stroke:#F15A60;stroke-width:0.625" />
<path d="M307.35,368.77A3.125,3.125 0 1 1 301.1,368.77A3.125,3.125 0 1 1 307.35,368.77Z" style="fill:none;stroke:#F15A60;stroke-width:0.625" />
<path d="M314.25,448.09A3.125,3.125 0 1 1 308,448.09A3.125,3.125 0 1 1 314.25,448.09Z" style="fill:none;stroke:#F15A60;stroke-width:0.625" />
<path d="M321.16,397.59L321.16,397.59A3.125,3.125 0 1 1 314.91,397.59A3.125,3.125 0 1 1 321.16,397.59Z" style="fill:none;stroke:#F15A60;stroke-width:0.625" />
<path d="M328.06,550.66A3.125,3.125 0 1 1 321.81,550.66A3.125,3.125 0 1 1 328.06,550.66Z" style="fill:none;stroke:#F15A60;stroke-width:0.625" />
<path d="M334.97,525.88A3.125,3.125 0 1 1 328.72,525.88A3.125,3.125 0 1 1 334.97,525.88Z" style="fill:none;stroke:#F15A60;stroke-width:0.625" />
<path d="M341.88,578.92L341.88,578.92A3.125,3.125 0 1 1 335.63,578.92A3.125,3.125 0 1 1 341.88,578.92Z" style="fill:none;stroke:#F15A60;stroke-width:0.625" />
<path d="M348.78,662.58A3.125,3.125 0 1 1 342.53,662.58A3.125,3.125 0 1 1 348.78,662.58Z" style="fill:none;stroke:#F15A60;stroke-width:0.625" />
<path d="M355.69,763.36A3.125,3.125 0 1 1 349.44,763.36A3.125,3.125 0 1 1 355.69,763.36Z" style="fill:none;stroke:#F15A60;stroke-width:0.625" />
<path d="M362.6,723.9A3.125,3.125 0 1 1 356.35,723.9A3.125,3.125 0 1 1 362.6,723.9Z" style="fill:none;stroke:#F15A60;stroke-width:0.625" />
<path d="M369.5,698.52A3.125,3.125 0 1 1 363.25,698.52A3.125,3.125 0 1 1 369.5,698.52Z" style="fill:none;stroke:#F15A60;stroke-width:0.625" />
<path d="M376.41,624.96A3.125,3.125 0 1 1 370.16,624.96A3.125,3.125 0 1 1 376.41,624.96Z" style="fill:none;stroke:#F15A60;stroke-width:0.625" />
<path d="M383.32,726.66A3.125,3.125 0 1 1 377.07,726.66A3.125,3.125 0 1 1 383.32,726.66Z" style="fill:none;stroke:#F15A60;stroke-width:0.625" />
<path d="M390.22,604.13A3.125,3.125 0 1 1 383.97,604.13A3.125,3.125 0 1 1 390.22,604.13Z" style="fill:none;stroke:#F15A60;stroke-width:0.625" />
<path d="M397.13,549.7A3.125,3.125 0 1 1 390.88,549.7A3.125,3.125 0 1 1 397.13,549.7Z" style="fill:none;stroke:#F15A60;stroke-width:0.625" />
<path d="M404.04,524.28L404.04,524.28A3.125,3.125 0 1 1 397.79,524.28A3.125,3.125 0 1 1 404.04,524.28Z" style="fill:none;stroke:#F15A60;stroke-width:0.625" />
<path d="M410.94,477.07A3.125,3.125 0 1 1 404.69,477.07A3.125,3.125 0 1 1 410.94,477.07Z" style="fill:none;stroke:#F15A60;stroke-width:0.625" />
<path d="M417.85,565.91A3.125,3.125 0 1 1 411.6,565.91A3.125,3.125 0 1 1 417.85,565.91Z" style="fill:none;stroke:#F15A60;stroke-width:0.625" />
<path d="M424.75,452.52A3.125,3.125 0 1 1 418.5,452.52A3.125,3.125 0 1 1 424.75,452.52Z" style="fill:none;stroke:#F15A60;stroke-width:0.625" />
<path d="M431.66,498.03L431.66,498.03A3.125,3.125 0 1 1 425.41,498.03A3.125,3.125 0 1 1 431.66,498.03Z" style="fill:none;stroke:#F15A60;stroke-width:0.625" />
<path d="M438.57,522.23A3.125,3.125 0 1 1 432.32,522.23A3.125,3.125 0 1 1 438.57,522.23Z" style="fill:none;stroke:#F15A60;stroke-width:0.625" />
<path d="M445.47,380.53A3.125,3.125 0 1 1 439.22,380.53A3.125,3.125 0 1 1 445.47,380.53Z" style="fill:none;stroke:#F15A60;stroke-width:0.625" />
<path d="M452.38,282.83L452.38,282.83A3.125,3.125 0 1 1 446.13,282.83A3.125,3.125 0 1 1 452.38,282.83Z" style="fill:none;stroke:#F15A60;stroke-width:0.625" />
<path d="M459.29,235.57A3.125,3.125 0 1 1 453.04,235.57A3.125,3.125 0 1 1 459.29,235.57Z" style="fill:none;stroke:#F15A60;stroke-width:0.625" />
<path d="M466.19,209.07A3.125,3.125 0 1 1 459.94,209.07A3.125,3.125 0 1 1 466.19,209.07Z" style="fill:none;stroke:#F15A60;stroke-width:0.625" />
<path d="M473.1,152.44A3.125,3.125 0 1 1 466.85,152.44A3.125,3.125 0 1 1 473.1,152.44Z" style="fill:none;stroke:#F15A60;stroke-width:0.625" />
<path d="M480.01,211.7A3.125,3.125 0 1 1 473.76,211.7A3.125,3.125 0 1 1 480.01,211.7Z" style="fill:none;stroke:#F15A60;stroke-width:0.625" />
<path d="M486.91,192.87A3.125,3.125 0 1 1 480.66,192.87A3.125,3.125 0 1 1 486.91,192.87Z" style="fill:none;stroke:#F15A60;stroke-width:0.625" />
<path d="M493.82,198.35A3.125,3.125 0 1 1 487.57,198.35A3.125,3.125 0 1 1 493.82,198.35Z" style="fill:none;stroke:#F15A60;stroke-width:0.625" />
<path d="M500.73,150.92L500.73,150.92A3.125,3.125 0 1 1 494.48,150.92A3.125,3.125 0 1 1 500.73,150.92Z" style="fill:none;stroke:#F15A60;stroke-width:0.625" />
<path d="M507.63,95.141A3.125,3.125 0 1 1 501.38,95.141A3.125,3.125 0 1 1 507.63,95.141Z" style="fill:none;stroke:#F15A60;stroke-width:0.625" />
<path d="M514.54,151.45A3.125,3.125 0 1 1 508.29,151.45A3.125,3.125 0 1 1 514.54,151.45Z" style="fill:none;stroke:#F15A60;stroke-width:0.625" />
<path d="M521.44,170.02A3.125,3.125 0 1 1 515.19,170.02A3.125,3.125 0 1 1 521.44,170.02Z" style="fill:none;stroke:#F15A60;stroke-width:0.625" />
<path d="M528.35,357.68A3.125,3.125 0 1 1 522.1,357.68A3.125,3.125 0 1 1 528.35,357.68Z" style="fill:none;stroke:#F15A60;stroke-width:0.625" />
<path d="M535.26,202.81A3.125,3.125 0 1 1 529.01,202.81A3.125,3.125 0 1 1 535.26,202.81Z" style="fill:none;stroke:#F15A60;stroke-width:0.625" />
<path d="M542.16,411.3A3.125,3.125 0 1 1 535.91,411.3A3.125,3.125 0 1 1 542.16,411.3Z" style="fill:none;stroke:#F15A60;stroke-width:0.625" />
<path d="M549.07,340.23A3.125,3.125 0 1 1 542.82,340.23A3.125,3.125 0 1 1 549.07,340.23Z" style="fill:none;stroke:#F15A60;stroke-width:0.625" />
<path d="M555.98,429.12A3.125,3.125 0 1 1 549.73,429.12A3.125,3.125 0 1 1 555.98,429.12Z" style="fill:none;stroke:#F15A60;stroke-width:0.625" />
<path d="M562.88,375.47A3.125,3.125 0 1 1 556.63,375.47A3.125,3.125 0 1 1 562.88,375.47Z" style="fill:none;stroke:#F15A60;stroke-width:0.625" />
<path d="M569.79,497.31A3.125,3.125 0 1 1 563.54,497.31A3.125,3.125 0 1 1 569.79,497.31Z" style="fill:none;stroke:#F15A60;stroke-width:0.625" />
<path d="M576.7,541.38A3.125,3.125 0 1 1 570.45,541.38A3.125,3.125 0 1 1 576.7,541.38Z" style="fill:none;stroke:#F15A60;stroke-width:0.625" />
<path d="M583.6,628.18A3.125,3.125 0 1 1 577.35,628.18A3.125,3.125 0 1 1 583.6,628.18Z" style="fill:none;stroke:#F15A60;stroke-width:0.625" />
<path d="M590.51,608.33A3.125,3.125 0 1 1 584.26,608.33A3.125,3.125 0 1 1 590.51,608.33Z" style="fill:none;stroke:#F15A60;stroke-width:0.625" />
<path d="M597.42,627.23A3.125,3.125 0 1 1 591.17,627.23A3.125,3.125 0 1 1 597.42,627.23Z" style="fill:none;stroke:#F15A60;stroke-width:0.625" />
<path d="M604.32,709.39L604.32,709.39A3.125,3.125 0 1 1 598.07,709.39A3.125,3.125 0 1 1 604.32,709.39Z" style="fill:none;stroke:#F15A60;stroke-width:0.625" />
<path d="M611.23,590.36A3.125,3.125 0 1 1 604.98,590.36A3.125,3.125 0 1 1 611.23,590.36Z" style="fill:none;stroke:#F15A60;stroke-width:0.625" />
<path d="M618.13,730.94A3.125,3.125 0 1 1 611.88,730.94A3.125,3.125 0 1 1 618.13,730.94Z" style="fill:none;stroke:#F15A60;stroke-width:0.625" />
<path d="M625.04,787.79A3.125,3.125 0 1 1 618.79,787.79A3.125,3.125 0 1 1 625.04,787.79Z" style="fill:none;stroke:#F15A60;stroke-width:0.625" />
<path d="M631.95,750.87A3.125,3.125 0 1 1 625.7,750.87A3.125,3.125 0 1 1 631.95,750.87Z" style="fill:none;stroke:#F15A60;stroke-width:0.625" />
<path d="M638.85,626.18A3.125,3.125 0 1 1 632.6,626.18A3.125,3.125 0 1 1 638.85,626.18Z" style="fill:none;stroke:#F15A60;stroke-width:0.625" />
<path d="M645.76,735.2A3.125,3.125 0 1 1 639.51,735.2A3.125,3.125 0 1 1 645.76,735.2Z" style="fill:none;stroke:#F15A60;stroke-width:0.625" />
<path d="M652.67,647.14A3.125,3.125 0 1 1 646.42,647.14A3.125,3.125 0 1 1 652.67,647.14Z" style="fill:none;stroke:#F15A60;stroke-width:0.625" />
<path d="M659.57,483.06A3.125,3.125 0 1 1 653.32,483.06A3.125,3.125 0 1 1 659.57,483.06Z" style="fill:none;stroke:#F15A60;stroke-width:0.625" />
<path d="M666.48,463.62A3.125,3.125 0 1 1 660.23,463.62A3.125,3.125 0 1 1 666.48,463.62Z" style="fill:none;stroke:#F15A60;stroke-width:0.625" />
<path d="M673.39,430.12A3.125,3.125 0 1 1 667.14,430.12A3.125,3.125 0 1 1 673.39,430.12Z" style="fill:none;stroke:#F15A60;stroke-width:0.625" />
<path d="M680.29,513.72A3.125,3.125 0 1 1 674.04,513.72A3.125,3.125 0 1 1 680.29,513.72Z" style="fill:none;stroke:#F15A60;stroke-width:0.625" />
<path d="M687.2,512.25A3.125,3.125 0 1 1 680.95,512.25A3.125,3.125 0 1 1 687.2,512.25Z" style="fill:none;stroke:#F15A60;stroke-width:0.625" />
<path d="M694.11,262.29A3.125,3.125 0 1 1 687.86,262.29A3.125,3.125 0 1 1 694.11,262.29Z" style="fill:none;stroke:#F15A60;stroke-width:0.625" />
<path d="M701.01,442.38A3.125,3.125 0 1 1 694.76,442.38A3.125,3.125 0 1 1 701.01,442.38Z" style="fill:none;stroke:#F15A60;stroke-width:0.625" />
<path d="M707.92,365.66A3.125,3.125 0 1 1 701.67,365.66A3.125,3.125 0 1 1 707.92,365.66Z" style="fill:none;stroke:#F15A60;stroke-width:0.625" />
<path d="M714.82,148.19A3.125,3.125 0 1 1 708.57,148.19A3.125,3.125 0 1 1 714.82,148.19Z" style="fill:none;stroke:#F15A60;stroke-width:0.625" />
<path d="M721.73,316.99A3.125,3.125 0 1 1 715.48,316.99A3.125,3.125 0 1 1 721.73,316.99Z" style="fill:none;stroke:#F15A60;stroke-width:0.625" />
<path d="M728.64,215.16A3.125,3.125 0 1 1 722.39,215.16A3.125,3.125 0 1 1 728.64,215.16Z" style="fill:none;stroke:#F15A60;stroke-width:0.625" />
<path d="M735.54,309.59A3.125,3.125 0 1 1 729.29,309.59A3.125,3.125 0 1 1 735.54,309.59Z" style="fill:none;stroke:#F15A60;stroke-width:0.625" />
<path d="M742.45,116.42A3.125,3.125 0 1 1 736.2,116.42A3.125,3.125 0 1 1 742.45,116.42Z" style="fill:none;stroke:#F15A60;stroke-width:0.625" />
<path d="M749.36,168.28L749.36,168.28A3.125,3.125 0 1 1 743.11,168.28A3.125,3.125 0 1 1 749.36,168.28Z" style="fill:none;stroke:#F15A60;stroke-width:0.625" />
<path d="M756.26,173.64A3.125,3.125 0 1 1 750.01,173.64A3.125,3.125 0 1 1 756.26,173.64Z" style="fill:none;stroke:#F15A60;stroke-width:0.625" />
<path d="M763.17,64.458A3.125,3.125 0 1 1 756.92,64.458A3.125,3.125 0 1 1 763.17,64.458Z" style="fill:none;stroke:#F15A60;stroke-width:0.625" />
<path d="M770.08,216.18L770.08,216.18A3.125,3.125 0 1 1 763.83,216.18A3.125,3.125 0 1 1 770.08,216.18Z" style="fill:none;stroke:#F15A60;stroke-width:0.625" />
<path d="M776.98,270.62L776.98,270.62A3.125,3.125 0 1 1 770.73,270.62A3.125,3.125 0 1 1 776.98,270.62Z" style="fill:none;stroke:#F15A60;stroke-width:0.625" />
<path d="M783.89,229.29L783.89,229.29A3.125,3.125 0 1 1 777.64,229.29A3.125,3.125 0 1 1 783.89,229.29Z" style="fill:none;stroke:#F15A60;stroke-width:0.625" />
<path d="M790.8,418.46A3.125,3.125 0 1 1 784.55,418.46A3.125,3.125 0 1 1 790.8,418.46Z" style="fill:none;stroke:#F15A60;stroke-width:0.625" />
<path d="M797.7,229.46L797.7,229.46A3.125,3.125 0 1 1 791.45,229.46A3.125,3.125 0 1 1 797.7,229.46Z" style="fill:none;stroke:#F15A60;stroke-width:0.625" />
<path d="M804.61,281.88L804.61,281.88A3.125,3.125 0 1 1 798.36,281.88A3.125,3.125 0 1 1 804.61,281.88Z" style="fill:none;stroke:#F15A60;stroke-width:0.625" />
<path d="M811.51,337.36A3.125,3.125 0 1 1 805.26,337.36A3.125,3.125 0 1 1 811.51,337.36Z" style="fill:none;stroke:#F15A60;stroke-width:0.625" />
<path d="M818.42,529.87L818.42,529.87A3.125,3.125 0 1 1 812.17,529.87A3.125,3.125 0 1 1 818.42,529.87Z" style="fill:none;stroke:#F15A60;stroke-width:0.625" />
<path d="M825.33,458.36A3.125,3.125 0 1 1 819.08,458.36A3.125,3.125 0 1 1 825.33,458.36Z" style="fill:none;stroke:#F15A60;stroke-width:0.625" />
<path d="M832.23,665.36L832.23,665.36A3.125,3.125 0 1 1 825.98,665.36A3.125,3.125 0 1 1 832.23,665.36Z" style="fill:none;stroke:#F15A60;stroke-width:0.625" />
<path d="M839.14,532.94A3.125,3.125 0 1 1 832.89,532.94A3.125,3.125 0 1 1 839.14,532.94Z" style="fill:none;stroke:#F15A60;stroke-width:0.625" />
<path d="M846.05,586.19A3.125,3.125 0 1 1 839.8,586.19A3.125,3.125 0 1 1 846.05,586.19Z" style="fill:none;stroke:#F15A60;stroke-width:0.625" />
<path d="M852.95,570.5L852.95,570.5A3.125,3.125 0 1 1 846.7,570.5A3.125,3.125 0 1 1 852.95,570.5Z" style="fill:none;stroke:#F15A60;stroke-width:0.625" />
<path d="M859.86,658.05A3.125,3.125 0 1 1 853.61,658.05A3.125,3.125 0 1 1 859.86,658.05Z" style="fill:none;stroke:#F15A60;stroke-width:0.625" />
<path d="M866.77,806.88L866.77,806.88A3.125,3.125 0 1 1 860.52,806.88A3.125,3.125 0 1 1 866.77,806.88Z" style="fill:none;stroke:#F15A60;stroke-width:0.625" />
<path d="M873.67,571.11L873.67,571.11A3.125,3.125 0 1 1 867.42,571.11A3.125,3.125 0 1 1 873.67,571.11Z" style="fill:none;stroke:#F15A60;stroke-width:0.625" />
<path d="M880.58,754.14L880.58,754.14A3.125,3.125 0 1 1 874.33,754.14A3.125,3.125 0 1 1 880.58,754.14Z" style="fill:none;stroke:#F15A60;stroke-width:0.625" />
<path d="M887.49,696.16A3.125,3.125 0 1 1 881.24,696.16A3.125,3.125 0 1 1 887.49,696.16Z" style="fill:none;stroke:#F15A60;stroke-width:0.625" />
<path d="M894.39,530.59L894.39,530.59A3.125,3.125 0 1 1 888.14,530.59A3.125,3.125 0 1 1 894.39,530.59Z" style="fill:none;stroke:#F15A60;stroke-width:0.625" />
<path d="M901.3,716.09L901.3,716.09A3.125,3.125 0 1 1 895.05,716.09A3.125,3.125 0 1 1 901.3,716.09Z" style="fill:none;stroke:#F15A60;stroke-width:0.625" />
<path d="M908.2,471.44A3.125,3.125 0 1 1 901.95,471.44A3.125,3.125 0 1 1 908.2,471.44Z" style="fill:none;stroke:#F15A60;stroke-width:0.625" />
<path d="M915.11,556.52L915.11,556.52A3.125,3.125 0 1 1 908.86,556.52A3.125,3.125 0 1 1 915.11,556.52Z" style="fill:none;stroke:#F15A60;stroke-width:0.625" />
<path d="M922.02,456.73L922.02,456.73A3.125,3.125 0 1 1 915.77,456.73A3.125,3.125 0 1 1 922.02,456.73Z" style="fill:none;stroke:#F15A60;stroke-width:0.625" />
<path d="M928.92,533.03L928.92,533.03A3.125,3.125 0 1 1 922.67,533.03A3.125,3.125 0 1 1 928.92,533.03Z" style="fill:none;stroke:#F15A60;stroke-width:0.625" />
<path d="M935.83,303.38A3.125,3.125 0 1 1 929.58,303.38A3.125,3.125 0 1 1 935.83,303.38Z" style="fill:none;stroke:#F15A60;stroke-width:0.625" />
<path d="M942.74,286.71A3.125,3.125 0 1 1 936.49,286.71A3.125,3.125 0 1 1 942.74,286.71Z" style="fill:none;stroke:#F15A60;stroke-width:0.625" />
<path d="M949.64,277.3L949.64,277.3A3.125,3.125 0 1 1 943.39,277.3A3.125,3.125 0 1 1 949.64,277.3Z" style="fill:none;stroke:#F15A60;stroke-width:0.625" />
<path d="M956.55,175L956.55,175A3.125,3.125 0 1 1 950.3,175A3.125,3.125 0 1 1 956.55,175Z" style="fill:none;stroke:#F15A60;stroke-width:0.625" />
<path d="M963.46,331.05L963.46,331.05A3.125,3.125 0 1 1 957.21,331.05A3.125,3.125 0 1 1 963.46,331.05Z" style="fill:none;stroke:#F15A60;stroke-width:0.625" />
<path d="M970.36,226.68A3.125,3.125 0 1 1 964.11,226.68A3.125,3.125 0 1 1 970.36,226.68Z" style="fill:none;stroke:#F15A60;stroke-width:0.625" />
<path d="M977.27,79.848A3.125,3.125 0 1 1 971.02,79.848A3.125,3.125 0 1 1 977.27,79.848Z" style="fill:none;stroke:#F15A60;stroke-width:0.625" />
<path d="M984.18,132.12L984.18,132.12A3.125,3.125 0 1 1 977.93,132.12A3.125,3.125 0 1 1 984.18,132.12Z" style="fill:none;stroke:#F15A60;stroke-width:0.625" />
<path d="M991.08,109.12A3.125,3.125 0 1 1 984.83,109.12A3.125,3.125 0 1 1 991.08,109.12Z" style="fill:none;stroke:#F15A60;stroke-width:0.625" />
<path d="M997.99,299.42L997.99,299.42A3.125,3.125 0 1 1 991.74,299.42A3.125,3.125 0 1 1 997.99,299.42Z" style="fill:none;stroke:#F15A60;stroke-width:0.625" />
<path d="M1004.9,193.05A3.125,3.125 0 1 1 998.64,193.05A3.125,3.125 0 1 1 1004.9,193.05Z" style="fill:none;stroke:#F15A60;stroke-width:0.625" />
<path d="M1011.8,302.75L1011.8,302.75A3.125,3.125 0 1 1 1005.6,302.75A3.125,3.125 0 1 1 1011.8,302.75Z" style="fill:none;stroke:#F15A60;stroke-width:0.625" />
<path d="M1018.7,132.15L1018.7,132.15A3.125,3.125 0 1 1 1012.5,132.15A3.125,3.125 0 1 1 1018.7,132.15Z" style="fill:none;stroke:#F15A60;stroke-width:0.625" />
<path d="M1025.6,211.03L1025.6,211.03A3.125,3.125 0 1 1 1019.4,211.03A3.125,3.125 0 1 1 1025.6,211.03Z" style="fill:none;stroke:#F15A60;stroke-width:0.625" />
<path d="M1032.5,198L1032.5,198A3.125,3.125 0 1 1 1026.3,198A3.125,3.125 0 1 1 1032.5,198Z" style="fill:none;stroke:#F15A60;stroke-width:0.625" />
<path d="M1039.4,399.55L1039.4,399.55A3.125,3.125 0 1 1 1033.2,399.55A3.125,3.125 0 1 1 1039.4,399.55Z" style="fill:none;stroke:#F15A60;stroke-width:0.625" />
<path d="M1046.3,460.4A3.125,3.125 0 1 1 1040.1,460.4A3.125,3.125 0 1 1 1046.3,460.4Z" style="fill:none;stroke:#F15A60;stroke-width:0.625" />
<path d="M1053.2,445.73A3.125,3.125 0 1 1 1047,445.73A3.125,3.125 0 1 1 1053.2,445.73Z" style="fill:none;stroke:#F15A60;stroke-width:0.625" />
<path d="M1060.1,315.4A3.125,3.125 0 1 1 1053.9,315.4A3.125,3.125 0 1 1 1060.1,315.4Z" style="fill:none;stroke:#F15A60;stroke-width:0.625" />
<path d="M1067.1,472.09L1067.1,472.09A3.125,3.125 0 1 1 1060.8,472.09A3.125,3.125 0 1 1 1067.1,472.09Z" style="fill:none;stroke:#F15A60;stroke-width:0.625" />
<path d="M1074,509.25L1074,509.25A3.125,3.125 0 1 1 1067.7,509.25A3.125,3.125 0 1 1 1074,509.25Z" style="fill:none;stroke:#F15A60;stroke-width:0.625" />
<path d="M1080.9,551.13A3.125,3.125 0 1 1 1074.6,551.13A3.125,3.125 0 1 1 1080.9,551.13Z" style="fill:none;stroke:#F15A60;stroke-width:0.625" />
<path d="M1087.8,465.86A3.125,3.125 0 1 1 1081.5,465.86A3.125,3.125 0 1 1 1087.8,465.86Z" style="fill:none;stroke:#F15A60;stroke-width:0.625" />
<path d="M1094.7,722.37L1094.7,722.37A3.125,3.125 0 1 1 1088.4,722.37A3.125,3.125 0 1 1 1094.7,722.37Z" style="fill:none;stroke:#F15A60;stroke-width:0.625" />
<path d="M1101.6,626.78A3.125,3.125 0 1 1 1095.3,626.78A3.125,3.125 0 1 1 1101.6,626.78Z" style="fill:none;stroke:#F15A60;stroke-width:0.625" />
<path d="M1108.5,754.6A3.125,3.125 0 1 1 1102.2,754.6A3.125,3.125 0 1 1 1108.5,754.6Z" style="fill:none;stroke:#F15A60;stroke-width:0.625" />
<path d="M1115.4,567.99A3.125,3.125 0 1 1 1109.1,567.99A3.125,3.125 0 1 1 1115.4,567.99Z" style="fill:none;stroke:#F15A60;stroke-width:0.625" />
<path d="M1122.3,726.62A3.125,3.125 0 1 1 1116.1,726.62A3.125,3.125 0 1 1 1122.3,726.62Z" style="fill:none;stroke:#F15A60;stroke-width:0.625" />
<path d="M1129.2,613.72A3.125,3.125 0 1 1 1123,613.72A3.125,3.125 0 1 1 1129.2,613.72Z" style="fill:none;stroke:#F15A60;stroke-width:0.625" />
<path d="M1136.1,756.93A3.125,3.125 0 1 1 1129.9,756.93A3.125,3.125 0 1 1 1136.1,756.93Z" style="fill:none;stroke:#F15A60;stroke-width:0.625" />
<path d="M1143,740.01L1143,740.01A3.125,3.125 0 1 1 1136.8,740.01A3.125,3.125 0 1 1 1143,740.01Z" style="fill:none;stroke:#F15A60;stroke-width:0.625" />
<path d="M1149.9,666.1A3.125,3.125 0 1 1 1143.7,666.1A3.125,3.125 0 1 1 1149.9,666.1Z" style="fill:none;stroke:#F15A60;stroke-width:0.625" />
<path d="M1156.8,509.61L1156.8,509.61A3.125,3.125 0 1 1 1150.6,509.61A3.125,3.125 0 1 1 1156.8,509.61Z" style="fill:none;stroke:#F15A60;stroke-width:0.625" />
<path d="M1163.7,531.48A3.125,3.125 0 1 1 1157.5,531.48A3.125,3.125 0 1 1 1163.7,531.48Z" style="fill:none;stroke:#F15A60;stroke-width:0.625" />
<path d="M1170.6,570.78A3.125,3.125 0 1 1 1164.4,570.78A3.125,3.125 0 1 1 1170.6,570.78Z" style="fill:none;stroke:#F15A60;stroke-width:0.625" />
<path d="M1177.6,410.9L1177.6,410.9A3.125,3.125 0 1 1 1171.3,410.9A3.125,3.125 0 1 1 1177.6,410.9Z" style="fill:none;stroke:#F15A60;stroke-width:0.625" />
<path d="M1184.5,467.23L1184.5,467.23A3.125,3.125 0 1 1 1178.2,467.23A3.125,3.125 0 1 1 1184.5,467.23Z" style="fill:none;stroke:#F15A60;stroke-width:0.625" />
<path d="M1191.4,493.64A3.125,3.125 0 1 1 1185.1,493.64A3.125,3.125 0 1 1 1191.4,493.64Z" style="fill:none;stroke:#F15A60;stroke-width:0.625" />
<path d="M1198.3,420.89A3.125,3.125 0 1 1 1192,420.89A3.125,3.125 0 1 1 1198.3,420.89Z" style="fill:none;stroke:#F15A60;stroke-width:0.625" />
<path d="M1205.2,194.76A3.125,3.125 0 1 1 1198.9,194.76A3.125,3.125 0 1 1 1205.2,194.76Z" style="fill:none;stroke:#F15A60;stroke-width:0.625" />
<path d="M1212.1,215.37A3.125,3.125 0 1 1 1205.8,215.37A3.125,3.125 0 1 1 1212.1,215.37Z" style="fill:none;stroke:#F15A60;stroke-width:0.625" />
<path d="M1219,107.69A3.125,3.125 0 1 1 1212.7,107.69A3.125,3.125 0 1 1 1219,107.69Z" style="fill:none;stroke:#F15A60;stroke-width:0.625" />
<path d="M1225.9,117.33A3.125,3.125 0 1 1 1219.7,117.33A3.125,3.125 0 1 1 1225.9,117.33Z" style="fill:none;stroke:#F15A60;stroke-width:0.625" />
<path d="M1232.8,251.51L1232.8,251.51A3.125,3.125 0 1 1 1226.6,251.51A3.125,3.125 0 1 1 1232.8,251.51Z" style="fill:none;stroke:#F15A60;stroke-width:0.625" />
<path d="M1239.7,265.45A3.125,3.125 0 1 1 1233.5,265.45A3.125,3.125 0 1 1 1239.7,265.45Z" style="fill:none;stroke:#F15A60;stroke-width:0.625" />
<path d="M1246.6,294.38L1246.6,294.38A3.125,3.125 0 1 1 1240.4,294.38A3.125,3.125 0 1 1 1246.6,294.38Z" style="fill:none;stroke:#F15A60;stroke-width:0.625" />
<path d="M1253.5,60.803A3.125,3.125 0 1 1 1247.3,60.803A3.125,3.125 0 1 1 1253.5,60.803Z" style="fill:none;stroke:#F15A60;stroke-width:0.625" />
<path d="M1260.4,82.979L1260.4,82.979A3.125,3.125 0 1 1 1254.2,82.979A3.125,3.125 0 1 1 1260.4,82.979Z" style="fill:none;stroke:#F15A60;stroke-width:0.625" />
<path d="M1267.3,298.61A3.125,3.125 0 1 1 1261.1,298.61A3.125,3.125 0 1 1 1267.3,298.61Z" style="fill:none;stroke:#F15A60;stroke-width:0.625" />
<path d="M1274.2,154.88A3.125,3.125 0 1 1 1268,154.88A3.125,3.125 0 1 1 1274.2,154.88Z" style="fill:none;stroke:#F15A60;stroke-width:0.625" />
<path d="M1281.2,225.92L1281.2,225.92A3.125,3.125 0 1 1 1274.9,225.92A3.125,3.125 0 1 1 1281.2,225.92Z" style="fill:none;stroke:#F15A60;stroke-width:0.625" />
<path d="M1288.1,232.82L1288.1,232.82A3.125,3.125 0 1 1 1281.8,232.82A3.125,3.125 0 1 1 1288.1,232.82Z" style="fill:none;stroke:#F15A60;stroke-width:0.625" />
<path d="M1295,249.71L1295,249.71A3.125,3.125 0 1 1 1288.7,249.71A3.125,3.125 0 1 1 1295,249.71Z" style="fill:none;stroke:#F15A60;stroke-width:0.625" />
<path d="M1301.9,276.35A3.125,3.125 0 1 1 1295.6,276.35A3.125,3.125 0 1 1 1301.9,276.35Z" style="fill:none;stroke:#F15A60;stroke-width:0.625" />
<path d="M1308.8,407.15A3.125,3.125 0 1 1 1302.5,407.15A3.125,3.125 0 1 1 1308.8,407.15Z" style="fill:none;stroke:#F15A60;stroke-width:0.625" />
<path d="M1315.7,382.46A3.125,3.125 0 1 1 1309.4,382.46A3.125,3.125 0 1 1 1315.7,382.46Z" style="fill:none;stroke:#F15A60;stroke-width:0.625" />
<path d="M1322.6,424.7A3.125,3.125 0 1 1 1316.3,424.7A3.125,3.125 0 1 1 1322.6,424.7Z" style="fill:none;stroke:#F15A60;stroke-width:0.625" />
<path d="M1329.5,668.77A3.125,3.125 0 1 1 1323.2,668.77A3.125,3.125 0 1 1 1329.5,668.77Z" style="fill:none;stroke:#F15A60;stroke-width:0.625" />
<path d="M1336.4,675.35L1336.4,675.35A3.125,3.125 0 1 1 1330.2,675.35A3.125,3.125 0 1 1 1336.4,675.35Z" style="fill:none;stroke:#F15A60;stroke-width:0.625" />
<path d="M1343.3,708.94L1343.3,708.94A3.125,3.125 0 1 1 1337.1,708.94A3.125,3.125 0 1 1 1343.3,708.94Z" style="fill:none;stroke:#F15A60;stroke-width:0.625" />
<path d="M1350.2,665.51L1350.2,665.51A3.125,3.125 0 1 1 1344,665.51A3.125,3.125 0 1 1 1350.2,665.51Z" style="fill:none;stroke:#F15A60;stroke-width:0.625" />
<path d="M1357.1,575.01A3.125,3.125 0 1 1 1350.9,575.01A3.125,3.125 0 1 1 1357.1,575.01Z" style="fill:none;stroke:#F15A60;stroke-width:0.625" />
<path d="M1364,698.39A3.125,3.125 0 1 1 1357.8,698.39A3.125,3.125 0 1 1 1364,698.39Z" style="fill:none;stroke:#F15A60;stroke-width:0.625" />
<path d="M1370.9,571.81A3.125,3.125 0 1 1 1364.7,571.81A3.125,3.125 0 1 1 1370.9,571.81Z" style="fill:none;stroke:#F15A60;stroke-width:0.625" />
<path d="M1377.8,773.41A3.125,3.125 0 1 1 1371.6,773.41A3.125,3.125 0 1 1 1377.8,773.41Z" style="fill:none;stroke:#F15A60;stroke-width:0.625" />
<path d="M1384.7,552.69A3.125,3.125 0 1 1 1378.5,552.69A3.125,3.125 0 1 1 1384.7,552.69Z" style="fill:none;stroke:#F15A60;stroke-width:0.625" />
<path d="M1391.7,550.79L1391.7,550.79A3.125,3.125 0 1 1 1385.4,550.79A3.125,3.125 0 1 1 1391.7,550.79Z" style="fill:none;stroke:#F15A60;stroke-width:0.625" />
<path d="M1398.6,524.58A3.125,3.125 0 1 1 1392.3,524.58A3.125,3.125 0 1 1 1398.6,524.58Z" style="fill:none;stroke:#F15A60;stroke-width:0.625" />
<path d="M1405.5,548.96L1405.5,548.96A3.125,3.125 0 1 1 1399.2,548.96A3.125,3.125 0 1 1 1405.5,548.96Z" style="fill:none;stroke:#F15A60;stroke-width:0.625" />
<path d="M1412.4,475.94L1412.4,475.94A3.125,3.125 0 1 1 1406.1,475.94A3.125,3.125 0 1 1 1412.4,475.94Z" style="fill:none;stroke:#F15A60;stroke-width:0.625" />
<path d="M1419.3,515.67A3.125,3.125 0 1 1 1413,515.67A3.125,3.125 0 1 1 1419.3,515.67Z" style="fill:none;stroke:#F15A60;stroke-width:0.625" />
<path d="M1426.2,569.59L1426.2,569.59A3.125,3.125 0 1 1 1419.9,569.59A3.125,3.125 0 1 1 1426.2,569.59Z" style="fill:none;stroke:#F15A60;stroke-width:0.625" />
<path d="M1433.1,317.99A3.125,3.125 0 1 1 1426.8,317.99A3.125,3.125 0 1 1 1433.1,317.99Z" style="fill:none;stroke:#F15A60;stroke-width:0.625" />
<path d="M1440,460.95A3.125,3.125 0 1 1 1433.8,460.95A3.125,3.125 0 1 1 1440,460.95Z" style="fill:none;stroke:#F15A60;stroke-width:0.625" />
<path d="M62.495,588.04L69.402,606.06L76.308,634.2L83.214,628.95L90.121,618.38L97.027,620.51L103.93,597.93L110.84,570.04L117.75,548.28L124.65,536.94L131.56,517.81L138.47,481.86L145.37,444.71L152.28,428.08L159.19,386.2L166.09,348.26L173,323.24L179.9,304.01L186.81,273.34L193.72,233.93L200.62,207.04L207.53,200.03L214.44,208.9L221.34,199.62L228.25,207.43L235.16,217.09L242.06,232.4L248.97,246.77L255.88,281.41L262.78,324.66L269.69,367.27L276.59,408.06L283.5,438.33L290.41,486.74L297.31,538.31L304.22,571.83L311.13,597.45L318.03,625.3L324.94,645.96L331.85,645.86L338.75,645.7L345.66,635.52L352.57,625.85L359.47,594.76L366.38,572.18L373.28,554.55L380.19,530.1L387.1,485.72L394,448.87L400.91,414.8L407.82,377.62L414.72,351.08L421.63,313.78L428.54,288.36L435.44,253.65L442.35,210.94L449.26,188.03L456.16,176.75L463.07,188.96L469.97,188.34L476.88,214.22L483.79,227.08L490.69,250.7L497.6,268.41L504.51,303.05L511.41,347.68L518.32,395.35L525.23,439.18L532.13,466.13L539.04,516.79L545.95,534.7L552.85,573.77L559.76,609.64L566.66,647.18L573.57,660.06L580.48,679.45L587.38,681.34L594.29,668.82L601.2,652.46L608.1,624.53L615.01,616.86L621.92,595L628.82,542.45L635.73,511.6L642.64,485.54L649.54,426.84L656.45,393.83L663.35,367.04L670.26,351.64L677.17,320.27L684.07,285.72L690.98,251.86L697.89,232.08L704.79,209.46L711.7,199.95L718.61,208.06L725.51,218.21L732.42,219.64L739.33,216.87L746.23,238.96L753.14,275.12L760.04,303.59L766.95,363.68L773.86,395.36L780.76,426.92L787.67,461.04L794.58,485L801.48,542.74L808.39,571.66L815.3,613.34L822.2,629.97L829.11,637.19L836.02,642.26L842.92,636.11L849.83,633.15L856.73,621.77L863.64,609.27L870.55,558.92L877.45,530.48L884.36,482.8L891.27,430.68L898.17,410.73L905.08,361.78L911.99,322.62L918.89,280.18L925.8,245.42L932.71,222.06L939.61,211.03L946.52,212.63L953.42,198.12L960.33,201.72L967.24,188.42L974.14,205.7L981.05,243.76L987.96,275.12L994.86,295.75L1001.8,313.02L1008.7,344.64L1015.6,369.47L1022.5,402.84L1029.4,453.98L1036.3,496.86L1043.2,532.36L1050.1,543.12L1057,571.21L1063.9,601.04L1070.8,629.53L1077.7,652.6L1084.6,664.1L1091.6,668.47L1098.5,649.39L1105.4,643.78L1112.3,609.41L1119.2,599.34L1126.1,576.04L1133,556.76L1139.9,500.54L1146.8,448.08L1153.7,392.23L1160.6,353.01L1167.5,325.01L1174.4,294.48L1181.3,282.83L1188.2,242.18L1195.1,201.12L1202.1,188.89L1209,184.9L1215.9,185.95L1222.8,198.47L1229.7,211.71L1236.6,214.19L1243.5,228.36L1250.4,237.17L1257.3,273.56L1264.2,332.14L1271.1,369.81L1278,425.22L1284.9,469.18L1291.8,503.39L1298.7,548.26L1305.7,577.81L1312.6,614.43L1319.5,631.46L1326.4,644.07L1333.3,629.65L1340.2,617.01L1347.1,593.71L1354,578.72L1360.9,578.18L1367.8,540.14L1374.7,529.06L1381.6,501.91L1388.5,495.56L1395.4,487.67L1402.3,481.51L1409.2,468.03L1416.2,466.05L1423.1,449.51L1430,389.47L1436.9,460.95" style="fill:none;stroke:#7AC36A;stroke-width:1.25;stroke-dasharray:7.5,2.5" />
<path d="M59.828,585.37L65.162,585.37L65.162,590.71L59.828,590.71Z" style="fill:none;stroke:#7AC36A;stroke-width:0.625" />
<path d="M66.734,603.39L72.069,603.39L72.069,608.72L66.734,608.72Z" style="fill:none;stroke:#7AC36A;stroke-width:0.625" />
<path d="M73.641,631.53L78.975,631.53L78.975,636.86L73.641,636.86Z" style="fill:none;stroke:#7AC36A;stroke-width:0.625" />
<path d="M80.547,626.28L85.882,626.28L85.882,631.62L80.547,631.62Z" style="fill:none;stroke:#7AC36A;stroke-width:0.625" />
<path d="M87.453,615.71L92.788,615.71L92.788,621.05L87.453,621.05Z" style="fill:none;stroke:#7AC36A;stroke-width:0.625" />
<path d="M94.36,617.84L99.695,617.84L99.695,623.18L94.36,623.18Z" style="fill:none;stroke:#7AC36A;stroke-width:0.625" />
<path d="M101.27,595.26L106.6,595.26L106.6,600.6L101.27,600.6Z" style="fill:none;stroke:#7AC36A;stroke-width:0.625" />
<path d="M108.17,567.38L113.51,567.38L113.51,572.71L108.17,572.71Z" style="fill:none;stroke:#7AC36A;stroke-width:0.625" />
<path d="M115.08,545.61L120.41,545.61L120.41,550.94L115.08,550.94Z" style="fill:none;stroke:#7AC36A;stroke-width:0.625" />
<path d="M121.99,534.27L127.32,534.27L127.32,539.61L121.99,539.61Z" style="fill:none;stroke:#7AC36A;stroke-width:0.625" />
<path d="M128.89,515.14L134.23,515.14L134.23,520.48L128.89,520.48Z" style="fill:none;stroke:#7AC36A;stroke-width:0.625" />
<path d="M135.8,479.19L141.13,479.19L141.13,484.52L135.8,484.52Z" style="fill:none;stroke:#7AC36A;stroke-width:0.625" />
<path d="M142.7,442.04L148.04,442.04L148.04,447.37L142.7,447.37Z" style="fill:none;stroke:#7AC36A;stroke-width:0.625" />
<path d="M149.61,425.41L154.95,425.41L154.95,430.75L149.61,430.75Z" style="fill:none;stroke:#7AC36A;stroke-width:0.625" />
<path d="M156.52,383.54L161.85,383.54L161.85,388.87L156.52,388.87Z" style="fill:none;stroke:#7AC36A;stroke-width:0.625" />
<path d="M163.42,345.59L168.76,345.59L168.76,350.93L163.42,350.93Z" style="fill:none;stroke:#7AC36A;stroke-width:0.625" />
<path d="M170.33,320.57L175.67,320.57L175.67,325.91L170.33,325.91Z" style="fill:none;stroke:#7AC36A;stroke-width:0.625" />
<path d="M177.24,301.35L182.57,301.35L182.57,306.68L177.24,306.68Z" style="fill:none;stroke:#7AC36A;stroke-width:0.625" />
<path d="M184.14,270.68L189.48,270.68L189.48,276.01L184.14,276.01Z" style="fill:none;stroke:#7AC36A;stroke-width:0.625" />
<path d="M191.05,231.26L196.38,231.26L196.38,236.6L191.05,236.6Z" style="fill:none;stroke:#7AC36A;stroke-width:0.625" />
<path d="M197.96,204.38L203.29,204.38L203.29,209.71L197.96,209.71Z" style="fill:none;stroke:#7AC36A;stroke-width:0.625" />
<path d="M204.86,197.36L210.2,197.36L210.2,202.7L204.86,202.7Z" style="fill:none;stroke:#7AC36A;stroke-width:0.625" />
<path d="M211.77,206.24L217.1,206.24L217.1,211.57L211.77,211.57Z" style="fill:none;stroke:#7AC36A;stroke-width:0.625" />
<path d="M218.68,196.95L224.01,196.95L224.01,202.28L218.68,202.28Z" style="fill:none;stroke:#7AC36A;stroke-width:0.625" />
<path d="M225.58,204.76L230.92,204.76L230.92,210.1L225.58,210.1Z" style="fill:none;stroke:#7AC36A;stroke-width:0.625" />
<path d="M232.49,214.42L237.82,214.42L237.82,219.76L232.49,219.76Z" style="fill:none;stroke:#7AC36A;stroke-width:0.625" />
<path d="M239.39,229.73L244.73,229.73L244.73,235.07L239.39,235.07Z" style="fill:none;stroke:#7AC36A;stroke-width:0.625" />
<path d="M246.3,244.1L251.64,244.1L251.64,249.44L246.3,249.44Z" style="fill:none;stroke:#7AC36A;stroke-width:0.625" />
<path d="M253.21,278.74L258.54,278.74L258.54,284.07L253.21,284.07Z" style="fill:none;stroke:#7AC36A;stroke-width:0.625" />
<path d="M260.11,321.99L265.45,321.99L265.45,327.33L260.11,327.33Z" style="fill:none;stroke:#7AC36A;stroke-width:0.625" />
<path d="M267.02,364.6L272.36,364.6L272.36,369.94L267.02,369.94Z" style="fill:none;stroke:#7AC36A;stroke-width:0.625" />
<path d="M273.93,405.4L279.26,405.4L279.26,410.73L273.93,410.73Z" style="fill:none;stroke:#7AC36A;stroke-width:0.625" />
<path d="M280.83,435.66L286.17,435.66L286.17,440.99L280.83,440.99Z" style="fill:none;stroke:#7AC36A;stroke-width:0.625" />
<path d="M287.74,484.07L293.07,484.07L293.07,489.4L287.74,489.4Z" style="fill:none;stroke:#7AC36A;stroke-width:0.625" />
<path d="M294.65,535.65L299.98,535.65L299.98,540.98L294.65,540.98Z" style="fill:none;stroke:#7AC36A;stroke-width:0.625" />
<path d="M301.55,569.16L306.89,569.16L306.89,574.5L301.55,574.5Z" style="fill:none;stroke:#7AC36A;stroke-width:0.625" />
<path d="M308.46,594.78L313.79,594.78L313.79,600.11L308.46,600.11Z" style="fill:none;stroke:#7AC36A;stroke-width:0.625" />
<path d="M315.37,622.64L320.7,622.64L320.7,627.97L315.37,627.97Z" style="fill:none;stroke:#7AC36A;stroke-width:0.625" />
<path d="M322.27,643.29L327.61,643.29L327.61,648.63L322.27,648.63Z" style="fill:none;stroke:#7AC36A;stroke-width:0.625" />
<path d="M329.18,643.19L334.51,643.19L334.51,648.53L329.18,648.53Z" style="fill:none;stroke:#7AC36A;stroke-width:0.625" />
<path d="M336.09,643.03L341.42,643.03L341.42,648.37L336.09,648.37Z" style="fill:none;stroke:#7AC36A;stroke-width:0.625" />
<path d="M342.99,632.85L348.33,632.85L348.33,638.18L342.99,638.18Z" style="fill:none;stroke:#7AC36A;stroke-width:0.625" />
<path d="M349.9,623.18L355.23,623.18L355.23,628.52L349.9,628.52Z" style="fill:none;stroke:#7AC36A;stroke-width:0.625" />
<path d="M356.8,592.1L362.14,592.1L362.14,597.43L356.8,597.43Z" style="fill:none;stroke:#7AC36A;stroke-width:0.625" />
<path d="M363.71,569.51L369.05,569.51L369.05,574.84L363.71,574.84Z" style="fill:none;stroke:#7AC36A;stroke-width:0.625" />
<path d="M370.62,551.88L375.95,551.88L375.95,557.22L370.62,557.22Z" style="fill:none;stroke:#7AC36A;stroke-width:0.625" />
<path d="M377.52,527.44L382.86,527.44L382.86,532.77L377.52,532.77Z" style="fill:none;stroke:#7AC36A;stroke-width:0.625" />
<path d="M384.43,483.05L389.76,483.05L389.76,488.39L384.43,488.39Z" style="fill:none;stroke:#7AC36A;stroke-width:0.625" />
<path d="M391.34,446.2L396.67,446.2L396.67,451.53L391.34,451.53Z" style="fill:none;stroke:#7AC36A;stroke-width:0.625" />
<path d="M398.24,412.14L403.58,412.14L403.58,417.47L398.24,417.47Z" style="fill:none;stroke:#7AC36A;stroke-width:0.625" />
<path d="M405.15,374.95L410.48,374.95L410.48,380.29L405.15,380.29Z" style="fill:none;stroke:#7AC36A;stroke-width:0.625" />
<path d="M412.06,348.41L417.39,348.41L417.39,353.75L412.06,353.75Z" style="fill:none;stroke:#7AC36A;stroke-width:0.625" />
<path d="M418.96,311.11L424.3,311.11L424.3,316.45L418.96,316.45Z" style="fill:none;stroke:#7AC36A;stroke-width:0.625" />
<path d="M425.87,285.69L431.2,285.69L431.2,291.03L425.87,291.03Z" style="fill:none;stroke:#7AC36A;stroke-width:0.625" />
<path d="M432.78,250.98L438.11,250.98L438.11,256.32L432.78,256.32Z" style="fill:none;stroke:#7AC36A;stroke-width:0.625" />
<path d="M439.68,208.27L445.02,208.27L445.02,213.61L439.68,213.61Z" style="fill:none;stroke:#7AC36A;stroke-width:0.625" />
<path d="M446.59,185.37L451.92,185.37L451.92,190.7L446.59,190.7Z" style="fill:none;stroke:#7AC36A;stroke-width:0.625" />
<path d="M453.49,174.09L458.83,174.09L458.83,179.42L453.49,179.42Z" style="fill:none;stroke:#7AC36A;stroke-width:0.625" />
<path d="M460.4,186.3L465.74,186.3L465.74,191.63L460.4,191.63Z" style="fill:none;stroke:#7AC36A;stroke-width:0.625" />
<path d="M467.31,185.67L472.64,185.67L472.64,191L467.31,191Z" style="fill:none;stroke:#7AC36A;stroke-width:0.625" />
<path d="M474.21,211.56L479.55,211.56L479.55,216.89L474.21,216.89Z" style="fill:none;stroke:#7AC36A;stroke-width:0.625" />
<path d="M481.12,224.41L486.45,224.41L486.45,229.74L481.12,229.74Z" style="fill:none;stroke:#7AC36A;stroke-width:0.625" />
<path d="M488.03,248.03L493.36,248.03L493.36,253.37L488.03,253.37Z" style="fill:none;stroke:#7AC36A;stroke-width:0.625" />
<path d="M494.93,265.75L500.27,265.75L500.27,271.08L494.93,271.08Z" style="fill:none;stroke:#7AC36A;stroke-width:0.625" />
<path d="M501.84,300.38L507.17,300.38L507.17,305.72L501.84,305.72Z" style="fill:none;stroke:#7AC36A;stroke-width:0.625" />
<path d="M508.75,345.01L514.08,345.01L514.08,350.34L508.75,350.34Z" style="fill:none;stroke:#7AC36A;stroke-width:0.625" />
<path d="M515.65,392.68L520.99,392.68L520.99,398.02L515.65,398.02Z" style="fill:none;stroke:#7AC36A;stroke-width:0.625" />
<path d="M522.56,436.51L527.89,436.51L527.89,441.85L522.56,441.85Z" style="fill:none;stroke:#7AC36A;stroke-width:0.625" />
<path d="M529.47,463.47L534.8,463.47L534.8,468.8L529.47,468.8Z" style="fill:none;stroke:#7AC36A;stroke-width:0.625" />
<path d="M536.37,514.13L541.71,514.13L541.71,519.46L536.37,519.46Z" style="fill:none;stroke:#7AC36A;stroke-width:0.625" />
<path d="M543.28,532.03L548.61,532.03L548.61,537.37L543.28,537.37Z" style="fill:none;stroke:#7AC36A;stroke-width:0.625" />
<path d="M550.18,571.1L555.52,571.1L555.52,576.44L550.18,576.44Z" style="fill:none;stroke:#7AC36A;stroke-width:0.625" />
<path d="M557.09,606.97L562.43,606.97L562.43,612.3L557.09,612.3Z" style="fill:none;stroke:#7AC36A;stroke-width:0.625" />
<path d="M564,644.51L569.33,644.51L569.33,649.84L564,649.84Z" style="fill:none;stroke:#7AC36A;stroke-width:0.625" />
<path d="M570.9,657.4L576.24,657.4L576.24,662.73L570.9,662.73Z" style="fill:none;stroke:#7AC36A;stroke-width:0.625" />
<path d="M577.81,676.78L583.14,676.78L583.14,682.11L577.81,682.11Z" style="fill:none;stroke:#7AC36A;stroke-width:0.625" />
<path d="M584.72,678.68L590.05,678.68L590.05,684.01L584.72,684.01Z" style="fill:none;stroke:#7AC36A;stroke-width:0.625" />
<path d="M591.62,666.15L596.96,666.15L596.96,671.48L591.62,671.48Z" style="fill:none;stroke:#7AC36A;stroke-width:0.625" />
<path d="M598.53,649.79L603.86,649.79L603.86,655.12L598.53,655.12Z" style="fill:none;stroke:#7AC36A;stroke-width:0.625" />
<path d="M605.44,621.86L610.77,621.86L610.77,627.2L605.44,627.2Z" style="fill:none;stroke:#7AC36A;stroke-width:0.625" />
<path d="M612.34,614.2L617.68,614.2L617.68,619.53L612.34,619.53Z" style="fill:none;stroke:#7AC36A;stroke-width:0.625" />
<path d="M619.25,592.33L624.58,592.33L624.58,597.66L619.25,597.66Z" style="fill:none;stroke:#7AC36A;stroke-width:0.625" />
<path d="M626.16,539.78L631.49,539.78L631.49,545.11L626.16,545.11Z" style="fill:none;stroke:#7AC36A;stroke-width:0.625" />
<path d="M633.06,508.93L638.4,508.93L638.4,514.26L633.06,514.26Z" style="fill:none;stroke:#7AC36A;stroke-width:0.625" />
<path d="M639.97,482.88L645.3,482.88L645.3,488.21L639.97,488.21Z" style="fill:none;stroke:#7AC36A;stroke-width:0.625" />
<path d="M646.87,424.18L652.21,424.18L652.21,429.51L646.87,429.51Z" style="fill:none;stroke:#7AC36A;stroke-width:0.625" />
<path d="M653.78,391.16L659.12,391.16L659.12,396.5L653.78,396.5Z" style="fill:none;stroke:#7AC36A;stroke-width:0.625" />
<path d="M660.69,364.37L666.02,364.37L666.02,369.71L660.69,369.71Z" style="fill:none;stroke:#7AC36A;stroke-width:0.625" />
<path d="M667.59,348.97L672.93,348.97L672.93,354.3L667.59,354.3Z" style="fill:none;stroke:#7AC36A;stroke-width:0.625" />
<path d="M674.5,317.6L679.83,317.6L679.83,322.93L674.5,322.93Z" style="fill:none;stroke:#7AC36A;stroke-width:0.625" />
<path d="M681.41,283.05L686.74,283.05L686.74,288.39L681.41,288.39Z" style="fill:none;stroke:#7AC36A;stroke-width:0.625" />
<path d="M688.31,249.19L693.65,249.19L693.65,254.53L688.31,254.53Z" style="fill:none;stroke:#7AC36A;stroke-width:0.625" />
<path d="M695.22,229.41L700.55,229.41L700.55,234.74L695.22,234.74Z" style="fill:none;stroke:#7AC36A;stroke-width:0.625" />
<path d="M702.13,206.79L707.46,206.79L707.46,212.12L702.13,212.12Z" style="fill:none;stroke:#7AC36A;stroke-width:0.625" />
<path d="M709.03,197.29L714.37,197.29L714.37,202.62L709.03,202.62Z" style="fill:none;stroke:#7AC36A;stroke-width:0.625" />
<path d="M715.94,205.4L721.27,205.4L721.27,210.73L715.94,210.73Z" style="fill:none;stroke:#7AC36A;stroke-width:0.625" />
<path d="M722.85,215.54L728.18,215.54L728.18,220.88L722.85,220.88Z" style="fill:none;stroke:#7AC36A;stroke-width:0.625" />
<path d="M729.75,216.97L735.09,216.97L735.09,222.31L729.75,222.31Z" style="fill:none;stroke:#7AC36A;stroke-width:0.625" />
<path d="M736.66,214.2L741.99,214.2L741.99,219.54L736.66,219.54Z" style="fill:none;stroke:#7AC36A;stroke-width:0.625" />
<path d="M743.56,236.3L748.9,236.3L748.9,241.63L743.56,241.63Z" style="fill:none;stroke:#7AC36A;stroke-width:0.625" />
<path d="M750.47,272.45L755.81,272.45L755.81,277.79L750.47,277.79Z" style="fill:none;stroke:#7AC36A;stroke-width:0.625" />
<path d="M757.38,300.93L762.71,300.93L762.71,306.26L757.38,306.26Z" style="fill:none;stroke:#7AC36A;stroke-width:0.625" />
<path d="M764.28,361.01L769.62,361.01L769.62,366.35L764.28,366.35Z" style="fill:none;stroke:#7AC36A;stroke-width:0.625" />
<path d="M771.19,392.69L776.52,392.69L776.52,398.03L771.19,398.03Z" style="fill:none;stroke:#7AC36A;stroke-width:0.625" />
<path d="M778.1,424.25L783.43,424.25L783.43,429.58L778.1,429.58Z" style="fill:none;stroke:#7AC36A;stroke-width:0.625" />
<path d="M785,458.37L790.34,458.37L790.34,463.7L785,463.7Z" style="fill:none;stroke:#7AC36A;stroke-width:0.625" />
<path d="M791.91,482.33L797.24,482.33L797.24,487.66L791.91,487.66Z" style="fill:none;stroke:#7AC36A;stroke-width:0.625" />
<path d="M798.82,540.07L804.15,540.07L804.15,545.4L798.82,545.4Z" style="fill:none;stroke:#7AC36A;stroke-width:0.625" />
<path d="M805.72,568.99L811.06,568.99L811.06,574.33L805.72,574.33Z" style="fill:none;stroke:#7AC36A;stroke-width:0.625" />
<path d="M812.63,610.67L817.96,610.67L817.96,616.01L812.63,616.01Z" style="fill:none;stroke:#7AC36A;stroke-width:0.625" />
<path d="M819.54,627.3L824.87,627.3L824.87,632.64L819.54,632.64Z" style="fill:none;stroke:#7AC36A;stroke-width:0.625" />
<path d="M826.44,634.52L831.78,634.52L831.78,639.86L826.44,639.86Z" style="fill:none;stroke:#7AC36A;stroke-width:0.625" />
<path d="M833.35,639.6L838.68,639.6L838.68,644.93L833.35,644.93Z" style="fill:none;stroke:#7AC36A;stroke-width:0.625" />
<path d="M840.25,633.45L845.59,633.45L845.59,638.78L840.25,638.78Z" style="fill:none;stroke:#7AC36A;stroke-width:0.625" />
<path d="M847.16,630.48L852.5,630.48L852.5,635.81L847.16,635.81Z" style="fill:none;stroke:#7AC36A;stroke-width:0.625" />
<path d="M854.07,619.1L859.4,619.1L859.4,624.44L854.07,624.44Z" style="fill:none;stroke:#7AC36A;stroke-width:0.625" />
<path d="M860.97,606.6L866.31,606.6L866.31,611.94L860.97,611.94Z" style="fill:none;stroke:#7AC36A;stroke-width:0.625" />
<path d="M867.88,556.25L873.21,556.25L873.21,561.59L867.88,561.59Z" style="fill:none;stroke:#7AC36A;stroke-width:0.625" />
<path d="M874.79,527.81L880.12,527.81L880.12,533.15L874.79,533.15Z" style="fill:none;stroke:#7AC36A;stroke-width:0.625" />
<path d="M881.69,480.13L887.03,480.13L887.03,485.46L881.69,485.46Z" style="fill:none;stroke:#7AC36A;stroke-width:0.625" />
<path d="M888.6,428.01L893.93,428.01L893.93,433.35L888.6,433.35Z" style="fill:none;stroke:#7AC36A;stroke-width:0.625" />
<path d="M895.51,408.06L900.84,408.06L900.84,413.39L895.51,413.39Z" style="fill:none;stroke:#7AC36A;stroke-width:0.625" />
<path d="M902.41,359.12L907.75,359.12L907.75,364.45L902.41,364.45Z" style="fill:none;stroke:#7AC36A;stroke-width:0.625" />
<path d="M909.32,319.96L914.65,319.96L914.65,325.29L909.32,325.29Z" style="fill:none;stroke:#7AC36A;stroke-width:0.625" />
<path d="M916.23,277.52L921.56,277.52L921.56,282.85L916.23,282.85Z" style="fill:none;stroke:#7AC36A;stroke-width:0.625" />
<path d="M923.13,242.76L928.47,242.76L928.47,248.09L923.13,248.09Z" style="fill:none;stroke:#7AC36A;stroke-width:0.625" />
<path d="M930.04,219.39L935.37,219.39L935.37,224.73L930.04,224.73Z" style="fill:none;stroke:#7AC36A;stroke-width:0.625" />
<path d="M936.94,208.36L942.28,208.36L942.28,213.7L936.94,213.7Z" style="fill:none;stroke:#7AC36A;stroke-width:0.625" />
<path d="M943.85,209.97L949.19,209.97L949.19,215.3L943.85,215.3Z" style="fill:none;stroke:#7AC36A;stroke-width:0.625" />
<path d="M950.76,195.45L956.09,195.45L956.09,200.79L950.76,200.79Z" style="fill:none;stroke:#7AC36A;stroke-width:0.625" />
<path d="M957.66,199.05L963,199.05L963,204.39L957.66,204.39Z" style="fill:none;stroke:#7AC36A;stroke-width:0.625" />
<path d="M964.57,185.75L969.91,185.75L969.91,191.08L964.57,191.08Z" style="fill:none;stroke:#7AC36A;stroke-width:0.625" />
<path d="M971.48,203.04L976.81,203.04L976.81,208.37L971.48,208.37Z" style="fill:none;stroke:#7AC36A;stroke-width:0.625" />
<path d="M978.38,241.09L983.72,241.09L983.72,246.43L978.38,246.43Z" style="fill:none;stroke:#7AC36A;stroke-width:0.625" />
<path d="M985.29,272.45L990.62,272.45L990.62,277.79L985.29,277.79Z" style="fill:none;stroke:#7AC36A;stroke-width:0.625" />
<path d="M992.2,293.08L997.53,293.08L997.53,298.41L992.2,298.41Z" style="fill:none;stroke:#7AC36A;stroke-width:0.625" />
<path d="M999.1,310.35L1004.4,310.35L1004.4,315.68L999.1,315.68Z" style="fill:none;stroke:#7AC36A;stroke-width:0.625" />
<path d="M1006,341.97L1011.3,341.97L1011.3,347.3L1006,347.3Z" style="fill:none;stroke:#7AC36A;stroke-width:0.625" />
<path d="M1012.9,366.81L1018.3,366.81L1018.3,372.14L1012.9,372.14Z" style="fill:none;stroke:#7AC36A;stroke-width:0.625" />
<path d="M1019.8,400.18L1025.2,400.18L1025.2,405.51L1019.8,405.51Z" style="fill:none;stroke:#7AC36A;stroke-width:0.625" />
<path d="M1026.7,451.31L1032.1,451.31L1032.1,456.65L1026.7,456.65Z" style="fill:none;stroke:#7AC36A;stroke-width:0.625" />
<path d="M1033.6,494.19L1039,494.19L1039,499.52L1033.6,499.52Z" style="fill:none;stroke:#7AC36A;stroke-width:0.625" />
<path d="M1040.5,529.69L1045.9,529.69L1045.9,535.03L1040.5,535.03Z" style="fill:none;stroke:#7AC36A;stroke-width:0.625" />
<path d="M1047.4,540.45L1052.8,540.45L1052.8,545.79L1047.4,545.79Z" style="fill:none;stroke:#7AC36A;stroke-width:0.625" />
<path d="M1054.4,568.54L1059.7,568.54L1059.7,573.88L1054.4,573.88Z" style="fill:none;stroke:#7AC36A;stroke-width:0.625" />
<path d="M1061.3,598.38L1066.6,598.38L1066.6,603.71L1061.3,603.71Z" style="fill:none;stroke:#7AC36A;stroke-width:0.625" />
<path d="M1068.2,626.86L1073.5,626.86L1073.5,632.19L1068.2,632.19Z" style="fill:none;stroke:#7AC36A;stroke-width:0.625" />
<path d="M1075.1,649.94L1080.4,649.94L1080.4,655.27L1075.1,655.27Z" style="fill:none;stroke:#7AC36A;stroke-width:0.625" />
<path d="M1082,661.43L1087.3,661.43L1087.3,666.77L1082,666.77Z" style="fill:none;stroke:#7AC36A;stroke-width:0.625" />
<path d="M1088.9,665.81L1094.2,665.81L1094.2,671.14L1088.9,671.14Z" style="fill:none;stroke:#7AC36A;stroke-width:0.625" />
<path d="M1095.8,646.72L1101.1,646.72L1101.1,652.05L1095.8,652.05Z" style="fill:none;stroke:#7AC36A;stroke-width:0.625" />
<path d="M1102.7,641.12L1108,641.12L1108,646.45L1102.7,646.45Z" style="fill:none;stroke:#7AC36A;stroke-width:0.625" />
<path d="M1109.6,606.75L1114.9,606.75L1114.9,612.08L1109.6,612.08Z" style="fill:none;stroke:#7AC36A;stroke-width:0.625" />
<path d="M1116.5,596.67L1121.8,596.67L1121.8,602.01L1116.5,602.01Z" style="fill:none;stroke:#7AC36A;stroke-width:0.625" />
<path d="M1123.4,573.37L1128.8,573.37L1128.8,578.71L1123.4,578.71Z" style="fill:none;stroke:#7AC36A;stroke-width:0.625" />
<path d="M1130.3,554.09L1135.7,554.09L1135.7,559.43L1130.3,559.43Z" style="fill:none;stroke:#7AC36A;stroke-width:0.625" />
<path d="M1137.2,497.87L1142.6,497.87L1142.6,503.21L1137.2,503.21Z" style="fill:none;stroke:#7AC36A;stroke-width:0.625" />
<path d="M1144.1,445.41L1149.5,445.41L1149.5,450.74L1144.1,450.74Z" style="fill:none;stroke:#7AC36A;stroke-width:0.625" />
<path d="M1151,389.57L1156.4,389.57L1156.4,394.9L1151,394.9Z" style="fill:none;stroke:#7AC36A;stroke-width:0.625" />
<path d="M1158,350.34L1163.3,350.34L1163.3,355.67L1158,355.67Z" style="fill:none;stroke:#7AC36A;stroke-width:0.625" />
<path d="M1164.9,322.34L1170.2,322.34L1170.2,327.68L1164.9,327.68Z" style="fill:none;stroke:#7AC36A;stroke-width:0.625" />
<path d="M1171.8,291.81L1177.1,291.81L1177.1,297.14L1171.8,297.14Z" style="fill:none;stroke:#7AC36A;stroke-width:0.625" />
<path d="M1178.7,280.16L1184,280.16L1184,285.49L1178.7,285.49Z" style="fill:none;stroke:#7AC36A;stroke-width:0.625" />
<path d="M1185.6,239.51L1190.9,239.51L1190.9,244.85L1185.6,244.85Z" style="fill:none;stroke:#7AC36A;stroke-width:0.625" />
<path d="M1192.5,198.45L1197.8,198.45L1197.8,203.78L1192.5,203.78Z" style="fill:none;stroke:#7AC36A;stroke-width:0.625" />
<path d="M1199.4,186.22L1204.7,186.22L1204.7,191.56L1199.4,191.56Z" style="fill:none;stroke:#7AC36A;stroke-width:0.625" />
<path d="M1206.3,182.23L1211.6,182.23L1211.6,187.57L1206.3,187.57Z" style="fill:none;stroke:#7AC36A;stroke-width:0.625" />
<path d="M1213.2,183.29L1218.5,183.29L1218.5,188.62L1213.2,188.62Z" style="fill:none;stroke:#7AC36A;stroke-width:0.625" />
<path d="M1220.1,195.8L1225.4,195.8L1225.4,201.14L1220.1,201.14Z" style="fill:none;stroke:#7AC36A;stroke-width:0.625" />
<path d="M1227,209.04L1232.3,209.04L1232.3,214.37L1227,214.37Z" style="fill:none;stroke:#7AC36A;stroke-width:0.625" />
<path d="M1233.9,211.52L1239.3,211.52L1239.3,216.86L1233.9,216.86Z" style="fill:none;stroke:#7AC36A;stroke-width:0.625" />
<path d="M1240.8,225.69L1246.2,225.69L1246.2,231.03L1240.8,231.03Z" style="fill:none;stroke:#7AC36A;stroke-width:0.625" />
<path d="M1247.7,234.5L1253.1,234.5L1253.1,239.84L1247.7,239.84Z" style="fill:none;stroke:#7AC36A;stroke-width:0.625" />
<path d="M1254.6,270.89L1260,270.89L1260,276.23L1254.6,276.23Z" style="fill:none;stroke:#7AC36A;stroke-width:0.625" />
<path d="M1261.5,329.47L1266.9,329.47L1266.9,334.8L1261.5,334.8Z" style="fill:none;stroke:#7AC36A;stroke-width:0.625" />
<path d="M1268.5,367.14L1273.8,367.14L1273.8,372.48L1268.5,372.48Z" style="fill:none;stroke:#7AC36A;stroke-width:0.625" />
<path d="M1275.4,422.55L1280.7,422.55L1280.7,427.88L1275.4,427.88Z" style="fill:none;stroke:#7AC36A;stroke-width:0.625" />
<path d="M1282.3,466.51L1287.6,466.51L1287.6,471.84L1282.3,471.84Z" style="fill:none;stroke:#7AC36A;stroke-width:0.625" />
<path d="M1289.2,500.73L1294.5,500.73L1294.5,506.06L1289.2,506.06Z" style="fill:none;stroke:#7AC36A;stroke-width:0.625" />
<path d="M1296.1,545.6L1301.4,545.6L1301.4,550.93L1296.1,550.93Z" style="fill:none;stroke:#7AC36A;stroke-width:0.625" />
<path d="M1303,575.14L1308.3,575.14L1308.3,580.48L1303,580.48Z" style="fill:none;stroke:#7AC36A;stroke-width:0.625" />
<path d="M1309.9,611.77L1315.2,611.77L1315.2,617.1L1309.9,617.1Z" style="fill:none;stroke:#7AC36A;stroke-width:0.625" />
<path d="M1316.8,628.79L1322.1,628.79L1322.1,634.13L1316.8,634.13Z" style="fill:none;stroke:#7AC36A;stroke-width:0.625" />
<path d="M1323.7,641.4L1329,641.4L1329,646.73L1323.7,646.73Z" style="fill:none;stroke:#7AC36A;stroke-width:0.625" />
<path d="M1330.6,626.98L1335.9,626.98L1335.9,632.32L1330.6,632.32Z" style="fill:none;stroke:#7AC36A;stroke-width:0.625" />
<path d="M1337.5,614.34L1342.9,614.34L1342.9,619.68L1337.5,619.68Z" style="fill:none;stroke:#7AC36A;stroke-width:0.625" />
<path d="M1344.4,591.04L1349.8,591.04L1349.8,596.38L1344.4,596.38Z" style="fill:none;stroke:#7AC36A;stroke-width:0.625" />
<path d="M1351.3,576.06L1356.7,576.06L1356.7,581.39L1351.3,581.39Z" style="fill:none;stroke:#7AC36A;stroke-width:0.625" />
<path d="M1358.2,575.51L1363.6,575.51L1363.6,580.85L1358.2,580.85Z" style="fill:none;stroke:#7AC36A;stroke-width:0.625" />
<path d="M1365.1,537.47L1370.5,537.47L1370.5,542.81L1365.1,542.81Z" style="fill:none;stroke:#7AC36A;stroke-width:0.625" />
<path d="M1372,526.39L1377.4,526.39L1377.4,531.72L1372,531.72Z" style="fill:none;stroke:#7AC36A;stroke-width:0.625" />
<path d="M1379,499.24L1384.3,499.24L1384.3,504.57L1379,504.57Z" style="fill:none;stroke:#7AC36A;stroke-width:0.625" />
<path d="M1385.9,492.89L1391.2,492.89L1391.2,498.22L1385.9,498.22Z" style="fill:none;stroke:#7AC36A;stroke-width:0.625" />
<path d="M1392.8,485L1398.1,485L1398.1,490.33L1392.8,490.33Z" style="fill:none;stroke:#7AC36A;stroke-width:0.625" />
<path d="M1399.7,478.85L1405,478.85L1405,484.18L1399.7,484.18Z" style="fill:none;stroke:#7AC36A;stroke-width:0.625" />
<path d="M1406.6,465.36L1411.9,465.36L1411.9,470.69L1406.6,470.69Z" style="fill:none;stroke:#7AC36A;stroke-width:0.625" />
<path d="M1413.5,463.38L1418.8,463.38L1418.8,468.72L1413.5,468.72Z" style="fill:none;stroke:#7AC36A;stroke-width:0.625" />
<path d="M1420.4,446.84L1425.7,446.84L1425.7,452.18L1420.4,452.18Z" style="fill:none;stroke:#7AC36A;stroke-width:0.625" />
<path d="M1427.3,386.8L1432.6,386.8L1432.6,392.13L1427.3,392.13Z" style="fill:none;stroke:#7AC36A;stroke-width:0.625" />
<path d="M1434.2,458.28L1439.5,458.28L1439.5,463.61L1434.2,463.61Z" style="fill:none;stroke:#7AC36A;stroke-width:0.625" />
<path d="M1415,70.183L1440,70.183" style="fill:none;stroke:#F15A60;stroke-width:1.25" />
<path d="M1430.6,70.183A3.125,3.125 0 1 1 1424.4,70.183A3.125,3.125 0 1 1 1430.6,70.183Z" style="fill:none;stroke:#F15A60;stroke-width:0.625" />
<text x="1388.8" y="-63.101" transform="scale(1, -1)"
	style="font-family:Times;font-weight:normal;font-style:normal;font-size:12pt">raw</text>
<path d="M1415,55.461L1440,55.461" style="fill:none;stroke:#7AC36A;stroke-width:1.25;stroke-dasharray:7.5,2.5" />
<path d="M1424.8,52.794L1430.2,52.794L1430.2,58.129L1424.8,58.129Z" style="fill:none;stroke:#7AC36A;stroke-width:0.625" />
<text x="1367.1" y="-48.379" transform="scale(1, -1)"
	style="font-family:Times;font-weight:normal;font-style:normal;font-size:12pt">smooth</text>
</g>
</svg>
