<?xml version="1.0"?>
<!-- Generated by SVGo and Plotinum VG -->
<svg width="16in" height="9in"
	xmlns="http://www.w3.org/2000/svg"
	xmlns:xlink="http://www.w3.org/1999/xlink">
<g transform="scale(1, -1) translate(0, -810)">
<path d="M0,0L1440,0L1440,810L0,810Z" style="fill:#FFFFFF" />
<text x="740.03" y="-5.355" transform="scale(1, -1)"
	style="font-family:Times;font-weight:normal;font-style:normal;font-size:12pt">X</text>
<text x="50.888" y="-19.025" transform="scale(1, -1)"
	style="font-family:Times;font-weight:normal;font-style:normal;font-size:10pt">0</text>
<text x="464.71" y="-19.025" transform="scale(1, -1)"
	style="font-family:Times;font-weight:normal;font-style:normal;font-size:10pt">60</text>
<text x="878.52" y="-19.025" transform="scale(1, -1)"
	style="font-family:Times;font-weight:normal;font-style:normal;font-size:10pt">120</text>
<text x="1295.5" y="-19.025" transform="scale(1, -1)"
	style="font-family:Times;font-weight:normal;font-style:normal;font-size:10pt">180</text>
<path d="M54.013,29.625L54.013,39.625" style="fill:none;stroke:#000000;stroke-width:0.625" />
<path d="M470.96,29.625L470.96,39.625" style="fill:none;stroke:#000000;stroke-width:0.625" />
<path d="M887.9,29.625L887.9,39.625" style="fill:none;stroke:#000000;stroke-width:0.625" />
<path d="M1304.8,29.625L1304.8,39.625" style="fill:none;stroke:#000000;stroke-width:0.625" />
<path d="M192.99,34.625L192.99,39.625" style="fill:none;stroke:#000000;stroke-width:0.625" />
<path d="M331.97,34.625L331.97,39.625" style="fill:none;stroke:#000000;stroke-width:0.625" />
<path d="M609.94,34.625L609.94,39.625" style="fill:none;stroke:#000000;stroke-width:0.625" />
<path d="M748.92,34.625L748.92,39.625" style="fill:none;stroke:#000000;stroke-width:0.625" />
<path d="M1026.9,34.625L1026.9,39.625" style="fill:none;stroke:#000000;stroke-width:0.625" />
<path d="M1165.9,34.625L1165.9,39.625" style="fill:none;stroke:#000000;stroke-width:0.625" />
<path d="M54.013,39.625L1436.9,39.625" style="fill:none;stroke:#000000;stroke-width:0.625" />
<g transform="rotate(90)">
<text x="422.68" y="12.72" transform="scale(1, -1)"
	style="font-family:Times;font-weight:normal;font-style:normal;font-size:12pt">Y</text>
</g>
<text x="24.325" y="-74.944" transform="scale(1, -1)"
	style="font-family:Times;font-weight:normal;font-style:normal;font-size:10pt">0</text>
<text x="18.075" y="-242.76" transform="scale(1, -1)"
	style="font-family:Times;font-weight:normal;font-style:normal;font-size:10pt">10</text>
<text x="18.075" y="-410.57" transform="scale(1, -1)"
	style="font-family:Times;font-weight:normal;font-style:normal;font-size:10pt">20</text>
<text x="18.075" y="-578.38" transform="scale(1, -1)"
	style="font-family:Times;font-weight:normal;font-style:normal;font-size:10pt">30</text>
<text x="18.075" y="-746.19" transform="scale(1, -1)"
	style="font-family:Times;font-weight:normal;font-style:normal;font-size:10pt">40</text>
<path d="M33.7,79.769L43.7,79.769" style="fill:none;stroke:#000000;stroke-width:0.625" />
<path d="M33.7,247.58L43.7,247.58" style="fill:none;stroke:#000000;stroke-width:0.625" />
<path d="M33.7,415.39L43.7,415.39" style="fill:none;stroke:#000000;stroke-width:0.625" />
<path d="M33.7,583.2L43.7,583.2" style="fill:none;stroke:#000000;stroke-width:0.625" />
<path d="M33.7,751.01L43.7,751.01" style="fill:none;stroke:#000000;stroke-width:0.625" />
<path d="M38.7,163.67L43.7,163.67" style="fill:none;stroke:#000000;stroke-width:0.625" />
<path d="M38.7,331.49L43.7,331.49" style="fill:none;stroke:#000000;stroke-width:0.625" />
<path d="M38.7,499.3L43.7,499.3" style="fill:none;stroke:#000000;stroke-width:0.625" />
<path d="M38.7,667.11L43.7,667.11" style="fill:none;stroke:#000000;stroke-width:0.625" />
<path d="M43.7,49.313L43.7,806.88" style="fill:none;stroke:#000000;stroke-width:0.625" />
<path d="M54.013,84.749L60.962,92.892L67.911,93.736L74.86,112.96L81.809,110.52L88.758,111.07L95.707,125.57L102.66,120.04L109.6,114.6L116.55,115.94L123.5,115.41L130.45,123.03L137.4,112.4L144.35,106.06L151.3,103.85L158.25,110.18L165.2,100.78L172.15,90.116L179.1,86.721L186.04,74.746L192.99,75.673L199.94,73.05L206.89,60.407L213.84,59.19L220.79,60.845L227.74,64.034L234.69,62.973L241.64,49.969L248.59,51.939L255.54,63.518L262.48,69.091L269.43,62.393L276.38,71.138L283.33,68.997L290.28,85.176L297.23,88.703L304.18,85.823L311.13,98.114L318.08,106.27L325.03,105.59L331.97,99.601L338.92,117.3L345.87,118.72L352.82,110.95L359.77,104.18L366.72,112.13L373.67,113.12L380.62,109.86L387.57,101.95L394.52,107.05L401.47,94.924L408.41,88.779L415.36,97.037L422.31,79.612L429.26,89.374L436.21,77.749L443.16,84.972L450.11,76.232L457.06,80.189L464.01,65.457L470.96,68.419L477.91,68.462L484.85,70.305L491.8,81.225L498.75,82.274L505.7,68.831L512.65,71.339L519.6,81.078L526.55,77.945L533.5,88.372L540.45,90.287L547.4,91.097L554.34,89.325L561.29,92.997L568.24,95.864L575.19,100L582.14,93.218L589.09,94.187L596.04,99.462L602.99,95.708L609.94,99.946L616.89,99.411L623.84,97.428L630.78,92.937L637.73,98.228L644.68,82.635L651.63,83.586L658.58,83.742L665.53,84.186L672.48,91.33L679.43,94.481L686.38,89.14L693.33,96.307L700.27,89.895L707.22,88.313L714.17,88.306L721.12,97.774L728.07,92.196L735.02,97.851L741.97,91.329L748.92,87.137L755.87,93.448L762.82,95.99L769.77,98.045L776.71,93.559L783.66,88.681L790.61,93.099L797.56,84.607L804.51,79.617L811.46,77.377L818.41,83.777L825.36,73.225L832.31,75.8L839.26,72.542L846.21,69.534L853.15,77.122L860.1,79.528L867.05,67.11L874,69.884L880.95,83.869L887.9,85.109L894.85,87.991L901.8,87.186L908.75,82.476L915.7,95.952L922.64,91.723L929.59,101.6L936.54,107.94L943.49,100.55L950.44,98.405L957.39,106.19L964.34,114.21L971.29,111.21L978.24,106.18L985.19,112.46L992.14,113.64L999.08,106.78L1006,104.98L1013,98.29L1019.9,88.611L1026.9,86.915L1033.8,84.194L1040.8,87.33L1047.7,72.814L1054.7,77.682L1061.6,71.04L1068.6,65.558L1075.5,58.045L1082.5,68.913L1089.4,60.285L1096.4,62.32L1103.3,55.797L1110.3,57.325L1117.2,67.682L1124.2,68.938L1131.1,75.816L1138.1,74.439L1145,72.95L1152,89.977L1158.9,87.955L1165.9,91.049L1172.8,104.37L1179.8,101.11L1186.7,110.38L1193.7,110.3L1200.6,110.07L1207.6,115.93L1214.5,119.67L1221.5,124.56L1228.4,114.3L1235.4,118.93L1242.3,111.35L1249.3,118.61L1256.2,110.46L1263.1,106.37L1270.1,102.24L1277,91.514L1284,90.83L1290.9,69.788L1297.9,79.245L1304.8,62.84L1311.8,57.328L1318.7,64.314L1325.7,58.719L1332.6,49.313L1339.6,50.181L1346.5,56.758L1353.5,49.562L1360.4,55.653L1367.4,66.137L1374.3,74.84L1381.3,75.725L1388.2,84.678L1395.2,81.805L1402.1,84.371L1409.1,88.845L1416,95.166L1423,98.397L1429.9,112.16L1436.9,112.38" style="fill:none;stroke:#F15A60;stroke-width:1.25" />
<path d="M57.137,84.749L57.138,84.749A3.125,3.125 0 1 1 50.888,84.749A3.125,3.125 0 1 1 57.138,84.749Z" style="fill:none;stroke:#F15A60;stroke-width:0.625" />
<path d="M64.087,92.892A3.125,3.125 0 1 1 57.837,92.892A3.125,3.125 0 1 1 64.087,92.892Z" style="fill:none;stroke:#F15A60;stroke-width:0.625" />
<path d="M71.036,93.736A3.125,3.125 0 1 1 64.786,93.736A3.125,3.125 0 1 1 71.036,93.736Z" style="fill:none;stroke:#F15A60;stroke-width:0.625" />
<path d="M77.985,112.96L77.985,112.96A3.125,3.125 0 1 1 71.735,112.96A3.125,3.125 0 1 1 77.985,112.96Z" style="fill:none;stroke:#F15A60;stroke-width:0.625" />
<path d="M84.934,110.52A3.125,3.125 0 1 1 78.684,110.52A3.125,3.125 0 1 1 84.934,110.52Z" style="fill:none;stroke:#F15A60;stroke-width:0.625" />
<path d="M91.883,111.07A3.125,3.125 0 1 1 85.633,111.07A3.125,3.125 0 1 1 91.883,111.07Z" style="fill:none;stroke:#F15A60;stroke-width:0.625" />
<path d="M98.832,125.57L98.832,125.57A3.125,3.125 0 1 1 92.582,125.57A3.125,3.125 0 1 1 98.832,125.57Z" style="fill:none;stroke:#F15A60;stroke-width:0.625" />
<path d="M105.78,120.04L105.78,120.04A3.125,3.125 0 1 1 99.531,120.04A3.125,3.125 0 1 1 105.78,120.04Z" style="fill:none;stroke:#F15A60;stroke-width:0.625" />
<path d="M112.73,114.6A3.125,3.125 0 1 1 106.48,114.6A3.125,3.125 0 1 1 112.73,114.6Z" style="fill:none;stroke:#F15A60;stroke-width:0.625" />
<path d="M119.68,115.94A3.125,3.125 0 1 1 113.43,115.94A3.125,3.125 0 1 1 119.68,115.94Z" style="fill:none;stroke:#F15A60;stroke-width:0.625" />
<path d="M126.63,115.41L126.63,115.41A3.125,3.125 0 1 1 120.38,115.41A3.125,3.125 0 1 1 126.63,115.41Z" style="fill:none;stroke:#F15A60;stroke-width:0.625" />
<path d="M133.58,123.03L133.58,123.03A3.125,3.125 0 1 1 127.33,123.03A3.125,3.125 0 1 1 133.58,123.03Z" style="fill:none;stroke:#F15A60;stroke-width:0.625" />
<path d="M140.53,112.4A3.125,3.125 0 1 1 134.28,112.4A3.125,3.125 0 1 1 140.53,112.4Z" style="fill:none;stroke:#F15A60;stroke-width:0.625" />
<path d="M147.48,106.06A3.125,3.125 0 1 1 141.23,106.06A3.125,3.125 0 1 1 147.48,106.06Z" style="fill:none;stroke:#F15A60;stroke-width:0.625" />
<path d="M154.42,103.85A3.125,3.125 0 1 1 148.17,103.85A3.125,3.125 0 1 1 154.42,103.85Z" style="fill:none;stroke:#F15A60;stroke-width:0.625" />
<path d="M161.37,110.18A3.125,3.125 0 1 1 155.12,110.18A3.125,3.125 0 1 1 161.37,110.18Z" style="fill:none;stroke:#F15A60;stroke-width:0.625" />
<path d="M168.32,100.78A3.125,3.125 0 1 1 162.07,100.78A3.125,3.125 0 1 1 168.32,100.78Z" style="fill:none;stroke:#F15A60;stroke-width:0.625" />
<path d="M175.27,90.116L175.27,90.116A3.125,3.125 0 1 1 169.02,90.116A3.125,3.125 0 1 1 175.27,90.116Z" style="fill:none;stroke:#F15A60;stroke-width:0.625" />
<path d="M182.22,86.721A3.125,3.125 0 1 1 175.97,86.721A3.125,3.125 0 1 1 182.22,86.721Z" style="fill:none;stroke:#F15A60;stroke-width:0.625" />
<path d="M189.17,74.746A3.125,3.125 0 1 1 182.92,74.746A3.125,3.125 0 1 1 189.17,74.746Z" style="fill:none;stroke:#F15A60;stroke-width:0.625" />
<path d="M196.12,75.673A3.125,3.125 0 1 1 189.87,75.673A3.125,3.125 0 1 1 196.12,75.673Z" style="fill:none;stroke:#F15A60;stroke-width:0.625" />
<path d="M203.07,73.05L203.07,73.05A3.125,3.125 0 1 1 196.82,73.05A3.125,3.125 0 1 1 203.07,73.05Z" style="fill:none;stroke:#F15A60;stroke-width:0.625" />
<path d="M210.02,60.407A3.125,3.125 0 1 1 203.77,60.407A3.125,3.125 0 1 1 210.02,60.407Z" style="fill:none;stroke:#F15A60;stroke-width:0.625" />
<path d="M216.97,59.19L216.97,59.19A3.125,3.125 0 1 1 210.72,59.19A3.125,3.125 0 1 1 216.97,59.19Z" style="fill:none;stroke:#F15A60;stroke-width:0.625" />
<path d="M223.91,60.845A3.125,3.125 0 1 1 217.66,60.845A3.125,3.125 0 1 1 223.91,60.845Z" style="fill:none;stroke:#F15A60;stroke-width:0.625" />
<path d="M230.86,64.034L230.86,64.034A3.125,3.125 0 1 1 224.61,64.034A3.125,3.125 0 1 1 230.86,64.034Z" style="fill:none;stroke:#F15A60;stroke-width:0.625" />
<path d="M237.81,62.973A3.125,3.125 0 1 1 231.56,62.973A3.125,3.125 0 1 1 237.81,62.973Z" style="fill:none;stroke:#F15A60;stroke-width:0.625" />
<path d="M244.76,49.969A3.125,3.125 0 1 1 238.51,49.969A3.125,3.125 0 1 1 244.76,49.969Z" style="fill:none;stroke:#F15A60;stroke-width:0.625" />
<path d="M251.71,51.939A3.125,3.125 0 1 1 245.46,51.939A3.125,3.125 0 1 1 251.71,51.939Z" style="fill:none;stroke:#F15A60;stroke-width:0.625" />
<path d="M258.66,63.518A3.125,3.125 0 1 1 252.41,63.518A3.125,3.125 0 1 1 258.66,63.518Z" style="fill:none;stroke:#F15A60;stroke-width:0.625" />
<path d="M265.61,69.091A3.125,3.125 0 1 1 259.36,69.091A3.125,3.125 0 1 1 265.61,69.091Z" style="fill:none;stroke:#F15A60;stroke-width:0.625" />
<path d="M272.56,62.393A3.125,3.125 0 1 1 266.31,62.393A3.125,3.125 0 1 1 272.56,62.393Z" style="fill:none;stroke:#F15A60;stroke-width:0.625" />
<path d="M279.51,71.138A3.125,3.125 0 1 1 273.26,71.138A3.125,3.125 0 1 1 279.51,71.138Z" style="fill:none;stroke:#F15A60;stroke-width:0.625" />
<path d="M286.46,68.997A3.125,3.125 0 1 1 280.21,68.997A3.125,3.125 0 1 1 286.46,68.997Z" style="fill:none;stroke:#F15A60;stroke-width:0.625" />
<path d="M293.41,85.176L293.41,85.176A3.125,3.125 0 1 1 287.16,85.176A3.125,3.125 0 1 1 293.41,85.176Z" style="fill:none;stroke:#F15A60;stroke-width:0.625" />
<path d="M300.35,88.703A3.125,3.125 0 1 1 294.1,88.703A3.125,3.125 0 1 1 300.35,88.703Z" style="fill:none;stroke:#F15A60;stroke-width:0.625" />
<path d="M307.3,85.823A3.125,3.125 0 1 1 301.05,85.823A3.125,3.125 0 1 1 307.3,85.823Z" style="fill:none;stroke:#F15A60;stroke-width:0.625" />
<path d="M314.25,98.114A3.125,3.125 0 1 1 308,98.114A3.125,3.125 0 1 1 314.25,98.114Z" style="fill:none;stroke:#F15A60;stroke-width:0.625" />
<path d="M321.2,106.27L321.2,106.27A3.125,3.125 0 1 1 314.95,106.27A3.125,3.125 0 1 1 321.2,106.27Z" style="fill:none;stroke:#F15A60;stroke-width:0.625" />
<path d="M328.15,105.59A3.125,3.125 0 1 1 321.9,105.59A3.125,3.125 0 1 1 328.15,105.59Z" style="fill:none;stroke:#F15A60;stroke-width:0.625" />
<path d="M335.1,99.601A3.125,3.125 0 1 1 328.85,99.601A3.125,3.125 0 1 1 335.1,99.601Z" style="fill:none;stroke:#F15A60;stroke-width:0.625" />
<path d="M342.05,117.3A3.125,3.125 0 1 1 335.8,117.3A3.125,3.125 0 1 1 342.05,117.3Z" style="fill:none;stroke:#F15A60;stroke-width:0.625" />
<path d="M349,118.72A3.125,3.125 0 1 1 342.75,118.72A3.125,3.125 0 1 1 349,118.72Z" style="fill:none;stroke:#F15A60;stroke-width:0.625" />
<path d="M355.95,110.95A3.125,3.125 0 1 1 349.7,110.95A3.125,3.125 0 1 1 355.95,110.95Z" style="fill:none;stroke:#F15A60;stroke-width:0.625" />
<path d="M362.9,104.18A3.125,3.125 0 1 1 356.65,104.18A3.125,3.125 0 1 1 362.9,104.18Z" style="fill:none;stroke:#F15A60;stroke-width:0.625" />
<path d="M369.85,112.13A3.125,3.125 0 1 1 363.6,112.13A3.125,3.125 0 1 1 369.85,112.13Z" style="fill:none;stroke:#F15A60;stroke-width:0.625" />
<path d="M376.79,113.12L376.79,113.12A3.125,3.125 0 1 1 370.54,113.12A3.125,3.125 0 1 1 376.79,113.12Z" style="fill:none;stroke:#F15A60;stroke-width:0.625" />
<path d="M383.74,109.86A3.125,3.125 0 1 1 377.49,109.86A3.125,3.125 0 1 1 383.74,109.86Z" style="fill:none;stroke:#F15A60;stroke-width:0.625" />
<path d="M390.69,101.95L390.69,101.95A3.125,3.125 0 1 1 384.44,101.95A3.125,3.125 0 1 1 390.69,101.95Z" style="fill:none;stroke:#F15A60;stroke-width:0.625" />
<path d="M397.64,107.05A3.125,3.125 0 1 1 391.39,107.05A3.125,3.125 0 1 1 397.64,107.05Z" style="fill:none;stroke:#F15A60;stroke-width:0.625" />
<path d="M404.59,94.924A3.125,3.125 0 1 1 398.34,94.924A3.125,3.125 0 1 1 404.59,94.924Z" style="fill:none;stroke:#F15A60;stroke-width:0.625" />
<path d="M411.54,88.779A3.125,3.125 0 1 1 405.29,88.779A3.125,3.125 0 1 1 411.54,88.779Z" style="fill:none;stroke:#F15A60;stroke-width:0.625" />
<path d="M418.49,97.037L418.49,97.037A3.125,3.125 0 1 1 412.24,97.037A3.125,3.125 0 1 1 418.49,97.037Z" style="fill:none;stroke:#F15A60;stroke-width:0.625" />
<path d="M425.44,79.612A3.125,3.125 0 1 1 419.19,79.612A3.125,3.125 0 1 1 425.44,79.612Z" style="fill:none;stroke:#F15A60;stroke-width:0.625" />
<path d="M432.39,89.374A3.125,3.125 0 1 1 426.14,89.374A3.125,3.125 0 1 1 432.39,89.374Z" style="fill:none;stroke:#F15A60;stroke-width:0.625" />
<path d="M439.34,77.749A3.125,3.125 0 1 1 433.09,77.749A3.125,3.125 0 1 1 439.34,77.749Z" style="fill:none;stroke:#F15A60;stroke-width:0.625" />
<path d="M446.28,84.972A3.125,3.125 0 1 1 440.03,84.972A3.125,3.125 0 1 1 446.28,84.972Z" style="fill:none;stroke:#F15A60;stroke-width:0.625" />
<path d="M453.23,76.232L453.23,76.232A3.125,3.125 0 1 1 446.98,76.232A3.125,3.125 0 1 1 453.23,76.232Z" style="fill:none;stroke:#F15A60;stroke-width:0.625" />
<path d="M460.18,80.189L460.18,80.189A3.125,3.125 0 1 1 453.93,80.189A3.125,3.125 0 1 1 460.18,80.189Z" style="fill:none;stroke:#F15A60;stroke-width:0.625" />
<path d="M467.13,65.457A3.125,3.125 0 1 1 460.88,65.457A3.125,3.125 0 1 1 467.13,65.457Z" style="fill:none;stroke:#F15A60;stroke-width:0.625" />
<path d="M474.08,68.419A3.125,3.125 0 1 1 467.83,68.419A3.125,3.125 0 1 1 474.08,68.419Z" style="fill:none;stroke:#F15A60;stroke-width:0.625" />
<path d="M481.03,68.462L481.03,68.462A3.125,3.125 0 1 1 474.78,68.462A3.125,3.125 0 1 1 481.03,68.462Z" style="fill:none;stroke:#F15A60;stroke-width:0.625" />
<path d="M487.98,70.305A3.125,3.125 0 1 1 481.73,70.305A3.125,3.125 0 1 1 487.98,70.305Z" style="fill:none;stroke:#F15A60;stroke-width:0.625" />
<path d="M494.93,81.225A3.125,3.125 0 1 1 488.68,81.225A3.125,3.125 0 1 1 494.93,81.225Z" style="fill:none;stroke:#F15A60;stroke-width:0.625" />
<path d="M501.88,82.274L501.88,82.274A3.125,3.125 0 1 1 495.63,82.274A3.125,3.125 0 1 1 501.88,82.274Z" style="fill:none;stroke:#F15A60;stroke-width:0.625" />
<path d="M508.83,68.831A3.125,3.125 0 1 1 502.58,68.831A3.125,3.125 0 1 1 508.83,68.831Z" style="fill:none;stroke:#F15A60;stroke-width:0.625" />
<path d="M515.78,71.339A3.125,3.125 0 1 1 509.53,71.339A3.125,3.125 0 1 1 515.78,71.339Z" style="fill:none;stroke:#F15A60;stroke-width:0.625" />
<path d="M522.72,81.078A3.125,3.125 0 1 1 516.47,81.078A3.125,3.125 0 1 1 522.72,81.078Z" style="fill:none;stroke:#F15A60;stroke-width:0.625" />
<path d="M529.67,77.945A3.125,3.125 0 1 1 523.42,77.945A3.125,3.125 0 1 1 529.67,77.945Z" style="fill:none;stroke:#F15A60;stroke-width:0.625" />
<path d="M536.62,88.372A3.125,3.125 0 1 1 530.37,88.372A3.125,3.125 0 1 1 536.62,88.372Z" style="fill:none;stroke:#F15A60;stroke-width:0.625" />
<path d="M543.57,90.287A3.125,3.125 0 1 1 537.32,90.287A3.125,3.125 0 1 1 543.57,90.287Z" style="fill:none;stroke:#F15A60;stroke-width:0.625" />
<path d="M550.52,91.097L550.52,91.097A3.125,3.125 0 1 1 544.27,91.097A3.125,3.125 0 1 1 550.52,91.097Z" style="fill:none;stroke:#F15A60;stroke-width:0.625" />
<path d="M557.47,89.325A3.125,3.125 0 1 1 551.22,89.325A3.125,3.125 0 1 1 557.47,89.325Z" style="fill:none;stroke:#F15A60;stroke-width:0.625" />
<path d="M564.42,92.997A3.125,3.125 0 1 1 558.17,92.997A3.125,3.125 0 1 1 564.42,92.997Z" style="fill:none;stroke:#F15A60;stroke-width:0.625" />
<path d="M571.37,95.864A3.125,3.125 0 1 1 565.12,95.864A3.125,3.125 0 1 1 571.37,95.864Z" style="fill:none;stroke:#F15A60;stroke-width:0.625" />
<path d="M578.32,100A3.125,3.125 0 1 1 572.07,100A3.125,3.125 0 1 1 578.32,100Z" style="fill:none;stroke:#F15A60;stroke-width:0.625" />
<path d="M585.27,93.218A3.125,3.125 0 1 1 579.02,93.218A3.125,3.125 0 1 1 585.27,93.218Z" style="fill:none;stroke:#F15A60;stroke-width:0.625" />
<path d="M592.21,94.187L592.21,94.187A3.125,3.125 0 1 1 585.96,94.187A3.125,3.125 0 1 1 592.21,94.187Z" style="fill:none;stroke:#F15A60;stroke-width:0.625" />
<path d="M599.16,99.462A3.125,3.125 0 1 1 592.91,99.462A3.125,3.125 0 1 1 599.16,99.462Z" style="fill:none;stroke:#F15A60;stroke-width:0.625" />
<path d="M606.11,95.708A3.125,3.125 0 1 1 599.86,95.708A3.125,3.125 0 1 1 606.11,95.708Z" style="fill:none;stroke:#F15A60;stroke-width:0.625" />
<path d="M613.06,99.946A3.125,3.125 0 1 1 606.81,99.946A3.125,3.125 0 1 1 613.06,99.946Z" style="fill:none;stroke:#F15A60;stroke-width:0.625" />
<path d="M620.01,99.411A3.125,3.125 0 1 1 613.76,99.411A3.125,3.125 0 1 1 620.01,99.411Z" style="fill:none;stroke:#F15A60;stroke-width:0.625" />
<path d="M626.96,97.428A3.125,3.125 0 1 1 620.71,97.428A3.125,3.125 0 1 1 626.96,97.428Z" style="fill:none;stroke:#F15A60;stroke-width:0.625" />
<path d="M633.91,92.937L633.91,92.937A3.125,3.125 0 1 1 627.66,92.937A3.125,3.125 0 1 1 633.91,92.937Z" style="fill:none;stroke:#F15A60;stroke-width:0.625" />
<path d="M640.86,98.228A3.125,3.125 0 1 1 634.61,98.228A3.125,3.125 0 1 1 640.86,98.228Z" style="fill:none;stroke:#F15A60;stroke-width:0.625" />
<path d="M647.81,82.635A3.125,3.125 0 1 1 641.56,82.635A3.125,3.125 0 1 1 647.81,82.635Z" style="fill:none;stroke:#F15A60;stroke-width:0.625" />
<path d="M654.76,83.586A3.125,3.125 0 1 1 648.51,83.586A3.125,3.125 0 1 1 654.76,83.586Z" style="fill:none;stroke:#F15A60;stroke-width:0.625" />
<path d="M661.71,83.742L661.71,83.742A3.125,3.125 0 1 1 655.46,83.742A3.125,3.125 0 1 1 661.71,83.742Z" style="fill:none;stroke:#F15A60;stroke-width:0.625" />
<path d="M668.65,84.186L668.65,84.186A3.125,3.125 0 1 1 662.4,84.186A3.125,3.125 0 1 1 668.65,84.186Z" style="fill:none;stroke:#F15A60;stroke-width:0.625" />
<path d="M675.6,91.33A3.125,3.125 0 1 1 669.35,91.33A3.125,3.125 0 1 1 675.6,91.33Z" style="fill:none;stroke:#F15A60;stroke-width:0.625" />
<path d="M682.55,94.481A3.125,3.125 0 1 1 676.3,94.481A3.125,3.125 0 1 1 682.55,94.481Z" style="fill:none;stroke:#F15A60;stroke-width:0.625" />
<path d="M689.5,89.14A3.125,3.125 0 1 1 683.25,89.14A3.125,3.125 0 1 1 689.5,89.14Z" style="fill:none;stroke:#F15A60;stroke-width:0.625" />
<path d="M696.45,96.307L696.45,96.307A3.125,3.125 0 1 1 690.2,96.307A3.125,3.125 0 1 1 696.45,96.307Z" style="fill:none;stroke:#F15A60;stroke-width:0.625" />
<path d="M703.4,89.895L703.4,89.895A3.125,3.125 0 1 1 697.15,89.895A3.125,3.125 0 1 1 703.4,89.895Z" style="fill:none;stroke:#F15A60;stroke-width:0.625" />
<path d="M710.35,88.313L710.35,88.313A3.125,3.125 0 1 1 704.1,88.313A3.125,3.125 0 1 1 710.35,88.313Z" style="fill:none;stroke:#F15A60;stroke-width:0.625" />
<path d="M717.3,88.306A3.125,3.125 0 1 1 711.05,88.306A3.125,3.125 0 1 1 717.3,88.306Z" style="fill:none;stroke:#F15A60;stroke-width:0.625" />
<path d="M724.25,97.774L724.25,97.774A3.125,3.125 0 1 1 718,97.774A3.125,3.125 0 1 1 724.25,97.774Z" style="fill:none;stroke:#F15A60;stroke-width:0.625" />
<path d="M731.2,92.196L731.2,92.196A3.125,3.125 0 1 1 724.95,92.196A3.125,3.125 0 1 1 731.2,92.196Z" style="fill:none;stroke:#F15A60;stroke-width:0.625" />
<path d="M738.15,97.851L738.15,97.851A3.125,3.125 0 1 1 731.9,97.851A3.125,3.125 0 1 1 738.15,97.851Z" style="fill:none;stroke:#F15A60;stroke-width:0.625" />
<path d="M745.09,91.329L745.09,91.329A3.125,3.125 0 1 1 738.84,91.329A3.125,3.125 0 1 1 745.09,91.329Z" style="fill:none;stroke:#F15A60;stroke-width:0.625" />
<path d="M752.04,87.137L752.04,87.137A3.125,3.125 0 1 1 745.79,87.137A3.125,3.125 0 1 1 752.04,87.137Z" style="fill:none;stroke:#F15A60;stroke-width:0.625" />
<path d="M758.99,93.448A3.125,3.125 0 1 1 752.74,93.448A3.125,3.125 0 1 1 758.99,93.448Z" style="fill:none;stroke:#F15A60;stroke-width:0.625" />
<path d="M765.94,95.99L765.94,95.99A3.125,3.125 0 1 1 759.69,95.99A3.125,3.125 0 1 1 765.94,95.99Z" style="fill:none;stroke:#F15A60;stroke-width:0.625" />
<path d="M772.89,98.045A3.125,3.125 0 1 1 766.64,98.045A3.125,3.125 0 1 1 772.89,98.045Z" style="fill:none;stroke:#F15A60;stroke-width:0.625" />
<path d="M779.84,93.559L779.84,93.559A3.125,3.125 0 1 1 773.59,93.559A3.125,3.125 0 1 1 779.84,93.559Z" style="fill:none;stroke:#F15A60;stroke-width:0.625" />
<path d="M786.79,88.681L786.79,88.681A3.125,3.125 0 1 1 780.54,88.681A3.125,3.125 0 1 1 786.79,88.681Z" style="fill:none;stroke:#F15A60;stroke-width:0.625" />
<path d="M793.74,93.099L793.74,93.099A3.125,3.125 0 1 1 787.49,93.099A3.125,3.125 0 1 1 793.74,93.099Z" style="fill:none;stroke:#F15A60;stroke-width:0.625" />
<path d="M800.69,84.607A3.125,3.125 0 1 1 794.44,84.607A3.125,3.125 0 1 1 800.69,84.607Z" style="fill:none;stroke:#F15A60;stroke-width:0.625" />
<path d="M807.64,79.617A3.125,3.125 0 1 1 801.39,79.617A3.125,3.125 0 1 1 807.64,79.617Z" style="fill:none;stroke:#F15A60;stroke-width:0.625" />
<path d="M814.58,77.377A3.125,3.125 0 1 1 808.33,77.377A3.125,3.125 0 1 1 814.58,77.377Z" style="fill:none;stroke:#F15A60;stroke-width:0.625" />
<path d="M821.53,83.777A3.125,3.125 0 1 1 815.28,83.777A3.125,3.125 0 1 1 821.53,83.777Z" style="fill:none;stroke:#F15A60;stroke-width:0.625" />
<path d="M828.48,73.225L828.48,73.225A3.125,3.125 0 1 1 822.23,73.225A3.125,3.125 0 1 1 828.48,73.225Z" style="fill:none;stroke:#F15A60;stroke-width:0.625" />
<path d="M835.43,75.8L835.43,75.8A3.125,3.125 0 1 1 829.18,75.8A3.125,3.125 0 1 1 835.43,75.8Z" style="fill:none;stroke:#F15A60;stroke-width:0.625" />
<path d="M842.38,72.542L842.38,72.542A3.125,3.125 0 1 1 836.13,72.542A3.125,3.125 0 1 1 842.38,72.542Z" style="fill:none;stroke:#F15A60;stroke-width:0.625" />
<path d="M849.33,69.534A3.125,3.125 0 1 1 843.08,69.534A3.125,3.125 0 1 1 849.33,69.534Z" style="fill:none;stroke:#F15A60;stroke-width:0.625" />
<path d="M856.28,77.122L856.28,77.122A3.125,3.125 0 1 1 850.03,77.122A3.125,3.125 0 1 1 856.28,77.122Z" style="fill:none;stroke:#F15A60;stroke-width:0.625" />
<path d="M863.23,79.528L863.23,79.528A3.125,3.125 0 1 1 856.98,79.528A3.125,3.125 0 1 1 863.23,79.528Z" style="fill:none;stroke:#F15A60;stroke-width:0.625" />
<path d="M870.18,67.11L870.18,67.11A3.125,3.125 0 1 1 863.93,67.11A3.125,3.125 0 1 1 870.18,67.11Z" style="fill:none;stroke:#F15A60;stroke-width:0.625" />
<path d="M877.13,69.884L877.13,69.884A3.125,3.125 0 1 1 870.88,69.884A3.125,3.125 0 1 1 877.13,69.884Z" style="fill:none;stroke:#F15A60;stroke-width:0.625" />
<path d="M884.08,83.869L884.08,83.869A3.125,3.125 0 1 1 877.83,83.869A3.125,3.125 0 1 1 884.08,83.869Z" style="fill:none;stroke:#F15A60;stroke-width:0.625" />
<path d="M891.02,85.109L891.02,85.109A3.125,3.125 0 1 1 884.77,85.109A3.125,3.125 0 1 1 891.02,85.109Z" style="fill:none;stroke:#F15A60;stroke-width:0.625" />
<path d="M897.97,87.991L897.97,87.991A3.125,3.125 0 1 1 891.72,87.991A3.125,3.125 0 1 1 897.97,87.991Z" style="fill:none;stroke:#F15A60;stroke-width:0.625" />
<path d="M904.92,87.186L904.92,87.186A3.125,3.125 0 1 1 898.67,87.186A3.125,3.125 0 1 1 904.92,87.186Z" style="fill:none;stroke:#F15A60;stroke-width:0.625" />
<path d="M911.87,82.476L911.87,82.476A3.125,3.125 0 1 1 905.62,82.476A3.125,3.125 0 1 1 911.87,82.476Z" style="fill:none;stroke:#F15A60;stroke-width:0.625" />
<path d="M918.82,95.952L918.82,95.952A3.125,3.125 0 1 1 912.57,95.952A3.125,3.125 0 1 1 918.82,95.952Z" style="fill:none;stroke:#F15A60;stroke-width:0.625" />
<path d="M925.77,91.723L925.77,91.723A3.125,3.125 0 1 1 919.52,91.723A3.125,3.125 0 1 1 925.77,91.723Z" style="fill:none;stroke:#F15A60;stroke-width:0.625" />
<path d="M932.72,101.6L932.72,101.6A3.125,3.125 0 1 1 926.47,101.6A3.125,3.125 0 1 1 932.72,101.6Z" style="fill:none;stroke:#F15A60;stroke-width:0.625" />
<path d="M939.67,107.94L939.67,107.94A3.125,3.125 0 1 1 933.42,107.94A3.125,3.125 0 1 1 939.67,107.94Z" style="fill:none;stroke:#F15A60;stroke-width:0.625" />
<path d="M946.62,100.55A3.125,3.125 0 1 1 940.37,100.55A3.125,3.125 0 1 1 946.62,100.55Z" style="fill:none;stroke:#F15A60;stroke-width:0.625" />
<path d="M953.57,98.405L953.57,98.405A3.125,3.125 0 1 1 947.32,98.405A3.125,3.125 0 1 1 953.57,98.405Z" style="fill:none;stroke:#F15A60;stroke-width:0.625" />
<path d="M960.52,106.19A3.125,3.125 0 1 1 954.27,106.19A3.125,3.125 0 1 1 960.52,106.19Z" style="fill:none;stroke:#F15A60;stroke-width:0.625" />
<path d="M967.46,114.21A3.125,3.125 0 1 1 961.21,114.21A3.125,3.125 0 1 1 967.46,114.21Z" style="fill:none;stroke:#F15A60;stroke-width:0.625" />
<path d="M974.41,111.21L974.41,111.21A3.125,3.125 0 1 1 968.16,111.21A3.125,3.125 0 1 1 974.41,111.21Z" style="fill:none;stroke:#F15A60;stroke-width:0.625" />
<path d="M981.36,106.18L981.36,106.18A3.125,3.125 0 1 1 975.11,106.18A3.125,3.125 0 1 1 981.36,106.18Z" style="fill:none;stroke:#F15A60;stroke-width:0.625" />
<path d="M988.31,112.46L988.31,112.46A3.125,3.125 0 1 1 982.06,112.46A3.125,3.125 0 1 1 988.31,112.46Z" style="fill:none;stroke:#F15A60;stroke-width:0.625" />
<path d="M995.26,113.64A3.125,3.125 0 1 1 989.01,113.64A3.125,3.125 0 1 1 995.26,113.64Z" style="fill:none;stroke:#F15A60;stroke-width:0.625" />
<path d="M1002.2,106.78L1002.2,106.78A3.125,3.125 0 1 1 995.96,106.78A3.125,3.125 0 1 1 1002.2,106.78Z" style="fill:none;stroke:#F15A60;stroke-width:0.625" />
<path d="M1009.2,104.98A3.125,3.125 0 1 1 1002.9,104.98A3.125,3.125 0 1 1 1009.2,104.98Z" style="fill:none;stroke:#F15A60;stroke-width:0.625" />
<path d="M1016.1,98.29L1016.1,98.29A3.125,3.125 0 1 1 1009.9,98.29A3.125,3.125 0 1 1 1016.1,98.29Z" style="fill:none;stroke:#F15A60;stroke-width:0.625" />
<path d="M1023.1,88.611A3.125,3.125 0 1 1 1016.8,88.611A3.125,3.125 0 1 1 1023.1,88.611Z" style="fill:none;stroke:#F15A60;stroke-width:0.625" />
<path d="M1030,86.915A3.125,3.125 0 1 1 1023.8,86.915A3.125,3.125 0 1 1 1030,86.915Z" style="fill:none;stroke:#F15A60;stroke-width:0.625" />
<path d="M1037,84.194A3.125,3.125 0 1 1 1030.7,84.194A3.125,3.125 0 1 1 1037,84.194Z" style="fill:none;stroke:#F15A60;stroke-width:0.625" />
<path d="M1043.9,87.33A3.125,3.125 0 1 1 1037.7,87.33A3.125,3.125 0 1 1 1043.9,87.33Z" style="fill:none;stroke:#F15A60;stroke-width:0.625" />
<path d="M1050.9,72.814A3.125,3.125 0 1 1 1044.6,72.814A3.125,3.125 0 1 1 1050.9,72.814Z" style="fill:none;stroke:#F15A60;stroke-width:0.625" />
<path d="M1057.8,77.682L1057.8,77.682A3.125,3.125 0 1 1 1051.6,77.682A3.125,3.125 0 1 1 1057.8,77.682Z" style="fill:none;stroke:#F15A60;stroke-width:0.625" />
<path d="M1064.8,71.04L1064.8,71.04A3.125,3.125 0 1 1 1058.5,71.04A3.125,3.125 0 1 1 1064.8,71.04Z" style="fill:none;stroke:#F15A60;stroke-width:0.625" />
<path d="M1071.7,65.558L1071.7,65.558A3.125,3.125 0 1 1 1065.4,65.558A3.125,3.125 0 1 1 1071.7,65.558Z" style="fill:none;stroke:#F15A60;stroke-width:0.625" />
<path d="M1078.6,58.045A3.125,3.125 0 1 1 1072.4,58.045A3.125,3.125 0 1 1 1078.6,58.045Z" style="fill:none;stroke:#F15A60;stroke-width:0.625" />
<path d="M1085.6,68.913L1085.6,68.913A3.125,3.125 0 1 1 1079.3,68.913A3.125,3.125 0 1 1 1085.6,68.913Z" style="fill:none;stroke:#F15A60;stroke-width:0.625" />
<path d="M1092.5,60.285L1092.5,60.285A3.125,3.125 0 1 1 1086.3,60.285A3.125,3.125 0 1 1 1092.5,60.285Z" style="fill:none;stroke:#F15A60;stroke-width:0.625" />
<path d="M1099.5,62.32A3.125,3.125 0 1 1 1093.2,62.32A3.125,3.125 0 1 1 1099.5,62.32Z" style="fill:none;stroke:#F15A60;stroke-width:0.625" />
<path d="M1106.4,55.797A3.125,3.125 0 1 1 1100.2,55.797A3.125,3.125 0 1 1 1106.4,55.797Z" style="fill:none;stroke:#F15A60;stroke-width:0.625" />
<path d="M1113.4,57.325L1113.4,57.325A3.125,3.125 0 1 1 1107.1,57.325A3.125,3.125 0 1 1 1113.4,57.325Z" style="fill:none;stroke:#F15A60;stroke-width:0.625" />
<path d="M1120.3,67.682L1120.3,67.682A3.125,3.125 0 1 1 1114.1,67.682A3.125,3.125 0 1 1 1120.3,67.682Z" style="fill:none;stroke:#F15A60;stroke-width:0.625" />
<path d="M1127.3,68.938A3.125,3.125 0 1 1 1121,68.938A3.125,3.125 0 1 1 1127.3,68.938Z" style="fill:none;stroke:#F15A60;stroke-width:0.625" />
<path d="M1134.2,75.816A3.125,3.125 0 1 1 1128,75.816A3.125,3.125 0 1 1 1134.2,75.816Z" style="fill:none;stroke:#F15A60;stroke-width:0.625" />
<path d="M1141.2,74.439L1141.2,74.439A3.125,3.125 0 1 1 1134.9,74.439A3.125,3.125 0 1 1 1141.2,74.439Z" style="fill:none;stroke:#F15A60;stroke-width:0.625" />
<path d="M1148.1,72.95A3.125,3.125 0 1 1 1141.9,72.95A3.125,3.125 0 1 1 1148.1,72.95Z" style="fill:none;stroke:#F15A60;stroke-width:0.625" />
<path d="M1155.1,89.977A3.125,3.125 0 1 1 1148.8,89.977A3.125,3.125 0 1 1 1155.1,89.977Z" style="fill:none;stroke:#F15A60;stroke-width:0.625" />
<path d="M1162,87.955A3.125,3.125 0 1 1 1155.8,87.955A3.125,3.125 0 1 1 1162,87.955Z" style="fill:none;stroke:#F15A60;stroke-width:0.625" />
<path d="M1169,91.049A3.125,3.125 0 1 1 1162.7,91.049A3.125,3.125 0 1 1 1169,91.049Z" style="fill:none;stroke:#F15A60;stroke-width:0.625" />
<path d="M1175.9,104.37A3.125,3.125 0 1 1 1169.7,104.37A3.125,3.125 0 1 1 1175.9,104.37Z" style="fill:none;stroke:#F15A60;stroke-width:0.625" />
<path d="M1182.9,101.11A3.125,3.125 0 1 1 1176.6,101.11A3.125,3.125 0 1 1 1182.9,101.11Z" style="fill:none;stroke:#F15A60;stroke-width:0.625" />
<path d="M1189.8,110.38A3.125,3.125 0 1 1 1183.6,110.38A3.125,3.125 0 1 1 1189.8,110.38Z" style="fill:none;stroke:#F15A60;stroke-width:0.625" />
<path d="M1196.8,110.3L1196.8,110.3A3.125,3.125 0 1 1 1190.5,110.3A3.125,3.125 0 1 1 1196.8,110.3Z" style="fill:none;stroke:#F15A60;stroke-width:0.625" />
<path d="M1203.7,110.07A3.125,3.125 0 1 1 1197.5,110.07A3.125,3.125 0 1 1 1203.7,110.07Z" style="fill:none;stroke:#F15A60;stroke-width:0.625" />
<path d="M1210.7,115.93A3.125,3.125 0 1 1 1204.4,115.93A3.125,3.125 0 1 1 1210.7,115.93Z" style="fill:none;stroke:#F15A60;stroke-width:0.625" />
<path d="M1217.6,119.67L1217.6,119.67A3.125,3.125 0 1 1 1211.4,119.67A3.125,3.125 0 1 1 1217.6,119.67Z" style="fill:none;stroke:#F15A60;stroke-width:0.625" />
<path d="M1224.6,124.56A3.125,3.125 0 1 1 1218.3,124.56A3.125,3.125 0 1 1 1224.6,124.56Z" style="fill:none;stroke:#F15A60;stroke-width:0.625" />
<path d="M1231.5,114.3L1231.5,114.3A3.125,3.125 0 1 1 1225.3,114.3A3.125,3.125 0 1 1 1231.5,114.3Z" style="fill:none;stroke:#F15A60;stroke-width:0.625" />
<path d="M1238.5,118.93A3.125,3.125 0 1 1 1232.2,118.93A3.125,3.125 0 1 1 1238.5,118.93Z" style="fill:none;stroke:#F15A60;stroke-width:0.625" />
<path d="M1245.4,111.35L1245.4,111.35A3.125,3.125 0 1 1 1239.2,111.35A3.125,3.125 0 1 1 1245.4,111.35Z" style="fill:none;stroke:#F15A60;stroke-width:0.625" />
<path d="M1252.4,118.61A3.125,3.125 0 1 1 1246.1,118.61A3.125,3.125 0 1 1 1252.4,118.61Z" style="fill:none;stroke:#F15A60;stroke-width:0.625" />
<path d="M1259.3,110.46L1259.3,110.46A3.125,3.125 0 1 1 1253.1,110.46A3.125,3.125 0 1 1 1259.3,110.46Z" style="fill:none;stroke:#F15A60;stroke-width:0.625" />
<path d="M1266.3,106.37L1266.3,106.37A3.125,3.125 0 1 1 1260,106.37A3.125,3.125 0 1 1 1266.3,106.37Z" style="fill:none;stroke:#F15A60;stroke-width:0.625" />
<path d="M1273.2,102.24A3.125,3.125 0 1 1 1267,102.24A3.125,3.125 0 1 1 1273.2,102.24Z" style="fill:none;stroke:#F15A60;stroke-width:0.625" />
<path d="M1280.2,91.514L1280.2,91.514A3.125,3.125 0 1 1 1273.9,91.514A3.125,3.125 0 1 1 1280.2,91.514Z" style="fill:none;stroke:#F15A60;stroke-width:0.625" />
<path d="M1287.1,90.83A3.125,3.125 0 1 1 1280.9,90.83A3.125,3.125 0 1 1 1287.1,90.83Z" style="fill:none;stroke:#F15A60;stroke-width:0.625" />
<path d="M1294.1,69.788L1294.1,69.788A3.125,3.125 0 1 1 1287.8,69.788A3.125,3.125 0 1 1 1294.1,69.788Z" style="fill:none;stroke:#F15A60;stroke-width:0.625" />
<path d="M1301,79.245A3.125,3.125 0 1 1 1294.8,79.245A3.125,3.125 0 1 1 1301,79.245Z" style="fill:none;stroke:#F15A60;stroke-width:0.625" />
<path d="M1308,62.84A3.125,3.125 0 1 1 1301.7,62.84A3.125,3.125 0 1 1 1308,62.84Z" style="fill:none;stroke:#F15A60;stroke-width:0.625" />
<path d="M1314.9,57.328L1314.9,57.328A3.125,3.125 0 1 1 1308.7,57.328A3.125,3.125 0 1 1 1314.9,57.328Z" style="fill:none;stroke:#F15A60;stroke-width:0.625" />
<path d="M1321.9,64.314A3.125,3.125 0 1 1 1315.6,64.314A3.125,3.125 0 1 1 1321.9,64.314Z" style="fill:none;stroke:#F15A60;stroke-width:0.625" />
<path d="M1328.8,58.719A3.125,3.125 0 1 1 1322.6,58.719A3.125,3.125 0 1 1 1328.8,58.719Z" style="fill:none;stroke:#F15A60;stroke-width:0.625" />
<path d="M1335.8,49.313A3.125,3.125 0 1 1 1329.5,49.313A3.125,3.125 0 1 1 1335.8,49.313Z" style="fill:none;stroke:#F15A60;stroke-width:0.625" />
<path d="M1342.7,50.181L1342.7,50.181A3.125,3.125 0 1 1 1336.5,50.181A3.125,3.125 0 1 1 1342.7,50.181Z" style="fill:none;stroke:#F15A60;stroke-width:0.625" />
<path d="M1349.7,56.758A3.125,3.125 0 1 1 1343.4,56.758A3.125,3.125 0 1 1 1349.7,56.758Z" style="fill:none;stroke:#F15A60;stroke-width:0.625" />
<path d="M1356.6,49.562A3.125,3.125 0 1 1 1350.4,49.562A3.125,3.125 0 1 1 1356.6,49.562Z" style="fill:none;stroke:#F15A60;stroke-width:0.625" />
<path d="M1363.6,55.653L1363.6,55.653A3.125,3.125 0 1 1 1357.3,55.653A3.125,3.125 0 1 1 1363.6,55.653Z" style="fill:none;stroke:#F15A60;stroke-width:0.625" />
<path d="M1370.5,66.137A3.125,3.125 0 1 1 1364.3,66.137A3.125,3.125 0 1 1 1370.5,66.137Z" style="fill:none;stroke:#F15A60;stroke-width:0.625" />
<path d="M1377.5,74.84A3.125,3.125 0 1 1 1371.2,74.84A3.125,3.125 0 1 1 1377.5,74.84Z" style="fill:none;stroke:#F15A60;stroke-width:0.625" />
<path d="M1384.4,75.725L1384.4,75.725A3.125,3.125 0 1 1 1378.2,75.725A3.125,3.125 0 1 1 1384.4,75.725Z" style="fill:none;stroke:#F15A60;stroke-width:0.625" />
<path d="M1391.4,84.678A3.125,3.125 0 1 1 1385.1,84.678A3.125,3.125 0 1 1 1391.4,84.678Z" style="fill:none;stroke:#F15A60;stroke-width:0.625" />
<path d="M1398.3,81.805A3.125,3.125 0 1 1 1392.1,81.805A3.125,3.125 0 1 1 1398.3,81.805Z" style="fill:none;stroke:#F15A60;stroke-width:0.625" />
<path d="M1405.3,84.371A3.125,3.125 0 1 1 1399,84.371A3.125,3.125 0 1 1 1405.3,84.371Z" style="fill:none;stroke:#F15A60;stroke-width:0.625" />
<path d="M1412.2,88.845L1412.2,88.845A3.125,3.125 0 1 1 1406,88.845A3.125,3.125 0 1 1 1412.2,88.845Z" style="fill:none;stroke:#F15A60;stroke-width:0.625" />
<path d="M1419.2,95.166A3.125,3.125 0 1 1 1412.9,95.166A3.125,3.125 0 1 1 1419.2,95.166Z" style="fill:none;stroke:#F15A60;stroke-width:0.625" />
<path d="M1426.1,98.397L1426.1,98.397A3.125,3.125 0 1 1 1419.9,98.397A3.125,3.125 0 1 1 1426.1,98.397Z" style="fill:none;stroke:#F15A60;stroke-width:0.625" />
<path d="M1433.1,112.16A3.125,3.125 0 1 1 1426.8,112.16A3.125,3.125 0 1 1 1433.1,112.16Z" style="fill:none;stroke:#F15A60;stroke-width:0.625" />
<path d="M1440,112.38A3.125,3.125 0 1 1 1433.8,112.38A3.125,3.125 0 1 1 1440,112.38Z" style="fill:none;stroke:#F15A60;stroke-width:0.625" />
<path d="M54.013,113.1L60.962,120.11L67.911,127.12L74.86,134.13L81.809,141.13L88.758,148.14L95.707,155.15L102.66,162.16L109.6,169.16L116.55,176.17L123.5,183.18L130.45,190.19L137.4,197.2L144.35,204.2L151.3,211.21L158.25,218.22L165.2,225.23L172.15,232.23L179.1,239.24L186.04,246.25L192.99,253.26L199.94,260.27L206.89,267.27L213.84,274.28L220.79,281.29L227.74,288.3L234.69,295.3L241.64,302.31L248.59,309.32L255.54,316.33L262.48,323.34L269.43,330.34L276.38,337.35L283.33,344.36L290.28,351.37L297.23,358.38L304.18,365.38L311.13,372.39L318.08,379.4L325.03,386.41L331.97,393.41L338.92,400.42L345.87,407.43L352.82,414.44L359.77,421.45L366.72,428.45L373.67,435.46L380.62,442.47L387.57,449.48L394.52,456.48L401.47,463.49L408.41,470.5L415.36,477.51L422.31,484.52L429.26,491.52L436.21,498.53L443.16,505.54L450.11,512.55L457.06,519.55L464.01,526.56L470.96,533.57L477.91,540.58L484.85,547.59L491.8,554.59L498.75,561.6L505.7,568.61L512.65,575.62L519.6,582.63L526.55,589.63L533.5,596.64L540.45,603.65L547.4,610.66L554.34,617.66L561.29,624.67L568.24,631.68L575.19,638.69L582.14,645.7L589.09,652.7L596.04,659.71L602.99,666.72L609.94,673.73L616.89,680.73L623.84,687.74L630.78,694.75L637.73,701.76L644.68,708.77L651.63,715.77L658.58,722.78L665.53,729.79L672.48,736.8L679.43,743.8L686.38,750.81L693.33,757.82L700.27,764.83L707.22,771.84L714.17,778.84L721.12,785.85L728.07,792.86L735.02,799.87L741.97,806.88" style="fill:none;stroke:#7AC36A;stroke-width:1.25;stroke-dasharray:7.5,2.5" />
<path d="M51.345,110.43L56.68,110.43L56.68,115.77L51.345,115.77Z" style="fill:none;stroke:#7AC36A;stroke-width:0.625" />
<path d="M58.294,117.44L63.629,117.44L63.629,122.78L58.294,122.78Z" style="fill:none;stroke:#7AC36A;stroke-width:0.625" />
<path d="M65.243,124.45L70.578,124.45L70.578,129.78L65.243,129.78Z" style="fill:none;stroke:#7AC36A;stroke-width:0.625" />
<path d="M72.192,131.46L77.527,131.46L77.527,136.79L72.192,136.79Z" style="fill:none;stroke:#7AC36A;stroke-width:0.625" />
<path d="M79.141,138.47L84.476,138.47L84.476,143.8L79.141,143.8Z" style="fill:none;stroke:#7AC36A;stroke-width:0.625" />
<path d="M86.09,145.47L91.425,145.47L91.425,150.81L86.09,150.81Z" style="fill:none;stroke:#7AC36A;stroke-width:0.625" />
<path d="M93.039,152.48L98.374,152.48L98.374,157.82L93.039,157.82Z" style="fill:none;stroke:#7AC36A;stroke-width:0.625" />
<path d="M99.989,159.49L105.32,159.49L105.32,164.82L99.989,164.82Z" style="fill:none;stroke:#7AC36A;stroke-width:0.625" />
<path d="M106.94,166.5L112.27,166.5L112.27,171.83L106.94,171.83Z" style="fill:none;stroke:#7AC36A;stroke-width:0.625" />
<path d="M113.89,173.5L119.22,173.5L119.22,178.84L113.89,178.84Z" style="fill:none;stroke:#7AC36A;stroke-width:0.625" />
<path d="M120.84,180.51L126.17,180.51L126.17,185.85L120.84,185.85Z" style="fill:none;stroke:#7AC36A;stroke-width:0.625" />
<path d="M127.78,187.52L133.12,187.52L133.12,192.86L127.78,192.86Z" style="fill:none;stroke:#7AC36A;stroke-width:0.625" />
<path d="M134.73,194.53L140.07,194.53L140.07,199.86L134.73,199.86Z" style="fill:none;stroke:#7AC36A;stroke-width:0.625" />
<path d="M141.68,201.54L147.02,201.54L147.02,206.87L141.68,206.87Z" style="fill:none;stroke:#7AC36A;stroke-width:0.625" />
<path d="M148.63,208.54L153.97,208.54L153.97,213.88L148.63,213.88Z" style="fill:none;stroke:#7AC36A;stroke-width:0.625" />
<path d="M155.58,215.55L160.92,215.55L160.92,220.89L155.58,220.89Z" style="fill:none;stroke:#7AC36A;stroke-width:0.625" />
<path d="M162.53,222.56L167.86,222.56L167.86,227.89L162.53,227.89Z" style="fill:none;stroke:#7AC36A;stroke-width:0.625" />
<path d="M169.48,229.57L174.81,229.57L174.81,234.9L169.48,234.9Z" style="fill:none;stroke:#7AC36A;stroke-width:0.625" />
<path d="M176.43,236.57L181.76,236.57L181.76,241.91L176.43,241.91Z" style="fill:none;stroke:#7AC36A;stroke-width:0.625" />
<path d="M183.38,243.58L188.71,243.58L188.71,248.92L183.38,248.92Z" style="fill:none;stroke:#7AC36A;stroke-width:0.625" />
<path d="M190.33,250.59L195.66,250.59L195.66,255.93L190.33,255.93Z" style="fill:none;stroke:#7AC36A;stroke-width:0.625" />
<path d="M197.28,257.6L202.61,257.6L202.61,262.93L197.28,262.93Z" style="fill:none;stroke:#7AC36A;stroke-width:0.625" />
<path d="M204.22,264.61L209.56,264.61L209.56,269.94L204.22,269.94Z" style="fill:none;stroke:#7AC36A;stroke-width:0.625" />
<path d="M211.17,271.61L216.51,271.61L216.51,276.95L211.17,276.95Z" style="fill:none;stroke:#7AC36A;stroke-width:0.625" />
<path d="M218.12,278.62L223.46,278.62L223.46,283.96L218.12,283.96Z" style="fill:none;stroke:#7AC36A;stroke-width:0.625" />
<path d="M225.07,285.63L230.41,285.63L230.41,290.96L225.07,290.96Z" style="fill:none;stroke:#7AC36A;stroke-width:0.625" />
<path d="M232.02,292.64L237.36,292.64L237.36,297.97L232.02,297.97Z" style="fill:none;stroke:#7AC36A;stroke-width:0.625" />
<path d="M238.97,299.65L244.3,299.65L244.3,304.98L238.97,304.98Z" style="fill:none;stroke:#7AC36A;stroke-width:0.625" />
<path d="M245.92,306.65L251.25,306.65L251.25,311.99L245.92,311.99Z" style="fill:none;stroke:#7AC36A;stroke-width:0.625" />
<path d="M252.87,313.66L258.2,313.66L258.2,319L252.87,319Z" style="fill:none;stroke:#7AC36A;stroke-width:0.625" />
<path d="M259.82,320.67L265.15,320.67L265.15,326L259.82,326Z" style="fill:none;stroke:#7AC36A;stroke-width:0.625" />
<path d="M266.77,327.68L272.1,327.68L272.1,333.01L266.77,333.01Z" style="fill:none;stroke:#7AC36A;stroke-width:0.625" />
<path d="M273.71,334.68L279.05,334.68L279.05,340.02L273.71,340.02Z" style="fill:none;stroke:#7AC36A;stroke-width:0.625" />
<path d="M280.66,341.69L286,341.69L286,347.03L280.66,347.03Z" style="fill:none;stroke:#7AC36A;stroke-width:0.625" />
<path d="M287.61,348.7L292.95,348.7L292.95,354.03L287.61,354.03Z" style="fill:none;stroke:#7AC36A;stroke-width:0.625" />
<path d="M294.56,355.71L299.9,355.71L299.9,361.04L294.56,361.04Z" style="fill:none;stroke:#7AC36A;stroke-width:0.625" />
<path d="M301.51,362.72L306.85,362.72L306.85,368.05L301.51,368.05Z" style="fill:none;stroke:#7AC36A;stroke-width:0.625" />
<path d="M308.46,369.72L313.79,369.72L313.79,375.06L308.46,375.06Z" style="fill:none;stroke:#7AC36A;stroke-width:0.625" />
<path d="M315.41,376.73L320.74,376.73L320.74,382.07L315.41,382.07Z" style="fill:none;stroke:#7AC36A;stroke-width:0.625" />
<path d="M322.36,383.74L327.69,383.74L327.69,389.07L322.36,389.07Z" style="fill:none;stroke:#7AC36A;stroke-width:0.625" />
<path d="M329.31,390.75L334.64,390.75L334.64,396.08L329.31,396.08Z" style="fill:none;stroke:#7AC36A;stroke-width:0.625" />
<path d="M336.26,397.75L341.59,397.75L341.59,403.09L336.26,403.09Z" style="fill:none;stroke:#7AC36A;stroke-width:0.625" />
<path d="M343.21,404.76L348.54,404.76L348.54,410.1L343.21,410.1Z" style="fill:none;stroke:#7AC36A;stroke-width:0.625" />
<path d="M350.15,411.77L355.49,411.77L355.49,417.1L350.15,417.1Z" style="fill:none;stroke:#7AC36A;stroke-width:0.625" />
<path d="M357.1,418.78L362.44,418.78L362.44,424.11L357.1,424.11Z" style="fill:none;stroke:#7AC36A;stroke-width:0.625" />
<path d="M364.05,425.79L369.39,425.79L369.39,431.12L364.05,431.12Z" style="fill:none;stroke:#7AC36A;stroke-width:0.625" />
<path d="M371,432.79L376.34,432.79L376.34,438.13L371,438.13Z" style="fill:none;stroke:#7AC36A;stroke-width:0.625" />
<path d="M377.95,439.8L383.29,439.8L383.29,445.14L377.95,445.14Z" style="fill:none;stroke:#7AC36A;stroke-width:0.625" />
<path d="M384.9,446.81L390.23,446.81L390.23,452.14L384.9,452.14Z" style="fill:none;stroke:#7AC36A;stroke-width:0.625" />
<path d="M391.85,453.82L397.18,453.82L397.18,459.15L391.85,459.15Z" style="fill:none;stroke:#7AC36A;stroke-width:0.625" />
<path d="M398.8,460.82L404.13,460.82L404.13,466.16L398.8,466.16Z" style="fill:none;stroke:#7AC36A;stroke-width:0.625" />
<path d="M405.75,467.83L411.08,467.83L411.08,473.17L405.75,473.17Z" style="fill:none;stroke:#7AC36A;stroke-width:0.625" />
<path d="M412.7,474.84L418.03,474.84L418.03,480.18L412.7,480.18Z" style="fill:none;stroke:#7AC36A;stroke-width:0.625" />
<path d="M419.65,481.85L424.98,481.85L424.98,487.18L419.65,487.18Z" style="fill:none;stroke:#7AC36A;stroke-width:0.625" />
<path d="M426.59,488.86L431.93,488.86L431.93,494.19L426.59,494.19Z" style="fill:none;stroke:#7AC36A;stroke-width:0.625" />
<path d="M433.54,495.86L438.88,495.86L438.88,501.2L433.54,501.2Z" style="fill:none;stroke:#7AC36A;stroke-width:0.625" />
<path d="M440.49,502.87L445.83,502.87L445.83,508.21L440.49,508.21Z" style="fill:none;stroke:#7AC36A;stroke-width:0.625" />
<path d="M447.44,509.88L452.78,509.88L452.78,515.21L447.44,515.21Z" style="fill:none;stroke:#7AC36A;stroke-width:0.625" />
<path d="M454.39,516.89L459.73,516.89L459.73,522.22L454.39,522.22Z" style="fill:none;stroke:#7AC36A;stroke-width:0.625" />
<path d="M461.34,523.9L466.67,523.9L466.67,529.23L461.34,529.23Z" style="fill:none;stroke:#7AC36A;stroke-width:0.625" />
<path d="M468.29,530.9L473.62,530.9L473.62,536.24L468.29,536.24Z" style="fill:none;stroke:#7AC36A;stroke-width:0.625" />
<path d="M475.24,537.91L480.57,537.91L480.57,543.25L475.24,543.25Z" style="fill:none;stroke:#7AC36A;stroke-width:0.625" />
<path d="M482.19,544.92L487.52,544.92L487.52,550.25L482.19,550.25Z" style="fill:none;stroke:#7AC36A;stroke-width:0.625" />
<path d="M489.14,551.93L494.47,551.93L494.47,557.26L489.14,557.26Z" style="fill:none;stroke:#7AC36A;stroke-width:0.625" />
<path d="M496.08,558.93L501.42,558.93L501.42,564.27L496.08,564.27Z" style="fill:none;stroke:#7AC36A;stroke-width:0.625" />
<path d="M503.03,565.94L508.37,565.94L508.37,571.28L503.03,571.28Z" style="fill:none;stroke:#7AC36A;stroke-width:0.625" />
<path d="M509.98,572.95L515.32,572.95L515.32,578.28L509.98,578.28Z" style="fill:none;stroke:#7AC36A;stroke-width:0.625" />
<path d="M516.93,579.96L522.27,579.96L522.27,585.29L516.93,585.29Z" style="fill:none;stroke:#7AC36A;stroke-width:0.625" />
<path d="M523.88,586.97L529.22,586.97L529.22,592.3L523.88,592.3Z" style="fill:none;stroke:#7AC36A;stroke-width:0.625" />
<path d="M530.83,593.97L536.16,593.97L536.16,599.31L530.83,599.31Z" style="fill:none;stroke:#7AC36A;stroke-width:0.625" />
<path d="M537.78,600.98L543.11,600.98L543.11,606.32L537.78,606.32Z" style="fill:none;stroke:#7AC36A;stroke-width:0.625" />
<path d="M544.73,607.99L550.06,607.99L550.06,613.32L544.73,613.32Z" style="fill:none;stroke:#7AC36A;stroke-width:0.625" />
<path d="M551.68,615L557.01,615L557.01,620.33L551.68,620.33Z" style="fill:none;stroke:#7AC36A;stroke-width:0.625" />
<path d="M558.63,622L563.96,622L563.96,627.34L558.63,627.34Z" style="fill:none;stroke:#7AC36A;stroke-width:0.625" />
<path d="M565.58,629.01L570.91,629.01L570.91,634.35L565.58,634.35Z" style="fill:none;stroke:#7AC36A;stroke-width:0.625" />
<path d="M572.52,636.02L577.86,636.02L577.86,641.35L572.52,641.35Z" style="fill:none;stroke:#7AC36A;stroke-width:0.625" />
<path d="M579.47,643.03L584.81,643.03L584.81,648.36L579.47,648.36Z" style="fill:none;stroke:#7AC36A;stroke-width:0.625" />
<path d="M586.42,650.04L591.76,650.04L591.76,655.37L586.42,655.37Z" style="fill:none;stroke:#7AC36A;stroke-width:0.625" />
<path d="M593.37,657.04L598.71,657.04L598.71,662.38L593.37,662.38Z" style="fill:none;stroke:#7AC36A;stroke-width:0.625" />
<path d="M600.32,664.05L605.66,664.05L605.66,669.39L600.32,669.39Z" style="fill:none;stroke:#7AC36A;stroke-width:0.625" />
<path d="M607.27,671.06L612.6,671.06L612.6,676.39L607.27,676.39Z" style="fill:none;stroke:#7AC36A;stroke-width:0.625" />
<path d="M614.22,678.07L619.55,678.07L619.55,683.4L614.22,683.4Z" style="fill:none;stroke:#7AC36A;stroke-width:0.625" />
<path d="M621.17,685.07L626.5,685.07L626.5,690.41L621.17,690.41Z" style="fill:none;stroke:#7AC36A;stroke-width:0.625" />
<path d="M628.12,692.08L633.45,692.08L633.45,697.42L628.12,697.42Z" style="fill:none;stroke:#7AC36A;stroke-width:0.625" />
<path d="M635.07,699.09L640.4,699.09L640.4,704.43L635.07,704.43Z" style="fill:none;stroke:#7AC36A;stroke-width:0.625" />
<path d="M642.02,706.1L647.35,706.1L647.35,711.43L642.02,711.43Z" style="fill:none;stroke:#7AC36A;stroke-width:0.625" />
<path d="M648.96,713.11L654.3,713.11L654.3,718.44L648.96,718.44Z" style="fill:none;stroke:#7AC36A;stroke-width:0.625" />
<path d="M655.91,720.11L661.25,720.11L661.25,725.45L655.91,725.45Z" style="fill:none;stroke:#7AC36A;stroke-width:0.625" />
<path d="M662.86,727.12L668.2,727.12L668.2,732.46L662.86,732.46Z" style="fill:none;stroke:#7AC36A;stroke-width:0.625" />
<path d="M669.81,734.13L675.15,734.13L675.15,739.46L669.81,739.46Z" style="fill:none;stroke:#7AC36A;stroke-width:0.625" />
<path d="M676.76,741.14L682.1,741.14L682.1,746.47L676.76,746.47Z" style="fill:none;stroke:#7AC36A;stroke-width:0.625" />
<path d="M683.71,748.15L689.04,748.15L689.04,753.48L683.71,753.48Z" style="fill:none;stroke:#7AC36A;stroke-width:0.625" />
<path d="M690.66,755.15L695.99,755.15L695.99,760.49L690.66,760.49Z" style="fill:none;stroke:#7AC36A;stroke-width:0.625" />
<path d="M697.61,762.16L702.94,762.16L702.94,767.5L697.61,767.5Z" style="fill:none;stroke:#7AC36A;stroke-width:0.625" />
<path d="M704.56,769.17L709.89,769.17L709.89,774.5L704.56,774.5Z" style="fill:none;stroke:#7AC36A;stroke-width:0.625" />
<path d="M711.51,776.18L716.84,776.18L716.84,781.51L711.51,781.51Z" style="fill:none;stroke:#7AC36A;stroke-width:0.625" />
<path d="M718.45,783.18L723.79,783.18L723.79,788.52L718.45,788.52Z" style="fill:none;stroke:#7AC36A;stroke-width:0.625" />
<path d="M725.4,790.19L730.74,790.19L730.74,795.53L725.4,795.53Z" style="fill:none;stroke:#7AC36A;stroke-width:0.625" />
<path d="M732.35,797.2L737.69,797.2L737.69,802.53L732.35,802.53Z" style="fill:none;stroke:#7AC36A;stroke-width:0.625" />
<path d="M739.3,804.21L744.64,804.21L744.64,809.54L739.3,809.54Z" style="fill:none;stroke:#7AC36A;stroke-width:0.625" />
<path d="M1415,66.978L1440,66.978" style="fill:none;stroke:#F15A60;stroke-width:1.25" />
<path d="M1430.6,66.978A3.125,3.125 0 1 1 1424.4,66.978A3.125,3.125 0 1 1 1430.6,66.978Z" style="fill:none;stroke:#F15A60;stroke-width:0.625" />
<text x="1388.8" y="-61.188" transform="scale(1, -1)"
	style="font-family:Times;font-weight:normal;font-style:normal;font-size:12pt">raw</text>
<path d="M1415,53.117L1440,53.117" style="fill:none;stroke:#7AC36A;stroke-width:1.25;stroke-dasharray:7.5,2.5" />
<path d="M1424.8,50.45L1430.2,50.45L1430.2,55.785L1424.8,55.785Z" style="fill:none;stroke:#7AC36A;stroke-width:0.625" />
<text x="1367.1" y="-47.328" transform="scale(1, -1)"
	style="font-family:Times;font-weight:normal;font-style:normal;font-size:12pt">smooth</text>
</g>
</svg>
