<?xml version="1.0"?>
<!-- Generated by SVGo and Plotinum VG -->
<svg width="16in" height="9in"
	xmlns="http://www.w3.org/2000/svg"
	xmlns:xlink="http://www.w3.org/1999/xlink">
<g transform="scale(1, -1) translate(0, -810)">
<path d="M0,0L1440,0L1440,810L0,810Z" style="fill:#FFFFFF" />
<text x="736.9" y="-5.355" transform="scale(1, -1)"
	style="font-family:Times;font-weight:normal;font-style:normal;font-size:12pt">X</text>
<text x="44.638" y="-19.025" transform="scale(1, -1)"
	style="font-family:Times;font-weight:normal;font-style:normal;font-size:10pt">0</text>
<text x="460.34" y="-19.025" transform="scale(1, -1)"
	style="font-family:Times;font-weight:normal;font-style:normal;font-size:10pt">60</text>
<text x="876.04" y="-19.025" transform="scale(1, -1)"
	style="font-family:Times;font-weight:normal;font-style:normal;font-size:10pt">120</text>
<text x="1294.9" y="-19.025" transform="scale(1, -1)"
	style="font-family:Times;font-weight:normal;font-style:normal;font-size:10pt">180</text>
<path d="M47.763,29.625L47.763,39.625" style="fill:none;stroke:#000000;stroke-width:0.625" />
<path d="M466.59,29.625L466.59,39.625" style="fill:none;stroke:#000000;stroke-width:0.625" />
<path d="M885.42,29.625L885.42,39.625" style="fill:none;stroke:#000000;stroke-width:0.625" />
<path d="M1304.2,29.625L1304.2,39.625" style="fill:none;stroke:#000000;stroke-width:0.625" />
<path d="M187.37,34.625L187.37,39.625" style="fill:none;stroke:#000000;stroke-width:0.625" />
<path d="M326.98,34.625L326.98,39.625" style="fill:none;stroke:#000000;stroke-width:0.625" />
<path d="M606.2,34.625L606.2,39.625" style="fill:none;stroke:#000000;stroke-width:0.625" />
<path d="M745.81,34.625L745.81,39.625" style="fill:none;stroke:#000000;stroke-width:0.625" />
<path d="M1025,34.625L1025,39.625" style="fill:none;stroke:#000000;stroke-width:0.625" />
<path d="M1164.6,34.625L1164.6,39.625" style="fill:none;stroke:#000000;stroke-width:0.625" />
<path d="M47.763,39.625L1436.9,39.625" style="fill:none;stroke:#000000;stroke-width:0.625" />
<g transform="rotate(90)">
<text x="422.68" y="12.72" transform="scale(1, -1)"
	style="font-family:Times;font-weight:normal;font-style:normal;font-size:12pt">Y</text>
</g>
<text x="18.075" y="-244.32" transform="scale(1, -1)"
	style="font-family:Times;font-weight:normal;font-style:normal;font-size:10pt">0</text>
<text x="18.075" y="-453.68" transform="scale(1, -1)"
	style="font-family:Times;font-weight:normal;font-style:normal;font-size:10pt">1</text>
<text x="18.075" y="-663.05" transform="scale(1, -1)"
	style="font-family:Times;font-weight:normal;font-style:normal;font-size:10pt">2</text>
<path d="M27.45,249.15L37.45,249.15" style="fill:none;stroke:#000000;stroke-width:0.625" />
<path d="M27.45,458.51L37.45,458.51" style="fill:none;stroke:#000000;stroke-width:0.625" />
<path d="M27.45,667.87L37.45,667.87" style="fill:none;stroke:#000000;stroke-width:0.625" />
<path d="M32.45,144.46L37.45,144.46" style="fill:none;stroke:#000000;stroke-width:0.625" />
<path d="M32.45,353.83L37.45,353.83" style="fill:none;stroke:#000000;stroke-width:0.625" />
<path d="M32.45,563.19L37.45,563.19" style="fill:none;stroke:#000000;stroke-width:0.625" />
<path d="M32.45,772.55L37.45,772.55" style="fill:none;stroke:#000000;stroke-width:0.625" />
<path d="M37.45,49.313L37.45,806.88" style="fill:none;stroke:#000000;stroke-width:0.625" />
<path d="M47.763,402.57L54.743,330.36L61.723,376.59L68.704,333.88L75.684,524.75L82.665,451.7L89.645,423.96L96.626,580.03L103.61,496.97L110.59,426.5L117.57,452.59L124.55,467.25L131.53,594.94L138.51,505.23L145.49,478.35L152.47,510.5L159.45,654.77L166.43,606.28L173.41,543.36L180.39,570.02L187.37,486.24L194.35,557.83L201.33,577.49L208.31,462.69L215.29,479.48L222.27,519.97L229.25,566.71L236.24,547.13L243.22,365.32L250.2,357.57L257.18,457.8L264.16,472.4L271.14,324.78L278.12,362.49L285.1,259.08L292.08,381.06L299.06,344.25L306.04,228.77L313.02,305.94L320,336.84L326.98,264.71L333.96,134.99L340.94,310.66L347.92,293.86L354.9,173.67L361.88,77.384L368.86,175.93L375.84,198.16L382.82,177.36L389.81,107.12L396.79,206.6L403.77,96.995L410.75,66.317L417.73,217.97L424.71,50.184L431.69,221.04L438.67,123.06L445.65,256.97L452.63,187.39L459.61,271.09L466.59,115.89L473.57,175.42L480.55,192.48L487.53,226.13L494.51,367.62L501.49,381.16L508.47,209.91L515.45,234.57L522.43,347.35L529.41,298.46L536.4,418.64L543.38,433.46L550.36,436.15L557.34,408.97L564.32,452.59L571.3,489.36L578.28,545.34L585.26,468.41L592.24,491.26L599.22,570.48L606.2,539.17L613.18,608.98L620.16,619.89L627.14,612.58L634.12,572.97L641.1,653.6L648.08,471.13L655.06,491.9L662.04,499.07L669.02,505.77L676,591.86L682.98,623.88L689.97,545.88L696.95,620.21L703.93,521.89L710.91,481.22L717.89,458.33L724.87,552.57L731.85,458.86L738.83,505.89L745.81,402.4L752.79,330.06L759.77,391.48L766.75,409.04L773.73,424L780.71,360.93L787.69,296.5L794.67,351.34L801.65,247.96L808.63,190.56L815.61,169.05L822.59,256.1L829.57,131.53L836.56,169.74L843.54,133.31L850.52,97.317L857.5,190.13L864.48,214.36L871.46,49.313L878.44,69.309L885.42,224.72L892.4,216.94L899.38,225.99L906.36,186.1L913.34,95.496L920.32,230.89L927.3,145.78L934.28,238.29L941.26,289.93L948.24,174.6L955.22,130.55L962.2,217.41L969.18,315.11L976.16,284.14L983.14,237.34L990.13,341.11L997.11,390.89L1004.1,349.43L1011.1,379.65L1018,356.29L1025,301.72L1032,351.29L1039,390.83L1046,504.24L1052.9,396.23L1059.9,526.75L1066.9,508.38L1073.9,497.25L1080.9,451.8L1087.9,625.21L1094.8,543.7L1101.8,582.65L1108.8,501.76L1115.8,508.14L1122.8,611.79L1129.7,589.7L1136.7,626.66L1143.7,550.94L1150.7,465.89L1157.7,605.89L1164.6,504.48L1171.6,465.41L1178.6,554.78L1185.6,440.51L1192.6,487.79L1199.5,425.8L1206.5,371.12L1213.5,402.78L1220.5,419.75L1227.5,463.23L1234.4,330.12L1241.4,395.21L1248.4,319.54L1255.4,439.83L1262.4,377.22L1269.3,372.78L1276.3,373.66L1283.3,295.8L1290.3,344.54L1297.3,138.33L1304.2,309.46L1311.2,152.63L1318.2,124.5L1325.2,243.45L1332.2,195.3L1339.1,88.506L1346.1,98.281L1353.1,167.55L1360.1,53.579L1367.1,94.716L1374.1,181.14L1381,237.32L1388,189.73L1395,238.62L1402,137.96L1409,105.51L1415.9,99.497L1422.9,121.43L1429.9,111.83L1436.9,242.5" style="fill:none;stroke:#F15A60;stroke-width:1.25" />
<path d="M50.888,402.57A3.125,3.125 0 1 1 44.638,402.57A3.125,3.125 0 1 1 50.888,402.57Z" style="fill:none;stroke:#F15A60;stroke-width:0.625" />
<path d="M57.868,330.36A3.125,3.125 0 1 1 51.618,330.36A3.125,3.125 0 1 1 57.868,330.36Z" style="fill:none;stroke:#F15A60;stroke-width:0.625" />
<path d="M64.848,376.59A3.125,3.125 0 1 1 58.598,376.59A3.125,3.125 0 1 1 64.848,376.59Z" style="fill:none;stroke:#F15A60;stroke-width:0.625" />
<path d="M71.829,333.88A3.125,3.125 0 1 1 65.579,333.88A3.125,3.125 0 1 1 71.829,333.88Z" style="fill:none;stroke:#F15A60;stroke-width:0.625" />
<path d="M78.809,524.75A3.125,3.125 0 1 1 72.559,524.75A3.125,3.125 0 1 1 78.809,524.75Z" style="fill:none;stroke:#F15A60;stroke-width:0.625" />
<path d="M85.79,451.7A3.125,3.125 0 1 1 79.54,451.7A3.125,3.125 0 1 1 85.79,451.7Z" style="fill:none;stroke:#F15A60;stroke-width:0.625" />
<path d="M92.77,423.96L92.77,423.96A3.125,3.125 0 1 1 86.52,423.96A3.125,3.125 0 1 1 92.77,423.96Z" style="fill:none;stroke:#F15A60;stroke-width:0.625" />
<path d="M99.751,580.03A3.125,3.125 0 1 1 93.501,580.03A3.125,3.125 0 1 1 99.751,580.03Z" style="fill:none;stroke:#F15A60;stroke-width:0.625" />
<path d="M106.73,496.97L106.73,496.97A3.125,3.125 0 1 1 100.48,496.97A3.125,3.125 0 1 1 106.73,496.97Z" style="fill:none;stroke:#F15A60;stroke-width:0.625" />
<path d="M113.71,426.5L113.71,426.5A3.125,3.125 0 1 1 107.46,426.5A3.125,3.125 0 1 1 113.71,426.5Z" style="fill:none;stroke:#F15A60;stroke-width:0.625" />
<path d="M120.69,452.59L120.69,452.59A3.125,3.125 0 1 1 114.44,452.59A3.125,3.125 0 1 1 120.69,452.59Z" style="fill:none;stroke:#F15A60;stroke-width:0.625" />
<path d="M127.67,467.25L127.67,467.25A3.125,3.125 0 1 1 121.42,467.25A3.125,3.125 0 1 1 127.67,467.25Z" style="fill:none;stroke:#F15A60;stroke-width:0.625" />
<path d="M134.65,594.94A3.125,3.125 0 1 1 128.4,594.94A3.125,3.125 0 1 1 134.65,594.94Z" style="fill:none;stroke:#F15A60;stroke-width:0.625" />
<path d="M141.63,505.23A3.125,3.125 0 1 1 135.38,505.23A3.125,3.125 0 1 1 141.63,505.23Z" style="fill:none;stroke:#F15A60;stroke-width:0.625" />
<path d="M148.61,478.35A3.125,3.125 0 1 1 142.36,478.35A3.125,3.125 0 1 1 148.61,478.35Z" style="fill:none;stroke:#F15A60;stroke-width:0.625" />
<path d="M155.59,510.5A3.125,3.125 0 1 1 149.34,510.5A3.125,3.125 0 1 1 155.59,510.5Z" style="fill:none;stroke:#F15A60;stroke-width:0.625" />
<path d="M162.57,654.77L162.57,654.77A3.125,3.125 0 1 1 156.32,654.77A3.125,3.125 0 1 1 162.57,654.77Z" style="fill:none;stroke:#F15A60;stroke-width:0.625" />
<path d="M169.56,606.28A3.125,3.125 0 1 1 163.31,606.28A3.125,3.125 0 1 1 169.56,606.28Z" style="fill:none;stroke:#F15A60;stroke-width:0.625" />
<path d="M176.54,543.36L176.54,543.36A3.125,3.125 0 1 1 170.29,543.36A3.125,3.125 0 1 1 176.54,543.36Z" style="fill:none;stroke:#F15A60;stroke-width:0.625" />
<path d="M183.52,570.02L183.52,570.02A3.125,3.125 0 1 1 177.27,570.02A3.125,3.125 0 1 1 183.52,570.02Z" style="fill:none;stroke:#F15A60;stroke-width:0.625" />
<path d="M190.5,486.24L190.5,486.24A3.125,3.125 0 1 1 184.25,486.24A3.125,3.125 0 1 1 190.5,486.24Z" style="fill:none;stroke:#F15A60;stroke-width:0.625" />
<path d="M197.48,557.83A3.125,3.125 0 1 1 191.23,557.83A3.125,3.125 0 1 1 197.48,557.83Z" style="fill:none;stroke:#F15A60;stroke-width:0.625" />
<path d="M204.46,577.49A3.125,3.125 0 1 1 198.21,577.49A3.125,3.125 0 1 1 204.46,577.49Z" style="fill:none;stroke:#F15A60;stroke-width:0.625" />
<path d="M211.44,462.69L211.44,462.69A3.125,3.125 0 1 1 205.19,462.69A3.125,3.125 0 1 1 211.44,462.69Z" style="fill:none;stroke:#F15A60;stroke-width:0.625" />
<path d="M218.42,479.48A3.125,3.125 0 1 1 212.17,479.48A3.125,3.125 0 1 1 218.42,479.48Z" style="fill:none;stroke:#F15A60;stroke-width:0.625" />
<path d="M225.4,519.97A3.125,3.125 0 1 1 219.15,519.97A3.125,3.125 0 1 1 225.4,519.97Z" style="fill:none;stroke:#F15A60;stroke-width:0.625" />
<path d="M232.38,566.71A3.125,3.125 0 1 1 226.13,566.71A3.125,3.125 0 1 1 232.38,566.71Z" style="fill:none;stroke:#F15A60;stroke-width:0.625" />
<path d="M239.36,547.13A3.125,3.125 0 1 1 233.11,547.13A3.125,3.125 0 1 1 239.36,547.13Z" style="fill:none;stroke:#F15A60;stroke-width:0.625" />
<path d="M246.34,365.32L246.34,365.32A3.125,3.125 0 1 1 240.09,365.32A3.125,3.125 0 1 1 246.34,365.32Z" style="fill:none;stroke:#F15A60;stroke-width:0.625" />
<path d="M253.32,357.57L253.32,357.57A3.125,3.125 0 1 1 247.07,357.57A3.125,3.125 0 1 1 253.32,357.57Z" style="fill:none;stroke:#F15A60;stroke-width:0.625" />
<path d="M260.3,457.8A3.125,3.125 0 1 1 254.05,457.8A3.125,3.125 0 1 1 260.3,457.8Z" style="fill:none;stroke:#F15A60;stroke-width:0.625" />
<path d="M267.28,472.4A3.125,3.125 0 1 1 261.03,472.4A3.125,3.125 0 1 1 267.28,472.4Z" style="fill:none;stroke:#F15A60;stroke-width:0.625" />
<path d="M274.26,324.78L274.26,324.78A3.125,3.125 0 1 1 268.01,324.78A3.125,3.125 0 1 1 274.26,324.78Z" style="fill:none;stroke:#F15A60;stroke-width:0.625" />
<path d="M281.24,362.49A3.125,3.125 0 1 1 274.99,362.49A3.125,3.125 0 1 1 281.24,362.49Z" style="fill:none;stroke:#F15A60;stroke-width:0.625" />
<path d="M288.22,259.08A3.125,3.125 0 1 1 281.97,259.08A3.125,3.125 0 1 1 288.22,259.08Z" style="fill:none;stroke:#F15A60;stroke-width:0.625" />
<path d="M295.2,381.06A3.125,3.125 0 1 1 288.95,381.06A3.125,3.125 0 1 1 295.2,381.06Z" style="fill:none;stroke:#F15A60;stroke-width:0.625" />
<path d="M302.18,344.25A3.125,3.125 0 1 1 295.93,344.25A3.125,3.125 0 1 1 302.18,344.25Z" style="fill:none;stroke:#F15A60;stroke-width:0.625" />
<path d="M309.16,228.77L309.16,228.77A3.125,3.125 0 1 1 302.91,228.77A3.125,3.125 0 1 1 309.16,228.77Z" style="fill:none;stroke:#F15A60;stroke-width:0.625" />
<path d="M316.15,305.94A3.125,3.125 0 1 1 309.9,305.94A3.125,3.125 0 1 1 316.15,305.94Z" style="fill:none;stroke:#F15A60;stroke-width:0.625" />
<path d="M323.13,336.84A3.125,3.125 0 1 1 316.88,336.84A3.125,3.125 0 1 1 323.13,336.84Z" style="fill:none;stroke:#F15A60;stroke-width:0.625" />
<path d="M330.11,264.71A3.125,3.125 0 1 1 323.86,264.71A3.125,3.125 0 1 1 330.11,264.71Z" style="fill:none;stroke:#F15A60;stroke-width:0.625" />
<path d="M337.09,134.99A3.125,3.125 0 1 1 330.84,134.99A3.125,3.125 0 1 1 337.09,134.99Z" style="fill:none;stroke:#F15A60;stroke-width:0.625" />
<path d="M344.07,310.66A3.125,3.125 0 1 1 337.82,310.66A3.125,3.125 0 1 1 344.07,310.66Z" style="fill:none;stroke:#F15A60;stroke-width:0.625" />
<path d="M351.05,293.86A3.125,3.125 0 1 1 344.8,293.86A3.125,3.125 0 1 1 351.05,293.86Z" style="fill:none;stroke:#F15A60;stroke-width:0.625" />
<path d="M358.03,173.67A3.125,3.125 0 1 1 351.78,173.67A3.125,3.125 0 1 1 358.03,173.67Z" style="fill:none;stroke:#F15A60;stroke-width:0.625" />
<path d="M365.01,77.384A3.125,3.125 0 1 1 358.76,77.384A3.125,3.125 0 1 1 365.01,77.384Z" style="fill:none;stroke:#F15A60;stroke-width:0.625" />
<path d="M371.99,175.93A3.125,3.125 0 1 1 365.74,175.93A3.125,3.125 0 1 1 371.99,175.93Z" style="fill:none;stroke:#F15A60;stroke-width:0.625" />
<path d="M378.97,198.16A3.125,3.125 0 1 1 372.72,198.16A3.125,3.125 0 1 1 378.97,198.16Z" style="fill:none;stroke:#F15A60;stroke-width:0.625" />
<path d="M385.95,177.36A3.125,3.125 0 1 1 379.7,177.36A3.125,3.125 0 1 1 385.95,177.36Z" style="fill:none;stroke:#F15A60;stroke-width:0.625" />
<path d="M392.93,107.12A3.125,3.125 0 1 1 386.68,107.12A3.125,3.125 0 1 1 392.93,107.12Z" style="fill:none;stroke:#F15A60;stroke-width:0.625" />
<path d="M399.91,206.6L399.91,206.6A3.125,3.125 0 1 1 393.66,206.6A3.125,3.125 0 1 1 399.91,206.6Z" style="fill:none;stroke:#F15A60;stroke-width:0.625" />
<path d="M406.89,96.995A3.125,3.125 0 1 1 400.64,96.995A3.125,3.125 0 1 1 406.89,96.995Z" style="fill:none;stroke:#F15A60;stroke-width:0.625" />
<path d="M413.87,66.317L413.87,66.317A3.125,3.125 0 1 1 407.62,66.317A3.125,3.125 0 1 1 413.87,66.317Z" style="fill:none;stroke:#F15A60;stroke-width:0.625" />
<path d="M420.85,217.97A3.125,3.125 0 1 1 414.6,217.97A3.125,3.125 0 1 1 420.85,217.97Z" style="fill:none;stroke:#F15A60;stroke-width:0.625" />
<path d="M427.83,50.184A3.125,3.125 0 1 1 421.58,50.184A3.125,3.125 0 1 1 427.83,50.184Z" style="fill:none;stroke:#F15A60;stroke-width:0.625" />
<path d="M434.81,221.04A3.125,3.125 0 1 1 428.56,221.04A3.125,3.125 0 1 1 434.81,221.04Z" style="fill:none;stroke:#F15A60;stroke-width:0.625" />
<path d="M441.79,123.06A3.125,3.125 0 1 1 435.54,123.06A3.125,3.125 0 1 1 441.79,123.06Z" style="fill:none;stroke:#F15A60;stroke-width:0.625" />
<path d="M448.77,256.97A3.125,3.125 0 1 1 442.52,256.97A3.125,3.125 0 1 1 448.77,256.97Z" style="fill:none;stroke:#F15A60;stroke-width:0.625" />
<path d="M455.75,187.39A3.125,3.125 0 1 1 449.5,187.39A3.125,3.125 0 1 1 455.75,187.39Z" style="fill:none;stroke:#F15A60;stroke-width:0.625" />
<path d="M462.73,271.09L462.73,271.09A3.125,3.125 0 1 1 456.48,271.09A3.125,3.125 0 1 1 462.73,271.09Z" style="fill:none;stroke:#F15A60;stroke-width:0.625" />
<path d="M469.72,115.89A3.125,3.125 0 1 1 463.47,115.89A3.125,3.125 0 1 1 469.72,115.89Z" style="fill:none;stroke:#F15A60;stroke-width:0.625" />
<path d="M476.7,175.42L476.7,175.42A3.125,3.125 0 1 1 470.45,175.42A3.125,3.125 0 1 1 476.7,175.42Z" style="fill:none;stroke:#F15A60;stroke-width:0.625" />
<path d="M483.68,192.48L483.68,192.48A3.125,3.125 0 1 1 477.43,192.48A3.125,3.125 0 1 1 483.68,192.48Z" style="fill:none;stroke:#F15A60;stroke-width:0.625" />
<path d="M490.66,226.13A3.125,3.125 0 1 1 484.41,226.13A3.125,3.125 0 1 1 490.66,226.13Z" style="fill:none;stroke:#F15A60;stroke-width:0.625" />
<path d="M497.64,367.62A3.125,3.125 0 1 1 491.39,367.62A3.125,3.125 0 1 1 497.64,367.62Z" style="fill:none;stroke:#F15A60;stroke-width:0.625" />
<path d="M504.62,381.16A3.125,3.125 0 1 1 498.37,381.16A3.125,3.125 0 1 1 504.62,381.16Z" style="fill:none;stroke:#F15A60;stroke-width:0.625" />
<path d="M511.6,209.91A3.125,3.125 0 1 1 505.35,209.91A3.125,3.125 0 1 1 511.6,209.91Z" style="fill:none;stroke:#F15A60;stroke-width:0.625" />
<path d="M518.58,234.57A3.125,3.125 0 1 1 512.33,234.57A3.125,3.125 0 1 1 518.58,234.57Z" style="fill:none;stroke:#F15A60;stroke-width:0.625" />
<path d="M525.56,347.35A3.125,3.125 0 1 1 519.31,347.35A3.125,3.125 0 1 1 525.56,347.35Z" style="fill:none;stroke:#F15A60;stroke-width:0.625" />
<path d="M532.54,298.46L532.54,298.46A3.125,3.125 0 1 1 526.29,298.46A3.125,3.125 0 1 1 532.54,298.46Z" style="fill:none;stroke:#F15A60;stroke-width:0.625" />
<path d="M539.52,418.64L539.52,418.64A3.125,3.125 0 1 1 533.27,418.64A3.125,3.125 0 1 1 539.52,418.64Z" style="fill:none;stroke:#F15A60;stroke-width:0.625" />
<path d="M546.5,433.46A3.125,3.125 0 1 1 540.25,433.46A3.125,3.125 0 1 1 546.5,433.46Z" style="fill:none;stroke:#F15A60;stroke-width:0.625" />
<path d="M553.48,436.15A3.125,3.125 0 1 1 547.23,436.15A3.125,3.125 0 1 1 553.48,436.15Z" style="fill:none;stroke:#F15A60;stroke-width:0.625" />
<path d="M560.46,408.97A3.125,3.125 0 1 1 554.21,408.97A3.125,3.125 0 1 1 560.46,408.97Z" style="fill:none;stroke:#F15A60;stroke-width:0.625" />
<path d="M567.44,452.59A3.125,3.125 0 1 1 561.19,452.59A3.125,3.125 0 1 1 567.44,452.59Z" style="fill:none;stroke:#F15A60;stroke-width:0.625" />
<path d="M574.42,489.36A3.125,3.125 0 1 1 568.17,489.36A3.125,3.125 0 1 1 574.42,489.36Z" style="fill:none;stroke:#F15A60;stroke-width:0.625" />
<path d="M581.4,545.34A3.125,3.125 0 1 1 575.15,545.34A3.125,3.125 0 1 1 581.4,545.34Z" style="fill:none;stroke:#F15A60;stroke-width:0.625" />
<path d="M588.38,468.41A3.125,3.125 0 1 1 582.13,468.41A3.125,3.125 0 1 1 588.38,468.41Z" style="fill:none;stroke:#F15A60;stroke-width:0.625" />
<path d="M595.36,491.26A3.125,3.125 0 1 1 589.11,491.26A3.125,3.125 0 1 1 595.36,491.26Z" style="fill:none;stroke:#F15A60;stroke-width:0.625" />
<path d="M602.34,570.48A3.125,3.125 0 1 1 596.09,570.48A3.125,3.125 0 1 1 602.34,570.48Z" style="fill:none;stroke:#F15A60;stroke-width:0.625" />
<path d="M609.32,539.17A3.125,3.125 0 1 1 603.07,539.17A3.125,3.125 0 1 1 609.32,539.17Z" style="fill:none;stroke:#F15A60;stroke-width:0.625" />
<path d="M616.31,608.98A3.125,3.125 0 1 1 610.06,608.98A3.125,3.125 0 1 1 616.31,608.98Z" style="fill:none;stroke:#F15A60;stroke-width:0.625" />
<path d="M623.29,619.89A3.125,3.125 0 1 1 617.04,619.89A3.125,3.125 0 1 1 623.29,619.89Z" style="fill:none;stroke:#F15A60;stroke-width:0.625" />
<path d="M630.27,612.58A3.125,3.125 0 1 1 624.02,612.58A3.125,3.125 0 1 1 630.27,612.58Z" style="fill:none;stroke:#F15A60;stroke-width:0.625" />
<path d="M637.25,572.97A3.125,3.125 0 1 1 631,572.97A3.125,3.125 0 1 1 637.25,572.97Z" style="fill:none;stroke:#F15A60;stroke-width:0.625" />
<path d="M644.23,653.6A3.125,3.125 0 1 1 637.98,653.6A3.125,3.125 0 1 1 644.23,653.6Z" style="fill:none;stroke:#F15A60;stroke-width:0.625" />
<path d="M651.21,471.13L651.21,471.13A3.125,3.125 0 1 1 644.96,471.13A3.125,3.125 0 1 1 651.21,471.13Z" style="fill:none;stroke:#F15A60;stroke-width:0.625" />
<path d="M658.19,491.9A3.125,3.125 0 1 1 651.94,491.9A3.125,3.125 0 1 1 658.19,491.9Z" style="fill:none;stroke:#F15A60;stroke-width:0.625" />
<path d="M665.17,499.07A3.125,3.125 0 1 1 658.92,499.07A3.125,3.125 0 1 1 665.17,499.07Z" style="fill:none;stroke:#F15A60;stroke-width:0.625" />
<path d="M672.15,505.77A3.125,3.125 0 1 1 665.9,505.77A3.125,3.125 0 1 1 672.15,505.77Z" style="fill:none;stroke:#F15A60;stroke-width:0.625" />
<path d="M679.13,591.86L679.13,591.86A3.125,3.125 0 1 1 672.88,591.86A3.125,3.125 0 1 1 679.13,591.86Z" style="fill:none;stroke:#F15A60;stroke-width:0.625" />
<path d="M686.11,623.88A3.125,3.125 0 1 1 679.86,623.88A3.125,3.125 0 1 1 686.11,623.88Z" style="fill:none;stroke:#F15A60;stroke-width:0.625" />
<path d="M693.09,545.88A3.125,3.125 0 1 1 686.84,545.88A3.125,3.125 0 1 1 693.09,545.88Z" style="fill:none;stroke:#F15A60;stroke-width:0.625" />
<path d="M700.07,620.21A3.125,3.125 0 1 1 693.82,620.21A3.125,3.125 0 1 1 700.07,620.21Z" style="fill:none;stroke:#F15A60;stroke-width:0.625" />
<path d="M707.05,521.89A3.125,3.125 0 1 1 700.8,521.89A3.125,3.125 0 1 1 707.05,521.89Z" style="fill:none;stroke:#F15A60;stroke-width:0.625" />
<path d="M714.03,481.22A3.125,3.125 0 1 1 707.78,481.22A3.125,3.125 0 1 1 714.03,481.22Z" style="fill:none;stroke:#F15A60;stroke-width:0.625" />
<path d="M721.01,458.33L721.01,458.33A3.125,3.125 0 1 1 714.76,458.33A3.125,3.125 0 1 1 721.01,458.33Z" style="fill:none;stroke:#F15A60;stroke-width:0.625" />
<path d="M727.99,552.57L727.99,552.57A3.125,3.125 0 1 1 721.74,552.57A3.125,3.125 0 1 1 727.99,552.57Z" style="fill:none;stroke:#F15A60;stroke-width:0.625" />
<path d="M734.97,458.86L734.97,458.86A3.125,3.125 0 1 1 728.72,458.86A3.125,3.125 0 1 1 734.97,458.86Z" style="fill:none;stroke:#F15A60;stroke-width:0.625" />
<path d="M741.95,505.89L741.95,505.89A3.125,3.125 0 1 1 735.7,505.89A3.125,3.125 0 1 1 741.95,505.89Z" style="fill:none;stroke:#F15A60;stroke-width:0.625" />
<path d="M748.93,402.4L748.93,402.4A3.125,3.125 0 1 1 742.68,402.4A3.125,3.125 0 1 1 748.93,402.4Z" style="fill:none;stroke:#F15A60;stroke-width:0.625" />
<path d="M755.91,330.06L755.91,330.06A3.125,3.125 0 1 1 749.66,330.06A3.125,3.125 0 1 1 755.91,330.06Z" style="fill:none;stroke:#F15A60;stroke-width:0.625" />
<path d="M762.89,391.48A3.125,3.125 0 1 1 756.64,391.48A3.125,3.125 0 1 1 762.89,391.48Z" style="fill:none;stroke:#F15A60;stroke-width:0.625" />
<path d="M769.88,409.04A3.125,3.125 0 1 1 763.63,409.04A3.125,3.125 0 1 1 769.88,409.04Z" style="fill:none;stroke:#F15A60;stroke-width:0.625" />
<path d="M776.86,424L776.86,424A3.125,3.125 0 1 1 770.61,424A3.125,3.125 0 1 1 776.86,424Z" style="fill:none;stroke:#F15A60;stroke-width:0.625" />
<path d="M783.84,360.93L783.84,360.93A3.125,3.125 0 1 1 777.59,360.93A3.125,3.125 0 1 1 783.84,360.93Z" style="fill:none;stroke:#F15A60;stroke-width:0.625" />
<path d="M790.82,296.5L790.82,296.5A3.125,3.125 0 1 1 784.57,296.5A3.125,3.125 0 1 1 790.82,296.5Z" style="fill:none;stroke:#F15A60;stroke-width:0.625" />
<path d="M797.8,351.34A3.125,3.125 0 1 1 791.55,351.34A3.125,3.125 0 1 1 797.8,351.34Z" style="fill:none;stroke:#F15A60;stroke-width:0.625" />
<path d="M804.78,247.96L804.78,247.96A3.125,3.125 0 1 1 798.53,247.96A3.125,3.125 0 1 1 804.78,247.96Z" style="fill:none;stroke:#F15A60;stroke-width:0.625" />
<path d="M811.76,190.56A3.125,3.125 0 1 1 805.51,190.56A3.125,3.125 0 1 1 811.76,190.56Z" style="fill:none;stroke:#F15A60;stroke-width:0.625" />
<path d="M818.74,169.05L818.74,169.05A3.125,3.125 0 1 1 812.49,169.05A3.125,3.125 0 1 1 818.74,169.05Z" style="fill:none;stroke:#F15A60;stroke-width:0.625" />
<path d="M825.72,256.1L825.72,256.1A3.125,3.125 0 1 1 819.47,256.1A3.125,3.125 0 1 1 825.72,256.1Z" style="fill:none;stroke:#F15A60;stroke-width:0.625" />
<path d="M832.7,131.53L832.7,131.53A3.125,3.125 0 1 1 826.45,131.53A3.125,3.125 0 1 1 832.7,131.53Z" style="fill:none;stroke:#F15A60;stroke-width:0.625" />
<path d="M839.68,169.74L839.68,169.74A3.125,3.125 0 1 1 833.43,169.74A3.125,3.125 0 1 1 839.68,169.74Z" style="fill:none;stroke:#F15A60;stroke-width:0.625" />
<path d="M846.66,133.31L846.66,133.31A3.125,3.125 0 1 1 840.41,133.31A3.125,3.125 0 1 1 846.66,133.31Z" style="fill:none;stroke:#F15A60;stroke-width:0.625" />
<path d="M853.64,97.317L853.64,97.317A3.125,3.125 0 1 1 847.39,97.317A3.125,3.125 0 1 1 853.64,97.317Z" style="fill:none;stroke:#F15A60;stroke-width:0.625" />
<path d="M860.62,190.13L860.62,190.13A3.125,3.125 0 1 1 854.37,190.13A3.125,3.125 0 1 1 860.62,190.13Z" style="fill:none;stroke:#F15A60;stroke-width:0.625" />
<path d="M867.6,214.36L867.6,214.36A3.125,3.125 0 1 1 861.35,214.36A3.125,3.125 0 1 1 867.6,214.36Z" style="fill:none;stroke:#F15A60;stroke-width:0.625" />
<path d="M874.58,49.313A3.125,3.125 0 1 1 868.33,49.313A3.125,3.125 0 1 1 874.58,49.313Z" style="fill:none;stroke:#F15A60;stroke-width:0.625" />
<path d="M881.56,69.309A3.125,3.125 0 1 1 875.31,69.309A3.125,3.125 0 1 1 881.56,69.309Z" style="fill:none;stroke:#F15A60;stroke-width:0.625" />
<path d="M888.54,224.72A3.125,3.125 0 1 1 882.29,224.72A3.125,3.125 0 1 1 888.54,224.72Z" style="fill:none;stroke:#F15A60;stroke-width:0.625" />
<path d="M895.52,216.94L895.52,216.94A3.125,3.125 0 1 1 889.27,216.94A3.125,3.125 0 1 1 895.52,216.94Z" style="fill:none;stroke:#F15A60;stroke-width:0.625" />
<path d="M902.5,225.99L902.5,225.99A3.125,3.125 0 1 1 896.25,225.99A3.125,3.125 0 1 1 902.5,225.99Z" style="fill:none;stroke:#F15A60;stroke-width:0.625" />
<path d="M909.48,186.1L909.48,186.1A3.125,3.125 0 1 1 903.23,186.1A3.125,3.125 0 1 1 909.48,186.1Z" style="fill:none;stroke:#F15A60;stroke-width:0.625" />
<path d="M916.47,95.496A3.125,3.125 0 1 1 910.22,95.496A3.125,3.125 0 1 1 916.47,95.496Z" style="fill:none;stroke:#F15A60;stroke-width:0.625" />
<path d="M923.45,230.89L923.45,230.89A3.125,3.125 0 1 1 917.2,230.89A3.125,3.125 0 1 1 923.45,230.89Z" style="fill:none;stroke:#F15A60;stroke-width:0.625" />
<path d="M930.43,145.78L930.43,145.78A3.125,3.125 0 1 1 924.18,145.78A3.125,3.125 0 1 1 930.43,145.78Z" style="fill:none;stroke:#F15A60;stroke-width:0.625" />
<path d="M937.41,238.29L937.41,238.29A3.125,3.125 0 1 1 931.16,238.29A3.125,3.125 0 1 1 937.41,238.29Z" style="fill:none;stroke:#F15A60;stroke-width:0.625" />
<path d="M944.39,289.93A3.125,3.125 0 1 1 938.14,289.93A3.125,3.125 0 1 1 944.39,289.93Z" style="fill:none;stroke:#F15A60;stroke-width:0.625" />
<path d="M951.37,174.6L951.37,174.6A3.125,3.125 0 1 1 945.12,174.6A3.125,3.125 0 1 1 951.37,174.6Z" style="fill:none;stroke:#F15A60;stroke-width:0.625" />
<path d="M958.35,130.55L958.35,130.55A3.125,3.125 0 1 1 952.1,130.55A3.125,3.125 0 1 1 958.35,130.55Z" style="fill:none;stroke:#F15A60;stroke-width:0.625" />
<path d="M965.33,217.41L965.33,217.41A3.125,3.125 0 1 1 959.08,217.41A3.125,3.125 0 1 1 965.33,217.41Z" style="fill:none;stroke:#F15A60;stroke-width:0.625" />
<path d="M972.31,315.11A3.125,3.125 0 1 1 966.06,315.11A3.125,3.125 0 1 1 972.31,315.11Z" style="fill:none;stroke:#F15A60;stroke-width:0.625" />
<path d="M979.29,284.14L979.29,284.14A3.125,3.125 0 1 1 973.04,284.14A3.125,3.125 0 1 1 979.29,284.14Z" style="fill:none;stroke:#F15A60;stroke-width:0.625" />
<path d="M986.27,237.34L986.27,237.34A3.125,3.125 0 1 1 980.02,237.34A3.125,3.125 0 1 1 986.27,237.34Z" style="fill:none;stroke:#F15A60;stroke-width:0.625" />
<path d="M993.25,341.11A3.125,3.125 0 1 1 987,341.11A3.125,3.125 0 1 1 993.25,341.11Z" style="fill:none;stroke:#F15A60;stroke-width:0.625" />
<path d="M1000.2,390.89L1000.2,390.89A3.125,3.125 0 1 1 993.98,390.89A3.125,3.125 0 1 1 1000.2,390.89Z" style="fill:none;stroke:#F15A60;stroke-width:0.625" />
<path d="M1007.2,349.43L1007.2,349.43A3.125,3.125 0 1 1 1001,349.43A3.125,3.125 0 1 1 1007.2,349.43Z" style="fill:none;stroke:#F15A60;stroke-width:0.625" />
<path d="M1014.2,379.65L1014.2,379.65A3.125,3.125 0 1 1 1007.9,379.65A3.125,3.125 0 1 1 1014.2,379.65Z" style="fill:none;stroke:#F15A60;stroke-width:0.625" />
<path d="M1021.2,356.29L1021.2,356.29A3.125,3.125 0 1 1 1014.9,356.29A3.125,3.125 0 1 1 1021.2,356.29Z" style="fill:none;stroke:#F15A60;stroke-width:0.625" />
<path d="M1028.2,301.72L1028.2,301.72A3.125,3.125 0 1 1 1021.9,301.72A3.125,3.125 0 1 1 1028.2,301.72Z" style="fill:none;stroke:#F15A60;stroke-width:0.625" />
<path d="M1035.1,351.29L1035.1,351.29A3.125,3.125 0 1 1 1028.9,351.29A3.125,3.125 0 1 1 1035.1,351.29Z" style="fill:none;stroke:#F15A60;stroke-width:0.625" />
<path d="M1042.1,390.83L1042.1,390.83A3.125,3.125 0 1 1 1035.9,390.83A3.125,3.125 0 1 1 1042.1,390.83Z" style="fill:none;stroke:#F15A60;stroke-width:0.625" />
<path d="M1049.1,504.24A3.125,3.125 0 1 1 1042.8,504.24A3.125,3.125 0 1 1 1049.1,504.24Z" style="fill:none;stroke:#F15A60;stroke-width:0.625" />
<path d="M1056.1,396.23L1056.1,396.23A3.125,3.125 0 1 1 1049.8,396.23A3.125,3.125 0 1 1 1056.1,396.23Z" style="fill:none;stroke:#F15A60;stroke-width:0.625" />
<path d="M1063.1,526.75A3.125,3.125 0 1 1 1056.8,526.75A3.125,3.125 0 1 1 1063.1,526.75Z" style="fill:none;stroke:#F15A60;stroke-width:0.625" />
<path d="M1070,508.38L1070,508.38A3.125,3.125 0 1 1 1063.8,508.38A3.125,3.125 0 1 1 1070,508.38Z" style="fill:none;stroke:#F15A60;stroke-width:0.625" />
<path d="M1077,497.25A3.125,3.125 0 1 1 1070.8,497.25A3.125,3.125 0 1 1 1077,497.25Z" style="fill:none;stroke:#F15A60;stroke-width:0.625" />
<path d="M1084,451.8A3.125,3.125 0 1 1 1077.7,451.8A3.125,3.125 0 1 1 1084,451.8Z" style="fill:none;stroke:#F15A60;stroke-width:0.625" />
<path d="M1091,625.21L1091,625.21A3.125,3.125 0 1 1 1084.7,625.21A3.125,3.125 0 1 1 1091,625.21Z" style="fill:none;stroke:#F15A60;stroke-width:0.625" />
<path d="M1098,543.7L1098,543.7A3.125,3.125 0 1 1 1091.7,543.7A3.125,3.125 0 1 1 1098,543.7Z" style="fill:none;stroke:#F15A60;stroke-width:0.625" />
<path d="M1104.9,582.65L1104.9,582.65A3.125,3.125 0 1 1 1098.7,582.65A3.125,3.125 0 1 1 1104.9,582.65Z" style="fill:none;stroke:#F15A60;stroke-width:0.625" />
<path d="M1111.9,501.76L1111.9,501.76A3.125,3.125 0 1 1 1105.7,501.76A3.125,3.125 0 1 1 1111.9,501.76Z" style="fill:none;stroke:#F15A60;stroke-width:0.625" />
<path d="M1118.9,508.14L1118.9,508.14A3.125,3.125 0 1 1 1112.6,508.14A3.125,3.125 0 1 1 1118.9,508.14Z" style="fill:none;stroke:#F15A60;stroke-width:0.625" />
<path d="M1125.9,611.79L1125.9,611.79A3.125,3.125 0 1 1 1119.6,611.79A3.125,3.125 0 1 1 1125.9,611.79Z" style="fill:none;stroke:#F15A60;stroke-width:0.625" />
<path d="M1132.9,589.7A3.125,3.125 0 1 1 1126.6,589.7A3.125,3.125 0 1 1 1132.9,589.7Z" style="fill:none;stroke:#F15A60;stroke-width:0.625" />
<path d="M1139.8,626.66A3.125,3.125 0 1 1 1133.6,626.66A3.125,3.125 0 1 1 1139.8,626.66Z" style="fill:none;stroke:#F15A60;stroke-width:0.625" />
<path d="M1146.8,550.94A3.125,3.125 0 1 1 1140.6,550.94A3.125,3.125 0 1 1 1146.8,550.94Z" style="fill:none;stroke:#F15A60;stroke-width:0.625" />
<path d="M1153.8,465.89L1153.8,465.89A3.125,3.125 0 1 1 1147.6,465.89A3.125,3.125 0 1 1 1153.8,465.89Z" style="fill:none;stroke:#F15A60;stroke-width:0.625" />
<path d="M1160.8,605.89L1160.8,605.89A3.125,3.125 0 1 1 1154.5,605.89A3.125,3.125 0 1 1 1160.8,605.89Z" style="fill:none;stroke:#F15A60;stroke-width:0.625" />
<path d="M1167.8,504.48A3.125,3.125 0 1 1 1161.5,504.48A3.125,3.125 0 1 1 1167.8,504.48Z" style="fill:none;stroke:#F15A60;stroke-width:0.625" />
<path d="M1174.7,465.41L1174.7,465.41A3.125,3.125 0 1 1 1168.5,465.41A3.125,3.125 0 1 1 1174.7,465.41Z" style="fill:none;stroke:#F15A60;stroke-width:0.625" />
<path d="M1181.7,554.78L1181.7,554.78A3.125,3.125 0 1 1 1175.5,554.78A3.125,3.125 0 1 1 1181.7,554.78Z" style="fill:none;stroke:#F15A60;stroke-width:0.625" />
<path d="M1188.7,440.51A3.125,3.125 0 1 1 1182.5,440.51A3.125,3.125 0 1 1 1188.7,440.51Z" style="fill:none;stroke:#F15A60;stroke-width:0.625" />
<path d="M1195.7,487.79A3.125,3.125 0 1 1 1189.4,487.79A3.125,3.125 0 1 1 1195.7,487.79Z" style="fill:none;stroke:#F15A60;stroke-width:0.625" />
<path d="M1202.7,425.8L1202.7,425.8A3.125,3.125 0 1 1 1196.4,425.8A3.125,3.125 0 1 1 1202.7,425.8Z" style="fill:none;stroke:#F15A60;stroke-width:0.625" />
<path d="M1209.6,371.12A3.125,3.125 0 1 1 1203.4,371.12A3.125,3.125 0 1 1 1209.6,371.12Z" style="fill:none;stroke:#F15A60;stroke-width:0.625" />
<path d="M1216.6,402.78A3.125,3.125 0 1 1 1210.4,402.78A3.125,3.125 0 1 1 1216.6,402.78Z" style="fill:none;stroke:#F15A60;stroke-width:0.625" />
<path d="M1223.6,419.75L1223.6,419.75A3.125,3.125 0 1 1 1217.4,419.75A3.125,3.125 0 1 1 1223.6,419.75Z" style="fill:none;stroke:#F15A60;stroke-width:0.625" />
<path d="M1230.6,463.23L1230.6,463.23A3.125,3.125 0 1 1 1224.3,463.23A3.125,3.125 0 1 1 1230.6,463.23Z" style="fill:none;stroke:#F15A60;stroke-width:0.625" />
<path d="M1237.6,330.12L1237.6,330.12A3.125,3.125 0 1 1 1231.3,330.12A3.125,3.125 0 1 1 1237.6,330.12Z" style="fill:none;stroke:#F15A60;stroke-width:0.625" />
<path d="M1244.5,395.21L1244.5,395.21A3.125,3.125 0 1 1 1238.3,395.21A3.125,3.125 0 1 1 1244.5,395.21Z" style="fill:none;stroke:#F15A60;stroke-width:0.625" />
<path d="M1251.5,319.54A3.125,3.125 0 1 1 1245.3,319.54A3.125,3.125 0 1 1 1251.5,319.54Z" style="fill:none;stroke:#F15A60;stroke-width:0.625" />
<path d="M1258.5,439.83A3.125,3.125 0 1 1 1252.3,439.83A3.125,3.125 0 1 1 1258.5,439.83Z" style="fill:none;stroke:#F15A60;stroke-width:0.625" />
<path d="M1265.5,377.22A3.125,3.125 0 1 1 1259.2,377.22A3.125,3.125 0 1 1 1265.5,377.22Z" style="fill:none;stroke:#F15A60;stroke-width:0.625" />
<path d="M1272.5,372.78L1272.5,372.78A3.125,3.125 0 1 1 1266.2,372.78A3.125,3.125 0 1 1 1272.5,372.78Z" style="fill:none;stroke:#F15A60;stroke-width:0.625" />
<path d="M1279.4,373.66A3.125,3.125 0 1 1 1273.2,373.66A3.125,3.125 0 1 1 1279.4,373.66Z" style="fill:none;stroke:#F15A60;stroke-width:0.625" />
<path d="M1286.4,295.8A3.125,3.125 0 1 1 1280.2,295.8A3.125,3.125 0 1 1 1286.4,295.8Z" style="fill:none;stroke:#F15A60;stroke-width:0.625" />
<path d="M1293.4,344.54A3.125,3.125 0 1 1 1287.2,344.54A3.125,3.125 0 1 1 1293.4,344.54Z" style="fill:none;stroke:#F15A60;stroke-width:0.625" />
<path d="M1300.4,138.33L1300.4,138.33A3.125,3.125 0 1 1 1294.1,138.33A3.125,3.125 0 1 1 1300.4,138.33Z" style="fill:none;stroke:#F15A60;stroke-width:0.625" />
<path d="M1307.4,309.46A3.125,3.125 0 1 1 1301.1,309.46A3.125,3.125 0 1 1 1307.4,309.46Z" style="fill:none;stroke:#F15A60;stroke-width:0.625" />
<path d="M1314.4,152.63A3.125,3.125 0 1 1 1308.1,152.63A3.125,3.125 0 1 1 1314.4,152.63Z" style="fill:none;stroke:#F15A60;stroke-width:0.625" />
<path d="M1321.3,124.5A3.125,3.125 0 1 1 1315.1,124.5A3.125,3.125 0 1 1 1321.3,124.5Z" style="fill:none;stroke:#F15A60;stroke-width:0.625" />
<path d="M1328.3,243.45A3.125,3.125 0 1 1 1322.1,243.45A3.125,3.125 0 1 1 1328.3,243.45Z" style="fill:none;stroke:#F15A60;stroke-width:0.625" />
<path d="M1335.3,195.3L1335.3,195.3A3.125,3.125 0 1 1 1329,195.3A3.125,3.125 0 1 1 1335.3,195.3Z" style="fill:none;stroke:#F15A60;stroke-width:0.625" />
<path d="M1342.3,88.506L1342.3,88.506A3.125,3.125 0 1 1 1336,88.506A3.125,3.125 0 1 1 1342.3,88.506Z" style="fill:none;stroke:#F15A60;stroke-width:0.625" />
<path d="M1349.3,98.281A3.125,3.125 0 1 1 1343,98.281A3.125,3.125 0 1 1 1349.3,98.281Z" style="fill:none;stroke:#F15A60;stroke-width:0.625" />
<path d="M1356.2,167.55A3.125,3.125 0 1 1 1350,167.55A3.125,3.125 0 1 1 1356.2,167.55Z" style="fill:none;stroke:#F15A60;stroke-width:0.625" />
<path d="M1363.2,53.579A3.125,3.125 0 1 1 1357,53.579A3.125,3.125 0 1 1 1363.2,53.579Z" style="fill:none;stroke:#F15A60;stroke-width:0.625" />
<path d="M1370.2,94.716L1370.2,94.716A3.125,3.125 0 1 1 1363.9,94.716A3.125,3.125 0 1 1 1370.2,94.716Z" style="fill:none;stroke:#F15A60;stroke-width:0.625" />
<path d="M1377.2,181.14A3.125,3.125 0 1 1 1370.9,181.14A3.125,3.125 0 1 1 1377.2,181.14Z" style="fill:none;stroke:#F15A60;stroke-width:0.625" />
<path d="M1384.2,237.32L1384.2,237.32A3.125,3.125 0 1 1 1377.9,237.32A3.125,3.125 0 1 1 1384.2,237.32Z" style="fill:none;stroke:#F15A60;stroke-width:0.625" />
<path d="M1391.1,189.73A3.125,3.125 0 1 1 1384.9,189.73A3.125,3.125 0 1 1 1391.1,189.73Z" style="fill:none;stroke:#F15A60;stroke-width:0.625" />
<path d="M1398.1,238.62A3.125,3.125 0 1 1 1391.9,238.62A3.125,3.125 0 1 1 1398.1,238.62Z" style="fill:none;stroke:#F15A60;stroke-width:0.625" />
<path d="M1405.1,137.96L1405.1,137.96A3.125,3.125 0 1 1 1398.8,137.96A3.125,3.125 0 1 1 1405.1,137.96Z" style="fill:none;stroke:#F15A60;stroke-width:0.625" />
<path d="M1412.1,105.51L1412.1,105.51A3.125,3.125 0 1 1 1405.8,105.51A3.125,3.125 0 1 1 1412.1,105.51Z" style="fill:none;stroke:#F15A60;stroke-width:0.625" />
<path d="M1419.1,99.497A3.125,3.125 0 1 1 1412.8,99.497A3.125,3.125 0 1 1 1419.1,99.497Z" style="fill:none;stroke:#F15A60;stroke-width:0.625" />
<path d="M1426,121.43A3.125,3.125 0 1 1 1419.8,121.43A3.125,3.125 0 1 1 1426,121.43Z" style="fill:none;stroke:#F15A60;stroke-width:0.625" />
<path d="M1433,111.83L1433,111.83A3.125,3.125 0 1 1 1426.8,111.83A3.125,3.125 0 1 1 1433,111.83Z" style="fill:none;stroke:#F15A60;stroke-width:0.625" />
<path d="M1440,242.5A3.125,3.125 0 1 1 1433.8,242.5A3.125,3.125 0 1 1 1440,242.5Z" style="fill:none;stroke:#F15A60;stroke-width:0.625" />
<path d="M47.763,161.16L54.743,167.68L61.723,174.21L68.704,180.73L75.684,187.25L82.665,193.77L89.645,200.3L96.626,206.82L103.61,213.34L110.59,219.86L117.57,226.39L124.55,232.91L131.53,239.43L138.51,245.95L145.49,252.48L152.47,259L159.45,265.52L166.43,272.04L173.41,278.56L180.39,285.09L187.37,291.61L194.35,298.13L201.33,304.65L208.31,311.18L215.29,317.7L222.27,324.22L229.25,330.74L236.24,337.27L243.22,343.79L250.2,350.31L257.18,356.83L264.16,363.36L271.14,369.88L278.12,376.4L285.1,382.92L292.08,389.44L299.06,395.97L306.04,402.49L313.02,409.01L320,415.53L326.98,422.06L333.96,428.58L340.94,435.1L347.92,441.62L354.9,448.15L361.88,454.67L368.86,461.19L375.84,467.71L382.82,474.24L389.81,480.76L396.79,487.28L403.77,493.8L410.75,500.32L417.73,506.85L424.71,513.37L431.69,519.89L438.67,526.41L445.65,532.94L452.63,539.46L459.61,545.98L466.59,552.5L473.57,559.03L480.55,565.55L487.53,572.07L494.51,578.59L501.49,585.12L508.47,591.64L515.45,598.16L522.43,604.68L529.41,611.2L536.4,617.73L543.38,624.25L550.36,630.77L557.34,637.29L564.32,643.82L571.3,650.34L578.28,656.86L585.26,663.38L592.24,669.91L599.22,676.43L606.2,682.95L613.18,689.47L620.16,696L627.14,702.52L634.12,709.04L641.1,715.56L648.08,722.08L655.06,728.61L662.04,735.13L669.02,741.65L676,748.17L682.98,754.7L689.97,761.22L696.95,767.74L703.93,774.26L710.91,780.79L717.89,787.31L724.87,793.83L731.85,800.35L738.83,806.88" style="fill:none;stroke:#7AC36A;stroke-width:1.25;stroke-dasharray:7.5,2.5" />
<path d="M45.095,158.49L50.43,158.49L50.43,163.83L45.095,163.83Z" style="fill:none;stroke:#7AC36A;stroke-width:0.625" />
<path d="M52.076,165.02L57.41,165.02L57.41,170.35L52.076,170.35Z" style="fill:none;stroke:#7AC36A;stroke-width:0.625" />
<path d="M59.056,171.54L64.391,171.54L64.391,176.87L59.056,176.87Z" style="fill:none;stroke:#7AC36A;stroke-width:0.625" />
<path d="M66.037,178.06L71.371,178.06L71.371,183.4L66.037,183.4Z" style="fill:none;stroke:#7AC36A;stroke-width:0.625" />
<path d="M73.017,184.58L78.352,184.58L78.352,189.92L73.017,189.92Z" style="fill:none;stroke:#7AC36A;stroke-width:0.625" />
<path d="M79.997,191.11L85.332,191.11L85.332,196.44L79.997,196.44Z" style="fill:none;stroke:#7AC36A;stroke-width:0.625" />
<path d="M86.978,197.63L92.313,197.63L92.313,202.96L86.978,202.96Z" style="fill:none;stroke:#7AC36A;stroke-width:0.625" />
<path d="M93.958,204.15L99.293,204.15L99.293,209.49L93.958,209.49Z" style="fill:none;stroke:#7AC36A;stroke-width:0.625" />
<path d="M100.94,210.67L106.27,210.67L106.27,216.01L100.94,216.01Z" style="fill:none;stroke:#7AC36A;stroke-width:0.625" />
<path d="M107.92,217.2L113.25,217.2L113.25,222.53L107.92,222.53Z" style="fill:none;stroke:#7AC36A;stroke-width:0.625" />
<path d="M114.9,223.72L120.23,223.72L120.23,229.05L114.9,229.05Z" style="fill:none;stroke:#7AC36A;stroke-width:0.625" />
<path d="M121.88,230.24L127.21,230.24L127.21,235.58L121.88,235.58Z" style="fill:none;stroke:#7AC36A;stroke-width:0.625" />
<path d="M128.86,236.76L134.2,236.76L134.2,242.1L128.86,242.1Z" style="fill:none;stroke:#7AC36A;stroke-width:0.625" />
<path d="M135.84,243.29L141.18,243.29L141.18,248.62L135.84,248.62Z" style="fill:none;stroke:#7AC36A;stroke-width:0.625" />
<path d="M142.82,249.81L148.16,249.81L148.16,255.14L142.82,255.14Z" style="fill:none;stroke:#7AC36A;stroke-width:0.625" />
<path d="M149.8,256.33L155.14,256.33L155.14,261.66L149.8,261.66Z" style="fill:none;stroke:#7AC36A;stroke-width:0.625" />
<path d="M156.78,262.85L162.12,262.85L162.12,268.19L156.78,268.19Z" style="fill:none;stroke:#7AC36A;stroke-width:0.625" />
<path d="M163.76,269.37L169.1,269.37L169.1,274.71L163.76,274.71Z" style="fill:none;stroke:#7AC36A;stroke-width:0.625" />
<path d="M170.74,275.9L176.08,275.9L176.08,281.23L170.74,281.23Z" style="fill:none;stroke:#7AC36A;stroke-width:0.625" />
<path d="M177.72,282.42L183.06,282.42L183.06,287.75L177.72,287.75Z" style="fill:none;stroke:#7AC36A;stroke-width:0.625" />
<path d="M184.7,288.94L190.04,288.94L190.04,294.28L184.7,294.28Z" style="fill:none;stroke:#7AC36A;stroke-width:0.625" />
<path d="M191.68,295.46L197.02,295.46L197.02,300.8L191.68,300.8Z" style="fill:none;stroke:#7AC36A;stroke-width:0.625" />
<path d="M198.67,301.99L204,301.99L204,307.32L198.67,307.32Z" style="fill:none;stroke:#7AC36A;stroke-width:0.625" />
<path d="M205.65,308.51L210.98,308.51L210.98,313.84L205.65,313.84Z" style="fill:none;stroke:#7AC36A;stroke-width:0.625" />
<path d="M212.63,315.03L217.96,315.03L217.96,320.37L212.63,320.37Z" style="fill:none;stroke:#7AC36A;stroke-width:0.625" />
<path d="M219.61,321.55L224.94,321.55L224.94,326.89L219.61,326.89Z" style="fill:none;stroke:#7AC36A;stroke-width:0.625" />
<path d="M226.59,328.08L231.92,328.08L231.92,333.41L226.59,333.41Z" style="fill:none;stroke:#7AC36A;stroke-width:0.625" />
<path d="M233.57,334.6L238.9,334.6L238.9,339.93L233.57,339.93Z" style="fill:none;stroke:#7AC36A;stroke-width:0.625" />
<path d="M240.55,341.12L245.88,341.12L245.88,346.46L240.55,346.46Z" style="fill:none;stroke:#7AC36A;stroke-width:0.625" />
<path d="M247.53,347.64L252.86,347.64L252.86,352.98L247.53,352.98Z" style="fill:none;stroke:#7AC36A;stroke-width:0.625" />
<path d="M254.51,354.17L259.84,354.17L259.84,359.5L254.51,359.5Z" style="fill:none;stroke:#7AC36A;stroke-width:0.625" />
<path d="M261.49,360.69L266.82,360.69L266.82,366.02L261.49,366.02Z" style="fill:none;stroke:#7AC36A;stroke-width:0.625" />
<path d="M268.47,367.21L273.8,367.21L273.8,372.54L268.47,372.54Z" style="fill:none;stroke:#7AC36A;stroke-width:0.625" />
<path d="M275.45,373.73L280.79,373.73L280.79,379.07L275.45,379.07Z" style="fill:none;stroke:#7AC36A;stroke-width:0.625" />
<path d="M282.43,380.25L287.77,380.25L287.77,385.59L282.43,385.59Z" style="fill:none;stroke:#7AC36A;stroke-width:0.625" />
<path d="M289.41,386.78L294.75,386.78L294.75,392.11L289.41,392.11Z" style="fill:none;stroke:#7AC36A;stroke-width:0.625" />
<path d="M296.39,393.3L301.73,393.3L301.73,398.63L296.39,398.63Z" style="fill:none;stroke:#7AC36A;stroke-width:0.625" />
<path d="M303.37,399.82L308.71,399.82L308.71,405.16L303.37,405.16Z" style="fill:none;stroke:#7AC36A;stroke-width:0.625" />
<path d="M310.35,406.34L315.69,406.34L315.69,411.68L310.35,411.68Z" style="fill:none;stroke:#7AC36A;stroke-width:0.625" />
<path d="M317.33,412.87L322.67,412.87L322.67,418.2L317.33,418.2Z" style="fill:none;stroke:#7AC36A;stroke-width:0.625" />
<path d="M324.31,419.39L329.65,419.39L329.65,424.72L324.31,424.72Z" style="fill:none;stroke:#7AC36A;stroke-width:0.625" />
<path d="M331.29,425.91L336.63,425.91L336.63,431.25L331.29,431.25Z" style="fill:none;stroke:#7AC36A;stroke-width:0.625" />
<path d="M338.27,432.43L343.61,432.43L343.61,437.77L338.27,437.77Z" style="fill:none;stroke:#7AC36A;stroke-width:0.625" />
<path d="M345.26,438.96L350.59,438.96L350.59,444.29L345.26,444.29Z" style="fill:none;stroke:#7AC36A;stroke-width:0.625" />
<path d="M352.24,445.48L357.57,445.48L357.57,450.81L352.24,450.81Z" style="fill:none;stroke:#7AC36A;stroke-width:0.625" />
<path d="M359.22,452L364.55,452L364.55,457.34L359.22,457.34Z" style="fill:none;stroke:#7AC36A;stroke-width:0.625" />
<path d="M366.2,458.52L371.53,458.52L371.53,463.86L366.2,463.86Z" style="fill:none;stroke:#7AC36A;stroke-width:0.625" />
<path d="M373.18,465.05L378.51,465.05L378.51,470.38L373.18,470.38Z" style="fill:none;stroke:#7AC36A;stroke-width:0.625" />
<path d="M380.16,471.57L385.49,471.57L385.49,476.9L380.16,476.9Z" style="fill:none;stroke:#7AC36A;stroke-width:0.625" />
<path d="M387.14,478.09L392.47,478.09L392.47,483.42L387.14,483.42Z" style="fill:none;stroke:#7AC36A;stroke-width:0.625" />
<path d="M394.12,484.61L399.45,484.61L399.45,489.95L394.12,489.95Z" style="fill:none;stroke:#7AC36A;stroke-width:0.625" />
<path d="M401.1,491.13L406.43,491.13L406.43,496.47L401.1,496.47Z" style="fill:none;stroke:#7AC36A;stroke-width:0.625" />
<path d="M408.08,497.66L413.41,497.66L413.41,502.99L408.08,502.99Z" style="fill:none;stroke:#7AC36A;stroke-width:0.625" />
<path d="M415.06,504.18L420.39,504.18L420.39,509.51L415.06,509.51Z" style="fill:none;stroke:#7AC36A;stroke-width:0.625" />
<path d="M422.04,510.7L427.37,510.7L427.37,516.04L422.04,516.04Z" style="fill:none;stroke:#7AC36A;stroke-width:0.625" />
<path d="M429.02,517.22L434.36,517.22L434.36,522.56L429.02,522.56Z" style="fill:none;stroke:#7AC36A;stroke-width:0.625" />
<path d="M436,523.75L441.34,523.75L441.34,529.08L436,529.08Z" style="fill:none;stroke:#7AC36A;stroke-width:0.625" />
<path d="M442.98,530.27L448.32,530.27L448.32,535.6L442.98,535.6Z" style="fill:none;stroke:#7AC36A;stroke-width:0.625" />
<path d="M449.96,536.79L455.3,536.79L455.3,542.13L449.96,542.13Z" style="fill:none;stroke:#7AC36A;stroke-width:0.625" />
<path d="M456.94,543.31L462.28,543.31L462.28,548.65L456.94,548.65Z" style="fill:none;stroke:#7AC36A;stroke-width:0.625" />
<path d="M463.92,549.84L469.26,549.84L469.26,555.17L463.92,555.17Z" style="fill:none;stroke:#7AC36A;stroke-width:0.625" />
<path d="M470.9,556.36L476.24,556.36L476.24,561.69L470.9,561.69Z" style="fill:none;stroke:#7AC36A;stroke-width:0.625" />
<path d="M477.88,562.88L483.22,562.88L483.22,568.22L477.88,568.22Z" style="fill:none;stroke:#7AC36A;stroke-width:0.625" />
<path d="M484.86,569.4L490.2,569.4L490.2,574.74L484.86,574.74Z" style="fill:none;stroke:#7AC36A;stroke-width:0.625" />
<path d="M491.84,575.93L497.18,575.93L497.18,581.26L491.84,581.26Z" style="fill:none;stroke:#7AC36A;stroke-width:0.625" />
<path d="M498.83,582.45L504.16,582.45L504.16,587.78L498.83,587.78Z" style="fill:none;stroke:#7AC36A;stroke-width:0.625" />
<path d="M505.81,588.97L511.14,588.97L511.14,594.3L505.81,594.3Z" style="fill:none;stroke:#7AC36A;stroke-width:0.625" />
<path d="M512.79,595.49L518.12,595.49L518.12,600.83L512.79,600.83Z" style="fill:none;stroke:#7AC36A;stroke-width:0.625" />
<path d="M519.77,602.01L525.1,602.01L525.1,607.35L519.77,607.35Z" style="fill:none;stroke:#7AC36A;stroke-width:0.625" />
<path d="M526.75,608.54L532.08,608.54L532.08,613.87L526.75,613.87Z" style="fill:none;stroke:#7AC36A;stroke-width:0.625" />
<path d="M533.73,615.06L539.06,615.06L539.06,620.39L533.73,620.39Z" style="fill:none;stroke:#7AC36A;stroke-width:0.625" />
<path d="M540.71,621.58L546.04,621.58L546.04,626.92L540.71,626.92Z" style="fill:none;stroke:#7AC36A;stroke-width:0.625" />
<path d="M547.69,628.1L553.02,628.1L553.02,633.44L547.69,633.44Z" style="fill:none;stroke:#7AC36A;stroke-width:0.625" />
<path d="M554.67,634.63L560,634.63L560,639.96L554.67,639.96Z" style="fill:none;stroke:#7AC36A;stroke-width:0.625" />
<path d="M561.65,641.15L566.98,641.15L566.98,646.48L561.65,646.48Z" style="fill:none;stroke:#7AC36A;stroke-width:0.625" />
<path d="M568.63,647.67L573.96,647.67L573.96,653.01L568.63,653.01Z" style="fill:none;stroke:#7AC36A;stroke-width:0.625" />
<path d="M575.61,654.19L580.95,654.19L580.95,659.53L575.61,659.53Z" style="fill:none;stroke:#7AC36A;stroke-width:0.625" />
<path d="M582.59,660.72L587.93,660.72L587.93,666.05L582.59,666.05Z" style="fill:none;stroke:#7AC36A;stroke-width:0.625" />
<path d="M589.57,667.24L594.91,667.24L594.91,672.57L589.57,672.57Z" style="fill:none;stroke:#7AC36A;stroke-width:0.625" />
<path d="M596.55,673.76L601.89,673.76L601.89,679.1L596.55,679.1Z" style="fill:none;stroke:#7AC36A;stroke-width:0.625" />
<path d="M603.53,680.28L608.87,680.28L608.87,685.62L603.53,685.62Z" style="fill:none;stroke:#7AC36A;stroke-width:0.625" />
<path d="M610.51,686.81L615.85,686.81L615.85,692.14L610.51,692.14Z" style="fill:none;stroke:#7AC36A;stroke-width:0.625" />
<path d="M617.49,693.33L622.83,693.33L622.83,698.66L617.49,698.66Z" style="fill:none;stroke:#7AC36A;stroke-width:0.625" />
<path d="M624.47,699.85L629.81,699.85L629.81,705.18L624.47,705.18Z" style="fill:none;stroke:#7AC36A;stroke-width:0.625" />
<path d="M631.45,706.37L636.79,706.37L636.79,711.71L631.45,711.71Z" style="fill:none;stroke:#7AC36A;stroke-width:0.625" />
<path d="M638.43,712.89L643.77,712.89L643.77,718.23L638.43,718.23Z" style="fill:none;stroke:#7AC36A;stroke-width:0.625" />
<path d="M645.42,719.42L650.75,719.42L650.75,724.75L645.42,724.75Z" style="fill:none;stroke:#7AC36A;stroke-width:0.625" />
<path d="M652.4,725.94L657.73,725.94L657.73,731.27L652.4,731.27Z" style="fill:none;stroke:#7AC36A;stroke-width:0.625" />
<path d="M659.38,732.46L664.71,732.46L664.71,737.8L659.38,737.8Z" style="fill:none;stroke:#7AC36A;stroke-width:0.625" />
<path d="M666.36,738.98L671.69,738.98L671.69,744.32L666.36,744.32Z" style="fill:none;stroke:#7AC36A;stroke-width:0.625" />
<path d="M673.34,745.51L678.67,745.51L678.67,750.84L673.34,750.84Z" style="fill:none;stroke:#7AC36A;stroke-width:0.625" />
<path d="M680.32,752.03L685.65,752.03L685.65,757.36L680.32,757.36Z" style="fill:none;stroke:#7AC36A;stroke-width:0.625" />
<path d="M687.3,758.55L692.63,758.55L692.63,763.89L687.3,763.89Z" style="fill:none;stroke:#7AC36A;stroke-width:0.625" />
<path d="M694.28,765.07L699.61,765.07L699.61,770.41L694.28,770.41Z" style="fill:none;stroke:#7AC36A;stroke-width:0.625" />
<path d="M701.26,771.6L706.59,771.6L706.59,776.93L701.26,776.93Z" style="fill:none;stroke:#7AC36A;stroke-width:0.625" />
<path d="M708.24,778.12L713.57,778.12L713.57,783.45L708.24,783.45Z" style="fill:none;stroke:#7AC36A;stroke-width:0.625" />
<path d="M715.22,784.64L720.55,784.64L720.55,789.98L715.22,789.98Z" style="fill:none;stroke:#7AC36A;stroke-width:0.625" />
<path d="M722.2,791.16L727.53,791.16L727.53,796.5L722.2,796.5Z" style="fill:none;stroke:#7AC36A;stroke-width:0.625" />
<path d="M729.18,797.69L734.52,797.69L734.52,803.02L729.18,803.02Z" style="fill:none;stroke:#7AC36A;stroke-width:0.625" />
<path d="M736.16,804.21L741.5,804.21L741.5,809.54L736.16,809.54Z" style="fill:none;stroke:#7AC36A;stroke-width:0.625" />
<path d="M1415,66.978L1440,66.978" style="fill:none;stroke:#F15A60;stroke-width:1.25" />
<path d="M1430.6,66.978A3.125,3.125 0 1 1 1424.4,66.978A3.125,3.125 0 1 1 1430.6,66.978Z" style="fill:none;stroke:#F15A60;stroke-width:0.625" />
<text x="1388.8" y="-61.188" transform="scale(1, -1)"
	style="font-family:Times;font-weight:normal;font-style:normal;font-size:12pt">raw</text>
<path d="M1415,53.117L1440,53.117" style="fill:none;stroke:#7AC36A;stroke-width:1.25;stroke-dasharray:7.5,2.5" />
<path d="M1424.8,50.45L1430.2,50.45L1430.2,55.785L1424.8,55.785Z" style="fill:none;stroke:#7AC36A;stroke-width:0.625" />
<text x="1367.1" y="-47.328" transform="scale(1, -1)"
	style="font-family:Times;font-weight:normal;font-style:normal;font-size:12pt">smooth</text>
</g>
</svg>
