<?xml version="1.0"?>
<!-- Generated by SVGo and Plotinum VG -->
<svg width="16in" height="9in"
	xmlns="http://www.w3.org/2000/svg"
	xmlns:xlink="http://www.w3.org/1999/xlink">
<g transform="scale(1, -1) translate(0, -810)">
<path d="M0,0L1440,0L1440,810L0,810Z" style="fill:#FFFFFF" />
<text x="743.67" y="-5.355" transform="scale(1, -1)"
	style="font-family:Times;font-weight:normal;font-style:normal;font-size:12pt">X</text>
<text x="58.175" y="-19.025" transform="scale(1, -1)"
	style="font-family:Times;font-weight:normal;font-style:normal;font-size:10pt">0</text>
<text x="469.8" y="-19.025" transform="scale(1, -1)"
	style="font-family:Times;font-weight:normal;font-style:normal;font-size:10pt">60</text>
<text x="881.42" y="-19.025" transform="scale(1, -1)"
	style="font-family:Times;font-weight:normal;font-style:normal;font-size:10pt">120</text>
<text x="1296.2" y="-19.025" transform="scale(1, -1)"
	style="font-family:Times;font-weight:normal;font-style:normal;font-size:10pt">180</text>
<path d="M61.3,29.625L61.3,39.625" style="fill:none;stroke:#000000;stroke-width:0.625" />
<path d="M476.05,29.625L476.05,39.625" style="fill:none;stroke:#000000;stroke-width:0.625" />
<path d="M890.79,29.625L890.79,39.625" style="fill:none;stroke:#000000;stroke-width:0.625" />
<path d="M1305.5,29.625L1305.5,39.625" style="fill:none;stroke:#000000;stroke-width:0.625" />
<path d="M199.55,34.625L199.55,39.625" style="fill:none;stroke:#000000;stroke-width:0.625" />
<path d="M337.8,34.625L337.8,39.625" style="fill:none;stroke:#000000;stroke-width:0.625" />
<path d="M614.29,34.625L614.29,39.625" style="fill:none;stroke:#000000;stroke-width:0.625" />
<path d="M752.54,34.625L752.54,39.625" style="fill:none;stroke:#000000;stroke-width:0.625" />
<path d="M1029,34.625L1029,39.625" style="fill:none;stroke:#000000;stroke-width:0.625" />
<path d="M1167.3,34.625L1167.3,39.625" style="fill:none;stroke:#000000;stroke-width:0.625" />
<path d="M61.3,39.625L1436.9,39.625" style="fill:none;stroke:#000000;stroke-width:0.625" />
<g transform="rotate(90)">
<text x="422.68" y="12.72" transform="scale(1, -1)"
	style="font-family:Times;font-weight:normal;font-style:normal;font-size:12pt">Y</text>
</g>
<text x="18.075" y="-84.956" transform="scale(1, -1)"
	style="font-family:Times;font-weight:normal;font-style:normal;font-size:10pt">-0.8</text>
<text x="31.613" y="-294.52" transform="scale(1, -1)"
	style="font-family:Times;font-weight:normal;font-style:normal;font-size:10pt">0</text>
<text x="22.237" y="-504.09" transform="scale(1, -1)"
	style="font-family:Times;font-weight:normal;font-style:normal;font-size:10pt">0.8</text>
<text x="22.237" y="-713.66" transform="scale(1, -1)"
	style="font-family:Times;font-weight:normal;font-style:normal;font-size:10pt">1.6</text>
<path d="M40.987,89.781L50.987,89.781" style="fill:none;stroke:#000000;stroke-width:0.625" />
<path d="M40.987,299.35L50.987,299.35" style="fill:none;stroke:#000000;stroke-width:0.625" />
<path d="M40.987,508.92L50.987,508.92" style="fill:none;stroke:#000000;stroke-width:0.625" />
<path d="M40.987,718.49L50.987,718.49" style="fill:none;stroke:#000000;stroke-width:0.625" />
<path d="M45.987,89.781L50.987,89.781" style="fill:none;stroke:#000000;stroke-width:0.625" />
<path d="M45.987,194.57L50.987,194.57" style="fill:none;stroke:#000000;stroke-width:0.625" />
<path d="M45.987,299.35L50.987,299.35" style="fill:none;stroke:#000000;stroke-width:0.625" />
<path d="M45.987,404.13L50.987,404.13" style="fill:none;stroke:#000000;stroke-width:0.625" />
<path d="M45.987,508.92L50.987,508.92" style="fill:none;stroke:#000000;stroke-width:0.625" />
<path d="M45.987,613.7L50.987,613.7" style="fill:none;stroke:#000000;stroke-width:0.625" />
<path d="M50.987,49.313L50.987,806.88" style="fill:none;stroke:#000000;stroke-width:0.625" />
<path d="M61.3,491.31L68.212,400.97L75.125,458.81L82.037,405.37L88.95,644.19L95.862,552.79L102.77,518.09L109.69,713.36L116.6,609.43L123.51,521.26L130.42,553.9L137.34,572.25L144.25,732.01L151.16,619.78L158.07,586.13L164.99,626.37L171.9,806.88L178.81,746.21L185.72,667.48L192.64,700.83L199.55,596.01L206.46,685.59L213.37,710.18L220.29,566.54L227.2,587.55L234.11,638.22L241.02,696.69L247.94,672.2L254.85,444.71L261.76,435.01L268.67,560.42L275.59,578.7L282.5,393.99L289.41,441.17L296.32,311.77L303.24,464.4L310.15,418.35L317.06,273.86L323.97,370.41L330.89,409.07L337.8,318.82L344.71,156.52L351.62,376.32L358.53,355.29L365.45,204.91L372.36,84.436L379.27,207.75L386.18,235.55L393.1,209.53L400.01,121.64L406.92,246.12L413.83,108.97L420.75,70.59L427.66,260.34L434.57,50.403L441.48,264.18L448.4,141.59L455.31,309.14L462.22,222.08L469.13,326.8L476.05,132.62L482.96,207.1L489.87,228.45L496.78,270.55L503.7,447.59L510.61,464.53L517.52,250.26L524.43,281.12L531.35,422.23L538.26,361.05L545.17,511.42L552.08,529.96L559,533.33L565.91,499.32L572.82,553.9L579.73,599.91L586.65,669.95L593.56,573.7L600.47,602.28L607.38,701.42L614.29,662.24L621.21,749.59L628.12,763.24L635.03,754.09L641.94,704.53L648.86,805.42L655.77,577.11L662.68,603.09L669.59,612.06L676.51,620.45L683.42,728.16L690.33,768.22L697.24,670.63L704.16,763.64L711.07,640.62L717.98,589.73L724.89,561.08L731.81,679L738.72,561.75L745.63,620.59L752.54,491.1L759.46,400.59L766.37,477.45L773.28,499.41L780.19,518.13L787.11,439.22L794.02,358.61L800.93,427.21L807.84,297.87L814.76,226.05L821.67,199.13L828.58,308.05L835.49,152.18L842.41,200L849.32,154.41L856.23,109.38L863.14,225.51L870.06,255.83L876.97,49.313L883.88,74.333L890.79,268.79L897.7,259.05L904.62,270.38L911.53,220.46L918.44,107.1L925.35,276.51L932.27,170.01L939.18,285.77L946.09,350.38L953,206.07L959.92,150.96L966.83,259.64L973.74,381.89L980.65,343.13L987.57,284.57L994.48,414.41L1001.4,476.7L1008.3,424.82L1015.2,462.64L1022.1,433.41L1029,365.13L1036,427.16L1042.9,476.63L1049.8,618.54L1056.7,483.39L1063.6,646.7L1070.5,623.71L1077.4,609.78L1084.3,552.92L1091.3,769.89L1098.2,667.9L1105.1,716.64L1112,615.42L1118.9,623.41L1125.8,753.1L1132.7,725.46L1139.6,771.7L1146.6,676.96L1153.5,570.54L1160.4,745.72L1167.3,618.83L1174.2,569.95L1181.1,681.77L1188,538.79L1194.9,597.95L1201.9,520.39L1208.8,451.96L1215.7,491.58L1222.6,512.81L1229.5,567.22L1236.4,400.67L1243.3,482.11L1250.2,387.42L1257.2,537.94L1264.1,459.6L1271,454.05L1277.9,455.15L1284.8,357.73L1291.7,418.71L1298.6,160.7L1305.5,374.81L1312.5,178.58L1319.4,143.39L1326.3,292.22L1333.2,231.97L1340.1,98.353L1347,110.58L1353.9,197.25L1360.8,54.651L1367.8,106.12L1374.7,214.25L1381.6,284.55L1388.5,225.01L1395.4,286.17L1402.3,160.23L1409.2,119.63L1416.1,112.11L1423.1,139.55L1430,127.53L1436.9,291.03" style="fill:none;stroke:#F15A60;stroke-width:1.25" />
<path d="M64.425,491.31A3.125,3.125 0 1 1 58.175,491.31A3.125,3.125 0 1 1 64.425,491.31Z" style="fill:none;stroke:#F15A60;stroke-width:0.625" />
<path d="M71.337,400.97A3.125,3.125 0 1 1 65.087,400.97A3.125,3.125 0 1 1 71.337,400.97Z" style="fill:none;stroke:#F15A60;stroke-width:0.625" />
<path d="M78.25,458.81A3.125,3.125 0 1 1 72,458.81A3.125,3.125 0 1 1 78.25,458.81Z" style="fill:none;stroke:#F15A60;stroke-width:0.625" />
<path d="M85.162,405.37A3.125,3.125 0 1 1 78.912,405.37A3.125,3.125 0 1 1 85.162,405.37Z" style="fill:none;stroke:#F15A60;stroke-width:0.625" />
<path d="M92.075,644.19A3.125,3.125 0 1 1 85.825,644.19A3.125,3.125 0 1 1 92.075,644.19Z" style="fill:none;stroke:#F15A60;stroke-width:0.625" />
<path d="M98.987,552.79L98.987,552.79A3.125,3.125 0 1 1 92.737,552.79A3.125,3.125 0 1 1 98.987,552.79Z" style="fill:none;stroke:#F15A60;stroke-width:0.625" />
<path d="M105.9,518.09L105.9,518.09A3.125,3.125 0 1 1 99.65,518.09A3.125,3.125 0 1 1 105.9,518.09Z" style="fill:none;stroke:#F15A60;stroke-width:0.625" />
<path d="M112.81,713.36L112.81,713.36A3.125,3.125 0 1 1 106.56,713.36A3.125,3.125 0 1 1 112.81,713.36Z" style="fill:none;stroke:#F15A60;stroke-width:0.625" />
<path d="M119.72,609.43L119.72,609.43A3.125,3.125 0 1 1 113.47,609.43A3.125,3.125 0 1 1 119.72,609.43Z" style="fill:none;stroke:#F15A60;stroke-width:0.625" />
<path d="M126.64,521.26L126.64,521.26A3.125,3.125 0 1 1 120.39,521.26A3.125,3.125 0 1 1 126.64,521.26Z" style="fill:none;stroke:#F15A60;stroke-width:0.625" />
<path d="M133.55,553.9L133.55,553.9A3.125,3.125 0 1 1 127.3,553.9A3.125,3.125 0 1 1 133.55,553.9Z" style="fill:none;stroke:#F15A60;stroke-width:0.625" />
<path d="M140.46,572.25A3.125,3.125 0 1 1 134.21,572.25A3.125,3.125 0 1 1 140.46,572.25Z" style="fill:none;stroke:#F15A60;stroke-width:0.625" />
<path d="M147.37,732.01A3.125,3.125 0 1 1 141.12,732.01A3.125,3.125 0 1 1 147.37,732.01Z" style="fill:none;stroke:#F15A60;stroke-width:0.625" />
<path d="M154.29,619.78A3.125,3.125 0 1 1 148.04,619.78A3.125,3.125 0 1 1 154.29,619.78Z" style="fill:none;stroke:#F15A60;stroke-width:0.625" />
<path d="M161.2,586.13L161.2,586.13A3.125,3.125 0 1 1 154.95,586.13A3.125,3.125 0 1 1 161.2,586.13Z" style="fill:none;stroke:#F15A60;stroke-width:0.625" />
<path d="M168.11,626.37A3.125,3.125 0 1 1 161.86,626.37A3.125,3.125 0 1 1 168.11,626.37Z" style="fill:none;stroke:#F15A60;stroke-width:0.625" />
<path d="M175.02,806.88L175.02,806.88A3.125,3.125 0 1 1 168.77,806.88A3.125,3.125 0 1 1 175.02,806.88Z" style="fill:none;stroke:#F15A60;stroke-width:0.625" />
<path d="M181.94,746.21A3.125,3.125 0 1 1 175.69,746.21A3.125,3.125 0 1 1 181.94,746.21Z" style="fill:none;stroke:#F15A60;stroke-width:0.625" />
<path d="M188.85,667.48A3.125,3.125 0 1 1 182.6,667.48A3.125,3.125 0 1 1 188.85,667.48Z" style="fill:none;stroke:#F15A60;stroke-width:0.625" />
<path d="M195.76,700.83L195.76,700.83A3.125,3.125 0 1 1 189.51,700.83A3.125,3.125 0 1 1 195.76,700.83Z" style="fill:none;stroke:#F15A60;stroke-width:0.625" />
<path d="M202.67,596.01A3.125,3.125 0 1 1 196.42,596.01A3.125,3.125 0 1 1 202.67,596.01Z" style="fill:none;stroke:#F15A60;stroke-width:0.625" />
<path d="M209.59,685.59A3.125,3.125 0 1 1 203.34,685.59A3.125,3.125 0 1 1 209.59,685.59Z" style="fill:none;stroke:#F15A60;stroke-width:0.625" />
<path d="M216.5,710.18A3.125,3.125 0 1 1 210.25,710.18A3.125,3.125 0 1 1 216.5,710.18Z" style="fill:none;stroke:#F15A60;stroke-width:0.625" />
<path d="M223.41,566.54L223.41,566.54A3.125,3.125 0 1 1 217.16,566.54A3.125,3.125 0 1 1 223.41,566.54Z" style="fill:none;stroke:#F15A60;stroke-width:0.625" />
<path d="M230.32,587.55L230.32,587.55A3.125,3.125 0 1 1 224.07,587.55A3.125,3.125 0 1 1 230.32,587.55Z" style="fill:none;stroke:#F15A60;stroke-width:0.625" />
<path d="M237.24,638.22A3.125,3.125 0 1 1 230.99,638.22A3.125,3.125 0 1 1 237.24,638.22Z" style="fill:none;stroke:#F15A60;stroke-width:0.625" />
<path d="M244.15,696.69L244.15,696.69A3.125,3.125 0 1 1 237.9,696.69A3.125,3.125 0 1 1 244.15,696.69Z" style="fill:none;stroke:#F15A60;stroke-width:0.625" />
<path d="M251.06,672.2A3.125,3.125 0 1 1 244.81,672.2A3.125,3.125 0 1 1 251.06,672.2Z" style="fill:none;stroke:#F15A60;stroke-width:0.625" />
<path d="M257.97,444.71A3.125,3.125 0 1 1 251.72,444.71A3.125,3.125 0 1 1 257.97,444.71Z" style="fill:none;stroke:#F15A60;stroke-width:0.625" />
<path d="M264.89,435.01A3.125,3.125 0 1 1 258.64,435.01A3.125,3.125 0 1 1 264.89,435.01Z" style="fill:none;stroke:#F15A60;stroke-width:0.625" />
<path d="M271.8,560.42A3.125,3.125 0 1 1 265.55,560.42A3.125,3.125 0 1 1 271.8,560.42Z" style="fill:none;stroke:#F15A60;stroke-width:0.625" />
<path d="M278.71,578.7A3.125,3.125 0 1 1 272.46,578.7A3.125,3.125 0 1 1 278.71,578.7Z" style="fill:none;stroke:#F15A60;stroke-width:0.625" />
<path d="M285.62,393.99L285.62,393.99A3.125,3.125 0 1 1 279.37,393.99A3.125,3.125 0 1 1 285.62,393.99Z" style="fill:none;stroke:#F15A60;stroke-width:0.625" />
<path d="M292.54,441.17A3.125,3.125 0 1 1 286.29,441.17A3.125,3.125 0 1 1 292.54,441.17Z" style="fill:none;stroke:#F15A60;stroke-width:0.625" />
<path d="M299.45,311.77A3.125,3.125 0 1 1 293.2,311.77A3.125,3.125 0 1 1 299.45,311.77Z" style="fill:none;stroke:#F15A60;stroke-width:0.625" />
<path d="M306.36,464.4A3.125,3.125 0 1 1 300.11,464.4A3.125,3.125 0 1 1 306.36,464.4Z" style="fill:none;stroke:#F15A60;stroke-width:0.625" />
<path d="M313.27,418.35A3.125,3.125 0 1 1 307.02,418.35A3.125,3.125 0 1 1 313.27,418.35Z" style="fill:none;stroke:#F15A60;stroke-width:0.625" />
<path d="M320.19,273.86A3.125,3.125 0 1 1 313.94,273.86A3.125,3.125 0 1 1 320.19,273.86Z" style="fill:none;stroke:#F15A60;stroke-width:0.625" />
<path d="M327.1,370.41L327.1,370.41A3.125,3.125 0 1 1 320.85,370.41A3.125,3.125 0 1 1 327.1,370.41Z" style="fill:none;stroke:#F15A60;stroke-width:0.625" />
<path d="M334.01,409.07L334.01,409.07A3.125,3.125 0 1 1 327.76,409.07A3.125,3.125 0 1 1 334.01,409.07Z" style="fill:none;stroke:#F15A60;stroke-width:0.625" />
<path d="M340.92,318.82A3.125,3.125 0 1 1 334.67,318.82A3.125,3.125 0 1 1 340.92,318.82Z" style="fill:none;stroke:#F15A60;stroke-width:0.625" />
<path d="M347.83,156.52A3.125,3.125 0 1 1 341.58,156.52A3.125,3.125 0 1 1 347.83,156.52Z" style="fill:none;stroke:#F15A60;stroke-width:0.625" />
<path d="M354.75,376.32A3.125,3.125 0 1 1 348.5,376.32A3.125,3.125 0 1 1 354.75,376.32Z" style="fill:none;stroke:#F15A60;stroke-width:0.625" />
<path d="M361.66,355.29L361.66,355.29A3.125,3.125 0 1 1 355.41,355.29A3.125,3.125 0 1 1 361.66,355.29Z" style="fill:none;stroke:#F15A60;stroke-width:0.625" />
<path d="M368.57,204.91A3.125,3.125 0 1 1 362.32,204.91A3.125,3.125 0 1 1 368.57,204.91Z" style="fill:none;stroke:#F15A60;stroke-width:0.625" />
<path d="M375.48,84.436A3.125,3.125 0 1 1 369.23,84.436A3.125,3.125 0 1 1 375.48,84.436Z" style="fill:none;stroke:#F15A60;stroke-width:0.625" />
<path d="M382.4,207.75A3.125,3.125 0 1 1 376.15,207.75A3.125,3.125 0 1 1 382.4,207.75Z" style="fill:none;stroke:#F15A60;stroke-width:0.625" />
<path d="M389.31,235.55A3.125,3.125 0 1 1 383.06,235.55A3.125,3.125 0 1 1 389.31,235.55Z" style="fill:none;stroke:#F15A60;stroke-width:0.625" />
<path d="M396.22,209.53L396.22,209.53A3.125,3.125 0 1 1 389.97,209.53A3.125,3.125 0 1 1 396.22,209.53Z" style="fill:none;stroke:#F15A60;stroke-width:0.625" />
<path d="M403.13,121.64L403.13,121.64A3.125,3.125 0 1 1 396.88,121.64A3.125,3.125 0 1 1 403.13,121.64Z" style="fill:none;stroke:#F15A60;stroke-width:0.625" />
<path d="M410.05,246.12A3.125,3.125 0 1 1 403.8,246.12A3.125,3.125 0 1 1 410.05,246.12Z" style="fill:none;stroke:#F15A60;stroke-width:0.625" />
<path d="M416.96,108.97A3.125,3.125 0 1 1 410.71,108.97A3.125,3.125 0 1 1 416.96,108.97Z" style="fill:none;stroke:#F15A60;stroke-width:0.625" />
<path d="M423.87,70.59L423.87,70.59A3.125,3.125 0 1 1 417.62,70.59A3.125,3.125 0 1 1 423.87,70.59Z" style="fill:none;stroke:#F15A60;stroke-width:0.625" />
<path d="M430.78,260.34A3.125,3.125 0 1 1 424.53,260.34A3.125,3.125 0 1 1 430.78,260.34Z" style="fill:none;stroke:#F15A60;stroke-width:0.625" />
<path d="M437.7,50.403A3.125,3.125 0 1 1 431.45,50.403A3.125,3.125 0 1 1 437.7,50.403Z" style="fill:none;stroke:#F15A60;stroke-width:0.625" />
<path d="M444.61,264.18A3.125,3.125 0 1 1 438.36,264.18A3.125,3.125 0 1 1 444.61,264.18Z" style="fill:none;stroke:#F15A60;stroke-width:0.625" />
<path d="M451.52,141.59A3.125,3.125 0 1 1 445.27,141.59A3.125,3.125 0 1 1 451.52,141.59Z" style="fill:none;stroke:#F15A60;stroke-width:0.625" />
<path d="M458.43,309.14A3.125,3.125 0 1 1 452.18,309.14A3.125,3.125 0 1 1 458.43,309.14Z" style="fill:none;stroke:#F15A60;stroke-width:0.625" />
<path d="M465.35,222.08A3.125,3.125 0 1 1 459.1,222.08A3.125,3.125 0 1 1 465.35,222.08Z" style="fill:none;stroke:#F15A60;stroke-width:0.625" />
<path d="M472.26,326.8A3.125,3.125 0 1 1 466.01,326.8A3.125,3.125 0 1 1 472.26,326.8Z" style="fill:none;stroke:#F15A60;stroke-width:0.625" />
<path d="M479.17,132.62A3.125,3.125 0 1 1 472.92,132.62A3.125,3.125 0 1 1 479.17,132.62Z" style="fill:none;stroke:#F15A60;stroke-width:0.625" />
<path d="M486.08,207.1L486.08,207.1A3.125,3.125 0 1 1 479.83,207.1A3.125,3.125 0 1 1 486.08,207.1Z" style="fill:none;stroke:#F15A60;stroke-width:0.625" />
<path d="M493,228.45L493,228.45A3.125,3.125 0 1 1 486.75,228.45A3.125,3.125 0 1 1 493,228.45Z" style="fill:none;stroke:#F15A60;stroke-width:0.625" />
<path d="M499.91,270.55A3.125,3.125 0 1 1 493.66,270.55A3.125,3.125 0 1 1 499.91,270.55Z" style="fill:none;stroke:#F15A60;stroke-width:0.625" />
<path d="M506.82,447.59A3.125,3.125 0 1 1 500.57,447.59A3.125,3.125 0 1 1 506.82,447.59Z" style="fill:none;stroke:#F15A60;stroke-width:0.625" />
<path d="M513.73,464.53A3.125,3.125 0 1 1 507.48,464.53A3.125,3.125 0 1 1 513.73,464.53Z" style="fill:none;stroke:#F15A60;stroke-width:0.625" />
<path d="M520.65,250.26A3.125,3.125 0 1 1 514.4,250.26A3.125,3.125 0 1 1 520.65,250.26Z" style="fill:none;stroke:#F15A60;stroke-width:0.625" />
<path d="M527.56,281.12A3.125,3.125 0 1 1 521.31,281.12A3.125,3.125 0 1 1 527.56,281.12Z" style="fill:none;stroke:#F15A60;stroke-width:0.625" />
<path d="M534.47,422.23A3.125,3.125 0 1 1 528.22,422.23A3.125,3.125 0 1 1 534.47,422.23Z" style="fill:none;stroke:#F15A60;stroke-width:0.625" />
<path d="M541.38,361.05A3.125,3.125 0 1 1 535.13,361.05A3.125,3.125 0 1 1 541.38,361.05Z" style="fill:none;stroke:#F15A60;stroke-width:0.625" />
<path d="M548.3,511.42A3.125,3.125 0 1 1 542.05,511.42A3.125,3.125 0 1 1 548.3,511.42Z" style="fill:none;stroke:#F15A60;stroke-width:0.625" />
<path d="M555.21,529.96A3.125,3.125 0 1 1 548.96,529.96A3.125,3.125 0 1 1 555.21,529.96Z" style="fill:none;stroke:#F15A60;stroke-width:0.625" />
<path d="M562.12,533.33A3.125,3.125 0 1 1 555.87,533.33A3.125,3.125 0 1 1 562.12,533.33Z" style="fill:none;stroke:#F15A60;stroke-width:0.625" />
<path d="M569.03,499.32A3.125,3.125 0 1 1 562.78,499.32A3.125,3.125 0 1 1 569.03,499.32Z" style="fill:none;stroke:#F15A60;stroke-width:0.625" />
<path d="M575.95,553.9A3.125,3.125 0 1 1 569.7,553.9A3.125,3.125 0 1 1 575.95,553.9Z" style="fill:none;stroke:#F15A60;stroke-width:0.625" />
<path d="M582.86,599.91A3.125,3.125 0 1 1 576.61,599.91A3.125,3.125 0 1 1 582.86,599.91Z" style="fill:none;stroke:#F15A60;stroke-width:0.625" />
<path d="M589.77,669.95A3.125,3.125 0 1 1 583.52,669.95A3.125,3.125 0 1 1 589.77,669.95Z" style="fill:none;stroke:#F15A60;stroke-width:0.625" />
<path d="M596.68,573.7A3.125,3.125 0 1 1 590.43,573.7A3.125,3.125 0 1 1 596.68,573.7Z" style="fill:none;stroke:#F15A60;stroke-width:0.625" />
<path d="M603.6,602.28A3.125,3.125 0 1 1 597.35,602.28A3.125,3.125 0 1 1 603.6,602.28Z" style="fill:none;stroke:#F15A60;stroke-width:0.625" />
<path d="M610.51,701.42L610.51,701.42A3.125,3.125 0 1 1 604.26,701.42A3.125,3.125 0 1 1 610.51,701.42Z" style="fill:none;stroke:#F15A60;stroke-width:0.625" />
<path d="M617.42,662.24A3.125,3.125 0 1 1 611.17,662.24A3.125,3.125 0 1 1 617.42,662.24Z" style="fill:none;stroke:#F15A60;stroke-width:0.625" />
<path d="M624.33,749.59A3.125,3.125 0 1 1 618.08,749.59A3.125,3.125 0 1 1 624.33,749.59Z" style="fill:none;stroke:#F15A60;stroke-width:0.625" />
<path d="M631.24,763.24A3.125,3.125 0 1 1 624.99,763.24A3.125,3.125 0 1 1 631.24,763.24Z" style="fill:none;stroke:#F15A60;stroke-width:0.625" />
<path d="M638.16,754.09A3.125,3.125 0 1 1 631.91,754.09A3.125,3.125 0 1 1 638.16,754.09Z" style="fill:none;stroke:#F15A60;stroke-width:0.625" />
<path d="M645.07,704.53A3.125,3.125 0 1 1 638.82,704.53A3.125,3.125 0 1 1 645.07,704.53Z" style="fill:none;stroke:#F15A60;stroke-width:0.625" />
<path d="M651.98,805.42A3.125,3.125 0 1 1 645.73,805.42A3.125,3.125 0 1 1 651.98,805.42Z" style="fill:none;stroke:#F15A60;stroke-width:0.625" />
<path d="M658.89,577.11A3.125,3.125 0 1 1 652.64,577.11A3.125,3.125 0 1 1 658.89,577.11Z" style="fill:none;stroke:#F15A60;stroke-width:0.625" />
<path d="M665.81,603.09A3.125,3.125 0 1 1 659.56,603.09A3.125,3.125 0 1 1 665.81,603.09Z" style="fill:none;stroke:#F15A60;stroke-width:0.625" />
<path d="M672.72,612.06L672.72,612.06A3.125,3.125 0 1 1 666.47,612.06A3.125,3.125 0 1 1 672.72,612.06Z" style="fill:none;stroke:#F15A60;stroke-width:0.625" />
<path d="M679.63,620.45L679.63,620.45A3.125,3.125 0 1 1 673.38,620.45A3.125,3.125 0 1 1 679.63,620.45Z" style="fill:none;stroke:#F15A60;stroke-width:0.625" />
<path d="M686.54,728.16A3.125,3.125 0 1 1 680.29,728.16A3.125,3.125 0 1 1 686.54,728.16Z" style="fill:none;stroke:#F15A60;stroke-width:0.625" />
<path d="M693.46,768.22A3.125,3.125 0 1 1 687.21,768.22A3.125,3.125 0 1 1 693.46,768.22Z" style="fill:none;stroke:#F15A60;stroke-width:0.625" />
<path d="M700.37,670.63A3.125,3.125 0 1 1 694.12,670.63A3.125,3.125 0 1 1 700.37,670.63Z" style="fill:none;stroke:#F15A60;stroke-width:0.625" />
<path d="M707.28,763.64A3.125,3.125 0 1 1 701.03,763.64A3.125,3.125 0 1 1 707.28,763.64Z" style="fill:none;stroke:#F15A60;stroke-width:0.625" />
<path d="M714.19,640.62A3.125,3.125 0 1 1 707.94,640.62A3.125,3.125 0 1 1 714.19,640.62Z" style="fill:none;stroke:#F15A60;stroke-width:0.625" />
<path d="M721.11,589.73A3.125,3.125 0 1 1 714.86,589.73A3.125,3.125 0 1 1 721.11,589.73Z" style="fill:none;stroke:#F15A60;stroke-width:0.625" />
<path d="M728.02,561.08L728.02,561.08A3.125,3.125 0 1 1 721.77,561.08A3.125,3.125 0 1 1 728.02,561.08Z" style="fill:none;stroke:#F15A60;stroke-width:0.625" />
<path d="M734.93,679L734.93,679A3.125,3.125 0 1 1 728.68,679A3.125,3.125 0 1 1 734.93,679Z" style="fill:none;stroke:#F15A60;stroke-width:0.625" />
<path d="M741.84,561.75A3.125,3.125 0 1 1 735.59,561.75A3.125,3.125 0 1 1 741.84,561.75Z" style="fill:none;stroke:#F15A60;stroke-width:0.625" />
<path d="M748.76,620.59L748.76,620.59A3.125,3.125 0 1 1 742.51,620.59A3.125,3.125 0 1 1 748.76,620.59Z" style="fill:none;stroke:#F15A60;stroke-width:0.625" />
<path d="M755.67,491.1L755.67,491.1A3.125,3.125 0 1 1 749.42,491.1A3.125,3.125 0 1 1 755.67,491.1Z" style="fill:none;stroke:#F15A60;stroke-width:0.625" />
<path d="M762.58,400.59L762.58,400.59A3.125,3.125 0 1 1 756.33,400.59A3.125,3.125 0 1 1 762.58,400.59Z" style="fill:none;stroke:#F15A60;stroke-width:0.625" />
<path d="M769.49,477.45A3.125,3.125 0 1 1 763.24,477.45A3.125,3.125 0 1 1 769.49,477.45Z" style="fill:none;stroke:#F15A60;stroke-width:0.625" />
<path d="M776.41,499.41L776.41,499.41A3.125,3.125 0 1 1 770.16,499.41A3.125,3.125 0 1 1 776.41,499.41Z" style="fill:none;stroke:#F15A60;stroke-width:0.625" />
<path d="M783.32,518.13A3.125,3.125 0 1 1 777.07,518.13A3.125,3.125 0 1 1 783.32,518.13Z" style="fill:none;stroke:#F15A60;stroke-width:0.625" />
<path d="M790.23,439.22L790.23,439.22A3.125,3.125 0 1 1 783.98,439.22A3.125,3.125 0 1 1 790.23,439.22Z" style="fill:none;stroke:#F15A60;stroke-width:0.625" />
<path d="M797.14,358.61A3.125,3.125 0 1 1 790.89,358.61A3.125,3.125 0 1 1 797.14,358.61Z" style="fill:none;stroke:#F15A60;stroke-width:0.625" />
<path d="M804.06,427.21L804.06,427.21A3.125,3.125 0 1 1 797.81,427.21A3.125,3.125 0 1 1 804.06,427.21Z" style="fill:none;stroke:#F15A60;stroke-width:0.625" />
<path d="M810.97,297.87A3.125,3.125 0 1 1 804.72,297.87A3.125,3.125 0 1 1 810.97,297.87Z" style="fill:none;stroke:#F15A60;stroke-width:0.625" />
<path d="M817.88,226.05L817.88,226.05A3.125,3.125 0 1 1 811.63,226.05A3.125,3.125 0 1 1 817.88,226.05Z" style="fill:none;stroke:#F15A60;stroke-width:0.625" />
<path d="M824.79,199.13L824.79,199.13A3.125,3.125 0 1 1 818.54,199.13A3.125,3.125 0 1 1 824.79,199.13Z" style="fill:none;stroke:#F15A60;stroke-width:0.625" />
<path d="M831.71,308.05A3.125,3.125 0 1 1 825.46,308.05A3.125,3.125 0 1 1 831.71,308.05Z" style="fill:none;stroke:#F15A60;stroke-width:0.625" />
<path d="M838.62,152.18A3.125,3.125 0 1 1 832.37,152.18A3.125,3.125 0 1 1 838.62,152.18Z" style="fill:none;stroke:#F15A60;stroke-width:0.625" />
<path d="M845.53,200L845.53,200A3.125,3.125 0 1 1 839.28,200A3.125,3.125 0 1 1 845.53,200Z" style="fill:none;stroke:#F15A60;stroke-width:0.625" />
<path d="M852.44,154.41A3.125,3.125 0 1 1 846.19,154.41A3.125,3.125 0 1 1 852.44,154.41Z" style="fill:none;stroke:#F15A60;stroke-width:0.625" />
<path d="M859.36,109.38L859.36,109.38A3.125,3.125 0 1 1 853.11,109.38A3.125,3.125 0 1 1 859.36,109.38Z" style="fill:none;stroke:#F15A60;stroke-width:0.625" />
<path d="M866.27,225.51L866.27,225.51A3.125,3.125 0 1 1 860.02,225.51A3.125,3.125 0 1 1 866.27,225.51Z" style="fill:none;stroke:#F15A60;stroke-width:0.625" />
<path d="M873.18,255.83A3.125,3.125 0 1 1 866.93,255.83A3.125,3.125 0 1 1 873.18,255.83Z" style="fill:none;stroke:#F15A60;stroke-width:0.625" />
<path d="M880.09,49.313L880.09,49.313A3.125,3.125 0 1 1 873.84,49.313A3.125,3.125 0 1 1 880.09,49.313Z" style="fill:none;stroke:#F15A60;stroke-width:0.625" />
<path d="M887.01,74.333L887.01,74.333A3.125,3.125 0 1 1 880.76,74.333A3.125,3.125 0 1 1 887.01,74.333Z" style="fill:none;stroke:#F15A60;stroke-width:0.625" />
<path d="M893.92,268.79L893.92,268.79A3.125,3.125 0 1 1 887.67,268.79A3.125,3.125 0 1 1 893.92,268.79Z" style="fill:none;stroke:#F15A60;stroke-width:0.625" />
<path d="M900.83,259.05A3.125,3.125 0 1 1 894.58,259.05A3.125,3.125 0 1 1 900.83,259.05Z" style="fill:none;stroke:#F15A60;stroke-width:0.625" />
<path d="M907.74,270.38A3.125,3.125 0 1 1 901.49,270.38A3.125,3.125 0 1 1 907.74,270.38Z" style="fill:none;stroke:#F15A60;stroke-width:0.625" />
<path d="M914.65,220.46L914.65,220.46A3.125,3.125 0 1 1 908.4,220.46A3.125,3.125 0 1 1 914.65,220.46Z" style="fill:none;stroke:#F15A60;stroke-width:0.625" />
<path d="M921.57,107.1L921.57,107.1A3.125,3.125 0 1 1 915.32,107.1A3.125,3.125 0 1 1 921.57,107.1Z" style="fill:none;stroke:#F15A60;stroke-width:0.625" />
<path d="M928.48,276.51L928.48,276.51A3.125,3.125 0 1 1 922.23,276.51A3.125,3.125 0 1 1 928.48,276.51Z" style="fill:none;stroke:#F15A60;stroke-width:0.625" />
<path d="M935.39,170.01L935.39,170.01A3.125,3.125 0 1 1 929.14,170.01A3.125,3.125 0 1 1 935.39,170.01Z" style="fill:none;stroke:#F15A60;stroke-width:0.625" />
<path d="M942.3,285.77A3.125,3.125 0 1 1 936.05,285.77A3.125,3.125 0 1 1 942.3,285.77Z" style="fill:none;stroke:#F15A60;stroke-width:0.625" />
<path d="M949.22,350.38L949.22,350.38A3.125,3.125 0 1 1 942.97,350.38A3.125,3.125 0 1 1 949.22,350.38Z" style="fill:none;stroke:#F15A60;stroke-width:0.625" />
<path d="M956.13,206.07L956.13,206.07A3.125,3.125 0 1 1 949.88,206.07A3.125,3.125 0 1 1 956.13,206.07Z" style="fill:none;stroke:#F15A60;stroke-width:0.625" />
<path d="M963.04,150.96L963.04,150.96A3.125,3.125 0 1 1 956.79,150.96A3.125,3.125 0 1 1 963.04,150.96Z" style="fill:none;stroke:#F15A60;stroke-width:0.625" />
<path d="M969.95,259.64A3.125,3.125 0 1 1 963.7,259.64A3.125,3.125 0 1 1 969.95,259.64Z" style="fill:none;stroke:#F15A60;stroke-width:0.625" />
<path d="M976.87,381.89L976.87,381.89A3.125,3.125 0 1 1 970.62,381.89A3.125,3.125 0 1 1 976.87,381.89Z" style="fill:none;stroke:#F15A60;stroke-width:0.625" />
<path d="M983.78,343.13L983.78,343.13A3.125,3.125 0 1 1 977.53,343.13A3.125,3.125 0 1 1 983.78,343.13Z" style="fill:none;stroke:#F15A60;stroke-width:0.625" />
<path d="M990.69,284.57L990.69,284.57A3.125,3.125 0 1 1 984.44,284.57A3.125,3.125 0 1 1 990.69,284.57Z" style="fill:none;stroke:#F15A60;stroke-width:0.625" />
<path d="M997.6,414.41L997.6,414.41A3.125,3.125 0 1 1 991.35,414.41A3.125,3.125 0 1 1 997.6,414.41Z" style="fill:none;stroke:#F15A60;stroke-width:0.625" />
<path d="M1004.5,476.7L1004.5,476.7A3.125,3.125 0 1 1 998.27,476.7A3.125,3.125 0 1 1 1004.5,476.7Z" style="fill:none;stroke:#F15A60;stroke-width:0.625" />
<path d="M1011.4,424.82L1011.4,424.82A3.125,3.125 0 1 1 1005.2,424.82A3.125,3.125 0 1 1 1011.4,424.82Z" style="fill:none;stroke:#F15A60;stroke-width:0.625" />
<path d="M1018.3,462.64L1018.3,462.64A3.125,3.125 0 1 1 1012.1,462.64A3.125,3.125 0 1 1 1018.3,462.64Z" style="fill:none;stroke:#F15A60;stroke-width:0.625" />
<path d="M1025.3,433.41A3.125,3.125 0 1 1 1019,433.41A3.125,3.125 0 1 1 1025.3,433.41Z" style="fill:none;stroke:#F15A60;stroke-width:0.625" />
<path d="M1032.2,365.13L1032.2,365.13A3.125,3.125 0 1 1 1025.9,365.13A3.125,3.125 0 1 1 1032.2,365.13Z" style="fill:none;stroke:#F15A60;stroke-width:0.625" />
<path d="M1039.1,427.16A3.125,3.125 0 1 1 1032.8,427.16A3.125,3.125 0 1 1 1039.1,427.16Z" style="fill:none;stroke:#F15A60;stroke-width:0.625" />
<path d="M1046,476.63A3.125,3.125 0 1 1 1039.7,476.63A3.125,3.125 0 1 1 1046,476.63Z" style="fill:none;stroke:#F15A60;stroke-width:0.625" />
<path d="M1052.9,618.54L1052.9,618.54A3.125,3.125 0 1 1 1046.7,618.54A3.125,3.125 0 1 1 1052.9,618.54Z" style="fill:none;stroke:#F15A60;stroke-width:0.625" />
<path d="M1059.8,483.39A3.125,3.125 0 1 1 1053.6,483.39A3.125,3.125 0 1 1 1059.8,483.39Z" style="fill:none;stroke:#F15A60;stroke-width:0.625" />
<path d="M1066.7,646.7L1066.7,646.7A3.125,3.125 0 1 1 1060.5,646.7A3.125,3.125 0 1 1 1066.7,646.7Z" style="fill:none;stroke:#F15A60;stroke-width:0.625" />
<path d="M1073.6,623.71A3.125,3.125 0 1 1 1067.4,623.71A3.125,3.125 0 1 1 1073.6,623.71Z" style="fill:none;stroke:#F15A60;stroke-width:0.625" />
<path d="M1080.6,609.78A3.125,3.125 0 1 1 1074.3,609.78A3.125,3.125 0 1 1 1080.6,609.78Z" style="fill:none;stroke:#F15A60;stroke-width:0.625" />
<path d="M1087.5,552.92A3.125,3.125 0 1 1 1081.2,552.92A3.125,3.125 0 1 1 1087.5,552.92Z" style="fill:none;stroke:#F15A60;stroke-width:0.625" />
<path d="M1094.4,769.89A3.125,3.125 0 1 1 1088.1,769.89A3.125,3.125 0 1 1 1094.4,769.89Z" style="fill:none;stroke:#F15A60;stroke-width:0.625" />
<path d="M1101.3,667.9A3.125,3.125 0 1 1 1095,667.9A3.125,3.125 0 1 1 1101.3,667.9Z" style="fill:none;stroke:#F15A60;stroke-width:0.625" />
<path d="M1108.2,716.64L1108.2,716.64A3.125,3.125 0 1 1 1102,716.64A3.125,3.125 0 1 1 1108.2,716.64Z" style="fill:none;stroke:#F15A60;stroke-width:0.625" />
<path d="M1115.1,615.42A3.125,3.125 0 1 1 1108.9,615.42A3.125,3.125 0 1 1 1115.1,615.42Z" style="fill:none;stroke:#F15A60;stroke-width:0.625" />
<path d="M1122,623.41A3.125,3.125 0 1 1 1115.8,623.41A3.125,3.125 0 1 1 1122,623.41Z" style="fill:none;stroke:#F15A60;stroke-width:0.625" />
<path d="M1128.9,753.1A3.125,3.125 0 1 1 1122.7,753.1A3.125,3.125 0 1 1 1128.9,753.1Z" style="fill:none;stroke:#F15A60;stroke-width:0.625" />
<path d="M1135.9,725.46L1135.9,725.46A3.125,3.125 0 1 1 1129.6,725.46A3.125,3.125 0 1 1 1135.9,725.46Z" style="fill:none;stroke:#F15A60;stroke-width:0.625" />
<path d="M1142.8,771.7A3.125,3.125 0 1 1 1136.5,771.7A3.125,3.125 0 1 1 1142.8,771.7Z" style="fill:none;stroke:#F15A60;stroke-width:0.625" />
<path d="M1149.7,676.96A3.125,3.125 0 1 1 1143.4,676.96A3.125,3.125 0 1 1 1149.7,676.96Z" style="fill:none;stroke:#F15A60;stroke-width:0.625" />
<path d="M1156.6,570.54A3.125,3.125 0 1 1 1150.3,570.54A3.125,3.125 0 1 1 1156.6,570.54Z" style="fill:none;stroke:#F15A60;stroke-width:0.625" />
<path d="M1163.5,745.72L1163.5,745.72A3.125,3.125 0 1 1 1157.3,745.72A3.125,3.125 0 1 1 1163.5,745.72Z" style="fill:none;stroke:#F15A60;stroke-width:0.625" />
<path d="M1170.4,618.83A3.125,3.125 0 1 1 1164.2,618.83A3.125,3.125 0 1 1 1170.4,618.83Z" style="fill:none;stroke:#F15A60;stroke-width:0.625" />
<path d="M1177.3,569.95A3.125,3.125 0 1 1 1171.1,569.95A3.125,3.125 0 1 1 1177.3,569.95Z" style="fill:none;stroke:#F15A60;stroke-width:0.625" />
<path d="M1184.2,681.77L1184.2,681.77A3.125,3.125 0 1 1 1178,681.77A3.125,3.125 0 1 1 1184.2,681.77Z" style="fill:none;stroke:#F15A60;stroke-width:0.625" />
<path d="M1191.2,538.79L1191.2,538.79A3.125,3.125 0 1 1 1184.9,538.79A3.125,3.125 0 1 1 1191.2,538.79Z" style="fill:none;stroke:#F15A60;stroke-width:0.625" />
<path d="M1198.1,597.95L1198.1,597.95A3.125,3.125 0 1 1 1191.8,597.95A3.125,3.125 0 1 1 1198.1,597.95Z" style="fill:none;stroke:#F15A60;stroke-width:0.625" />
<path d="M1205,520.39A3.125,3.125 0 1 1 1198.7,520.39A3.125,3.125 0 1 1 1205,520.39Z" style="fill:none;stroke:#F15A60;stroke-width:0.625" />
<path d="M1211.9,451.96A3.125,3.125 0 1 1 1205.6,451.96A3.125,3.125 0 1 1 1211.9,451.96Z" style="fill:none;stroke:#F15A60;stroke-width:0.625" />
<path d="M1218.8,491.58A3.125,3.125 0 1 1 1212.6,491.58A3.125,3.125 0 1 1 1218.8,491.58Z" style="fill:none;stroke:#F15A60;stroke-width:0.625" />
<path d="M1225.7,512.81A3.125,3.125 0 1 1 1219.5,512.81A3.125,3.125 0 1 1 1225.7,512.81Z" style="fill:none;stroke:#F15A60;stroke-width:0.625" />
<path d="M1232.6,567.22A3.125,3.125 0 1 1 1226.4,567.22A3.125,3.125 0 1 1 1232.6,567.22Z" style="fill:none;stroke:#F15A60;stroke-width:0.625" />
<path d="M1239.5,400.67A3.125,3.125 0 1 1 1233.3,400.67A3.125,3.125 0 1 1 1239.5,400.67Z" style="fill:none;stroke:#F15A60;stroke-width:0.625" />
<path d="M1246.5,482.11A3.125,3.125 0 1 1 1240.2,482.11A3.125,3.125 0 1 1 1246.5,482.11Z" style="fill:none;stroke:#F15A60;stroke-width:0.625" />
<path d="M1253.4,387.42A3.125,3.125 0 1 1 1247.1,387.42A3.125,3.125 0 1 1 1253.4,387.42Z" style="fill:none;stroke:#F15A60;stroke-width:0.625" />
<path d="M1260.3,537.94L1260.3,537.94A3.125,3.125 0 1 1 1254,537.94A3.125,3.125 0 1 1 1260.3,537.94Z" style="fill:none;stroke:#F15A60;stroke-width:0.625" />
<path d="M1267.2,459.6L1267.2,459.6A3.125,3.125 0 1 1 1260.9,459.6A3.125,3.125 0 1 1 1267.2,459.6Z" style="fill:none;stroke:#F15A60;stroke-width:0.625" />
<path d="M1274.1,454.05L1274.1,454.05A3.125,3.125 0 1 1 1267.9,454.05A3.125,3.125 0 1 1 1274.1,454.05Z" style="fill:none;stroke:#F15A60;stroke-width:0.625" />
<path d="M1281,455.15A3.125,3.125 0 1 1 1274.8,455.15A3.125,3.125 0 1 1 1281,455.15Z" style="fill:none;stroke:#F15A60;stroke-width:0.625" />
<path d="M1287.9,357.73A3.125,3.125 0 1 1 1281.7,357.73A3.125,3.125 0 1 1 1287.9,357.73Z" style="fill:none;stroke:#F15A60;stroke-width:0.625" />
<path d="M1294.8,418.71L1294.8,418.71A3.125,3.125 0 1 1 1288.6,418.71A3.125,3.125 0 1 1 1294.8,418.71Z" style="fill:none;stroke:#F15A60;stroke-width:0.625" />
<path d="M1301.8,160.7A3.125,3.125 0 1 1 1295.5,160.7A3.125,3.125 0 1 1 1301.8,160.7Z" style="fill:none;stroke:#F15A60;stroke-width:0.625" />
<path d="M1308.7,374.81A3.125,3.125 0 1 1 1302.4,374.81A3.125,3.125 0 1 1 1308.7,374.81Z" style="fill:none;stroke:#F15A60;stroke-width:0.625" />
<path d="M1315.6,178.58L1315.6,178.58A3.125,3.125 0 1 1 1309.3,178.58A3.125,3.125 0 1 1 1315.6,178.58Z" style="fill:none;stroke:#F15A60;stroke-width:0.625" />
<path d="M1322.5,143.39L1322.5,143.39A3.125,3.125 0 1 1 1316.2,143.39A3.125,3.125 0 1 1 1322.5,143.39Z" style="fill:none;stroke:#F15A60;stroke-width:0.625" />
<path d="M1329.4,292.22A3.125,3.125 0 1 1 1323.2,292.22A3.125,3.125 0 1 1 1329.4,292.22Z" style="fill:none;stroke:#F15A60;stroke-width:0.625" />
<path d="M1336.3,231.97A3.125,3.125 0 1 1 1330.1,231.97A3.125,3.125 0 1 1 1336.3,231.97Z" style="fill:none;stroke:#F15A60;stroke-width:0.625" />
<path d="M1343.2,98.353L1343.2,98.353A3.125,3.125 0 1 1 1337,98.353A3.125,3.125 0 1 1 1343.2,98.353Z" style="fill:none;stroke:#F15A60;stroke-width:0.625" />
<path d="M1350.1,110.58A3.125,3.125 0 1 1 1343.9,110.58A3.125,3.125 0 1 1 1350.1,110.58Z" style="fill:none;stroke:#F15A60;stroke-width:0.625" />
<path d="M1357.1,197.25A3.125,3.125 0 1 1 1350.8,197.25A3.125,3.125 0 1 1 1357.1,197.25Z" style="fill:none;stroke:#F15A60;stroke-width:0.625" />
<path d="M1364,54.651L1364,54.651A3.125,3.125 0 1 1 1357.7,54.651A3.125,3.125 0 1 1 1364,54.651Z" style="fill:none;stroke:#F15A60;stroke-width:0.625" />
<path d="M1370.9,106.12A3.125,3.125 0 1 1 1364.6,106.12A3.125,3.125 0 1 1 1370.9,106.12Z" style="fill:none;stroke:#F15A60;stroke-width:0.625" />
<path d="M1377.8,214.25A3.125,3.125 0 1 1 1371.5,214.25A3.125,3.125 0 1 1 1377.8,214.25Z" style="fill:none;stroke:#F15A60;stroke-width:0.625" />
<path d="M1384.7,284.55A3.125,3.125 0 1 1 1378.5,284.55A3.125,3.125 0 1 1 1384.7,284.55Z" style="fill:none;stroke:#F15A60;stroke-width:0.625" />
<path d="M1391.6,225.01A3.125,3.125 0 1 1 1385.4,225.01A3.125,3.125 0 1 1 1391.6,225.01Z" style="fill:none;stroke:#F15A60;stroke-width:0.625" />
<path d="M1398.5,286.17L1398.5,286.17A3.125,3.125 0 1 1 1392.3,286.17A3.125,3.125 0 1 1 1398.5,286.17Z" style="fill:none;stroke:#F15A60;stroke-width:0.625" />
<path d="M1405.4,160.23L1405.4,160.23A3.125,3.125 0 1 1 1399.2,160.23A3.125,3.125 0 1 1 1405.4,160.23Z" style="fill:none;stroke:#F15A60;stroke-width:0.625" />
<path d="M1412.4,119.63A3.125,3.125 0 1 1 1406.1,119.63A3.125,3.125 0 1 1 1412.4,119.63Z" style="fill:none;stroke:#F15A60;stroke-width:0.625" />
<path d="M1419.3,112.11A3.125,3.125 0 1 1 1413,112.11A3.125,3.125 0 1 1 1419.3,112.11Z" style="fill:none;stroke:#F15A60;stroke-width:0.625" />
<path d="M1426.2,139.55L1426.2,139.55A3.125,3.125 0 1 1 1419.9,139.55A3.125,3.125 0 1 1 1426.2,139.55Z" style="fill:none;stroke:#F15A60;stroke-width:0.625" />
<path d="M1433.1,127.53A3.125,3.125 0 1 1 1426.8,127.53A3.125,3.125 0 1 1 1433.1,127.53Z" style="fill:none;stroke:#F15A60;stroke-width:0.625" />
<path d="M1440,291.03A3.125,3.125 0 1 1 1433.8,291.03A3.125,3.125 0 1 1 1440,291.03Z" style="fill:none;stroke:#F15A60;stroke-width:0.625" />
<path d="M61.3,540.31L68.212,513.21L75.125,496.89L82.037,469.43L88.95,521.86L95.862,531.14L102.77,527.22L109.69,583.06L116.6,590.97L123.51,570.06L130.42,565.21L137.34,567.32L144.25,616.73L151.16,617.64L158.07,608.19L164.99,613.64L171.9,671.61L178.81,693.99L185.72,686.04L192.64,690.48L199.55,662.14L206.46,669.17L213.37,681.47L220.29,647L227.2,629.16L234.11,631.88L241.02,651.32L247.94,657.59L254.85,593.72L261.76,546.11L268.67,550.4L275.59,558.89L282.5,509.42L289.41,488.95L296.32,435.79L303.24,444.38L310.15,436.57L317.06,387.75L323.97,382.55L330.89,390.51L337.8,369L344.71,305.26L351.62,326.58L358.53,335.19L365.45,296.11L372.36,232.61L379.27,225.15L386.18,228.27L393.1,222.65L400.01,192.35L406.92,208.48L413.83,178.63L420.75,146.22L427.66,180.45L434.57,141.44L441.48,178.26L448.4,167.26L455.31,209.82L462.22,213.5L469.13,247.49L476.05,213.03L482.96,211.25L489.87,216.41L496.78,232.65L503.7,297.13L510.61,347.35L517.52,318.23L524.43,307.09L531.35,341.63L538.26,347.46L545.17,396.65L552.08,436.64L559,465.65L565.91,475.75L572.82,499.2L579.73,529.41L586.65,571.57L593.56,572.21L600.47,581.23L607.38,617.29L614.29,630.77L621.21,666.42L628.12,695.46L635.03,713.05L641.94,710.5L648.86,738.97L655.77,690.41L662.68,664.22L669.59,648.57L676.51,640.13L683.42,666.54L690.33,697.05L697.24,689.12L704.16,711.48L711.07,690.22L717.98,660.07L724.89,630.38L731.81,644.96L738.72,620L745.63,620.18L752.54,581.46L759.46,527.2L766.37,512.27L773.28,508.41L780.19,511.33L787.11,489.7L794.02,450.37L800.93,443.42L807.84,399.76L814.76,347.64L821.67,303.09L828.58,304.58L835.49,258.86L842.41,241.2L849.32,215.16L856.23,183.43L863.14,196.05L870.06,213.99L876.97,164.58L883.88,137.51L890.79,176.89L897.7,201.54L904.62,222.19L911.53,221.67L918.44,187.3L925.35,214.06L932.27,200.85L939.18,226.32L946.09,263.54L953,246.3L959.92,217.7L966.83,230.28L973.74,275.76L980.65,295.97L987.57,292.55L994.48,329.11L1001.4,373.39L1008.3,388.82L1015.2,410.97L1022.1,417.7L1029,401.93L1036,409.5L1042.9,429.64L1049.8,486.31L1056.7,485.43L1063.6,533.81L1070.5,560.78L1077.4,575.48L1084.3,568.71L1091.3,629.07L1098.2,640.72L1105.1,663.5L1112,649.07L1118.9,641.37L1125.8,674.89L1132.7,690.06L1139.6,714.56L1146.6,703.28L1153.5,663.46L1160.4,688.14L1167.3,667.35L1174.2,638.13L1181.1,651.22L1188,617.49L1194.9,611.63L1201.9,584.26L1208.8,544.57L1215.7,528.67L1222.6,523.91L1229.5,536.91L1236.4,496.03L1243.3,491.86L1250.2,460.53L1257.2,483.75L1264.1,476.5L1271,469.77L1277.9,465.38L1284.8,433.09L1291.7,428.77L1298.6,348.35L1305.5,356.29L1312.5,302.98L1319.4,255.1L1326.3,266.24L1333.2,255.96L1340.1,208.68L1347,179.25L1353.9,184.65L1360.8,145.65L1367.8,133.79L1374.7,157.93L1381.6,195.92L1388.5,204.65L1395.4,229.1L1402.3,208.44L1409.2,181.8L1416.1,160.89L1423.1,154.49L1430,146.4L1436.9,189.79" style="fill:none;stroke:#7AC36A;stroke-width:1.25;stroke-dasharray:7.5,2.5" />
<path d="M58.633,537.64L63.967,537.64L63.967,542.98L58.633,542.98Z" style="fill:none;stroke:#7AC36A;stroke-width:0.625" />
<path d="M65.545,510.54L70.88,510.54L70.88,515.88L65.545,515.88Z" style="fill:none;stroke:#7AC36A;stroke-width:0.625" />
<path d="M72.458,494.22L77.792,494.22L77.792,499.56L72.458,499.56Z" style="fill:none;stroke:#7AC36A;stroke-width:0.625" />
<path d="M79.37,466.77L84.705,466.77L84.705,472.1L79.37,472.1Z" style="fill:none;stroke:#7AC36A;stroke-width:0.625" />
<path d="M86.282,519.19L91.617,519.19L91.617,524.53L86.282,524.53Z" style="fill:none;stroke:#7AC36A;stroke-width:0.625" />
<path d="M93.195,528.47L98.53,528.47L98.53,533.81L93.195,533.81Z" style="fill:none;stroke:#7AC36A;stroke-width:0.625" />
<path d="M100.11,524.56L105.44,524.56L105.44,529.89L100.11,529.89Z" style="fill:none;stroke:#7AC36A;stroke-width:0.625" />
<path d="M107.02,580.4L112.35,580.4L112.35,585.73L107.02,585.73Z" style="fill:none;stroke:#7AC36A;stroke-width:0.625" />
<path d="M113.93,588.31L119.27,588.31L119.27,593.64L113.93,593.64Z" style="fill:none;stroke:#7AC36A;stroke-width:0.625" />
<path d="M120.84,567.39L126.18,567.39L126.18,572.73L120.84,572.73Z" style="fill:none;stroke:#7AC36A;stroke-width:0.625" />
<path d="M127.76,562.54L133.09,562.54L133.09,567.88L127.76,567.88Z" style="fill:none;stroke:#7AC36A;stroke-width:0.625" />
<path d="M134.67,564.66L140,564.66L140,569.99L134.67,569.99Z" style="fill:none;stroke:#7AC36A;stroke-width:0.625" />
<path d="M141.58,614.06L146.92,614.06L146.92,619.4L141.58,619.4Z" style="fill:none;stroke:#7AC36A;stroke-width:0.625" />
<path d="M148.49,614.98L153.83,614.98L153.83,620.31L148.49,620.31Z" style="fill:none;stroke:#7AC36A;stroke-width:0.625" />
<path d="M155.41,605.52L160.74,605.52L160.74,610.86L155.41,610.86Z" style="fill:none;stroke:#7AC36A;stroke-width:0.625" />
<path d="M162.32,610.98L167.65,610.98L167.65,616.31L162.32,616.31Z" style="fill:none;stroke:#7AC36A;stroke-width:0.625" />
<path d="M169.23,668.95L174.57,668.95L174.57,674.28L169.23,674.28Z" style="fill:none;stroke:#7AC36A;stroke-width:0.625" />
<path d="M176.14,691.32L181.48,691.32L181.48,696.66L176.14,696.66Z" style="fill:none;stroke:#7AC36A;stroke-width:0.625" />
<path d="M183.06,683.37L188.39,683.37L188.39,688.71L183.06,688.71Z" style="fill:none;stroke:#7AC36A;stroke-width:0.625" />
<path d="M189.97,687.81L195.3,687.81L195.3,693.14L189.97,693.14Z" style="fill:none;stroke:#7AC36A;stroke-width:0.625" />
<path d="M196.88,659.47L202.22,659.47L202.22,664.8L196.88,664.8Z" style="fill:none;stroke:#7AC36A;stroke-width:0.625" />
<path d="M203.79,666.5L209.13,666.5L209.13,671.84L203.79,671.84Z" style="fill:none;stroke:#7AC36A;stroke-width:0.625" />
<path d="M210.71,678.81L216.04,678.81L216.04,684.14L210.71,684.14Z" style="fill:none;stroke:#7AC36A;stroke-width:0.625" />
<path d="M217.62,644.33L222.95,644.33L222.95,649.66L217.62,649.66Z" style="fill:none;stroke:#7AC36A;stroke-width:0.625" />
<path d="M224.53,626.49L229.87,626.49L229.87,631.83L224.53,631.83Z" style="fill:none;stroke:#7AC36A;stroke-width:0.625" />
<path d="M231.44,629.21L236.78,629.21L236.78,634.55L231.44,634.55Z" style="fill:none;stroke:#7AC36A;stroke-width:0.625" />
<path d="M238.36,648.65L243.69,648.65L243.69,653.99L238.36,653.99Z" style="fill:none;stroke:#7AC36A;stroke-width:0.625" />
<path d="M245.27,654.92L250.6,654.92L250.6,660.25L245.27,660.25Z" style="fill:none;stroke:#7AC36A;stroke-width:0.625" />
<path d="M252.18,591.06L257.52,591.06L257.52,596.39L252.18,596.39Z" style="fill:none;stroke:#7AC36A;stroke-width:0.625" />
<path d="M259.09,543.44L264.43,543.44L264.43,548.78L259.09,548.78Z" style="fill:none;stroke:#7AC36A;stroke-width:0.625" />
<path d="M266.01,547.74L271.34,547.74L271.34,553.07L266.01,553.07Z" style="fill:none;stroke:#7AC36A;stroke-width:0.625" />
<path d="M272.92,556.22L278.25,556.22L278.25,561.56L272.92,561.56Z" style="fill:none;stroke:#7AC36A;stroke-width:0.625" />
<path d="M279.83,506.75L285.17,506.75L285.17,512.09L279.83,512.09Z" style="fill:none;stroke:#7AC36A;stroke-width:0.625" />
<path d="M286.74,486.28L292.08,486.28L292.08,491.61L286.74,491.61Z" style="fill:none;stroke:#7AC36A;stroke-width:0.625" />
<path d="M293.66,433.13L298.99,433.13L298.99,438.46L293.66,438.46Z" style="fill:none;stroke:#7AC36A;stroke-width:0.625" />
<path d="M300.57,441.71L305.9,441.71L305.9,447.04L300.57,447.04Z" style="fill:none;stroke:#7AC36A;stroke-width:0.625" />
<path d="M307.48,433.9L312.82,433.9L312.82,439.23L307.48,439.23Z" style="fill:none;stroke:#7AC36A;stroke-width:0.625" />
<path d="M314.39,385.09L319.73,385.09L319.73,390.42L314.39,390.42Z" style="fill:none;stroke:#7AC36A;stroke-width:0.625" />
<path d="M321.31,379.88L326.64,379.88L326.64,385.22L321.31,385.22Z" style="fill:none;stroke:#7AC36A;stroke-width:0.625" />
<path d="M328.22,387.84L333.55,387.84L333.55,393.17L328.22,393.17Z" style="fill:none;stroke:#7AC36A;stroke-width:0.625" />
<path d="M335.13,366.33L340.46,366.33L340.46,371.67L335.13,371.67Z" style="fill:none;stroke:#7AC36A;stroke-width:0.625" />
<path d="M342.04,302.59L347.38,302.59L347.38,307.92L342.04,307.92Z" style="fill:none;stroke:#7AC36A;stroke-width:0.625" />
<path d="M348.96,323.91L354.29,323.91L354.29,329.24L348.96,329.24Z" style="fill:none;stroke:#7AC36A;stroke-width:0.625" />
<path d="M355.87,332.52L361.2,332.52L361.2,337.86L355.87,337.86Z" style="fill:none;stroke:#7AC36A;stroke-width:0.625" />
<path d="M362.78,293.44L368.11,293.44L368.11,298.77L362.78,298.77Z" style="fill:none;stroke:#7AC36A;stroke-width:0.625" />
<path d="M369.69,229.94L375.03,229.94L375.03,235.27L369.69,235.27Z" style="fill:none;stroke:#7AC36A;stroke-width:0.625" />
<path d="M376.6,222.48L381.94,222.48L381.94,227.81L376.6,227.81Z" style="fill:none;stroke:#7AC36A;stroke-width:0.625" />
<path d="M383.52,225.6L388.85,225.6L388.85,230.94L383.52,230.94Z" style="fill:none;stroke:#7AC36A;stroke-width:0.625" />
<path d="M390.43,219.98L395.76,219.98L395.76,225.32L390.43,225.32Z" style="fill:none;stroke:#7AC36A;stroke-width:0.625" />
<path d="M397.34,189.68L402.68,189.68L402.68,195.01L397.34,195.01Z" style="fill:none;stroke:#7AC36A;stroke-width:0.625" />
<path d="M404.25,205.81L409.59,205.81L409.59,211.14L404.25,211.14Z" style="fill:none;stroke:#7AC36A;stroke-width:0.625" />
<path d="M411.17,175.96L416.5,175.96L416.5,181.29L411.17,181.29Z" style="fill:none;stroke:#7AC36A;stroke-width:0.625" />
<path d="M418.08,143.55L423.41,143.55L423.41,148.88L418.08,148.88Z" style="fill:none;stroke:#7AC36A;stroke-width:0.625" />
<path d="M424.99,177.78L430.33,177.78L430.33,183.12L424.99,183.12Z" style="fill:none;stroke:#7AC36A;stroke-width:0.625" />
<path d="M431.9,138.77L437.24,138.77L437.24,144.1L431.9,144.1Z" style="fill:none;stroke:#7AC36A;stroke-width:0.625" />
<path d="M438.82,175.59L444.15,175.59L444.15,180.93L438.82,180.93Z" style="fill:none;stroke:#7AC36A;stroke-width:0.625" />
<path d="M445.73,164.59L451.06,164.59L451.06,169.93L445.73,169.93Z" style="fill:none;stroke:#7AC36A;stroke-width:0.625" />
<path d="M452.64,207.16L457.98,207.16L457.98,212.49L452.64,212.49Z" style="fill:none;stroke:#7AC36A;stroke-width:0.625" />
<path d="M459.55,210.84L464.89,210.84L464.89,216.17L459.55,216.17Z" style="fill:none;stroke:#7AC36A;stroke-width:0.625" />
<path d="M466.47,244.82L471.8,244.82L471.8,250.16L466.47,250.16Z" style="fill:none;stroke:#7AC36A;stroke-width:0.625" />
<path d="M473.38,210.36L478.71,210.36L478.71,215.7L473.38,215.7Z" style="fill:none;stroke:#7AC36A;stroke-width:0.625" />
<path d="M480.29,208.58L485.63,208.58L485.63,213.92L480.29,213.92Z" style="fill:none;stroke:#7AC36A;stroke-width:0.625" />
<path d="M487.2,213.74L492.54,213.74L492.54,219.08L487.2,219.08Z" style="fill:none;stroke:#7AC36A;stroke-width:0.625" />
<path d="M494.12,229.99L499.45,229.99L499.45,235.32L494.12,235.32Z" style="fill:none;stroke:#7AC36A;stroke-width:0.625" />
<path d="M501.03,294.47L506.36,294.47L506.36,299.8L501.03,299.8Z" style="fill:none;stroke:#7AC36A;stroke-width:0.625" />
<path d="M507.94,344.69L513.28,344.69L513.28,350.02L507.94,350.02Z" style="fill:none;stroke:#7AC36A;stroke-width:0.625" />
<path d="M514.85,315.56L520.19,315.56L520.19,320.89L514.85,320.89Z" style="fill:none;stroke:#7AC36A;stroke-width:0.625" />
<path d="M521.77,304.43L527.1,304.43L527.1,309.76L521.77,309.76Z" style="fill:none;stroke:#7AC36A;stroke-width:0.625" />
<path d="M528.68,338.97L534.01,338.97L534.01,344.3L528.68,344.3Z" style="fill:none;stroke:#7AC36A;stroke-width:0.625" />
<path d="M535.59,344.79L540.93,344.79L540.93,350.13L535.59,350.13Z" style="fill:none;stroke:#7AC36A;stroke-width:0.625" />
<path d="M542.5,393.98L547.84,393.98L547.84,399.31L542.5,399.31Z" style="fill:none;stroke:#7AC36A;stroke-width:0.625" />
<path d="M549.42,433.97L554.75,433.97L554.75,439.31L549.42,439.31Z" style="fill:none;stroke:#7AC36A;stroke-width:0.625" />
<path d="M556.33,462.98L561.66,462.98L561.66,468.32L556.33,468.32Z" style="fill:none;stroke:#7AC36A;stroke-width:0.625" />
<path d="M563.24,473.08L568.58,473.08L568.58,478.42L563.24,478.42Z" style="fill:none;stroke:#7AC36A;stroke-width:0.625" />
<path d="M570.15,496.53L575.49,496.53L575.49,501.86L570.15,501.86Z" style="fill:none;stroke:#7AC36A;stroke-width:0.625" />
<path d="M577.07,526.74L582.4,526.74L582.4,532.08L577.07,532.08Z" style="fill:none;stroke:#7AC36A;stroke-width:0.625" />
<path d="M583.98,568.91L589.31,568.91L589.31,574.24L583.98,574.24Z" style="fill:none;stroke:#7AC36A;stroke-width:0.625" />
<path d="M590.89,569.54L596.23,569.54L596.23,574.88L590.89,574.88Z" style="fill:none;stroke:#7AC36A;stroke-width:0.625" />
<path d="M597.8,578.57L603.14,578.57L603.14,583.9L597.8,583.9Z" style="fill:none;stroke:#7AC36A;stroke-width:0.625" />
<path d="M604.72,614.62L610.05,614.62L610.05,619.96L604.72,619.96Z" style="fill:none;stroke:#7AC36A;stroke-width:0.625" />
<path d="M611.63,628.11L616.96,628.11L616.96,633.44L611.63,633.44Z" style="fill:none;stroke:#7AC36A;stroke-width:0.625" />
<path d="M618.54,663.75L623.87,663.75L623.87,669.09L618.54,669.09Z" style="fill:none;stroke:#7AC36A;stroke-width:0.625" />
<path d="M625.45,692.8L630.79,692.8L630.79,698.13L625.45,698.13Z" style="fill:none;stroke:#7AC36A;stroke-width:0.625" />
<path d="M632.36,710.39L637.7,710.39L637.7,715.72L632.36,715.72Z" style="fill:none;stroke:#7AC36A;stroke-width:0.625" />
<path d="M639.28,707.83L644.61,707.83L644.61,713.16L639.28,713.16Z" style="fill:none;stroke:#7AC36A;stroke-width:0.625" />
<path d="M646.19,736.31L651.52,736.31L651.52,741.64L646.19,741.64Z" style="fill:none;stroke:#7AC36A;stroke-width:0.625" />
<path d="M653.1,687.75L658.44,687.75L658.44,693.08L653.1,693.08Z" style="fill:none;stroke:#7AC36A;stroke-width:0.625" />
<path d="M660.01,661.55L665.35,661.55L665.35,666.89L660.01,666.89Z" style="fill:none;stroke:#7AC36A;stroke-width:0.625" />
<path d="M666.93,645.9L672.26,645.9L672.26,651.24L666.93,651.24Z" style="fill:none;stroke:#7AC36A;stroke-width:0.625" />
<path d="M673.84,637.47L679.17,637.47L679.17,642.8L673.84,642.8Z" style="fill:none;stroke:#7AC36A;stroke-width:0.625" />
<path d="M680.75,663.87L686.09,663.87L686.09,669.21L680.75,669.21Z" style="fill:none;stroke:#7AC36A;stroke-width:0.625" />
<path d="M687.66,694.38L693,694.38L693,699.71L687.66,699.71Z" style="fill:none;stroke:#7AC36A;stroke-width:0.625" />
<path d="M694.58,686.45L699.91,686.45L699.91,691.79L694.58,691.79Z" style="fill:none;stroke:#7AC36A;stroke-width:0.625" />
<path d="M701.49,708.81L706.82,708.81L706.82,714.14L701.49,714.14Z" style="fill:none;stroke:#7AC36A;stroke-width:0.625" />
<path d="M708.4,687.55L713.74,687.55L713.74,692.89L708.4,692.89Z" style="fill:none;stroke:#7AC36A;stroke-width:0.625" />
<path d="M715.31,657.41L720.65,657.41L720.65,662.74L715.31,662.74Z" style="fill:none;stroke:#7AC36A;stroke-width:0.625" />
<path d="M722.23,627.71L727.56,627.71L727.56,633.04L722.23,633.04Z" style="fill:none;stroke:#7AC36A;stroke-width:0.625" />
<path d="M729.14,642.3L734.47,642.3L734.47,647.63L729.14,647.63Z" style="fill:none;stroke:#7AC36A;stroke-width:0.625" />
<path d="M736.05,617.33L741.39,617.33L741.39,622.67L736.05,622.67Z" style="fill:none;stroke:#7AC36A;stroke-width:0.625" />
<path d="M742.96,617.51L748.3,617.51L748.3,622.85L742.96,622.85Z" style="fill:none;stroke:#7AC36A;stroke-width:0.625" />
<path d="M749.88,578.79L755.21,578.79L755.21,584.12L749.88,584.12Z" style="fill:none;stroke:#7AC36A;stroke-width:0.625" />
<path d="M756.79,524.53L762.12,524.53L762.12,529.86L756.79,529.86Z" style="fill:none;stroke:#7AC36A;stroke-width:0.625" />
<path d="M763.7,509.6L769.04,509.6L769.04,514.94L763.7,514.94Z" style="fill:none;stroke:#7AC36A;stroke-width:0.625" />
<path d="M770.61,505.75L775.95,505.75L775.95,511.08L770.61,511.08Z" style="fill:none;stroke:#7AC36A;stroke-width:0.625" />
<path d="M777.53,508.66L782.86,508.66L782.86,514L777.53,514Z" style="fill:none;stroke:#7AC36A;stroke-width:0.625" />
<path d="M784.44,487.03L789.77,487.03L789.77,492.36L784.44,492.36Z" style="fill:none;stroke:#7AC36A;stroke-width:0.625" />
<path d="M791.35,447.7L796.69,447.7L796.69,453.04L791.35,453.04Z" style="fill:none;stroke:#7AC36A;stroke-width:0.625" />
<path d="M798.26,440.76L803.6,440.76L803.6,446.09L798.26,446.09Z" style="fill:none;stroke:#7AC36A;stroke-width:0.625" />
<path d="M805.18,397.09L810.51,397.09L810.51,402.42L805.18,402.42Z" style="fill:none;stroke:#7AC36A;stroke-width:0.625" />
<path d="M812.09,344.98L817.42,344.98L817.42,350.31L812.09,350.31Z" style="fill:none;stroke:#7AC36A;stroke-width:0.625" />
<path d="M819,300.42L824.34,300.42L824.34,305.76L819,305.76Z" style="fill:none;stroke:#7AC36A;stroke-width:0.625" />
<path d="M825.91,301.91L831.25,301.91L831.25,307.24L825.91,307.24Z" style="fill:none;stroke:#7AC36A;stroke-width:0.625" />
<path d="M832.83,256.19L838.16,256.19L838.16,261.53L832.83,261.53Z" style="fill:none;stroke:#7AC36A;stroke-width:0.625" />
<path d="M839.74,238.53L845.07,238.53L845.07,243.87L839.74,243.87Z" style="fill:none;stroke:#7AC36A;stroke-width:0.625" />
<path d="M846.65,212.5L851.99,212.5L851.99,217.83L846.65,217.83Z" style="fill:none;stroke:#7AC36A;stroke-width:0.625" />
<path d="M853.56,180.76L858.9,180.76L858.9,186.09L853.56,186.09Z" style="fill:none;stroke:#7AC36A;stroke-width:0.625" />
<path d="M860.48,193.39L865.81,193.39L865.81,198.72L860.48,198.72Z" style="fill:none;stroke:#7AC36A;stroke-width:0.625" />
<path d="M867.39,211.32L872.72,211.32L872.72,216.65L867.39,216.65Z" style="fill:none;stroke:#7AC36A;stroke-width:0.625" />
<path d="M874.3,161.92L879.63,161.92L879.63,167.25L874.3,167.25Z" style="fill:none;stroke:#7AC36A;stroke-width:0.625" />
<path d="M881.21,134.84L886.55,134.84L886.55,140.18L881.21,140.18Z" style="fill:none;stroke:#7AC36A;stroke-width:0.625" />
<path d="M888.13,174.23L893.46,174.23L893.46,179.56L888.13,179.56Z" style="fill:none;stroke:#7AC36A;stroke-width:0.625" />
<path d="M895.04,198.87L900.37,198.87L900.37,204.21L895.04,204.21Z" style="fill:none;stroke:#7AC36A;stroke-width:0.625" />
<path d="M901.95,219.53L907.28,219.53L907.28,224.86L901.95,224.86Z" style="fill:none;stroke:#7AC36A;stroke-width:0.625" />
<path d="M908.86,219.01L914.2,219.01L914.2,224.34L908.86,224.34Z" style="fill:none;stroke:#7AC36A;stroke-width:0.625" />
<path d="M915.77,184.63L921.11,184.63L921.11,189.97L915.77,189.97Z" style="fill:none;stroke:#7AC36A;stroke-width:0.625" />
<path d="M922.69,211.4L928.02,211.4L928.02,216.73L922.69,216.73Z" style="fill:none;stroke:#7AC36A;stroke-width:0.625" />
<path d="M929.6,198.18L934.93,198.18L934.93,203.52L929.6,203.52Z" style="fill:none;stroke:#7AC36A;stroke-width:0.625" />
<path d="M936.51,223.66L941.85,223.66L941.85,228.99L936.51,228.99Z" style="fill:none;stroke:#7AC36A;stroke-width:0.625" />
<path d="M943.42,260.87L948.76,260.87L948.76,266.21L943.42,266.21Z" style="fill:none;stroke:#7AC36A;stroke-width:0.625" />
<path d="M950.34,243.63L955.67,243.63L955.67,248.97L950.34,248.97Z" style="fill:none;stroke:#7AC36A;stroke-width:0.625" />
<path d="M957.25,215.03L962.58,215.03L962.58,220.37L957.25,220.37Z" style="fill:none;stroke:#7AC36A;stroke-width:0.625" />
<path d="M964.16,227.61L969.5,227.61L969.5,232.95L964.16,232.95Z" style="fill:none;stroke:#7AC36A;stroke-width:0.625" />
<path d="M971.07,273.1L976.41,273.1L976.41,278.43L971.07,278.43Z" style="fill:none;stroke:#7AC36A;stroke-width:0.625" />
<path d="M977.99,293.31L983.32,293.31L983.32,298.64L977.99,298.64Z" style="fill:none;stroke:#7AC36A;stroke-width:0.625" />
<path d="M984.9,289.89L990.23,289.89L990.23,295.22L984.9,295.22Z" style="fill:none;stroke:#7AC36A;stroke-width:0.625" />
<path d="M991.81,326.44L997.15,326.44L997.15,331.78L991.81,331.78Z" style="fill:none;stroke:#7AC36A;stroke-width:0.625" />
<path d="M998.72,370.72L1004.1,370.72L1004.1,376.06L998.72,376.06Z" style="fill:none;stroke:#7AC36A;stroke-width:0.625" />
<path d="M1005.6,386.15L1011,386.15L1011,391.49L1005.6,391.49Z" style="fill:none;stroke:#7AC36A;stroke-width:0.625" />
<path d="M1012.5,408.3L1017.9,408.3L1017.9,413.63L1012.5,413.63Z" style="fill:none;stroke:#7AC36A;stroke-width:0.625" />
<path d="M1019.5,415.03L1024.8,415.03L1024.8,420.37L1019.5,420.37Z" style="fill:none;stroke:#7AC36A;stroke-width:0.625" />
<path d="M1026.4,399.26L1031.7,399.26L1031.7,404.6L1026.4,404.6Z" style="fill:none;stroke:#7AC36A;stroke-width:0.625" />
<path d="M1033.3,406.83L1038.6,406.83L1038.6,412.17L1033.3,412.17Z" style="fill:none;stroke:#7AC36A;stroke-width:0.625" />
<path d="M1040.2,426.97L1045.5,426.97L1045.5,432.31L1040.2,432.31Z" style="fill:none;stroke:#7AC36A;stroke-width:0.625" />
<path d="M1047.1,483.64L1052.4,483.64L1052.4,488.98L1047.1,488.98Z" style="fill:none;stroke:#7AC36A;stroke-width:0.625" />
<path d="M1054,482.77L1059.4,482.77L1059.4,488.1L1054,488.1Z" style="fill:none;stroke:#7AC36A;stroke-width:0.625" />
<path d="M1060.9,531.15L1066.3,531.15L1066.3,536.48L1060.9,536.48Z" style="fill:none;stroke:#7AC36A;stroke-width:0.625" />
<path d="M1067.8,558.12L1073.2,558.12L1073.2,563.45L1067.8,563.45Z" style="fill:none;stroke:#7AC36A;stroke-width:0.625" />
<path d="M1074.8,572.82L1080.1,572.82L1080.1,578.15L1074.8,578.15Z" style="fill:none;stroke:#7AC36A;stroke-width:0.625" />
<path d="M1081.7,566.05L1087,566.05L1087,571.38L1081.7,571.38Z" style="fill:none;stroke:#7AC36A;stroke-width:0.625" />
<path d="M1088.6,626.4L1093.9,626.4L1093.9,631.74L1088.6,631.74Z" style="fill:none;stroke:#7AC36A;stroke-width:0.625" />
<path d="M1095.5,638.05L1100.8,638.05L1100.8,643.39L1095.5,643.39Z" style="fill:none;stroke:#7AC36A;stroke-width:0.625" />
<path d="M1102.4,660.83L1107.7,660.83L1107.7,666.16L1102.4,666.16Z" style="fill:none;stroke:#7AC36A;stroke-width:0.625" />
<path d="M1109.3,646.41L1114.7,646.41L1114.7,651.74L1109.3,651.74Z" style="fill:none;stroke:#7AC36A;stroke-width:0.625" />
<path d="M1116.2,638.71L1121.6,638.71L1121.6,644.04L1116.2,644.04Z" style="fill:none;stroke:#7AC36A;stroke-width:0.625" />
<path d="M1123.1,672.23L1128.5,672.23L1128.5,677.56L1123.1,677.56Z" style="fill:none;stroke:#7AC36A;stroke-width:0.625" />
<path d="M1130.1,687.4L1135.4,687.4L1135.4,692.73L1130.1,692.73Z" style="fill:none;stroke:#7AC36A;stroke-width:0.625" />
<path d="M1137,711.89L1142.3,711.89L1142.3,717.22L1137,717.22Z" style="fill:none;stroke:#7AC36A;stroke-width:0.625" />
<path d="M1143.9,700.61L1149.2,700.61L1149.2,705.95L1143.9,705.95Z" style="fill:none;stroke:#7AC36A;stroke-width:0.625" />
<path d="M1150.8,660.79L1156.1,660.79L1156.1,666.13L1150.8,666.13Z" style="fill:none;stroke:#7AC36A;stroke-width:0.625" />
<path d="M1157.7,685.47L1163,685.47L1163,690.81L1157.7,690.81Z" style="fill:none;stroke:#7AC36A;stroke-width:0.625" />
<path d="M1164.6,664.68L1170,664.68L1170,670.01L1164.6,670.01Z" style="fill:none;stroke:#7AC36A;stroke-width:0.625" />
<path d="M1171.5,635.46L1176.9,635.46L1176.9,640.79L1171.5,640.79Z" style="fill:none;stroke:#7AC36A;stroke-width:0.625" />
<path d="M1178.4,648.55L1183.8,648.55L1183.8,653.89L1178.4,653.89Z" style="fill:none;stroke:#7AC36A;stroke-width:0.625" />
<path d="M1185.4,614.82L1190.7,614.82L1190.7,620.16L1185.4,620.16Z" style="fill:none;stroke:#7AC36A;stroke-width:0.625" />
<path d="M1192.3,608.96L1197.6,608.96L1197.6,614.3L1192.3,614.3Z" style="fill:none;stroke:#7AC36A;stroke-width:0.625" />
<path d="M1199.2,581.59L1204.5,581.59L1204.5,586.92L1199.2,586.92Z" style="fill:none;stroke:#7AC36A;stroke-width:0.625" />
<path d="M1206.1,541.9L1211.4,541.9L1211.4,547.24L1206.1,547.24Z" style="fill:none;stroke:#7AC36A;stroke-width:0.625" />
<path d="M1213,526.01L1218.3,526.01L1218.3,531.34L1213,531.34Z" style="fill:none;stroke:#7AC36A;stroke-width:0.625" />
<path d="M1219.9,521.25L1225.3,521.25L1225.3,526.58L1219.9,526.58Z" style="fill:none;stroke:#7AC36A;stroke-width:0.625" />
<path d="M1226.8,534.24L1232.2,534.24L1232.2,539.57L1226.8,539.57Z" style="fill:none;stroke:#7AC36A;stroke-width:0.625" />
<path d="M1233.7,493.37L1239.1,493.37L1239.1,498.7L1233.7,498.7Z" style="fill:none;stroke:#7AC36A;stroke-width:0.625" />
<path d="M1240.7,489.19L1246,489.19L1246,494.52L1240.7,494.52Z" style="fill:none;stroke:#7AC36A;stroke-width:0.625" />
<path d="M1247.6,457.86L1252.9,457.86L1252.9,463.19L1247.6,463.19Z" style="fill:none;stroke:#7AC36A;stroke-width:0.625" />
<path d="M1254.5,481.08L1259.8,481.08L1259.8,486.42L1254.5,486.42Z" style="fill:none;stroke:#7AC36A;stroke-width:0.625" />
<path d="M1261.4,473.84L1266.7,473.84L1266.7,479.17L1261.4,479.17Z" style="fill:none;stroke:#7AC36A;stroke-width:0.625" />
<path d="M1268.3,467.1L1273.6,467.1L1273.6,472.44L1268.3,472.44Z" style="fill:none;stroke:#7AC36A;stroke-width:0.625" />
<path d="M1275.2,462.71L1280.6,462.71L1280.6,468.05L1275.2,468.05Z" style="fill:none;stroke:#7AC36A;stroke-width:0.625" />
<path d="M1282.1,430.42L1287.5,430.42L1287.5,435.75L1282.1,435.75Z" style="fill:none;stroke:#7AC36A;stroke-width:0.625" />
<path d="M1289,426.1L1294.4,426.1L1294.4,431.44L1289,431.44Z" style="fill:none;stroke:#7AC36A;stroke-width:0.625" />
<path d="M1296,345.68L1301.3,345.68L1301.3,351.02L1296,351.02Z" style="fill:none;stroke:#7AC36A;stroke-width:0.625" />
<path d="M1302.9,353.62L1308.2,353.62L1308.2,358.96L1302.9,358.96Z" style="fill:none;stroke:#7AC36A;stroke-width:0.625" />
<path d="M1309.8,300.31L1315.1,300.31L1315.1,305.64L1309.8,305.64Z" style="fill:none;stroke:#7AC36A;stroke-width:0.625" />
<path d="M1316.7,252.43L1322,252.43L1322,257.77L1316.7,257.77Z" style="fill:none;stroke:#7AC36A;stroke-width:0.625" />
<path d="M1323.6,263.57L1328.9,263.57L1328.9,268.9L1323.6,268.9Z" style="fill:none;stroke:#7AC36A;stroke-width:0.625" />
<path d="M1330.5,253.29L1335.9,253.29L1335.9,258.62L1330.5,258.62Z" style="fill:none;stroke:#7AC36A;stroke-width:0.625" />
<path d="M1337.4,206.01L1342.8,206.01L1342.8,211.34L1337.4,211.34Z" style="fill:none;stroke:#7AC36A;stroke-width:0.625" />
<path d="M1344.3,176.58L1349.7,176.58L1349.7,181.92L1344.3,181.92Z" style="fill:none;stroke:#7AC36A;stroke-width:0.625" />
<path d="M1351.3,181.98L1356.6,181.98L1356.6,187.32L1351.3,187.32Z" style="fill:none;stroke:#7AC36A;stroke-width:0.625" />
<path d="M1358.2,142.98L1363.5,142.98L1363.5,148.32L1358.2,148.32Z" style="fill:none;stroke:#7AC36A;stroke-width:0.625" />
<path d="M1365.1,131.12L1370.4,131.12L1370.4,136.46L1365.1,136.46Z" style="fill:none;stroke:#7AC36A;stroke-width:0.625" />
<path d="M1372,155.26L1377.3,155.26L1377.3,160.6L1372,160.6Z" style="fill:none;stroke:#7AC36A;stroke-width:0.625" />
<path d="M1378.9,193.25L1384.2,193.25L1384.2,198.59L1378.9,198.59Z" style="fill:none;stroke:#7AC36A;stroke-width:0.625" />
<path d="M1385.8,201.98L1391.2,201.98L1391.2,207.31L1385.8,207.31Z" style="fill:none;stroke:#7AC36A;stroke-width:0.625" />
<path d="M1392.7,226.44L1398.1,226.44L1398.1,231.77L1392.7,231.77Z" style="fill:none;stroke:#7AC36A;stroke-width:0.625" />
<path d="M1399.6,205.78L1405,205.78L1405,211.11L1399.6,211.11Z" style="fill:none;stroke:#7AC36A;stroke-width:0.625" />
<path d="M1406.6,179.13L1411.9,179.13L1411.9,184.47L1406.6,184.47Z" style="fill:none;stroke:#7AC36A;stroke-width:0.625" />
<path d="M1413.5,158.22L1418.8,158.22L1418.8,163.56L1413.5,163.56Z" style="fill:none;stroke:#7AC36A;stroke-width:0.625" />
<path d="M1420.4,151.82L1425.7,151.82L1425.7,157.16L1420.4,157.16Z" style="fill:none;stroke:#7AC36A;stroke-width:0.625" />
<path d="M1427.3,143.73L1432.6,143.73L1432.6,149.07L1427.3,149.07Z" style="fill:none;stroke:#7AC36A;stroke-width:0.625" />
<path d="M1434.2,187.12L1439.5,187.12L1439.5,192.46L1434.2,192.46Z" style="fill:none;stroke:#7AC36A;stroke-width:0.625" />
<path d="M1415,66.978L1440,66.978" style="fill:none;stroke:#F15A60;stroke-width:1.25" />
<path d="M1430.6,66.978A3.125,3.125 0 1 1 1424.4,66.978A3.125,3.125 0 1 1 1430.6,66.978Z" style="fill:none;stroke:#F15A60;stroke-width:0.625" />
<text x="1388.8" y="-61.188" transform="scale(1, -1)"
	style="font-family:Times;font-weight:normal;font-style:normal;font-size:12pt">raw</text>
<path d="M1415,53.117L1440,53.117" style="fill:none;stroke:#7AC36A;stroke-width:1.25;stroke-dasharray:7.5,2.5" />
<path d="M1424.8,50.45L1430.2,50.45L1430.2,55.785L1424.8,55.785Z" style="fill:none;stroke:#7AC36A;stroke-width:0.625" />
<text x="1367.1" y="-47.328" transform="scale(1, -1)"
	style="font-family:Times;font-weight:normal;font-style:normal;font-size:12pt">smooth</text>
</g>
</svg>
