<?xml version="1.0"?>
<!-- Generated by SVGo and Plotinum VG -->
<svg width="16in" height="9in"
	xmlns="http://www.w3.org/2000/svg"
	xmlns:xlink="http://www.w3.org/1999/xlink">
<g transform="scale(1, -1) translate(0, -810)">
<path d="M0,0L1440,0L1440,810L0,810Z" style="fill:#FFFFFF" />
<text x="744.27" y="-4.8267" transform="scale(1, -1)"
	style="font-family:Times;font-weight:normal;font-style:normal;font-size:12pt">X</text>
<text x="59.37" y="-19.502" transform="scale(1, -1)"
	style="font-family:Times;font-weight:normal;font-style:normal;font-size:10pt">0</text>
<text x="470.63" y="-19.502" transform="scale(1, -1)"
	style="font-family:Times;font-weight:normal;font-style:normal;font-size:10pt">60</text>
<text x="881.89" y="-19.502" transform="scale(1, -1)"
	style="font-family:Times;font-weight:normal;font-style:normal;font-size:10pt">120</text>
<text x="1296.3" y="-19.502" transform="scale(1, -1)"
	style="font-family:Times;font-weight:normal;font-style:normal;font-size:10pt">180</text>
<path d="M62.495,31.538L62.495,41.538" style="fill:none;stroke:#000000;stroke-width:0.625" />
<path d="M476.88,31.538L476.88,41.538" style="fill:none;stroke:#000000;stroke-width:0.625" />
<path d="M891.27,31.538L891.27,41.538" style="fill:none;stroke:#000000;stroke-width:0.625" />
<path d="M1305.7,31.538L1305.7,41.538" style="fill:none;stroke:#000000;stroke-width:0.625" />
<path d="M200.62,36.538L200.62,41.538" style="fill:none;stroke:#000000;stroke-width:0.625" />
<path d="M338.75,36.538L338.75,41.538" style="fill:none;stroke:#000000;stroke-width:0.625" />
<path d="M615.01,36.538L615.01,41.538" style="fill:none;stroke:#000000;stroke-width:0.625" />
<path d="M753.14,36.538L753.14,41.538" style="fill:none;stroke:#000000;stroke-width:0.625" />
<path d="M1029.4,36.538L1029.4,41.538" style="fill:none;stroke:#000000;stroke-width:0.625" />
<path d="M1167.5,36.538L1167.5,41.538" style="fill:none;stroke:#000000;stroke-width:0.625" />
<path d="M62.495,41.538L1436.9,41.538" style="fill:none;stroke:#000000;stroke-width:0.625" />
<g transform="rotate(90)">
<text x="423.63" y="14.443" transform="scale(1, -1)"
	style="font-family:Times;font-weight:normal;font-style:normal;font-size:12pt">Y</text>
</g>
<text x="19.27" y="-83.857" transform="scale(1, -1)"
	style="font-family:Times;font-weight:normal;font-style:normal;font-size:10pt">-0.8</text>
<text x="32.808" y="-289.48" transform="scale(1, -1)"
	style="font-family:Times;font-weight:normal;font-style:normal;font-size:10pt">0</text>
<text x="23.433" y="-495.11" transform="scale(1, -1)"
	style="font-family:Times;font-weight:normal;font-style:normal;font-size:10pt">0.8</text>
<text x="23.433" y="-700.74" transform="scale(1, -1)"
	style="font-family:Times;font-weight:normal;font-style:normal;font-size:10pt">1.6</text>
<path d="M42.183,89.76L52.183,89.76" style="fill:none;stroke:#000000;stroke-width:0.625" />
<path d="M42.183,295.39L52.183,295.39" style="fill:none;stroke:#000000;stroke-width:0.625" />
<path d="M42.183,501.01L52.183,501.01" style="fill:none;stroke:#000000;stroke-width:0.625" />
<path d="M42.183,706.64L52.183,706.64" style="fill:none;stroke:#000000;stroke-width:0.625" />
<path d="M47.183,89.76L52.183,89.76" style="fill:none;stroke:#000000;stroke-width:0.625" />
<path d="M47.183,192.57L52.183,192.57" style="fill:none;stroke:#000000;stroke-width:0.625" />
<path d="M47.183,295.39L52.183,295.39" style="fill:none;stroke:#000000;stroke-width:0.625" />
<path d="M47.183,398.2L52.183,398.2" style="fill:none;stroke:#000000;stroke-width:0.625" />
<path d="M47.183,501.01L52.183,501.01" style="fill:none;stroke:#000000;stroke-width:0.625" />
<path d="M47.183,603.83L52.183,603.83" style="fill:none;stroke:#000000;stroke-width:0.625" />
<path d="M52.183,51.226L52.183,806.88" style="fill:none;stroke:#000000;stroke-width:0.625" />
<path d="M62.495,385.54L69.402,399.61L76.308,609.99L83.214,530.55L90.121,508.41L97.027,530.4L103.93,672.06L110.84,676.88L117.75,567.41L124.65,658.09L131.56,738.67L138.47,631.48L145.37,463.9L152.28,584.06L159.19,369.38L166.09,292.09L173,484.61L179.9,420.98L186.81,344.35L193.72,138.98L200.62,116.35L207.53,109.66L214.44,176.75L221.34,287.24L228.25,144.65L235.16,216.63L242.06,310.18L248.97,348.19L255.88,424.28L262.78,326.41L269.69,416.63L276.59,454.67L283.5,574.73L290.41,476.99L297.31,672.42L304.22,771.01L311.13,583.7L318.03,753.23L324.94,693.68L331.85,599.33L338.75,528.99L345.66,478.72L352.57,441.19L359.47,439.35L366.38,532.27L373.28,356.49L380.19,282.92L387.1,326.79L394,258.65L400.91,221.45L407.82,120.22L414.72,231.76L421.63,116.12L428.54,230.3L435.44,231.62L442.35,203.1L449.26,388.89L456.16,340.73L463.07,427.53L469.97,494.91L476.88,552.12L483.79,538.88L490.69,682.87L497.6,527.88L504.51,763.11L511.41,731.53L518.32,686.99L525.23,580.91L532.13,593.21L539.04,723.38L545.95,704.22L552.85,488.34L559.76,584.45L566.66,516.57L573.57,403.15L580.48,256.4L587.38,190.32L594.29,265.93L601.2,201.73L608.1,119.36L615.01,180.57L621.92,195.1L628.82,175.35L635.73,75.895L642.64,189.96L649.54,126.12L656.45,237.89L663.35,220.57L670.26,313.67L677.17,490.55L684.07,560.97L690.98,576.01L697.89,722.94L704.79,625.3L711.7,754.92L718.61,613.47L725.51,709.29L732.42,752.55L739.33,690.38L746.23,563.81L753.14,514.05L760.04,515.47L766.95,571.85L773.86,423.22L780.76,437.7L787.67,420.76L794.58,159.03L801.48,338.4L808.39,131.22L815.3,71.337L822.2,222.97L829.11,168.27L836.02,236.7L842.92,318.47L849.83,338.69L856.73,146.99L863.64,388.65L870.55,307.04L877.45,540.64L884.36,580.38L891.27,420.88L898.17,619.51L905.08,611.06L911.99,767.9L918.89,733.53L925.8,778.36L932.71,790.3L939.61,553.31L946.52,602.65L953.42,718.85L960.33,571.62L967.24,573.47L974.14,544.63L981.05,365.52L987.96,312.8L994.86,313.84L1001.8,304.86L1008.7,259.74L1015.6,89.527L1022.5,67.565L1029.4,136.53L1036.3,257.15L1043.2,80.771L1050.1,329.4L1057,167.36L1063.9,295.85L1070.8,260.84L1077.7,424.92L1084.6,414.43L1091.6,486.86L1098.5,606.29L1105.4,501.18L1112.3,657.82L1119.2,699.73L1126.1,800.73L1133,592.68L1139.9,745.95L1146.8,718.59L1153.7,750.49L1160.6,509.79L1167.5,618.16L1174.4,563.59L1181.3,422.45L1188.2,362.23L1195.1,324.47L1202.1,308.19L1209,130.96L1215.9,279.49L1222.8,224.64L1229.7,293.09L1236.6,58.133L1243.5,300.62L1250.4,149.24L1257.3,283.9L1264.2,326.55L1271.1,425.54L1278,461.96L1284.9,374.17L1291.8,373.52L1298.7,504.94L1305.7,670.29L1312.6,633.19L1319.5,612.16L1326.4,567.03L1333.3,669.42L1340.2,806.88L1347.1,628.25L1354,536.45L1360.9,658.06L1367.8,636.69L1374.7,464.14L1381.6,363.45L1388.5,466.32L1395.4,324.18L1402.3,251.12L1409.2,189.52L1416.2,120.74L1423.1,188.49L1430,101.02L1436.9,51.226" style="fill:none;stroke:#F15A60;stroke-width:1.25" />
<path d="M65.62,385.54A3.125,3.125 0 1 1 59.37,385.54A3.125,3.125 0 1 1 65.62,385.54Z" style="fill:none;stroke:#F15A60;stroke-width:0.625" />
<path d="M72.527,399.61A3.125,3.125 0 1 1 66.277,399.61A3.125,3.125 0 1 1 72.527,399.61Z" style="fill:none;stroke:#F15A60;stroke-width:0.625" />
<path d="M79.433,609.99A3.125,3.125 0 1 1 73.183,609.99A3.125,3.125 0 1 1 79.433,609.99Z" style="fill:none;stroke:#F15A60;stroke-width:0.625" />
<path d="M86.339,530.55L86.339,530.55A3.125,3.125 0 1 1 80.089,530.55A3.125,3.125 0 1 1 86.339,530.55Z" style="fill:none;stroke:#F15A60;stroke-width:0.625" />
<path d="M93.246,508.41A3.125,3.125 0 1 1 86.996,508.41A3.125,3.125 0 1 1 93.246,508.41Z" style="fill:none;stroke:#F15A60;stroke-width:0.625" />
<path d="M100.15,530.4A3.125,3.125 0 1 1 93.902,530.4A3.125,3.125 0 1 1 100.15,530.4Z" style="fill:none;stroke:#F15A60;stroke-width:0.625" />
<path d="M107.06,672.06L107.06,672.06A3.125,3.125 0 1 1 100.81,672.06A3.125,3.125 0 1 1 107.06,672.06Z" style="fill:none;stroke:#F15A60;stroke-width:0.625" />
<path d="M113.97,676.88L113.97,676.88A3.125,3.125 0 1 1 107.72,676.88A3.125,3.125 0 1 1 113.97,676.88Z" style="fill:none;stroke:#F15A60;stroke-width:0.625" />
<path d="M120.87,567.41L120.87,567.41A3.125,3.125 0 1 1 114.62,567.41A3.125,3.125 0 1 1 120.87,567.41Z" style="fill:none;stroke:#F15A60;stroke-width:0.625" />
<path d="M127.78,658.09L127.78,658.09A3.125,3.125 0 1 1 121.53,658.09A3.125,3.125 0 1 1 127.78,658.09Z" style="fill:none;stroke:#F15A60;stroke-width:0.625" />
<path d="M134.68,738.67L134.68,738.67A3.125,3.125 0 1 1 128.43,738.67A3.125,3.125 0 1 1 134.68,738.67Z" style="fill:none;stroke:#F15A60;stroke-width:0.625" />
<path d="M141.59,631.48A3.125,3.125 0 1 1 135.34,631.48A3.125,3.125 0 1 1 141.59,631.48Z" style="fill:none;stroke:#F15A60;stroke-width:0.625" />
<path d="M148.5,463.9A3.125,3.125 0 1 1 142.25,463.9A3.125,3.125 0 1 1 148.5,463.9Z" style="fill:none;stroke:#F15A60;stroke-width:0.625" />
<path d="M155.4,584.06L155.4,584.06A3.125,3.125 0 1 1 149.15,584.06A3.125,3.125 0 1 1 155.4,584.06Z" style="fill:none;stroke:#F15A60;stroke-width:0.625" />
<path d="M162.31,369.38L162.31,369.38A3.125,3.125 0 1 1 156.06,369.38A3.125,3.125 0 1 1 162.31,369.38Z" style="fill:none;stroke:#F15A60;stroke-width:0.625" />
<path d="M169.22,292.09A3.125,3.125 0 1 1 162.97,292.09A3.125,3.125 0 1 1 169.22,292.09Z" style="fill:none;stroke:#F15A60;stroke-width:0.625" />
<path d="M176.12,484.61A3.125,3.125 0 1 1 169.87,484.61A3.125,3.125 0 1 1 176.12,484.61Z" style="fill:none;stroke:#F15A60;stroke-width:0.625" />
<path d="M183.03,420.98A3.125,3.125 0 1 1 176.78,420.98A3.125,3.125 0 1 1 183.03,420.98Z" style="fill:none;stroke:#F15A60;stroke-width:0.625" />
<path d="M189.94,344.35L189.94,344.35A3.125,3.125 0 1 1 183.69,344.35A3.125,3.125 0 1 1 189.94,344.35Z" style="fill:none;stroke:#F15A60;stroke-width:0.625" />
<path d="M196.84,138.98A3.125,3.125 0 1 1 190.59,138.98A3.125,3.125 0 1 1 196.84,138.98Z" style="fill:none;stroke:#F15A60;stroke-width:0.625" />
<path d="M203.75,116.35L203.75,116.35A3.125,3.125 0 1 1 197.5,116.35A3.125,3.125 0 1 1 203.75,116.35Z" style="fill:none;stroke:#F15A60;stroke-width:0.625" />
<path d="M210.66,109.66L210.66,109.66A3.125,3.125 0 1 1 204.41,109.66A3.125,3.125 0 1 1 210.66,109.66Z" style="fill:none;stroke:#F15A60;stroke-width:0.625" />
<path d="M217.56,176.75A3.125,3.125 0 1 1 211.31,176.75A3.125,3.125 0 1 1 217.56,176.75Z" style="fill:none;stroke:#F15A60;stroke-width:0.625" />
<path d="M224.47,287.24L224.47,287.24A3.125,3.125 0 1 1 218.22,287.24A3.125,3.125 0 1 1 224.47,287.24Z" style="fill:none;stroke:#F15A60;stroke-width:0.625" />
<path d="M231.37,144.65A3.125,3.125 0 1 1 225.12,144.65A3.125,3.125 0 1 1 231.37,144.65Z" style="fill:none;stroke:#F15A60;stroke-width:0.625" />
<path d="M238.28,216.63L238.28,216.63A3.125,3.125 0 1 1 232.03,216.63A3.125,3.125 0 1 1 238.28,216.63Z" style="fill:none;stroke:#F15A60;stroke-width:0.625" />
<path d="M245.19,310.18A3.125,3.125 0 1 1 238.94,310.18A3.125,3.125 0 1 1 245.19,310.18Z" style="fill:none;stroke:#F15A60;stroke-width:0.625" />
<path d="M252.09,348.19A3.125,3.125 0 1 1 245.84,348.19A3.125,3.125 0 1 1 252.09,348.19Z" style="fill:none;stroke:#F15A60;stroke-width:0.625" />
<path d="M259,424.28A3.125,3.125 0 1 1 252.75,424.28A3.125,3.125 0 1 1 259,424.28Z" style="fill:none;stroke:#F15A60;stroke-width:0.625" />
<path d="M265.91,326.41A3.125,3.125 0 1 1 259.66,326.41A3.125,3.125 0 1 1 265.91,326.41Z" style="fill:none;stroke:#F15A60;stroke-width:0.625" />
<path d="M272.81,416.63A3.125,3.125 0 1 1 266.56,416.63A3.125,3.125 0 1 1 272.81,416.63Z" style="fill:none;stroke:#F15A60;stroke-width:0.625" />
<path d="M279.72,454.67A3.125,3.125 0 1 1 273.47,454.67A3.125,3.125 0 1 1 279.72,454.67Z" style="fill:none;stroke:#F15A60;stroke-width:0.625" />
<path d="M286.63,574.73L286.63,574.73A3.125,3.125 0 1 1 280.38,574.73A3.125,3.125 0 1 1 286.63,574.73Z" style="fill:none;stroke:#F15A60;stroke-width:0.625" />
<path d="M293.53,476.99A3.125,3.125 0 1 1 287.28,476.99A3.125,3.125 0 1 1 293.53,476.99Z" style="fill:none;stroke:#F15A60;stroke-width:0.625" />
<path d="M300.44,672.42A3.125,3.125 0 1 1 294.19,672.42A3.125,3.125 0 1 1 300.44,672.42Z" style="fill:none;stroke:#F15A60;stroke-width:0.625" />
<path d="M307.35,771.01A3.125,3.125 0 1 1 301.1,771.01A3.125,3.125 0 1 1 307.35,771.01Z" style="fill:none;stroke:#F15A60;stroke-width:0.625" />
<path d="M314.25,583.7A3.125,3.125 0 1 1 308,583.7A3.125,3.125 0 1 1 314.25,583.7Z" style="fill:none;stroke:#F15A60;stroke-width:0.625" />
<path d="M321.16,753.23L321.16,753.23A3.125,3.125 0 1 1 314.91,753.23A3.125,3.125 0 1 1 321.16,753.23Z" style="fill:none;stroke:#F15A60;stroke-width:0.625" />
<path d="M328.06,693.68A3.125,3.125 0 1 1 321.81,693.68A3.125,3.125 0 1 1 328.06,693.68Z" style="fill:none;stroke:#F15A60;stroke-width:0.625" />
<path d="M334.97,599.33A3.125,3.125 0 1 1 328.72,599.33A3.125,3.125 0 1 1 334.97,599.33Z" style="fill:none;stroke:#F15A60;stroke-width:0.625" />
<path d="M341.88,528.99L341.88,528.99A3.125,3.125 0 1 1 335.63,528.99A3.125,3.125 0 1 1 341.88,528.99Z" style="fill:none;stroke:#F15A60;stroke-width:0.625" />
<path d="M348.78,478.72A3.125,3.125 0 1 1 342.53,478.72A3.125,3.125 0 1 1 348.78,478.72Z" style="fill:none;stroke:#F15A60;stroke-width:0.625" />
<path d="M355.69,441.19A3.125,3.125 0 1 1 349.44,441.19A3.125,3.125 0 1 1 355.69,441.19Z" style="fill:none;stroke:#F15A60;stroke-width:0.625" />
<path d="M362.6,439.35A3.125,3.125 0 1 1 356.35,439.35A3.125,3.125 0 1 1 362.6,439.35Z" style="fill:none;stroke:#F15A60;stroke-width:0.625" />
<path d="M369.5,532.27A3.125,3.125 0 1 1 363.25,532.27A3.125,3.125 0 1 1 369.5,532.27Z" style="fill:none;stroke:#F15A60;stroke-width:0.625" />
<path d="M376.41,356.49A3.125,3.125 0 1 1 370.16,356.49A3.125,3.125 0 1 1 376.41,356.49Z" style="fill:none;stroke:#F15A60;stroke-width:0.625" />
<path d="M383.32,282.92A3.125,3.125 0 1 1 377.07,282.92A3.125,3.125 0 1 1 383.32,282.92Z" style="fill:none;stroke:#F15A60;stroke-width:0.625" />
<path d="M390.22,326.79A3.125,3.125 0 1 1 383.97,326.79A3.125,3.125 0 1 1 390.22,326.79Z" style="fill:none;stroke:#F15A60;stroke-width:0.625" />
<path d="M397.13,258.65A3.125,3.125 0 1 1 390.88,258.65A3.125,3.125 0 1 1 397.13,258.65Z" style="fill:none;stroke:#F15A60;stroke-width:0.625" />
<path d="M404.04,221.45L404.04,221.45A3.125,3.125 0 1 1 397.79,221.45A3.125,3.125 0 1 1 404.04,221.45Z" style="fill:none;stroke:#F15A60;stroke-width:0.625" />
<path d="M410.94,120.22A3.125,3.125 0 1 1 404.69,120.22A3.125,3.125 0 1 1 410.94,120.22Z" style="fill:none;stroke:#F15A60;stroke-width:0.625" />
<path d="M417.85,231.76A3.125,3.125 0 1 1 411.6,231.76A3.125,3.125 0 1 1 417.85,231.76Z" style="fill:none;stroke:#F15A60;stroke-width:0.625" />
<path d="M424.75,116.12A3.125,3.125 0 1 1 418.5,116.12A3.125,3.125 0 1 1 424.75,116.12Z" style="fill:none;stroke:#F15A60;stroke-width:0.625" />
<path d="M431.66,230.3L431.66,230.3A3.125,3.125 0 1 1 425.41,230.3A3.125,3.125 0 1 1 431.66,230.3Z" style="fill:none;stroke:#F15A60;stroke-width:0.625" />
<path d="M438.57,231.62A3.125,3.125 0 1 1 432.32,231.62A3.125,3.125 0 1 1 438.57,231.62Z" style="fill:none;stroke:#F15A60;stroke-width:0.625" />
<path d="M445.47,203.1A3.125,3.125 0 1 1 439.22,203.1A3.125,3.125 0 1 1 445.47,203.1Z" style="fill:none;stroke:#F15A60;stroke-width:0.625" />
<path d="M452.38,388.89L452.38,388.89A3.125,3.125 0 1 1 446.13,388.89A3.125,3.125 0 1 1 452.38,388.89Z" style="fill:none;stroke:#F15A60;stroke-width:0.625" />
<path d="M459.29,340.73A3.125,3.125 0 1 1 453.04,340.73A3.125,3.125 0 1 1 459.29,340.73Z" style="fill:none;stroke:#F15A60;stroke-width:0.625" />
<path d="M466.19,427.53A3.125,3.125 0 1 1 459.94,427.53A3.125,3.125 0 1 1 466.19,427.53Z" style="fill:none;stroke:#F15A60;stroke-width:0.625" />
<path d="M473.1,494.91A3.125,3.125 0 1 1 466.85,494.91A3.125,3.125 0 1 1 473.1,494.91Z" style="fill:none;stroke:#F15A60;stroke-width:0.625" />
<path d="M480.01,552.12A3.125,3.125 0 1 1 473.76,552.12A3.125,3.125 0 1 1 480.01,552.12Z" style="fill:none;stroke:#F15A60;stroke-width:0.625" />
<path d="M486.91,538.88A3.125,3.125 0 1 1 480.66,538.88A3.125,3.125 0 1 1 486.91,538.88Z" style="fill:none;stroke:#F15A60;stroke-width:0.625" />
<path d="M493.82,682.87A3.125,3.125 0 1 1 487.57,682.87A3.125,3.125 0 1 1 493.82,682.87Z" style="fill:none;stroke:#F15A60;stroke-width:0.625" />
<path d="M500.73,527.88L500.73,527.88A3.125,3.125 0 1 1 494.48,527.88A3.125,3.125 0 1 1 500.73,527.88Z" style="fill:none;stroke:#F15A60;stroke-width:0.625" />
<path d="M507.63,763.11A3.125,3.125 0 1 1 501.38,763.11A3.125,3.125 0 1 1 507.63,763.11Z" style="fill:none;stroke:#F15A60;stroke-width:0.625" />
<path d="M514.54,731.53A3.125,3.125 0 1 1 508.29,731.53A3.125,3.125 0 1 1 514.54,731.53Z" style="fill:none;stroke:#F15A60;stroke-width:0.625" />
<path d="M521.44,686.99A3.125,3.125 0 1 1 515.19,686.99A3.125,3.125 0 1 1 521.44,686.99Z" style="fill:none;stroke:#F15A60;stroke-width:0.625" />
<path d="M528.35,580.91A3.125,3.125 0 1 1 522.1,580.91A3.125,3.125 0 1 1 528.35,580.91Z" style="fill:none;stroke:#F15A60;stroke-width:0.625" />
<path d="M535.26,593.21A3.125,3.125 0 1 1 529.01,593.21A3.125,3.125 0 1 1 535.26,593.21Z" style="fill:none;stroke:#F15A60;stroke-width:0.625" />
<path d="M542.16,723.38A3.125,3.125 0 1 1 535.91,723.38A3.125,3.125 0 1 1 542.16,723.38Z" style="fill:none;stroke:#F15A60;stroke-width:0.625" />
<path d="M549.07,704.22A3.125,3.125 0 1 1 542.82,704.22A3.125,3.125 0 1 1 549.07,704.22Z" style="fill:none;stroke:#F15A60;stroke-width:0.625" />
<path d="M555.98,488.34A3.125,3.125 0 1 1 549.73,488.34A3.125,3.125 0 1 1 555.98,488.34Z" style="fill:none;stroke:#F15A60;stroke-width:0.625" />
<path d="M562.88,584.45A3.125,3.125 0 1 1 556.63,584.45A3.125,3.125 0 1 1 562.88,584.45Z" style="fill:none;stroke:#F15A60;stroke-width:0.625" />
<path d="M569.79,516.57A3.125,3.125 0 1 1 563.54,516.57A3.125,3.125 0 1 1 569.79,516.57Z" style="fill:none;stroke:#F15A60;stroke-width:0.625" />
<path d="M576.7,403.15A3.125,3.125 0 1 1 570.45,403.15A3.125,3.125 0 1 1 576.7,403.15Z" style="fill:none;stroke:#F15A60;stroke-width:0.625" />
<path d="M583.6,256.4A3.125,3.125 0 1 1 577.35,256.4A3.125,3.125 0 1 1 583.6,256.4Z" style="fill:none;stroke:#F15A60;stroke-width:0.625" />
<path d="M590.51,190.32A3.125,3.125 0 1 1 584.26,190.32A3.125,3.125 0 1 1 590.51,190.32Z" style="fill:none;stroke:#F15A60;stroke-width:0.625" />
<path d="M597.42,265.93A3.125,3.125 0 1 1 591.17,265.93A3.125,3.125 0 1 1 597.42,265.93Z" style="fill:none;stroke:#F15A60;stroke-width:0.625" />
<path d="M604.32,201.73L604.32,201.73A3.125,3.125 0 1 1 598.07,201.73A3.125,3.125 0 1 1 604.32,201.73Z" style="fill:none;stroke:#F15A60;stroke-width:0.625" />
<path d="M611.23,119.36A3.125,3.125 0 1 1 604.98,119.36A3.125,3.125 0 1 1 611.23,119.36Z" style="fill:none;stroke:#F15A60;stroke-width:0.625" />
<path d="M618.13,180.57A3.125,3.125 0 1 1 611.88,180.57A3.125,3.125 0 1 1 618.13,180.57Z" style="fill:none;stroke:#F15A60;stroke-width:0.625" />
<path d="M625.04,195.1A3.125,3.125 0 1 1 618.79,195.1A3.125,3.125 0 1 1 625.04,195.1Z" style="fill:none;stroke:#F15A60;stroke-width:0.625" />
<path d="M631.95,175.35A3.125,3.125 0 1 1 625.7,175.35A3.125,3.125 0 1 1 631.95,175.35Z" style="fill:none;stroke:#F15A60;stroke-width:0.625" />
<path d="M638.85,75.895A3.125,3.125 0 1 1 632.6,75.895A3.125,3.125 0 1 1 638.85,75.895Z" style="fill:none;stroke:#F15A60;stroke-width:0.625" />
<path d="M645.76,189.96A3.125,3.125 0 1 1 639.51,189.96A3.125,3.125 0 1 1 645.76,189.96Z" style="fill:none;stroke:#F15A60;stroke-width:0.625" />
<path d="M652.67,126.12A3.125,3.125 0 1 1 646.42,126.12A3.125,3.125 0 1 1 652.67,126.12Z" style="fill:none;stroke:#F15A60;stroke-width:0.625" />
<path d="M659.57,237.89A3.125,3.125 0 1 1 653.32,237.89A3.125,3.125 0 1 1 659.57,237.89Z" style="fill:none;stroke:#F15A60;stroke-width:0.625" />
<path d="M666.48,220.57A3.125,3.125 0 1 1 660.23,220.57A3.125,3.125 0 1 1 666.48,220.57Z" style="fill:none;stroke:#F15A60;stroke-width:0.625" />
<path d="M673.39,313.67A3.125,3.125 0 1 1 667.14,313.67A3.125,3.125 0 1 1 673.39,313.67Z" style="fill:none;stroke:#F15A60;stroke-width:0.625" />
<path d="M680.29,490.55A3.125,3.125 0 1 1 674.04,490.55A3.125,3.125 0 1 1 680.29,490.55Z" style="fill:none;stroke:#F15A60;stroke-width:0.625" />
<path d="M687.2,560.97A3.125,3.125 0 1 1 680.95,560.97A3.125,3.125 0 1 1 687.2,560.97Z" style="fill:none;stroke:#F15A60;stroke-width:0.625" />
<path d="M694.11,576.01A3.125,3.125 0 1 1 687.86,576.01A3.125,3.125 0 1 1 694.11,576.01Z" style="fill:none;stroke:#F15A60;stroke-width:0.625" />
<path d="M701.01,722.94A3.125,3.125 0 1 1 694.76,722.94A3.125,3.125 0 1 1 701.01,722.94Z" style="fill:none;stroke:#F15A60;stroke-width:0.625" />
<path d="M707.92,625.3A3.125,3.125 0 1 1 701.67,625.3A3.125,3.125 0 1 1 707.92,625.3Z" style="fill:none;stroke:#F15A60;stroke-width:0.625" />
<path d="M714.82,754.92A3.125,3.125 0 1 1 708.57,754.92A3.125,3.125 0 1 1 714.82,754.92Z" style="fill:none;stroke:#F15A60;stroke-width:0.625" />
<path d="M721.73,613.47A3.125,3.125 0 1 1 715.48,613.47A3.125,3.125 0 1 1 721.73,613.47Z" style="fill:none;stroke:#F15A60;stroke-width:0.625" />
<path d="M728.64,709.29A3.125,3.125 0 1 1 722.39,709.29A3.125,3.125 0 1 1 728.64,709.29Z" style="fill:none;stroke:#F15A60;stroke-width:0.625" />
<path d="M735.54,752.55A3.125,3.125 0 1 1 729.29,752.55A3.125,3.125 0 1 1 735.54,752.55Z" style="fill:none;stroke:#F15A60;stroke-width:0.625" />
<path d="M742.45,690.38A3.125,3.125 0 1 1 736.2,690.38A3.125,3.125 0 1 1 742.45,690.38Z" style="fill:none;stroke:#F15A60;stroke-width:0.625" />
<path d="M749.36,563.81L749.36,563.81A3.125,3.125 0 1 1 743.11,563.81A3.125,3.125 0 1 1 749.36,563.81Z" style="fill:none;stroke:#F15A60;stroke-width:0.625" />
<path d="M756.26,514.05A3.125,3.125 0 1 1 750.01,514.05A3.125,3.125 0 1 1 756.26,514.05Z" style="fill:none;stroke:#F15A60;stroke-width:0.625" />
<path d="M763.17,515.47A3.125,3.125 0 1 1 756.92,515.47A3.125,3.125 0 1 1 763.17,515.47Z" style="fill:none;stroke:#F15A60;stroke-width:0.625" />
<path d="M770.08,571.85L770.08,571.85A3.125,3.125 0 1 1 763.83,571.85A3.125,3.125 0 1 1 770.08,571.85Z" style="fill:none;stroke:#F15A60;stroke-width:0.625" />
<path d="M776.98,423.22L776.98,423.22A3.125,3.125 0 1 1 770.73,423.22A3.125,3.125 0 1 1 776.98,423.22Z" style="fill:none;stroke:#F15A60;stroke-width:0.625" />
<path d="M783.89,437.7L783.89,437.7A3.125,3.125 0 1 1 777.64,437.7A3.125,3.125 0 1 1 783.89,437.7Z" style="fill:none;stroke:#F15A60;stroke-width:0.625" />
<path d="M790.8,420.76A3.125,3.125 0 1 1 784.55,420.76A3.125,3.125 0 1 1 790.8,420.76Z" style="fill:none;stroke:#F15A60;stroke-width:0.625" />
<path d="M797.7,159.03L797.7,159.03A3.125,3.125 0 1 1 791.45,159.03A3.125,3.125 0 1 1 797.7,159.03Z" style="fill:none;stroke:#F15A60;stroke-width:0.625" />
<path d="M804.61,338.4L804.61,338.4A3.125,3.125 0 1 1 798.36,338.4A3.125,3.125 0 1 1 804.61,338.4Z" style="fill:none;stroke:#F15A60;stroke-width:0.625" />
<path d="M811.51,131.22A3.125,3.125 0 1 1 805.26,131.22A3.125,3.125 0 1 1 811.51,131.22Z" style="fill:none;stroke:#F15A60;stroke-width:0.625" />
<path d="M818.42,71.337L818.42,71.337A3.125,3.125 0 1 1 812.17,71.337A3.125,3.125 0 1 1 818.42,71.337Z" style="fill:none;stroke:#F15A60;stroke-width:0.625" />
<path d="M825.33,222.97A3.125,3.125 0 1 1 819.08,222.97A3.125,3.125 0 1 1 825.33,222.97Z" style="fill:none;stroke:#F15A60;stroke-width:0.625" />
<path d="M832.23,168.27L832.23,168.27A3.125,3.125 0 1 1 825.98,168.27A3.125,3.125 0 1 1 832.23,168.27Z" style="fill:none;stroke:#F15A60;stroke-width:0.625" />
<path d="M839.14,236.7A3.125,3.125 0 1 1 832.89,236.7A3.125,3.125 0 1 1 839.14,236.7Z" style="fill:none;stroke:#F15A60;stroke-width:0.625" />
<path d="M846.05,318.47A3.125,3.125 0 1 1 839.8,318.47A3.125,3.125 0 1 1 846.05,318.47Z" style="fill:none;stroke:#F15A60;stroke-width:0.625" />
<path d="M852.95,338.69L852.95,338.69A3.125,3.125 0 1 1 846.7,338.69A3.125,3.125 0 1 1 852.95,338.69Z" style="fill:none;stroke:#F15A60;stroke-width:0.625" />
<path d="M859.86,146.99A3.125,3.125 0 1 1 853.61,146.99A3.125,3.125 0 1 1 859.86,146.99Z" style="fill:none;stroke:#F15A60;stroke-width:0.625" />
<path d="M866.77,388.65L866.77,388.65A3.125,3.125 0 1 1 860.52,388.65A3.125,3.125 0 1 1 866.77,388.65Z" style="fill:none;stroke:#F15A60;stroke-width:0.625" />
<path d="M873.67,307.04L873.67,307.04A3.125,3.125 0 1 1 867.42,307.04A3.125,3.125 0 1 1 873.67,307.04Z" style="fill:none;stroke:#F15A60;stroke-width:0.625" />
<path d="M880.58,540.64L880.58,540.64A3.125,3.125 0 1 1 874.33,540.64A3.125,3.125 0 1 1 880.58,540.64Z" style="fill:none;stroke:#F15A60;stroke-width:0.625" />
<path d="M887.49,580.38A3.125,3.125 0 1 1 881.24,580.38A3.125,3.125 0 1 1 887.49,580.38Z" style="fill:none;stroke:#F15A60;stroke-width:0.625" />
<path d="M894.39,420.88L894.39,420.88A3.125,3.125 0 1 1 888.14,420.88A3.125,3.125 0 1 1 894.39,420.88Z" style="fill:none;stroke:#F15A60;stroke-width:0.625" />
<path d="M901.3,619.51L901.3,619.51A3.125,3.125 0 1 1 895.05,619.51A3.125,3.125 0 1 1 901.3,619.51Z" style="fill:none;stroke:#F15A60;stroke-width:0.625" />
<path d="M908.2,611.06A3.125,3.125 0 1 1 901.95,611.06A3.125,3.125 0 1 1 908.2,611.06Z" style="fill:none;stroke:#F15A60;stroke-width:0.625" />
<path d="M915.11,767.9L915.11,767.9A3.125,3.125 0 1 1 908.86,767.9A3.125,3.125 0 1 1 915.11,767.9Z" style="fill:none;stroke:#F15A60;stroke-width:0.625" />
<path d="M922.02,733.53L922.02,733.53A3.125,3.125 0 1 1 915.77,733.53A3.125,3.125 0 1 1 922.02,733.53Z" style="fill:none;stroke:#F15A60;stroke-width:0.625" />
<path d="M928.92,778.36L928.92,778.36A3.125,3.125 0 1 1 922.67,778.36A3.125,3.125 0 1 1 928.92,778.36Z" style="fill:none;stroke:#F15A60;stroke-width:0.625" />
<path d="M935.83,790.3A3.125,3.125 0 1 1 929.58,790.3A3.125,3.125 0 1 1 935.83,790.3Z" style="fill:none;stroke:#F15A60;stroke-width:0.625" />
<path d="M942.74,553.31A3.125,3.125 0 1 1 936.49,553.31A3.125,3.125 0 1 1 942.74,553.31Z" style="fill:none;stroke:#F15A60;stroke-width:0.625" />
<path d="M949.64,602.65L949.64,602.65A3.125,3.125 0 1 1 943.39,602.65A3.125,3.125 0 1 1 949.64,602.65Z" style="fill:none;stroke:#F15A60;stroke-width:0.625" />
<path d="M956.55,718.85L956.55,718.85A3.125,3.125 0 1 1 950.3,718.85A3.125,3.125 0 1 1 956.55,718.85Z" style="fill:none;stroke:#F15A60;stroke-width:0.625" />
<path d="M963.46,571.62L963.46,571.62A3.125,3.125 0 1 1 957.21,571.62A3.125,3.125 0 1 1 963.46,571.62Z" style="fill:none;stroke:#F15A60;stroke-width:0.625" />
<path d="M970.36,573.47A3.125,3.125 0 1 1 964.11,573.47A3.125,3.125 0 1 1 970.36,573.47Z" style="fill:none;stroke:#F15A60;stroke-width:0.625" />
<path d="M977.27,544.63A3.125,3.125 0 1 1 971.02,544.63A3.125,3.125 0 1 1 977.27,544.63Z" style="fill:none;stroke:#F15A60;stroke-width:0.625" />
<path d="M984.18,365.52L984.18,365.52A3.125,3.125 0 1 1 977.93,365.52A3.125,3.125 0 1 1 984.18,365.52Z" style="fill:none;stroke:#F15A60;stroke-width:0.625" />
<path d="M991.08,312.8A3.125,3.125 0 1 1 984.83,312.8A3.125,3.125 0 1 1 991.08,312.8Z" style="fill:none;stroke:#F15A60;stroke-width:0.625" />
<path d="M997.99,313.84L997.99,313.84A3.125,3.125 0 1 1 991.74,313.84A3.125,3.125 0 1 1 997.99,313.84Z" style="fill:none;stroke:#F15A60;stroke-width:0.625" />
<path d="M1004.9,304.86A3.125,3.125 0 1 1 998.64,304.86A3.125,3.125 0 1 1 1004.9,304.86Z" style="fill:none;stroke:#F15A60;stroke-width:0.625" />
<path d="M1011.8,259.74L1011.8,259.74A3.125,3.125 0 1 1 1005.6,259.74A3.125,3.125 0 1 1 1011.8,259.74Z" style="fill:none;stroke:#F15A60;stroke-width:0.625" />
<path d="M1018.7,89.527L1018.7,89.527A3.125,3.125 0 1 1 1012.5,89.527A3.125,3.125 0 1 1 1018.7,89.527Z" style="fill:none;stroke:#F15A60;stroke-width:0.625" />
<path d="M1025.6,67.565L1025.6,67.565A3.125,3.125 0 1 1 1019.4,67.565A3.125,3.125 0 1 1 1025.6,67.565Z" style="fill:none;stroke:#F15A60;stroke-width:0.625" />
<path d="M1032.5,136.53L1032.5,136.53A3.125,3.125 0 1 1 1026.3,136.53A3.125,3.125 0 1 1 1032.5,136.53Z" style="fill:none;stroke:#F15A60;stroke-width:0.625" />
<path d="M1039.4,257.15L1039.4,257.15A3.125,3.125 0 1 1 1033.2,257.15A3.125,3.125 0 1 1 1039.4,257.15Z" style="fill:none;stroke:#F15A60;stroke-width:0.625" />
<path d="M1046.3,80.771A3.125,3.125 0 1 1 1040.1,80.771A3.125,3.125 0 1 1 1046.3,80.771Z" style="fill:none;stroke:#F15A60;stroke-width:0.625" />
<path d="M1053.2,329.4A3.125,3.125 0 1 1 1047,329.4A3.125,3.125 0 1 1 1053.2,329.4Z" style="fill:none;stroke:#F15A60;stroke-width:0.625" />
<path d="M1060.1,167.36A3.125,3.125 0 1 1 1053.9,167.36A3.125,3.125 0 1 1 1060.1,167.36Z" style="fill:none;stroke:#F15A60;stroke-width:0.625" />
<path d="M1067.1,295.85L1067.1,295.85A3.125,3.125 0 1 1 1060.8,295.85A3.125,3.125 0 1 1 1067.1,295.85Z" style="fill:none;stroke:#F15A60;stroke-width:0.625" />
<path d="M1074,260.84L1074,260.84A3.125,3.125 0 1 1 1067.7,260.84A3.125,3.125 0 1 1 1074,260.84Z" style="fill:none;stroke:#F15A60;stroke-width:0.625" />
<path d="M1080.9,424.92A3.125,3.125 0 1 1 1074.6,424.92A3.125,3.125 0 1 1 1080.9,424.92Z" style="fill:none;stroke:#F15A60;stroke-width:0.625" />
<path d="M1087.8,414.43A3.125,3.125 0 1 1 1081.5,414.43A3.125,3.125 0 1 1 1087.8,414.43Z" style="fill:none;stroke:#F15A60;stroke-width:0.625" />
<path d="M1094.7,486.86L1094.7,486.86A3.125,3.125 0 1 1 1088.4,486.86A3.125,3.125 0 1 1 1094.7,486.86Z" style="fill:none;stroke:#F15A60;stroke-width:0.625" />
<path d="M1101.6,606.29A3.125,3.125 0 1 1 1095.3,606.29A3.125,3.125 0 1 1 1101.6,606.29Z" style="fill:none;stroke:#F15A60;stroke-width:0.625" />
<path d="M1108.5,501.18A3.125,3.125 0 1 1 1102.2,501.18A3.125,3.125 0 1 1 1108.5,501.18Z" style="fill:none;stroke:#F15A60;stroke-width:0.625" />
<path d="M1115.4,657.82A3.125,3.125 0 1 1 1109.1,657.82A3.125,3.125 0 1 1 1115.4,657.82Z" style="fill:none;stroke:#F15A60;stroke-width:0.625" />
<path d="M1122.3,699.73A3.125,3.125 0 1 1 1116.1,699.73A3.125,3.125 0 1 1 1122.3,699.73Z" style="fill:none;stroke:#F15A60;stroke-width:0.625" />
<path d="M1129.2,800.73A3.125,3.125 0 1 1 1123,800.73A3.125,3.125 0 1 1 1129.2,800.73Z" style="fill:none;stroke:#F15A60;stroke-width:0.625" />
<path d="M1136.1,592.68A3.125,3.125 0 1 1 1129.9,592.68A3.125,3.125 0 1 1 1136.1,592.68Z" style="fill:none;stroke:#F15A60;stroke-width:0.625" />
<path d="M1143,745.95L1143,745.95A3.125,3.125 0 1 1 1136.8,745.95A3.125,3.125 0 1 1 1143,745.95Z" style="fill:none;stroke:#F15A60;stroke-width:0.625" />
<path d="M1149.9,718.59A3.125,3.125 0 1 1 1143.7,718.59A3.125,3.125 0 1 1 1149.9,718.59Z" style="fill:none;stroke:#F15A60;stroke-width:0.625" />
<path d="M1156.8,750.49L1156.8,750.49A3.125,3.125 0 1 1 1150.6,750.49A3.125,3.125 0 1 1 1156.8,750.49Z" style="fill:none;stroke:#F15A60;stroke-width:0.625" />
<path d="M1163.7,509.79A3.125,3.125 0 1 1 1157.5,509.79A3.125,3.125 0 1 1 1163.7,509.79Z" style="fill:none;stroke:#F15A60;stroke-width:0.625" />
<path d="M1170.6,618.16A3.125,3.125 0 1 1 1164.4,618.16A3.125,3.125 0 1 1 1170.6,618.16Z" style="fill:none;stroke:#F15A60;stroke-width:0.625" />
<path d="M1177.6,563.59L1177.6,563.59A3.125,3.125 0 1 1 1171.3,563.59A3.125,3.125 0 1 1 1177.6,563.59Z" style="fill:none;stroke:#F15A60;stroke-width:0.625" />
<path d="M1184.5,422.45L1184.5,422.45A3.125,3.125 0 1 1 1178.2,422.45A3.125,3.125 0 1 1 1184.5,422.45Z" style="fill:none;stroke:#F15A60;stroke-width:0.625" />
<path d="M1191.4,362.23A3.125,3.125 0 1 1 1185.1,362.23A3.125,3.125 0 1 1 1191.4,362.23Z" style="fill:none;stroke:#F15A60;stroke-width:0.625" />
<path d="M1198.3,324.47A3.125,3.125 0 1 1 1192,324.47A3.125,3.125 0 1 1 1198.3,324.47Z" style="fill:none;stroke:#F15A60;stroke-width:0.625" />
<path d="M1205.2,308.19A3.125,3.125 0 1 1 1198.9,308.19A3.125,3.125 0 1 1 1205.2,308.19Z" style="fill:none;stroke:#F15A60;stroke-width:0.625" />
<path d="M1212.1,130.96A3.125,3.125 0 1 1 1205.8,130.96A3.125,3.125 0 1 1 1212.1,130.96Z" style="fill:none;stroke:#F15A60;stroke-width:0.625" />
<path d="M1219,279.49A3.125,3.125 0 1 1 1212.7,279.49A3.125,3.125 0 1 1 1219,279.49Z" style="fill:none;stroke:#F15A60;stroke-width:0.625" />
<path d="M1225.9,224.64A3.125,3.125 0 1 1 1219.7,224.64A3.125,3.125 0 1 1 1225.9,224.64Z" style="fill:none;stroke:#F15A60;stroke-width:0.625" />
<path d="M1232.8,293.09L1232.8,293.09A3.125,3.125 0 1 1 1226.6,293.09A3.125,3.125 0 1 1 1232.8,293.09Z" style="fill:none;stroke:#F15A60;stroke-width:0.625" />
<path d="M1239.7,58.133A3.125,3.125 0 1 1 1233.5,58.133A3.125,3.125 0 1 1 1239.7,58.133Z" style="fill:none;stroke:#F15A60;stroke-width:0.625" />
<path d="M1246.6,300.62L1246.6,300.62A3.125,3.125 0 1 1 1240.4,300.62A3.125,3.125 0 1 1 1246.6,300.62Z" style="fill:none;stroke:#F15A60;stroke-width:0.625" />
<path d="M1253.5,149.24A3.125,3.125 0 1 1 1247.3,149.24A3.125,3.125 0 1 1 1253.5,149.24Z" style="fill:none;stroke:#F15A60;stroke-width:0.625" />
<path d="M1260.4,283.9L1260.4,283.9A3.125,3.125 0 1 1 1254.2,283.9A3.125,3.125 0 1 1 1260.4,283.9Z" style="fill:none;stroke:#F15A60;stroke-width:0.625" />
<path d="M1267.3,326.55A3.125,3.125 0 1 1 1261.1,326.55A3.125,3.125 0 1 1 1267.3,326.55Z" style="fill:none;stroke:#F15A60;stroke-width:0.625" />
<path d="M1274.2,425.54A3.125,3.125 0 1 1 1268,425.54A3.125,3.125 0 1 1 1274.2,425.54Z" style="fill:none;stroke:#F15A60;stroke-width:0.625" />
<path d="M1281.2,461.96L1281.2,461.96A3.125,3.125 0 1 1 1274.9,461.96A3.125,3.125 0 1 1 1281.2,461.96Z" style="fill:none;stroke:#F15A60;stroke-width:0.625" />
<path d="M1288.1,374.17L1288.1,374.17A3.125,3.125 0 1 1 1281.8,374.17A3.125,3.125 0 1 1 1288.1,374.17Z" style="fill:none;stroke:#F15A60;stroke-width:0.625" />
<path d="M1295,373.52L1295,373.52A3.125,3.125 0 1 1 1288.7,373.52A3.125,3.125 0 1 1 1295,373.52Z" style="fill:none;stroke:#F15A60;stroke-width:0.625" />
<path d="M1301.9,504.94A3.125,3.125 0 1 1 1295.6,504.94A3.125,3.125 0 1 1 1301.9,504.94Z" style="fill:none;stroke:#F15A60;stroke-width:0.625" />
<path d="M1308.8,670.29A3.125,3.125 0 1 1 1302.5,670.29A3.125,3.125 0 1 1 1308.8,670.29Z" style="fill:none;stroke:#F15A60;stroke-width:0.625" />
<path d="M1315.7,633.19A3.125,3.125 0 1 1 1309.4,633.19A3.125,3.125 0 1 1 1315.7,633.19Z" style="fill:none;stroke:#F15A60;stroke-width:0.625" />
<path d="M1322.6,612.16A3.125,3.125 0 1 1 1316.3,612.16A3.125,3.125 0 1 1 1322.6,612.16Z" style="fill:none;stroke:#F15A60;stroke-width:0.625" />
<path d="M1329.5,567.03A3.125,3.125 0 1 1 1323.2,567.03A3.125,3.125 0 1 1 1329.5,567.03Z" style="fill:none;stroke:#F15A60;stroke-width:0.625" />
<path d="M1336.4,669.42L1336.4,669.42A3.125,3.125 0 1 1 1330.2,669.42A3.125,3.125 0 1 1 1336.4,669.42Z" style="fill:none;stroke:#F15A60;stroke-width:0.625" />
<path d="M1343.3,806.88L1343.3,806.88A3.125,3.125 0 1 1 1337.1,806.88A3.125,3.125 0 1 1 1343.3,806.88Z" style="fill:none;stroke:#F15A60;stroke-width:0.625" />
<path d="M1350.2,628.25L1350.2,628.25A3.125,3.125 0 1 1 1344,628.25A3.125,3.125 0 1 1 1350.2,628.25Z" style="fill:none;stroke:#F15A60;stroke-width:0.625" />
<path d="M1357.1,536.45A3.125,3.125 0 1 1 1350.9,536.45A3.125,3.125 0 1 1 1357.1,536.45Z" style="fill:none;stroke:#F15A60;stroke-width:0.625" />
<path d="M1364,658.06A3.125,3.125 0 1 1 1357.8,658.06A3.125,3.125 0 1 1 1364,658.06Z" style="fill:none;stroke:#F15A60;stroke-width:0.625" />
<path d="M1370.9,636.69A3.125,3.125 0 1 1 1364.7,636.69A3.125,3.125 0 1 1 1370.9,636.69Z" style="fill:none;stroke:#F15A60;stroke-width:0.625" />
<path d="M1377.8,464.14A3.125,3.125 0 1 1 1371.6,464.14A3.125,3.125 0 1 1 1377.8,464.14Z" style="fill:none;stroke:#F15A60;stroke-width:0.625" />
<path d="M1384.7,363.45A3.125,3.125 0 1 1 1378.5,363.45A3.125,3.125 0 1 1 1384.7,363.45Z" style="fill:none;stroke:#F15A60;stroke-width:0.625" />
<path d="M1391.7,466.32L1391.7,466.32A3.125,3.125 0 1 1 1385.4,466.32A3.125,3.125 0 1 1 1391.7,466.32Z" style="fill:none;stroke:#F15A60;stroke-width:0.625" />
<path d="M1398.6,324.18A3.125,3.125 0 1 1 1392.3,324.18A3.125,3.125 0 1 1 1398.6,324.18Z" style="fill:none;stroke:#F15A60;stroke-width:0.625" />
<path d="M1405.5,251.12L1405.5,251.12A3.125,3.125 0 1 1 1399.2,251.12A3.125,3.125 0 1 1 1405.5,251.12Z" style="fill:none;stroke:#F15A60;stroke-width:0.625" />
<path d="M1412.4,189.52L1412.4,189.52A3.125,3.125 0 1 1 1406.1,189.52A3.125,3.125 0 1 1 1412.4,189.52Z" style="fill:none;stroke:#F15A60;stroke-width:0.625" />
<path d="M1419.3,120.74A3.125,3.125 0 1 1 1413,120.74A3.125,3.125 0 1 1 1419.3,120.74Z" style="fill:none;stroke:#F15A60;stroke-width:0.625" />
<path d="M1426.2,188.49L1426.2,188.49A3.125,3.125 0 1 1 1419.9,188.49A3.125,3.125 0 1 1 1426.2,188.49Z" style="fill:none;stroke:#F15A60;stroke-width:0.625" />
<path d="M1433.1,101.02A3.125,3.125 0 1 1 1426.8,101.02A3.125,3.125 0 1 1 1433.1,101.02Z" style="fill:none;stroke:#F15A60;stroke-width:0.625" />
<path d="M1440,51.226A3.125,3.125 0 1 1 1433.8,51.226A3.125,3.125 0 1 1 1440,51.226Z" style="fill:none;stroke:#F15A60;stroke-width:0.625" />
<path d="M62.495,502.36L69.402,506.58L76.308,537.6L83.214,535.49L90.121,527.36L97.027,528.27L103.93,571.41L110.84,603.05L117.75,592.36L124.65,612.08L131.56,650.06L138.47,644.48L145.37,590.31L152.28,588.44L159.19,522.72L166.09,453.53L173,462.85L179.9,450.29L186.81,418.51L193.72,334.65L200.62,269.16L207.53,221.31L214.44,207.94L221.34,231.73L228.25,205.61L235.16,208.91L242.06,239.3L248.97,271.96L255.88,317.66L262.78,320.28L269.69,349.19L276.59,380.83L283.5,439L290.41,450.4L297.31,517L304.22,593.2L311.13,590.35L318.03,639.21L324.94,655.55L331.85,638.69L338.75,605.78L345.66,567.66L352.57,529.72L359.47,502.61L366.38,511.51L373.28,465L380.19,410.38L387.1,385.3L394,347.3L400.91,309.55L407.82,252.75L414.72,246.45L421.63,207.35L428.54,214.24L435.44,219.45L442.35,214.55L449.26,266.85L456.16,289.01L463.07,330.57L469.97,379.87L476.88,431.54L483.79,463.74L490.69,529.48L497.6,529L504.51,599.24L511.41,638.93L518.32,653.34L525.23,631.61L532.13,620.09L539.04,651.08L545.95,667.02L552.85,613.42L559.76,604.73L566.66,578.28L573.57,525.74L580.48,444.94L587.38,368.55L594.29,337.76L601.2,296.96L608.1,243.68L615.01,224.75L621.92,215.85L628.82,203.7L635.73,165.36L642.64,172.74L649.54,158.75L656.45,182.49L663.35,193.92L670.26,229.84L677.17,308.05L684.07,383.93L690.98,441.55L697.89,525.97L704.79,555.77L711.7,615.51L718.61,614.9L725.51,643.22L732.42,676.02L739.33,680.33L746.23,645.37L753.14,605.97L760.04,578.82L766.95,576.73L773.86,530.68L780.76,502.79L787.67,478.18L794.58,382.43L801.48,369.22L808.39,297.82L815.3,229.88L822.2,227.8L829.11,209.94L836.02,217.97L842.92,248.12L849.83,275.29L856.73,236.8L863.64,282.36L870.55,289.76L877.45,365.02L884.36,429.63L891.27,427.01L898.17,484.76L905.08,522.65L911.99,596.22L918.89,637.41L925.8,679.7L932.71,712.88L939.61,665.01L946.52,646.3L953.42,668.07L960.33,639.13L967.24,619.43L974.14,596.99L981.05,527.55L987.96,463.12L994.86,418.34L1001.8,384.29L1008.7,346.93L1015.6,269.71L1022.5,209.07L1029.4,187.31L1036.3,208.26L1043.2,170.01L1050.1,217.83L1057,202.69L1063.9,230.64L1070.8,239.7L1077.7,295.26L1084.6,331.01L1091.6,377.77L1098.5,446.32L1105.4,462.78L1112.3,521.29L1119.2,574.82L1126.1,642.6L1133,627.62L1139.9,663.12L1146.8,679.76L1153.7,700.98L1160.6,643.62L1167.5,635.98L1174.4,614.27L1181.3,556.72L1188.2,498.37L1195.1,446.2L1202.1,404.8L1209,322.65L1215.9,309.7L1222.8,284.18L1229.7,286.85L1236.6,218.24L1243.5,242.95L1250.4,214.84L1257.3,235.56L1264.2,262.85L1271.1,311.66L1278,356.75L1284.9,361.98L1291.8,365.44L1298.7,407.29L1305.7,486.19L1312.6,530.29L1319.5,554.85L1326.4,558.51L1333.3,591.78L1340.2,656.31L1347.1,647.89L1354,614.46L1360.9,627.54L1367.8,630.29L1374.7,580.44L1381.6,515.34L1388.5,500.64L1395.4,447.7L1402.3,388.73L1409.2,328.96L1416.2,266.5L1423.1,243.1L1430,200.47L1436.9,155.7" style="fill:none;stroke:#7AC36A;stroke-width:1.25;stroke-dasharray:7.5,2.5" />
<path d="M59.828,499.69L65.162,499.69L65.162,505.02L59.828,505.02Z" style="fill:none;stroke:#7AC36A;stroke-width:0.625" />
<path d="M66.734,503.91L72.069,503.91L72.069,509.25L66.734,509.25Z" style="fill:none;stroke:#7AC36A;stroke-width:0.625" />
<path d="M73.641,534.94L78.975,534.94L78.975,540.27L73.641,540.27Z" style="fill:none;stroke:#7AC36A;stroke-width:0.625" />
<path d="M80.547,532.82L85.882,532.82L85.882,538.15L80.547,538.15Z" style="fill:none;stroke:#7AC36A;stroke-width:0.625" />
<path d="M87.453,524.7L92.788,524.7L92.788,530.03L87.453,530.03Z" style="fill:none;stroke:#7AC36A;stroke-width:0.625" />
<path d="M94.36,525.61L99.695,525.61L99.695,530.94L94.36,530.94Z" style="fill:none;stroke:#7AC36A;stroke-width:0.625" />
<path d="M101.27,568.74L106.6,568.74L106.6,574.08L101.27,574.08Z" style="fill:none;stroke:#7AC36A;stroke-width:0.625" />
<path d="M108.17,600.38L113.51,600.38L113.51,605.72L108.17,605.72Z" style="fill:none;stroke:#7AC36A;stroke-width:0.625" />
<path d="M115.08,589.69L120.41,589.69L120.41,595.03L115.08,595.03Z" style="fill:none;stroke:#7AC36A;stroke-width:0.625" />
<path d="M121.99,609.41L127.32,609.41L127.32,614.75L121.99,614.75Z" style="fill:none;stroke:#7AC36A;stroke-width:0.625" />
<path d="M128.89,647.39L134.23,647.39L134.23,652.72L128.89,652.72Z" style="fill:none;stroke:#7AC36A;stroke-width:0.625" />
<path d="M135.8,641.82L141.13,641.82L141.13,647.15L135.8,647.15Z" style="fill:none;stroke:#7AC36A;stroke-width:0.625" />
<path d="M142.7,587.64L148.04,587.64L148.04,592.98L142.7,592.98Z" style="fill:none;stroke:#7AC36A;stroke-width:0.625" />
<path d="M149.61,585.77L154.95,585.77L154.95,591.1L149.61,591.1Z" style="fill:none;stroke:#7AC36A;stroke-width:0.625" />
<path d="M156.52,520.05L161.85,520.05L161.85,525.39L156.52,525.39Z" style="fill:none;stroke:#7AC36A;stroke-width:0.625" />
<path d="M163.42,450.86L168.76,450.86L168.76,456.2L163.42,456.2Z" style="fill:none;stroke:#7AC36A;stroke-width:0.625" />
<path d="M170.33,460.18L175.67,460.18L175.67,465.52L170.33,465.52Z" style="fill:none;stroke:#7AC36A;stroke-width:0.625" />
<path d="M177.24,447.62L182.57,447.62L182.57,452.96L177.24,452.96Z" style="fill:none;stroke:#7AC36A;stroke-width:0.625" />
<path d="M184.14,415.84L189.48,415.84L189.48,421.18L184.14,421.18Z" style="fill:none;stroke:#7AC36A;stroke-width:0.625" />
<path d="M191.05,331.98L196.38,331.98L196.38,337.32L191.05,337.32Z" style="fill:none;stroke:#7AC36A;stroke-width:0.625" />
<path d="M197.96,266.49L203.29,266.49L203.29,271.83L197.96,271.83Z" style="fill:none;stroke:#7AC36A;stroke-width:0.625" />
<path d="M204.86,218.64L210.2,218.64L210.2,223.98L204.86,223.98Z" style="fill:none;stroke:#7AC36A;stroke-width:0.625" />
<path d="M211.77,205.27L217.1,205.27L217.1,210.61L211.77,210.61Z" style="fill:none;stroke:#7AC36A;stroke-width:0.625" />
<path d="M218.68,229.06L224.01,229.06L224.01,234.4L218.68,234.4Z" style="fill:none;stroke:#7AC36A;stroke-width:0.625" />
<path d="M225.58,202.94L230.92,202.94L230.92,208.27L225.58,208.27Z" style="fill:none;stroke:#7AC36A;stroke-width:0.625" />
<path d="M232.49,206.25L237.82,206.25L237.82,211.58L232.49,211.58Z" style="fill:none;stroke:#7AC36A;stroke-width:0.625" />
<path d="M239.39,236.63L244.73,236.63L244.73,241.96L239.39,241.96Z" style="fill:none;stroke:#7AC36A;stroke-width:0.625" />
<path d="M246.3,269.3L251.64,269.3L251.64,274.63L246.3,274.63Z" style="fill:none;stroke:#7AC36A;stroke-width:0.625" />
<path d="M253.21,314.99L258.54,314.99L258.54,320.33L253.21,320.33Z" style="fill:none;stroke:#7AC36A;stroke-width:0.625" />
<path d="M260.11,317.62L265.45,317.62L265.45,322.95L260.11,322.95Z" style="fill:none;stroke:#7AC36A;stroke-width:0.625" />
<path d="M267.02,346.52L272.36,346.52L272.36,351.86L267.02,351.86Z" style="fill:none;stroke:#7AC36A;stroke-width:0.625" />
<path d="M273.93,378.16L279.26,378.16L279.26,383.5L273.93,383.5Z" style="fill:none;stroke:#7AC36A;stroke-width:0.625" />
<path d="M280.83,436.33L286.17,436.33L286.17,441.67L280.83,441.67Z" style="fill:none;stroke:#7AC36A;stroke-width:0.625" />
<path d="M287.74,447.73L293.07,447.73L293.07,453.07L287.74,453.07Z" style="fill:none;stroke:#7AC36A;stroke-width:0.625" />
<path d="M294.65,514.34L299.98,514.34L299.98,519.67L294.65,519.67Z" style="fill:none;stroke:#7AC36A;stroke-width:0.625" />
<path d="M301.55,590.54L306.89,590.54L306.89,595.87L301.55,595.87Z" style="fill:none;stroke:#7AC36A;stroke-width:0.625" />
<path d="M308.46,587.69L313.79,587.69L313.79,593.02L308.46,593.02Z" style="fill:none;stroke:#7AC36A;stroke-width:0.625" />
<path d="M315.37,636.55L320.7,636.55L320.7,641.88L315.37,641.88Z" style="fill:none;stroke:#7AC36A;stroke-width:0.625" />
<path d="M322.27,652.89L327.61,652.89L327.61,658.22L322.27,658.22Z" style="fill:none;stroke:#7AC36A;stroke-width:0.625" />
<path d="M329.18,636.02L334.51,636.02L334.51,641.35L329.18,641.35Z" style="fill:none;stroke:#7AC36A;stroke-width:0.625" />
<path d="M336.09,603.11L341.42,603.11L341.42,608.44L336.09,608.44Z" style="fill:none;stroke:#7AC36A;stroke-width:0.625" />
<path d="M342.99,564.99L348.33,564.99L348.33,570.33L342.99,570.33Z" style="fill:none;stroke:#7AC36A;stroke-width:0.625" />
<path d="M349.9,527.05L355.23,527.05L355.23,532.39L349.9,532.39Z" style="fill:none;stroke:#7AC36A;stroke-width:0.625" />
<path d="M356.8,499.94L362.14,499.94L362.14,505.28L356.8,505.28Z" style="fill:none;stroke:#7AC36A;stroke-width:0.625" />
<path d="M363.71,508.84L369.05,508.84L369.05,514.17L363.71,514.17Z" style="fill:none;stroke:#7AC36A;stroke-width:0.625" />
<path d="M370.62,462.34L375.95,462.34L375.95,467.67L370.62,467.67Z" style="fill:none;stroke:#7AC36A;stroke-width:0.625" />
<path d="M377.52,407.71L382.86,407.71L382.86,413.04L377.52,413.04Z" style="fill:none;stroke:#7AC36A;stroke-width:0.625" />
<path d="M384.43,382.63L389.76,382.63L389.76,387.97L384.43,387.97Z" style="fill:none;stroke:#7AC36A;stroke-width:0.625" />
<path d="M391.34,344.64L396.67,344.64L396.67,349.97L391.34,349.97Z" style="fill:none;stroke:#7AC36A;stroke-width:0.625" />
<path d="M398.24,306.88L403.58,306.88L403.58,312.22L398.24,312.22Z" style="fill:none;stroke:#7AC36A;stroke-width:0.625" />
<path d="M405.15,250.08L410.48,250.08L410.48,255.42L405.15,255.42Z" style="fill:none;stroke:#7AC36A;stroke-width:0.625" />
<path d="M412.06,243.79L417.39,243.79L417.39,249.12L412.06,249.12Z" style="fill:none;stroke:#7AC36A;stroke-width:0.625" />
<path d="M418.96,204.68L424.3,204.68L424.3,210.02L418.96,210.02Z" style="fill:none;stroke:#7AC36A;stroke-width:0.625" />
<path d="M425.87,211.57L431.2,211.57L431.2,216.91L425.87,216.91Z" style="fill:none;stroke:#7AC36A;stroke-width:0.625" />
<path d="M432.78,216.79L438.11,216.79L438.11,222.12L432.78,222.12Z" style="fill:none;stroke:#7AC36A;stroke-width:0.625" />
<path d="M439.68,211.88L445.02,211.88L445.02,217.22L439.68,217.22Z" style="fill:none;stroke:#7AC36A;stroke-width:0.625" />
<path d="M446.59,264.18L451.92,264.18L451.92,269.52L446.59,269.52Z" style="fill:none;stroke:#7AC36A;stroke-width:0.625" />
<path d="M453.49,286.35L458.83,286.35L458.83,291.68L453.49,291.68Z" style="fill:none;stroke:#7AC36A;stroke-width:0.625" />
<path d="M460.4,327.9L465.74,327.9L465.74,333.24L460.4,333.24Z" style="fill:none;stroke:#7AC36A;stroke-width:0.625" />
<path d="M467.31,377.2L472.64,377.2L472.64,382.54L467.31,382.54Z" style="fill:none;stroke:#7AC36A;stroke-width:0.625" />
<path d="M474.21,428.88L479.55,428.88L479.55,434.21L474.21,434.21Z" style="fill:none;stroke:#7AC36A;stroke-width:0.625" />
<path d="M481.12,461.08L486.45,461.08L486.45,466.41L481.12,466.41Z" style="fill:none;stroke:#7AC36A;stroke-width:0.625" />
<path d="M488.03,526.81L493.36,526.81L493.36,532.15L488.03,532.15Z" style="fill:none;stroke:#7AC36A;stroke-width:0.625" />
<path d="M494.93,526.33L500.27,526.33L500.27,531.67L494.93,531.67Z" style="fill:none;stroke:#7AC36A;stroke-width:0.625" />
<path d="M501.84,596.57L507.17,596.57L507.17,601.9L501.84,601.9Z" style="fill:none;stroke:#7AC36A;stroke-width:0.625" />
<path d="M508.75,636.26L514.08,636.26L514.08,641.59L508.75,641.59Z" style="fill:none;stroke:#7AC36A;stroke-width:0.625" />
<path d="M515.65,650.68L520.99,650.68L520.99,656.01L515.65,656.01Z" style="fill:none;stroke:#7AC36A;stroke-width:0.625" />
<path d="M522.56,628.95L527.89,628.95L527.89,634.28L522.56,634.28Z" style="fill:none;stroke:#7AC36A;stroke-width:0.625" />
<path d="M529.47,617.43L534.8,617.43L534.8,622.76L529.47,622.76Z" style="fill:none;stroke:#7AC36A;stroke-width:0.625" />
<path d="M536.37,648.41L541.71,648.41L541.71,653.75L536.37,653.75Z" style="fill:none;stroke:#7AC36A;stroke-width:0.625" />
<path d="M543.28,664.35L548.61,664.35L548.61,669.69L543.28,669.69Z" style="fill:none;stroke:#7AC36A;stroke-width:0.625" />
<path d="M550.18,610.75L555.52,610.75L555.52,616.08L550.18,616.08Z" style="fill:none;stroke:#7AC36A;stroke-width:0.625" />
<path d="M557.09,602.06L562.43,602.06L562.43,607.39L557.09,607.39Z" style="fill:none;stroke:#7AC36A;stroke-width:0.625" />
<path d="M564,575.61L569.33,575.61L569.33,580.95L564,580.95Z" style="fill:none;stroke:#7AC36A;stroke-width:0.625" />
<path d="M570.9,523.07L576.24,523.07L576.24,528.41L570.9,528.41Z" style="fill:none;stroke:#7AC36A;stroke-width:0.625" />
<path d="M577.81,442.27L583.14,442.27L583.14,447.61L577.81,447.61Z" style="fill:none;stroke:#7AC36A;stroke-width:0.625" />
<path d="M584.72,365.88L590.05,365.88L590.05,371.22L584.72,371.22Z" style="fill:none;stroke:#7AC36A;stroke-width:0.625" />
<path d="M591.62,335.1L596.96,335.1L596.96,340.43L591.62,340.43Z" style="fill:none;stroke:#7AC36A;stroke-width:0.625" />
<path d="M598.53,294.29L603.86,294.29L603.86,299.62L598.53,299.62Z" style="fill:none;stroke:#7AC36A;stroke-width:0.625" />
<path d="M605.44,241.01L610.77,241.01L610.77,246.35L605.44,246.35Z" style="fill:none;stroke:#7AC36A;stroke-width:0.625" />
<path d="M612.34,222.08L617.68,222.08L617.68,227.41L612.34,227.41Z" style="fill:none;stroke:#7AC36A;stroke-width:0.625" />
<path d="M619.25,213.19L624.58,213.19L624.58,218.52L619.25,218.52Z" style="fill:none;stroke:#7AC36A;stroke-width:0.625" />
<path d="M626.16,201.03L631.49,201.03L631.49,206.37L626.16,206.37Z" style="fill:none;stroke:#7AC36A;stroke-width:0.625" />
<path d="M633.06,162.69L638.4,162.69L638.4,168.03L633.06,168.03Z" style="fill:none;stroke:#7AC36A;stroke-width:0.625" />
<path d="M639.97,170.07L645.3,170.07L645.3,175.41L639.97,175.41Z" style="fill:none;stroke:#7AC36A;stroke-width:0.625" />
<path d="M646.87,156.08L652.21,156.08L652.21,161.42L646.87,161.42Z" style="fill:none;stroke:#7AC36A;stroke-width:0.625" />
<path d="M653.78,179.82L659.12,179.82L659.12,185.16L653.78,185.16Z" style="fill:none;stroke:#7AC36A;stroke-width:0.625" />
<path d="M660.69,191.25L666.02,191.25L666.02,196.58L660.69,196.58Z" style="fill:none;stroke:#7AC36A;stroke-width:0.625" />
<path d="M667.59,227.18L672.93,227.18L672.93,232.51L667.59,232.51Z" style="fill:none;stroke:#7AC36A;stroke-width:0.625" />
<path d="M674.5,305.39L679.83,305.39L679.83,310.72L674.5,310.72Z" style="fill:none;stroke:#7AC36A;stroke-width:0.625" />
<path d="M681.41,381.26L686.74,381.26L686.74,386.59L681.41,386.59Z" style="fill:none;stroke:#7AC36A;stroke-width:0.625" />
<path d="M688.31,438.88L693.65,438.88L693.65,444.22L688.31,444.22Z" style="fill:none;stroke:#7AC36A;stroke-width:0.625" />
<path d="M695.22,523.3L700.55,523.3L700.55,528.64L695.22,528.64Z" style="fill:none;stroke:#7AC36A;stroke-width:0.625" />
<path d="M702.13,553.1L707.46,553.1L707.46,558.44L702.13,558.44Z" style="fill:none;stroke:#7AC36A;stroke-width:0.625" />
<path d="M709.03,612.85L714.37,612.85L714.37,618.18L709.03,618.18Z" style="fill:none;stroke:#7AC36A;stroke-width:0.625" />
<path d="M715.94,612.23L721.27,612.23L721.27,617.57L715.94,617.57Z" style="fill:none;stroke:#7AC36A;stroke-width:0.625" />
<path d="M722.85,640.55L728.18,640.55L728.18,645.89L722.85,645.89Z" style="fill:none;stroke:#7AC36A;stroke-width:0.625" />
<path d="M729.75,673.35L735.09,673.35L735.09,678.69L729.75,678.69Z" style="fill:none;stroke:#7AC36A;stroke-width:0.625" />
<path d="M736.66,677.66L741.99,677.66L741.99,682.99L736.66,682.99Z" style="fill:none;stroke:#7AC36A;stroke-width:0.625" />
<path d="M743.56,642.7L748.9,642.7L748.9,648.04L743.56,648.04Z" style="fill:none;stroke:#7AC36A;stroke-width:0.625" />
<path d="M750.47,603.31L755.81,603.31L755.81,608.64L750.47,608.64Z" style="fill:none;stroke:#7AC36A;stroke-width:0.625" />
<path d="M757.38,576.16L762.71,576.16L762.71,581.49L757.38,581.49Z" style="fill:none;stroke:#7AC36A;stroke-width:0.625" />
<path d="M764.28,574.07L769.62,574.07L769.62,579.4L764.28,579.4Z" style="fill:none;stroke:#7AC36A;stroke-width:0.625" />
<path d="M771.19,528.01L776.52,528.01L776.52,533.34L771.19,533.34Z" style="fill:none;stroke:#7AC36A;stroke-width:0.625" />
<path d="M778.1,500.12L783.43,500.12L783.43,505.45L778.1,505.45Z" style="fill:none;stroke:#7AC36A;stroke-width:0.625" />
<path d="M785,475.51L790.34,475.51L790.34,480.85L785,480.85Z" style="fill:none;stroke:#7AC36A;stroke-width:0.625" />
<path d="M791.91,379.76L797.24,379.76L797.24,385.1L791.91,385.1Z" style="fill:none;stroke:#7AC36A;stroke-width:0.625" />
<path d="M798.82,366.55L804.15,366.55L804.15,371.89L798.82,371.89Z" style="fill:none;stroke:#7AC36A;stroke-width:0.625" />
<path d="M805.72,295.16L811.06,295.16L811.06,300.49L805.72,300.49Z" style="fill:none;stroke:#7AC36A;stroke-width:0.625" />
<path d="M812.63,227.21L817.96,227.21L817.96,232.54L812.63,232.54Z" style="fill:none;stroke:#7AC36A;stroke-width:0.625" />
<path d="M819.54,225.14L824.87,225.14L824.87,230.47L819.54,230.47Z" style="fill:none;stroke:#7AC36A;stroke-width:0.625" />
<path d="M826.44,207.28L831.78,207.28L831.78,212.61L826.44,212.61Z" style="fill:none;stroke:#7AC36A;stroke-width:0.625" />
<path d="M833.35,215.3L838.68,215.3L838.68,220.64L833.35,220.64Z" style="fill:none;stroke:#7AC36A;stroke-width:0.625" />
<path d="M840.25,245.45L845.59,245.45L845.59,250.79L840.25,250.79Z" style="fill:none;stroke:#7AC36A;stroke-width:0.625" />
<path d="M847.16,272.62L852.5,272.62L852.5,277.96L847.16,277.96Z" style="fill:none;stroke:#7AC36A;stroke-width:0.625" />
<path d="M854.07,234.13L859.4,234.13L859.4,239.47L854.07,239.47Z" style="fill:none;stroke:#7AC36A;stroke-width:0.625" />
<path d="M860.97,279.69L866.31,279.69L866.31,285.02L860.97,285.02Z" style="fill:none;stroke:#7AC36A;stroke-width:0.625" />
<path d="M867.88,287.09L873.21,287.09L873.21,292.43L867.88,292.43Z" style="fill:none;stroke:#7AC36A;stroke-width:0.625" />
<path d="M874.79,362.36L880.12,362.36L880.12,367.69L874.79,367.69Z" style="fill:none;stroke:#7AC36A;stroke-width:0.625" />
<path d="M881.69,426.96L887.03,426.96L887.03,432.3L881.69,432.3Z" style="fill:none;stroke:#7AC36A;stroke-width:0.625" />
<path d="M888.6,424.34L893.93,424.34L893.93,429.67L888.6,429.67Z" style="fill:none;stroke:#7AC36A;stroke-width:0.625" />
<path d="M895.51,482.09L900.84,482.09L900.84,487.42L895.51,487.42Z" style="fill:none;stroke:#7AC36A;stroke-width:0.625" />
<path d="M902.41,519.98L907.75,519.98L907.75,525.32L902.41,525.32Z" style="fill:none;stroke:#7AC36A;stroke-width:0.625" />
<path d="M909.32,593.56L914.65,593.56L914.65,598.89L909.32,598.89Z" style="fill:none;stroke:#7AC36A;stroke-width:0.625" />
<path d="M916.23,634.75L921.56,634.75L921.56,640.08L916.23,640.08Z" style="fill:none;stroke:#7AC36A;stroke-width:0.625" />
<path d="M923.13,677.03L928.47,677.03L928.47,682.37L923.13,682.37Z" style="fill:none;stroke:#7AC36A;stroke-width:0.625" />
<path d="M930.04,710.21L935.37,710.21L935.37,715.55L930.04,715.55Z" style="fill:none;stroke:#7AC36A;stroke-width:0.625" />
<path d="M936.94,662.34L942.28,662.34L942.28,667.68L936.94,667.68Z" style="fill:none;stroke:#7AC36A;stroke-width:0.625" />
<path d="M943.85,643.63L949.19,643.63L949.19,648.97L943.85,648.97Z" style="fill:none;stroke:#7AC36A;stroke-width:0.625" />
<path d="M950.76,665.4L956.09,665.4L956.09,670.73L950.76,670.73Z" style="fill:none;stroke:#7AC36A;stroke-width:0.625" />
<path d="M957.66,636.46L963,636.46L963,641.8L957.66,641.8Z" style="fill:none;stroke:#7AC36A;stroke-width:0.625" />
<path d="M964.57,616.76L969.91,616.76L969.91,622.1L964.57,622.1Z" style="fill:none;stroke:#7AC36A;stroke-width:0.625" />
<path d="M971.48,594.32L976.81,594.32L976.81,599.66L971.48,599.66Z" style="fill:none;stroke:#7AC36A;stroke-width:0.625" />
<path d="M978.38,524.88L983.72,524.88L983.72,530.22L978.38,530.22Z" style="fill:none;stroke:#7AC36A;stroke-width:0.625" />
<path d="M985.29,460.46L990.62,460.46L990.62,465.79L985.29,465.79Z" style="fill:none;stroke:#7AC36A;stroke-width:0.625" />
<path d="M992.2,415.67L997.53,415.67L997.53,421.01L992.2,421.01Z" style="fill:none;stroke:#7AC36A;stroke-width:0.625" />
<path d="M999.1,381.63L1004.4,381.63L1004.4,386.96L999.1,386.96Z" style="fill:none;stroke:#7AC36A;stroke-width:0.625" />
<path d="M1006,344.26L1011.3,344.26L1011.3,349.6L1006,349.6Z" style="fill:none;stroke:#7AC36A;stroke-width:0.625" />
<path d="M1012.9,267.04L1018.3,267.04L1018.3,272.38L1012.9,272.38Z" style="fill:none;stroke:#7AC36A;stroke-width:0.625" />
<path d="M1019.8,206.4L1025.2,206.4L1025.2,211.73L1019.8,211.73Z" style="fill:none;stroke:#7AC36A;stroke-width:0.625" />
<path d="M1026.7,184.64L1032.1,184.64L1032.1,189.97L1026.7,189.97Z" style="fill:none;stroke:#7AC36A;stroke-width:0.625" />
<path d="M1033.6,205.59L1039,205.59L1039,210.93L1033.6,210.93Z" style="fill:none;stroke:#7AC36A;stroke-width:0.625" />
<path d="M1040.5,167.34L1045.9,167.34L1045.9,172.68L1040.5,172.68Z" style="fill:none;stroke:#7AC36A;stroke-width:0.625" />
<path d="M1047.4,215.16L1052.8,215.16L1052.8,220.49L1047.4,220.49Z" style="fill:none;stroke:#7AC36A;stroke-width:0.625" />
<path d="M1054.4,200.02L1059.7,200.02L1059.7,205.35L1054.4,205.35Z" style="fill:none;stroke:#7AC36A;stroke-width:0.625" />
<path d="M1061.3,227.97L1066.6,227.97L1066.6,233.3L1061.3,233.3Z" style="fill:none;stroke:#7AC36A;stroke-width:0.625" />
<path d="M1068.2,237.03L1073.5,237.03L1073.5,242.36L1068.2,242.36Z" style="fill:none;stroke:#7AC36A;stroke-width:0.625" />
<path d="M1075.1,292.6L1080.4,292.6L1080.4,297.93L1075.1,297.93Z" style="fill:none;stroke:#7AC36A;stroke-width:0.625" />
<path d="M1082,328.35L1087.3,328.35L1087.3,333.68L1082,333.68Z" style="fill:none;stroke:#7AC36A;stroke-width:0.625" />
<path d="M1088.9,375.1L1094.2,375.1L1094.2,380.43L1088.9,380.43Z" style="fill:none;stroke:#7AC36A;stroke-width:0.625" />
<path d="M1095.8,443.66L1101.1,443.66L1101.1,448.99L1095.8,448.99Z" style="fill:none;stroke:#7AC36A;stroke-width:0.625" />
<path d="M1102.7,460.11L1108,460.11L1108,465.45L1102.7,465.45Z" style="fill:none;stroke:#7AC36A;stroke-width:0.625" />
<path d="M1109.6,518.63L1114.9,518.63L1114.9,523.96L1109.6,523.96Z" style="fill:none;stroke:#7AC36A;stroke-width:0.625" />
<path d="M1116.5,572.16L1121.8,572.16L1121.8,577.49L1116.5,577.49Z" style="fill:none;stroke:#7AC36A;stroke-width:0.625" />
<path d="M1123.4,639.93L1128.8,639.93L1128.8,645.26L1123.4,645.26Z" style="fill:none;stroke:#7AC36A;stroke-width:0.625" />
<path d="M1130.3,624.95L1135.7,624.95L1135.7,630.29L1130.3,630.29Z" style="fill:none;stroke:#7AC36A;stroke-width:0.625" />
<path d="M1137.2,660.45L1142.6,660.45L1142.6,665.79L1137.2,665.79Z" style="fill:none;stroke:#7AC36A;stroke-width:0.625" />
<path d="M1144.1,677.09L1149.5,677.09L1149.5,682.43L1144.1,682.43Z" style="fill:none;stroke:#7AC36A;stroke-width:0.625" />
<path d="M1151,698.31L1156.4,698.31L1156.4,703.65L1151,703.65Z" style="fill:none;stroke:#7AC36A;stroke-width:0.625" />
<path d="M1158,640.96L1163.3,640.96L1163.3,646.29L1158,646.29Z" style="fill:none;stroke:#7AC36A;stroke-width:0.625" />
<path d="M1164.9,633.32L1170.2,633.32L1170.2,638.65L1164.9,638.65Z" style="fill:none;stroke:#7AC36A;stroke-width:0.625" />
<path d="M1171.8,611.6L1177.1,611.6L1177.1,616.93L1171.8,616.93Z" style="fill:none;stroke:#7AC36A;stroke-width:0.625" />
<path d="M1178.7,554.05L1184,554.05L1184,559.39L1178.7,559.39Z" style="fill:none;stroke:#7AC36A;stroke-width:0.625" />
<path d="M1185.6,495.71L1190.9,495.71L1190.9,501.04L1185.6,501.04Z" style="fill:none;stroke:#7AC36A;stroke-width:0.625" />
<path d="M1192.5,443.54L1197.8,443.54L1197.8,448.87L1192.5,448.87Z" style="fill:none;stroke:#7AC36A;stroke-width:0.625" />
<path d="M1199.4,402.13L1204.7,402.13L1204.7,407.47L1199.4,407.47Z" style="fill:none;stroke:#7AC36A;stroke-width:0.625" />
<path d="M1206.3,319.98L1211.6,319.98L1211.6,325.31L1206.3,325.31Z" style="fill:none;stroke:#7AC36A;stroke-width:0.625" />
<path d="M1213.2,307.03L1218.5,307.03L1218.5,312.37L1213.2,312.37Z" style="fill:none;stroke:#7AC36A;stroke-width:0.625" />
<path d="M1220.1,281.51L1225.4,281.51L1225.4,286.85L1220.1,286.85Z" style="fill:none;stroke:#7AC36A;stroke-width:0.625" />
<path d="M1227,284.19L1232.3,284.19L1232.3,289.52L1227,289.52Z" style="fill:none;stroke:#7AC36A;stroke-width:0.625" />
<path d="M1233.9,215.57L1239.3,215.57L1239.3,220.91L1233.9,220.91Z" style="fill:none;stroke:#7AC36A;stroke-width:0.625" />
<path d="M1240.8,240.29L1246.2,240.29L1246.2,245.62L1240.8,245.62Z" style="fill:none;stroke:#7AC36A;stroke-width:0.625" />
<path d="M1247.7,212.17L1253.1,212.17L1253.1,217.51L1247.7,217.51Z" style="fill:none;stroke:#7AC36A;stroke-width:0.625" />
<path d="M1254.6,232.89L1260,232.89L1260,238.22L1254.6,238.22Z" style="fill:none;stroke:#7AC36A;stroke-width:0.625" />
<path d="M1261.5,260.19L1266.9,260.19L1266.9,265.52L1261.5,265.52Z" style="fill:none;stroke:#7AC36A;stroke-width:0.625" />
<path d="M1268.5,308.99L1273.8,308.99L1273.8,314.33L1268.5,314.33Z" style="fill:none;stroke:#7AC36A;stroke-width:0.625" />
<path d="M1275.4,354.08L1280.7,354.08L1280.7,359.42L1275.4,359.42Z" style="fill:none;stroke:#7AC36A;stroke-width:0.625" />
<path d="M1282.3,359.31L1287.6,359.31L1287.6,364.64L1282.3,364.64Z" style="fill:none;stroke:#7AC36A;stroke-width:0.625" />
<path d="M1289.2,362.77L1294.5,362.77L1294.5,368.11L1289.2,368.11Z" style="fill:none;stroke:#7AC36A;stroke-width:0.625" />
<path d="M1296.1,404.62L1301.4,404.62L1301.4,409.96L1296.1,409.96Z" style="fill:none;stroke:#7AC36A;stroke-width:0.625" />
<path d="M1303,483.52L1308.3,483.52L1308.3,488.86L1303,488.86Z" style="fill:none;stroke:#7AC36A;stroke-width:0.625" />
<path d="M1309.9,527.62L1315.2,527.62L1315.2,532.96L1309.9,532.96Z" style="fill:none;stroke:#7AC36A;stroke-width:0.625" />
<path d="M1316.8,552.19L1322.1,552.19L1322.1,557.52L1316.8,557.52Z" style="fill:none;stroke:#7AC36A;stroke-width:0.625" />
<path d="M1323.7,555.84L1329,555.84L1329,561.17L1323.7,561.17Z" style="fill:none;stroke:#7AC36A;stroke-width:0.625" />
<path d="M1330.6,589.11L1335.9,589.11L1335.9,594.45L1330.6,594.45Z" style="fill:none;stroke:#7AC36A;stroke-width:0.625" />
<path d="M1337.5,653.64L1342.9,653.64L1342.9,658.98L1337.5,658.98Z" style="fill:none;stroke:#7AC36A;stroke-width:0.625" />
<path d="M1344.4,645.22L1349.8,645.22L1349.8,650.56L1344.4,650.56Z" style="fill:none;stroke:#7AC36A;stroke-width:0.625" />
<path d="M1351.3,611.79L1356.7,611.79L1356.7,617.13L1351.3,617.13Z" style="fill:none;stroke:#7AC36A;stroke-width:0.625" />
<path d="M1358.2,624.87L1363.6,624.87L1363.6,630.21L1358.2,630.21Z" style="fill:none;stroke:#7AC36A;stroke-width:0.625" />
<path d="M1365.1,627.62L1370.5,627.62L1370.5,632.95L1365.1,632.95Z" style="fill:none;stroke:#7AC36A;stroke-width:0.625" />
<path d="M1372,577.77L1377.4,577.77L1377.4,583.11L1372,583.11Z" style="fill:none;stroke:#7AC36A;stroke-width:0.625" />
<path d="M1379,512.68L1384.3,512.68L1384.3,518.01L1379,518.01Z" style="fill:none;stroke:#7AC36A;stroke-width:0.625" />
<path d="M1385.9,497.97L1391.2,497.97L1391.2,503.31L1385.9,503.31Z" style="fill:none;stroke:#7AC36A;stroke-width:0.625" />
<path d="M1392.8,445.03L1398.1,445.03L1398.1,450.37L1392.8,450.37Z" style="fill:none;stroke:#7AC36A;stroke-width:0.625" />
<path d="M1399.7,386.06L1405,386.06L1405,391.39L1399.7,391.39Z" style="fill:none;stroke:#7AC36A;stroke-width:0.625" />
<path d="M1406.6,326.3L1411.9,326.3L1411.9,331.63L1406.6,331.63Z" style="fill:none;stroke:#7AC36A;stroke-width:0.625" />
<path d="M1413.5,263.83L1418.8,263.83L1418.8,269.16L1413.5,269.16Z" style="fill:none;stroke:#7AC36A;stroke-width:0.625" />
<path d="M1420.4,240.43L1425.7,240.43L1425.7,245.76L1420.4,245.76Z" style="fill:none;stroke:#7AC36A;stroke-width:0.625" />
<path d="M1427.3,197.81L1432.6,197.81L1432.6,203.14L1427.3,203.14Z" style="fill:none;stroke:#7AC36A;stroke-width:0.625" />
<path d="M1434.2,153.03L1439.5,153.03L1439.5,158.37L1434.2,158.37Z" style="fill:none;stroke:#7AC36A;stroke-width:0.625" />
<path d="M1415,70.183L1440,70.183" style="fill:none;stroke:#F15A60;stroke-width:1.25" />
<path d="M1430.6,70.183A3.125,3.125 0 1 1 1424.4,70.183A3.125,3.125 0 1 1 1430.6,70.183Z" style="fill:none;stroke:#F15A60;stroke-width:0.625" />
<text x="1388.8" y="-63.101" transform="scale(1, -1)"
	style="font-family:Times;font-weight:normal;font-style:normal;font-size:12pt">raw</text>
<path d="M1415,55.461L1440,55.461" style="fill:none;stroke:#7AC36A;stroke-width:1.25;stroke-dasharray:7.5,2.5" />
<path d="M1424.8,52.794L1430.2,52.794L1430.2,58.129L1424.8,58.129Z" style="fill:none;stroke:#7AC36A;stroke-width:0.625" />
<text x="1367.1" y="-48.379" transform="scale(1, -1)"
	style="font-family:Times;font-weight:normal;font-style:normal;font-size:12pt">smooth</text>
</g>
</svg>
