<?xml version="1.0"?>
<!-- Generated by SVGo and Plotinum VG -->
<svg width="16in" height="9in"
	xmlns="http://www.w3.org/2000/svg"
	xmlns:xlink="http://www.w3.org/1999/xlink">
<g transform="scale(1, -1) translate(0, -810)">
<path d="M0,0L1440,0L1440,810L0,810Z" style="fill:#FFFFFF" />
<text x="743.67" y="-5.355" transform="scale(1, -1)"
	style="font-family:Times;font-weight:normal;font-style:normal;font-size:12pt">X</text>
<text x="58.175" y="-19.025" transform="scale(1, -1)"
	style="font-family:Times;font-weight:normal;font-style:normal;font-size:10pt">0</text>
<text x="469.8" y="-19.025" transform="scale(1, -1)"
	style="font-family:Times;font-weight:normal;font-style:normal;font-size:10pt">60</text>
<text x="881.42" y="-19.025" transform="scale(1, -1)"
	style="font-family:Times;font-weight:normal;font-style:normal;font-size:10pt">120</text>
<text x="1296.2" y="-19.025" transform="scale(1, -1)"
	style="font-family:Times;font-weight:normal;font-style:normal;font-size:10pt">180</text>
<path d="M61.3,29.625L61.3,39.625" style="fill:none;stroke:#000000;stroke-width:0.625" />
<path d="M476.05,29.625L476.05,39.625" style="fill:none;stroke:#000000;stroke-width:0.625" />
<path d="M890.79,29.625L890.79,39.625" style="fill:none;stroke:#000000;stroke-width:0.625" />
<path d="M1305.5,29.625L1305.5,39.625" style="fill:none;stroke:#000000;stroke-width:0.625" />
<path d="M199.55,34.625L199.55,39.625" style="fill:none;stroke:#000000;stroke-width:0.625" />
<path d="M337.8,34.625L337.8,39.625" style="fill:none;stroke:#000000;stroke-width:0.625" />
<path d="M614.29,34.625L614.29,39.625" style="fill:none;stroke:#000000;stroke-width:0.625" />
<path d="M752.54,34.625L752.54,39.625" style="fill:none;stroke:#000000;stroke-width:0.625" />
<path d="M1029,34.625L1029,39.625" style="fill:none;stroke:#000000;stroke-width:0.625" />
<path d="M1167.3,34.625L1167.3,39.625" style="fill:none;stroke:#000000;stroke-width:0.625" />
<path d="M61.3,39.625L1436.9,39.625" style="fill:none;stroke:#000000;stroke-width:0.625" />
<g transform="rotate(90)">
<text x="422.68" y="12.72" transform="scale(1, -1)"
	style="font-family:Times;font-weight:normal;font-style:normal;font-size:12pt">Y</text>
</g>
<text x="18.075" y="-86.406" transform="scale(1, -1)"
	style="font-family:Times;font-weight:normal;font-style:normal;font-size:10pt">-0.8</text>
<text x="31.613" y="-291.32" transform="scale(1, -1)"
	style="font-family:Times;font-weight:normal;font-style:normal;font-size:10pt">0</text>
<text x="22.237" y="-496.24" transform="scale(1, -1)"
	style="font-family:Times;font-weight:normal;font-style:normal;font-size:10pt">0.8</text>
<text x="22.237" y="-701.16" transform="scale(1, -1)"
	style="font-family:Times;font-weight:normal;font-style:normal;font-size:10pt">1.6</text>
<path d="M40.987,91.231L50.987,91.231" style="fill:none;stroke:#000000;stroke-width:0.625" />
<path d="M40.987,296.15L50.987,296.15" style="fill:none;stroke:#000000;stroke-width:0.625" />
<path d="M40.987,501.07L50.987,501.07" style="fill:none;stroke:#000000;stroke-width:0.625" />
<path d="M40.987,705.98L50.987,705.98" style="fill:none;stroke:#000000;stroke-width:0.625" />
<path d="M45.987,91.231L50.987,91.231" style="fill:none;stroke:#000000;stroke-width:0.625" />
<path d="M45.987,193.69L50.987,193.69" style="fill:none;stroke:#000000;stroke-width:0.625" />
<path d="M45.987,296.15L50.987,296.15" style="fill:none;stroke:#000000;stroke-width:0.625" />
<path d="M45.987,398.61L50.987,398.61" style="fill:none;stroke:#000000;stroke-width:0.625" />
<path d="M45.987,501.07L50.987,501.07" style="fill:none;stroke:#000000;stroke-width:0.625" />
<path d="M45.987,603.52L50.987,603.52" style="fill:none;stroke:#000000;stroke-width:0.625" />
<path d="M50.987,49.313L50.987,806.88" style="fill:none;stroke:#000000;stroke-width:0.625" />
<path d="M61.3,494.1L68.212,532.59L75.125,568.14L82.037,537.49L88.95,713.2L95.862,554.17L102.77,620.7L109.69,652.78L116.6,683.33L123.51,774.26L130.42,589.3L137.34,757.3L144.25,691.29L151.16,501.11L158.07,675.51L164.99,673.11L171.9,611.3L178.81,413.32L185.72,417.24L192.64,285.81L199.55,429.54L206.46,243.26L213.37,393.94L220.29,260.99L227.2,154.42L234.11,218.18L241.02,283.16L247.94,237.47L254.85,246.82L261.76,127.05L268.67,275.89L275.59,280.34L282.5,328.01L289.41,218.28L296.32,299.47L303.24,454.49L310.15,388.72L317.06,314.97L323.97,517.88L330.89,477.63L337.8,678.43L344.71,672.04L351.62,663.86L358.53,660.23L365.45,650.09L372.36,744L379.27,712.18L386.18,590.91L393.1,596.81L400.01,726.83L406.92,716.69L413.83,701.43L420.75,454.62L427.66,393.95L434.57,504.08L441.48,442.98L448.4,351.39L455.31,398.37L462.22,283.18L469.13,206.34L476.05,316.95L482.96,221.55L489.87,156.3L496.78,276.84L503.7,177.78L510.61,214.79L517.52,304.07L524.43,68.735L531.35,313.18L538.26,335.24L545.17,318.45L552.08,341.42L559,244.48L565.91,512.11L572.82,337.68L579.73,522.19L586.65,529.79L593.56,609.61L600.47,608.52L607.38,586.7L614.29,589.29L621.21,546.61L628.12,764.96L635.03,578.69L641.94,616.87L648.86,786.57L655.77,711.38L662.68,577.31L669.59,461.68L676.51,491L683.42,531.9L690.33,459.63L697.24,517.79L704.16,405.24L711.07,345.11L717.98,211.87L724.89,280.98L731.81,173.37L738.72,198.94L745.63,79.972L752.54,149.25L759.46,249.71L766.37,184.98L773.28,269.34L780.19,306.8L787.11,129.01L794.02,301.18L800.93,212.09L807.84,327.55L814.76,426.32L821.67,465.92L828.58,425.25L835.49,469.42L842.41,600.59L849.32,484.24L856.23,640.89L863.14,709.45L870.06,686.11L876.97,574.03L883.88,623.75L890.79,656.04L897.7,717.32L904.62,591.88L911.53,738.16L918.44,708.34L925.35,551.19L932.27,422.46L939.18,456.36L946.09,402.26L953,293.64L959.92,403.45L966.83,443.58L973.74,382.92L980.65,221.14L987.57,214.48L994.48,155.58L1001.4,262.47L1008.3,49.313L1015.2,95.402L1022.1,268.41L1029,62.602L1036,179.35L1042.9,346.77L1049.8,201.05L1056.7,169.55L1063.6,198.01L1070.5,452.03L1077.4,507.96L1084.3,539.14L1091.3,441.66L1098.2,639.69L1105.1,474.41L1112,676.72L1118.9,551.69L1125.8,684.28L1132.7,668.82L1139.6,684.47L1146.6,806.88L1153.5,765.59L1160.4,678.47L1167.3,610.28L1174.2,720.38L1181.1,469.68L1188,544.08L1194.9,461.26L1201.9,379.12L1208.8,472.73L1215.7,472.92L1222.6,284.21L1229.5,219.47L1236.4,154.05L1243.3,272.6L1250.2,201.72L1257.2,180.97L1264.1,261.01L1271,143.14L1277.9,105.66L1284.8,265.05L1291.7,294.84L1298.6,149.72L1305.5,341.97L1312.5,324.7L1319.4,263.5L1326.3,345.54L1333.2,293.39L1340.1,529.52L1347,589.27L1353.9,614.18L1360.8,506.59L1367.8,550.86L1374.7,541.34L1381.6,756.74L1388.5,763.41L1395.4,781.96L1402.3,556.98L1409.2,728.24L1416.1,752.43L1423.1,740.86L1430,730.59L1436.9,492.51" style="fill:none;stroke:#F15A60;stroke-width:1.25" />
<path d="M64.425,494.1A3.125,3.125 0 1 1 58.175,494.1A3.125,3.125 0 1 1 64.425,494.1Z" style="fill:none;stroke:#F15A60;stroke-width:0.625" />
<path d="M71.337,532.59A3.125,3.125 0 1 1 65.087,532.59A3.125,3.125 0 1 1 71.337,532.59Z" style="fill:none;stroke:#F15A60;stroke-width:0.625" />
<path d="M78.25,568.14A3.125,3.125 0 1 1 72,568.14A3.125,3.125 0 1 1 78.25,568.14Z" style="fill:none;stroke:#F15A60;stroke-width:0.625" />
<path d="M85.162,537.49A3.125,3.125 0 1 1 78.912,537.49A3.125,3.125 0 1 1 85.162,537.49Z" style="fill:none;stroke:#F15A60;stroke-width:0.625" />
<path d="M92.075,713.2A3.125,3.125 0 1 1 85.825,713.2A3.125,3.125 0 1 1 92.075,713.2Z" style="fill:none;stroke:#F15A60;stroke-width:0.625" />
<path d="M98.987,554.17L98.987,554.17A3.125,3.125 0 1 1 92.737,554.17A3.125,3.125 0 1 1 98.987,554.17Z" style="fill:none;stroke:#F15A60;stroke-width:0.625" />
<path d="M105.9,620.7L105.9,620.7A3.125,3.125 0 1 1 99.65,620.7A3.125,3.125 0 1 1 105.9,620.7Z" style="fill:none;stroke:#F15A60;stroke-width:0.625" />
<path d="M112.81,652.78L112.81,652.78A3.125,3.125 0 1 1 106.56,652.78A3.125,3.125 0 1 1 112.81,652.78Z" style="fill:none;stroke:#F15A60;stroke-width:0.625" />
<path d="M119.72,683.33L119.72,683.33A3.125,3.125 0 1 1 113.47,683.33A3.125,3.125 0 1 1 119.72,683.33Z" style="fill:none;stroke:#F15A60;stroke-width:0.625" />
<path d="M126.64,774.26L126.64,774.26A3.125,3.125 0 1 1 120.39,774.26A3.125,3.125 0 1 1 126.64,774.26Z" style="fill:none;stroke:#F15A60;stroke-width:0.625" />
<path d="M133.55,589.3L133.55,589.3A3.125,3.125 0 1 1 127.3,589.3A3.125,3.125 0 1 1 133.55,589.3Z" style="fill:none;stroke:#F15A60;stroke-width:0.625" />
<path d="M140.46,757.3A3.125,3.125 0 1 1 134.21,757.3A3.125,3.125 0 1 1 140.46,757.3Z" style="fill:none;stroke:#F15A60;stroke-width:0.625" />
<path d="M147.37,691.29A3.125,3.125 0 1 1 141.12,691.29A3.125,3.125 0 1 1 147.37,691.29Z" style="fill:none;stroke:#F15A60;stroke-width:0.625" />
<path d="M154.29,501.11A3.125,3.125 0 1 1 148.04,501.11A3.125,3.125 0 1 1 154.29,501.11Z" style="fill:none;stroke:#F15A60;stroke-width:0.625" />
<path d="M161.2,675.51L161.2,675.51A3.125,3.125 0 1 1 154.95,675.51A3.125,3.125 0 1 1 161.2,675.51Z" style="fill:none;stroke:#F15A60;stroke-width:0.625" />
<path d="M168.11,673.11A3.125,3.125 0 1 1 161.86,673.11A3.125,3.125 0 1 1 168.11,673.11Z" style="fill:none;stroke:#F15A60;stroke-width:0.625" />
<path d="M175.02,611.3L175.02,611.3A3.125,3.125 0 1 1 168.77,611.3A3.125,3.125 0 1 1 175.02,611.3Z" style="fill:none;stroke:#F15A60;stroke-width:0.625" />
<path d="M181.94,413.32A3.125,3.125 0 1 1 175.69,413.32A3.125,3.125 0 1 1 181.94,413.32Z" style="fill:none;stroke:#F15A60;stroke-width:0.625" />
<path d="M188.85,417.24A3.125,3.125 0 1 1 182.6,417.24A3.125,3.125 0 1 1 188.85,417.24Z" style="fill:none;stroke:#F15A60;stroke-width:0.625" />
<path d="M195.76,285.81L195.76,285.81A3.125,3.125 0 1 1 189.51,285.81A3.125,3.125 0 1 1 195.76,285.81Z" style="fill:none;stroke:#F15A60;stroke-width:0.625" />
<path d="M202.67,429.54A3.125,3.125 0 1 1 196.42,429.54A3.125,3.125 0 1 1 202.67,429.54Z" style="fill:none;stroke:#F15A60;stroke-width:0.625" />
<path d="M209.59,243.26A3.125,3.125 0 1 1 203.34,243.26A3.125,3.125 0 1 1 209.59,243.26Z" style="fill:none;stroke:#F15A60;stroke-width:0.625" />
<path d="M216.5,393.94A3.125,3.125 0 1 1 210.25,393.94A3.125,3.125 0 1 1 216.5,393.94Z" style="fill:none;stroke:#F15A60;stroke-width:0.625" />
<path d="M223.41,260.99L223.41,260.99A3.125,3.125 0 1 1 217.16,260.99A3.125,3.125 0 1 1 223.41,260.99Z" style="fill:none;stroke:#F15A60;stroke-width:0.625" />
<path d="M230.32,154.42L230.32,154.42A3.125,3.125 0 1 1 224.07,154.42A3.125,3.125 0 1 1 230.32,154.42Z" style="fill:none;stroke:#F15A60;stroke-width:0.625" />
<path d="M237.24,218.18A3.125,3.125 0 1 1 230.99,218.18A3.125,3.125 0 1 1 237.24,218.18Z" style="fill:none;stroke:#F15A60;stroke-width:0.625" />
<path d="M244.15,283.16L244.15,283.16A3.125,3.125 0 1 1 237.9,283.16A3.125,3.125 0 1 1 244.15,283.16Z" style="fill:none;stroke:#F15A60;stroke-width:0.625" />
<path d="M251.06,237.47A3.125,3.125 0 1 1 244.81,237.47A3.125,3.125 0 1 1 251.06,237.47Z" style="fill:none;stroke:#F15A60;stroke-width:0.625" />
<path d="M257.97,246.82A3.125,3.125 0 1 1 251.72,246.82A3.125,3.125 0 1 1 257.97,246.82Z" style="fill:none;stroke:#F15A60;stroke-width:0.625" />
<path d="M264.89,127.05A3.125,3.125 0 1 1 258.64,127.05A3.125,3.125 0 1 1 264.89,127.05Z" style="fill:none;stroke:#F15A60;stroke-width:0.625" />
<path d="M271.8,275.89A3.125,3.125 0 1 1 265.55,275.89A3.125,3.125 0 1 1 271.8,275.89Z" style="fill:none;stroke:#F15A60;stroke-width:0.625" />
<path d="M278.71,280.34A3.125,3.125 0 1 1 272.46,280.34A3.125,3.125 0 1 1 278.71,280.34Z" style="fill:none;stroke:#F15A60;stroke-width:0.625" />
<path d="M285.62,328.01L285.62,328.01A3.125,3.125 0 1 1 279.37,328.01A3.125,3.125 0 1 1 285.62,328.01Z" style="fill:none;stroke:#F15A60;stroke-width:0.625" />
<path d="M292.54,218.28A3.125,3.125 0 1 1 286.29,218.28A3.125,3.125 0 1 1 292.54,218.28Z" style="fill:none;stroke:#F15A60;stroke-width:0.625" />
<path d="M299.45,299.47A3.125,3.125 0 1 1 293.2,299.47A3.125,3.125 0 1 1 299.45,299.47Z" style="fill:none;stroke:#F15A60;stroke-width:0.625" />
<path d="M306.36,454.49A3.125,3.125 0 1 1 300.11,454.49A3.125,3.125 0 1 1 306.36,454.49Z" style="fill:none;stroke:#F15A60;stroke-width:0.625" />
<path d="M313.27,388.72A3.125,3.125 0 1 1 307.02,388.72A3.125,3.125 0 1 1 313.27,388.72Z" style="fill:none;stroke:#F15A60;stroke-width:0.625" />
<path d="M320.19,314.97A3.125,3.125 0 1 1 313.94,314.97A3.125,3.125 0 1 1 320.19,314.97Z" style="fill:none;stroke:#F15A60;stroke-width:0.625" />
<path d="M327.1,517.88L327.1,517.88A3.125,3.125 0 1 1 320.85,517.88A3.125,3.125 0 1 1 327.1,517.88Z" style="fill:none;stroke:#F15A60;stroke-width:0.625" />
<path d="M334.01,477.63L334.01,477.63A3.125,3.125 0 1 1 327.76,477.63A3.125,3.125 0 1 1 334.01,477.63Z" style="fill:none;stroke:#F15A60;stroke-width:0.625" />
<path d="M340.92,678.43A3.125,3.125 0 1 1 334.67,678.43A3.125,3.125 0 1 1 340.92,678.43Z" style="fill:none;stroke:#F15A60;stroke-width:0.625" />
<path d="M347.83,672.04A3.125,3.125 0 1 1 341.58,672.04A3.125,3.125 0 1 1 347.83,672.04Z" style="fill:none;stroke:#F15A60;stroke-width:0.625" />
<path d="M354.75,663.86A3.125,3.125 0 1 1 348.5,663.86A3.125,3.125 0 1 1 354.75,663.86Z" style="fill:none;stroke:#F15A60;stroke-width:0.625" />
<path d="M361.66,660.23L361.66,660.23A3.125,3.125 0 1 1 355.41,660.23A3.125,3.125 0 1 1 361.66,660.23Z" style="fill:none;stroke:#F15A60;stroke-width:0.625" />
<path d="M368.57,650.09A3.125,3.125 0 1 1 362.32,650.09A3.125,3.125 0 1 1 368.57,650.09Z" style="fill:none;stroke:#F15A60;stroke-width:0.625" />
<path d="M375.48,744A3.125,3.125 0 1 1 369.23,744A3.125,3.125 0 1 1 375.48,744Z" style="fill:none;stroke:#F15A60;stroke-width:0.625" />
<path d="M382.4,712.18A3.125,3.125 0 1 1 376.15,712.18A3.125,3.125 0 1 1 382.4,712.18Z" style="fill:none;stroke:#F15A60;stroke-width:0.625" />
<path d="M389.31,590.91A3.125,3.125 0 1 1 383.06,590.91A3.125,3.125 0 1 1 389.31,590.91Z" style="fill:none;stroke:#F15A60;stroke-width:0.625" />
<path d="M396.22,596.81L396.22,596.81A3.125,3.125 0 1 1 389.97,596.81A3.125,3.125 0 1 1 396.22,596.81Z" style="fill:none;stroke:#F15A60;stroke-width:0.625" />
<path d="M403.13,726.83L403.13,726.83A3.125,3.125 0 1 1 396.88,726.83A3.125,3.125 0 1 1 403.13,726.83Z" style="fill:none;stroke:#F15A60;stroke-width:0.625" />
<path d="M410.05,716.69A3.125,3.125 0 1 1 403.8,716.69A3.125,3.125 0 1 1 410.05,716.69Z" style="fill:none;stroke:#F15A60;stroke-width:0.625" />
<path d="M416.96,701.43A3.125,3.125 0 1 1 410.71,701.43A3.125,3.125 0 1 1 416.96,701.43Z" style="fill:none;stroke:#F15A60;stroke-width:0.625" />
<path d="M423.87,454.62L423.87,454.62A3.125,3.125 0 1 1 417.62,454.62A3.125,3.125 0 1 1 423.87,454.62Z" style="fill:none;stroke:#F15A60;stroke-width:0.625" />
<path d="M430.78,393.95A3.125,3.125 0 1 1 424.53,393.95A3.125,3.125 0 1 1 430.78,393.95Z" style="fill:none;stroke:#F15A60;stroke-width:0.625" />
<path d="M437.7,504.08A3.125,3.125 0 1 1 431.45,504.08A3.125,3.125 0 1 1 437.7,504.08Z" style="fill:none;stroke:#F15A60;stroke-width:0.625" />
<path d="M444.61,442.98A3.125,3.125 0 1 1 438.36,442.98A3.125,3.125 0 1 1 444.61,442.98Z" style="fill:none;stroke:#F15A60;stroke-width:0.625" />
<path d="M451.52,351.39A3.125,3.125 0 1 1 445.27,351.39A3.125,3.125 0 1 1 451.52,351.39Z" style="fill:none;stroke:#F15A60;stroke-width:0.625" />
<path d="M458.43,398.37A3.125,3.125 0 1 1 452.18,398.37A3.125,3.125 0 1 1 458.43,398.37Z" style="fill:none;stroke:#F15A60;stroke-width:0.625" />
<path d="M465.35,283.18A3.125,3.125 0 1 1 459.1,283.18A3.125,3.125 0 1 1 465.35,283.18Z" style="fill:none;stroke:#F15A60;stroke-width:0.625" />
<path d="M472.26,206.34A3.125,3.125 0 1 1 466.01,206.34A3.125,3.125 0 1 1 472.26,206.34Z" style="fill:none;stroke:#F15A60;stroke-width:0.625" />
<path d="M479.17,316.95A3.125,3.125 0 1 1 472.92,316.95A3.125,3.125 0 1 1 479.17,316.95Z" style="fill:none;stroke:#F15A60;stroke-width:0.625" />
<path d="M486.08,221.55L486.08,221.55A3.125,3.125 0 1 1 479.83,221.55A3.125,3.125 0 1 1 486.08,221.55Z" style="fill:none;stroke:#F15A60;stroke-width:0.625" />
<path d="M493,156.3L493,156.3A3.125,3.125 0 1 1 486.75,156.3A3.125,3.125 0 1 1 493,156.3Z" style="fill:none;stroke:#F15A60;stroke-width:0.625" />
<path d="M499.91,276.84A3.125,3.125 0 1 1 493.66,276.84A3.125,3.125 0 1 1 499.91,276.84Z" style="fill:none;stroke:#F15A60;stroke-width:0.625" />
<path d="M506.82,177.78A3.125,3.125 0 1 1 500.57,177.78A3.125,3.125 0 1 1 506.82,177.78Z" style="fill:none;stroke:#F15A60;stroke-width:0.625" />
<path d="M513.73,214.79A3.125,3.125 0 1 1 507.48,214.79A3.125,3.125 0 1 1 513.73,214.79Z" style="fill:none;stroke:#F15A60;stroke-width:0.625" />
<path d="M520.65,304.07A3.125,3.125 0 1 1 514.4,304.07A3.125,3.125 0 1 1 520.65,304.07Z" style="fill:none;stroke:#F15A60;stroke-width:0.625" />
<path d="M527.56,68.735A3.125,3.125 0 1 1 521.31,68.735A3.125,3.125 0 1 1 527.56,68.735Z" style="fill:none;stroke:#F15A60;stroke-width:0.625" />
<path d="M534.47,313.18A3.125,3.125 0 1 1 528.22,313.18A3.125,3.125 0 1 1 534.47,313.18Z" style="fill:none;stroke:#F15A60;stroke-width:0.625" />
<path d="M541.38,335.24A3.125,3.125 0 1 1 535.13,335.24A3.125,3.125 0 1 1 541.38,335.24Z" style="fill:none;stroke:#F15A60;stroke-width:0.625" />
<path d="M548.3,318.45A3.125,3.125 0 1 1 542.05,318.45A3.125,3.125 0 1 1 548.3,318.45Z" style="fill:none;stroke:#F15A60;stroke-width:0.625" />
<path d="M555.21,341.42A3.125,3.125 0 1 1 548.96,341.42A3.125,3.125 0 1 1 555.21,341.42Z" style="fill:none;stroke:#F15A60;stroke-width:0.625" />
<path d="M562.12,244.48A3.125,3.125 0 1 1 555.87,244.48A3.125,3.125 0 1 1 562.12,244.48Z" style="fill:none;stroke:#F15A60;stroke-width:0.625" />
<path d="M569.03,512.11A3.125,3.125 0 1 1 562.78,512.11A3.125,3.125 0 1 1 569.03,512.11Z" style="fill:none;stroke:#F15A60;stroke-width:0.625" />
<path d="M575.95,337.68A3.125,3.125 0 1 1 569.7,337.68A3.125,3.125 0 1 1 575.95,337.68Z" style="fill:none;stroke:#F15A60;stroke-width:0.625" />
<path d="M582.86,522.19A3.125,3.125 0 1 1 576.61,522.19A3.125,3.125 0 1 1 582.86,522.19Z" style="fill:none;stroke:#F15A60;stroke-width:0.625" />
<path d="M589.77,529.79A3.125,3.125 0 1 1 583.52,529.79A3.125,3.125 0 1 1 589.77,529.79Z" style="fill:none;stroke:#F15A60;stroke-width:0.625" />
<path d="M596.68,609.61A3.125,3.125 0 1 1 590.43,609.61A3.125,3.125 0 1 1 596.68,609.61Z" style="fill:none;stroke:#F15A60;stroke-width:0.625" />
<path d="M603.6,608.52A3.125,3.125 0 1 1 597.35,608.52A3.125,3.125 0 1 1 603.6,608.52Z" style="fill:none;stroke:#F15A60;stroke-width:0.625" />
<path d="M610.51,586.7L610.51,586.7A3.125,3.125 0 1 1 604.26,586.7A3.125,3.125 0 1 1 610.51,586.7Z" style="fill:none;stroke:#F15A60;stroke-width:0.625" />
<path d="M617.42,589.29A3.125,3.125 0 1 1 611.17,589.29A3.125,3.125 0 1 1 617.42,589.29Z" style="fill:none;stroke:#F15A60;stroke-width:0.625" />
<path d="M624.33,546.61A3.125,3.125 0 1 1 618.08,546.61A3.125,3.125 0 1 1 624.33,546.61Z" style="fill:none;stroke:#F15A60;stroke-width:0.625" />
<path d="M631.24,764.96A3.125,3.125 0 1 1 624.99,764.96A3.125,3.125 0 1 1 631.24,764.96Z" style="fill:none;stroke:#F15A60;stroke-width:0.625" />
<path d="M638.16,578.69A3.125,3.125 0 1 1 631.91,578.69A3.125,3.125 0 1 1 638.16,578.69Z" style="fill:none;stroke:#F15A60;stroke-width:0.625" />
<path d="M645.07,616.87A3.125,3.125 0 1 1 638.82,616.87A3.125,3.125 0 1 1 645.07,616.87Z" style="fill:none;stroke:#F15A60;stroke-width:0.625" />
<path d="M651.98,786.57A3.125,3.125 0 1 1 645.73,786.57A3.125,3.125 0 1 1 651.98,786.57Z" style="fill:none;stroke:#F15A60;stroke-width:0.625" />
<path d="M658.89,711.38A3.125,3.125 0 1 1 652.64,711.38A3.125,3.125 0 1 1 658.89,711.38Z" style="fill:none;stroke:#F15A60;stroke-width:0.625" />
<path d="M665.81,577.31A3.125,3.125 0 1 1 659.56,577.31A3.125,3.125 0 1 1 665.81,577.31Z" style="fill:none;stroke:#F15A60;stroke-width:0.625" />
<path d="M672.72,461.68L672.72,461.68A3.125,3.125 0 1 1 666.47,461.68A3.125,3.125 0 1 1 672.72,461.68Z" style="fill:none;stroke:#F15A60;stroke-width:0.625" />
<path d="M679.63,491L679.63,491A3.125,3.125 0 1 1 673.38,491A3.125,3.125 0 1 1 679.63,491Z" style="fill:none;stroke:#F15A60;stroke-width:0.625" />
<path d="M686.54,531.9A3.125,3.125 0 1 1 680.29,531.9A3.125,3.125 0 1 1 686.54,531.9Z" style="fill:none;stroke:#F15A60;stroke-width:0.625" />
<path d="M693.46,459.63A3.125,3.125 0 1 1 687.21,459.63A3.125,3.125 0 1 1 693.46,459.63Z" style="fill:none;stroke:#F15A60;stroke-width:0.625" />
<path d="M700.37,517.79A3.125,3.125 0 1 1 694.12,517.79A3.125,3.125 0 1 1 700.37,517.79Z" style="fill:none;stroke:#F15A60;stroke-width:0.625" />
<path d="M707.28,405.24A3.125,3.125 0 1 1 701.03,405.24A3.125,3.125 0 1 1 707.28,405.24Z" style="fill:none;stroke:#F15A60;stroke-width:0.625" />
<path d="M714.19,345.11A3.125,3.125 0 1 1 707.94,345.11A3.125,3.125 0 1 1 714.19,345.11Z" style="fill:none;stroke:#F15A60;stroke-width:0.625" />
<path d="M721.11,211.87A3.125,3.125 0 1 1 714.86,211.87A3.125,3.125 0 1 1 721.11,211.87Z" style="fill:none;stroke:#F15A60;stroke-width:0.625" />
<path d="M728.02,280.98L728.02,280.98A3.125,3.125 0 1 1 721.77,280.98A3.125,3.125 0 1 1 728.02,280.98Z" style="fill:none;stroke:#F15A60;stroke-width:0.625" />
<path d="M734.93,173.37L734.93,173.37A3.125,3.125 0 1 1 728.68,173.37A3.125,3.125 0 1 1 734.93,173.37Z" style="fill:none;stroke:#F15A60;stroke-width:0.625" />
<path d="M741.84,198.94A3.125,3.125 0 1 1 735.59,198.94A3.125,3.125 0 1 1 741.84,198.94Z" style="fill:none;stroke:#F15A60;stroke-width:0.625" />
<path d="M748.76,79.972L748.76,79.972A3.125,3.125 0 1 1 742.51,79.972A3.125,3.125 0 1 1 748.76,79.972Z" style="fill:none;stroke:#F15A60;stroke-width:0.625" />
<path d="M755.67,149.25L755.67,149.25A3.125,3.125 0 1 1 749.42,149.25A3.125,3.125 0 1 1 755.67,149.25Z" style="fill:none;stroke:#F15A60;stroke-width:0.625" />
<path d="M762.58,249.71L762.58,249.71A3.125,3.125 0 1 1 756.33,249.71A3.125,3.125 0 1 1 762.58,249.71Z" style="fill:none;stroke:#F15A60;stroke-width:0.625" />
<path d="M769.49,184.98A3.125,3.125 0 1 1 763.24,184.98A3.125,3.125 0 1 1 769.49,184.98Z" style="fill:none;stroke:#F15A60;stroke-width:0.625" />
<path d="M776.41,269.34L776.41,269.34A3.125,3.125 0 1 1 770.16,269.34A3.125,3.125 0 1 1 776.41,269.34Z" style="fill:none;stroke:#F15A60;stroke-width:0.625" />
<path d="M783.32,306.8A3.125,3.125 0 1 1 777.07,306.8A3.125,3.125 0 1 1 783.32,306.8Z" style="fill:none;stroke:#F15A60;stroke-width:0.625" />
<path d="M790.23,129.01L790.23,129.01A3.125,3.125 0 1 1 783.98,129.01A3.125,3.125 0 1 1 790.23,129.01Z" style="fill:none;stroke:#F15A60;stroke-width:0.625" />
<path d="M797.14,301.18A3.125,3.125 0 1 1 790.89,301.18A3.125,3.125 0 1 1 797.14,301.18Z" style="fill:none;stroke:#F15A60;stroke-width:0.625" />
<path d="M804.06,212.09L804.06,212.09A3.125,3.125 0 1 1 797.81,212.09A3.125,3.125 0 1 1 804.06,212.09Z" style="fill:none;stroke:#F15A60;stroke-width:0.625" />
<path d="M810.97,327.55A3.125,3.125 0 1 1 804.72,327.55A3.125,3.125 0 1 1 810.97,327.55Z" style="fill:none;stroke:#F15A60;stroke-width:0.625" />
<path d="M817.88,426.32L817.88,426.32A3.125,3.125 0 1 1 811.63,426.32A3.125,3.125 0 1 1 817.88,426.32Z" style="fill:none;stroke:#F15A60;stroke-width:0.625" />
<path d="M824.79,465.92L824.79,465.92A3.125,3.125 0 1 1 818.54,465.92A3.125,3.125 0 1 1 824.79,465.92Z" style="fill:none;stroke:#F15A60;stroke-width:0.625" />
<path d="M831.71,425.25A3.125,3.125 0 1 1 825.46,425.25A3.125,3.125 0 1 1 831.71,425.25Z" style="fill:none;stroke:#F15A60;stroke-width:0.625" />
<path d="M838.62,469.42A3.125,3.125 0 1 1 832.37,469.42A3.125,3.125 0 1 1 838.62,469.42Z" style="fill:none;stroke:#F15A60;stroke-width:0.625" />
<path d="M845.53,600.59L845.53,600.59A3.125,3.125 0 1 1 839.28,600.59A3.125,3.125 0 1 1 845.53,600.59Z" style="fill:none;stroke:#F15A60;stroke-width:0.625" />
<path d="M852.44,484.24A3.125,3.125 0 1 1 846.19,484.24A3.125,3.125 0 1 1 852.44,484.24Z" style="fill:none;stroke:#F15A60;stroke-width:0.625" />
<path d="M859.36,640.89L859.36,640.89A3.125,3.125 0 1 1 853.11,640.89A3.125,3.125 0 1 1 859.36,640.89Z" style="fill:none;stroke:#F15A60;stroke-width:0.625" />
<path d="M866.27,709.45L866.27,709.45A3.125,3.125 0 1 1 860.02,709.45A3.125,3.125 0 1 1 866.27,709.45Z" style="fill:none;stroke:#F15A60;stroke-width:0.625" />
<path d="M873.18,686.11A3.125,3.125 0 1 1 866.93,686.11A3.125,3.125 0 1 1 873.18,686.11Z" style="fill:none;stroke:#F15A60;stroke-width:0.625" />
<path d="M880.09,574.03L880.09,574.03A3.125,3.125 0 1 1 873.84,574.03A3.125,3.125 0 1 1 880.09,574.03Z" style="fill:none;stroke:#F15A60;stroke-width:0.625" />
<path d="M887.01,623.75L887.01,623.75A3.125,3.125 0 1 1 880.76,623.75A3.125,3.125 0 1 1 887.01,623.75Z" style="fill:none;stroke:#F15A60;stroke-width:0.625" />
<path d="M893.92,656.04L893.92,656.04A3.125,3.125 0 1 1 887.67,656.04A3.125,3.125 0 1 1 893.92,656.04Z" style="fill:none;stroke:#F15A60;stroke-width:0.625" />
<path d="M900.83,717.32A3.125,3.125 0 1 1 894.58,717.32A3.125,3.125 0 1 1 900.83,717.32Z" style="fill:none;stroke:#F15A60;stroke-width:0.625" />
<path d="M907.74,591.88A3.125,3.125 0 1 1 901.49,591.88A3.125,3.125 0 1 1 907.74,591.88Z" style="fill:none;stroke:#F15A60;stroke-width:0.625" />
<path d="M914.65,738.16L914.65,738.16A3.125,3.125 0 1 1 908.4,738.16A3.125,3.125 0 1 1 914.65,738.16Z" style="fill:none;stroke:#F15A60;stroke-width:0.625" />
<path d="M921.57,708.34L921.57,708.34A3.125,3.125 0 1 1 915.32,708.34A3.125,3.125 0 1 1 921.57,708.34Z" style="fill:none;stroke:#F15A60;stroke-width:0.625" />
<path d="M928.48,551.19L928.48,551.19A3.125,3.125 0 1 1 922.23,551.19A3.125,3.125 0 1 1 928.48,551.19Z" style="fill:none;stroke:#F15A60;stroke-width:0.625" />
<path d="M935.39,422.46L935.39,422.46A3.125,3.125 0 1 1 929.14,422.46A3.125,3.125 0 1 1 935.39,422.46Z" style="fill:none;stroke:#F15A60;stroke-width:0.625" />
<path d="M942.3,456.36A3.125,3.125 0 1 1 936.05,456.36A3.125,3.125 0 1 1 942.3,456.36Z" style="fill:none;stroke:#F15A60;stroke-width:0.625" />
<path d="M949.22,402.26L949.22,402.26A3.125,3.125 0 1 1 942.97,402.26A3.125,3.125 0 1 1 949.22,402.26Z" style="fill:none;stroke:#F15A60;stroke-width:0.625" />
<path d="M956.13,293.64L956.13,293.64A3.125,3.125 0 1 1 949.88,293.64A3.125,3.125 0 1 1 956.13,293.64Z" style="fill:none;stroke:#F15A60;stroke-width:0.625" />
<path d="M963.04,403.45L963.04,403.45A3.125,3.125 0 1 1 956.79,403.45A3.125,3.125 0 1 1 963.04,403.45Z" style="fill:none;stroke:#F15A60;stroke-width:0.625" />
<path d="M969.95,443.58A3.125,3.125 0 1 1 963.7,443.58A3.125,3.125 0 1 1 969.95,443.58Z" style="fill:none;stroke:#F15A60;stroke-width:0.625" />
<path d="M976.87,382.92L976.87,382.92A3.125,3.125 0 1 1 970.62,382.92A3.125,3.125 0 1 1 976.87,382.92Z" style="fill:none;stroke:#F15A60;stroke-width:0.625" />
<path d="M983.78,221.14L983.78,221.14A3.125,3.125 0 1 1 977.53,221.14A3.125,3.125 0 1 1 983.78,221.14Z" style="fill:none;stroke:#F15A60;stroke-width:0.625" />
<path d="M990.69,214.48L990.69,214.48A3.125,3.125 0 1 1 984.44,214.48A3.125,3.125 0 1 1 990.69,214.48Z" style="fill:none;stroke:#F15A60;stroke-width:0.625" />
<path d="M997.6,155.58L997.6,155.58A3.125,3.125 0 1 1 991.35,155.58A3.125,3.125 0 1 1 997.6,155.58Z" style="fill:none;stroke:#F15A60;stroke-width:0.625" />
<path d="M1004.5,262.47L1004.5,262.47A3.125,3.125 0 1 1 998.27,262.47A3.125,3.125 0 1 1 1004.5,262.47Z" style="fill:none;stroke:#F15A60;stroke-width:0.625" />
<path d="M1011.4,49.313L1011.4,49.313A3.125,3.125 0 1 1 1005.2,49.313A3.125,3.125 0 1 1 1011.4,49.313Z" style="fill:none;stroke:#F15A60;stroke-width:0.625" />
<path d="M1018.3,95.402L1018.3,95.402A3.125,3.125 0 1 1 1012.1,95.402A3.125,3.125 0 1 1 1018.3,95.402Z" style="fill:none;stroke:#F15A60;stroke-width:0.625" />
<path d="M1025.3,268.41A3.125,3.125 0 1 1 1019,268.41A3.125,3.125 0 1 1 1025.3,268.41Z" style="fill:none;stroke:#F15A60;stroke-width:0.625" />
<path d="M1032.2,62.602L1032.2,62.602A3.125,3.125 0 1 1 1025.9,62.602A3.125,3.125 0 1 1 1032.2,62.602Z" style="fill:none;stroke:#F15A60;stroke-width:0.625" />
<path d="M1039.1,179.35A3.125,3.125 0 1 1 1032.8,179.35A3.125,3.125 0 1 1 1039.1,179.35Z" style="fill:none;stroke:#F15A60;stroke-width:0.625" />
<path d="M1046,346.77A3.125,3.125 0 1 1 1039.7,346.77A3.125,3.125 0 1 1 1046,346.77Z" style="fill:none;stroke:#F15A60;stroke-width:0.625" />
<path d="M1052.9,201.05L1052.9,201.05A3.125,3.125 0 1 1 1046.7,201.05A3.125,3.125 0 1 1 1052.9,201.05Z" style="fill:none;stroke:#F15A60;stroke-width:0.625" />
<path d="M1059.8,169.55A3.125,3.125 0 1 1 1053.6,169.55A3.125,3.125 0 1 1 1059.8,169.55Z" style="fill:none;stroke:#F15A60;stroke-width:0.625" />
<path d="M1066.7,198.01L1066.7,198.01A3.125,3.125 0 1 1 1060.5,198.01A3.125,3.125 0 1 1 1066.7,198.01Z" style="fill:none;stroke:#F15A60;stroke-width:0.625" />
<path d="M1073.6,452.03A3.125,3.125 0 1 1 1067.4,452.03A3.125,3.125 0 1 1 1073.6,452.03Z" style="fill:none;stroke:#F15A60;stroke-width:0.625" />
<path d="M1080.6,507.96A3.125,3.125 0 1 1 1074.3,507.96A3.125,3.125 0 1 1 1080.6,507.96Z" style="fill:none;stroke:#F15A60;stroke-width:0.625" />
<path d="M1087.5,539.14A3.125,3.125 0 1 1 1081.2,539.14A3.125,3.125 0 1 1 1087.5,539.14Z" style="fill:none;stroke:#F15A60;stroke-width:0.625" />
<path d="M1094.4,441.66A3.125,3.125 0 1 1 1088.1,441.66A3.125,3.125 0 1 1 1094.4,441.66Z" style="fill:none;stroke:#F15A60;stroke-width:0.625" />
<path d="M1101.3,639.69A3.125,3.125 0 1 1 1095,639.69A3.125,3.125 0 1 1 1101.3,639.69Z" style="fill:none;stroke:#F15A60;stroke-width:0.625" />
<path d="M1108.2,474.41L1108.2,474.41A3.125,3.125 0 1 1 1102,474.41A3.125,3.125 0 1 1 1108.2,474.41Z" style="fill:none;stroke:#F15A60;stroke-width:0.625" />
<path d="M1115.1,676.72A3.125,3.125 0 1 1 1108.9,676.72A3.125,3.125 0 1 1 1115.1,676.72Z" style="fill:none;stroke:#F15A60;stroke-width:0.625" />
<path d="M1122,551.69A3.125,3.125 0 1 1 1115.8,551.69A3.125,3.125 0 1 1 1122,551.69Z" style="fill:none;stroke:#F15A60;stroke-width:0.625" />
<path d="M1128.9,684.28A3.125,3.125 0 1 1 1122.7,684.28A3.125,3.125 0 1 1 1128.9,684.28Z" style="fill:none;stroke:#F15A60;stroke-width:0.625" />
<path d="M1135.9,668.82L1135.9,668.82A3.125,3.125 0 1 1 1129.6,668.82A3.125,3.125 0 1 1 1135.9,668.82Z" style="fill:none;stroke:#F15A60;stroke-width:0.625" />
<path d="M1142.8,684.47A3.125,3.125 0 1 1 1136.5,684.47A3.125,3.125 0 1 1 1142.8,684.47Z" style="fill:none;stroke:#F15A60;stroke-width:0.625" />
<path d="M1149.7,806.88A3.125,3.125 0 1 1 1143.4,806.88A3.125,3.125 0 1 1 1149.7,806.88Z" style="fill:none;stroke:#F15A60;stroke-width:0.625" />
<path d="M1156.6,765.59A3.125,3.125 0 1 1 1150.3,765.59A3.125,3.125 0 1 1 1156.6,765.59Z" style="fill:none;stroke:#F15A60;stroke-width:0.625" />
<path d="M1163.5,678.47L1163.5,678.47A3.125,3.125 0 1 1 1157.3,678.47A3.125,3.125 0 1 1 1163.5,678.47Z" style="fill:none;stroke:#F15A60;stroke-width:0.625" />
<path d="M1170.4,610.28A3.125,3.125 0 1 1 1164.2,610.28A3.125,3.125 0 1 1 1170.4,610.28Z" style="fill:none;stroke:#F15A60;stroke-width:0.625" />
<path d="M1177.3,720.38A3.125,3.125 0 1 1 1171.1,720.38A3.125,3.125 0 1 1 1177.3,720.38Z" style="fill:none;stroke:#F15A60;stroke-width:0.625" />
<path d="M1184.2,469.68L1184.2,469.68A3.125,3.125 0 1 1 1178,469.68A3.125,3.125 0 1 1 1184.2,469.68Z" style="fill:none;stroke:#F15A60;stroke-width:0.625" />
<path d="M1191.2,544.08L1191.2,544.08A3.125,3.125 0 1 1 1184.9,544.08A3.125,3.125 0 1 1 1191.2,544.08Z" style="fill:none;stroke:#F15A60;stroke-width:0.625" />
<path d="M1198.1,461.26L1198.1,461.26A3.125,3.125 0 1 1 1191.8,461.26A3.125,3.125 0 1 1 1198.1,461.26Z" style="fill:none;stroke:#F15A60;stroke-width:0.625" />
<path d="M1205,379.12A3.125,3.125 0 1 1 1198.7,379.12A3.125,3.125 0 1 1 1205,379.12Z" style="fill:none;stroke:#F15A60;stroke-width:0.625" />
<path d="M1211.9,472.73A3.125,3.125 0 1 1 1205.6,472.73A3.125,3.125 0 1 1 1211.9,472.73Z" style="fill:none;stroke:#F15A60;stroke-width:0.625" />
<path d="M1218.8,472.92A3.125,3.125 0 1 1 1212.6,472.92A3.125,3.125 0 1 1 1218.8,472.92Z" style="fill:none;stroke:#F15A60;stroke-width:0.625" />
<path d="M1225.7,284.21A3.125,3.125 0 1 1 1219.5,284.21A3.125,3.125 0 1 1 1225.7,284.21Z" style="fill:none;stroke:#F15A60;stroke-width:0.625" />
<path d="M1232.6,219.47A3.125,3.125 0 1 1 1226.4,219.47A3.125,3.125 0 1 1 1232.6,219.47Z" style="fill:none;stroke:#F15A60;stroke-width:0.625" />
<path d="M1239.5,154.05A3.125,3.125 0 1 1 1233.3,154.05A3.125,3.125 0 1 1 1239.5,154.05Z" style="fill:none;stroke:#F15A60;stroke-width:0.625" />
<path d="M1246.5,272.6A3.125,3.125 0 1 1 1240.2,272.6A3.125,3.125 0 1 1 1246.5,272.6Z" style="fill:none;stroke:#F15A60;stroke-width:0.625" />
<path d="M1253.4,201.72A3.125,3.125 0 1 1 1247.1,201.72A3.125,3.125 0 1 1 1253.4,201.72Z" style="fill:none;stroke:#F15A60;stroke-width:0.625" />
<path d="M1260.3,180.97L1260.3,180.97A3.125,3.125 0 1 1 1254,180.97A3.125,3.125 0 1 1 1260.3,180.97Z" style="fill:none;stroke:#F15A60;stroke-width:0.625" />
<path d="M1267.2,261.01L1267.2,261.01A3.125,3.125 0 1 1 1260.9,261.01A3.125,3.125 0 1 1 1267.2,261.01Z" style="fill:none;stroke:#F15A60;stroke-width:0.625" />
<path d="M1274.1,143.14L1274.1,143.14A3.125,3.125 0 1 1 1267.9,143.14A3.125,3.125 0 1 1 1274.1,143.14Z" style="fill:none;stroke:#F15A60;stroke-width:0.625" />
<path d="M1281,105.66A3.125,3.125 0 1 1 1274.8,105.66A3.125,3.125 0 1 1 1281,105.66Z" style="fill:none;stroke:#F15A60;stroke-width:0.625" />
<path d="M1287.9,265.05A3.125,3.125 0 1 1 1281.7,265.05A3.125,3.125 0 1 1 1287.9,265.05Z" style="fill:none;stroke:#F15A60;stroke-width:0.625" />
<path d="M1294.8,294.84L1294.8,294.84A3.125,3.125 0 1 1 1288.6,294.84A3.125,3.125 0 1 1 1294.8,294.84Z" style="fill:none;stroke:#F15A60;stroke-width:0.625" />
<path d="M1301.8,149.72A3.125,3.125 0 1 1 1295.5,149.72A3.125,3.125 0 1 1 1301.8,149.72Z" style="fill:none;stroke:#F15A60;stroke-width:0.625" />
<path d="M1308.7,341.97A3.125,3.125 0 1 1 1302.4,341.97A3.125,3.125 0 1 1 1308.7,341.97Z" style="fill:none;stroke:#F15A60;stroke-width:0.625" />
<path d="M1315.6,324.7L1315.6,324.7A3.125,3.125 0 1 1 1309.3,324.7A3.125,3.125 0 1 1 1315.6,324.7Z" style="fill:none;stroke:#F15A60;stroke-width:0.625" />
<path d="M1322.5,263.5L1322.5,263.5A3.125,3.125 0 1 1 1316.2,263.5A3.125,3.125 0 1 1 1322.5,263.5Z" style="fill:none;stroke:#F15A60;stroke-width:0.625" />
<path d="M1329.4,345.54A3.125,3.125 0 1 1 1323.2,345.54A3.125,3.125 0 1 1 1329.4,345.54Z" style="fill:none;stroke:#F15A60;stroke-width:0.625" />
<path d="M1336.3,293.39A3.125,3.125 0 1 1 1330.1,293.39A3.125,3.125 0 1 1 1336.3,293.39Z" style="fill:none;stroke:#F15A60;stroke-width:0.625" />
<path d="M1343.2,529.52L1343.2,529.52A3.125,3.125 0 1 1 1337,529.52A3.125,3.125 0 1 1 1343.2,529.52Z" style="fill:none;stroke:#F15A60;stroke-width:0.625" />
<path d="M1350.1,589.27A3.125,3.125 0 1 1 1343.9,589.27A3.125,3.125 0 1 1 1350.1,589.27Z" style="fill:none;stroke:#F15A60;stroke-width:0.625" />
<path d="M1357.1,614.18A3.125,3.125 0 1 1 1350.8,614.18A3.125,3.125 0 1 1 1357.1,614.18Z" style="fill:none;stroke:#F15A60;stroke-width:0.625" />
<path d="M1364,506.59L1364,506.59A3.125,3.125 0 1 1 1357.7,506.59A3.125,3.125 0 1 1 1364,506.59Z" style="fill:none;stroke:#F15A60;stroke-width:0.625" />
<path d="M1370.9,550.86A3.125,3.125 0 1 1 1364.6,550.86A3.125,3.125 0 1 1 1370.9,550.86Z" style="fill:none;stroke:#F15A60;stroke-width:0.625" />
<path d="M1377.8,541.34A3.125,3.125 0 1 1 1371.5,541.34A3.125,3.125 0 1 1 1377.8,541.34Z" style="fill:none;stroke:#F15A60;stroke-width:0.625" />
<path d="M1384.7,756.74A3.125,3.125 0 1 1 1378.5,756.74A3.125,3.125 0 1 1 1384.7,756.74Z" style="fill:none;stroke:#F15A60;stroke-width:0.625" />
<path d="M1391.6,763.41A3.125,3.125 0 1 1 1385.4,763.41A3.125,3.125 0 1 1 1391.6,763.41Z" style="fill:none;stroke:#F15A60;stroke-width:0.625" />
<path d="M1398.5,781.96L1398.5,781.96A3.125,3.125 0 1 1 1392.3,781.96A3.125,3.125 0 1 1 1398.5,781.96Z" style="fill:none;stroke:#F15A60;stroke-width:0.625" />
<path d="M1405.4,556.98L1405.4,556.98A3.125,3.125 0 1 1 1399.2,556.98A3.125,3.125 0 1 1 1405.4,556.98Z" style="fill:none;stroke:#F15A60;stroke-width:0.625" />
<path d="M1412.4,728.24A3.125,3.125 0 1 1 1406.1,728.24A3.125,3.125 0 1 1 1412.4,728.24Z" style="fill:none;stroke:#F15A60;stroke-width:0.625" />
<path d="M1419.3,752.43A3.125,3.125 0 1 1 1413,752.43A3.125,3.125 0 1 1 1419.3,752.43Z" style="fill:none;stroke:#F15A60;stroke-width:0.625" />
<path d="M1426.2,740.86L1426.2,740.86A3.125,3.125 0 1 1 1419.9,740.86A3.125,3.125 0 1 1 1426.2,740.86Z" style="fill:none;stroke:#F15A60;stroke-width:0.625" />
<path d="M1433.1,730.59A3.125,3.125 0 1 1 1426.8,730.59A3.125,3.125 0 1 1 1433.1,730.59Z" style="fill:none;stroke:#F15A60;stroke-width:0.625" />
<path d="M1440,492.51A3.125,3.125 0 1 1 1433.8,492.51A3.125,3.125 0 1 1 1440,492.51Z" style="fill:none;stroke:#F15A60;stroke-width:0.625" />
<path d="M61.3,534.84L68.212,546.38L75.125,552.91L82.037,548.29L88.95,597.76L95.862,584.68L102.77,595.49L109.69,612.67L116.6,633.87L123.51,675.99L130.42,649.98L137.34,682.18L144.25,684.91L151.16,629.77L158.07,643.49L164.99,652.38L171.9,640.06L178.81,572.03L185.72,525.6L192.64,453.66L199.55,446.43L206.46,385.48L213.37,388.01L220.29,349.91L227.2,291.26L234.11,269.34L241.02,273.48L247.94,262.68L254.85,257.92L261.76,218.66L268.67,235.83L275.59,249.18L282.5,272.83L289.41,256.46L296.32,269.37L303.24,324.9L310.15,344.05L317.06,335.33L323.97,390.09L330.89,416.35L337.8,494.98L344.71,548.1L351.62,582.83L358.53,606.05L365.45,619.26L372.36,656.68L379.27,673.33L386.18,648.61L393.1,633.07L400.01,661.2L406.92,677.84L413.83,684.92L420.75,615.83L427.66,549.27L434.57,535.71L441.48,507.89L448.4,460.94L455.31,442.17L462.22,394.47L469.13,338.03L476.05,331.71L482.96,298.66L489.87,255.95L496.78,262.22L503.7,236.89L510.61,230.26L517.52,252.4L524.43,197.3L531.35,232.07L538.26,263.02L545.17,279.65L552.08,298.18L559,282.07L565.91,351.08L572.82,347.06L579.73,399.6L586.65,438.66L593.56,489.94L600.47,525.52L607.38,543.87L614.29,557.5L621.21,554.23L628.12,617.45L635.03,605.82L641.94,609.14L648.86,662.37L655.77,677.07L662.68,647.14L669.59,591.5L676.51,561.35L683.42,552.52L690.33,524.65L697.24,522.59L704.16,487.39L711.07,444.7L717.98,374.85L724.89,346.69L731.81,294.7L738.72,265.97L745.63,210.17L752.54,191.89L759.46,209.24L766.37,201.96L773.28,222.17L780.19,247.56L787.11,212L794.02,238.75L800.93,230.75L807.84,259.79L814.76,309.75L821.67,356.6L828.58,377.2L835.49,404.87L842.41,463.58L849.32,469.78L856.23,521.11L863.14,577.61L870.06,610.16L876.97,599.32L883.88,606.65L890.79,621.47L897.7,650.22L904.62,632.72L911.53,664.35L918.44,677.55L925.35,639.64L932.27,574.49L939.18,539.05L946.09,498.01L953,436.7L959.92,426.72L966.83,431.78L973.74,417.12L980.65,358.33L987.57,315.17L994.48,267.3L1001.4,265.85L1008.3,200.89L1015.2,169.24L1022.1,198.99L1029,158.08L1036,164.46L1042.9,219.15L1049.8,213.72L1056.7,200.47L1063.6,199.73L1070.5,275.42L1077.4,345.18L1084.3,403.37L1091.3,414.86L1098.2,482.31L1105.1,479.94L1112,538.97L1118.9,542.79L1125.8,585.24L1132.7,610.31L1139.6,632.56L1146.6,684.85L1153.5,709.07L1160.4,699.89L1167.3,673.01L1174.2,687.22L1181.1,621.96L1188,598.6L1194.9,557.39L1201.9,503.91L1208.8,494.56L1215.7,488.07L1222.6,426.91L1229.5,364.68L1236.4,301.49L1243.3,292.82L1250.2,265.49L1257.2,240.14L1264.1,246.4L1271,215.42L1277.9,182.49L1284.8,207.26L1291.7,233.54L1298.6,208.39L1305.5,248.47L1312.5,271.34L1319.4,268.99L1326.3,291.95L1333.2,292.38L1340.1,363.53L1347,431.25L1353.9,486.13L1360.8,492.27L1367.8,509.84L1374.7,519.29L1381.6,590.53L1388.5,642.39L1395.4,684.26L1402.3,646.08L1409.2,670.73L1416.1,695.24L1423.1,708.92L1430,715.42L1436.9,648.55" style="fill:none;stroke:#7AC36A;stroke-width:1.25;stroke-dasharray:7.5,2.5" />
<path d="M58.633,532.17L63.967,532.17L63.967,537.5L58.633,537.5Z" style="fill:none;stroke:#7AC36A;stroke-width:0.625" />
<path d="M65.545,543.72L70.88,543.72L70.88,549.05L65.545,549.05Z" style="fill:none;stroke:#7AC36A;stroke-width:0.625" />
<path d="M72.458,550.24L77.792,550.24L77.792,555.58L72.458,555.58Z" style="fill:none;stroke:#7AC36A;stroke-width:0.625" />
<path d="M79.37,545.62L84.705,545.62L84.705,550.95L79.37,550.95Z" style="fill:none;stroke:#7AC36A;stroke-width:0.625" />
<path d="M86.282,595.09L91.617,595.09L91.617,600.43L86.282,600.43Z" style="fill:none;stroke:#7AC36A;stroke-width:0.625" />
<path d="M93.195,582.01L98.53,582.01L98.53,587.35L93.195,587.35Z" style="fill:none;stroke:#7AC36A;stroke-width:0.625" />
<path d="M100.11,592.82L105.44,592.82L105.44,598.16L100.11,598.16Z" style="fill:none;stroke:#7AC36A;stroke-width:0.625" />
<path d="M107.02,610.01L112.35,610.01L112.35,615.34L107.02,615.34Z" style="fill:none;stroke:#7AC36A;stroke-width:0.625" />
<path d="M113.93,631.21L119.27,631.21L119.27,636.54L113.93,636.54Z" style="fill:none;stroke:#7AC36A;stroke-width:0.625" />
<path d="M120.84,673.32L126.18,673.32L126.18,678.65L120.84,678.65Z" style="fill:none;stroke:#7AC36A;stroke-width:0.625" />
<path d="M127.76,647.31L133.09,647.31L133.09,652.65L127.76,652.65Z" style="fill:none;stroke:#7AC36A;stroke-width:0.625" />
<path d="M134.67,679.51L140,679.51L140,684.84L134.67,684.84Z" style="fill:none;stroke:#7AC36A;stroke-width:0.625" />
<path d="M141.58,682.24L146.92,682.24L146.92,687.58L141.58,687.58Z" style="fill:none;stroke:#7AC36A;stroke-width:0.625" />
<path d="M148.49,627.1L153.83,627.1L153.83,632.44L148.49,632.44Z" style="fill:none;stroke:#7AC36A;stroke-width:0.625" />
<path d="M155.41,640.82L160.74,640.82L160.74,646.16L155.41,646.16Z" style="fill:none;stroke:#7AC36A;stroke-width:0.625" />
<path d="M162.32,649.71L167.65,649.71L167.65,655.05L162.32,655.05Z" style="fill:none;stroke:#7AC36A;stroke-width:0.625" />
<path d="M169.23,637.39L174.57,637.39L174.57,642.72L169.23,642.72Z" style="fill:none;stroke:#7AC36A;stroke-width:0.625" />
<path d="M176.14,569.37L181.48,569.37L181.48,574.7L176.14,574.7Z" style="fill:none;stroke:#7AC36A;stroke-width:0.625" />
<path d="M183.06,522.93L188.39,522.93L188.39,528.26L183.06,528.26Z" style="fill:none;stroke:#7AC36A;stroke-width:0.625" />
<path d="M189.97,450.99L195.3,450.99L195.3,456.33L189.97,456.33Z" style="fill:none;stroke:#7AC36A;stroke-width:0.625" />
<path d="M196.88,443.76L202.22,443.76L202.22,449.09L196.88,449.09Z" style="fill:none;stroke:#7AC36A;stroke-width:0.625" />
<path d="M203.79,382.81L209.13,382.81L209.13,388.14L203.79,388.14Z" style="fill:none;stroke:#7AC36A;stroke-width:0.625" />
<path d="M210.71,385.35L216.04,385.35L216.04,390.68L210.71,390.68Z" style="fill:none;stroke:#7AC36A;stroke-width:0.625" />
<path d="M217.62,347.24L222.95,347.24L222.95,352.57L217.62,352.57Z" style="fill:none;stroke:#7AC36A;stroke-width:0.625" />
<path d="M224.53,288.59L229.87,288.59L229.87,293.93L224.53,293.93Z" style="fill:none;stroke:#7AC36A;stroke-width:0.625" />
<path d="M231.44,266.67L236.78,266.67L236.78,272.01L231.44,272.01Z" style="fill:none;stroke:#7AC36A;stroke-width:0.625" />
<path d="M238.36,270.82L243.69,270.82L243.69,276.15L238.36,276.15Z" style="fill:none;stroke:#7AC36A;stroke-width:0.625" />
<path d="M245.27,260.01L250.6,260.01L250.6,265.35L245.27,265.35Z" style="fill:none;stroke:#7AC36A;stroke-width:0.625" />
<path d="M252.18,255.25L257.52,255.25L257.52,260.59L252.18,260.59Z" style="fill:none;stroke:#7AC36A;stroke-width:0.625" />
<path d="M259.09,215.99L264.43,215.99L264.43,221.33L259.09,221.33Z" style="fill:none;stroke:#7AC36A;stroke-width:0.625" />
<path d="M266.01,233.16L271.34,233.16L271.34,238.5L266.01,238.5Z" style="fill:none;stroke:#7AC36A;stroke-width:0.625" />
<path d="M272.92,246.52L278.25,246.52L278.25,251.85L272.92,251.85Z" style="fill:none;stroke:#7AC36A;stroke-width:0.625" />
<path d="M279.83,270.16L285.17,270.16L285.17,275.5L279.83,275.5Z" style="fill:none;stroke:#7AC36A;stroke-width:0.625" />
<path d="M286.74,253.8L292.08,253.8L292.08,259.13L286.74,259.13Z" style="fill:none;stroke:#7AC36A;stroke-width:0.625" />
<path d="M293.66,266.7L298.99,266.7L298.99,272.03L293.66,272.03Z" style="fill:none;stroke:#7AC36A;stroke-width:0.625" />
<path d="M300.57,322.23L305.9,322.23L305.9,327.57L300.57,327.57Z" style="fill:none;stroke:#7AC36A;stroke-width:0.625" />
<path d="M307.48,341.38L312.82,341.38L312.82,346.72L307.48,346.72Z" style="fill:none;stroke:#7AC36A;stroke-width:0.625" />
<path d="M314.39,332.66L319.73,332.66L319.73,337.99L314.39,337.99Z" style="fill:none;stroke:#7AC36A;stroke-width:0.625" />
<path d="M321.31,387.42L326.64,387.42L326.64,392.76L321.31,392.76Z" style="fill:none;stroke:#7AC36A;stroke-width:0.625" />
<path d="M328.22,413.69L333.55,413.69L333.55,419.02L328.22,419.02Z" style="fill:none;stroke:#7AC36A;stroke-width:0.625" />
<path d="M335.13,492.31L340.46,492.31L340.46,497.64L335.13,497.64Z" style="fill:none;stroke:#7AC36A;stroke-width:0.625" />
<path d="M342.04,545.43L347.38,545.43L347.38,550.76L342.04,550.76Z" style="fill:none;stroke:#7AC36A;stroke-width:0.625" />
<path d="M348.96,580.16L354.29,580.16L354.29,585.49L348.96,585.49Z" style="fill:none;stroke:#7AC36A;stroke-width:0.625" />
<path d="M355.87,603.38L361.2,603.38L361.2,608.71L355.87,608.71Z" style="fill:none;stroke:#7AC36A;stroke-width:0.625" />
<path d="M362.78,616.59L368.11,616.59L368.11,621.93L362.78,621.93Z" style="fill:none;stroke:#7AC36A;stroke-width:0.625" />
<path d="M369.69,654.01L375.03,654.01L375.03,659.35L369.69,659.35Z" style="fill:none;stroke:#7AC36A;stroke-width:0.625" />
<path d="M376.6,670.66L381.94,670.66L381.94,676L376.6,676Z" style="fill:none;stroke:#7AC36A;stroke-width:0.625" />
<path d="M383.52,645.94L388.85,645.94L388.85,651.27L383.52,651.27Z" style="fill:none;stroke:#7AC36A;stroke-width:0.625" />
<path d="M390.43,630.4L395.76,630.4L395.76,635.74L390.43,635.74Z" style="fill:none;stroke:#7AC36A;stroke-width:0.625" />
<path d="M397.34,658.53L402.68,658.53L402.68,663.86L397.34,663.86Z" style="fill:none;stroke:#7AC36A;stroke-width:0.625" />
<path d="M404.25,675.18L409.59,675.18L409.59,680.51L404.25,680.51Z" style="fill:none;stroke:#7AC36A;stroke-width:0.625" />
<path d="M411.17,682.25L416.5,682.25L416.5,687.59L411.17,687.59Z" style="fill:none;stroke:#7AC36A;stroke-width:0.625" />
<path d="M418.08,613.16L423.41,613.16L423.41,618.5L418.08,618.5Z" style="fill:none;stroke:#7AC36A;stroke-width:0.625" />
<path d="M424.99,546.6L430.33,546.6L430.33,551.93L424.99,551.93Z" style="fill:none;stroke:#7AC36A;stroke-width:0.625" />
<path d="M431.9,533.04L437.24,533.04L437.24,538.38L431.9,538.38Z" style="fill:none;stroke:#7AC36A;stroke-width:0.625" />
<path d="M438.82,505.22L444.15,505.22L444.15,510.56L438.82,510.56Z" style="fill:none;stroke:#7AC36A;stroke-width:0.625" />
<path d="M445.73,458.27L451.06,458.27L451.06,463.61L445.73,463.61Z" style="fill:none;stroke:#7AC36A;stroke-width:0.625" />
<path d="M452.64,439.5L457.98,439.5L457.98,444.84L452.64,444.84Z" style="fill:none;stroke:#7AC36A;stroke-width:0.625" />
<path d="M459.55,391.8L464.89,391.8L464.89,397.14L459.55,397.14Z" style="fill:none;stroke:#7AC36A;stroke-width:0.625" />
<path d="M466.47,335.37L471.8,335.37L471.8,340.7L466.47,340.7Z" style="fill:none;stroke:#7AC36A;stroke-width:0.625" />
<path d="M473.38,329.04L478.71,329.04L478.71,334.37L473.38,334.37Z" style="fill:none;stroke:#7AC36A;stroke-width:0.625" />
<path d="M480.29,295.99L485.63,295.99L485.63,301.33L480.29,301.33Z" style="fill:none;stroke:#7AC36A;stroke-width:0.625" />
<path d="M487.2,253.28L492.54,253.28L492.54,258.62L487.2,258.62Z" style="fill:none;stroke:#7AC36A;stroke-width:0.625" />
<path d="M494.12,259.55L499.45,259.55L499.45,264.88L494.12,264.88Z" style="fill:none;stroke:#7AC36A;stroke-width:0.625" />
<path d="M501.03,234.22L506.36,234.22L506.36,239.55L501.03,239.55Z" style="fill:none;stroke:#7AC36A;stroke-width:0.625" />
<path d="M507.94,227.59L513.28,227.59L513.28,232.92L507.94,232.92Z" style="fill:none;stroke:#7AC36A;stroke-width:0.625" />
<path d="M514.85,249.73L520.19,249.73L520.19,255.07L514.85,255.07Z" style="fill:none;stroke:#7AC36A;stroke-width:0.625" />
<path d="M521.77,194.63L527.1,194.63L527.1,199.97L521.77,199.97Z" style="fill:none;stroke:#7AC36A;stroke-width:0.625" />
<path d="M528.68,229.4L534.01,229.4L534.01,234.73L528.68,234.73Z" style="fill:none;stroke:#7AC36A;stroke-width:0.625" />
<path d="M535.59,260.35L540.93,260.35L540.93,265.69L535.59,265.69Z" style="fill:none;stroke:#7AC36A;stroke-width:0.625" />
<path d="M542.5,276.98L547.84,276.98L547.84,282.32L542.5,282.32Z" style="fill:none;stroke:#7AC36A;stroke-width:0.625" />
<path d="M549.42,295.51L554.75,295.51L554.75,300.85L549.42,300.85Z" style="fill:none;stroke:#7AC36A;stroke-width:0.625" />
<path d="M556.33,279.4L561.66,279.4L561.66,284.74L556.33,284.74Z" style="fill:none;stroke:#7AC36A;stroke-width:0.625" />
<path d="M563.24,348.42L568.58,348.42L568.58,353.75L563.24,353.75Z" style="fill:none;stroke:#7AC36A;stroke-width:0.625" />
<path d="M570.15,344.4L575.49,344.4L575.49,349.73L570.15,349.73Z" style="fill:none;stroke:#7AC36A;stroke-width:0.625" />
<path d="M577.07,396.93L582.4,396.93L582.4,402.27L577.07,402.27Z" style="fill:none;stroke:#7AC36A;stroke-width:0.625" />
<path d="M583.98,435.99L589.31,435.99L589.31,441.33L583.98,441.33Z" style="fill:none;stroke:#7AC36A;stroke-width:0.625" />
<path d="M590.89,487.28L596.23,487.28L596.23,492.61L590.89,492.61Z" style="fill:none;stroke:#7AC36A;stroke-width:0.625" />
<path d="M597.8,522.85L603.14,522.85L603.14,528.18L597.8,528.18Z" style="fill:none;stroke:#7AC36A;stroke-width:0.625" />
<path d="M604.72,541.2L610.05,541.2L610.05,546.54L604.72,546.54Z" style="fill:none;stroke:#7AC36A;stroke-width:0.625" />
<path d="M611.63,554.83L616.96,554.83L616.96,560.16L611.63,560.16Z" style="fill:none;stroke:#7AC36A;stroke-width:0.625" />
<path d="M618.54,551.56L623.87,551.56L623.87,556.9L618.54,556.9Z" style="fill:none;stroke:#7AC36A;stroke-width:0.625" />
<path d="M625.45,614.78L630.79,614.78L630.79,620.12L625.45,620.12Z" style="fill:none;stroke:#7AC36A;stroke-width:0.625" />
<path d="M632.36,603.15L637.7,603.15L637.7,608.49L632.36,608.49Z" style="fill:none;stroke:#7AC36A;stroke-width:0.625" />
<path d="M639.28,606.47L644.61,606.47L644.61,611.8L639.28,611.8Z" style="fill:none;stroke:#7AC36A;stroke-width:0.625" />
<path d="M646.19,659.7L651.52,659.7L651.52,665.03L646.19,665.03Z" style="fill:none;stroke:#7AC36A;stroke-width:0.625" />
<path d="M653.1,674.4L658.44,674.4L658.44,679.74L653.1,679.74Z" style="fill:none;stroke:#7AC36A;stroke-width:0.625" />
<path d="M660.01,644.48L665.35,644.48L665.35,649.81L660.01,649.81Z" style="fill:none;stroke:#7AC36A;stroke-width:0.625" />
<path d="M666.93,588.84L672.26,588.84L672.26,594.17L666.93,594.17Z" style="fill:none;stroke:#7AC36A;stroke-width:0.625" />
<path d="M673.84,558.68L679.17,558.68L679.17,564.02L673.84,564.02Z" style="fill:none;stroke:#7AC36A;stroke-width:0.625" />
<path d="M680.75,549.85L686.09,549.85L686.09,555.18L680.75,555.18Z" style="fill:none;stroke:#7AC36A;stroke-width:0.625" />
<path d="M687.66,521.98L693,521.98L693,527.32L687.66,527.32Z" style="fill:none;stroke:#7AC36A;stroke-width:0.625" />
<path d="M694.58,519.93L699.91,519.93L699.91,525.26L694.58,525.26Z" style="fill:none;stroke:#7AC36A;stroke-width:0.625" />
<path d="M701.49,484.72L706.82,484.72L706.82,490.05L701.49,490.05Z" style="fill:none;stroke:#7AC36A;stroke-width:0.625" />
<path d="M708.4,442.04L713.74,442.04L713.74,447.37L708.4,447.37Z" style="fill:none;stroke:#7AC36A;stroke-width:0.625" />
<path d="M715.31,372.19L720.65,372.19L720.65,377.52L715.31,377.52Z" style="fill:none;stroke:#7AC36A;stroke-width:0.625" />
<path d="M722.23,344.03L727.56,344.03L727.56,349.36L722.23,349.36Z" style="fill:none;stroke:#7AC36A;stroke-width:0.625" />
<path d="M729.14,292.03L734.47,292.03L734.47,297.36L729.14,297.36Z" style="fill:none;stroke:#7AC36A;stroke-width:0.625" />
<path d="M736.05,263.3L741.39,263.3L741.39,268.64L736.05,268.64Z" style="fill:none;stroke:#7AC36A;stroke-width:0.625" />
<path d="M742.96,207.5L748.3,207.5L748.3,212.84L742.96,212.84Z" style="fill:none;stroke:#7AC36A;stroke-width:0.625" />
<path d="M749.88,189.23L755.21,189.23L755.21,194.56L749.88,194.56Z" style="fill:none;stroke:#7AC36A;stroke-width:0.625" />
<path d="M756.79,206.57L762.12,206.57L762.12,211.91L756.79,211.91Z" style="fill:none;stroke:#7AC36A;stroke-width:0.625" />
<path d="M763.7,199.29L769.04,199.29L769.04,204.63L763.7,204.63Z" style="fill:none;stroke:#7AC36A;stroke-width:0.625" />
<path d="M770.61,219.51L775.95,219.51L775.95,224.84L770.61,224.84Z" style="fill:none;stroke:#7AC36A;stroke-width:0.625" />
<path d="M777.53,244.89L782.86,244.89L782.86,250.23L777.53,250.23Z" style="fill:none;stroke:#7AC36A;stroke-width:0.625" />
<path d="M784.44,209.33L789.77,209.33L789.77,214.66L784.44,214.66Z" style="fill:none;stroke:#7AC36A;stroke-width:0.625" />
<path d="M791.35,236.09L796.69,236.09L796.69,241.42L791.35,241.42Z" style="fill:none;stroke:#7AC36A;stroke-width:0.625" />
<path d="M798.26,228.09L803.6,228.09L803.6,233.42L798.26,233.42Z" style="fill:none;stroke:#7AC36A;stroke-width:0.625" />
<path d="M805.18,257.13L810.51,257.13L810.51,262.46L805.18,262.46Z" style="fill:none;stroke:#7AC36A;stroke-width:0.625" />
<path d="M812.09,307.08L817.42,307.08L817.42,312.42L812.09,312.42Z" style="fill:none;stroke:#7AC36A;stroke-width:0.625" />
<path d="M819,353.94L824.34,353.94L824.34,359.27L819,359.27Z" style="fill:none;stroke:#7AC36A;stroke-width:0.625" />
<path d="M825.91,374.53L831.25,374.53L831.25,379.86L825.91,379.86Z" style="fill:none;stroke:#7AC36A;stroke-width:0.625" />
<path d="M832.83,402.2L838.16,402.2L838.16,407.53L832.83,407.53Z" style="fill:none;stroke:#7AC36A;stroke-width:0.625" />
<path d="M839.74,460.92L845.07,460.92L845.07,466.25L839.74,466.25Z" style="fill:none;stroke:#7AC36A;stroke-width:0.625" />
<path d="M846.65,467.11L851.99,467.11L851.99,472.45L846.65,472.45Z" style="fill:none;stroke:#7AC36A;stroke-width:0.625" />
<path d="M853.56,518.45L858.9,518.45L858.9,523.78L853.56,523.78Z" style="fill:none;stroke:#7AC36A;stroke-width:0.625" />
<path d="M860.48,574.95L865.81,574.95L865.81,580.28L860.48,580.28Z" style="fill:none;stroke:#7AC36A;stroke-width:0.625" />
<path d="M867.39,607.49L872.72,607.49L872.72,612.83L867.39,612.83Z" style="fill:none;stroke:#7AC36A;stroke-width:0.625" />
<path d="M874.3,596.66L879.63,596.66L879.63,601.99L874.3,601.99Z" style="fill:none;stroke:#7AC36A;stroke-width:0.625" />
<path d="M881.21,603.98L886.55,603.98L886.55,609.32L881.21,609.32Z" style="fill:none;stroke:#7AC36A;stroke-width:0.625" />
<path d="M888.13,618.8L893.46,618.8L893.46,624.13L888.13,624.13Z" style="fill:none;stroke:#7AC36A;stroke-width:0.625" />
<path d="M895.04,647.56L900.37,647.56L900.37,652.89L895.04,652.89Z" style="fill:none;stroke:#7AC36A;stroke-width:0.625" />
<path d="M901.95,630.05L907.28,630.05L907.28,635.39L901.95,635.39Z" style="fill:none;stroke:#7AC36A;stroke-width:0.625" />
<path d="M908.86,661.69L914.2,661.69L914.2,667.02L908.86,667.02Z" style="fill:none;stroke:#7AC36A;stroke-width:0.625" />
<path d="M915.77,674.88L921.11,674.88L921.11,680.22L915.77,680.22Z" style="fill:none;stroke:#7AC36A;stroke-width:0.625" />
<path d="M922.69,636.97L928.02,636.97L928.02,642.31L922.69,642.31Z" style="fill:none;stroke:#7AC36A;stroke-width:0.625" />
<path d="M929.6,571.82L934.93,571.82L934.93,577.16L929.6,577.16Z" style="fill:none;stroke:#7AC36A;stroke-width:0.625" />
<path d="M936.51,536.38L941.85,536.38L941.85,541.72L936.51,541.72Z" style="fill:none;stroke:#7AC36A;stroke-width:0.625" />
<path d="M943.42,495.35L948.76,495.35L948.76,500.68L943.42,500.68Z" style="fill:none;stroke:#7AC36A;stroke-width:0.625" />
<path d="M950.34,434.03L955.67,434.03L955.67,439.37L950.34,439.37Z" style="fill:none;stroke:#7AC36A;stroke-width:0.625" />
<path d="M957.25,424.06L962.58,424.06L962.58,429.39L957.25,429.39Z" style="fill:none;stroke:#7AC36A;stroke-width:0.625" />
<path d="M964.16,429.11L969.5,429.11L969.5,434.45L964.16,434.45Z" style="fill:none;stroke:#7AC36A;stroke-width:0.625" />
<path d="M971.07,414.45L976.41,414.45L976.41,419.79L971.07,419.79Z" style="fill:none;stroke:#7AC36A;stroke-width:0.625" />
<path d="M977.99,355.66L983.32,355.66L983.32,360.99L977.99,360.99Z" style="fill:none;stroke:#7AC36A;stroke-width:0.625" />
<path d="M984.9,312.51L990.23,312.51L990.23,317.84L984.9,317.84Z" style="fill:none;stroke:#7AC36A;stroke-width:0.625" />
<path d="M991.81,264.63L997.15,264.63L997.15,269.96L991.81,269.96Z" style="fill:none;stroke:#7AC36A;stroke-width:0.625" />
<path d="M998.72,263.18L1004.1,263.18L1004.1,268.52L998.72,268.52Z" style="fill:none;stroke:#7AC36A;stroke-width:0.625" />
<path d="M1005.6,198.22L1011,198.22L1011,203.56L1005.6,203.56Z" style="fill:none;stroke:#7AC36A;stroke-width:0.625" />
<path d="M1012.5,166.57L1017.9,166.57L1017.9,171.91L1012.5,171.91Z" style="fill:none;stroke:#7AC36A;stroke-width:0.625" />
<path d="M1019.5,196.33L1024.8,196.33L1024.8,201.66L1019.5,201.66Z" style="fill:none;stroke:#7AC36A;stroke-width:0.625" />
<path d="M1026.4,155.41L1031.7,155.41L1031.7,160.74L1026.4,160.74Z" style="fill:none;stroke:#7AC36A;stroke-width:0.625" />
<path d="M1033.3,161.79L1038.6,161.79L1038.6,167.12L1033.3,167.12Z" style="fill:none;stroke:#7AC36A;stroke-width:0.625" />
<path d="M1040.2,216.48L1045.5,216.48L1045.5,221.82L1040.2,221.82Z" style="fill:none;stroke:#7AC36A;stroke-width:0.625" />
<path d="M1047.1,211.05L1052.4,211.05L1052.4,216.39L1047.1,216.39Z" style="fill:none;stroke:#7AC36A;stroke-width:0.625" />
<path d="M1054,197.8L1059.4,197.8L1059.4,203.14L1054,203.14Z" style="fill:none;stroke:#7AC36A;stroke-width:0.625" />
<path d="M1060.9,197.06L1066.3,197.06L1066.3,202.4L1060.9,202.4Z" style="fill:none;stroke:#7AC36A;stroke-width:0.625" />
<path d="M1067.8,272.75L1073.2,272.75L1073.2,278.09L1067.8,278.09Z" style="fill:none;stroke:#7AC36A;stroke-width:0.625" />
<path d="M1074.8,342.51L1080.1,342.51L1080.1,347.85L1074.8,347.85Z" style="fill:none;stroke:#7AC36A;stroke-width:0.625" />
<path d="M1081.7,400.7L1087,400.7L1087,406.04L1081.7,406.04Z" style="fill:none;stroke:#7AC36A;stroke-width:0.625" />
<path d="M1088.6,412.19L1093.9,412.19L1093.9,417.52L1088.6,417.52Z" style="fill:none;stroke:#7AC36A;stroke-width:0.625" />
<path d="M1095.5,479.64L1100.8,479.64L1100.8,484.97L1095.5,484.97Z" style="fill:none;stroke:#7AC36A;stroke-width:0.625" />
<path d="M1102.4,477.27L1107.7,477.27L1107.7,482.61L1102.4,482.61Z" style="fill:none;stroke:#7AC36A;stroke-width:0.625" />
<path d="M1109.3,536.3L1114.7,536.3L1114.7,541.64L1109.3,541.64Z" style="fill:none;stroke:#7AC36A;stroke-width:0.625" />
<path d="M1116.2,540.12L1121.6,540.12L1121.6,545.46L1116.2,545.46Z" style="fill:none;stroke:#7AC36A;stroke-width:0.625" />
<path d="M1123.1,582.57L1128.5,582.57L1128.5,587.9L1123.1,587.9Z" style="fill:none;stroke:#7AC36A;stroke-width:0.625" />
<path d="M1130.1,607.64L1135.4,607.64L1135.4,612.98L1130.1,612.98Z" style="fill:none;stroke:#7AC36A;stroke-width:0.625" />
<path d="M1137,629.89L1142.3,629.89L1142.3,635.23L1137,635.23Z" style="fill:none;stroke:#7AC36A;stroke-width:0.625" />
<path d="M1143.9,682.19L1149.2,682.19L1149.2,687.52L1143.9,687.52Z" style="fill:none;stroke:#7AC36A;stroke-width:0.625" />
<path d="M1150.8,706.41L1156.1,706.41L1156.1,711.74L1150.8,711.74Z" style="fill:none;stroke:#7AC36A;stroke-width:0.625" />
<path d="M1157.7,697.23L1163,697.23L1163,702.56L1157.7,702.56Z" style="fill:none;stroke:#7AC36A;stroke-width:0.625" />
<path d="M1164.6,670.34L1170,670.34L1170,675.68L1164.6,675.68Z" style="fill:none;stroke:#7AC36A;stroke-width:0.625" />
<path d="M1171.5,684.55L1176.9,684.55L1176.9,689.89L1171.5,689.89Z" style="fill:none;stroke:#7AC36A;stroke-width:0.625" />
<path d="M1178.4,619.29L1183.8,619.29L1183.8,624.63L1178.4,624.63Z" style="fill:none;stroke:#7AC36A;stroke-width:0.625" />
<path d="M1185.4,595.93L1190.7,595.93L1190.7,601.26L1185.4,601.26Z" style="fill:none;stroke:#7AC36A;stroke-width:0.625" />
<path d="M1192.3,554.73L1197.6,554.73L1197.6,560.06L1192.3,560.06Z" style="fill:none;stroke:#7AC36A;stroke-width:0.625" />
<path d="M1199.2,501.25L1204.5,501.25L1204.5,506.58L1199.2,506.58Z" style="fill:none;stroke:#7AC36A;stroke-width:0.625" />
<path d="M1206.1,491.89L1211.4,491.89L1211.4,497.22L1206.1,497.22Z" style="fill:none;stroke:#7AC36A;stroke-width:0.625" />
<path d="M1213,485.4L1218.3,485.4L1218.3,490.73L1213,490.73Z" style="fill:none;stroke:#7AC36A;stroke-width:0.625" />
<path d="M1219.9,424.24L1225.3,424.24L1225.3,429.58L1219.9,429.58Z" style="fill:none;stroke:#7AC36A;stroke-width:0.625" />
<path d="M1226.8,362.01L1232.2,362.01L1232.2,367.35L1226.8,367.35Z" style="fill:none;stroke:#7AC36A;stroke-width:0.625" />
<path d="M1233.7,298.82L1239.1,298.82L1239.1,304.16L1233.7,304.16Z" style="fill:none;stroke:#7AC36A;stroke-width:0.625" />
<path d="M1240.7,290.16L1246,290.16L1246,295.49L1240.7,295.49Z" style="fill:none;stroke:#7AC36A;stroke-width:0.625" />
<path d="M1247.6,262.83L1252.9,262.83L1252.9,268.16L1247.6,268.16Z" style="fill:none;stroke:#7AC36A;stroke-width:0.625" />
<path d="M1254.5,237.47L1259.8,237.47L1259.8,242.8L1254.5,242.8Z" style="fill:none;stroke:#7AC36A;stroke-width:0.625" />
<path d="M1261.4,243.73L1266.7,243.73L1266.7,249.07L1261.4,249.07Z" style="fill:none;stroke:#7AC36A;stroke-width:0.625" />
<path d="M1268.3,212.75L1273.6,212.75L1273.6,218.09L1268.3,218.09Z" style="fill:none;stroke:#7AC36A;stroke-width:0.625" />
<path d="M1275.2,179.83L1280.6,179.83L1280.6,185.16L1275.2,185.16Z" style="fill:none;stroke:#7AC36A;stroke-width:0.625" />
<path d="M1282.1,204.59L1287.5,204.59L1287.5,209.93L1282.1,209.93Z" style="fill:none;stroke:#7AC36A;stroke-width:0.625" />
<path d="M1289,230.87L1294.4,230.87L1294.4,236.2L1289,236.2Z" style="fill:none;stroke:#7AC36A;stroke-width:0.625" />
<path d="M1296,205.72L1301.3,205.72L1301.3,211.06L1296,211.06Z" style="fill:none;stroke:#7AC36A;stroke-width:0.625" />
<path d="M1302.9,245.8L1308.2,245.8L1308.2,251.13L1302.9,251.13Z" style="fill:none;stroke:#7AC36A;stroke-width:0.625" />
<path d="M1309.8,268.67L1315.1,268.67L1315.1,274L1309.8,274Z" style="fill:none;stroke:#7AC36A;stroke-width:0.625" />
<path d="M1316.7,266.32L1322,266.32L1322,271.65L1316.7,271.65Z" style="fill:none;stroke:#7AC36A;stroke-width:0.625" />
<path d="M1323.6,289.29L1328.9,289.29L1328.9,294.62L1323.6,294.62Z" style="fill:none;stroke:#7AC36A;stroke-width:0.625" />
<path d="M1330.5,289.72L1335.9,289.72L1335.9,295.05L1330.5,295.05Z" style="fill:none;stroke:#7AC36A;stroke-width:0.625" />
<path d="M1337.4,360.86L1342.8,360.86L1342.8,366.19L1337.4,366.19Z" style="fill:none;stroke:#7AC36A;stroke-width:0.625" />
<path d="M1344.3,428.58L1349.7,428.58L1349.7,433.92L1344.3,433.92Z" style="fill:none;stroke:#7AC36A;stroke-width:0.625" />
<path d="M1351.3,483.46L1356.6,483.46L1356.6,488.8L1351.3,488.8Z" style="fill:none;stroke:#7AC36A;stroke-width:0.625" />
<path d="M1358.2,489.6L1363.5,489.6L1363.5,494.93L1358.2,494.93Z" style="fill:none;stroke:#7AC36A;stroke-width:0.625" />
<path d="M1365.1,507.18L1370.4,507.18L1370.4,512.51L1365.1,512.51Z" style="fill:none;stroke:#7AC36A;stroke-width:0.625" />
<path d="M1372,516.63L1377.3,516.63L1377.3,521.96L1372,521.96Z" style="fill:none;stroke:#7AC36A;stroke-width:0.625" />
<path d="M1378.9,587.86L1384.2,587.86L1384.2,593.2L1378.9,593.2Z" style="fill:none;stroke:#7AC36A;stroke-width:0.625" />
<path d="M1385.8,639.72L1391.2,639.72L1391.2,645.06L1385.8,645.06Z" style="fill:none;stroke:#7AC36A;stroke-width:0.625" />
<path d="M1392.7,681.6L1398.1,681.6L1398.1,686.93L1392.7,686.93Z" style="fill:none;stroke:#7AC36A;stroke-width:0.625" />
<path d="M1399.6,643.41L1405,643.41L1405,648.74L1399.6,648.74Z" style="fill:none;stroke:#7AC36A;stroke-width:0.625" />
<path d="M1406.6,668.06L1411.9,668.06L1411.9,673.39L1406.6,673.39Z" style="fill:none;stroke:#7AC36A;stroke-width:0.625" />
<path d="M1413.5,692.57L1418.8,692.57L1418.8,697.9L1413.5,697.9Z" style="fill:none;stroke:#7AC36A;stroke-width:0.625" />
<path d="M1420.4,706.26L1425.7,706.26L1425.7,711.59L1420.4,711.59Z" style="fill:none;stroke:#7AC36A;stroke-width:0.625" />
<path d="M1427.3,712.76L1432.6,712.76L1432.6,718.09L1427.3,718.09Z" style="fill:none;stroke:#7AC36A;stroke-width:0.625" />
<path d="M1434.2,645.88L1439.5,645.88L1439.5,651.22L1434.2,651.22Z" style="fill:none;stroke:#7AC36A;stroke-width:0.625" />
<path d="M1415,66.978L1440,66.978" style="fill:none;stroke:#F15A60;stroke-width:1.25" />
<path d="M1430.6,66.978A3.125,3.125 0 1 1 1424.4,66.978A3.125,3.125 0 1 1 1430.6,66.978Z" style="fill:none;stroke:#F15A60;stroke-width:0.625" />
<text x="1388.8" y="-61.188" transform="scale(1, -1)"
	style="font-family:Times;font-weight:normal;font-style:normal;font-size:12pt">raw</text>
<path d="M1415,53.117L1440,53.117" style="fill:none;stroke:#7AC36A;stroke-width:1.25;stroke-dasharray:7.5,2.5" />
<path d="M1424.8,50.45L1430.2,50.45L1430.2,55.785L1424.8,55.785Z" style="fill:none;stroke:#7AC36A;stroke-width:0.625" />
<text x="1367.1" y="-47.328" transform="scale(1, -1)"
	style="font-family:Times;font-weight:normal;font-style:normal;font-size:12pt">smooth</text>
</g>
</svg>
