<?xml version="1.0"?>
<!-- Generated by SVGo and Plotinum VG -->
<svg width="16in" height="9in"
	xmlns="http://www.w3.org/2000/svg"
	xmlns:xlink="http://www.w3.org/1999/xlink">
<g transform="scale(1, -1) translate(0, -810)">
<path d="M0,0L1440,0L1440,810L0,810Z" style="fill:#FFFFFF" />
<text x="744.27" y="-4.8267" transform="scale(1, -1)"
	style="font-family:Times;font-weight:normal;font-style:normal;font-size:12pt">X</text>
<text x="59.37" y="-19.502" transform="scale(1, -1)"
	style="font-family:Times;font-weight:normal;font-style:normal;font-size:10pt">0</text>
<text x="470.63" y="-19.502" transform="scale(1, -1)"
	style="font-family:Times;font-weight:normal;font-style:normal;font-size:10pt">60</text>
<text x="881.89" y="-19.502" transform="scale(1, -1)"
	style="font-family:Times;font-weight:normal;font-style:normal;font-size:10pt">120</text>
<text x="1296.3" y="-19.502" transform="scale(1, -1)"
	style="font-family:Times;font-weight:normal;font-style:normal;font-size:10pt">180</text>
<path d="M62.495,31.538L62.495,41.538" style="fill:none;stroke:#000000;stroke-width:0.625" />
<path d="M476.88,31.538L476.88,41.538" style="fill:none;stroke:#000000;stroke-width:0.625" />
<path d="M891.27,31.538L891.27,41.538" style="fill:none;stroke:#000000;stroke-width:0.625" />
<path d="M1305.7,31.538L1305.7,41.538" style="fill:none;stroke:#000000;stroke-width:0.625" />
<path d="M200.62,36.538L200.62,41.538" style="fill:none;stroke:#000000;stroke-width:0.625" />
<path d="M338.75,36.538L338.75,41.538" style="fill:none;stroke:#000000;stroke-width:0.625" />
<path d="M615.01,36.538L615.01,41.538" style="fill:none;stroke:#000000;stroke-width:0.625" />
<path d="M753.14,36.538L753.14,41.538" style="fill:none;stroke:#000000;stroke-width:0.625" />
<path d="M1029.4,36.538L1029.4,41.538" style="fill:none;stroke:#000000;stroke-width:0.625" />
<path d="M1167.5,36.538L1167.5,41.538" style="fill:none;stroke:#000000;stroke-width:0.625" />
<path d="M62.495,41.538L1436.9,41.538" style="fill:none;stroke:#000000;stroke-width:0.625" />
<g transform="rotate(90)">
<text x="423.63" y="14.443" transform="scale(1, -1)"
	style="font-family:Times;font-weight:normal;font-style:normal;font-size:12pt">Y</text>
</g>
<text x="19.27" y="-91.126" transform="scale(1, -1)"
	style="font-family:Times;font-weight:normal;font-style:normal;font-size:10pt">-0.8</text>
<text x="32.808" y="-295.09" transform="scale(1, -1)"
	style="font-family:Times;font-weight:normal;font-style:normal;font-size:10pt">0</text>
<text x="23.433" y="-499.05" transform="scale(1, -1)"
	style="font-family:Times;font-weight:normal;font-style:normal;font-size:10pt">0.8</text>
<text x="23.433" y="-703.01" transform="scale(1, -1)"
	style="font-family:Times;font-weight:normal;font-style:normal;font-size:10pt">1.6</text>
<path d="M42.183,97.028L52.183,97.028" style="fill:none;stroke:#000000;stroke-width:0.625" />
<path d="M42.183,300.99L52.183,300.99" style="fill:none;stroke:#000000;stroke-width:0.625" />
<path d="M42.183,504.95L52.183,504.95" style="fill:none;stroke:#000000;stroke-width:0.625" />
<path d="M42.183,708.91L52.183,708.91" style="fill:none;stroke:#000000;stroke-width:0.625" />
<path d="M47.183,97.028L52.183,97.028" style="fill:none;stroke:#000000;stroke-width:0.625" />
<path d="M47.183,199.01L52.183,199.01" style="fill:none;stroke:#000000;stroke-width:0.625" />
<path d="M47.183,300.99L52.183,300.99" style="fill:none;stroke:#000000;stroke-width:0.625" />
<path d="M47.183,402.97L52.183,402.97" style="fill:none;stroke:#000000;stroke-width:0.625" />
<path d="M47.183,504.95L52.183,504.95" style="fill:none;stroke:#000000;stroke-width:0.625" />
<path d="M47.183,606.93L52.183,606.93" style="fill:none;stroke:#000000;stroke-width:0.625" />
<path d="M52.183,51.226L52.183,806.88" style="fill:none;stroke:#000000;stroke-width:0.625" />
<path d="M62.495,420.54L69.402,361.32L76.308,590.82L83.214,654.48L90.121,624.92L97.027,691.65L103.93,775.57L110.84,575.57L117.75,625.65L124.65,559.89L131.56,600.68L138.47,642.73L145.37,538.38L152.28,548.78L159.19,646.19L166.09,465.87L173,496.69L179.9,357.91L186.81,512.3L193.72,368.59L200.62,241.14L207.53,271.23L214.44,372.13L221.34,129.99L228.25,266.75L235.16,215.67L242.06,304.42L248.97,51.226L255.88,118.15L262.78,99.74L269.69,171L276.59,359.96L283.5,279.27L290.41,208.12L297.31,363.37L304.22,368.77L311.13,448.09L318.03,397.59L324.94,550.66L331.85,525.88L338.75,578.92L345.66,662.58L352.57,763.36L359.47,723.9L366.38,698.52L373.28,624.96L380.19,726.66L387.1,604.13L394,549.7L400.91,524.28L407.82,477.07L414.72,565.91L421.63,452.52L428.54,498.03L435.44,522.23L442.35,380.53L449.26,282.83L456.16,235.57L463.07,209.07L469.97,152.44L476.88,211.7L483.79,192.87L490.69,198.35L497.6,150.92L504.51,95.141L511.41,151.45L518.32,170.02L525.23,357.68L532.13,202.81L539.04,411.3L545.95,340.23L552.85,429.12L559.76,375.47L566.66,497.31L573.57,541.38L580.48,628.18L587.38,608.33L594.29,627.23L601.2,709.39L608.1,590.36L615.01,730.94L621.92,787.79L628.82,750.87L635.73,626.18L642.64,735.2L649.54,647.14L656.45,483.06L663.35,463.62L670.26,430.12L677.17,513.72L684.07,512.25L690.98,262.29L697.89,442.38L704.79,365.66L711.7,148.19L718.61,316.99L725.51,215.16L732.42,309.59L739.33,116.42L746.23,168.28L753.14,173.64L760.04,64.458L766.95,216.18L773.86,270.62L780.76,229.29L787.67,418.46L794.58,229.46L801.48,281.88L808.39,337.36L815.3,529.87L822.2,458.36L829.11,665.36L836.02,532.94L842.92,586.19L849.83,570.5L856.73,658.05L863.64,806.88L870.55,571.11L877.45,754.14L884.36,696.16L891.27,530.59L898.17,716.09L905.08,471.44L911.99,556.52L918.89,456.73L925.8,533.03L932.71,303.38L939.61,286.71L946.52,277.3L953.42,175L960.33,331.05L967.24,226.68L974.14,79.848L981.05,132.12L987.96,109.12L994.86,299.42L1001.8,193.05L1008.7,302.75L1015.6,132.15L1022.5,211.03L1029.4,198L1036.3,399.55L1043.2,460.4L1050.1,445.73L1057,315.4L1063.9,472.09L1070.8,509.25L1077.7,551.13L1084.6,465.86L1091.6,722.37L1098.5,626.78L1105.4,754.6L1112.3,567.99L1119.2,726.62L1126.1,613.72L1133,756.93L1139.9,740.01L1146.8,666.1L1153.7,509.61L1160.6,531.48L1167.5,570.78L1174.4,410.9L1181.3,467.23L1188.2,493.64L1195.1,420.89L1202.1,194.76L1209,215.37L1215.9,107.69L1222.8,117.33L1229.7,251.51L1236.6,265.45L1243.5,294.38L1250.4,60.803L1257.3,82.979L1264.2,298.61L1271.1,154.88L1278,225.92L1284.9,232.82L1291.8,249.71L1298.7,276.35L1305.7,407.15L1312.6,382.46L1319.5,424.7L1326.4,668.77L1333.3,675.35L1340.2,708.94L1347.1,665.51L1354,575.01L1360.9,698.39L1367.8,571.81L1374.7,773.41L1381.6,552.69L1388.5,550.79L1395.4,524.58L1402.3,548.96L1409.2,475.94L1416.2,515.67L1423.1,569.59L1430,317.99L1436.9,460.95" style="fill:none;stroke:#F15A60;stroke-width:1.25" />
<path d="M65.62,420.54A3.125,3.125 0 1 1 59.37,420.54A3.125,3.125 0 1 1 65.62,420.54Z" style="fill:none;stroke:#F15A60;stroke-width:0.625" />
<path d="M72.527,361.32A3.125,3.125 0 1 1 66.277,361.32A3.125,3.125 0 1 1 72.527,361.32Z" style="fill:none;stroke:#F15A60;stroke-width:0.625" />
<path d="M79.433,590.82A3.125,3.125 0 1 1 73.183,590.82A3.125,3.125 0 1 1 79.433,590.82Z" style="fill:none;stroke:#F15A60;stroke-width:0.625" />
<path d="M86.339,654.48L86.339,654.48A3.125,3.125 0 1 1 80.089,654.48A3.125,3.125 0 1 1 86.339,654.48Z" style="fill:none;stroke:#F15A60;stroke-width:0.625" />
<path d="M93.246,624.92A3.125,3.125 0 1 1 86.996,624.92A3.125,3.125 0 1 1 93.246,624.92Z" style="fill:none;stroke:#F15A60;stroke-width:0.625" />
<path d="M100.15,691.65A3.125,3.125 0 1 1 93.902,691.65A3.125,3.125 0 1 1 100.15,691.65Z" style="fill:none;stroke:#F15A60;stroke-width:0.625" />
<path d="M107.06,775.57L107.06,775.57A3.125,3.125 0 1 1 100.81,775.57A3.125,3.125 0 1 1 107.06,775.57Z" style="fill:none;stroke:#F15A60;stroke-width:0.625" />
<path d="M113.97,575.57L113.97,575.57A3.125,3.125 0 1 1 107.72,575.57A3.125,3.125 0 1 1 113.97,575.57Z" style="fill:none;stroke:#F15A60;stroke-width:0.625" />
<path d="M120.87,625.65L120.87,625.65A3.125,3.125 0 1 1 114.62,625.65A3.125,3.125 0 1 1 120.87,625.65Z" style="fill:none;stroke:#F15A60;stroke-width:0.625" />
<path d="M127.78,559.89L127.78,559.89A3.125,3.125 0 1 1 121.53,559.89A3.125,3.125 0 1 1 127.78,559.89Z" style="fill:none;stroke:#F15A60;stroke-width:0.625" />
<path d="M134.68,600.68L134.68,600.68A3.125,3.125 0 1 1 128.43,600.68A3.125,3.125 0 1 1 134.68,600.68Z" style="fill:none;stroke:#F15A60;stroke-width:0.625" />
<path d="M141.59,642.73A3.125,3.125 0 1 1 135.34,642.73A3.125,3.125 0 1 1 141.59,642.73Z" style="fill:none;stroke:#F15A60;stroke-width:0.625" />
<path d="M148.5,538.38A3.125,3.125 0 1 1 142.25,538.38A3.125,3.125 0 1 1 148.5,538.38Z" style="fill:none;stroke:#F15A60;stroke-width:0.625" />
<path d="M155.4,548.78L155.4,548.78A3.125,3.125 0 1 1 149.15,548.78A3.125,3.125 0 1 1 155.4,548.78Z" style="fill:none;stroke:#F15A60;stroke-width:0.625" />
<path d="M162.31,646.19L162.31,646.19A3.125,3.125 0 1 1 156.06,646.19A3.125,3.125 0 1 1 162.31,646.19Z" style="fill:none;stroke:#F15A60;stroke-width:0.625" />
<path d="M169.22,465.87A3.125,3.125 0 1 1 162.97,465.87A3.125,3.125 0 1 1 169.22,465.87Z" style="fill:none;stroke:#F15A60;stroke-width:0.625" />
<path d="M176.12,496.69A3.125,3.125 0 1 1 169.87,496.69A3.125,3.125 0 1 1 176.12,496.69Z" style="fill:none;stroke:#F15A60;stroke-width:0.625" />
<path d="M183.03,357.91A3.125,3.125 0 1 1 176.78,357.91A3.125,3.125 0 1 1 183.03,357.91Z" style="fill:none;stroke:#F15A60;stroke-width:0.625" />
<path d="M189.94,512.3L189.94,512.3A3.125,3.125 0 1 1 183.69,512.3A3.125,3.125 0 1 1 189.94,512.3Z" style="fill:none;stroke:#F15A60;stroke-width:0.625" />
<path d="M196.84,368.59A3.125,3.125 0 1 1 190.59,368.59A3.125,3.125 0 1 1 196.84,368.59Z" style="fill:none;stroke:#F15A60;stroke-width:0.625" />
<path d="M203.75,241.14L203.75,241.14A3.125,3.125 0 1 1 197.5,241.14A3.125,3.125 0 1 1 203.75,241.14Z" style="fill:none;stroke:#F15A60;stroke-width:0.625" />
<path d="M210.66,271.23L210.66,271.23A3.125,3.125 0 1 1 204.41,271.23A3.125,3.125 0 1 1 210.66,271.23Z" style="fill:none;stroke:#F15A60;stroke-width:0.625" />
<path d="M217.56,372.13A3.125,3.125 0 1 1 211.31,372.13A3.125,3.125 0 1 1 217.56,372.13Z" style="fill:none;stroke:#F15A60;stroke-width:0.625" />
<path d="M224.47,129.99L224.47,129.99A3.125,3.125 0 1 1 218.22,129.99A3.125,3.125 0 1 1 224.47,129.99Z" style="fill:none;stroke:#F15A60;stroke-width:0.625" />
<path d="M231.37,266.75A3.125,3.125 0 1 1 225.12,266.75A3.125,3.125 0 1 1 231.37,266.75Z" style="fill:none;stroke:#F15A60;stroke-width:0.625" />
<path d="M238.28,215.67L238.28,215.67A3.125,3.125 0 1 1 232.03,215.67A3.125,3.125 0 1 1 238.28,215.67Z" style="fill:none;stroke:#F15A60;stroke-width:0.625" />
<path d="M245.19,304.42A3.125,3.125 0 1 1 238.94,304.42A3.125,3.125 0 1 1 245.19,304.42Z" style="fill:none;stroke:#F15A60;stroke-width:0.625" />
<path d="M252.09,51.226A3.125,3.125 0 1 1 245.84,51.226A3.125,3.125 0 1 1 252.09,51.226Z" style="fill:none;stroke:#F15A60;stroke-width:0.625" />
<path d="M259,118.15A3.125,3.125 0 1 1 252.75,118.15A3.125,3.125 0 1 1 259,118.15Z" style="fill:none;stroke:#F15A60;stroke-width:0.625" />
<path d="M265.91,99.74A3.125,3.125 0 1 1 259.66,99.74A3.125,3.125 0 1 1 265.91,99.74Z" style="fill:none;stroke:#F15A60;stroke-width:0.625" />
<path d="M272.81,171A3.125,3.125 0 1 1 266.56,171A3.125,3.125 0 1 1 272.81,171Z" style="fill:none;stroke:#F15A60;stroke-width:0.625" />
<path d="M279.72,359.96A3.125,3.125 0 1 1 273.47,359.96A3.125,3.125 0 1 1 279.72,359.96Z" style="fill:none;stroke:#F15A60;stroke-width:0.625" />
<path d="M286.63,279.27L286.63,279.27A3.125,3.125 0 1 1 280.38,279.27A3.125,3.125 0 1 1 286.63,279.27Z" style="fill:none;stroke:#F15A60;stroke-width:0.625" />
<path d="M293.53,208.12A3.125,3.125 0 1 1 287.28,208.12A3.125,3.125 0 1 1 293.53,208.12Z" style="fill:none;stroke:#F15A60;stroke-width:0.625" />
<path d="M300.44,363.37A3.125,3.125 0 1 1 294.19,363.37A3.125,3.125 0 1 1 300.44,363.37Z" style="fill:none;stroke:#F15A60;stroke-width:0.625" />
<path d="M307.35,368.77A3.125,3.125 0 1 1 301.1,368.77A3.125,3.125 0 1 1 307.35,368.77Z" style="fill:none;stroke:#F15A60;stroke-width:0.625" />
<path d="M314.25,448.09A3.125,3.125 0 1 1 308,448.09A3.125,3.125 0 1 1 314.25,448.09Z" style="fill:none;stroke:#F15A60;stroke-width:0.625" />
<path d="M321.16,397.59L321.16,397.59A3.125,3.125 0 1 1 314.91,397.59A3.125,3.125 0 1 1 321.16,397.59Z" style="fill:none;stroke:#F15A60;stroke-width:0.625" />
<path d="M328.06,550.66A3.125,3.125 0 1 1 321.81,550.66A3.125,3.125 0 1 1 328.06,550.66Z" style="fill:none;stroke:#F15A60;stroke-width:0.625" />
<path d="M334.97,525.88A3.125,3.125 0 1 1 328.72,525.88A3.125,3.125 0 1 1 334.97,525.88Z" style="fill:none;stroke:#F15A60;stroke-width:0.625" />
<path d="M341.88,578.92L341.88,578.92A3.125,3.125 0 1 1 335.63,578.92A3.125,3.125 0 1 1 341.88,578.92Z" style="fill:none;stroke:#F15A60;stroke-width:0.625" />
<path d="M348.78,662.58A3.125,3.125 0 1 1 342.53,662.58A3.125,3.125 0 1 1 348.78,662.58Z" style="fill:none;stroke:#F15A60;stroke-width:0.625" />
<path d="M355.69,763.36A3.125,3.125 0 1 1 349.44,763.36A3.125,3.125 0 1 1 355.69,763.36Z" style="fill:none;stroke:#F15A60;stroke-width:0.625" />
<path d="M362.6,723.9A3.125,3.125 0 1 1 356.35,723.9A3.125,3.125 0 1 1 362.6,723.9Z" style="fill:none;stroke:#F15A60;stroke-width:0.625" />
<path d="M369.5,698.52A3.125,3.125 0 1 1 363.25,698.52A3.125,3.125 0 1 1 369.5,698.52Z" style="fill:none;stroke:#F15A60;stroke-width:0.625" />
<path d="M376.41,624.96A3.125,3.125 0 1 1 370.16,624.96A3.125,3.125 0 1 1 376.41,624.96Z" style="fill:none;stroke:#F15A60;stroke-width:0.625" />
<path d="M383.32,726.66A3.125,3.125 0 1 1 377.07,726.66A3.125,3.125 0 1 1 383.32,726.66Z" style="fill:none;stroke:#F15A60;stroke-width:0.625" />
<path d="M390.22,604.13A3.125,3.125 0 1 1 383.97,604.13A3.125,3.125 0 1 1 390.22,604.13Z" style="fill:none;stroke:#F15A60;stroke-width:0.625" />
<path d="M397.13,549.7A3.125,3.125 0 1 1 390.88,549.7A3.125,3.125 0 1 1 397.13,549.7Z" style="fill:none;stroke:#F15A60;stroke-width:0.625" />
<path d="M404.04,524.28L404.04,524.28A3.125,3.125 0 1 1 397.79,524.28A3.125,3.125 0 1 1 404.04,524.28Z" style="fill:none;stroke:#F15A60;stroke-width:0.625" />
<path d="M410.94,477.07A3.125,3.125 0 1 1 404.69,477.07A3.125,3.125 0 1 1 410.94,477.07Z" style="fill:none;stroke:#F15A60;stroke-width:0.625" />
<path d="M417.85,565.91A3.125,3.125 0 1 1 411.6,565.91A3.125,3.125 0 1 1 417.85,565.91Z" style="fill:none;stroke:#F15A60;stroke-width:0.625" />
<path d="M424.75,452.52A3.125,3.125 0 1 1 418.5,452.52A3.125,3.125 0 1 1 424.75,452.52Z" style="fill:none;stroke:#F15A60;stroke-width:0.625" />
<path d="M431.66,498.03L431.66,498.03A3.125,3.125 0 1 1 425.41,498.03A3.125,3.125 0 1 1 431.66,498.03Z" style="fill:none;stroke:#F15A60;stroke-width:0.625" />
<path d="M438.57,522.23A3.125,3.125 0 1 1 432.32,522.23A3.125,3.125 0 1 1 438.57,522.23Z" style="fill:none;stroke:#F15A60;stroke-width:0.625" />
<path d="M445.47,380.53A3.125,3.125 0 1 1 439.22,380.53A3.125,3.125 0 1 1 445.47,380.53Z" style="fill:none;stroke:#F15A60;stroke-width:0.625" />
<path d="M452.38,282.83L452.38,282.83A3.125,3.125 0 1 1 446.13,282.83A3.125,3.125 0 1 1 452.38,282.83Z" style="fill:none;stroke:#F15A60;stroke-width:0.625" />
<path d="M459.29,235.57A3.125,3.125 0 1 1 453.04,235.57A3.125,3.125 0 1 1 459.29,235.57Z" style="fill:none;stroke:#F15A60;stroke-width:0.625" />
<path d="M466.19,209.07A3.125,3.125 0 1 1 459.94,209.07A3.125,3.125 0 1 1 466.19,209.07Z" style="fill:none;stroke:#F15A60;stroke-width:0.625" />
<path d="M473.1,152.44A3.125,3.125 0 1 1 466.85,152.44A3.125,3.125 0 1 1 473.1,152.44Z" style="fill:none;stroke:#F15A60;stroke-width:0.625" />
<path d="M480.01,211.7A3.125,3.125 0 1 1 473.76,211.7A3.125,3.125 0 1 1 480.01,211.7Z" style="fill:none;stroke:#F15A60;stroke-width:0.625" />
<path d="M486.91,192.87A3.125,3.125 0 1 1 480.66,192.87A3.125,3.125 0 1 1 486.91,192.87Z" style="fill:none;stroke:#F15A60;stroke-width:0.625" />
<path d="M493.82,198.35A3.125,3.125 0 1 1 487.57,198.35A3.125,3.125 0 1 1 493.82,198.35Z" style="fill:none;stroke:#F15A60;stroke-width:0.625" />
<path d="M500.73,150.92L500.73,150.92A3.125,3.125 0 1 1 494.48,150.92A3.125,3.125 0 1 1 500.73,150.92Z" style="fill:none;stroke:#F15A60;stroke-width:0.625" />
<path d="M507.63,95.141A3.125,3.125 0 1 1 501.38,95.141A3.125,3.125 0 1 1 507.63,95.141Z" style="fill:none;stroke:#F15A60;stroke-width:0.625" />
<path d="M514.54,151.45A3.125,3.125 0 1 1 508.29,151.45A3.125,3.125 0 1 1 514.54,151.45Z" style="fill:none;stroke:#F15A60;stroke-width:0.625" />
<path d="M521.44,170.02A3.125,3.125 0 1 1 515.19,170.02A3.125,3.125 0 1 1 521.44,170.02Z" style="fill:none;stroke:#F15A60;stroke-width:0.625" />
<path d="M528.35,357.68A3.125,3.125 0 1 1 522.1,357.68A3.125,3.125 0 1 1 528.35,357.68Z" style="fill:none;stroke:#F15A60;stroke-width:0.625" />
<path d="M535.26,202.81A3.125,3.125 0 1 1 529.01,202.81A3.125,3.125 0 1 1 535.26,202.81Z" style="fill:none;stroke:#F15A60;stroke-width:0.625" />
<path d="M542.16,411.3A3.125,3.125 0 1 1 535.91,411.3A3.125,3.125 0 1 1 542.16,411.3Z" style="fill:none;stroke:#F15A60;stroke-width:0.625" />
<path d="M549.07,340.23A3.125,3.125 0 1 1 542.82,340.23A3.125,3.125 0 1 1 549.07,340.23Z" style="fill:none;stroke:#F15A60;stroke-width:0.625" />
<path d="M555.98,429.12A3.125,3.125 0 1 1 549.73,429.12A3.125,3.125 0 1 1 555.98,429.12Z" style="fill:none;stroke:#F15A60;stroke-width:0.625" />
<path d="M562.88,375.47A3.125,3.125 0 1 1 556.63,375.47A3.125,3.125 0 1 1 562.88,375.47Z" style="fill:none;stroke:#F15A60;stroke-width:0.625" />
<path d="M569.79,497.31A3.125,3.125 0 1 1 563.54,497.31A3.125,3.125 0 1 1 569.79,497.31Z" style="fill:none;stroke:#F15A60;stroke-width:0.625" />
<path d="M576.7,541.38A3.125,3.125 0 1 1 570.45,541.38A3.125,3.125 0 1 1 576.7,541.38Z" style="fill:none;stroke:#F15A60;stroke-width:0.625" />
<path d="M583.6,628.18A3.125,3.125 0 1 1 577.35,628.18A3.125,3.125 0 1 1 583.6,628.18Z" style="fill:none;stroke:#F15A60;stroke-width:0.625" />
<path d="M590.51,608.33A3.125,3.125 0 1 1 584.26,608.33A3.125,3.125 0 1 1 590.51,608.33Z" style="fill:none;stroke:#F15A60;stroke-width:0.625" />
<path d="M597.42,627.23A3.125,3.125 0 1 1 591.17,627.23A3.125,3.125 0 1 1 597.42,627.23Z" style="fill:none;stroke:#F15A60;stroke-width:0.625" />
<path d="M604.32,709.39L604.32,709.39A3.125,3.125 0 1 1 598.07,709.39A3.125,3.125 0 1 1 604.32,709.39Z" style="fill:none;stroke:#F15A60;stroke-width:0.625" />
<path d="M611.23,590.36A3.125,3.125 0 1 1 604.98,590.36A3.125,3.125 0 1 1 611.23,590.36Z" style="fill:none;stroke:#F15A60;stroke-width:0.625" />
<path d="M618.13,730.94A3.125,3.125 0 1 1 611.88,730.94A3.125,3.125 0 1 1 618.13,730.94Z" style="fill:none;stroke:#F15A60;stroke-width:0.625" />
<path d="M625.04,787.79A3.125,3.125 0 1 1 618.79,787.79A3.125,3.125 0 1 1 625.04,787.79Z" style="fill:none;stroke:#F15A60;stroke-width:0.625" />
<path d="M631.95,750.87A3.125,3.125 0 1 1 625.7,750.87A3.125,3.125 0 1 1 631.95,750.87Z" style="fill:none;stroke:#F15A60;stroke-width:0.625" />
<path d="M638.85,626.18A3.125,3.125 0 1 1 632.6,626.18A3.125,3.125 0 1 1 638.85,626.18Z" style="fill:none;stroke:#F15A60;stroke-width:0.625" />
<path d="M645.76,735.2A3.125,3.125 0 1 1 639.51,735.2A3.125,3.125 0 1 1 645.76,735.2Z" style="fill:none;stroke:#F15A60;stroke-width:0.625" />
<path d="M652.67,647.14A3.125,3.125 0 1 1 646.42,647.14A3.125,3.125 0 1 1 652.67,647.14Z" style="fill:none;stroke:#F15A60;stroke-width:0.625" />
<path d="M659.57,483.06A3.125,3.125 0 1 1 653.32,483.06A3.125,3.125 0 1 1 659.57,483.06Z" style="fill:none;stroke:#F15A60;stroke-width:0.625" />
<path d="M666.48,463.62A3.125,3.125 0 1 1 660.23,463.62A3.125,3.125 0 1 1 666.48,463.62Z" style="fill:none;stroke:#F15A60;stroke-width:0.625" />
<path d="M673.39,430.12A3.125,3.125 0 1 1 667.14,430.12A3.125,3.125 0 1 1 673.39,430.12Z" style="fill:none;stroke:#F15A60;stroke-width:0.625" />
<path d="M680.29,513.72A3.125,3.125 0 1 1 674.04,513.72A3.125,3.125 0 1 1 680.29,513.72Z" style="fill:none;stroke:#F15A60;stroke-width:0.625" />
<path d="M687.2,512.25A3.125,3.125 0 1 1 680.95,512.25A3.125,3.125 0 1 1 687.2,512.25Z" style="fill:none;stroke:#F15A60;stroke-width:0.625" />
<path d="M694.11,262.29A3.125,3.125 0 1 1 687.86,262.29A3.125,3.125 0 1 1 694.11,262.29Z" style="fill:none;stroke:#F15A60;stroke-width:0.625" />
<path d="M701.01,442.38A3.125,3.125 0 1 1 694.76,442.38A3.125,3.125 0 1 1 701.01,442.38Z" style="fill:none;stroke:#F15A60;stroke-width:0.625" />
<path d="M707.92,365.66A3.125,3.125 0 1 1 701.67,365.66A3.125,3.125 0 1 1 707.92,365.66Z" style="fill:none;stroke:#F15A60;stroke-width:0.625" />
<path d="M714.82,148.19A3.125,3.125 0 1 1 708.57,148.19A3.125,3.125 0 1 1 714.82,148.19Z" style="fill:none;stroke:#F15A60;stroke-width:0.625" />
<path d="M721.73,316.99A3.125,3.125 0 1 1 715.48,316.99A3.125,3.125 0 1 1 721.73,316.99Z" style="fill:none;stroke:#F15A60;stroke-width:0.625" />
<path d="M728.64,215.16A3.125,3.125 0 1 1 722.39,215.16A3.125,3.125 0 1 1 728.64,215.16Z" style="fill:none;stroke:#F15A60;stroke-width:0.625" />
<path d="M735.54,309.59A3.125,3.125 0 1 1 729.29,309.59A3.125,3.125 0 1 1 735.54,309.59Z" style="fill:none;stroke:#F15A60;stroke-width:0.625" />
<path d="M742.45,116.42A3.125,3.125 0 1 1 736.2,116.42A3.125,3.125 0 1 1 742.45,116.42Z" style="fill:none;stroke:#F15A60;stroke-width:0.625" />
<path d="M749.36,168.28L749.36,168.28A3.125,3.125 0 1 1 743.11,168.28A3.125,3.125 0 1 1 749.36,168.28Z" style="fill:none;stroke:#F15A60;stroke-width:0.625" />
<path d="M756.26,173.64A3.125,3.125 0 1 1 750.01,173.64A3.125,3.125 0 1 1 756.26,173.64Z" style="fill:none;stroke:#F15A60;stroke-width:0.625" />
<path d="M763.17,64.458A3.125,3.125 0 1 1 756.92,64.458A3.125,3.125 0 1 1 763.17,64.458Z" style="fill:none;stroke:#F15A60;stroke-width:0.625" />
<path d="M770.08,216.18L770.08,216.18A3.125,3.125 0 1 1 763.83,216.18A3.125,3.125 0 1 1 770.08,216.18Z" style="fill:none;stroke:#F15A60;stroke-width:0.625" />
<path d="M776.98,270.62L776.98,270.62A3.125,3.125 0 1 1 770.73,270.62A3.125,3.125 0 1 1 776.98,270.62Z" style="fill:none;stroke:#F15A60;stroke-width:0.625" />
<path d="M783.89,229.29L783.89,229.29A3.125,3.125 0 1 1 777.64,229.29A3.125,3.125 0 1 1 783.89,229.29Z" style="fill:none;stroke:#F15A60;stroke-width:0.625" />
<path d="M790.8,418.46A3.125,3.125 0 1 1 784.55,418.46A3.125,3.125 0 1 1 790.8,418.46Z" style="fill:none;stroke:#F15A60;stroke-width:0.625" />
<path d="M797.7,229.46L797.7,229.46A3.125,3.125 0 1 1 791.45,229.46A3.125,3.125 0 1 1 797.7,229.46Z" style="fill:none;stroke:#F15A60;stroke-width:0.625" />
<path d="M804.61,281.88L804.61,281.88A3.125,3.125 0 1 1 798.36,281.88A3.125,3.125 0 1 1 804.61,281.88Z" style="fill:none;stroke:#F15A60;stroke-width:0.625" />
<path d="M811.51,337.36A3.125,3.125 0 1 1 805.26,337.36A3.125,3.125 0 1 1 811.51,337.36Z" style="fill:none;stroke:#F15A60;stroke-width:0.625" />
<path d="M818.42,529.87L818.42,529.87A3.125,3.125 0 1 1 812.17,529.87A3.125,3.125 0 1 1 818.42,529.87Z" style="fill:none;stroke:#F15A60;stroke-width:0.625" />
<path d="M825.33,458.36A3.125,3.125 0 1 1 819.08,458.36A3.125,3.125 0 1 1 825.33,458.36Z" style="fill:none;stroke:#F15A60;stroke-width:0.625" />
<path d="M832.23,665.36L832.23,665.36A3.125,3.125 0 1 1 825.98,665.36A3.125,3.125 0 1 1 832.23,665.36Z" style="fill:none;stroke:#F15A60;stroke-width:0.625" />
<path d="M839.14,532.94A3.125,3.125 0 1 1 832.89,532.94A3.125,3.125 0 1 1 839.14,532.94Z" style="fill:none;stroke:#F15A60;stroke-width:0.625" />
<path d="M846.05,586.19A3.125,3.125 0 1 1 839.8,586.19A3.125,3.125 0 1 1 846.05,586.19Z" style="fill:none;stroke:#F15A60;stroke-width:0.625" />
<path d="M852.95,570.5L852.95,570.5A3.125,3.125 0 1 1 846.7,570.5A3.125,3.125 0 1 1 852.95,570.5Z" style="fill:none;stroke:#F15A60;stroke-width:0.625" />
<path d="M859.86,658.05A3.125,3.125 0 1 1 853.61,658.05A3.125,3.125 0 1 1 859.86,658.05Z" style="fill:none;stroke:#F15A60;stroke-width:0.625" />
<path d="M866.77,806.88L866.77,806.88A3.125,3.125 0 1 1 860.52,806.88A3.125,3.125 0 1 1 866.77,806.88Z" style="fill:none;stroke:#F15A60;stroke-width:0.625" />
<path d="M873.67,571.11L873.67,571.11A3.125,3.125 0 1 1 867.42,571.11A3.125,3.125 0 1 1 873.67,571.11Z" style="fill:none;stroke:#F15A60;stroke-width:0.625" />
<path d="M880.58,754.14L880.58,754.14A3.125,3.125 0 1 1 874.33,754.14A3.125,3.125 0 1 1 880.58,754.14Z" style="fill:none;stroke:#F15A60;stroke-width:0.625" />
<path d="M887.49,696.16A3.125,3.125 0 1 1 881.24,696.16A3.125,3.125 0 1 1 887.49,696.16Z" style="fill:none;stroke:#F15A60;stroke-width:0.625" />
<path d="M894.39,530.59L894.39,530.59A3.125,3.125 0 1 1 888.14,530.59A3.125,3.125 0 1 1 894.39,530.59Z" style="fill:none;stroke:#F15A60;stroke-width:0.625" />
<path d="M901.3,716.09L901.3,716.09A3.125,3.125 0 1 1 895.05,716.09A3.125,3.125 0 1 1 901.3,716.09Z" style="fill:none;stroke:#F15A60;stroke-width:0.625" />
<path d="M908.2,471.44A3.125,3.125 0 1 1 901.95,471.44A3.125,3.125 0 1 1 908.2,471.44Z" style="fill:none;stroke:#F15A60;stroke-width:0.625" />
<path d="M915.11,556.52L915.11,556.52A3.125,3.125 0 1 1 908.86,556.52A3.125,3.125 0 1 1 915.11,556.52Z" style="fill:none;stroke:#F15A60;stroke-width:0.625" />
<path d="M922.02,456.73L922.02,456.73A3.125,3.125 0 1 1 915.77,456.73A3.125,3.125 0 1 1 922.02,456.73Z" style="fill:none;stroke:#F15A60;stroke-width:0.625" />
<path d="M928.92,533.03L928.92,533.03A3.125,3.125 0 1 1 922.67,533.03A3.125,3.125 0 1 1 928.92,533.03Z" style="fill:none;stroke:#F15A60;stroke-width:0.625" />
<path d="M935.83,303.38A3.125,3.125 0 1 1 929.58,303.38A3.125,3.125 0 1 1 935.83,303.38Z" style="fill:none;stroke:#F15A60;stroke-width:0.625" />
<path d="M942.74,286.71A3.125,3.125 0 1 1 936.49,286.71A3.125,3.125 0 1 1 942.74,286.71Z" style="fill:none;stroke:#F15A60;stroke-width:0.625" />
<path d="M949.64,277.3L949.64,277.3A3.125,3.125 0 1 1 943.39,277.3A3.125,3.125 0 1 1 949.64,277.3Z" style="fill:none;stroke:#F15A60;stroke-width:0.625" />
<path d="M956.55,175L956.55,175A3.125,3.125 0 1 1 950.3,175A3.125,3.125 0 1 1 956.55,175Z" style="fill:none;stroke:#F15A60;stroke-width:0.625" />
<path d="M963.46,331.05L963.46,331.05A3.125,3.125 0 1 1 957.21,331.05A3.125,3.125 0 1 1 963.46,331.05Z" style="fill:none;stroke:#F15A60;stroke-width:0.625" />
<path d="M970.36,226.68A3.125,3.125 0 1 1 964.11,226.68A3.125,3.125 0 1 1 970.36,226.68Z" style="fill:none;stroke:#F15A60;stroke-width:0.625" />
<path d="M977.27,79.848A3.125,3.125 0 1 1 971.02,79.848A3.125,3.125 0 1 1 977.27,79.848Z" style="fill:none;stroke:#F15A60;stroke-width:0.625" />
<path d="M984.18,132.12L984.18,132.12A3.125,3.125 0 1 1 977.93,132.12A3.125,3.125 0 1 1 984.18,132.12Z" style="fill:none;stroke:#F15A60;stroke-width:0.625" />
<path d="M991.08,109.12A3.125,3.125 0 1 1 984.83,109.12A3.125,3.125 0 1 1 991.08,109.12Z" style="fill:none;stroke:#F15A60;stroke-width:0.625" />
<path d="M997.99,299.42L997.99,299.42A3.125,3.125 0 1 1 991.74,299.42A3.125,3.125 0 1 1 997.99,299.42Z" style="fill:none;stroke:#F15A60;stroke-width:0.625" />
<path d="M1004.9,193.05A3.125,3.125 0 1 1 998.64,193.05A3.125,3.125 0 1 1 1004.9,193.05Z" style="fill:none;stroke:#F15A60;stroke-width:0.625" />
<path d="M1011.8,302.75L1011.8,302.75A3.125,3.125 0 1 1 1005.6,302.75A3.125,3.125 0 1 1 1011.8,302.75Z" style="fill:none;stroke:#F15A60;stroke-width:0.625" />
<path d="M1018.7,132.15L1018.7,132.15A3.125,3.125 0 1 1 1012.5,132.15A3.125,3.125 0 1 1 1018.7,132.15Z" style="fill:none;stroke:#F15A60;stroke-width:0.625" />
<path d="M1025.6,211.03L1025.6,211.03A3.125,3.125 0 1 1 1019.4,211.03A3.125,3.125 0 1 1 1025.6,211.03Z" style="fill:none;stroke:#F15A60;stroke-width:0.625" />
<path d="M1032.5,198L1032.5,198A3.125,3.125 0 1 1 1026.3,198A3.125,3.125 0 1 1 1032.5,198Z" style="fill:none;stroke:#F15A60;stroke-width:0.625" />
<path d="M1039.4,399.55L1039.4,399.55A3.125,3.125 0 1 1 1033.2,399.55A3.125,3.125 0 1 1 1039.4,399.55Z" style="fill:none;stroke:#F15A60;stroke-width:0.625" />
<path d="M1046.3,460.4A3.125,3.125 0 1 1 1040.1,460.4A3.125,3.125 0 1 1 1046.3,460.4Z" style="fill:none;stroke:#F15A60;stroke-width:0.625" />
<path d="M1053.2,445.73A3.125,3.125 0 1 1 1047,445.73A3.125,3.125 0 1 1 1053.2,445.73Z" style="fill:none;stroke:#F15A60;stroke-width:0.625" />
<path d="M1060.1,315.4A3.125,3.125 0 1 1 1053.9,315.4A3.125,3.125 0 1 1 1060.1,315.4Z" style="fill:none;stroke:#F15A60;stroke-width:0.625" />
<path d="M1067.1,472.09L1067.1,472.09A3.125,3.125 0 1 1 1060.8,472.09A3.125,3.125 0 1 1 1067.1,472.09Z" style="fill:none;stroke:#F15A60;stroke-width:0.625" />
<path d="M1074,509.25L1074,509.25A3.125,3.125 0 1 1 1067.7,509.25A3.125,3.125 0 1 1 1074,509.25Z" style="fill:none;stroke:#F15A60;stroke-width:0.625" />
<path d="M1080.9,551.13A3.125,3.125 0 1 1 1074.6,551.13A3.125,3.125 0 1 1 1080.9,551.13Z" style="fill:none;stroke:#F15A60;stroke-width:0.625" />
<path d="M1087.8,465.86A3.125,3.125 0 1 1 1081.5,465.86A3.125,3.125 0 1 1 1087.8,465.86Z" style="fill:none;stroke:#F15A60;stroke-width:0.625" />
<path d="M1094.7,722.37L1094.7,722.37A3.125,3.125 0 1 1 1088.4,722.37A3.125,3.125 0 1 1 1094.7,722.37Z" style="fill:none;stroke:#F15A60;stroke-width:0.625" />
<path d="M1101.6,626.78A3.125,3.125 0 1 1 1095.3,626.78A3.125,3.125 0 1 1 1101.6,626.78Z" style="fill:none;stroke:#F15A60;stroke-width:0.625" />
<path d="M1108.5,754.6A3.125,3.125 0 1 1 1102.2,754.6A3.125,3.125 0 1 1 1108.5,754.6Z" style="fill:none;stroke:#F15A60;stroke-width:0.625" />
<path d="M1115.4,567.99A3.125,3.125 0 1 1 1109.1,567.99A3.125,3.125 0 1 1 1115.4,567.99Z" style="fill:none;stroke:#F15A60;stroke-width:0.625" />
<path d="M1122.3,726.62A3.125,3.125 0 1 1 1116.1,726.62A3.125,3.125 0 1 1 1122.3,726.62Z" style="fill:none;stroke:#F15A60;stroke-width:0.625" />
<path d="M1129.2,613.72A3.125,3.125 0 1 1 1123,613.72A3.125,3.125 0 1 1 1129.2,613.72Z" style="fill:none;stroke:#F15A60;stroke-width:0.625" />
<path d="M1136.1,756.93A3.125,3.125 0 1 1 1129.9,756.93A3.125,3.125 0 1 1 1136.1,756.93Z" style="fill:none;stroke:#F15A60;stroke-width:0.625" />
<path d="M1143,740.01L1143,740.01A3.125,3.125 0 1 1 1136.8,740.01A3.125,3.125 0 1 1 1143,740.01Z" style="fill:none;stroke:#F15A60;stroke-width:0.625" />
<path d="M1149.9,666.1A3.125,3.125 0 1 1 1143.7,666.1A3.125,3.125 0 1 1 1149.9,666.1Z" style="fill:none;stroke:#F15A60;stroke-width:0.625" />
<path d="M1156.8,509.61L1156.8,509.61A3.125,3.125 0 1 1 1150.6,509.61A3.125,3.125 0 1 1 1156.8,509.61Z" style="fill:none;stroke:#F15A60;stroke-width:0.625" />
<path d="M1163.7,531.48A3.125,3.125 0 1 1 1157.5,531.48A3.125,3.125 0 1 1 1163.7,531.48Z" style="fill:none;stroke:#F15A60;stroke-width:0.625" />
<path d="M1170.6,570.78A3.125,3.125 0 1 1 1164.4,570.78A3.125,3.125 0 1 1 1170.6,570.78Z" style="fill:none;stroke:#F15A60;stroke-width:0.625" />
<path d="M1177.6,410.9L1177.6,410.9A3.125,3.125 0 1 1 1171.3,410.9A3.125,3.125 0 1 1 1177.6,410.9Z" style="fill:none;stroke:#F15A60;stroke-width:0.625" />
<path d="M1184.5,467.23L1184.5,467.23A3.125,3.125 0 1 1 1178.2,467.23A3.125,3.125 0 1 1 1184.5,467.23Z" style="fill:none;stroke:#F15A60;stroke-width:0.625" />
<path d="M1191.4,493.64A3.125,3.125 0 1 1 1185.1,493.64A3.125,3.125 0 1 1 1191.4,493.64Z" style="fill:none;stroke:#F15A60;stroke-width:0.625" />
<path d="M1198.3,420.89A3.125,3.125 0 1 1 1192,420.89A3.125,3.125 0 1 1 1198.3,420.89Z" style="fill:none;stroke:#F15A60;stroke-width:0.625" />
<path d="M1205.2,194.76A3.125,3.125 0 1 1 1198.9,194.76A3.125,3.125 0 1 1 1205.2,194.76Z" style="fill:none;stroke:#F15A60;stroke-width:0.625" />
<path d="M1212.1,215.37A3.125,3.125 0 1 1 1205.8,215.37A3.125,3.125 0 1 1 1212.1,215.37Z" style="fill:none;stroke:#F15A60;stroke-width:0.625" />
<path d="M1219,107.69A3.125,3.125 0 1 1 1212.7,107.69A3.125,3.125 0 1 1 1219,107.69Z" style="fill:none;stroke:#F15A60;stroke-width:0.625" />
<path d="M1225.9,117.33A3.125,3.125 0 1 1 1219.7,117.33A3.125,3.125 0 1 1 1225.9,117.33Z" style="fill:none;stroke:#F15A60;stroke-width:0.625" />
<path d="M1232.8,251.51L1232.8,251.51A3.125,3.125 0 1 1 1226.6,251.51A3.125,3.125 0 1 1 1232.8,251.51Z" style="fill:none;stroke:#F15A60;stroke-width:0.625" />
<path d="M1239.7,265.45A3.125,3.125 0 1 1 1233.5,265.45A3.125,3.125 0 1 1 1239.7,265.45Z" style="fill:none;stroke:#F15A60;stroke-width:0.625" />
<path d="M1246.6,294.38L1246.6,294.38A3.125,3.125 0 1 1 1240.4,294.38A3.125,3.125 0 1 1 1246.6,294.38Z" style="fill:none;stroke:#F15A60;stroke-width:0.625" />
<path d="M1253.5,60.803A3.125,3.125 0 1 1 1247.3,60.803A3.125,3.125 0 1 1 1253.5,60.803Z" style="fill:none;stroke:#F15A60;stroke-width:0.625" />
<path d="M1260.4,82.979L1260.4,82.979A3.125,3.125 0 1 1 1254.2,82.979A3.125,3.125 0 1 1 1260.4,82.979Z" style="fill:none;stroke:#F15A60;stroke-width:0.625" />
<path d="M1267.3,298.61A3.125,3.125 0 1 1 1261.1,298.61A3.125,3.125 0 1 1 1267.3,298.61Z" style="fill:none;stroke:#F15A60;stroke-width:0.625" />
<path d="M1274.2,154.88A3.125,3.125 0 1 1 1268,154.88A3.125,3.125 0 1 1 1274.2,154.88Z" style="fill:none;stroke:#F15A60;stroke-width:0.625" />
<path d="M1281.2,225.92L1281.2,225.92A3.125,3.125 0 1 1 1274.9,225.92A3.125,3.125 0 1 1 1281.2,225.92Z" style="fill:none;stroke:#F15A60;stroke-width:0.625" />
<path d="M1288.1,232.82L1288.1,232.82A3.125,3.125 0 1 1 1281.8,232.82A3.125,3.125 0 1 1 1288.1,232.82Z" style="fill:none;stroke:#F15A60;stroke-width:0.625" />
<path d="M1295,249.71L1295,249.71A3.125,3.125 0 1 1 1288.7,249.71A3.125,3.125 0 1 1 1295,249.71Z" style="fill:none;stroke:#F15A60;stroke-width:0.625" />
<path d="M1301.9,276.35A3.125,3.125 0 1 1 1295.6,276.35A3.125,3.125 0 1 1 1301.9,276.35Z" style="fill:none;stroke:#F15A60;stroke-width:0.625" />
<path d="M1308.8,407.15A3.125,3.125 0 1 1 1302.5,407.15A3.125,3.125 0 1 1 1308.8,407.15Z" style="fill:none;stroke:#F15A60;stroke-width:0.625" />
<path d="M1315.7,382.46A3.125,3.125 0 1 1 1309.4,382.46A3.125,3.125 0 1 1 1315.7,382.46Z" style="fill:none;stroke:#F15A60;stroke-width:0.625" />
<path d="M1322.6,424.7A3.125,3.125 0 1 1 1316.3,424.7A3.125,3.125 0 1 1 1322.6,424.7Z" style="fill:none;stroke:#F15A60;stroke-width:0.625" />
<path d="M1329.5,668.77A3.125,3.125 0 1 1 1323.2,668.77A3.125,3.125 0 1 1 1329.5,668.77Z" style="fill:none;stroke:#F15A60;stroke-width:0.625" />
<path d="M1336.4,675.35L1336.4,675.35A3.125,3.125 0 1 1 1330.2,675.35A3.125,3.125 0 1 1 1336.4,675.35Z" style="fill:none;stroke:#F15A60;stroke-width:0.625" />
<path d="M1343.3,708.94L1343.3,708.94A3.125,3.125 0 1 1 1337.1,708.94A3.125,3.125 0 1 1 1343.3,708.94Z" style="fill:none;stroke:#F15A60;stroke-width:0.625" />
<path d="M1350.2,665.51L1350.2,665.51A3.125,3.125 0 1 1 1344,665.51A3.125,3.125 0 1 1 1350.2,665.51Z" style="fill:none;stroke:#F15A60;stroke-width:0.625" />
<path d="M1357.1,575.01A3.125,3.125 0 1 1 1350.9,575.01A3.125,3.125 0 1 1 1357.1,575.01Z" style="fill:none;stroke:#F15A60;stroke-width:0.625" />
<path d="M1364,698.39A3.125,3.125 0 1 1 1357.8,698.39A3.125,3.125 0 1 1 1364,698.39Z" style="fill:none;stroke:#F15A60;stroke-width:0.625" />
<path d="M1370.9,571.81A3.125,3.125 0 1 1 1364.7,571.81A3.125,3.125 0 1 1 1370.9,571.81Z" style="fill:none;stroke:#F15A60;stroke-width:0.625" />
<path d="M1377.8,773.41A3.125,3.125 0 1 1 1371.6,773.41A3.125,3.125 0 1 1 1377.8,773.41Z" style="fill:none;stroke:#F15A60;stroke-width:0.625" />
<path d="M1384.7,552.69A3.125,3.125 0 1 1 1378.5,552.69A3.125,3.125 0 1 1 1384.7,552.69Z" style="fill:none;stroke:#F15A60;stroke-width:0.625" />
<path d="M1391.7,550.79L1391.7,550.79A3.125,3.125 0 1 1 1385.4,550.79A3.125,3.125 0 1 1 1391.7,550.79Z" style="fill:none;stroke:#F15A60;stroke-width:0.625" />
<path d="M1398.6,524.58A3.125,3.125 0 1 1 1392.3,524.58A3.125,3.125 0 1 1 1398.6,524.58Z" style="fill:none;stroke:#F15A60;stroke-width:0.625" />
<path d="M1405.5,548.96L1405.5,548.96A3.125,3.125 0 1 1 1399.2,548.96A3.125,3.125 0 1 1 1405.5,548.96Z" style="fill:none;stroke:#F15A60;stroke-width:0.625" />
<path d="M1412.4,475.94L1412.4,475.94A3.125,3.125 0 1 1 1406.1,475.94A3.125,3.125 0 1 1 1412.4,475.94Z" style="fill:none;stroke:#F15A60;stroke-width:0.625" />
<path d="M1419.3,515.67A3.125,3.125 0 1 1 1413,515.67A3.125,3.125 0 1 1 1419.3,515.67Z" style="fill:none;stroke:#F15A60;stroke-width:0.625" />
<path d="M1426.2,569.59L1426.2,569.59A3.125,3.125 0 1 1 1419.9,569.59A3.125,3.125 0 1 1 1426.2,569.59Z" style="fill:none;stroke:#F15A60;stroke-width:0.625" />
<path d="M1433.1,317.99A3.125,3.125 0 1 1 1426.8,317.99A3.125,3.125 0 1 1 1433.1,317.99Z" style="fill:none;stroke:#F15A60;stroke-width:0.625" />
<path d="M1440,460.95A3.125,3.125 0 1 1 1433.8,460.95A3.125,3.125 0 1 1 1440,460.95Z" style="fill:none;stroke:#F15A60;stroke-width:0.625" />
<path d="M62.495,515.32L69.402,497.55L76.308,525.53L83.214,564.22L90.121,582.43L97.027,615.19L103.93,663.31L110.84,636.98L117.75,633.59L124.65,611.48L131.56,608.24L138.47,618.58L145.37,594.52L152.28,580.8L159.19,600.42L166.09,560.05L173,541.04L179.9,486.1L186.81,493.96L193.72,456.35L200.62,391.79L207.53,355.62L214.44,360.57L221.34,291.4L228.25,284L235.16,263.5L242.06,275.78L248.97,208.41L255.88,181.33L262.78,156.85L269.69,161.1L276.59,220.76L283.5,238.31L290.41,229.25L297.31,269.49L304.22,299.27L311.13,343.92L318.03,360.02L324.94,417.21L331.85,449.81L338.75,488.55L345.66,540.76L352.57,607.54L359.47,642.45L366.38,659.27L373.28,648.98L380.19,672.28L387.1,651.84L394,621.2L400.91,592.12L407.82,557.6L414.72,560.1L421.63,527.82L428.54,518.88L435.44,519.89L442.35,478.08L449.26,419.5L456.16,364.33L463.07,317.75L469.97,268.16L476.88,251.22L483.79,233.71L490.69,223.1L497.6,201.45L504.51,169.56L511.41,164.12L518.32,165.89L525.23,223.43L532.13,217.24L539.04,275.46L545.95,294.89L552.85,335.16L559.76,347.25L566.66,392.27L573.57,437L580.48,494.35L587.38,528.55L594.29,558.15L601.2,603.52L608.1,599.57L615.01,638.98L621.92,683.63L628.82,703.8L635.73,680.51L642.64,696.92L649.54,681.99L656.45,622.31L663.35,574.7L670.26,531.33L677.17,526.05L684.07,521.91L690.98,444.02L697.89,443.53L704.79,420.17L711.7,338.58L718.61,332.1L725.51,297.02L732.42,300.79L739.33,245.48L746.23,222.32L753.14,207.72L760.04,164.74L766.95,180.17L773.86,207.3L780.76,213.9L787.67,275.27L794.58,261.53L801.48,267.63L808.39,288.55L815.3,360.95L822.2,390.17L829.11,472.72L836.02,490.79L842.92,519.41L849.83,534.74L856.73,571.73L863.64,642.27L870.55,620.92L877.45,660.89L884.36,671.47L891.27,629.21L898.17,655.27L905.08,600.12L911.99,587.04L918.89,547.95L925.8,543.47L932.71,471.45L939.61,416.02L946.52,374.41L953.42,314.58L960.33,319.52L967.24,291.67L974.14,228.12L981.05,199.32L987.96,172.26L994.86,210.41L1001.8,205.2L1008.7,234.47L1015.6,203.77L1022.5,205.95L1029.4,203.56L1036.3,262.36L1043.2,321.77L1050.1,358.96L1057,345.89L1063.9,383.75L1070.8,421.4L1077.7,460.32L1084.6,461.98L1091.6,540.1L1098.5,566.1L1105.4,622.65L1112.3,606.25L1119.2,642.36L1126.1,633.77L1133,670.72L1139.9,691.51L1146.8,683.89L1153.7,631.6L1160.6,601.57L1167.5,592.33L1174.4,537.9L1181.3,516.7L1188.2,509.78L1195.1,483.11L1202.1,396.61L1209,342.24L1215.9,271.87L1222.8,225.51L1229.7,233.31L1236.6,242.95L1243.5,258.38L1250.4,199.11L1257.3,164.27L1264.2,204.57L1271.1,189.66L1278,200.54L1284.9,210.22L1291.8,222.07L1298.7,238.35L1305.7,288.99L1312.6,317.03L1319.5,349.33L1326.4,445.16L1333.3,514.22L1340.2,572.64L1347.1,600.5L1354,592.85L1360.9,624.51L1367.8,608.7L1374.7,658.11L1381.6,626.49L1388.5,603.78L1395.4,580.02L1402.3,570.7L1409.2,542.27L1416.2,534.29L1423.1,544.88L1430,476.81L1436.9,472.05" style="fill:none;stroke:#7AC36A;stroke-width:1.25;stroke-dasharray:7.5,2.5" />
<path d="M59.828,512.65L65.162,512.65L65.162,517.99L59.828,517.99Z" style="fill:none;stroke:#7AC36A;stroke-width:0.625" />
<path d="M66.734,494.89L72.069,494.89L72.069,500.22L66.734,500.22Z" style="fill:none;stroke:#7AC36A;stroke-width:0.625" />
<path d="M73.641,522.87L78.975,522.87L78.975,528.2L73.641,528.2Z" style="fill:none;stroke:#7AC36A;stroke-width:0.625" />
<path d="M80.547,561.55L85.882,561.55L85.882,566.89L80.547,566.89Z" style="fill:none;stroke:#7AC36A;stroke-width:0.625" />
<path d="M87.453,579.76L92.788,579.76L92.788,585.1L87.453,585.1Z" style="fill:none;stroke:#7AC36A;stroke-width:0.625" />
<path d="M94.36,612.53L99.695,612.53L99.695,617.86L94.36,617.86Z" style="fill:none;stroke:#7AC36A;stroke-width:0.625" />
<path d="M101.27,660.64L106.6,660.64L106.6,665.97L101.27,665.97Z" style="fill:none;stroke:#7AC36A;stroke-width:0.625" />
<path d="M108.17,634.32L113.51,634.32L113.51,639.65L108.17,639.65Z" style="fill:none;stroke:#7AC36A;stroke-width:0.625" />
<path d="M115.08,630.92L120.41,630.92L120.41,636.25L115.08,636.25Z" style="fill:none;stroke:#7AC36A;stroke-width:0.625" />
<path d="M121.99,608.81L127.32,608.81L127.32,614.14L121.99,614.14Z" style="fill:none;stroke:#7AC36A;stroke-width:0.625" />
<path d="M128.89,605.57L134.23,605.57L134.23,610.91L128.89,610.91Z" style="fill:none;stroke:#7AC36A;stroke-width:0.625" />
<path d="M135.8,615.92L141.13,615.92L141.13,621.25L135.8,621.25Z" style="fill:none;stroke:#7AC36A;stroke-width:0.625" />
<path d="M142.7,591.86L148.04,591.86L148.04,597.19L142.7,597.19Z" style="fill:none;stroke:#7AC36A;stroke-width:0.625" />
<path d="M149.61,578.13L154.95,578.13L154.95,583.47L149.61,583.47Z" style="fill:none;stroke:#7AC36A;stroke-width:0.625" />
<path d="M156.52,597.75L161.85,597.75L161.85,603.08L156.52,603.08Z" style="fill:none;stroke:#7AC36A;stroke-width:0.625" />
<path d="M163.42,557.38L168.76,557.38L168.76,562.72L163.42,562.72Z" style="fill:none;stroke:#7AC36A;stroke-width:0.625" />
<path d="M170.33,538.38L175.67,538.38L175.67,543.71L170.33,543.71Z" style="fill:none;stroke:#7AC36A;stroke-width:0.625" />
<path d="M177.24,483.43L182.57,483.43L182.57,488.77L177.24,488.77Z" style="fill:none;stroke:#7AC36A;stroke-width:0.625" />
<path d="M184.14,491.29L189.48,491.29L189.48,496.63L184.14,496.63Z" style="fill:none;stroke:#7AC36A;stroke-width:0.625" />
<path d="M191.05,453.68L196.38,453.68L196.38,459.02L191.05,459.02Z" style="fill:none;stroke:#7AC36A;stroke-width:0.625" />
<path d="M197.96,389.12L203.29,389.12L203.29,394.45L197.96,394.45Z" style="fill:none;stroke:#7AC36A;stroke-width:0.625" />
<path d="M204.86,352.95L210.2,352.95L210.2,358.29L204.86,358.29Z" style="fill:none;stroke:#7AC36A;stroke-width:0.625" />
<path d="M211.77,357.91L217.1,357.91L217.1,363.24L211.77,363.24Z" style="fill:none;stroke:#7AC36A;stroke-width:0.625" />
<path d="M218.68,288.73L224.01,288.73L224.01,294.07L218.68,294.07Z" style="fill:none;stroke:#7AC36A;stroke-width:0.625" />
<path d="M225.58,281.34L230.92,281.34L230.92,286.67L225.58,286.67Z" style="fill:none;stroke:#7AC36A;stroke-width:0.625" />
<path d="M232.49,260.84L237.82,260.84L237.82,266.17L232.49,266.17Z" style="fill:none;stroke:#7AC36A;stroke-width:0.625" />
<path d="M239.39,273.11L244.73,273.11L244.73,278.45L239.39,278.45Z" style="fill:none;stroke:#7AC36A;stroke-width:0.625" />
<path d="M246.3,205.74L251.64,205.74L251.64,211.08L246.3,211.08Z" style="fill:none;stroke:#7AC36A;stroke-width:0.625" />
<path d="M253.21,178.67L258.54,178.67L258.54,184L253.21,184Z" style="fill:none;stroke:#7AC36A;stroke-width:0.625" />
<path d="M260.11,154.19L265.45,154.19L265.45,159.52L260.11,159.52Z" style="fill:none;stroke:#7AC36A;stroke-width:0.625" />
<path d="M267.02,158.43L272.36,158.43L272.36,163.77L267.02,163.77Z" style="fill:none;stroke:#7AC36A;stroke-width:0.625" />
<path d="M273.93,218.09L279.26,218.09L279.26,223.42L273.93,223.42Z" style="fill:none;stroke:#7AC36A;stroke-width:0.625" />
<path d="M280.83,235.64L286.17,235.64L286.17,240.98L280.83,240.98Z" style="fill:none;stroke:#7AC36A;stroke-width:0.625" />
<path d="M287.74,226.58L293.07,226.58L293.07,231.92L287.74,231.92Z" style="fill:none;stroke:#7AC36A;stroke-width:0.625" />
<path d="M294.65,266.82L299.98,266.82L299.98,272.16L294.65,272.16Z" style="fill:none;stroke:#7AC36A;stroke-width:0.625" />
<path d="M301.55,296.61L306.89,296.61L306.89,301.94L301.55,301.94Z" style="fill:none;stroke:#7AC36A;stroke-width:0.625" />
<path d="M308.46,341.25L313.79,341.25L313.79,346.59L308.46,346.59Z" style="fill:none;stroke:#7AC36A;stroke-width:0.625" />
<path d="M315.37,357.35L320.7,357.35L320.7,362.69L315.37,362.69Z" style="fill:none;stroke:#7AC36A;stroke-width:0.625" />
<path d="M322.27,414.55L327.61,414.55L327.61,419.88L322.27,419.88Z" style="fill:none;stroke:#7AC36A;stroke-width:0.625" />
<path d="M329.18,447.15L334.51,447.15L334.51,452.48L329.18,452.48Z" style="fill:none;stroke:#7AC36A;stroke-width:0.625" />
<path d="M336.09,485.88L341.42,485.88L341.42,491.21L336.09,491.21Z" style="fill:none;stroke:#7AC36A;stroke-width:0.625" />
<path d="M342.99,538.09L348.33,538.09L348.33,543.42L342.99,543.42Z" style="fill:none;stroke:#7AC36A;stroke-width:0.625" />
<path d="M349.9,604.87L355.23,604.87L355.23,610.21L349.9,610.21Z" style="fill:none;stroke:#7AC36A;stroke-width:0.625" />
<path d="M356.8,639.78L362.14,639.78L362.14,645.11L356.8,645.11Z" style="fill:none;stroke:#7AC36A;stroke-width:0.625" />
<path d="M363.71,656.6L369.05,656.6L369.05,661.94L363.71,661.94Z" style="fill:none;stroke:#7AC36A;stroke-width:0.625" />
<path d="M370.62,646.31L375.95,646.31L375.95,651.64L370.62,651.64Z" style="fill:none;stroke:#7AC36A;stroke-width:0.625" />
<path d="M377.52,669.62L382.86,669.62L382.86,674.95L377.52,674.95Z" style="fill:none;stroke:#7AC36A;stroke-width:0.625" />
<path d="M384.43,649.17L389.76,649.17L389.76,654.51L384.43,654.51Z" style="fill:none;stroke:#7AC36A;stroke-width:0.625" />
<path d="M391.34,618.53L396.67,618.53L396.67,623.86L391.34,623.86Z" style="fill:none;stroke:#7AC36A;stroke-width:0.625" />
<path d="M398.24,589.45L403.58,589.45L403.58,594.79L398.24,594.79Z" style="fill:none;stroke:#7AC36A;stroke-width:0.625" />
<path d="M405.15,554.94L410.48,554.94L410.48,560.27L405.15,560.27Z" style="fill:none;stroke:#7AC36A;stroke-width:0.625" />
<path d="M412.06,557.43L417.39,557.43L417.39,562.76L412.06,562.76Z" style="fill:none;stroke:#7AC36A;stroke-width:0.625" />
<path d="M418.96,525.15L424.3,525.15L424.3,530.49L418.96,530.49Z" style="fill:none;stroke:#7AC36A;stroke-width:0.625" />
<path d="M425.87,516.22L431.2,516.22L431.2,521.55L425.87,521.55Z" style="fill:none;stroke:#7AC36A;stroke-width:0.625" />
<path d="M432.78,517.22L438.11,517.22L438.11,522.55L432.78,522.55Z" style="fill:none;stroke:#7AC36A;stroke-width:0.625" />
<path d="M439.68,475.41L445.02,475.41L445.02,480.75L439.68,480.75Z" style="fill:none;stroke:#7AC36A;stroke-width:0.625" />
<path d="M446.59,416.84L451.92,416.84L451.92,422.17L446.59,422.17Z" style="fill:none;stroke:#7AC36A;stroke-width:0.625" />
<path d="M453.49,361.66L458.83,361.66L458.83,366.99L453.49,366.99Z" style="fill:none;stroke:#7AC36A;stroke-width:0.625" />
<path d="M460.4,315.08L465.74,315.08L465.74,320.42L460.4,320.42Z" style="fill:none;stroke:#7AC36A;stroke-width:0.625" />
<path d="M467.31,265.49L472.64,265.49L472.64,270.82L467.31,270.82Z" style="fill:none;stroke:#7AC36A;stroke-width:0.625" />
<path d="M474.21,248.55L479.55,248.55L479.55,253.88L474.21,253.88Z" style="fill:none;stroke:#7AC36A;stroke-width:0.625" />
<path d="M481.12,231.05L486.45,231.05L486.45,236.38L481.12,236.38Z" style="fill:none;stroke:#7AC36A;stroke-width:0.625" />
<path d="M488.03,220.44L493.36,220.44L493.36,225.77L488.03,225.77Z" style="fill:none;stroke:#7AC36A;stroke-width:0.625" />
<path d="M494.93,198.78L500.27,198.78L500.27,204.11L494.93,204.11Z" style="fill:none;stroke:#7AC36A;stroke-width:0.625" />
<path d="M501.84,166.89L507.17,166.89L507.17,172.22L501.84,172.22Z" style="fill:none;stroke:#7AC36A;stroke-width:0.625" />
<path d="M508.75,161.46L514.08,161.46L514.08,166.79L508.75,166.79Z" style="fill:none;stroke:#7AC36A;stroke-width:0.625" />
<path d="M515.65,163.23L520.99,163.23L520.99,168.56L515.65,168.56Z" style="fill:none;stroke:#7AC36A;stroke-width:0.625" />
<path d="M522.56,220.76L527.89,220.76L527.89,226.1L522.56,226.1Z" style="fill:none;stroke:#7AC36A;stroke-width:0.625" />
<path d="M529.47,214.58L534.8,214.58L534.8,219.91L529.47,219.91Z" style="fill:none;stroke:#7AC36A;stroke-width:0.625" />
<path d="M536.37,272.79L541.71,272.79L541.71,278.13L536.37,278.13Z" style="fill:none;stroke:#7AC36A;stroke-width:0.625" />
<path d="M543.28,292.22L548.61,292.22L548.61,297.56L543.28,297.56Z" style="fill:none;stroke:#7AC36A;stroke-width:0.625" />
<path d="M550.18,332.49L555.52,332.49L555.52,337.83L550.18,337.83Z" style="fill:none;stroke:#7AC36A;stroke-width:0.625" />
<path d="M557.09,344.58L562.43,344.58L562.43,349.92L557.09,349.92Z" style="fill:none;stroke:#7AC36A;stroke-width:0.625" />
<path d="M564,389.6L569.33,389.6L569.33,394.94L564,394.94Z" style="fill:none;stroke:#7AC36A;stroke-width:0.625" />
<path d="M570.9,434.33L576.24,434.33L576.24,439.67L570.9,439.67Z" style="fill:none;stroke:#7AC36A;stroke-width:0.625" />
<path d="M577.81,491.69L583.14,491.69L583.14,497.02L577.81,497.02Z" style="fill:none;stroke:#7AC36A;stroke-width:0.625" />
<path d="M584.72,525.88L590.05,525.88L590.05,531.21L584.72,531.21Z" style="fill:none;stroke:#7AC36A;stroke-width:0.625" />
<path d="M591.62,555.48L596.96,555.48L596.96,560.82L591.62,560.82Z" style="fill:none;stroke:#7AC36A;stroke-width:0.625" />
<path d="M598.53,600.86L603.86,600.86L603.86,606.19L598.53,606.19Z" style="fill:none;stroke:#7AC36A;stroke-width:0.625" />
<path d="M605.44,596.91L610.77,596.91L610.77,602.24L605.44,602.24Z" style="fill:none;stroke:#7AC36A;stroke-width:0.625" />
<path d="M612.34,636.32L617.68,636.32L617.68,641.65L612.34,641.65Z" style="fill:none;stroke:#7AC36A;stroke-width:0.625" />
<path d="M619.25,680.96L624.58,680.96L624.58,686.29L619.25,686.29Z" style="fill:none;stroke:#7AC36A;stroke-width:0.625" />
<path d="M626.16,701.13L631.49,701.13L631.49,706.47L626.16,706.47Z" style="fill:none;stroke:#7AC36A;stroke-width:0.625" />
<path d="M633.06,677.85L638.4,677.85L638.4,683.18L633.06,683.18Z" style="fill:none;stroke:#7AC36A;stroke-width:0.625" />
<path d="M639.97,694.25L645.3,694.25L645.3,699.59L639.97,699.59Z" style="fill:none;stroke:#7AC36A;stroke-width:0.625" />
<path d="M646.87,679.32L652.21,679.32L652.21,684.65L646.87,684.65Z" style="fill:none;stroke:#7AC36A;stroke-width:0.625" />
<path d="M653.78,619.64L659.12,619.64L659.12,624.97L653.78,624.97Z" style="fill:none;stroke:#7AC36A;stroke-width:0.625" />
<path d="M660.69,572.03L666.02,572.03L666.02,577.37L660.69,577.37Z" style="fill:none;stroke:#7AC36A;stroke-width:0.625" />
<path d="M667.59,528.66L672.93,528.66L672.93,533.99L667.59,533.99Z" style="fill:none;stroke:#7AC36A;stroke-width:0.625" />
<path d="M674.5,523.38L679.83,523.38L679.83,528.71L674.5,528.71Z" style="fill:none;stroke:#7AC36A;stroke-width:0.625" />
<path d="M681.41,519.24L686.74,519.24L686.74,524.58L681.41,524.58Z" style="fill:none;stroke:#7AC36A;stroke-width:0.625" />
<path d="M688.31,441.36L693.65,441.36L693.65,446.69L688.31,446.69Z" style="fill:none;stroke:#7AC36A;stroke-width:0.625" />
<path d="M695.22,440.86L700.55,440.86L700.55,446.2L695.22,446.2Z" style="fill:none;stroke:#7AC36A;stroke-width:0.625" />
<path d="M702.13,417.5L707.46,417.5L707.46,422.84L702.13,422.84Z" style="fill:none;stroke:#7AC36A;stroke-width:0.625" />
<path d="M709.03,335.91L714.37,335.91L714.37,341.24L709.03,341.24Z" style="fill:none;stroke:#7AC36A;stroke-width:0.625" />
<path d="M715.94,329.43L721.27,329.43L721.27,334.77L715.94,334.77Z" style="fill:none;stroke:#7AC36A;stroke-width:0.625" />
<path d="M722.85,294.35L728.18,294.35L728.18,299.69L722.85,299.69Z" style="fill:none;stroke:#7AC36A;stroke-width:0.625" />
<path d="M729.75,298.12L735.09,298.12L735.09,303.46L729.75,303.46Z" style="fill:none;stroke:#7AC36A;stroke-width:0.625" />
<path d="M736.66,242.81L741.99,242.81L741.99,248.15L736.66,248.15Z" style="fill:none;stroke:#7AC36A;stroke-width:0.625" />
<path d="M743.56,219.65L748.9,219.65L748.9,224.99L743.56,224.99Z" style="fill:none;stroke:#7AC36A;stroke-width:0.625" />
<path d="M750.47,205.05L755.81,205.05L755.81,210.38L750.47,210.38Z" style="fill:none;stroke:#7AC36A;stroke-width:0.625" />
<path d="M757.38,162.07L762.71,162.07L762.71,167.41L757.38,167.41Z" style="fill:none;stroke:#7AC36A;stroke-width:0.625" />
<path d="M764.28,177.5L769.62,177.5L769.62,182.84L764.28,182.84Z" style="fill:none;stroke:#7AC36A;stroke-width:0.625" />
<path d="M771.19,204.64L776.52,204.64L776.52,209.97L771.19,209.97Z" style="fill:none;stroke:#7AC36A;stroke-width:0.625" />
<path d="M778.1,211.23L783.43,211.23L783.43,216.57L778.1,216.57Z" style="fill:none;stroke:#7AC36A;stroke-width:0.625" />
<path d="M785,272.6L790.34,272.6L790.34,277.93L785,277.93Z" style="fill:none;stroke:#7AC36A;stroke-width:0.625" />
<path d="M791.91,258.86L797.24,258.86L797.24,264.19L791.91,264.19Z" style="fill:none;stroke:#7AC36A;stroke-width:0.625" />
<path d="M798.82,264.96L804.15,264.96L804.15,270.3L798.82,270.3Z" style="fill:none;stroke:#7AC36A;stroke-width:0.625" />
<path d="M805.72,285.88L811.06,285.88L811.06,291.22L805.72,291.22Z" style="fill:none;stroke:#7AC36A;stroke-width:0.625" />
<path d="M812.63,358.28L817.96,358.28L817.96,363.61L812.63,363.61Z" style="fill:none;stroke:#7AC36A;stroke-width:0.625" />
<path d="M819.54,387.5L824.87,387.5L824.87,392.84L819.54,392.84Z" style="fill:none;stroke:#7AC36A;stroke-width:0.625" />
<path d="M826.44,470.06L831.78,470.06L831.78,475.39L826.44,475.39Z" style="fill:none;stroke:#7AC36A;stroke-width:0.625" />
<path d="M833.35,488.12L838.68,488.12L838.68,493.46L833.35,493.46Z" style="fill:none;stroke:#7AC36A;stroke-width:0.625" />
<path d="M840.25,516.74L845.59,516.74L845.59,522.08L840.25,522.08Z" style="fill:none;stroke:#7AC36A;stroke-width:0.625" />
<path d="M847.16,532.07L852.5,532.07L852.5,537.41L847.16,537.41Z" style="fill:none;stroke:#7AC36A;stroke-width:0.625" />
<path d="M854.07,569.06L859.4,569.06L859.4,574.4L854.07,574.4Z" style="fill:none;stroke:#7AC36A;stroke-width:0.625" />
<path d="M860.97,639.61L866.31,639.61L866.31,644.94L860.97,644.94Z" style="fill:none;stroke:#7AC36A;stroke-width:0.625" />
<path d="M867.88,618.26L873.21,618.26L873.21,623.59L867.88,623.59Z" style="fill:none;stroke:#7AC36A;stroke-width:0.625" />
<path d="M874.79,658.22L880.12,658.22L880.12,663.56L874.79,663.56Z" style="fill:none;stroke:#7AC36A;stroke-width:0.625" />
<path d="M881.69,668.8L887.03,668.8L887.03,674.14L881.69,674.14Z" style="fill:none;stroke:#7AC36A;stroke-width:0.625" />
<path d="M888.6,626.54L893.93,626.54L893.93,631.87L888.6,631.87Z" style="fill:none;stroke:#7AC36A;stroke-width:0.625" />
<path d="M895.51,652.6L900.84,652.6L900.84,657.94L895.51,657.94Z" style="fill:none;stroke:#7AC36A;stroke-width:0.625" />
<path d="M902.41,597.46L907.75,597.46L907.75,602.79L902.41,602.79Z" style="fill:none;stroke:#7AC36A;stroke-width:0.625" />
<path d="M909.32,584.37L914.65,584.37L914.65,589.71L909.32,589.71Z" style="fill:none;stroke:#7AC36A;stroke-width:0.625" />
<path d="M916.23,545.28L921.56,545.28L921.56,550.62L916.23,550.62Z" style="fill:none;stroke:#7AC36A;stroke-width:0.625" />
<path d="M923.13,540.81L928.47,540.81L928.47,546.14L923.13,546.14Z" style="fill:none;stroke:#7AC36A;stroke-width:0.625" />
<path d="M930.04,468.78L935.37,468.78L935.37,474.11L930.04,474.11Z" style="fill:none;stroke:#7AC36A;stroke-width:0.625" />
<path d="M936.94,413.36L942.28,413.36L942.28,418.69L936.94,418.69Z" style="fill:none;stroke:#7AC36A;stroke-width:0.625" />
<path d="M943.85,371.74L949.19,371.74L949.19,377.07L943.85,377.07Z" style="fill:none;stroke:#7AC36A;stroke-width:0.625" />
<path d="M950.76,311.92L956.09,311.92L956.09,317.25L950.76,317.25Z" style="fill:none;stroke:#7AC36A;stroke-width:0.625" />
<path d="M957.66,316.86L963,316.86L963,322.19L957.66,322.19Z" style="fill:none;stroke:#7AC36A;stroke-width:0.625" />
<path d="M964.57,289L969.91,289L969.91,294.34L964.57,294.34Z" style="fill:none;stroke:#7AC36A;stroke-width:0.625" />
<path d="M971.48,225.46L976.81,225.46L976.81,230.79L971.48,230.79Z" style="fill:none;stroke:#7AC36A;stroke-width:0.625" />
<path d="M978.38,196.65L983.72,196.65L983.72,201.99L978.38,201.99Z" style="fill:none;stroke:#7AC36A;stroke-width:0.625" />
<path d="M985.29,169.59L990.62,169.59L990.62,174.93L985.29,174.93Z" style="fill:none;stroke:#7AC36A;stroke-width:0.625" />
<path d="M992.2,207.74L997.53,207.74L997.53,213.08L992.2,213.08Z" style="fill:none;stroke:#7AC36A;stroke-width:0.625" />
<path d="M999.1,202.53L1004.4,202.53L1004.4,207.87L999.1,207.87Z" style="fill:none;stroke:#7AC36A;stroke-width:0.625" />
<path d="M1006,231.8L1011.3,231.8L1011.3,237.13L1006,237.13Z" style="fill:none;stroke:#7AC36A;stroke-width:0.625" />
<path d="M1012.9,201.1L1018.3,201.1L1018.3,206.44L1012.9,206.44Z" style="fill:none;stroke:#7AC36A;stroke-width:0.625" />
<path d="M1019.8,203.28L1025.2,203.28L1025.2,208.62L1019.8,208.62Z" style="fill:none;stroke:#7AC36A;stroke-width:0.625" />
<path d="M1026.7,200.9L1032.1,200.9L1032.1,206.23L1026.7,206.23Z" style="fill:none;stroke:#7AC36A;stroke-width:0.625" />
<path d="M1033.6,259.69L1039,259.69L1039,265.03L1033.6,265.03Z" style="fill:none;stroke:#7AC36A;stroke-width:0.625" />
<path d="M1040.5,319.1L1045.9,319.1L1045.9,324.44L1040.5,324.44Z" style="fill:none;stroke:#7AC36A;stroke-width:0.625" />
<path d="M1047.4,356.29L1052.8,356.29L1052.8,361.63L1047.4,361.63Z" style="fill:none;stroke:#7AC36A;stroke-width:0.625" />
<path d="M1054.4,343.22L1059.7,343.22L1059.7,348.56L1054.4,348.56Z" style="fill:none;stroke:#7AC36A;stroke-width:0.625" />
<path d="M1061.3,381.08L1066.6,381.08L1066.6,386.42L1061.3,386.42Z" style="fill:none;stroke:#7AC36A;stroke-width:0.625" />
<path d="M1068.2,418.73L1073.5,418.73L1073.5,424.07L1068.2,424.07Z" style="fill:none;stroke:#7AC36A;stroke-width:0.625" />
<path d="M1075.1,457.65L1080.4,457.65L1080.4,462.99L1075.1,462.99Z" style="fill:none;stroke:#7AC36A;stroke-width:0.625" />
<path d="M1082,459.32L1087.3,459.32L1087.3,464.65L1082,464.65Z" style="fill:none;stroke:#7AC36A;stroke-width:0.625" />
<path d="M1088.9,537.43L1094.2,537.43L1094.2,542.77L1088.9,542.77Z" style="fill:none;stroke:#7AC36A;stroke-width:0.625" />
<path d="M1095.8,563.44L1101.1,563.44L1101.1,568.77L1095.8,568.77Z" style="fill:none;stroke:#7AC36A;stroke-width:0.625" />
<path d="M1102.7,619.99L1108,619.99L1108,625.32L1102.7,625.32Z" style="fill:none;stroke:#7AC36A;stroke-width:0.625" />
<path d="M1109.6,603.59L1114.9,603.59L1114.9,608.92L1109.6,608.92Z" style="fill:none;stroke:#7AC36A;stroke-width:0.625" />
<path d="M1116.5,639.7L1121.8,639.7L1121.8,645.03L1116.5,645.03Z" style="fill:none;stroke:#7AC36A;stroke-width:0.625" />
<path d="M1123.4,631.1L1128.8,631.1L1128.8,636.44L1123.4,636.44Z" style="fill:none;stroke:#7AC36A;stroke-width:0.625" />
<path d="M1130.3,668.05L1135.7,668.05L1135.7,673.39L1130.3,673.39Z" style="fill:none;stroke:#7AC36A;stroke-width:0.625" />
<path d="M1137.2,688.84L1142.6,688.84L1142.6,694.17L1137.2,694.17Z" style="fill:none;stroke:#7AC36A;stroke-width:0.625" />
<path d="M1144.1,681.22L1149.5,681.22L1149.5,686.55L1144.1,686.55Z" style="fill:none;stroke:#7AC36A;stroke-width:0.625" />
<path d="M1151,628.94L1156.4,628.94L1156.4,634.27L1151,634.27Z" style="fill:none;stroke:#7AC36A;stroke-width:0.625" />
<path d="M1158,598.9L1163.3,598.9L1163.3,604.23L1158,604.23Z" style="fill:none;stroke:#7AC36A;stroke-width:0.625" />
<path d="M1164.9,589.66L1170.2,589.66L1170.2,595L1164.9,595Z" style="fill:none;stroke:#7AC36A;stroke-width:0.625" />
<path d="M1171.8,535.23L1177.1,535.23L1177.1,540.57L1171.8,540.57Z" style="fill:none;stroke:#7AC36A;stroke-width:0.625" />
<path d="M1178.7,514.03L1184,514.03L1184,519.37L1178.7,519.37Z" style="fill:none;stroke:#7AC36A;stroke-width:0.625" />
<path d="M1185.6,507.12L1190.9,507.12L1190.9,512.45L1185.6,512.45Z" style="fill:none;stroke:#7AC36A;stroke-width:0.625" />
<path d="M1192.5,480.45L1197.8,480.45L1197.8,485.78L1192.5,485.78Z" style="fill:none;stroke:#7AC36A;stroke-width:0.625" />
<path d="M1199.4,393.94L1204.7,393.94L1204.7,399.28L1199.4,399.28Z" style="fill:none;stroke:#7AC36A;stroke-width:0.625" />
<path d="M1206.3,339.57L1211.6,339.57L1211.6,344.91L1206.3,344.91Z" style="fill:none;stroke:#7AC36A;stroke-width:0.625" />
<path d="M1213.2,269.2L1218.5,269.2L1218.5,274.54L1213.2,274.54Z" style="fill:none;stroke:#7AC36A;stroke-width:0.625" />
<path d="M1220.1,222.84L1225.4,222.84L1225.4,228.18L1220.1,228.18Z" style="fill:none;stroke:#7AC36A;stroke-width:0.625" />
<path d="M1227,230.64L1232.3,230.64L1232.3,235.98L1227,235.98Z" style="fill:none;stroke:#7AC36A;stroke-width:0.625" />
<path d="M1233.9,240.28L1239.3,240.28L1239.3,245.62L1233.9,245.62Z" style="fill:none;stroke:#7AC36A;stroke-width:0.625" />
<path d="M1240.8,255.71L1246.2,255.71L1246.2,261.05L1240.8,261.05Z" style="fill:none;stroke:#7AC36A;stroke-width:0.625" />
<path d="M1247.7,196.44L1253.1,196.44L1253.1,201.77L1247.7,201.77Z" style="fill:none;stroke:#7AC36A;stroke-width:0.625" />
<path d="M1254.6,161.6L1260,161.6L1260,166.94L1254.6,166.94Z" style="fill:none;stroke:#7AC36A;stroke-width:0.625" />
<path d="M1261.5,201.9L1266.9,201.9L1266.9,207.24L1261.5,207.24Z" style="fill:none;stroke:#7AC36A;stroke-width:0.625" />
<path d="M1268.5,187L1273.8,187L1273.8,192.33L1268.5,192.33Z" style="fill:none;stroke:#7AC36A;stroke-width:0.625" />
<path d="M1275.4,197.87L1280.7,197.87L1280.7,203.21L1275.4,203.21Z" style="fill:none;stroke:#7AC36A;stroke-width:0.625" />
<path d="M1282.3,207.56L1287.6,207.56L1287.6,212.89L1282.3,212.89Z" style="fill:none;stroke:#7AC36A;stroke-width:0.625" />
<path d="M1289.2,219.4L1294.5,219.4L1294.5,224.74L1289.2,224.74Z" style="fill:none;stroke:#7AC36A;stroke-width:0.625" />
<path d="M1296.1,235.69L1301.4,235.69L1301.4,241.02L1296.1,241.02Z" style="fill:none;stroke:#7AC36A;stroke-width:0.625" />
<path d="M1303,286.32L1308.3,286.32L1308.3,291.66L1303,291.66Z" style="fill:none;stroke:#7AC36A;stroke-width:0.625" />
<path d="M1309.9,314.37L1315.2,314.37L1315.2,319.7L1309.9,319.7Z" style="fill:none;stroke:#7AC36A;stroke-width:0.625" />
<path d="M1316.8,346.67L1322.1,346.67L1322.1,352L1316.8,352Z" style="fill:none;stroke:#7AC36A;stroke-width:0.625" />
<path d="M1323.7,442.5L1329,442.5L1329,447.83L1323.7,447.83Z" style="fill:none;stroke:#7AC36A;stroke-width:0.625" />
<path d="M1330.6,511.55L1335.9,511.55L1335.9,516.89L1330.6,516.89Z" style="fill:none;stroke:#7AC36A;stroke-width:0.625" />
<path d="M1337.5,569.97L1342.9,569.97L1342.9,575.3L1337.5,575.3Z" style="fill:none;stroke:#7AC36A;stroke-width:0.625" />
<path d="M1344.4,597.83L1349.8,597.83L1349.8,603.17L1344.4,603.17Z" style="fill:none;stroke:#7AC36A;stroke-width:0.625" />
<path d="M1351.3,590.19L1356.7,590.19L1356.7,595.52L1351.3,595.52Z" style="fill:none;stroke:#7AC36A;stroke-width:0.625" />
<path d="M1358.2,621.85L1363.6,621.85L1363.6,627.18L1358.2,627.18Z" style="fill:none;stroke:#7AC36A;stroke-width:0.625" />
<path d="M1365.1,606.03L1370.5,606.03L1370.5,611.37L1365.1,611.37Z" style="fill:none;stroke:#7AC36A;stroke-width:0.625" />
<path d="M1372,655.45L1377.4,655.45L1377.4,660.78L1372,660.78Z" style="fill:none;stroke:#7AC36A;stroke-width:0.625" />
<path d="M1379,623.82L1384.3,623.82L1384.3,629.16L1379,629.16Z" style="fill:none;stroke:#7AC36A;stroke-width:0.625" />
<path d="M1385.9,601.11L1391.2,601.11L1391.2,606.45L1385.9,606.45Z" style="fill:none;stroke:#7AC36A;stroke-width:0.625" />
<path d="M1392.8,577.35L1398.1,577.35L1398.1,582.69L1392.8,582.69Z" style="fill:none;stroke:#7AC36A;stroke-width:0.625" />
<path d="M1399.7,568.03L1405,568.03L1405,573.37L1399.7,573.37Z" style="fill:none;stroke:#7AC36A;stroke-width:0.625" />
<path d="M1406.6,539.6L1411.9,539.6L1411.9,544.94L1406.6,544.94Z" style="fill:none;stroke:#7AC36A;stroke-width:0.625" />
<path d="M1413.5,531.62L1418.8,531.62L1418.8,536.96L1413.5,536.96Z" style="fill:none;stroke:#7AC36A;stroke-width:0.625" />
<path d="M1420.4,542.21L1425.7,542.21L1425.7,547.55L1420.4,547.55Z" style="fill:none;stroke:#7AC36A;stroke-width:0.625" />
<path d="M1427.3,474.15L1432.6,474.15L1432.6,479.48L1427.3,479.48Z" style="fill:none;stroke:#7AC36A;stroke-width:0.625" />
<path d="M1434.2,469.39L1439.5,469.39L1439.5,474.72L1434.2,474.72Z" style="fill:none;stroke:#7AC36A;stroke-width:0.625" />
<path d="M1415,70.183L1440,70.183" style="fill:none;stroke:#F15A60;stroke-width:1.25" />
<path d="M1430.6,70.183A3.125,3.125 0 1 1 1424.4,70.183A3.125,3.125 0 1 1 1430.6,70.183Z" style="fill:none;stroke:#F15A60;stroke-width:0.625" />
<text x="1388.8" y="-63.101" transform="scale(1, -1)"
	style="font-family:Times;font-weight:normal;font-style:normal;font-size:12pt">raw</text>
<path d="M1415,55.461L1440,55.461" style="fill:none;stroke:#7AC36A;stroke-width:1.25;stroke-dasharray:7.5,2.5" />
<path d="M1424.8,52.794L1430.2,52.794L1430.2,58.129L1424.8,58.129Z" style="fill:none;stroke:#7AC36A;stroke-width:0.625" />
<text x="1367.1" y="-48.379" transform="scale(1, -1)"
	style="font-family:Times;font-weight:normal;font-style:normal;font-size:12pt">smooth</text>
</g>
</svg>
