<?xml version="1.0"?>
<!-- Generated by SVGo and Plotinum VG -->
<svg width="16in" height="9in"
	xmlns="http://www.w3.org/2000/svg"
	xmlns:xlink="http://www.w3.org/1999/xlink">
<g transform="scale(1, -1) translate(0, -810)">
<path d="M0,0L1440,0L1440,810L0,810Z" style="fill:#FFFFFF" />
<text x="738.98" y="-5.355" transform="scale(1, -1)"
	style="font-family:Times;font-weight:normal;font-style:normal;font-size:12pt">X</text>
<text x="48.8" y="-19.025" transform="scale(1, -1)"
	style="font-family:Times;font-weight:normal;font-style:normal;font-size:10pt">0</text>
<text x="463.25" y="-19.025" transform="scale(1, -1)"
	style="font-family:Times;font-weight:normal;font-style:normal;font-size:10pt">60</text>
<text x="877.7" y="-19.025" transform="scale(1, -1)"
	style="font-family:Times;font-weight:normal;font-style:normal;font-size:10pt">120</text>
<text x="1295.3" y="-19.025" transform="scale(1, -1)"
	style="font-family:Times;font-weight:normal;font-style:normal;font-size:10pt">180</text>
<path d="M51.925,29.625L51.925,39.625" style="fill:none;stroke:#000000;stroke-width:0.625" />
<path d="M469.5,29.625L469.5,39.625" style="fill:none;stroke:#000000;stroke-width:0.625" />
<path d="M887.07,29.625L887.07,39.625" style="fill:none;stroke:#000000;stroke-width:0.625" />
<path d="M1304.6,29.625L1304.6,39.625" style="fill:none;stroke:#000000;stroke-width:0.625" />
<path d="M191.12,34.625L191.12,39.625" style="fill:none;stroke:#000000;stroke-width:0.625" />
<path d="M330.31,34.625L330.31,39.625" style="fill:none;stroke:#000000;stroke-width:0.625" />
<path d="M608.69,34.625L608.69,39.625" style="fill:none;stroke:#000000;stroke-width:0.625" />
<path d="M747.88,34.625L747.88,39.625" style="fill:none;stroke:#000000;stroke-width:0.625" />
<path d="M1026.3,34.625L1026.3,39.625" style="fill:none;stroke:#000000;stroke-width:0.625" />
<path d="M1165.5,34.625L1165.5,39.625" style="fill:none;stroke:#000000;stroke-width:0.625" />
<path d="M51.925,39.625L1436.9,39.625" style="fill:none;stroke:#000000;stroke-width:0.625" />
<g transform="rotate(90)">
<text x="422.68" y="12.72" transform="scale(1, -1)"
	style="font-family:Times;font-weight:normal;font-style:normal;font-size:12pt">Y</text>
</g>
<text x="18.075" y="-188.01" transform="scale(1, -1)"
	style="font-family:Times;font-weight:normal;font-style:normal;font-size:10pt">-6</text>
<text x="22.237" y="-401.26" transform="scale(1, -1)"
	style="font-family:Times;font-weight:normal;font-style:normal;font-size:10pt">0</text>
<text x="22.237" y="-614.51" transform="scale(1, -1)"
	style="font-family:Times;font-weight:normal;font-style:normal;font-size:10pt">6</text>
<path d="M31.613,192.83L41.612,192.83" style="fill:none;stroke:#000000;stroke-width:0.625" />
<path d="M31.613,406.08L41.612,406.08" style="fill:none;stroke:#000000;stroke-width:0.625" />
<path d="M31.613,619.34L41.612,619.34" style="fill:none;stroke:#000000;stroke-width:0.625" />
<path d="M36.612,50.661L41.612,50.661" style="fill:none;stroke:#000000;stroke-width:0.625" />
<path d="M36.612,121.75L41.612,121.75" style="fill:none;stroke:#000000;stroke-width:0.625" />
<path d="M36.612,263.91L41.612,263.91" style="fill:none;stroke:#000000;stroke-width:0.625" />
<path d="M36.612,335L41.612,335" style="fill:none;stroke:#000000;stroke-width:0.625" />
<path d="M36.612,477.17L41.612,477.17" style="fill:none;stroke:#000000;stroke-width:0.625" />
<path d="M36.612,548.25L41.612,548.25" style="fill:none;stroke:#000000;stroke-width:0.625" />
<path d="M36.612,690.42L41.612,690.42" style="fill:none;stroke:#000000;stroke-width:0.625" />
<path d="M36.612,761.51L41.612,761.51" style="fill:none;stroke:#000000;stroke-width:0.625" />
<path d="M41.612,49.313L41.612,806.88" style="fill:none;stroke:#000000;stroke-width:0.625" />
<path d="M51.925,416.63L58.885,433.88L65.844,435.67L72.804,476.38L79.763,471.22L86.723,472.37L93.682,503.09L100.64,491.38L107.6,479.85L114.56,482.69L121.52,481.58L128.48,497.72L135.44,475.19L142.4,461.77L149.36,457.09L156.32,470.49L163.28,450.58L170.24,428L177.2,420.81L184.16,395.45L191.12,397.41L198.08,391.85L205.04,365.08L211.99,362.5L218.95,366L225.91,372.76L232.87,370.51L239.83,342.97L246.79,347.14L253.75,371.66L260.71,383.47L267.67,369.28L274.63,387.8L281.59,383.27L288.55,417.54L295.51,425.01L302.47,418.91L309.43,444.94L316.39,462.2L323.35,460.77L330.31,448.09L337.27,485.58L344.23,488.58L351.19,472.12L358.15,457.79L365.1,474.63L372.06,476.71L379.02,469.82L385.98,453.07L392.94,463.87L399.9,438.18L406.86,425.17L413.82,442.66L420.78,405.75L427.74,426.43L434.7,401.81L441.66,417.1L448.62,398.59L455.58,406.97L462.54,375.77L469.5,382.04L476.46,382.14L483.42,386.04L490.38,409.17L497.34,411.39L504.3,382.92L511.26,388.23L518.21,408.86L525.17,402.22L532.13,424.3L539.09,428.36L546.05,430.08L553.01,426.32L559.97,434.1L566.93,440.17L573.89,448.93L580.85,434.57L587.81,436.62L594.77,447.79L601.73,439.84L608.69,448.82L615.65,447.68L622.61,443.49L629.57,433.97L636.53,445.18L643.49,412.15L650.45,414.17L657.41,414.5L664.37,415.44L671.32,430.57L678.28,437.24L685.24,425.93L692.2,441.11L699.16,427.53L706.12,424.18L713.08,424.17L720.04,444.22L727,432.41L733.96,444.38L740.92,430.57L747.88,421.69L754.84,435.06L761.8,440.44L768.76,444.79L775.72,435.29L782.68,424.96L789.64,434.32L796.6,416.33L803.56,405.76L810.52,401.02L817.48,414.57L824.43,392.22L831.39,397.68L838.35,390.78L845.31,384.41L852.27,400.48L859.23,405.57L866.19,379.27L873.15,385.15L880.11,414.77L887.07,417.39L894.03,423.5L900.99,421.79L907.95,411.82L914.91,440.36L921.87,431.4L928.83,452.31L935.79,465.76L942.75,450.1L949.71,445.55L956.67,462.05L963.63,479.03L970.59,472.67L977.54,462.03L984.5,475.32L991.46,477.83L998.42,463.28L1005.4,459.48L1012.3,445.31L1019.3,424.81L1026.3,421.22L1033.2,415.46L1040.2,422.1L1047.1,391.35L1054.1,401.66L1061.1,387.6L1068,375.99L1075,360.07L1081.9,383.09L1088.9,364.82L1095.9,369.13L1102.8,355.31L1109.8,358.55L1116.7,380.48L1123.7,383.14L1130.7,397.71L1137.6,394.79L1144.6,391.64L1151.5,427.7L1158.5,423.42L1165.5,429.98L1172.4,458.19L1179.4,451.29L1186.3,470.92L1193.3,470.74L1200.3,470.27L1207.2,482.67L1214.2,490.6L1221.1,500.96L1228.1,479.22L1235,489.04L1242,472.97L1249,488.35L1255.9,471.09L1262.9,462.42L1269.8,453.68L1276.8,430.96L1283.8,429.51L1290.7,384.94L1297.7,404.97L1304.6,370.23L1311.6,358.55L1318.6,373.35L1325.5,361.5L1332.5,341.58L1339.4,343.42L1346.4,357.35L1353.4,342.11L1360.3,355.01L1367.3,377.21L1374.2,395.65L1381.2,397.52L1388.2,416.48L1395.1,410.4L1402.1,415.83L1409,425.31L1416,438.69L1423,445.54L1429.9,474.69L1436.9,475.16" style="fill:none;stroke:#F15A60;stroke-width:1.25" />
<path d="M55.05,416.63A3.125,3.125 0 1 1 48.8,416.63A3.125,3.125 0 1 1 55.05,416.63Z" style="fill:none;stroke:#F15A60;stroke-width:0.625" />
<path d="M62.01,433.88A3.125,3.125 0 1 1 55.76,433.88A3.125,3.125 0 1 1 62.01,433.88Z" style="fill:none;stroke:#F15A60;stroke-width:0.625" />
<path d="M68.969,435.67A3.125,3.125 0 1 1 62.719,435.67A3.125,3.125 0 1 1 68.969,435.67Z" style="fill:none;stroke:#F15A60;stroke-width:0.625" />
<path d="M75.929,476.38A3.125,3.125 0 1 1 69.679,476.38A3.125,3.125 0 1 1 75.929,476.38Z" style="fill:none;stroke:#F15A60;stroke-width:0.625" />
<path d="M82.888,471.22L82.888,471.22A3.125,3.125 0 1 1 76.638,471.22A3.125,3.125 0 1 1 82.888,471.22Z" style="fill:none;stroke:#F15A60;stroke-width:0.625" />
<path d="M89.848,472.37L89.848,472.37A3.125,3.125 0 1 1 83.598,472.37A3.125,3.125 0 1 1 89.848,472.37Z" style="fill:none;stroke:#F15A60;stroke-width:0.625" />
<path d="M96.807,503.09L96.807,503.09A3.125,3.125 0 1 1 90.557,503.09A3.125,3.125 0 1 1 96.807,503.09Z" style="fill:none;stroke:#F15A60;stroke-width:0.625" />
<path d="M103.77,491.38L103.77,491.38A3.125,3.125 0 1 1 97.517,491.38A3.125,3.125 0 1 1 103.77,491.38Z" style="fill:none;stroke:#F15A60;stroke-width:0.625" />
<path d="M110.73,479.85L110.73,479.85A3.125,3.125 0 1 1 104.48,479.85A3.125,3.125 0 1 1 110.73,479.85Z" style="fill:none;stroke:#F15A60;stroke-width:0.625" />
<path d="M117.69,482.69L117.69,482.69A3.125,3.125 0 1 1 111.44,482.69A3.125,3.125 0 1 1 117.69,482.69Z" style="fill:none;stroke:#F15A60;stroke-width:0.625" />
<path d="M124.65,481.58A3.125,3.125 0 1 1 118.4,481.58A3.125,3.125 0 1 1 124.65,481.58Z" style="fill:none;stroke:#F15A60;stroke-width:0.625" />
<path d="M131.61,497.72A3.125,3.125 0 1 1 125.36,497.72A3.125,3.125 0 1 1 131.61,497.72Z" style="fill:none;stroke:#F15A60;stroke-width:0.625" />
<path d="M138.56,475.19A3.125,3.125 0 1 1 132.31,475.19A3.125,3.125 0 1 1 138.56,475.19Z" style="fill:none;stroke:#F15A60;stroke-width:0.625" />
<path d="M145.52,461.77A3.125,3.125 0 1 1 139.27,461.77A3.125,3.125 0 1 1 145.52,461.77Z" style="fill:none;stroke:#F15A60;stroke-width:0.625" />
<path d="M152.48,457.09A3.125,3.125 0 1 1 146.23,457.09A3.125,3.125 0 1 1 152.48,457.09Z" style="fill:none;stroke:#F15A60;stroke-width:0.625" />
<path d="M159.44,470.49A3.125,3.125 0 1 1 153.19,470.49A3.125,3.125 0 1 1 159.44,470.49Z" style="fill:none;stroke:#F15A60;stroke-width:0.625" />
<path d="M166.4,450.58A3.125,3.125 0 1 1 160.15,450.58A3.125,3.125 0 1 1 166.4,450.58Z" style="fill:none;stroke:#F15A60;stroke-width:0.625" />
<path d="M173.36,428A3.125,3.125 0 1 1 167.11,428A3.125,3.125 0 1 1 173.36,428Z" style="fill:none;stroke:#F15A60;stroke-width:0.625" />
<path d="M180.32,420.81L180.32,420.81A3.125,3.125 0 1 1 174.07,420.81A3.125,3.125 0 1 1 180.32,420.81Z" style="fill:none;stroke:#F15A60;stroke-width:0.625" />
<path d="M187.28,395.45A3.125,3.125 0 1 1 181.03,395.45A3.125,3.125 0 1 1 187.28,395.45Z" style="fill:none;stroke:#F15A60;stroke-width:0.625" />
<path d="M194.24,397.41L194.24,397.41A3.125,3.125 0 1 1 187.99,397.41A3.125,3.125 0 1 1 194.24,397.41Z" style="fill:none;stroke:#F15A60;stroke-width:0.625" />
<path d="M201.2,391.85A3.125,3.125 0 1 1 194.95,391.85A3.125,3.125 0 1 1 201.2,391.85Z" style="fill:none;stroke:#F15A60;stroke-width:0.625" />
<path d="M208.16,365.08A3.125,3.125 0 1 1 201.91,365.08A3.125,3.125 0 1 1 208.16,365.08Z" style="fill:none;stroke:#F15A60;stroke-width:0.625" />
<path d="M215.12,362.5A3.125,3.125 0 1 1 208.87,362.5A3.125,3.125 0 1 1 215.12,362.5Z" style="fill:none;stroke:#F15A60;stroke-width:0.625" />
<path d="M222.08,366L222.08,366A3.125,3.125 0 1 1 215.83,366A3.125,3.125 0 1 1 222.08,366Z" style="fill:none;stroke:#F15A60;stroke-width:0.625" />
<path d="M229.04,372.76A3.125,3.125 0 1 1 222.79,372.76A3.125,3.125 0 1 1 229.04,372.76Z" style="fill:none;stroke:#F15A60;stroke-width:0.625" />
<path d="M236,370.51A3.125,3.125 0 1 1 229.75,370.51A3.125,3.125 0 1 1 236,370.51Z" style="fill:none;stroke:#F15A60;stroke-width:0.625" />
<path d="M242.96,342.97A3.125,3.125 0 1 1 236.71,342.97A3.125,3.125 0 1 1 242.96,342.97Z" style="fill:none;stroke:#F15A60;stroke-width:0.625" />
<path d="M249.92,347.14L249.92,347.14A3.125,3.125 0 1 1 243.67,347.14A3.125,3.125 0 1 1 249.92,347.14Z" style="fill:none;stroke:#F15A60;stroke-width:0.625" />
<path d="M256.88,371.66L256.88,371.66A3.125,3.125 0 1 1 250.63,371.66A3.125,3.125 0 1 1 256.88,371.66Z" style="fill:none;stroke:#F15A60;stroke-width:0.625" />
<path d="M263.84,383.47A3.125,3.125 0 1 1 257.59,383.47A3.125,3.125 0 1 1 263.84,383.47Z" style="fill:none;stroke:#F15A60;stroke-width:0.625" />
<path d="M270.8,369.28A3.125,3.125 0 1 1 264.55,369.28A3.125,3.125 0 1 1 270.8,369.28Z" style="fill:none;stroke:#F15A60;stroke-width:0.625" />
<path d="M277.76,387.8L277.76,387.8A3.125,3.125 0 1 1 271.51,387.8A3.125,3.125 0 1 1 277.76,387.8Z" style="fill:none;stroke:#F15A60;stroke-width:0.625" />
<path d="M284.72,383.27A3.125,3.125 0 1 1 278.47,383.27A3.125,3.125 0 1 1 284.72,383.27Z" style="fill:none;stroke:#F15A60;stroke-width:0.625" />
<path d="M291.67,417.54L291.67,417.54A3.125,3.125 0 1 1 285.42,417.54A3.125,3.125 0 1 1 291.67,417.54Z" style="fill:none;stroke:#F15A60;stroke-width:0.625" />
<path d="M298.63,425.01A3.125,3.125 0 1 1 292.38,425.01A3.125,3.125 0 1 1 298.63,425.01Z" style="fill:none;stroke:#F15A60;stroke-width:0.625" />
<path d="M305.59,418.91A3.125,3.125 0 1 1 299.34,418.91A3.125,3.125 0 1 1 305.59,418.91Z" style="fill:none;stroke:#F15A60;stroke-width:0.625" />
<path d="M312.55,444.94A3.125,3.125 0 1 1 306.3,444.94A3.125,3.125 0 1 1 312.55,444.94Z" style="fill:none;stroke:#F15A60;stroke-width:0.625" />
<path d="M319.51,462.2A3.125,3.125 0 1 1 313.26,462.2A3.125,3.125 0 1 1 319.51,462.2Z" style="fill:none;stroke:#F15A60;stroke-width:0.625" />
<path d="M326.47,460.77A3.125,3.125 0 1 1 320.22,460.77A3.125,3.125 0 1 1 326.47,460.77Z" style="fill:none;stroke:#F15A60;stroke-width:0.625" />
<path d="M333.43,448.09L333.43,448.09A3.125,3.125 0 1 1 327.18,448.09A3.125,3.125 0 1 1 333.43,448.09Z" style="fill:none;stroke:#F15A60;stroke-width:0.625" />
<path d="M340.39,485.58A3.125,3.125 0 1 1 334.14,485.58A3.125,3.125 0 1 1 340.39,485.58Z" style="fill:none;stroke:#F15A60;stroke-width:0.625" />
<path d="M347.35,488.58L347.35,488.58A3.125,3.125 0 1 1 341.1,488.58A3.125,3.125 0 1 1 347.35,488.58Z" style="fill:none;stroke:#F15A60;stroke-width:0.625" />
<path d="M354.31,472.12A3.125,3.125 0 1 1 348.06,472.12A3.125,3.125 0 1 1 354.31,472.12Z" style="fill:none;stroke:#F15A60;stroke-width:0.625" />
<path d="M361.27,457.79L361.27,457.79A3.125,3.125 0 1 1 355.02,457.79A3.125,3.125 0 1 1 361.27,457.79Z" style="fill:none;stroke:#F15A60;stroke-width:0.625" />
<path d="M368.23,474.63A3.125,3.125 0 1 1 361.98,474.63A3.125,3.125 0 1 1 368.23,474.63Z" style="fill:none;stroke:#F15A60;stroke-width:0.625" />
<path d="M375.19,476.71A3.125,3.125 0 1 1 368.94,476.71A3.125,3.125 0 1 1 375.19,476.71Z" style="fill:none;stroke:#F15A60;stroke-width:0.625" />
<path d="M382.15,469.82A3.125,3.125 0 1 1 375.9,469.82A3.125,3.125 0 1 1 382.15,469.82Z" style="fill:none;stroke:#F15A60;stroke-width:0.625" />
<path d="M389.11,453.07A3.125,3.125 0 1 1 382.86,453.07A3.125,3.125 0 1 1 389.11,453.07Z" style="fill:none;stroke:#F15A60;stroke-width:0.625" />
<path d="M396.07,463.87A3.125,3.125 0 1 1 389.82,463.87A3.125,3.125 0 1 1 396.07,463.87Z" style="fill:none;stroke:#F15A60;stroke-width:0.625" />
<path d="M403.03,438.18L403.03,438.18A3.125,3.125 0 1 1 396.78,438.18A3.125,3.125 0 1 1 403.03,438.18Z" style="fill:none;stroke:#F15A60;stroke-width:0.625" />
<path d="M409.99,425.17A3.125,3.125 0 1 1 403.74,425.17A3.125,3.125 0 1 1 409.99,425.17Z" style="fill:none;stroke:#F15A60;stroke-width:0.625" />
<path d="M416.95,442.66A3.125,3.125 0 1 1 410.7,442.66A3.125,3.125 0 1 1 416.95,442.66Z" style="fill:none;stroke:#F15A60;stroke-width:0.625" />
<path d="M423.91,405.75L423.91,405.75A3.125,3.125 0 1 1 417.66,405.75A3.125,3.125 0 1 1 423.91,405.75Z" style="fill:none;stroke:#F15A60;stroke-width:0.625" />
<path d="M430.87,426.43A3.125,3.125 0 1 1 424.62,426.43A3.125,3.125 0 1 1 430.87,426.43Z" style="fill:none;stroke:#F15A60;stroke-width:0.625" />
<path d="M437.83,401.81A3.125,3.125 0 1 1 431.58,401.81A3.125,3.125 0 1 1 437.83,401.81Z" style="fill:none;stroke:#F15A60;stroke-width:0.625" />
<path d="M444.78,417.1A3.125,3.125 0 1 1 438.53,417.1A3.125,3.125 0 1 1 444.78,417.1Z" style="fill:none;stroke:#F15A60;stroke-width:0.625" />
<path d="M451.74,398.59L451.74,398.59A3.125,3.125 0 1 1 445.49,398.59A3.125,3.125 0 1 1 451.74,398.59Z" style="fill:none;stroke:#F15A60;stroke-width:0.625" />
<path d="M458.7,406.97L458.7,406.97A3.125,3.125 0 1 1 452.45,406.97A3.125,3.125 0 1 1 458.7,406.97Z" style="fill:none;stroke:#F15A60;stroke-width:0.625" />
<path d="M465.66,375.77L465.66,375.77A3.125,3.125 0 1 1 459.41,375.77A3.125,3.125 0 1 1 465.66,375.77Z" style="fill:none;stroke:#F15A60;stroke-width:0.625" />
<path d="M472.62,382.04A3.125,3.125 0 1 1 466.37,382.04A3.125,3.125 0 1 1 472.62,382.04Z" style="fill:none;stroke:#F15A60;stroke-width:0.625" />
<path d="M479.58,382.14A3.125,3.125 0 1 1 473.33,382.14A3.125,3.125 0 1 1 479.58,382.14Z" style="fill:none;stroke:#F15A60;stroke-width:0.625" />
<path d="M486.54,386.04A3.125,3.125 0 1 1 480.29,386.04A3.125,3.125 0 1 1 486.54,386.04Z" style="fill:none;stroke:#F15A60;stroke-width:0.625" />
<path d="M493.5,409.17A3.125,3.125 0 1 1 487.25,409.17A3.125,3.125 0 1 1 493.5,409.17Z" style="fill:none;stroke:#F15A60;stroke-width:0.625" />
<path d="M500.46,411.39A3.125,3.125 0 1 1 494.21,411.39A3.125,3.125 0 1 1 500.46,411.39Z" style="fill:none;stroke:#F15A60;stroke-width:0.625" />
<path d="M507.42,382.92A3.125,3.125 0 1 1 501.17,382.92A3.125,3.125 0 1 1 507.42,382.92Z" style="fill:none;stroke:#F15A60;stroke-width:0.625" />
<path d="M514.38,388.23L514.38,388.23A3.125,3.125 0 1 1 508.13,388.23A3.125,3.125 0 1 1 514.38,388.23Z" style="fill:none;stroke:#F15A60;stroke-width:0.625" />
<path d="M521.34,408.86A3.125,3.125 0 1 1 515.09,408.86A3.125,3.125 0 1 1 521.34,408.86Z" style="fill:none;stroke:#F15A60;stroke-width:0.625" />
<path d="M528.3,402.22A3.125,3.125 0 1 1 522.05,402.22A3.125,3.125 0 1 1 528.3,402.22Z" style="fill:none;stroke:#F15A60;stroke-width:0.625" />
<path d="M535.26,424.3L535.26,424.3A3.125,3.125 0 1 1 529.01,424.3A3.125,3.125 0 1 1 535.26,424.3Z" style="fill:none;stroke:#F15A60;stroke-width:0.625" />
<path d="M542.22,428.36A3.125,3.125 0 1 1 535.97,428.36A3.125,3.125 0 1 1 542.22,428.36Z" style="fill:none;stroke:#F15A60;stroke-width:0.625" />
<path d="M549.18,430.08A3.125,3.125 0 1 1 542.93,430.08A3.125,3.125 0 1 1 549.18,430.08Z" style="fill:none;stroke:#F15A60;stroke-width:0.625" />
<path d="M556.14,426.32A3.125,3.125 0 1 1 549.89,426.32A3.125,3.125 0 1 1 556.14,426.32Z" style="fill:none;stroke:#F15A60;stroke-width:0.625" />
<path d="M563.1,434.1A3.125,3.125 0 1 1 556.85,434.1A3.125,3.125 0 1 1 563.1,434.1Z" style="fill:none;stroke:#F15A60;stroke-width:0.625" />
<path d="M570.06,440.17L570.06,440.17A3.125,3.125 0 1 1 563.81,440.17A3.125,3.125 0 1 1 570.06,440.17Z" style="fill:none;stroke:#F15A60;stroke-width:0.625" />
<path d="M577.02,448.93A3.125,3.125 0 1 1 570.77,448.93A3.125,3.125 0 1 1 577.02,448.93Z" style="fill:none;stroke:#F15A60;stroke-width:0.625" />
<path d="M583.98,434.57A3.125,3.125 0 1 1 577.73,434.57A3.125,3.125 0 1 1 583.98,434.57Z" style="fill:none;stroke:#F15A60;stroke-width:0.625" />
<path d="M590.94,436.62A3.125,3.125 0 1 1 584.69,436.62A3.125,3.125 0 1 1 590.94,436.62Z" style="fill:none;stroke:#F15A60;stroke-width:0.625" />
<path d="M597.89,447.79A3.125,3.125 0 1 1 591.64,447.79A3.125,3.125 0 1 1 597.89,447.79Z" style="fill:none;stroke:#F15A60;stroke-width:0.625" />
<path d="M604.85,439.84A3.125,3.125 0 1 1 598.6,439.84A3.125,3.125 0 1 1 604.85,439.84Z" style="fill:none;stroke:#F15A60;stroke-width:0.625" />
<path d="M611.81,448.82A3.125,3.125 0 1 1 605.56,448.82A3.125,3.125 0 1 1 611.81,448.82Z" style="fill:none;stroke:#F15A60;stroke-width:0.625" />
<path d="M618.77,447.68A3.125,3.125 0 1 1 612.52,447.68A3.125,3.125 0 1 1 618.77,447.68Z" style="fill:none;stroke:#F15A60;stroke-width:0.625" />
<path d="M625.73,443.49A3.125,3.125 0 1 1 619.48,443.49A3.125,3.125 0 1 1 625.73,443.49Z" style="fill:none;stroke:#F15A60;stroke-width:0.625" />
<path d="M632.69,433.97A3.125,3.125 0 1 1 626.44,433.97A3.125,3.125 0 1 1 632.69,433.97Z" style="fill:none;stroke:#F15A60;stroke-width:0.625" />
<path d="M639.65,445.18A3.125,3.125 0 1 1 633.4,445.18A3.125,3.125 0 1 1 639.65,445.18Z" style="fill:none;stroke:#F15A60;stroke-width:0.625" />
<path d="M646.61,412.15A3.125,3.125 0 1 1 640.36,412.15A3.125,3.125 0 1 1 646.61,412.15Z" style="fill:none;stroke:#F15A60;stroke-width:0.625" />
<path d="M653.57,414.17A3.125,3.125 0 1 1 647.32,414.17A3.125,3.125 0 1 1 653.57,414.17Z" style="fill:none;stroke:#F15A60;stroke-width:0.625" />
<path d="M660.53,414.5A3.125,3.125 0 1 1 654.28,414.5A3.125,3.125 0 1 1 660.53,414.5Z" style="fill:none;stroke:#F15A60;stroke-width:0.625" />
<path d="M667.49,415.44A3.125,3.125 0 1 1 661.24,415.44A3.125,3.125 0 1 1 667.49,415.44Z" style="fill:none;stroke:#F15A60;stroke-width:0.625" />
<path d="M674.45,430.57A3.125,3.125 0 1 1 668.2,430.57A3.125,3.125 0 1 1 674.45,430.57Z" style="fill:none;stroke:#F15A60;stroke-width:0.625" />
<path d="M681.41,437.24L681.41,437.24A3.125,3.125 0 1 1 675.16,437.24A3.125,3.125 0 1 1 681.41,437.24Z" style="fill:none;stroke:#F15A60;stroke-width:0.625" />
<path d="M688.37,425.93A3.125,3.125 0 1 1 682.12,425.93A3.125,3.125 0 1 1 688.37,425.93Z" style="fill:none;stroke:#F15A60;stroke-width:0.625" />
<path d="M695.33,441.11A3.125,3.125 0 1 1 689.08,441.11A3.125,3.125 0 1 1 695.33,441.11Z" style="fill:none;stroke:#F15A60;stroke-width:0.625" />
<path d="M702.29,427.53A3.125,3.125 0 1 1 696.04,427.53A3.125,3.125 0 1 1 702.29,427.53Z" style="fill:none;stroke:#F15A60;stroke-width:0.625" />
<path d="M709.25,424.18L709.25,424.18A3.125,3.125 0 1 1 703,424.18A3.125,3.125 0 1 1 709.25,424.18Z" style="fill:none;stroke:#F15A60;stroke-width:0.625" />
<path d="M716.21,424.17L716.21,424.17A3.125,3.125 0 1 1 709.96,424.17A3.125,3.125 0 1 1 716.21,424.17Z" style="fill:none;stroke:#F15A60;stroke-width:0.625" />
<path d="M723.17,444.22L723.17,444.22A3.125,3.125 0 1 1 716.92,444.22A3.125,3.125 0 1 1 723.17,444.22Z" style="fill:none;stroke:#F15A60;stroke-width:0.625" />
<path d="M730.13,432.41L730.13,432.41A3.125,3.125 0 1 1 723.88,432.41A3.125,3.125 0 1 1 730.13,432.41Z" style="fill:none;stroke:#F15A60;stroke-width:0.625" />
<path d="M737.09,444.38L737.09,444.38A3.125,3.125 0 1 1 730.84,444.38A3.125,3.125 0 1 1 737.09,444.38Z" style="fill:none;stroke:#F15A60;stroke-width:0.625" />
<path d="M744.05,430.57L744.05,430.57A3.125,3.125 0 1 1 737.8,430.57A3.125,3.125 0 1 1 744.05,430.57Z" style="fill:none;stroke:#F15A60;stroke-width:0.625" />
<path d="M751,421.69L751,421.69A3.125,3.125 0 1 1 744.75,421.69A3.125,3.125 0 1 1 751,421.69Z" style="fill:none;stroke:#F15A60;stroke-width:0.625" />
<path d="M757.96,435.06L757.96,435.06A3.125,3.125 0 1 1 751.71,435.06A3.125,3.125 0 1 1 757.96,435.06Z" style="fill:none;stroke:#F15A60;stroke-width:0.625" />
<path d="M764.92,440.44L764.92,440.44A3.125,3.125 0 1 1 758.67,440.44A3.125,3.125 0 1 1 764.92,440.44Z" style="fill:none;stroke:#F15A60;stroke-width:0.625" />
<path d="M771.88,444.79L771.88,444.79A3.125,3.125 0 1 1 765.63,444.79A3.125,3.125 0 1 1 771.88,444.79Z" style="fill:none;stroke:#F15A60;stroke-width:0.625" />
<path d="M778.84,435.29L778.84,435.29A3.125,3.125 0 1 1 772.59,435.29A3.125,3.125 0 1 1 778.84,435.29Z" style="fill:none;stroke:#F15A60;stroke-width:0.625" />
<path d="M785.8,424.96L785.8,424.96A3.125,3.125 0 1 1 779.55,424.96A3.125,3.125 0 1 1 785.8,424.96Z" style="fill:none;stroke:#F15A60;stroke-width:0.625" />
<path d="M792.76,434.32L792.76,434.32A3.125,3.125 0 1 1 786.51,434.32A3.125,3.125 0 1 1 792.76,434.32Z" style="fill:none;stroke:#F15A60;stroke-width:0.625" />
<path d="M799.72,416.33L799.72,416.33A3.125,3.125 0 1 1 793.47,416.33A3.125,3.125 0 1 1 799.72,416.33Z" style="fill:none;stroke:#F15A60;stroke-width:0.625" />
<path d="M806.68,405.76A3.125,3.125 0 1 1 800.43,405.76A3.125,3.125 0 1 1 806.68,405.76Z" style="fill:none;stroke:#F15A60;stroke-width:0.625" />
<path d="M813.64,401.02A3.125,3.125 0 1 1 807.39,401.02A3.125,3.125 0 1 1 813.64,401.02Z" style="fill:none;stroke:#F15A60;stroke-width:0.625" />
<path d="M820.6,414.57L820.6,414.57A3.125,3.125 0 1 1 814.35,414.57A3.125,3.125 0 1 1 820.6,414.57Z" style="fill:none;stroke:#F15A60;stroke-width:0.625" />
<path d="M827.56,392.22L827.56,392.22A3.125,3.125 0 1 1 821.31,392.22A3.125,3.125 0 1 1 827.56,392.22Z" style="fill:none;stroke:#F15A60;stroke-width:0.625" />
<path d="M834.52,397.68L834.52,397.68A3.125,3.125 0 1 1 828.27,397.68A3.125,3.125 0 1 1 834.52,397.68Z" style="fill:none;stroke:#F15A60;stroke-width:0.625" />
<path d="M841.48,390.78L841.48,390.78A3.125,3.125 0 1 1 835.23,390.78A3.125,3.125 0 1 1 841.48,390.78Z" style="fill:none;stroke:#F15A60;stroke-width:0.625" />
<path d="M848.44,384.41L848.44,384.41A3.125,3.125 0 1 1 842.19,384.41A3.125,3.125 0 1 1 848.44,384.41Z" style="fill:none;stroke:#F15A60;stroke-width:0.625" />
<path d="M855.4,400.48L855.4,400.48A3.125,3.125 0 1 1 849.15,400.48A3.125,3.125 0 1 1 855.4,400.48Z" style="fill:none;stroke:#F15A60;stroke-width:0.625" />
<path d="M862.36,405.57L862.36,405.57A3.125,3.125 0 1 1 856.11,405.57A3.125,3.125 0 1 1 862.36,405.57Z" style="fill:none;stroke:#F15A60;stroke-width:0.625" />
<path d="M869.32,379.27A3.125,3.125 0 1 1 863.07,379.27A3.125,3.125 0 1 1 869.32,379.27Z" style="fill:none;stroke:#F15A60;stroke-width:0.625" />
<path d="M876.28,385.15A3.125,3.125 0 1 1 870.03,385.15A3.125,3.125 0 1 1 876.28,385.15Z" style="fill:none;stroke:#F15A60;stroke-width:0.625" />
<path d="M883.24,414.77L883.24,414.77A3.125,3.125 0 1 1 876.99,414.77A3.125,3.125 0 1 1 883.24,414.77Z" style="fill:none;stroke:#F15A60;stroke-width:0.625" />
<path d="M890.2,417.39L890.2,417.39A3.125,3.125 0 1 1 883.95,417.39A3.125,3.125 0 1 1 890.2,417.39Z" style="fill:none;stroke:#F15A60;stroke-width:0.625" />
<path d="M897.16,423.5L897.16,423.5A3.125,3.125 0 1 1 890.91,423.5A3.125,3.125 0 1 1 897.16,423.5Z" style="fill:none;stroke:#F15A60;stroke-width:0.625" />
<path d="M904.11,421.79L904.11,421.79A3.125,3.125 0 1 1 897.86,421.79A3.125,3.125 0 1 1 904.11,421.79Z" style="fill:none;stroke:#F15A60;stroke-width:0.625" />
<path d="M911.07,411.82A3.125,3.125 0 1 1 904.82,411.82A3.125,3.125 0 1 1 911.07,411.82Z" style="fill:none;stroke:#F15A60;stroke-width:0.625" />
<path d="M918.03,440.36A3.125,3.125 0 1 1 911.78,440.36A3.125,3.125 0 1 1 918.03,440.36Z" style="fill:none;stroke:#F15A60;stroke-width:0.625" />
<path d="M924.99,431.4L924.99,431.4A3.125,3.125 0 1 1 918.74,431.4A3.125,3.125 0 1 1 924.99,431.4Z" style="fill:none;stroke:#F15A60;stroke-width:0.625" />
<path d="M931.95,452.31A3.125,3.125 0 1 1 925.7,452.31A3.125,3.125 0 1 1 931.95,452.31Z" style="fill:none;stroke:#F15A60;stroke-width:0.625" />
<path d="M938.91,465.76L938.91,465.76A3.125,3.125 0 1 1 932.66,465.76A3.125,3.125 0 1 1 938.91,465.76Z" style="fill:none;stroke:#F15A60;stroke-width:0.625" />
<path d="M945.87,450.1L945.87,450.1A3.125,3.125 0 1 1 939.62,450.1A3.125,3.125 0 1 1 945.87,450.1Z" style="fill:none;stroke:#F15A60;stroke-width:0.625" />
<path d="M952.83,445.55A3.125,3.125 0 1 1 946.58,445.55A3.125,3.125 0 1 1 952.83,445.55Z" style="fill:none;stroke:#F15A60;stroke-width:0.625" />
<path d="M959.79,462.05A3.125,3.125 0 1 1 953.54,462.05A3.125,3.125 0 1 1 959.79,462.05Z" style="fill:none;stroke:#F15A60;stroke-width:0.625" />
<path d="M966.75,479.03A3.125,3.125 0 1 1 960.5,479.03A3.125,3.125 0 1 1 966.75,479.03Z" style="fill:none;stroke:#F15A60;stroke-width:0.625" />
<path d="M973.71,472.67A3.125,3.125 0 1 1 967.46,472.67A3.125,3.125 0 1 1 973.71,472.67Z" style="fill:none;stroke:#F15A60;stroke-width:0.625" />
<path d="M980.67,462.03A3.125,3.125 0 1 1 974.42,462.03A3.125,3.125 0 1 1 980.67,462.03Z" style="fill:none;stroke:#F15A60;stroke-width:0.625" />
<path d="M987.63,475.32L987.63,475.32A3.125,3.125 0 1 1 981.38,475.32A3.125,3.125 0 1 1 987.63,475.32Z" style="fill:none;stroke:#F15A60;stroke-width:0.625" />
<path d="M994.59,477.83A3.125,3.125 0 1 1 988.34,477.83A3.125,3.125 0 1 1 994.59,477.83Z" style="fill:none;stroke:#F15A60;stroke-width:0.625" />
<path d="M1001.5,463.28L1001.5,463.28A3.125,3.125 0 1 1 995.3,463.28A3.125,3.125 0 1 1 1001.5,463.28Z" style="fill:none;stroke:#F15A60;stroke-width:0.625" />
<path d="M1008.5,459.48L1008.5,459.48A3.125,3.125 0 1 1 1002.3,459.48A3.125,3.125 0 1 1 1008.5,459.48Z" style="fill:none;stroke:#F15A60;stroke-width:0.625" />
<path d="M1015.5,445.31A3.125,3.125 0 1 1 1009.2,445.31A3.125,3.125 0 1 1 1015.5,445.31Z" style="fill:none;stroke:#F15A60;stroke-width:0.625" />
<path d="M1022.4,424.81L1022.4,424.81A3.125,3.125 0 1 1 1016.2,424.81A3.125,3.125 0 1 1 1022.4,424.81Z" style="fill:none;stroke:#F15A60;stroke-width:0.625" />
<path d="M1029.4,421.22A3.125,3.125 0 1 1 1023.1,421.22A3.125,3.125 0 1 1 1029.4,421.22Z" style="fill:none;stroke:#F15A60;stroke-width:0.625" />
<path d="M1036.3,415.46L1036.3,415.46A3.125,3.125 0 1 1 1030.1,415.46A3.125,3.125 0 1 1 1036.3,415.46Z" style="fill:none;stroke:#F15A60;stroke-width:0.625" />
<path d="M1043.3,422.1A3.125,3.125 0 1 1 1037.1,422.1A3.125,3.125 0 1 1 1043.3,422.1Z" style="fill:none;stroke:#F15A60;stroke-width:0.625" />
<path d="M1050.3,391.35A3.125,3.125 0 1 1 1044,391.35A3.125,3.125 0 1 1 1050.3,391.35Z" style="fill:none;stroke:#F15A60;stroke-width:0.625" />
<path d="M1057.2,401.66L1057.2,401.66A3.125,3.125 0 1 1 1051,401.66A3.125,3.125 0 1 1 1057.2,401.66Z" style="fill:none;stroke:#F15A60;stroke-width:0.625" />
<path d="M1064.2,387.6A3.125,3.125 0 1 1 1057.9,387.6A3.125,3.125 0 1 1 1064.2,387.6Z" style="fill:none;stroke:#F15A60;stroke-width:0.625" />
<path d="M1071.1,375.99A3.125,3.125 0 1 1 1064.9,375.99A3.125,3.125 0 1 1 1071.1,375.99Z" style="fill:none;stroke:#F15A60;stroke-width:0.625" />
<path d="M1078.1,360.07A3.125,3.125 0 1 1 1071.9,360.07A3.125,3.125 0 1 1 1078.1,360.07Z" style="fill:none;stroke:#F15A60;stroke-width:0.625" />
<path d="M1085.1,383.09L1085.1,383.09A3.125,3.125 0 1 1 1078.8,383.09A3.125,3.125 0 1 1 1085.1,383.09Z" style="fill:none;stroke:#F15A60;stroke-width:0.625" />
<path d="M1092,364.82A3.125,3.125 0 1 1 1085.8,364.82A3.125,3.125 0 1 1 1092,364.82Z" style="fill:none;stroke:#F15A60;stroke-width:0.625" />
<path d="M1099,369.13A3.125,3.125 0 1 1 1092.7,369.13A3.125,3.125 0 1 1 1099,369.13Z" style="fill:none;stroke:#F15A60;stroke-width:0.625" />
<path d="M1105.9,355.31A3.125,3.125 0 1 1 1099.7,355.31A3.125,3.125 0 1 1 1105.9,355.31Z" style="fill:none;stroke:#F15A60;stroke-width:0.625" />
<path d="M1112.9,358.55L1112.9,358.55A3.125,3.125 0 1 1 1106.7,358.55A3.125,3.125 0 1 1 1112.9,358.55Z" style="fill:none;stroke:#F15A60;stroke-width:0.625" />
<path d="M1119.9,380.48A3.125,3.125 0 1 1 1113.6,380.48A3.125,3.125 0 1 1 1119.9,380.48Z" style="fill:none;stroke:#F15A60;stroke-width:0.625" />
<path d="M1126.8,383.14L1126.8,383.14A3.125,3.125 0 1 1 1120.6,383.14A3.125,3.125 0 1 1 1126.8,383.14Z" style="fill:none;stroke:#F15A60;stroke-width:0.625" />
<path d="M1133.8,397.71A3.125,3.125 0 1 1 1127.5,397.71A3.125,3.125 0 1 1 1133.8,397.71Z" style="fill:none;stroke:#F15A60;stroke-width:0.625" />
<path d="M1140.7,394.79L1140.7,394.79A3.125,3.125 0 1 1 1134.5,394.79A3.125,3.125 0 1 1 1140.7,394.79Z" style="fill:none;stroke:#F15A60;stroke-width:0.625" />
<path d="M1147.7,391.64A3.125,3.125 0 1 1 1141.4,391.64A3.125,3.125 0 1 1 1147.7,391.64Z" style="fill:none;stroke:#F15A60;stroke-width:0.625" />
<path d="M1154.7,427.7A3.125,3.125 0 1 1 1148.4,427.7A3.125,3.125 0 1 1 1154.7,427.7Z" style="fill:none;stroke:#F15A60;stroke-width:0.625" />
<path d="M1161.6,423.42L1161.6,423.42A3.125,3.125 0 1 1 1155.4,423.42A3.125,3.125 0 1 1 1161.6,423.42Z" style="fill:none;stroke:#F15A60;stroke-width:0.625" />
<path d="M1168.6,429.98A3.125,3.125 0 1 1 1162.3,429.98A3.125,3.125 0 1 1 1168.6,429.98Z" style="fill:none;stroke:#F15A60;stroke-width:0.625" />
<path d="M1175.5,458.19A3.125,3.125 0 1 1 1169.3,458.19A3.125,3.125 0 1 1 1175.5,458.19Z" style="fill:none;stroke:#F15A60;stroke-width:0.625" />
<path d="M1182.5,451.29L1182.5,451.29A3.125,3.125 0 1 1 1176.2,451.29A3.125,3.125 0 1 1 1182.5,451.29Z" style="fill:none;stroke:#F15A60;stroke-width:0.625" />
<path d="M1189.5,470.92A3.125,3.125 0 1 1 1183.2,470.92A3.125,3.125 0 1 1 1189.5,470.92Z" style="fill:none;stroke:#F15A60;stroke-width:0.625" />
<path d="M1196.4,470.74A3.125,3.125 0 1 1 1190.2,470.74A3.125,3.125 0 1 1 1196.4,470.74Z" style="fill:none;stroke:#F15A60;stroke-width:0.625" />
<path d="M1203.4,470.27A3.125,3.125 0 1 1 1197.1,470.27A3.125,3.125 0 1 1 1203.4,470.27Z" style="fill:none;stroke:#F15A60;stroke-width:0.625" />
<path d="M1210.3,482.67L1210.3,482.67A3.125,3.125 0 1 1 1204.1,482.67A3.125,3.125 0 1 1 1210.3,482.67Z" style="fill:none;stroke:#F15A60;stroke-width:0.625" />
<path d="M1217.3,490.6A3.125,3.125 0 1 1 1211,490.6A3.125,3.125 0 1 1 1217.3,490.6Z" style="fill:none;stroke:#F15A60;stroke-width:0.625" />
<path d="M1224.3,500.96A3.125,3.125 0 1 1 1218,500.96A3.125,3.125 0 1 1 1224.3,500.96Z" style="fill:none;stroke:#F15A60;stroke-width:0.625" />
<path d="M1231.2,479.22L1231.2,479.22A3.125,3.125 0 1 1 1225,479.22A3.125,3.125 0 1 1 1231.2,479.22Z" style="fill:none;stroke:#F15A60;stroke-width:0.625" />
<path d="M1238.2,489.04A3.125,3.125 0 1 1 1231.9,489.04A3.125,3.125 0 1 1 1238.2,489.04Z" style="fill:none;stroke:#F15A60;stroke-width:0.625" />
<path d="M1245.1,472.97A3.125,3.125 0 1 1 1238.9,472.97A3.125,3.125 0 1 1 1245.1,472.97Z" style="fill:none;stroke:#F15A60;stroke-width:0.625" />
<path d="M1252.1,488.35A3.125,3.125 0 1 1 1245.8,488.35A3.125,3.125 0 1 1 1252.1,488.35Z" style="fill:none;stroke:#F15A60;stroke-width:0.625" />
<path d="M1259.1,471.09A3.125,3.125 0 1 1 1252.8,471.09A3.125,3.125 0 1 1 1259.1,471.09Z" style="fill:none;stroke:#F15A60;stroke-width:0.625" />
<path d="M1266,462.42A3.125,3.125 0 1 1 1259.8,462.42A3.125,3.125 0 1 1 1266,462.42Z" style="fill:none;stroke:#F15A60;stroke-width:0.625" />
<path d="M1273,453.68A3.125,3.125 0 1 1 1266.7,453.68A3.125,3.125 0 1 1 1273,453.68Z" style="fill:none;stroke:#F15A60;stroke-width:0.625" />
<path d="M1279.9,430.96A3.125,3.125 0 1 1 1273.7,430.96A3.125,3.125 0 1 1 1279.9,430.96Z" style="fill:none;stroke:#F15A60;stroke-width:0.625" />
<path d="M1286.9,429.51L1286.9,429.51A3.125,3.125 0 1 1 1280.6,429.51A3.125,3.125 0 1 1 1286.9,429.51Z" style="fill:none;stroke:#F15A60;stroke-width:0.625" />
<path d="M1293.8,384.94L1293.8,384.94A3.125,3.125 0 1 1 1287.6,384.94A3.125,3.125 0 1 1 1293.8,384.94Z" style="fill:none;stroke:#F15A60;stroke-width:0.625" />
<path d="M1300.8,404.97A3.125,3.125 0 1 1 1294.6,404.97A3.125,3.125 0 1 1 1300.8,404.97Z" style="fill:none;stroke:#F15A60;stroke-width:0.625" />
<path d="M1307.8,370.23L1307.8,370.23A3.125,3.125 0 1 1 1301.5,370.23A3.125,3.125 0 1 1 1307.8,370.23Z" style="fill:none;stroke:#F15A60;stroke-width:0.625" />
<path d="M1314.7,358.55A3.125,3.125 0 1 1 1308.5,358.55A3.125,3.125 0 1 1 1314.7,358.55Z" style="fill:none;stroke:#F15A60;stroke-width:0.625" />
<path d="M1321.7,373.35L1321.7,373.35A3.125,3.125 0 1 1 1315.4,373.35A3.125,3.125 0 1 1 1321.7,373.35Z" style="fill:none;stroke:#F15A60;stroke-width:0.625" />
<path d="M1328.6,361.5A3.125,3.125 0 1 1 1322.4,361.5A3.125,3.125 0 1 1 1328.6,361.5Z" style="fill:none;stroke:#F15A60;stroke-width:0.625" />
<path d="M1335.6,341.58L1335.6,341.58A3.125,3.125 0 1 1 1329.4,341.58A3.125,3.125 0 1 1 1335.6,341.58Z" style="fill:none;stroke:#F15A60;stroke-width:0.625" />
<path d="M1342.6,343.42A3.125,3.125 0 1 1 1336.3,343.42A3.125,3.125 0 1 1 1342.6,343.42Z" style="fill:none;stroke:#F15A60;stroke-width:0.625" />
<path d="M1349.5,357.35L1349.5,357.35A3.125,3.125 0 1 1 1343.3,357.35A3.125,3.125 0 1 1 1349.5,357.35Z" style="fill:none;stroke:#F15A60;stroke-width:0.625" />
<path d="M1356.5,342.11L1356.5,342.11A3.125,3.125 0 1 1 1350.2,342.11A3.125,3.125 0 1 1 1356.5,342.11Z" style="fill:none;stroke:#F15A60;stroke-width:0.625" />
<path d="M1363.4,355.01L1363.4,355.01A3.125,3.125 0 1 1 1357.2,355.01A3.125,3.125 0 1 1 1363.4,355.01Z" style="fill:none;stroke:#F15A60;stroke-width:0.625" />
<path d="M1370.4,377.21A3.125,3.125 0 1 1 1364.2,377.21A3.125,3.125 0 1 1 1370.4,377.21Z" style="fill:none;stroke:#F15A60;stroke-width:0.625" />
<path d="M1377.4,395.65A3.125,3.125 0 1 1 1371.1,395.65A3.125,3.125 0 1 1 1377.4,395.65Z" style="fill:none;stroke:#F15A60;stroke-width:0.625" />
<path d="M1384.3,397.52A3.125,3.125 0 1 1 1378.1,397.52A3.125,3.125 0 1 1 1384.3,397.52Z" style="fill:none;stroke:#F15A60;stroke-width:0.625" />
<path d="M1391.3,416.48L1391.3,416.48A3.125,3.125 0 1 1 1385,416.48A3.125,3.125 0 1 1 1391.3,416.48Z" style="fill:none;stroke:#F15A60;stroke-width:0.625" />
<path d="M1398.2,410.4A3.125,3.125 0 1 1 1392,410.4A3.125,3.125 0 1 1 1398.2,410.4Z" style="fill:none;stroke:#F15A60;stroke-width:0.625" />
<path d="M1405.2,415.83L1405.2,415.83A3.125,3.125 0 1 1 1399,415.83A3.125,3.125 0 1 1 1405.2,415.83Z" style="fill:none;stroke:#F15A60;stroke-width:0.625" />
<path d="M1412.2,425.31A3.125,3.125 0 1 1 1405.9,425.31A3.125,3.125 0 1 1 1412.2,425.31Z" style="fill:none;stroke:#F15A60;stroke-width:0.625" />
<path d="M1419.1,438.69L1419.1,438.69A3.125,3.125 0 1 1 1412.9,438.69A3.125,3.125 0 1 1 1419.1,438.69Z" style="fill:none;stroke:#F15A60;stroke-width:0.625" />
<path d="M1426.1,445.54A3.125,3.125 0 1 1 1419.8,445.54A3.125,3.125 0 1 1 1426.1,445.54Z" style="fill:none;stroke:#F15A60;stroke-width:0.625" />
<path d="M1433,474.69L1433,474.69A3.125,3.125 0 1 1 1426.8,474.69A3.125,3.125 0 1 1 1433,474.69Z" style="fill:none;stroke:#F15A60;stroke-width:0.625" />
<path d="M1440,475.16A3.125,3.125 0 1 1 1433.8,475.16A3.125,3.125 0 1 1 1440,475.16Z" style="fill:none;stroke:#F15A60;stroke-width:0.625" />
<path d="M51.925,416.63L58.885,430.07L65.844,441.51L72.804,450.67L79.763,470.44L86.723,482L93.682,500.39L100.64,502.76L107.6,509.9L114.56,513.57L121.52,514.64L128.48,511.41L135.44,510.8L142.4,505.09L149.36,497.6L156.32,489.04L163.28,481.46L170.24,468.52L177.2,454.27L184.16,434.7L191.12,416.26L198.08,397.29L205.04,369.91L211.99,330.99L218.95,406.18L225.91,403.9L232.87,397.83L239.83,370.36L246.79,371.04L253.75,372.81L260.71,375.04L267.67,373.23L274.63,378.48L281.59,383.31L288.55,390.63L295.51,399.85L302.47,405.17L309.43,412.28L316.39,440.47L323.35,432.24L330.31,431.78L337.27,433.55L344.23,446.7L351.19,467.13L358.15,462.75L365.1,460L372.06,461.17L379.02,467.87L385.98,457.4L392.94,451.47L399.9,445.31L406.86,438.96L413.82,426.77L420.78,417.32L427.74,412.76L434.7,405.02L441.66,396.69L448.62,391.07L455.58,388.69L462.54,385.24L469.5,390.54L476.46,385.47L483.42,383.4L490.38,386.19L497.34,392.97L504.3,391.74L511.26,391.31L518.21,395.11L525.17,412.69L532.13,419.19L539.09,425.74L546.05,442.11L553.01,429.73L559.97,431.48L566.93,434.58L573.89,448.5L580.85,466.1L587.81,466.73L594.77,467.33L601.73,468.06L608.69,481.64L615.65,481.53L622.61,478.31L629.57,474.3L636.53,477.66L643.49,466.09L650.45,454.29L657.41,443.56L664.37,434.18L671.32,434.55L678.28,438.73L685.24,440.8L692.2,449.67L699.16,449.26L706.12,446.77L713.08,446.35L720.04,450.71L727,452.13L733.96,457.37L740.92,459.72L747.88,455.2L754.84,455.87L761.8,456.7L768.76,463.89L775.72,465.49L782.68,461.99L789.64,459.68L796.6,452.34L803.56,441.02L810.52,427.74L817.48,420.21L824.43,404.29L831.39,389.87L838.35,356.48L845.31,344.79L852.27,343.91L859.23,346.85L866.19,327.4L873.15,325.66L880.11,336.08L887.07,359.55L894.03,385.7L900.99,407.52L907.95,420.09L914.91,134.71L921.87,110.84L928.83,123.34L935.79,166.38L942.75,85.492L949.71,80.304L956.67,129.22L963.63,247.84L970.59,180.65L977.54,155.86L984.5,212.66L991.46,142L998.42,128.37L1005.4,117.53L1012.3,182.9L1019.3,217.41L1026.3,254.86L1033.2,294.29L1040.2,362.37L1047.1,423.47L1054.1,463.15L1061.1,514.69L1068,583.6L1075,609.26L1081.9,644.78L1088.9,684.79L1095.9,714.6L1102.8,711.36L1109.8,760.97L1116.7,750.29L1123.7,732.42L1130.7,680.28L1137.6,636.54L1144.6,600.21L1151.5,498.45L1158.5,418.11L1165.5,312.94L1172.4,162.48L1179.4,270.13L1186.3,289.73L1193.3,222.49L1200.3,149.28L1207.2,49.313L1214.2,447.12L1221.1,427.32L1228.1,388.55L1235,313.84L1242,339.16L1249,362.35L1255.9,372.11L1262.9,365.11L1269.8,736.71L1276.8,806.88L1283.8,805.35L1290.7,786.2L1297.7,742.37L1304.6,606.17L1311.6,552.7L1318.6,507.39L1325.5,238.23L1332.5,464.11L1339.4,465.24L1346.4,472.82L1353.4,374.94L1360.3,374.58L1367.3,370.55L1374.2,368.4L1381.2,364.84L1388.2,369.54L1395.1,336.12L1402.1,325.99L1409,337.79L1416,402.38L1423,230.41L1429.9,131.18L1436.9,213.44" style="fill:none;stroke:#7AC36A;stroke-width:1.25;stroke-dasharray:7.5,2.5" />
<path d="M49.258,413.96L54.592,413.96L54.592,419.3L49.258,419.3Z" style="fill:none;stroke:#7AC36A;stroke-width:0.625" />
<path d="M56.217,427.4L61.552,427.4L61.552,432.74L56.217,432.74Z" style="fill:none;stroke:#7AC36A;stroke-width:0.625" />
<path d="M63.177,438.85L68.511,438.85L68.511,444.18L63.177,444.18Z" style="fill:none;stroke:#7AC36A;stroke-width:0.625" />
<path d="M70.136,448.01L75.471,448.01L75.471,453.34L70.136,453.34Z" style="fill:none;stroke:#7AC36A;stroke-width:0.625" />
<path d="M77.096,467.78L82.431,467.78L82.431,473.11L77.096,473.11Z" style="fill:none;stroke:#7AC36A;stroke-width:0.625" />
<path d="M84.055,479.33L89.39,479.33L89.39,484.66L84.055,484.66Z" style="fill:none;stroke:#7AC36A;stroke-width:0.625" />
<path d="M91.015,497.72L96.35,497.72L96.35,503.06L91.015,503.06Z" style="fill:none;stroke:#7AC36A;stroke-width:0.625" />
<path d="M97.974,500.09L103.31,500.09L103.31,505.43L97.974,505.43Z" style="fill:none;stroke:#7AC36A;stroke-width:0.625" />
<path d="M104.93,507.24L110.27,507.24L110.27,512.57L104.93,512.57Z" style="fill:none;stroke:#7AC36A;stroke-width:0.625" />
<path d="M111.89,510.9L117.23,510.9L117.23,516.24L111.89,516.24Z" style="fill:none;stroke:#7AC36A;stroke-width:0.625" />
<path d="M118.85,511.97L124.19,511.97L124.19,517.3L118.85,517.3Z" style="fill:none;stroke:#7AC36A;stroke-width:0.625" />
<path d="M125.81,508.74L131.15,508.74L131.15,514.07L125.81,514.07Z" style="fill:none;stroke:#7AC36A;stroke-width:0.625" />
<path d="M132.77,508.13L138.11,508.13L138.11,513.46L132.77,513.46Z" style="fill:none;stroke:#7AC36A;stroke-width:0.625" />
<path d="M139.73,502.43L145.07,502.43L145.07,507.76L139.73,507.76Z" style="fill:none;stroke:#7AC36A;stroke-width:0.625" />
<path d="M146.69,494.93L152.03,494.93L152.03,500.26L146.69,500.26Z" style="fill:none;stroke:#7AC36A;stroke-width:0.625" />
<path d="M153.65,486.37L158.99,486.37L158.99,491.71L153.65,491.71Z" style="fill:none;stroke:#7AC36A;stroke-width:0.625" />
<path d="M160.61,478.79L165.95,478.79L165.95,484.13L160.61,484.13Z" style="fill:none;stroke:#7AC36A;stroke-width:0.625" />
<path d="M167.57,465.85L172.9,465.85L172.9,471.19L167.57,471.19Z" style="fill:none;stroke:#7AC36A;stroke-width:0.625" />
<path d="M174.53,451.6L179.86,451.6L179.86,456.94L174.53,456.94Z" style="fill:none;stroke:#7AC36A;stroke-width:0.625" />
<path d="M181.49,432.03L186.82,432.03L186.82,437.37L181.49,437.37Z" style="fill:none;stroke:#7AC36A;stroke-width:0.625" />
<path d="M188.45,413.59L193.78,413.59L193.78,418.93L188.45,418.93Z" style="fill:none;stroke:#7AC36A;stroke-width:0.625" />
<path d="M195.41,394.62L200.74,394.62L200.74,399.96L195.41,399.96Z" style="fill:none;stroke:#7AC36A;stroke-width:0.625" />
<path d="M202.37,367.25L207.7,367.25L207.7,372.58L202.37,372.58Z" style="fill:none;stroke:#7AC36A;stroke-width:0.625" />
<path d="M209.33,328.33L214.66,328.33L214.66,333.66L209.33,333.66Z" style="fill:none;stroke:#7AC36A;stroke-width:0.625" />
<path d="M216.29,403.51L221.62,403.51L221.62,408.85L216.29,408.85Z" style="fill:none;stroke:#7AC36A;stroke-width:0.625" />
<path d="M223.25,401.23L228.58,401.23L228.58,406.57L223.25,406.57Z" style="fill:none;stroke:#7AC36A;stroke-width:0.625" />
<path d="M230.21,395.17L235.54,395.17L235.54,400.5L230.21,400.5Z" style="fill:none;stroke:#7AC36A;stroke-width:0.625" />
<path d="M237.17,367.69L242.5,367.69L242.5,373.03L237.17,373.03Z" style="fill:none;stroke:#7AC36A;stroke-width:0.625" />
<path d="M244.12,368.37L249.46,368.37L249.46,373.71L244.12,373.71Z" style="fill:none;stroke:#7AC36A;stroke-width:0.625" />
<path d="M251.08,370.14L256.42,370.14L256.42,375.47L251.08,375.47Z" style="fill:none;stroke:#7AC36A;stroke-width:0.625" />
<path d="M258.04,372.37L263.38,372.37L263.38,377.71L258.04,377.71Z" style="fill:none;stroke:#7AC36A;stroke-width:0.625" />
<path d="M265,370.56L270.34,370.56L270.34,375.9L265,375.9Z" style="fill:none;stroke:#7AC36A;stroke-width:0.625" />
<path d="M271.96,375.81L277.3,375.81L277.3,381.14L271.96,381.14Z" style="fill:none;stroke:#7AC36A;stroke-width:0.625" />
<path d="M278.92,380.64L284.26,380.64L284.26,385.98L278.92,385.98Z" style="fill:none;stroke:#7AC36A;stroke-width:0.625" />
<path d="M285.88,387.97L291.22,387.97L291.22,393.3L285.88,393.3Z" style="fill:none;stroke:#7AC36A;stroke-width:0.625" />
<path d="M292.84,397.19L298.18,397.19L298.18,402.52L292.84,402.52Z" style="fill:none;stroke:#7AC36A;stroke-width:0.625" />
<path d="M299.8,402.5L305.14,402.5L305.14,407.83L299.8,407.83Z" style="fill:none;stroke:#7AC36A;stroke-width:0.625" />
<path d="M306.76,409.62L312.1,409.62L312.1,414.95L306.76,414.95Z" style="fill:none;stroke:#7AC36A;stroke-width:0.625" />
<path d="M313.72,437.8L319.06,437.8L319.06,443.14L313.72,443.14Z" style="fill:none;stroke:#7AC36A;stroke-width:0.625" />
<path d="M320.68,429.57L326.01,429.57L326.01,434.91L320.68,434.91Z" style="fill:none;stroke:#7AC36A;stroke-width:0.625" />
<path d="M327.64,429.11L332.97,429.11L332.97,434.45L327.64,434.45Z" style="fill:none;stroke:#7AC36A;stroke-width:0.625" />
<path d="M334.6,430.88L339.93,430.88L339.93,436.22L334.6,436.22Z" style="fill:none;stroke:#7AC36A;stroke-width:0.625" />
<path d="M341.56,444.03L346.89,444.03L346.89,449.37L341.56,449.37Z" style="fill:none;stroke:#7AC36A;stroke-width:0.625" />
<path d="M348.52,464.46L353.85,464.46L353.85,469.8L348.52,469.8Z" style="fill:none;stroke:#7AC36A;stroke-width:0.625" />
<path d="M355.48,460.09L360.81,460.09L360.81,465.42L355.48,465.42Z" style="fill:none;stroke:#7AC36A;stroke-width:0.625" />
<path d="M362.44,457.33L367.77,457.33L367.77,462.67L362.44,462.67Z" style="fill:none;stroke:#7AC36A;stroke-width:0.625" />
<path d="M369.4,458.51L374.73,458.51L374.73,463.84L369.4,463.84Z" style="fill:none;stroke:#7AC36A;stroke-width:0.625" />
<path d="M376.36,465.2L381.69,465.2L381.69,470.54L376.36,470.54Z" style="fill:none;stroke:#7AC36A;stroke-width:0.625" />
<path d="M383.32,454.73L388.65,454.73L388.65,460.07L383.32,460.07Z" style="fill:none;stroke:#7AC36A;stroke-width:0.625" />
<path d="M390.28,448.8L395.61,448.8L395.61,454.14L390.28,454.14Z" style="fill:none;stroke:#7AC36A;stroke-width:0.625" />
<path d="M397.24,442.65L402.57,442.65L402.57,447.98L397.24,447.98Z" style="fill:none;stroke:#7AC36A;stroke-width:0.625" />
<path d="M404.19,436.29L409.53,436.29L409.53,441.63L404.19,441.63Z" style="fill:none;stroke:#7AC36A;stroke-width:0.625" />
<path d="M411.15,424.1L416.49,424.1L416.49,429.43L411.15,429.43Z" style="fill:none;stroke:#7AC36A;stroke-width:0.625" />
<path d="M418.11,414.65L423.45,414.65L423.45,419.98L418.11,419.98Z" style="fill:none;stroke:#7AC36A;stroke-width:0.625" />
<path d="M425.07,410.09L430.41,410.09L430.41,415.43L425.07,415.43Z" style="fill:none;stroke:#7AC36A;stroke-width:0.625" />
<path d="M432.03,402.35L437.37,402.35L437.37,407.69L432.03,407.69Z" style="fill:none;stroke:#7AC36A;stroke-width:0.625" />
<path d="M438.99,394.02L444.33,394.02L444.33,399.35L438.99,399.35Z" style="fill:none;stroke:#7AC36A;stroke-width:0.625" />
<path d="M445.95,388.4L451.29,388.4L451.29,393.74L445.95,393.74Z" style="fill:none;stroke:#7AC36A;stroke-width:0.625" />
<path d="M452.91,386.02L458.25,386.02L458.25,391.36L452.91,391.36Z" style="fill:none;stroke:#7AC36A;stroke-width:0.625" />
<path d="M459.87,382.57L465.21,382.57L465.21,387.9L459.87,387.9Z" style="fill:none;stroke:#7AC36A;stroke-width:0.625" />
<path d="M466.83,387.88L472.17,387.88L472.17,393.21L466.83,393.21Z" style="fill:none;stroke:#7AC36A;stroke-width:0.625" />
<path d="M473.79,382.8L479.12,382.8L479.12,388.14L473.79,388.14Z" style="fill:none;stroke:#7AC36A;stroke-width:0.625" />
<path d="M480.75,380.73L486.08,380.73L486.08,386.07L480.75,386.07Z" style="fill:none;stroke:#7AC36A;stroke-width:0.625" />
<path d="M487.71,383.53L493.04,383.53L493.04,388.86L487.71,388.86Z" style="fill:none;stroke:#7AC36A;stroke-width:0.625" />
<path d="M494.67,390.31L500,390.31L500,395.64L494.67,395.64Z" style="fill:none;stroke:#7AC36A;stroke-width:0.625" />
<path d="M501.63,389.07L506.96,389.07L506.96,394.4L501.63,394.4Z" style="fill:none;stroke:#7AC36A;stroke-width:0.625" />
<path d="M508.59,388.64L513.92,388.64L513.92,393.97L508.59,393.97Z" style="fill:none;stroke:#7AC36A;stroke-width:0.625" />
<path d="M515.55,392.44L520.88,392.44L520.88,397.78L515.55,397.78Z" style="fill:none;stroke:#7AC36A;stroke-width:0.625" />
<path d="M522.51,410.02L527.84,410.02L527.84,415.36L522.51,415.36Z" style="fill:none;stroke:#7AC36A;stroke-width:0.625" />
<path d="M529.47,416.52L534.8,416.52L534.8,421.86L529.47,421.86Z" style="fill:none;stroke:#7AC36A;stroke-width:0.625" />
<path d="M536.43,423.07L541.76,423.07L541.76,428.4L536.43,428.4Z" style="fill:none;stroke:#7AC36A;stroke-width:0.625" />
<path d="M543.39,439.45L548.72,439.45L548.72,444.78L543.39,444.78Z" style="fill:none;stroke:#7AC36A;stroke-width:0.625" />
<path d="M550.35,427.06L555.68,427.06L555.68,432.4L550.35,432.4Z" style="fill:none;stroke:#7AC36A;stroke-width:0.625" />
<path d="M557.3,428.82L562.64,428.82L562.64,434.15L557.3,434.15Z" style="fill:none;stroke:#7AC36A;stroke-width:0.625" />
<path d="M564.26,431.91L569.6,431.91L569.6,437.25L564.26,437.25Z" style="fill:none;stroke:#7AC36A;stroke-width:0.625" />
<path d="M571.22,445.83L576.56,445.83L576.56,451.17L571.22,451.17Z" style="fill:none;stroke:#7AC36A;stroke-width:0.625" />
<path d="M578.18,463.44L583.52,463.44L583.52,468.77L578.18,468.77Z" style="fill:none;stroke:#7AC36A;stroke-width:0.625" />
<path d="M585.14,464.07L590.48,464.07L590.48,469.4L585.14,469.4Z" style="fill:none;stroke:#7AC36A;stroke-width:0.625" />
<path d="M592.1,464.67L597.44,464.67L597.44,470L592.1,470Z" style="fill:none;stroke:#7AC36A;stroke-width:0.625" />
<path d="M599.06,465.4L604.4,465.4L604.4,470.73L599.06,470.73Z" style="fill:none;stroke:#7AC36A;stroke-width:0.625" />
<path d="M606.02,478.98L611.36,478.98L611.36,484.31L606.02,484.31Z" style="fill:none;stroke:#7AC36A;stroke-width:0.625" />
<path d="M612.98,478.86L618.32,478.86L618.32,484.2L612.98,484.2Z" style="fill:none;stroke:#7AC36A;stroke-width:0.625" />
<path d="M619.94,475.65L625.28,475.65L625.28,480.98L619.94,480.98Z" style="fill:none;stroke:#7AC36A;stroke-width:0.625" />
<path d="M626.9,471.64L632.23,471.64L632.23,476.97L626.9,476.97Z" style="fill:none;stroke:#7AC36A;stroke-width:0.625" />
<path d="M633.86,474.99L639.19,474.99L639.19,480.33L633.86,480.33Z" style="fill:none;stroke:#7AC36A;stroke-width:0.625" />
<path d="M640.82,463.42L646.15,463.42L646.15,468.76L640.82,468.76Z" style="fill:none;stroke:#7AC36A;stroke-width:0.625" />
<path d="M647.78,451.62L653.11,451.62L653.11,456.95L647.78,456.95Z" style="fill:none;stroke:#7AC36A;stroke-width:0.625" />
<path d="M654.74,440.89L660.07,440.89L660.07,446.22L654.74,446.22Z" style="fill:none;stroke:#7AC36A;stroke-width:0.625" />
<path d="M661.7,431.52L667.03,431.52L667.03,436.85L661.7,436.85Z" style="fill:none;stroke:#7AC36A;stroke-width:0.625" />
<path d="M668.66,431.88L673.99,431.88L673.99,437.22L668.66,437.22Z" style="fill:none;stroke:#7AC36A;stroke-width:0.625" />
<path d="M675.62,436.06L680.95,436.06L680.95,441.4L675.62,441.4Z" style="fill:none;stroke:#7AC36A;stroke-width:0.625" />
<path d="M682.58,438.13L687.91,438.13L687.91,443.47L682.58,443.47Z" style="fill:none;stroke:#7AC36A;stroke-width:0.625" />
<path d="M689.54,447L694.87,447L694.87,452.33L689.54,452.33Z" style="fill:none;stroke:#7AC36A;stroke-width:0.625" />
<path d="M696.5,446.59L701.83,446.59L701.83,451.93L696.5,451.93Z" style="fill:none;stroke:#7AC36A;stroke-width:0.625" />
<path d="M703.46,444.11L708.79,444.11L708.79,449.44L703.46,449.44Z" style="fill:none;stroke:#7AC36A;stroke-width:0.625" />
<path d="M710.41,443.68L715.75,443.68L715.75,449.01L710.41,449.01Z" style="fill:none;stroke:#7AC36A;stroke-width:0.625" />
<path d="M717.37,448.04L722.71,448.04L722.71,453.38L717.37,453.38Z" style="fill:none;stroke:#7AC36A;stroke-width:0.625" />
<path d="M724.33,449.46L729.67,449.46L729.67,454.8L724.33,454.8Z" style="fill:none;stroke:#7AC36A;stroke-width:0.625" />
<path d="M731.29,454.7L736.63,454.7L736.63,460.04L731.29,460.04Z" style="fill:none;stroke:#7AC36A;stroke-width:0.625" />
<path d="M738.25,457.05L743.59,457.05L743.59,462.38L738.25,462.38Z" style="fill:none;stroke:#7AC36A;stroke-width:0.625" />
<path d="M745.21,452.54L750.55,452.54L750.55,457.87L745.21,457.87Z" style="fill:none;stroke:#7AC36A;stroke-width:0.625" />
<path d="M752.17,453.2L757.51,453.2L757.51,458.54L752.17,458.54Z" style="fill:none;stroke:#7AC36A;stroke-width:0.625" />
<path d="M759.13,454.03L764.47,454.03L764.47,459.37L759.13,459.37Z" style="fill:none;stroke:#7AC36A;stroke-width:0.625" />
<path d="M766.09,461.23L771.43,461.23L771.43,466.56L766.09,466.56Z" style="fill:none;stroke:#7AC36A;stroke-width:0.625" />
<path d="M773.05,462.82L778.39,462.82L778.39,468.16L773.05,468.16Z" style="fill:none;stroke:#7AC36A;stroke-width:0.625" />
<path d="M780.01,459.32L785.34,459.32L785.34,464.66L780.01,464.66Z" style="fill:none;stroke:#7AC36A;stroke-width:0.625" />
<path d="M786.97,457.01L792.3,457.01L792.3,462.35L786.97,462.35Z" style="fill:none;stroke:#7AC36A;stroke-width:0.625" />
<path d="M793.93,449.67L799.26,449.67L799.26,455L793.93,455Z" style="fill:none;stroke:#7AC36A;stroke-width:0.625" />
<path d="M800.89,438.35L806.22,438.35L806.22,443.69L800.89,443.69Z" style="fill:none;stroke:#7AC36A;stroke-width:0.625" />
<path d="M807.85,425.07L813.18,425.07L813.18,430.4L807.85,430.4Z" style="fill:none;stroke:#7AC36A;stroke-width:0.625" />
<path d="M814.81,417.54L820.14,417.54L820.14,422.87L814.81,422.87Z" style="fill:none;stroke:#7AC36A;stroke-width:0.625" />
<path d="M821.77,401.63L827.1,401.63L827.1,406.96L821.77,406.96Z" style="fill:none;stroke:#7AC36A;stroke-width:0.625" />
<path d="M828.73,387.2L834.06,387.2L834.06,392.54L828.73,392.54Z" style="fill:none;stroke:#7AC36A;stroke-width:0.625" />
<path d="M835.69,353.82L841.02,353.82L841.02,359.15L835.69,359.15Z" style="fill:none;stroke:#7AC36A;stroke-width:0.625" />
<path d="M842.65,342.13L847.98,342.13L847.98,347.46L842.65,347.46Z" style="fill:none;stroke:#7AC36A;stroke-width:0.625" />
<path d="M849.61,341.24L854.94,341.24L854.94,346.57L849.61,346.57Z" style="fill:none;stroke:#7AC36A;stroke-width:0.625" />
<path d="M856.57,344.19L861.9,344.19L861.9,349.52L856.57,349.52Z" style="fill:none;stroke:#7AC36A;stroke-width:0.625" />
<path d="M863.52,324.74L868.86,324.74L868.86,330.07L863.52,330.07Z" style="fill:none;stroke:#7AC36A;stroke-width:0.625" />
<path d="M870.48,322.99L875.82,322.99L875.82,328.33L870.48,328.33Z" style="fill:none;stroke:#7AC36A;stroke-width:0.625" />
<path d="M877.44,333.41L882.78,333.41L882.78,338.75L877.44,338.75Z" style="fill:none;stroke:#7AC36A;stroke-width:0.625" />
<path d="M884.4,356.88L889.74,356.88L889.74,362.22L884.4,362.22Z" style="fill:none;stroke:#7AC36A;stroke-width:0.625" />
<path d="M891.36,383.04L896.7,383.04L896.7,388.37L891.36,388.37Z" style="fill:none;stroke:#7AC36A;stroke-width:0.625" />
<path d="M898.32,404.85L903.66,404.85L903.66,410.19L898.32,410.19Z" style="fill:none;stroke:#7AC36A;stroke-width:0.625" />
<path d="M905.28,417.43L910.62,417.43L910.62,422.76L905.28,422.76Z" style="fill:none;stroke:#7AC36A;stroke-width:0.625" />
<path d="M912.24,132.04L917.58,132.04L917.58,137.38L912.24,137.38Z" style="fill:none;stroke:#7AC36A;stroke-width:0.625" />
<path d="M919.2,108.18L924.54,108.18L924.54,113.51L919.2,113.51Z" style="fill:none;stroke:#7AC36A;stroke-width:0.625" />
<path d="M926.16,120.67L931.5,120.67L931.5,126.01L926.16,126.01Z" style="fill:none;stroke:#7AC36A;stroke-width:0.625" />
<path d="M933.12,163.72L938.45,163.72L938.45,169.05L933.12,169.05Z" style="fill:none;stroke:#7AC36A;stroke-width:0.625" />
<path d="M940.08,82.824L945.41,82.824L945.41,88.159L940.08,88.159Z" style="fill:none;stroke:#7AC36A;stroke-width:0.625" />
<path d="M947.04,77.636L952.37,77.636L952.37,82.971L947.04,82.971Z" style="fill:none;stroke:#7AC36A;stroke-width:0.625" />
<path d="M954,126.56L959.33,126.56L959.33,131.89L954,131.89Z" style="fill:none;stroke:#7AC36A;stroke-width:0.625" />
<path d="M960.96,245.17L966.29,245.17L966.29,250.5L960.96,250.5Z" style="fill:none;stroke:#7AC36A;stroke-width:0.625" />
<path d="M967.92,177.98L973.25,177.98L973.25,183.32L967.92,183.32Z" style="fill:none;stroke:#7AC36A;stroke-width:0.625" />
<path d="M974.88,153.19L980.21,153.19L980.21,158.53L974.88,158.53Z" style="fill:none;stroke:#7AC36A;stroke-width:0.625" />
<path d="M981.84,209.99L987.17,209.99L987.17,215.33L981.84,215.33Z" style="fill:none;stroke:#7AC36A;stroke-width:0.625" />
<path d="M988.8,139.33L994.13,139.33L994.13,144.66L988.8,144.66Z" style="fill:none;stroke:#7AC36A;stroke-width:0.625" />
<path d="M995.76,125.7L1001.1,125.7L1001.1,131.04L995.76,131.04Z" style="fill:none;stroke:#7AC36A;stroke-width:0.625" />
<path d="M1002.7,114.86L1008.1,114.86L1008.1,120.2L1002.7,120.2Z" style="fill:none;stroke:#7AC36A;stroke-width:0.625" />
<path d="M1009.7,180.24L1015,180.24L1015,185.57L1009.7,185.57Z" style="fill:none;stroke:#7AC36A;stroke-width:0.625" />
<path d="M1016.6,214.75L1022,214.75L1022,220.08L1016.6,220.08Z" style="fill:none;stroke:#7AC36A;stroke-width:0.625" />
<path d="M1023.6,252.19L1028.9,252.19L1028.9,257.53L1023.6,257.53Z" style="fill:none;stroke:#7AC36A;stroke-width:0.625" />
<path d="M1030.6,291.62L1035.9,291.62L1035.9,296.96L1030.6,296.96Z" style="fill:none;stroke:#7AC36A;stroke-width:0.625" />
<path d="M1037.5,359.7L1042.8,359.7L1042.8,365.03L1037.5,365.03Z" style="fill:none;stroke:#7AC36A;stroke-width:0.625" />
<path d="M1044.5,420.8L1049.8,420.8L1049.8,426.14L1044.5,426.14Z" style="fill:none;stroke:#7AC36A;stroke-width:0.625" />
<path d="M1051.4,460.48L1056.8,460.48L1056.8,465.81L1051.4,465.81Z" style="fill:none;stroke:#7AC36A;stroke-width:0.625" />
<path d="M1058.4,512.02L1063.7,512.02L1063.7,517.35L1058.4,517.35Z" style="fill:none;stroke:#7AC36A;stroke-width:0.625" />
<path d="M1065.4,580.93L1070.7,580.93L1070.7,586.26L1065.4,586.26Z" style="fill:none;stroke:#7AC36A;stroke-width:0.625" />
<path d="M1072.3,606.59L1077.6,606.59L1077.6,611.93L1072.3,611.93Z" style="fill:none;stroke:#7AC36A;stroke-width:0.625" />
<path d="M1079.3,642.11L1084.6,642.11L1084.6,647.45L1079.3,647.45Z" style="fill:none;stroke:#7AC36A;stroke-width:0.625" />
<path d="M1086.2,682.12L1091.6,682.12L1091.6,687.46L1086.2,687.46Z" style="fill:none;stroke:#7AC36A;stroke-width:0.625" />
<path d="M1093.2,711.93L1098.5,711.93L1098.5,717.27L1093.2,717.27Z" style="fill:none;stroke:#7AC36A;stroke-width:0.625" />
<path d="M1100.1,708.7L1105.5,708.7L1105.5,714.03L1100.1,714.03Z" style="fill:none;stroke:#7AC36A;stroke-width:0.625" />
<path d="M1107.1,758.3L1112.4,758.3L1112.4,763.64L1107.1,763.64Z" style="fill:none;stroke:#7AC36A;stroke-width:0.625" />
<path d="M1114.1,747.62L1119.4,747.62L1119.4,752.95L1114.1,752.95Z" style="fill:none;stroke:#7AC36A;stroke-width:0.625" />
<path d="M1121,729.75L1126.4,729.75L1126.4,735.09L1121,735.09Z" style="fill:none;stroke:#7AC36A;stroke-width:0.625" />
<path d="M1128,677.61L1133.3,677.61L1133.3,682.95L1128,682.95Z" style="fill:none;stroke:#7AC36A;stroke-width:0.625" />
<path d="M1134.9,633.87L1140.3,633.87L1140.3,639.21L1134.9,639.21Z" style="fill:none;stroke:#7AC36A;stroke-width:0.625" />
<path d="M1141.9,597.55L1147.2,597.55L1147.2,602.88L1141.9,602.88Z" style="fill:none;stroke:#7AC36A;stroke-width:0.625" />
<path d="M1148.9,495.79L1154.2,495.79L1154.2,501.12L1148.9,501.12Z" style="fill:none;stroke:#7AC36A;stroke-width:0.625" />
<path d="M1155.8,415.44L1161.2,415.44L1161.2,420.78L1155.8,420.78Z" style="fill:none;stroke:#7AC36A;stroke-width:0.625" />
<path d="M1162.8,310.27L1168.1,310.27L1168.1,315.61L1162.8,315.61Z" style="fill:none;stroke:#7AC36A;stroke-width:0.625" />
<path d="M1169.7,159.82L1175.1,159.82L1175.1,165.15L1169.7,165.15Z" style="fill:none;stroke:#7AC36A;stroke-width:0.625" />
<path d="M1176.7,267.46L1182,267.46L1182,272.8L1176.7,272.8Z" style="fill:none;stroke:#7AC36A;stroke-width:0.625" />
<path d="M1183.7,287.06L1189,287.06L1189,292.4L1183.7,292.4Z" style="fill:none;stroke:#7AC36A;stroke-width:0.625" />
<path d="M1190.6,219.82L1196,219.82L1196,225.15L1190.6,225.15Z" style="fill:none;stroke:#7AC36A;stroke-width:0.625" />
<path d="M1197.6,146.61L1202.9,146.61L1202.9,151.95L1197.6,151.95Z" style="fill:none;stroke:#7AC36A;stroke-width:0.625" />
<path d="M1204.5,46.645L1209.9,46.645L1209.9,51.98L1204.5,51.98Z" style="fill:none;stroke:#7AC36A;stroke-width:0.625" />
<path d="M1211.5,444.46L1216.8,444.46L1216.8,449.79L1211.5,449.79Z" style="fill:none;stroke:#7AC36A;stroke-width:0.625" />
<path d="M1218.5,424.65L1223.8,424.65L1223.8,429.99L1218.5,429.99Z" style="fill:none;stroke:#7AC36A;stroke-width:0.625" />
<path d="M1225.4,385.88L1230.8,385.88L1230.8,391.21L1225.4,391.21Z" style="fill:none;stroke:#7AC36A;stroke-width:0.625" />
<path d="M1232.4,311.17L1237.7,311.17L1237.7,316.51L1232.4,316.51Z" style="fill:none;stroke:#7AC36A;stroke-width:0.625" />
<path d="M1239.3,336.49L1244.7,336.49L1244.7,341.82L1239.3,341.82Z" style="fill:none;stroke:#7AC36A;stroke-width:0.625" />
<path d="M1246.3,359.68L1251.6,359.68L1251.6,365.02L1246.3,365.02Z" style="fill:none;stroke:#7AC36A;stroke-width:0.625" />
<path d="M1253.3,369.44L1258.6,369.44L1258.6,374.78L1253.3,374.78Z" style="fill:none;stroke:#7AC36A;stroke-width:0.625" />
<path d="M1260.2,362.45L1265.6,362.45L1265.6,367.78L1260.2,367.78Z" style="fill:none;stroke:#7AC36A;stroke-width:0.625" />
<path d="M1267.2,734.04L1272.5,734.04L1272.5,739.37L1267.2,739.37Z" style="fill:none;stroke:#7AC36A;stroke-width:0.625" />
<path d="M1274.1,804.21L1279.5,804.21L1279.5,809.54L1274.1,809.54Z" style="fill:none;stroke:#7AC36A;stroke-width:0.625" />
<path d="M1281.1,802.68L1286.4,802.68L1286.4,808.02L1281.1,808.02Z" style="fill:none;stroke:#7AC36A;stroke-width:0.625" />
<path d="M1288.1,783.53L1293.4,783.53L1293.4,788.87L1288.1,788.87Z" style="fill:none;stroke:#7AC36A;stroke-width:0.625" />
<path d="M1295,739.7L1300.4,739.7L1300.4,745.04L1295,745.04Z" style="fill:none;stroke:#7AC36A;stroke-width:0.625" />
<path d="M1302,603.5L1307.3,603.5L1307.3,608.83L1302,608.83Z" style="fill:none;stroke:#7AC36A;stroke-width:0.625" />
<path d="M1308.9,550.03L1314.3,550.03L1314.3,555.36L1308.9,555.36Z" style="fill:none;stroke:#7AC36A;stroke-width:0.625" />
<path d="M1315.9,504.72L1321.2,504.72L1321.2,510.06L1315.9,510.06Z" style="fill:none;stroke:#7AC36A;stroke-width:0.625" />
<path d="M1322.9,235.56L1328.2,235.56L1328.2,240.89L1322.9,240.89Z" style="fill:none;stroke:#7AC36A;stroke-width:0.625" />
<path d="M1329.8,461.44L1335.1,461.44L1335.1,466.78L1329.8,466.78Z" style="fill:none;stroke:#7AC36A;stroke-width:0.625" />
<path d="M1336.8,462.57L1342.1,462.57L1342.1,467.91L1336.8,467.91Z" style="fill:none;stroke:#7AC36A;stroke-width:0.625" />
<path d="M1343.7,470.15L1349.1,470.15L1349.1,475.49L1343.7,475.49Z" style="fill:none;stroke:#7AC36A;stroke-width:0.625" />
<path d="M1350.7,372.27L1356,372.27L1356,377.6L1350.7,377.6Z" style="fill:none;stroke:#7AC36A;stroke-width:0.625" />
<path d="M1357.7,371.91L1363,371.91L1363,377.24L1357.7,377.24Z" style="fill:none;stroke:#7AC36A;stroke-width:0.625" />
<path d="M1364.6,367.88L1369.9,367.88L1369.9,373.21L1364.6,373.21Z" style="fill:none;stroke:#7AC36A;stroke-width:0.625" />
<path d="M1371.6,365.73L1376.9,365.73L1376.9,371.07L1371.6,371.07Z" style="fill:none;stroke:#7AC36A;stroke-width:0.625" />
<path d="M1378.5,362.17L1383.9,362.17L1383.9,367.51L1378.5,367.51Z" style="fill:none;stroke:#7AC36A;stroke-width:0.625" />
<path d="M1385.5,366.87L1390.8,366.87L1390.8,372.21L1385.5,372.21Z" style="fill:none;stroke:#7AC36A;stroke-width:0.625" />
<path d="M1392.5,333.45L1397.8,333.45L1397.8,338.79L1392.5,338.79Z" style="fill:none;stroke:#7AC36A;stroke-width:0.625" />
<path d="M1399.4,323.32L1404.7,323.32L1404.7,328.65L1399.4,328.65Z" style="fill:none;stroke:#7AC36A;stroke-width:0.625" />
<path d="M1406.4,335.12L1411.7,335.12L1411.7,340.46L1406.4,340.46Z" style="fill:none;stroke:#7AC36A;stroke-width:0.625" />
<path d="M1413.3,399.72L1418.7,399.72L1418.7,405.05L1413.3,405.05Z" style="fill:none;stroke:#7AC36A;stroke-width:0.625" />
<path d="M1420.3,227.74L1425.6,227.74L1425.6,233.08L1420.3,233.08Z" style="fill:none;stroke:#7AC36A;stroke-width:0.625" />
<path d="M1427.2,128.51L1432.6,128.51L1432.6,133.85L1427.2,133.85Z" style="fill:none;stroke:#7AC36A;stroke-width:0.625" />
<path d="M1434.2,210.77L1439.5,210.77L1439.5,216.11L1434.2,216.11Z" style="fill:none;stroke:#7AC36A;stroke-width:0.625" />
<path d="M1415,66.978L1440,66.978" style="fill:none;stroke:#F15A60;stroke-width:1.25" />
<path d="M1430.6,66.978A3.125,3.125 0 1 1 1424.4,66.978A3.125,3.125 0 1 1 1430.6,66.978Z" style="fill:none;stroke:#F15A60;stroke-width:0.625" />
<text x="1388.8" y="-61.188" transform="scale(1, -1)"
	style="font-family:Times;font-weight:normal;font-style:normal;font-size:12pt">raw</text>
<path d="M1415,53.117L1440,53.117" style="fill:none;stroke:#7AC36A;stroke-width:1.25;stroke-dasharray:7.5,2.5" />
<path d="M1424.8,50.45L1430.2,50.45L1430.2,55.785L1424.8,55.785Z" style="fill:none;stroke:#7AC36A;stroke-width:0.625" />
<text x="1367.1" y="-47.328" transform="scale(1, -1)"
	style="font-family:Times;font-weight:normal;font-style:normal;font-size:12pt">smooth</text>
</g>
</svg>
