<?xml version="1.0"?>
<!-- Generated by SVGo and Plotinum VG -->
<svg width="16in" height="9in"
	xmlns="http://www.w3.org/2000/svg"
	xmlns:xlink="http://www.w3.org/1999/xlink">
<g transform="scale(1, -1) translate(0, -810)">
<path d="M0,0L1440,0L1440,810L0,810Z" style="fill:#FFFFFF" />
<text x="738.98" y="-5.355" transform="scale(1, -1)"
	style="font-family:Times;font-weight:normal;font-style:normal;font-size:12pt">X</text>
<text x="48.8" y="-19.025" transform="scale(1, -1)"
	style="font-family:Times;font-weight:normal;font-style:normal;font-size:10pt">0</text>
<text x="463.25" y="-19.025" transform="scale(1, -1)"
	style="font-family:Times;font-weight:normal;font-style:normal;font-size:10pt">60</text>
<text x="877.7" y="-19.025" transform="scale(1, -1)"
	style="font-family:Times;font-weight:normal;font-style:normal;font-size:10pt">120</text>
<text x="1295.3" y="-19.025" transform="scale(1, -1)"
	style="font-family:Times;font-weight:normal;font-style:normal;font-size:10pt">180</text>
<path d="M51.925,29.625L51.925,39.625" style="fill:none;stroke:#000000;stroke-width:0.625" />
<path d="M469.5,29.625L469.5,39.625" style="fill:none;stroke:#000000;stroke-width:0.625" />
<path d="M887.07,29.625L887.07,39.625" style="fill:none;stroke:#000000;stroke-width:0.625" />
<path d="M1304.6,29.625L1304.6,39.625" style="fill:none;stroke:#000000;stroke-width:0.625" />
<path d="M191.12,34.625L191.12,39.625" style="fill:none;stroke:#000000;stroke-width:0.625" />
<path d="M330.31,34.625L330.31,39.625" style="fill:none;stroke:#000000;stroke-width:0.625" />
<path d="M608.69,34.625L608.69,39.625" style="fill:none;stroke:#000000;stroke-width:0.625" />
<path d="M747.88,34.625L747.88,39.625" style="fill:none;stroke:#000000;stroke-width:0.625" />
<path d="M1026.3,34.625L1026.3,39.625" style="fill:none;stroke:#000000;stroke-width:0.625" />
<path d="M1165.5,34.625L1165.5,39.625" style="fill:none;stroke:#000000;stroke-width:0.625" />
<path d="M51.925,39.625L1436.9,39.625" style="fill:none;stroke:#000000;stroke-width:0.625" />
<g transform="rotate(90)">
<text x="422.68" y="12.72" transform="scale(1, -1)"
	style="font-family:Times;font-weight:normal;font-style:normal;font-size:12pt">Y</text>
</g>
<text x="18.075" y="-128.75" transform="scale(1, -1)"
	style="font-family:Times;font-weight:normal;font-style:normal;font-size:10pt">-4</text>
<text x="22.237" y="-349.83" transform="scale(1, -1)"
	style="font-family:Times;font-weight:normal;font-style:normal;font-size:10pt">0</text>
<text x="22.237" y="-570.91" transform="scale(1, -1)"
	style="font-family:Times;font-weight:normal;font-style:normal;font-size:10pt">4</text>
<text x="22.237" y="-791.99" transform="scale(1, -1)"
	style="font-family:Times;font-weight:normal;font-style:normal;font-size:10pt">8</text>
<path d="M31.613,133.58L41.612,133.58" style="fill:none;stroke:#000000;stroke-width:0.625" />
<path d="M31.613,354.66L41.612,354.66" style="fill:none;stroke:#000000;stroke-width:0.625" />
<path d="M31.613,575.74L41.612,575.74" style="fill:none;stroke:#000000;stroke-width:0.625" />
<path d="M31.613,796.82L41.612,796.82" style="fill:none;stroke:#000000;stroke-width:0.625" />
<path d="M36.612,244.12L41.612,244.12" style="fill:none;stroke:#000000;stroke-width:0.625" />
<path d="M36.612,465.2L41.612,465.2" style="fill:none;stroke:#000000;stroke-width:0.625" />
<path d="M36.612,686.28L41.612,686.28" style="fill:none;stroke:#000000;stroke-width:0.625" />
<path d="M41.612,49.313L41.612,806.88" style="fill:none;stroke:#000000;stroke-width:0.625" />
<path d="M51.925,395.16L58.885,376.1L65.844,388.3L72.804,377.03L79.763,427.41L86.723,408.13L93.682,400.81L100.64,442.01L107.6,420.08L114.56,401.48L121.52,408.36L128.48,412.24L135.44,445.94L142.4,422.26L149.36,415.16L156.32,423.65L163.28,461.74L170.24,448.94L177.2,432.33L184.16,439.36L191.12,417.25L198.08,436.15L205.04,441.34L211.99,411.03L218.95,415.46L225.91,426.15L232.87,438.49L239.83,433.32L246.79,385.33L253.75,383.28L260.71,409.74L267.67,413.6L274.63,374.62L281.59,384.58L288.55,357.28L295.51,389.48L302.47,379.76L309.43,349.28L316.39,369.65L323.35,377.81L330.31,358.77L337.27,324.52L344.23,370.9L351.19,366.46L358.15,334.73L365.1,309.31L372.06,335.33L379.02,341.2L385.98,335.71L392.94,317.16L399.9,343.43L406.86,314.49L413.82,306.39L420.78,346.43L427.74,302.13L434.7,347.24L441.66,321.37L448.62,356.72L455.58,338.36L462.54,360.45L469.5,319.48L476.46,335.2L483.42,339.7L490.38,348.58L497.34,385.93L504.3,389.51L511.26,344.3L518.21,350.81L525.17,380.58L532.13,367.68L539.09,399.4L546.05,403.31L553.01,404.02L559.97,396.85L566.93,408.36L573.89,418.07L580.85,432.85L587.81,412.54L594.77,418.57L601.73,439.49L608.69,431.22L615.65,449.65L622.61,452.53L629.57,450.6L636.53,440.15L643.49,461.43L650.45,413.26L657.41,418.74L664.37,420.63L671.32,422.4L678.28,445.13L685.24,453.58L692.2,432.99L699.16,452.61L706.12,426.66L713.08,415.92L720.04,409.88L727,434.76L733.96,410.02L740.92,422.44L747.88,395.11L754.84,376.02L761.8,392.23L768.76,396.87L775.72,400.82L782.68,384.17L789.64,367.16L796.6,381.64L803.56,354.34L810.52,339.19L817.48,333.51L824.43,356.49L831.39,323.61L838.35,333.7L845.31,324.08L852.27,314.58L859.23,339.08L866.19,345.48L873.15,301.9L880.11,307.18L887.07,348.21L894.03,346.16L900.99,348.55L907.95,338.01L914.91,314.1L921.87,349.84L928.83,327.37L935.79,351.79L942.75,365.42L949.71,334.98L956.67,323.35L963.63,346.28L970.59,372.07L977.54,363.9L984.5,351.54L991.46,378.93L998.42,392.08L1005.4,381.13L1012.3,389.11L1019.3,382.94L1026.3,368.54L1033.2,381.62L1040.2,392.06L1047.1,422L1054.1,393.49L1061.1,427.94L1068,423.09L1075,420.15L1081.9,408.16L1088.9,453.94L1095.9,432.42L1102.8,442.7L1109.8,421.34L1116.7,423.03L1123.7,450.39L1130.7,444.56L1137.6,454.32L1144.6,434.33L1151.5,411.88L1158.5,448.84L1165.5,422.06L1172.4,411.75L1179.4,435.34L1186.3,405.17L1193.3,417.66L1200.3,401.29L1207.2,386.86L1214.2,395.22L1221.1,399.69L1228.1,411.17L1235,376.03L1242,393.22L1249,373.24L1255.9,405L1262.9,388.47L1269.8,387.3L1276.8,387.53L1283.8,366.97L1290.7,379.84L1297.7,325.4L1304.6,370.58L1311.6,329.18L1318.6,321.75L1325.5,353.15L1332.5,340.44L1339.4,312.25L1346.4,314.83L1353.4,333.12L1360.3,303.03L1367.3,313.89L1374.2,336.7L1381.2,351.54L1388.2,338.97L1395.1,351.88L1402.1,325.31L1409,316.74L1416,315.15L1423,320.94L1429.9,318.41L1436.9,352.9" style="fill:none;stroke:#F15A60;stroke-width:1.25" />
<path d="M55.05,395.16A3.125,3.125 0 1 1 48.8,395.16A3.125,3.125 0 1 1 55.05,395.16Z" style="fill:none;stroke:#F15A60;stroke-width:0.625" />
<path d="M62.01,376.1A3.125,3.125 0 1 1 55.76,376.1A3.125,3.125 0 1 1 62.01,376.1Z" style="fill:none;stroke:#F15A60;stroke-width:0.625" />
<path d="M68.969,388.3A3.125,3.125 0 1 1 62.719,388.3A3.125,3.125 0 1 1 68.969,388.3Z" style="fill:none;stroke:#F15A60;stroke-width:0.625" />
<path d="M75.929,377.03A3.125,3.125 0 1 1 69.679,377.03A3.125,3.125 0 1 1 75.929,377.03Z" style="fill:none;stroke:#F15A60;stroke-width:0.625" />
<path d="M82.888,427.41L82.888,427.41A3.125,3.125 0 1 1 76.638,427.41A3.125,3.125 0 1 1 82.888,427.41Z" style="fill:none;stroke:#F15A60;stroke-width:0.625" />
<path d="M89.848,408.13L89.848,408.13A3.125,3.125 0 1 1 83.598,408.13A3.125,3.125 0 1 1 89.848,408.13Z" style="fill:none;stroke:#F15A60;stroke-width:0.625" />
<path d="M96.807,400.81L96.807,400.81A3.125,3.125 0 1 1 90.557,400.81A3.125,3.125 0 1 1 96.807,400.81Z" style="fill:none;stroke:#F15A60;stroke-width:0.625" />
<path d="M103.77,442.01L103.77,442.01A3.125,3.125 0 1 1 97.517,442.01A3.125,3.125 0 1 1 103.77,442.01Z" style="fill:none;stroke:#F15A60;stroke-width:0.625" />
<path d="M110.73,420.08L110.73,420.08A3.125,3.125 0 1 1 104.48,420.08A3.125,3.125 0 1 1 110.73,420.08Z" style="fill:none;stroke:#F15A60;stroke-width:0.625" />
<path d="M117.69,401.48L117.69,401.48A3.125,3.125 0 1 1 111.44,401.48A3.125,3.125 0 1 1 117.69,401.48Z" style="fill:none;stroke:#F15A60;stroke-width:0.625" />
<path d="M124.65,408.36A3.125,3.125 0 1 1 118.4,408.36A3.125,3.125 0 1 1 124.65,408.36Z" style="fill:none;stroke:#F15A60;stroke-width:0.625" />
<path d="M131.61,412.24A3.125,3.125 0 1 1 125.36,412.24A3.125,3.125 0 1 1 131.61,412.24Z" style="fill:none;stroke:#F15A60;stroke-width:0.625" />
<path d="M138.56,445.94A3.125,3.125 0 1 1 132.31,445.94A3.125,3.125 0 1 1 138.56,445.94Z" style="fill:none;stroke:#F15A60;stroke-width:0.625" />
<path d="M145.52,422.26A3.125,3.125 0 1 1 139.27,422.26A3.125,3.125 0 1 1 145.52,422.26Z" style="fill:none;stroke:#F15A60;stroke-width:0.625" />
<path d="M152.48,415.16A3.125,3.125 0 1 1 146.23,415.16A3.125,3.125 0 1 1 152.48,415.16Z" style="fill:none;stroke:#F15A60;stroke-width:0.625" />
<path d="M159.44,423.65A3.125,3.125 0 1 1 153.19,423.65A3.125,3.125 0 1 1 159.44,423.65Z" style="fill:none;stroke:#F15A60;stroke-width:0.625" />
<path d="M166.4,461.74A3.125,3.125 0 1 1 160.15,461.74A3.125,3.125 0 1 1 166.4,461.74Z" style="fill:none;stroke:#F15A60;stroke-width:0.625" />
<path d="M173.36,448.94A3.125,3.125 0 1 1 167.11,448.94A3.125,3.125 0 1 1 173.36,448.94Z" style="fill:none;stroke:#F15A60;stroke-width:0.625" />
<path d="M180.32,432.33L180.32,432.33A3.125,3.125 0 1 1 174.07,432.33A3.125,3.125 0 1 1 180.32,432.33Z" style="fill:none;stroke:#F15A60;stroke-width:0.625" />
<path d="M187.28,439.36A3.125,3.125 0 1 1 181.03,439.36A3.125,3.125 0 1 1 187.28,439.36Z" style="fill:none;stroke:#F15A60;stroke-width:0.625" />
<path d="M194.24,417.25L194.24,417.25A3.125,3.125 0 1 1 187.99,417.25A3.125,3.125 0 1 1 194.24,417.25Z" style="fill:none;stroke:#F15A60;stroke-width:0.625" />
<path d="M201.2,436.15A3.125,3.125 0 1 1 194.95,436.15A3.125,3.125 0 1 1 201.2,436.15Z" style="fill:none;stroke:#F15A60;stroke-width:0.625" />
<path d="M208.16,441.34A3.125,3.125 0 1 1 201.91,441.34A3.125,3.125 0 1 1 208.16,441.34Z" style="fill:none;stroke:#F15A60;stroke-width:0.625" />
<path d="M215.12,411.03A3.125,3.125 0 1 1 208.87,411.03A3.125,3.125 0 1 1 215.12,411.03Z" style="fill:none;stroke:#F15A60;stroke-width:0.625" />
<path d="M222.08,415.46L222.08,415.46A3.125,3.125 0 1 1 215.83,415.46A3.125,3.125 0 1 1 222.08,415.46Z" style="fill:none;stroke:#F15A60;stroke-width:0.625" />
<path d="M229.04,426.15A3.125,3.125 0 1 1 222.79,426.15A3.125,3.125 0 1 1 229.04,426.15Z" style="fill:none;stroke:#F15A60;stroke-width:0.625" />
<path d="M236,438.49A3.125,3.125 0 1 1 229.75,438.49A3.125,3.125 0 1 1 236,438.49Z" style="fill:none;stroke:#F15A60;stroke-width:0.625" />
<path d="M242.96,433.32A3.125,3.125 0 1 1 236.71,433.32A3.125,3.125 0 1 1 242.96,433.32Z" style="fill:none;stroke:#F15A60;stroke-width:0.625" />
<path d="M249.92,385.33L249.92,385.33A3.125,3.125 0 1 1 243.67,385.33A3.125,3.125 0 1 1 249.92,385.33Z" style="fill:none;stroke:#F15A60;stroke-width:0.625" />
<path d="M256.88,383.28L256.88,383.28A3.125,3.125 0 1 1 250.63,383.28A3.125,3.125 0 1 1 256.88,383.28Z" style="fill:none;stroke:#F15A60;stroke-width:0.625" />
<path d="M263.84,409.74A3.125,3.125 0 1 1 257.59,409.74A3.125,3.125 0 1 1 263.84,409.74Z" style="fill:none;stroke:#F15A60;stroke-width:0.625" />
<path d="M270.8,413.6A3.125,3.125 0 1 1 264.55,413.6A3.125,3.125 0 1 1 270.8,413.6Z" style="fill:none;stroke:#F15A60;stroke-width:0.625" />
<path d="M277.76,374.62L277.76,374.62A3.125,3.125 0 1 1 271.51,374.62A3.125,3.125 0 1 1 277.76,374.62Z" style="fill:none;stroke:#F15A60;stroke-width:0.625" />
<path d="M284.72,384.58A3.125,3.125 0 1 1 278.47,384.58A3.125,3.125 0 1 1 284.72,384.58Z" style="fill:none;stroke:#F15A60;stroke-width:0.625" />
<path d="M291.67,357.28L291.67,357.28A3.125,3.125 0 1 1 285.42,357.28A3.125,3.125 0 1 1 291.67,357.28Z" style="fill:none;stroke:#F15A60;stroke-width:0.625" />
<path d="M298.63,389.48A3.125,3.125 0 1 1 292.38,389.48A3.125,3.125 0 1 1 298.63,389.48Z" style="fill:none;stroke:#F15A60;stroke-width:0.625" />
<path d="M305.59,379.76A3.125,3.125 0 1 1 299.34,379.76A3.125,3.125 0 1 1 305.59,379.76Z" style="fill:none;stroke:#F15A60;stroke-width:0.625" />
<path d="M312.55,349.28A3.125,3.125 0 1 1 306.3,349.28A3.125,3.125 0 1 1 312.55,349.28Z" style="fill:none;stroke:#F15A60;stroke-width:0.625" />
<path d="M319.51,369.65A3.125,3.125 0 1 1 313.26,369.65A3.125,3.125 0 1 1 319.51,369.65Z" style="fill:none;stroke:#F15A60;stroke-width:0.625" />
<path d="M326.47,377.81A3.125,3.125 0 1 1 320.22,377.81A3.125,3.125 0 1 1 326.47,377.81Z" style="fill:none;stroke:#F15A60;stroke-width:0.625" />
<path d="M333.43,358.77L333.43,358.77A3.125,3.125 0 1 1 327.18,358.77A3.125,3.125 0 1 1 333.43,358.77Z" style="fill:none;stroke:#F15A60;stroke-width:0.625" />
<path d="M340.39,324.52A3.125,3.125 0 1 1 334.14,324.52A3.125,3.125 0 1 1 340.39,324.52Z" style="fill:none;stroke:#F15A60;stroke-width:0.625" />
<path d="M347.35,370.9L347.35,370.9A3.125,3.125 0 1 1 341.1,370.9A3.125,3.125 0 1 1 347.35,370.9Z" style="fill:none;stroke:#F15A60;stroke-width:0.625" />
<path d="M354.31,366.46A3.125,3.125 0 1 1 348.06,366.46A3.125,3.125 0 1 1 354.31,366.46Z" style="fill:none;stroke:#F15A60;stroke-width:0.625" />
<path d="M361.27,334.73L361.27,334.73A3.125,3.125 0 1 1 355.02,334.73A3.125,3.125 0 1 1 361.27,334.73Z" style="fill:none;stroke:#F15A60;stroke-width:0.625" />
<path d="M368.23,309.31A3.125,3.125 0 1 1 361.98,309.31A3.125,3.125 0 1 1 368.23,309.31Z" style="fill:none;stroke:#F15A60;stroke-width:0.625" />
<path d="M375.19,335.33A3.125,3.125 0 1 1 368.94,335.33A3.125,3.125 0 1 1 375.19,335.33Z" style="fill:none;stroke:#F15A60;stroke-width:0.625" />
<path d="M382.15,341.2A3.125,3.125 0 1 1 375.9,341.2A3.125,3.125 0 1 1 382.15,341.2Z" style="fill:none;stroke:#F15A60;stroke-width:0.625" />
<path d="M389.11,335.71A3.125,3.125 0 1 1 382.86,335.71A3.125,3.125 0 1 1 389.11,335.71Z" style="fill:none;stroke:#F15A60;stroke-width:0.625" />
<path d="M396.07,317.16A3.125,3.125 0 1 1 389.82,317.16A3.125,3.125 0 1 1 396.07,317.16Z" style="fill:none;stroke:#F15A60;stroke-width:0.625" />
<path d="M403.03,343.43L403.03,343.43A3.125,3.125 0 1 1 396.78,343.43A3.125,3.125 0 1 1 403.03,343.43Z" style="fill:none;stroke:#F15A60;stroke-width:0.625" />
<path d="M409.99,314.49A3.125,3.125 0 1 1 403.74,314.49A3.125,3.125 0 1 1 409.99,314.49Z" style="fill:none;stroke:#F15A60;stroke-width:0.625" />
<path d="M416.95,306.39A3.125,3.125 0 1 1 410.7,306.39A3.125,3.125 0 1 1 416.95,306.39Z" style="fill:none;stroke:#F15A60;stroke-width:0.625" />
<path d="M423.91,346.43L423.91,346.43A3.125,3.125 0 1 1 417.66,346.43A3.125,3.125 0 1 1 423.91,346.43Z" style="fill:none;stroke:#F15A60;stroke-width:0.625" />
<path d="M430.87,302.13A3.125,3.125 0 1 1 424.62,302.13A3.125,3.125 0 1 1 430.87,302.13Z" style="fill:none;stroke:#F15A60;stroke-width:0.625" />
<path d="M437.83,347.24A3.125,3.125 0 1 1 431.58,347.24A3.125,3.125 0 1 1 437.83,347.24Z" style="fill:none;stroke:#F15A60;stroke-width:0.625" />
<path d="M444.78,321.37A3.125,3.125 0 1 1 438.53,321.37A3.125,3.125 0 1 1 444.78,321.37Z" style="fill:none;stroke:#F15A60;stroke-width:0.625" />
<path d="M451.74,356.72L451.74,356.72A3.125,3.125 0 1 1 445.49,356.72A3.125,3.125 0 1 1 451.74,356.72Z" style="fill:none;stroke:#F15A60;stroke-width:0.625" />
<path d="M458.7,338.36L458.7,338.36A3.125,3.125 0 1 1 452.45,338.36A3.125,3.125 0 1 1 458.7,338.36Z" style="fill:none;stroke:#F15A60;stroke-width:0.625" />
<path d="M465.66,360.45L465.66,360.45A3.125,3.125 0 1 1 459.41,360.45A3.125,3.125 0 1 1 465.66,360.45Z" style="fill:none;stroke:#F15A60;stroke-width:0.625" />
<path d="M472.62,319.48A3.125,3.125 0 1 1 466.37,319.48A3.125,3.125 0 1 1 472.62,319.48Z" style="fill:none;stroke:#F15A60;stroke-width:0.625" />
<path d="M479.58,335.2A3.125,3.125 0 1 1 473.33,335.2A3.125,3.125 0 1 1 479.58,335.2Z" style="fill:none;stroke:#F15A60;stroke-width:0.625" />
<path d="M486.54,339.7A3.125,3.125 0 1 1 480.29,339.7A3.125,3.125 0 1 1 486.54,339.7Z" style="fill:none;stroke:#F15A60;stroke-width:0.625" />
<path d="M493.5,348.58A3.125,3.125 0 1 1 487.25,348.58A3.125,3.125 0 1 1 493.5,348.58Z" style="fill:none;stroke:#F15A60;stroke-width:0.625" />
<path d="M500.46,385.93A3.125,3.125 0 1 1 494.21,385.93A3.125,3.125 0 1 1 500.46,385.93Z" style="fill:none;stroke:#F15A60;stroke-width:0.625" />
<path d="M507.42,389.51A3.125,3.125 0 1 1 501.17,389.51A3.125,3.125 0 1 1 507.42,389.51Z" style="fill:none;stroke:#F15A60;stroke-width:0.625" />
<path d="M514.38,344.3L514.38,344.3A3.125,3.125 0 1 1 508.13,344.3A3.125,3.125 0 1 1 514.38,344.3Z" style="fill:none;stroke:#F15A60;stroke-width:0.625" />
<path d="M521.34,350.81A3.125,3.125 0 1 1 515.09,350.81A3.125,3.125 0 1 1 521.34,350.81Z" style="fill:none;stroke:#F15A60;stroke-width:0.625" />
<path d="M528.3,380.58A3.125,3.125 0 1 1 522.05,380.58A3.125,3.125 0 1 1 528.3,380.58Z" style="fill:none;stroke:#F15A60;stroke-width:0.625" />
<path d="M535.26,367.68L535.26,367.68A3.125,3.125 0 1 1 529.01,367.68A3.125,3.125 0 1 1 535.26,367.68Z" style="fill:none;stroke:#F15A60;stroke-width:0.625" />
<path d="M542.22,399.4A3.125,3.125 0 1 1 535.97,399.4A3.125,3.125 0 1 1 542.22,399.4Z" style="fill:none;stroke:#F15A60;stroke-width:0.625" />
<path d="M549.18,403.31A3.125,3.125 0 1 1 542.93,403.31A3.125,3.125 0 1 1 549.18,403.31Z" style="fill:none;stroke:#F15A60;stroke-width:0.625" />
<path d="M556.14,404.02A3.125,3.125 0 1 1 549.89,404.02A3.125,3.125 0 1 1 556.14,404.02Z" style="fill:none;stroke:#F15A60;stroke-width:0.625" />
<path d="M563.1,396.85A3.125,3.125 0 1 1 556.85,396.85A3.125,3.125 0 1 1 563.1,396.85Z" style="fill:none;stroke:#F15A60;stroke-width:0.625" />
<path d="M570.06,408.36L570.06,408.36A3.125,3.125 0 1 1 563.81,408.36A3.125,3.125 0 1 1 570.06,408.36Z" style="fill:none;stroke:#F15A60;stroke-width:0.625" />
<path d="M577.02,418.07A3.125,3.125 0 1 1 570.77,418.07A3.125,3.125 0 1 1 577.02,418.07Z" style="fill:none;stroke:#F15A60;stroke-width:0.625" />
<path d="M583.98,432.85A3.125,3.125 0 1 1 577.73,432.85A3.125,3.125 0 1 1 583.98,432.85Z" style="fill:none;stroke:#F15A60;stroke-width:0.625" />
<path d="M590.94,412.54A3.125,3.125 0 1 1 584.69,412.54A3.125,3.125 0 1 1 590.94,412.54Z" style="fill:none;stroke:#F15A60;stroke-width:0.625" />
<path d="M597.89,418.57A3.125,3.125 0 1 1 591.64,418.57A3.125,3.125 0 1 1 597.89,418.57Z" style="fill:none;stroke:#F15A60;stroke-width:0.625" />
<path d="M604.85,439.49A3.125,3.125 0 1 1 598.6,439.49A3.125,3.125 0 1 1 604.85,439.49Z" style="fill:none;stroke:#F15A60;stroke-width:0.625" />
<path d="M611.81,431.22A3.125,3.125 0 1 1 605.56,431.22A3.125,3.125 0 1 1 611.81,431.22Z" style="fill:none;stroke:#F15A60;stroke-width:0.625" />
<path d="M618.77,449.65A3.125,3.125 0 1 1 612.52,449.65A3.125,3.125 0 1 1 618.77,449.65Z" style="fill:none;stroke:#F15A60;stroke-width:0.625" />
<path d="M625.73,452.53A3.125,3.125 0 1 1 619.48,452.53A3.125,3.125 0 1 1 625.73,452.53Z" style="fill:none;stroke:#F15A60;stroke-width:0.625" />
<path d="M632.69,450.6A3.125,3.125 0 1 1 626.44,450.6A3.125,3.125 0 1 1 632.69,450.6Z" style="fill:none;stroke:#F15A60;stroke-width:0.625" />
<path d="M639.65,440.15A3.125,3.125 0 1 1 633.4,440.15A3.125,3.125 0 1 1 639.65,440.15Z" style="fill:none;stroke:#F15A60;stroke-width:0.625" />
<path d="M646.61,461.43A3.125,3.125 0 1 1 640.36,461.43A3.125,3.125 0 1 1 646.61,461.43Z" style="fill:none;stroke:#F15A60;stroke-width:0.625" />
<path d="M653.57,413.26A3.125,3.125 0 1 1 647.32,413.26A3.125,3.125 0 1 1 653.57,413.26Z" style="fill:none;stroke:#F15A60;stroke-width:0.625" />
<path d="M660.53,418.74A3.125,3.125 0 1 1 654.28,418.74A3.125,3.125 0 1 1 660.53,418.74Z" style="fill:none;stroke:#F15A60;stroke-width:0.625" />
<path d="M667.49,420.63A3.125,3.125 0 1 1 661.24,420.63A3.125,3.125 0 1 1 667.49,420.63Z" style="fill:none;stroke:#F15A60;stroke-width:0.625" />
<path d="M674.45,422.4A3.125,3.125 0 1 1 668.2,422.4A3.125,3.125 0 1 1 674.45,422.4Z" style="fill:none;stroke:#F15A60;stroke-width:0.625" />
<path d="M681.41,445.13L681.41,445.13A3.125,3.125 0 1 1 675.16,445.13A3.125,3.125 0 1 1 681.41,445.13Z" style="fill:none;stroke:#F15A60;stroke-width:0.625" />
<path d="M688.37,453.58A3.125,3.125 0 1 1 682.12,453.58A3.125,3.125 0 1 1 688.37,453.58Z" style="fill:none;stroke:#F15A60;stroke-width:0.625" />
<path d="M695.33,432.99A3.125,3.125 0 1 1 689.08,432.99A3.125,3.125 0 1 1 695.33,432.99Z" style="fill:none;stroke:#F15A60;stroke-width:0.625" />
<path d="M702.29,452.61A3.125,3.125 0 1 1 696.04,452.61A3.125,3.125 0 1 1 702.29,452.61Z" style="fill:none;stroke:#F15A60;stroke-width:0.625" />
<path d="M709.25,426.66L709.25,426.66A3.125,3.125 0 1 1 703,426.66A3.125,3.125 0 1 1 709.25,426.66Z" style="fill:none;stroke:#F15A60;stroke-width:0.625" />
<path d="M716.21,415.92L716.21,415.92A3.125,3.125 0 1 1 709.96,415.92A3.125,3.125 0 1 1 716.21,415.92Z" style="fill:none;stroke:#F15A60;stroke-width:0.625" />
<path d="M723.17,409.88L723.17,409.88A3.125,3.125 0 1 1 716.92,409.88A3.125,3.125 0 1 1 723.17,409.88Z" style="fill:none;stroke:#F15A60;stroke-width:0.625" />
<path d="M730.13,434.76L730.13,434.76A3.125,3.125 0 1 1 723.88,434.76A3.125,3.125 0 1 1 730.13,434.76Z" style="fill:none;stroke:#F15A60;stroke-width:0.625" />
<path d="M737.09,410.02L737.09,410.02A3.125,3.125 0 1 1 730.84,410.02A3.125,3.125 0 1 1 737.09,410.02Z" style="fill:none;stroke:#F15A60;stroke-width:0.625" />
<path d="M744.05,422.44L744.05,422.44A3.125,3.125 0 1 1 737.8,422.44A3.125,3.125 0 1 1 744.05,422.44Z" style="fill:none;stroke:#F15A60;stroke-width:0.625" />
<path d="M751,395.11L751,395.11A3.125,3.125 0 1 1 744.75,395.11A3.125,3.125 0 1 1 751,395.11Z" style="fill:none;stroke:#F15A60;stroke-width:0.625" />
<path d="M757.96,376.02L757.96,376.02A3.125,3.125 0 1 1 751.71,376.02A3.125,3.125 0 1 1 757.96,376.02Z" style="fill:none;stroke:#F15A60;stroke-width:0.625" />
<path d="M764.92,392.23L764.92,392.23A3.125,3.125 0 1 1 758.67,392.23A3.125,3.125 0 1 1 764.92,392.23Z" style="fill:none;stroke:#F15A60;stroke-width:0.625" />
<path d="M771.88,396.87L771.88,396.87A3.125,3.125 0 1 1 765.63,396.87A3.125,3.125 0 1 1 771.88,396.87Z" style="fill:none;stroke:#F15A60;stroke-width:0.625" />
<path d="M778.84,400.82L778.84,400.82A3.125,3.125 0 1 1 772.59,400.82A3.125,3.125 0 1 1 778.84,400.82Z" style="fill:none;stroke:#F15A60;stroke-width:0.625" />
<path d="M785.8,384.17L785.8,384.17A3.125,3.125 0 1 1 779.55,384.17A3.125,3.125 0 1 1 785.8,384.17Z" style="fill:none;stroke:#F15A60;stroke-width:0.625" />
<path d="M792.76,367.16L792.76,367.16A3.125,3.125 0 1 1 786.51,367.16A3.125,3.125 0 1 1 792.76,367.16Z" style="fill:none;stroke:#F15A60;stroke-width:0.625" />
<path d="M799.72,381.64L799.72,381.64A3.125,3.125 0 1 1 793.47,381.64A3.125,3.125 0 1 1 799.72,381.64Z" style="fill:none;stroke:#F15A60;stroke-width:0.625" />
<path d="M806.68,354.34A3.125,3.125 0 1 1 800.43,354.34A3.125,3.125 0 1 1 806.68,354.34Z" style="fill:none;stroke:#F15A60;stroke-width:0.625" />
<path d="M813.64,339.19A3.125,3.125 0 1 1 807.39,339.19A3.125,3.125 0 1 1 813.64,339.19Z" style="fill:none;stroke:#F15A60;stroke-width:0.625" />
<path d="M820.6,333.51L820.6,333.51A3.125,3.125 0 1 1 814.35,333.51A3.125,3.125 0 1 1 820.6,333.51Z" style="fill:none;stroke:#F15A60;stroke-width:0.625" />
<path d="M827.56,356.49L827.56,356.49A3.125,3.125 0 1 1 821.31,356.49A3.125,3.125 0 1 1 827.56,356.49Z" style="fill:none;stroke:#F15A60;stroke-width:0.625" />
<path d="M834.52,323.61L834.52,323.61A3.125,3.125 0 1 1 828.27,323.61A3.125,3.125 0 1 1 834.52,323.61Z" style="fill:none;stroke:#F15A60;stroke-width:0.625" />
<path d="M841.48,333.7L841.48,333.7A3.125,3.125 0 1 1 835.23,333.7A3.125,3.125 0 1 1 841.48,333.7Z" style="fill:none;stroke:#F15A60;stroke-width:0.625" />
<path d="M848.44,324.08L848.44,324.08A3.125,3.125 0 1 1 842.19,324.08A3.125,3.125 0 1 1 848.44,324.08Z" style="fill:none;stroke:#F15A60;stroke-width:0.625" />
<path d="M855.4,314.58L855.4,314.58A3.125,3.125 0 1 1 849.15,314.58A3.125,3.125 0 1 1 855.4,314.58Z" style="fill:none;stroke:#F15A60;stroke-width:0.625" />
<path d="M862.36,339.08L862.36,339.08A3.125,3.125 0 1 1 856.11,339.08A3.125,3.125 0 1 1 862.36,339.08Z" style="fill:none;stroke:#F15A60;stroke-width:0.625" />
<path d="M869.32,345.48A3.125,3.125 0 1 1 863.07,345.48A3.125,3.125 0 1 1 869.32,345.48Z" style="fill:none;stroke:#F15A60;stroke-width:0.625" />
<path d="M876.28,301.9A3.125,3.125 0 1 1 870.03,301.9A3.125,3.125 0 1 1 876.28,301.9Z" style="fill:none;stroke:#F15A60;stroke-width:0.625" />
<path d="M883.24,307.18L883.24,307.18A3.125,3.125 0 1 1 876.99,307.18A3.125,3.125 0 1 1 883.24,307.18Z" style="fill:none;stroke:#F15A60;stroke-width:0.625" />
<path d="M890.2,348.21L890.2,348.21A3.125,3.125 0 1 1 883.95,348.21A3.125,3.125 0 1 1 890.2,348.21Z" style="fill:none;stroke:#F15A60;stroke-width:0.625" />
<path d="M897.16,346.16L897.16,346.16A3.125,3.125 0 1 1 890.91,346.16A3.125,3.125 0 1 1 897.16,346.16Z" style="fill:none;stroke:#F15A60;stroke-width:0.625" />
<path d="M904.11,348.55L904.11,348.55A3.125,3.125 0 1 1 897.86,348.55A3.125,3.125 0 1 1 904.11,348.55Z" style="fill:none;stroke:#F15A60;stroke-width:0.625" />
<path d="M911.07,338.01A3.125,3.125 0 1 1 904.82,338.01A3.125,3.125 0 1 1 911.07,338.01Z" style="fill:none;stroke:#F15A60;stroke-width:0.625" />
<path d="M918.03,314.1A3.125,3.125 0 1 1 911.78,314.1A3.125,3.125 0 1 1 918.03,314.1Z" style="fill:none;stroke:#F15A60;stroke-width:0.625" />
<path d="M924.99,349.84L924.99,349.84A3.125,3.125 0 1 1 918.74,349.84A3.125,3.125 0 1 1 924.99,349.84Z" style="fill:none;stroke:#F15A60;stroke-width:0.625" />
<path d="M931.95,327.37A3.125,3.125 0 1 1 925.7,327.37A3.125,3.125 0 1 1 931.95,327.37Z" style="fill:none;stroke:#F15A60;stroke-width:0.625" />
<path d="M938.91,351.79L938.91,351.79A3.125,3.125 0 1 1 932.66,351.79A3.125,3.125 0 1 1 938.91,351.79Z" style="fill:none;stroke:#F15A60;stroke-width:0.625" />
<path d="M945.87,365.42L945.87,365.42A3.125,3.125 0 1 1 939.62,365.42A3.125,3.125 0 1 1 945.87,365.42Z" style="fill:none;stroke:#F15A60;stroke-width:0.625" />
<path d="M952.83,334.98A3.125,3.125 0 1 1 946.58,334.98A3.125,3.125 0 1 1 952.83,334.98Z" style="fill:none;stroke:#F15A60;stroke-width:0.625" />
<path d="M959.79,323.35A3.125,3.125 0 1 1 953.54,323.35A3.125,3.125 0 1 1 959.79,323.35Z" style="fill:none;stroke:#F15A60;stroke-width:0.625" />
<path d="M966.75,346.28A3.125,3.125 0 1 1 960.5,346.28A3.125,3.125 0 1 1 966.75,346.28Z" style="fill:none;stroke:#F15A60;stroke-width:0.625" />
<path d="M973.71,372.07A3.125,3.125 0 1 1 967.46,372.07A3.125,3.125 0 1 1 973.71,372.07Z" style="fill:none;stroke:#F15A60;stroke-width:0.625" />
<path d="M980.67,363.9A3.125,3.125 0 1 1 974.42,363.9A3.125,3.125 0 1 1 980.67,363.9Z" style="fill:none;stroke:#F15A60;stroke-width:0.625" />
<path d="M987.63,351.54L987.63,351.54A3.125,3.125 0 1 1 981.38,351.54A3.125,3.125 0 1 1 987.63,351.54Z" style="fill:none;stroke:#F15A60;stroke-width:0.625" />
<path d="M994.59,378.93A3.125,3.125 0 1 1 988.34,378.93A3.125,3.125 0 1 1 994.59,378.93Z" style="fill:none;stroke:#F15A60;stroke-width:0.625" />
<path d="M1001.5,392.08L1001.5,392.08A3.125,3.125 0 1 1 995.3,392.08A3.125,3.125 0 1 1 1001.5,392.08Z" style="fill:none;stroke:#F15A60;stroke-width:0.625" />
<path d="M1008.5,381.13L1008.5,381.13A3.125,3.125 0 1 1 1002.3,381.13A3.125,3.125 0 1 1 1008.5,381.13Z" style="fill:none;stroke:#F15A60;stroke-width:0.625" />
<path d="M1015.5,389.11A3.125,3.125 0 1 1 1009.2,389.11A3.125,3.125 0 1 1 1015.5,389.11Z" style="fill:none;stroke:#F15A60;stroke-width:0.625" />
<path d="M1022.4,382.94L1022.4,382.94A3.125,3.125 0 1 1 1016.2,382.94A3.125,3.125 0 1 1 1022.4,382.94Z" style="fill:none;stroke:#F15A60;stroke-width:0.625" />
<path d="M1029.4,368.54A3.125,3.125 0 1 1 1023.1,368.54A3.125,3.125 0 1 1 1029.4,368.54Z" style="fill:none;stroke:#F15A60;stroke-width:0.625" />
<path d="M1036.3,381.62L1036.3,381.62A3.125,3.125 0 1 1 1030.1,381.62A3.125,3.125 0 1 1 1036.3,381.62Z" style="fill:none;stroke:#F15A60;stroke-width:0.625" />
<path d="M1043.3,392.06A3.125,3.125 0 1 1 1037.1,392.06A3.125,3.125 0 1 1 1043.3,392.06Z" style="fill:none;stroke:#F15A60;stroke-width:0.625" />
<path d="M1050.3,422A3.125,3.125 0 1 1 1044,422A3.125,3.125 0 1 1 1050.3,422Z" style="fill:none;stroke:#F15A60;stroke-width:0.625" />
<path d="M1057.2,393.49L1057.2,393.49A3.125,3.125 0 1 1 1051,393.49A3.125,3.125 0 1 1 1057.2,393.49Z" style="fill:none;stroke:#F15A60;stroke-width:0.625" />
<path d="M1064.2,427.94A3.125,3.125 0 1 1 1057.9,427.94A3.125,3.125 0 1 1 1064.2,427.94Z" style="fill:none;stroke:#F15A60;stroke-width:0.625" />
<path d="M1071.1,423.09A3.125,3.125 0 1 1 1064.9,423.09A3.125,3.125 0 1 1 1071.1,423.09Z" style="fill:none;stroke:#F15A60;stroke-width:0.625" />
<path d="M1078.1,420.15A3.125,3.125 0 1 1 1071.9,420.15A3.125,3.125 0 1 1 1078.1,420.15Z" style="fill:none;stroke:#F15A60;stroke-width:0.625" />
<path d="M1085.1,408.16L1085.1,408.16A3.125,3.125 0 1 1 1078.8,408.16A3.125,3.125 0 1 1 1085.1,408.16Z" style="fill:none;stroke:#F15A60;stroke-width:0.625" />
<path d="M1092,453.94A3.125,3.125 0 1 1 1085.8,453.94A3.125,3.125 0 1 1 1092,453.94Z" style="fill:none;stroke:#F15A60;stroke-width:0.625" />
<path d="M1099,432.42A3.125,3.125 0 1 1 1092.7,432.42A3.125,3.125 0 1 1 1099,432.42Z" style="fill:none;stroke:#F15A60;stroke-width:0.625" />
<path d="M1105.9,442.7A3.125,3.125 0 1 1 1099.7,442.7A3.125,3.125 0 1 1 1105.9,442.7Z" style="fill:none;stroke:#F15A60;stroke-width:0.625" />
<path d="M1112.9,421.34L1112.9,421.34A3.125,3.125 0 1 1 1106.7,421.34A3.125,3.125 0 1 1 1112.9,421.34Z" style="fill:none;stroke:#F15A60;stroke-width:0.625" />
<path d="M1119.9,423.03A3.125,3.125 0 1 1 1113.6,423.03A3.125,3.125 0 1 1 1119.9,423.03Z" style="fill:none;stroke:#F15A60;stroke-width:0.625" />
<path d="M1126.8,450.39L1126.8,450.39A3.125,3.125 0 1 1 1120.6,450.39A3.125,3.125 0 1 1 1126.8,450.39Z" style="fill:none;stroke:#F15A60;stroke-width:0.625" />
<path d="M1133.8,444.56A3.125,3.125 0 1 1 1127.5,444.56A3.125,3.125 0 1 1 1133.8,444.56Z" style="fill:none;stroke:#F15A60;stroke-width:0.625" />
<path d="M1140.7,454.32L1140.7,454.32A3.125,3.125 0 1 1 1134.5,454.32A3.125,3.125 0 1 1 1140.7,454.32Z" style="fill:none;stroke:#F15A60;stroke-width:0.625" />
<path d="M1147.7,434.33A3.125,3.125 0 1 1 1141.4,434.33A3.125,3.125 0 1 1 1147.7,434.33Z" style="fill:none;stroke:#F15A60;stroke-width:0.625" />
<path d="M1154.7,411.88A3.125,3.125 0 1 1 1148.4,411.88A3.125,3.125 0 1 1 1154.7,411.88Z" style="fill:none;stroke:#F15A60;stroke-width:0.625" />
<path d="M1161.6,448.84L1161.6,448.84A3.125,3.125 0 1 1 1155.4,448.84A3.125,3.125 0 1 1 1161.6,448.84Z" style="fill:none;stroke:#F15A60;stroke-width:0.625" />
<path d="M1168.6,422.06A3.125,3.125 0 1 1 1162.3,422.06A3.125,3.125 0 1 1 1168.6,422.06Z" style="fill:none;stroke:#F15A60;stroke-width:0.625" />
<path d="M1175.5,411.75A3.125,3.125 0 1 1 1169.3,411.75A3.125,3.125 0 1 1 1175.5,411.75Z" style="fill:none;stroke:#F15A60;stroke-width:0.625" />
<path d="M1182.5,435.34L1182.5,435.34A3.125,3.125 0 1 1 1176.2,435.34A3.125,3.125 0 1 1 1182.5,435.34Z" style="fill:none;stroke:#F15A60;stroke-width:0.625" />
<path d="M1189.5,405.17A3.125,3.125 0 1 1 1183.2,405.17A3.125,3.125 0 1 1 1189.5,405.17Z" style="fill:none;stroke:#F15A60;stroke-width:0.625" />
<path d="M1196.4,417.66A3.125,3.125 0 1 1 1190.2,417.66A3.125,3.125 0 1 1 1196.4,417.66Z" style="fill:none;stroke:#F15A60;stroke-width:0.625" />
<path d="M1203.4,401.29A3.125,3.125 0 1 1 1197.1,401.29A3.125,3.125 0 1 1 1203.4,401.29Z" style="fill:none;stroke:#F15A60;stroke-width:0.625" />
<path d="M1210.3,386.86L1210.3,386.86A3.125,3.125 0 1 1 1204.1,386.86A3.125,3.125 0 1 1 1210.3,386.86Z" style="fill:none;stroke:#F15A60;stroke-width:0.625" />
<path d="M1217.3,395.22A3.125,3.125 0 1 1 1211,395.22A3.125,3.125 0 1 1 1217.3,395.22Z" style="fill:none;stroke:#F15A60;stroke-width:0.625" />
<path d="M1224.3,399.69A3.125,3.125 0 1 1 1218,399.69A3.125,3.125 0 1 1 1224.3,399.69Z" style="fill:none;stroke:#F15A60;stroke-width:0.625" />
<path d="M1231.2,411.17L1231.2,411.17A3.125,3.125 0 1 1 1225,411.17A3.125,3.125 0 1 1 1231.2,411.17Z" style="fill:none;stroke:#F15A60;stroke-width:0.625" />
<path d="M1238.2,376.03A3.125,3.125 0 1 1 1231.9,376.03A3.125,3.125 0 1 1 1238.2,376.03Z" style="fill:none;stroke:#F15A60;stroke-width:0.625" />
<path d="M1245.1,393.22A3.125,3.125 0 1 1 1238.9,393.22A3.125,3.125 0 1 1 1245.1,393.22Z" style="fill:none;stroke:#F15A60;stroke-width:0.625" />
<path d="M1252.1,373.24A3.125,3.125 0 1 1 1245.8,373.24A3.125,3.125 0 1 1 1252.1,373.24Z" style="fill:none;stroke:#F15A60;stroke-width:0.625" />
<path d="M1259.1,405A3.125,3.125 0 1 1 1252.8,405A3.125,3.125 0 1 1 1259.1,405Z" style="fill:none;stroke:#F15A60;stroke-width:0.625" />
<path d="M1266,388.47A3.125,3.125 0 1 1 1259.8,388.47A3.125,3.125 0 1 1 1266,388.47Z" style="fill:none;stroke:#F15A60;stroke-width:0.625" />
<path d="M1273,387.3A3.125,3.125 0 1 1 1266.7,387.3A3.125,3.125 0 1 1 1273,387.3Z" style="fill:none;stroke:#F15A60;stroke-width:0.625" />
<path d="M1279.9,387.53A3.125,3.125 0 1 1 1273.7,387.53A3.125,3.125 0 1 1 1279.9,387.53Z" style="fill:none;stroke:#F15A60;stroke-width:0.625" />
<path d="M1286.9,366.97L1286.9,366.97A3.125,3.125 0 1 1 1280.6,366.97A3.125,3.125 0 1 1 1286.9,366.97Z" style="fill:none;stroke:#F15A60;stroke-width:0.625" />
<path d="M1293.8,379.84L1293.8,379.84A3.125,3.125 0 1 1 1287.6,379.84A3.125,3.125 0 1 1 1293.8,379.84Z" style="fill:none;stroke:#F15A60;stroke-width:0.625" />
<path d="M1300.8,325.4A3.125,3.125 0 1 1 1294.6,325.4A3.125,3.125 0 1 1 1300.8,325.4Z" style="fill:none;stroke:#F15A60;stroke-width:0.625" />
<path d="M1307.8,370.58L1307.8,370.58A3.125,3.125 0 1 1 1301.5,370.58A3.125,3.125 0 1 1 1307.8,370.58Z" style="fill:none;stroke:#F15A60;stroke-width:0.625" />
<path d="M1314.7,329.18A3.125,3.125 0 1 1 1308.5,329.18A3.125,3.125 0 1 1 1314.7,329.18Z" style="fill:none;stroke:#F15A60;stroke-width:0.625" />
<path d="M1321.7,321.75L1321.7,321.75A3.125,3.125 0 1 1 1315.4,321.75A3.125,3.125 0 1 1 1321.7,321.75Z" style="fill:none;stroke:#F15A60;stroke-width:0.625" />
<path d="M1328.6,353.15A3.125,3.125 0 1 1 1322.4,353.15A3.125,3.125 0 1 1 1328.6,353.15Z" style="fill:none;stroke:#F15A60;stroke-width:0.625" />
<path d="M1335.6,340.44L1335.6,340.44A3.125,3.125 0 1 1 1329.4,340.44A3.125,3.125 0 1 1 1335.6,340.44Z" style="fill:none;stroke:#F15A60;stroke-width:0.625" />
<path d="M1342.6,312.25A3.125,3.125 0 1 1 1336.3,312.25A3.125,3.125 0 1 1 1342.6,312.25Z" style="fill:none;stroke:#F15A60;stroke-width:0.625" />
<path d="M1349.5,314.83L1349.5,314.83A3.125,3.125 0 1 1 1343.3,314.83A3.125,3.125 0 1 1 1349.5,314.83Z" style="fill:none;stroke:#F15A60;stroke-width:0.625" />
<path d="M1356.5,333.12L1356.5,333.12A3.125,3.125 0 1 1 1350.2,333.12A3.125,3.125 0 1 1 1356.5,333.12Z" style="fill:none;stroke:#F15A60;stroke-width:0.625" />
<path d="M1363.4,303.03L1363.4,303.03A3.125,3.125 0 1 1 1357.2,303.03A3.125,3.125 0 1 1 1363.4,303.03Z" style="fill:none;stroke:#F15A60;stroke-width:0.625" />
<path d="M1370.4,313.89A3.125,3.125 0 1 1 1364.2,313.89A3.125,3.125 0 1 1 1370.4,313.89Z" style="fill:none;stroke:#F15A60;stroke-width:0.625" />
<path d="M1377.4,336.7A3.125,3.125 0 1 1 1371.1,336.7A3.125,3.125 0 1 1 1377.4,336.7Z" style="fill:none;stroke:#F15A60;stroke-width:0.625" />
<path d="M1384.3,351.54A3.125,3.125 0 1 1 1378.1,351.54A3.125,3.125 0 1 1 1384.3,351.54Z" style="fill:none;stroke:#F15A60;stroke-width:0.625" />
<path d="M1391.3,338.97L1391.3,338.97A3.125,3.125 0 1 1 1385,338.97A3.125,3.125 0 1 1 1391.3,338.97Z" style="fill:none;stroke:#F15A60;stroke-width:0.625" />
<path d="M1398.2,351.88A3.125,3.125 0 1 1 1392,351.88A3.125,3.125 0 1 1 1398.2,351.88Z" style="fill:none;stroke:#F15A60;stroke-width:0.625" />
<path d="M1405.2,325.31L1405.2,325.31A3.125,3.125 0 1 1 1399,325.31A3.125,3.125 0 1 1 1405.2,325.31Z" style="fill:none;stroke:#F15A60;stroke-width:0.625" />
<path d="M1412.2,316.74A3.125,3.125 0 1 1 1405.9,316.74A3.125,3.125 0 1 1 1412.2,316.74Z" style="fill:none;stroke:#F15A60;stroke-width:0.625" />
<path d="M1419.1,315.15L1419.1,315.15A3.125,3.125 0 1 1 1412.9,315.15A3.125,3.125 0 1 1 1419.1,315.15Z" style="fill:none;stroke:#F15A60;stroke-width:0.625" />
<path d="M1426.1,320.94A3.125,3.125 0 1 1 1419.8,320.94A3.125,3.125 0 1 1 1426.1,320.94Z" style="fill:none;stroke:#F15A60;stroke-width:0.625" />
<path d="M1433,318.41L1433,318.41A3.125,3.125 0 1 1 1426.8,318.41A3.125,3.125 0 1 1 1433,318.41Z" style="fill:none;stroke:#F15A60;stroke-width:0.625" />
<path d="M1440,352.9A3.125,3.125 0 1 1 1433.8,352.9A3.125,3.125 0 1 1 1440,352.9Z" style="fill:none;stroke:#F15A60;stroke-width:0.625" />
<path d="M51.925,395.16L58.885,422.79L65.844,434.68L72.804,436.91L79.763,433.98L86.723,428.91L93.682,423.52L100.64,418.79L107.6,415.1L114.56,412.47L121.52,410.78L128.48,409.81L135.44,409.34L142.4,409.19L149.36,409.23L156.32,409.35L163.28,409.5L170.24,409.64L177.2,409.75L184.16,409.83L191.12,409.89L198.08,409.92L205.04,409.94L211.99,409.95L218.95,409.95L225.91,409.94L232.87,409.94L239.83,409.94L246.79,409.93L253.75,423.03L260.71,444.33L267.67,491.17L274.63,442.08L281.59,415.89L288.55,382.94L295.51,372.84L302.47,367.86L309.43,352.39L316.39,355.04L323.35,361.96L330.31,357.8L337.27,342.14L344.23,352.13L351.19,357.04L358.15,350.73L365.1,338.49L372.06,337.21L379.02,339.61L385.98,337.77L392.94,332.52L399.9,338.54L406.86,326.78L413.82,316.93L420.78,329.84L427.74,324.92L434.7,336.44L441.66,316.77L448.62,336.29L455.58,332.49L462.54,351.54L469.5,330.12L476.46,326.79L483.42,321.83L490.38,334.87L497.34,355.92L504.3,369.95L511.26,366.78L518.21,362.64L525.17,368.74L532.13,367.15L539.09,353.55L546.05,360.66L553.01,364.86L559.97,369.84L566.93,384.87L573.89,399.02L580.85,415.84L587.81,409.07L594.77,412.95L601.73,420.87L608.69,422.94L615.65,449.67L622.61,437.67L629.57,450.77L636.53,465.85L643.49,806.88L650.45,680.31L657.41,493.13L664.37,440.53L671.32,429.07L678.28,480.43L685.24,464.6L692.2,408.55L699.16,395.62L706.12,369.02L713.08,388.69L720.04,383.63L727,393.12L733.96,371.22L740.92,364.73L747.88,360.58L754.84,358.47L761.8,366.26L768.76,375.71L775.72,385.29L782.68,383.2L789.64,375.68L796.6,375.58L803.56,364.74L810.52,349.37L817.48,340.95L824.43,345.01L831.39,326.91L838.35,280.35L845.31,270.78L852.27,450.55L859.23,415.17L866.19,388.63L873.15,328.76L880.11,309.6L887.07,323.83L894.03,333.91L900.99,343.02L907.95,343.25L914.91,338.16L921.87,344.68L928.83,351.89L935.79,354.63L942.75,357.15L949.71,354.92L956.67,348.89L963.63,348.82L970.59,357.85L977.54,361.31L984.5,357.47L991.46,365.95L998.42,395.1L1005.4,387.22L1012.3,385.23L1019.3,408.37L1026.3,393.52L1033.2,432.63L1040.2,448.16L1047.1,286.99L1054.1,360.92L1061.1,494.65L1068,469.15L1075,453.61L1081.9,415.24L1088.9,420.54L1095.9,396.15L1102.8,402.69L1109.8,392.19L1116.7,400.83L1123.7,502.19L1130.7,443.73L1137.6,410.78L1144.6,377.65L1151.5,365.76L1158.5,383.41L1165.5,376.56L1172.4,385.15L1179.4,49.313L1186.3,165.95L1193.3,284.6L1200.3,341.88L1207.2,372.84L1214.2,421.5L1221.1,439.58L1228.1,508.84L1235,479.2L1242,396.46L1249,372.87L1255.9,420.35L1262.9,407.18L1269.8,399.91L1276.8,382.85L1283.8,369.53L1290.7,361.88L1297.7,344.85L1304.6,348.25L1311.6,338.26L1318.6,310.66L1325.5,325.78L1332.5,335.56L1339.4,346.15L1346.4,347.38L1353.4,347.7L1360.3,344.06L1367.3,336.49L1374.2,390.47L1381.2,377.73L1388.2,470.31L1395.1,429.84L1402.1,387.92L1409,332.95L1416,300.08L1423,264.02L1429.9,231.55L1436.9,272.44" style="fill:none;stroke:#7AC36A;stroke-width:1.25;stroke-dasharray:7.5,2.5" />
<path d="M49.258,392.49L54.592,392.49L54.592,397.83L49.258,397.83Z" style="fill:none;stroke:#7AC36A;stroke-width:0.625" />
<path d="M56.217,420.13L61.552,420.13L61.552,425.46L56.217,425.46Z" style="fill:none;stroke:#7AC36A;stroke-width:0.625" />
<path d="M63.177,432.01L68.511,432.01L68.511,437.35L63.177,437.35Z" style="fill:none;stroke:#7AC36A;stroke-width:0.625" />
<path d="M70.136,434.24L75.471,434.24L75.471,439.58L70.136,439.58Z" style="fill:none;stroke:#7AC36A;stroke-width:0.625" />
<path d="M77.096,431.31L82.431,431.31L82.431,436.65L77.096,436.65Z" style="fill:none;stroke:#7AC36A;stroke-width:0.625" />
<path d="M84.055,426.24L89.39,426.24L89.39,431.57L84.055,431.57Z" style="fill:none;stroke:#7AC36A;stroke-width:0.625" />
<path d="M91.015,420.85L96.35,420.85L96.35,426.19L91.015,426.19Z" style="fill:none;stroke:#7AC36A;stroke-width:0.625" />
<path d="M97.974,416.12L103.31,416.12L103.31,421.46L97.974,421.46Z" style="fill:none;stroke:#7AC36A;stroke-width:0.625" />
<path d="M104.93,412.43L110.27,412.43L110.27,417.76L104.93,417.76Z" style="fill:none;stroke:#7AC36A;stroke-width:0.625" />
<path d="M111.89,409.81L117.23,409.81L117.23,415.14L111.89,415.14Z" style="fill:none;stroke:#7AC36A;stroke-width:0.625" />
<path d="M118.85,408.11L124.19,408.11L124.19,413.45L118.85,413.45Z" style="fill:none;stroke:#7AC36A;stroke-width:0.625" />
<path d="M125.81,407.14L131.15,407.14L131.15,412.47L125.81,412.47Z" style="fill:none;stroke:#7AC36A;stroke-width:0.625" />
<path d="M132.77,406.67L138.11,406.67L138.11,412L132.77,412Z" style="fill:none;stroke:#7AC36A;stroke-width:0.625" />
<path d="M139.73,406.52L145.07,406.52L145.07,411.86L139.73,411.86Z" style="fill:none;stroke:#7AC36A;stroke-width:0.625" />
<path d="M146.69,406.56L152.03,406.56L152.03,411.9L146.69,411.9Z" style="fill:none;stroke:#7AC36A;stroke-width:0.625" />
<path d="M153.65,406.68L158.99,406.68L158.99,412.02L153.65,412.02Z" style="fill:none;stroke:#7AC36A;stroke-width:0.625" />
<path d="M160.61,406.83L165.95,406.83L165.95,412.17L160.61,412.17Z" style="fill:none;stroke:#7AC36A;stroke-width:0.625" />
<path d="M167.57,406.97L172.9,406.97L172.9,412.31L167.57,412.31Z" style="fill:none;stroke:#7AC36A;stroke-width:0.625" />
<path d="M174.53,407.08L179.86,407.08L179.86,412.42L174.53,412.42Z" style="fill:none;stroke:#7AC36A;stroke-width:0.625" />
<path d="M181.49,407.17L186.82,407.17L186.82,412.5L181.49,412.5Z" style="fill:none;stroke:#7AC36A;stroke-width:0.625" />
<path d="M188.45,407.22L193.78,407.22L193.78,412.56L188.45,412.56Z" style="fill:none;stroke:#7AC36A;stroke-width:0.625" />
<path d="M195.41,407.25L200.74,407.25L200.74,412.59L195.41,412.59Z" style="fill:none;stroke:#7AC36A;stroke-width:0.625" />
<path d="M202.37,407.27L207.7,407.27L207.7,412.61L202.37,412.61Z" style="fill:none;stroke:#7AC36A;stroke-width:0.625" />
<path d="M209.33,407.28L214.66,407.28L214.66,412.61L209.33,412.61Z" style="fill:none;stroke:#7AC36A;stroke-width:0.625" />
<path d="M216.29,407.28L221.62,407.28L221.62,412.61L216.29,412.61Z" style="fill:none;stroke:#7AC36A;stroke-width:0.625" />
<path d="M223.25,407.28L228.58,407.28L228.58,412.61L223.25,412.61Z" style="fill:none;stroke:#7AC36A;stroke-width:0.625" />
<path d="M230.21,407.27L235.54,407.27L235.54,412.61L230.21,412.61Z" style="fill:none;stroke:#7AC36A;stroke-width:0.625" />
<path d="M237.17,407.27L242.5,407.27L242.5,412.6L237.17,412.6Z" style="fill:none;stroke:#7AC36A;stroke-width:0.625" />
<path d="M244.12,407.27L249.46,407.27L249.46,412.6L244.12,412.6Z" style="fill:none;stroke:#7AC36A;stroke-width:0.625" />
<path d="M251.08,420.37L256.42,420.37L256.42,425.7L251.08,425.7Z" style="fill:none;stroke:#7AC36A;stroke-width:0.625" />
<path d="M258.04,441.67L263.38,441.67L263.38,447L258.04,447Z" style="fill:none;stroke:#7AC36A;stroke-width:0.625" />
<path d="M265,488.5L270.34,488.5L270.34,493.84L265,493.84Z" style="fill:none;stroke:#7AC36A;stroke-width:0.625" />
<path d="M271.96,439.41L277.3,439.41L277.3,444.74L271.96,444.74Z" style="fill:none;stroke:#7AC36A;stroke-width:0.625" />
<path d="M278.92,413.22L284.26,413.22L284.26,418.56L278.92,418.56Z" style="fill:none;stroke:#7AC36A;stroke-width:0.625" />
<path d="M285.88,380.28L291.22,380.28L291.22,385.61L285.88,385.61Z" style="fill:none;stroke:#7AC36A;stroke-width:0.625" />
<path d="M292.84,370.18L298.18,370.18L298.18,375.51L292.84,375.51Z" style="fill:none;stroke:#7AC36A;stroke-width:0.625" />
<path d="M299.8,365.19L305.14,365.19L305.14,370.53L299.8,370.53Z" style="fill:none;stroke:#7AC36A;stroke-width:0.625" />
<path d="M306.76,349.72L312.1,349.72L312.1,355.05L306.76,355.05Z" style="fill:none;stroke:#7AC36A;stroke-width:0.625" />
<path d="M313.72,352.37L319.06,352.37L319.06,357.7L313.72,357.7Z" style="fill:none;stroke:#7AC36A;stroke-width:0.625" />
<path d="M320.68,359.29L326.01,359.29L326.01,364.63L320.68,364.63Z" style="fill:none;stroke:#7AC36A;stroke-width:0.625" />
<path d="M327.64,355.13L332.97,355.13L332.97,360.46L327.64,360.46Z" style="fill:none;stroke:#7AC36A;stroke-width:0.625" />
<path d="M334.6,339.47L339.93,339.47L339.93,344.81L334.6,344.81Z" style="fill:none;stroke:#7AC36A;stroke-width:0.625" />
<path d="M341.56,349.46L346.89,349.46L346.89,354.79L341.56,354.79Z" style="fill:none;stroke:#7AC36A;stroke-width:0.625" />
<path d="M348.52,354.37L353.85,354.37L353.85,359.71L348.52,359.71Z" style="fill:none;stroke:#7AC36A;stroke-width:0.625" />
<path d="M355.48,348.06L360.81,348.06L360.81,353.4L355.48,353.4Z" style="fill:none;stroke:#7AC36A;stroke-width:0.625" />
<path d="M362.44,335.82L367.77,335.82L367.77,341.16L362.44,341.16Z" style="fill:none;stroke:#7AC36A;stroke-width:0.625" />
<path d="M369.4,334.54L374.73,334.54L374.73,339.88L369.4,339.88Z" style="fill:none;stroke:#7AC36A;stroke-width:0.625" />
<path d="M376.36,336.94L381.69,336.94L381.69,342.27L376.36,342.27Z" style="fill:none;stroke:#7AC36A;stroke-width:0.625" />
<path d="M383.32,335.1L388.65,335.1L388.65,340.44L383.32,340.44Z" style="fill:none;stroke:#7AC36A;stroke-width:0.625" />
<path d="M390.28,329.86L395.61,329.86L395.61,335.19L390.28,335.19Z" style="fill:none;stroke:#7AC36A;stroke-width:0.625" />
<path d="M397.24,335.87L402.57,335.87L402.57,341.21L397.24,341.21Z" style="fill:none;stroke:#7AC36A;stroke-width:0.625" />
<path d="M404.19,324.11L409.53,324.11L409.53,329.45L404.19,329.45Z" style="fill:none;stroke:#7AC36A;stroke-width:0.625" />
<path d="M411.15,314.26L416.49,314.26L416.49,319.59L411.15,319.59Z" style="fill:none;stroke:#7AC36A;stroke-width:0.625" />
<path d="M418.11,327.17L423.45,327.17L423.45,332.5L418.11,332.5Z" style="fill:none;stroke:#7AC36A;stroke-width:0.625" />
<path d="M425.07,322.26L430.41,322.26L430.41,327.59L425.07,327.59Z" style="fill:none;stroke:#7AC36A;stroke-width:0.625" />
<path d="M432.03,333.78L437.37,333.78L437.37,339.11L432.03,339.11Z" style="fill:none;stroke:#7AC36A;stroke-width:0.625" />
<path d="M438.99,314.1L444.33,314.1L444.33,319.43L438.99,319.43Z" style="fill:none;stroke:#7AC36A;stroke-width:0.625" />
<path d="M445.95,333.62L451.29,333.62L451.29,338.96L445.95,338.96Z" style="fill:none;stroke:#7AC36A;stroke-width:0.625" />
<path d="M452.91,329.82L458.25,329.82L458.25,335.16L452.91,335.16Z" style="fill:none;stroke:#7AC36A;stroke-width:0.625" />
<path d="M459.87,348.87L465.21,348.87L465.21,354.21L459.87,354.21Z" style="fill:none;stroke:#7AC36A;stroke-width:0.625" />
<path d="M466.83,327.45L472.17,327.45L472.17,332.79L466.83,332.79Z" style="fill:none;stroke:#7AC36A;stroke-width:0.625" />
<path d="M473.79,324.12L479.12,324.12L479.12,329.46L473.79,329.46Z" style="fill:none;stroke:#7AC36A;stroke-width:0.625" />
<path d="M480.75,319.16L486.08,319.16L486.08,324.5L480.75,324.5Z" style="fill:none;stroke:#7AC36A;stroke-width:0.625" />
<path d="M487.71,332.2L493.04,332.2L493.04,337.54L487.71,337.54Z" style="fill:none;stroke:#7AC36A;stroke-width:0.625" />
<path d="M494.67,353.25L500,353.25L500,358.59L494.67,358.59Z" style="fill:none;stroke:#7AC36A;stroke-width:0.625" />
<path d="M501.63,367.28L506.96,367.28L506.96,372.61L501.63,372.61Z" style="fill:none;stroke:#7AC36A;stroke-width:0.625" />
<path d="M508.59,364.11L513.92,364.11L513.92,369.45L508.59,369.45Z" style="fill:none;stroke:#7AC36A;stroke-width:0.625" />
<path d="M515.55,359.97L520.88,359.97L520.88,365.31L515.55,365.31Z" style="fill:none;stroke:#7AC36A;stroke-width:0.625" />
<path d="M522.51,366.08L527.84,366.08L527.84,371.41L522.51,371.41Z" style="fill:none;stroke:#7AC36A;stroke-width:0.625" />
<path d="M529.47,364.48L534.8,364.48L534.8,369.82L529.47,369.82Z" style="fill:none;stroke:#7AC36A;stroke-width:0.625" />
<path d="M536.43,350.88L541.76,350.88L541.76,356.22L536.43,356.22Z" style="fill:none;stroke:#7AC36A;stroke-width:0.625" />
<path d="M543.39,357.99L548.72,357.99L548.72,363.32L543.39,363.32Z" style="fill:none;stroke:#7AC36A;stroke-width:0.625" />
<path d="M550.35,362.19L555.68,362.19L555.68,367.52L550.35,367.52Z" style="fill:none;stroke:#7AC36A;stroke-width:0.625" />
<path d="M557.3,367.18L562.64,367.18L562.64,372.51L557.3,372.51Z" style="fill:none;stroke:#7AC36A;stroke-width:0.625" />
<path d="M564.26,382.2L569.6,382.2L569.6,387.54L564.26,387.54Z" style="fill:none;stroke:#7AC36A;stroke-width:0.625" />
<path d="M571.22,396.36L576.56,396.36L576.56,401.69L571.22,401.69Z" style="fill:none;stroke:#7AC36A;stroke-width:0.625" />
<path d="M578.18,413.17L583.52,413.17L583.52,418.51L578.18,418.51Z" style="fill:none;stroke:#7AC36A;stroke-width:0.625" />
<path d="M585.14,406.4L590.48,406.4L590.48,411.73L585.14,411.73Z" style="fill:none;stroke:#7AC36A;stroke-width:0.625" />
<path d="M592.1,410.28L597.44,410.28L597.44,415.62L592.1,415.62Z" style="fill:none;stroke:#7AC36A;stroke-width:0.625" />
<path d="M599.06,418.2L604.4,418.2L604.4,423.54L599.06,423.54Z" style="fill:none;stroke:#7AC36A;stroke-width:0.625" />
<path d="M606.02,420.28L611.36,420.28L611.36,425.61L606.02,425.61Z" style="fill:none;stroke:#7AC36A;stroke-width:0.625" />
<path d="M612.98,447L618.32,447L618.32,452.34L612.98,452.34Z" style="fill:none;stroke:#7AC36A;stroke-width:0.625" />
<path d="M619.94,435.01L625.28,435.01L625.28,440.34L619.94,440.34Z" style="fill:none;stroke:#7AC36A;stroke-width:0.625" />
<path d="M626.9,448.1L632.23,448.1L632.23,453.43L626.9,453.43Z" style="fill:none;stroke:#7AC36A;stroke-width:0.625" />
<path d="M633.86,463.18L639.19,463.18L639.19,468.52L633.86,468.52Z" style="fill:none;stroke:#7AC36A;stroke-width:0.625" />
<path d="M640.82,804.21L646.15,804.21L646.15,809.54L640.82,809.54Z" style="fill:none;stroke:#7AC36A;stroke-width:0.625" />
<path d="M647.78,677.64L653.11,677.64L653.11,682.97L647.78,682.97Z" style="fill:none;stroke:#7AC36A;stroke-width:0.625" />
<path d="M654.74,490.47L660.07,490.47L660.07,495.8L654.74,495.8Z" style="fill:none;stroke:#7AC36A;stroke-width:0.625" />
<path d="M661.7,437.87L667.03,437.87L667.03,443.2L661.7,443.2Z" style="fill:none;stroke:#7AC36A;stroke-width:0.625" />
<path d="M668.66,426.4L673.99,426.4L673.99,431.74L668.66,431.74Z" style="fill:none;stroke:#7AC36A;stroke-width:0.625" />
<path d="M675.62,477.76L680.95,477.76L680.95,483.1L675.62,483.1Z" style="fill:none;stroke:#7AC36A;stroke-width:0.625" />
<path d="M682.58,461.93L687.91,461.93L687.91,467.27L682.58,467.27Z" style="fill:none;stroke:#7AC36A;stroke-width:0.625" />
<path d="M689.54,405.88L694.87,405.88L694.87,411.22L689.54,411.22Z" style="fill:none;stroke:#7AC36A;stroke-width:0.625" />
<path d="M696.5,392.95L701.83,392.95L701.83,398.29L696.5,398.29Z" style="fill:none;stroke:#7AC36A;stroke-width:0.625" />
<path d="M703.46,366.36L708.79,366.36L708.79,371.69L703.46,371.69Z" style="fill:none;stroke:#7AC36A;stroke-width:0.625" />
<path d="M710.41,386.03L715.75,386.03L715.75,391.36L710.41,391.36Z" style="fill:none;stroke:#7AC36A;stroke-width:0.625" />
<path d="M717.37,380.97L722.71,380.97L722.71,386.3L717.37,386.3Z" style="fill:none;stroke:#7AC36A;stroke-width:0.625" />
<path d="M724.33,390.45L729.67,390.45L729.67,395.79L724.33,395.79Z" style="fill:none;stroke:#7AC36A;stroke-width:0.625" />
<path d="M731.29,368.55L736.63,368.55L736.63,373.89L731.29,373.89Z" style="fill:none;stroke:#7AC36A;stroke-width:0.625" />
<path d="M738.25,362.06L743.59,362.06L743.59,367.39L738.25,367.39Z" style="fill:none;stroke:#7AC36A;stroke-width:0.625" />
<path d="M745.21,357.92L750.55,357.92L750.55,363.25L745.21,363.25Z" style="fill:none;stroke:#7AC36A;stroke-width:0.625" />
<path d="M752.17,355.81L757.51,355.81L757.51,361.14L752.17,361.14Z" style="fill:none;stroke:#7AC36A;stroke-width:0.625" />
<path d="M759.13,363.59L764.47,363.59L764.47,368.93L759.13,368.93Z" style="fill:none;stroke:#7AC36A;stroke-width:0.625" />
<path d="M766.09,373.04L771.43,373.04L771.43,378.38L766.09,378.38Z" style="fill:none;stroke:#7AC36A;stroke-width:0.625" />
<path d="M773.05,382.62L778.39,382.62L778.39,387.96L773.05,387.96Z" style="fill:none;stroke:#7AC36A;stroke-width:0.625" />
<path d="M780.01,380.53L785.34,380.53L785.34,385.87L780.01,385.87Z" style="fill:none;stroke:#7AC36A;stroke-width:0.625" />
<path d="M786.97,373.01L792.3,373.01L792.3,378.35L786.97,378.35Z" style="fill:none;stroke:#7AC36A;stroke-width:0.625" />
<path d="M793.93,372.91L799.26,372.91L799.26,378.25L793.93,378.25Z" style="fill:none;stroke:#7AC36A;stroke-width:0.625" />
<path d="M800.89,362.07L806.22,362.07L806.22,367.41L800.89,367.41Z" style="fill:none;stroke:#7AC36A;stroke-width:0.625" />
<path d="M807.85,346.7L813.18,346.7L813.18,352.03L807.85,352.03Z" style="fill:none;stroke:#7AC36A;stroke-width:0.625" />
<path d="M814.81,338.28L820.14,338.28L820.14,343.62L814.81,343.62Z" style="fill:none;stroke:#7AC36A;stroke-width:0.625" />
<path d="M821.77,342.34L827.1,342.34L827.1,347.67L821.77,347.67Z" style="fill:none;stroke:#7AC36A;stroke-width:0.625" />
<path d="M828.73,324.24L834.06,324.24L834.06,329.57L828.73,329.57Z" style="fill:none;stroke:#7AC36A;stroke-width:0.625" />
<path d="M835.69,277.69L841.02,277.69L841.02,283.02L835.69,283.02Z" style="fill:none;stroke:#7AC36A;stroke-width:0.625" />
<path d="M842.65,268.11L847.98,268.11L847.98,273.45L842.65,273.45Z" style="fill:none;stroke:#7AC36A;stroke-width:0.625" />
<path d="M849.61,447.88L854.94,447.88L854.94,453.22L849.61,453.22Z" style="fill:none;stroke:#7AC36A;stroke-width:0.625" />
<path d="M856.57,412.51L861.9,412.51L861.9,417.84L856.57,417.84Z" style="fill:none;stroke:#7AC36A;stroke-width:0.625" />
<path d="M863.52,385.96L868.86,385.96L868.86,391.3L863.52,391.3Z" style="fill:none;stroke:#7AC36A;stroke-width:0.625" />
<path d="M870.48,326.09L875.82,326.09L875.82,331.43L870.48,331.43Z" style="fill:none;stroke:#7AC36A;stroke-width:0.625" />
<path d="M877.44,306.93L882.78,306.93L882.78,312.26L877.44,312.26Z" style="fill:none;stroke:#7AC36A;stroke-width:0.625" />
<path d="M884.4,321.16L889.74,321.16L889.74,326.49L884.4,326.49Z" style="fill:none;stroke:#7AC36A;stroke-width:0.625" />
<path d="M891.36,331.24L896.7,331.24L896.7,336.58L891.36,336.58Z" style="fill:none;stroke:#7AC36A;stroke-width:0.625" />
<path d="M898.32,340.36L903.66,340.36L903.66,345.69L898.32,345.69Z" style="fill:none;stroke:#7AC36A;stroke-width:0.625" />
<path d="M905.28,340.58L910.62,340.58L910.62,345.91L905.28,345.91Z" style="fill:none;stroke:#7AC36A;stroke-width:0.625" />
<path d="M912.24,335.49L917.58,335.49L917.58,340.83L912.24,340.83Z" style="fill:none;stroke:#7AC36A;stroke-width:0.625" />
<path d="M919.2,342.01L924.54,342.01L924.54,347.35L919.2,347.35Z" style="fill:none;stroke:#7AC36A;stroke-width:0.625" />
<path d="M926.16,349.23L931.5,349.23L931.5,354.56L926.16,354.56Z" style="fill:none;stroke:#7AC36A;stroke-width:0.625" />
<path d="M933.12,351.97L938.45,351.97L938.45,357.3L933.12,357.3Z" style="fill:none;stroke:#7AC36A;stroke-width:0.625" />
<path d="M940.08,354.48L945.41,354.48L945.41,359.82L940.08,359.82Z" style="fill:none;stroke:#7AC36A;stroke-width:0.625" />
<path d="M947.04,352.25L952.37,352.25L952.37,357.59L947.04,357.59Z" style="fill:none;stroke:#7AC36A;stroke-width:0.625" />
<path d="M954,346.22L959.33,346.22L959.33,351.55L954,351.55Z" style="fill:none;stroke:#7AC36A;stroke-width:0.625" />
<path d="M960.96,346.15L966.29,346.15L966.29,351.49L960.96,351.49Z" style="fill:none;stroke:#7AC36A;stroke-width:0.625" />
<path d="M967.92,355.19L973.25,355.19L973.25,360.52L967.92,360.52Z" style="fill:none;stroke:#7AC36A;stroke-width:0.625" />
<path d="M974.88,358.64L980.21,358.64L980.21,363.98L974.88,363.98Z" style="fill:none;stroke:#7AC36A;stroke-width:0.625" />
<path d="M981.84,354.81L987.17,354.81L987.17,360.14L981.84,360.14Z" style="fill:none;stroke:#7AC36A;stroke-width:0.625" />
<path d="M988.8,363.28L994.13,363.28L994.13,368.62L988.8,368.62Z" style="fill:none;stroke:#7AC36A;stroke-width:0.625" />
<path d="M995.76,392.43L1001.1,392.43L1001.1,397.76L995.76,397.76Z" style="fill:none;stroke:#7AC36A;stroke-width:0.625" />
<path d="M1002.7,384.55L1008.1,384.55L1008.1,389.89L1002.7,389.89Z" style="fill:none;stroke:#7AC36A;stroke-width:0.625" />
<path d="M1009.7,382.56L1015,382.56L1015,387.89L1009.7,387.89Z" style="fill:none;stroke:#7AC36A;stroke-width:0.625" />
<path d="M1016.6,405.7L1022,405.7L1022,411.04L1016.6,411.04Z" style="fill:none;stroke:#7AC36A;stroke-width:0.625" />
<path d="M1023.6,390.85L1028.9,390.85L1028.9,396.18L1023.6,396.18Z" style="fill:none;stroke:#7AC36A;stroke-width:0.625" />
<path d="M1030.6,429.96L1035.9,429.96L1035.9,435.29L1030.6,435.29Z" style="fill:none;stroke:#7AC36A;stroke-width:0.625" />
<path d="M1037.5,445.49L1042.8,445.49L1042.8,450.83L1037.5,450.83Z" style="fill:none;stroke:#7AC36A;stroke-width:0.625" />
<path d="M1044.5,284.32L1049.8,284.32L1049.8,289.66L1044.5,289.66Z" style="fill:none;stroke:#7AC36A;stroke-width:0.625" />
<path d="M1051.4,358.25L1056.8,358.25L1056.8,363.59L1051.4,363.59Z" style="fill:none;stroke:#7AC36A;stroke-width:0.625" />
<path d="M1058.4,491.98L1063.7,491.98L1063.7,497.31L1058.4,497.31Z" style="fill:none;stroke:#7AC36A;stroke-width:0.625" />
<path d="M1065.4,466.49L1070.7,466.49L1070.7,471.82L1065.4,471.82Z" style="fill:none;stroke:#7AC36A;stroke-width:0.625" />
<path d="M1072.3,450.95L1077.6,450.95L1077.6,456.28L1072.3,456.28Z" style="fill:none;stroke:#7AC36A;stroke-width:0.625" />
<path d="M1079.3,412.57L1084.6,412.57L1084.6,417.9L1079.3,417.9Z" style="fill:none;stroke:#7AC36A;stroke-width:0.625" />
<path d="M1086.2,417.87L1091.6,417.87L1091.6,423.2L1086.2,423.2Z" style="fill:none;stroke:#7AC36A;stroke-width:0.625" />
<path d="M1093.2,393.48L1098.5,393.48L1098.5,398.82L1093.2,398.82Z" style="fill:none;stroke:#7AC36A;stroke-width:0.625" />
<path d="M1100.1,400.03L1105.5,400.03L1105.5,405.36L1100.1,405.36Z" style="fill:none;stroke:#7AC36A;stroke-width:0.625" />
<path d="M1107.1,389.52L1112.4,389.52L1112.4,394.85L1107.1,394.85Z" style="fill:none;stroke:#7AC36A;stroke-width:0.625" />
<path d="M1114.1,398.16L1119.4,398.16L1119.4,403.5L1114.1,403.5Z" style="fill:none;stroke:#7AC36A;stroke-width:0.625" />
<path d="M1121,499.52L1126.4,499.52L1126.4,504.86L1121,504.86Z" style="fill:none;stroke:#7AC36A;stroke-width:0.625" />
<path d="M1128,441.07L1133.3,441.07L1133.3,446.4L1128,446.4Z" style="fill:none;stroke:#7AC36A;stroke-width:0.625" />
<path d="M1134.9,408.11L1140.3,408.11L1140.3,413.45L1134.9,413.45Z" style="fill:none;stroke:#7AC36A;stroke-width:0.625" />
<path d="M1141.9,374.98L1147.2,374.98L1147.2,380.32L1141.9,380.32Z" style="fill:none;stroke:#7AC36A;stroke-width:0.625" />
<path d="M1148.9,363.1L1154.2,363.1L1154.2,368.43L1148.9,368.43Z" style="fill:none;stroke:#7AC36A;stroke-width:0.625" />
<path d="M1155.8,380.74L1161.2,380.74L1161.2,386.08L1155.8,386.08Z" style="fill:none;stroke:#7AC36A;stroke-width:0.625" />
<path d="M1162.8,373.89L1168.1,373.89L1168.1,379.23L1162.8,379.23Z" style="fill:none;stroke:#7AC36A;stroke-width:0.625" />
<path d="M1169.7,382.48L1175.1,382.48L1175.1,387.81L1169.7,387.81Z" style="fill:none;stroke:#7AC36A;stroke-width:0.625" />
<path d="M1176.7,46.645L1182,46.645L1182,51.98L1176.7,51.98Z" style="fill:none;stroke:#7AC36A;stroke-width:0.625" />
<path d="M1183.7,163.28L1189,163.28L1189,168.62L1183.7,168.62Z" style="fill:none;stroke:#7AC36A;stroke-width:0.625" />
<path d="M1190.6,281.93L1196,281.93L1196,287.26L1190.6,287.26Z" style="fill:none;stroke:#7AC36A;stroke-width:0.625" />
<path d="M1197.6,339.21L1202.9,339.21L1202.9,344.54L1197.6,344.54Z" style="fill:none;stroke:#7AC36A;stroke-width:0.625" />
<path d="M1204.5,370.17L1209.9,370.17L1209.9,375.5L1204.5,375.5Z" style="fill:none;stroke:#7AC36A;stroke-width:0.625" />
<path d="M1211.5,418.84L1216.8,418.84L1216.8,424.17L1211.5,424.17Z" style="fill:none;stroke:#7AC36A;stroke-width:0.625" />
<path d="M1218.5,436.91L1223.8,436.91L1223.8,442.24L1218.5,442.24Z" style="fill:none;stroke:#7AC36A;stroke-width:0.625" />
<path d="M1225.4,506.17L1230.8,506.17L1230.8,511.51L1225.4,511.51Z" style="fill:none;stroke:#7AC36A;stroke-width:0.625" />
<path d="M1232.4,476.53L1237.7,476.53L1237.7,481.87L1232.4,481.87Z" style="fill:none;stroke:#7AC36A;stroke-width:0.625" />
<path d="M1239.3,393.79L1244.7,393.79L1244.7,399.13L1239.3,399.13Z" style="fill:none;stroke:#7AC36A;stroke-width:0.625" />
<path d="M1246.3,370.2L1251.6,370.2L1251.6,375.54L1246.3,375.54Z" style="fill:none;stroke:#7AC36A;stroke-width:0.625" />
<path d="M1253.3,417.68L1258.6,417.68L1258.6,423.02L1253.3,423.02Z" style="fill:none;stroke:#7AC36A;stroke-width:0.625" />
<path d="M1260.2,404.51L1265.6,404.51L1265.6,409.85L1260.2,409.85Z" style="fill:none;stroke:#7AC36A;stroke-width:0.625" />
<path d="M1267.2,397.25L1272.5,397.25L1272.5,402.58L1267.2,402.58Z" style="fill:none;stroke:#7AC36A;stroke-width:0.625" />
<path d="M1274.1,380.18L1279.5,380.18L1279.5,385.51L1274.1,385.51Z" style="fill:none;stroke:#7AC36A;stroke-width:0.625" />
<path d="M1281.1,366.86L1286.4,366.86L1286.4,372.2L1281.1,372.2Z" style="fill:none;stroke:#7AC36A;stroke-width:0.625" />
<path d="M1288.1,359.21L1293.4,359.21L1293.4,364.55L1288.1,364.55Z" style="fill:none;stroke:#7AC36A;stroke-width:0.625" />
<path d="M1295,342.18L1300.4,342.18L1300.4,347.51L1295,347.51Z" style="fill:none;stroke:#7AC36A;stroke-width:0.625" />
<path d="M1302,345.59L1307.3,345.59L1307.3,350.92L1302,350.92Z" style="fill:none;stroke:#7AC36A;stroke-width:0.625" />
<path d="M1308.9,335.6L1314.3,335.6L1314.3,340.93L1308.9,340.93Z" style="fill:none;stroke:#7AC36A;stroke-width:0.625" />
<path d="M1315.9,307.99L1321.2,307.99L1321.2,313.33L1315.9,313.33Z" style="fill:none;stroke:#7AC36A;stroke-width:0.625" />
<path d="M1322.9,323.12L1328.2,323.12L1328.2,328.45L1322.9,328.45Z" style="fill:none;stroke:#7AC36A;stroke-width:0.625" />
<path d="M1329.8,332.9L1335.1,332.9L1335.1,338.23L1329.8,338.23Z" style="fill:none;stroke:#7AC36A;stroke-width:0.625" />
<path d="M1336.8,343.48L1342.1,343.48L1342.1,348.81L1336.8,348.81Z" style="fill:none;stroke:#7AC36A;stroke-width:0.625" />
<path d="M1343.7,344.71L1349.1,344.71L1349.1,350.04L1343.7,350.04Z" style="fill:none;stroke:#7AC36A;stroke-width:0.625" />
<path d="M1350.7,345.03L1356,345.03L1356,350.37L1350.7,350.37Z" style="fill:none;stroke:#7AC36A;stroke-width:0.625" />
<path d="M1357.7,341.39L1363,341.39L1363,346.73L1357.7,346.73Z" style="fill:none;stroke:#7AC36A;stroke-width:0.625" />
<path d="M1364.6,333.83L1369.9,333.83L1369.9,339.16L1364.6,339.16Z" style="fill:none;stroke:#7AC36A;stroke-width:0.625" />
<path d="M1371.6,387.81L1376.9,387.81L1376.9,393.14L1371.6,393.14Z" style="fill:none;stroke:#7AC36A;stroke-width:0.625" />
<path d="M1378.5,375.06L1383.9,375.06L1383.9,380.4L1378.5,380.4Z" style="fill:none;stroke:#7AC36A;stroke-width:0.625" />
<path d="M1385.5,467.64L1390.8,467.64L1390.8,472.97L1385.5,472.97Z" style="fill:none;stroke:#7AC36A;stroke-width:0.625" />
<path d="M1392.5,427.17L1397.8,427.17L1397.8,432.5L1392.5,432.5Z" style="fill:none;stroke:#7AC36A;stroke-width:0.625" />
<path d="M1399.4,385.26L1404.7,385.26L1404.7,390.59L1399.4,390.59Z" style="fill:none;stroke:#7AC36A;stroke-width:0.625" />
<path d="M1406.4,330.28L1411.7,330.28L1411.7,335.62L1406.4,335.62Z" style="fill:none;stroke:#7AC36A;stroke-width:0.625" />
<path d="M1413.3,297.41L1418.7,297.41L1418.7,302.74L1413.3,302.74Z" style="fill:none;stroke:#7AC36A;stroke-width:0.625" />
<path d="M1420.3,261.36L1425.6,261.36L1425.6,266.69L1420.3,266.69Z" style="fill:none;stroke:#7AC36A;stroke-width:0.625" />
<path d="M1427.2,228.88L1432.6,228.88L1432.6,234.22L1427.2,234.22Z" style="fill:none;stroke:#7AC36A;stroke-width:0.625" />
<path d="M1434.2,269.77L1439.5,269.77L1439.5,275.1L1434.2,275.1Z" style="fill:none;stroke:#7AC36A;stroke-width:0.625" />
<path d="M1415,66.978L1440,66.978" style="fill:none;stroke:#F15A60;stroke-width:1.25" />
<path d="M1430.6,66.978A3.125,3.125 0 1 1 1424.4,66.978A3.125,3.125 0 1 1 1430.6,66.978Z" style="fill:none;stroke:#F15A60;stroke-width:0.625" />
<text x="1388.8" y="-61.188" transform="scale(1, -1)"
	style="font-family:Times;font-weight:normal;font-style:normal;font-size:12pt">raw</text>
<path d="M1415,53.117L1440,53.117" style="fill:none;stroke:#7AC36A;stroke-width:1.25;stroke-dasharray:7.5,2.5" />
<path d="M1424.8,50.45L1430.2,50.45L1430.2,55.785L1424.8,55.785Z" style="fill:none;stroke:#7AC36A;stroke-width:0.625" />
<text x="1367.1" y="-47.328" transform="scale(1, -1)"
	style="font-family:Times;font-weight:normal;font-style:normal;font-size:12pt">smooth</text>
</g>
</svg>
