<?xml version="1.0"?>
<!-- Generated by SVGo and Plotinum VG -->
<svg width="16in" height="9in"
	xmlns="http://www.w3.org/2000/svg"
	xmlns:xlink="http://www.w3.org/1999/xlink">
<g transform="scale(1, -1) translate(0, -810)">
<path d="M0,0L1440,0L1440,810L0,810Z" style="fill:#FFFFFF" />
<text x="742.71" y="-4.8267" transform="scale(1, -1)"
	style="font-family:Times;font-weight:normal;font-style:normal;font-size:12pt">X</text>
<text x="56.245" y="-19.502" transform="scale(1, -1)"
	style="font-family:Times;font-weight:normal;font-style:normal;font-size:10pt">0</text>
<text x="468.45" y="-19.502" transform="scale(1, -1)"
	style="font-family:Times;font-weight:normal;font-style:normal;font-size:10pt">60</text>
<text x="880.65" y="-19.502" transform="scale(1, -1)"
	style="font-family:Times;font-weight:normal;font-style:normal;font-size:10pt">120</text>
<text x="1296" y="-19.502" transform="scale(1, -1)"
	style="font-family:Times;font-weight:normal;font-style:normal;font-size:10pt">180</text>
<path d="M59.37,31.538L59.37,41.538" style="fill:none;stroke:#000000;stroke-width:0.625" />
<path d="M474.7,31.538L474.7,41.538" style="fill:none;stroke:#000000;stroke-width:0.625" />
<path d="M890.03,31.538L890.03,41.538" style="fill:none;stroke:#000000;stroke-width:0.625" />
<path d="M1305.4,31.538L1305.4,41.538" style="fill:none;stroke:#000000;stroke-width:0.625" />
<path d="M197.81,36.538L197.81,41.538" style="fill:none;stroke:#000000;stroke-width:0.625" />
<path d="M336.26,36.538L336.26,41.538" style="fill:none;stroke:#000000;stroke-width:0.625" />
<path d="M613.14,36.538L613.14,41.538" style="fill:none;stroke:#000000;stroke-width:0.625" />
<path d="M751.58,36.538L751.58,41.538" style="fill:none;stroke:#000000;stroke-width:0.625" />
<path d="M1028.5,36.538L1028.5,41.538" style="fill:none;stroke:#000000;stroke-width:0.625" />
<path d="M1166.9,36.538L1166.9,41.538" style="fill:none;stroke:#000000;stroke-width:0.625" />
<path d="M59.37,41.538L1436.9,41.538" style="fill:none;stroke:#000000;stroke-width:0.625" />
<g transform="rotate(90)">
<text x="423.63" y="14.443" transform="scale(1, -1)"
	style="font-family:Times;font-weight:normal;font-style:normal;font-size:12pt">Y</text>
</g>
<text x="19.27" y="-167.09" transform="scale(1, -1)"
	style="font-family:Times;font-weight:normal;font-style:normal;font-size:10pt">-50</text>
<text x="29.683" y="-386.4" transform="scale(1, -1)"
	style="font-family:Times;font-weight:normal;font-style:normal;font-size:10pt">0</text>
<text x="23.433" y="-605.71" transform="scale(1, -1)"
	style="font-family:Times;font-weight:normal;font-style:normal;font-size:10pt">50</text>
<path d="M39.058,172.99L49.058,172.99" style="fill:none;stroke:#000000;stroke-width:0.625" />
<path d="M39.058,392.3L49.058,392.3" style="fill:none;stroke:#000000;stroke-width:0.625" />
<path d="M39.058,611.61L49.058,611.61" style="fill:none;stroke:#000000;stroke-width:0.625" />
<path d="M44.058,85.271L49.058,85.271" style="fill:none;stroke:#000000;stroke-width:0.625" />
<path d="M44.058,129.13L49.058,129.13" style="fill:none;stroke:#000000;stroke-width:0.625" />
<path d="M44.058,216.86L49.058,216.86" style="fill:none;stroke:#000000;stroke-width:0.625" />
<path d="M44.058,260.72L49.058,260.72" style="fill:none;stroke:#000000;stroke-width:0.625" />
<path d="M44.058,304.58L49.058,304.58" style="fill:none;stroke:#000000;stroke-width:0.625" />
<path d="M44.058,348.44L49.058,348.44" style="fill:none;stroke:#000000;stroke-width:0.625" />
<path d="M44.058,436.16L49.058,436.16" style="fill:none;stroke:#000000;stroke-width:0.625" />
<path d="M44.058,480.02L49.058,480.02" style="fill:none;stroke:#000000;stroke-width:0.625" />
<path d="M44.058,523.89L49.058,523.89" style="fill:none;stroke:#000000;stroke-width:0.625" />
<path d="M44.058,567.75L49.058,567.75" style="fill:none;stroke:#000000;stroke-width:0.625" />
<path d="M44.058,655.47L49.058,655.47" style="fill:none;stroke:#000000;stroke-width:0.625" />
<path d="M44.058,699.33L49.058,699.33" style="fill:none;stroke:#000000;stroke-width:0.625" />
<path d="M44.058,743.19L49.058,743.19" style="fill:none;stroke:#000000;stroke-width:0.625" />
<path d="M44.058,787.06L49.058,787.06" style="fill:none;stroke:#000000;stroke-width:0.625" />
<path d="M49.058,51.226L49.058,806.88" style="fill:none;stroke:#000000;stroke-width:0.625" />
<path d="M59.37,393.84L66.292,394.08L73.214,397.67L80.137,396.31L87.059,395.94L93.981,396.31L100.9,398.73L107.83,398.81L114.75,396.94L121.67,398.49L128.59,399.87L135.51,398.04L142.44,395.18L149.36,397.23L156.28,393.56L163.2,392.25L170.12,395.53L177.05,394.44L183.97,393.14L190.89,389.63L197.81,389.25L204.73,389.13L211.66,390.28L218.58,392.16L225.5,389.73L232.42,390.96L239.35,392.55L246.27,393.2L253.19,394.5L260.11,392.83L267.03,394.37L273.96,395.02L280.88,397.07L287.8,395.4L294.72,398.74L301.64,400.42L308.57,397.22L315.49,400.11L322.41,399.1L329.33,397.49L336.26,396.29L343.18,395.43L350.1,394.79L357.02,394.76L363.94,396.34L370.87,393.34L377.79,392.09L384.71,392.84L391.63,391.67L398.55,391.04L405.48,389.31L412.4,391.22L419.32,389.24L426.24,391.19L433.17,391.21L440.09,390.73L447.01,393.9L453.93,393.08L460.85,394.56L467.78,395.71L474.7,396.68L481.62,396.46L488.54,398.91L495.46,396.27L502.39,400.28L509.31,399.74L516.23,398.98L523.15,397.17L530.08,397.38L537,399.61L543.92,399.28L550.84,395.59L557.76,397.23L564.69,396.08L571.61,394.14L578.53,391.64L585.45,390.51L592.37,391.8L599.3,390.7L606.22,389.3L613.14,390.34L620.06,390.59L626.99,390.25L633.91,388.56L640.83,390.5L647.75,389.41L654.67,391.32L661.6,391.02L668.52,392.61L675.44,395.63L682.36,396.83L689.28,397.09L696.21,399.6L703.13,397.93L710.05,400.14L716.97,397.73L723.9,399.36L730.82,400.1L737.74,399.04L744.66,396.88L751.58,396.03L758.51,396.06L765.43,397.02L772.35,394.48L779.27,394.73L786.19,394.44L793.12,389.97L800.04,393.04L806.96,389.5L813.88,388.48L820.8,391.07L827.73,390.13L834.65,391.3L841.57,392.7L848.49,393.04L855.42,389.77L862.34,393.89L869.26,392.5L876.18,396.49L883.1,397.16L890.03,394.44L896.95,397.83L903.87,397.69L910.79,400.36L917.71,399.78L924.64,400.54L931.56,400.75L938.48,396.7L945.4,397.55L952.33,399.53L959.25,397.02L966.17,397.05L973.09,396.55L980.01,393.5L986.94,392.6L993.86,392.62L1000.8,392.46L1007.7,391.69L1014.6,388.79L1021.5,388.41L1028.5,389.59L1035.4,391.65L1042.3,388.64L1049.2,392.88L1056.2,390.12L1063.1,392.31L1070,391.71L1076.9,394.51L1083.8,394.33L1090.8,395.57L1097.7,397.61L1104.6,395.81L1111.5,398.49L1118.5,399.2L1125.4,400.93L1132.3,397.37L1139.2,399.99L1146.1,399.52L1153.1,400.07L1160,395.96L1166.9,397.81L1173.8,396.88L1180.8,394.47L1187.7,393.44L1194.6,392.8L1201.5,392.52L1208.4,389.5L1215.4,392.03L1222.3,391.09L1229.2,392.26L1236.1,388.25L1243.1,392.39L1250,389.81L1256.9,392.11L1263.8,392.83L1270.7,394.52L1277.7,395.14L1284.6,393.65L1291.5,393.64L1298.4,395.88L1305.4,398.7L1312.3,398.07L1319.2,397.71L1326.1,396.94L1333,398.68L1340,401.03L1346.9,397.98L1353.8,396.42L1360.7,398.49L1367.7,398.13L1374.6,395.18L1381.5,393.46L1388.4,395.22L1395.3,392.79L1402.3,391.55L1409.2,390.5L1416.1,389.32L1423,390.48L1430,388.98L1436.9,388.14" style="fill:none;stroke:#F15A60;stroke-width:1.25" />
<path d="M62.495,393.84A3.125,3.125 0 1 1 56.245,393.84A3.125,3.125 0 1 1 62.495,393.84Z" style="fill:none;stroke:#F15A60;stroke-width:0.625" />
<path d="M69.417,394.08L69.417,394.08A3.125,3.125 0 1 1 63.167,394.08A3.125,3.125 0 1 1 69.417,394.08Z" style="fill:none;stroke:#F15A60;stroke-width:0.625" />
<path d="M76.339,397.67A3.125,3.125 0 1 1 70.089,397.67A3.125,3.125 0 1 1 76.339,397.67Z" style="fill:none;stroke:#F15A60;stroke-width:0.625" />
<path d="M83.262,396.31A3.125,3.125 0 1 1 77.012,396.31A3.125,3.125 0 1 1 83.262,396.31Z" style="fill:none;stroke:#F15A60;stroke-width:0.625" />
<path d="M90.184,395.94L90.184,395.94A3.125,3.125 0 1 1 83.934,395.94A3.125,3.125 0 1 1 90.184,395.94Z" style="fill:none;stroke:#F15A60;stroke-width:0.625" />
<path d="M97.106,396.31L97.106,396.31A3.125,3.125 0 1 1 90.856,396.31A3.125,3.125 0 1 1 97.106,396.31Z" style="fill:none;stroke:#F15A60;stroke-width:0.625" />
<path d="M104.03,398.73L104.03,398.73A3.125,3.125 0 1 1 97.778,398.73A3.125,3.125 0 1 1 104.03,398.73Z" style="fill:none;stroke:#F15A60;stroke-width:0.625" />
<path d="M110.95,398.81L110.95,398.81A3.125,3.125 0 1 1 104.7,398.81A3.125,3.125 0 1 1 110.95,398.81Z" style="fill:none;stroke:#F15A60;stroke-width:0.625" />
<path d="M117.87,396.94L117.87,396.94A3.125,3.125 0 1 1 111.62,396.94A3.125,3.125 0 1 1 117.87,396.94Z" style="fill:none;stroke:#F15A60;stroke-width:0.625" />
<path d="M124.79,398.49L124.79,398.49A3.125,3.125 0 1 1 118.54,398.49A3.125,3.125 0 1 1 124.79,398.49Z" style="fill:none;stroke:#F15A60;stroke-width:0.625" />
<path d="M131.72,399.87A3.125,3.125 0 1 1 125.47,399.87A3.125,3.125 0 1 1 131.72,399.87Z" style="fill:none;stroke:#F15A60;stroke-width:0.625" />
<path d="M138.64,398.04L138.64,398.04A3.125,3.125 0 1 1 132.39,398.04A3.125,3.125 0 1 1 138.64,398.04Z" style="fill:none;stroke:#F15A60;stroke-width:0.625" />
<path d="M145.56,395.18L145.56,395.18A3.125,3.125 0 1 1 139.31,395.18A3.125,3.125 0 1 1 145.56,395.18Z" style="fill:none;stroke:#F15A60;stroke-width:0.625" />
<path d="M152.48,397.23L152.48,397.23A3.125,3.125 0 1 1 146.23,397.23A3.125,3.125 0 1 1 152.48,397.23Z" style="fill:none;stroke:#F15A60;stroke-width:0.625" />
<path d="M159.41,393.56A3.125,3.125 0 1 1 153.16,393.56A3.125,3.125 0 1 1 159.41,393.56Z" style="fill:none;stroke:#F15A60;stroke-width:0.625" />
<path d="M166.33,392.25A3.125,3.125 0 1 1 160.08,392.25A3.125,3.125 0 1 1 166.33,392.25Z" style="fill:none;stroke:#F15A60;stroke-width:0.625" />
<path d="M173.25,395.53L173.25,395.53A3.125,3.125 0 1 1 167,395.53A3.125,3.125 0 1 1 173.25,395.53Z" style="fill:none;stroke:#F15A60;stroke-width:0.625" />
<path d="M180.17,394.44L180.17,394.44A3.125,3.125 0 1 1 173.92,394.44A3.125,3.125 0 1 1 180.17,394.44Z" style="fill:none;stroke:#F15A60;stroke-width:0.625" />
<path d="M187.09,393.14A3.125,3.125 0 1 1 180.84,393.14A3.125,3.125 0 1 1 187.09,393.14Z" style="fill:none;stroke:#F15A60;stroke-width:0.625" />
<path d="M194.02,389.63A3.125,3.125 0 1 1 187.77,389.63A3.125,3.125 0 1 1 194.02,389.63Z" style="fill:none;stroke:#F15A60;stroke-width:0.625" />
<path d="M200.94,389.25A3.125,3.125 0 1 1 194.69,389.25A3.125,3.125 0 1 1 200.94,389.25Z" style="fill:none;stroke:#F15A60;stroke-width:0.625" />
<path d="M207.86,389.13L207.86,389.13A3.125,3.125 0 1 1 201.61,389.13A3.125,3.125 0 1 1 207.86,389.13Z" style="fill:none;stroke:#F15A60;stroke-width:0.625" />
<path d="M214.78,390.28A3.125,3.125 0 1 1 208.53,390.28A3.125,3.125 0 1 1 214.78,390.28Z" style="fill:none;stroke:#F15A60;stroke-width:0.625" />
<path d="M221.7,392.16A3.125,3.125 0 1 1 215.45,392.16A3.125,3.125 0 1 1 221.7,392.16Z" style="fill:none;stroke:#F15A60;stroke-width:0.625" />
<path d="M228.63,389.73A3.125,3.125 0 1 1 222.38,389.73A3.125,3.125 0 1 1 228.63,389.73Z" style="fill:none;stroke:#F15A60;stroke-width:0.625" />
<path d="M235.55,390.96A3.125,3.125 0 1 1 229.3,390.96A3.125,3.125 0 1 1 235.55,390.96Z" style="fill:none;stroke:#F15A60;stroke-width:0.625" />
<path d="M242.47,392.55L242.47,392.55A3.125,3.125 0 1 1 236.22,392.55A3.125,3.125 0 1 1 242.47,392.55Z" style="fill:none;stroke:#F15A60;stroke-width:0.625" />
<path d="M249.39,393.2A3.125,3.125 0 1 1 243.14,393.2A3.125,3.125 0 1 1 249.39,393.2Z" style="fill:none;stroke:#F15A60;stroke-width:0.625" />
<path d="M256.31,394.5A3.125,3.125 0 1 1 250.06,394.5A3.125,3.125 0 1 1 256.31,394.5Z" style="fill:none;stroke:#F15A60;stroke-width:0.625" />
<path d="M263.24,392.83L263.24,392.83A3.125,3.125 0 1 1 256.99,392.83A3.125,3.125 0 1 1 263.24,392.83Z" style="fill:none;stroke:#F15A60;stroke-width:0.625" />
<path d="M270.16,394.37A3.125,3.125 0 1 1 263.91,394.37A3.125,3.125 0 1 1 270.16,394.37Z" style="fill:none;stroke:#F15A60;stroke-width:0.625" />
<path d="M277.08,395.02L277.08,395.02A3.125,3.125 0 1 1 270.83,395.02A3.125,3.125 0 1 1 277.08,395.02Z" style="fill:none;stroke:#F15A60;stroke-width:0.625" />
<path d="M284,397.07L284,397.07A3.125,3.125 0 1 1 277.75,397.07A3.125,3.125 0 1 1 284,397.07Z" style="fill:none;stroke:#F15A60;stroke-width:0.625" />
<path d="M290.93,395.4A3.125,3.125 0 1 1 284.68,395.4A3.125,3.125 0 1 1 290.93,395.4Z" style="fill:none;stroke:#F15A60;stroke-width:0.625" />
<path d="M297.85,398.74L297.85,398.74A3.125,3.125 0 1 1 291.6,398.74A3.125,3.125 0 1 1 297.85,398.74Z" style="fill:none;stroke:#F15A60;stroke-width:0.625" />
<path d="M304.77,400.42A3.125,3.125 0 1 1 298.52,400.42A3.125,3.125 0 1 1 304.77,400.42Z" style="fill:none;stroke:#F15A60;stroke-width:0.625" />
<path d="M311.69,397.22L311.69,397.22A3.125,3.125 0 1 1 305.44,397.22A3.125,3.125 0 1 1 311.69,397.22Z" style="fill:none;stroke:#F15A60;stroke-width:0.625" />
<path d="M318.61,400.11L318.61,400.11A3.125,3.125 0 1 1 312.36,400.11A3.125,3.125 0 1 1 318.61,400.11Z" style="fill:none;stroke:#F15A60;stroke-width:0.625" />
<path d="M325.54,399.1A3.125,3.125 0 1 1 319.29,399.1A3.125,3.125 0 1 1 325.54,399.1Z" style="fill:none;stroke:#F15A60;stroke-width:0.625" />
<path d="M332.46,397.49L332.46,397.49A3.125,3.125 0 1 1 326.21,397.49A3.125,3.125 0 1 1 332.46,397.49Z" style="fill:none;stroke:#F15A60;stroke-width:0.625" />
<path d="M339.38,396.29A3.125,3.125 0 1 1 333.13,396.29A3.125,3.125 0 1 1 339.38,396.29Z" style="fill:none;stroke:#F15A60;stroke-width:0.625" />
<path d="M346.3,395.43L346.3,395.43A3.125,3.125 0 1 1 340.05,395.43A3.125,3.125 0 1 1 346.3,395.43Z" style="fill:none;stroke:#F15A60;stroke-width:0.625" />
<path d="M353.22,394.79L353.22,394.79A3.125,3.125 0 1 1 346.97,394.79A3.125,3.125 0 1 1 353.22,394.79Z" style="fill:none;stroke:#F15A60;stroke-width:0.625" />
<path d="M360.15,394.76L360.15,394.76A3.125,3.125 0 1 1 353.9,394.76A3.125,3.125 0 1 1 360.15,394.76Z" style="fill:none;stroke:#F15A60;stroke-width:0.625" />
<path d="M367.07,396.34A3.125,3.125 0 1 1 360.82,396.34A3.125,3.125 0 1 1 367.07,396.34Z" style="fill:none;stroke:#F15A60;stroke-width:0.625" />
<path d="M373.99,393.34A3.125,3.125 0 1 1 367.74,393.34A3.125,3.125 0 1 1 373.99,393.34Z" style="fill:none;stroke:#F15A60;stroke-width:0.625" />
<path d="M380.91,392.09A3.125,3.125 0 1 1 374.66,392.09A3.125,3.125 0 1 1 380.91,392.09Z" style="fill:none;stroke:#F15A60;stroke-width:0.625" />
<path d="M387.84,392.84L387.84,392.84A3.125,3.125 0 1 1 381.59,392.84A3.125,3.125 0 1 1 387.84,392.84Z" style="fill:none;stroke:#F15A60;stroke-width:0.625" />
<path d="M394.76,391.67A3.125,3.125 0 1 1 388.51,391.67A3.125,3.125 0 1 1 394.76,391.67Z" style="fill:none;stroke:#F15A60;stroke-width:0.625" />
<path d="M401.68,391.04A3.125,3.125 0 1 1 395.43,391.04A3.125,3.125 0 1 1 401.68,391.04Z" style="fill:none;stroke:#F15A60;stroke-width:0.625" />
<path d="M408.6,389.31A3.125,3.125 0 1 1 402.35,389.31A3.125,3.125 0 1 1 408.6,389.31Z" style="fill:none;stroke:#F15A60;stroke-width:0.625" />
<path d="M415.52,391.22A3.125,3.125 0 1 1 409.27,391.22A3.125,3.125 0 1 1 415.52,391.22Z" style="fill:none;stroke:#F15A60;stroke-width:0.625" />
<path d="M422.45,389.24L422.45,389.24A3.125,3.125 0 1 1 416.2,389.24A3.125,3.125 0 1 1 422.45,389.24Z" style="fill:none;stroke:#F15A60;stroke-width:0.625" />
<path d="M429.37,391.19A3.125,3.125 0 1 1 423.12,391.19A3.125,3.125 0 1 1 429.37,391.19Z" style="fill:none;stroke:#F15A60;stroke-width:0.625" />
<path d="M436.29,391.21A3.125,3.125 0 1 1 430.04,391.21A3.125,3.125 0 1 1 436.29,391.21Z" style="fill:none;stroke:#F15A60;stroke-width:0.625" />
<path d="M443.21,390.73A3.125,3.125 0 1 1 436.96,390.73A3.125,3.125 0 1 1 443.21,390.73Z" style="fill:none;stroke:#F15A60;stroke-width:0.625" />
<path d="M450.13,393.9A3.125,3.125 0 1 1 443.88,393.9A3.125,3.125 0 1 1 450.13,393.9Z" style="fill:none;stroke:#F15A60;stroke-width:0.625" />
<path d="M457.06,393.08L457.06,393.08A3.125,3.125 0 1 1 450.81,393.08A3.125,3.125 0 1 1 457.06,393.08Z" style="fill:none;stroke:#F15A60;stroke-width:0.625" />
<path d="M463.98,394.56A3.125,3.125 0 1 1 457.73,394.56A3.125,3.125 0 1 1 463.98,394.56Z" style="fill:none;stroke:#F15A60;stroke-width:0.625" />
<path d="M470.9,395.71A3.125,3.125 0 1 1 464.65,395.71A3.125,3.125 0 1 1 470.9,395.71Z" style="fill:none;stroke:#F15A60;stroke-width:0.625" />
<path d="M477.82,396.68A3.125,3.125 0 1 1 471.57,396.68A3.125,3.125 0 1 1 477.82,396.68Z" style="fill:none;stroke:#F15A60;stroke-width:0.625" />
<path d="M484.75,396.46A3.125,3.125 0 1 1 478.5,396.46A3.125,3.125 0 1 1 484.75,396.46Z" style="fill:none;stroke:#F15A60;stroke-width:0.625" />
<path d="M491.67,398.91L491.67,398.91A3.125,3.125 0 1 1 485.42,398.91A3.125,3.125 0 1 1 491.67,398.91Z" style="fill:none;stroke:#F15A60;stroke-width:0.625" />
<path d="M498.59,396.27A3.125,3.125 0 1 1 492.34,396.27A3.125,3.125 0 1 1 498.59,396.27Z" style="fill:none;stroke:#F15A60;stroke-width:0.625" />
<path d="M505.51,400.28A3.125,3.125 0 1 1 499.26,400.28A3.125,3.125 0 1 1 505.51,400.28Z" style="fill:none;stroke:#F15A60;stroke-width:0.625" />
<path d="M512.43,399.74A3.125,3.125 0 1 1 506.18,399.74A3.125,3.125 0 1 1 512.43,399.74Z" style="fill:none;stroke:#F15A60;stroke-width:0.625" />
<path d="M519.36,398.98A3.125,3.125 0 1 1 513.11,398.98A3.125,3.125 0 1 1 519.36,398.98Z" style="fill:none;stroke:#F15A60;stroke-width:0.625" />
<path d="M526.28,397.17L526.28,397.17A3.125,3.125 0 1 1 520.03,397.17A3.125,3.125 0 1 1 526.28,397.17Z" style="fill:none;stroke:#F15A60;stroke-width:0.625" />
<path d="M533.2,397.38L533.2,397.38A3.125,3.125 0 1 1 526.95,397.38A3.125,3.125 0 1 1 533.2,397.38Z" style="fill:none;stroke:#F15A60;stroke-width:0.625" />
<path d="M540.12,399.61A3.125,3.125 0 1 1 533.87,399.61A3.125,3.125 0 1 1 540.12,399.61Z" style="fill:none;stroke:#F15A60;stroke-width:0.625" />
<path d="M547.04,399.28A3.125,3.125 0 1 1 540.79,399.28A3.125,3.125 0 1 1 547.04,399.28Z" style="fill:none;stroke:#F15A60;stroke-width:0.625" />
<path d="M553.97,395.59A3.125,3.125 0 1 1 547.72,395.59A3.125,3.125 0 1 1 553.97,395.59Z" style="fill:none;stroke:#F15A60;stroke-width:0.625" />
<path d="M560.89,397.23L560.89,397.23A3.125,3.125 0 1 1 554.64,397.23A3.125,3.125 0 1 1 560.89,397.23Z" style="fill:none;stroke:#F15A60;stroke-width:0.625" />
<path d="M567.81,396.08A3.125,3.125 0 1 1 561.56,396.08A3.125,3.125 0 1 1 567.81,396.08Z" style="fill:none;stroke:#F15A60;stroke-width:0.625" />
<path d="M574.73,394.14L574.73,394.14A3.125,3.125 0 1 1 568.48,394.14A3.125,3.125 0 1 1 574.73,394.14Z" style="fill:none;stroke:#F15A60;stroke-width:0.625" />
<path d="M581.66,391.64A3.125,3.125 0 1 1 575.41,391.64A3.125,3.125 0 1 1 581.66,391.64Z" style="fill:none;stroke:#F15A60;stroke-width:0.625" />
<path d="M588.58,390.51A3.125,3.125 0 1 1 582.33,390.51A3.125,3.125 0 1 1 588.58,390.51Z" style="fill:none;stroke:#F15A60;stroke-width:0.625" />
<path d="M595.5,391.8L595.5,391.8A3.125,3.125 0 1 1 589.25,391.8A3.125,3.125 0 1 1 595.5,391.8Z" style="fill:none;stroke:#F15A60;stroke-width:0.625" />
<path d="M602.42,390.7L602.42,390.7A3.125,3.125 0 1 1 596.17,390.7A3.125,3.125 0 1 1 602.42,390.7Z" style="fill:none;stroke:#F15A60;stroke-width:0.625" />
<path d="M609.34,389.3A3.125,3.125 0 1 1 603.09,389.3A3.125,3.125 0 1 1 609.34,389.3Z" style="fill:none;stroke:#F15A60;stroke-width:0.625" />
<path d="M616.27,390.34A3.125,3.125 0 1 1 610.02,390.34A3.125,3.125 0 1 1 616.27,390.34Z" style="fill:none;stroke:#F15A60;stroke-width:0.625" />
<path d="M623.19,390.59A3.125,3.125 0 1 1 616.94,390.59A3.125,3.125 0 1 1 623.19,390.59Z" style="fill:none;stroke:#F15A60;stroke-width:0.625" />
<path d="M630.11,390.25L630.11,390.25A3.125,3.125 0 1 1 623.86,390.25A3.125,3.125 0 1 1 630.11,390.25Z" style="fill:none;stroke:#F15A60;stroke-width:0.625" />
<path d="M637.03,388.56A3.125,3.125 0 1 1 630.78,388.56A3.125,3.125 0 1 1 637.03,388.56Z" style="fill:none;stroke:#F15A60;stroke-width:0.625" />
<path d="M643.95,390.5A3.125,3.125 0 1 1 637.7,390.5A3.125,3.125 0 1 1 643.95,390.5Z" style="fill:none;stroke:#F15A60;stroke-width:0.625" />
<path d="M650.88,389.41L650.88,389.41A3.125,3.125 0 1 1 644.63,389.41A3.125,3.125 0 1 1 650.88,389.41Z" style="fill:none;stroke:#F15A60;stroke-width:0.625" />
<path d="M657.8,391.32A3.125,3.125 0 1 1 651.55,391.32A3.125,3.125 0 1 1 657.8,391.32Z" style="fill:none;stroke:#F15A60;stroke-width:0.625" />
<path d="M664.72,391.02L664.72,391.02A3.125,3.125 0 1 1 658.47,391.02A3.125,3.125 0 1 1 664.72,391.02Z" style="fill:none;stroke:#F15A60;stroke-width:0.625" />
<path d="M671.64,392.61A3.125,3.125 0 1 1 665.39,392.61A3.125,3.125 0 1 1 671.64,392.61Z" style="fill:none;stroke:#F15A60;stroke-width:0.625" />
<path d="M678.57,395.63A3.125,3.125 0 1 1 672.32,395.63A3.125,3.125 0 1 1 678.57,395.63Z" style="fill:none;stroke:#F15A60;stroke-width:0.625" />
<path d="M685.49,396.83A3.125,3.125 0 1 1 679.24,396.83A3.125,3.125 0 1 1 685.49,396.83Z" style="fill:none;stroke:#F15A60;stroke-width:0.625" />
<path d="M692.41,397.09A3.125,3.125 0 1 1 686.16,397.09A3.125,3.125 0 1 1 692.41,397.09Z" style="fill:none;stroke:#F15A60;stroke-width:0.625" />
<path d="M699.33,399.6L699.33,399.6A3.125,3.125 0 1 1 693.08,399.6A3.125,3.125 0 1 1 699.33,399.6Z" style="fill:none;stroke:#F15A60;stroke-width:0.625" />
<path d="M706.25,397.93A3.125,3.125 0 1 1 700,397.93A3.125,3.125 0 1 1 706.25,397.93Z" style="fill:none;stroke:#F15A60;stroke-width:0.625" />
<path d="M713.18,400.14L713.18,400.14A3.125,3.125 0 1 1 706.93,400.14A3.125,3.125 0 1 1 713.18,400.14Z" style="fill:none;stroke:#F15A60;stroke-width:0.625" />
<path d="M720.1,397.73L720.1,397.73A3.125,3.125 0 1 1 713.85,397.73A3.125,3.125 0 1 1 720.1,397.73Z" style="fill:none;stroke:#F15A60;stroke-width:0.625" />
<path d="M727.02,399.36L727.02,399.36A3.125,3.125 0 1 1 720.77,399.36A3.125,3.125 0 1 1 727.02,399.36Z" style="fill:none;stroke:#F15A60;stroke-width:0.625" />
<path d="M733.94,400.1L733.94,400.1A3.125,3.125 0 1 1 727.69,400.1A3.125,3.125 0 1 1 733.94,400.1Z" style="fill:none;stroke:#F15A60;stroke-width:0.625" />
<path d="M740.86,399.04L740.86,399.04A3.125,3.125 0 1 1 734.61,399.04A3.125,3.125 0 1 1 740.86,399.04Z" style="fill:none;stroke:#F15A60;stroke-width:0.625" />
<path d="M747.79,396.88L747.79,396.88A3.125,3.125 0 1 1 741.54,396.88A3.125,3.125 0 1 1 747.79,396.88Z" style="fill:none;stroke:#F15A60;stroke-width:0.625" />
<path d="M754.71,396.03L754.71,396.03A3.125,3.125 0 1 1 748.46,396.03A3.125,3.125 0 1 1 754.71,396.03Z" style="fill:none;stroke:#F15A60;stroke-width:0.625" />
<path d="M761.63,396.06L761.63,396.06A3.125,3.125 0 1 1 755.38,396.06A3.125,3.125 0 1 1 761.63,396.06Z" style="fill:none;stroke:#F15A60;stroke-width:0.625" />
<path d="M768.55,397.02L768.55,397.02A3.125,3.125 0 1 1 762.3,397.02A3.125,3.125 0 1 1 768.55,397.02Z" style="fill:none;stroke:#F15A60;stroke-width:0.625" />
<path d="M775.48,394.48L775.48,394.48A3.125,3.125 0 1 1 769.23,394.48A3.125,3.125 0 1 1 775.48,394.48Z" style="fill:none;stroke:#F15A60;stroke-width:0.625" />
<path d="M782.4,394.73L782.4,394.73A3.125,3.125 0 1 1 776.15,394.73A3.125,3.125 0 1 1 782.4,394.73Z" style="fill:none;stroke:#F15A60;stroke-width:0.625" />
<path d="M789.32,394.44A3.125,3.125 0 1 1 783.07,394.44A3.125,3.125 0 1 1 789.32,394.44Z" style="fill:none;stroke:#F15A60;stroke-width:0.625" />
<path d="M796.24,389.97L796.24,389.97A3.125,3.125 0 1 1 789.99,389.97A3.125,3.125 0 1 1 796.24,389.97Z" style="fill:none;stroke:#F15A60;stroke-width:0.625" />
<path d="M803.16,393.04L803.16,393.04A3.125,3.125 0 1 1 796.91,393.04A3.125,3.125 0 1 1 803.16,393.04Z" style="fill:none;stroke:#F15A60;stroke-width:0.625" />
<path d="M810.09,389.5L810.09,389.5A3.125,3.125 0 1 1 803.84,389.5A3.125,3.125 0 1 1 810.09,389.5Z" style="fill:none;stroke:#F15A60;stroke-width:0.625" />
<path d="M817.01,388.48L817.01,388.48A3.125,3.125 0 1 1 810.76,388.48A3.125,3.125 0 1 1 817.01,388.48Z" style="fill:none;stroke:#F15A60;stroke-width:0.625" />
<path d="M823.93,391.07L823.93,391.07A3.125,3.125 0 1 1 817.68,391.07A3.125,3.125 0 1 1 823.93,391.07Z" style="fill:none;stroke:#F15A60;stroke-width:0.625" />
<path d="M830.85,390.13L830.85,390.13A3.125,3.125 0 1 1 824.6,390.13A3.125,3.125 0 1 1 830.85,390.13Z" style="fill:none;stroke:#F15A60;stroke-width:0.625" />
<path d="M837.77,391.3L837.77,391.3A3.125,3.125 0 1 1 831.52,391.3A3.125,3.125 0 1 1 837.77,391.3Z" style="fill:none;stroke:#F15A60;stroke-width:0.625" />
<path d="M844.7,392.7L844.7,392.7A3.125,3.125 0 1 1 838.45,392.7A3.125,3.125 0 1 1 844.7,392.7Z" style="fill:none;stroke:#F15A60;stroke-width:0.625" />
<path d="M851.62,393.04A3.125,3.125 0 1 1 845.37,393.04A3.125,3.125 0 1 1 851.62,393.04Z" style="fill:none;stroke:#F15A60;stroke-width:0.625" />
<path d="M858.54,389.77L858.54,389.77A3.125,3.125 0 1 1 852.29,389.77A3.125,3.125 0 1 1 858.54,389.77Z" style="fill:none;stroke:#F15A60;stroke-width:0.625" />
<path d="M865.46,393.89L865.46,393.89A3.125,3.125 0 1 1 859.21,393.89A3.125,3.125 0 1 1 865.46,393.89Z" style="fill:none;stroke:#F15A60;stroke-width:0.625" />
<path d="M872.38,392.5L872.38,392.5A3.125,3.125 0 1 1 866.13,392.5A3.125,3.125 0 1 1 872.38,392.5Z" style="fill:none;stroke:#F15A60;stroke-width:0.625" />
<path d="M879.31,396.49L879.31,396.49A3.125,3.125 0 1 1 873.06,396.49A3.125,3.125 0 1 1 879.31,396.49Z" style="fill:none;stroke:#F15A60;stroke-width:0.625" />
<path d="M886.23,397.16L886.23,397.16A3.125,3.125 0 1 1 879.98,397.16A3.125,3.125 0 1 1 886.23,397.16Z" style="fill:none;stroke:#F15A60;stroke-width:0.625" />
<path d="M893.15,394.44L893.15,394.44A3.125,3.125 0 1 1 886.9,394.44A3.125,3.125 0 1 1 893.15,394.44Z" style="fill:none;stroke:#F15A60;stroke-width:0.625" />
<path d="M900.07,397.83L900.07,397.83A3.125,3.125 0 1 1 893.82,397.83A3.125,3.125 0 1 1 900.07,397.83Z" style="fill:none;stroke:#F15A60;stroke-width:0.625" />
<path d="M907,397.69L907,397.69A3.125,3.125 0 1 1 900.75,397.69A3.125,3.125 0 1 1 907,397.69Z" style="fill:none;stroke:#F15A60;stroke-width:0.625" />
<path d="M913.92,400.36L913.92,400.36A3.125,3.125 0 1 1 907.67,400.36A3.125,3.125 0 1 1 913.92,400.36Z" style="fill:none;stroke:#F15A60;stroke-width:0.625" />
<path d="M920.84,399.78L920.84,399.78A3.125,3.125 0 1 1 914.59,399.78A3.125,3.125 0 1 1 920.84,399.78Z" style="fill:none;stroke:#F15A60;stroke-width:0.625" />
<path d="M927.76,400.54L927.76,400.54A3.125,3.125 0 1 1 921.51,400.54A3.125,3.125 0 1 1 927.76,400.54Z" style="fill:none;stroke:#F15A60;stroke-width:0.625" />
<path d="M934.68,400.75L934.68,400.75A3.125,3.125 0 1 1 928.43,400.75A3.125,3.125 0 1 1 934.68,400.75Z" style="fill:none;stroke:#F15A60;stroke-width:0.625" />
<path d="M941.61,396.7L941.61,396.7A3.125,3.125 0 1 1 935.36,396.7A3.125,3.125 0 1 1 941.61,396.7Z" style="fill:none;stroke:#F15A60;stroke-width:0.625" />
<path d="M948.53,397.55L948.53,397.55A3.125,3.125 0 1 1 942.28,397.55A3.125,3.125 0 1 1 948.53,397.55Z" style="fill:none;stroke:#F15A60;stroke-width:0.625" />
<path d="M955.45,399.53L955.45,399.53A3.125,3.125 0 1 1 949.2,399.53A3.125,3.125 0 1 1 955.45,399.53Z" style="fill:none;stroke:#F15A60;stroke-width:0.625" />
<path d="M962.37,397.02A3.125,3.125 0 1 1 956.12,397.02A3.125,3.125 0 1 1 962.37,397.02Z" style="fill:none;stroke:#F15A60;stroke-width:0.625" />
<path d="M969.29,397.05L969.29,397.05A3.125,3.125 0 1 1 963.04,397.05A3.125,3.125 0 1 1 969.29,397.05Z" style="fill:none;stroke:#F15A60;stroke-width:0.625" />
<path d="M976.22,396.55L976.22,396.55A3.125,3.125 0 1 1 969.97,396.55A3.125,3.125 0 1 1 976.22,396.55Z" style="fill:none;stroke:#F15A60;stroke-width:0.625" />
<path d="M983.14,393.5L983.14,393.5A3.125,3.125 0 1 1 976.89,393.5A3.125,3.125 0 1 1 983.14,393.5Z" style="fill:none;stroke:#F15A60;stroke-width:0.625" />
<path d="M990.06,392.6A3.125,3.125 0 1 1 983.81,392.6A3.125,3.125 0 1 1 990.06,392.6Z" style="fill:none;stroke:#F15A60;stroke-width:0.625" />
<path d="M996.98,392.62L996.98,392.62A3.125,3.125 0 1 1 990.73,392.62A3.125,3.125 0 1 1 996.98,392.62Z" style="fill:none;stroke:#F15A60;stroke-width:0.625" />
<path d="M1003.9,392.46L1003.9,392.46A3.125,3.125 0 1 1 997.66,392.46A3.125,3.125 0 1 1 1003.9,392.46Z" style="fill:none;stroke:#F15A60;stroke-width:0.625" />
<path d="M1010.8,391.69L1010.8,391.69A3.125,3.125 0 1 1 1004.6,391.69A3.125,3.125 0 1 1 1010.8,391.69Z" style="fill:none;stroke:#F15A60;stroke-width:0.625" />
<path d="M1017.7,388.79L1017.7,388.79A3.125,3.125 0 1 1 1011.5,388.79A3.125,3.125 0 1 1 1017.7,388.79Z" style="fill:none;stroke:#F15A60;stroke-width:0.625" />
<path d="M1024.7,388.41L1024.7,388.41A3.125,3.125 0 1 1 1018.4,388.41A3.125,3.125 0 1 1 1024.7,388.41Z" style="fill:none;stroke:#F15A60;stroke-width:0.625" />
<path d="M1031.6,389.59L1031.6,389.59A3.125,3.125 0 1 1 1025.3,389.59A3.125,3.125 0 1 1 1031.6,389.59Z" style="fill:none;stroke:#F15A60;stroke-width:0.625" />
<path d="M1038.5,391.65A3.125,3.125 0 1 1 1032.3,391.65A3.125,3.125 0 1 1 1038.5,391.65Z" style="fill:none;stroke:#F15A60;stroke-width:0.625" />
<path d="M1045.4,388.64L1045.4,388.64A3.125,3.125 0 1 1 1039.2,388.64A3.125,3.125 0 1 1 1045.4,388.64Z" style="fill:none;stroke:#F15A60;stroke-width:0.625" />
<path d="M1052.4,392.88L1052.4,392.88A3.125,3.125 0 1 1 1046.1,392.88A3.125,3.125 0 1 1 1052.4,392.88Z" style="fill:none;stroke:#F15A60;stroke-width:0.625" />
<path d="M1059.3,390.12L1059.3,390.12A3.125,3.125 0 1 1 1053,390.12A3.125,3.125 0 1 1 1059.3,390.12Z" style="fill:none;stroke:#F15A60;stroke-width:0.625" />
<path d="M1066.2,392.31A3.125,3.125 0 1 1 1060,392.31A3.125,3.125 0 1 1 1066.2,392.31Z" style="fill:none;stroke:#F15A60;stroke-width:0.625" />
<path d="M1073.1,391.71A3.125,3.125 0 1 1 1066.9,391.71A3.125,3.125 0 1 1 1073.1,391.71Z" style="fill:none;stroke:#F15A60;stroke-width:0.625" />
<path d="M1080,394.51A3.125,3.125 0 1 1 1073.8,394.51A3.125,3.125 0 1 1 1080,394.51Z" style="fill:none;stroke:#F15A60;stroke-width:0.625" />
<path d="M1087,394.33L1087,394.33A3.125,3.125 0 1 1 1080.7,394.33A3.125,3.125 0 1 1 1087,394.33Z" style="fill:none;stroke:#F15A60;stroke-width:0.625" />
<path d="M1093.9,395.57A3.125,3.125 0 1 1 1087.6,395.57A3.125,3.125 0 1 1 1093.9,395.57Z" style="fill:none;stroke:#F15A60;stroke-width:0.625" />
<path d="M1100.8,397.61A3.125,3.125 0 1 1 1094.6,397.61A3.125,3.125 0 1 1 1100.8,397.61Z" style="fill:none;stroke:#F15A60;stroke-width:0.625" />
<path d="M1107.7,395.81L1107.7,395.81A3.125,3.125 0 1 1 1101.5,395.81A3.125,3.125 0 1 1 1107.7,395.81Z" style="fill:none;stroke:#F15A60;stroke-width:0.625" />
<path d="M1114.7,398.49A3.125,3.125 0 1 1 1108.4,398.49A3.125,3.125 0 1 1 1114.7,398.49Z" style="fill:none;stroke:#F15A60;stroke-width:0.625" />
<path d="M1121.6,399.2A3.125,3.125 0 1 1 1115.3,399.2A3.125,3.125 0 1 1 1121.6,399.2Z" style="fill:none;stroke:#F15A60;stroke-width:0.625" />
<path d="M1128.5,400.93A3.125,3.125 0 1 1 1122.3,400.93A3.125,3.125 0 1 1 1128.5,400.93Z" style="fill:none;stroke:#F15A60;stroke-width:0.625" />
<path d="M1135.4,397.37A3.125,3.125 0 1 1 1129.2,397.37A3.125,3.125 0 1 1 1135.4,397.37Z" style="fill:none;stroke:#F15A60;stroke-width:0.625" />
<path d="M1142.3,399.99L1142.3,399.99A3.125,3.125 0 1 1 1136.1,399.99A3.125,3.125 0 1 1 1142.3,399.99Z" style="fill:none;stroke:#F15A60;stroke-width:0.625" />
<path d="M1149.3,399.52L1149.3,399.52A3.125,3.125 0 1 1 1143,399.52A3.125,3.125 0 1 1 1149.3,399.52Z" style="fill:none;stroke:#F15A60;stroke-width:0.625" />
<path d="M1156.2,400.07L1156.2,400.07A3.125,3.125 0 1 1 1149.9,400.07A3.125,3.125 0 1 1 1156.2,400.07Z" style="fill:none;stroke:#F15A60;stroke-width:0.625" />
<path d="M1163.1,395.96A3.125,3.125 0 1 1 1156.9,395.96A3.125,3.125 0 1 1 1163.1,395.96Z" style="fill:none;stroke:#F15A60;stroke-width:0.625" />
<path d="M1170,397.81L1170,397.81A3.125,3.125 0 1 1 1163.8,397.81A3.125,3.125 0 1 1 1170,397.81Z" style="fill:none;stroke:#F15A60;stroke-width:0.625" />
<path d="M1177,396.88A3.125,3.125 0 1 1 1170.7,396.88A3.125,3.125 0 1 1 1177,396.88Z" style="fill:none;stroke:#F15A60;stroke-width:0.625" />
<path d="M1183.9,394.47L1183.9,394.47A3.125,3.125 0 1 1 1177.6,394.47A3.125,3.125 0 1 1 1183.9,394.47Z" style="fill:none;stroke:#F15A60;stroke-width:0.625" />
<path d="M1190.8,393.44L1190.8,393.44A3.125,3.125 0 1 1 1184.6,393.44A3.125,3.125 0 1 1 1190.8,393.44Z" style="fill:none;stroke:#F15A60;stroke-width:0.625" />
<path d="M1197.7,392.8L1197.7,392.8A3.125,3.125 0 1 1 1191.5,392.8A3.125,3.125 0 1 1 1197.7,392.8Z" style="fill:none;stroke:#F15A60;stroke-width:0.625" />
<path d="M1204.6,392.52A3.125,3.125 0 1 1 1198.4,392.52A3.125,3.125 0 1 1 1204.6,392.52Z" style="fill:none;stroke:#F15A60;stroke-width:0.625" />
<path d="M1211.6,389.5A3.125,3.125 0 1 1 1205.3,389.5A3.125,3.125 0 1 1 1211.6,389.5Z" style="fill:none;stroke:#F15A60;stroke-width:0.625" />
<path d="M1218.5,392.03A3.125,3.125 0 1 1 1212.2,392.03A3.125,3.125 0 1 1 1218.5,392.03Z" style="fill:none;stroke:#F15A60;stroke-width:0.625" />
<path d="M1225.4,391.09A3.125,3.125 0 1 1 1219.2,391.09A3.125,3.125 0 1 1 1225.4,391.09Z" style="fill:none;stroke:#F15A60;stroke-width:0.625" />
<path d="M1232.3,392.26L1232.3,392.26A3.125,3.125 0 1 1 1226.1,392.26A3.125,3.125 0 1 1 1232.3,392.26Z" style="fill:none;stroke:#F15A60;stroke-width:0.625" />
<path d="M1239.3,388.25A3.125,3.125 0 1 1 1233,388.25A3.125,3.125 0 1 1 1239.3,388.25Z" style="fill:none;stroke:#F15A60;stroke-width:0.625" />
<path d="M1246.2,392.39L1246.2,392.39A3.125,3.125 0 1 1 1239.9,392.39A3.125,3.125 0 1 1 1246.2,392.39Z" style="fill:none;stroke:#F15A60;stroke-width:0.625" />
<path d="M1253.1,389.81A3.125,3.125 0 1 1 1246.9,389.81A3.125,3.125 0 1 1 1253.1,389.81Z" style="fill:none;stroke:#F15A60;stroke-width:0.625" />
<path d="M1260,392.11A3.125,3.125 0 1 1 1253.8,392.11A3.125,3.125 0 1 1 1260,392.11Z" style="fill:none;stroke:#F15A60;stroke-width:0.625" />
<path d="M1266.9,392.83A3.125,3.125 0 1 1 1260.7,392.83A3.125,3.125 0 1 1 1266.9,392.83Z" style="fill:none;stroke:#F15A60;stroke-width:0.625" />
<path d="M1273.9,394.52A3.125,3.125 0 1 1 1267.6,394.52A3.125,3.125 0 1 1 1273.9,394.52Z" style="fill:none;stroke:#F15A60;stroke-width:0.625" />
<path d="M1280.8,395.14L1280.8,395.14A3.125,3.125 0 1 1 1274.5,395.14A3.125,3.125 0 1 1 1280.8,395.14Z" style="fill:none;stroke:#F15A60;stroke-width:0.625" />
<path d="M1287.7,393.65A3.125,3.125 0 1 1 1281.5,393.65A3.125,3.125 0 1 1 1287.7,393.65Z" style="fill:none;stroke:#F15A60;stroke-width:0.625" />
<path d="M1294.6,393.64A3.125,3.125 0 1 1 1288.4,393.64A3.125,3.125 0 1 1 1294.6,393.64Z" style="fill:none;stroke:#F15A60;stroke-width:0.625" />
<path d="M1301.6,395.88A3.125,3.125 0 1 1 1295.3,395.88A3.125,3.125 0 1 1 1301.6,395.88Z" style="fill:none;stroke:#F15A60;stroke-width:0.625" />
<path d="M1308.5,398.7A3.125,3.125 0 1 1 1302.2,398.7A3.125,3.125 0 1 1 1308.5,398.7Z" style="fill:none;stroke:#F15A60;stroke-width:0.625" />
<path d="M1315.4,398.07A3.125,3.125 0 1 1 1309.2,398.07A3.125,3.125 0 1 1 1315.4,398.07Z" style="fill:none;stroke:#F15A60;stroke-width:0.625" />
<path d="M1322.3,397.71A3.125,3.125 0 1 1 1316.1,397.71A3.125,3.125 0 1 1 1322.3,397.71Z" style="fill:none;stroke:#F15A60;stroke-width:0.625" />
<path d="M1329.2,396.94A3.125,3.125 0 1 1 1323,396.94A3.125,3.125 0 1 1 1329.2,396.94Z" style="fill:none;stroke:#F15A60;stroke-width:0.625" />
<path d="M1336.2,398.68L1336.2,398.68A3.125,3.125 0 1 1 1329.9,398.68A3.125,3.125 0 1 1 1336.2,398.68Z" style="fill:none;stroke:#F15A60;stroke-width:0.625" />
<path d="M1343.1,401.03A3.125,3.125 0 1 1 1336.8,401.03A3.125,3.125 0 1 1 1343.1,401.03Z" style="fill:none;stroke:#F15A60;stroke-width:0.625" />
<path d="M1350,397.98L1350,397.98A3.125,3.125 0 1 1 1343.8,397.98A3.125,3.125 0 1 1 1350,397.98Z" style="fill:none;stroke:#F15A60;stroke-width:0.625" />
<path d="M1356.9,396.42A3.125,3.125 0 1 1 1350.7,396.42A3.125,3.125 0 1 1 1356.9,396.42Z" style="fill:none;stroke:#F15A60;stroke-width:0.625" />
<path d="M1363.9,398.49L1363.9,398.49A3.125,3.125 0 1 1 1357.6,398.49A3.125,3.125 0 1 1 1363.9,398.49Z" style="fill:none;stroke:#F15A60;stroke-width:0.625" />
<path d="M1370.8,398.13A3.125,3.125 0 1 1 1364.5,398.13A3.125,3.125 0 1 1 1370.8,398.13Z" style="fill:none;stroke:#F15A60;stroke-width:0.625" />
<path d="M1377.7,395.18L1377.7,395.18A3.125,3.125 0 1 1 1371.5,395.18A3.125,3.125 0 1 1 1377.7,395.18Z" style="fill:none;stroke:#F15A60;stroke-width:0.625" />
<path d="M1384.6,393.46A3.125,3.125 0 1 1 1378.4,393.46A3.125,3.125 0 1 1 1384.6,393.46Z" style="fill:none;stroke:#F15A60;stroke-width:0.625" />
<path d="M1391.5,395.22L1391.5,395.22A3.125,3.125 0 1 1 1385.3,395.22A3.125,3.125 0 1 1 1391.5,395.22Z" style="fill:none;stroke:#F15A60;stroke-width:0.625" />
<path d="M1398.5,392.79A3.125,3.125 0 1 1 1392.2,392.79A3.125,3.125 0 1 1 1398.5,392.79Z" style="fill:none;stroke:#F15A60;stroke-width:0.625" />
<path d="M1405.4,391.55A3.125,3.125 0 1 1 1399.1,391.55A3.125,3.125 0 1 1 1405.4,391.55Z" style="fill:none;stroke:#F15A60;stroke-width:0.625" />
<path d="M1412.3,390.5L1412.3,390.5A3.125,3.125 0 1 1 1406.1,390.5A3.125,3.125 0 1 1 1412.3,390.5Z" style="fill:none;stroke:#F15A60;stroke-width:0.625" />
<path d="M1419.2,389.32A3.125,3.125 0 1 1 1413,389.32A3.125,3.125 0 1 1 1419.2,389.32Z" style="fill:none;stroke:#F15A60;stroke-width:0.625" />
<path d="M1426.2,390.48A3.125,3.125 0 1 1 1419.9,390.48A3.125,3.125 0 1 1 1426.2,390.48Z" style="fill:none;stroke:#F15A60;stroke-width:0.625" />
<path d="M1433.1,388.98A3.125,3.125 0 1 1 1426.8,388.98A3.125,3.125 0 1 1 1433.1,388.98Z" style="fill:none;stroke:#F15A60;stroke-width:0.625" />
<path d="M1440,388.14A3.125,3.125 0 1 1 1433.8,388.14A3.125,3.125 0 1 1 1440,388.14Z" style="fill:none;stroke:#F15A60;stroke-width:0.625" />
<path d="M59.37,393.84L66.292,396.03L73.214,397.23L80.137,397.74L87.059,397.84L93.981,397.72L100.9,397.5L107.83,397.27L114.75,400.14L121.67,399.39L128.59,400.66L135.51,400.69L142.44,398.49L149.36,397.06L156.28,394.81L163.2,392.94L170.12,393.54L177.05,393.77L183.97,393.39L190.89,390.56L197.81,389.57L204.73,388.71L211.66,385.27L218.58,387.87L225.5,388.75L232.42,389.59L239.35,391.17L246.27,392.44L253.19,393.98L260.11,394.71L267.03,395.1L273.96,395.53L280.88,398.11L287.8,399.41L294.72,397.32L301.64,398.59L308.57,406.18L315.49,405.27L322.41,403.39L329.33,401.73L336.26,401.55L343.18,397.47L350.1,395.26L357.02,397.15L363.94,397.28L370.87,395.31L377.79,393.22L384.71,392.78L391.63,391.85L398.55,390.98L405.48,387.44L412.4,388.3L419.32,387.05L426.24,386.41L433.17,388.2L440.09,389.67L447.01,391.98L453.93,393.38L460.85,395.56L467.78,397.64L474.7,407L481.62,405.6L488.54,403.29L495.46,397.25L502.39,400.7L509.31,402.76L516.23,403.48L523.15,408.14L530.08,407.28L537,404.78L543.92,392.51L550.84,392.68L557.76,394.97L564.69,396.25L571.61,397.41L578.53,394.02L585.45,391.41L592.37,391.11L599.3,390.99L606.22,390.04L613.14,389.49L620.06,387.83L626.99,609.29L633.91,532.27L640.83,473.63L647.75,431.7L654.67,404.78L661.6,388.85L668.52,382.46L675.44,144.25L682.36,231.08L689.28,296.87L696.21,346.17L703.13,380.64L710.05,403.45L716.97,425.25L723.9,74.359L730.82,200.3L737.74,285.13L744.66,345.99L751.58,411.23L758.51,422.77L765.43,436.44L772.35,359.25L779.27,381.4L786.19,389.06L793.12,388.44L800.04,394.48L806.96,391.46L813.88,378.47L820.8,399.03L827.73,423.66L834.65,410.23L841.57,403.32L848.49,399.48L855.42,394.69L862.34,396.29L869.26,392.9L876.18,354.05L883.1,408.93L890.03,408.85L896.95,419.62L903.87,416.21L910.79,419.5L917.71,441.6L924.64,371.58L931.56,398.77L938.48,406.5L945.4,413.99L952.33,416.23L959.25,413.48L966.17,421.53L973.09,399.63L980.01,394.59L986.94,391.77L993.86,390.75L1000.8,390.22L1007.7,388.92L1014.6,377.62L1021.5,371.12L1028.5,376.9L1035.4,385.73L1042.3,51.226L1049.2,174.57L1056.2,262.16L1063.1,328.97L1070,370.2L1076.9,398.03L1083.8,372.05L1090.8,590.41L1097.7,575.81L1104.6,522.5L1111.5,498.02L1118.5,481.38L1125.4,446.88L1132.3,374.06L1139.2,681.17L1146.1,657.6L1153.1,599.68L1160,525.89L1166.9,483.15L1173.8,434.92L1180.8,392.28L1187.7,404.72L1194.6,395.69L1201.5,387.65L1208.4,356.18L1215.4,362.79L1222.3,368.64L1229.2,377.32L1236.1,347.53L1243.1,365.31L1250,70.984L1256.9,185.35L1263.8,280.94L1270.7,350.17L1277.7,384.63L1284.6,412.27L1291.5,431.9L1298.4,727.53L1305.4,710.3L1312.3,740.35L1319.2,673.84L1326.1,543.1L1333,500.73L1340,544.27L1346.9,806.88L1353.8,713.61L1360.7,740.15L1367.7,687.05L1374.6,539.92L1381.5,453.4L1388.4,425.02L1395.3,407.02L1402.3,360.99L1409.2,305.09L1416.1,261.9L1423,305.03L1430,299.74L1436.9,308.41" style="fill:none;stroke:#7AC36A;stroke-width:1.25;stroke-dasharray:7.5,2.5" />
<path d="M56.703,391.17L62.037,391.17L62.037,396.51L56.703,396.51Z" style="fill:none;stroke:#7AC36A;stroke-width:0.625" />
<path d="M63.625,393.37L68.96,393.37L68.96,398.7L63.625,398.7Z" style="fill:none;stroke:#7AC36A;stroke-width:0.625" />
<path d="M70.547,394.56L75.882,394.56L75.882,399.9L70.547,399.9Z" style="fill:none;stroke:#7AC36A;stroke-width:0.625" />
<path d="M77.469,395.08L82.804,395.08L82.804,400.41L77.469,400.41Z" style="fill:none;stroke:#7AC36A;stroke-width:0.625" />
<path d="M84.391,395.18L89.726,395.18L89.726,400.51L84.391,400.51Z" style="fill:none;stroke:#7AC36A;stroke-width:0.625" />
<path d="M91.313,395.05L96.648,395.05L96.648,400.39L91.313,400.39Z" style="fill:none;stroke:#7AC36A;stroke-width:0.625" />
<path d="M98.236,394.84L103.57,394.84L103.57,400.17L98.236,400.17Z" style="fill:none;stroke:#7AC36A;stroke-width:0.625" />
<path d="M105.16,394.61L110.49,394.61L110.49,399.94L105.16,399.94Z" style="fill:none;stroke:#7AC36A;stroke-width:0.625" />
<path d="M112.08,397.47L117.41,397.47L117.41,402.81L112.08,402.81Z" style="fill:none;stroke:#7AC36A;stroke-width:0.625" />
<path d="M119,396.72L124.34,396.72L124.34,402.06L119,402.06Z" style="fill:none;stroke:#7AC36A;stroke-width:0.625" />
<path d="M125.92,397.99L131.26,397.99L131.26,403.32L125.92,403.32Z" style="fill:none;stroke:#7AC36A;stroke-width:0.625" />
<path d="M132.85,398.03L138.18,398.03L138.18,403.36L132.85,403.36Z" style="fill:none;stroke:#7AC36A;stroke-width:0.625" />
<path d="M139.77,395.82L145.1,395.82L145.1,401.16L139.77,401.16Z" style="fill:none;stroke:#7AC36A;stroke-width:0.625" />
<path d="M146.69,394.4L152.03,394.4L152.03,399.73L146.69,399.73Z" style="fill:none;stroke:#7AC36A;stroke-width:0.625" />
<path d="M153.61,392.15L158.95,392.15L158.95,397.48L153.61,397.48Z" style="fill:none;stroke:#7AC36A;stroke-width:0.625" />
<path d="M160.53,390.27L165.87,390.27L165.87,395.61L160.53,395.61Z" style="fill:none;stroke:#7AC36A;stroke-width:0.625" />
<path d="M167.46,390.87L172.79,390.87L172.79,396.2L167.46,396.2Z" style="fill:none;stroke:#7AC36A;stroke-width:0.625" />
<path d="M174.38,391.11L179.71,391.11L179.71,396.44L174.38,396.44Z" style="fill:none;stroke:#7AC36A;stroke-width:0.625" />
<path d="M181.3,390.72L186.64,390.72L186.64,396.06L181.3,396.06Z" style="fill:none;stroke:#7AC36A;stroke-width:0.625" />
<path d="M188.22,387.89L193.56,387.89L193.56,393.23L188.22,393.23Z" style="fill:none;stroke:#7AC36A;stroke-width:0.625" />
<path d="M195.15,386.9L200.48,386.9L200.48,392.24L195.15,392.24Z" style="fill:none;stroke:#7AC36A;stroke-width:0.625" />
<path d="M202.07,386.05L207.4,386.05L207.4,391.38L202.07,391.38Z" style="fill:none;stroke:#7AC36A;stroke-width:0.625" />
<path d="M208.99,382.6L214.32,382.6L214.32,387.94L208.99,387.94Z" style="fill:none;stroke:#7AC36A;stroke-width:0.625" />
<path d="M215.91,385.2L221.25,385.2L221.25,390.54L215.91,390.54Z" style="fill:none;stroke:#7AC36A;stroke-width:0.625" />
<path d="M222.83,386.09L228.17,386.09L228.17,391.42L222.83,391.42Z" style="fill:none;stroke:#7AC36A;stroke-width:0.625" />
<path d="M229.76,386.93L235.09,386.93L235.09,392.26L229.76,392.26Z" style="fill:none;stroke:#7AC36A;stroke-width:0.625" />
<path d="M236.68,388.51L242.01,388.51L242.01,393.84L236.68,393.84Z" style="fill:none;stroke:#7AC36A;stroke-width:0.625" />
<path d="M243.6,389.77L248.94,389.77L248.94,395.11L243.6,395.11Z" style="fill:none;stroke:#7AC36A;stroke-width:0.625" />
<path d="M250.52,391.31L255.86,391.31L255.86,396.65L250.52,396.65Z" style="fill:none;stroke:#7AC36A;stroke-width:0.625" />
<path d="M257.44,392.05L262.78,392.05L262.78,397.38L257.44,397.38Z" style="fill:none;stroke:#7AC36A;stroke-width:0.625" />
<path d="M264.37,392.43L269.7,392.43L269.7,397.77L264.37,397.77Z" style="fill:none;stroke:#7AC36A;stroke-width:0.625" />
<path d="M271.29,392.86L276.62,392.86L276.62,398.2L271.29,398.2Z" style="fill:none;stroke:#7AC36A;stroke-width:0.625" />
<path d="M278.21,395.44L283.55,395.44L283.55,400.78L278.21,400.78Z" style="fill:none;stroke:#7AC36A;stroke-width:0.625" />
<path d="M285.13,396.74L290.47,396.74L290.47,402.07L285.13,402.07Z" style="fill:none;stroke:#7AC36A;stroke-width:0.625" />
<path d="M292.06,394.66L297.39,394.66L297.39,399.99L292.06,399.99Z" style="fill:none;stroke:#7AC36A;stroke-width:0.625" />
<path d="M298.98,395.92L304.31,395.92L304.31,401.25L298.98,401.25Z" style="fill:none;stroke:#7AC36A;stroke-width:0.625" />
<path d="M305.9,403.51L311.23,403.51L311.23,408.84L305.9,408.84Z" style="fill:none;stroke:#7AC36A;stroke-width:0.625" />
<path d="M312.82,402.61L318.16,402.61L318.16,407.94L312.82,407.94Z" style="fill:none;stroke:#7AC36A;stroke-width:0.625" />
<path d="M319.74,400.73L325.08,400.73L325.08,406.06L319.74,406.06Z" style="fill:none;stroke:#7AC36A;stroke-width:0.625" />
<path d="M326.67,399.06L332,399.06L332,404.4L326.67,404.4Z" style="fill:none;stroke:#7AC36A;stroke-width:0.625" />
<path d="M333.59,398.88L338.92,398.88L338.92,404.21L333.59,404.21Z" style="fill:none;stroke:#7AC36A;stroke-width:0.625" />
<path d="M340.51,394.8L345.85,394.8L345.85,400.14L340.51,400.14Z" style="fill:none;stroke:#7AC36A;stroke-width:0.625" />
<path d="M347.43,392.59L352.77,392.59L352.77,397.93L347.43,397.93Z" style="fill:none;stroke:#7AC36A;stroke-width:0.625" />
<path d="M354.35,394.49L359.69,394.49L359.69,399.82L354.35,399.82Z" style="fill:none;stroke:#7AC36A;stroke-width:0.625" />
<path d="M361.28,394.61L366.61,394.61L366.61,399.94L361.28,399.94Z" style="fill:none;stroke:#7AC36A;stroke-width:0.625" />
<path d="M368.2,392.64L373.53,392.64L373.53,397.98L368.2,397.98Z" style="fill:none;stroke:#7AC36A;stroke-width:0.625" />
<path d="M375.12,390.56L380.46,390.56L380.46,395.89L375.12,395.89Z" style="fill:none;stroke:#7AC36A;stroke-width:0.625" />
<path d="M382.04,390.11L387.38,390.11L387.38,395.45L382.04,395.45Z" style="fill:none;stroke:#7AC36A;stroke-width:0.625" />
<path d="M388.97,389.19L394.3,389.19L394.3,394.52L388.97,394.52Z" style="fill:none;stroke:#7AC36A;stroke-width:0.625" />
<path d="M395.89,388.31L401.22,388.31L401.22,393.65L395.89,393.65Z" style="fill:none;stroke:#7AC36A;stroke-width:0.625" />
<path d="M402.81,384.77L408.14,384.77L408.14,390.11L402.81,390.11Z" style="fill:none;stroke:#7AC36A;stroke-width:0.625" />
<path d="M409.73,385.64L415.07,385.64L415.07,390.97L409.73,390.97Z" style="fill:none;stroke:#7AC36A;stroke-width:0.625" />
<path d="M416.65,384.38L421.99,384.38L421.99,389.71L416.65,389.71Z" style="fill:none;stroke:#7AC36A;stroke-width:0.625" />
<path d="M423.58,383.74L428.91,383.74L428.91,389.08L423.58,389.08Z" style="fill:none;stroke:#7AC36A;stroke-width:0.625" />
<path d="M430.5,385.53L435.83,385.53L435.83,390.86L430.5,390.86Z" style="fill:none;stroke:#7AC36A;stroke-width:0.625" />
<path d="M437.42,387L442.75,387L442.75,392.33L437.42,392.33Z" style="fill:none;stroke:#7AC36A;stroke-width:0.625" />
<path d="M444.34,389.31L449.68,389.31L449.68,394.64L444.34,394.64Z" style="fill:none;stroke:#7AC36A;stroke-width:0.625" />
<path d="M451.26,390.71L456.6,390.71L456.6,396.04L451.26,396.04Z" style="fill:none;stroke:#7AC36A;stroke-width:0.625" />
<path d="M458.19,392.89L463.52,392.89L463.52,398.22L458.19,398.22Z" style="fill:none;stroke:#7AC36A;stroke-width:0.625" />
<path d="M465.11,394.98L470.44,394.98L470.44,400.31L465.11,400.31Z" style="fill:none;stroke:#7AC36A;stroke-width:0.625" />
<path d="M472.03,404.33L477.37,404.33L477.37,409.67L472.03,409.67Z" style="fill:none;stroke:#7AC36A;stroke-width:0.625" />
<path d="M478.95,402.94L484.29,402.94L484.29,408.27L478.95,408.27Z" style="fill:none;stroke:#7AC36A;stroke-width:0.625" />
<path d="M485.88,400.62L491.21,400.62L491.21,405.96L485.88,405.96Z" style="fill:none;stroke:#7AC36A;stroke-width:0.625" />
<path d="M492.8,394.59L498.13,394.59L498.13,399.92L492.8,399.92Z" style="fill:none;stroke:#7AC36A;stroke-width:0.625" />
<path d="M499.72,398.03L505.05,398.03L505.05,403.37L499.72,403.37Z" style="fill:none;stroke:#7AC36A;stroke-width:0.625" />
<path d="M506.64,400.09L511.98,400.09L511.98,405.43L506.64,405.43Z" style="fill:none;stroke:#7AC36A;stroke-width:0.625" />
<path d="M513.56,400.81L518.9,400.81L518.9,406.14L513.56,406.14Z" style="fill:none;stroke:#7AC36A;stroke-width:0.625" />
<path d="M520.49,405.48L525.82,405.48L525.82,410.81L520.49,410.81Z" style="fill:none;stroke:#7AC36A;stroke-width:0.625" />
<path d="M527.41,404.62L532.74,404.62L532.74,409.95L527.41,409.95Z" style="fill:none;stroke:#7AC36A;stroke-width:0.625" />
<path d="M534.33,402.11L539.66,402.11L539.66,407.45L534.33,407.45Z" style="fill:none;stroke:#7AC36A;stroke-width:0.625" />
<path d="M541.25,389.84L546.59,389.84L546.59,395.18L541.25,395.18Z" style="fill:none;stroke:#7AC36A;stroke-width:0.625" />
<path d="M548.17,390.01L553.51,390.01L553.51,395.34L548.17,395.34Z" style="fill:none;stroke:#7AC36A;stroke-width:0.625" />
<path d="M555.1,392.31L560.43,392.31L560.43,397.64L555.1,397.64Z" style="fill:none;stroke:#7AC36A;stroke-width:0.625" />
<path d="M562.02,393.58L567.35,393.58L567.35,398.92L562.02,398.92Z" style="fill:none;stroke:#7AC36A;stroke-width:0.625" />
<path d="M568.94,394.74L574.28,394.74L574.28,400.08L568.94,400.08Z" style="fill:none;stroke:#7AC36A;stroke-width:0.625" />
<path d="M575.86,391.35L581.2,391.35L581.2,396.69L575.86,396.69Z" style="fill:none;stroke:#7AC36A;stroke-width:0.625" />
<path d="M582.79,388.74L588.12,388.74L588.12,394.08L582.79,394.08Z" style="fill:none;stroke:#7AC36A;stroke-width:0.625" />
<path d="M589.71,388.45L595.04,388.45L595.04,393.78L589.71,393.78Z" style="fill:none;stroke:#7AC36A;stroke-width:0.625" />
<path d="M596.63,388.32L601.96,388.32L601.96,393.66L596.63,393.66Z" style="fill:none;stroke:#7AC36A;stroke-width:0.625" />
<path d="M603.55,387.37L608.89,387.37L608.89,392.71L603.55,392.71Z" style="fill:none;stroke:#7AC36A;stroke-width:0.625" />
<path d="M610.47,386.82L615.81,386.82L615.81,392.15L610.47,392.15Z" style="fill:none;stroke:#7AC36A;stroke-width:0.625" />
<path d="M617.4,385.16L622.73,385.16L622.73,390.49L617.4,390.49Z" style="fill:none;stroke:#7AC36A;stroke-width:0.625" />
<path d="M624.32,606.62L629.65,606.62L629.65,611.96L624.32,611.96Z" style="fill:none;stroke:#7AC36A;stroke-width:0.625" />
<path d="M631.24,529.61L636.57,529.61L636.57,534.94L631.24,534.94Z" style="fill:none;stroke:#7AC36A;stroke-width:0.625" />
<path d="M638.16,470.96L643.5,470.96L643.5,476.3L638.16,476.3Z" style="fill:none;stroke:#7AC36A;stroke-width:0.625" />
<path d="M645.08,429.03L650.42,429.03L650.42,434.37L645.08,434.37Z" style="fill:none;stroke:#7AC36A;stroke-width:0.625" />
<path d="M652.01,402.12L657.34,402.12L657.34,407.45L652.01,407.45Z" style="fill:none;stroke:#7AC36A;stroke-width:0.625" />
<path d="M658.93,386.19L664.26,386.19L664.26,391.52L658.93,391.52Z" style="fill:none;stroke:#7AC36A;stroke-width:0.625" />
<path d="M665.85,379.79L671.19,379.79L671.19,385.12L665.85,385.12Z" style="fill:none;stroke:#7AC36A;stroke-width:0.625" />
<path d="M672.77,141.58L678.11,141.58L678.11,146.92L672.77,146.92Z" style="fill:none;stroke:#7AC36A;stroke-width:0.625" />
<path d="M679.69,228.42L685.03,228.42L685.03,233.75L679.69,233.75Z" style="fill:none;stroke:#7AC36A;stroke-width:0.625" />
<path d="M686.62,294.2L691.95,294.2L691.95,299.54L686.62,299.54Z" style="fill:none;stroke:#7AC36A;stroke-width:0.625" />
<path d="M693.54,343.5L698.87,343.5L698.87,348.83L693.54,348.83Z" style="fill:none;stroke:#7AC36A;stroke-width:0.625" />
<path d="M700.46,377.97L705.8,377.97L705.8,383.31L700.46,383.31Z" style="fill:none;stroke:#7AC36A;stroke-width:0.625" />
<path d="M707.38,400.79L712.72,400.79L712.72,406.12L707.38,406.12Z" style="fill:none;stroke:#7AC36A;stroke-width:0.625" />
<path d="M714.31,422.59L719.64,422.59L719.64,427.92L714.31,427.92Z" style="fill:none;stroke:#7AC36A;stroke-width:0.625" />
<path d="M721.23,71.691L726.56,71.691L726.56,77.026L721.23,77.026Z" style="fill:none;stroke:#7AC36A;stroke-width:0.625" />
<path d="M728.15,197.64L733.48,197.64L733.48,202.97L728.15,202.97Z" style="fill:none;stroke:#7AC36A;stroke-width:0.625" />
<path d="M735.07,282.47L740.41,282.47L740.41,287.8L735.07,287.8Z" style="fill:none;stroke:#7AC36A;stroke-width:0.625" />
<path d="M741.99,343.32L747.33,343.32L747.33,348.65L741.99,348.65Z" style="fill:none;stroke:#7AC36A;stroke-width:0.625" />
<path d="M748.92,408.56L754.25,408.56L754.25,413.9L748.92,413.9Z" style="fill:none;stroke:#7AC36A;stroke-width:0.625" />
<path d="M755.84,420.11L761.17,420.11L761.17,425.44L755.84,425.44Z" style="fill:none;stroke:#7AC36A;stroke-width:0.625" />
<path d="M762.76,433.77L768.1,433.77L768.1,439.11L762.76,439.11Z" style="fill:none;stroke:#7AC36A;stroke-width:0.625" />
<path d="M769.68,356.58L775.02,356.58L775.02,361.91L769.68,361.91Z" style="fill:none;stroke:#7AC36A;stroke-width:0.625" />
<path d="M776.6,378.73L781.94,378.73L781.94,384.07L776.6,384.07Z" style="fill:none;stroke:#7AC36A;stroke-width:0.625" />
<path d="M783.53,386.39L788.86,386.39L788.86,391.73L783.53,391.73Z" style="fill:none;stroke:#7AC36A;stroke-width:0.625" />
<path d="M790.45,385.77L795.78,385.77L795.78,391.1L790.45,391.1Z" style="fill:none;stroke:#7AC36A;stroke-width:0.625" />
<path d="M797.37,391.81L802.71,391.81L802.71,397.14L797.37,397.14Z" style="fill:none;stroke:#7AC36A;stroke-width:0.625" />
<path d="M804.29,388.79L809.63,388.79L809.63,394.13L804.29,394.13Z" style="fill:none;stroke:#7AC36A;stroke-width:0.625" />
<path d="M811.22,375.8L816.55,375.8L816.55,381.14L811.22,381.14Z" style="fill:none;stroke:#7AC36A;stroke-width:0.625" />
<path d="M818.14,396.36L823.47,396.36L823.47,401.7L818.14,401.7Z" style="fill:none;stroke:#7AC36A;stroke-width:0.625" />
<path d="M825.06,421L830.39,421L830.39,426.33L825.06,426.33Z" style="fill:none;stroke:#7AC36A;stroke-width:0.625" />
<path d="M831.98,407.56L837.32,407.56L837.32,412.9L831.98,412.9Z" style="fill:none;stroke:#7AC36A;stroke-width:0.625" />
<path d="M838.9,400.65L844.24,400.65L844.24,405.99L838.9,405.99Z" style="fill:none;stroke:#7AC36A;stroke-width:0.625" />
<path d="M845.83,396.82L851.16,396.82L851.16,402.15L845.83,402.15Z" style="fill:none;stroke:#7AC36A;stroke-width:0.625" />
<path d="M852.75,392.03L858.08,392.03L858.08,397.36L852.75,397.36Z" style="fill:none;stroke:#7AC36A;stroke-width:0.625" />
<path d="M859.67,393.63L865.01,393.63L865.01,398.96L859.67,398.96Z" style="fill:none;stroke:#7AC36A;stroke-width:0.625" />
<path d="M866.59,390.23L871.93,390.23L871.93,395.57L866.59,395.57Z" style="fill:none;stroke:#7AC36A;stroke-width:0.625" />
<path d="M873.51,351.38L878.85,351.38L878.85,356.72L873.51,356.72Z" style="fill:none;stroke:#7AC36A;stroke-width:0.625" />
<path d="M880.44,406.27L885.77,406.27L885.77,411.6L880.44,411.6Z" style="fill:none;stroke:#7AC36A;stroke-width:0.625" />
<path d="M887.36,406.18L892.69,406.18L892.69,411.52L887.36,411.52Z" style="fill:none;stroke:#7AC36A;stroke-width:0.625" />
<path d="M894.28,416.95L899.62,416.95L899.62,422.29L894.28,422.29Z" style="fill:none;stroke:#7AC36A;stroke-width:0.625" />
<path d="M901.2,413.55L906.54,413.55L906.54,418.88L901.2,418.88Z" style="fill:none;stroke:#7AC36A;stroke-width:0.625" />
<path d="M908.13,416.83L913.46,416.83L913.46,422.16L908.13,422.16Z" style="fill:none;stroke:#7AC36A;stroke-width:0.625" />
<path d="M915.05,438.94L920.38,438.94L920.38,444.27L915.05,444.27Z" style="fill:none;stroke:#7AC36A;stroke-width:0.625" />
<path d="M921.97,368.91L927.3,368.91L927.3,374.24L921.97,374.24Z" style="fill:none;stroke:#7AC36A;stroke-width:0.625" />
<path d="M928.89,396.11L934.23,396.11L934.23,401.44L928.89,401.44Z" style="fill:none;stroke:#7AC36A;stroke-width:0.625" />
<path d="M935.81,403.83L941.15,403.83L941.15,409.17L935.81,409.17Z" style="fill:none;stroke:#7AC36A;stroke-width:0.625" />
<path d="M942.74,411.32L948.07,411.32L948.07,416.66L942.74,416.66Z" style="fill:none;stroke:#7AC36A;stroke-width:0.625" />
<path d="M949.66,413.56L954.99,413.56L954.99,418.9L949.66,418.9Z" style="fill:none;stroke:#7AC36A;stroke-width:0.625" />
<path d="M956.58,410.81L961.92,410.81L961.92,416.15L956.58,416.15Z" style="fill:none;stroke:#7AC36A;stroke-width:0.625" />
<path d="M963.5,418.86L968.84,418.86L968.84,424.2L963.5,424.2Z" style="fill:none;stroke:#7AC36A;stroke-width:0.625" />
<path d="M970.42,396.96L975.76,396.96L975.76,402.3L970.42,402.3Z" style="fill:none;stroke:#7AC36A;stroke-width:0.625" />
<path d="M977.35,391.93L982.68,391.93L982.68,397.26L977.35,397.26Z" style="fill:none;stroke:#7AC36A;stroke-width:0.625" />
<path d="M984.27,389.1L989.6,389.1L989.6,394.43L984.27,394.43Z" style="fill:none;stroke:#7AC36A;stroke-width:0.625" />
<path d="M991.19,388.08L996.53,388.08L996.53,393.42L991.19,393.42Z" style="fill:none;stroke:#7AC36A;stroke-width:0.625" />
<path d="M998.11,387.55L1003.4,387.55L1003.4,392.89L998.11,392.89Z" style="fill:none;stroke:#7AC36A;stroke-width:0.625" />
<path d="M1005,386.25L1010.4,386.25L1010.4,391.59L1005,391.59Z" style="fill:none;stroke:#7AC36A;stroke-width:0.625" />
<path d="M1012,374.95L1017.3,374.95L1017.3,380.28L1012,380.28Z" style="fill:none;stroke:#7AC36A;stroke-width:0.625" />
<path d="M1018.9,368.45L1024.2,368.45L1024.2,373.79L1018.9,373.79Z" style="fill:none;stroke:#7AC36A;stroke-width:0.625" />
<path d="M1025.8,374.24L1031.1,374.24L1031.1,379.57L1025.8,379.57Z" style="fill:none;stroke:#7AC36A;stroke-width:0.625" />
<path d="M1032.7,383.06L1038.1,383.06L1038.1,388.39L1032.7,388.39Z" style="fill:none;stroke:#7AC36A;stroke-width:0.625" />
<path d="M1039.6,48.558L1045,48.558L1045,53.893L1039.6,53.893Z" style="fill:none;stroke:#7AC36A;stroke-width:0.625" />
<path d="M1046.6,171.9L1051.9,171.9L1051.9,177.24L1046.6,177.24Z" style="fill:none;stroke:#7AC36A;stroke-width:0.625" />
<path d="M1053.5,259.5L1058.8,259.5L1058.8,264.83L1053.5,264.83Z" style="fill:none;stroke:#7AC36A;stroke-width:0.625" />
<path d="M1060.4,326.31L1065.7,326.31L1065.7,331.64L1060.4,331.64Z" style="fill:none;stroke:#7AC36A;stroke-width:0.625" />
<path d="M1067.3,367.53L1072.7,367.53L1072.7,372.86L1067.3,372.86Z" style="fill:none;stroke:#7AC36A;stroke-width:0.625" />
<path d="M1074.3,395.36L1079.6,395.36L1079.6,400.7L1074.3,400.7Z" style="fill:none;stroke:#7AC36A;stroke-width:0.625" />
<path d="M1081.2,369.38L1086.5,369.38L1086.5,374.71L1081.2,374.71Z" style="fill:none;stroke:#7AC36A;stroke-width:0.625" />
<path d="M1088.1,587.74L1093.4,587.74L1093.4,593.08L1088.1,593.08Z" style="fill:none;stroke:#7AC36A;stroke-width:0.625" />
<path d="M1095,573.15L1100.4,573.15L1100.4,578.48L1095,578.48Z" style="fill:none;stroke:#7AC36A;stroke-width:0.625" />
<path d="M1101.9,519.83L1107.3,519.83L1107.3,525.17L1101.9,525.17Z" style="fill:none;stroke:#7AC36A;stroke-width:0.625" />
<path d="M1108.9,495.35L1114.2,495.35L1114.2,500.69L1108.9,500.69Z" style="fill:none;stroke:#7AC36A;stroke-width:0.625" />
<path d="M1115.8,478.71L1121.1,478.71L1121.1,484.05L1115.8,484.05Z" style="fill:none;stroke:#7AC36A;stroke-width:0.625" />
<path d="M1122.7,444.22L1128,444.22L1128,449.55L1122.7,449.55Z" style="fill:none;stroke:#7AC36A;stroke-width:0.625" />
<path d="M1129.6,371.39L1135,371.39L1135,376.73L1129.6,376.73Z" style="fill:none;stroke:#7AC36A;stroke-width:0.625" />
<path d="M1136.6,678.5L1141.9,678.5L1141.9,683.84L1136.6,683.84Z" style="fill:none;stroke:#7AC36A;stroke-width:0.625" />
<path d="M1143.5,654.94L1148.8,654.94L1148.8,660.27L1143.5,660.27Z" style="fill:none;stroke:#7AC36A;stroke-width:0.625" />
<path d="M1150.4,597.02L1155.7,597.02L1155.7,602.35L1150.4,602.35Z" style="fill:none;stroke:#7AC36A;stroke-width:0.625" />
<path d="M1157.3,523.22L1162.7,523.22L1162.7,528.55L1157.3,528.55Z" style="fill:none;stroke:#7AC36A;stroke-width:0.625" />
<path d="M1164.2,480.48L1169.6,480.48L1169.6,485.82L1164.2,485.82Z" style="fill:none;stroke:#7AC36A;stroke-width:0.625" />
<path d="M1171.2,432.25L1176.5,432.25L1176.5,437.59L1171.2,437.59Z" style="fill:none;stroke:#7AC36A;stroke-width:0.625" />
<path d="M1178.1,389.61L1183.4,389.61L1183.4,394.94L1178.1,394.94Z" style="fill:none;stroke:#7AC36A;stroke-width:0.625" />
<path d="M1185,402.05L1190.3,402.05L1190.3,407.39L1185,407.39Z" style="fill:none;stroke:#7AC36A;stroke-width:0.625" />
<path d="M1191.9,393.02L1197.3,393.02L1197.3,398.35L1191.9,398.35Z" style="fill:none;stroke:#7AC36A;stroke-width:0.625" />
<path d="M1198.9,384.98L1204.2,384.98L1204.2,390.32L1198.9,390.32Z" style="fill:none;stroke:#7AC36A;stroke-width:0.625" />
<path d="M1205.8,353.51L1211.1,353.51L1211.1,358.85L1205.8,358.85Z" style="fill:none;stroke:#7AC36A;stroke-width:0.625" />
<path d="M1212.7,360.12L1218,360.12L1218,365.46L1212.7,365.46Z" style="fill:none;stroke:#7AC36A;stroke-width:0.625" />
<path d="M1219.6,365.97L1225,365.97L1225,371.31L1219.6,371.31Z" style="fill:none;stroke:#7AC36A;stroke-width:0.625" />
<path d="M1226.5,374.65L1231.9,374.65L1231.9,379.99L1226.5,379.99Z" style="fill:none;stroke:#7AC36A;stroke-width:0.625" />
<path d="M1233.5,344.86L1238.8,344.86L1238.8,350.2L1233.5,350.2Z" style="fill:none;stroke:#7AC36A;stroke-width:0.625" />
<path d="M1240.4,362.64L1245.7,362.64L1245.7,367.97L1240.4,367.97Z" style="fill:none;stroke:#7AC36A;stroke-width:0.625" />
<path d="M1247.3,68.317L1252.6,68.317L1252.6,73.651L1247.3,73.651Z" style="fill:none;stroke:#7AC36A;stroke-width:0.625" />
<path d="M1254.2,182.69L1259.6,182.69L1259.6,188.02L1254.2,188.02Z" style="fill:none;stroke:#7AC36A;stroke-width:0.625" />
<path d="M1261.2,278.28L1266.5,278.28L1266.5,283.61L1261.2,283.61Z" style="fill:none;stroke:#7AC36A;stroke-width:0.625" />
<path d="M1268.1,347.5L1273.4,347.5L1273.4,352.84L1268.1,352.84Z" style="fill:none;stroke:#7AC36A;stroke-width:0.625" />
<path d="M1275,381.97L1280.3,381.97L1280.3,387.3L1275,387.3Z" style="fill:none;stroke:#7AC36A;stroke-width:0.625" />
<path d="M1281.9,409.6L1287.3,409.6L1287.3,414.94L1281.9,414.94Z" style="fill:none;stroke:#7AC36A;stroke-width:0.625" />
<path d="M1288.8,429.24L1294.2,429.24L1294.2,434.57L1288.8,434.57Z" style="fill:none;stroke:#7AC36A;stroke-width:0.625" />
<path d="M1295.8,724.86L1301.1,724.86L1301.1,730.2L1295.8,730.2Z" style="fill:none;stroke:#7AC36A;stroke-width:0.625" />
<path d="M1302.7,707.63L1308,707.63L1308,712.96L1302.7,712.96Z" style="fill:none;stroke:#7AC36A;stroke-width:0.625" />
<path d="M1309.6,737.69L1314.9,737.69L1314.9,743.02L1309.6,743.02Z" style="fill:none;stroke:#7AC36A;stroke-width:0.625" />
<path d="M1316.5,671.18L1321.9,671.18L1321.9,676.51L1316.5,676.51Z" style="fill:none;stroke:#7AC36A;stroke-width:0.625" />
<path d="M1323.5,540.43L1328.8,540.43L1328.8,545.77L1323.5,545.77Z" style="fill:none;stroke:#7AC36A;stroke-width:0.625" />
<path d="M1330.4,498.06L1335.7,498.06L1335.7,503.39L1330.4,503.39Z" style="fill:none;stroke:#7AC36A;stroke-width:0.625" />
<path d="M1337.3,541.6L1342.6,541.6L1342.6,546.94L1337.3,546.94Z" style="fill:none;stroke:#7AC36A;stroke-width:0.625" />
<path d="M1344.2,804.21L1349.6,804.21L1349.6,809.54L1344.2,809.54Z" style="fill:none;stroke:#7AC36A;stroke-width:0.625" />
<path d="M1351.1,710.95L1356.5,710.95L1356.5,716.28L1351.1,716.28Z" style="fill:none;stroke:#7AC36A;stroke-width:0.625" />
<path d="M1358.1,737.48L1363.4,737.48L1363.4,742.81L1358.1,742.81Z" style="fill:none;stroke:#7AC36A;stroke-width:0.625" />
<path d="M1365,684.38L1370.3,684.38L1370.3,689.72L1365,689.72Z" style="fill:none;stroke:#7AC36A;stroke-width:0.625" />
<path d="M1371.9,537.25L1377.2,537.25L1377.2,542.59L1371.9,542.59Z" style="fill:none;stroke:#7AC36A;stroke-width:0.625" />
<path d="M1378.8,450.73L1384.2,450.73L1384.2,456.07L1378.8,456.07Z" style="fill:none;stroke:#7AC36A;stroke-width:0.625" />
<path d="M1385.8,422.36L1391.1,422.36L1391.1,427.69L1385.8,427.69Z" style="fill:none;stroke:#7AC36A;stroke-width:0.625" />
<path d="M1392.7,404.36L1398,404.36L1398,409.69L1392.7,409.69Z" style="fill:none;stroke:#7AC36A;stroke-width:0.625" />
<path d="M1399.6,358.32L1404.9,358.32L1404.9,363.65L1399.6,363.65Z" style="fill:none;stroke:#7AC36A;stroke-width:0.625" />
<path d="M1406.5,302.42L1411.9,302.42L1411.9,307.76L1406.5,307.76Z" style="fill:none;stroke:#7AC36A;stroke-width:0.625" />
<path d="M1413.4,259.24L1418.8,259.24L1418.8,264.57L1413.4,264.57Z" style="fill:none;stroke:#7AC36A;stroke-width:0.625" />
<path d="M1420.4,302.36L1425.7,302.36L1425.7,307.7L1420.4,307.7Z" style="fill:none;stroke:#7AC36A;stroke-width:0.625" />
<path d="M1427.3,297.08L1432.6,297.08L1432.6,302.41L1427.3,302.41Z" style="fill:none;stroke:#7AC36A;stroke-width:0.625" />
<path d="M1434.2,305.74L1439.5,305.74L1439.5,311.07L1434.2,311.07Z" style="fill:none;stroke:#7AC36A;stroke-width:0.625" />
<path d="M1415,70.183L1440,70.183" style="fill:none;stroke:#F15A60;stroke-width:1.25" />
<path d="M1430.6,70.183A3.125,3.125 0 1 1 1424.4,70.183A3.125,3.125 0 1 1 1430.6,70.183Z" style="fill:none;stroke:#F15A60;stroke-width:0.625" />
<text x="1388.8" y="-63.101" transform="scale(1, -1)"
	style="font-family:Times;font-weight:normal;font-style:normal;font-size:12pt">raw</text>
<path d="M1415,55.461L1440,55.461" style="fill:none;stroke:#7AC36A;stroke-width:1.25;stroke-dasharray:7.5,2.5" />
<path d="M1424.8,52.794L1430.2,52.794L1430.2,58.129L1424.8,58.129Z" style="fill:none;stroke:#7AC36A;stroke-width:0.625" />
<text x="1367.1" y="-48.379" transform="scale(1, -1)"
	style="font-family:Times;font-weight:normal;font-style:normal;font-size:12pt">smooth</text>
</g>
</svg>
