<?xml version="1.0"?>
<!-- Generated by SVGo and Plotinum VG -->
<svg width="16in" height="9in"
	xmlns="http://www.w3.org/2000/svg"
	xmlns:xlink="http://www.w3.org/1999/xlink">
<g transform="scale(1, -1) translate(0, -810)">
<path d="M0,0L1440,0L1440,810L0,810Z" style="fill:#FFFFFF" />
<text x="740.62" y="-4.8267" transform="scale(1, -1)"
	style="font-family:Times;font-weight:normal;font-style:normal;font-size:12pt">X</text>
<text x="52.083" y="-19.502" transform="scale(1, -1)"
	style="font-family:Times;font-weight:normal;font-style:normal;font-size:10pt">0</text>
<text x="465.54" y="-19.502" transform="scale(1, -1)"
	style="font-family:Times;font-weight:normal;font-style:normal;font-size:10pt">60</text>
<text x="879" y="-19.502" transform="scale(1, -1)"
	style="font-family:Times;font-weight:normal;font-style:normal;font-size:10pt">120</text>
<text x="1295.6" y="-19.502" transform="scale(1, -1)"
	style="font-family:Times;font-weight:normal;font-style:normal;font-size:10pt">180</text>
<path d="M55.208,31.538L55.208,41.538" style="fill:none;stroke:#000000;stroke-width:0.625" />
<path d="M471.79,31.538L471.79,41.538" style="fill:none;stroke:#000000;stroke-width:0.625" />
<path d="M888.37,31.538L888.37,41.538" style="fill:none;stroke:#000000;stroke-width:0.625" />
<path d="M1305,31.538L1305,41.538" style="fill:none;stroke:#000000;stroke-width:0.625" />
<path d="M194.07,36.538L194.07,41.538" style="fill:none;stroke:#000000;stroke-width:0.625" />
<path d="M332.93,36.538L332.93,41.538" style="fill:none;stroke:#000000;stroke-width:0.625" />
<path d="M610.65,36.538L610.65,41.538" style="fill:none;stroke:#000000;stroke-width:0.625" />
<path d="M749.51,36.538L749.51,41.538" style="fill:none;stroke:#000000;stroke-width:0.625" />
<path d="M1027.2,36.538L1027.2,41.538" style="fill:none;stroke:#000000;stroke-width:0.625" />
<path d="M1166.1,36.538L1166.1,41.538" style="fill:none;stroke:#000000;stroke-width:0.625" />
<path d="M55.208,41.538L1436.9,41.538" style="fill:none;stroke:#000000;stroke-width:0.625" />
<g transform="rotate(90)">
<text x="423.63" y="14.443" transform="scale(1, -1)"
	style="font-family:Times;font-weight:normal;font-style:normal;font-size:12pt">Y</text>
</g>
<text x="25.52" y="-179.47" transform="scale(1, -1)"
	style="font-family:Times;font-weight:normal;font-style:normal;font-size:10pt">0</text>
<text x="19.27" y="-417.34" transform="scale(1, -1)"
	style="font-family:Times;font-weight:normal;font-style:normal;font-size:10pt">10</text>
<text x="19.27" y="-655.22" transform="scale(1, -1)"
	style="font-family:Times;font-weight:normal;font-style:normal;font-size:10pt">20</text>
<path d="M34.895,185.37L44.895,185.37" style="fill:none;stroke:#000000;stroke-width:0.625" />
<path d="M34.895,423.25L44.895,423.25" style="fill:none;stroke:#000000;stroke-width:0.625" />
<path d="M34.895,661.12L44.895,661.12" style="fill:none;stroke:#000000;stroke-width:0.625" />
<path d="M39.895,66.428L44.895,66.428" style="fill:none;stroke:#000000;stroke-width:0.625" />
<path d="M39.895,304.31L44.895,304.31" style="fill:none;stroke:#000000;stroke-width:0.625" />
<path d="M39.895,542.19L44.895,542.19" style="fill:none;stroke:#000000;stroke-width:0.625" />
<path d="M39.895,780.06L44.895,780.06" style="fill:none;stroke:#000000;stroke-width:0.625" />
<path d="M44.895,51.226L44.895,806.88" style="fill:none;stroke:#000000;stroke-width:0.625" />
<path d="M55.208,196.52L62.151,191L69.094,212.41L76.037,218.35L82.98,215.59L89.923,221.82L96.866,229.65L103.81,210.99L110.75,215.66L117.69,209.52L124.64,213.33L131.58,217.25L138.52,207.52L145.47,208.49L152.41,217.58L159.35,200.75L166.3,203.63L173.24,190.68L180.18,205.08L187.13,191.67L194.07,179.78L201.01,182.59L207.95,192.01L214.9,169.41L221.84,182.17L228.78,177.41L235.73,185.69L242.67,162.06L249.61,168.31L256.56,166.59L263.5,173.24L270.44,190.87L277.39,183.34L284.33,176.7L291.27,191.19L298.21,191.69L305.16,199.09L312.1,194.38L319.04,208.66L325.99,206.35L332.93,211.3L339.87,219.11L346.82,228.51L353.76,224.83L360.7,222.46L367.64,215.6L374.59,225.08L381.53,213.65L388.47,208.57L395.42,206.2L402.36,201.8L409.3,210.09L416.25,199.51L423.19,203.75L430.13,206.01L437.08,192.79L444.02,183.67L450.96,179.26L457.9,176.79L464.85,171.51L471.79,177.04L478.73,175.28L485.68,175.79L492.62,171.37L499.56,166.16L506.51,171.42L513.45,173.15L520.39,190.66L527.34,176.21L534.28,195.66L541.22,189.03L548.16,197.32L555.11,192.32L562.05,203.69L568.99,207.8L575.94,215.9L582.88,214.04L589.82,215.81L596.77,223.47L603.71,212.37L610.65,225.48L617.59,230.79L624.54,227.34L631.48,215.71L638.42,225.88L645.37,217.66L652.31,202.36L659.25,200.54L666.2,197.42L673.14,205.22L680.08,205.08L687.03,181.76L693.97,198.56L700.91,191.4L707.85,171.11L714.8,186.86L721.74,177.36L728.68,186.17L735.63,168.15L742.57,172.99L749.51,173.49L756.46,163.3L763.4,177.45L770.34,182.53L777.28,178.68L784.23,196.33L791.17,178.69L798.11,183.58L805.06,188.76L812,206.72L818.94,200.05L825.89,219.36L832.83,207.01L839.77,211.98L846.72,210.51L853.66,218.68L860.6,232.57L867.54,210.57L874.49,227.65L881.43,222.24L888.37,206.79L895.32,224.1L902.26,201.27L909.2,209.21L916.15,199.9L923.09,207.02L930.03,185.59L936.98,184.03L943.92,183.16L950.86,173.61L957.8,188.17L964.75,178.43L971.69,164.73L978.63,169.61L985.58,167.47L992.52,185.22L999.46,175.3L1006.4,185.53L1013.3,169.61L1020.3,176.97L1027.2,175.76L1034.2,194.56L1041.1,200.24L1048.1,198.87L1055,186.71L1062,201.33L1068.9,204.8L1075.8,208.71L1082.8,200.75L1089.7,224.68L1096.7,215.77L1103.6,227.69L1110.6,210.28L1117.5,225.08L1124.4,214.55L1131.4,227.91L1138.3,226.33L1145.3,219.43L1152.2,204.83L1159.2,206.87L1166.1,210.54L1173,195.62L1180,200.88L1186.9,203.34L1193.9,196.55L1200.8,175.46L1207.8,177.38L1214.7,167.33L1221.6,168.23L1228.6,180.75L1235.5,182.05L1242.5,184.75L1249.4,162.96L1256.4,165.03L1263.3,185.15L1270.2,171.74L1277.2,178.36L1284.1,179.01L1291.1,180.58L1298,183.07L1305,195.27L1311.9,192.97L1318.8,196.91L1325.8,219.68L1332.7,220.3L1339.7,223.43L1346.6,219.38L1353.6,210.94L1360.5,222.45L1367.4,210.64L1374.4,229.45L1381.3,208.85L1388.3,208.68L1395.2,206.23L1402.2,208.5L1409.1,201.69L1416,205.4L1423,210.43L1429.9,186.95L1436.9,200.29" style="fill:none;stroke:#F15A60;stroke-width:1.25" />
<path d="M58.333,196.52A3.125,3.125 0 1 1 52.083,196.52A3.125,3.125 0 1 1 58.333,196.52Z" style="fill:none;stroke:#F15A60;stroke-width:0.625" />
<path d="M65.276,191L65.276,191A3.125,3.125 0 1 1 59.026,191A3.125,3.125 0 1 1 65.276,191Z" style="fill:none;stroke:#F15A60;stroke-width:0.625" />
<path d="M72.219,212.41A3.125,3.125 0 1 1 65.969,212.41A3.125,3.125 0 1 1 72.219,212.41Z" style="fill:none;stroke:#F15A60;stroke-width:0.625" />
<path d="M79.162,218.35A3.125,3.125 0 1 1 72.912,218.35A3.125,3.125 0 1 1 79.162,218.35Z" style="fill:none;stroke:#F15A60;stroke-width:0.625" />
<path d="M86.105,215.59A3.125,3.125 0 1 1 79.855,215.59A3.125,3.125 0 1 1 86.105,215.59Z" style="fill:none;stroke:#F15A60;stroke-width:0.625" />
<path d="M93.048,221.82L93.048,221.82A3.125,3.125 0 1 1 86.798,221.82A3.125,3.125 0 1 1 93.048,221.82Z" style="fill:none;stroke:#F15A60;stroke-width:0.625" />
<path d="M99.991,229.65L99.991,229.65A3.125,3.125 0 1 1 93.741,229.65A3.125,3.125 0 1 1 99.991,229.65Z" style="fill:none;stroke:#F15A60;stroke-width:0.625" />
<path d="M106.93,210.99L106.93,210.99A3.125,3.125 0 1 1 100.68,210.99A3.125,3.125 0 1 1 106.93,210.99Z" style="fill:none;stroke:#F15A60;stroke-width:0.625" />
<path d="M113.88,215.66A3.125,3.125 0 1 1 107.63,215.66A3.125,3.125 0 1 1 113.88,215.66Z" style="fill:none;stroke:#F15A60;stroke-width:0.625" />
<path d="M120.82,209.52A3.125,3.125 0 1 1 114.57,209.52A3.125,3.125 0 1 1 120.82,209.52Z" style="fill:none;stroke:#F15A60;stroke-width:0.625" />
<path d="M127.76,213.33A3.125,3.125 0 1 1 121.51,213.33A3.125,3.125 0 1 1 127.76,213.33Z" style="fill:none;stroke:#F15A60;stroke-width:0.625" />
<path d="M134.71,217.25A3.125,3.125 0 1 1 128.46,217.25A3.125,3.125 0 1 1 134.71,217.25Z" style="fill:none;stroke:#F15A60;stroke-width:0.625" />
<path d="M141.65,207.52A3.125,3.125 0 1 1 135.4,207.52A3.125,3.125 0 1 1 141.65,207.52Z" style="fill:none;stroke:#F15A60;stroke-width:0.625" />
<path d="M148.59,208.49L148.59,208.49A3.125,3.125 0 1 1 142.34,208.49A3.125,3.125 0 1 1 148.59,208.49Z" style="fill:none;stroke:#F15A60;stroke-width:0.625" />
<path d="M155.54,217.58A3.125,3.125 0 1 1 149.29,217.58A3.125,3.125 0 1 1 155.54,217.58Z" style="fill:none;stroke:#F15A60;stroke-width:0.625" />
<path d="M162.48,200.75A3.125,3.125 0 1 1 156.23,200.75A3.125,3.125 0 1 1 162.48,200.75Z" style="fill:none;stroke:#F15A60;stroke-width:0.625" />
<path d="M169.42,203.63A3.125,3.125 0 1 1 163.17,203.63A3.125,3.125 0 1 1 169.42,203.63Z" style="fill:none;stroke:#F15A60;stroke-width:0.625" />
<path d="M176.36,190.68A3.125,3.125 0 1 1 170.11,190.68A3.125,3.125 0 1 1 176.36,190.68Z" style="fill:none;stroke:#F15A60;stroke-width:0.625" />
<path d="M183.31,205.08A3.125,3.125 0 1 1 177.06,205.08A3.125,3.125 0 1 1 183.31,205.08Z" style="fill:none;stroke:#F15A60;stroke-width:0.625" />
<path d="M190.25,191.67A3.125,3.125 0 1 1 184,191.67A3.125,3.125 0 1 1 190.25,191.67Z" style="fill:none;stroke:#F15A60;stroke-width:0.625" />
<path d="M197.19,179.78L197.19,179.78A3.125,3.125 0 1 1 190.94,179.78A3.125,3.125 0 1 1 197.19,179.78Z" style="fill:none;stroke:#F15A60;stroke-width:0.625" />
<path d="M204.14,182.59A3.125,3.125 0 1 1 197.89,182.59A3.125,3.125 0 1 1 204.14,182.59Z" style="fill:none;stroke:#F15A60;stroke-width:0.625" />
<path d="M211.08,192.01A3.125,3.125 0 1 1 204.83,192.01A3.125,3.125 0 1 1 211.08,192.01Z" style="fill:none;stroke:#F15A60;stroke-width:0.625" />
<path d="M218.02,169.41A3.125,3.125 0 1 1 211.77,169.41A3.125,3.125 0 1 1 218.02,169.41Z" style="fill:none;stroke:#F15A60;stroke-width:0.625" />
<path d="M224.97,182.17L224.97,182.17A3.125,3.125 0 1 1 218.72,182.17A3.125,3.125 0 1 1 224.97,182.17Z" style="fill:none;stroke:#F15A60;stroke-width:0.625" />
<path d="M231.91,177.41L231.91,177.41A3.125,3.125 0 1 1 225.66,177.41A3.125,3.125 0 1 1 231.91,177.41Z" style="fill:none;stroke:#F15A60;stroke-width:0.625" />
<path d="M238.85,185.69A3.125,3.125 0 1 1 232.6,185.69A3.125,3.125 0 1 1 238.85,185.69Z" style="fill:none;stroke:#F15A60;stroke-width:0.625" />
<path d="M245.79,162.06L245.79,162.06A3.125,3.125 0 1 1 239.54,162.06A3.125,3.125 0 1 1 245.79,162.06Z" style="fill:none;stroke:#F15A60;stroke-width:0.625" />
<path d="M252.74,168.31A3.125,3.125 0 1 1 246.49,168.31A3.125,3.125 0 1 1 252.74,168.31Z" style="fill:none;stroke:#F15A60;stroke-width:0.625" />
<path d="M259.68,166.59A3.125,3.125 0 1 1 253.43,166.59A3.125,3.125 0 1 1 259.68,166.59Z" style="fill:none;stroke:#F15A60;stroke-width:0.625" />
<path d="M266.62,173.24A3.125,3.125 0 1 1 260.37,173.24A3.125,3.125 0 1 1 266.62,173.24Z" style="fill:none;stroke:#F15A60;stroke-width:0.625" />
<path d="M273.57,190.87A3.125,3.125 0 1 1 267.32,190.87A3.125,3.125 0 1 1 273.57,190.87Z" style="fill:none;stroke:#F15A60;stroke-width:0.625" />
<path d="M280.51,183.34A3.125,3.125 0 1 1 274.26,183.34A3.125,3.125 0 1 1 280.51,183.34Z" style="fill:none;stroke:#F15A60;stroke-width:0.625" />
<path d="M287.45,176.7A3.125,3.125 0 1 1 281.2,176.7A3.125,3.125 0 1 1 287.45,176.7Z" style="fill:none;stroke:#F15A60;stroke-width:0.625" />
<path d="M294.4,191.19A3.125,3.125 0 1 1 288.15,191.19A3.125,3.125 0 1 1 294.4,191.19Z" style="fill:none;stroke:#F15A60;stroke-width:0.625" />
<path d="M301.34,191.69L301.34,191.69A3.125,3.125 0 1 1 295.09,191.69A3.125,3.125 0 1 1 301.34,191.69Z" style="fill:none;stroke:#F15A60;stroke-width:0.625" />
<path d="M308.28,199.09A3.125,3.125 0 1 1 302.03,199.09A3.125,3.125 0 1 1 308.28,199.09Z" style="fill:none;stroke:#F15A60;stroke-width:0.625" />
<path d="M315.23,194.38A3.125,3.125 0 1 1 308.98,194.38A3.125,3.125 0 1 1 315.23,194.38Z" style="fill:none;stroke:#F15A60;stroke-width:0.625" />
<path d="M322.17,208.66A3.125,3.125 0 1 1 315.92,208.66A3.125,3.125 0 1 1 322.17,208.66Z" style="fill:none;stroke:#F15A60;stroke-width:0.625" />
<path d="M329.11,206.35A3.125,3.125 0 1 1 322.86,206.35A3.125,3.125 0 1 1 329.11,206.35Z" style="fill:none;stroke:#F15A60;stroke-width:0.625" />
<path d="M336.05,211.3L336.05,211.3A3.125,3.125 0 1 1 329.8,211.3A3.125,3.125 0 1 1 336.05,211.3Z" style="fill:none;stroke:#F15A60;stroke-width:0.625" />
<path d="M343,219.11A3.125,3.125 0 1 1 336.75,219.11A3.125,3.125 0 1 1 343,219.11Z" style="fill:none;stroke:#F15A60;stroke-width:0.625" />
<path d="M349.94,228.51L349.94,228.51A3.125,3.125 0 1 1 343.69,228.51A3.125,3.125 0 1 1 349.94,228.51Z" style="fill:none;stroke:#F15A60;stroke-width:0.625" />
<path d="M356.88,224.83A3.125,3.125 0 1 1 350.63,224.83A3.125,3.125 0 1 1 356.88,224.83Z" style="fill:none;stroke:#F15A60;stroke-width:0.625" />
<path d="M363.83,222.46L363.83,222.46A3.125,3.125 0 1 1 357.58,222.46A3.125,3.125 0 1 1 363.83,222.46Z" style="fill:none;stroke:#F15A60;stroke-width:0.625" />
<path d="M370.77,215.6A3.125,3.125 0 1 1 364.52,215.6A3.125,3.125 0 1 1 370.77,215.6Z" style="fill:none;stroke:#F15A60;stroke-width:0.625" />
<path d="M377.71,225.08A3.125,3.125 0 1 1 371.46,225.08A3.125,3.125 0 1 1 377.71,225.08Z" style="fill:none;stroke:#F15A60;stroke-width:0.625" />
<path d="M384.66,213.65A3.125,3.125 0 1 1 378.41,213.65A3.125,3.125 0 1 1 384.66,213.65Z" style="fill:none;stroke:#F15A60;stroke-width:0.625" />
<path d="M391.6,208.57A3.125,3.125 0 1 1 385.35,208.57A3.125,3.125 0 1 1 391.6,208.57Z" style="fill:none;stroke:#F15A60;stroke-width:0.625" />
<path d="M398.54,206.2L398.54,206.2A3.125,3.125 0 1 1 392.29,206.2A3.125,3.125 0 1 1 398.54,206.2Z" style="fill:none;stroke:#F15A60;stroke-width:0.625" />
<path d="M405.49,201.8L405.49,201.8A3.125,3.125 0 1 1 399.24,201.8A3.125,3.125 0 1 1 405.49,201.8Z" style="fill:none;stroke:#F15A60;stroke-width:0.625" />
<path d="M412.43,210.09A3.125,3.125 0 1 1 406.18,210.09A3.125,3.125 0 1 1 412.43,210.09Z" style="fill:none;stroke:#F15A60;stroke-width:0.625" />
<path d="M419.37,199.51A3.125,3.125 0 1 1 413.12,199.51A3.125,3.125 0 1 1 419.37,199.51Z" style="fill:none;stroke:#F15A60;stroke-width:0.625" />
<path d="M426.31,203.75A3.125,3.125 0 1 1 420.06,203.75A3.125,3.125 0 1 1 426.31,203.75Z" style="fill:none;stroke:#F15A60;stroke-width:0.625" />
<path d="M433.26,206.01L433.26,206.01A3.125,3.125 0 1 1 427.01,206.01A3.125,3.125 0 1 1 433.26,206.01Z" style="fill:none;stroke:#F15A60;stroke-width:0.625" />
<path d="M440.2,192.79A3.125,3.125 0 1 1 433.95,192.79A3.125,3.125 0 1 1 440.2,192.79Z" style="fill:none;stroke:#F15A60;stroke-width:0.625" />
<path d="M447.14,183.67L447.14,183.67A3.125,3.125 0 1 1 440.89,183.67A3.125,3.125 0 1 1 447.14,183.67Z" style="fill:none;stroke:#F15A60;stroke-width:0.625" />
<path d="M454.09,179.26A3.125,3.125 0 1 1 447.84,179.26A3.125,3.125 0 1 1 454.09,179.26Z" style="fill:none;stroke:#F15A60;stroke-width:0.625" />
<path d="M461.03,176.79A3.125,3.125 0 1 1 454.78,176.79A3.125,3.125 0 1 1 461.03,176.79Z" style="fill:none;stroke:#F15A60;stroke-width:0.625" />
<path d="M467.97,171.51L467.97,171.51A3.125,3.125 0 1 1 461.72,171.51A3.125,3.125 0 1 1 467.97,171.51Z" style="fill:none;stroke:#F15A60;stroke-width:0.625" />
<path d="M474.92,177.04A3.125,3.125 0 1 1 468.67,177.04A3.125,3.125 0 1 1 474.92,177.04Z" style="fill:none;stroke:#F15A60;stroke-width:0.625" />
<path d="M481.86,175.28A3.125,3.125 0 1 1 475.61,175.28A3.125,3.125 0 1 1 481.86,175.28Z" style="fill:none;stroke:#F15A60;stroke-width:0.625" />
<path d="M488.8,175.79A3.125,3.125 0 1 1 482.55,175.79A3.125,3.125 0 1 1 488.8,175.79Z" style="fill:none;stroke:#F15A60;stroke-width:0.625" />
<path d="M495.74,171.37A3.125,3.125 0 1 1 489.49,171.37A3.125,3.125 0 1 1 495.74,171.37Z" style="fill:none;stroke:#F15A60;stroke-width:0.625" />
<path d="M502.69,166.16A3.125,3.125 0 1 1 496.44,166.16A3.125,3.125 0 1 1 502.69,166.16Z" style="fill:none;stroke:#F15A60;stroke-width:0.625" />
<path d="M509.63,171.42A3.125,3.125 0 1 1 503.38,171.42A3.125,3.125 0 1 1 509.63,171.42Z" style="fill:none;stroke:#F15A60;stroke-width:0.625" />
<path d="M516.57,173.15A3.125,3.125 0 1 1 510.32,173.15A3.125,3.125 0 1 1 516.57,173.15Z" style="fill:none;stroke:#F15A60;stroke-width:0.625" />
<path d="M523.52,190.66A3.125,3.125 0 1 1 517.27,190.66A3.125,3.125 0 1 1 523.52,190.66Z" style="fill:none;stroke:#F15A60;stroke-width:0.625" />
<path d="M530.46,176.21A3.125,3.125 0 1 1 524.21,176.21A3.125,3.125 0 1 1 530.46,176.21Z" style="fill:none;stroke:#F15A60;stroke-width:0.625" />
<path d="M537.4,195.66L537.4,195.66A3.125,3.125 0 1 1 531.15,195.66A3.125,3.125 0 1 1 537.4,195.66Z" style="fill:none;stroke:#F15A60;stroke-width:0.625" />
<path d="M544.35,189.03A3.125,3.125 0 1 1 538.1,189.03A3.125,3.125 0 1 1 544.35,189.03Z" style="fill:none;stroke:#F15A60;stroke-width:0.625" />
<path d="M551.29,197.32A3.125,3.125 0 1 1 545.04,197.32A3.125,3.125 0 1 1 551.29,197.32Z" style="fill:none;stroke:#F15A60;stroke-width:0.625" />
<path d="M558.23,192.32A3.125,3.125 0 1 1 551.98,192.32A3.125,3.125 0 1 1 558.23,192.32Z" style="fill:none;stroke:#F15A60;stroke-width:0.625" />
<path d="M565.18,203.69A3.125,3.125 0 1 1 558.93,203.69A3.125,3.125 0 1 1 565.18,203.69Z" style="fill:none;stroke:#F15A60;stroke-width:0.625" />
<path d="M572.12,207.8A3.125,3.125 0 1 1 565.87,207.8A3.125,3.125 0 1 1 572.12,207.8Z" style="fill:none;stroke:#F15A60;stroke-width:0.625" />
<path d="M579.06,215.9A3.125,3.125 0 1 1 572.81,215.9A3.125,3.125 0 1 1 579.06,215.9Z" style="fill:none;stroke:#F15A60;stroke-width:0.625" />
<path d="M586,214.04A3.125,3.125 0 1 1 579.75,214.04A3.125,3.125 0 1 1 586,214.04Z" style="fill:none;stroke:#F15A60;stroke-width:0.625" />
<path d="M592.95,215.81A3.125,3.125 0 1 1 586.7,215.81A3.125,3.125 0 1 1 592.95,215.81Z" style="fill:none;stroke:#F15A60;stroke-width:0.625" />
<path d="M599.89,223.47A3.125,3.125 0 1 1 593.64,223.47A3.125,3.125 0 1 1 599.89,223.47Z" style="fill:none;stroke:#F15A60;stroke-width:0.625" />
<path d="M606.83,212.37A3.125,3.125 0 1 1 600.58,212.37A3.125,3.125 0 1 1 606.83,212.37Z" style="fill:none;stroke:#F15A60;stroke-width:0.625" />
<path d="M613.78,225.48L613.78,225.48A3.125,3.125 0 1 1 607.53,225.48A3.125,3.125 0 1 1 613.78,225.48Z" style="fill:none;stroke:#F15A60;stroke-width:0.625" />
<path d="M620.72,230.79A3.125,3.125 0 1 1 614.47,230.79A3.125,3.125 0 1 1 620.72,230.79Z" style="fill:none;stroke:#F15A60;stroke-width:0.625" />
<path d="M627.66,227.34A3.125,3.125 0 1 1 621.41,227.34A3.125,3.125 0 1 1 627.66,227.34Z" style="fill:none;stroke:#F15A60;stroke-width:0.625" />
<path d="M634.61,215.71A3.125,3.125 0 1 1 628.36,215.71A3.125,3.125 0 1 1 634.61,215.71Z" style="fill:none;stroke:#F15A60;stroke-width:0.625" />
<path d="M641.55,225.88A3.125,3.125 0 1 1 635.3,225.88A3.125,3.125 0 1 1 641.55,225.88Z" style="fill:none;stroke:#F15A60;stroke-width:0.625" />
<path d="M648.49,217.66A3.125,3.125 0 1 1 642.24,217.66A3.125,3.125 0 1 1 648.49,217.66Z" style="fill:none;stroke:#F15A60;stroke-width:0.625" />
<path d="M655.44,202.36A3.125,3.125 0 1 1 649.19,202.36A3.125,3.125 0 1 1 655.44,202.36Z" style="fill:none;stroke:#F15A60;stroke-width:0.625" />
<path d="M662.38,200.54A3.125,3.125 0 1 1 656.13,200.54A3.125,3.125 0 1 1 662.38,200.54Z" style="fill:none;stroke:#F15A60;stroke-width:0.625" />
<path d="M669.32,197.42A3.125,3.125 0 1 1 663.07,197.42A3.125,3.125 0 1 1 669.32,197.42Z" style="fill:none;stroke:#F15A60;stroke-width:0.625" />
<path d="M676.26,205.22A3.125,3.125 0 1 1 670.01,205.22A3.125,3.125 0 1 1 676.26,205.22Z" style="fill:none;stroke:#F15A60;stroke-width:0.625" />
<path d="M683.21,205.08A3.125,3.125 0 1 1 676.96,205.08A3.125,3.125 0 1 1 683.21,205.08Z" style="fill:none;stroke:#F15A60;stroke-width:0.625" />
<path d="M690.15,181.76A3.125,3.125 0 1 1 683.9,181.76A3.125,3.125 0 1 1 690.15,181.76Z" style="fill:none;stroke:#F15A60;stroke-width:0.625" />
<path d="M697.09,198.56L697.09,198.56A3.125,3.125 0 1 1 690.84,198.56A3.125,3.125 0 1 1 697.09,198.56Z" style="fill:none;stroke:#F15A60;stroke-width:0.625" />
<path d="M704.04,191.4L704.04,191.4A3.125,3.125 0 1 1 697.79,191.4A3.125,3.125 0 1 1 704.04,191.4Z" style="fill:none;stroke:#F15A60;stroke-width:0.625" />
<path d="M710.98,171.11A3.125,3.125 0 1 1 704.73,171.11A3.125,3.125 0 1 1 710.98,171.11Z" style="fill:none;stroke:#F15A60;stroke-width:0.625" />
<path d="M717.92,186.86A3.125,3.125 0 1 1 711.67,186.86A3.125,3.125 0 1 1 717.92,186.86Z" style="fill:none;stroke:#F15A60;stroke-width:0.625" />
<path d="M724.87,177.36L724.87,177.36A3.125,3.125 0 1 1 718.62,177.36A3.125,3.125 0 1 1 724.87,177.36Z" style="fill:none;stroke:#F15A60;stroke-width:0.625" />
<path d="M731.81,186.17A3.125,3.125 0 1 1 725.56,186.17A3.125,3.125 0 1 1 731.81,186.17Z" style="fill:none;stroke:#F15A60;stroke-width:0.625" />
<path d="M738.75,168.15L738.75,168.15A3.125,3.125 0 1 1 732.5,168.15A3.125,3.125 0 1 1 738.75,168.15Z" style="fill:none;stroke:#F15A60;stroke-width:0.625" />
<path d="M745.69,172.99L745.69,172.99A3.125,3.125 0 1 1 739.44,172.99A3.125,3.125 0 1 1 745.69,172.99Z" style="fill:none;stroke:#F15A60;stroke-width:0.625" />
<path d="M752.64,173.49A3.125,3.125 0 1 1 746.39,173.49A3.125,3.125 0 1 1 752.64,173.49Z" style="fill:none;stroke:#F15A60;stroke-width:0.625" />
<path d="M759.58,163.3L759.58,163.3A3.125,3.125 0 1 1 753.33,163.3A3.125,3.125 0 1 1 759.58,163.3Z" style="fill:none;stroke:#F15A60;stroke-width:0.625" />
<path d="M766.52,177.45L766.52,177.45A3.125,3.125 0 1 1 760.27,177.45A3.125,3.125 0 1 1 766.52,177.45Z" style="fill:none;stroke:#F15A60;stroke-width:0.625" />
<path d="M773.47,182.53L773.47,182.53A3.125,3.125 0 1 1 767.22,182.53A3.125,3.125 0 1 1 773.47,182.53Z" style="fill:none;stroke:#F15A60;stroke-width:0.625" />
<path d="M780.41,178.68A3.125,3.125 0 1 1 774.16,178.68A3.125,3.125 0 1 1 780.41,178.68Z" style="fill:none;stroke:#F15A60;stroke-width:0.625" />
<path d="M787.35,196.33A3.125,3.125 0 1 1 781.1,196.33A3.125,3.125 0 1 1 787.35,196.33Z" style="fill:none;stroke:#F15A60;stroke-width:0.625" />
<path d="M794.3,178.69L794.3,178.69A3.125,3.125 0 1 1 788.05,178.69A3.125,3.125 0 1 1 794.3,178.69Z" style="fill:none;stroke:#F15A60;stroke-width:0.625" />
<path d="M801.24,183.58A3.125,3.125 0 1 1 794.99,183.58A3.125,3.125 0 1 1 801.24,183.58Z" style="fill:none;stroke:#F15A60;stroke-width:0.625" />
<path d="M808.18,188.76L808.18,188.76A3.125,3.125 0 1 1 801.93,188.76A3.125,3.125 0 1 1 808.18,188.76Z" style="fill:none;stroke:#F15A60;stroke-width:0.625" />
<path d="M815.13,206.72L815.13,206.72A3.125,3.125 0 1 1 808.88,206.72A3.125,3.125 0 1 1 815.13,206.72Z" style="fill:none;stroke:#F15A60;stroke-width:0.625" />
<path d="M822.07,200.05L822.07,200.05A3.125,3.125 0 1 1 815.82,200.05A3.125,3.125 0 1 1 822.07,200.05Z" style="fill:none;stroke:#F15A60;stroke-width:0.625" />
<path d="M829.01,219.36L829.01,219.36A3.125,3.125 0 1 1 822.76,219.36A3.125,3.125 0 1 1 829.01,219.36Z" style="fill:none;stroke:#F15A60;stroke-width:0.625" />
<path d="M835.95,207.01A3.125,3.125 0 1 1 829.7,207.01A3.125,3.125 0 1 1 835.95,207.01Z" style="fill:none;stroke:#F15A60;stroke-width:0.625" />
<path d="M842.9,211.98L842.9,211.98A3.125,3.125 0 1 1 836.65,211.98A3.125,3.125 0 1 1 842.9,211.98Z" style="fill:none;stroke:#F15A60;stroke-width:0.625" />
<path d="M849.84,210.51A3.125,3.125 0 1 1 843.59,210.51A3.125,3.125 0 1 1 849.84,210.51Z" style="fill:none;stroke:#F15A60;stroke-width:0.625" />
<path d="M856.78,218.68A3.125,3.125 0 1 1 850.53,218.68A3.125,3.125 0 1 1 856.78,218.68Z" style="fill:none;stroke:#F15A60;stroke-width:0.625" />
<path d="M863.73,232.57L863.73,232.57A3.125,3.125 0 1 1 857.48,232.57A3.125,3.125 0 1 1 863.73,232.57Z" style="fill:none;stroke:#F15A60;stroke-width:0.625" />
<path d="M870.67,210.57A3.125,3.125 0 1 1 864.42,210.57A3.125,3.125 0 1 1 870.67,210.57Z" style="fill:none;stroke:#F15A60;stroke-width:0.625" />
<path d="M877.61,227.65L877.61,227.65A3.125,3.125 0 1 1 871.36,227.65A3.125,3.125 0 1 1 877.61,227.65Z" style="fill:none;stroke:#F15A60;stroke-width:0.625" />
<path d="M884.56,222.24L884.56,222.24A3.125,3.125 0 1 1 878.31,222.24A3.125,3.125 0 1 1 884.56,222.24Z" style="fill:none;stroke:#F15A60;stroke-width:0.625" />
<path d="M891.5,206.79L891.5,206.79A3.125,3.125 0 1 1 885.25,206.79A3.125,3.125 0 1 1 891.5,206.79Z" style="fill:none;stroke:#F15A60;stroke-width:0.625" />
<path d="M898.44,224.1L898.44,224.1A3.125,3.125 0 1 1 892.19,224.1A3.125,3.125 0 1 1 898.44,224.1Z" style="fill:none;stroke:#F15A60;stroke-width:0.625" />
<path d="M905.38,201.27L905.38,201.27A3.125,3.125 0 1 1 899.13,201.27A3.125,3.125 0 1 1 905.38,201.27Z" style="fill:none;stroke:#F15A60;stroke-width:0.625" />
<path d="M912.33,209.21A3.125,3.125 0 1 1 906.08,209.21A3.125,3.125 0 1 1 912.33,209.21Z" style="fill:none;stroke:#F15A60;stroke-width:0.625" />
<path d="M919.27,199.9L919.27,199.9A3.125,3.125 0 1 1 913.02,199.9A3.125,3.125 0 1 1 919.27,199.9Z" style="fill:none;stroke:#F15A60;stroke-width:0.625" />
<path d="M926.21,207.02L926.21,207.02A3.125,3.125 0 1 1 919.96,207.02A3.125,3.125 0 1 1 926.21,207.02Z" style="fill:none;stroke:#F15A60;stroke-width:0.625" />
<path d="M933.16,185.59L933.16,185.59A3.125,3.125 0 1 1 926.91,185.59A3.125,3.125 0 1 1 933.16,185.59Z" style="fill:none;stroke:#F15A60;stroke-width:0.625" />
<path d="M940.1,184.03A3.125,3.125 0 1 1 933.85,184.03A3.125,3.125 0 1 1 940.1,184.03Z" style="fill:none;stroke:#F15A60;stroke-width:0.625" />
<path d="M947.04,183.16L947.04,183.16A3.125,3.125 0 1 1 940.79,183.16A3.125,3.125 0 1 1 947.04,183.16Z" style="fill:none;stroke:#F15A60;stroke-width:0.625" />
<path d="M953.99,173.61L953.99,173.61A3.125,3.125 0 1 1 947.74,173.61A3.125,3.125 0 1 1 953.99,173.61Z" style="fill:none;stroke:#F15A60;stroke-width:0.625" />
<path d="M960.93,188.17L960.93,188.17A3.125,3.125 0 1 1 954.68,188.17A3.125,3.125 0 1 1 960.93,188.17Z" style="fill:none;stroke:#F15A60;stroke-width:0.625" />
<path d="M967.87,178.43A3.125,3.125 0 1 1 961.62,178.43A3.125,3.125 0 1 1 967.87,178.43Z" style="fill:none;stroke:#F15A60;stroke-width:0.625" />
<path d="M974.82,164.73L974.82,164.73A3.125,3.125 0 1 1 968.57,164.73A3.125,3.125 0 1 1 974.82,164.73Z" style="fill:none;stroke:#F15A60;stroke-width:0.625" />
<path d="M981.76,169.61L981.76,169.61A3.125,3.125 0 1 1 975.51,169.61A3.125,3.125 0 1 1 981.76,169.61Z" style="fill:none;stroke:#F15A60;stroke-width:0.625" />
<path d="M988.7,167.47L988.7,167.47A3.125,3.125 0 1 1 982.45,167.47A3.125,3.125 0 1 1 988.7,167.47Z" style="fill:none;stroke:#F15A60;stroke-width:0.625" />
<path d="M995.64,185.22A3.125,3.125 0 1 1 989.39,185.22A3.125,3.125 0 1 1 995.64,185.22Z" style="fill:none;stroke:#F15A60;stroke-width:0.625" />
<path d="M1002.6,175.3A3.125,3.125 0 1 1 996.34,175.3A3.125,3.125 0 1 1 1002.6,175.3Z" style="fill:none;stroke:#F15A60;stroke-width:0.625" />
<path d="M1009.5,185.53L1009.5,185.53A3.125,3.125 0 1 1 1003.3,185.53A3.125,3.125 0 1 1 1009.5,185.53Z" style="fill:none;stroke:#F15A60;stroke-width:0.625" />
<path d="M1016.5,169.61L1016.5,169.61A3.125,3.125 0 1 1 1010.2,169.61A3.125,3.125 0 1 1 1016.5,169.61Z" style="fill:none;stroke:#F15A60;stroke-width:0.625" />
<path d="M1023.4,176.97L1023.4,176.97A3.125,3.125 0 1 1 1017.2,176.97A3.125,3.125 0 1 1 1023.4,176.97Z" style="fill:none;stroke:#F15A60;stroke-width:0.625" />
<path d="M1030.4,175.76L1030.4,175.76A3.125,3.125 0 1 1 1024.1,175.76A3.125,3.125 0 1 1 1030.4,175.76Z" style="fill:none;stroke:#F15A60;stroke-width:0.625" />
<path d="M1037.3,194.56L1037.3,194.56A3.125,3.125 0 1 1 1031.1,194.56A3.125,3.125 0 1 1 1037.3,194.56Z" style="fill:none;stroke:#F15A60;stroke-width:0.625" />
<path d="M1044.2,200.24A3.125,3.125 0 1 1 1038,200.24A3.125,3.125 0 1 1 1044.2,200.24Z" style="fill:none;stroke:#F15A60;stroke-width:0.625" />
<path d="M1051.2,198.87A3.125,3.125 0 1 1 1044.9,198.87A3.125,3.125 0 1 1 1051.2,198.87Z" style="fill:none;stroke:#F15A60;stroke-width:0.625" />
<path d="M1058.1,186.71A3.125,3.125 0 1 1 1051.9,186.71A3.125,3.125 0 1 1 1058.1,186.71Z" style="fill:none;stroke:#F15A60;stroke-width:0.625" />
<path d="M1065.1,201.33L1065.1,201.33A3.125,3.125 0 1 1 1058.8,201.33A3.125,3.125 0 1 1 1065.1,201.33Z" style="fill:none;stroke:#F15A60;stroke-width:0.625" />
<path d="M1072,204.8L1072,204.8A3.125,3.125 0 1 1 1065.8,204.8A3.125,3.125 0 1 1 1072,204.8Z" style="fill:none;stroke:#F15A60;stroke-width:0.625" />
<path d="M1079,208.71A3.125,3.125 0 1 1 1072.7,208.71A3.125,3.125 0 1 1 1079,208.71Z" style="fill:none;stroke:#F15A60;stroke-width:0.625" />
<path d="M1085.9,200.75A3.125,3.125 0 1 1 1079.7,200.75A3.125,3.125 0 1 1 1085.9,200.75Z" style="fill:none;stroke:#F15A60;stroke-width:0.625" />
<path d="M1092.8,224.68L1092.8,224.68A3.125,3.125 0 1 1 1086.6,224.68A3.125,3.125 0 1 1 1092.8,224.68Z" style="fill:none;stroke:#F15A60;stroke-width:0.625" />
<path d="M1099.8,215.77A3.125,3.125 0 1 1 1093.5,215.77A3.125,3.125 0 1 1 1099.8,215.77Z" style="fill:none;stroke:#F15A60;stroke-width:0.625" />
<path d="M1106.7,227.69A3.125,3.125 0 1 1 1100.5,227.69A3.125,3.125 0 1 1 1106.7,227.69Z" style="fill:none;stroke:#F15A60;stroke-width:0.625" />
<path d="M1113.7,210.28A3.125,3.125 0 1 1 1107.4,210.28A3.125,3.125 0 1 1 1113.7,210.28Z" style="fill:none;stroke:#F15A60;stroke-width:0.625" />
<path d="M1120.6,225.08L1120.6,225.08A3.125,3.125 0 1 1 1114.4,225.08A3.125,3.125 0 1 1 1120.6,225.08Z" style="fill:none;stroke:#F15A60;stroke-width:0.625" />
<path d="M1127.6,214.55A3.125,3.125 0 1 1 1121.3,214.55A3.125,3.125 0 1 1 1127.6,214.55Z" style="fill:none;stroke:#F15A60;stroke-width:0.625" />
<path d="M1134.5,227.91L1134.5,227.91A3.125,3.125 0 1 1 1128.3,227.91A3.125,3.125 0 1 1 1134.5,227.91Z" style="fill:none;stroke:#F15A60;stroke-width:0.625" />
<path d="M1141.4,226.33A3.125,3.125 0 1 1 1135.2,226.33A3.125,3.125 0 1 1 1141.4,226.33Z" style="fill:none;stroke:#F15A60;stroke-width:0.625" />
<path d="M1148.4,219.43A3.125,3.125 0 1 1 1142.1,219.43A3.125,3.125 0 1 1 1148.4,219.43Z" style="fill:none;stroke:#F15A60;stroke-width:0.625" />
<path d="M1155.3,204.83A3.125,3.125 0 1 1 1149.1,204.83A3.125,3.125 0 1 1 1155.3,204.83Z" style="fill:none;stroke:#F15A60;stroke-width:0.625" />
<path d="M1162.3,206.87A3.125,3.125 0 1 1 1156,206.87A3.125,3.125 0 1 1 1162.3,206.87Z" style="fill:none;stroke:#F15A60;stroke-width:0.625" />
<path d="M1169.2,210.54A3.125,3.125 0 1 1 1163,210.54A3.125,3.125 0 1 1 1169.2,210.54Z" style="fill:none;stroke:#F15A60;stroke-width:0.625" />
<path d="M1176.2,195.62A3.125,3.125 0 1 1 1169.9,195.62A3.125,3.125 0 1 1 1176.2,195.62Z" style="fill:none;stroke:#F15A60;stroke-width:0.625" />
<path d="M1183.1,200.88L1183.1,200.88A3.125,3.125 0 1 1 1176.9,200.88A3.125,3.125 0 1 1 1183.1,200.88Z" style="fill:none;stroke:#F15A60;stroke-width:0.625" />
<path d="M1190.1,203.34A3.125,3.125 0 1 1 1183.8,203.34A3.125,3.125 0 1 1 1190.1,203.34Z" style="fill:none;stroke:#F15A60;stroke-width:0.625" />
<path d="M1197,196.55L1197,196.55A3.125,3.125 0 1 1 1190.7,196.55A3.125,3.125 0 1 1 1197,196.55Z" style="fill:none;stroke:#F15A60;stroke-width:0.625" />
<path d="M1203.9,175.46A3.125,3.125 0 1 1 1197.7,175.46A3.125,3.125 0 1 1 1203.9,175.46Z" style="fill:none;stroke:#F15A60;stroke-width:0.625" />
<path d="M1210.9,177.38A3.125,3.125 0 1 1 1204.6,177.38A3.125,3.125 0 1 1 1210.9,177.38Z" style="fill:none;stroke:#F15A60;stroke-width:0.625" />
<path d="M1217.8,167.33A3.125,3.125 0 1 1 1211.6,167.33A3.125,3.125 0 1 1 1217.8,167.33Z" style="fill:none;stroke:#F15A60;stroke-width:0.625" />
<path d="M1224.8,168.23A3.125,3.125 0 1 1 1218.5,168.23A3.125,3.125 0 1 1 1224.8,168.23Z" style="fill:none;stroke:#F15A60;stroke-width:0.625" />
<path d="M1231.7,180.75L1231.7,180.75A3.125,3.125 0 1 1 1225.5,180.75A3.125,3.125 0 1 1 1231.7,180.75Z" style="fill:none;stroke:#F15A60;stroke-width:0.625" />
<path d="M1238.7,182.05L1238.7,182.05A3.125,3.125 0 1 1 1232.4,182.05A3.125,3.125 0 1 1 1238.7,182.05Z" style="fill:none;stroke:#F15A60;stroke-width:0.625" />
<path d="M1245.6,184.75L1245.6,184.75A3.125,3.125 0 1 1 1239.3,184.75A3.125,3.125 0 1 1 1245.6,184.75Z" style="fill:none;stroke:#F15A60;stroke-width:0.625" />
<path d="M1252.5,162.96A3.125,3.125 0 1 1 1246.3,162.96A3.125,3.125 0 1 1 1252.5,162.96Z" style="fill:none;stroke:#F15A60;stroke-width:0.625" />
<path d="M1259.5,165.03A3.125,3.125 0 1 1 1253.2,165.03A3.125,3.125 0 1 1 1259.5,165.03Z" style="fill:none;stroke:#F15A60;stroke-width:0.625" />
<path d="M1266.4,185.15A3.125,3.125 0 1 1 1260.2,185.15A3.125,3.125 0 1 1 1266.4,185.15Z" style="fill:none;stroke:#F15A60;stroke-width:0.625" />
<path d="M1273.4,171.74A3.125,3.125 0 1 1 1267.1,171.74A3.125,3.125 0 1 1 1273.4,171.74Z" style="fill:none;stroke:#F15A60;stroke-width:0.625" />
<path d="M1280.3,178.36L1280.3,178.36A3.125,3.125 0 1 1 1274.1,178.36A3.125,3.125 0 1 1 1280.3,178.36Z" style="fill:none;stroke:#F15A60;stroke-width:0.625" />
<path d="M1287.3,179.01L1287.3,179.01A3.125,3.125 0 1 1 1281,179.01A3.125,3.125 0 1 1 1287.3,179.01Z" style="fill:none;stroke:#F15A60;stroke-width:0.625" />
<path d="M1294.2,180.58L1294.2,180.58A3.125,3.125 0 1 1 1287.9,180.58A3.125,3.125 0 1 1 1294.2,180.58Z" style="fill:none;stroke:#F15A60;stroke-width:0.625" />
<path d="M1301.1,183.07A3.125,3.125 0 1 1 1294.9,183.07A3.125,3.125 0 1 1 1301.1,183.07Z" style="fill:none;stroke:#F15A60;stroke-width:0.625" />
<path d="M1308.1,195.27A3.125,3.125 0 1 1 1301.8,195.27A3.125,3.125 0 1 1 1308.1,195.27Z" style="fill:none;stroke:#F15A60;stroke-width:0.625" />
<path d="M1315,192.97A3.125,3.125 0 1 1 1308.8,192.97A3.125,3.125 0 1 1 1315,192.97Z" style="fill:none;stroke:#F15A60;stroke-width:0.625" />
<path d="M1322,196.91A3.125,3.125 0 1 1 1315.7,196.91A3.125,3.125 0 1 1 1322,196.91Z" style="fill:none;stroke:#F15A60;stroke-width:0.625" />
<path d="M1328.9,219.68L1328.9,219.68A3.125,3.125 0 1 1 1322.7,219.68A3.125,3.125 0 1 1 1328.9,219.68Z" style="fill:none;stroke:#F15A60;stroke-width:0.625" />
<path d="M1335.9,220.3L1335.9,220.3A3.125,3.125 0 1 1 1329.6,220.3A3.125,3.125 0 1 1 1335.9,220.3Z" style="fill:none;stroke:#F15A60;stroke-width:0.625" />
<path d="M1342.8,223.43L1342.8,223.43A3.125,3.125 0 1 1 1336.5,223.43A3.125,3.125 0 1 1 1342.8,223.43Z" style="fill:none;stroke:#F15A60;stroke-width:0.625" />
<path d="M1349.7,219.38L1349.7,219.38A3.125,3.125 0 1 1 1343.5,219.38A3.125,3.125 0 1 1 1349.7,219.38Z" style="fill:none;stroke:#F15A60;stroke-width:0.625" />
<path d="M1356.7,210.94A3.125,3.125 0 1 1 1350.4,210.94A3.125,3.125 0 1 1 1356.7,210.94Z" style="fill:none;stroke:#F15A60;stroke-width:0.625" />
<path d="M1363.6,222.45A3.125,3.125 0 1 1 1357.4,222.45A3.125,3.125 0 1 1 1363.6,222.45Z" style="fill:none;stroke:#F15A60;stroke-width:0.625" />
<path d="M1370.6,210.64A3.125,3.125 0 1 1 1364.3,210.64A3.125,3.125 0 1 1 1370.6,210.64Z" style="fill:none;stroke:#F15A60;stroke-width:0.625" />
<path d="M1377.5,229.45A3.125,3.125 0 1 1 1371.3,229.45A3.125,3.125 0 1 1 1377.5,229.45Z" style="fill:none;stroke:#F15A60;stroke-width:0.625" />
<path d="M1384.5,208.85A3.125,3.125 0 1 1 1378.2,208.85A3.125,3.125 0 1 1 1384.5,208.85Z" style="fill:none;stroke:#F15A60;stroke-width:0.625" />
<path d="M1391.4,208.68A3.125,3.125 0 1 1 1385.1,208.68A3.125,3.125 0 1 1 1391.4,208.68Z" style="fill:none;stroke:#F15A60;stroke-width:0.625" />
<path d="M1398.3,206.23A3.125,3.125 0 1 1 1392.1,206.23A3.125,3.125 0 1 1 1398.3,206.23Z" style="fill:none;stroke:#F15A60;stroke-width:0.625" />
<path d="M1405.3,208.5L1405.3,208.5A3.125,3.125 0 1 1 1399,208.5A3.125,3.125 0 1 1 1405.3,208.5Z" style="fill:none;stroke:#F15A60;stroke-width:0.625" />
<path d="M1412.2,201.69L1412.2,201.69A3.125,3.125 0 1 1 1406,201.69A3.125,3.125 0 1 1 1412.2,201.69Z" style="fill:none;stroke:#F15A60;stroke-width:0.625" />
<path d="M1419.2,205.4A3.125,3.125 0 1 1 1412.9,205.4A3.125,3.125 0 1 1 1419.2,205.4Z" style="fill:none;stroke:#F15A60;stroke-width:0.625" />
<path d="M1426.1,210.43A3.125,3.125 0 1 1 1419.9,210.43A3.125,3.125 0 1 1 1426.1,210.43Z" style="fill:none;stroke:#F15A60;stroke-width:0.625" />
<path d="M1433.1,186.95A3.125,3.125 0 1 1 1426.8,186.95A3.125,3.125 0 1 1 1433.1,186.95Z" style="fill:none;stroke:#F15A60;stroke-width:0.625" />
<path d="M1440,200.29A3.125,3.125 0 1 1 1433.8,200.29A3.125,3.125 0 1 1 1440,200.29Z" style="fill:none;stroke:#F15A60;stroke-width:0.625" />
<path d="M55.208,196.52L62.151,208.42L69.094,214.47L76.037,216.71L82.98,216.69L89.923,215.55L96.866,214.02L103.81,212.53L110.75,262.37L117.69,243.34L124.64,228.41L131.58,220.73L138.52,209.68L145.47,201.64L152.41,206.37L159.35,218.69L166.3,215.47L173.24,203.36L180.18,202.38L187.13,195.27L194.07,186.51L201.01,182.12L207.95,189.7L214.9,174.89L221.84,174.84L228.78,174.55L235.73,178.77L242.67,188.75L249.61,180.3L256.56,172.69L263.5,172.08L270.44,183.64L277.39,184.37L284.33,175.35L291.27,178.88L298.21,183.53L305.16,190.74L312.1,194.1L319.04,182.78L325.99,190.62L332.93,208.94L339.87,193.93L346.82,154.33L353.76,174.4L360.7,196.98L367.64,190.86L374.59,196.28L381.53,208.5L388.47,216.93L395.42,193.99L402.36,178.91L409.3,184.93L416.25,228.15L423.19,215.25L430.13,212.16L437.08,204.95L444.02,193.53L450.96,189.23L457.9,185.4L464.85,155.1L471.79,162.09L478.73,165.06L485.68,164.65L492.62,145.78L499.56,167.71L506.51,177.27L513.45,165.85L520.39,177.57L527.34,176.45L534.28,192.03L541.22,197.71L548.16,172.8L555.11,177.34L562.05,199.59L568.99,245.22L575.94,241.88L582.88,233.39L589.82,262.97L596.77,199.47L603.71,186.97L610.65,203.32L617.59,268.69L624.54,265.76L631.48,250.06L638.42,277.98L645.37,252.51L652.31,217.94L659.25,201.28L666.2,201.42L673.14,205.31L680.08,208.33L687.03,191L693.97,193.36L700.91,186.59L707.85,177.84L714.8,179.84L721.74,175.79L728.68,179.23L735.63,250.39L742.57,222.85L749.51,187.66L756.46,176.3L763.4,151.87L770.34,160.46L777.28,158.88L784.23,141.52L791.17,151.48L798.11,167.24L805.06,178.43L812,238.61L818.94,238.54L825.89,280.05L832.83,195.59L839.77,227.79L846.72,197.46L853.66,209.98L860.6,276.04L867.54,274.16L874.49,302.24L881.43,271.95L888.37,252.88L895.32,260L902.26,230.04L909.2,232.17L916.15,228.02L923.09,235.79L930.03,210.05L936.98,191.67L943.92,180.44L950.86,168.83L957.8,174.39L964.75,166.3L971.69,145.59L978.63,137.31L985.58,58.586L992.52,106.43L999.46,135.2L1006.4,162.89L1013.3,156.97L1020.3,164.78L1027.2,164.06L1034.2,216.34L1041.1,241.86L1048.1,238.83L1055,233.08L1062,230.79L1068.9,233.06L1075.8,240.82L1082.8,252.87L1089.7,301.67L1096.7,296.35L1103.6,806.88L1110.6,607.98L1117.5,470.86L1124.4,362.07L1131.4,354L1138.3,325.93L1145.3,296.25L1152.2,410.6L1159.2,352.01L1166.1,310.16L1173,256.83L1180,239.95L1186.9,230.92L1193.9,216.08L1200.8,120.33L1207.8,109.76L1214.7,93.847L1221.6,86.029L1228.6,116.03L1235.5,142.83L1242.5,165.07L1249.4,78.969L1256.4,51.226L1263.3,106.87L1270.2,111.64L1277.2,128.23L1284.1,145.04L1291.1,157.05L1298,169.26L1305,216.44L1311.9,246.13L1318.8,258.32L1325.8,352.28L1332.7,384.92L1339.7,412.83L1346.6,429.19L1353.6,377.24L1360.5,441.28L1367.4,397.58L1374.4,419.52L1381.3,372.17L1388.3,342.52L1395.2,328.28L1402.2,312.77L1409.1,303.79L1416,306.46L1423,310.9L1429.9,251.08L1436.9,254.29" style="fill:none;stroke:#7AC36A;stroke-width:1.25;stroke-dasharray:7.5,2.5" />
<path d="M52.54,193.86L57.875,193.86L57.875,199.19L52.54,199.19Z" style="fill:none;stroke:#7AC36A;stroke-width:0.625" />
<path d="M59.483,205.75L64.818,205.75L64.818,211.08L59.483,211.08Z" style="fill:none;stroke:#7AC36A;stroke-width:0.625" />
<path d="M66.426,211.81L71.761,211.81L71.761,217.14L66.426,217.14Z" style="fill:none;stroke:#7AC36A;stroke-width:0.625" />
<path d="M73.369,214.04L78.704,214.04L78.704,219.37L73.369,219.37Z" style="fill:none;stroke:#7AC36A;stroke-width:0.625" />
<path d="M80.312,214.02L85.647,214.02L85.647,219.36L80.312,219.36Z" style="fill:none;stroke:#7AC36A;stroke-width:0.625" />
<path d="M87.255,212.88L92.59,212.88L92.59,218.22L87.255,218.22Z" style="fill:none;stroke:#7AC36A;stroke-width:0.625" />
<path d="M94.198,211.35L99.533,211.35L99.533,216.69L94.198,216.69Z" style="fill:none;stroke:#7AC36A;stroke-width:0.625" />
<path d="M101.14,209.86L106.48,209.86L106.48,215.19L101.14,215.19Z" style="fill:none;stroke:#7AC36A;stroke-width:0.625" />
<path d="M108.08,259.71L113.42,259.71L113.42,265.04L108.08,265.04Z" style="fill:none;stroke:#7AC36A;stroke-width:0.625" />
<path d="M115.03,240.68L120.36,240.68L120.36,246.01L115.03,246.01Z" style="fill:none;stroke:#7AC36A;stroke-width:0.625" />
<path d="M121.97,225.74L127.31,225.74L127.31,231.08L121.97,231.08Z" style="fill:none;stroke:#7AC36A;stroke-width:0.625" />
<path d="M128.91,218.06L134.25,218.06L134.25,223.39L128.91,223.39Z" style="fill:none;stroke:#7AC36A;stroke-width:0.625" />
<path d="M135.86,207.01L141.19,207.01L141.19,212.35L135.86,212.35Z" style="fill:none;stroke:#7AC36A;stroke-width:0.625" />
<path d="M142.8,198.97L148.13,198.97L148.13,204.31L142.8,204.31Z" style="fill:none;stroke:#7AC36A;stroke-width:0.625" />
<path d="M149.74,203.7L155.08,203.7L155.08,209.04L149.74,209.04Z" style="fill:none;stroke:#7AC36A;stroke-width:0.625" />
<path d="M156.69,216.03L162.02,216.03L162.02,221.36L156.69,221.36Z" style="fill:none;stroke:#7AC36A;stroke-width:0.625" />
<path d="M163.63,212.8L168.96,212.8L168.96,218.13L163.63,218.13Z" style="fill:none;stroke:#7AC36A;stroke-width:0.625" />
<path d="M170.57,200.69L175.91,200.69L175.91,206.03L170.57,206.03Z" style="fill:none;stroke:#7AC36A;stroke-width:0.625" />
<path d="M177.52,199.71L182.85,199.71L182.85,205.05L177.52,205.05Z" style="fill:none;stroke:#7AC36A;stroke-width:0.625" />
<path d="M184.46,192.6L189.79,192.6L189.79,197.94L184.46,197.94Z" style="fill:none;stroke:#7AC36A;stroke-width:0.625" />
<path d="M191.4,183.84L196.74,183.84L196.74,189.18L191.4,189.18Z" style="fill:none;stroke:#7AC36A;stroke-width:0.625" />
<path d="M198.34,179.45L203.68,179.45L203.68,184.78L198.34,184.78Z" style="fill:none;stroke:#7AC36A;stroke-width:0.625" />
<path d="M205.29,187.03L210.62,187.03L210.62,192.36L205.29,192.36Z" style="fill:none;stroke:#7AC36A;stroke-width:0.625" />
<path d="M212.23,172.22L217.57,172.22L217.57,177.55L212.23,177.55Z" style="fill:none;stroke:#7AC36A;stroke-width:0.625" />
<path d="M219.17,172.18L224.51,172.18L224.51,177.51L219.17,177.51Z" style="fill:none;stroke:#7AC36A;stroke-width:0.625" />
<path d="M226.12,171.88L231.45,171.88L231.45,177.22L226.12,177.22Z" style="fill:none;stroke:#7AC36A;stroke-width:0.625" />
<path d="M233.06,176.11L238.39,176.11L238.39,181.44L233.06,181.44Z" style="fill:none;stroke:#7AC36A;stroke-width:0.625" />
<path d="M240,186.08L245.34,186.08L245.34,191.41L240,191.41Z" style="fill:none;stroke:#7AC36A;stroke-width:0.625" />
<path d="M246.95,177.63L252.28,177.63L252.28,182.97L246.95,182.97Z" style="fill:none;stroke:#7AC36A;stroke-width:0.625" />
<path d="M253.89,170.02L259.22,170.02L259.22,175.36L253.89,175.36Z" style="fill:none;stroke:#7AC36A;stroke-width:0.625" />
<path d="M260.83,169.41L266.17,169.41L266.17,174.75L260.83,174.75Z" style="fill:none;stroke:#7AC36A;stroke-width:0.625" />
<path d="M267.77,180.97L273.11,180.97L273.11,186.31L267.77,186.31Z" style="fill:none;stroke:#7AC36A;stroke-width:0.625" />
<path d="M274.72,181.7L280.05,181.7L280.05,187.04L274.72,187.04Z" style="fill:none;stroke:#7AC36A;stroke-width:0.625" />
<path d="M281.66,172.68L287,172.68L287,178.02L281.66,178.02Z" style="fill:none;stroke:#7AC36A;stroke-width:0.625" />
<path d="M288.6,176.22L293.94,176.22L293.94,181.55L288.6,181.55Z" style="fill:none;stroke:#7AC36A;stroke-width:0.625" />
<path d="M295.55,180.86L300.88,180.86L300.88,186.19L295.55,186.19Z" style="fill:none;stroke:#7AC36A;stroke-width:0.625" />
<path d="M302.49,188.08L307.82,188.08L307.82,193.41L302.49,193.41Z" style="fill:none;stroke:#7AC36A;stroke-width:0.625" />
<path d="M309.43,191.44L314.77,191.44L314.77,196.77L309.43,196.77Z" style="fill:none;stroke:#7AC36A;stroke-width:0.625" />
<path d="M316.38,180.11L321.71,180.11L321.71,185.45L316.38,185.45Z" style="fill:none;stroke:#7AC36A;stroke-width:0.625" />
<path d="M323.32,187.95L328.65,187.95L328.65,193.29L323.32,193.29Z" style="fill:none;stroke:#7AC36A;stroke-width:0.625" />
<path d="M330.26,206.27L335.6,206.27L335.6,211.61L330.26,211.61Z" style="fill:none;stroke:#7AC36A;stroke-width:0.625" />
<path d="M337.21,191.26L342.54,191.26L342.54,196.59L337.21,196.59Z" style="fill:none;stroke:#7AC36A;stroke-width:0.625" />
<path d="M344.15,151.66L349.48,151.66L349.48,157L344.15,157Z" style="fill:none;stroke:#7AC36A;stroke-width:0.625" />
<path d="M351.09,171.73L356.43,171.73L356.43,177.07L351.09,177.07Z" style="fill:none;stroke:#7AC36A;stroke-width:0.625" />
<path d="M358.03,194.32L363.37,194.32L363.37,199.65L358.03,199.65Z" style="fill:none;stroke:#7AC36A;stroke-width:0.625" />
<path d="M364.98,188.19L370.31,188.19L370.31,193.53L364.98,193.53Z" style="fill:none;stroke:#7AC36A;stroke-width:0.625" />
<path d="M371.92,193.61L377.26,193.61L377.26,198.95L371.92,198.95Z" style="fill:none;stroke:#7AC36A;stroke-width:0.625" />
<path d="M378.86,205.83L384.2,205.83L384.2,211.17L378.86,211.17Z" style="fill:none;stroke:#7AC36A;stroke-width:0.625" />
<path d="M385.81,214.26L391.14,214.26L391.14,219.6L385.81,219.6Z" style="fill:none;stroke:#7AC36A;stroke-width:0.625" />
<path d="M392.75,191.32L398.08,191.32L398.08,196.65L392.75,196.65Z" style="fill:none;stroke:#7AC36A;stroke-width:0.625" />
<path d="M399.69,176.24L405.03,176.24L405.03,181.58L399.69,181.58Z" style="fill:none;stroke:#7AC36A;stroke-width:0.625" />
<path d="M406.64,182.27L411.97,182.27L411.97,187.6L406.64,187.6Z" style="fill:none;stroke:#7AC36A;stroke-width:0.625" />
<path d="M413.58,225.48L418.91,225.48L418.91,230.82L413.58,230.82Z" style="fill:none;stroke:#7AC36A;stroke-width:0.625" />
<path d="M420.52,212.59L425.86,212.59L425.86,217.92L420.52,217.92Z" style="fill:none;stroke:#7AC36A;stroke-width:0.625" />
<path d="M427.47,209.49L432.8,209.49L432.8,214.83L427.47,214.83Z" style="fill:none;stroke:#7AC36A;stroke-width:0.625" />
<path d="M434.41,202.28L439.74,202.28L439.74,207.62L434.41,207.62Z" style="fill:none;stroke:#7AC36A;stroke-width:0.625" />
<path d="M441.35,190.86L446.69,190.86L446.69,196.2L441.35,196.2Z" style="fill:none;stroke:#7AC36A;stroke-width:0.625" />
<path d="M448.29,186.56L453.63,186.56L453.63,191.9L448.29,191.9Z" style="fill:none;stroke:#7AC36A;stroke-width:0.625" />
<path d="M455.24,182.73L460.57,182.73L460.57,188.07L455.24,188.07Z" style="fill:none;stroke:#7AC36A;stroke-width:0.625" />
<path d="M462.18,152.43L467.51,152.43L467.51,157.76L462.18,157.76Z" style="fill:none;stroke:#7AC36A;stroke-width:0.625" />
<path d="M469.12,159.42L474.46,159.42L474.46,164.75L469.12,164.75Z" style="fill:none;stroke:#7AC36A;stroke-width:0.625" />
<path d="M476.07,162.39L481.4,162.39L481.4,167.72L476.07,167.72Z" style="fill:none;stroke:#7AC36A;stroke-width:0.625" />
<path d="M483.01,161.98L488.34,161.98L488.34,167.31L483.01,167.31Z" style="fill:none;stroke:#7AC36A;stroke-width:0.625" />
<path d="M489.95,143.11L495.29,143.11L495.29,148.45L489.95,148.45Z" style="fill:none;stroke:#7AC36A;stroke-width:0.625" />
<path d="M496.9,165.04L502.23,165.04L502.23,170.37L496.9,170.37Z" style="fill:none;stroke:#7AC36A;stroke-width:0.625" />
<path d="M503.84,174.6L509.17,174.6L509.17,179.94L503.84,179.94Z" style="fill:none;stroke:#7AC36A;stroke-width:0.625" />
<path d="M510.78,163.18L516.12,163.18L516.12,168.51L510.78,168.51Z" style="fill:none;stroke:#7AC36A;stroke-width:0.625" />
<path d="M517.72,174.91L523.06,174.91L523.06,180.24L517.72,180.24Z" style="fill:none;stroke:#7AC36A;stroke-width:0.625" />
<path d="M524.67,173.78L530,173.78L530,179.12L524.67,179.12Z" style="fill:none;stroke:#7AC36A;stroke-width:0.625" />
<path d="M531.61,189.37L536.95,189.37L536.95,194.7L531.61,194.7Z" style="fill:none;stroke:#7AC36A;stroke-width:0.625" />
<path d="M538.55,195.04L543.89,195.04L543.89,200.38L538.55,200.38Z" style="fill:none;stroke:#7AC36A;stroke-width:0.625" />
<path d="M545.5,170.13L550.83,170.13L550.83,175.46L545.5,175.46Z" style="fill:none;stroke:#7AC36A;stroke-width:0.625" />
<path d="M552.44,174.67L557.77,174.67L557.77,180L552.44,180Z" style="fill:none;stroke:#7AC36A;stroke-width:0.625" />
<path d="M559.38,196.92L564.72,196.92L564.72,202.25L559.38,202.25Z" style="fill:none;stroke:#7AC36A;stroke-width:0.625" />
<path d="M566.33,242.55L571.66,242.55L571.66,247.89L566.33,247.89Z" style="fill:none;stroke:#7AC36A;stroke-width:0.625" />
<path d="M573.27,239.21L578.6,239.21L578.6,244.54L573.27,244.54Z" style="fill:none;stroke:#7AC36A;stroke-width:0.625" />
<path d="M580.21,230.72L585.55,230.72L585.55,236.05L580.21,236.05Z" style="fill:none;stroke:#7AC36A;stroke-width:0.625" />
<path d="M587.16,260.31L592.49,260.31L592.49,265.64L587.16,265.64Z" style="fill:none;stroke:#7AC36A;stroke-width:0.625" />
<path d="M594.1,196.81L599.43,196.81L599.43,202.14L594.1,202.14Z" style="fill:none;stroke:#7AC36A;stroke-width:0.625" />
<path d="M601.04,184.3L606.38,184.3L606.38,189.64L601.04,189.64Z" style="fill:none;stroke:#7AC36A;stroke-width:0.625" />
<path d="M607.98,200.65L613.32,200.65L613.32,205.99L607.98,205.99Z" style="fill:none;stroke:#7AC36A;stroke-width:0.625" />
<path d="M614.93,266.02L620.26,266.02L620.26,271.35L614.93,271.35Z" style="fill:none;stroke:#7AC36A;stroke-width:0.625" />
<path d="M621.87,263.1L627.21,263.1L627.21,268.43L621.87,268.43Z" style="fill:none;stroke:#7AC36A;stroke-width:0.625" />
<path d="M628.81,247.39L634.15,247.39L634.15,252.72L628.81,252.72Z" style="fill:none;stroke:#7AC36A;stroke-width:0.625" />
<path d="M635.76,275.31L641.09,275.31L641.09,280.64L635.76,280.64Z" style="fill:none;stroke:#7AC36A;stroke-width:0.625" />
<path d="M642.7,249.84L648.03,249.84L648.03,255.17L642.7,255.17Z" style="fill:none;stroke:#7AC36A;stroke-width:0.625" />
<path d="M649.64,215.27L654.98,215.27L654.98,220.61L649.64,220.61Z" style="fill:none;stroke:#7AC36A;stroke-width:0.625" />
<path d="M656.59,198.62L661.92,198.62L661.92,203.95L656.59,203.95Z" style="fill:none;stroke:#7AC36A;stroke-width:0.625" />
<path d="M663.53,198.75L668.86,198.75L668.86,204.09L663.53,204.09Z" style="fill:none;stroke:#7AC36A;stroke-width:0.625" />
<path d="M670.47,202.64L675.81,202.64L675.81,207.98L670.47,207.98Z" style="fill:none;stroke:#7AC36A;stroke-width:0.625" />
<path d="M677.41,205.66L682.75,205.66L682.75,210.99L677.41,210.99Z" style="fill:none;stroke:#7AC36A;stroke-width:0.625" />
<path d="M684.36,188.33L689.69,188.33L689.69,193.66L684.36,193.66Z" style="fill:none;stroke:#7AC36A;stroke-width:0.625" />
<path d="M691.3,190.7L696.64,190.7L696.64,196.03L691.3,196.03Z" style="fill:none;stroke:#7AC36A;stroke-width:0.625" />
<path d="M698.24,183.93L703.58,183.93L703.58,189.26L698.24,189.26Z" style="fill:none;stroke:#7AC36A;stroke-width:0.625" />
<path d="M705.19,175.18L710.52,175.18L710.52,180.51L705.19,180.51Z" style="fill:none;stroke:#7AC36A;stroke-width:0.625" />
<path d="M712.13,177.17L717.46,177.17L717.46,182.51L712.13,182.51Z" style="fill:none;stroke:#7AC36A;stroke-width:0.625" />
<path d="M719.07,173.13L724.41,173.13L724.41,178.46L719.07,178.46Z" style="fill:none;stroke:#7AC36A;stroke-width:0.625" />
<path d="M726.02,176.56L731.35,176.56L731.35,181.9L726.02,181.9Z" style="fill:none;stroke:#7AC36A;stroke-width:0.625" />
<path d="M732.96,247.72L738.29,247.72L738.29,253.05L732.96,253.05Z" style="fill:none;stroke:#7AC36A;stroke-width:0.625" />
<path d="M739.9,220.19L745.24,220.19L745.24,225.52L739.9,225.52Z" style="fill:none;stroke:#7AC36A;stroke-width:0.625" />
<path d="M746.85,184.99L752.18,184.99L752.18,190.32L746.85,190.32Z" style="fill:none;stroke:#7AC36A;stroke-width:0.625" />
<path d="M753.79,173.63L759.12,173.63L759.12,178.96L753.79,178.96Z" style="fill:none;stroke:#7AC36A;stroke-width:0.625" />
<path d="M760.73,149.21L766.07,149.21L766.07,154.54L760.73,154.54Z" style="fill:none;stroke:#7AC36A;stroke-width:0.625" />
<path d="M767.67,157.79L773.01,157.79L773.01,163.13L767.67,163.13Z" style="fill:none;stroke:#7AC36A;stroke-width:0.625" />
<path d="M774.62,156.21L779.95,156.21L779.95,161.55L774.62,161.55Z" style="fill:none;stroke:#7AC36A;stroke-width:0.625" />
<path d="M781.56,138.85L786.9,138.85L786.9,144.19L781.56,144.19Z" style="fill:none;stroke:#7AC36A;stroke-width:0.625" />
<path d="M788.5,148.81L793.84,148.81L793.84,154.15L788.5,154.15Z" style="fill:none;stroke:#7AC36A;stroke-width:0.625" />
<path d="M795.45,164.57L800.78,164.57L800.78,169.91L795.45,169.91Z" style="fill:none;stroke:#7AC36A;stroke-width:0.625" />
<path d="M802.39,175.76L807.72,175.76L807.72,181.1L802.39,181.1Z" style="fill:none;stroke:#7AC36A;stroke-width:0.625" />
<path d="M809.33,235.94L814.67,235.94L814.67,241.27L809.33,241.27Z" style="fill:none;stroke:#7AC36A;stroke-width:0.625" />
<path d="M816.28,235.87L821.61,235.87L821.61,241.2L816.28,241.2Z" style="fill:none;stroke:#7AC36A;stroke-width:0.625" />
<path d="M823.22,277.38L828.55,277.38L828.55,282.72L823.22,282.72Z" style="fill:none;stroke:#7AC36A;stroke-width:0.625" />
<path d="M830.16,192.92L835.5,192.92L835.5,198.26L830.16,198.26Z" style="fill:none;stroke:#7AC36A;stroke-width:0.625" />
<path d="M837.11,225.12L842.44,225.12L842.44,230.46L837.11,230.46Z" style="fill:none;stroke:#7AC36A;stroke-width:0.625" />
<path d="M844.05,194.79L849.38,194.79L849.38,200.13L844.05,200.13Z" style="fill:none;stroke:#7AC36A;stroke-width:0.625" />
<path d="M850.99,207.31L856.33,207.31L856.33,212.65L850.99,212.65Z" style="fill:none;stroke:#7AC36A;stroke-width:0.625" />
<path d="M857.93,273.37L863.27,273.37L863.27,278.7L857.93,278.7Z" style="fill:none;stroke:#7AC36A;stroke-width:0.625" />
<path d="M864.88,271.5L870.21,271.5L870.21,276.83L864.88,276.83Z" style="fill:none;stroke:#7AC36A;stroke-width:0.625" />
<path d="M871.82,299.57L877.16,299.57L877.16,304.91L871.82,304.91Z" style="fill:none;stroke:#7AC36A;stroke-width:0.625" />
<path d="M878.76,269.29L884.1,269.29L884.1,274.62L878.76,274.62Z" style="fill:none;stroke:#7AC36A;stroke-width:0.625" />
<path d="M885.71,250.21L891.04,250.21L891.04,255.55L885.71,255.55Z" style="fill:none;stroke:#7AC36A;stroke-width:0.625" />
<path d="M892.65,257.33L897.98,257.33L897.98,262.67L892.65,262.67Z" style="fill:none;stroke:#7AC36A;stroke-width:0.625" />
<path d="M899.59,227.37L904.93,227.37L904.93,232.7L899.59,232.7Z" style="fill:none;stroke:#7AC36A;stroke-width:0.625" />
<path d="M906.54,229.5L911.87,229.5L911.87,234.83L906.54,234.83Z" style="fill:none;stroke:#7AC36A;stroke-width:0.625" />
<path d="M913.48,225.36L918.81,225.36L918.81,230.69L913.48,230.69Z" style="fill:none;stroke:#7AC36A;stroke-width:0.625" />
<path d="M920.42,233.13L925.76,233.13L925.76,238.46L920.42,238.46Z" style="fill:none;stroke:#7AC36A;stroke-width:0.625" />
<path d="M927.36,207.38L932.7,207.38L932.7,212.71L927.36,212.71Z" style="fill:none;stroke:#7AC36A;stroke-width:0.625" />
<path d="M934.31,189L939.64,189L939.64,194.34L934.31,194.34Z" style="fill:none;stroke:#7AC36A;stroke-width:0.625" />
<path d="M941.25,177.78L946.59,177.78L946.59,183.11L941.25,183.11Z" style="fill:none;stroke:#7AC36A;stroke-width:0.625" />
<path d="M948.19,166.17L953.53,166.17L953.53,171.5L948.19,171.5Z" style="fill:none;stroke:#7AC36A;stroke-width:0.625" />
<path d="M955.14,171.72L960.47,171.72L960.47,177.06L955.14,177.06Z" style="fill:none;stroke:#7AC36A;stroke-width:0.625" />
<path d="M962.08,163.64L967.41,163.64L967.41,168.97L962.08,168.97Z" style="fill:none;stroke:#7AC36A;stroke-width:0.625" />
<path d="M969.02,142.93L974.36,142.93L974.36,148.26L969.02,148.26Z" style="fill:none;stroke:#7AC36A;stroke-width:0.625" />
<path d="M975.97,134.64L981.3,134.64L981.3,139.98L975.97,139.98Z" style="fill:none;stroke:#7AC36A;stroke-width:0.625" />
<path d="M982.91,55.919L988.24,55.919L988.24,61.253L982.91,61.253Z" style="fill:none;stroke:#7AC36A;stroke-width:0.625" />
<path d="M989.85,103.77L995.19,103.77L995.19,109.1L989.85,109.1Z" style="fill:none;stroke:#7AC36A;stroke-width:0.625" />
<path d="M996.8,132.53L1002.1,132.53L1002.1,137.87L996.8,137.87Z" style="fill:none;stroke:#7AC36A;stroke-width:0.625" />
<path d="M1003.7,160.22L1009.1,160.22L1009.1,165.56L1003.7,165.56Z" style="fill:none;stroke:#7AC36A;stroke-width:0.625" />
<path d="M1010.7,154.3L1016,154.3L1016,159.64L1010.7,159.64Z" style="fill:none;stroke:#7AC36A;stroke-width:0.625" />
<path d="M1017.6,162.12L1023,162.12L1023,167.45L1017.6,167.45Z" style="fill:none;stroke:#7AC36A;stroke-width:0.625" />
<path d="M1024.6,161.39L1029.9,161.39L1029.9,166.72L1024.6,166.72Z" style="fill:none;stroke:#7AC36A;stroke-width:0.625" />
<path d="M1031.5,213.67L1036.8,213.67L1036.8,219L1031.5,219Z" style="fill:none;stroke:#7AC36A;stroke-width:0.625" />
<path d="M1038.5,239.2L1043.8,239.2L1043.8,244.53L1038.5,244.53Z" style="fill:none;stroke:#7AC36A;stroke-width:0.625" />
<path d="M1045.4,236.17L1050.7,236.17L1050.7,241.5L1045.4,241.5Z" style="fill:none;stroke:#7AC36A;stroke-width:0.625" />
<path d="M1052.3,230.41L1057.7,230.41L1057.7,235.74L1052.3,235.74Z" style="fill:none;stroke:#7AC36A;stroke-width:0.625" />
<path d="M1059.3,228.12L1064.6,228.12L1064.6,233.45L1059.3,233.45Z" style="fill:none;stroke:#7AC36A;stroke-width:0.625" />
<path d="M1066.2,230.4L1071.6,230.4L1071.6,235.73L1066.2,235.73Z" style="fill:none;stroke:#7AC36A;stroke-width:0.625" />
<path d="M1073.2,238.15L1078.5,238.15L1078.5,243.48L1073.2,243.48Z" style="fill:none;stroke:#7AC36A;stroke-width:0.625" />
<path d="M1080.1,250.21L1085.4,250.21L1085.4,255.54L1080.1,255.54Z" style="fill:none;stroke:#7AC36A;stroke-width:0.625" />
<path d="M1087.1,299L1092.4,299L1092.4,304.34L1087.1,304.34Z" style="fill:none;stroke:#7AC36A;stroke-width:0.625" />
<path d="M1094,293.68L1099.3,293.68L1099.3,299.02L1094,299.02Z" style="fill:none;stroke:#7AC36A;stroke-width:0.625" />
<path d="M1100.9,804.21L1106.3,804.21L1106.3,809.54L1100.9,809.54Z" style="fill:none;stroke:#7AC36A;stroke-width:0.625" />
<path d="M1107.9,605.31L1113.2,605.31L1113.2,610.64L1107.9,610.64Z" style="fill:none;stroke:#7AC36A;stroke-width:0.625" />
<path d="M1114.8,468.19L1120.2,468.19L1120.2,473.53L1114.8,473.53Z" style="fill:none;stroke:#7AC36A;stroke-width:0.625" />
<path d="M1121.8,359.4L1127.1,359.4L1127.1,364.73L1121.8,364.73Z" style="fill:none;stroke:#7AC36A;stroke-width:0.625" />
<path d="M1128.7,351.34L1134,351.34L1134,356.67L1128.7,356.67Z" style="fill:none;stroke:#7AC36A;stroke-width:0.625" />
<path d="M1135.7,323.26L1141,323.26L1141,328.59L1135.7,328.59Z" style="fill:none;stroke:#7AC36A;stroke-width:0.625" />
<path d="M1142.6,293.59L1147.9,293.59L1147.9,298.92L1142.6,298.92Z" style="fill:none;stroke:#7AC36A;stroke-width:0.625" />
<path d="M1149.5,407.94L1154.9,407.94L1154.9,413.27L1149.5,413.27Z" style="fill:none;stroke:#7AC36A;stroke-width:0.625" />
<path d="M1156.5,349.34L1161.8,349.34L1161.8,354.67L1156.5,354.67Z" style="fill:none;stroke:#7AC36A;stroke-width:0.625" />
<path d="M1163.4,307.5L1168.8,307.5L1168.8,312.83L1163.4,312.83Z" style="fill:none;stroke:#7AC36A;stroke-width:0.625" />
<path d="M1170.4,254.16L1175.7,254.16L1175.7,259.5L1170.4,259.5Z" style="fill:none;stroke:#7AC36A;stroke-width:0.625" />
<path d="M1177.3,237.28L1182.6,237.28L1182.6,242.62L1177.3,242.62Z" style="fill:none;stroke:#7AC36A;stroke-width:0.625" />
<path d="M1184.3,228.26L1189.6,228.26L1189.6,233.59L1184.3,233.59Z" style="fill:none;stroke:#7AC36A;stroke-width:0.625" />
<path d="M1191.2,213.42L1196.5,213.42L1196.5,218.75L1191.2,218.75Z" style="fill:none;stroke:#7AC36A;stroke-width:0.625" />
<path d="M1198.1,117.66L1203.5,117.66L1203.5,123L1198.1,123Z" style="fill:none;stroke:#7AC36A;stroke-width:0.625" />
<path d="M1205.1,107.09L1210.4,107.09L1210.4,112.43L1205.1,112.43Z" style="fill:none;stroke:#7AC36A;stroke-width:0.625" />
<path d="M1212,91.179L1217.4,91.179L1217.4,96.514L1212,96.514Z" style="fill:none;stroke:#7AC36A;stroke-width:0.625" />
<path d="M1219,83.362L1224.3,83.362L1224.3,88.696L1219,88.696Z" style="fill:none;stroke:#7AC36A;stroke-width:0.625" />
<path d="M1225.9,113.36L1231.3,113.36L1231.3,118.69L1225.9,118.69Z" style="fill:none;stroke:#7AC36A;stroke-width:0.625" />
<path d="M1232.9,140.16L1238.2,140.16L1238.2,145.49L1232.9,145.49Z" style="fill:none;stroke:#7AC36A;stroke-width:0.625" />
<path d="M1239.8,162.41L1245.1,162.41L1245.1,167.74L1239.8,167.74Z" style="fill:none;stroke:#7AC36A;stroke-width:0.625" />
<path d="M1246.7,76.302L1252.1,76.302L1252.1,81.637L1246.7,81.637Z" style="fill:none;stroke:#7AC36A;stroke-width:0.625" />
<path d="M1253.7,48.558L1259,48.558L1259,53.893L1253.7,53.893Z" style="fill:none;stroke:#7AC36A;stroke-width:0.625" />
<path d="M1260.6,104.2L1266,104.2L1266,109.54L1260.6,109.54Z" style="fill:none;stroke:#7AC36A;stroke-width:0.625" />
<path d="M1267.6,108.97L1272.9,108.97L1272.9,114.3L1267.6,114.3Z" style="fill:none;stroke:#7AC36A;stroke-width:0.625" />
<path d="M1274.5,125.56L1279.9,125.56L1279.9,130.9L1274.5,130.9Z" style="fill:none;stroke:#7AC36A;stroke-width:0.625" />
<path d="M1281.5,142.37L1286.8,142.37L1286.8,147.71L1281.5,147.71Z" style="fill:none;stroke:#7AC36A;stroke-width:0.625" />
<path d="M1288.4,154.38L1293.7,154.38L1293.7,159.72L1288.4,159.72Z" style="fill:none;stroke:#7AC36A;stroke-width:0.625" />
<path d="M1295.3,166.59L1300.7,166.59L1300.7,171.93L1295.3,171.93Z" style="fill:none;stroke:#7AC36A;stroke-width:0.625" />
<path d="M1302.3,213.77L1307.6,213.77L1307.6,219.11L1302.3,219.11Z" style="fill:none;stroke:#7AC36A;stroke-width:0.625" />
<path d="M1309.2,243.46L1314.6,243.46L1314.6,248.8L1309.2,248.8Z" style="fill:none;stroke:#7AC36A;stroke-width:0.625" />
<path d="M1316.2,255.66L1321.5,255.66L1321.5,260.99L1316.2,260.99Z" style="fill:none;stroke:#7AC36A;stroke-width:0.625" />
<path d="M1323.1,349.62L1328.5,349.62L1328.5,354.95L1323.1,354.95Z" style="fill:none;stroke:#7AC36A;stroke-width:0.625" />
<path d="M1330.1,382.25L1335.4,382.25L1335.4,387.59L1330.1,387.59Z" style="fill:none;stroke:#7AC36A;stroke-width:0.625" />
<path d="M1337,410.17L1342.3,410.17L1342.3,415.5L1337,415.5Z" style="fill:none;stroke:#7AC36A;stroke-width:0.625" />
<path d="M1343.9,426.52L1349.3,426.52L1349.3,431.86L1343.9,431.86Z" style="fill:none;stroke:#7AC36A;stroke-width:0.625" />
<path d="M1350.9,374.58L1356.2,374.58L1356.2,379.91L1350.9,379.91Z" style="fill:none;stroke:#7AC36A;stroke-width:0.625" />
<path d="M1357.8,438.62L1363.2,438.62L1363.2,443.95L1357.8,443.95Z" style="fill:none;stroke:#7AC36A;stroke-width:0.625" />
<path d="M1364.8,394.91L1370.1,394.91L1370.1,400.25L1364.8,400.25Z" style="fill:none;stroke:#7AC36A;stroke-width:0.625" />
<path d="M1371.7,416.85L1377.1,416.85L1377.1,422.19L1371.7,422.19Z" style="fill:none;stroke:#7AC36A;stroke-width:0.625" />
<path d="M1378.7,369.5L1384,369.5L1384,374.84L1378.7,374.84Z" style="fill:none;stroke:#7AC36A;stroke-width:0.625" />
<path d="M1385.6,339.86L1390.9,339.86L1390.9,345.19L1385.6,345.19Z" style="fill:none;stroke:#7AC36A;stroke-width:0.625" />
<path d="M1392.5,325.62L1397.9,325.62L1397.9,330.95L1392.5,330.95Z" style="fill:none;stroke:#7AC36A;stroke-width:0.625" />
<path d="M1399.5,310.1L1404.8,310.1L1404.8,315.44L1399.5,315.44Z" style="fill:none;stroke:#7AC36A;stroke-width:0.625" />
<path d="M1406.4,301.12L1411.8,301.12L1411.8,306.46L1406.4,306.46Z" style="fill:none;stroke:#7AC36A;stroke-width:0.625" />
<path d="M1413.4,303.79L1418.7,303.79L1418.7,309.13L1413.4,309.13Z" style="fill:none;stroke:#7AC36A;stroke-width:0.625" />
<path d="M1420.3,308.23L1425.7,308.23L1425.7,313.56L1420.3,313.56Z" style="fill:none;stroke:#7AC36A;stroke-width:0.625" />
<path d="M1427.3,248.41L1432.6,248.41L1432.6,253.74L1427.3,253.74Z" style="fill:none;stroke:#7AC36A;stroke-width:0.625" />
<path d="M1434.2,251.62L1439.5,251.62L1439.5,256.96L1434.2,256.96Z" style="fill:none;stroke:#7AC36A;stroke-width:0.625" />
<path d="M1415,70.183L1440,70.183" style="fill:none;stroke:#F15A60;stroke-width:1.25" />
<path d="M1430.6,70.183A3.125,3.125 0 1 1 1424.4,70.183A3.125,3.125 0 1 1 1430.6,70.183Z" style="fill:none;stroke:#F15A60;stroke-width:0.625" />
<text x="1388.8" y="-63.101" transform="scale(1, -1)"
	style="font-family:Times;font-weight:normal;font-style:normal;font-size:12pt">raw</text>
<path d="M1415,55.461L1440,55.461" style="fill:none;stroke:#7AC36A;stroke-width:1.25;stroke-dasharray:7.5,2.5" />
<path d="M1424.8,52.794L1430.2,52.794L1430.2,58.129L1424.8,58.129Z" style="fill:none;stroke:#7AC36A;stroke-width:0.625" />
<text x="1367.1" y="-48.379" transform="scale(1, -1)"
	style="font-family:Times;font-weight:normal;font-style:normal;font-size:12pt">smooth</text>
</g>
</svg>
