<?xml version="1.0"?>
<!-- Generated by SVGo and Plotinum VG -->
<svg width="16in" height="9in"
	xmlns="http://www.w3.org/2000/svg"
	xmlns:xlink="http://www.w3.org/1999/xlink">
<g transform="scale(1, -1) translate(0, -810)">
<path d="M0,0L1440,0L1440,810L0,810Z" style="fill:#FFFFFF" />
<text x="742.11" y="-5.355" transform="scale(1, -1)"
	style="font-family:Times;font-weight:normal;font-style:normal;font-size:12pt">X</text>
<text x="55.05" y="-19.025" transform="scale(1, -1)"
	style="font-family:Times;font-weight:normal;font-style:normal;font-size:10pt">0</text>
<text x="467.61" y="-19.025" transform="scale(1, -1)"
	style="font-family:Times;font-weight:normal;font-style:normal;font-size:10pt">60</text>
<text x="880.18" y="-19.025" transform="scale(1, -1)"
	style="font-family:Times;font-weight:normal;font-style:normal;font-size:10pt">120</text>
<text x="1295.9" y="-19.025" transform="scale(1, -1)"
	style="font-family:Times;font-weight:normal;font-style:normal;font-size:10pt">180</text>
<path d="M58.175,29.625L58.175,39.625" style="fill:none;stroke:#000000;stroke-width:0.625" />
<path d="M473.86,29.625L473.86,39.625" style="fill:none;stroke:#000000;stroke-width:0.625" />
<path d="M889.55,29.625L889.55,39.625" style="fill:none;stroke:#000000;stroke-width:0.625" />
<path d="M1305.2,29.625L1305.2,39.625" style="fill:none;stroke:#000000;stroke-width:0.625" />
<path d="M196.74,34.625L196.74,39.625" style="fill:none;stroke:#000000;stroke-width:0.625" />
<path d="M335.3,34.625L335.3,39.625" style="fill:none;stroke:#000000;stroke-width:0.625" />
<path d="M612.43,34.625L612.43,39.625" style="fill:none;stroke:#000000;stroke-width:0.625" />
<path d="M750.99,34.625L750.99,39.625" style="fill:none;stroke:#000000;stroke-width:0.625" />
<path d="M1028.1,34.625L1028.1,39.625" style="fill:none;stroke:#000000;stroke-width:0.625" />
<path d="M1166.7,34.625L1166.7,39.625" style="fill:none;stroke:#000000;stroke-width:0.625" />
<path d="M58.175,39.625L1436.9,39.625" style="fill:none;stroke:#000000;stroke-width:0.625" />
<g transform="rotate(90)">
<text x="422.68" y="12.72" transform="scale(1, -1)"
	style="font-family:Times;font-weight:normal;font-style:normal;font-size:12pt">Y</text>
</g>
<text x="18.075" y="-209.21" transform="scale(1, -1)"
	style="font-family:Times;font-weight:normal;font-style:normal;font-size:10pt">-20</text>
<text x="18.075" y="-444.67" transform="scale(1, -1)"
	style="font-family:Times;font-weight:normal;font-style:normal;font-size:10pt">-10</text>
<text x="28.487" y="-680.14" transform="scale(1, -1)"
	style="font-family:Times;font-weight:normal;font-style:normal;font-size:10pt">0</text>
<path d="M37.862,214.04L47.862,214.04" style="fill:none;stroke:#000000;stroke-width:0.625" />
<path d="M37.862,449.5L47.862,449.5" style="fill:none;stroke:#000000;stroke-width:0.625" />
<path d="M37.862,684.96L47.862,684.96" style="fill:none;stroke:#000000;stroke-width:0.625" />
<path d="M42.862,96.303L47.862,96.303" style="fill:none;stroke:#000000;stroke-width:0.625" />
<path d="M42.862,331.77L47.862,331.77" style="fill:none;stroke:#000000;stroke-width:0.625" />
<path d="M42.862,567.23L47.862,567.23" style="fill:none;stroke:#000000;stroke-width:0.625" />
<path d="M42.862,802.7L47.862,802.7" style="fill:none;stroke:#000000;stroke-width:0.625" />
<path d="M47.862,49.313L47.862,806.88" style="fill:none;stroke:#000000;stroke-width:0.625" />
<path d="M58.175,703.16L65.103,706.7L72.031,709.97L78.959,707.15L85.888,723.3L92.816,708.68L99.744,714.8L106.67,717.75L113.6,720.56L120.53,728.91L127.46,711.91L134.38,727.36L141.31,721.29L148.24,703.81L155.17,719.84L162.1,719.62L169.03,713.93L175.95,695.74L182.88,696.1L189.81,684.01L196.74,697.23L203.67,680.1L210.59,693.95L217.52,681.73L224.45,671.94L231.38,677.8L238.31,683.77L245.23,679.57L252.16,680.43L259.09,669.42L266.02,683.1L272.95,683.51L279.88,687.89L286.8,677.81L293.73,685.27L300.66,699.52L307.59,693.47L314.52,686.69L321.44,705.35L328.37,701.65L335.3,720.11L342.23,719.52L349.16,718.77L356.09,718.43L363.01,717.5L369.94,726.13L376.87,723.21L383.8,712.06L390.73,712.6L397.65,724.56L404.58,723.62L411.51,722.22L418.44,699.53L425.37,693.95L432.29,704.08L439.22,698.46L446.15,690.04L453.08,694.36L460.01,683.77L466.94,676.71L473.86,686.88L480.79,678.11L487.72,672.11L494.65,683.19L501.58,674.08L508.5,677.49L515.43,685.69L522.36,664.06L529.29,686.53L536.22,688.56L543.14,687.01L550.07,689.13L557,680.21L563.93,704.82L570.86,688.78L577.79,705.74L584.71,706.44L591.64,713.78L598.57,713.68L605.5,711.67L612.43,711.91L619.35,707.99L626.28,728.06L633.21,710.94L640.14,714.45L647.07,730.05L654,723.13L660.92,710.81L667.85,700.18L674.78,702.88L681.71,706.64L688.64,699.99L695.56,705.34L702.49,694.99L709.42,689.47L716.35,677.22L723.28,683.57L730.2,673.68L737.13,676.03L744.06,665.09L750.99,671.46L757.92,680.69L764.85,674.75L771.77,682.5L778.7,685.94L785.63,669.6L792.56,685.43L799.49,677.24L806.41,687.85L813.34,696.93L820.27,700.57L827.2,696.83L834.13,700.89L841.05,712.95L847.98,702.25L854.91,716.65L861.84,722.96L868.77,720.81L875.7,710.51L882.62,715.08L889.55,718.05L896.48,723.68L903.41,712.15L910.34,725.6L917.26,722.86L924.19,708.41L931.12,696.58L938.05,699.69L944.98,694.72L951.91,684.73L958.83,694.83L965.76,698.52L972.69,692.94L979.62,678.07L986.55,677.46L993.47,672.04L1000.4,681.87L1007.3,662.27L1014.3,666.51L1021.2,682.41L1028.1,663.5L1035,674.23L1042,689.62L1048.9,676.22L1055.8,673.33L1062.8,675.94L1069.7,699.29L1076.6,704.44L1083.5,707.3L1090.5,698.34L1097.4,716.54L1104.3,701.35L1111.3,719.95L1118.2,708.46L1125.1,720.64L1132,719.22L1139,720.66L1145.9,731.91L1152.8,728.12L1159.7,720.11L1166.7,713.84L1173.6,723.96L1180.5,700.92L1187.5,707.76L1194.4,700.14L1201.3,692.59L1208.2,701.2L1215.2,701.21L1222.1,683.87L1229,677.92L1236,671.9L1242.9,682.8L1249.8,676.28L1256.7,674.38L1263.7,681.73L1270.6,670.9L1277.5,667.45L1284.5,682.11L1291.4,684.84L1298.3,671.5L1305.2,689.18L1312.2,687.59L1319.1,681.96L1326,689.5L1333,684.71L1339.9,706.42L1346.8,711.91L1353.7,714.2L1360.7,704.31L1367.6,708.38L1374.5,707.5L1381.4,727.3L1388.4,727.92L1395.3,729.62L1402.2,708.94L1409.2,724.68L1416.1,726.91L1423,725.84L1429.9,724.9L1436.9,703.01" style="fill:none;stroke:#F15A60;stroke-width:1.25" />
<path d="M61.3,703.16L61.3,703.16A3.125,3.125 0 1 1 55.05,703.16A3.125,3.125 0 1 1 61.3,703.16Z" style="fill:none;stroke:#F15A60;stroke-width:0.625" />
<path d="M68.228,706.7A3.125,3.125 0 1 1 61.978,706.7A3.125,3.125 0 1 1 68.228,706.7Z" style="fill:none;stroke:#F15A60;stroke-width:0.625" />
<path d="M75.156,709.97A3.125,3.125 0 1 1 68.906,709.97A3.125,3.125 0 1 1 75.156,709.97Z" style="fill:none;stroke:#F15A60;stroke-width:0.625" />
<path d="M82.084,707.15A3.125,3.125 0 1 1 75.834,707.15A3.125,3.125 0 1 1 82.084,707.15Z" style="fill:none;stroke:#F15A60;stroke-width:0.625" />
<path d="M89.013,723.3L89.013,723.3A3.125,3.125 0 1 1 82.763,723.3A3.125,3.125 0 1 1 89.013,723.3Z" style="fill:none;stroke:#F15A60;stroke-width:0.625" />
<path d="M95.941,708.68A3.125,3.125 0 1 1 89.691,708.68A3.125,3.125 0 1 1 95.941,708.68Z" style="fill:none;stroke:#F15A60;stroke-width:0.625" />
<path d="M102.87,714.8L102.87,714.8A3.125,3.125 0 1 1 96.619,714.8A3.125,3.125 0 1 1 102.87,714.8Z" style="fill:none;stroke:#F15A60;stroke-width:0.625" />
<path d="M109.8,717.75A3.125,3.125 0 1 1 103.55,717.75A3.125,3.125 0 1 1 109.8,717.75Z" style="fill:none;stroke:#F15A60;stroke-width:0.625" />
<path d="M116.73,720.56L116.73,720.56A3.125,3.125 0 1 1 110.48,720.56A3.125,3.125 0 1 1 116.73,720.56Z" style="fill:none;stroke:#F15A60;stroke-width:0.625" />
<path d="M123.65,728.91A3.125,3.125 0 1 1 117.4,728.91A3.125,3.125 0 1 1 123.65,728.91Z" style="fill:none;stroke:#F15A60;stroke-width:0.625" />
<path d="M130.58,711.91A3.125,3.125 0 1 1 124.33,711.91A3.125,3.125 0 1 1 130.58,711.91Z" style="fill:none;stroke:#F15A60;stroke-width:0.625" />
<path d="M137.51,727.36A3.125,3.125 0 1 1 131.26,727.36A3.125,3.125 0 1 1 137.51,727.36Z" style="fill:none;stroke:#F15A60;stroke-width:0.625" />
<path d="M144.44,721.29L144.44,721.29A3.125,3.125 0 1 1 138.19,721.29A3.125,3.125 0 1 1 144.44,721.29Z" style="fill:none;stroke:#F15A60;stroke-width:0.625" />
<path d="M151.37,703.81L151.37,703.81A3.125,3.125 0 1 1 145.12,703.81A3.125,3.125 0 1 1 151.37,703.81Z" style="fill:none;stroke:#F15A60;stroke-width:0.625" />
<path d="M158.29,719.84A3.125,3.125 0 1 1 152.04,719.84A3.125,3.125 0 1 1 158.29,719.84Z" style="fill:none;stroke:#F15A60;stroke-width:0.625" />
<path d="M165.22,719.62L165.22,719.62A3.125,3.125 0 1 1 158.97,719.62A3.125,3.125 0 1 1 165.22,719.62Z" style="fill:none;stroke:#F15A60;stroke-width:0.625" />
<path d="M172.15,713.93A3.125,3.125 0 1 1 165.9,713.93A3.125,3.125 0 1 1 172.15,713.93Z" style="fill:none;stroke:#F15A60;stroke-width:0.625" />
<path d="M179.08,695.74A3.125,3.125 0 1 1 172.83,695.74A3.125,3.125 0 1 1 179.08,695.74Z" style="fill:none;stroke:#F15A60;stroke-width:0.625" />
<path d="M186.01,696.1A3.125,3.125 0 1 1 179.76,696.1A3.125,3.125 0 1 1 186.01,696.1Z" style="fill:none;stroke:#F15A60;stroke-width:0.625" />
<path d="M192.93,684.01A3.125,3.125 0 1 1 186.68,684.01A3.125,3.125 0 1 1 192.93,684.01Z" style="fill:none;stroke:#F15A60;stroke-width:0.625" />
<path d="M199.86,697.23L199.86,697.23A3.125,3.125 0 1 1 193.61,697.23A3.125,3.125 0 1 1 199.86,697.23Z" style="fill:none;stroke:#F15A60;stroke-width:0.625" />
<path d="M206.79,680.1L206.79,680.1A3.125,3.125 0 1 1 200.54,680.1A3.125,3.125 0 1 1 206.79,680.1Z" style="fill:none;stroke:#F15A60;stroke-width:0.625" />
<path d="M213.72,693.95A3.125,3.125 0 1 1 207.47,693.95A3.125,3.125 0 1 1 213.72,693.95Z" style="fill:none;stroke:#F15A60;stroke-width:0.625" />
<path d="M220.65,681.73L220.65,681.73A3.125,3.125 0 1 1 214.4,681.73A3.125,3.125 0 1 1 220.65,681.73Z" style="fill:none;stroke:#F15A60;stroke-width:0.625" />
<path d="M227.58,671.94L227.58,671.94A3.125,3.125 0 1 1 221.33,671.94A3.125,3.125 0 1 1 227.58,671.94Z" style="fill:none;stroke:#F15A60;stroke-width:0.625" />
<path d="M234.5,677.8A3.125,3.125 0 1 1 228.25,677.8A3.125,3.125 0 1 1 234.5,677.8Z" style="fill:none;stroke:#F15A60;stroke-width:0.625" />
<path d="M241.43,683.77L241.43,683.77A3.125,3.125 0 1 1 235.18,683.77A3.125,3.125 0 1 1 241.43,683.77Z" style="fill:none;stroke:#F15A60;stroke-width:0.625" />
<path d="M248.36,679.57A3.125,3.125 0 1 1 242.11,679.57A3.125,3.125 0 1 1 248.36,679.57Z" style="fill:none;stroke:#F15A60;stroke-width:0.625" />
<path d="M255.29,680.43A3.125,3.125 0 1 1 249.04,680.43A3.125,3.125 0 1 1 255.29,680.43Z" style="fill:none;stroke:#F15A60;stroke-width:0.625" />
<path d="M262.22,669.42A3.125,3.125 0 1 1 255.97,669.42A3.125,3.125 0 1 1 262.22,669.42Z" style="fill:none;stroke:#F15A60;stroke-width:0.625" />
<path d="M269.14,683.1A3.125,3.125 0 1 1 262.89,683.1A3.125,3.125 0 1 1 269.14,683.1Z" style="fill:none;stroke:#F15A60;stroke-width:0.625" />
<path d="M276.07,683.51A3.125,3.125 0 1 1 269.82,683.51A3.125,3.125 0 1 1 276.07,683.51Z" style="fill:none;stroke:#F15A60;stroke-width:0.625" />
<path d="M283,687.89A3.125,3.125 0 1 1 276.75,687.89A3.125,3.125 0 1 1 283,687.89Z" style="fill:none;stroke:#F15A60;stroke-width:0.625" />
<path d="M289.93,677.81A3.125,3.125 0 1 1 283.68,677.81A3.125,3.125 0 1 1 289.93,677.81Z" style="fill:none;stroke:#F15A60;stroke-width:0.625" />
<path d="M296.86,685.27L296.86,685.27A3.125,3.125 0 1 1 290.61,685.27A3.125,3.125 0 1 1 296.86,685.27Z" style="fill:none;stroke:#F15A60;stroke-width:0.625" />
<path d="M303.78,699.52L303.78,699.52A3.125,3.125 0 1 1 297.53,699.52A3.125,3.125 0 1 1 303.78,699.52Z" style="fill:none;stroke:#F15A60;stroke-width:0.625" />
<path d="M310.71,693.47A3.125,3.125 0 1 1 304.46,693.47A3.125,3.125 0 1 1 310.71,693.47Z" style="fill:none;stroke:#F15A60;stroke-width:0.625" />
<path d="M317.64,686.69A3.125,3.125 0 1 1 311.39,686.69A3.125,3.125 0 1 1 317.64,686.69Z" style="fill:none;stroke:#F15A60;stroke-width:0.625" />
<path d="M324.57,705.35A3.125,3.125 0 1 1 318.32,705.35A3.125,3.125 0 1 1 324.57,705.35Z" style="fill:none;stroke:#F15A60;stroke-width:0.625" />
<path d="M331.5,701.65A3.125,3.125 0 1 1 325.25,701.65A3.125,3.125 0 1 1 331.5,701.65Z" style="fill:none;stroke:#F15A60;stroke-width:0.625" />
<path d="M338.43,720.11A3.125,3.125 0 1 1 332.18,720.11A3.125,3.125 0 1 1 338.43,720.11Z" style="fill:none;stroke:#F15A60;stroke-width:0.625" />
<path d="M345.35,719.52A3.125,3.125 0 1 1 339.1,719.52A3.125,3.125 0 1 1 345.35,719.52Z" style="fill:none;stroke:#F15A60;stroke-width:0.625" />
<path d="M352.28,718.77A3.125,3.125 0 1 1 346.03,718.77A3.125,3.125 0 1 1 352.28,718.77Z" style="fill:none;stroke:#F15A60;stroke-width:0.625" />
<path d="M359.21,718.43A3.125,3.125 0 1 1 352.96,718.43A3.125,3.125 0 1 1 359.21,718.43Z" style="fill:none;stroke:#F15A60;stroke-width:0.625" />
<path d="M366.14,717.5A3.125,3.125 0 1 1 359.89,717.5A3.125,3.125 0 1 1 366.14,717.5Z" style="fill:none;stroke:#F15A60;stroke-width:0.625" />
<path d="M373.07,726.13A3.125,3.125 0 1 1 366.82,726.13A3.125,3.125 0 1 1 373.07,726.13Z" style="fill:none;stroke:#F15A60;stroke-width:0.625" />
<path d="M379.99,723.21A3.125,3.125 0 1 1 373.74,723.21A3.125,3.125 0 1 1 379.99,723.21Z" style="fill:none;stroke:#F15A60;stroke-width:0.625" />
<path d="M386.92,712.06A3.125,3.125 0 1 1 380.67,712.06A3.125,3.125 0 1 1 386.92,712.06Z" style="fill:none;stroke:#F15A60;stroke-width:0.625" />
<path d="M393.85,712.6A3.125,3.125 0 1 1 387.6,712.6A3.125,3.125 0 1 1 393.85,712.6Z" style="fill:none;stroke:#F15A60;stroke-width:0.625" />
<path d="M400.78,724.56A3.125,3.125 0 1 1 394.53,724.56A3.125,3.125 0 1 1 400.78,724.56Z" style="fill:none;stroke:#F15A60;stroke-width:0.625" />
<path d="M407.71,723.62A3.125,3.125 0 1 1 401.46,723.62A3.125,3.125 0 1 1 407.71,723.62Z" style="fill:none;stroke:#F15A60;stroke-width:0.625" />
<path d="M414.64,722.22L414.64,722.22A3.125,3.125 0 1 1 408.39,722.22A3.125,3.125 0 1 1 414.64,722.22Z" style="fill:none;stroke:#F15A60;stroke-width:0.625" />
<path d="M421.56,699.53A3.125,3.125 0 1 1 415.31,699.53A3.125,3.125 0 1 1 421.56,699.53Z" style="fill:none;stroke:#F15A60;stroke-width:0.625" />
<path d="M428.49,693.95A3.125,3.125 0 1 1 422.24,693.95A3.125,3.125 0 1 1 428.49,693.95Z" style="fill:none;stroke:#F15A60;stroke-width:0.625" />
<path d="M435.42,704.08A3.125,3.125 0 1 1 429.17,704.08A3.125,3.125 0 1 1 435.42,704.08Z" style="fill:none;stroke:#F15A60;stroke-width:0.625" />
<path d="M442.35,698.46L442.35,698.46A3.125,3.125 0 1 1 436.1,698.46A3.125,3.125 0 1 1 442.35,698.46Z" style="fill:none;stroke:#F15A60;stroke-width:0.625" />
<path d="M449.28,690.04A3.125,3.125 0 1 1 443.03,690.04A3.125,3.125 0 1 1 449.28,690.04Z" style="fill:none;stroke:#F15A60;stroke-width:0.625" />
<path d="M456.2,694.36A3.125,3.125 0 1 1 449.95,694.36A3.125,3.125 0 1 1 456.2,694.36Z" style="fill:none;stroke:#F15A60;stroke-width:0.625" />
<path d="M463.13,683.77L463.13,683.77A3.125,3.125 0 1 1 456.88,683.77A3.125,3.125 0 1 1 463.13,683.77Z" style="fill:none;stroke:#F15A60;stroke-width:0.625" />
<path d="M470.06,676.71L470.06,676.71A3.125,3.125 0 1 1 463.81,676.71A3.125,3.125 0 1 1 470.06,676.71Z" style="fill:none;stroke:#F15A60;stroke-width:0.625" />
<path d="M476.99,686.88A3.125,3.125 0 1 1 470.74,686.88A3.125,3.125 0 1 1 476.99,686.88Z" style="fill:none;stroke:#F15A60;stroke-width:0.625" />
<path d="M483.92,678.11L483.92,678.11A3.125,3.125 0 1 1 477.67,678.11A3.125,3.125 0 1 1 483.92,678.11Z" style="fill:none;stroke:#F15A60;stroke-width:0.625" />
<path d="M490.84,672.11L490.84,672.11A3.125,3.125 0 1 1 484.59,672.11A3.125,3.125 0 1 1 490.84,672.11Z" style="fill:none;stroke:#F15A60;stroke-width:0.625" />
<path d="M497.77,683.19A3.125,3.125 0 1 1 491.52,683.19A3.125,3.125 0 1 1 497.77,683.19Z" style="fill:none;stroke:#F15A60;stroke-width:0.625" />
<path d="M504.7,674.08A3.125,3.125 0 1 1 498.45,674.08A3.125,3.125 0 1 1 504.7,674.08Z" style="fill:none;stroke:#F15A60;stroke-width:0.625" />
<path d="M511.63,677.49L511.63,677.49A3.125,3.125 0 1 1 505.38,677.49A3.125,3.125 0 1 1 511.63,677.49Z" style="fill:none;stroke:#F15A60;stroke-width:0.625" />
<path d="M518.56,685.69A3.125,3.125 0 1 1 512.31,685.69A3.125,3.125 0 1 1 518.56,685.69Z" style="fill:none;stroke:#F15A60;stroke-width:0.625" />
<path d="M525.49,664.06A3.125,3.125 0 1 1 519.24,664.06A3.125,3.125 0 1 1 525.49,664.06Z" style="fill:none;stroke:#F15A60;stroke-width:0.625" />
<path d="M532.41,686.53A3.125,3.125 0 1 1 526.16,686.53A3.125,3.125 0 1 1 532.41,686.53Z" style="fill:none;stroke:#F15A60;stroke-width:0.625" />
<path d="M539.34,688.56A3.125,3.125 0 1 1 533.09,688.56A3.125,3.125 0 1 1 539.34,688.56Z" style="fill:none;stroke:#F15A60;stroke-width:0.625" />
<path d="M546.27,687.01A3.125,3.125 0 1 1 540.02,687.01A3.125,3.125 0 1 1 546.27,687.01Z" style="fill:none;stroke:#F15A60;stroke-width:0.625" />
<path d="M553.2,689.13L553.2,689.13A3.125,3.125 0 1 1 546.95,689.13A3.125,3.125 0 1 1 553.2,689.13Z" style="fill:none;stroke:#F15A60;stroke-width:0.625" />
<path d="M560.13,680.21A3.125,3.125 0 1 1 553.88,680.21A3.125,3.125 0 1 1 560.13,680.21Z" style="fill:none;stroke:#F15A60;stroke-width:0.625" />
<path d="M567.05,704.82A3.125,3.125 0 1 1 560.8,704.82A3.125,3.125 0 1 1 567.05,704.82Z" style="fill:none;stroke:#F15A60;stroke-width:0.625" />
<path d="M573.98,688.78L573.98,688.78A3.125,3.125 0 1 1 567.73,688.78A3.125,3.125 0 1 1 573.98,688.78Z" style="fill:none;stroke:#F15A60;stroke-width:0.625" />
<path d="M580.91,705.74A3.125,3.125 0 1 1 574.66,705.74A3.125,3.125 0 1 1 580.91,705.74Z" style="fill:none;stroke:#F15A60;stroke-width:0.625" />
<path d="M587.84,706.44A3.125,3.125 0 1 1 581.59,706.44A3.125,3.125 0 1 1 587.84,706.44Z" style="fill:none;stroke:#F15A60;stroke-width:0.625" />
<path d="M594.77,713.78L594.77,713.78A3.125,3.125 0 1 1 588.52,713.78A3.125,3.125 0 1 1 594.77,713.78Z" style="fill:none;stroke:#F15A60;stroke-width:0.625" />
<path d="M601.69,713.68A3.125,3.125 0 1 1 595.44,713.68A3.125,3.125 0 1 1 601.69,713.68Z" style="fill:none;stroke:#F15A60;stroke-width:0.625" />
<path d="M608.62,711.67A3.125,3.125 0 1 1 602.37,711.67A3.125,3.125 0 1 1 608.62,711.67Z" style="fill:none;stroke:#F15A60;stroke-width:0.625" />
<path d="M615.55,711.91A3.125,3.125 0 1 1 609.3,711.91A3.125,3.125 0 1 1 615.55,711.91Z" style="fill:none;stroke:#F15A60;stroke-width:0.625" />
<path d="M622.48,707.99A3.125,3.125 0 1 1 616.23,707.99A3.125,3.125 0 1 1 622.48,707.99Z" style="fill:none;stroke:#F15A60;stroke-width:0.625" />
<path d="M629.41,728.06A3.125,3.125 0 1 1 623.16,728.06A3.125,3.125 0 1 1 629.41,728.06Z" style="fill:none;stroke:#F15A60;stroke-width:0.625" />
<path d="M636.34,710.94A3.125,3.125 0 1 1 630.09,710.94A3.125,3.125 0 1 1 636.34,710.94Z" style="fill:none;stroke:#F15A60;stroke-width:0.625" />
<path d="M643.26,714.45A3.125,3.125 0 1 1 637.01,714.45A3.125,3.125 0 1 1 643.26,714.45Z" style="fill:none;stroke:#F15A60;stroke-width:0.625" />
<path d="M650.19,730.05A3.125,3.125 0 1 1 643.94,730.05A3.125,3.125 0 1 1 650.19,730.05Z" style="fill:none;stroke:#F15A60;stroke-width:0.625" />
<path d="M657.12,723.13A3.125,3.125 0 1 1 650.87,723.13A3.125,3.125 0 1 1 657.12,723.13Z" style="fill:none;stroke:#F15A60;stroke-width:0.625" />
<path d="M664.05,710.81L664.05,710.81A3.125,3.125 0 1 1 657.8,710.81A3.125,3.125 0 1 1 664.05,710.81Z" style="fill:none;stroke:#F15A60;stroke-width:0.625" />
<path d="M670.98,700.18A3.125,3.125 0 1 1 664.73,700.18A3.125,3.125 0 1 1 670.98,700.18Z" style="fill:none;stroke:#F15A60;stroke-width:0.625" />
<path d="M677.9,702.88A3.125,3.125 0 1 1 671.65,702.88A3.125,3.125 0 1 1 677.9,702.88Z" style="fill:none;stroke:#F15A60;stroke-width:0.625" />
<path d="M684.83,706.64A3.125,3.125 0 1 1 678.58,706.64A3.125,3.125 0 1 1 684.83,706.64Z" style="fill:none;stroke:#F15A60;stroke-width:0.625" />
<path d="M691.76,699.99A3.125,3.125 0 1 1 685.51,699.99A3.125,3.125 0 1 1 691.76,699.99Z" style="fill:none;stroke:#F15A60;stroke-width:0.625" />
<path d="M698.69,705.34A3.125,3.125 0 1 1 692.44,705.34A3.125,3.125 0 1 1 698.69,705.34Z" style="fill:none;stroke:#F15A60;stroke-width:0.625" />
<path d="M705.62,694.99A3.125,3.125 0 1 1 699.37,694.99A3.125,3.125 0 1 1 705.62,694.99Z" style="fill:none;stroke:#F15A60;stroke-width:0.625" />
<path d="M712.55,689.47A3.125,3.125 0 1 1 706.3,689.47A3.125,3.125 0 1 1 712.55,689.47Z" style="fill:none;stroke:#F15A60;stroke-width:0.625" />
<path d="M719.47,677.22A3.125,3.125 0 1 1 713.22,677.22A3.125,3.125 0 1 1 719.47,677.22Z" style="fill:none;stroke:#F15A60;stroke-width:0.625" />
<path d="M726.4,683.57L726.4,683.57A3.125,3.125 0 1 1 720.15,683.57A3.125,3.125 0 1 1 726.4,683.57Z" style="fill:none;stroke:#F15A60;stroke-width:0.625" />
<path d="M733.33,673.68A3.125,3.125 0 1 1 727.08,673.68A3.125,3.125 0 1 1 733.33,673.68Z" style="fill:none;stroke:#F15A60;stroke-width:0.625" />
<path d="M740.26,676.03L740.26,676.03A3.125,3.125 0 1 1 734.01,676.03A3.125,3.125 0 1 1 740.26,676.03Z" style="fill:none;stroke:#F15A60;stroke-width:0.625" />
<path d="M747.19,665.09L747.19,665.09A3.125,3.125 0 1 1 740.94,665.09A3.125,3.125 0 1 1 747.19,665.09Z" style="fill:none;stroke:#F15A60;stroke-width:0.625" />
<path d="M754.11,671.46L754.11,671.46A3.125,3.125 0 1 1 747.86,671.46A3.125,3.125 0 1 1 754.11,671.46Z" style="fill:none;stroke:#F15A60;stroke-width:0.625" />
<path d="M761.04,680.69A3.125,3.125 0 1 1 754.79,680.69A3.125,3.125 0 1 1 761.04,680.69Z" style="fill:none;stroke:#F15A60;stroke-width:0.625" />
<path d="M767.97,674.75L767.97,674.75A3.125,3.125 0 1 1 761.72,674.75A3.125,3.125 0 1 1 767.97,674.75Z" style="fill:none;stroke:#F15A60;stroke-width:0.625" />
<path d="M774.9,682.5L774.9,682.5A3.125,3.125 0 1 1 768.65,682.5A3.125,3.125 0 1 1 774.9,682.5Z" style="fill:none;stroke:#F15A60;stroke-width:0.625" />
<path d="M781.83,685.94L781.83,685.94A3.125,3.125 0 1 1 775.58,685.94A3.125,3.125 0 1 1 781.83,685.94Z" style="fill:none;stroke:#F15A60;stroke-width:0.625" />
<path d="M788.75,669.6L788.75,669.6A3.125,3.125 0 1 1 782.5,669.6A3.125,3.125 0 1 1 788.75,669.6Z" style="fill:none;stroke:#F15A60;stroke-width:0.625" />
<path d="M795.68,685.43L795.68,685.43A3.125,3.125 0 1 1 789.43,685.43A3.125,3.125 0 1 1 795.68,685.43Z" style="fill:none;stroke:#F15A60;stroke-width:0.625" />
<path d="M802.61,677.24L802.61,677.24A3.125,3.125 0 1 1 796.36,677.24A3.125,3.125 0 1 1 802.61,677.24Z" style="fill:none;stroke:#F15A60;stroke-width:0.625" />
<path d="M809.54,687.85L809.54,687.85A3.125,3.125 0 1 1 803.29,687.85A3.125,3.125 0 1 1 809.54,687.85Z" style="fill:none;stroke:#F15A60;stroke-width:0.625" />
<path d="M816.47,696.93A3.125,3.125 0 1 1 810.22,696.93A3.125,3.125 0 1 1 816.47,696.93Z" style="fill:none;stroke:#F15A60;stroke-width:0.625" />
<path d="M823.4,700.57A3.125,3.125 0 1 1 817.15,700.57A3.125,3.125 0 1 1 823.4,700.57Z" style="fill:none;stroke:#F15A60;stroke-width:0.625" />
<path d="M830.32,696.83L830.32,696.83A3.125,3.125 0 1 1 824.07,696.83A3.125,3.125 0 1 1 830.32,696.83Z" style="fill:none;stroke:#F15A60;stroke-width:0.625" />
<path d="M837.25,700.89A3.125,3.125 0 1 1 831,700.89A3.125,3.125 0 1 1 837.25,700.89Z" style="fill:none;stroke:#F15A60;stroke-width:0.625" />
<path d="M844.18,712.95A3.125,3.125 0 1 1 837.93,712.95A3.125,3.125 0 1 1 844.18,712.95Z" style="fill:none;stroke:#F15A60;stroke-width:0.625" />
<path d="M851.11,702.25L851.11,702.25A3.125,3.125 0 1 1 844.86,702.25A3.125,3.125 0 1 1 851.11,702.25Z" style="fill:none;stroke:#F15A60;stroke-width:0.625" />
<path d="M858.04,716.65L858.04,716.65A3.125,3.125 0 1 1 851.79,716.65A3.125,3.125 0 1 1 858.04,716.65Z" style="fill:none;stroke:#F15A60;stroke-width:0.625" />
<path d="M864.96,722.96L864.96,722.96A3.125,3.125 0 1 1 858.71,722.96A3.125,3.125 0 1 1 864.96,722.96Z" style="fill:none;stroke:#F15A60;stroke-width:0.625" />
<path d="M871.89,720.81L871.89,720.81A3.125,3.125 0 1 1 865.64,720.81A3.125,3.125 0 1 1 871.89,720.81Z" style="fill:none;stroke:#F15A60;stroke-width:0.625" />
<path d="M878.82,710.51L878.82,710.51A3.125,3.125 0 1 1 872.57,710.51A3.125,3.125 0 1 1 878.82,710.51Z" style="fill:none;stroke:#F15A60;stroke-width:0.625" />
<path d="M885.75,715.08A3.125,3.125 0 1 1 879.5,715.08A3.125,3.125 0 1 1 885.75,715.08Z" style="fill:none;stroke:#F15A60;stroke-width:0.625" />
<path d="M892.68,718.05L892.68,718.05A3.125,3.125 0 1 1 886.43,718.05A3.125,3.125 0 1 1 892.68,718.05Z" style="fill:none;stroke:#F15A60;stroke-width:0.625" />
<path d="M899.61,723.68L899.61,723.68A3.125,3.125 0 1 1 893.36,723.68A3.125,3.125 0 1 1 899.61,723.68Z" style="fill:none;stroke:#F15A60;stroke-width:0.625" />
<path d="M906.53,712.15A3.125,3.125 0 1 1 900.28,712.15A3.125,3.125 0 1 1 906.53,712.15Z" style="fill:none;stroke:#F15A60;stroke-width:0.625" />
<path d="M913.46,725.6L913.46,725.6A3.125,3.125 0 1 1 907.21,725.6A3.125,3.125 0 1 1 913.46,725.6Z" style="fill:none;stroke:#F15A60;stroke-width:0.625" />
<path d="M920.39,722.86L920.39,722.86A3.125,3.125 0 1 1 914.14,722.86A3.125,3.125 0 1 1 920.39,722.86Z" style="fill:none;stroke:#F15A60;stroke-width:0.625" />
<path d="M927.32,708.41L927.32,708.41A3.125,3.125 0 1 1 921.07,708.41A3.125,3.125 0 1 1 927.32,708.41Z" style="fill:none;stroke:#F15A60;stroke-width:0.625" />
<path d="M934.25,696.58A3.125,3.125 0 1 1 928,696.58A3.125,3.125 0 1 1 934.25,696.58Z" style="fill:none;stroke:#F15A60;stroke-width:0.625" />
<path d="M941.17,699.69L941.17,699.69A3.125,3.125 0 1 1 934.92,699.69A3.125,3.125 0 1 1 941.17,699.69Z" style="fill:none;stroke:#F15A60;stroke-width:0.625" />
<path d="M948.1,694.72A3.125,3.125 0 1 1 941.85,694.72A3.125,3.125 0 1 1 948.1,694.72Z" style="fill:none;stroke:#F15A60;stroke-width:0.625" />
<path d="M955.03,684.73L955.03,684.73A3.125,3.125 0 1 1 948.78,684.73A3.125,3.125 0 1 1 955.03,684.73Z" style="fill:none;stroke:#F15A60;stroke-width:0.625" />
<path d="M961.96,694.83L961.96,694.83A3.125,3.125 0 1 1 955.71,694.83A3.125,3.125 0 1 1 961.96,694.83Z" style="fill:none;stroke:#F15A60;stroke-width:0.625" />
<path d="M968.89,698.52L968.89,698.52A3.125,3.125 0 1 1 962.64,698.52A3.125,3.125 0 1 1 968.89,698.52Z" style="fill:none;stroke:#F15A60;stroke-width:0.625" />
<path d="M975.81,692.94A3.125,3.125 0 1 1 969.56,692.94A3.125,3.125 0 1 1 975.81,692.94Z" style="fill:none;stroke:#F15A60;stroke-width:0.625" />
<path d="M982.74,678.07L982.74,678.07A3.125,3.125 0 1 1 976.49,678.07A3.125,3.125 0 1 1 982.74,678.07Z" style="fill:none;stroke:#F15A60;stroke-width:0.625" />
<path d="M989.67,677.46L989.67,677.46A3.125,3.125 0 1 1 983.42,677.46A3.125,3.125 0 1 1 989.67,677.46Z" style="fill:none;stroke:#F15A60;stroke-width:0.625" />
<path d="M996.6,672.04L996.6,672.04A3.125,3.125 0 1 1 990.35,672.04A3.125,3.125 0 1 1 996.6,672.04Z" style="fill:none;stroke:#F15A60;stroke-width:0.625" />
<path d="M1003.5,681.87L1003.5,681.87A3.125,3.125 0 1 1 997.28,681.87A3.125,3.125 0 1 1 1003.5,681.87Z" style="fill:none;stroke:#F15A60;stroke-width:0.625" />
<path d="M1010.5,662.27L1010.5,662.27A3.125,3.125 0 1 1 1004.2,662.27A3.125,3.125 0 1 1 1010.5,662.27Z" style="fill:none;stroke:#F15A60;stroke-width:0.625" />
<path d="M1017.4,666.51L1017.4,666.51A3.125,3.125 0 1 1 1011.1,666.51A3.125,3.125 0 1 1 1017.4,666.51Z" style="fill:none;stroke:#F15A60;stroke-width:0.625" />
<path d="M1024.3,682.41A3.125,3.125 0 1 1 1018.1,682.41A3.125,3.125 0 1 1 1024.3,682.41Z" style="fill:none;stroke:#F15A60;stroke-width:0.625" />
<path d="M1031.2,663.5A3.125,3.125 0 1 1 1025,663.5A3.125,3.125 0 1 1 1031.2,663.5Z" style="fill:none;stroke:#F15A60;stroke-width:0.625" />
<path d="M1038.2,674.23L1038.2,674.23A3.125,3.125 0 1 1 1031.9,674.23A3.125,3.125 0 1 1 1038.2,674.23Z" style="fill:none;stroke:#F15A60;stroke-width:0.625" />
<path d="M1045.1,689.62L1045.1,689.62A3.125,3.125 0 1 1 1038.8,689.62A3.125,3.125 0 1 1 1045.1,689.62Z" style="fill:none;stroke:#F15A60;stroke-width:0.625" />
<path d="M1052,676.22L1052,676.22A3.125,3.125 0 1 1 1045.8,676.22A3.125,3.125 0 1 1 1052,676.22Z" style="fill:none;stroke:#F15A60;stroke-width:0.625" />
<path d="M1059,673.33L1059,673.33A3.125,3.125 0 1 1 1052.7,673.33A3.125,3.125 0 1 1 1059,673.33Z" style="fill:none;stroke:#F15A60;stroke-width:0.625" />
<path d="M1065.9,675.94A3.125,3.125 0 1 1 1059.6,675.94A3.125,3.125 0 1 1 1065.9,675.94Z" style="fill:none;stroke:#F15A60;stroke-width:0.625" />
<path d="M1072.8,699.29A3.125,3.125 0 1 1 1066.6,699.29A3.125,3.125 0 1 1 1072.8,699.29Z" style="fill:none;stroke:#F15A60;stroke-width:0.625" />
<path d="M1079.7,704.44A3.125,3.125 0 1 1 1073.5,704.44A3.125,3.125 0 1 1 1079.7,704.44Z" style="fill:none;stroke:#F15A60;stroke-width:0.625" />
<path d="M1086.7,707.3A3.125,3.125 0 1 1 1080.4,707.3A3.125,3.125 0 1 1 1086.7,707.3Z" style="fill:none;stroke:#F15A60;stroke-width:0.625" />
<path d="M1093.6,698.34A3.125,3.125 0 1 1 1087.3,698.34A3.125,3.125 0 1 1 1093.6,698.34Z" style="fill:none;stroke:#F15A60;stroke-width:0.625" />
<path d="M1100.5,716.54L1100.5,716.54A3.125,3.125 0 1 1 1094.3,716.54A3.125,3.125 0 1 1 1100.5,716.54Z" style="fill:none;stroke:#F15A60;stroke-width:0.625" />
<path d="M1107.4,701.35L1107.4,701.35A3.125,3.125 0 1 1 1101.2,701.35A3.125,3.125 0 1 1 1107.4,701.35Z" style="fill:none;stroke:#F15A60;stroke-width:0.625" />
<path d="M1114.4,719.95L1114.4,719.95A3.125,3.125 0 1 1 1108.1,719.95A3.125,3.125 0 1 1 1114.4,719.95Z" style="fill:none;stroke:#F15A60;stroke-width:0.625" />
<path d="M1121.3,708.46L1121.3,708.46A3.125,3.125 0 1 1 1115.1,708.46A3.125,3.125 0 1 1 1121.3,708.46Z" style="fill:none;stroke:#F15A60;stroke-width:0.625" />
<path d="M1128.2,720.64A3.125,3.125 0 1 1 1122,720.64A3.125,3.125 0 1 1 1128.2,720.64Z" style="fill:none;stroke:#F15A60;stroke-width:0.625" />
<path d="M1135.2,719.22A3.125,3.125 0 1 1 1128.9,719.22A3.125,3.125 0 1 1 1135.2,719.22Z" style="fill:none;stroke:#F15A60;stroke-width:0.625" />
<path d="M1142.1,720.66L1142.1,720.66A3.125,3.125 0 1 1 1135.8,720.66A3.125,3.125 0 1 1 1142.1,720.66Z" style="fill:none;stroke:#F15A60;stroke-width:0.625" />
<path d="M1149,731.91A3.125,3.125 0 1 1 1142.8,731.91A3.125,3.125 0 1 1 1149,731.91Z" style="fill:none;stroke:#F15A60;stroke-width:0.625" />
<path d="M1155.9,728.12A3.125,3.125 0 1 1 1149.7,728.12A3.125,3.125 0 1 1 1155.9,728.12Z" style="fill:none;stroke:#F15A60;stroke-width:0.625" />
<path d="M1162.9,720.11L1162.9,720.11A3.125,3.125 0 1 1 1156.6,720.11A3.125,3.125 0 1 1 1162.9,720.11Z" style="fill:none;stroke:#F15A60;stroke-width:0.625" />
<path d="M1169.8,713.84L1169.8,713.84A3.125,3.125 0 1 1 1163.6,713.84A3.125,3.125 0 1 1 1169.8,713.84Z" style="fill:none;stroke:#F15A60;stroke-width:0.625" />
<path d="M1176.7,723.96A3.125,3.125 0 1 1 1170.5,723.96A3.125,3.125 0 1 1 1176.7,723.96Z" style="fill:none;stroke:#F15A60;stroke-width:0.625" />
<path d="M1183.7,700.92A3.125,3.125 0 1 1 1177.4,700.92A3.125,3.125 0 1 1 1183.7,700.92Z" style="fill:none;stroke:#F15A60;stroke-width:0.625" />
<path d="M1190.6,707.76A3.125,3.125 0 1 1 1184.3,707.76A3.125,3.125 0 1 1 1190.6,707.76Z" style="fill:none;stroke:#F15A60;stroke-width:0.625" />
<path d="M1197.5,700.14A3.125,3.125 0 1 1 1191.3,700.14A3.125,3.125 0 1 1 1197.5,700.14Z" style="fill:none;stroke:#F15A60;stroke-width:0.625" />
<path d="M1204.4,692.59A3.125,3.125 0 1 1 1198.2,692.59A3.125,3.125 0 1 1 1204.4,692.59Z" style="fill:none;stroke:#F15A60;stroke-width:0.625" />
<path d="M1211.4,701.2A3.125,3.125 0 1 1 1205.1,701.2A3.125,3.125 0 1 1 1211.4,701.2Z" style="fill:none;stroke:#F15A60;stroke-width:0.625" />
<path d="M1218.3,701.21L1218.3,701.21A3.125,3.125 0 1 1 1212,701.21A3.125,3.125 0 1 1 1218.3,701.21Z" style="fill:none;stroke:#F15A60;stroke-width:0.625" />
<path d="M1225.2,683.87L1225.2,683.87A3.125,3.125 0 1 1 1219,683.87A3.125,3.125 0 1 1 1225.2,683.87Z" style="fill:none;stroke:#F15A60;stroke-width:0.625" />
<path d="M1232.2,677.92L1232.2,677.92A3.125,3.125 0 1 1 1225.9,677.92A3.125,3.125 0 1 1 1232.2,677.92Z" style="fill:none;stroke:#F15A60;stroke-width:0.625" />
<path d="M1239.1,671.9A3.125,3.125 0 1 1 1232.8,671.9A3.125,3.125 0 1 1 1239.1,671.9Z" style="fill:none;stroke:#F15A60;stroke-width:0.625" />
<path d="M1246,682.8A3.125,3.125 0 1 1 1239.8,682.8A3.125,3.125 0 1 1 1246,682.8Z" style="fill:none;stroke:#F15A60;stroke-width:0.625" />
<path d="M1252.9,676.28A3.125,3.125 0 1 1 1246.7,676.28A3.125,3.125 0 1 1 1252.9,676.28Z" style="fill:none;stroke:#F15A60;stroke-width:0.625" />
<path d="M1259.9,674.38A3.125,3.125 0 1 1 1253.6,674.38A3.125,3.125 0 1 1 1259.9,674.38Z" style="fill:none;stroke:#F15A60;stroke-width:0.625" />
<path d="M1266.8,681.73A3.125,3.125 0 1 1 1260.5,681.73A3.125,3.125 0 1 1 1266.8,681.73Z" style="fill:none;stroke:#F15A60;stroke-width:0.625" />
<path d="M1273.7,670.9A3.125,3.125 0 1 1 1267.5,670.9A3.125,3.125 0 1 1 1273.7,670.9Z" style="fill:none;stroke:#F15A60;stroke-width:0.625" />
<path d="M1280.7,667.45L1280.7,667.45A3.125,3.125 0 1 1 1274.4,667.45A3.125,3.125 0 1 1 1280.7,667.45Z" style="fill:none;stroke:#F15A60;stroke-width:0.625" />
<path d="M1287.6,682.11A3.125,3.125 0 1 1 1281.3,682.11A3.125,3.125 0 1 1 1287.6,682.11Z" style="fill:none;stroke:#F15A60;stroke-width:0.625" />
<path d="M1294.5,684.84A3.125,3.125 0 1 1 1288.3,684.84A3.125,3.125 0 1 1 1294.5,684.84Z" style="fill:none;stroke:#F15A60;stroke-width:0.625" />
<path d="M1301.4,671.5L1301.4,671.5A3.125,3.125 0 1 1 1295.2,671.5A3.125,3.125 0 1 1 1301.4,671.5Z" style="fill:none;stroke:#F15A60;stroke-width:0.625" />
<path d="M1308.4,689.18A3.125,3.125 0 1 1 1302.1,689.18A3.125,3.125 0 1 1 1308.4,689.18Z" style="fill:none;stroke:#F15A60;stroke-width:0.625" />
<path d="M1315.3,687.59A3.125,3.125 0 1 1 1309,687.59A3.125,3.125 0 1 1 1315.3,687.59Z" style="fill:none;stroke:#F15A60;stroke-width:0.625" />
<path d="M1322.2,681.96A3.125,3.125 0 1 1 1316,681.96A3.125,3.125 0 1 1 1322.2,681.96Z" style="fill:none;stroke:#F15A60;stroke-width:0.625" />
<path d="M1329.1,689.5A3.125,3.125 0 1 1 1322.9,689.5A3.125,3.125 0 1 1 1329.1,689.5Z" style="fill:none;stroke:#F15A60;stroke-width:0.625" />
<path d="M1336.1,684.71A3.125,3.125 0 1 1 1329.8,684.71A3.125,3.125 0 1 1 1336.1,684.71Z" style="fill:none;stroke:#F15A60;stroke-width:0.625" />
<path d="M1343,706.42A3.125,3.125 0 1 1 1336.8,706.42A3.125,3.125 0 1 1 1343,706.42Z" style="fill:none;stroke:#F15A60;stroke-width:0.625" />
<path d="M1349.9,711.91A3.125,3.125 0 1 1 1343.7,711.91A3.125,3.125 0 1 1 1349.9,711.91Z" style="fill:none;stroke:#F15A60;stroke-width:0.625" />
<path d="M1356.9,714.2L1356.9,714.2A3.125,3.125 0 1 1 1350.6,714.2A3.125,3.125 0 1 1 1356.9,714.2Z" style="fill:none;stroke:#F15A60;stroke-width:0.625" />
<path d="M1363.8,704.31A3.125,3.125 0 1 1 1357.5,704.31A3.125,3.125 0 1 1 1363.8,704.31Z" style="fill:none;stroke:#F15A60;stroke-width:0.625" />
<path d="M1370.7,708.38A3.125,3.125 0 1 1 1364.5,708.38A3.125,3.125 0 1 1 1370.7,708.38Z" style="fill:none;stroke:#F15A60;stroke-width:0.625" />
<path d="M1377.6,707.5L1377.6,707.5A3.125,3.125 0 1 1 1371.4,707.5A3.125,3.125 0 1 1 1377.6,707.5Z" style="fill:none;stroke:#F15A60;stroke-width:0.625" />
<path d="M1384.6,727.3A3.125,3.125 0 1 1 1378.3,727.3A3.125,3.125 0 1 1 1384.6,727.3Z" style="fill:none;stroke:#F15A60;stroke-width:0.625" />
<path d="M1391.5,727.92L1391.5,727.92A3.125,3.125 0 1 1 1385.3,727.92A3.125,3.125 0 1 1 1391.5,727.92Z" style="fill:none;stroke:#F15A60;stroke-width:0.625" />
<path d="M1398.4,729.62A3.125,3.125 0 1 1 1392.2,729.62A3.125,3.125 0 1 1 1398.4,729.62Z" style="fill:none;stroke:#F15A60;stroke-width:0.625" />
<path d="M1405.4,708.94A3.125,3.125 0 1 1 1399.1,708.94A3.125,3.125 0 1 1 1405.4,708.94Z" style="fill:none;stroke:#F15A60;stroke-width:0.625" />
<path d="M1412.3,724.68L1412.3,724.68A3.125,3.125 0 1 1 1406,724.68A3.125,3.125 0 1 1 1412.3,724.68Z" style="fill:none;stroke:#F15A60;stroke-width:0.625" />
<path d="M1419.2,726.91L1419.2,726.91A3.125,3.125 0 1 1 1413,726.91A3.125,3.125 0 1 1 1419.2,726.91Z" style="fill:none;stroke:#F15A60;stroke-width:0.625" />
<path d="M1426.1,725.84L1426.1,725.84A3.125,3.125 0 1 1 1419.9,725.84A3.125,3.125 0 1 1 1426.1,725.84Z" style="fill:none;stroke:#F15A60;stroke-width:0.625" />
<path d="M1433.1,724.9A3.125,3.125 0 1 1 1426.8,724.9A3.125,3.125 0 1 1 1433.1,724.9Z" style="fill:none;stroke:#F15A60;stroke-width:0.625" />
<path d="M1440,703.01A3.125,3.125 0 1 1 1433.8,703.01A3.125,3.125 0 1 1 1440,703.01Z" style="fill:none;stroke:#F15A60;stroke-width:0.625" />
<path d="M58.175,703.16L65.103,714.93L72.031,719.86L78.959,720.62L85.888,719.18L92.816,716.86L99.744,714.45L106.67,712.35L113.6,720.55L120.53,728.91L127.46,726.42L134.38,722.32L141.31,724.62L148.24,713.57L155.17,711.43L162.1,715.96L169.03,715.61L175.95,707.63L182.88,699.41L189.81,689.5L196.74,691.05L203.67,684.28L210.59,686.73L217.52,682.88L224.45,671.53L231.38,671.98L238.31,674.9L245.23,677.23L252.16,680.31L259.09,680.39L266.02,682.14L272.95,683.04L279.88,686.3L286.8,670.91L293.73,676.32L300.66,683.03L307.59,686.03L314.52,687.35L321.44,700.28L328.37,700.76L335.3,742.2L342.23,754.26L349.16,719.83L356.09,705.17L363.01,712.11L369.94,717.53L376.87,716.67L383.8,728.49L390.73,735.71L397.65,686.33L404.58,685.24L411.51,699.21L418.44,697.56L425.37,694.06L432.29,705.56L439.22,709.01L446.15,698.35L453.08,690.96L460.01,685.98L466.94,680.01L473.86,681.12L480.79,677.03L487.72,667.6L494.65,673.63L501.58,678.29L508.5,670.16L515.43,676.67L522.36,647.11L529.29,662.69L536.22,675.94L543.14,682.24L550.07,685.71L557,681.53L563.93,698.97L570.86,699.52L577.79,722.84L584.71,797.05L591.64,765.46L598.57,731.92L605.5,722.16L612.43,714.25L619.35,730.07L626.28,755.04L633.21,806.88L640.14,772.61L647.07,734.55L654,729.27L660.92,716.64L667.85,714.1L674.78,712.73L681.71,754.78L688.64,736.31L695.56,713.74L702.49,702.21L709.42,692.16L716.35,676.15L723.28,674L730.2,652.6L737.13,652.99L744.06,660.27L750.99,661.24L757.92,669.16L764.85,669.9L771.77,674.38L778.7,682.25L785.63,664.66L792.56,673.61L799.49,673.64L806.41,682.38L813.34,694.01L820.27,718.65L827.2,519.52L834.13,590.48L841.05,649.36L847.98,683.84L854.91,639.35L861.84,679.85L868.77,734.79L875.7,474.47L882.62,625.3L889.55,49.313L896.48,278.88L903.41,429.1L910.34,555.39L917.26,676.87L924.19,579.18L931.12,603.3L938.05,468.32L944.98,562.02L951.91,628.61L958.83,667.3L965.76,687.97L972.69,674.26L979.62,710.44L986.55,778.14L993.47,752.59L1000.4,737.69L1007.3,724.83L1014.3,698.02L1021.2,690.78L1028.1,735.59L1035,794.4L1042,749.23L1048.9,760.67L1055.8,732.29L1062.8,753.12L1069.7,704.4L1076.6,657.68L1083.5,524.8L1090.5,563.23L1097.4,466.32L1104.3,536.71L1111.3,451.49L1118.2,631.11L1125.1,638.29L1132,518.88L1139,532.2L1145.9,418.9L1152.8,466.7L1159.7,435.66L1166.7,450.97L1173.6,533.03L1180.5,567.92L1187.5,595.26L1194.4,602.37L1201.3,638.95L1208.2,614.75L1215.2,594.22L1222.1,641.19L1229,694.29L1236,727.83L1242.9,727.04L1249.8,735.95L1256.7,747.46L1263.7,733.99L1270.6,745.93L1277.5,738.87L1284.5,718.74L1291.4,700.62L1298.3,723.72L1305.2,693.1L1312.2,673.13L1319.1,679.96L1326,673.53L1333,676.81L1339.9,496.24L1346.8,512.46L1353.7,667.13L1360.7,629L1367.6,720.9L1374.5,689.43L1381.4,415.24L1388.4,263.83L1395.3,321.05L1402.2,461.24L1409.2,498.77L1416.1,649.65L1423,704.23L1429.9,551.21L1436.9,518.72" style="fill:none;stroke:#7AC36A;stroke-width:1.25;stroke-dasharray:7.5,2.5" />
<path d="M55.508,700.49L60.842,700.49L60.842,705.83L55.508,705.83Z" style="fill:none;stroke:#7AC36A;stroke-width:0.625" />
<path d="M62.436,712.27L67.77,712.27L67.77,717.6L62.436,717.6Z" style="fill:none;stroke:#7AC36A;stroke-width:0.625" />
<path d="M69.364,717.19L74.699,717.19L74.699,722.53L69.364,722.53Z" style="fill:none;stroke:#7AC36A;stroke-width:0.625" />
<path d="M76.292,717.95L81.627,717.95L81.627,723.28L76.292,723.28Z" style="fill:none;stroke:#7AC36A;stroke-width:0.625" />
<path d="M83.22,716.51L88.555,716.51L88.555,721.85L83.22,721.85Z" style="fill:none;stroke:#7AC36A;stroke-width:0.625" />
<path d="M90.148,714.19L95.483,714.19L95.483,719.53L90.148,719.53Z" style="fill:none;stroke:#7AC36A;stroke-width:0.625" />
<path d="M97.076,711.78L102.41,711.78L102.41,717.12L97.076,717.12Z" style="fill:none;stroke:#7AC36A;stroke-width:0.625" />
<path d="M104,709.69L109.34,709.69L109.34,715.02L104,715.02Z" style="fill:none;stroke:#7AC36A;stroke-width:0.625" />
<path d="M110.93,717.88L116.27,717.88L116.27,723.22L110.93,723.22Z" style="fill:none;stroke:#7AC36A;stroke-width:0.625" />
<path d="M117.86,726.24L123.2,726.24L123.2,731.57L117.86,731.57Z" style="fill:none;stroke:#7AC36A;stroke-width:0.625" />
<path d="M124.79,723.75L130.12,723.75L130.12,729.09L124.79,729.09Z" style="fill:none;stroke:#7AC36A;stroke-width:0.625" />
<path d="M131.72,719.66L137.05,719.66L137.05,724.99L131.72,724.99Z" style="fill:none;stroke:#7AC36A;stroke-width:0.625" />
<path d="M138.65,721.95L143.98,721.95L143.98,727.29L138.65,727.29Z" style="fill:none;stroke:#7AC36A;stroke-width:0.625" />
<path d="M145.57,710.9L150.91,710.9L150.91,716.23L145.57,716.23Z" style="fill:none;stroke:#7AC36A;stroke-width:0.625" />
<path d="M152.5,708.76L157.84,708.76L157.84,714.1L152.5,714.1Z" style="fill:none;stroke:#7AC36A;stroke-width:0.625" />
<path d="M159.43,713.29L164.76,713.29L164.76,718.63L159.43,718.63Z" style="fill:none;stroke:#7AC36A;stroke-width:0.625" />
<path d="M166.36,712.94L171.69,712.94L171.69,718.28L166.36,718.28Z" style="fill:none;stroke:#7AC36A;stroke-width:0.625" />
<path d="M173.29,704.96L178.62,704.96L178.62,710.29L173.29,710.29Z" style="fill:none;stroke:#7AC36A;stroke-width:0.625" />
<path d="M180.21,696.74L185.55,696.74L185.55,702.08L180.21,702.08Z" style="fill:none;stroke:#7AC36A;stroke-width:0.625" />
<path d="M187.14,686.83L192.48,686.83L192.48,692.16L187.14,692.16Z" style="fill:none;stroke:#7AC36A;stroke-width:0.625" />
<path d="M194.07,688.38L199.41,688.38L199.41,693.72L194.07,693.72Z" style="fill:none;stroke:#7AC36A;stroke-width:0.625" />
<path d="M201,681.61L206.33,681.61L206.33,686.95L201,686.95Z" style="fill:none;stroke:#7AC36A;stroke-width:0.625" />
<path d="M207.93,684.06L213.26,684.06L213.26,689.4L207.93,689.4Z" style="fill:none;stroke:#7AC36A;stroke-width:0.625" />
<path d="M214.85,680.21L220.19,680.21L220.19,685.55L214.85,685.55Z" style="fill:none;stroke:#7AC36A;stroke-width:0.625" />
<path d="M221.78,668.86L227.12,668.86L227.12,674.2L221.78,674.2Z" style="fill:none;stroke:#7AC36A;stroke-width:0.625" />
<path d="M228.71,669.32L234.05,669.32L234.05,674.65L228.71,674.65Z" style="fill:none;stroke:#7AC36A;stroke-width:0.625" />
<path d="M235.64,672.23L240.97,672.23L240.97,677.56L235.64,677.56Z" style="fill:none;stroke:#7AC36A;stroke-width:0.625" />
<path d="M242.57,674.56L247.9,674.56L247.9,679.9L242.57,679.9Z" style="fill:none;stroke:#7AC36A;stroke-width:0.625" />
<path d="M249.5,677.65L254.83,677.65L254.83,682.98L249.5,682.98Z" style="fill:none;stroke:#7AC36A;stroke-width:0.625" />
<path d="M256.42,677.72L261.76,677.72L261.76,683.05L256.42,683.05Z" style="fill:none;stroke:#7AC36A;stroke-width:0.625" />
<path d="M263.35,679.48L268.69,679.48L268.69,684.81L263.35,684.81Z" style="fill:none;stroke:#7AC36A;stroke-width:0.625" />
<path d="M270.28,680.37L275.61,680.37L275.61,685.71L270.28,685.71Z" style="fill:none;stroke:#7AC36A;stroke-width:0.625" />
<path d="M277.21,683.63L282.54,683.63L282.54,688.96L277.21,688.96Z" style="fill:none;stroke:#7AC36A;stroke-width:0.625" />
<path d="M284.14,668.24L289.47,668.24L289.47,673.58L284.14,673.58Z" style="fill:none;stroke:#7AC36A;stroke-width:0.625" />
<path d="M291.06,673.65L296.4,673.65L296.4,678.99L291.06,678.99Z" style="fill:none;stroke:#7AC36A;stroke-width:0.625" />
<path d="M297.99,680.36L303.33,680.36L303.33,685.7L297.99,685.7Z" style="fill:none;stroke:#7AC36A;stroke-width:0.625" />
<path d="M304.92,683.36L310.26,683.36L310.26,688.7L304.92,688.7Z" style="fill:none;stroke:#7AC36A;stroke-width:0.625" />
<path d="M311.85,684.69L317.18,684.69L317.18,690.02L311.85,690.02Z" style="fill:none;stroke:#7AC36A;stroke-width:0.625" />
<path d="M318.78,697.61L324.11,697.61L324.11,702.94L318.78,702.94Z" style="fill:none;stroke:#7AC36A;stroke-width:0.625" />
<path d="M325.71,698.1L331.04,698.1L331.04,703.43L325.71,703.43Z" style="fill:none;stroke:#7AC36A;stroke-width:0.625" />
<path d="M332.63,739.53L337.97,739.53L337.97,744.86L332.63,744.86Z" style="fill:none;stroke:#7AC36A;stroke-width:0.625" />
<path d="M339.56,751.59L344.9,751.59L344.9,756.93L339.56,756.93Z" style="fill:none;stroke:#7AC36A;stroke-width:0.625" />
<path d="M346.49,717.17L351.82,717.17L351.82,722.5L346.49,722.5Z" style="fill:none;stroke:#7AC36A;stroke-width:0.625" />
<path d="M353.42,702.5L358.75,702.5L358.75,707.84L353.42,707.84Z" style="fill:none;stroke:#7AC36A;stroke-width:0.625" />
<path d="M360.35,709.44L365.68,709.44L365.68,714.77L360.35,714.77Z" style="fill:none;stroke:#7AC36A;stroke-width:0.625" />
<path d="M367.27,714.87L372.61,714.87L372.61,720.2L367.27,720.2Z" style="fill:none;stroke:#7AC36A;stroke-width:0.625" />
<path d="M374.2,714L379.54,714L379.54,719.33L374.2,719.33Z" style="fill:none;stroke:#7AC36A;stroke-width:0.625" />
<path d="M381.13,725.83L386.46,725.83L386.46,731.16L381.13,731.16Z" style="fill:none;stroke:#7AC36A;stroke-width:0.625" />
<path d="M388.06,733.04L393.39,733.04L393.39,738.38L388.06,738.38Z" style="fill:none;stroke:#7AC36A;stroke-width:0.625" />
<path d="M394.99,683.66L400.32,683.66L400.32,689L394.99,689Z" style="fill:none;stroke:#7AC36A;stroke-width:0.625" />
<path d="M401.91,682.57L407.25,682.57L407.25,687.91L401.91,687.91Z" style="fill:none;stroke:#7AC36A;stroke-width:0.625" />
<path d="M408.84,696.54L414.18,696.54L414.18,701.88L408.84,701.88Z" style="fill:none;stroke:#7AC36A;stroke-width:0.625" />
<path d="M415.77,694.89L421.11,694.89L421.11,700.22L415.77,700.22Z" style="fill:none;stroke:#7AC36A;stroke-width:0.625" />
<path d="M422.7,691.39L428.03,691.39L428.03,696.73L422.7,696.73Z" style="fill:none;stroke:#7AC36A;stroke-width:0.625" />
<path d="M429.63,702.89L434.96,702.89L434.96,708.23L429.63,708.23Z" style="fill:none;stroke:#7AC36A;stroke-width:0.625" />
<path d="M436.56,706.35L441.89,706.35L441.89,711.68L436.56,711.68Z" style="fill:none;stroke:#7AC36A;stroke-width:0.625" />
<path d="M443.48,695.69L448.82,695.69L448.82,701.02L443.48,701.02Z" style="fill:none;stroke:#7AC36A;stroke-width:0.625" />
<path d="M450.41,688.29L455.75,688.29L455.75,693.62L450.41,693.62Z" style="fill:none;stroke:#7AC36A;stroke-width:0.625" />
<path d="M457.34,683.32L462.67,683.32L462.67,688.65L457.34,688.65Z" style="fill:none;stroke:#7AC36A;stroke-width:0.625" />
<path d="M464.27,677.34L469.6,677.34L469.6,682.67L464.27,682.67Z" style="fill:none;stroke:#7AC36A;stroke-width:0.625" />
<path d="M471.2,678.45L476.53,678.45L476.53,683.78L471.2,683.78Z" style="fill:none;stroke:#7AC36A;stroke-width:0.625" />
<path d="M478.12,674.36L483.46,674.36L483.46,679.7L478.12,679.7Z" style="fill:none;stroke:#7AC36A;stroke-width:0.625" />
<path d="M485.05,664.93L490.39,664.93L490.39,670.27L485.05,670.27Z" style="fill:none;stroke:#7AC36A;stroke-width:0.625" />
<path d="M491.98,670.97L497.32,670.97L497.32,676.3L491.98,676.3Z" style="fill:none;stroke:#7AC36A;stroke-width:0.625" />
<path d="M498.91,675.62L504.24,675.62L504.24,680.96L498.91,680.96Z" style="fill:none;stroke:#7AC36A;stroke-width:0.625" />
<path d="M505.84,667.49L511.17,667.49L511.17,672.83L505.84,672.83Z" style="fill:none;stroke:#7AC36A;stroke-width:0.625" />
<path d="M512.76,674L518.1,674L518.1,679.33L512.76,679.33Z" style="fill:none;stroke:#7AC36A;stroke-width:0.625" />
<path d="M519.69,644.44L525.03,644.44L525.03,649.77L519.69,649.77Z" style="fill:none;stroke:#7AC36A;stroke-width:0.625" />
<path d="M526.62,660.03L531.96,660.03L531.96,665.36L526.62,665.36Z" style="fill:none;stroke:#7AC36A;stroke-width:0.625" />
<path d="M533.55,673.28L538.88,673.28L538.88,678.61L533.55,678.61Z" style="fill:none;stroke:#7AC36A;stroke-width:0.625" />
<path d="M540.48,679.57L545.81,679.57L545.81,684.91L540.48,684.91Z" style="fill:none;stroke:#7AC36A;stroke-width:0.625" />
<path d="M547.41,683.04L552.74,683.04L552.74,688.38L547.41,688.38Z" style="fill:none;stroke:#7AC36A;stroke-width:0.625" />
<path d="M554.33,678.86L559.67,678.86L559.67,684.19L554.33,684.19Z" style="fill:none;stroke:#7AC36A;stroke-width:0.625" />
<path d="M561.26,696.3L566.6,696.3L566.6,701.63L561.26,701.63Z" style="fill:none;stroke:#7AC36A;stroke-width:0.625" />
<path d="M568.19,696.85L573.52,696.85L573.52,702.19L568.19,702.19Z" style="fill:none;stroke:#7AC36A;stroke-width:0.625" />
<path d="M575.12,720.18L580.45,720.18L580.45,725.51L575.12,725.51Z" style="fill:none;stroke:#7AC36A;stroke-width:0.625" />
<path d="M582.05,794.38L587.38,794.38L587.38,799.72L582.05,799.72Z" style="fill:none;stroke:#7AC36A;stroke-width:0.625" />
<path d="M588.97,762.79L594.31,762.79L594.31,768.13L588.97,768.13Z" style="fill:none;stroke:#7AC36A;stroke-width:0.625" />
<path d="M595.9,729.25L601.24,729.25L601.24,734.59L595.9,734.59Z" style="fill:none;stroke:#7AC36A;stroke-width:0.625" />
<path d="M602.83,719.5L608.17,719.5L608.17,724.83L602.83,724.83Z" style="fill:none;stroke:#7AC36A;stroke-width:0.625" />
<path d="M609.76,711.59L615.09,711.59L615.09,716.92L609.76,716.92Z" style="fill:none;stroke:#7AC36A;stroke-width:0.625" />
<path d="M616.69,727.41L622.02,727.41L622.02,732.74L616.69,732.74Z" style="fill:none;stroke:#7AC36A;stroke-width:0.625" />
<path d="M623.62,752.37L628.95,752.37L628.95,757.7L623.62,757.7Z" style="fill:none;stroke:#7AC36A;stroke-width:0.625" />
<path d="M630.54,804.21L635.88,804.21L635.88,809.54L630.54,809.54Z" style="fill:none;stroke:#7AC36A;stroke-width:0.625" />
<path d="M637.47,769.94L642.81,769.94L642.81,775.28L637.47,775.28Z" style="fill:none;stroke:#7AC36A;stroke-width:0.625" />
<path d="M644.4,731.88L649.73,731.88L649.73,737.21L644.4,737.21Z" style="fill:none;stroke:#7AC36A;stroke-width:0.625" />
<path d="M651.33,726.6L656.66,726.6L656.66,731.93L651.33,731.93Z" style="fill:none;stroke:#7AC36A;stroke-width:0.625" />
<path d="M658.26,713.97L663.59,713.97L663.59,719.3L658.26,719.3Z" style="fill:none;stroke:#7AC36A;stroke-width:0.625" />
<path d="M665.18,711.43L670.52,711.43L670.52,716.77L665.18,716.77Z" style="fill:none;stroke:#7AC36A;stroke-width:0.625" />
<path d="M672.11,710.06L677.45,710.06L677.45,715.39L672.11,715.39Z" style="fill:none;stroke:#7AC36A;stroke-width:0.625" />
<path d="M679.04,752.12L684.38,752.12L684.38,757.45L679.04,757.45Z" style="fill:none;stroke:#7AC36A;stroke-width:0.625" />
<path d="M685.97,733.65L691.3,733.65L691.3,738.98L685.97,738.98Z" style="fill:none;stroke:#7AC36A;stroke-width:0.625" />
<path d="M692.9,711.07L698.23,711.07L698.23,716.4L692.9,716.4Z" style="fill:none;stroke:#7AC36A;stroke-width:0.625" />
<path d="M699.82,699.54L705.16,699.54L705.16,704.88L699.82,704.88Z" style="fill:none;stroke:#7AC36A;stroke-width:0.625" />
<path d="M706.75,689.49L712.09,689.49L712.09,694.83L706.75,694.83Z" style="fill:none;stroke:#7AC36A;stroke-width:0.625" />
<path d="M713.68,673.49L719.02,673.49L719.02,678.82L713.68,678.82Z" style="fill:none;stroke:#7AC36A;stroke-width:0.625" />
<path d="M720.61,671.33L725.94,671.33L725.94,676.66L720.61,676.66Z" style="fill:none;stroke:#7AC36A;stroke-width:0.625" />
<path d="M727.54,649.94L732.87,649.94L732.87,655.27L727.54,655.27Z" style="fill:none;stroke:#7AC36A;stroke-width:0.625" />
<path d="M734.47,650.32L739.8,650.32L739.8,655.66L734.47,655.66Z" style="fill:none;stroke:#7AC36A;stroke-width:0.625" />
<path d="M741.39,657.6L746.73,657.6L746.73,662.94L741.39,662.94Z" style="fill:none;stroke:#7AC36A;stroke-width:0.625" />
<path d="M748.32,658.57L753.66,658.57L753.66,663.91L748.32,663.91Z" style="fill:none;stroke:#7AC36A;stroke-width:0.625" />
<path d="M755.25,666.49L760.58,666.49L760.58,671.82L755.25,671.82Z" style="fill:none;stroke:#7AC36A;stroke-width:0.625" />
<path d="M762.18,667.24L767.51,667.24L767.51,672.57L762.18,672.57Z" style="fill:none;stroke:#7AC36A;stroke-width:0.625" />
<path d="M769.11,671.72L774.44,671.72L774.44,677.05L769.11,677.05Z" style="fill:none;stroke:#7AC36A;stroke-width:0.625" />
<path d="M776.03,679.59L781.37,679.59L781.37,684.92L776.03,684.92Z" style="fill:none;stroke:#7AC36A;stroke-width:0.625" />
<path d="M782.96,661.99L788.3,661.99L788.3,667.33L782.96,667.33Z" style="fill:none;stroke:#7AC36A;stroke-width:0.625" />
<path d="M789.89,670.95L795.23,670.95L795.23,676.28L789.89,676.28Z" style="fill:none;stroke:#7AC36A;stroke-width:0.625" />
<path d="M796.82,670.97L802.15,670.97L802.15,676.3L796.82,676.3Z" style="fill:none;stroke:#7AC36A;stroke-width:0.625" />
<path d="M803.75,679.71L809.08,679.71L809.08,685.05L803.75,685.05Z" style="fill:none;stroke:#7AC36A;stroke-width:0.625" />
<path d="M810.67,691.34L816.01,691.34L816.01,696.67L810.67,696.67Z" style="fill:none;stroke:#7AC36A;stroke-width:0.625" />
<path d="M817.6,715.99L822.94,715.99L822.94,721.32L817.6,721.32Z" style="fill:none;stroke:#7AC36A;stroke-width:0.625" />
<path d="M824.53,516.85L829.87,516.85L829.87,522.19L824.53,522.19Z" style="fill:none;stroke:#7AC36A;stroke-width:0.625" />
<path d="M831.46,587.81L836.79,587.81L836.79,593.14L831.46,593.14Z" style="fill:none;stroke:#7AC36A;stroke-width:0.625" />
<path d="M838.39,646.69L843.72,646.69L843.72,652.02L838.39,652.02Z" style="fill:none;stroke:#7AC36A;stroke-width:0.625" />
<path d="M845.32,681.17L850.65,681.17L850.65,686.51L845.32,686.51Z" style="fill:none;stroke:#7AC36A;stroke-width:0.625" />
<path d="M852.24,636.69L857.58,636.69L857.58,642.02L852.24,642.02Z" style="fill:none;stroke:#7AC36A;stroke-width:0.625" />
<path d="M859.17,677.18L864.51,677.18L864.51,682.51L859.17,682.51Z" style="fill:none;stroke:#7AC36A;stroke-width:0.625" />
<path d="M866.1,732.13L871.43,732.13L871.43,737.46L866.1,737.46Z" style="fill:none;stroke:#7AC36A;stroke-width:0.625" />
<path d="M873.03,471.8L878.36,471.8L878.36,477.14L873.03,477.14Z" style="fill:none;stroke:#7AC36A;stroke-width:0.625" />
<path d="M879.96,622.63L885.29,622.63L885.29,627.97L879.96,627.97Z" style="fill:none;stroke:#7AC36A;stroke-width:0.625" />
<path d="M886.88,46.645L892.22,46.645L892.22,51.98L886.88,51.98Z" style="fill:none;stroke:#7AC36A;stroke-width:0.625" />
<path d="M893.81,276.21L899.15,276.21L899.15,281.54L893.81,281.54Z" style="fill:none;stroke:#7AC36A;stroke-width:0.625" />
<path d="M900.74,426.43L906.08,426.43L906.08,431.77L900.74,431.77Z" style="fill:none;stroke:#7AC36A;stroke-width:0.625" />
<path d="M907.67,552.72L913,552.72L913,558.06L907.67,558.06Z" style="fill:none;stroke:#7AC36A;stroke-width:0.625" />
<path d="M914.6,674.21L919.93,674.21L919.93,679.54L914.6,679.54Z" style="fill:none;stroke:#7AC36A;stroke-width:0.625" />
<path d="M921.53,576.51L926.86,576.51L926.86,581.85L921.53,581.85Z" style="fill:none;stroke:#7AC36A;stroke-width:0.625" />
<path d="M928.45,600.63L933.79,600.63L933.79,605.96L928.45,605.96Z" style="fill:none;stroke:#7AC36A;stroke-width:0.625" />
<path d="M935.38,465.65L940.72,465.65L940.72,470.99L935.38,470.99Z" style="fill:none;stroke:#7AC36A;stroke-width:0.625" />
<path d="M942.31,559.35L947.64,559.35L947.64,564.69L942.31,564.69Z" style="fill:none;stroke:#7AC36A;stroke-width:0.625" />
<path d="M949.24,625.95L954.57,625.95L954.57,631.28L949.24,631.28Z" style="fill:none;stroke:#7AC36A;stroke-width:0.625" />
<path d="M956.17,664.63L961.5,664.63L961.5,669.96L956.17,669.96Z" style="fill:none;stroke:#7AC36A;stroke-width:0.625" />
<path d="M963.09,685.3L968.43,685.3L968.43,690.64L963.09,690.64Z" style="fill:none;stroke:#7AC36A;stroke-width:0.625" />
<path d="M970.02,671.6L975.36,671.6L975.36,676.93L970.02,676.93Z" style="fill:none;stroke:#7AC36A;stroke-width:0.625" />
<path d="M976.95,707.77L982.29,707.77L982.29,713.11L976.95,713.11Z" style="fill:none;stroke:#7AC36A;stroke-width:0.625" />
<path d="M983.88,775.48L989.21,775.48L989.21,780.81L983.88,780.81Z" style="fill:none;stroke:#7AC36A;stroke-width:0.625" />
<path d="M990.81,749.93L996.14,749.93L996.14,755.26L990.81,755.26Z" style="fill:none;stroke:#7AC36A;stroke-width:0.625" />
<path d="M997.73,735.02L1003.1,735.02L1003.1,740.36L997.73,740.36Z" style="fill:none;stroke:#7AC36A;stroke-width:0.625" />
<path d="M1004.7,722.16L1010,722.16L1010,727.49L1004.7,727.49Z" style="fill:none;stroke:#7AC36A;stroke-width:0.625" />
<path d="M1011.6,695.35L1016.9,695.35L1016.9,700.68L1011.6,700.68Z" style="fill:none;stroke:#7AC36A;stroke-width:0.625" />
<path d="M1018.5,688.11L1023.9,688.11L1023.9,693.45L1018.5,693.45Z" style="fill:none;stroke:#7AC36A;stroke-width:0.625" />
<path d="M1025.4,732.92L1030.8,732.92L1030.8,738.25L1025.4,738.25Z" style="fill:none;stroke:#7AC36A;stroke-width:0.625" />
<path d="M1032.4,791.73L1037.7,791.73L1037.7,797.06L1032.4,797.06Z" style="fill:none;stroke:#7AC36A;stroke-width:0.625" />
<path d="M1039.3,746.56L1044.6,746.56L1044.6,751.9L1039.3,751.9Z" style="fill:none;stroke:#7AC36A;stroke-width:0.625" />
<path d="M1046.2,758L1051.6,758L1051.6,763.33L1046.2,763.33Z" style="fill:none;stroke:#7AC36A;stroke-width:0.625" />
<path d="M1053.2,729.62L1058.5,729.62L1058.5,734.95L1053.2,734.95Z" style="fill:none;stroke:#7AC36A;stroke-width:0.625" />
<path d="M1060.1,750.45L1065.4,750.45L1065.4,755.79L1060.1,755.79Z" style="fill:none;stroke:#7AC36A;stroke-width:0.625" />
<path d="M1067,701.73L1072.4,701.73L1072.4,707.07L1067,707.07Z" style="fill:none;stroke:#7AC36A;stroke-width:0.625" />
<path d="M1073.9,655.01L1079.3,655.01L1079.3,660.35L1073.9,660.35Z" style="fill:none;stroke:#7AC36A;stroke-width:0.625" />
<path d="M1080.9,522.14L1086.2,522.14L1086.2,527.47L1080.9,527.47Z" style="fill:none;stroke:#7AC36A;stroke-width:0.625" />
<path d="M1087.8,560.56L1093.1,560.56L1093.1,565.9L1087.8,565.9Z" style="fill:none;stroke:#7AC36A;stroke-width:0.625" />
<path d="M1094.7,463.65L1100.1,463.65L1100.1,468.99L1094.7,468.99Z" style="fill:none;stroke:#7AC36A;stroke-width:0.625" />
<path d="M1101.7,534.05L1107,534.05L1107,539.38L1101.7,539.38Z" style="fill:none;stroke:#7AC36A;stroke-width:0.625" />
<path d="M1108.6,448.82L1113.9,448.82L1113.9,454.15L1108.6,454.15Z" style="fill:none;stroke:#7AC36A;stroke-width:0.625" />
<path d="M1115.5,628.45L1120.8,628.45L1120.8,633.78L1115.5,633.78Z" style="fill:none;stroke:#7AC36A;stroke-width:0.625" />
<path d="M1122.4,635.62L1127.8,635.62L1127.8,640.95L1122.4,640.95Z" style="fill:none;stroke:#7AC36A;stroke-width:0.625" />
<path d="M1129.4,516.22L1134.7,516.22L1134.7,521.55L1129.4,521.55Z" style="fill:none;stroke:#7AC36A;stroke-width:0.625" />
<path d="M1136.3,529.54L1141.6,529.54L1141.6,534.87L1136.3,534.87Z" style="fill:none;stroke:#7AC36A;stroke-width:0.625" />
<path d="M1143.2,416.23L1148.6,416.23L1148.6,421.56L1143.2,421.56Z" style="fill:none;stroke:#7AC36A;stroke-width:0.625" />
<path d="M1150.2,464.03L1155.5,464.03L1155.5,469.37L1150.2,469.37Z" style="fill:none;stroke:#7AC36A;stroke-width:0.625" />
<path d="M1157.1,433L1162.4,433L1162.4,438.33L1157.1,438.33Z" style="fill:none;stroke:#7AC36A;stroke-width:0.625" />
<path d="M1164,448.3L1169.3,448.3L1169.3,453.63L1164,453.63Z" style="fill:none;stroke:#7AC36A;stroke-width:0.625" />
<path d="M1170.9,530.36L1176.3,530.36L1176.3,535.7L1170.9,535.7Z" style="fill:none;stroke:#7AC36A;stroke-width:0.625" />
<path d="M1177.9,565.25L1183.2,565.25L1183.2,570.58L1177.9,570.58Z" style="fill:none;stroke:#7AC36A;stroke-width:0.625" />
<path d="M1184.8,592.59L1190.1,592.59L1190.1,597.92L1184.8,597.92Z" style="fill:none;stroke:#7AC36A;stroke-width:0.625" />
<path d="M1191.7,599.7L1197.1,599.7L1197.1,605.03L1191.7,605.03Z" style="fill:none;stroke:#7AC36A;stroke-width:0.625" />
<path d="M1198.7,636.28L1204,636.28L1204,641.61L1198.7,641.61Z" style="fill:none;stroke:#7AC36A;stroke-width:0.625" />
<path d="M1205.6,612.09L1210.9,612.09L1210.9,617.42L1205.6,617.42Z" style="fill:none;stroke:#7AC36A;stroke-width:0.625" />
<path d="M1212.5,591.55L1217.8,591.55L1217.8,596.89L1212.5,596.89Z" style="fill:none;stroke:#7AC36A;stroke-width:0.625" />
<path d="M1219.4,638.53L1224.8,638.53L1224.8,643.86L1219.4,643.86Z" style="fill:none;stroke:#7AC36A;stroke-width:0.625" />
<path d="M1226.4,691.62L1231.7,691.62L1231.7,696.95L1226.4,696.95Z" style="fill:none;stroke:#7AC36A;stroke-width:0.625" />
<path d="M1233.3,725.16L1238.6,725.16L1238.6,730.5L1233.3,730.5Z" style="fill:none;stroke:#7AC36A;stroke-width:0.625" />
<path d="M1240.2,724.37L1245.6,724.37L1245.6,729.7L1240.2,729.7Z" style="fill:none;stroke:#7AC36A;stroke-width:0.625" />
<path d="M1247.1,733.28L1252.5,733.28L1252.5,738.62L1247.1,738.62Z" style="fill:none;stroke:#7AC36A;stroke-width:0.625" />
<path d="M1254.1,744.79L1259.4,744.79L1259.4,750.12L1254.1,750.12Z" style="fill:none;stroke:#7AC36A;stroke-width:0.625" />
<path d="M1261,731.33L1266.3,731.33L1266.3,736.66L1261,736.66Z" style="fill:none;stroke:#7AC36A;stroke-width:0.625" />
<path d="M1267.9,743.26L1273.3,743.26L1273.3,748.6L1267.9,748.6Z" style="fill:none;stroke:#7AC36A;stroke-width:0.625" />
<path d="M1274.9,736.2L1280.2,736.2L1280.2,741.53L1274.9,741.53Z" style="fill:none;stroke:#7AC36A;stroke-width:0.625" />
<path d="M1281.8,716.08L1287.1,716.08L1287.1,721.41L1281.8,721.41Z" style="fill:none;stroke:#7AC36A;stroke-width:0.625" />
<path d="M1288.7,697.95L1294.1,697.95L1294.1,703.29L1288.7,703.29Z" style="fill:none;stroke:#7AC36A;stroke-width:0.625" />
<path d="M1295.6,721.05L1301,721.05L1301,726.38L1295.6,726.38Z" style="fill:none;stroke:#7AC36A;stroke-width:0.625" />
<path d="M1302.6,690.44L1307.9,690.44L1307.9,695.77L1302.6,695.77Z" style="fill:none;stroke:#7AC36A;stroke-width:0.625" />
<path d="M1309.5,670.46L1314.8,670.46L1314.8,675.79L1309.5,675.79Z" style="fill:none;stroke:#7AC36A;stroke-width:0.625" />
<path d="M1316.4,677.29L1321.8,677.29L1321.8,682.62L1316.4,682.62Z" style="fill:none;stroke:#7AC36A;stroke-width:0.625" />
<path d="M1323.4,670.86L1328.7,670.86L1328.7,676.19L1323.4,676.19Z" style="fill:none;stroke:#7AC36A;stroke-width:0.625" />
<path d="M1330.3,674.14L1335.6,674.14L1335.6,679.48L1330.3,679.48Z" style="fill:none;stroke:#7AC36A;stroke-width:0.625" />
<path d="M1337.2,493.58L1342.5,493.58L1342.5,498.91L1337.2,498.91Z" style="fill:none;stroke:#7AC36A;stroke-width:0.625" />
<path d="M1344.1,509.79L1349.5,509.79L1349.5,515.12L1344.1,515.12Z" style="fill:none;stroke:#7AC36A;stroke-width:0.625" />
<path d="M1351.1,664.46L1356.4,664.46L1356.4,669.8L1351.1,669.8Z" style="fill:none;stroke:#7AC36A;stroke-width:0.625" />
<path d="M1358,626.33L1363.3,626.33L1363.3,631.67L1358,631.67Z" style="fill:none;stroke:#7AC36A;stroke-width:0.625" />
<path d="M1364.9,718.24L1370.3,718.24L1370.3,723.57L1364.9,723.57Z" style="fill:none;stroke:#7AC36A;stroke-width:0.625" />
<path d="M1371.9,686.76L1377.2,686.76L1377.2,692.09L1371.9,692.09Z" style="fill:none;stroke:#7AC36A;stroke-width:0.625" />
<path d="M1378.8,412.57L1384.1,412.57L1384.1,417.9L1378.8,417.9Z" style="fill:none;stroke:#7AC36A;stroke-width:0.625" />
<path d="M1385.7,261.17L1391,261.17L1391,266.5L1385.7,266.5Z" style="fill:none;stroke:#7AC36A;stroke-width:0.625" />
<path d="M1392.6,318.38L1398,318.38L1398,323.71L1392.6,323.71Z" style="fill:none;stroke:#7AC36A;stroke-width:0.625" />
<path d="M1399.6,458.58L1404.9,458.58L1404.9,463.91L1399.6,463.91Z" style="fill:none;stroke:#7AC36A;stroke-width:0.625" />
<path d="M1406.5,496.1L1411.8,496.1L1411.8,501.44L1406.5,501.44Z" style="fill:none;stroke:#7AC36A;stroke-width:0.625" />
<path d="M1413.4,646.98L1418.8,646.98L1418.8,652.31L1413.4,652.31Z" style="fill:none;stroke:#7AC36A;stroke-width:0.625" />
<path d="M1420.4,701.57L1425.7,701.57L1425.7,706.9L1420.4,706.9Z" style="fill:none;stroke:#7AC36A;stroke-width:0.625" />
<path d="M1427.3,548.54L1432.6,548.54L1432.6,553.88L1427.3,553.88Z" style="fill:none;stroke:#7AC36A;stroke-width:0.625" />
<path d="M1434.2,516.05L1439.5,516.05L1439.5,521.39L1434.2,521.39Z" style="fill:none;stroke:#7AC36A;stroke-width:0.625" />
<path d="M1415,66.978L1440,66.978" style="fill:none;stroke:#F15A60;stroke-width:1.25" />
<path d="M1430.6,66.978A3.125,3.125 0 1 1 1424.4,66.978A3.125,3.125 0 1 1 1430.6,66.978Z" style="fill:none;stroke:#F15A60;stroke-width:0.625" />
<text x="1388.8" y="-61.188" transform="scale(1, -1)"
	style="font-family:Times;font-weight:normal;font-style:normal;font-size:12pt">raw</text>
<path d="M1415,53.117L1440,53.117" style="fill:none;stroke:#7AC36A;stroke-width:1.25;stroke-dasharray:7.5,2.5" />
<path d="M1424.8,50.45L1430.2,50.45L1430.2,55.785L1424.8,55.785Z" style="fill:none;stroke:#7AC36A;stroke-width:0.625" />
<text x="1367.1" y="-47.328" transform="scale(1, -1)"
	style="font-family:Times;font-weight:normal;font-style:normal;font-size:12pt">smooth</text>
</g>
</svg>
