<?xml version="1.0"?>
<!-- Generated by SVGo and Plotinum VG -->
<svg width="16in" height="9in"
	xmlns="http://www.w3.org/2000/svg"
	xmlns:xlink="http://www.w3.org/1999/xlink">
<g transform="scale(1, -1) translate(0, -810)">
<path d="M0,0L1440,0L1440,810L0,810Z" style="fill:#FFFFFF" />
<text x="743.67" y="-5.355" transform="scale(1, -1)"
	style="font-family:Times;font-weight:normal;font-style:normal;font-size:12pt">X</text>
<text x="58.175" y="-19.025" transform="scale(1, -1)"
	style="font-family:Times;font-weight:normal;font-style:normal;font-size:10pt">0</text>
<text x="469.8" y="-19.025" transform="scale(1, -1)"
	style="font-family:Times;font-weight:normal;font-style:normal;font-size:10pt">60</text>
<text x="881.42" y="-19.025" transform="scale(1, -1)"
	style="font-family:Times;font-weight:normal;font-style:normal;font-size:10pt">120</text>
<text x="1296.2" y="-19.025" transform="scale(1, -1)"
	style="font-family:Times;font-weight:normal;font-style:normal;font-size:10pt">180</text>
<path d="M61.3,29.625L61.3,39.625" style="fill:none;stroke:#000000;stroke-width:0.625" />
<path d="M476.05,29.625L476.05,39.625" style="fill:none;stroke:#000000;stroke-width:0.625" />
<path d="M890.79,29.625L890.79,39.625" style="fill:none;stroke:#000000;stroke-width:0.625" />
<path d="M1305.5,29.625L1305.5,39.625" style="fill:none;stroke:#000000;stroke-width:0.625" />
<path d="M199.55,34.625L199.55,39.625" style="fill:none;stroke:#000000;stroke-width:0.625" />
<path d="M337.8,34.625L337.8,39.625" style="fill:none;stroke:#000000;stroke-width:0.625" />
<path d="M614.29,34.625L614.29,39.625" style="fill:none;stroke:#000000;stroke-width:0.625" />
<path d="M752.54,34.625L752.54,39.625" style="fill:none;stroke:#000000;stroke-width:0.625" />
<path d="M1029,34.625L1029,39.625" style="fill:none;stroke:#000000;stroke-width:0.625" />
<path d="M1167.3,34.625L1167.3,39.625" style="fill:none;stroke:#000000;stroke-width:0.625" />
<path d="M61.3,39.625L1436.9,39.625" style="fill:none;stroke:#000000;stroke-width:0.625" />
<g transform="rotate(90)">
<text x="422.68" y="12.72" transform="scale(1, -1)"
	style="font-family:Times;font-weight:normal;font-style:normal;font-size:12pt">Y</text>
</g>
<text x="18.075" y="-86.406" transform="scale(1, -1)"
	style="font-family:Times;font-weight:normal;font-style:normal;font-size:10pt">-0.8</text>
<text x="31.613" y="-291.32" transform="scale(1, -1)"
	style="font-family:Times;font-weight:normal;font-style:normal;font-size:10pt">0</text>
<text x="22.237" y="-496.24" transform="scale(1, -1)"
	style="font-family:Times;font-weight:normal;font-style:normal;font-size:10pt">0.8</text>
<text x="22.237" y="-701.16" transform="scale(1, -1)"
	style="font-family:Times;font-weight:normal;font-style:normal;font-size:10pt">1.6</text>
<path d="M40.987,91.231L50.987,91.231" style="fill:none;stroke:#000000;stroke-width:0.625" />
<path d="M40.987,296.15L50.987,296.15" style="fill:none;stroke:#000000;stroke-width:0.625" />
<path d="M40.987,501.07L50.987,501.07" style="fill:none;stroke:#000000;stroke-width:0.625" />
<path d="M40.987,705.98L50.987,705.98" style="fill:none;stroke:#000000;stroke-width:0.625" />
<path d="M45.987,91.231L50.987,91.231" style="fill:none;stroke:#000000;stroke-width:0.625" />
<path d="M45.987,193.69L50.987,193.69" style="fill:none;stroke:#000000;stroke-width:0.625" />
<path d="M45.987,296.15L50.987,296.15" style="fill:none;stroke:#000000;stroke-width:0.625" />
<path d="M45.987,398.61L50.987,398.61" style="fill:none;stroke:#000000;stroke-width:0.625" />
<path d="M45.987,501.07L50.987,501.07" style="fill:none;stroke:#000000;stroke-width:0.625" />
<path d="M45.987,603.52L50.987,603.52" style="fill:none;stroke:#000000;stroke-width:0.625" />
<path d="M50.987,49.313L50.987,806.88" style="fill:none;stroke:#000000;stroke-width:0.625" />
<path d="M61.3,494.1L68.212,532.59L75.125,568.14L82.037,537.49L88.95,713.2L95.862,554.17L102.77,620.7L109.69,652.78L116.6,683.33L123.51,774.26L130.42,589.3L137.34,757.3L144.25,691.29L151.16,501.11L158.07,675.51L164.99,673.11L171.9,611.3L178.81,413.32L185.72,417.24L192.64,285.81L199.55,429.54L206.46,243.26L213.37,393.94L220.29,260.99L227.2,154.42L234.11,218.18L241.02,283.16L247.94,237.47L254.85,246.82L261.76,127.05L268.67,275.89L275.59,280.34L282.5,328.01L289.41,218.28L296.32,299.47L303.24,454.49L310.15,388.72L317.06,314.97L323.97,517.88L330.89,477.63L337.8,678.43L344.71,672.04L351.62,663.86L358.53,660.23L365.45,650.09L372.36,744L379.27,712.18L386.18,590.91L393.1,596.81L400.01,726.83L406.92,716.69L413.83,701.43L420.75,454.62L427.66,393.95L434.57,504.08L441.48,442.98L448.4,351.39L455.31,398.37L462.22,283.18L469.13,206.34L476.05,316.95L482.96,221.55L489.87,156.3L496.78,276.84L503.7,177.78L510.61,214.79L517.52,304.07L524.43,68.735L531.35,313.18L538.26,335.24L545.17,318.45L552.08,341.42L559,244.48L565.91,512.11L572.82,337.68L579.73,522.19L586.65,529.79L593.56,609.61L600.47,608.52L607.38,586.7L614.29,589.29L621.21,546.61L628.12,764.96L635.03,578.69L641.94,616.87L648.86,786.57L655.77,711.38L662.68,577.31L669.59,461.68L676.51,491L683.42,531.9L690.33,459.63L697.24,517.79L704.16,405.24L711.07,345.11L717.98,211.87L724.89,280.98L731.81,173.37L738.72,198.94L745.63,79.972L752.54,149.25L759.46,249.71L766.37,184.98L773.28,269.34L780.19,306.8L787.11,129.01L794.02,301.18L800.93,212.09L807.84,327.55L814.76,426.32L821.67,465.92L828.58,425.25L835.49,469.42L842.41,600.59L849.32,484.24L856.23,640.89L863.14,709.45L870.06,686.11L876.97,574.03L883.88,623.75L890.79,656.04L897.7,717.32L904.62,591.88L911.53,738.16L918.44,708.34L925.35,551.19L932.27,422.46L939.18,456.36L946.09,402.26L953,293.64L959.92,403.45L966.83,443.58L973.74,382.92L980.65,221.14L987.57,214.48L994.48,155.58L1001.4,262.47L1008.3,49.313L1015.2,95.402L1022.1,268.41L1029,62.602L1036,179.35L1042.9,346.77L1049.8,201.05L1056.7,169.55L1063.6,198.01L1070.5,452.03L1077.4,507.96L1084.3,539.14L1091.3,441.66L1098.2,639.69L1105.1,474.41L1112,676.72L1118.9,551.69L1125.8,684.28L1132.7,668.82L1139.6,684.47L1146.6,806.88L1153.5,765.59L1160.4,678.47L1167.3,610.28L1174.2,720.38L1181.1,469.68L1188,544.08L1194.9,461.26L1201.9,379.12L1208.8,472.73L1215.7,472.92L1222.6,284.21L1229.5,219.47L1236.4,154.05L1243.3,272.6L1250.2,201.72L1257.2,180.97L1264.1,261.01L1271,143.14L1277.9,105.66L1284.8,265.05L1291.7,294.84L1298.6,149.72L1305.5,341.97L1312.5,324.7L1319.4,263.5L1326.3,345.54L1333.2,293.39L1340.1,529.52L1347,589.27L1353.9,614.18L1360.8,506.59L1367.8,550.86L1374.7,541.34L1381.6,756.74L1388.5,763.41L1395.4,781.96L1402.3,556.98L1409.2,728.24L1416.1,752.43L1423.1,740.86L1430,730.59L1436.9,492.51" style="fill:none;stroke:#F15A60;stroke-width:1.25" />
<path d="M64.425,494.1A3.125,3.125 0 1 1 58.175,494.1A3.125,3.125 0 1 1 64.425,494.1Z" style="fill:none;stroke:#F15A60;stroke-width:0.625" />
<path d="M71.337,532.59A3.125,3.125 0 1 1 65.087,532.59A3.125,3.125 0 1 1 71.337,532.59Z" style="fill:none;stroke:#F15A60;stroke-width:0.625" />
<path d="M78.25,568.14A3.125,3.125 0 1 1 72,568.14A3.125,3.125 0 1 1 78.25,568.14Z" style="fill:none;stroke:#F15A60;stroke-width:0.625" />
<path d="M85.162,537.49A3.125,3.125 0 1 1 78.912,537.49A3.125,3.125 0 1 1 85.162,537.49Z" style="fill:none;stroke:#F15A60;stroke-width:0.625" />
<path d="M92.075,713.2A3.125,3.125 0 1 1 85.825,713.2A3.125,3.125 0 1 1 92.075,713.2Z" style="fill:none;stroke:#F15A60;stroke-width:0.625" />
<path d="M98.987,554.17L98.987,554.17A3.125,3.125 0 1 1 92.737,554.17A3.125,3.125 0 1 1 98.987,554.17Z" style="fill:none;stroke:#F15A60;stroke-width:0.625" />
<path d="M105.9,620.7L105.9,620.7A3.125,3.125 0 1 1 99.65,620.7A3.125,3.125 0 1 1 105.9,620.7Z" style="fill:none;stroke:#F15A60;stroke-width:0.625" />
<path d="M112.81,652.78L112.81,652.78A3.125,3.125 0 1 1 106.56,652.78A3.125,3.125 0 1 1 112.81,652.78Z" style="fill:none;stroke:#F15A60;stroke-width:0.625" />
<path d="M119.72,683.33L119.72,683.33A3.125,3.125 0 1 1 113.47,683.33A3.125,3.125 0 1 1 119.72,683.33Z" style="fill:none;stroke:#F15A60;stroke-width:0.625" />
<path d="M126.64,774.26L126.64,774.26A3.125,3.125 0 1 1 120.39,774.26A3.125,3.125 0 1 1 126.64,774.26Z" style="fill:none;stroke:#F15A60;stroke-width:0.625" />
<path d="M133.55,589.3L133.55,589.3A3.125,3.125 0 1 1 127.3,589.3A3.125,3.125 0 1 1 133.55,589.3Z" style="fill:none;stroke:#F15A60;stroke-width:0.625" />
<path d="M140.46,757.3A3.125,3.125 0 1 1 134.21,757.3A3.125,3.125 0 1 1 140.46,757.3Z" style="fill:none;stroke:#F15A60;stroke-width:0.625" />
<path d="M147.37,691.29A3.125,3.125 0 1 1 141.12,691.29A3.125,3.125 0 1 1 147.37,691.29Z" style="fill:none;stroke:#F15A60;stroke-width:0.625" />
<path d="M154.29,501.11A3.125,3.125 0 1 1 148.04,501.11A3.125,3.125 0 1 1 154.29,501.11Z" style="fill:none;stroke:#F15A60;stroke-width:0.625" />
<path d="M161.2,675.51L161.2,675.51A3.125,3.125 0 1 1 154.95,675.51A3.125,3.125 0 1 1 161.2,675.51Z" style="fill:none;stroke:#F15A60;stroke-width:0.625" />
<path d="M168.11,673.11A3.125,3.125 0 1 1 161.86,673.11A3.125,3.125 0 1 1 168.11,673.11Z" style="fill:none;stroke:#F15A60;stroke-width:0.625" />
<path d="M175.02,611.3L175.02,611.3A3.125,3.125 0 1 1 168.77,611.3A3.125,3.125 0 1 1 175.02,611.3Z" style="fill:none;stroke:#F15A60;stroke-width:0.625" />
<path d="M181.94,413.32A3.125,3.125 0 1 1 175.69,413.32A3.125,3.125 0 1 1 181.94,413.32Z" style="fill:none;stroke:#F15A60;stroke-width:0.625" />
<path d="M188.85,417.24A3.125,3.125 0 1 1 182.6,417.24A3.125,3.125 0 1 1 188.85,417.24Z" style="fill:none;stroke:#F15A60;stroke-width:0.625" />
<path d="M195.76,285.81L195.76,285.81A3.125,3.125 0 1 1 189.51,285.81A3.125,3.125 0 1 1 195.76,285.81Z" style="fill:none;stroke:#F15A60;stroke-width:0.625" />
<path d="M202.67,429.54A3.125,3.125 0 1 1 196.42,429.54A3.125,3.125 0 1 1 202.67,429.54Z" style="fill:none;stroke:#F15A60;stroke-width:0.625" />
<path d="M209.59,243.26A3.125,3.125 0 1 1 203.34,243.26A3.125,3.125 0 1 1 209.59,243.26Z" style="fill:none;stroke:#F15A60;stroke-width:0.625" />
<path d="M216.5,393.94A3.125,3.125 0 1 1 210.25,393.94A3.125,3.125 0 1 1 216.5,393.94Z" style="fill:none;stroke:#F15A60;stroke-width:0.625" />
<path d="M223.41,260.99L223.41,260.99A3.125,3.125 0 1 1 217.16,260.99A3.125,3.125 0 1 1 223.41,260.99Z" style="fill:none;stroke:#F15A60;stroke-width:0.625" />
<path d="M230.32,154.42L230.32,154.42A3.125,3.125 0 1 1 224.07,154.42A3.125,3.125 0 1 1 230.32,154.42Z" style="fill:none;stroke:#F15A60;stroke-width:0.625" />
<path d="M237.24,218.18A3.125,3.125 0 1 1 230.99,218.18A3.125,3.125 0 1 1 237.24,218.18Z" style="fill:none;stroke:#F15A60;stroke-width:0.625" />
<path d="M244.15,283.16L244.15,283.16A3.125,3.125 0 1 1 237.9,283.16A3.125,3.125 0 1 1 244.15,283.16Z" style="fill:none;stroke:#F15A60;stroke-width:0.625" />
<path d="M251.06,237.47A3.125,3.125 0 1 1 244.81,237.47A3.125,3.125 0 1 1 251.06,237.47Z" style="fill:none;stroke:#F15A60;stroke-width:0.625" />
<path d="M257.97,246.82A3.125,3.125 0 1 1 251.72,246.82A3.125,3.125 0 1 1 257.97,246.82Z" style="fill:none;stroke:#F15A60;stroke-width:0.625" />
<path d="M264.89,127.05A3.125,3.125 0 1 1 258.64,127.05A3.125,3.125 0 1 1 264.89,127.05Z" style="fill:none;stroke:#F15A60;stroke-width:0.625" />
<path d="M271.8,275.89A3.125,3.125 0 1 1 265.55,275.89A3.125,3.125 0 1 1 271.8,275.89Z" style="fill:none;stroke:#F15A60;stroke-width:0.625" />
<path d="M278.71,280.34A3.125,3.125 0 1 1 272.46,280.34A3.125,3.125 0 1 1 278.71,280.34Z" style="fill:none;stroke:#F15A60;stroke-width:0.625" />
<path d="M285.62,328.01L285.62,328.01A3.125,3.125 0 1 1 279.37,328.01A3.125,3.125 0 1 1 285.62,328.01Z" style="fill:none;stroke:#F15A60;stroke-width:0.625" />
<path d="M292.54,218.28A3.125,3.125 0 1 1 286.29,218.28A3.125,3.125 0 1 1 292.54,218.28Z" style="fill:none;stroke:#F15A60;stroke-width:0.625" />
<path d="M299.45,299.47A3.125,3.125 0 1 1 293.2,299.47A3.125,3.125 0 1 1 299.45,299.47Z" style="fill:none;stroke:#F15A60;stroke-width:0.625" />
<path d="M306.36,454.49A3.125,3.125 0 1 1 300.11,454.49A3.125,3.125 0 1 1 306.36,454.49Z" style="fill:none;stroke:#F15A60;stroke-width:0.625" />
<path d="M313.27,388.72A3.125,3.125 0 1 1 307.02,388.72A3.125,3.125 0 1 1 313.27,388.72Z" style="fill:none;stroke:#F15A60;stroke-width:0.625" />
<path d="M320.19,314.97A3.125,3.125 0 1 1 313.94,314.97A3.125,3.125 0 1 1 320.19,314.97Z" style="fill:none;stroke:#F15A60;stroke-width:0.625" />
<path d="M327.1,517.88L327.1,517.88A3.125,3.125 0 1 1 320.85,517.88A3.125,3.125 0 1 1 327.1,517.88Z" style="fill:none;stroke:#F15A60;stroke-width:0.625" />
<path d="M334.01,477.63L334.01,477.63A3.125,3.125 0 1 1 327.76,477.63A3.125,3.125 0 1 1 334.01,477.63Z" style="fill:none;stroke:#F15A60;stroke-width:0.625" />
<path d="M340.92,678.43A3.125,3.125 0 1 1 334.67,678.43A3.125,3.125 0 1 1 340.92,678.43Z" style="fill:none;stroke:#F15A60;stroke-width:0.625" />
<path d="M347.83,672.04A3.125,3.125 0 1 1 341.58,672.04A3.125,3.125 0 1 1 347.83,672.04Z" style="fill:none;stroke:#F15A60;stroke-width:0.625" />
<path d="M354.75,663.86A3.125,3.125 0 1 1 348.5,663.86A3.125,3.125 0 1 1 354.75,663.86Z" style="fill:none;stroke:#F15A60;stroke-width:0.625" />
<path d="M361.66,660.23L361.66,660.23A3.125,3.125 0 1 1 355.41,660.23A3.125,3.125 0 1 1 361.66,660.23Z" style="fill:none;stroke:#F15A60;stroke-width:0.625" />
<path d="M368.57,650.09A3.125,3.125 0 1 1 362.32,650.09A3.125,3.125 0 1 1 368.57,650.09Z" style="fill:none;stroke:#F15A60;stroke-width:0.625" />
<path d="M375.48,744A3.125,3.125 0 1 1 369.23,744A3.125,3.125 0 1 1 375.48,744Z" style="fill:none;stroke:#F15A60;stroke-width:0.625" />
<path d="M382.4,712.18A3.125,3.125 0 1 1 376.15,712.18A3.125,3.125 0 1 1 382.4,712.18Z" style="fill:none;stroke:#F15A60;stroke-width:0.625" />
<path d="M389.31,590.91A3.125,3.125 0 1 1 383.06,590.91A3.125,3.125 0 1 1 389.31,590.91Z" style="fill:none;stroke:#F15A60;stroke-width:0.625" />
<path d="M396.22,596.81L396.22,596.81A3.125,3.125 0 1 1 389.97,596.81A3.125,3.125 0 1 1 396.22,596.81Z" style="fill:none;stroke:#F15A60;stroke-width:0.625" />
<path d="M403.13,726.83L403.13,726.83A3.125,3.125 0 1 1 396.88,726.83A3.125,3.125 0 1 1 403.13,726.83Z" style="fill:none;stroke:#F15A60;stroke-width:0.625" />
<path d="M410.05,716.69A3.125,3.125 0 1 1 403.8,716.69A3.125,3.125 0 1 1 410.05,716.69Z" style="fill:none;stroke:#F15A60;stroke-width:0.625" />
<path d="M416.96,701.43A3.125,3.125 0 1 1 410.71,701.43A3.125,3.125 0 1 1 416.96,701.43Z" style="fill:none;stroke:#F15A60;stroke-width:0.625" />
<path d="M423.87,454.62L423.87,454.62A3.125,3.125 0 1 1 417.62,454.62A3.125,3.125 0 1 1 423.87,454.62Z" style="fill:none;stroke:#F15A60;stroke-width:0.625" />
<path d="M430.78,393.95A3.125,3.125 0 1 1 424.53,393.95A3.125,3.125 0 1 1 430.78,393.95Z" style="fill:none;stroke:#F15A60;stroke-width:0.625" />
<path d="M437.7,504.08A3.125,3.125 0 1 1 431.45,504.08A3.125,3.125 0 1 1 437.7,504.08Z" style="fill:none;stroke:#F15A60;stroke-width:0.625" />
<path d="M444.61,442.98A3.125,3.125 0 1 1 438.36,442.98A3.125,3.125 0 1 1 444.61,442.98Z" style="fill:none;stroke:#F15A60;stroke-width:0.625" />
<path d="M451.52,351.39A3.125,3.125 0 1 1 445.27,351.39A3.125,3.125 0 1 1 451.52,351.39Z" style="fill:none;stroke:#F15A60;stroke-width:0.625" />
<path d="M458.43,398.37A3.125,3.125 0 1 1 452.18,398.37A3.125,3.125 0 1 1 458.43,398.37Z" style="fill:none;stroke:#F15A60;stroke-width:0.625" />
<path d="M465.35,283.18A3.125,3.125 0 1 1 459.1,283.18A3.125,3.125 0 1 1 465.35,283.18Z" style="fill:none;stroke:#F15A60;stroke-width:0.625" />
<path d="M472.26,206.34A3.125,3.125 0 1 1 466.01,206.34A3.125,3.125 0 1 1 472.26,206.34Z" style="fill:none;stroke:#F15A60;stroke-width:0.625" />
<path d="M479.17,316.95A3.125,3.125 0 1 1 472.92,316.95A3.125,3.125 0 1 1 479.17,316.95Z" style="fill:none;stroke:#F15A60;stroke-width:0.625" />
<path d="M486.08,221.55L486.08,221.55A3.125,3.125 0 1 1 479.83,221.55A3.125,3.125 0 1 1 486.08,221.55Z" style="fill:none;stroke:#F15A60;stroke-width:0.625" />
<path d="M493,156.3L493,156.3A3.125,3.125 0 1 1 486.75,156.3A3.125,3.125 0 1 1 493,156.3Z" style="fill:none;stroke:#F15A60;stroke-width:0.625" />
<path d="M499.91,276.84A3.125,3.125 0 1 1 493.66,276.84A3.125,3.125 0 1 1 499.91,276.84Z" style="fill:none;stroke:#F15A60;stroke-width:0.625" />
<path d="M506.82,177.78A3.125,3.125 0 1 1 500.57,177.78A3.125,3.125 0 1 1 506.82,177.78Z" style="fill:none;stroke:#F15A60;stroke-width:0.625" />
<path d="M513.73,214.79A3.125,3.125 0 1 1 507.48,214.79A3.125,3.125 0 1 1 513.73,214.79Z" style="fill:none;stroke:#F15A60;stroke-width:0.625" />
<path d="M520.65,304.07A3.125,3.125 0 1 1 514.4,304.07A3.125,3.125 0 1 1 520.65,304.07Z" style="fill:none;stroke:#F15A60;stroke-width:0.625" />
<path d="M527.56,68.735A3.125,3.125 0 1 1 521.31,68.735A3.125,3.125 0 1 1 527.56,68.735Z" style="fill:none;stroke:#F15A60;stroke-width:0.625" />
<path d="M534.47,313.18A3.125,3.125 0 1 1 528.22,313.18A3.125,3.125 0 1 1 534.47,313.18Z" style="fill:none;stroke:#F15A60;stroke-width:0.625" />
<path d="M541.38,335.24A3.125,3.125 0 1 1 535.13,335.24A3.125,3.125 0 1 1 541.38,335.24Z" style="fill:none;stroke:#F15A60;stroke-width:0.625" />
<path d="M548.3,318.45A3.125,3.125 0 1 1 542.05,318.45A3.125,3.125 0 1 1 548.3,318.45Z" style="fill:none;stroke:#F15A60;stroke-width:0.625" />
<path d="M555.21,341.42A3.125,3.125 0 1 1 548.96,341.42A3.125,3.125 0 1 1 555.21,341.42Z" style="fill:none;stroke:#F15A60;stroke-width:0.625" />
<path d="M562.12,244.48A3.125,3.125 0 1 1 555.87,244.48A3.125,3.125 0 1 1 562.12,244.48Z" style="fill:none;stroke:#F15A60;stroke-width:0.625" />
<path d="M569.03,512.11A3.125,3.125 0 1 1 562.78,512.11A3.125,3.125 0 1 1 569.03,512.11Z" style="fill:none;stroke:#F15A60;stroke-width:0.625" />
<path d="M575.95,337.68A3.125,3.125 0 1 1 569.7,337.68A3.125,3.125 0 1 1 575.95,337.68Z" style="fill:none;stroke:#F15A60;stroke-width:0.625" />
<path d="M582.86,522.19A3.125,3.125 0 1 1 576.61,522.19A3.125,3.125 0 1 1 582.86,522.19Z" style="fill:none;stroke:#F15A60;stroke-width:0.625" />
<path d="M589.77,529.79A3.125,3.125 0 1 1 583.52,529.79A3.125,3.125 0 1 1 589.77,529.79Z" style="fill:none;stroke:#F15A60;stroke-width:0.625" />
<path d="M596.68,609.61A3.125,3.125 0 1 1 590.43,609.61A3.125,3.125 0 1 1 596.68,609.61Z" style="fill:none;stroke:#F15A60;stroke-width:0.625" />
<path d="M603.6,608.52A3.125,3.125 0 1 1 597.35,608.52A3.125,3.125 0 1 1 603.6,608.52Z" style="fill:none;stroke:#F15A60;stroke-width:0.625" />
<path d="M610.51,586.7L610.51,586.7A3.125,3.125 0 1 1 604.26,586.7A3.125,3.125 0 1 1 610.51,586.7Z" style="fill:none;stroke:#F15A60;stroke-width:0.625" />
<path d="M617.42,589.29A3.125,3.125 0 1 1 611.17,589.29A3.125,3.125 0 1 1 617.42,589.29Z" style="fill:none;stroke:#F15A60;stroke-width:0.625" />
<path d="M624.33,546.61A3.125,3.125 0 1 1 618.08,546.61A3.125,3.125 0 1 1 624.33,546.61Z" style="fill:none;stroke:#F15A60;stroke-width:0.625" />
<path d="M631.24,764.96A3.125,3.125 0 1 1 624.99,764.96A3.125,3.125 0 1 1 631.24,764.96Z" style="fill:none;stroke:#F15A60;stroke-width:0.625" />
<path d="M638.16,578.69A3.125,3.125 0 1 1 631.91,578.69A3.125,3.125 0 1 1 638.16,578.69Z" style="fill:none;stroke:#F15A60;stroke-width:0.625" />
<path d="M645.07,616.87A3.125,3.125 0 1 1 638.82,616.87A3.125,3.125 0 1 1 645.07,616.87Z" style="fill:none;stroke:#F15A60;stroke-width:0.625" />
<path d="M651.98,786.57A3.125,3.125 0 1 1 645.73,786.57A3.125,3.125 0 1 1 651.98,786.57Z" style="fill:none;stroke:#F15A60;stroke-width:0.625" />
<path d="M658.89,711.38A3.125,3.125 0 1 1 652.64,711.38A3.125,3.125 0 1 1 658.89,711.38Z" style="fill:none;stroke:#F15A60;stroke-width:0.625" />
<path d="M665.81,577.31A3.125,3.125 0 1 1 659.56,577.31A3.125,3.125 0 1 1 665.81,577.31Z" style="fill:none;stroke:#F15A60;stroke-width:0.625" />
<path d="M672.72,461.68L672.72,461.68A3.125,3.125 0 1 1 666.47,461.68A3.125,3.125 0 1 1 672.72,461.68Z" style="fill:none;stroke:#F15A60;stroke-width:0.625" />
<path d="M679.63,491L679.63,491A3.125,3.125 0 1 1 673.38,491A3.125,3.125 0 1 1 679.63,491Z" style="fill:none;stroke:#F15A60;stroke-width:0.625" />
<path d="M686.54,531.9A3.125,3.125 0 1 1 680.29,531.9A3.125,3.125 0 1 1 686.54,531.9Z" style="fill:none;stroke:#F15A60;stroke-width:0.625" />
<path d="M693.46,459.63A3.125,3.125 0 1 1 687.21,459.63A3.125,3.125 0 1 1 693.46,459.63Z" style="fill:none;stroke:#F15A60;stroke-width:0.625" />
<path d="M700.37,517.79A3.125,3.125 0 1 1 694.12,517.79A3.125,3.125 0 1 1 700.37,517.79Z" style="fill:none;stroke:#F15A60;stroke-width:0.625" />
<path d="M707.28,405.24A3.125,3.125 0 1 1 701.03,405.24A3.125,3.125 0 1 1 707.28,405.24Z" style="fill:none;stroke:#F15A60;stroke-width:0.625" />
<path d="M714.19,345.11A3.125,3.125 0 1 1 707.94,345.11A3.125,3.125 0 1 1 714.19,345.11Z" style="fill:none;stroke:#F15A60;stroke-width:0.625" />
<path d="M721.11,211.87A3.125,3.125 0 1 1 714.86,211.87A3.125,3.125 0 1 1 721.11,211.87Z" style="fill:none;stroke:#F15A60;stroke-width:0.625" />
<path d="M728.02,280.98L728.02,280.98A3.125,3.125 0 1 1 721.77,280.98A3.125,3.125 0 1 1 728.02,280.98Z" style="fill:none;stroke:#F15A60;stroke-width:0.625" />
<path d="M734.93,173.37L734.93,173.37A3.125,3.125 0 1 1 728.68,173.37A3.125,3.125 0 1 1 734.93,173.37Z" style="fill:none;stroke:#F15A60;stroke-width:0.625" />
<path d="M741.84,198.94A3.125,3.125 0 1 1 735.59,198.94A3.125,3.125 0 1 1 741.84,198.94Z" style="fill:none;stroke:#F15A60;stroke-width:0.625" />
<path d="M748.76,79.972L748.76,79.972A3.125,3.125 0 1 1 742.51,79.972A3.125,3.125 0 1 1 748.76,79.972Z" style="fill:none;stroke:#F15A60;stroke-width:0.625" />
<path d="M755.67,149.25L755.67,149.25A3.125,3.125 0 1 1 749.42,149.25A3.125,3.125 0 1 1 755.67,149.25Z" style="fill:none;stroke:#F15A60;stroke-width:0.625" />
<path d="M762.58,249.71L762.58,249.71A3.125,3.125 0 1 1 756.33,249.71A3.125,3.125 0 1 1 762.58,249.71Z" style="fill:none;stroke:#F15A60;stroke-width:0.625" />
<path d="M769.49,184.98A3.125,3.125 0 1 1 763.24,184.98A3.125,3.125 0 1 1 769.49,184.98Z" style="fill:none;stroke:#F15A60;stroke-width:0.625" />
<path d="M776.41,269.34L776.41,269.34A3.125,3.125 0 1 1 770.16,269.34A3.125,3.125 0 1 1 776.41,269.34Z" style="fill:none;stroke:#F15A60;stroke-width:0.625" />
<path d="M783.32,306.8A3.125,3.125 0 1 1 777.07,306.8A3.125,3.125 0 1 1 783.32,306.8Z" style="fill:none;stroke:#F15A60;stroke-width:0.625" />
<path d="M790.23,129.01L790.23,129.01A3.125,3.125 0 1 1 783.98,129.01A3.125,3.125 0 1 1 790.23,129.01Z" style="fill:none;stroke:#F15A60;stroke-width:0.625" />
<path d="M797.14,301.18A3.125,3.125 0 1 1 790.89,301.18A3.125,3.125 0 1 1 797.14,301.18Z" style="fill:none;stroke:#F15A60;stroke-width:0.625" />
<path d="M804.06,212.09L804.06,212.09A3.125,3.125 0 1 1 797.81,212.09A3.125,3.125 0 1 1 804.06,212.09Z" style="fill:none;stroke:#F15A60;stroke-width:0.625" />
<path d="M810.97,327.55A3.125,3.125 0 1 1 804.72,327.55A3.125,3.125 0 1 1 810.97,327.55Z" style="fill:none;stroke:#F15A60;stroke-width:0.625" />
<path d="M817.88,426.32L817.88,426.32A3.125,3.125 0 1 1 811.63,426.32A3.125,3.125 0 1 1 817.88,426.32Z" style="fill:none;stroke:#F15A60;stroke-width:0.625" />
<path d="M824.79,465.92L824.79,465.92A3.125,3.125 0 1 1 818.54,465.92A3.125,3.125 0 1 1 824.79,465.92Z" style="fill:none;stroke:#F15A60;stroke-width:0.625" />
<path d="M831.71,425.25A3.125,3.125 0 1 1 825.46,425.25A3.125,3.125 0 1 1 831.71,425.25Z" style="fill:none;stroke:#F15A60;stroke-width:0.625" />
<path d="M838.62,469.42A3.125,3.125 0 1 1 832.37,469.42A3.125,3.125 0 1 1 838.62,469.42Z" style="fill:none;stroke:#F15A60;stroke-width:0.625" />
<path d="M845.53,600.59L845.53,600.59A3.125,3.125 0 1 1 839.28,600.59A3.125,3.125 0 1 1 845.53,600.59Z" style="fill:none;stroke:#F15A60;stroke-width:0.625" />
<path d="M852.44,484.24A3.125,3.125 0 1 1 846.19,484.24A3.125,3.125 0 1 1 852.44,484.24Z" style="fill:none;stroke:#F15A60;stroke-width:0.625" />
<path d="M859.36,640.89L859.36,640.89A3.125,3.125 0 1 1 853.11,640.89A3.125,3.125 0 1 1 859.36,640.89Z" style="fill:none;stroke:#F15A60;stroke-width:0.625" />
<path d="M866.27,709.45L866.27,709.45A3.125,3.125 0 1 1 860.02,709.45A3.125,3.125 0 1 1 866.27,709.45Z" style="fill:none;stroke:#F15A60;stroke-width:0.625" />
<path d="M873.18,686.11A3.125,3.125 0 1 1 866.93,686.11A3.125,3.125 0 1 1 873.18,686.11Z" style="fill:none;stroke:#F15A60;stroke-width:0.625" />
<path d="M880.09,574.03L880.09,574.03A3.125,3.125 0 1 1 873.84,574.03A3.125,3.125 0 1 1 880.09,574.03Z" style="fill:none;stroke:#F15A60;stroke-width:0.625" />
<path d="M887.01,623.75L887.01,623.75A3.125,3.125 0 1 1 880.76,623.75A3.125,3.125 0 1 1 887.01,623.75Z" style="fill:none;stroke:#F15A60;stroke-width:0.625" />
<path d="M893.92,656.04L893.92,656.04A3.125,3.125 0 1 1 887.67,656.04A3.125,3.125 0 1 1 893.92,656.04Z" style="fill:none;stroke:#F15A60;stroke-width:0.625" />
<path d="M900.83,717.32A3.125,3.125 0 1 1 894.58,717.32A3.125,3.125 0 1 1 900.83,717.32Z" style="fill:none;stroke:#F15A60;stroke-width:0.625" />
<path d="M907.74,591.88A3.125,3.125 0 1 1 901.49,591.88A3.125,3.125 0 1 1 907.74,591.88Z" style="fill:none;stroke:#F15A60;stroke-width:0.625" />
<path d="M914.65,738.16L914.65,738.16A3.125,3.125 0 1 1 908.4,738.16A3.125,3.125 0 1 1 914.65,738.16Z" style="fill:none;stroke:#F15A60;stroke-width:0.625" />
<path d="M921.57,708.34L921.57,708.34A3.125,3.125 0 1 1 915.32,708.34A3.125,3.125 0 1 1 921.57,708.34Z" style="fill:none;stroke:#F15A60;stroke-width:0.625" />
<path d="M928.48,551.19L928.48,551.19A3.125,3.125 0 1 1 922.23,551.19A3.125,3.125 0 1 1 928.48,551.19Z" style="fill:none;stroke:#F15A60;stroke-width:0.625" />
<path d="M935.39,422.46L935.39,422.46A3.125,3.125 0 1 1 929.14,422.46A3.125,3.125 0 1 1 935.39,422.46Z" style="fill:none;stroke:#F15A60;stroke-width:0.625" />
<path d="M942.3,456.36A3.125,3.125 0 1 1 936.05,456.36A3.125,3.125 0 1 1 942.3,456.36Z" style="fill:none;stroke:#F15A60;stroke-width:0.625" />
<path d="M949.22,402.26L949.22,402.26A3.125,3.125 0 1 1 942.97,402.26A3.125,3.125 0 1 1 949.22,402.26Z" style="fill:none;stroke:#F15A60;stroke-width:0.625" />
<path d="M956.13,293.64L956.13,293.64A3.125,3.125 0 1 1 949.88,293.64A3.125,3.125 0 1 1 956.13,293.64Z" style="fill:none;stroke:#F15A60;stroke-width:0.625" />
<path d="M963.04,403.45L963.04,403.45A3.125,3.125 0 1 1 956.79,403.45A3.125,3.125 0 1 1 963.04,403.45Z" style="fill:none;stroke:#F15A60;stroke-width:0.625" />
<path d="M969.95,443.58A3.125,3.125 0 1 1 963.7,443.58A3.125,3.125 0 1 1 969.95,443.58Z" style="fill:none;stroke:#F15A60;stroke-width:0.625" />
<path d="M976.87,382.92L976.87,382.92A3.125,3.125 0 1 1 970.62,382.92A3.125,3.125 0 1 1 976.87,382.92Z" style="fill:none;stroke:#F15A60;stroke-width:0.625" />
<path d="M983.78,221.14L983.78,221.14A3.125,3.125 0 1 1 977.53,221.14A3.125,3.125 0 1 1 983.78,221.14Z" style="fill:none;stroke:#F15A60;stroke-width:0.625" />
<path d="M990.69,214.48L990.69,214.48A3.125,3.125 0 1 1 984.44,214.48A3.125,3.125 0 1 1 990.69,214.48Z" style="fill:none;stroke:#F15A60;stroke-width:0.625" />
<path d="M997.6,155.58L997.6,155.58A3.125,3.125 0 1 1 991.35,155.58A3.125,3.125 0 1 1 997.6,155.58Z" style="fill:none;stroke:#F15A60;stroke-width:0.625" />
<path d="M1004.5,262.47L1004.5,262.47A3.125,3.125 0 1 1 998.27,262.47A3.125,3.125 0 1 1 1004.5,262.47Z" style="fill:none;stroke:#F15A60;stroke-width:0.625" />
<path d="M1011.4,49.313L1011.4,49.313A3.125,3.125 0 1 1 1005.2,49.313A3.125,3.125 0 1 1 1011.4,49.313Z" style="fill:none;stroke:#F15A60;stroke-width:0.625" />
<path d="M1018.3,95.402L1018.3,95.402A3.125,3.125 0 1 1 1012.1,95.402A3.125,3.125 0 1 1 1018.3,95.402Z" style="fill:none;stroke:#F15A60;stroke-width:0.625" />
<path d="M1025.3,268.41A3.125,3.125 0 1 1 1019,268.41A3.125,3.125 0 1 1 1025.3,268.41Z" style="fill:none;stroke:#F15A60;stroke-width:0.625" />
<path d="M1032.2,62.602L1032.2,62.602A3.125,3.125 0 1 1 1025.9,62.602A3.125,3.125 0 1 1 1032.2,62.602Z" style="fill:none;stroke:#F15A60;stroke-width:0.625" />
<path d="M1039.1,179.35A3.125,3.125 0 1 1 1032.8,179.35A3.125,3.125 0 1 1 1039.1,179.35Z" style="fill:none;stroke:#F15A60;stroke-width:0.625" />
<path d="M1046,346.77A3.125,3.125 0 1 1 1039.7,346.77A3.125,3.125 0 1 1 1046,346.77Z" style="fill:none;stroke:#F15A60;stroke-width:0.625" />
<path d="M1052.9,201.05L1052.9,201.05A3.125,3.125 0 1 1 1046.7,201.05A3.125,3.125 0 1 1 1052.9,201.05Z" style="fill:none;stroke:#F15A60;stroke-width:0.625" />
<path d="M1059.8,169.55A3.125,3.125 0 1 1 1053.6,169.55A3.125,3.125 0 1 1 1059.8,169.55Z" style="fill:none;stroke:#F15A60;stroke-width:0.625" />
<path d="M1066.7,198.01L1066.7,198.01A3.125,3.125 0 1 1 1060.5,198.01A3.125,3.125 0 1 1 1066.7,198.01Z" style="fill:none;stroke:#F15A60;stroke-width:0.625" />
<path d="M1073.6,452.03A3.125,3.125 0 1 1 1067.4,452.03A3.125,3.125 0 1 1 1073.6,452.03Z" style="fill:none;stroke:#F15A60;stroke-width:0.625" />
<path d="M1080.6,507.96A3.125,3.125 0 1 1 1074.3,507.96A3.125,3.125 0 1 1 1080.6,507.96Z" style="fill:none;stroke:#F15A60;stroke-width:0.625" />
<path d="M1087.5,539.14A3.125,3.125 0 1 1 1081.2,539.14A3.125,3.125 0 1 1 1087.5,539.14Z" style="fill:none;stroke:#F15A60;stroke-width:0.625" />
<path d="M1094.4,441.66A3.125,3.125 0 1 1 1088.1,441.66A3.125,3.125 0 1 1 1094.4,441.66Z" style="fill:none;stroke:#F15A60;stroke-width:0.625" />
<path d="M1101.3,639.69A3.125,3.125 0 1 1 1095,639.69A3.125,3.125 0 1 1 1101.3,639.69Z" style="fill:none;stroke:#F15A60;stroke-width:0.625" />
<path d="M1108.2,474.41L1108.2,474.41A3.125,3.125 0 1 1 1102,474.41A3.125,3.125 0 1 1 1108.2,474.41Z" style="fill:none;stroke:#F15A60;stroke-width:0.625" />
<path d="M1115.1,676.72A3.125,3.125 0 1 1 1108.9,676.72A3.125,3.125 0 1 1 1115.1,676.72Z" style="fill:none;stroke:#F15A60;stroke-width:0.625" />
<path d="M1122,551.69A3.125,3.125 0 1 1 1115.8,551.69A3.125,3.125 0 1 1 1122,551.69Z" style="fill:none;stroke:#F15A60;stroke-width:0.625" />
<path d="M1128.9,684.28A3.125,3.125 0 1 1 1122.7,684.28A3.125,3.125 0 1 1 1128.9,684.28Z" style="fill:none;stroke:#F15A60;stroke-width:0.625" />
<path d="M1135.9,668.82L1135.9,668.82A3.125,3.125 0 1 1 1129.6,668.82A3.125,3.125 0 1 1 1135.9,668.82Z" style="fill:none;stroke:#F15A60;stroke-width:0.625" />
<path d="M1142.8,684.47A3.125,3.125 0 1 1 1136.5,684.47A3.125,3.125 0 1 1 1142.8,684.47Z" style="fill:none;stroke:#F15A60;stroke-width:0.625" />
<path d="M1149.7,806.88A3.125,3.125 0 1 1 1143.4,806.88A3.125,3.125 0 1 1 1149.7,806.88Z" style="fill:none;stroke:#F15A60;stroke-width:0.625" />
<path d="M1156.6,765.59A3.125,3.125 0 1 1 1150.3,765.59A3.125,3.125 0 1 1 1156.6,765.59Z" style="fill:none;stroke:#F15A60;stroke-width:0.625" />
<path d="M1163.5,678.47L1163.5,678.47A3.125,3.125 0 1 1 1157.3,678.47A3.125,3.125 0 1 1 1163.5,678.47Z" style="fill:none;stroke:#F15A60;stroke-width:0.625" />
<path d="M1170.4,610.28A3.125,3.125 0 1 1 1164.2,610.28A3.125,3.125 0 1 1 1170.4,610.28Z" style="fill:none;stroke:#F15A60;stroke-width:0.625" />
<path d="M1177.3,720.38A3.125,3.125 0 1 1 1171.1,720.38A3.125,3.125 0 1 1 1177.3,720.38Z" style="fill:none;stroke:#F15A60;stroke-width:0.625" />
<path d="M1184.2,469.68L1184.2,469.68A3.125,3.125 0 1 1 1178,469.68A3.125,3.125 0 1 1 1184.2,469.68Z" style="fill:none;stroke:#F15A60;stroke-width:0.625" />
<path d="M1191.2,544.08L1191.2,544.08A3.125,3.125 0 1 1 1184.9,544.08A3.125,3.125 0 1 1 1191.2,544.08Z" style="fill:none;stroke:#F15A60;stroke-width:0.625" />
<path d="M1198.1,461.26L1198.1,461.26A3.125,3.125 0 1 1 1191.8,461.26A3.125,3.125 0 1 1 1198.1,461.26Z" style="fill:none;stroke:#F15A60;stroke-width:0.625" />
<path d="M1205,379.12A3.125,3.125 0 1 1 1198.7,379.12A3.125,3.125 0 1 1 1205,379.12Z" style="fill:none;stroke:#F15A60;stroke-width:0.625" />
<path d="M1211.9,472.73A3.125,3.125 0 1 1 1205.6,472.73A3.125,3.125 0 1 1 1211.9,472.73Z" style="fill:none;stroke:#F15A60;stroke-width:0.625" />
<path d="M1218.8,472.92A3.125,3.125 0 1 1 1212.6,472.92A3.125,3.125 0 1 1 1218.8,472.92Z" style="fill:none;stroke:#F15A60;stroke-width:0.625" />
<path d="M1225.7,284.21A3.125,3.125 0 1 1 1219.5,284.21A3.125,3.125 0 1 1 1225.7,284.21Z" style="fill:none;stroke:#F15A60;stroke-width:0.625" />
<path d="M1232.6,219.47A3.125,3.125 0 1 1 1226.4,219.47A3.125,3.125 0 1 1 1232.6,219.47Z" style="fill:none;stroke:#F15A60;stroke-width:0.625" />
<path d="M1239.5,154.05A3.125,3.125 0 1 1 1233.3,154.05A3.125,3.125 0 1 1 1239.5,154.05Z" style="fill:none;stroke:#F15A60;stroke-width:0.625" />
<path d="M1246.5,272.6A3.125,3.125 0 1 1 1240.2,272.6A3.125,3.125 0 1 1 1246.5,272.6Z" style="fill:none;stroke:#F15A60;stroke-width:0.625" />
<path d="M1253.4,201.72A3.125,3.125 0 1 1 1247.1,201.72A3.125,3.125 0 1 1 1253.4,201.72Z" style="fill:none;stroke:#F15A60;stroke-width:0.625" />
<path d="M1260.3,180.97L1260.3,180.97A3.125,3.125 0 1 1 1254,180.97A3.125,3.125 0 1 1 1260.3,180.97Z" style="fill:none;stroke:#F15A60;stroke-width:0.625" />
<path d="M1267.2,261.01L1267.2,261.01A3.125,3.125 0 1 1 1260.9,261.01A3.125,3.125 0 1 1 1267.2,261.01Z" style="fill:none;stroke:#F15A60;stroke-width:0.625" />
<path d="M1274.1,143.14L1274.1,143.14A3.125,3.125 0 1 1 1267.9,143.14A3.125,3.125 0 1 1 1274.1,143.14Z" style="fill:none;stroke:#F15A60;stroke-width:0.625" />
<path d="M1281,105.66A3.125,3.125 0 1 1 1274.8,105.66A3.125,3.125 0 1 1 1281,105.66Z" style="fill:none;stroke:#F15A60;stroke-width:0.625" />
<path d="M1287.9,265.05A3.125,3.125 0 1 1 1281.7,265.05A3.125,3.125 0 1 1 1287.9,265.05Z" style="fill:none;stroke:#F15A60;stroke-width:0.625" />
<path d="M1294.8,294.84L1294.8,294.84A3.125,3.125 0 1 1 1288.6,294.84A3.125,3.125 0 1 1 1294.8,294.84Z" style="fill:none;stroke:#F15A60;stroke-width:0.625" />
<path d="M1301.8,149.72A3.125,3.125 0 1 1 1295.5,149.72A3.125,3.125 0 1 1 1301.8,149.72Z" style="fill:none;stroke:#F15A60;stroke-width:0.625" />
<path d="M1308.7,341.97A3.125,3.125 0 1 1 1302.4,341.97A3.125,3.125 0 1 1 1308.7,341.97Z" style="fill:none;stroke:#F15A60;stroke-width:0.625" />
<path d="M1315.6,324.7L1315.6,324.7A3.125,3.125 0 1 1 1309.3,324.7A3.125,3.125 0 1 1 1315.6,324.7Z" style="fill:none;stroke:#F15A60;stroke-width:0.625" />
<path d="M1322.5,263.5L1322.5,263.5A3.125,3.125 0 1 1 1316.2,263.5A3.125,3.125 0 1 1 1322.5,263.5Z" style="fill:none;stroke:#F15A60;stroke-width:0.625" />
<path d="M1329.4,345.54A3.125,3.125 0 1 1 1323.2,345.54A3.125,3.125 0 1 1 1329.4,345.54Z" style="fill:none;stroke:#F15A60;stroke-width:0.625" />
<path d="M1336.3,293.39A3.125,3.125 0 1 1 1330.1,293.39A3.125,3.125 0 1 1 1336.3,293.39Z" style="fill:none;stroke:#F15A60;stroke-width:0.625" />
<path d="M1343.2,529.52L1343.2,529.52A3.125,3.125 0 1 1 1337,529.52A3.125,3.125 0 1 1 1343.2,529.52Z" style="fill:none;stroke:#F15A60;stroke-width:0.625" />
<path d="M1350.1,589.27A3.125,3.125 0 1 1 1343.9,589.27A3.125,3.125 0 1 1 1350.1,589.27Z" style="fill:none;stroke:#F15A60;stroke-width:0.625" />
<path d="M1357.1,614.18A3.125,3.125 0 1 1 1350.8,614.18A3.125,3.125 0 1 1 1357.1,614.18Z" style="fill:none;stroke:#F15A60;stroke-width:0.625" />
<path d="M1364,506.59L1364,506.59A3.125,3.125 0 1 1 1357.7,506.59A3.125,3.125 0 1 1 1364,506.59Z" style="fill:none;stroke:#F15A60;stroke-width:0.625" />
<path d="M1370.9,550.86A3.125,3.125 0 1 1 1364.6,550.86A3.125,3.125 0 1 1 1370.9,550.86Z" style="fill:none;stroke:#F15A60;stroke-width:0.625" />
<path d="M1377.8,541.34A3.125,3.125 0 1 1 1371.5,541.34A3.125,3.125 0 1 1 1377.8,541.34Z" style="fill:none;stroke:#F15A60;stroke-width:0.625" />
<path d="M1384.7,756.74A3.125,3.125 0 1 1 1378.5,756.74A3.125,3.125 0 1 1 1384.7,756.74Z" style="fill:none;stroke:#F15A60;stroke-width:0.625" />
<path d="M1391.6,763.41A3.125,3.125 0 1 1 1385.4,763.41A3.125,3.125 0 1 1 1391.6,763.41Z" style="fill:none;stroke:#F15A60;stroke-width:0.625" />
<path d="M1398.5,781.96L1398.5,781.96A3.125,3.125 0 1 1 1392.3,781.96A3.125,3.125 0 1 1 1398.5,781.96Z" style="fill:none;stroke:#F15A60;stroke-width:0.625" />
<path d="M1405.4,556.98L1405.4,556.98A3.125,3.125 0 1 1 1399.2,556.98A3.125,3.125 0 1 1 1405.4,556.98Z" style="fill:none;stroke:#F15A60;stroke-width:0.625" />
<path d="M1412.4,728.24A3.125,3.125 0 1 1 1406.1,728.24A3.125,3.125 0 1 1 1412.4,728.24Z" style="fill:none;stroke:#F15A60;stroke-width:0.625" />
<path d="M1419.3,752.43A3.125,3.125 0 1 1 1413,752.43A3.125,3.125 0 1 1 1419.3,752.43Z" style="fill:none;stroke:#F15A60;stroke-width:0.625" />
<path d="M1426.2,740.86L1426.2,740.86A3.125,3.125 0 1 1 1419.9,740.86A3.125,3.125 0 1 1 1426.2,740.86Z" style="fill:none;stroke:#F15A60;stroke-width:0.625" />
<path d="M1433.1,730.59A3.125,3.125 0 1 1 1426.8,730.59A3.125,3.125 0 1 1 1433.1,730.59Z" style="fill:none;stroke:#F15A60;stroke-width:0.625" />
<path d="M1440,492.51A3.125,3.125 0 1 1 1433.8,492.51A3.125,3.125 0 1 1 1440,492.51Z" style="fill:none;stroke:#F15A60;stroke-width:0.625" />
<path d="M61.3,703.82L68.212,695.5L75.125,723.56L82.037,732.03L88.95,693.88L95.862,700.26L102.77,703.07L109.69,690.66L116.6,634.75L123.51,586.46L130.42,517.53L137.34,488.53L144.25,425.81L151.16,408.19L158.07,363.34L164.99,304.87L171.9,273.71L178.81,267.01L185.72,253.27L192.64,246.14L199.55,213.03L206.46,220.97L213.37,229.1L220.29,250.8L227.2,246.12L234.11,258.13L241.02,302.97L247.94,328.74L254.85,334.13L261.76,383.47L268.67,413.99L275.59,484.64L282.5,543.91L289.41,592.73L296.32,629.59L303.24,655.15L310.15,696.96L317.06,722.72L323.97,711.27L330.89,699.31L337.8,713.64L344.71,724.47L351.62,730.75L358.53,680.56L365.45,621.86L372.36,594.34L379.27,559.08L386.18,509.93L393.1,477.34L400.01,423.8L406.92,364.06L413.83,341.97L420.75,308.02L427.66,265.22L434.57,255.48L441.48,229.13L448.4,217.74L455.31,229.85L462.22,191.37L469.13,213.26L476.05,237.43L482.96,257.37L489.87,280.06L496.78,276.3L503.7,333.57L510.61,343.24L517.52,391.35L524.43,435.71L531.35,486.51L538.26,529.65L545.17,561.05L552.08,586.33L559,595.81L565.91,646.86L572.82,649.68L579.73,655.07L586.65,696.27L593.56,714.14L600.47,699.29L607.38,659.21L614.29,628.85L621.21,610.15L628.12,575.56L635.03,561.69L641.94,524.01L648.86,478.1L655.77,413.25L662.68,376.43L669.59,322.81L676.51,282.15L683.42,222.02L690.33,188.78L697.24,185.9L704.16,175.16L711.07,188.9L717.98,212.97L724.89,194.67L731.81,218.9L738.72,219.89L745.63,246.53L752.54,289.21L759.46,333.86L766.37,363.97L773.28,398L780.19,456.54L787.11,481.56L794.02,532.95L800.93,591.27L807.84,631.9L814.76,638.35L821.67,652.3L828.58,669.56L835.49,694.85L842.41,685.71L849.32,709.71L856.23,720.64L863.14,694.53L870.06,643.42L876.97,606.52L883.88,560.39L890.79,495.36L897.7,464.09L904.62,449.7L911.53,425.37L918.44,373.53L925.35,332.36L932.27,286.36L939.18,271.08L946.09,212.69L953,173.49L959.92,178.17L966.83,139.93L973.74,137.47L980.65,177.77L987.57,182.15L994.48,179.78L1001.4,183.46L1008.3,245.9L1015.2,310.86L1022.1,372.52L1029,405.49L1036,473.53L1042.9,492.88L1049.8,554.55L1056.7,576.2L1063.6,618.13L1070.5,644.43L1077.4,668.82L1084.3,716.35L1091.3,747.89L1098.2,751.73L1105.1,739.26L1112,748.17L1118.9,699.58L1125.8,669.77L1132.7,624.84L1139.6,566.61L1146.6,537.08L1153.5,515.95L1160.4,459.68L1167.3,398.69L1174.2,332.76L1181.1,307.65L1188,271.53L1194.9,239.3L1201.9,232.08L1208.8,201.29L1215.7,170.31L1222.6,184.38L1229.5,205.63L1236.4,192.34L1243.3,222.41L1250.2,246.87L1257.2,254.48L1264.1,278.49L1271,288.65L1277.9,348.18L1284.8,410.56L1291.7,470.44L1298.6,498.13L1305.5,526.85L1312.5,548.22L1319.4,612.63L1326.3,666.21L1333.2,713.52L1340.1,697.99L1347,720.31L1353.9,744.6L1360.8,762.83L1367.8,772.89L1374.7,724.89L1381.6,713.17L1388.5,699.8L1395.4,685.08L1402.3,671.03L1409.2,639.6L1416.1,593.44L1423.1,525.92L1430,418.87L1436.9,296.15" style="fill:none;stroke:#7AC36A;stroke-width:1.25;stroke-dasharray:7.5,2.5" />
<path d="M58.633,701.15L63.967,701.15L63.967,706.49L58.633,706.49Z" style="fill:none;stroke:#7AC36A;stroke-width:0.625" />
<path d="M65.545,692.83L70.88,692.83L70.88,698.16L65.545,698.16Z" style="fill:none;stroke:#7AC36A;stroke-width:0.625" />
<path d="M72.458,720.89L77.792,720.89L77.792,726.22L72.458,726.22Z" style="fill:none;stroke:#7AC36A;stroke-width:0.625" />
<path d="M79.37,729.37L84.705,729.37L84.705,734.7L79.37,734.7Z" style="fill:none;stroke:#7AC36A;stroke-width:0.625" />
<path d="M86.282,691.21L91.617,691.21L91.617,696.54L86.282,696.54Z" style="fill:none;stroke:#7AC36A;stroke-width:0.625" />
<path d="M93.195,697.59L98.53,697.59L98.53,702.93L93.195,702.93Z" style="fill:none;stroke:#7AC36A;stroke-width:0.625" />
<path d="M100.11,700.4L105.44,700.4L105.44,705.74L100.11,705.74Z" style="fill:none;stroke:#7AC36A;stroke-width:0.625" />
<path d="M107.02,688L112.35,688L112.35,693.33L107.02,693.33Z" style="fill:none;stroke:#7AC36A;stroke-width:0.625" />
<path d="M113.93,632.08L119.27,632.08L119.27,637.41L113.93,637.41Z" style="fill:none;stroke:#7AC36A;stroke-width:0.625" />
<path d="M120.84,583.8L126.18,583.8L126.18,589.13L120.84,589.13Z" style="fill:none;stroke:#7AC36A;stroke-width:0.625" />
<path d="M127.76,514.87L133.09,514.87L133.09,520.2L127.76,520.2Z" style="fill:none;stroke:#7AC36A;stroke-width:0.625" />
<path d="M134.67,485.86L140,485.86L140,491.2L134.67,491.2Z" style="fill:none;stroke:#7AC36A;stroke-width:0.625" />
<path d="M141.58,423.14L146.92,423.14L146.92,428.48L141.58,428.48Z" style="fill:none;stroke:#7AC36A;stroke-width:0.625" />
<path d="M148.49,405.52L153.83,405.52L153.83,410.86L148.49,410.86Z" style="fill:none;stroke:#7AC36A;stroke-width:0.625" />
<path d="M155.41,360.67L160.74,360.67L160.74,366L155.41,366Z" style="fill:none;stroke:#7AC36A;stroke-width:0.625" />
<path d="M162.32,302.2L167.65,302.2L167.65,307.54L162.32,307.54Z" style="fill:none;stroke:#7AC36A;stroke-width:0.625" />
<path d="M169.23,271.05L174.57,271.05L174.57,276.38L169.23,276.38Z" style="fill:none;stroke:#7AC36A;stroke-width:0.625" />
<path d="M176.14,264.34L181.48,264.34L181.48,269.67L176.14,269.67Z" style="fill:none;stroke:#7AC36A;stroke-width:0.625" />
<path d="M183.06,250.61L188.39,250.61L188.39,255.94L183.06,255.94Z" style="fill:none;stroke:#7AC36A;stroke-width:0.625" />
<path d="M189.97,243.47L195.3,243.47L195.3,248.81L189.97,248.81Z" style="fill:none;stroke:#7AC36A;stroke-width:0.625" />
<path d="M196.88,210.36L202.22,210.36L202.22,215.7L196.88,215.7Z" style="fill:none;stroke:#7AC36A;stroke-width:0.625" />
<path d="M203.79,218.31L209.13,218.31L209.13,223.64L203.79,223.64Z" style="fill:none;stroke:#7AC36A;stroke-width:0.625" />
<path d="M210.71,226.43L216.04,226.43L216.04,231.77L210.71,231.77Z" style="fill:none;stroke:#7AC36A;stroke-width:0.625" />
<path d="M217.62,248.13L222.95,248.13L222.95,253.46L217.62,253.46Z" style="fill:none;stroke:#7AC36A;stroke-width:0.625" />
<path d="M224.53,243.46L229.87,243.46L229.87,248.79L224.53,248.79Z" style="fill:none;stroke:#7AC36A;stroke-width:0.625" />
<path d="M231.44,255.46L236.78,255.46L236.78,260.79L231.44,260.79Z" style="fill:none;stroke:#7AC36A;stroke-width:0.625" />
<path d="M238.36,300.31L243.69,300.31L243.69,305.64L238.36,305.64Z" style="fill:none;stroke:#7AC36A;stroke-width:0.625" />
<path d="M245.27,326.07L250.6,326.07L250.6,331.41L245.27,331.41Z" style="fill:none;stroke:#7AC36A;stroke-width:0.625" />
<path d="M252.18,331.46L257.52,331.46L257.52,336.8L252.18,336.8Z" style="fill:none;stroke:#7AC36A;stroke-width:0.625" />
<path d="M259.09,380.81L264.43,380.81L264.43,386.14L259.09,386.14Z" style="fill:none;stroke:#7AC36A;stroke-width:0.625" />
<path d="M266.01,411.32L271.34,411.32L271.34,416.66L266.01,416.66Z" style="fill:none;stroke:#7AC36A;stroke-width:0.625" />
<path d="M272.92,481.97L278.25,481.97L278.25,487.31L272.92,487.31Z" style="fill:none;stroke:#7AC36A;stroke-width:0.625" />
<path d="M279.83,541.24L285.17,541.24L285.17,546.57L279.83,546.57Z" style="fill:none;stroke:#7AC36A;stroke-width:0.625" />
<path d="M286.74,590.06L292.08,590.06L292.08,595.39L286.74,595.39Z" style="fill:none;stroke:#7AC36A;stroke-width:0.625" />
<path d="M293.66,626.92L298.99,626.92L298.99,632.26L293.66,632.26Z" style="fill:none;stroke:#7AC36A;stroke-width:0.625" />
<path d="M300.57,652.49L305.9,652.49L305.9,657.82L300.57,657.82Z" style="fill:none;stroke:#7AC36A;stroke-width:0.625" />
<path d="M307.48,694.29L312.82,694.29L312.82,699.62L307.48,699.62Z" style="fill:none;stroke:#7AC36A;stroke-width:0.625" />
<path d="M314.39,720.05L319.73,720.05L319.73,725.39L314.39,725.39Z" style="fill:none;stroke:#7AC36A;stroke-width:0.625" />
<path d="M321.31,708.6L326.64,708.6L326.64,713.93L321.31,713.93Z" style="fill:none;stroke:#7AC36A;stroke-width:0.625" />
<path d="M328.22,696.65L333.55,696.65L333.55,701.98L328.22,701.98Z" style="fill:none;stroke:#7AC36A;stroke-width:0.625" />
<path d="M335.13,710.97L340.46,710.97L340.46,716.31L335.13,716.31Z" style="fill:none;stroke:#7AC36A;stroke-width:0.625" />
<path d="M342.04,721.8L347.38,721.8L347.38,727.14L342.04,727.14Z" style="fill:none;stroke:#7AC36A;stroke-width:0.625" />
<path d="M348.96,728.08L354.29,728.08L354.29,733.42L348.96,733.42Z" style="fill:none;stroke:#7AC36A;stroke-width:0.625" />
<path d="M355.87,677.89L361.2,677.89L361.2,683.23L355.87,683.23Z" style="fill:none;stroke:#7AC36A;stroke-width:0.625" />
<path d="M362.78,619.19L368.11,619.19L368.11,624.53L362.78,624.53Z" style="fill:none;stroke:#7AC36A;stroke-width:0.625" />
<path d="M369.69,591.67L375.03,591.67L375.03,597.01L369.69,597.01Z" style="fill:none;stroke:#7AC36A;stroke-width:0.625" />
<path d="M376.6,556.41L381.94,556.41L381.94,561.74L376.6,561.74Z" style="fill:none;stroke:#7AC36A;stroke-width:0.625" />
<path d="M383.52,507.26L388.85,507.26L388.85,512.6L383.52,512.6Z" style="fill:none;stroke:#7AC36A;stroke-width:0.625" />
<path d="M390.43,474.68L395.76,474.68L395.76,480.01L390.43,480.01Z" style="fill:none;stroke:#7AC36A;stroke-width:0.625" />
<path d="M397.34,421.13L402.68,421.13L402.68,426.47L397.34,426.47Z" style="fill:none;stroke:#7AC36A;stroke-width:0.625" />
<path d="M404.25,361.39L409.59,361.39L409.59,366.73L404.25,366.73Z" style="fill:none;stroke:#7AC36A;stroke-width:0.625" />
<path d="M411.17,339.3L416.5,339.3L416.5,344.63L411.17,344.63Z" style="fill:none;stroke:#7AC36A;stroke-width:0.625" />
<path d="M418.08,305.35L423.41,305.35L423.41,310.68L418.08,310.68Z" style="fill:none;stroke:#7AC36A;stroke-width:0.625" />
<path d="M424.99,262.55L430.33,262.55L430.33,267.88L424.99,267.88Z" style="fill:none;stroke:#7AC36A;stroke-width:0.625" />
<path d="M431.9,252.81L437.24,252.81L437.24,258.14L431.9,258.14Z" style="fill:none;stroke:#7AC36A;stroke-width:0.625" />
<path d="M438.82,226.46L444.15,226.46L444.15,231.8L438.82,231.8Z" style="fill:none;stroke:#7AC36A;stroke-width:0.625" />
<path d="M445.73,215.07L451.06,215.07L451.06,220.41L445.73,220.41Z" style="fill:none;stroke:#7AC36A;stroke-width:0.625" />
<path d="M452.64,227.19L457.98,227.19L457.98,232.52L452.64,232.52Z" style="fill:none;stroke:#7AC36A;stroke-width:0.625" />
<path d="M459.55,188.71L464.89,188.71L464.89,194.04L459.55,194.04Z" style="fill:none;stroke:#7AC36A;stroke-width:0.625" />
<path d="M466.47,210.59L471.8,210.59L471.8,215.92L466.47,215.92Z" style="fill:none;stroke:#7AC36A;stroke-width:0.625" />
<path d="M473.38,234.76L478.71,234.76L478.71,240.1L473.38,240.1Z" style="fill:none;stroke:#7AC36A;stroke-width:0.625" />
<path d="M480.29,254.7L485.63,254.7L485.63,260.04L480.29,260.04Z" style="fill:none;stroke:#7AC36A;stroke-width:0.625" />
<path d="M487.2,277.39L492.54,277.39L492.54,282.72L487.2,282.72Z" style="fill:none;stroke:#7AC36A;stroke-width:0.625" />
<path d="M494.12,273.63L499.45,273.63L499.45,278.97L494.12,278.97Z" style="fill:none;stroke:#7AC36A;stroke-width:0.625" />
<path d="M501.03,330.9L506.36,330.9L506.36,336.24L501.03,336.24Z" style="fill:none;stroke:#7AC36A;stroke-width:0.625" />
<path d="M507.94,340.57L513.28,340.57L513.28,345.9L507.94,345.9Z" style="fill:none;stroke:#7AC36A;stroke-width:0.625" />
<path d="M514.85,388.68L520.19,388.68L520.19,394.01L514.85,394.01Z" style="fill:none;stroke:#7AC36A;stroke-width:0.625" />
<path d="M521.77,433.04L527.1,433.04L527.1,438.38L521.77,438.38Z" style="fill:none;stroke:#7AC36A;stroke-width:0.625" />
<path d="M528.68,483.84L534.01,483.84L534.01,489.18L528.68,489.18Z" style="fill:none;stroke:#7AC36A;stroke-width:0.625" />
<path d="M535.59,526.98L540.93,526.98L540.93,532.32L535.59,532.32Z" style="fill:none;stroke:#7AC36A;stroke-width:0.625" />
<path d="M542.5,558.38L547.84,558.38L547.84,563.72L542.5,563.72Z" style="fill:none;stroke:#7AC36A;stroke-width:0.625" />
<path d="M549.42,583.66L554.75,583.66L554.75,589L549.42,589Z" style="fill:none;stroke:#7AC36A;stroke-width:0.625" />
<path d="M556.33,593.14L561.66,593.14L561.66,598.48L556.33,598.48Z" style="fill:none;stroke:#7AC36A;stroke-width:0.625" />
<path d="M563.24,644.19L568.58,644.19L568.58,649.53L563.24,649.53Z" style="fill:none;stroke:#7AC36A;stroke-width:0.625" />
<path d="M570.15,647.02L575.49,647.02L575.49,652.35L570.15,652.35Z" style="fill:none;stroke:#7AC36A;stroke-width:0.625" />
<path d="M577.07,652.4L582.4,652.4L582.4,657.74L577.07,657.74Z" style="fill:none;stroke:#7AC36A;stroke-width:0.625" />
<path d="M583.98,693.6L589.31,693.6L589.31,698.94L583.98,698.94Z" style="fill:none;stroke:#7AC36A;stroke-width:0.625" />
<path d="M590.89,711.47L596.23,711.47L596.23,716.8L590.89,716.8Z" style="fill:none;stroke:#7AC36A;stroke-width:0.625" />
<path d="M597.8,696.63L603.14,696.63L603.14,701.96L597.8,701.96Z" style="fill:none;stroke:#7AC36A;stroke-width:0.625" />
<path d="M604.72,656.54L610.05,656.54L610.05,661.88L604.72,661.88Z" style="fill:none;stroke:#7AC36A;stroke-width:0.625" />
<path d="M611.63,626.18L616.96,626.18L616.96,631.52L611.63,631.52Z" style="fill:none;stroke:#7AC36A;stroke-width:0.625" />
<path d="M618.54,607.48L623.87,607.48L623.87,612.82L618.54,612.82Z" style="fill:none;stroke:#7AC36A;stroke-width:0.625" />
<path d="M625.45,572.89L630.79,572.89L630.79,578.23L625.45,578.23Z" style="fill:none;stroke:#7AC36A;stroke-width:0.625" />
<path d="M632.36,559.02L637.7,559.02L637.7,564.36L632.36,564.36Z" style="fill:none;stroke:#7AC36A;stroke-width:0.625" />
<path d="M639.28,521.35L644.61,521.35L644.61,526.68L639.28,526.68Z" style="fill:none;stroke:#7AC36A;stroke-width:0.625" />
<path d="M646.19,475.43L651.52,475.43L651.52,480.77L646.19,480.77Z" style="fill:none;stroke:#7AC36A;stroke-width:0.625" />
<path d="M653.1,410.58L658.44,410.58L658.44,415.91L653.1,415.91Z" style="fill:none;stroke:#7AC36A;stroke-width:0.625" />
<path d="M660.01,373.76L665.35,373.76L665.35,379.1L660.01,379.1Z" style="fill:none;stroke:#7AC36A;stroke-width:0.625" />
<path d="M666.93,320.14L672.26,320.14L672.26,325.47L666.93,325.47Z" style="fill:none;stroke:#7AC36A;stroke-width:0.625" />
<path d="M673.84,279.48L679.17,279.48L679.17,284.81L673.84,284.81Z" style="fill:none;stroke:#7AC36A;stroke-width:0.625" />
<path d="M680.75,219.35L686.09,219.35L686.09,224.69L680.75,224.69Z" style="fill:none;stroke:#7AC36A;stroke-width:0.625" />
<path d="M687.66,186.11L693,186.11L693,191.44L687.66,191.44Z" style="fill:none;stroke:#7AC36A;stroke-width:0.625" />
<path d="M694.58,183.23L699.91,183.23L699.91,188.57L694.58,188.57Z" style="fill:none;stroke:#7AC36A;stroke-width:0.625" />
<path d="M701.49,172.49L706.82,172.49L706.82,177.83L701.49,177.83Z" style="fill:none;stroke:#7AC36A;stroke-width:0.625" />
<path d="M708.4,186.24L713.74,186.24L713.74,191.57L708.4,191.57Z" style="fill:none;stroke:#7AC36A;stroke-width:0.625" />
<path d="M715.31,210.31L720.65,210.31L720.65,215.64L715.31,215.64Z" style="fill:none;stroke:#7AC36A;stroke-width:0.625" />
<path d="M722.23,192L727.56,192L727.56,197.34L722.23,197.34Z" style="fill:none;stroke:#7AC36A;stroke-width:0.625" />
<path d="M729.14,216.23L734.47,216.23L734.47,221.57L729.14,221.57Z" style="fill:none;stroke:#7AC36A;stroke-width:0.625" />
<path d="M736.05,217.22L741.39,217.22L741.39,222.56L736.05,222.56Z" style="fill:none;stroke:#7AC36A;stroke-width:0.625" />
<path d="M742.96,243.87L748.3,243.87L748.3,249.2L742.96,249.2Z" style="fill:none;stroke:#7AC36A;stroke-width:0.625" />
<path d="M749.88,286.54L755.21,286.54L755.21,291.87L749.88,291.87Z" style="fill:none;stroke:#7AC36A;stroke-width:0.625" />
<path d="M756.79,331.2L762.12,331.2L762.12,336.53L756.79,336.53Z" style="fill:none;stroke:#7AC36A;stroke-width:0.625" />
<path d="M763.7,361.3L769.04,361.3L769.04,366.63L763.7,366.63Z" style="fill:none;stroke:#7AC36A;stroke-width:0.625" />
<path d="M770.61,395.33L775.95,395.33L775.95,400.67L770.61,400.67Z" style="fill:none;stroke:#7AC36A;stroke-width:0.625" />
<path d="M777.53,453.88L782.86,453.88L782.86,459.21L777.53,459.21Z" style="fill:none;stroke:#7AC36A;stroke-width:0.625" />
<path d="M784.44,478.9L789.77,478.9L789.77,484.23L784.44,484.23Z" style="fill:none;stroke:#7AC36A;stroke-width:0.625" />
<path d="M791.35,530.28L796.69,530.28L796.69,535.62L791.35,535.62Z" style="fill:none;stroke:#7AC36A;stroke-width:0.625" />
<path d="M798.26,588.6L803.6,588.6L803.6,593.94L798.26,593.94Z" style="fill:none;stroke:#7AC36A;stroke-width:0.625" />
<path d="M805.18,629.23L810.51,629.23L810.51,634.57L805.18,634.57Z" style="fill:none;stroke:#7AC36A;stroke-width:0.625" />
<path d="M812.09,635.69L817.42,635.69L817.42,641.02L812.09,641.02Z" style="fill:none;stroke:#7AC36A;stroke-width:0.625" />
<path d="M819,649.63L824.34,649.63L824.34,654.97L819,654.97Z" style="fill:none;stroke:#7AC36A;stroke-width:0.625" />
<path d="M825.91,666.9L831.25,666.9L831.25,672.23L825.91,672.23Z" style="fill:none;stroke:#7AC36A;stroke-width:0.625" />
<path d="M832.83,692.18L838.16,692.18L838.16,697.52L832.83,697.52Z" style="fill:none;stroke:#7AC36A;stroke-width:0.625" />
<path d="M839.74,683.04L845.07,683.04L845.07,688.38L839.74,688.38Z" style="fill:none;stroke:#7AC36A;stroke-width:0.625" />
<path d="M846.65,707.04L851.99,707.04L851.99,712.37L846.65,712.37Z" style="fill:none;stroke:#7AC36A;stroke-width:0.625" />
<path d="M853.56,717.97L858.9,717.97L858.9,723.31L853.56,723.31Z" style="fill:none;stroke:#7AC36A;stroke-width:0.625" />
<path d="M860.48,691.87L865.81,691.87L865.81,697.2L860.48,697.2Z" style="fill:none;stroke:#7AC36A;stroke-width:0.625" />
<path d="M867.39,640.75L872.72,640.75L872.72,646.08L867.39,646.08Z" style="fill:none;stroke:#7AC36A;stroke-width:0.625" />
<path d="M874.3,603.85L879.63,603.85L879.63,609.19L874.3,609.19Z" style="fill:none;stroke:#7AC36A;stroke-width:0.625" />
<path d="M881.21,557.72L886.55,557.72L886.55,563.06L881.21,563.06Z" style="fill:none;stroke:#7AC36A;stroke-width:0.625" />
<path d="M888.13,492.69L893.46,492.69L893.46,498.02L888.13,498.02Z" style="fill:none;stroke:#7AC36A;stroke-width:0.625" />
<path d="M895.04,461.43L900.37,461.43L900.37,466.76L895.04,466.76Z" style="fill:none;stroke:#7AC36A;stroke-width:0.625" />
<path d="M901.95,447.04L907.28,447.04L907.28,452.37L901.95,452.37Z" style="fill:none;stroke:#7AC36A;stroke-width:0.625" />
<path d="M908.86,422.71L914.2,422.71L914.2,428.04L908.86,428.04Z" style="fill:none;stroke:#7AC36A;stroke-width:0.625" />
<path d="M915.77,370.86L921.11,370.86L921.11,376.19L915.77,376.19Z" style="fill:none;stroke:#7AC36A;stroke-width:0.625" />
<path d="M922.69,329.69L928.02,329.69L928.02,335.03L922.69,335.03Z" style="fill:none;stroke:#7AC36A;stroke-width:0.625" />
<path d="M929.6,283.69L934.93,283.69L934.93,289.03L929.6,289.03Z" style="fill:none;stroke:#7AC36A;stroke-width:0.625" />
<path d="M936.51,268.41L941.85,268.41L941.85,273.75L936.51,273.75Z" style="fill:none;stroke:#7AC36A;stroke-width:0.625" />
<path d="M943.42,210.02L948.76,210.02L948.76,215.35L943.42,215.35Z" style="fill:none;stroke:#7AC36A;stroke-width:0.625" />
<path d="M950.34,170.82L955.67,170.82L955.67,176.15L950.34,176.15Z" style="fill:none;stroke:#7AC36A;stroke-width:0.625" />
<path d="M957.25,175.5L962.58,175.5L962.58,180.84L957.25,180.84Z" style="fill:none;stroke:#7AC36A;stroke-width:0.625" />
<path d="M964.16,137.26L969.5,137.26L969.5,142.59L964.16,142.59Z" style="fill:none;stroke:#7AC36A;stroke-width:0.625" />
<path d="M971.07,134.8L976.41,134.8L976.41,140.14L971.07,140.14Z" style="fill:none;stroke:#7AC36A;stroke-width:0.625" />
<path d="M977.99,175.11L983.32,175.11L983.32,180.44L977.99,180.44Z" style="fill:none;stroke:#7AC36A;stroke-width:0.625" />
<path d="M984.9,179.48L990.23,179.48L990.23,184.82L984.9,184.82Z" style="fill:none;stroke:#7AC36A;stroke-width:0.625" />
<path d="M991.81,177.11L997.15,177.11L997.15,182.44L991.81,182.44Z" style="fill:none;stroke:#7AC36A;stroke-width:0.625" />
<path d="M998.72,180.79L1004.1,180.79L1004.1,186.12L998.72,186.12Z" style="fill:none;stroke:#7AC36A;stroke-width:0.625" />
<path d="M1005.6,243.23L1011,243.23L1011,248.57L1005.6,248.57Z" style="fill:none;stroke:#7AC36A;stroke-width:0.625" />
<path d="M1012.5,308.19L1017.9,308.19L1017.9,313.53L1012.5,313.53Z" style="fill:none;stroke:#7AC36A;stroke-width:0.625" />
<path d="M1019.5,369.86L1024.8,369.86L1024.8,375.19L1019.5,375.19Z" style="fill:none;stroke:#7AC36A;stroke-width:0.625" />
<path d="M1026.4,402.82L1031.7,402.82L1031.7,408.15L1026.4,408.15Z" style="fill:none;stroke:#7AC36A;stroke-width:0.625" />
<path d="M1033.3,470.86L1038.6,470.86L1038.6,476.2L1033.3,476.2Z" style="fill:none;stroke:#7AC36A;stroke-width:0.625" />
<path d="M1040.2,490.21L1045.5,490.21L1045.5,495.54L1040.2,495.54Z" style="fill:none;stroke:#7AC36A;stroke-width:0.625" />
<path d="M1047.1,551.88L1052.4,551.88L1052.4,557.22L1047.1,557.22Z" style="fill:none;stroke:#7AC36A;stroke-width:0.625" />
<path d="M1054,573.53L1059.4,573.53L1059.4,578.87L1054,578.87Z" style="fill:none;stroke:#7AC36A;stroke-width:0.625" />
<path d="M1060.9,615.46L1066.3,615.46L1066.3,620.8L1060.9,620.8Z" style="fill:none;stroke:#7AC36A;stroke-width:0.625" />
<path d="M1067.8,641.76L1073.2,641.76L1073.2,647.09L1067.8,647.09Z" style="fill:none;stroke:#7AC36A;stroke-width:0.625" />
<path d="M1074.8,666.16L1080.1,666.16L1080.1,671.49L1074.8,671.49Z" style="fill:none;stroke:#7AC36A;stroke-width:0.625" />
<path d="M1081.7,713.68L1087,713.68L1087,719.02L1081.7,719.02Z" style="fill:none;stroke:#7AC36A;stroke-width:0.625" />
<path d="M1088.6,745.22L1093.9,745.22L1093.9,750.56L1088.6,750.56Z" style="fill:none;stroke:#7AC36A;stroke-width:0.625" />
<path d="M1095.5,749.07L1100.8,749.07L1100.8,754.4L1095.5,754.4Z" style="fill:none;stroke:#7AC36A;stroke-width:0.625" />
<path d="M1102.4,736.6L1107.7,736.6L1107.7,741.93L1102.4,741.93Z" style="fill:none;stroke:#7AC36A;stroke-width:0.625" />
<path d="M1109.3,745.5L1114.7,745.5L1114.7,750.84L1109.3,750.84Z" style="fill:none;stroke:#7AC36A;stroke-width:0.625" />
<path d="M1116.2,696.91L1121.6,696.91L1121.6,702.24L1116.2,702.24Z" style="fill:none;stroke:#7AC36A;stroke-width:0.625" />
<path d="M1123.1,667.1L1128.5,667.1L1128.5,672.44L1123.1,672.44Z" style="fill:none;stroke:#7AC36A;stroke-width:0.625" />
<path d="M1130.1,622.17L1135.4,622.17L1135.4,627.51L1130.1,627.51Z" style="fill:none;stroke:#7AC36A;stroke-width:0.625" />
<path d="M1137,563.95L1142.3,563.95L1142.3,569.28L1137,569.28Z" style="fill:none;stroke:#7AC36A;stroke-width:0.625" />
<path d="M1143.9,534.42L1149.2,534.42L1149.2,539.75L1143.9,539.75Z" style="fill:none;stroke:#7AC36A;stroke-width:0.625" />
<path d="M1150.8,513.29L1156.1,513.29L1156.1,518.62L1150.8,518.62Z" style="fill:none;stroke:#7AC36A;stroke-width:0.625" />
<path d="M1157.7,457.01L1163,457.01L1163,462.34L1157.7,462.34Z" style="fill:none;stroke:#7AC36A;stroke-width:0.625" />
<path d="M1164.6,396.02L1170,396.02L1170,401.36L1164.6,401.36Z" style="fill:none;stroke:#7AC36A;stroke-width:0.625" />
<path d="M1171.5,330.09L1176.9,330.09L1176.9,335.42L1171.5,335.42Z" style="fill:none;stroke:#7AC36A;stroke-width:0.625" />
<path d="M1178.4,304.99L1183.8,304.99L1183.8,310.32L1178.4,310.32Z" style="fill:none;stroke:#7AC36A;stroke-width:0.625" />
<path d="M1185.4,268.86L1190.7,268.86L1190.7,274.2L1185.4,274.2Z" style="fill:none;stroke:#7AC36A;stroke-width:0.625" />
<path d="M1192.3,236.63L1197.6,236.63L1197.6,241.96L1192.3,241.96Z" style="fill:none;stroke:#7AC36A;stroke-width:0.625" />
<path d="M1199.2,229.41L1204.5,229.41L1204.5,234.75L1199.2,234.75Z" style="fill:none;stroke:#7AC36A;stroke-width:0.625" />
<path d="M1206.1,198.62L1211.4,198.62L1211.4,203.96L1206.1,203.96Z" style="fill:none;stroke:#7AC36A;stroke-width:0.625" />
<path d="M1213,167.65L1218.3,167.65L1218.3,172.98L1213,172.98Z" style="fill:none;stroke:#7AC36A;stroke-width:0.625" />
<path d="M1219.9,181.71L1225.3,181.71L1225.3,187.05L1219.9,187.05Z" style="fill:none;stroke:#7AC36A;stroke-width:0.625" />
<path d="M1226.8,202.96L1232.2,202.96L1232.2,208.29L1226.8,208.29Z" style="fill:none;stroke:#7AC36A;stroke-width:0.625" />
<path d="M1233.7,189.67L1239.1,189.67L1239.1,195L1233.7,195Z" style="fill:none;stroke:#7AC36A;stroke-width:0.625" />
<path d="M1240.7,219.75L1246,219.75L1246,225.08L1240.7,225.08Z" style="fill:none;stroke:#7AC36A;stroke-width:0.625" />
<path d="M1247.6,244.2L1252.9,244.2L1252.9,249.54L1247.6,249.54Z" style="fill:none;stroke:#7AC36A;stroke-width:0.625" />
<path d="M1254.5,251.81L1259.8,251.81L1259.8,257.15L1254.5,257.15Z" style="fill:none;stroke:#7AC36A;stroke-width:0.625" />
<path d="M1261.4,275.82L1266.7,275.82L1266.7,281.15L1261.4,281.15Z" style="fill:none;stroke:#7AC36A;stroke-width:0.625" />
<path d="M1268.3,285.98L1273.6,285.98L1273.6,291.31L1268.3,291.31Z" style="fill:none;stroke:#7AC36A;stroke-width:0.625" />
<path d="M1275.2,345.51L1280.6,345.51L1280.6,350.85L1275.2,350.85Z" style="fill:none;stroke:#7AC36A;stroke-width:0.625" />
<path d="M1282.1,407.89L1287.5,407.89L1287.5,413.23L1282.1,413.23Z" style="fill:none;stroke:#7AC36A;stroke-width:0.625" />
<path d="M1289,467.77L1294.4,467.77L1294.4,473.11L1289,473.11Z" style="fill:none;stroke:#7AC36A;stroke-width:0.625" />
<path d="M1296,495.46L1301.3,495.46L1301.3,500.79L1296,500.79Z" style="fill:none;stroke:#7AC36A;stroke-width:0.625" />
<path d="M1302.9,524.19L1308.2,524.19L1308.2,529.52L1302.9,529.52Z" style="fill:none;stroke:#7AC36A;stroke-width:0.625" />
<path d="M1309.8,545.55L1315.1,545.55L1315.1,550.88L1309.8,550.88Z" style="fill:none;stroke:#7AC36A;stroke-width:0.625" />
<path d="M1316.7,609.96L1322,609.96L1322,615.29L1316.7,615.29Z" style="fill:none;stroke:#7AC36A;stroke-width:0.625" />
<path d="M1323.6,663.54L1328.9,663.54L1328.9,668.88L1323.6,668.88Z" style="fill:none;stroke:#7AC36A;stroke-width:0.625" />
<path d="M1330.5,710.85L1335.9,710.85L1335.9,716.18L1330.5,716.18Z" style="fill:none;stroke:#7AC36A;stroke-width:0.625" />
<path d="M1337.4,695.32L1342.8,695.32L1342.8,700.66L1337.4,700.66Z" style="fill:none;stroke:#7AC36A;stroke-width:0.625" />
<path d="M1344.3,717.64L1349.7,717.64L1349.7,722.98L1344.3,722.98Z" style="fill:none;stroke:#7AC36A;stroke-width:0.625" />
<path d="M1351.3,741.93L1356.6,741.93L1356.6,747.27L1351.3,747.27Z" style="fill:none;stroke:#7AC36A;stroke-width:0.625" />
<path d="M1358.2,760.16L1363.5,760.16L1363.5,765.5L1358.2,765.5Z" style="fill:none;stroke:#7AC36A;stroke-width:0.625" />
<path d="M1365.1,770.22L1370.4,770.22L1370.4,775.56L1365.1,775.56Z" style="fill:none;stroke:#7AC36A;stroke-width:0.625" />
<path d="M1372,722.22L1377.3,722.22L1377.3,727.56L1372,727.56Z" style="fill:none;stroke:#7AC36A;stroke-width:0.625" />
<path d="M1378.9,710.5L1384.2,710.5L1384.2,715.83L1378.9,715.83Z" style="fill:none;stroke:#7AC36A;stroke-width:0.625" />
<path d="M1385.8,697.14L1391.2,697.14L1391.2,702.47L1385.8,702.47Z" style="fill:none;stroke:#7AC36A;stroke-width:0.625" />
<path d="M1392.7,682.41L1398.1,682.41L1398.1,687.75L1392.7,687.75Z" style="fill:none;stroke:#7AC36A;stroke-width:0.625" />
<path d="M1399.6,668.37L1405,668.37L1405,673.7L1399.6,673.7Z" style="fill:none;stroke:#7AC36A;stroke-width:0.625" />
<path d="M1406.6,636.93L1411.9,636.93L1411.9,642.26L1406.6,642.26Z" style="fill:none;stroke:#7AC36A;stroke-width:0.625" />
<path d="M1413.5,590.77L1418.8,590.77L1418.8,596.11L1413.5,596.11Z" style="fill:none;stroke:#7AC36A;stroke-width:0.625" />
<path d="M1420.4,523.25L1425.7,523.25L1425.7,528.58L1420.4,528.58Z" style="fill:none;stroke:#7AC36A;stroke-width:0.625" />
<path d="M1427.3,416.21L1432.6,416.21L1432.6,421.54L1427.3,421.54Z" style="fill:none;stroke:#7AC36A;stroke-width:0.625" />
<path d="M1434.2,293.48L1439.5,293.48L1439.5,298.82L1434.2,298.82Z" style="fill:none;stroke:#7AC36A;stroke-width:0.625" />
<path d="M1415,66.978L1440,66.978" style="fill:none;stroke:#F15A60;stroke-width:1.25" />
<path d="M1430.6,66.978A3.125,3.125 0 1 1 1424.4,66.978A3.125,3.125 0 1 1 1430.6,66.978Z" style="fill:none;stroke:#F15A60;stroke-width:0.625" />
<text x="1388.8" y="-61.188" transform="scale(1, -1)"
	style="font-family:Times;font-weight:normal;font-style:normal;font-size:12pt">raw</text>
<path d="M1415,53.117L1440,53.117" style="fill:none;stroke:#7AC36A;stroke-width:1.25;stroke-dasharray:7.5,2.5" />
<path d="M1424.8,50.45L1430.2,50.45L1430.2,55.785L1424.8,55.785Z" style="fill:none;stroke:#7AC36A;stroke-width:0.625" />
<text x="1367.1" y="-47.328" transform="scale(1, -1)"
	style="font-family:Times;font-weight:normal;font-style:normal;font-size:12pt">smooth</text>
</g>
</svg>
