<?xml version="1.0"?>
<!-- Generated by SVGo and Plotinum VG -->
<svg width="16in" height="9in"
	xmlns="http://www.w3.org/2000/svg"
	xmlns:xlink="http://www.w3.org/1999/xlink">
<g transform="scale(1, -1) translate(0, -810)">
<path d="M0,0L1440,0L1440,810L0,810Z" style="fill:#FFFFFF" />
<text x="743.67" y="-5.355" transform="scale(1, -1)"
	style="font-family:Times;font-weight:normal;font-style:normal;font-size:12pt">X</text>
<text x="58.175" y="-19.025" transform="scale(1, -1)"
	style="font-family:Times;font-weight:normal;font-style:normal;font-size:10pt">0</text>
<text x="469.8" y="-19.025" transform="scale(1, -1)"
	style="font-family:Times;font-weight:normal;font-style:normal;font-size:10pt">60</text>
<text x="881.42" y="-19.025" transform="scale(1, -1)"
	style="font-family:Times;font-weight:normal;font-style:normal;font-size:10pt">120</text>
<text x="1296.2" y="-19.025" transform="scale(1, -1)"
	style="font-family:Times;font-weight:normal;font-style:normal;font-size:10pt">180</text>
<path d="M61.3,29.625L61.3,39.625" style="fill:none;stroke:#000000;stroke-width:0.625" />
<path d="M476.05,29.625L476.05,39.625" style="fill:none;stroke:#000000;stroke-width:0.625" />
<path d="M890.79,29.625L890.79,39.625" style="fill:none;stroke:#000000;stroke-width:0.625" />
<path d="M1305.5,29.625L1305.5,39.625" style="fill:none;stroke:#000000;stroke-width:0.625" />
<path d="M199.55,34.625L199.55,39.625" style="fill:none;stroke:#000000;stroke-width:0.625" />
<path d="M337.8,34.625L337.8,39.625" style="fill:none;stroke:#000000;stroke-width:0.625" />
<path d="M614.29,34.625L614.29,39.625" style="fill:none;stroke:#000000;stroke-width:0.625" />
<path d="M752.54,34.625L752.54,39.625" style="fill:none;stroke:#000000;stroke-width:0.625" />
<path d="M1029,34.625L1029,39.625" style="fill:none;stroke:#000000;stroke-width:0.625" />
<path d="M1167.3,34.625L1167.3,39.625" style="fill:none;stroke:#000000;stroke-width:0.625" />
<path d="M61.3,39.625L1436.9,39.625" style="fill:none;stroke:#000000;stroke-width:0.625" />
<g transform="rotate(90)">
<text x="422.68" y="12.72" transform="scale(1, -1)"
	style="font-family:Times;font-weight:normal;font-style:normal;font-size:12pt">Y</text>
</g>
<text x="18.075" y="-84.956" transform="scale(1, -1)"
	style="font-family:Times;font-weight:normal;font-style:normal;font-size:10pt">-0.8</text>
<text x="31.613" y="-294.52" transform="scale(1, -1)"
	style="font-family:Times;font-weight:normal;font-style:normal;font-size:10pt">0</text>
<text x="22.237" y="-504.09" transform="scale(1, -1)"
	style="font-family:Times;font-weight:normal;font-style:normal;font-size:10pt">0.8</text>
<text x="22.237" y="-713.66" transform="scale(1, -1)"
	style="font-family:Times;font-weight:normal;font-style:normal;font-size:10pt">1.6</text>
<path d="M40.987,89.781L50.987,89.781" style="fill:none;stroke:#000000;stroke-width:0.625" />
<path d="M40.987,299.35L50.987,299.35" style="fill:none;stroke:#000000;stroke-width:0.625" />
<path d="M40.987,508.92L50.987,508.92" style="fill:none;stroke:#000000;stroke-width:0.625" />
<path d="M40.987,718.49L50.987,718.49" style="fill:none;stroke:#000000;stroke-width:0.625" />
<path d="M45.987,89.781L50.987,89.781" style="fill:none;stroke:#000000;stroke-width:0.625" />
<path d="M45.987,194.57L50.987,194.57" style="fill:none;stroke:#000000;stroke-width:0.625" />
<path d="M45.987,299.35L50.987,299.35" style="fill:none;stroke:#000000;stroke-width:0.625" />
<path d="M45.987,404.13L50.987,404.13" style="fill:none;stroke:#000000;stroke-width:0.625" />
<path d="M45.987,508.92L50.987,508.92" style="fill:none;stroke:#000000;stroke-width:0.625" />
<path d="M45.987,613.7L50.987,613.7" style="fill:none;stroke:#000000;stroke-width:0.625" />
<path d="M50.987,49.313L50.987,806.88" style="fill:none;stroke:#000000;stroke-width:0.625" />
<path d="M61.3,491.31L68.212,400.97L75.125,458.81L82.037,405.37L88.95,644.19L95.862,552.79L102.77,518.09L109.69,713.36L116.6,609.43L123.51,521.26L130.42,553.9L137.34,572.25L144.25,732.01L151.16,619.78L158.07,586.13L164.99,626.37L171.9,806.88L178.81,746.21L185.72,667.48L192.64,700.83L199.55,596.01L206.46,685.59L213.37,710.18L220.29,566.54L227.2,587.55L234.11,638.22L241.02,696.69L247.94,672.2L254.85,444.71L261.76,435.01L268.67,560.42L275.59,578.7L282.5,393.99L289.41,441.17L296.32,311.77L303.24,464.4L310.15,418.35L317.06,273.86L323.97,370.41L330.89,409.07L337.8,318.82L344.71,156.52L351.62,376.32L358.53,355.29L365.45,204.91L372.36,84.436L379.27,207.75L386.18,235.55L393.1,209.53L400.01,121.64L406.92,246.12L413.83,108.97L420.75,70.59L427.66,260.34L434.57,50.403L441.48,264.18L448.4,141.59L455.31,309.14L462.22,222.08L469.13,326.8L476.05,132.62L482.96,207.1L489.87,228.45L496.78,270.55L503.7,447.59L510.61,464.53L517.52,250.26L524.43,281.12L531.35,422.23L538.26,361.05L545.17,511.42L552.08,529.96L559,533.33L565.91,499.32L572.82,553.9L579.73,599.91L586.65,669.95L593.56,573.7L600.47,602.28L607.38,701.42L614.29,662.24L621.21,749.59L628.12,763.24L635.03,754.09L641.94,704.53L648.86,805.42L655.77,577.11L662.68,603.09L669.59,612.06L676.51,620.45L683.42,728.16L690.33,768.22L697.24,670.63L704.16,763.64L711.07,640.62L717.98,589.73L724.89,561.08L731.81,679L738.72,561.75L745.63,620.59L752.54,491.1L759.46,400.59L766.37,477.45L773.28,499.41L780.19,518.13L787.11,439.22L794.02,358.61L800.93,427.21L807.84,297.87L814.76,226.05L821.67,199.13L828.58,308.05L835.49,152.18L842.41,200L849.32,154.41L856.23,109.38L863.14,225.51L870.06,255.83L876.97,49.313L883.88,74.333L890.79,268.79L897.7,259.05L904.62,270.38L911.53,220.46L918.44,107.1L925.35,276.51L932.27,170.01L939.18,285.77L946.09,350.38L953,206.07L959.92,150.96L966.83,259.64L973.74,381.89L980.65,343.13L987.57,284.57L994.48,414.41L1001.4,476.7L1008.3,424.82L1015.2,462.64L1022.1,433.41L1029,365.13L1036,427.16L1042.9,476.63L1049.8,618.54L1056.7,483.39L1063.6,646.7L1070.5,623.71L1077.4,609.78L1084.3,552.92L1091.3,769.89L1098.2,667.9L1105.1,716.64L1112,615.42L1118.9,623.41L1125.8,753.1L1132.7,725.46L1139.6,771.7L1146.6,676.96L1153.5,570.54L1160.4,745.72L1167.3,618.83L1174.2,569.95L1181.1,681.77L1188,538.79L1194.9,597.95L1201.9,520.39L1208.8,451.96L1215.7,491.58L1222.6,512.81L1229.5,567.22L1236.4,400.67L1243.3,482.11L1250.2,387.42L1257.2,537.94L1264.1,459.6L1271,454.05L1277.9,455.15L1284.8,357.73L1291.7,418.71L1298.6,160.7L1305.5,374.81L1312.5,178.58L1319.4,143.39L1326.3,292.22L1333.2,231.97L1340.1,98.353L1347,110.58L1353.9,197.25L1360.8,54.651L1367.8,106.12L1374.7,214.25L1381.6,284.55L1388.5,225.01L1395.4,286.17L1402.3,160.23L1409.2,119.63L1416.1,112.11L1423.1,139.55L1430,127.53L1436.9,291.03" style="fill:none;stroke:#F15A60;stroke-width:1.25" />
<path d="M64.425,491.31A3.125,3.125 0 1 1 58.175,491.31A3.125,3.125 0 1 1 64.425,491.31Z" style="fill:none;stroke:#F15A60;stroke-width:0.625" />
<path d="M71.337,400.97A3.125,3.125 0 1 1 65.087,400.97A3.125,3.125 0 1 1 71.337,400.97Z" style="fill:none;stroke:#F15A60;stroke-width:0.625" />
<path d="M78.25,458.81A3.125,3.125 0 1 1 72,458.81A3.125,3.125 0 1 1 78.25,458.81Z" style="fill:none;stroke:#F15A60;stroke-width:0.625" />
<path d="M85.162,405.37A3.125,3.125 0 1 1 78.912,405.37A3.125,3.125 0 1 1 85.162,405.37Z" style="fill:none;stroke:#F15A60;stroke-width:0.625" />
<path d="M92.075,644.19A3.125,3.125 0 1 1 85.825,644.19A3.125,3.125 0 1 1 92.075,644.19Z" style="fill:none;stroke:#F15A60;stroke-width:0.625" />
<path d="M98.987,552.79L98.987,552.79A3.125,3.125 0 1 1 92.737,552.79A3.125,3.125 0 1 1 98.987,552.79Z" style="fill:none;stroke:#F15A60;stroke-width:0.625" />
<path d="M105.9,518.09L105.9,518.09A3.125,3.125 0 1 1 99.65,518.09A3.125,3.125 0 1 1 105.9,518.09Z" style="fill:none;stroke:#F15A60;stroke-width:0.625" />
<path d="M112.81,713.36L112.81,713.36A3.125,3.125 0 1 1 106.56,713.36A3.125,3.125 0 1 1 112.81,713.36Z" style="fill:none;stroke:#F15A60;stroke-width:0.625" />
<path d="M119.72,609.43L119.72,609.43A3.125,3.125 0 1 1 113.47,609.43A3.125,3.125 0 1 1 119.72,609.43Z" style="fill:none;stroke:#F15A60;stroke-width:0.625" />
<path d="M126.64,521.26L126.64,521.26A3.125,3.125 0 1 1 120.39,521.26A3.125,3.125 0 1 1 126.64,521.26Z" style="fill:none;stroke:#F15A60;stroke-width:0.625" />
<path d="M133.55,553.9L133.55,553.9A3.125,3.125 0 1 1 127.3,553.9A3.125,3.125 0 1 1 133.55,553.9Z" style="fill:none;stroke:#F15A60;stroke-width:0.625" />
<path d="M140.46,572.25A3.125,3.125 0 1 1 134.21,572.25A3.125,3.125 0 1 1 140.46,572.25Z" style="fill:none;stroke:#F15A60;stroke-width:0.625" />
<path d="M147.37,732.01A3.125,3.125 0 1 1 141.12,732.01A3.125,3.125 0 1 1 147.37,732.01Z" style="fill:none;stroke:#F15A60;stroke-width:0.625" />
<path d="M154.29,619.78A3.125,3.125 0 1 1 148.04,619.78A3.125,3.125 0 1 1 154.29,619.78Z" style="fill:none;stroke:#F15A60;stroke-width:0.625" />
<path d="M161.2,586.13L161.2,586.13A3.125,3.125 0 1 1 154.95,586.13A3.125,3.125 0 1 1 161.2,586.13Z" style="fill:none;stroke:#F15A60;stroke-width:0.625" />
<path d="M168.11,626.37A3.125,3.125 0 1 1 161.86,626.37A3.125,3.125 0 1 1 168.11,626.37Z" style="fill:none;stroke:#F15A60;stroke-width:0.625" />
<path d="M175.02,806.88L175.02,806.88A3.125,3.125 0 1 1 168.77,806.88A3.125,3.125 0 1 1 175.02,806.88Z" style="fill:none;stroke:#F15A60;stroke-width:0.625" />
<path d="M181.94,746.21A3.125,3.125 0 1 1 175.69,746.21A3.125,3.125 0 1 1 181.94,746.21Z" style="fill:none;stroke:#F15A60;stroke-width:0.625" />
<path d="M188.85,667.48A3.125,3.125 0 1 1 182.6,667.48A3.125,3.125 0 1 1 188.85,667.48Z" style="fill:none;stroke:#F15A60;stroke-width:0.625" />
<path d="M195.76,700.83L195.76,700.83A3.125,3.125 0 1 1 189.51,700.83A3.125,3.125 0 1 1 195.76,700.83Z" style="fill:none;stroke:#F15A60;stroke-width:0.625" />
<path d="M202.67,596.01A3.125,3.125 0 1 1 196.42,596.01A3.125,3.125 0 1 1 202.67,596.01Z" style="fill:none;stroke:#F15A60;stroke-width:0.625" />
<path d="M209.59,685.59A3.125,3.125 0 1 1 203.34,685.59A3.125,3.125 0 1 1 209.59,685.59Z" style="fill:none;stroke:#F15A60;stroke-width:0.625" />
<path d="M216.5,710.18A3.125,3.125 0 1 1 210.25,710.18A3.125,3.125 0 1 1 216.5,710.18Z" style="fill:none;stroke:#F15A60;stroke-width:0.625" />
<path d="M223.41,566.54L223.41,566.54A3.125,3.125 0 1 1 217.16,566.54A3.125,3.125 0 1 1 223.41,566.54Z" style="fill:none;stroke:#F15A60;stroke-width:0.625" />
<path d="M230.32,587.55L230.32,587.55A3.125,3.125 0 1 1 224.07,587.55A3.125,3.125 0 1 1 230.32,587.55Z" style="fill:none;stroke:#F15A60;stroke-width:0.625" />
<path d="M237.24,638.22A3.125,3.125 0 1 1 230.99,638.22A3.125,3.125 0 1 1 237.24,638.22Z" style="fill:none;stroke:#F15A60;stroke-width:0.625" />
<path d="M244.15,696.69L244.15,696.69A3.125,3.125 0 1 1 237.9,696.69A3.125,3.125 0 1 1 244.15,696.69Z" style="fill:none;stroke:#F15A60;stroke-width:0.625" />
<path d="M251.06,672.2A3.125,3.125 0 1 1 244.81,672.2A3.125,3.125 0 1 1 251.06,672.2Z" style="fill:none;stroke:#F15A60;stroke-width:0.625" />
<path d="M257.97,444.71A3.125,3.125 0 1 1 251.72,444.71A3.125,3.125 0 1 1 257.97,444.71Z" style="fill:none;stroke:#F15A60;stroke-width:0.625" />
<path d="M264.89,435.01A3.125,3.125 0 1 1 258.64,435.01A3.125,3.125 0 1 1 264.89,435.01Z" style="fill:none;stroke:#F15A60;stroke-width:0.625" />
<path d="M271.8,560.42A3.125,3.125 0 1 1 265.55,560.42A3.125,3.125 0 1 1 271.8,560.42Z" style="fill:none;stroke:#F15A60;stroke-width:0.625" />
<path d="M278.71,578.7A3.125,3.125 0 1 1 272.46,578.7A3.125,3.125 0 1 1 278.71,578.7Z" style="fill:none;stroke:#F15A60;stroke-width:0.625" />
<path d="M285.62,393.99L285.62,393.99A3.125,3.125 0 1 1 279.37,393.99A3.125,3.125 0 1 1 285.62,393.99Z" style="fill:none;stroke:#F15A60;stroke-width:0.625" />
<path d="M292.54,441.17A3.125,3.125 0 1 1 286.29,441.17A3.125,3.125 0 1 1 292.54,441.17Z" style="fill:none;stroke:#F15A60;stroke-width:0.625" />
<path d="M299.45,311.77A3.125,3.125 0 1 1 293.2,311.77A3.125,3.125 0 1 1 299.45,311.77Z" style="fill:none;stroke:#F15A60;stroke-width:0.625" />
<path d="M306.36,464.4A3.125,3.125 0 1 1 300.11,464.4A3.125,3.125 0 1 1 306.36,464.4Z" style="fill:none;stroke:#F15A60;stroke-width:0.625" />
<path d="M313.27,418.35A3.125,3.125 0 1 1 307.02,418.35A3.125,3.125 0 1 1 313.27,418.35Z" style="fill:none;stroke:#F15A60;stroke-width:0.625" />
<path d="M320.19,273.86A3.125,3.125 0 1 1 313.94,273.86A3.125,3.125 0 1 1 320.19,273.86Z" style="fill:none;stroke:#F15A60;stroke-width:0.625" />
<path d="M327.1,370.41L327.1,370.41A3.125,3.125 0 1 1 320.85,370.41A3.125,3.125 0 1 1 327.1,370.41Z" style="fill:none;stroke:#F15A60;stroke-width:0.625" />
<path d="M334.01,409.07L334.01,409.07A3.125,3.125 0 1 1 327.76,409.07A3.125,3.125 0 1 1 334.01,409.07Z" style="fill:none;stroke:#F15A60;stroke-width:0.625" />
<path d="M340.92,318.82A3.125,3.125 0 1 1 334.67,318.82A3.125,3.125 0 1 1 340.92,318.82Z" style="fill:none;stroke:#F15A60;stroke-width:0.625" />
<path d="M347.83,156.52A3.125,3.125 0 1 1 341.58,156.52A3.125,3.125 0 1 1 347.83,156.52Z" style="fill:none;stroke:#F15A60;stroke-width:0.625" />
<path d="M354.75,376.32A3.125,3.125 0 1 1 348.5,376.32A3.125,3.125 0 1 1 354.75,376.32Z" style="fill:none;stroke:#F15A60;stroke-width:0.625" />
<path d="M361.66,355.29L361.66,355.29A3.125,3.125 0 1 1 355.41,355.29A3.125,3.125 0 1 1 361.66,355.29Z" style="fill:none;stroke:#F15A60;stroke-width:0.625" />
<path d="M368.57,204.91A3.125,3.125 0 1 1 362.32,204.91A3.125,3.125 0 1 1 368.57,204.91Z" style="fill:none;stroke:#F15A60;stroke-width:0.625" />
<path d="M375.48,84.436A3.125,3.125 0 1 1 369.23,84.436A3.125,3.125 0 1 1 375.48,84.436Z" style="fill:none;stroke:#F15A60;stroke-width:0.625" />
<path d="M382.4,207.75A3.125,3.125 0 1 1 376.15,207.75A3.125,3.125 0 1 1 382.4,207.75Z" style="fill:none;stroke:#F15A60;stroke-width:0.625" />
<path d="M389.31,235.55A3.125,3.125 0 1 1 383.06,235.55A3.125,3.125 0 1 1 389.31,235.55Z" style="fill:none;stroke:#F15A60;stroke-width:0.625" />
<path d="M396.22,209.53L396.22,209.53A3.125,3.125 0 1 1 389.97,209.53A3.125,3.125 0 1 1 396.22,209.53Z" style="fill:none;stroke:#F15A60;stroke-width:0.625" />
<path d="M403.13,121.64L403.13,121.64A3.125,3.125 0 1 1 396.88,121.64A3.125,3.125 0 1 1 403.13,121.64Z" style="fill:none;stroke:#F15A60;stroke-width:0.625" />
<path d="M410.05,246.12A3.125,3.125 0 1 1 403.8,246.12A3.125,3.125 0 1 1 410.05,246.12Z" style="fill:none;stroke:#F15A60;stroke-width:0.625" />
<path d="M416.96,108.97A3.125,3.125 0 1 1 410.71,108.97A3.125,3.125 0 1 1 416.96,108.97Z" style="fill:none;stroke:#F15A60;stroke-width:0.625" />
<path d="M423.87,70.59L423.87,70.59A3.125,3.125 0 1 1 417.62,70.59A3.125,3.125 0 1 1 423.87,70.59Z" style="fill:none;stroke:#F15A60;stroke-width:0.625" />
<path d="M430.78,260.34A3.125,3.125 0 1 1 424.53,260.34A3.125,3.125 0 1 1 430.78,260.34Z" style="fill:none;stroke:#F15A60;stroke-width:0.625" />
<path d="M437.7,50.403A3.125,3.125 0 1 1 431.45,50.403A3.125,3.125 0 1 1 437.7,50.403Z" style="fill:none;stroke:#F15A60;stroke-width:0.625" />
<path d="M444.61,264.18A3.125,3.125 0 1 1 438.36,264.18A3.125,3.125 0 1 1 444.61,264.18Z" style="fill:none;stroke:#F15A60;stroke-width:0.625" />
<path d="M451.52,141.59A3.125,3.125 0 1 1 445.27,141.59A3.125,3.125 0 1 1 451.52,141.59Z" style="fill:none;stroke:#F15A60;stroke-width:0.625" />
<path d="M458.43,309.14A3.125,3.125 0 1 1 452.18,309.14A3.125,3.125 0 1 1 458.43,309.14Z" style="fill:none;stroke:#F15A60;stroke-width:0.625" />
<path d="M465.35,222.08A3.125,3.125 0 1 1 459.1,222.08A3.125,3.125 0 1 1 465.35,222.08Z" style="fill:none;stroke:#F15A60;stroke-width:0.625" />
<path d="M472.26,326.8A3.125,3.125 0 1 1 466.01,326.8A3.125,3.125 0 1 1 472.26,326.8Z" style="fill:none;stroke:#F15A60;stroke-width:0.625" />
<path d="M479.17,132.62A3.125,3.125 0 1 1 472.92,132.62A3.125,3.125 0 1 1 479.17,132.62Z" style="fill:none;stroke:#F15A60;stroke-width:0.625" />
<path d="M486.08,207.1L486.08,207.1A3.125,3.125 0 1 1 479.83,207.1A3.125,3.125 0 1 1 486.08,207.1Z" style="fill:none;stroke:#F15A60;stroke-width:0.625" />
<path d="M493,228.45L493,228.45A3.125,3.125 0 1 1 486.75,228.45A3.125,3.125 0 1 1 493,228.45Z" style="fill:none;stroke:#F15A60;stroke-width:0.625" />
<path d="M499.91,270.55A3.125,3.125 0 1 1 493.66,270.55A3.125,3.125 0 1 1 499.91,270.55Z" style="fill:none;stroke:#F15A60;stroke-width:0.625" />
<path d="M506.82,447.59A3.125,3.125 0 1 1 500.57,447.59A3.125,3.125 0 1 1 506.82,447.59Z" style="fill:none;stroke:#F15A60;stroke-width:0.625" />
<path d="M513.73,464.53A3.125,3.125 0 1 1 507.48,464.53A3.125,3.125 0 1 1 513.73,464.53Z" style="fill:none;stroke:#F15A60;stroke-width:0.625" />
<path d="M520.65,250.26A3.125,3.125 0 1 1 514.4,250.26A3.125,3.125 0 1 1 520.65,250.26Z" style="fill:none;stroke:#F15A60;stroke-width:0.625" />
<path d="M527.56,281.12A3.125,3.125 0 1 1 521.31,281.12A3.125,3.125 0 1 1 527.56,281.12Z" style="fill:none;stroke:#F15A60;stroke-width:0.625" />
<path d="M534.47,422.23A3.125,3.125 0 1 1 528.22,422.23A3.125,3.125 0 1 1 534.47,422.23Z" style="fill:none;stroke:#F15A60;stroke-width:0.625" />
<path d="M541.38,361.05A3.125,3.125 0 1 1 535.13,361.05A3.125,3.125 0 1 1 541.38,361.05Z" style="fill:none;stroke:#F15A60;stroke-width:0.625" />
<path d="M548.3,511.42A3.125,3.125 0 1 1 542.05,511.42A3.125,3.125 0 1 1 548.3,511.42Z" style="fill:none;stroke:#F15A60;stroke-width:0.625" />
<path d="M555.21,529.96A3.125,3.125 0 1 1 548.96,529.96A3.125,3.125 0 1 1 555.21,529.96Z" style="fill:none;stroke:#F15A60;stroke-width:0.625" />
<path d="M562.12,533.33A3.125,3.125 0 1 1 555.87,533.33A3.125,3.125 0 1 1 562.12,533.33Z" style="fill:none;stroke:#F15A60;stroke-width:0.625" />
<path d="M569.03,499.32A3.125,3.125 0 1 1 562.78,499.32A3.125,3.125 0 1 1 569.03,499.32Z" style="fill:none;stroke:#F15A60;stroke-width:0.625" />
<path d="M575.95,553.9A3.125,3.125 0 1 1 569.7,553.9A3.125,3.125 0 1 1 575.95,553.9Z" style="fill:none;stroke:#F15A60;stroke-width:0.625" />
<path d="M582.86,599.91A3.125,3.125 0 1 1 576.61,599.91A3.125,3.125 0 1 1 582.86,599.91Z" style="fill:none;stroke:#F15A60;stroke-width:0.625" />
<path d="M589.77,669.95A3.125,3.125 0 1 1 583.52,669.95A3.125,3.125 0 1 1 589.77,669.95Z" style="fill:none;stroke:#F15A60;stroke-width:0.625" />
<path d="M596.68,573.7A3.125,3.125 0 1 1 590.43,573.7A3.125,3.125 0 1 1 596.68,573.7Z" style="fill:none;stroke:#F15A60;stroke-width:0.625" />
<path d="M603.6,602.28A3.125,3.125 0 1 1 597.35,602.28A3.125,3.125 0 1 1 603.6,602.28Z" style="fill:none;stroke:#F15A60;stroke-width:0.625" />
<path d="M610.51,701.42L610.51,701.42A3.125,3.125 0 1 1 604.26,701.42A3.125,3.125 0 1 1 610.51,701.42Z" style="fill:none;stroke:#F15A60;stroke-width:0.625" />
<path d="M617.42,662.24A3.125,3.125 0 1 1 611.17,662.24A3.125,3.125 0 1 1 617.42,662.24Z" style="fill:none;stroke:#F15A60;stroke-width:0.625" />
<path d="M624.33,749.59A3.125,3.125 0 1 1 618.08,749.59A3.125,3.125 0 1 1 624.33,749.59Z" style="fill:none;stroke:#F15A60;stroke-width:0.625" />
<path d="M631.24,763.24A3.125,3.125 0 1 1 624.99,763.24A3.125,3.125 0 1 1 631.24,763.24Z" style="fill:none;stroke:#F15A60;stroke-width:0.625" />
<path d="M638.16,754.09A3.125,3.125 0 1 1 631.91,754.09A3.125,3.125 0 1 1 638.16,754.09Z" style="fill:none;stroke:#F15A60;stroke-width:0.625" />
<path d="M645.07,704.53A3.125,3.125 0 1 1 638.82,704.53A3.125,3.125 0 1 1 645.07,704.53Z" style="fill:none;stroke:#F15A60;stroke-width:0.625" />
<path d="M651.98,805.42A3.125,3.125 0 1 1 645.73,805.42A3.125,3.125 0 1 1 651.98,805.42Z" style="fill:none;stroke:#F15A60;stroke-width:0.625" />
<path d="M658.89,577.11A3.125,3.125 0 1 1 652.64,577.11A3.125,3.125 0 1 1 658.89,577.11Z" style="fill:none;stroke:#F15A60;stroke-width:0.625" />
<path d="M665.81,603.09A3.125,3.125 0 1 1 659.56,603.09A3.125,3.125 0 1 1 665.81,603.09Z" style="fill:none;stroke:#F15A60;stroke-width:0.625" />
<path d="M672.72,612.06L672.72,612.06A3.125,3.125 0 1 1 666.47,612.06A3.125,3.125 0 1 1 672.72,612.06Z" style="fill:none;stroke:#F15A60;stroke-width:0.625" />
<path d="M679.63,620.45L679.63,620.45A3.125,3.125 0 1 1 673.38,620.45A3.125,3.125 0 1 1 679.63,620.45Z" style="fill:none;stroke:#F15A60;stroke-width:0.625" />
<path d="M686.54,728.16A3.125,3.125 0 1 1 680.29,728.16A3.125,3.125 0 1 1 686.54,728.16Z" style="fill:none;stroke:#F15A60;stroke-width:0.625" />
<path d="M693.46,768.22A3.125,3.125 0 1 1 687.21,768.22A3.125,3.125 0 1 1 693.46,768.22Z" style="fill:none;stroke:#F15A60;stroke-width:0.625" />
<path d="M700.37,670.63A3.125,3.125 0 1 1 694.12,670.63A3.125,3.125 0 1 1 700.37,670.63Z" style="fill:none;stroke:#F15A60;stroke-width:0.625" />
<path d="M707.28,763.64A3.125,3.125 0 1 1 701.03,763.64A3.125,3.125 0 1 1 707.28,763.64Z" style="fill:none;stroke:#F15A60;stroke-width:0.625" />
<path d="M714.19,640.62A3.125,3.125 0 1 1 707.94,640.62A3.125,3.125 0 1 1 714.19,640.62Z" style="fill:none;stroke:#F15A60;stroke-width:0.625" />
<path d="M721.11,589.73A3.125,3.125 0 1 1 714.86,589.73A3.125,3.125 0 1 1 721.11,589.73Z" style="fill:none;stroke:#F15A60;stroke-width:0.625" />
<path d="M728.02,561.08L728.02,561.08A3.125,3.125 0 1 1 721.77,561.08A3.125,3.125 0 1 1 728.02,561.08Z" style="fill:none;stroke:#F15A60;stroke-width:0.625" />
<path d="M734.93,679L734.93,679A3.125,3.125 0 1 1 728.68,679A3.125,3.125 0 1 1 734.93,679Z" style="fill:none;stroke:#F15A60;stroke-width:0.625" />
<path d="M741.84,561.75A3.125,3.125 0 1 1 735.59,561.75A3.125,3.125 0 1 1 741.84,561.75Z" style="fill:none;stroke:#F15A60;stroke-width:0.625" />
<path d="M748.76,620.59L748.76,620.59A3.125,3.125 0 1 1 742.51,620.59A3.125,3.125 0 1 1 748.76,620.59Z" style="fill:none;stroke:#F15A60;stroke-width:0.625" />
<path d="M755.67,491.1L755.67,491.1A3.125,3.125 0 1 1 749.42,491.1A3.125,3.125 0 1 1 755.67,491.1Z" style="fill:none;stroke:#F15A60;stroke-width:0.625" />
<path d="M762.58,400.59L762.58,400.59A3.125,3.125 0 1 1 756.33,400.59A3.125,3.125 0 1 1 762.58,400.59Z" style="fill:none;stroke:#F15A60;stroke-width:0.625" />
<path d="M769.49,477.45A3.125,3.125 0 1 1 763.24,477.45A3.125,3.125 0 1 1 769.49,477.45Z" style="fill:none;stroke:#F15A60;stroke-width:0.625" />
<path d="M776.41,499.41L776.41,499.41A3.125,3.125 0 1 1 770.16,499.41A3.125,3.125 0 1 1 776.41,499.41Z" style="fill:none;stroke:#F15A60;stroke-width:0.625" />
<path d="M783.32,518.13A3.125,3.125 0 1 1 777.07,518.13A3.125,3.125 0 1 1 783.32,518.13Z" style="fill:none;stroke:#F15A60;stroke-width:0.625" />
<path d="M790.23,439.22L790.23,439.22A3.125,3.125 0 1 1 783.98,439.22A3.125,3.125 0 1 1 790.23,439.22Z" style="fill:none;stroke:#F15A60;stroke-width:0.625" />
<path d="M797.14,358.61A3.125,3.125 0 1 1 790.89,358.61A3.125,3.125 0 1 1 797.14,358.61Z" style="fill:none;stroke:#F15A60;stroke-width:0.625" />
<path d="M804.06,427.21L804.06,427.21A3.125,3.125 0 1 1 797.81,427.21A3.125,3.125 0 1 1 804.06,427.21Z" style="fill:none;stroke:#F15A60;stroke-width:0.625" />
<path d="M810.97,297.87A3.125,3.125 0 1 1 804.72,297.87A3.125,3.125 0 1 1 810.97,297.87Z" style="fill:none;stroke:#F15A60;stroke-width:0.625" />
<path d="M817.88,226.05L817.88,226.05A3.125,3.125 0 1 1 811.63,226.05A3.125,3.125 0 1 1 817.88,226.05Z" style="fill:none;stroke:#F15A60;stroke-width:0.625" />
<path d="M824.79,199.13L824.79,199.13A3.125,3.125 0 1 1 818.54,199.13A3.125,3.125 0 1 1 824.79,199.13Z" style="fill:none;stroke:#F15A60;stroke-width:0.625" />
<path d="M831.71,308.05A3.125,3.125 0 1 1 825.46,308.05A3.125,3.125 0 1 1 831.71,308.05Z" style="fill:none;stroke:#F15A60;stroke-width:0.625" />
<path d="M838.62,152.18A3.125,3.125 0 1 1 832.37,152.18A3.125,3.125 0 1 1 838.62,152.18Z" style="fill:none;stroke:#F15A60;stroke-width:0.625" />
<path d="M845.53,200L845.53,200A3.125,3.125 0 1 1 839.28,200A3.125,3.125 0 1 1 845.53,200Z" style="fill:none;stroke:#F15A60;stroke-width:0.625" />
<path d="M852.44,154.41A3.125,3.125 0 1 1 846.19,154.41A3.125,3.125 0 1 1 852.44,154.41Z" style="fill:none;stroke:#F15A60;stroke-width:0.625" />
<path d="M859.36,109.38L859.36,109.38A3.125,3.125 0 1 1 853.11,109.38A3.125,3.125 0 1 1 859.36,109.38Z" style="fill:none;stroke:#F15A60;stroke-width:0.625" />
<path d="M866.27,225.51L866.27,225.51A3.125,3.125 0 1 1 860.02,225.51A3.125,3.125 0 1 1 866.27,225.51Z" style="fill:none;stroke:#F15A60;stroke-width:0.625" />
<path d="M873.18,255.83A3.125,3.125 0 1 1 866.93,255.83A3.125,3.125 0 1 1 873.18,255.83Z" style="fill:none;stroke:#F15A60;stroke-width:0.625" />
<path d="M880.09,49.313L880.09,49.313A3.125,3.125 0 1 1 873.84,49.313A3.125,3.125 0 1 1 880.09,49.313Z" style="fill:none;stroke:#F15A60;stroke-width:0.625" />
<path d="M887.01,74.333L887.01,74.333A3.125,3.125 0 1 1 880.76,74.333A3.125,3.125 0 1 1 887.01,74.333Z" style="fill:none;stroke:#F15A60;stroke-width:0.625" />
<path d="M893.92,268.79L893.92,268.79A3.125,3.125 0 1 1 887.67,268.79A3.125,3.125 0 1 1 893.92,268.79Z" style="fill:none;stroke:#F15A60;stroke-width:0.625" />
<path d="M900.83,259.05A3.125,3.125 0 1 1 894.58,259.05A3.125,3.125 0 1 1 900.83,259.05Z" style="fill:none;stroke:#F15A60;stroke-width:0.625" />
<path d="M907.74,270.38A3.125,3.125 0 1 1 901.49,270.38A3.125,3.125 0 1 1 907.74,270.38Z" style="fill:none;stroke:#F15A60;stroke-width:0.625" />
<path d="M914.65,220.46L914.65,220.46A3.125,3.125 0 1 1 908.4,220.46A3.125,3.125 0 1 1 914.65,220.46Z" style="fill:none;stroke:#F15A60;stroke-width:0.625" />
<path d="M921.57,107.1L921.57,107.1A3.125,3.125 0 1 1 915.32,107.1A3.125,3.125 0 1 1 921.57,107.1Z" style="fill:none;stroke:#F15A60;stroke-width:0.625" />
<path d="M928.48,276.51L928.48,276.51A3.125,3.125 0 1 1 922.23,276.51A3.125,3.125 0 1 1 928.48,276.51Z" style="fill:none;stroke:#F15A60;stroke-width:0.625" />
<path d="M935.39,170.01L935.39,170.01A3.125,3.125 0 1 1 929.14,170.01A3.125,3.125 0 1 1 935.39,170.01Z" style="fill:none;stroke:#F15A60;stroke-width:0.625" />
<path d="M942.3,285.77A3.125,3.125 0 1 1 936.05,285.77A3.125,3.125 0 1 1 942.3,285.77Z" style="fill:none;stroke:#F15A60;stroke-width:0.625" />
<path d="M949.22,350.38L949.22,350.38A3.125,3.125 0 1 1 942.97,350.38A3.125,3.125 0 1 1 949.22,350.38Z" style="fill:none;stroke:#F15A60;stroke-width:0.625" />
<path d="M956.13,206.07L956.13,206.07A3.125,3.125 0 1 1 949.88,206.07A3.125,3.125 0 1 1 956.13,206.07Z" style="fill:none;stroke:#F15A60;stroke-width:0.625" />
<path d="M963.04,150.96L963.04,150.96A3.125,3.125 0 1 1 956.79,150.96A3.125,3.125 0 1 1 963.04,150.96Z" style="fill:none;stroke:#F15A60;stroke-width:0.625" />
<path d="M969.95,259.64A3.125,3.125 0 1 1 963.7,259.64A3.125,3.125 0 1 1 969.95,259.64Z" style="fill:none;stroke:#F15A60;stroke-width:0.625" />
<path d="M976.87,381.89L976.87,381.89A3.125,3.125 0 1 1 970.62,381.89A3.125,3.125 0 1 1 976.87,381.89Z" style="fill:none;stroke:#F15A60;stroke-width:0.625" />
<path d="M983.78,343.13L983.78,343.13A3.125,3.125 0 1 1 977.53,343.13A3.125,3.125 0 1 1 983.78,343.13Z" style="fill:none;stroke:#F15A60;stroke-width:0.625" />
<path d="M990.69,284.57L990.69,284.57A3.125,3.125 0 1 1 984.44,284.57A3.125,3.125 0 1 1 990.69,284.57Z" style="fill:none;stroke:#F15A60;stroke-width:0.625" />
<path d="M997.6,414.41L997.6,414.41A3.125,3.125 0 1 1 991.35,414.41A3.125,3.125 0 1 1 997.6,414.41Z" style="fill:none;stroke:#F15A60;stroke-width:0.625" />
<path d="M1004.5,476.7L1004.5,476.7A3.125,3.125 0 1 1 998.27,476.7A3.125,3.125 0 1 1 1004.5,476.7Z" style="fill:none;stroke:#F15A60;stroke-width:0.625" />
<path d="M1011.4,424.82L1011.4,424.82A3.125,3.125 0 1 1 1005.2,424.82A3.125,3.125 0 1 1 1011.4,424.82Z" style="fill:none;stroke:#F15A60;stroke-width:0.625" />
<path d="M1018.3,462.64L1018.3,462.64A3.125,3.125 0 1 1 1012.1,462.64A3.125,3.125 0 1 1 1018.3,462.64Z" style="fill:none;stroke:#F15A60;stroke-width:0.625" />
<path d="M1025.3,433.41A3.125,3.125 0 1 1 1019,433.41A3.125,3.125 0 1 1 1025.3,433.41Z" style="fill:none;stroke:#F15A60;stroke-width:0.625" />
<path d="M1032.2,365.13L1032.2,365.13A3.125,3.125 0 1 1 1025.9,365.13A3.125,3.125 0 1 1 1032.2,365.13Z" style="fill:none;stroke:#F15A60;stroke-width:0.625" />
<path d="M1039.1,427.16A3.125,3.125 0 1 1 1032.8,427.16A3.125,3.125 0 1 1 1039.1,427.16Z" style="fill:none;stroke:#F15A60;stroke-width:0.625" />
<path d="M1046,476.63A3.125,3.125 0 1 1 1039.7,476.63A3.125,3.125 0 1 1 1046,476.63Z" style="fill:none;stroke:#F15A60;stroke-width:0.625" />
<path d="M1052.9,618.54L1052.9,618.54A3.125,3.125 0 1 1 1046.7,618.54A3.125,3.125 0 1 1 1052.9,618.54Z" style="fill:none;stroke:#F15A60;stroke-width:0.625" />
<path d="M1059.8,483.39A3.125,3.125 0 1 1 1053.6,483.39A3.125,3.125 0 1 1 1059.8,483.39Z" style="fill:none;stroke:#F15A60;stroke-width:0.625" />
<path d="M1066.7,646.7L1066.7,646.7A3.125,3.125 0 1 1 1060.5,646.7A3.125,3.125 0 1 1 1066.7,646.7Z" style="fill:none;stroke:#F15A60;stroke-width:0.625" />
<path d="M1073.6,623.71A3.125,3.125 0 1 1 1067.4,623.71A3.125,3.125 0 1 1 1073.6,623.71Z" style="fill:none;stroke:#F15A60;stroke-width:0.625" />
<path d="M1080.6,609.78A3.125,3.125 0 1 1 1074.3,609.78A3.125,3.125 0 1 1 1080.6,609.78Z" style="fill:none;stroke:#F15A60;stroke-width:0.625" />
<path d="M1087.5,552.92A3.125,3.125 0 1 1 1081.2,552.92A3.125,3.125 0 1 1 1087.5,552.92Z" style="fill:none;stroke:#F15A60;stroke-width:0.625" />
<path d="M1094.4,769.89A3.125,3.125 0 1 1 1088.1,769.89A3.125,3.125 0 1 1 1094.4,769.89Z" style="fill:none;stroke:#F15A60;stroke-width:0.625" />
<path d="M1101.3,667.9A3.125,3.125 0 1 1 1095,667.9A3.125,3.125 0 1 1 1101.3,667.9Z" style="fill:none;stroke:#F15A60;stroke-width:0.625" />
<path d="M1108.2,716.64L1108.2,716.64A3.125,3.125 0 1 1 1102,716.64A3.125,3.125 0 1 1 1108.2,716.64Z" style="fill:none;stroke:#F15A60;stroke-width:0.625" />
<path d="M1115.1,615.42A3.125,3.125 0 1 1 1108.9,615.42A3.125,3.125 0 1 1 1115.1,615.42Z" style="fill:none;stroke:#F15A60;stroke-width:0.625" />
<path d="M1122,623.41A3.125,3.125 0 1 1 1115.8,623.41A3.125,3.125 0 1 1 1122,623.41Z" style="fill:none;stroke:#F15A60;stroke-width:0.625" />
<path d="M1128.9,753.1A3.125,3.125 0 1 1 1122.7,753.1A3.125,3.125 0 1 1 1128.9,753.1Z" style="fill:none;stroke:#F15A60;stroke-width:0.625" />
<path d="M1135.9,725.46L1135.9,725.46A3.125,3.125 0 1 1 1129.6,725.46A3.125,3.125 0 1 1 1135.9,725.46Z" style="fill:none;stroke:#F15A60;stroke-width:0.625" />
<path d="M1142.8,771.7A3.125,3.125 0 1 1 1136.5,771.7A3.125,3.125 0 1 1 1142.8,771.7Z" style="fill:none;stroke:#F15A60;stroke-width:0.625" />
<path d="M1149.7,676.96A3.125,3.125 0 1 1 1143.4,676.96A3.125,3.125 0 1 1 1149.7,676.96Z" style="fill:none;stroke:#F15A60;stroke-width:0.625" />
<path d="M1156.6,570.54A3.125,3.125 0 1 1 1150.3,570.54A3.125,3.125 0 1 1 1156.6,570.54Z" style="fill:none;stroke:#F15A60;stroke-width:0.625" />
<path d="M1163.5,745.72L1163.5,745.72A3.125,3.125 0 1 1 1157.3,745.72A3.125,3.125 0 1 1 1163.5,745.72Z" style="fill:none;stroke:#F15A60;stroke-width:0.625" />
<path d="M1170.4,618.83A3.125,3.125 0 1 1 1164.2,618.83A3.125,3.125 0 1 1 1170.4,618.83Z" style="fill:none;stroke:#F15A60;stroke-width:0.625" />
<path d="M1177.3,569.95A3.125,3.125 0 1 1 1171.1,569.95A3.125,3.125 0 1 1 1177.3,569.95Z" style="fill:none;stroke:#F15A60;stroke-width:0.625" />
<path d="M1184.2,681.77L1184.2,681.77A3.125,3.125 0 1 1 1178,681.77A3.125,3.125 0 1 1 1184.2,681.77Z" style="fill:none;stroke:#F15A60;stroke-width:0.625" />
<path d="M1191.2,538.79L1191.2,538.79A3.125,3.125 0 1 1 1184.9,538.79A3.125,3.125 0 1 1 1191.2,538.79Z" style="fill:none;stroke:#F15A60;stroke-width:0.625" />
<path d="M1198.1,597.95L1198.1,597.95A3.125,3.125 0 1 1 1191.8,597.95A3.125,3.125 0 1 1 1198.1,597.95Z" style="fill:none;stroke:#F15A60;stroke-width:0.625" />
<path d="M1205,520.39A3.125,3.125 0 1 1 1198.7,520.39A3.125,3.125 0 1 1 1205,520.39Z" style="fill:none;stroke:#F15A60;stroke-width:0.625" />
<path d="M1211.9,451.96A3.125,3.125 0 1 1 1205.6,451.96A3.125,3.125 0 1 1 1211.9,451.96Z" style="fill:none;stroke:#F15A60;stroke-width:0.625" />
<path d="M1218.8,491.58A3.125,3.125 0 1 1 1212.6,491.58A3.125,3.125 0 1 1 1218.8,491.58Z" style="fill:none;stroke:#F15A60;stroke-width:0.625" />
<path d="M1225.7,512.81A3.125,3.125 0 1 1 1219.5,512.81A3.125,3.125 0 1 1 1225.7,512.81Z" style="fill:none;stroke:#F15A60;stroke-width:0.625" />
<path d="M1232.6,567.22A3.125,3.125 0 1 1 1226.4,567.22A3.125,3.125 0 1 1 1232.6,567.22Z" style="fill:none;stroke:#F15A60;stroke-width:0.625" />
<path d="M1239.5,400.67A3.125,3.125 0 1 1 1233.3,400.67A3.125,3.125 0 1 1 1239.5,400.67Z" style="fill:none;stroke:#F15A60;stroke-width:0.625" />
<path d="M1246.5,482.11A3.125,3.125 0 1 1 1240.2,482.11A3.125,3.125 0 1 1 1246.5,482.11Z" style="fill:none;stroke:#F15A60;stroke-width:0.625" />
<path d="M1253.4,387.42A3.125,3.125 0 1 1 1247.1,387.42A3.125,3.125 0 1 1 1253.4,387.42Z" style="fill:none;stroke:#F15A60;stroke-width:0.625" />
<path d="M1260.3,537.94L1260.3,537.94A3.125,3.125 0 1 1 1254,537.94A3.125,3.125 0 1 1 1260.3,537.94Z" style="fill:none;stroke:#F15A60;stroke-width:0.625" />
<path d="M1267.2,459.6L1267.2,459.6A3.125,3.125 0 1 1 1260.9,459.6A3.125,3.125 0 1 1 1267.2,459.6Z" style="fill:none;stroke:#F15A60;stroke-width:0.625" />
<path d="M1274.1,454.05L1274.1,454.05A3.125,3.125 0 1 1 1267.9,454.05A3.125,3.125 0 1 1 1274.1,454.05Z" style="fill:none;stroke:#F15A60;stroke-width:0.625" />
<path d="M1281,455.15A3.125,3.125 0 1 1 1274.8,455.15A3.125,3.125 0 1 1 1281,455.15Z" style="fill:none;stroke:#F15A60;stroke-width:0.625" />
<path d="M1287.9,357.73A3.125,3.125 0 1 1 1281.7,357.73A3.125,3.125 0 1 1 1287.9,357.73Z" style="fill:none;stroke:#F15A60;stroke-width:0.625" />
<path d="M1294.8,418.71L1294.8,418.71A3.125,3.125 0 1 1 1288.6,418.71A3.125,3.125 0 1 1 1294.8,418.71Z" style="fill:none;stroke:#F15A60;stroke-width:0.625" />
<path d="M1301.8,160.7A3.125,3.125 0 1 1 1295.5,160.7A3.125,3.125 0 1 1 1301.8,160.7Z" style="fill:none;stroke:#F15A60;stroke-width:0.625" />
<path d="M1308.7,374.81A3.125,3.125 0 1 1 1302.4,374.81A3.125,3.125 0 1 1 1308.7,374.81Z" style="fill:none;stroke:#F15A60;stroke-width:0.625" />
<path d="M1315.6,178.58L1315.6,178.58A3.125,3.125 0 1 1 1309.3,178.58A3.125,3.125 0 1 1 1315.6,178.58Z" style="fill:none;stroke:#F15A60;stroke-width:0.625" />
<path d="M1322.5,143.39L1322.5,143.39A3.125,3.125 0 1 1 1316.2,143.39A3.125,3.125 0 1 1 1322.5,143.39Z" style="fill:none;stroke:#F15A60;stroke-width:0.625" />
<path d="M1329.4,292.22A3.125,3.125 0 1 1 1323.2,292.22A3.125,3.125 0 1 1 1329.4,292.22Z" style="fill:none;stroke:#F15A60;stroke-width:0.625" />
<path d="M1336.3,231.97A3.125,3.125 0 1 1 1330.1,231.97A3.125,3.125 0 1 1 1336.3,231.97Z" style="fill:none;stroke:#F15A60;stroke-width:0.625" />
<path d="M1343.2,98.353L1343.2,98.353A3.125,3.125 0 1 1 1337,98.353A3.125,3.125 0 1 1 1343.2,98.353Z" style="fill:none;stroke:#F15A60;stroke-width:0.625" />
<path d="M1350.1,110.58A3.125,3.125 0 1 1 1343.9,110.58A3.125,3.125 0 1 1 1350.1,110.58Z" style="fill:none;stroke:#F15A60;stroke-width:0.625" />
<path d="M1357.1,197.25A3.125,3.125 0 1 1 1350.8,197.25A3.125,3.125 0 1 1 1357.1,197.25Z" style="fill:none;stroke:#F15A60;stroke-width:0.625" />
<path d="M1364,54.651L1364,54.651A3.125,3.125 0 1 1 1357.7,54.651A3.125,3.125 0 1 1 1364,54.651Z" style="fill:none;stroke:#F15A60;stroke-width:0.625" />
<path d="M1370.9,106.12A3.125,3.125 0 1 1 1364.6,106.12A3.125,3.125 0 1 1 1370.9,106.12Z" style="fill:none;stroke:#F15A60;stroke-width:0.625" />
<path d="M1377.8,214.25A3.125,3.125 0 1 1 1371.5,214.25A3.125,3.125 0 1 1 1377.8,214.25Z" style="fill:none;stroke:#F15A60;stroke-width:0.625" />
<path d="M1384.7,284.55A3.125,3.125 0 1 1 1378.5,284.55A3.125,3.125 0 1 1 1384.7,284.55Z" style="fill:none;stroke:#F15A60;stroke-width:0.625" />
<path d="M1391.6,225.01A3.125,3.125 0 1 1 1385.4,225.01A3.125,3.125 0 1 1 1391.6,225.01Z" style="fill:none;stroke:#F15A60;stroke-width:0.625" />
<path d="M1398.5,286.17L1398.5,286.17A3.125,3.125 0 1 1 1392.3,286.17A3.125,3.125 0 1 1 1398.5,286.17Z" style="fill:none;stroke:#F15A60;stroke-width:0.625" />
<path d="M1405.4,160.23L1405.4,160.23A3.125,3.125 0 1 1 1399.2,160.23A3.125,3.125 0 1 1 1405.4,160.23Z" style="fill:none;stroke:#F15A60;stroke-width:0.625" />
<path d="M1412.4,119.63A3.125,3.125 0 1 1 1406.1,119.63A3.125,3.125 0 1 1 1412.4,119.63Z" style="fill:none;stroke:#F15A60;stroke-width:0.625" />
<path d="M1419.3,112.11A3.125,3.125 0 1 1 1413,112.11A3.125,3.125 0 1 1 1419.3,112.11Z" style="fill:none;stroke:#F15A60;stroke-width:0.625" />
<path d="M1426.2,139.55L1426.2,139.55A3.125,3.125 0 1 1 1419.9,139.55A3.125,3.125 0 1 1 1426.2,139.55Z" style="fill:none;stroke:#F15A60;stroke-width:0.625" />
<path d="M1433.1,127.53A3.125,3.125 0 1 1 1426.8,127.53A3.125,3.125 0 1 1 1433.1,127.53Z" style="fill:none;stroke:#F15A60;stroke-width:0.625" />
<path d="M1440,291.03A3.125,3.125 0 1 1 1433.8,291.03A3.125,3.125 0 1 1 1440,291.03Z" style="fill:none;stroke:#F15A60;stroke-width:0.625" />
<path d="M61.3,601.19L68.212,605.21L75.125,609.53L82.037,646.97L88.95,650.99L95.862,648.05L102.77,653.33L109.69,696.51L116.6,723.71L123.51,729.77L130.42,739.68L137.34,722.34L144.25,724.55L151.16,733.46L158.07,707.79L164.99,687.34L171.9,679.25L178.81,688.54L185.72,693.56L192.64,647.28L199.55,605.21L206.46,595.39L213.37,592.81L220.29,551.95L227.2,526.03L234.11,474.65L241.02,465.77L247.94,452.34L254.85,412.75L261.76,399.15L268.67,395.86L275.59,376.06L282.5,326.23L289.41,331.79L296.32,334.24L303.24,301.77L310.15,248.68L317.06,231.68L323.97,222.59L330.89,211.02L337.8,184.66L344.71,191.24L351.62,164.72L358.53,136.25L365.45,157.59L372.36,130.3L379.27,151.97L386.18,144.65L393.1,177.37L400.01,188.01L406.92,219.71L413.83,205.7L420.75,207.85L427.66,211.39L434.57,225.21L441.48,273.35L448.4,320.73L455.31,311.81L462.22,311.31L469.13,341.09L476.05,354.72L482.96,396.46L489.87,434.77L496.78,466.31L503.7,483.62L510.61,511.91L517.52,548.33L524.43,591.76L531.35,603.82L538.26,618.52L545.17,649.49L552.08,666.9L559,700.66L565.91,732.08L572.82,754.84L579.73,761.45L586.65,788.14L593.56,760.08L600.47,737.78L607.38,717.47L614.29,701.29L621.21,710.39L628.12,729.03L635.03,725.6L641.94,745.17L648.86,735.59L655.77,718.68L662.68,695.01L669.59,698.92L676.51,674.78L683.42,665.34L690.33,629.46L697.24,580.14L704.16,554.86L711.07,541.68L717.98,536.24L724.89,514.84L731.81,478.34L738.72,465.3L745.63,426.51L752.54,379.63L759.46,333.32L766.37,316.55L773.28,268.95L780.19,240.79L787.11,210.32L794.02,176.85L800.93,175.73L807.84,186.48L814.76,151.81L821.67,127.19L828.58,149.44L835.49,170.49L842.41,191.4L849.32,199.33L856.23,180.1L863.14,199.05L870.06,192.76L876.97,214.66L883.88,245.18L890.79,236.34L897.7,216.66L904.62,224.14L911.53,259.39L918.44,281.89L925.35,285.31L932.27,317.74L939.18,358.08L946.09,381.97L953,412.51L959.92,430.06L966.83,425.18L973.74,431.62L980.65,448.07L987.57,493.1L994.48,499.38L1001.4,540.67L1008.3,572.55L1015.2,596.32L1022.1,603.61L1029,656.74L1036,676.8L1042.9,701.81L1049.8,698.04L1056.7,696.15L1063.6,719.93L1070.5,734.84L1077.4,757.61L1084.3,755.02L1091.3,725.38L1098.2,740.14L1105.1,724.4L1112,700.11L1118.9,702.12L1125.8,670.49L1132.7,657.54L1139.6,630.32L1146.6,593.99L1153.5,572.2L1160.4,557.16L1167.3,560.18L1174.2,527.02L1181.1,516.41L1188,489.5L1194.9,500.23L1201.9,494.84L1208.8,489.72L1215.7,484.79L1222.6,458.85L1229.5,450.52L1236.4,387.84L1243.3,379.34L1250.2,329.37L1257.2,276.7L1264.1,267.38L1271,248.69L1277.9,205.49L1284.8,173.96L1291.7,168.11L1298.6,135.71L1305.5,117.54L1312.5,130.42L1319.4,158.22L1326.3,169.1L1333.2,195.42L1340.1,192.05L1347,177.99L1353.9,162.02L1360.8,154.35L1367.8,141.86L1374.7,165.61L1381.6,163.51L1388.5,163.89L1395.4,166.26L1402.3,176.96L1409.2,193.79L1416.1,216.79L1423.1,247L1430,294.15L1436.9,299.35" style="fill:none;stroke:#7AC36A;stroke-width:1.25;stroke-dasharray:7.5,2.5" />
<path d="M58.633,598.52L63.967,598.52L63.967,603.85L58.633,603.85Z" style="fill:none;stroke:#7AC36A;stroke-width:0.625" />
<path d="M65.545,602.54L70.88,602.54L70.88,607.88L65.545,607.88Z" style="fill:none;stroke:#7AC36A;stroke-width:0.625" />
<path d="M72.458,606.87L77.792,606.87L77.792,612.2L72.458,612.2Z" style="fill:none;stroke:#7AC36A;stroke-width:0.625" />
<path d="M79.37,644.3L84.705,644.3L84.705,649.64L79.37,649.64Z" style="fill:none;stroke:#7AC36A;stroke-width:0.625" />
<path d="M86.282,648.32L91.617,648.32L91.617,653.66L86.282,653.66Z" style="fill:none;stroke:#7AC36A;stroke-width:0.625" />
<path d="M93.195,645.38L98.53,645.38L98.53,650.72L93.195,650.72Z" style="fill:none;stroke:#7AC36A;stroke-width:0.625" />
<path d="M100.11,650.66L105.44,650.66L105.44,655.99L100.11,655.99Z" style="fill:none;stroke:#7AC36A;stroke-width:0.625" />
<path d="M107.02,693.84L112.35,693.84L112.35,699.18L107.02,699.18Z" style="fill:none;stroke:#7AC36A;stroke-width:0.625" />
<path d="M113.93,721.04L119.27,721.04L119.27,726.37L113.93,726.37Z" style="fill:none;stroke:#7AC36A;stroke-width:0.625" />
<path d="M120.84,727.1L126.18,727.1L126.18,732.44L120.84,732.44Z" style="fill:none;stroke:#7AC36A;stroke-width:0.625" />
<path d="M127.76,737.01L133.09,737.01L133.09,742.35L127.76,742.35Z" style="fill:none;stroke:#7AC36A;stroke-width:0.625" />
<path d="M134.67,719.67L140,719.67L140,725L134.67,725Z" style="fill:none;stroke:#7AC36A;stroke-width:0.625" />
<path d="M141.58,721.88L146.92,721.88L146.92,727.22L141.58,727.22Z" style="fill:none;stroke:#7AC36A;stroke-width:0.625" />
<path d="M148.49,730.79L153.83,730.79L153.83,736.13L148.49,736.13Z" style="fill:none;stroke:#7AC36A;stroke-width:0.625" />
<path d="M155.41,705.12L160.74,705.12L160.74,710.46L155.41,710.46Z" style="fill:none;stroke:#7AC36A;stroke-width:0.625" />
<path d="M162.32,684.67L167.65,684.67L167.65,690L162.32,690Z" style="fill:none;stroke:#7AC36A;stroke-width:0.625" />
<path d="M169.23,676.59L174.57,676.59L174.57,681.92L169.23,681.92Z" style="fill:none;stroke:#7AC36A;stroke-width:0.625" />
<path d="M176.14,685.88L181.48,685.88L181.48,691.21L176.14,691.21Z" style="fill:none;stroke:#7AC36A;stroke-width:0.625" />
<path d="M183.06,690.89L188.39,690.89L188.39,696.23L183.06,696.23Z" style="fill:none;stroke:#7AC36A;stroke-width:0.625" />
<path d="M189.97,644.61L195.3,644.61L195.3,649.94L189.97,649.94Z" style="fill:none;stroke:#7AC36A;stroke-width:0.625" />
<path d="M196.88,602.55L202.22,602.55L202.22,607.88L196.88,607.88Z" style="fill:none;stroke:#7AC36A;stroke-width:0.625" />
<path d="M203.79,592.72L209.13,592.72L209.13,598.06L203.79,598.06Z" style="fill:none;stroke:#7AC36A;stroke-width:0.625" />
<path d="M210.71,590.14L216.04,590.14L216.04,595.48L210.71,595.48Z" style="fill:none;stroke:#7AC36A;stroke-width:0.625" />
<path d="M217.62,549.29L222.95,549.29L222.95,554.62L217.62,554.62Z" style="fill:none;stroke:#7AC36A;stroke-width:0.625" />
<path d="M224.53,523.36L229.87,523.36L229.87,528.7L224.53,528.7Z" style="fill:none;stroke:#7AC36A;stroke-width:0.625" />
<path d="M231.44,471.98L236.78,471.98L236.78,477.32L231.44,477.32Z" style="fill:none;stroke:#7AC36A;stroke-width:0.625" />
<path d="M238.36,463.11L243.69,463.11L243.69,468.44L238.36,468.44Z" style="fill:none;stroke:#7AC36A;stroke-width:0.625" />
<path d="M245.27,449.68L250.6,449.68L250.6,455.01L245.27,455.01Z" style="fill:none;stroke:#7AC36A;stroke-width:0.625" />
<path d="M252.18,410.08L257.52,410.08L257.52,415.42L252.18,415.42Z" style="fill:none;stroke:#7AC36A;stroke-width:0.625" />
<path d="M259.09,396.48L264.43,396.48L264.43,401.82L259.09,401.82Z" style="fill:none;stroke:#7AC36A;stroke-width:0.625" />
<path d="M266.01,393.2L271.34,393.2L271.34,398.53L266.01,398.53Z" style="fill:none;stroke:#7AC36A;stroke-width:0.625" />
<path d="M272.92,373.39L278.25,373.39L278.25,378.72L272.92,378.72Z" style="fill:none;stroke:#7AC36A;stroke-width:0.625" />
<path d="M279.83,323.56L285.17,323.56L285.17,328.89L279.83,328.89Z" style="fill:none;stroke:#7AC36A;stroke-width:0.625" />
<path d="M286.74,329.12L292.08,329.12L292.08,334.46L286.74,334.46Z" style="fill:none;stroke:#7AC36A;stroke-width:0.625" />
<path d="M293.66,331.57L298.99,331.57L298.99,336.91L293.66,336.91Z" style="fill:none;stroke:#7AC36A;stroke-width:0.625" />
<path d="M300.57,299.1L305.9,299.1L305.9,304.44L300.57,304.44Z" style="fill:none;stroke:#7AC36A;stroke-width:0.625" />
<path d="M307.48,246.01L312.82,246.01L312.82,251.35L307.48,251.35Z" style="fill:none;stroke:#7AC36A;stroke-width:0.625" />
<path d="M314.39,229.01L319.73,229.01L319.73,234.35L314.39,234.35Z" style="fill:none;stroke:#7AC36A;stroke-width:0.625" />
<path d="M321.31,219.93L326.64,219.93L326.64,225.26L321.31,225.26Z" style="fill:none;stroke:#7AC36A;stroke-width:0.625" />
<path d="M328.22,208.35L333.55,208.35L333.55,213.69L328.22,213.69Z" style="fill:none;stroke:#7AC36A;stroke-width:0.625" />
<path d="M335.13,181.99L340.46,181.99L340.46,187.33L335.13,187.33Z" style="fill:none;stroke:#7AC36A;stroke-width:0.625" />
<path d="M342.04,188.57L347.38,188.57L347.38,193.91L342.04,193.91Z" style="fill:none;stroke:#7AC36A;stroke-width:0.625" />
<path d="M348.96,162.05L354.29,162.05L354.29,167.39L348.96,167.39Z" style="fill:none;stroke:#7AC36A;stroke-width:0.625" />
<path d="M355.87,133.58L361.2,133.58L361.2,138.92L355.87,138.92Z" style="fill:none;stroke:#7AC36A;stroke-width:0.625" />
<path d="M362.78,154.92L368.11,154.92L368.11,160.25L362.78,160.25Z" style="fill:none;stroke:#7AC36A;stroke-width:0.625" />
<path d="M369.69,127.64L375.03,127.64L375.03,132.97L369.69,132.97Z" style="fill:none;stroke:#7AC36A;stroke-width:0.625" />
<path d="M376.6,149.3L381.94,149.3L381.94,154.64L376.6,154.64Z" style="fill:none;stroke:#7AC36A;stroke-width:0.625" />
<path d="M383.52,141.98L388.85,141.98L388.85,147.31L383.52,147.31Z" style="fill:none;stroke:#7AC36A;stroke-width:0.625" />
<path d="M390.43,174.7L395.76,174.7L395.76,180.04L390.43,180.04Z" style="fill:none;stroke:#7AC36A;stroke-width:0.625" />
<path d="M397.34,185.35L402.68,185.35L402.68,190.68L397.34,190.68Z" style="fill:none;stroke:#7AC36A;stroke-width:0.625" />
<path d="M404.25,217.04L409.59,217.04L409.59,222.38L404.25,222.38Z" style="fill:none;stroke:#7AC36A;stroke-width:0.625" />
<path d="M411.17,203.03L416.5,203.03L416.5,208.36L411.17,208.36Z" style="fill:none;stroke:#7AC36A;stroke-width:0.625" />
<path d="M418.08,205.18L423.41,205.18L423.41,210.52L418.08,210.52Z" style="fill:none;stroke:#7AC36A;stroke-width:0.625" />
<path d="M424.99,208.73L430.33,208.73L430.33,214.06L424.99,214.06Z" style="fill:none;stroke:#7AC36A;stroke-width:0.625" />
<path d="M431.9,222.54L437.24,222.54L437.24,227.88L431.9,227.88Z" style="fill:none;stroke:#7AC36A;stroke-width:0.625" />
<path d="M438.82,270.69L444.15,270.69L444.15,276.02L438.82,276.02Z" style="fill:none;stroke:#7AC36A;stroke-width:0.625" />
<path d="M445.73,318.06L451.06,318.06L451.06,323.39L445.73,323.39Z" style="fill:none;stroke:#7AC36A;stroke-width:0.625" />
<path d="M452.64,309.15L457.98,309.15L457.98,314.48L452.64,314.48Z" style="fill:none;stroke:#7AC36A;stroke-width:0.625" />
<path d="M459.55,308.65L464.89,308.65L464.89,313.98L459.55,313.98Z" style="fill:none;stroke:#7AC36A;stroke-width:0.625" />
<path d="M466.47,338.42L471.8,338.42L471.8,343.76L466.47,343.76Z" style="fill:none;stroke:#7AC36A;stroke-width:0.625" />
<path d="M473.38,352.05L478.71,352.05L478.71,357.38L473.38,357.38Z" style="fill:none;stroke:#7AC36A;stroke-width:0.625" />
<path d="M480.29,393.8L485.63,393.8L485.63,399.13L480.29,399.13Z" style="fill:none;stroke:#7AC36A;stroke-width:0.625" />
<path d="M487.2,432.11L492.54,432.11L492.54,437.44L487.2,437.44Z" style="fill:none;stroke:#7AC36A;stroke-width:0.625" />
<path d="M494.12,463.64L499.45,463.64L499.45,468.97L494.12,468.97Z" style="fill:none;stroke:#7AC36A;stroke-width:0.625" />
<path d="M501.03,480.95L506.36,480.95L506.36,486.28L501.03,486.28Z" style="fill:none;stroke:#7AC36A;stroke-width:0.625" />
<path d="M507.94,509.25L513.28,509.25L513.28,514.58L507.94,514.58Z" style="fill:none;stroke:#7AC36A;stroke-width:0.625" />
<path d="M514.85,545.66L520.19,545.66L520.19,551L514.85,551Z" style="fill:none;stroke:#7AC36A;stroke-width:0.625" />
<path d="M521.77,589.09L527.1,589.09L527.1,594.43L521.77,594.43Z" style="fill:none;stroke:#7AC36A;stroke-width:0.625" />
<path d="M528.68,601.15L534.01,601.15L534.01,606.48L528.68,606.48Z" style="fill:none;stroke:#7AC36A;stroke-width:0.625" />
<path d="M535.59,615.85L540.93,615.85L540.93,621.18L535.59,621.18Z" style="fill:none;stroke:#7AC36A;stroke-width:0.625" />
<path d="M542.5,646.82L547.84,646.82L547.84,652.16L542.5,652.16Z" style="fill:none;stroke:#7AC36A;stroke-width:0.625" />
<path d="M549.42,664.23L554.75,664.23L554.75,669.57L549.42,669.57Z" style="fill:none;stroke:#7AC36A;stroke-width:0.625" />
<path d="M556.33,697.99L561.66,697.99L561.66,703.32L556.33,703.32Z" style="fill:none;stroke:#7AC36A;stroke-width:0.625" />
<path d="M563.24,729.41L568.58,729.41L568.58,734.74L563.24,734.74Z" style="fill:none;stroke:#7AC36A;stroke-width:0.625" />
<path d="M570.15,752.18L575.49,752.18L575.49,757.51L570.15,757.51Z" style="fill:none;stroke:#7AC36A;stroke-width:0.625" />
<path d="M577.07,758.78L582.4,758.78L582.4,764.12L577.07,764.12Z" style="fill:none;stroke:#7AC36A;stroke-width:0.625" />
<path d="M583.98,785.48L589.31,785.48L589.31,790.81L583.98,790.81Z" style="fill:none;stroke:#7AC36A;stroke-width:0.625" />
<path d="M590.89,757.41L596.23,757.41L596.23,762.75L590.89,762.75Z" style="fill:none;stroke:#7AC36A;stroke-width:0.625" />
<path d="M597.8,735.11L603.14,735.11L603.14,740.45L597.8,740.45Z" style="fill:none;stroke:#7AC36A;stroke-width:0.625" />
<path d="M604.72,714.81L610.05,714.81L610.05,720.14L604.72,720.14Z" style="fill:none;stroke:#7AC36A;stroke-width:0.625" />
<path d="M611.63,698.62L616.96,698.62L616.96,703.96L611.63,703.96Z" style="fill:none;stroke:#7AC36A;stroke-width:0.625" />
<path d="M618.54,707.72L623.87,707.72L623.87,713.05L618.54,713.05Z" style="fill:none;stroke:#7AC36A;stroke-width:0.625" />
<path d="M625.45,726.37L630.79,726.37L630.79,731.7L625.45,731.7Z" style="fill:none;stroke:#7AC36A;stroke-width:0.625" />
<path d="M632.36,722.93L637.7,722.93L637.7,728.27L632.36,728.27Z" style="fill:none;stroke:#7AC36A;stroke-width:0.625" />
<path d="M639.28,742.51L644.61,742.51L644.61,747.84L639.28,747.84Z" style="fill:none;stroke:#7AC36A;stroke-width:0.625" />
<path d="M646.19,732.93L651.52,732.93L651.52,738.26L646.19,738.26Z" style="fill:none;stroke:#7AC36A;stroke-width:0.625" />
<path d="M653.1,716.02L658.44,716.02L658.44,721.35L653.1,721.35Z" style="fill:none;stroke:#7AC36A;stroke-width:0.625" />
<path d="M660.01,692.35L665.35,692.35L665.35,697.68L660.01,697.68Z" style="fill:none;stroke:#7AC36A;stroke-width:0.625" />
<path d="M666.93,696.26L672.26,696.26L672.26,701.59L666.93,701.59Z" style="fill:none;stroke:#7AC36A;stroke-width:0.625" />
<path d="M673.84,672.11L679.17,672.11L679.17,677.45L673.84,677.45Z" style="fill:none;stroke:#7AC36A;stroke-width:0.625" />
<path d="M680.75,662.67L686.09,662.67L686.09,668.01L680.75,668.01Z" style="fill:none;stroke:#7AC36A;stroke-width:0.625" />
<path d="M687.66,626.79L693,626.79L693,632.13L687.66,632.13Z" style="fill:none;stroke:#7AC36A;stroke-width:0.625" />
<path d="M694.58,577.47L699.91,577.47L699.91,582.8L694.58,582.8Z" style="fill:none;stroke:#7AC36A;stroke-width:0.625" />
<path d="M701.49,552.19L706.82,552.19L706.82,557.53L701.49,557.53Z" style="fill:none;stroke:#7AC36A;stroke-width:0.625" />
<path d="M708.4,539.01L713.74,539.01L713.74,544.35L708.4,544.35Z" style="fill:none;stroke:#7AC36A;stroke-width:0.625" />
<path d="M715.31,533.57L720.65,533.57L720.65,538.91L715.31,538.91Z" style="fill:none;stroke:#7AC36A;stroke-width:0.625" />
<path d="M722.23,512.17L727.56,512.17L727.56,517.51L722.23,517.51Z" style="fill:none;stroke:#7AC36A;stroke-width:0.625" />
<path d="M729.14,475.68L734.47,475.68L734.47,481.01L729.14,481.01Z" style="fill:none;stroke:#7AC36A;stroke-width:0.625" />
<path d="M736.05,462.63L741.39,462.63L741.39,467.96L736.05,467.96Z" style="fill:none;stroke:#7AC36A;stroke-width:0.625" />
<path d="M742.96,423.84L748.3,423.84L748.3,429.17L742.96,429.17Z" style="fill:none;stroke:#7AC36A;stroke-width:0.625" />
<path d="M749.88,376.96L755.21,376.96L755.21,382.3L749.88,382.3Z" style="fill:none;stroke:#7AC36A;stroke-width:0.625" />
<path d="M756.79,330.65L762.12,330.65L762.12,335.99L756.79,335.99Z" style="fill:none;stroke:#7AC36A;stroke-width:0.625" />
<path d="M763.7,313.89L769.04,313.89L769.04,319.22L763.7,319.22Z" style="fill:none;stroke:#7AC36A;stroke-width:0.625" />
<path d="M770.61,266.28L775.95,266.28L775.95,271.62L770.61,271.62Z" style="fill:none;stroke:#7AC36A;stroke-width:0.625" />
<path d="M777.53,238.12L782.86,238.12L782.86,243.46L777.53,243.46Z" style="fill:none;stroke:#7AC36A;stroke-width:0.625" />
<path d="M784.44,207.66L789.77,207.66L789.77,212.99L784.44,212.99Z" style="fill:none;stroke:#7AC36A;stroke-width:0.625" />
<path d="M791.35,174.18L796.69,174.18L796.69,179.51L791.35,179.51Z" style="fill:none;stroke:#7AC36A;stroke-width:0.625" />
<path d="M798.26,173.06L803.6,173.06L803.6,178.4L798.26,178.4Z" style="fill:none;stroke:#7AC36A;stroke-width:0.625" />
<path d="M805.18,183.81L810.51,183.81L810.51,189.14L805.18,189.14Z" style="fill:none;stroke:#7AC36A;stroke-width:0.625" />
<path d="M812.09,149.14L817.42,149.14L817.42,154.48L812.09,154.48Z" style="fill:none;stroke:#7AC36A;stroke-width:0.625" />
<path d="M819,124.52L824.34,124.52L824.34,129.86L819,129.86Z" style="fill:none;stroke:#7AC36A;stroke-width:0.625" />
<path d="M825.91,146.77L831.25,146.77L831.25,152.11L825.91,152.11Z" style="fill:none;stroke:#7AC36A;stroke-width:0.625" />
<path d="M832.83,167.82L838.16,167.82L838.16,173.15L832.83,173.15Z" style="fill:none;stroke:#7AC36A;stroke-width:0.625" />
<path d="M839.74,188.74L845.07,188.74L845.07,194.07L839.74,194.07Z" style="fill:none;stroke:#7AC36A;stroke-width:0.625" />
<path d="M846.65,196.67L851.99,196.67L851.99,202L846.65,202Z" style="fill:none;stroke:#7AC36A;stroke-width:0.625" />
<path d="M853.56,177.44L858.9,177.44L858.9,182.77L853.56,182.77Z" style="fill:none;stroke:#7AC36A;stroke-width:0.625" />
<path d="M860.48,196.38L865.81,196.38L865.81,201.72L860.48,201.72Z" style="fill:none;stroke:#7AC36A;stroke-width:0.625" />
<path d="M867.39,190.09L872.72,190.09L872.72,195.43L867.39,195.43Z" style="fill:none;stroke:#7AC36A;stroke-width:0.625" />
<path d="M874.3,211.99L879.63,211.99L879.63,217.33L874.3,217.33Z" style="fill:none;stroke:#7AC36A;stroke-width:0.625" />
<path d="M881.21,242.52L886.55,242.52L886.55,247.85L881.21,247.85Z" style="fill:none;stroke:#7AC36A;stroke-width:0.625" />
<path d="M888.13,233.67L893.46,233.67L893.46,239.01L888.13,239.01Z" style="fill:none;stroke:#7AC36A;stroke-width:0.625" />
<path d="M895.04,213.99L900.37,213.99L900.37,219.33L895.04,219.33Z" style="fill:none;stroke:#7AC36A;stroke-width:0.625" />
<path d="M901.95,221.47L907.28,221.47L907.28,226.8L901.95,226.8Z" style="fill:none;stroke:#7AC36A;stroke-width:0.625" />
<path d="M908.86,256.72L914.2,256.72L914.2,262.06L908.86,262.06Z" style="fill:none;stroke:#7AC36A;stroke-width:0.625" />
<path d="M915.77,279.22L921.11,279.22L921.11,284.55L915.77,284.55Z" style="fill:none;stroke:#7AC36A;stroke-width:0.625" />
<path d="M922.69,282.64L928.02,282.64L928.02,287.97L922.69,287.97Z" style="fill:none;stroke:#7AC36A;stroke-width:0.625" />
<path d="M929.6,315.07L934.93,315.07L934.93,320.41L929.6,320.41Z" style="fill:none;stroke:#7AC36A;stroke-width:0.625" />
<path d="M936.51,355.41L941.85,355.41L941.85,360.75L936.51,360.75Z" style="fill:none;stroke:#7AC36A;stroke-width:0.625" />
<path d="M943.42,379.3L948.76,379.3L948.76,384.64L943.42,384.64Z" style="fill:none;stroke:#7AC36A;stroke-width:0.625" />
<path d="M950.34,409.84L955.67,409.84L955.67,415.18L950.34,415.18Z" style="fill:none;stroke:#7AC36A;stroke-width:0.625" />
<path d="M957.25,427.39L962.58,427.39L962.58,432.72L957.25,432.72Z" style="fill:none;stroke:#7AC36A;stroke-width:0.625" />
<path d="M964.16,422.51L969.5,422.51L969.5,427.85L964.16,427.85Z" style="fill:none;stroke:#7AC36A;stroke-width:0.625" />
<path d="M971.07,428.96L976.41,428.96L976.41,434.29L971.07,434.29Z" style="fill:none;stroke:#7AC36A;stroke-width:0.625" />
<path d="M977.99,445.4L983.32,445.4L983.32,450.73L977.99,450.73Z" style="fill:none;stroke:#7AC36A;stroke-width:0.625" />
<path d="M984.9,490.43L990.23,490.43L990.23,495.77L984.9,495.77Z" style="fill:none;stroke:#7AC36A;stroke-width:0.625" />
<path d="M991.81,496.71L997.15,496.71L997.15,502.04L991.81,502.04Z" style="fill:none;stroke:#7AC36A;stroke-width:0.625" />
<path d="M998.72,538L1004.1,538L1004.1,543.34L998.72,543.34Z" style="fill:none;stroke:#7AC36A;stroke-width:0.625" />
<path d="M1005.6,569.88L1011,569.88L1011,575.21L1005.6,575.21Z" style="fill:none;stroke:#7AC36A;stroke-width:0.625" />
<path d="M1012.5,593.65L1017.9,593.65L1017.9,598.98L1012.5,598.98Z" style="fill:none;stroke:#7AC36A;stroke-width:0.625" />
<path d="M1019.5,600.94L1024.8,600.94L1024.8,606.28L1019.5,606.28Z" style="fill:none;stroke:#7AC36A;stroke-width:0.625" />
<path d="M1026.4,654.07L1031.7,654.07L1031.7,659.4L1026.4,659.4Z" style="fill:none;stroke:#7AC36A;stroke-width:0.625" />
<path d="M1033.3,674.13L1038.6,674.13L1038.6,679.46L1033.3,679.46Z" style="fill:none;stroke:#7AC36A;stroke-width:0.625" />
<path d="M1040.2,699.14L1045.5,699.14L1045.5,704.47L1040.2,704.47Z" style="fill:none;stroke:#7AC36A;stroke-width:0.625" />
<path d="M1047.1,695.37L1052.4,695.37L1052.4,700.71L1047.1,700.71Z" style="fill:none;stroke:#7AC36A;stroke-width:0.625" />
<path d="M1054,693.48L1059.4,693.48L1059.4,698.81L1054,698.81Z" style="fill:none;stroke:#7AC36A;stroke-width:0.625" />
<path d="M1060.9,717.27L1066.3,717.27L1066.3,722.6L1060.9,722.6Z" style="fill:none;stroke:#7AC36A;stroke-width:0.625" />
<path d="M1067.8,732.18L1073.2,732.18L1073.2,737.51L1067.8,737.51Z" style="fill:none;stroke:#7AC36A;stroke-width:0.625" />
<path d="M1074.8,754.95L1080.1,754.95L1080.1,760.28L1074.8,760.28Z" style="fill:none;stroke:#7AC36A;stroke-width:0.625" />
<path d="M1081.7,752.35L1087,752.35L1087,757.69L1081.7,757.69Z" style="fill:none;stroke:#7AC36A;stroke-width:0.625" />
<path d="M1088.6,722.71L1093.9,722.71L1093.9,728.05L1088.6,728.05Z" style="fill:none;stroke:#7AC36A;stroke-width:0.625" />
<path d="M1095.5,737.47L1100.8,737.47L1100.8,742.81L1095.5,742.81Z" style="fill:none;stroke:#7AC36A;stroke-width:0.625" />
<path d="M1102.4,721.73L1107.7,721.73L1107.7,727.07L1102.4,727.07Z" style="fill:none;stroke:#7AC36A;stroke-width:0.625" />
<path d="M1109.3,697.44L1114.7,697.44L1114.7,702.78L1109.3,702.78Z" style="fill:none;stroke:#7AC36A;stroke-width:0.625" />
<path d="M1116.2,699.45L1121.6,699.45L1121.6,704.78L1116.2,704.78Z" style="fill:none;stroke:#7AC36A;stroke-width:0.625" />
<path d="M1123.1,667.82L1128.5,667.82L1128.5,673.16L1123.1,673.16Z" style="fill:none;stroke:#7AC36A;stroke-width:0.625" />
<path d="M1130.1,654.87L1135.4,654.87L1135.4,660.21L1130.1,660.21Z" style="fill:none;stroke:#7AC36A;stroke-width:0.625" />
<path d="M1137,627.65L1142.3,627.65L1142.3,632.99L1137,632.99Z" style="fill:none;stroke:#7AC36A;stroke-width:0.625" />
<path d="M1143.9,591.32L1149.2,591.32L1149.2,596.66L1143.9,596.66Z" style="fill:none;stroke:#7AC36A;stroke-width:0.625" />
<path d="M1150.8,569.53L1156.1,569.53L1156.1,574.86L1150.8,574.86Z" style="fill:none;stroke:#7AC36A;stroke-width:0.625" />
<path d="M1157.7,554.49L1163,554.49L1163,559.82L1157.7,559.82Z" style="fill:none;stroke:#7AC36A;stroke-width:0.625" />
<path d="M1164.6,557.51L1170,557.51L1170,562.85L1164.6,562.85Z" style="fill:none;stroke:#7AC36A;stroke-width:0.625" />
<path d="M1171.5,524.35L1176.9,524.35L1176.9,529.69L1171.5,529.69Z" style="fill:none;stroke:#7AC36A;stroke-width:0.625" />
<path d="M1178.4,513.75L1183.8,513.75L1183.8,519.08L1178.4,519.08Z" style="fill:none;stroke:#7AC36A;stroke-width:0.625" />
<path d="M1185.4,486.83L1190.7,486.83L1190.7,492.17L1185.4,492.17Z" style="fill:none;stroke:#7AC36A;stroke-width:0.625" />
<path d="M1192.3,497.56L1197.6,497.56L1197.6,502.9L1192.3,502.9Z" style="fill:none;stroke:#7AC36A;stroke-width:0.625" />
<path d="M1199.2,492.17L1204.5,492.17L1204.5,497.51L1199.2,497.51Z" style="fill:none;stroke:#7AC36A;stroke-width:0.625" />
<path d="M1206.1,487.05L1211.4,487.05L1211.4,492.38L1206.1,492.38Z" style="fill:none;stroke:#7AC36A;stroke-width:0.625" />
<path d="M1213,482.12L1218.3,482.12L1218.3,487.46L1213,487.46Z" style="fill:none;stroke:#7AC36A;stroke-width:0.625" />
<path d="M1219.9,456.19L1225.3,456.19L1225.3,461.52L1219.9,461.52Z" style="fill:none;stroke:#7AC36A;stroke-width:0.625" />
<path d="M1226.8,447.85L1232.2,447.85L1232.2,453.18L1226.8,453.18Z" style="fill:none;stroke:#7AC36A;stroke-width:0.625" />
<path d="M1233.7,385.17L1239.1,385.17L1239.1,390.51L1233.7,390.51Z" style="fill:none;stroke:#7AC36A;stroke-width:0.625" />
<path d="M1240.7,376.67L1246,376.67L1246,382.01L1240.7,382.01Z" style="fill:none;stroke:#7AC36A;stroke-width:0.625" />
<path d="M1247.6,326.7L1252.9,326.7L1252.9,332.03L1247.6,332.03Z" style="fill:none;stroke:#7AC36A;stroke-width:0.625" />
<path d="M1254.5,274.03L1259.8,274.03L1259.8,279.36L1254.5,279.36Z" style="fill:none;stroke:#7AC36A;stroke-width:0.625" />
<path d="M1261.4,264.71L1266.7,264.71L1266.7,270.05L1261.4,270.05Z" style="fill:none;stroke:#7AC36A;stroke-width:0.625" />
<path d="M1268.3,246.02L1273.6,246.02L1273.6,251.36L1268.3,251.36Z" style="fill:none;stroke:#7AC36A;stroke-width:0.625" />
<path d="M1275.2,202.82L1280.6,202.82L1280.6,208.15L1275.2,208.15Z" style="fill:none;stroke:#7AC36A;stroke-width:0.625" />
<path d="M1282.1,171.29L1287.5,171.29L1287.5,176.62L1282.1,176.62Z" style="fill:none;stroke:#7AC36A;stroke-width:0.625" />
<path d="M1289,165.44L1294.4,165.44L1294.4,170.77L1289,170.77Z" style="fill:none;stroke:#7AC36A;stroke-width:0.625" />
<path d="M1296,133.04L1301.3,133.04L1301.3,138.37L1296,138.37Z" style="fill:none;stroke:#7AC36A;stroke-width:0.625" />
<path d="M1302.9,114.87L1308.2,114.87L1308.2,120.21L1302.9,120.21Z" style="fill:none;stroke:#7AC36A;stroke-width:0.625" />
<path d="M1309.8,127.75L1315.1,127.75L1315.1,133.08L1309.8,133.08Z" style="fill:none;stroke:#7AC36A;stroke-width:0.625" />
<path d="M1316.7,155.55L1322,155.55L1322,160.89L1316.7,160.89Z" style="fill:none;stroke:#7AC36A;stroke-width:0.625" />
<path d="M1323.6,166.43L1328.9,166.43L1328.9,171.77L1323.6,171.77Z" style="fill:none;stroke:#7AC36A;stroke-width:0.625" />
<path d="M1330.5,192.75L1335.9,192.75L1335.9,198.09L1330.5,198.09Z" style="fill:none;stroke:#7AC36A;stroke-width:0.625" />
<path d="M1337.4,189.38L1342.8,189.38L1342.8,194.72L1337.4,194.72Z" style="fill:none;stroke:#7AC36A;stroke-width:0.625" />
<path d="M1344.3,175.33L1349.7,175.33L1349.7,180.66L1344.3,180.66Z" style="fill:none;stroke:#7AC36A;stroke-width:0.625" />
<path d="M1351.3,159.35L1356.6,159.35L1356.6,164.69L1351.3,164.69Z" style="fill:none;stroke:#7AC36A;stroke-width:0.625" />
<path d="M1358.2,151.68L1363.5,151.68L1363.5,157.02L1358.2,157.02Z" style="fill:none;stroke:#7AC36A;stroke-width:0.625" />
<path d="M1365.1,139.19L1370.4,139.19L1370.4,144.52L1365.1,144.52Z" style="fill:none;stroke:#7AC36A;stroke-width:0.625" />
<path d="M1372,162.94L1377.3,162.94L1377.3,168.28L1372,168.28Z" style="fill:none;stroke:#7AC36A;stroke-width:0.625" />
<path d="M1378.9,160.84L1384.2,160.84L1384.2,166.18L1378.9,166.18Z" style="fill:none;stroke:#7AC36A;stroke-width:0.625" />
<path d="M1385.8,161.23L1391.2,161.23L1391.2,166.56L1385.8,166.56Z" style="fill:none;stroke:#7AC36A;stroke-width:0.625" />
<path d="M1392.7,163.6L1398.1,163.6L1398.1,168.93L1392.7,168.93Z" style="fill:none;stroke:#7AC36A;stroke-width:0.625" />
<path d="M1399.6,174.29L1405,174.29L1405,179.62L1399.6,179.62Z" style="fill:none;stroke:#7AC36A;stroke-width:0.625" />
<path d="M1406.6,191.12L1411.9,191.12L1411.9,196.46L1406.6,196.46Z" style="fill:none;stroke:#7AC36A;stroke-width:0.625" />
<path d="M1413.5,214.12L1418.8,214.12L1418.8,219.45L1413.5,219.45Z" style="fill:none;stroke:#7AC36A;stroke-width:0.625" />
<path d="M1420.4,244.33L1425.7,244.33L1425.7,249.67L1420.4,249.67Z" style="fill:none;stroke:#7AC36A;stroke-width:0.625" />
<path d="M1427.3,291.48L1432.6,291.48L1432.6,296.82L1427.3,296.82Z" style="fill:none;stroke:#7AC36A;stroke-width:0.625" />
<path d="M1434.2,296.68L1439.5,296.68L1439.5,302.02L1434.2,302.02Z" style="fill:none;stroke:#7AC36A;stroke-width:0.625" />
<path d="M1415,66.978L1440,66.978" style="fill:none;stroke:#F15A60;stroke-width:1.25" />
<path d="M1430.6,66.978A3.125,3.125 0 1 1 1424.4,66.978A3.125,3.125 0 1 1 1430.6,66.978Z" style="fill:none;stroke:#F15A60;stroke-width:0.625" />
<text x="1388.8" y="-61.188" transform="scale(1, -1)"
	style="font-family:Times;font-weight:normal;font-style:normal;font-size:12pt">raw</text>
<path d="M1415,53.117L1440,53.117" style="fill:none;stroke:#7AC36A;stroke-width:1.25;stroke-dasharray:7.5,2.5" />
<path d="M1424.8,50.45L1430.2,50.45L1430.2,55.785L1424.8,55.785Z" style="fill:none;stroke:#7AC36A;stroke-width:0.625" />
<text x="1367.1" y="-47.328" transform="scale(1, -1)"
	style="font-family:Times;font-weight:normal;font-style:normal;font-size:12pt">smooth</text>
</g>
</svg>
