<?xml version="1.0"?>
<!-- Generated by SVGo and Plotinum VG -->
<svg width="16in" height="9in"
	xmlns="http://www.w3.org/2000/svg"
	xmlns:xlink="http://www.w3.org/1999/xlink">
<g transform="scale(1, -1) translate(0, -810)">
<path d="M0,0L1440,0L1440,810L0,810Z" style="fill:#FFFFFF" />
<text x="744.27" y="-4.8267" transform="scale(1, -1)"
	style="font-family:Times;font-weight:normal;font-style:normal;font-size:12pt">X</text>
<text x="59.37" y="-19.502" transform="scale(1, -1)"
	style="font-family:Times;font-weight:normal;font-style:normal;font-size:10pt">0</text>
<text x="470.63" y="-19.502" transform="scale(1, -1)"
	style="font-family:Times;font-weight:normal;font-style:normal;font-size:10pt">60</text>
<text x="881.89" y="-19.502" transform="scale(1, -1)"
	style="font-family:Times;font-weight:normal;font-style:normal;font-size:10pt">120</text>
<text x="1296.3" y="-19.502" transform="scale(1, -1)"
	style="font-family:Times;font-weight:normal;font-style:normal;font-size:10pt">180</text>
<path d="M62.495,31.538L62.495,41.538" style="fill:none;stroke:#000000;stroke-width:0.625" />
<path d="M476.88,31.538L476.88,41.538" style="fill:none;stroke:#000000;stroke-width:0.625" />
<path d="M891.27,31.538L891.27,41.538" style="fill:none;stroke:#000000;stroke-width:0.625" />
<path d="M1305.7,31.538L1305.7,41.538" style="fill:none;stroke:#000000;stroke-width:0.625" />
<path d="M200.62,36.538L200.62,41.538" style="fill:none;stroke:#000000;stroke-width:0.625" />
<path d="M338.75,36.538L338.75,41.538" style="fill:none;stroke:#000000;stroke-width:0.625" />
<path d="M615.01,36.538L615.01,41.538" style="fill:none;stroke:#000000;stroke-width:0.625" />
<path d="M753.14,36.538L753.14,41.538" style="fill:none;stroke:#000000;stroke-width:0.625" />
<path d="M1029.4,36.538L1029.4,41.538" style="fill:none;stroke:#000000;stroke-width:0.625" />
<path d="M1167.5,36.538L1167.5,41.538" style="fill:none;stroke:#000000;stroke-width:0.625" />
<path d="M62.495,41.538L1436.9,41.538" style="fill:none;stroke:#000000;stroke-width:0.625" />
<g transform="rotate(90)">
<text x="423.63" y="14.443" transform="scale(1, -1)"
	style="font-family:Times;font-weight:normal;font-style:normal;font-size:12pt">Y</text>
</g>
<text x="19.27" y="-83.857" transform="scale(1, -1)"
	style="font-family:Times;font-weight:normal;font-style:normal;font-size:10pt">-0.8</text>
<text x="32.808" y="-289.48" transform="scale(1, -1)"
	style="font-family:Times;font-weight:normal;font-style:normal;font-size:10pt">0</text>
<text x="23.433" y="-495.11" transform="scale(1, -1)"
	style="font-family:Times;font-weight:normal;font-style:normal;font-size:10pt">0.8</text>
<text x="23.433" y="-700.74" transform="scale(1, -1)"
	style="font-family:Times;font-weight:normal;font-style:normal;font-size:10pt">1.6</text>
<path d="M42.183,89.76L52.183,89.76" style="fill:none;stroke:#000000;stroke-width:0.625" />
<path d="M42.183,295.39L52.183,295.39" style="fill:none;stroke:#000000;stroke-width:0.625" />
<path d="M42.183,501.01L52.183,501.01" style="fill:none;stroke:#000000;stroke-width:0.625" />
<path d="M42.183,706.64L52.183,706.64" style="fill:none;stroke:#000000;stroke-width:0.625" />
<path d="M47.183,89.76L52.183,89.76" style="fill:none;stroke:#000000;stroke-width:0.625" />
<path d="M47.183,192.57L52.183,192.57" style="fill:none;stroke:#000000;stroke-width:0.625" />
<path d="M47.183,295.39L52.183,295.39" style="fill:none;stroke:#000000;stroke-width:0.625" />
<path d="M47.183,398.2L52.183,398.2" style="fill:none;stroke:#000000;stroke-width:0.625" />
<path d="M47.183,501.01L52.183,501.01" style="fill:none;stroke:#000000;stroke-width:0.625" />
<path d="M47.183,603.83L52.183,603.83" style="fill:none;stroke:#000000;stroke-width:0.625" />
<path d="M52.183,51.226L52.183,806.88" style="fill:none;stroke:#000000;stroke-width:0.625" />
<path d="M62.495,385.54L69.402,399.61L76.308,609.99L83.214,530.55L90.121,508.41L97.027,530.4L103.93,672.06L110.84,676.88L117.75,567.41L124.65,658.09L131.56,738.67L138.47,631.48L145.37,463.9L152.28,584.06L159.19,369.38L166.09,292.09L173,484.61L179.9,420.98L186.81,344.35L193.72,138.98L200.62,116.35L207.53,109.66L214.44,176.75L221.34,287.24L228.25,144.65L235.16,216.63L242.06,310.18L248.97,348.19L255.88,424.28L262.78,326.41L269.69,416.63L276.59,454.67L283.5,574.73L290.41,476.99L297.31,672.42L304.22,771.01L311.13,583.7L318.03,753.23L324.94,693.68L331.85,599.33L338.75,528.99L345.66,478.72L352.57,441.19L359.47,439.35L366.38,532.27L373.28,356.49L380.19,282.92L387.1,326.79L394,258.65L400.91,221.45L407.82,120.22L414.72,231.76L421.63,116.12L428.54,230.3L435.44,231.62L442.35,203.1L449.26,388.89L456.16,340.73L463.07,427.53L469.97,494.91L476.88,552.12L483.79,538.88L490.69,682.87L497.6,527.88L504.51,763.11L511.41,731.53L518.32,686.99L525.23,580.91L532.13,593.21L539.04,723.38L545.95,704.22L552.85,488.34L559.76,584.45L566.66,516.57L573.57,403.15L580.48,256.4L587.38,190.32L594.29,265.93L601.2,201.73L608.1,119.36L615.01,180.57L621.92,195.1L628.82,175.35L635.73,75.895L642.64,189.96L649.54,126.12L656.45,237.89L663.35,220.57L670.26,313.67L677.17,490.55L684.07,560.97L690.98,576.01L697.89,722.94L704.79,625.3L711.7,754.92L718.61,613.47L725.51,709.29L732.42,752.55L739.33,690.38L746.23,563.81L753.14,514.05L760.04,515.47L766.95,571.85L773.86,423.22L780.76,437.7L787.67,420.76L794.58,159.03L801.48,338.4L808.39,131.22L815.3,71.337L822.2,222.97L829.11,168.27L836.02,236.7L842.92,318.47L849.83,338.69L856.73,146.99L863.64,388.65L870.55,307.04L877.45,540.64L884.36,580.38L891.27,420.88L898.17,619.51L905.08,611.06L911.99,767.9L918.89,733.53L925.8,778.36L932.71,790.3L939.61,553.31L946.52,602.65L953.42,718.85L960.33,571.62L967.24,573.47L974.14,544.63L981.05,365.52L987.96,312.8L994.86,313.84L1001.8,304.86L1008.7,259.74L1015.6,89.527L1022.5,67.565L1029.4,136.53L1036.3,257.15L1043.2,80.771L1050.1,329.4L1057,167.36L1063.9,295.85L1070.8,260.84L1077.7,424.92L1084.6,414.43L1091.6,486.86L1098.5,606.29L1105.4,501.18L1112.3,657.82L1119.2,699.73L1126.1,800.73L1133,592.68L1139.9,745.95L1146.8,718.59L1153.7,750.49L1160.6,509.79L1167.5,618.16L1174.4,563.59L1181.3,422.45L1188.2,362.23L1195.1,324.47L1202.1,308.19L1209,130.96L1215.9,279.49L1222.8,224.64L1229.7,293.09L1236.6,58.133L1243.5,300.62L1250.4,149.24L1257.3,283.9L1264.2,326.55L1271.1,425.54L1278,461.96L1284.9,374.17L1291.8,373.52L1298.7,504.94L1305.7,670.29L1312.6,633.19L1319.5,612.16L1326.4,567.03L1333.3,669.42L1340.2,806.88L1347.1,628.25L1354,536.45L1360.9,658.06L1367.8,636.69L1374.7,464.14L1381.6,363.45L1388.5,466.32L1395.4,324.18L1402.3,251.12L1409.2,189.52L1416.2,120.74L1423.1,188.49L1430,101.02L1436.9,51.226" style="fill:none;stroke:#F15A60;stroke-width:1.25" />
<path d="M65.62,385.54A3.125,3.125 0 1 1 59.37,385.54A3.125,3.125 0 1 1 65.62,385.54Z" style="fill:none;stroke:#F15A60;stroke-width:0.625" />
<path d="M72.527,399.61A3.125,3.125 0 1 1 66.277,399.61A3.125,3.125 0 1 1 72.527,399.61Z" style="fill:none;stroke:#F15A60;stroke-width:0.625" />
<path d="M79.433,609.99A3.125,3.125 0 1 1 73.183,609.99A3.125,3.125 0 1 1 79.433,609.99Z" style="fill:none;stroke:#F15A60;stroke-width:0.625" />
<path d="M86.339,530.55L86.339,530.55A3.125,3.125 0 1 1 80.089,530.55A3.125,3.125 0 1 1 86.339,530.55Z" style="fill:none;stroke:#F15A60;stroke-width:0.625" />
<path d="M93.246,508.41A3.125,3.125 0 1 1 86.996,508.41A3.125,3.125 0 1 1 93.246,508.41Z" style="fill:none;stroke:#F15A60;stroke-width:0.625" />
<path d="M100.15,530.4A3.125,3.125 0 1 1 93.902,530.4A3.125,3.125 0 1 1 100.15,530.4Z" style="fill:none;stroke:#F15A60;stroke-width:0.625" />
<path d="M107.06,672.06L107.06,672.06A3.125,3.125 0 1 1 100.81,672.06A3.125,3.125 0 1 1 107.06,672.06Z" style="fill:none;stroke:#F15A60;stroke-width:0.625" />
<path d="M113.97,676.88L113.97,676.88A3.125,3.125 0 1 1 107.72,676.88A3.125,3.125 0 1 1 113.97,676.88Z" style="fill:none;stroke:#F15A60;stroke-width:0.625" />
<path d="M120.87,567.41L120.87,567.41A3.125,3.125 0 1 1 114.62,567.41A3.125,3.125 0 1 1 120.87,567.41Z" style="fill:none;stroke:#F15A60;stroke-width:0.625" />
<path d="M127.78,658.09L127.78,658.09A3.125,3.125 0 1 1 121.53,658.09A3.125,3.125 0 1 1 127.78,658.09Z" style="fill:none;stroke:#F15A60;stroke-width:0.625" />
<path d="M134.68,738.67L134.68,738.67A3.125,3.125 0 1 1 128.43,738.67A3.125,3.125 0 1 1 134.68,738.67Z" style="fill:none;stroke:#F15A60;stroke-width:0.625" />
<path d="M141.59,631.48A3.125,3.125 0 1 1 135.34,631.48A3.125,3.125 0 1 1 141.59,631.48Z" style="fill:none;stroke:#F15A60;stroke-width:0.625" />
<path d="M148.5,463.9A3.125,3.125 0 1 1 142.25,463.9A3.125,3.125 0 1 1 148.5,463.9Z" style="fill:none;stroke:#F15A60;stroke-width:0.625" />
<path d="M155.4,584.06L155.4,584.06A3.125,3.125 0 1 1 149.15,584.06A3.125,3.125 0 1 1 155.4,584.06Z" style="fill:none;stroke:#F15A60;stroke-width:0.625" />
<path d="M162.31,369.38L162.31,369.38A3.125,3.125 0 1 1 156.06,369.38A3.125,3.125 0 1 1 162.31,369.38Z" style="fill:none;stroke:#F15A60;stroke-width:0.625" />
<path d="M169.22,292.09A3.125,3.125 0 1 1 162.97,292.09A3.125,3.125 0 1 1 169.22,292.09Z" style="fill:none;stroke:#F15A60;stroke-width:0.625" />
<path d="M176.12,484.61A3.125,3.125 0 1 1 169.87,484.61A3.125,3.125 0 1 1 176.12,484.61Z" style="fill:none;stroke:#F15A60;stroke-width:0.625" />
<path d="M183.03,420.98A3.125,3.125 0 1 1 176.78,420.98A3.125,3.125 0 1 1 183.03,420.98Z" style="fill:none;stroke:#F15A60;stroke-width:0.625" />
<path d="M189.94,344.35L189.94,344.35A3.125,3.125 0 1 1 183.69,344.35A3.125,3.125 0 1 1 189.94,344.35Z" style="fill:none;stroke:#F15A60;stroke-width:0.625" />
<path d="M196.84,138.98A3.125,3.125 0 1 1 190.59,138.98A3.125,3.125 0 1 1 196.84,138.98Z" style="fill:none;stroke:#F15A60;stroke-width:0.625" />
<path d="M203.75,116.35L203.75,116.35A3.125,3.125 0 1 1 197.5,116.35A3.125,3.125 0 1 1 203.75,116.35Z" style="fill:none;stroke:#F15A60;stroke-width:0.625" />
<path d="M210.66,109.66L210.66,109.66A3.125,3.125 0 1 1 204.41,109.66A3.125,3.125 0 1 1 210.66,109.66Z" style="fill:none;stroke:#F15A60;stroke-width:0.625" />
<path d="M217.56,176.75A3.125,3.125 0 1 1 211.31,176.75A3.125,3.125 0 1 1 217.56,176.75Z" style="fill:none;stroke:#F15A60;stroke-width:0.625" />
<path d="M224.47,287.24L224.47,287.24A3.125,3.125 0 1 1 218.22,287.24A3.125,3.125 0 1 1 224.47,287.24Z" style="fill:none;stroke:#F15A60;stroke-width:0.625" />
<path d="M231.37,144.65A3.125,3.125 0 1 1 225.12,144.65A3.125,3.125 0 1 1 231.37,144.65Z" style="fill:none;stroke:#F15A60;stroke-width:0.625" />
<path d="M238.28,216.63L238.28,216.63A3.125,3.125 0 1 1 232.03,216.63A3.125,3.125 0 1 1 238.28,216.63Z" style="fill:none;stroke:#F15A60;stroke-width:0.625" />
<path d="M245.19,310.18A3.125,3.125 0 1 1 238.94,310.18A3.125,3.125 0 1 1 245.19,310.18Z" style="fill:none;stroke:#F15A60;stroke-width:0.625" />
<path d="M252.09,348.19A3.125,3.125 0 1 1 245.84,348.19A3.125,3.125 0 1 1 252.09,348.19Z" style="fill:none;stroke:#F15A60;stroke-width:0.625" />
<path d="M259,424.28A3.125,3.125 0 1 1 252.75,424.28A3.125,3.125 0 1 1 259,424.28Z" style="fill:none;stroke:#F15A60;stroke-width:0.625" />
<path d="M265.91,326.41A3.125,3.125 0 1 1 259.66,326.41A3.125,3.125 0 1 1 265.91,326.41Z" style="fill:none;stroke:#F15A60;stroke-width:0.625" />
<path d="M272.81,416.63A3.125,3.125 0 1 1 266.56,416.63A3.125,3.125 0 1 1 272.81,416.63Z" style="fill:none;stroke:#F15A60;stroke-width:0.625" />
<path d="M279.72,454.67A3.125,3.125 0 1 1 273.47,454.67A3.125,3.125 0 1 1 279.72,454.67Z" style="fill:none;stroke:#F15A60;stroke-width:0.625" />
<path d="M286.63,574.73L286.63,574.73A3.125,3.125 0 1 1 280.38,574.73A3.125,3.125 0 1 1 286.63,574.73Z" style="fill:none;stroke:#F15A60;stroke-width:0.625" />
<path d="M293.53,476.99A3.125,3.125 0 1 1 287.28,476.99A3.125,3.125 0 1 1 293.53,476.99Z" style="fill:none;stroke:#F15A60;stroke-width:0.625" />
<path d="M300.44,672.42A3.125,3.125 0 1 1 294.19,672.42A3.125,3.125 0 1 1 300.44,672.42Z" style="fill:none;stroke:#F15A60;stroke-width:0.625" />
<path d="M307.35,771.01A3.125,3.125 0 1 1 301.1,771.01A3.125,3.125 0 1 1 307.35,771.01Z" style="fill:none;stroke:#F15A60;stroke-width:0.625" />
<path d="M314.25,583.7A3.125,3.125 0 1 1 308,583.7A3.125,3.125 0 1 1 314.25,583.7Z" style="fill:none;stroke:#F15A60;stroke-width:0.625" />
<path d="M321.16,753.23L321.16,753.23A3.125,3.125 0 1 1 314.91,753.23A3.125,3.125 0 1 1 321.16,753.23Z" style="fill:none;stroke:#F15A60;stroke-width:0.625" />
<path d="M328.06,693.68A3.125,3.125 0 1 1 321.81,693.68A3.125,3.125 0 1 1 328.06,693.68Z" style="fill:none;stroke:#F15A60;stroke-width:0.625" />
<path d="M334.97,599.33A3.125,3.125 0 1 1 328.72,599.33A3.125,3.125 0 1 1 334.97,599.33Z" style="fill:none;stroke:#F15A60;stroke-width:0.625" />
<path d="M341.88,528.99L341.88,528.99A3.125,3.125 0 1 1 335.63,528.99A3.125,3.125 0 1 1 341.88,528.99Z" style="fill:none;stroke:#F15A60;stroke-width:0.625" />
<path d="M348.78,478.72A3.125,3.125 0 1 1 342.53,478.72A3.125,3.125 0 1 1 348.78,478.72Z" style="fill:none;stroke:#F15A60;stroke-width:0.625" />
<path d="M355.69,441.19A3.125,3.125 0 1 1 349.44,441.19A3.125,3.125 0 1 1 355.69,441.19Z" style="fill:none;stroke:#F15A60;stroke-width:0.625" />
<path d="M362.6,439.35A3.125,3.125 0 1 1 356.35,439.35A3.125,3.125 0 1 1 362.6,439.35Z" style="fill:none;stroke:#F15A60;stroke-width:0.625" />
<path d="M369.5,532.27A3.125,3.125 0 1 1 363.25,532.27A3.125,3.125 0 1 1 369.5,532.27Z" style="fill:none;stroke:#F15A60;stroke-width:0.625" />
<path d="M376.41,356.49A3.125,3.125 0 1 1 370.16,356.49A3.125,3.125 0 1 1 376.41,356.49Z" style="fill:none;stroke:#F15A60;stroke-width:0.625" />
<path d="M383.32,282.92A3.125,3.125 0 1 1 377.07,282.92A3.125,3.125 0 1 1 383.32,282.92Z" style="fill:none;stroke:#F15A60;stroke-width:0.625" />
<path d="M390.22,326.79A3.125,3.125 0 1 1 383.97,326.79A3.125,3.125 0 1 1 390.22,326.79Z" style="fill:none;stroke:#F15A60;stroke-width:0.625" />
<path d="M397.13,258.65A3.125,3.125 0 1 1 390.88,258.65A3.125,3.125 0 1 1 397.13,258.65Z" style="fill:none;stroke:#F15A60;stroke-width:0.625" />
<path d="M404.04,221.45L404.04,221.45A3.125,3.125 0 1 1 397.79,221.45A3.125,3.125 0 1 1 404.04,221.45Z" style="fill:none;stroke:#F15A60;stroke-width:0.625" />
<path d="M410.94,120.22A3.125,3.125 0 1 1 404.69,120.22A3.125,3.125 0 1 1 410.94,120.22Z" style="fill:none;stroke:#F15A60;stroke-width:0.625" />
<path d="M417.85,231.76A3.125,3.125 0 1 1 411.6,231.76A3.125,3.125 0 1 1 417.85,231.76Z" style="fill:none;stroke:#F15A60;stroke-width:0.625" />
<path d="M424.75,116.12A3.125,3.125 0 1 1 418.5,116.12A3.125,3.125 0 1 1 424.75,116.12Z" style="fill:none;stroke:#F15A60;stroke-width:0.625" />
<path d="M431.66,230.3L431.66,230.3A3.125,3.125 0 1 1 425.41,230.3A3.125,3.125 0 1 1 431.66,230.3Z" style="fill:none;stroke:#F15A60;stroke-width:0.625" />
<path d="M438.57,231.62A3.125,3.125 0 1 1 432.32,231.62A3.125,3.125 0 1 1 438.57,231.62Z" style="fill:none;stroke:#F15A60;stroke-width:0.625" />
<path d="M445.47,203.1A3.125,3.125 0 1 1 439.22,203.1A3.125,3.125 0 1 1 445.47,203.1Z" style="fill:none;stroke:#F15A60;stroke-width:0.625" />
<path d="M452.38,388.89L452.38,388.89A3.125,3.125 0 1 1 446.13,388.89A3.125,3.125 0 1 1 452.38,388.89Z" style="fill:none;stroke:#F15A60;stroke-width:0.625" />
<path d="M459.29,340.73A3.125,3.125 0 1 1 453.04,340.73A3.125,3.125 0 1 1 459.29,340.73Z" style="fill:none;stroke:#F15A60;stroke-width:0.625" />
<path d="M466.19,427.53A3.125,3.125 0 1 1 459.94,427.53A3.125,3.125 0 1 1 466.19,427.53Z" style="fill:none;stroke:#F15A60;stroke-width:0.625" />
<path d="M473.1,494.91A3.125,3.125 0 1 1 466.85,494.91A3.125,3.125 0 1 1 473.1,494.91Z" style="fill:none;stroke:#F15A60;stroke-width:0.625" />
<path d="M480.01,552.12A3.125,3.125 0 1 1 473.76,552.12A3.125,3.125 0 1 1 480.01,552.12Z" style="fill:none;stroke:#F15A60;stroke-width:0.625" />
<path d="M486.91,538.88A3.125,3.125 0 1 1 480.66,538.88A3.125,3.125 0 1 1 486.91,538.88Z" style="fill:none;stroke:#F15A60;stroke-width:0.625" />
<path d="M493.82,682.87A3.125,3.125 0 1 1 487.57,682.87A3.125,3.125 0 1 1 493.82,682.87Z" style="fill:none;stroke:#F15A60;stroke-width:0.625" />
<path d="M500.73,527.88L500.73,527.88A3.125,3.125 0 1 1 494.48,527.88A3.125,3.125 0 1 1 500.73,527.88Z" style="fill:none;stroke:#F15A60;stroke-width:0.625" />
<path d="M507.63,763.11A3.125,3.125 0 1 1 501.38,763.11A3.125,3.125 0 1 1 507.63,763.11Z" style="fill:none;stroke:#F15A60;stroke-width:0.625" />
<path d="M514.54,731.53A3.125,3.125 0 1 1 508.29,731.53A3.125,3.125 0 1 1 514.54,731.53Z" style="fill:none;stroke:#F15A60;stroke-width:0.625" />
<path d="M521.44,686.99A3.125,3.125 0 1 1 515.19,686.99A3.125,3.125 0 1 1 521.44,686.99Z" style="fill:none;stroke:#F15A60;stroke-width:0.625" />
<path d="M528.35,580.91A3.125,3.125 0 1 1 522.1,580.91A3.125,3.125 0 1 1 528.35,580.91Z" style="fill:none;stroke:#F15A60;stroke-width:0.625" />
<path d="M535.26,593.21A3.125,3.125 0 1 1 529.01,593.21A3.125,3.125 0 1 1 535.26,593.21Z" style="fill:none;stroke:#F15A60;stroke-width:0.625" />
<path d="M542.16,723.38A3.125,3.125 0 1 1 535.91,723.38A3.125,3.125 0 1 1 542.16,723.38Z" style="fill:none;stroke:#F15A60;stroke-width:0.625" />
<path d="M549.07,704.22A3.125,3.125 0 1 1 542.82,704.22A3.125,3.125 0 1 1 549.07,704.22Z" style="fill:none;stroke:#F15A60;stroke-width:0.625" />
<path d="M555.98,488.34A3.125,3.125 0 1 1 549.73,488.34A3.125,3.125 0 1 1 555.98,488.34Z" style="fill:none;stroke:#F15A60;stroke-width:0.625" />
<path d="M562.88,584.45A3.125,3.125 0 1 1 556.63,584.45A3.125,3.125 0 1 1 562.88,584.45Z" style="fill:none;stroke:#F15A60;stroke-width:0.625" />
<path d="M569.79,516.57A3.125,3.125 0 1 1 563.54,516.57A3.125,3.125 0 1 1 569.79,516.57Z" style="fill:none;stroke:#F15A60;stroke-width:0.625" />
<path d="M576.7,403.15A3.125,3.125 0 1 1 570.45,403.15A3.125,3.125 0 1 1 576.7,403.15Z" style="fill:none;stroke:#F15A60;stroke-width:0.625" />
<path d="M583.6,256.4A3.125,3.125 0 1 1 577.35,256.4A3.125,3.125 0 1 1 583.6,256.4Z" style="fill:none;stroke:#F15A60;stroke-width:0.625" />
<path d="M590.51,190.32A3.125,3.125 0 1 1 584.26,190.32A3.125,3.125 0 1 1 590.51,190.32Z" style="fill:none;stroke:#F15A60;stroke-width:0.625" />
<path d="M597.42,265.93A3.125,3.125 0 1 1 591.17,265.93A3.125,3.125 0 1 1 597.42,265.93Z" style="fill:none;stroke:#F15A60;stroke-width:0.625" />
<path d="M604.32,201.73L604.32,201.73A3.125,3.125 0 1 1 598.07,201.73A3.125,3.125 0 1 1 604.32,201.73Z" style="fill:none;stroke:#F15A60;stroke-width:0.625" />
<path d="M611.23,119.36A3.125,3.125 0 1 1 604.98,119.36A3.125,3.125 0 1 1 611.23,119.36Z" style="fill:none;stroke:#F15A60;stroke-width:0.625" />
<path d="M618.13,180.57A3.125,3.125 0 1 1 611.88,180.57A3.125,3.125 0 1 1 618.13,180.57Z" style="fill:none;stroke:#F15A60;stroke-width:0.625" />
<path d="M625.04,195.1A3.125,3.125 0 1 1 618.79,195.1A3.125,3.125 0 1 1 625.04,195.1Z" style="fill:none;stroke:#F15A60;stroke-width:0.625" />
<path d="M631.95,175.35A3.125,3.125 0 1 1 625.7,175.35A3.125,3.125 0 1 1 631.95,175.35Z" style="fill:none;stroke:#F15A60;stroke-width:0.625" />
<path d="M638.85,75.895A3.125,3.125 0 1 1 632.6,75.895A3.125,3.125 0 1 1 638.85,75.895Z" style="fill:none;stroke:#F15A60;stroke-width:0.625" />
<path d="M645.76,189.96A3.125,3.125 0 1 1 639.51,189.96A3.125,3.125 0 1 1 645.76,189.96Z" style="fill:none;stroke:#F15A60;stroke-width:0.625" />
<path d="M652.67,126.12A3.125,3.125 0 1 1 646.42,126.12A3.125,3.125 0 1 1 652.67,126.12Z" style="fill:none;stroke:#F15A60;stroke-width:0.625" />
<path d="M659.57,237.89A3.125,3.125 0 1 1 653.32,237.89A3.125,3.125 0 1 1 659.57,237.89Z" style="fill:none;stroke:#F15A60;stroke-width:0.625" />
<path d="M666.48,220.57A3.125,3.125 0 1 1 660.23,220.57A3.125,3.125 0 1 1 666.48,220.57Z" style="fill:none;stroke:#F15A60;stroke-width:0.625" />
<path d="M673.39,313.67A3.125,3.125 0 1 1 667.14,313.67A3.125,3.125 0 1 1 673.39,313.67Z" style="fill:none;stroke:#F15A60;stroke-width:0.625" />
<path d="M680.29,490.55A3.125,3.125 0 1 1 674.04,490.55A3.125,3.125 0 1 1 680.29,490.55Z" style="fill:none;stroke:#F15A60;stroke-width:0.625" />
<path d="M687.2,560.97A3.125,3.125 0 1 1 680.95,560.97A3.125,3.125 0 1 1 687.2,560.97Z" style="fill:none;stroke:#F15A60;stroke-width:0.625" />
<path d="M694.11,576.01A3.125,3.125 0 1 1 687.86,576.01A3.125,3.125 0 1 1 694.11,576.01Z" style="fill:none;stroke:#F15A60;stroke-width:0.625" />
<path d="M701.01,722.94A3.125,3.125 0 1 1 694.76,722.94A3.125,3.125 0 1 1 701.01,722.94Z" style="fill:none;stroke:#F15A60;stroke-width:0.625" />
<path d="M707.92,625.3A3.125,3.125 0 1 1 701.67,625.3A3.125,3.125 0 1 1 707.92,625.3Z" style="fill:none;stroke:#F15A60;stroke-width:0.625" />
<path d="M714.82,754.92A3.125,3.125 0 1 1 708.57,754.92A3.125,3.125 0 1 1 714.82,754.92Z" style="fill:none;stroke:#F15A60;stroke-width:0.625" />
<path d="M721.73,613.47A3.125,3.125 0 1 1 715.48,613.47A3.125,3.125 0 1 1 721.73,613.47Z" style="fill:none;stroke:#F15A60;stroke-width:0.625" />
<path d="M728.64,709.29A3.125,3.125 0 1 1 722.39,709.29A3.125,3.125 0 1 1 728.64,709.29Z" style="fill:none;stroke:#F15A60;stroke-width:0.625" />
<path d="M735.54,752.55A3.125,3.125 0 1 1 729.29,752.55A3.125,3.125 0 1 1 735.54,752.55Z" style="fill:none;stroke:#F15A60;stroke-width:0.625" />
<path d="M742.45,690.38A3.125,3.125 0 1 1 736.2,690.38A3.125,3.125 0 1 1 742.45,690.38Z" style="fill:none;stroke:#F15A60;stroke-width:0.625" />
<path d="M749.36,563.81L749.36,563.81A3.125,3.125 0 1 1 743.11,563.81A3.125,3.125 0 1 1 749.36,563.81Z" style="fill:none;stroke:#F15A60;stroke-width:0.625" />
<path d="M756.26,514.05A3.125,3.125 0 1 1 750.01,514.05A3.125,3.125 0 1 1 756.26,514.05Z" style="fill:none;stroke:#F15A60;stroke-width:0.625" />
<path d="M763.17,515.47A3.125,3.125 0 1 1 756.92,515.47A3.125,3.125 0 1 1 763.17,515.47Z" style="fill:none;stroke:#F15A60;stroke-width:0.625" />
<path d="M770.08,571.85L770.08,571.85A3.125,3.125 0 1 1 763.83,571.85A3.125,3.125 0 1 1 770.08,571.85Z" style="fill:none;stroke:#F15A60;stroke-width:0.625" />
<path d="M776.98,423.22L776.98,423.22A3.125,3.125 0 1 1 770.73,423.22A3.125,3.125 0 1 1 776.98,423.22Z" style="fill:none;stroke:#F15A60;stroke-width:0.625" />
<path d="M783.89,437.7L783.89,437.7A3.125,3.125 0 1 1 777.64,437.7A3.125,3.125 0 1 1 783.89,437.7Z" style="fill:none;stroke:#F15A60;stroke-width:0.625" />
<path d="M790.8,420.76A3.125,3.125 0 1 1 784.55,420.76A3.125,3.125 0 1 1 790.8,420.76Z" style="fill:none;stroke:#F15A60;stroke-width:0.625" />
<path d="M797.7,159.03L797.7,159.03A3.125,3.125 0 1 1 791.45,159.03A3.125,3.125 0 1 1 797.7,159.03Z" style="fill:none;stroke:#F15A60;stroke-width:0.625" />
<path d="M804.61,338.4L804.61,338.4A3.125,3.125 0 1 1 798.36,338.4A3.125,3.125 0 1 1 804.61,338.4Z" style="fill:none;stroke:#F15A60;stroke-width:0.625" />
<path d="M811.51,131.22A3.125,3.125 0 1 1 805.26,131.22A3.125,3.125 0 1 1 811.51,131.22Z" style="fill:none;stroke:#F15A60;stroke-width:0.625" />
<path d="M818.42,71.337L818.42,71.337A3.125,3.125 0 1 1 812.17,71.337A3.125,3.125 0 1 1 818.42,71.337Z" style="fill:none;stroke:#F15A60;stroke-width:0.625" />
<path d="M825.33,222.97A3.125,3.125 0 1 1 819.08,222.97A3.125,3.125 0 1 1 825.33,222.97Z" style="fill:none;stroke:#F15A60;stroke-width:0.625" />
<path d="M832.23,168.27L832.23,168.27A3.125,3.125 0 1 1 825.98,168.27A3.125,3.125 0 1 1 832.23,168.27Z" style="fill:none;stroke:#F15A60;stroke-width:0.625" />
<path d="M839.14,236.7A3.125,3.125 0 1 1 832.89,236.7A3.125,3.125 0 1 1 839.14,236.7Z" style="fill:none;stroke:#F15A60;stroke-width:0.625" />
<path d="M846.05,318.47A3.125,3.125 0 1 1 839.8,318.47A3.125,3.125 0 1 1 846.05,318.47Z" style="fill:none;stroke:#F15A60;stroke-width:0.625" />
<path d="M852.95,338.69L852.95,338.69A3.125,3.125 0 1 1 846.7,338.69A3.125,3.125 0 1 1 852.95,338.69Z" style="fill:none;stroke:#F15A60;stroke-width:0.625" />
<path d="M859.86,146.99A3.125,3.125 0 1 1 853.61,146.99A3.125,3.125 0 1 1 859.86,146.99Z" style="fill:none;stroke:#F15A60;stroke-width:0.625" />
<path d="M866.77,388.65L866.77,388.65A3.125,3.125 0 1 1 860.52,388.65A3.125,3.125 0 1 1 866.77,388.65Z" style="fill:none;stroke:#F15A60;stroke-width:0.625" />
<path d="M873.67,307.04L873.67,307.04A3.125,3.125 0 1 1 867.42,307.04A3.125,3.125 0 1 1 873.67,307.04Z" style="fill:none;stroke:#F15A60;stroke-width:0.625" />
<path d="M880.58,540.64L880.58,540.64A3.125,3.125 0 1 1 874.33,540.64A3.125,3.125 0 1 1 880.58,540.64Z" style="fill:none;stroke:#F15A60;stroke-width:0.625" />
<path d="M887.49,580.38A3.125,3.125 0 1 1 881.24,580.38A3.125,3.125 0 1 1 887.49,580.38Z" style="fill:none;stroke:#F15A60;stroke-width:0.625" />
<path d="M894.39,420.88L894.39,420.88A3.125,3.125 0 1 1 888.14,420.88A3.125,3.125 0 1 1 894.39,420.88Z" style="fill:none;stroke:#F15A60;stroke-width:0.625" />
<path d="M901.3,619.51L901.3,619.51A3.125,3.125 0 1 1 895.05,619.51A3.125,3.125 0 1 1 901.3,619.51Z" style="fill:none;stroke:#F15A60;stroke-width:0.625" />
<path d="M908.2,611.06A3.125,3.125 0 1 1 901.95,611.06A3.125,3.125 0 1 1 908.2,611.06Z" style="fill:none;stroke:#F15A60;stroke-width:0.625" />
<path d="M915.11,767.9L915.11,767.9A3.125,3.125 0 1 1 908.86,767.9A3.125,3.125 0 1 1 915.11,767.9Z" style="fill:none;stroke:#F15A60;stroke-width:0.625" />
<path d="M922.02,733.53L922.02,733.53A3.125,3.125 0 1 1 915.77,733.53A3.125,3.125 0 1 1 922.02,733.53Z" style="fill:none;stroke:#F15A60;stroke-width:0.625" />
<path d="M928.92,778.36L928.92,778.36A3.125,3.125 0 1 1 922.67,778.36A3.125,3.125 0 1 1 928.92,778.36Z" style="fill:none;stroke:#F15A60;stroke-width:0.625" />
<path d="M935.83,790.3A3.125,3.125 0 1 1 929.58,790.3A3.125,3.125 0 1 1 935.83,790.3Z" style="fill:none;stroke:#F15A60;stroke-width:0.625" />
<path d="M942.74,553.31A3.125,3.125 0 1 1 936.49,553.31A3.125,3.125 0 1 1 942.74,553.31Z" style="fill:none;stroke:#F15A60;stroke-width:0.625" />
<path d="M949.64,602.65L949.64,602.65A3.125,3.125 0 1 1 943.39,602.65A3.125,3.125 0 1 1 949.64,602.65Z" style="fill:none;stroke:#F15A60;stroke-width:0.625" />
<path d="M956.55,718.85L956.55,718.85A3.125,3.125 0 1 1 950.3,718.85A3.125,3.125 0 1 1 956.55,718.85Z" style="fill:none;stroke:#F15A60;stroke-width:0.625" />
<path d="M963.46,571.62L963.46,571.62A3.125,3.125 0 1 1 957.21,571.62A3.125,3.125 0 1 1 963.46,571.62Z" style="fill:none;stroke:#F15A60;stroke-width:0.625" />
<path d="M970.36,573.47A3.125,3.125 0 1 1 964.11,573.47A3.125,3.125 0 1 1 970.36,573.47Z" style="fill:none;stroke:#F15A60;stroke-width:0.625" />
<path d="M977.27,544.63A3.125,3.125 0 1 1 971.02,544.63A3.125,3.125 0 1 1 977.27,544.63Z" style="fill:none;stroke:#F15A60;stroke-width:0.625" />
<path d="M984.18,365.52L984.18,365.52A3.125,3.125 0 1 1 977.93,365.52A3.125,3.125 0 1 1 984.18,365.52Z" style="fill:none;stroke:#F15A60;stroke-width:0.625" />
<path d="M991.08,312.8A3.125,3.125 0 1 1 984.83,312.8A3.125,3.125 0 1 1 991.08,312.8Z" style="fill:none;stroke:#F15A60;stroke-width:0.625" />
<path d="M997.99,313.84L997.99,313.84A3.125,3.125 0 1 1 991.74,313.84A3.125,3.125 0 1 1 997.99,313.84Z" style="fill:none;stroke:#F15A60;stroke-width:0.625" />
<path d="M1004.9,304.86A3.125,3.125 0 1 1 998.64,304.86A3.125,3.125 0 1 1 1004.9,304.86Z" style="fill:none;stroke:#F15A60;stroke-width:0.625" />
<path d="M1011.8,259.74L1011.8,259.74A3.125,3.125 0 1 1 1005.6,259.74A3.125,3.125 0 1 1 1011.8,259.74Z" style="fill:none;stroke:#F15A60;stroke-width:0.625" />
<path d="M1018.7,89.527L1018.7,89.527A3.125,3.125 0 1 1 1012.5,89.527A3.125,3.125 0 1 1 1018.7,89.527Z" style="fill:none;stroke:#F15A60;stroke-width:0.625" />
<path d="M1025.6,67.565L1025.6,67.565A3.125,3.125 0 1 1 1019.4,67.565A3.125,3.125 0 1 1 1025.6,67.565Z" style="fill:none;stroke:#F15A60;stroke-width:0.625" />
<path d="M1032.5,136.53L1032.5,136.53A3.125,3.125 0 1 1 1026.3,136.53A3.125,3.125 0 1 1 1032.5,136.53Z" style="fill:none;stroke:#F15A60;stroke-width:0.625" />
<path d="M1039.4,257.15L1039.4,257.15A3.125,3.125 0 1 1 1033.2,257.15A3.125,3.125 0 1 1 1039.4,257.15Z" style="fill:none;stroke:#F15A60;stroke-width:0.625" />
<path d="M1046.3,80.771A3.125,3.125 0 1 1 1040.1,80.771A3.125,3.125 0 1 1 1046.3,80.771Z" style="fill:none;stroke:#F15A60;stroke-width:0.625" />
<path d="M1053.2,329.4A3.125,3.125 0 1 1 1047,329.4A3.125,3.125 0 1 1 1053.2,329.4Z" style="fill:none;stroke:#F15A60;stroke-width:0.625" />
<path d="M1060.1,167.36A3.125,3.125 0 1 1 1053.9,167.36A3.125,3.125 0 1 1 1060.1,167.36Z" style="fill:none;stroke:#F15A60;stroke-width:0.625" />
<path d="M1067.1,295.85L1067.1,295.85A3.125,3.125 0 1 1 1060.8,295.85A3.125,3.125 0 1 1 1067.1,295.85Z" style="fill:none;stroke:#F15A60;stroke-width:0.625" />
<path d="M1074,260.84L1074,260.84A3.125,3.125 0 1 1 1067.7,260.84A3.125,3.125 0 1 1 1074,260.84Z" style="fill:none;stroke:#F15A60;stroke-width:0.625" />
<path d="M1080.9,424.92A3.125,3.125 0 1 1 1074.6,424.92A3.125,3.125 0 1 1 1080.9,424.92Z" style="fill:none;stroke:#F15A60;stroke-width:0.625" />
<path d="M1087.8,414.43A3.125,3.125 0 1 1 1081.5,414.43A3.125,3.125 0 1 1 1087.8,414.43Z" style="fill:none;stroke:#F15A60;stroke-width:0.625" />
<path d="M1094.7,486.86L1094.7,486.86A3.125,3.125 0 1 1 1088.4,486.86A3.125,3.125 0 1 1 1094.7,486.86Z" style="fill:none;stroke:#F15A60;stroke-width:0.625" />
<path d="M1101.6,606.29A3.125,3.125 0 1 1 1095.3,606.29A3.125,3.125 0 1 1 1101.6,606.29Z" style="fill:none;stroke:#F15A60;stroke-width:0.625" />
<path d="M1108.5,501.18A3.125,3.125 0 1 1 1102.2,501.18A3.125,3.125 0 1 1 1108.5,501.18Z" style="fill:none;stroke:#F15A60;stroke-width:0.625" />
<path d="M1115.4,657.82A3.125,3.125 0 1 1 1109.1,657.82A3.125,3.125 0 1 1 1115.4,657.82Z" style="fill:none;stroke:#F15A60;stroke-width:0.625" />
<path d="M1122.3,699.73A3.125,3.125 0 1 1 1116.1,699.73A3.125,3.125 0 1 1 1122.3,699.73Z" style="fill:none;stroke:#F15A60;stroke-width:0.625" />
<path d="M1129.2,800.73A3.125,3.125 0 1 1 1123,800.73A3.125,3.125 0 1 1 1129.2,800.73Z" style="fill:none;stroke:#F15A60;stroke-width:0.625" />
<path d="M1136.1,592.68A3.125,3.125 0 1 1 1129.9,592.68A3.125,3.125 0 1 1 1136.1,592.68Z" style="fill:none;stroke:#F15A60;stroke-width:0.625" />
<path d="M1143,745.95L1143,745.95A3.125,3.125 0 1 1 1136.8,745.95A3.125,3.125 0 1 1 1143,745.95Z" style="fill:none;stroke:#F15A60;stroke-width:0.625" />
<path d="M1149.9,718.59A3.125,3.125 0 1 1 1143.7,718.59A3.125,3.125 0 1 1 1149.9,718.59Z" style="fill:none;stroke:#F15A60;stroke-width:0.625" />
<path d="M1156.8,750.49L1156.8,750.49A3.125,3.125 0 1 1 1150.6,750.49A3.125,3.125 0 1 1 1156.8,750.49Z" style="fill:none;stroke:#F15A60;stroke-width:0.625" />
<path d="M1163.7,509.79A3.125,3.125 0 1 1 1157.5,509.79A3.125,3.125 0 1 1 1163.7,509.79Z" style="fill:none;stroke:#F15A60;stroke-width:0.625" />
<path d="M1170.6,618.16A3.125,3.125 0 1 1 1164.4,618.16A3.125,3.125 0 1 1 1170.6,618.16Z" style="fill:none;stroke:#F15A60;stroke-width:0.625" />
<path d="M1177.6,563.59L1177.6,563.59A3.125,3.125 0 1 1 1171.3,563.59A3.125,3.125 0 1 1 1177.6,563.59Z" style="fill:none;stroke:#F15A60;stroke-width:0.625" />
<path d="M1184.5,422.45L1184.5,422.45A3.125,3.125 0 1 1 1178.2,422.45A3.125,3.125 0 1 1 1184.5,422.45Z" style="fill:none;stroke:#F15A60;stroke-width:0.625" />
<path d="M1191.4,362.23A3.125,3.125 0 1 1 1185.1,362.23A3.125,3.125 0 1 1 1191.4,362.23Z" style="fill:none;stroke:#F15A60;stroke-width:0.625" />
<path d="M1198.3,324.47A3.125,3.125 0 1 1 1192,324.47A3.125,3.125 0 1 1 1198.3,324.47Z" style="fill:none;stroke:#F15A60;stroke-width:0.625" />
<path d="M1205.2,308.19A3.125,3.125 0 1 1 1198.9,308.19A3.125,3.125 0 1 1 1205.2,308.19Z" style="fill:none;stroke:#F15A60;stroke-width:0.625" />
<path d="M1212.1,130.96A3.125,3.125 0 1 1 1205.8,130.96A3.125,3.125 0 1 1 1212.1,130.96Z" style="fill:none;stroke:#F15A60;stroke-width:0.625" />
<path d="M1219,279.49A3.125,3.125 0 1 1 1212.7,279.49A3.125,3.125 0 1 1 1219,279.49Z" style="fill:none;stroke:#F15A60;stroke-width:0.625" />
<path d="M1225.9,224.64A3.125,3.125 0 1 1 1219.7,224.64A3.125,3.125 0 1 1 1225.9,224.64Z" style="fill:none;stroke:#F15A60;stroke-width:0.625" />
<path d="M1232.8,293.09L1232.8,293.09A3.125,3.125 0 1 1 1226.6,293.09A3.125,3.125 0 1 1 1232.8,293.09Z" style="fill:none;stroke:#F15A60;stroke-width:0.625" />
<path d="M1239.7,58.133A3.125,3.125 0 1 1 1233.5,58.133A3.125,3.125 0 1 1 1239.7,58.133Z" style="fill:none;stroke:#F15A60;stroke-width:0.625" />
<path d="M1246.6,300.62L1246.6,300.62A3.125,3.125 0 1 1 1240.4,300.62A3.125,3.125 0 1 1 1246.6,300.62Z" style="fill:none;stroke:#F15A60;stroke-width:0.625" />
<path d="M1253.5,149.24A3.125,3.125 0 1 1 1247.3,149.24A3.125,3.125 0 1 1 1253.5,149.24Z" style="fill:none;stroke:#F15A60;stroke-width:0.625" />
<path d="M1260.4,283.9L1260.4,283.9A3.125,3.125 0 1 1 1254.2,283.9A3.125,3.125 0 1 1 1260.4,283.9Z" style="fill:none;stroke:#F15A60;stroke-width:0.625" />
<path d="M1267.3,326.55A3.125,3.125 0 1 1 1261.1,326.55A3.125,3.125 0 1 1 1267.3,326.55Z" style="fill:none;stroke:#F15A60;stroke-width:0.625" />
<path d="M1274.2,425.54A3.125,3.125 0 1 1 1268,425.54A3.125,3.125 0 1 1 1274.2,425.54Z" style="fill:none;stroke:#F15A60;stroke-width:0.625" />
<path d="M1281.2,461.96L1281.2,461.96A3.125,3.125 0 1 1 1274.9,461.96A3.125,3.125 0 1 1 1281.2,461.96Z" style="fill:none;stroke:#F15A60;stroke-width:0.625" />
<path d="M1288.1,374.17L1288.1,374.17A3.125,3.125 0 1 1 1281.8,374.17A3.125,3.125 0 1 1 1288.1,374.17Z" style="fill:none;stroke:#F15A60;stroke-width:0.625" />
<path d="M1295,373.52L1295,373.52A3.125,3.125 0 1 1 1288.7,373.52A3.125,3.125 0 1 1 1295,373.52Z" style="fill:none;stroke:#F15A60;stroke-width:0.625" />
<path d="M1301.9,504.94A3.125,3.125 0 1 1 1295.6,504.94A3.125,3.125 0 1 1 1301.9,504.94Z" style="fill:none;stroke:#F15A60;stroke-width:0.625" />
<path d="M1308.8,670.29A3.125,3.125 0 1 1 1302.5,670.29A3.125,3.125 0 1 1 1308.8,670.29Z" style="fill:none;stroke:#F15A60;stroke-width:0.625" />
<path d="M1315.7,633.19A3.125,3.125 0 1 1 1309.4,633.19A3.125,3.125 0 1 1 1315.7,633.19Z" style="fill:none;stroke:#F15A60;stroke-width:0.625" />
<path d="M1322.6,612.16A3.125,3.125 0 1 1 1316.3,612.16A3.125,3.125 0 1 1 1322.6,612.16Z" style="fill:none;stroke:#F15A60;stroke-width:0.625" />
<path d="M1329.5,567.03A3.125,3.125 0 1 1 1323.2,567.03A3.125,3.125 0 1 1 1329.5,567.03Z" style="fill:none;stroke:#F15A60;stroke-width:0.625" />
<path d="M1336.4,669.42L1336.4,669.42A3.125,3.125 0 1 1 1330.2,669.42A3.125,3.125 0 1 1 1336.4,669.42Z" style="fill:none;stroke:#F15A60;stroke-width:0.625" />
<path d="M1343.3,806.88L1343.3,806.88A3.125,3.125 0 1 1 1337.1,806.88A3.125,3.125 0 1 1 1343.3,806.88Z" style="fill:none;stroke:#F15A60;stroke-width:0.625" />
<path d="M1350.2,628.25L1350.2,628.25A3.125,3.125 0 1 1 1344,628.25A3.125,3.125 0 1 1 1350.2,628.25Z" style="fill:none;stroke:#F15A60;stroke-width:0.625" />
<path d="M1357.1,536.45A3.125,3.125 0 1 1 1350.9,536.45A3.125,3.125 0 1 1 1357.1,536.45Z" style="fill:none;stroke:#F15A60;stroke-width:0.625" />
<path d="M1364,658.06A3.125,3.125 0 1 1 1357.8,658.06A3.125,3.125 0 1 1 1364,658.06Z" style="fill:none;stroke:#F15A60;stroke-width:0.625" />
<path d="M1370.9,636.69A3.125,3.125 0 1 1 1364.7,636.69A3.125,3.125 0 1 1 1370.9,636.69Z" style="fill:none;stroke:#F15A60;stroke-width:0.625" />
<path d="M1377.8,464.14A3.125,3.125 0 1 1 1371.6,464.14A3.125,3.125 0 1 1 1377.8,464.14Z" style="fill:none;stroke:#F15A60;stroke-width:0.625" />
<path d="M1384.7,363.45A3.125,3.125 0 1 1 1378.5,363.45A3.125,3.125 0 1 1 1384.7,363.45Z" style="fill:none;stroke:#F15A60;stroke-width:0.625" />
<path d="M1391.7,466.32L1391.7,466.32A3.125,3.125 0 1 1 1385.4,466.32A3.125,3.125 0 1 1 1391.7,466.32Z" style="fill:none;stroke:#F15A60;stroke-width:0.625" />
<path d="M1398.6,324.18A3.125,3.125 0 1 1 1392.3,324.18A3.125,3.125 0 1 1 1398.6,324.18Z" style="fill:none;stroke:#F15A60;stroke-width:0.625" />
<path d="M1405.5,251.12L1405.5,251.12A3.125,3.125 0 1 1 1399.2,251.12A3.125,3.125 0 1 1 1405.5,251.12Z" style="fill:none;stroke:#F15A60;stroke-width:0.625" />
<path d="M1412.4,189.52L1412.4,189.52A3.125,3.125 0 1 1 1406.1,189.52A3.125,3.125 0 1 1 1412.4,189.52Z" style="fill:none;stroke:#F15A60;stroke-width:0.625" />
<path d="M1419.3,120.74A3.125,3.125 0 1 1 1413,120.74A3.125,3.125 0 1 1 1419.3,120.74Z" style="fill:none;stroke:#F15A60;stroke-width:0.625" />
<path d="M1426.2,188.49L1426.2,188.49A3.125,3.125 0 1 1 1419.9,188.49A3.125,3.125 0 1 1 1426.2,188.49Z" style="fill:none;stroke:#F15A60;stroke-width:0.625" />
<path d="M1433.1,101.02A3.125,3.125 0 1 1 1426.8,101.02A3.125,3.125 0 1 1 1433.1,101.02Z" style="fill:none;stroke:#F15A60;stroke-width:0.625" />
<path d="M1440,51.226A3.125,3.125 0 1 1 1433.8,51.226A3.125,3.125 0 1 1 1440,51.226Z" style="fill:none;stroke:#F15A60;stroke-width:0.625" />
<path d="M62.495,641.31L69.402,678.68L76.308,683.45L83.214,649.98L90.121,645.21L97.027,590.25L103.93,521.92L110.84,506.41L117.75,481.38L124.65,442.78L131.56,365.82L138.47,298.75L145.37,243.05L152.28,211.31L159.19,214.61L166.09,187.88L173,181.04L179.9,201.94L186.81,234.16L193.72,283.41L200.62,303.5L207.53,338.64L214.44,374.67L221.34,430.76L228.25,457.68L235.16,520.25L242.06,593.62L248.97,613.31L255.88,665.27L262.78,695.6L269.69,695.53L276.59,675.05L283.5,641.41L290.41,601.73L297.31,562.53L304.22,550.06L311.13,504.01L318.03,447.08L324.94,411.79L331.85,370.33L338.75,329.03L345.66,272.63L352.57,250.29L359.47,207.17L366.38,197.82L373.28,196.32L380.19,191.52L387.1,230.52L394,257.13L400.91,301.22L407.82,355.32L414.72,412.92L421.63,459.54L428.54,527.98L435.44,550.24L442.35,618.02L449.26,664.69L456.16,692.77L463.07,688.33L469.97,682.82L476.88,704.15L483.79,716.88L490.69,676.9L497.6,663.41L504.51,633.24L511.41,583.71L518.32,509.36L525.23,430.92L532.13,379.25L539.04,321.32L545.95,257.9L552.85,222.88L559.76,198.81L566.66,180.04L573.57,147.42L580.48,148.64L587.38,137.16L594.29,152.43L601.2,164.51L608.1,197.07L615.01,264.56L621.92,340.15L628.82,409.98L635.73,502.85L642.64,557.58L649.54,630.59L656.45,656.05L663.35,693.68L670.26,728.82L677.17,739.01L684.07,715.72L690.98,681.16L697.89,648.48L704.79,633.66L711.7,586.74L718.61,551.37L725.51,516.59L732.42,430.12L739.33,398.86L746.23,329.77L753.14,258.03L760.04,231.47L766.95,199.92L773.86,193.86L780.76,210.85L787.67,235.38L794.58,218.83L801.48,256.95L808.39,275.45L815.3,342.11L822.2,405.99L829.11,425.04L836.02,482.47L842.92,528.43L849.83,602.36L856.73,657.83L863.64,708.72L870.55,752.55L877.45,730.98L884.36,720.2L891.27,735L898.17,709.23L905.08,685.07L911.99,655.36L918.89,590.94L925.8,523.85L932.71,468.63L939.61,423.31L946.52,374.05L953.42,295.06L960.33,226.86L967.24,186.78L974.14,184.76L981.05,150.25L987.96,178.79L994.86,170.46L1001.8,194.71L1008.7,211.3L1015.6,264.78L1022.5,307.52L1029.4,357.88L1036.3,426.36L1043.2,462.46L1050.1,523.29L1057,585.34L1063.9,656.8L1070.8,668.84L1077.7,707.06L1084.6,731.1L1091.6,754.71L1098.5,717.58L1105.4,707.24L1112.3,681.7L1119.2,626.76L1126.1,565.2L1133,506.11L1139.9,450.06L1146.8,365.08L1153.7,328.2L1160.6,290.76L1167.5,275.86L1174.4,216.21L1181.3,223.76L1188.2,200.29L1195.1,212.44L1202.1,235.21L1209,279.79L1215.9,325.2L1222.8,346.3L1229.7,363.51L1236.6,408.29L1243.5,479.09L1250.4,532.31L1257.3,568.69L1264.2,586.71L1271.1,621.76L1278,681.64L1284.9,692.71L1291.8,676.77L1298.7,684.12L1305.7,682.83L1312.6,643.56L1319.5,585.86L1326.4,557.52L1333.3,499.72L1340.2,434.11L1347.1,368.53L1354,298.45L1360.9,254.01L1367.8,201.62L1374.7,151.42L1381.6,136.24L1388.5,120.16L1395.4,109.45L1402.3,102.74L1409.2,100.57L1416.2,103.49L1423.1,105.75L1430,142.79L1436.9,295.39" style="fill:none;stroke:#7AC36A;stroke-width:1.25;stroke-dasharray:7.5,2.5" />
<path d="M59.828,638.65L65.162,638.65L65.162,643.98L59.828,643.98Z" style="fill:none;stroke:#7AC36A;stroke-width:0.625" />
<path d="M66.734,676.01L72.069,676.01L72.069,681.35L66.734,681.35Z" style="fill:none;stroke:#7AC36A;stroke-width:0.625" />
<path d="M73.641,680.78L78.975,680.78L78.975,686.12L73.641,686.12Z" style="fill:none;stroke:#7AC36A;stroke-width:0.625" />
<path d="M80.547,647.31L85.882,647.31L85.882,652.65L80.547,652.65Z" style="fill:none;stroke:#7AC36A;stroke-width:0.625" />
<path d="M87.453,642.55L92.788,642.55L92.788,647.88L87.453,647.88Z" style="fill:none;stroke:#7AC36A;stroke-width:0.625" />
<path d="M94.36,587.58L99.695,587.58L99.695,592.92L94.36,592.92Z" style="fill:none;stroke:#7AC36A;stroke-width:0.625" />
<path d="M101.27,519.25L106.6,519.25L106.6,524.59L101.27,524.59Z" style="fill:none;stroke:#7AC36A;stroke-width:0.625" />
<path d="M108.17,503.74L113.51,503.74L113.51,509.07L108.17,509.07Z" style="fill:none;stroke:#7AC36A;stroke-width:0.625" />
<path d="M115.08,478.72L120.41,478.72L120.41,484.05L115.08,484.05Z" style="fill:none;stroke:#7AC36A;stroke-width:0.625" />
<path d="M121.99,440.12L127.32,440.12L127.32,445.45L121.99,445.45Z" style="fill:none;stroke:#7AC36A;stroke-width:0.625" />
<path d="M128.89,363.15L134.23,363.15L134.23,368.48L128.89,368.48Z" style="fill:none;stroke:#7AC36A;stroke-width:0.625" />
<path d="M135.8,296.08L141.13,296.08L141.13,301.41L135.8,301.41Z" style="fill:none;stroke:#7AC36A;stroke-width:0.625" />
<path d="M142.7,240.39L148.04,240.39L148.04,245.72L142.7,245.72Z" style="fill:none;stroke:#7AC36A;stroke-width:0.625" />
<path d="M149.61,208.64L154.95,208.64L154.95,213.98L149.61,213.98Z" style="fill:none;stroke:#7AC36A;stroke-width:0.625" />
<path d="M156.52,211.94L161.85,211.94L161.85,217.28L156.52,217.28Z" style="fill:none;stroke:#7AC36A;stroke-width:0.625" />
<path d="M163.42,185.21L168.76,185.21L168.76,190.55L163.42,190.55Z" style="fill:none;stroke:#7AC36A;stroke-width:0.625" />
<path d="M170.33,178.37L175.67,178.37L175.67,183.7L170.33,183.7Z" style="fill:none;stroke:#7AC36A;stroke-width:0.625" />
<path d="M177.24,199.27L182.57,199.27L182.57,204.6L177.24,204.6Z" style="fill:none;stroke:#7AC36A;stroke-width:0.625" />
<path d="M184.14,231.49L189.48,231.49L189.48,236.83L184.14,236.83Z" style="fill:none;stroke:#7AC36A;stroke-width:0.625" />
<path d="M191.05,280.74L196.38,280.74L196.38,286.07L191.05,286.07Z" style="fill:none;stroke:#7AC36A;stroke-width:0.625" />
<path d="M197.96,300.83L203.29,300.83L203.29,306.17L197.96,306.17Z" style="fill:none;stroke:#7AC36A;stroke-width:0.625" />
<path d="M204.86,335.98L210.2,335.98L210.2,341.31L204.86,341.31Z" style="fill:none;stroke:#7AC36A;stroke-width:0.625" />
<path d="M211.77,372L217.1,372L217.1,377.34L211.77,377.34Z" style="fill:none;stroke:#7AC36A;stroke-width:0.625" />
<path d="M218.68,428.1L224.01,428.1L224.01,433.43L218.68,433.43Z" style="fill:none;stroke:#7AC36A;stroke-width:0.625" />
<path d="M225.58,455.01L230.92,455.01L230.92,460.34L225.58,460.34Z" style="fill:none;stroke:#7AC36A;stroke-width:0.625" />
<path d="M232.49,517.58L237.82,517.58L237.82,522.92L232.49,522.92Z" style="fill:none;stroke:#7AC36A;stroke-width:0.625" />
<path d="M239.39,590.95L244.73,590.95L244.73,596.28L239.39,596.28Z" style="fill:none;stroke:#7AC36A;stroke-width:0.625" />
<path d="M246.3,610.65L251.64,610.65L251.64,615.98L246.3,615.98Z" style="fill:none;stroke:#7AC36A;stroke-width:0.625" />
<path d="M253.21,662.6L258.54,662.6L258.54,667.94L253.21,667.94Z" style="fill:none;stroke:#7AC36A;stroke-width:0.625" />
<path d="M260.11,692.94L265.45,692.94L265.45,698.27L260.11,698.27Z" style="fill:none;stroke:#7AC36A;stroke-width:0.625" />
<path d="M267.02,692.86L272.36,692.86L272.36,698.19L267.02,698.19Z" style="fill:none;stroke:#7AC36A;stroke-width:0.625" />
<path d="M273.93,672.39L279.26,672.39L279.26,677.72L273.93,677.72Z" style="fill:none;stroke:#7AC36A;stroke-width:0.625" />
<path d="M280.83,638.75L286.17,638.75L286.17,644.08L280.83,644.08Z" style="fill:none;stroke:#7AC36A;stroke-width:0.625" />
<path d="M287.74,599.06L293.07,599.06L293.07,604.4L287.74,604.4Z" style="fill:none;stroke:#7AC36A;stroke-width:0.625" />
<path d="M294.65,559.86L299.98,559.86L299.98,565.2L294.65,565.2Z" style="fill:none;stroke:#7AC36A;stroke-width:0.625" />
<path d="M301.55,547.39L306.89,547.39L306.89,552.73L301.55,552.73Z" style="fill:none;stroke:#7AC36A;stroke-width:0.625" />
<path d="M308.46,501.34L313.79,501.34L313.79,506.68L308.46,506.68Z" style="fill:none;stroke:#7AC36A;stroke-width:0.625" />
<path d="M315.37,444.42L320.7,444.42L320.7,449.75L315.37,449.75Z" style="fill:none;stroke:#7AC36A;stroke-width:0.625" />
<path d="M322.27,409.12L327.61,409.12L327.61,414.46L322.27,414.46Z" style="fill:none;stroke:#7AC36A;stroke-width:0.625" />
<path d="M329.18,367.67L334.51,367.67L334.51,373L329.18,373Z" style="fill:none;stroke:#7AC36A;stroke-width:0.625" />
<path d="M336.09,326.36L341.42,326.36L341.42,331.69L336.09,331.69Z" style="fill:none;stroke:#7AC36A;stroke-width:0.625" />
<path d="M342.99,269.96L348.33,269.96L348.33,275.3L342.99,275.3Z" style="fill:none;stroke:#7AC36A;stroke-width:0.625" />
<path d="M349.9,247.63L355.23,247.63L355.23,252.96L349.9,252.96Z" style="fill:none;stroke:#7AC36A;stroke-width:0.625" />
<path d="M356.8,204.5L362.14,204.5L362.14,209.84L356.8,209.84Z" style="fill:none;stroke:#7AC36A;stroke-width:0.625" />
<path d="M363.71,195.16L369.05,195.16L369.05,200.49L363.71,200.49Z" style="fill:none;stroke:#7AC36A;stroke-width:0.625" />
<path d="M370.62,193.65L375.95,193.65L375.95,198.99L370.62,198.99Z" style="fill:none;stroke:#7AC36A;stroke-width:0.625" />
<path d="M377.52,188.86L382.86,188.86L382.86,194.19L377.52,194.19Z" style="fill:none;stroke:#7AC36A;stroke-width:0.625" />
<path d="M384.43,227.85L389.76,227.85L389.76,233.19L384.43,233.19Z" style="fill:none;stroke:#7AC36A;stroke-width:0.625" />
<path d="M391.34,254.47L396.67,254.47L396.67,259.8L391.34,259.8Z" style="fill:none;stroke:#7AC36A;stroke-width:0.625" />
<path d="M398.24,298.56L403.58,298.56L403.58,303.89L398.24,303.89Z" style="fill:none;stroke:#7AC36A;stroke-width:0.625" />
<path d="M405.15,352.65L410.48,352.65L410.48,357.99L405.15,357.99Z" style="fill:none;stroke:#7AC36A;stroke-width:0.625" />
<path d="M412.06,410.25L417.39,410.25L417.39,415.59L412.06,415.59Z" style="fill:none;stroke:#7AC36A;stroke-width:0.625" />
<path d="M418.96,456.87L424.3,456.87L424.3,462.2L418.96,462.2Z" style="fill:none;stroke:#7AC36A;stroke-width:0.625" />
<path d="M425.87,525.31L431.2,525.31L431.2,530.65L425.87,530.65Z" style="fill:none;stroke:#7AC36A;stroke-width:0.625" />
<path d="M432.78,547.57L438.11,547.57L438.11,552.91L432.78,552.91Z" style="fill:none;stroke:#7AC36A;stroke-width:0.625" />
<path d="M439.68,615.35L445.02,615.35L445.02,620.68L439.68,620.68Z" style="fill:none;stroke:#7AC36A;stroke-width:0.625" />
<path d="M446.59,662.02L451.92,662.02L451.92,667.36L446.59,667.36Z" style="fill:none;stroke:#7AC36A;stroke-width:0.625" />
<path d="M453.49,690.1L458.83,690.1L458.83,695.44L453.49,695.44Z" style="fill:none;stroke:#7AC36A;stroke-width:0.625" />
<path d="M460.4,685.66L465.74,685.66L465.74,691L460.4,691Z" style="fill:none;stroke:#7AC36A;stroke-width:0.625" />
<path d="M467.31,680.16L472.64,680.16L472.64,685.49L467.31,685.49Z" style="fill:none;stroke:#7AC36A;stroke-width:0.625" />
<path d="M474.21,701.48L479.55,701.48L479.55,706.81L474.21,706.81Z" style="fill:none;stroke:#7AC36A;stroke-width:0.625" />
<path d="M481.12,714.21L486.45,714.21L486.45,719.54L481.12,719.54Z" style="fill:none;stroke:#7AC36A;stroke-width:0.625" />
<path d="M488.03,674.23L493.36,674.23L493.36,679.57L488.03,679.57Z" style="fill:none;stroke:#7AC36A;stroke-width:0.625" />
<path d="M494.93,660.74L500.27,660.74L500.27,666.08L494.93,666.08Z" style="fill:none;stroke:#7AC36A;stroke-width:0.625" />
<path d="M501.84,630.57L507.17,630.57L507.17,635.9L501.84,635.9Z" style="fill:none;stroke:#7AC36A;stroke-width:0.625" />
<path d="M508.75,581.04L514.08,581.04L514.08,586.37L508.75,586.37Z" style="fill:none;stroke:#7AC36A;stroke-width:0.625" />
<path d="M515.65,506.7L520.99,506.7L520.99,512.03L515.65,512.03Z" style="fill:none;stroke:#7AC36A;stroke-width:0.625" />
<path d="M522.56,428.25L527.89,428.25L527.89,433.59L522.56,433.59Z" style="fill:none;stroke:#7AC36A;stroke-width:0.625" />
<path d="M529.47,376.59L534.8,376.59L534.8,381.92L529.47,381.92Z" style="fill:none;stroke:#7AC36A;stroke-width:0.625" />
<path d="M536.37,318.66L541.71,318.66L541.71,323.99L536.37,323.99Z" style="fill:none;stroke:#7AC36A;stroke-width:0.625" />
<path d="M543.28,255.24L548.61,255.24L548.61,260.57L543.28,260.57Z" style="fill:none;stroke:#7AC36A;stroke-width:0.625" />
<path d="M550.18,220.21L555.52,220.21L555.52,225.54L550.18,225.54Z" style="fill:none;stroke:#7AC36A;stroke-width:0.625" />
<path d="M557.09,196.14L562.43,196.14L562.43,201.48L557.09,201.48Z" style="fill:none;stroke:#7AC36A;stroke-width:0.625" />
<path d="M564,177.37L569.33,177.37L569.33,182.7L564,182.7Z" style="fill:none;stroke:#7AC36A;stroke-width:0.625" />
<path d="M570.9,144.75L576.24,144.75L576.24,150.08L570.9,150.08Z" style="fill:none;stroke:#7AC36A;stroke-width:0.625" />
<path d="M577.81,145.97L583.14,145.97L583.14,151.31L577.81,151.31Z" style="fill:none;stroke:#7AC36A;stroke-width:0.625" />
<path d="M584.72,134.49L590.05,134.49L590.05,139.83L584.72,139.83Z" style="fill:none;stroke:#7AC36A;stroke-width:0.625" />
<path d="M591.62,149.77L596.96,149.77L596.96,155.1L591.62,155.1Z" style="fill:none;stroke:#7AC36A;stroke-width:0.625" />
<path d="M598.53,161.85L603.86,161.85L603.86,167.18L598.53,167.18Z" style="fill:none;stroke:#7AC36A;stroke-width:0.625" />
<path d="M605.44,194.4L610.77,194.4L610.77,199.74L605.44,199.74Z" style="fill:none;stroke:#7AC36A;stroke-width:0.625" />
<path d="M612.34,261.9L617.68,261.9L617.68,267.23L612.34,267.23Z" style="fill:none;stroke:#7AC36A;stroke-width:0.625" />
<path d="M619.25,337.49L624.58,337.49L624.58,342.82L619.25,342.82Z" style="fill:none;stroke:#7AC36A;stroke-width:0.625" />
<path d="M626.16,407.31L631.49,407.31L631.49,412.65L626.16,412.65Z" style="fill:none;stroke:#7AC36A;stroke-width:0.625" />
<path d="M633.06,500.19L638.4,500.19L638.4,505.52L633.06,505.52Z" style="fill:none;stroke:#7AC36A;stroke-width:0.625" />
<path d="M639.97,554.91L645.3,554.91L645.3,560.25L639.97,560.25Z" style="fill:none;stroke:#7AC36A;stroke-width:0.625" />
<path d="M646.87,627.92L652.21,627.92L652.21,633.25L646.87,633.25Z" style="fill:none;stroke:#7AC36A;stroke-width:0.625" />
<path d="M653.78,653.38L659.12,653.38L659.12,658.71L653.78,658.71Z" style="fill:none;stroke:#7AC36A;stroke-width:0.625" />
<path d="M660.69,691.01L666.02,691.01L666.02,696.35L660.69,696.35Z" style="fill:none;stroke:#7AC36A;stroke-width:0.625" />
<path d="M667.59,726.16L672.93,726.16L672.93,731.49L667.59,731.49Z" style="fill:none;stroke:#7AC36A;stroke-width:0.625" />
<path d="M674.5,736.34L679.83,736.34L679.83,741.68L674.5,741.68Z" style="fill:none;stroke:#7AC36A;stroke-width:0.625" />
<path d="M681.41,713.05L686.74,713.05L686.74,718.39L681.41,718.39Z" style="fill:none;stroke:#7AC36A;stroke-width:0.625" />
<path d="M688.31,678.5L693.65,678.5L693.65,683.83L688.31,683.83Z" style="fill:none;stroke:#7AC36A;stroke-width:0.625" />
<path d="M695.22,645.81L700.55,645.81L700.55,651.14L695.22,651.14Z" style="fill:none;stroke:#7AC36A;stroke-width:0.625" />
<path d="M702.13,631L707.46,631L707.46,636.33L702.13,636.33Z" style="fill:none;stroke:#7AC36A;stroke-width:0.625" />
<path d="M709.03,584.07L714.37,584.07L714.37,589.41L709.03,589.41Z" style="fill:none;stroke:#7AC36A;stroke-width:0.625" />
<path d="M715.94,548.71L721.27,548.71L721.27,554.04L715.94,554.04Z" style="fill:none;stroke:#7AC36A;stroke-width:0.625" />
<path d="M722.85,513.92L728.18,513.92L728.18,519.25L722.85,519.25Z" style="fill:none;stroke:#7AC36A;stroke-width:0.625" />
<path d="M729.75,427.46L735.09,427.46L735.09,432.79L729.75,432.79Z" style="fill:none;stroke:#7AC36A;stroke-width:0.625" />
<path d="M736.66,396.19L741.99,396.19L741.99,401.52L736.66,401.52Z" style="fill:none;stroke:#7AC36A;stroke-width:0.625" />
<path d="M743.56,327.11L748.9,327.11L748.9,332.44L743.56,332.44Z" style="fill:none;stroke:#7AC36A;stroke-width:0.625" />
<path d="M750.47,255.36L755.81,255.36L755.81,260.7L750.47,260.7Z" style="fill:none;stroke:#7AC36A;stroke-width:0.625" />
<path d="M757.38,228.81L762.71,228.81L762.71,234.14L757.38,234.14Z" style="fill:none;stroke:#7AC36A;stroke-width:0.625" />
<path d="M764.28,197.26L769.62,197.26L769.62,202.59L764.28,202.59Z" style="fill:none;stroke:#7AC36A;stroke-width:0.625" />
<path d="M771.19,191.19L776.52,191.19L776.52,196.52L771.19,196.52Z" style="fill:none;stroke:#7AC36A;stroke-width:0.625" />
<path d="M778.1,208.19L783.43,208.19L783.43,213.52L778.1,213.52Z" style="fill:none;stroke:#7AC36A;stroke-width:0.625" />
<path d="M785,232.71L790.34,232.71L790.34,238.05L785,238.05Z" style="fill:none;stroke:#7AC36A;stroke-width:0.625" />
<path d="M791.91,216.16L797.24,216.16L797.24,221.49L791.91,221.49Z" style="fill:none;stroke:#7AC36A;stroke-width:0.625" />
<path d="M798.82,254.28L804.15,254.28L804.15,259.61L798.82,259.61Z" style="fill:none;stroke:#7AC36A;stroke-width:0.625" />
<path d="M805.72,272.78L811.06,272.78L811.06,278.11L805.72,278.11Z" style="fill:none;stroke:#7AC36A;stroke-width:0.625" />
<path d="M812.63,339.45L817.96,339.45L817.96,344.78L812.63,344.78Z" style="fill:none;stroke:#7AC36A;stroke-width:0.625" />
<path d="M819.54,403.32L824.87,403.32L824.87,408.66L819.54,408.66Z" style="fill:none;stroke:#7AC36A;stroke-width:0.625" />
<path d="M826.44,422.37L831.78,422.37L831.78,427.71L826.44,427.71Z" style="fill:none;stroke:#7AC36A;stroke-width:0.625" />
<path d="M833.35,479.8L838.68,479.8L838.68,485.14L833.35,485.14Z" style="fill:none;stroke:#7AC36A;stroke-width:0.625" />
<path d="M840.25,525.76L845.59,525.76L845.59,531.1L840.25,531.1Z" style="fill:none;stroke:#7AC36A;stroke-width:0.625" />
<path d="M847.16,599.69L852.5,599.69L852.5,605.03L847.16,605.03Z" style="fill:none;stroke:#7AC36A;stroke-width:0.625" />
<path d="M854.07,655.16L859.4,655.16L859.4,660.49L854.07,660.49Z" style="fill:none;stroke:#7AC36A;stroke-width:0.625" />
<path d="M860.97,706.05L866.31,706.05L866.31,711.38L860.97,711.38Z" style="fill:none;stroke:#7AC36A;stroke-width:0.625" />
<path d="M867.88,749.88L873.21,749.88L873.21,755.22L867.88,755.22Z" style="fill:none;stroke:#7AC36A;stroke-width:0.625" />
<path d="M874.79,728.32L880.12,728.32L880.12,733.65L874.79,733.65Z" style="fill:none;stroke:#7AC36A;stroke-width:0.625" />
<path d="M881.69,717.53L887.03,717.53L887.03,722.87L881.69,722.87Z" style="fill:none;stroke:#7AC36A;stroke-width:0.625" />
<path d="M888.6,732.34L893.93,732.34L893.93,737.67L888.6,737.67Z" style="fill:none;stroke:#7AC36A;stroke-width:0.625" />
<path d="M895.51,706.56L900.84,706.56L900.84,711.9L895.51,711.9Z" style="fill:none;stroke:#7AC36A;stroke-width:0.625" />
<path d="M902.41,682.4L907.75,682.4L907.75,687.74L902.41,687.74Z" style="fill:none;stroke:#7AC36A;stroke-width:0.625" />
<path d="M909.32,652.7L914.65,652.7L914.65,658.03L909.32,658.03Z" style="fill:none;stroke:#7AC36A;stroke-width:0.625" />
<path d="M916.23,588.27L921.56,588.27L921.56,593.6L916.23,593.6Z" style="fill:none;stroke:#7AC36A;stroke-width:0.625" />
<path d="M923.13,521.18L928.47,521.18L928.47,526.52L923.13,526.52Z" style="fill:none;stroke:#7AC36A;stroke-width:0.625" />
<path d="M930.04,465.97L935.37,465.97L935.37,471.3L930.04,471.3Z" style="fill:none;stroke:#7AC36A;stroke-width:0.625" />
<path d="M936.94,420.64L942.28,420.64L942.28,425.98L936.94,425.98Z" style="fill:none;stroke:#7AC36A;stroke-width:0.625" />
<path d="M943.85,371.38L949.19,371.38L949.19,376.71L943.85,376.71Z" style="fill:none;stroke:#7AC36A;stroke-width:0.625" />
<path d="M950.76,292.39L956.09,292.39L956.09,297.72L950.76,297.72Z" style="fill:none;stroke:#7AC36A;stroke-width:0.625" />
<path d="M957.66,224.19L963,224.19L963,229.53L957.66,229.53Z" style="fill:none;stroke:#7AC36A;stroke-width:0.625" />
<path d="M964.57,184.11L969.91,184.11L969.91,189.45L964.57,189.45Z" style="fill:none;stroke:#7AC36A;stroke-width:0.625" />
<path d="M971.48,182.1L976.81,182.1L976.81,187.43L971.48,187.43Z" style="fill:none;stroke:#7AC36A;stroke-width:0.625" />
<path d="M978.38,147.58L983.72,147.58L983.72,152.92L978.38,152.92Z" style="fill:none;stroke:#7AC36A;stroke-width:0.625" />
<path d="M985.29,176.13L990.62,176.13L990.62,181.46L985.29,181.46Z" style="fill:none;stroke:#7AC36A;stroke-width:0.625" />
<path d="M992.2,167.8L997.53,167.8L997.53,173.13L992.2,173.13Z" style="fill:none;stroke:#7AC36A;stroke-width:0.625" />
<path d="M999.1,192.04L1004.4,192.04L1004.4,197.38L999.1,197.38Z" style="fill:none;stroke:#7AC36A;stroke-width:0.625" />
<path d="M1006,208.63L1011.3,208.63L1011.3,213.97L1006,213.97Z" style="fill:none;stroke:#7AC36A;stroke-width:0.625" />
<path d="M1012.9,262.12L1018.3,262.12L1018.3,267.45L1012.9,267.45Z" style="fill:none;stroke:#7AC36A;stroke-width:0.625" />
<path d="M1019.8,304.85L1025.2,304.85L1025.2,310.19L1019.8,310.19Z" style="fill:none;stroke:#7AC36A;stroke-width:0.625" />
<path d="M1026.7,355.21L1032.1,355.21L1032.1,360.55L1026.7,360.55Z" style="fill:none;stroke:#7AC36A;stroke-width:0.625" />
<path d="M1033.6,423.69L1039,423.69L1039,429.02L1033.6,429.02Z" style="fill:none;stroke:#7AC36A;stroke-width:0.625" />
<path d="M1040.5,459.79L1045.9,459.79L1045.9,465.12L1040.5,465.12Z" style="fill:none;stroke:#7AC36A;stroke-width:0.625" />
<path d="M1047.4,520.62L1052.8,520.62L1052.8,525.95L1047.4,525.95Z" style="fill:none;stroke:#7AC36A;stroke-width:0.625" />
<path d="M1054.4,582.67L1059.7,582.67L1059.7,588L1054.4,588Z" style="fill:none;stroke:#7AC36A;stroke-width:0.625" />
<path d="M1061.3,654.14L1066.6,654.14L1066.6,659.47L1061.3,659.47Z" style="fill:none;stroke:#7AC36A;stroke-width:0.625" />
<path d="M1068.2,666.17L1073.5,666.17L1073.5,671.5L1068.2,671.5Z" style="fill:none;stroke:#7AC36A;stroke-width:0.625" />
<path d="M1075.1,704.39L1080.4,704.39L1080.4,709.73L1075.1,709.73Z" style="fill:none;stroke:#7AC36A;stroke-width:0.625" />
<path d="M1082,728.43L1087.3,728.43L1087.3,733.77L1082,733.77Z" style="fill:none;stroke:#7AC36A;stroke-width:0.625" />
<path d="M1088.9,752.05L1094.2,752.05L1094.2,757.38L1088.9,757.38Z" style="fill:none;stroke:#7AC36A;stroke-width:0.625" />
<path d="M1095.8,714.91L1101.1,714.91L1101.1,720.25L1095.8,720.25Z" style="fill:none;stroke:#7AC36A;stroke-width:0.625" />
<path d="M1102.7,704.58L1108,704.58L1108,709.91L1102.7,709.91Z" style="fill:none;stroke:#7AC36A;stroke-width:0.625" />
<path d="M1109.6,679.04L1114.9,679.04L1114.9,684.37L1109.6,684.37Z" style="fill:none;stroke:#7AC36A;stroke-width:0.625" />
<path d="M1116.5,624.09L1121.8,624.09L1121.8,629.43L1116.5,629.43Z" style="fill:none;stroke:#7AC36A;stroke-width:0.625" />
<path d="M1123.4,562.54L1128.8,562.54L1128.8,567.87L1123.4,567.87Z" style="fill:none;stroke:#7AC36A;stroke-width:0.625" />
<path d="M1130.3,503.44L1135.7,503.44L1135.7,508.78L1130.3,508.78Z" style="fill:none;stroke:#7AC36A;stroke-width:0.625" />
<path d="M1137.2,447.39L1142.6,447.39L1142.6,452.73L1137.2,452.73Z" style="fill:none;stroke:#7AC36A;stroke-width:0.625" />
<path d="M1144.1,362.41L1149.5,362.41L1149.5,367.74L1144.1,367.74Z" style="fill:none;stroke:#7AC36A;stroke-width:0.625" />
<path d="M1151,325.54L1156.4,325.54L1156.4,330.87L1151,330.87Z" style="fill:none;stroke:#7AC36A;stroke-width:0.625" />
<path d="M1158,288.1L1163.3,288.1L1163.3,293.43L1158,293.43Z" style="fill:none;stroke:#7AC36A;stroke-width:0.625" />
<path d="M1164.9,273.19L1170.2,273.19L1170.2,278.52L1164.9,278.52Z" style="fill:none;stroke:#7AC36A;stroke-width:0.625" />
<path d="M1171.8,213.54L1177.1,213.54L1177.1,218.87L1171.8,218.87Z" style="fill:none;stroke:#7AC36A;stroke-width:0.625" />
<path d="M1178.7,221.09L1184,221.09L1184,226.42L1178.7,226.42Z" style="fill:none;stroke:#7AC36A;stroke-width:0.625" />
<path d="M1185.6,197.62L1190.9,197.62L1190.9,202.96L1185.6,202.96Z" style="fill:none;stroke:#7AC36A;stroke-width:0.625" />
<path d="M1192.5,209.78L1197.8,209.78L1197.8,215.11L1192.5,215.11Z" style="fill:none;stroke:#7AC36A;stroke-width:0.625" />
<path d="M1199.4,232.54L1204.7,232.54L1204.7,237.88L1199.4,237.88Z" style="fill:none;stroke:#7AC36A;stroke-width:0.625" />
<path d="M1206.3,277.13L1211.6,277.13L1211.6,282.46L1206.3,282.46Z" style="fill:none;stroke:#7AC36A;stroke-width:0.625" />
<path d="M1213.2,322.54L1218.5,322.54L1218.5,327.87L1213.2,327.87Z" style="fill:none;stroke:#7AC36A;stroke-width:0.625" />
<path d="M1220.1,343.63L1225.4,343.63L1225.4,348.97L1220.1,348.97Z" style="fill:none;stroke:#7AC36A;stroke-width:0.625" />
<path d="M1227,360.85L1232.3,360.85L1232.3,366.18L1227,366.18Z" style="fill:none;stroke:#7AC36A;stroke-width:0.625" />
<path d="M1233.9,405.62L1239.3,405.62L1239.3,410.95L1233.9,410.95Z" style="fill:none;stroke:#7AC36A;stroke-width:0.625" />
<path d="M1240.8,476.42L1246.2,476.42L1246.2,481.76L1240.8,481.76Z" style="fill:none;stroke:#7AC36A;stroke-width:0.625" />
<path d="M1247.7,529.64L1253.1,529.64L1253.1,534.97L1247.7,534.97Z" style="fill:none;stroke:#7AC36A;stroke-width:0.625" />
<path d="M1254.6,566.02L1260,566.02L1260,571.36L1254.6,571.36Z" style="fill:none;stroke:#7AC36A;stroke-width:0.625" />
<path d="M1261.5,584.05L1266.9,584.05L1266.9,589.38L1261.5,589.38Z" style="fill:none;stroke:#7AC36A;stroke-width:0.625" />
<path d="M1268.5,619.1L1273.8,619.1L1273.8,624.43L1268.5,624.43Z" style="fill:none;stroke:#7AC36A;stroke-width:0.625" />
<path d="M1275.4,678.98L1280.7,678.98L1280.7,684.31L1275.4,684.31Z" style="fill:none;stroke:#7AC36A;stroke-width:0.625" />
<path d="M1282.3,690.04L1287.6,690.04L1287.6,695.38L1282.3,695.38Z" style="fill:none;stroke:#7AC36A;stroke-width:0.625" />
<path d="M1289.2,674.1L1294.5,674.1L1294.5,679.44L1289.2,679.44Z" style="fill:none;stroke:#7AC36A;stroke-width:0.625" />
<path d="M1296.1,681.45L1301.4,681.45L1301.4,686.78L1296.1,686.78Z" style="fill:none;stroke:#7AC36A;stroke-width:0.625" />
<path d="M1303,680.16L1308.3,680.16L1308.3,685.5L1303,685.5Z" style="fill:none;stroke:#7AC36A;stroke-width:0.625" />
<path d="M1309.9,640.89L1315.2,640.89L1315.2,646.22L1309.9,646.22Z" style="fill:none;stroke:#7AC36A;stroke-width:0.625" />
<path d="M1316.8,583.19L1322.1,583.19L1322.1,588.52L1316.8,588.52Z" style="fill:none;stroke:#7AC36A;stroke-width:0.625" />
<path d="M1323.7,554.85L1329,554.85L1329,560.19L1323.7,560.19Z" style="fill:none;stroke:#7AC36A;stroke-width:0.625" />
<path d="M1330.6,497.05L1335.9,497.05L1335.9,502.38L1330.6,502.38Z" style="fill:none;stroke:#7AC36A;stroke-width:0.625" />
<path d="M1337.5,431.44L1342.9,431.44L1342.9,436.78L1337.5,436.78Z" style="fill:none;stroke:#7AC36A;stroke-width:0.625" />
<path d="M1344.4,365.87L1349.8,365.87L1349.8,371.2L1344.4,371.2Z" style="fill:none;stroke:#7AC36A;stroke-width:0.625" />
<path d="M1351.3,295.78L1356.7,295.78L1356.7,301.12L1351.3,301.12Z" style="fill:none;stroke:#7AC36A;stroke-width:0.625" />
<path d="M1358.2,251.34L1363.6,251.34L1363.6,256.67L1358.2,256.67Z" style="fill:none;stroke:#7AC36A;stroke-width:0.625" />
<path d="M1365.1,198.95L1370.5,198.95L1370.5,204.29L1365.1,204.29Z" style="fill:none;stroke:#7AC36A;stroke-width:0.625" />
<path d="M1372,148.75L1377.4,148.75L1377.4,154.09L1372,154.09Z" style="fill:none;stroke:#7AC36A;stroke-width:0.625" />
<path d="M1379,133.58L1384.3,133.58L1384.3,138.91L1379,138.91Z" style="fill:none;stroke:#7AC36A;stroke-width:0.625" />
<path d="M1385.9,117.5L1391.2,117.5L1391.2,122.83L1385.9,122.83Z" style="fill:none;stroke:#7AC36A;stroke-width:0.625" />
<path d="M1392.8,106.78L1398.1,106.78L1398.1,112.12L1392.8,112.12Z" style="fill:none;stroke:#7AC36A;stroke-width:0.625" />
<path d="M1399.7,100.07L1405,100.07L1405,105.41L1399.7,105.41Z" style="fill:none;stroke:#7AC36A;stroke-width:0.625" />
<path d="M1406.6,97.901L1411.9,97.901L1411.9,103.24L1406.6,103.24Z" style="fill:none;stroke:#7AC36A;stroke-width:0.625" />
<path d="M1413.5,100.83L1418.8,100.83L1418.8,106.16L1413.5,106.16Z" style="fill:none;stroke:#7AC36A;stroke-width:0.625" />
<path d="M1420.4,103.08L1425.7,103.08L1425.7,108.42L1420.4,108.42Z" style="fill:none;stroke:#7AC36A;stroke-width:0.625" />
<path d="M1427.3,140.12L1432.6,140.12L1432.6,145.45L1427.3,145.45Z" style="fill:none;stroke:#7AC36A;stroke-width:0.625" />
<path d="M1434.2,292.72L1439.5,292.72L1439.5,298.05L1434.2,298.05Z" style="fill:none;stroke:#7AC36A;stroke-width:0.625" />
<path d="M1415,70.183L1440,70.183" style="fill:none;stroke:#F15A60;stroke-width:1.25" />
<path d="M1430.6,70.183A3.125,3.125 0 1 1 1424.4,70.183A3.125,3.125 0 1 1 1430.6,70.183Z" style="fill:none;stroke:#F15A60;stroke-width:0.625" />
<text x="1388.8" y="-63.101" transform="scale(1, -1)"
	style="font-family:Times;font-weight:normal;font-style:normal;font-size:12pt">raw</text>
<path d="M1415,55.461L1440,55.461" style="fill:none;stroke:#7AC36A;stroke-width:1.25;stroke-dasharray:7.5,2.5" />
<path d="M1424.8,52.794L1430.2,52.794L1430.2,58.129L1424.8,58.129Z" style="fill:none;stroke:#7AC36A;stroke-width:0.625" />
<text x="1367.1" y="-48.379" transform="scale(1, -1)"
	style="font-family:Times;font-weight:normal;font-style:normal;font-size:12pt">smooth</text>
</g>
</svg>
