<?xml version="1.0"?>
<!-- Generated by SVGo and Plotinum VG -->
<svg width="16in" height="9in"
	xmlns="http://www.w3.org/2000/svg"
	xmlns:xlink="http://www.w3.org/1999/xlink">
<g transform="scale(1, -1) translate(0, -810)">
<path d="M0,0L1440,0L1440,810L0,810Z" style="fill:#FFFFFF" />
<text x="744.27" y="-4.8267" transform="scale(1, -1)"
	style="font-family:Times;font-weight:normal;font-style:normal;font-size:12pt">X</text>
<text x="59.37" y="-19.502" transform="scale(1, -1)"
	style="font-family:Times;font-weight:normal;font-style:normal;font-size:10pt">0</text>
<text x="470.63" y="-19.502" transform="scale(1, -1)"
	style="font-family:Times;font-weight:normal;font-style:normal;font-size:10pt">60</text>
<text x="881.89" y="-19.502" transform="scale(1, -1)"
	style="font-family:Times;font-weight:normal;font-style:normal;font-size:10pt">120</text>
<text x="1296.3" y="-19.502" transform="scale(1, -1)"
	style="font-family:Times;font-weight:normal;font-style:normal;font-size:10pt">180</text>
<path d="M62.495,31.538L62.495,41.538" style="fill:none;stroke:#000000;stroke-width:0.625" />
<path d="M476.88,31.538L476.88,41.538" style="fill:none;stroke:#000000;stroke-width:0.625" />
<path d="M891.27,31.538L891.27,41.538" style="fill:none;stroke:#000000;stroke-width:0.625" />
<path d="M1305.7,31.538L1305.7,41.538" style="fill:none;stroke:#000000;stroke-width:0.625" />
<path d="M200.62,36.538L200.62,41.538" style="fill:none;stroke:#000000;stroke-width:0.625" />
<path d="M338.75,36.538L338.75,41.538" style="fill:none;stroke:#000000;stroke-width:0.625" />
<path d="M615.01,36.538L615.01,41.538" style="fill:none;stroke:#000000;stroke-width:0.625" />
<path d="M753.14,36.538L753.14,41.538" style="fill:none;stroke:#000000;stroke-width:0.625" />
<path d="M1029.4,36.538L1029.4,41.538" style="fill:none;stroke:#000000;stroke-width:0.625" />
<path d="M1167.5,36.538L1167.5,41.538" style="fill:none;stroke:#000000;stroke-width:0.625" />
<path d="M62.495,41.538L1436.9,41.538" style="fill:none;stroke:#000000;stroke-width:0.625" />
<g transform="rotate(90)">
<text x="423.63" y="14.443" transform="scale(1, -1)"
	style="font-family:Times;font-weight:normal;font-style:normal;font-size:12pt">Y</text>
</g>
<text x="19.27" y="-91.126" transform="scale(1, -1)"
	style="font-family:Times;font-weight:normal;font-style:normal;font-size:10pt">-0.8</text>
<text x="32.808" y="-295.09" transform="scale(1, -1)"
	style="font-family:Times;font-weight:normal;font-style:normal;font-size:10pt">0</text>
<text x="23.433" y="-499.05" transform="scale(1, -1)"
	style="font-family:Times;font-weight:normal;font-style:normal;font-size:10pt">0.8</text>
<text x="23.433" y="-703.01" transform="scale(1, -1)"
	style="font-family:Times;font-weight:normal;font-style:normal;font-size:10pt">1.6</text>
<path d="M42.183,97.028L52.183,97.028" style="fill:none;stroke:#000000;stroke-width:0.625" />
<path d="M42.183,300.99L52.183,300.99" style="fill:none;stroke:#000000;stroke-width:0.625" />
<path d="M42.183,504.95L52.183,504.95" style="fill:none;stroke:#000000;stroke-width:0.625" />
<path d="M42.183,708.91L52.183,708.91" style="fill:none;stroke:#000000;stroke-width:0.625" />
<path d="M47.183,97.028L52.183,97.028" style="fill:none;stroke:#000000;stroke-width:0.625" />
<path d="M47.183,199.01L52.183,199.01" style="fill:none;stroke:#000000;stroke-width:0.625" />
<path d="M47.183,300.99L52.183,300.99" style="fill:none;stroke:#000000;stroke-width:0.625" />
<path d="M47.183,402.97L52.183,402.97" style="fill:none;stroke:#000000;stroke-width:0.625" />
<path d="M47.183,504.95L52.183,504.95" style="fill:none;stroke:#000000;stroke-width:0.625" />
<path d="M47.183,606.93L52.183,606.93" style="fill:none;stroke:#000000;stroke-width:0.625" />
<path d="M52.183,51.226L52.183,806.88" style="fill:none;stroke:#000000;stroke-width:0.625" />
<path d="M62.495,420.54L69.402,361.32L76.308,590.82L83.214,654.48L90.121,624.92L97.027,691.65L103.93,775.57L110.84,575.57L117.75,625.65L124.65,559.89L131.56,600.68L138.47,642.73L145.37,538.38L152.28,548.78L159.19,646.19L166.09,465.87L173,496.69L179.9,357.91L186.81,512.3L193.72,368.59L200.62,241.14L207.53,271.23L214.44,372.13L221.34,129.99L228.25,266.75L235.16,215.67L242.06,304.42L248.97,51.226L255.88,118.15L262.78,99.74L269.69,171L276.59,359.96L283.5,279.27L290.41,208.12L297.31,363.37L304.22,368.77L311.13,448.09L318.03,397.59L324.94,550.66L331.85,525.88L338.75,578.92L345.66,662.58L352.57,763.36L359.47,723.9L366.38,698.52L373.28,624.96L380.19,726.66L387.1,604.13L394,549.7L400.91,524.28L407.82,477.07L414.72,565.91L421.63,452.52L428.54,498.03L435.44,522.23L442.35,380.53L449.26,282.83L456.16,235.57L463.07,209.07L469.97,152.44L476.88,211.7L483.79,192.87L490.69,198.35L497.6,150.92L504.51,95.141L511.41,151.45L518.32,170.02L525.23,357.68L532.13,202.81L539.04,411.3L545.95,340.23L552.85,429.12L559.76,375.47L566.66,497.31L573.57,541.38L580.48,628.18L587.38,608.33L594.29,627.23L601.2,709.39L608.1,590.36L615.01,730.94L621.92,787.79L628.82,750.87L635.73,626.18L642.64,735.2L649.54,647.14L656.45,483.06L663.35,463.62L670.26,430.12L677.17,513.72L684.07,512.25L690.98,262.29L697.89,442.38L704.79,365.66L711.7,148.19L718.61,316.99L725.51,215.16L732.42,309.59L739.33,116.42L746.23,168.28L753.14,173.64L760.04,64.458L766.95,216.18L773.86,270.62L780.76,229.29L787.67,418.46L794.58,229.46L801.48,281.88L808.39,337.36L815.3,529.87L822.2,458.36L829.11,665.36L836.02,532.94L842.92,586.19L849.83,570.5L856.73,658.05L863.64,806.88L870.55,571.11L877.45,754.14L884.36,696.16L891.27,530.59L898.17,716.09L905.08,471.44L911.99,556.52L918.89,456.73L925.8,533.03L932.71,303.38L939.61,286.71L946.52,277.3L953.42,175L960.33,331.05L967.24,226.68L974.14,79.848L981.05,132.12L987.96,109.12L994.86,299.42L1001.8,193.05L1008.7,302.75L1015.6,132.15L1022.5,211.03L1029.4,198L1036.3,399.55L1043.2,460.4L1050.1,445.73L1057,315.4L1063.9,472.09L1070.8,509.25L1077.7,551.13L1084.6,465.86L1091.6,722.37L1098.5,626.78L1105.4,754.6L1112.3,567.99L1119.2,726.62L1126.1,613.72L1133,756.93L1139.9,740.01L1146.8,666.1L1153.7,509.61L1160.6,531.48L1167.5,570.78L1174.4,410.9L1181.3,467.23L1188.2,493.64L1195.1,420.89L1202.1,194.76L1209,215.37L1215.9,107.69L1222.8,117.33L1229.7,251.51L1236.6,265.45L1243.5,294.38L1250.4,60.803L1257.3,82.979L1264.2,298.61L1271.1,154.88L1278,225.92L1284.9,232.82L1291.8,249.71L1298.7,276.35L1305.7,407.15L1312.6,382.46L1319.5,424.7L1326.4,668.77L1333.3,675.35L1340.2,708.94L1347.1,665.51L1354,575.01L1360.9,698.39L1367.8,571.81L1374.7,773.41L1381.6,552.69L1388.5,550.79L1395.4,524.58L1402.3,548.96L1409.2,475.94L1416.2,515.67L1423.1,569.59L1430,317.99L1436.9,460.95" style="fill:none;stroke:#F15A60;stroke-width:1.25" />
<path d="M65.62,420.54A3.125,3.125 0 1 1 59.37,420.54A3.125,3.125 0 1 1 65.62,420.54Z" style="fill:none;stroke:#F15A60;stroke-width:0.625" />
<path d="M72.527,361.32A3.125,3.125 0 1 1 66.277,361.32A3.125,3.125 0 1 1 72.527,361.32Z" style="fill:none;stroke:#F15A60;stroke-width:0.625" />
<path d="M79.433,590.82A3.125,3.125 0 1 1 73.183,590.82A3.125,3.125 0 1 1 79.433,590.82Z" style="fill:none;stroke:#F15A60;stroke-width:0.625" />
<path d="M86.339,654.48L86.339,654.48A3.125,3.125 0 1 1 80.089,654.48A3.125,3.125 0 1 1 86.339,654.48Z" style="fill:none;stroke:#F15A60;stroke-width:0.625" />
<path d="M93.246,624.92A3.125,3.125 0 1 1 86.996,624.92A3.125,3.125 0 1 1 93.246,624.92Z" style="fill:none;stroke:#F15A60;stroke-width:0.625" />
<path d="M100.15,691.65A3.125,3.125 0 1 1 93.902,691.65A3.125,3.125 0 1 1 100.15,691.65Z" style="fill:none;stroke:#F15A60;stroke-width:0.625" />
<path d="M107.06,775.57L107.06,775.57A3.125,3.125 0 1 1 100.81,775.57A3.125,3.125 0 1 1 107.06,775.57Z" style="fill:none;stroke:#F15A60;stroke-width:0.625" />
<path d="M113.97,575.57L113.97,575.57A3.125,3.125 0 1 1 107.72,575.57A3.125,3.125 0 1 1 113.97,575.57Z" style="fill:none;stroke:#F15A60;stroke-width:0.625" />
<path d="M120.87,625.65L120.87,625.65A3.125,3.125 0 1 1 114.62,625.65A3.125,3.125 0 1 1 120.87,625.65Z" style="fill:none;stroke:#F15A60;stroke-width:0.625" />
<path d="M127.78,559.89L127.78,559.89A3.125,3.125 0 1 1 121.53,559.89A3.125,3.125 0 1 1 127.78,559.89Z" style="fill:none;stroke:#F15A60;stroke-width:0.625" />
<path d="M134.68,600.68L134.68,600.68A3.125,3.125 0 1 1 128.43,600.68A3.125,3.125 0 1 1 134.68,600.68Z" style="fill:none;stroke:#F15A60;stroke-width:0.625" />
<path d="M141.59,642.73A3.125,3.125 0 1 1 135.34,642.73A3.125,3.125 0 1 1 141.59,642.73Z" style="fill:none;stroke:#F15A60;stroke-width:0.625" />
<path d="M148.5,538.38A3.125,3.125 0 1 1 142.25,538.38A3.125,3.125 0 1 1 148.5,538.38Z" style="fill:none;stroke:#F15A60;stroke-width:0.625" />
<path d="M155.4,548.78L155.4,548.78A3.125,3.125 0 1 1 149.15,548.78A3.125,3.125 0 1 1 155.4,548.78Z" style="fill:none;stroke:#F15A60;stroke-width:0.625" />
<path d="M162.31,646.19L162.31,646.19A3.125,3.125 0 1 1 156.06,646.19A3.125,3.125 0 1 1 162.31,646.19Z" style="fill:none;stroke:#F15A60;stroke-width:0.625" />
<path d="M169.22,465.87A3.125,3.125 0 1 1 162.97,465.87A3.125,3.125 0 1 1 169.22,465.87Z" style="fill:none;stroke:#F15A60;stroke-width:0.625" />
<path d="M176.12,496.69A3.125,3.125 0 1 1 169.87,496.69A3.125,3.125 0 1 1 176.12,496.69Z" style="fill:none;stroke:#F15A60;stroke-width:0.625" />
<path d="M183.03,357.91A3.125,3.125 0 1 1 176.78,357.91A3.125,3.125 0 1 1 183.03,357.91Z" style="fill:none;stroke:#F15A60;stroke-width:0.625" />
<path d="M189.94,512.3L189.94,512.3A3.125,3.125 0 1 1 183.69,512.3A3.125,3.125 0 1 1 189.94,512.3Z" style="fill:none;stroke:#F15A60;stroke-width:0.625" />
<path d="M196.84,368.59A3.125,3.125 0 1 1 190.59,368.59A3.125,3.125 0 1 1 196.84,368.59Z" style="fill:none;stroke:#F15A60;stroke-width:0.625" />
<path d="M203.75,241.14L203.75,241.14A3.125,3.125 0 1 1 197.5,241.14A3.125,3.125 0 1 1 203.75,241.14Z" style="fill:none;stroke:#F15A60;stroke-width:0.625" />
<path d="M210.66,271.23L210.66,271.23A3.125,3.125 0 1 1 204.41,271.23A3.125,3.125 0 1 1 210.66,271.23Z" style="fill:none;stroke:#F15A60;stroke-width:0.625" />
<path d="M217.56,372.13A3.125,3.125 0 1 1 211.31,372.13A3.125,3.125 0 1 1 217.56,372.13Z" style="fill:none;stroke:#F15A60;stroke-width:0.625" />
<path d="M224.47,129.99L224.47,129.99A3.125,3.125 0 1 1 218.22,129.99A3.125,3.125 0 1 1 224.47,129.99Z" style="fill:none;stroke:#F15A60;stroke-width:0.625" />
<path d="M231.37,266.75A3.125,3.125 0 1 1 225.12,266.75A3.125,3.125 0 1 1 231.37,266.75Z" style="fill:none;stroke:#F15A60;stroke-width:0.625" />
<path d="M238.28,215.67L238.28,215.67A3.125,3.125 0 1 1 232.03,215.67A3.125,3.125 0 1 1 238.28,215.67Z" style="fill:none;stroke:#F15A60;stroke-width:0.625" />
<path d="M245.19,304.42A3.125,3.125 0 1 1 238.94,304.42A3.125,3.125 0 1 1 245.19,304.42Z" style="fill:none;stroke:#F15A60;stroke-width:0.625" />
<path d="M252.09,51.226A3.125,3.125 0 1 1 245.84,51.226A3.125,3.125 0 1 1 252.09,51.226Z" style="fill:none;stroke:#F15A60;stroke-width:0.625" />
<path d="M259,118.15A3.125,3.125 0 1 1 252.75,118.15A3.125,3.125 0 1 1 259,118.15Z" style="fill:none;stroke:#F15A60;stroke-width:0.625" />
<path d="M265.91,99.74A3.125,3.125 0 1 1 259.66,99.74A3.125,3.125 0 1 1 265.91,99.74Z" style="fill:none;stroke:#F15A60;stroke-width:0.625" />
<path d="M272.81,171A3.125,3.125 0 1 1 266.56,171A3.125,3.125 0 1 1 272.81,171Z" style="fill:none;stroke:#F15A60;stroke-width:0.625" />
<path d="M279.72,359.96A3.125,3.125 0 1 1 273.47,359.96A3.125,3.125 0 1 1 279.72,359.96Z" style="fill:none;stroke:#F15A60;stroke-width:0.625" />
<path d="M286.63,279.27L286.63,279.27A3.125,3.125 0 1 1 280.38,279.27A3.125,3.125 0 1 1 286.63,279.27Z" style="fill:none;stroke:#F15A60;stroke-width:0.625" />
<path d="M293.53,208.12A3.125,3.125 0 1 1 287.28,208.12A3.125,3.125 0 1 1 293.53,208.12Z" style="fill:none;stroke:#F15A60;stroke-width:0.625" />
<path d="M300.44,363.37A3.125,3.125 0 1 1 294.19,363.37A3.125,3.125 0 1 1 300.44,363.37Z" style="fill:none;stroke:#F15A60;stroke-width:0.625" />
<path d="M307.35,368.77A3.125,3.125 0 1 1 301.1,368.77A3.125,3.125 0 1 1 307.35,368.77Z" style="fill:none;stroke:#F15A60;stroke-width:0.625" />
<path d="M314.25,448.09A3.125,3.125 0 1 1 308,448.09A3.125,3.125 0 1 1 314.25,448.09Z" style="fill:none;stroke:#F15A60;stroke-width:0.625" />
<path d="M321.16,397.59L321.16,397.59A3.125,3.125 0 1 1 314.91,397.59A3.125,3.125 0 1 1 321.16,397.59Z" style="fill:none;stroke:#F15A60;stroke-width:0.625" />
<path d="M328.06,550.66A3.125,3.125 0 1 1 321.81,550.66A3.125,3.125 0 1 1 328.06,550.66Z" style="fill:none;stroke:#F15A60;stroke-width:0.625" />
<path d="M334.97,525.88A3.125,3.125 0 1 1 328.72,525.88A3.125,3.125 0 1 1 334.97,525.88Z" style="fill:none;stroke:#F15A60;stroke-width:0.625" />
<path d="M341.88,578.92L341.88,578.92A3.125,3.125 0 1 1 335.63,578.92A3.125,3.125 0 1 1 341.88,578.92Z" style="fill:none;stroke:#F15A60;stroke-width:0.625" />
<path d="M348.78,662.58A3.125,3.125 0 1 1 342.53,662.58A3.125,3.125 0 1 1 348.78,662.58Z" style="fill:none;stroke:#F15A60;stroke-width:0.625" />
<path d="M355.69,763.36A3.125,3.125 0 1 1 349.44,763.36A3.125,3.125 0 1 1 355.69,763.36Z" style="fill:none;stroke:#F15A60;stroke-width:0.625" />
<path d="M362.6,723.9A3.125,3.125 0 1 1 356.35,723.9A3.125,3.125 0 1 1 362.6,723.9Z" style="fill:none;stroke:#F15A60;stroke-width:0.625" />
<path d="M369.5,698.52A3.125,3.125 0 1 1 363.25,698.52A3.125,3.125 0 1 1 369.5,698.52Z" style="fill:none;stroke:#F15A60;stroke-width:0.625" />
<path d="M376.41,624.96A3.125,3.125 0 1 1 370.16,624.96A3.125,3.125 0 1 1 376.41,624.96Z" style="fill:none;stroke:#F15A60;stroke-width:0.625" />
<path d="M383.32,726.66A3.125,3.125 0 1 1 377.07,726.66A3.125,3.125 0 1 1 383.32,726.66Z" style="fill:none;stroke:#F15A60;stroke-width:0.625" />
<path d="M390.22,604.13A3.125,3.125 0 1 1 383.97,604.13A3.125,3.125 0 1 1 390.22,604.13Z" style="fill:none;stroke:#F15A60;stroke-width:0.625" />
<path d="M397.13,549.7A3.125,3.125 0 1 1 390.88,549.7A3.125,3.125 0 1 1 397.13,549.7Z" style="fill:none;stroke:#F15A60;stroke-width:0.625" />
<path d="M404.04,524.28L404.04,524.28A3.125,3.125 0 1 1 397.79,524.28A3.125,3.125 0 1 1 404.04,524.28Z" style="fill:none;stroke:#F15A60;stroke-width:0.625" />
<path d="M410.94,477.07A3.125,3.125 0 1 1 404.69,477.07A3.125,3.125 0 1 1 410.94,477.07Z" style="fill:none;stroke:#F15A60;stroke-width:0.625" />
<path d="M417.85,565.91A3.125,3.125 0 1 1 411.6,565.91A3.125,3.125 0 1 1 417.85,565.91Z" style="fill:none;stroke:#F15A60;stroke-width:0.625" />
<path d="M424.75,452.52A3.125,3.125 0 1 1 418.5,452.52A3.125,3.125 0 1 1 424.75,452.52Z" style="fill:none;stroke:#F15A60;stroke-width:0.625" />
<path d="M431.66,498.03L431.66,498.03A3.125,3.125 0 1 1 425.41,498.03A3.125,3.125 0 1 1 431.66,498.03Z" style="fill:none;stroke:#F15A60;stroke-width:0.625" />
<path d="M438.57,522.23A3.125,3.125 0 1 1 432.32,522.23A3.125,3.125 0 1 1 438.57,522.23Z" style="fill:none;stroke:#F15A60;stroke-width:0.625" />
<path d="M445.47,380.53A3.125,3.125 0 1 1 439.22,380.53A3.125,3.125 0 1 1 445.47,380.53Z" style="fill:none;stroke:#F15A60;stroke-width:0.625" />
<path d="M452.38,282.83L452.38,282.83A3.125,3.125 0 1 1 446.13,282.83A3.125,3.125 0 1 1 452.38,282.83Z" style="fill:none;stroke:#F15A60;stroke-width:0.625" />
<path d="M459.29,235.57A3.125,3.125 0 1 1 453.04,235.57A3.125,3.125 0 1 1 459.29,235.57Z" style="fill:none;stroke:#F15A60;stroke-width:0.625" />
<path d="M466.19,209.07A3.125,3.125 0 1 1 459.94,209.07A3.125,3.125 0 1 1 466.19,209.07Z" style="fill:none;stroke:#F15A60;stroke-width:0.625" />
<path d="M473.1,152.44A3.125,3.125 0 1 1 466.85,152.44A3.125,3.125 0 1 1 473.1,152.44Z" style="fill:none;stroke:#F15A60;stroke-width:0.625" />
<path d="M480.01,211.7A3.125,3.125 0 1 1 473.76,211.7A3.125,3.125 0 1 1 480.01,211.7Z" style="fill:none;stroke:#F15A60;stroke-width:0.625" />
<path d="M486.91,192.87A3.125,3.125 0 1 1 480.66,192.87A3.125,3.125 0 1 1 486.91,192.87Z" style="fill:none;stroke:#F15A60;stroke-width:0.625" />
<path d="M493.82,198.35A3.125,3.125 0 1 1 487.57,198.35A3.125,3.125 0 1 1 493.82,198.35Z" style="fill:none;stroke:#F15A60;stroke-width:0.625" />
<path d="M500.73,150.92L500.73,150.92A3.125,3.125 0 1 1 494.48,150.92A3.125,3.125 0 1 1 500.73,150.92Z" style="fill:none;stroke:#F15A60;stroke-width:0.625" />
<path d="M507.63,95.141A3.125,3.125 0 1 1 501.38,95.141A3.125,3.125 0 1 1 507.63,95.141Z" style="fill:none;stroke:#F15A60;stroke-width:0.625" />
<path d="M514.54,151.45A3.125,3.125 0 1 1 508.29,151.45A3.125,3.125 0 1 1 514.54,151.45Z" style="fill:none;stroke:#F15A60;stroke-width:0.625" />
<path d="M521.44,170.02A3.125,3.125 0 1 1 515.19,170.02A3.125,3.125 0 1 1 521.44,170.02Z" style="fill:none;stroke:#F15A60;stroke-width:0.625" />
<path d="M528.35,357.68A3.125,3.125 0 1 1 522.1,357.68A3.125,3.125 0 1 1 528.35,357.68Z" style="fill:none;stroke:#F15A60;stroke-width:0.625" />
<path d="M535.26,202.81A3.125,3.125 0 1 1 529.01,202.81A3.125,3.125 0 1 1 535.26,202.81Z" style="fill:none;stroke:#F15A60;stroke-width:0.625" />
<path d="M542.16,411.3A3.125,3.125 0 1 1 535.91,411.3A3.125,3.125 0 1 1 542.16,411.3Z" style="fill:none;stroke:#F15A60;stroke-width:0.625" />
<path d="M549.07,340.23A3.125,3.125 0 1 1 542.82,340.23A3.125,3.125 0 1 1 549.07,340.23Z" style="fill:none;stroke:#F15A60;stroke-width:0.625" />
<path d="M555.98,429.12A3.125,3.125 0 1 1 549.73,429.12A3.125,3.125 0 1 1 555.98,429.12Z" style="fill:none;stroke:#F15A60;stroke-width:0.625" />
<path d="M562.88,375.47A3.125,3.125 0 1 1 556.63,375.47A3.125,3.125 0 1 1 562.88,375.47Z" style="fill:none;stroke:#F15A60;stroke-width:0.625" />
<path d="M569.79,497.31A3.125,3.125 0 1 1 563.54,497.31A3.125,3.125 0 1 1 569.79,497.31Z" style="fill:none;stroke:#F15A60;stroke-width:0.625" />
<path d="M576.7,541.38A3.125,3.125 0 1 1 570.45,541.38A3.125,3.125 0 1 1 576.7,541.38Z" style="fill:none;stroke:#F15A60;stroke-width:0.625" />
<path d="M583.6,628.18A3.125,3.125 0 1 1 577.35,628.18A3.125,3.125 0 1 1 583.6,628.18Z" style="fill:none;stroke:#F15A60;stroke-width:0.625" />
<path d="M590.51,608.33A3.125,3.125 0 1 1 584.26,608.33A3.125,3.125 0 1 1 590.51,608.33Z" style="fill:none;stroke:#F15A60;stroke-width:0.625" />
<path d="M597.42,627.23A3.125,3.125 0 1 1 591.17,627.23A3.125,3.125 0 1 1 597.42,627.23Z" style="fill:none;stroke:#F15A60;stroke-width:0.625" />
<path d="M604.32,709.39L604.32,709.39A3.125,3.125 0 1 1 598.07,709.39A3.125,3.125 0 1 1 604.32,709.39Z" style="fill:none;stroke:#F15A60;stroke-width:0.625" />
<path d="M611.23,590.36A3.125,3.125 0 1 1 604.98,590.36A3.125,3.125 0 1 1 611.23,590.36Z" style="fill:none;stroke:#F15A60;stroke-width:0.625" />
<path d="M618.13,730.94A3.125,3.125 0 1 1 611.88,730.94A3.125,3.125 0 1 1 618.13,730.94Z" style="fill:none;stroke:#F15A60;stroke-width:0.625" />
<path d="M625.04,787.79A3.125,3.125 0 1 1 618.79,787.79A3.125,3.125 0 1 1 625.04,787.79Z" style="fill:none;stroke:#F15A60;stroke-width:0.625" />
<path d="M631.95,750.87A3.125,3.125 0 1 1 625.7,750.87A3.125,3.125 0 1 1 631.95,750.87Z" style="fill:none;stroke:#F15A60;stroke-width:0.625" />
<path d="M638.85,626.18A3.125,3.125 0 1 1 632.6,626.18A3.125,3.125 0 1 1 638.85,626.18Z" style="fill:none;stroke:#F15A60;stroke-width:0.625" />
<path d="M645.76,735.2A3.125,3.125 0 1 1 639.51,735.2A3.125,3.125 0 1 1 645.76,735.2Z" style="fill:none;stroke:#F15A60;stroke-width:0.625" />
<path d="M652.67,647.14A3.125,3.125 0 1 1 646.42,647.14A3.125,3.125 0 1 1 652.67,647.14Z" style="fill:none;stroke:#F15A60;stroke-width:0.625" />
<path d="M659.57,483.06A3.125,3.125 0 1 1 653.32,483.06A3.125,3.125 0 1 1 659.57,483.06Z" style="fill:none;stroke:#F15A60;stroke-width:0.625" />
<path d="M666.48,463.62A3.125,3.125 0 1 1 660.23,463.62A3.125,3.125 0 1 1 666.48,463.62Z" style="fill:none;stroke:#F15A60;stroke-width:0.625" />
<path d="M673.39,430.12A3.125,3.125 0 1 1 667.14,430.12A3.125,3.125 0 1 1 673.39,430.12Z" style="fill:none;stroke:#F15A60;stroke-width:0.625" />
<path d="M680.29,513.72A3.125,3.125 0 1 1 674.04,513.72A3.125,3.125 0 1 1 680.29,513.72Z" style="fill:none;stroke:#F15A60;stroke-width:0.625" />
<path d="M687.2,512.25A3.125,3.125 0 1 1 680.95,512.25A3.125,3.125 0 1 1 687.2,512.25Z" style="fill:none;stroke:#F15A60;stroke-width:0.625" />
<path d="M694.11,262.29A3.125,3.125 0 1 1 687.86,262.29A3.125,3.125 0 1 1 694.11,262.29Z" style="fill:none;stroke:#F15A60;stroke-width:0.625" />
<path d="M701.01,442.38A3.125,3.125 0 1 1 694.76,442.38A3.125,3.125 0 1 1 701.01,442.38Z" style="fill:none;stroke:#F15A60;stroke-width:0.625" />
<path d="M707.92,365.66A3.125,3.125 0 1 1 701.67,365.66A3.125,3.125 0 1 1 707.92,365.66Z" style="fill:none;stroke:#F15A60;stroke-width:0.625" />
<path d="M714.82,148.19A3.125,3.125 0 1 1 708.57,148.19A3.125,3.125 0 1 1 714.82,148.19Z" style="fill:none;stroke:#F15A60;stroke-width:0.625" />
<path d="M721.73,316.99A3.125,3.125 0 1 1 715.48,316.99A3.125,3.125 0 1 1 721.73,316.99Z" style="fill:none;stroke:#F15A60;stroke-width:0.625" />
<path d="M728.64,215.16A3.125,3.125 0 1 1 722.39,215.16A3.125,3.125 0 1 1 728.64,215.16Z" style="fill:none;stroke:#F15A60;stroke-width:0.625" />
<path d="M735.54,309.59A3.125,3.125 0 1 1 729.29,309.59A3.125,3.125 0 1 1 735.54,309.59Z" style="fill:none;stroke:#F15A60;stroke-width:0.625" />
<path d="M742.45,116.42A3.125,3.125 0 1 1 736.2,116.42A3.125,3.125 0 1 1 742.45,116.42Z" style="fill:none;stroke:#F15A60;stroke-width:0.625" />
<path d="M749.36,168.28L749.36,168.28A3.125,3.125 0 1 1 743.11,168.28A3.125,3.125 0 1 1 749.36,168.28Z" style="fill:none;stroke:#F15A60;stroke-width:0.625" />
<path d="M756.26,173.64A3.125,3.125 0 1 1 750.01,173.64A3.125,3.125 0 1 1 756.26,173.64Z" style="fill:none;stroke:#F15A60;stroke-width:0.625" />
<path d="M763.17,64.458A3.125,3.125 0 1 1 756.92,64.458A3.125,3.125 0 1 1 763.17,64.458Z" style="fill:none;stroke:#F15A60;stroke-width:0.625" />
<path d="M770.08,216.18L770.08,216.18A3.125,3.125 0 1 1 763.83,216.18A3.125,3.125 0 1 1 770.08,216.18Z" style="fill:none;stroke:#F15A60;stroke-width:0.625" />
<path d="M776.98,270.62L776.98,270.62A3.125,3.125 0 1 1 770.73,270.62A3.125,3.125 0 1 1 776.98,270.62Z" style="fill:none;stroke:#F15A60;stroke-width:0.625" />
<path d="M783.89,229.29L783.89,229.29A3.125,3.125 0 1 1 777.64,229.29A3.125,3.125 0 1 1 783.89,229.29Z" style="fill:none;stroke:#F15A60;stroke-width:0.625" />
<path d="M790.8,418.46A3.125,3.125 0 1 1 784.55,418.46A3.125,3.125 0 1 1 790.8,418.46Z" style="fill:none;stroke:#F15A60;stroke-width:0.625" />
<path d="M797.7,229.46L797.7,229.46A3.125,3.125 0 1 1 791.45,229.46A3.125,3.125 0 1 1 797.7,229.46Z" style="fill:none;stroke:#F15A60;stroke-width:0.625" />
<path d="M804.61,281.88L804.61,281.88A3.125,3.125 0 1 1 798.36,281.88A3.125,3.125 0 1 1 804.61,281.88Z" style="fill:none;stroke:#F15A60;stroke-width:0.625" />
<path d="M811.51,337.36A3.125,3.125 0 1 1 805.26,337.36A3.125,3.125 0 1 1 811.51,337.36Z" style="fill:none;stroke:#F15A60;stroke-width:0.625" />
<path d="M818.42,529.87L818.42,529.87A3.125,3.125 0 1 1 812.17,529.87A3.125,3.125 0 1 1 818.42,529.87Z" style="fill:none;stroke:#F15A60;stroke-width:0.625" />
<path d="M825.33,458.36A3.125,3.125 0 1 1 819.08,458.36A3.125,3.125 0 1 1 825.33,458.36Z" style="fill:none;stroke:#F15A60;stroke-width:0.625" />
<path d="M832.23,665.36L832.23,665.36A3.125,3.125 0 1 1 825.98,665.36A3.125,3.125 0 1 1 832.23,665.36Z" style="fill:none;stroke:#F15A60;stroke-width:0.625" />
<path d="M839.14,532.94A3.125,3.125 0 1 1 832.89,532.94A3.125,3.125 0 1 1 839.14,532.94Z" style="fill:none;stroke:#F15A60;stroke-width:0.625" />
<path d="M846.05,586.19A3.125,3.125 0 1 1 839.8,586.19A3.125,3.125 0 1 1 846.05,586.19Z" style="fill:none;stroke:#F15A60;stroke-width:0.625" />
<path d="M852.95,570.5L852.95,570.5A3.125,3.125 0 1 1 846.7,570.5A3.125,3.125 0 1 1 852.95,570.5Z" style="fill:none;stroke:#F15A60;stroke-width:0.625" />
<path d="M859.86,658.05A3.125,3.125 0 1 1 853.61,658.05A3.125,3.125 0 1 1 859.86,658.05Z" style="fill:none;stroke:#F15A60;stroke-width:0.625" />
<path d="M866.77,806.88L866.77,806.88A3.125,3.125 0 1 1 860.52,806.88A3.125,3.125 0 1 1 866.77,806.88Z" style="fill:none;stroke:#F15A60;stroke-width:0.625" />
<path d="M873.67,571.11L873.67,571.11A3.125,3.125 0 1 1 867.42,571.11A3.125,3.125 0 1 1 873.67,571.11Z" style="fill:none;stroke:#F15A60;stroke-width:0.625" />
<path d="M880.58,754.14L880.58,754.14A3.125,3.125 0 1 1 874.33,754.14A3.125,3.125 0 1 1 880.58,754.14Z" style="fill:none;stroke:#F15A60;stroke-width:0.625" />
<path d="M887.49,696.16A3.125,3.125 0 1 1 881.24,696.16A3.125,3.125 0 1 1 887.49,696.16Z" style="fill:none;stroke:#F15A60;stroke-width:0.625" />
<path d="M894.39,530.59L894.39,530.59A3.125,3.125 0 1 1 888.14,530.59A3.125,3.125 0 1 1 894.39,530.59Z" style="fill:none;stroke:#F15A60;stroke-width:0.625" />
<path d="M901.3,716.09L901.3,716.09A3.125,3.125 0 1 1 895.05,716.09A3.125,3.125 0 1 1 901.3,716.09Z" style="fill:none;stroke:#F15A60;stroke-width:0.625" />
<path d="M908.2,471.44A3.125,3.125 0 1 1 901.95,471.44A3.125,3.125 0 1 1 908.2,471.44Z" style="fill:none;stroke:#F15A60;stroke-width:0.625" />
<path d="M915.11,556.52L915.11,556.52A3.125,3.125 0 1 1 908.86,556.52A3.125,3.125 0 1 1 915.11,556.52Z" style="fill:none;stroke:#F15A60;stroke-width:0.625" />
<path d="M922.02,456.73L922.02,456.73A3.125,3.125 0 1 1 915.77,456.73A3.125,3.125 0 1 1 922.02,456.73Z" style="fill:none;stroke:#F15A60;stroke-width:0.625" />
<path d="M928.92,533.03L928.92,533.03A3.125,3.125 0 1 1 922.67,533.03A3.125,3.125 0 1 1 928.92,533.03Z" style="fill:none;stroke:#F15A60;stroke-width:0.625" />
<path d="M935.83,303.38A3.125,3.125 0 1 1 929.58,303.38A3.125,3.125 0 1 1 935.83,303.38Z" style="fill:none;stroke:#F15A60;stroke-width:0.625" />
<path d="M942.74,286.71A3.125,3.125 0 1 1 936.49,286.71A3.125,3.125 0 1 1 942.74,286.71Z" style="fill:none;stroke:#F15A60;stroke-width:0.625" />
<path d="M949.64,277.3L949.64,277.3A3.125,3.125 0 1 1 943.39,277.3A3.125,3.125 0 1 1 949.64,277.3Z" style="fill:none;stroke:#F15A60;stroke-width:0.625" />
<path d="M956.55,175L956.55,175A3.125,3.125 0 1 1 950.3,175A3.125,3.125 0 1 1 956.55,175Z" style="fill:none;stroke:#F15A60;stroke-width:0.625" />
<path d="M963.46,331.05L963.46,331.05A3.125,3.125 0 1 1 957.21,331.05A3.125,3.125 0 1 1 963.46,331.05Z" style="fill:none;stroke:#F15A60;stroke-width:0.625" />
<path d="M970.36,226.68A3.125,3.125 0 1 1 964.11,226.68A3.125,3.125 0 1 1 970.36,226.68Z" style="fill:none;stroke:#F15A60;stroke-width:0.625" />
<path d="M977.27,79.848A3.125,3.125 0 1 1 971.02,79.848A3.125,3.125 0 1 1 977.27,79.848Z" style="fill:none;stroke:#F15A60;stroke-width:0.625" />
<path d="M984.18,132.12L984.18,132.12A3.125,3.125 0 1 1 977.93,132.12A3.125,3.125 0 1 1 984.18,132.12Z" style="fill:none;stroke:#F15A60;stroke-width:0.625" />
<path d="M991.08,109.12A3.125,3.125 0 1 1 984.83,109.12A3.125,3.125 0 1 1 991.08,109.12Z" style="fill:none;stroke:#F15A60;stroke-width:0.625" />
<path d="M997.99,299.42L997.99,299.42A3.125,3.125 0 1 1 991.74,299.42A3.125,3.125 0 1 1 997.99,299.42Z" style="fill:none;stroke:#F15A60;stroke-width:0.625" />
<path d="M1004.9,193.05A3.125,3.125 0 1 1 998.64,193.05A3.125,3.125 0 1 1 1004.9,193.05Z" style="fill:none;stroke:#F15A60;stroke-width:0.625" />
<path d="M1011.8,302.75L1011.8,302.75A3.125,3.125 0 1 1 1005.6,302.75A3.125,3.125 0 1 1 1011.8,302.75Z" style="fill:none;stroke:#F15A60;stroke-width:0.625" />
<path d="M1018.7,132.15L1018.7,132.15A3.125,3.125 0 1 1 1012.5,132.15A3.125,3.125 0 1 1 1018.7,132.15Z" style="fill:none;stroke:#F15A60;stroke-width:0.625" />
<path d="M1025.6,211.03L1025.6,211.03A3.125,3.125 0 1 1 1019.4,211.03A3.125,3.125 0 1 1 1025.6,211.03Z" style="fill:none;stroke:#F15A60;stroke-width:0.625" />
<path d="M1032.5,198L1032.5,198A3.125,3.125 0 1 1 1026.3,198A3.125,3.125 0 1 1 1032.5,198Z" style="fill:none;stroke:#F15A60;stroke-width:0.625" />
<path d="M1039.4,399.55L1039.4,399.55A3.125,3.125 0 1 1 1033.2,399.55A3.125,3.125 0 1 1 1039.4,399.55Z" style="fill:none;stroke:#F15A60;stroke-width:0.625" />
<path d="M1046.3,460.4A3.125,3.125 0 1 1 1040.1,460.4A3.125,3.125 0 1 1 1046.3,460.4Z" style="fill:none;stroke:#F15A60;stroke-width:0.625" />
<path d="M1053.2,445.73A3.125,3.125 0 1 1 1047,445.73A3.125,3.125 0 1 1 1053.2,445.73Z" style="fill:none;stroke:#F15A60;stroke-width:0.625" />
<path d="M1060.1,315.4A3.125,3.125 0 1 1 1053.9,315.4A3.125,3.125 0 1 1 1060.1,315.4Z" style="fill:none;stroke:#F15A60;stroke-width:0.625" />
<path d="M1067.1,472.09L1067.1,472.09A3.125,3.125 0 1 1 1060.8,472.09A3.125,3.125 0 1 1 1067.1,472.09Z" style="fill:none;stroke:#F15A60;stroke-width:0.625" />
<path d="M1074,509.25L1074,509.25A3.125,3.125 0 1 1 1067.7,509.25A3.125,3.125 0 1 1 1074,509.25Z" style="fill:none;stroke:#F15A60;stroke-width:0.625" />
<path d="M1080.9,551.13A3.125,3.125 0 1 1 1074.6,551.13A3.125,3.125 0 1 1 1080.9,551.13Z" style="fill:none;stroke:#F15A60;stroke-width:0.625" />
<path d="M1087.8,465.86A3.125,3.125 0 1 1 1081.5,465.86A3.125,3.125 0 1 1 1087.8,465.86Z" style="fill:none;stroke:#F15A60;stroke-width:0.625" />
<path d="M1094.7,722.37L1094.7,722.37A3.125,3.125 0 1 1 1088.4,722.37A3.125,3.125 0 1 1 1094.7,722.37Z" style="fill:none;stroke:#F15A60;stroke-width:0.625" />
<path d="M1101.6,626.78A3.125,3.125 0 1 1 1095.3,626.78A3.125,3.125 0 1 1 1101.6,626.78Z" style="fill:none;stroke:#F15A60;stroke-width:0.625" />
<path d="M1108.5,754.6A3.125,3.125 0 1 1 1102.2,754.6A3.125,3.125 0 1 1 1108.5,754.6Z" style="fill:none;stroke:#F15A60;stroke-width:0.625" />
<path d="M1115.4,567.99A3.125,3.125 0 1 1 1109.1,567.99A3.125,3.125 0 1 1 1115.4,567.99Z" style="fill:none;stroke:#F15A60;stroke-width:0.625" />
<path d="M1122.3,726.62A3.125,3.125 0 1 1 1116.1,726.62A3.125,3.125 0 1 1 1122.3,726.62Z" style="fill:none;stroke:#F15A60;stroke-width:0.625" />
<path d="M1129.2,613.72A3.125,3.125 0 1 1 1123,613.72A3.125,3.125 0 1 1 1129.2,613.72Z" style="fill:none;stroke:#F15A60;stroke-width:0.625" />
<path d="M1136.1,756.93A3.125,3.125 0 1 1 1129.9,756.93A3.125,3.125 0 1 1 1136.1,756.93Z" style="fill:none;stroke:#F15A60;stroke-width:0.625" />
<path d="M1143,740.01L1143,740.01A3.125,3.125 0 1 1 1136.8,740.01A3.125,3.125 0 1 1 1143,740.01Z" style="fill:none;stroke:#F15A60;stroke-width:0.625" />
<path d="M1149.9,666.1A3.125,3.125 0 1 1 1143.7,666.1A3.125,3.125 0 1 1 1149.9,666.1Z" style="fill:none;stroke:#F15A60;stroke-width:0.625" />
<path d="M1156.8,509.61L1156.8,509.61A3.125,3.125 0 1 1 1150.6,509.61A3.125,3.125 0 1 1 1156.8,509.61Z" style="fill:none;stroke:#F15A60;stroke-width:0.625" />
<path d="M1163.7,531.48A3.125,3.125 0 1 1 1157.5,531.48A3.125,3.125 0 1 1 1163.7,531.48Z" style="fill:none;stroke:#F15A60;stroke-width:0.625" />
<path d="M1170.6,570.78A3.125,3.125 0 1 1 1164.4,570.78A3.125,3.125 0 1 1 1170.6,570.78Z" style="fill:none;stroke:#F15A60;stroke-width:0.625" />
<path d="M1177.6,410.9L1177.6,410.9A3.125,3.125 0 1 1 1171.3,410.9A3.125,3.125 0 1 1 1177.6,410.9Z" style="fill:none;stroke:#F15A60;stroke-width:0.625" />
<path d="M1184.5,467.23L1184.5,467.23A3.125,3.125 0 1 1 1178.2,467.23A3.125,3.125 0 1 1 1184.5,467.23Z" style="fill:none;stroke:#F15A60;stroke-width:0.625" />
<path d="M1191.4,493.64A3.125,3.125 0 1 1 1185.1,493.64A3.125,3.125 0 1 1 1191.4,493.64Z" style="fill:none;stroke:#F15A60;stroke-width:0.625" />
<path d="M1198.3,420.89A3.125,3.125 0 1 1 1192,420.89A3.125,3.125 0 1 1 1198.3,420.89Z" style="fill:none;stroke:#F15A60;stroke-width:0.625" />
<path d="M1205.2,194.76A3.125,3.125 0 1 1 1198.9,194.76A3.125,3.125 0 1 1 1205.2,194.76Z" style="fill:none;stroke:#F15A60;stroke-width:0.625" />
<path d="M1212.1,215.37A3.125,3.125 0 1 1 1205.8,215.37A3.125,3.125 0 1 1 1212.1,215.37Z" style="fill:none;stroke:#F15A60;stroke-width:0.625" />
<path d="M1219,107.69A3.125,3.125 0 1 1 1212.7,107.69A3.125,3.125 0 1 1 1219,107.69Z" style="fill:none;stroke:#F15A60;stroke-width:0.625" />
<path d="M1225.9,117.33A3.125,3.125 0 1 1 1219.7,117.33A3.125,3.125 0 1 1 1225.9,117.33Z" style="fill:none;stroke:#F15A60;stroke-width:0.625" />
<path d="M1232.8,251.51L1232.8,251.51A3.125,3.125 0 1 1 1226.6,251.51A3.125,3.125 0 1 1 1232.8,251.51Z" style="fill:none;stroke:#F15A60;stroke-width:0.625" />
<path d="M1239.7,265.45A3.125,3.125 0 1 1 1233.5,265.45A3.125,3.125 0 1 1 1239.7,265.45Z" style="fill:none;stroke:#F15A60;stroke-width:0.625" />
<path d="M1246.6,294.38L1246.6,294.38A3.125,3.125 0 1 1 1240.4,294.38A3.125,3.125 0 1 1 1246.6,294.38Z" style="fill:none;stroke:#F15A60;stroke-width:0.625" />
<path d="M1253.5,60.803A3.125,3.125 0 1 1 1247.3,60.803A3.125,3.125 0 1 1 1253.5,60.803Z" style="fill:none;stroke:#F15A60;stroke-width:0.625" />
<path d="M1260.4,82.979L1260.4,82.979A3.125,3.125 0 1 1 1254.2,82.979A3.125,3.125 0 1 1 1260.4,82.979Z" style="fill:none;stroke:#F15A60;stroke-width:0.625" />
<path d="M1267.3,298.61A3.125,3.125 0 1 1 1261.1,298.61A3.125,3.125 0 1 1 1267.3,298.61Z" style="fill:none;stroke:#F15A60;stroke-width:0.625" />
<path d="M1274.2,154.88A3.125,3.125 0 1 1 1268,154.88A3.125,3.125 0 1 1 1274.2,154.88Z" style="fill:none;stroke:#F15A60;stroke-width:0.625" />
<path d="M1281.2,225.92L1281.2,225.92A3.125,3.125 0 1 1 1274.9,225.92A3.125,3.125 0 1 1 1281.2,225.92Z" style="fill:none;stroke:#F15A60;stroke-width:0.625" />
<path d="M1288.1,232.82L1288.1,232.82A3.125,3.125 0 1 1 1281.8,232.82A3.125,3.125 0 1 1 1288.1,232.82Z" style="fill:none;stroke:#F15A60;stroke-width:0.625" />
<path d="M1295,249.71L1295,249.71A3.125,3.125 0 1 1 1288.7,249.71A3.125,3.125 0 1 1 1295,249.71Z" style="fill:none;stroke:#F15A60;stroke-width:0.625" />
<path d="M1301.9,276.35A3.125,3.125 0 1 1 1295.6,276.35A3.125,3.125 0 1 1 1301.9,276.35Z" style="fill:none;stroke:#F15A60;stroke-width:0.625" />
<path d="M1308.8,407.15A3.125,3.125 0 1 1 1302.5,407.15A3.125,3.125 0 1 1 1308.8,407.15Z" style="fill:none;stroke:#F15A60;stroke-width:0.625" />
<path d="M1315.7,382.46A3.125,3.125 0 1 1 1309.4,382.46A3.125,3.125 0 1 1 1315.7,382.46Z" style="fill:none;stroke:#F15A60;stroke-width:0.625" />
<path d="M1322.6,424.7A3.125,3.125 0 1 1 1316.3,424.7A3.125,3.125 0 1 1 1322.6,424.7Z" style="fill:none;stroke:#F15A60;stroke-width:0.625" />
<path d="M1329.5,668.77A3.125,3.125 0 1 1 1323.2,668.77A3.125,3.125 0 1 1 1329.5,668.77Z" style="fill:none;stroke:#F15A60;stroke-width:0.625" />
<path d="M1336.4,675.35L1336.4,675.35A3.125,3.125 0 1 1 1330.2,675.35A3.125,3.125 0 1 1 1336.4,675.35Z" style="fill:none;stroke:#F15A60;stroke-width:0.625" />
<path d="M1343.3,708.94L1343.3,708.94A3.125,3.125 0 1 1 1337.1,708.94A3.125,3.125 0 1 1 1343.3,708.94Z" style="fill:none;stroke:#F15A60;stroke-width:0.625" />
<path d="M1350.2,665.51L1350.2,665.51A3.125,3.125 0 1 1 1344,665.51A3.125,3.125 0 1 1 1350.2,665.51Z" style="fill:none;stroke:#F15A60;stroke-width:0.625" />
<path d="M1357.1,575.01A3.125,3.125 0 1 1 1350.9,575.01A3.125,3.125 0 1 1 1357.1,575.01Z" style="fill:none;stroke:#F15A60;stroke-width:0.625" />
<path d="M1364,698.39A3.125,3.125 0 1 1 1357.8,698.39A3.125,3.125 0 1 1 1364,698.39Z" style="fill:none;stroke:#F15A60;stroke-width:0.625" />
<path d="M1370.9,571.81A3.125,3.125 0 1 1 1364.7,571.81A3.125,3.125 0 1 1 1370.9,571.81Z" style="fill:none;stroke:#F15A60;stroke-width:0.625" />
<path d="M1377.8,773.41A3.125,3.125 0 1 1 1371.6,773.41A3.125,3.125 0 1 1 1377.8,773.41Z" style="fill:none;stroke:#F15A60;stroke-width:0.625" />
<path d="M1384.7,552.69A3.125,3.125 0 1 1 1378.5,552.69A3.125,3.125 0 1 1 1384.7,552.69Z" style="fill:none;stroke:#F15A60;stroke-width:0.625" />
<path d="M1391.7,550.79L1391.7,550.79A3.125,3.125 0 1 1 1385.4,550.79A3.125,3.125 0 1 1 1391.7,550.79Z" style="fill:none;stroke:#F15A60;stroke-width:0.625" />
<path d="M1398.6,524.58A3.125,3.125 0 1 1 1392.3,524.58A3.125,3.125 0 1 1 1398.6,524.58Z" style="fill:none;stroke:#F15A60;stroke-width:0.625" />
<path d="M1405.5,548.96L1405.5,548.96A3.125,3.125 0 1 1 1399.2,548.96A3.125,3.125 0 1 1 1405.5,548.96Z" style="fill:none;stroke:#F15A60;stroke-width:0.625" />
<path d="M1412.4,475.94L1412.4,475.94A3.125,3.125 0 1 1 1406.1,475.94A3.125,3.125 0 1 1 1412.4,475.94Z" style="fill:none;stroke:#F15A60;stroke-width:0.625" />
<path d="M1419.3,515.67A3.125,3.125 0 1 1 1413,515.67A3.125,3.125 0 1 1 1419.3,515.67Z" style="fill:none;stroke:#F15A60;stroke-width:0.625" />
<path d="M1426.2,569.59L1426.2,569.59A3.125,3.125 0 1 1 1419.9,569.59A3.125,3.125 0 1 1 1426.2,569.59Z" style="fill:none;stroke:#F15A60;stroke-width:0.625" />
<path d="M1433.1,317.99A3.125,3.125 0 1 1 1426.8,317.99A3.125,3.125 0 1 1 1433.1,317.99Z" style="fill:none;stroke:#F15A60;stroke-width:0.625" />
<path d="M1440,460.95A3.125,3.125 0 1 1 1433.8,460.95A3.125,3.125 0 1 1 1440,460.95Z" style="fill:none;stroke:#F15A60;stroke-width:0.625" />
<path d="M62.495,667.15L69.402,665.81L76.308,667.94L83.214,645.3L90.121,627.9L97.027,634.32L103.93,601.3L110.84,582.96L117.75,535.37L124.65,529.21L131.56,491.9L138.47,431.72L145.37,388.36L152.28,374.37L159.19,310.32L166.09,289.94L173,263.04L179.9,263.15L186.81,207.62L193.72,178.67L200.62,151.84L207.53,144.59L214.44,182.35L221.34,202.26L228.25,202.44L235.16,239.01L242.06,273.1L248.97,323.43L255.88,352.48L262.78,408.98L269.69,448.63L276.59,491.34L283.5,547.41L290.41,616.56L297.31,662.96L304.22,694.63L311.13,701.51L318.03,726.85L324.94,716.4L331.85,692.35L338.75,662L345.66,622.39L352.57,607.4L359.47,571.84L366.38,553.3L373.28,545.22L380.19,507.83L387.1,457.1L394,403.78L400.91,352.35L407.82,296.05L414.72,261.21L421.63,230.98L428.54,208.48L435.44,182.79L442.35,153.84L449.26,144.7L456.16,143.01L463.07,185.19L469.97,188.81L476.88,238.08L483.79,266.37L490.69,310.97L497.6,337.74L504.51,386.3L511.41,434.73L518.32,492.93L525.23,535.22L532.13,575.49L539.04,623.64L545.95,637.56L552.85,676.85L559.76,721.39L566.66,747.31L573.57,738.84L580.48,752.78L587.38,744.23L594.29,697.79L601.2,650.58L608.1,601.98L615.01,576.2L621.92,555.51L628.82,485.47L635.73,468.17L642.64,438.19L649.54,368.53L656.45,349.32L663.35,311.35L670.26,300.84L677.17,249.88L684.07,220.52L690.98,200.97L697.89,159.06L704.79,160.74L711.7,178.41L718.61,183.71L725.51,233.78L732.42,236.23L739.33,252.48L746.23,277.08L753.14,340.77L760.04,379.46L766.95,454.88L773.86,489.28L780.76,529.09L787.67,556.46L794.58,599.72L801.48,665.76L808.39,665.62L815.3,700.82L822.2,717.37L829.11,690.72L836.02,709.17L842.92,668L849.83,648.85L856.73,607.59L863.64,588.53L870.55,524.65L877.45,463.7L884.36,412.33L891.27,348.41L898.17,328.49L905.08,294.71L911.99,234.02L918.89,197L925.8,162.93L932.71,182.26L939.61,177.77L946.52,200.3L953.42,183.81L960.33,186.13L967.24,188.53L974.14,236.99L981.05,291.15L987.96,333.81L994.86,338.72L1001.8,378.49L1008.7,419.64L1015.6,465.06L1022.5,480.81L1029.4,547.91L1036.3,580.39L1043.2,635.95L1050.1,642.17L1057,681.02L1063.9,684.19L1070.8,716.04L1077.7,737.89L1084.6,738.39L1091.6,698.68L1098.5,669.2L1105.4,650.95L1112.3,601.32L1119.2,568.29L1126.1,547.69L1133,513.73L1139.9,437.28L1146.8,379.11L1153.7,307.97L1160.6,249.05L1167.5,230.67L1174.4,223.42L1181.3,226.31L1188.2,180.96L1195.1,151.43L1202.1,178.86L1209,171.35L1215.9,181.34L1222.8,189.93L1229.7,199.43L1236.6,214.97L1243.5,259.67L1250.4,295.99L1257.3,333.78L1264.2,417.94L1271.1,494.32L1278,565.25L1284.9,614.34L1291.8,632.24L1298.7,669.77L1305.7,668.27L1312.6,708.01L1319.5,688.32L1326.4,665L1333.3,638.74L1340.2,621.72L1347.1,592.28L1354,576.52L1360.9,574.37L1367.8,518.83L1374.7,501.8L1381.6,493.1L1388.5,483.32L1395.4,472.47L1402.3,459.18L1409.2,445.26L1416.2,423.25L1423.1,394.58L1430,400.96L1436.9,300.99" style="fill:none;stroke:#7AC36A;stroke-width:1.25;stroke-dasharray:7.5,2.5" />
<path d="M59.828,664.48L65.162,664.48L65.162,669.82L59.828,669.82Z" style="fill:none;stroke:#7AC36A;stroke-width:0.625" />
<path d="M66.734,663.14L72.069,663.14L72.069,668.47L66.734,668.47Z" style="fill:none;stroke:#7AC36A;stroke-width:0.625" />
<path d="M73.641,665.27L78.975,665.27L78.975,670.61L73.641,670.61Z" style="fill:none;stroke:#7AC36A;stroke-width:0.625" />
<path d="M80.547,642.63L85.882,642.63L85.882,647.96L80.547,647.96Z" style="fill:none;stroke:#7AC36A;stroke-width:0.625" />
<path d="M87.453,625.23L92.788,625.23L92.788,630.56L87.453,630.56Z" style="fill:none;stroke:#7AC36A;stroke-width:0.625" />
<path d="M94.36,631.65L99.695,631.65L99.695,636.98L94.36,636.98Z" style="fill:none;stroke:#7AC36A;stroke-width:0.625" />
<path d="M101.27,598.63L106.6,598.63L106.6,603.97L101.27,603.97Z" style="fill:none;stroke:#7AC36A;stroke-width:0.625" />
<path d="M108.17,580.29L113.51,580.29L113.51,585.63L108.17,585.63Z" style="fill:none;stroke:#7AC36A;stroke-width:0.625" />
<path d="M115.08,532.7L120.41,532.7L120.41,538.04L115.08,538.04Z" style="fill:none;stroke:#7AC36A;stroke-width:0.625" />
<path d="M121.99,526.54L127.32,526.54L127.32,531.88L121.99,531.88Z" style="fill:none;stroke:#7AC36A;stroke-width:0.625" />
<path d="M128.89,489.24L134.23,489.24L134.23,494.57L128.89,494.57Z" style="fill:none;stroke:#7AC36A;stroke-width:0.625" />
<path d="M135.8,429.06L141.13,429.06L141.13,434.39L135.8,434.39Z" style="fill:none;stroke:#7AC36A;stroke-width:0.625" />
<path d="M142.7,385.69L148.04,385.69L148.04,391.02L142.7,391.02Z" style="fill:none;stroke:#7AC36A;stroke-width:0.625" />
<path d="M149.61,371.7L154.95,371.7L154.95,377.03L149.61,377.03Z" style="fill:none;stroke:#7AC36A;stroke-width:0.625" />
<path d="M156.52,307.65L161.85,307.65L161.85,312.98L156.52,312.98Z" style="fill:none;stroke:#7AC36A;stroke-width:0.625" />
<path d="M163.42,287.27L168.76,287.27L168.76,292.6L163.42,292.6Z" style="fill:none;stroke:#7AC36A;stroke-width:0.625" />
<path d="M170.33,260.38L175.67,260.38L175.67,265.71L170.33,265.71Z" style="fill:none;stroke:#7AC36A;stroke-width:0.625" />
<path d="M177.24,260.48L182.57,260.48L182.57,265.81L177.24,265.81Z" style="fill:none;stroke:#7AC36A;stroke-width:0.625" />
<path d="M184.14,204.95L189.48,204.95L189.48,210.28L184.14,210.28Z" style="fill:none;stroke:#7AC36A;stroke-width:0.625" />
<path d="M191.05,176L196.38,176L196.38,181.34L191.05,181.34Z" style="fill:none;stroke:#7AC36A;stroke-width:0.625" />
<path d="M197.96,149.18L203.29,149.18L203.29,154.51L197.96,154.51Z" style="fill:none;stroke:#7AC36A;stroke-width:0.625" />
<path d="M204.86,141.92L210.2,141.92L210.2,147.25L204.86,147.25Z" style="fill:none;stroke:#7AC36A;stroke-width:0.625" />
<path d="M211.77,179.68L217.1,179.68L217.1,185.02L211.77,185.02Z" style="fill:none;stroke:#7AC36A;stroke-width:0.625" />
<path d="M218.68,199.6L224.01,199.6L224.01,204.93L218.68,204.93Z" style="fill:none;stroke:#7AC36A;stroke-width:0.625" />
<path d="M225.58,199.77L230.92,199.77L230.92,205.1L225.58,205.1Z" style="fill:none;stroke:#7AC36A;stroke-width:0.625" />
<path d="M232.49,236.34L237.82,236.34L237.82,241.67L232.49,241.67Z" style="fill:none;stroke:#7AC36A;stroke-width:0.625" />
<path d="M239.39,270.43L244.73,270.43L244.73,275.77L239.39,275.77Z" style="fill:none;stroke:#7AC36A;stroke-width:0.625" />
<path d="M246.3,320.76L251.64,320.76L251.64,326.1L246.3,326.1Z" style="fill:none;stroke:#7AC36A;stroke-width:0.625" />
<path d="M253.21,349.81L258.54,349.81L258.54,355.14L253.21,355.14Z" style="fill:none;stroke:#7AC36A;stroke-width:0.625" />
<path d="M260.11,406.31L265.45,406.31L265.45,411.64L260.11,411.64Z" style="fill:none;stroke:#7AC36A;stroke-width:0.625" />
<path d="M267.02,445.96L272.36,445.96L272.36,451.3L267.02,451.3Z" style="fill:none;stroke:#7AC36A;stroke-width:0.625" />
<path d="M273.93,488.68L279.26,488.68L279.26,494.01L273.93,494.01Z" style="fill:none;stroke:#7AC36A;stroke-width:0.625" />
<path d="M280.83,544.74L286.17,544.74L286.17,550.07L280.83,550.07Z" style="fill:none;stroke:#7AC36A;stroke-width:0.625" />
<path d="M287.74,613.9L293.07,613.9L293.07,619.23L287.74,619.23Z" style="fill:none;stroke:#7AC36A;stroke-width:0.625" />
<path d="M294.65,660.29L299.98,660.29L299.98,665.63L294.65,665.63Z" style="fill:none;stroke:#7AC36A;stroke-width:0.625" />
<path d="M301.55,691.97L306.89,691.97L306.89,697.3L301.55,697.3Z" style="fill:none;stroke:#7AC36A;stroke-width:0.625" />
<path d="M308.46,698.84L313.79,698.84L313.79,704.18L308.46,704.18Z" style="fill:none;stroke:#7AC36A;stroke-width:0.625" />
<path d="M315.37,724.18L320.7,724.18L320.7,729.52L315.37,729.52Z" style="fill:none;stroke:#7AC36A;stroke-width:0.625" />
<path d="M322.27,713.73L327.61,713.73L327.61,719.06L322.27,719.06Z" style="fill:none;stroke:#7AC36A;stroke-width:0.625" />
<path d="M329.18,689.69L334.51,689.69L334.51,695.02L329.18,695.02Z" style="fill:none;stroke:#7AC36A;stroke-width:0.625" />
<path d="M336.09,659.33L341.42,659.33L341.42,664.67L336.09,664.67Z" style="fill:none;stroke:#7AC36A;stroke-width:0.625" />
<path d="M342.99,619.72L348.33,619.72L348.33,625.05L342.99,625.05Z" style="fill:none;stroke:#7AC36A;stroke-width:0.625" />
<path d="M349.9,604.73L355.23,604.73L355.23,610.07L349.9,610.07Z" style="fill:none;stroke:#7AC36A;stroke-width:0.625" />
<path d="M356.8,569.17L362.14,569.17L362.14,574.51L356.8,574.51Z" style="fill:none;stroke:#7AC36A;stroke-width:0.625" />
<path d="M363.71,550.63L369.05,550.63L369.05,555.97L363.71,555.97Z" style="fill:none;stroke:#7AC36A;stroke-width:0.625" />
<path d="M370.62,542.55L375.95,542.55L375.95,547.89L370.62,547.89Z" style="fill:none;stroke:#7AC36A;stroke-width:0.625" />
<path d="M377.52,505.16L382.86,505.16L382.86,510.49L377.52,510.49Z" style="fill:none;stroke:#7AC36A;stroke-width:0.625" />
<path d="M384.43,454.44L389.76,454.44L389.76,459.77L384.43,459.77Z" style="fill:none;stroke:#7AC36A;stroke-width:0.625" />
<path d="M391.34,401.11L396.67,401.11L396.67,406.45L391.34,406.45Z" style="fill:none;stroke:#7AC36A;stroke-width:0.625" />
<path d="M398.24,349.68L403.58,349.68L403.58,355.02L398.24,355.02Z" style="fill:none;stroke:#7AC36A;stroke-width:0.625" />
<path d="M405.15,293.39L410.48,293.39L410.48,298.72L405.15,298.72Z" style="fill:none;stroke:#7AC36A;stroke-width:0.625" />
<path d="M412.06,258.54L417.39,258.54L417.39,263.87L412.06,263.87Z" style="fill:none;stroke:#7AC36A;stroke-width:0.625" />
<path d="M418.96,228.31L424.3,228.31L424.3,233.65L418.96,233.65Z" style="fill:none;stroke:#7AC36A;stroke-width:0.625" />
<path d="M425.87,205.81L431.2,205.81L431.2,211.14L425.87,211.14Z" style="fill:none;stroke:#7AC36A;stroke-width:0.625" />
<path d="M432.78,180.13L438.11,180.13L438.11,185.46L432.78,185.46Z" style="fill:none;stroke:#7AC36A;stroke-width:0.625" />
<path d="M439.68,151.18L445.02,151.18L445.02,156.51L439.68,156.51Z" style="fill:none;stroke:#7AC36A;stroke-width:0.625" />
<path d="M446.59,142.03L451.92,142.03L451.92,147.37L446.59,147.37Z" style="fill:none;stroke:#7AC36A;stroke-width:0.625" />
<path d="M453.49,140.35L458.83,140.35L458.83,145.68L453.49,145.68Z" style="fill:none;stroke:#7AC36A;stroke-width:0.625" />
<path d="M460.4,182.53L465.74,182.53L465.74,187.86L460.4,187.86Z" style="fill:none;stroke:#7AC36A;stroke-width:0.625" />
<path d="M467.31,186.14L472.64,186.14L472.64,191.48L467.31,191.48Z" style="fill:none;stroke:#7AC36A;stroke-width:0.625" />
<path d="M474.21,235.41L479.55,235.41L479.55,240.75L474.21,240.75Z" style="fill:none;stroke:#7AC36A;stroke-width:0.625" />
<path d="M481.12,263.7L486.45,263.7L486.45,269.04L481.12,269.04Z" style="fill:none;stroke:#7AC36A;stroke-width:0.625" />
<path d="M488.03,308.3L493.36,308.3L493.36,313.64L488.03,313.64Z" style="fill:none;stroke:#7AC36A;stroke-width:0.625" />
<path d="M494.93,335.07L500.27,335.07L500.27,340.4L494.93,340.4Z" style="fill:none;stroke:#7AC36A;stroke-width:0.625" />
<path d="M501.84,383.63L507.17,383.63L507.17,388.97L501.84,388.97Z" style="fill:none;stroke:#7AC36A;stroke-width:0.625" />
<path d="M508.75,432.06L514.08,432.06L514.08,437.39L508.75,437.39Z" style="fill:none;stroke:#7AC36A;stroke-width:0.625" />
<path d="M515.65,490.27L520.99,490.27L520.99,495.6L515.65,495.6Z" style="fill:none;stroke:#7AC36A;stroke-width:0.625" />
<path d="M522.56,532.55L527.89,532.55L527.89,537.89L522.56,537.89Z" style="fill:none;stroke:#7AC36A;stroke-width:0.625" />
<path d="M529.47,572.83L534.8,572.83L534.8,578.16L529.47,578.16Z" style="fill:none;stroke:#7AC36A;stroke-width:0.625" />
<path d="M536.37,620.98L541.71,620.98L541.71,626.31L536.37,626.31Z" style="fill:none;stroke:#7AC36A;stroke-width:0.625" />
<path d="M543.28,634.89L548.61,634.89L548.61,640.23L543.28,640.23Z" style="fill:none;stroke:#7AC36A;stroke-width:0.625" />
<path d="M550.18,674.18L555.52,674.18L555.52,679.52L550.18,679.52Z" style="fill:none;stroke:#7AC36A;stroke-width:0.625" />
<path d="M557.09,718.72L562.43,718.72L562.43,724.06L557.09,724.06Z" style="fill:none;stroke:#7AC36A;stroke-width:0.625" />
<path d="M564,744.65L569.33,744.65L569.33,749.98L564,749.98Z" style="fill:none;stroke:#7AC36A;stroke-width:0.625" />
<path d="M570.9,736.18L576.24,736.18L576.24,741.51L570.9,741.51Z" style="fill:none;stroke:#7AC36A;stroke-width:0.625" />
<path d="M577.81,750.12L583.14,750.12L583.14,755.45L577.81,755.45Z" style="fill:none;stroke:#7AC36A;stroke-width:0.625" />
<path d="M584.72,741.56L590.05,741.56L590.05,746.9L584.72,746.9Z" style="fill:none;stroke:#7AC36A;stroke-width:0.625" />
<path d="M591.62,695.12L596.96,695.12L596.96,700.46L591.62,700.46Z" style="fill:none;stroke:#7AC36A;stroke-width:0.625" />
<path d="M598.53,647.91L603.86,647.91L603.86,653.25L598.53,653.25Z" style="fill:none;stroke:#7AC36A;stroke-width:0.625" />
<path d="M605.44,599.31L610.77,599.31L610.77,604.65L605.44,604.65Z" style="fill:none;stroke:#7AC36A;stroke-width:0.625" />
<path d="M612.34,573.53L617.68,573.53L617.68,578.86L612.34,578.86Z" style="fill:none;stroke:#7AC36A;stroke-width:0.625" />
<path d="M619.25,552.84L624.58,552.84L624.58,558.18L619.25,558.18Z" style="fill:none;stroke:#7AC36A;stroke-width:0.625" />
<path d="M626.16,482.8L631.49,482.8L631.49,488.14L626.16,488.14Z" style="fill:none;stroke:#7AC36A;stroke-width:0.625" />
<path d="M633.06,465.5L638.4,465.5L638.4,470.83L633.06,470.83Z" style="fill:none;stroke:#7AC36A;stroke-width:0.625" />
<path d="M639.97,435.53L645.3,435.53L645.3,440.86L639.97,440.86Z" style="fill:none;stroke:#7AC36A;stroke-width:0.625" />
<path d="M646.87,365.86L652.21,365.86L652.21,371.2L646.87,371.2Z" style="fill:none;stroke:#7AC36A;stroke-width:0.625" />
<path d="M653.78,346.65L659.12,346.65L659.12,351.99L653.78,351.99Z" style="fill:none;stroke:#7AC36A;stroke-width:0.625" />
<path d="M660.69,308.68L666.02,308.68L666.02,314.02L660.69,314.02Z" style="fill:none;stroke:#7AC36A;stroke-width:0.625" />
<path d="M667.59,298.17L672.93,298.17L672.93,303.51L667.59,303.51Z" style="fill:none;stroke:#7AC36A;stroke-width:0.625" />
<path d="M674.5,247.21L679.83,247.21L679.83,252.55L674.5,252.55Z" style="fill:none;stroke:#7AC36A;stroke-width:0.625" />
<path d="M681.41,217.85L686.74,217.85L686.74,223.19L681.41,223.19Z" style="fill:none;stroke:#7AC36A;stroke-width:0.625" />
<path d="M688.31,198.3L693.65,198.3L693.65,203.63L688.31,203.63Z" style="fill:none;stroke:#7AC36A;stroke-width:0.625" />
<path d="M695.22,156.39L700.55,156.39L700.55,161.73L695.22,161.73Z" style="fill:none;stroke:#7AC36A;stroke-width:0.625" />
<path d="M702.13,158.07L707.46,158.07L707.46,163.41L702.13,163.41Z" style="fill:none;stroke:#7AC36A;stroke-width:0.625" />
<path d="M709.03,175.74L714.37,175.74L714.37,181.07L709.03,181.07Z" style="fill:none;stroke:#7AC36A;stroke-width:0.625" />
<path d="M715.94,181.05L721.27,181.05L721.27,186.38L715.94,186.38Z" style="fill:none;stroke:#7AC36A;stroke-width:0.625" />
<path d="M722.85,231.11L728.18,231.11L728.18,236.44L722.85,236.44Z" style="fill:none;stroke:#7AC36A;stroke-width:0.625" />
<path d="M729.75,233.56L735.09,233.56L735.09,238.9L729.75,238.9Z" style="fill:none;stroke:#7AC36A;stroke-width:0.625" />
<path d="M736.66,249.82L741.99,249.82L741.99,255.15L736.66,255.15Z" style="fill:none;stroke:#7AC36A;stroke-width:0.625" />
<path d="M743.56,274.42L748.9,274.42L748.9,279.75L743.56,279.75Z" style="fill:none;stroke:#7AC36A;stroke-width:0.625" />
<path d="M750.47,338.1L755.81,338.1L755.81,343.44L750.47,343.44Z" style="fill:none;stroke:#7AC36A;stroke-width:0.625" />
<path d="M757.38,376.79L762.71,376.79L762.71,382.13L757.38,382.13Z" style="fill:none;stroke:#7AC36A;stroke-width:0.625" />
<path d="M764.28,452.21L769.62,452.21L769.62,457.55L764.28,457.55Z" style="fill:none;stroke:#7AC36A;stroke-width:0.625" />
<path d="M771.19,486.61L776.52,486.61L776.52,491.94L771.19,491.94Z" style="fill:none;stroke:#7AC36A;stroke-width:0.625" />
<path d="M778.1,526.43L783.43,526.43L783.43,531.76L778.1,531.76Z" style="fill:none;stroke:#7AC36A;stroke-width:0.625" />
<path d="M785,553.79L790.34,553.79L790.34,559.13L785,559.13Z" style="fill:none;stroke:#7AC36A;stroke-width:0.625" />
<path d="M791.91,597.05L797.24,597.05L797.24,602.39L791.91,602.39Z" style="fill:none;stroke:#7AC36A;stroke-width:0.625" />
<path d="M798.82,663.09L804.15,663.09L804.15,668.42L798.82,668.42Z" style="fill:none;stroke:#7AC36A;stroke-width:0.625" />
<path d="M805.72,662.95L811.06,662.95L811.06,668.29L805.72,668.29Z" style="fill:none;stroke:#7AC36A;stroke-width:0.625" />
<path d="M812.63,698.15L817.96,698.15L817.96,703.49L812.63,703.49Z" style="fill:none;stroke:#7AC36A;stroke-width:0.625" />
<path d="M819.54,714.7L824.87,714.7L824.87,720.03L819.54,720.03Z" style="fill:none;stroke:#7AC36A;stroke-width:0.625" />
<path d="M826.44,688.05L831.78,688.05L831.78,693.38L826.44,693.38Z" style="fill:none;stroke:#7AC36A;stroke-width:0.625" />
<path d="M833.35,706.5L838.68,706.5L838.68,711.84L833.35,711.84Z" style="fill:none;stroke:#7AC36A;stroke-width:0.625" />
<path d="M840.25,665.34L845.59,665.34L845.59,670.67L840.25,670.67Z" style="fill:none;stroke:#7AC36A;stroke-width:0.625" />
<path d="M847.16,646.18L852.5,646.18L852.5,651.52L847.16,651.52Z" style="fill:none;stroke:#7AC36A;stroke-width:0.625" />
<path d="M854.07,604.92L859.4,604.92L859.4,610.26L854.07,610.26Z" style="fill:none;stroke:#7AC36A;stroke-width:0.625" />
<path d="M860.97,585.86L866.31,585.86L866.31,591.2L860.97,591.2Z" style="fill:none;stroke:#7AC36A;stroke-width:0.625" />
<path d="M867.88,521.98L873.21,521.98L873.21,527.31L867.88,527.31Z" style="fill:none;stroke:#7AC36A;stroke-width:0.625" />
<path d="M874.79,461.03L880.12,461.03L880.12,466.37L874.79,466.37Z" style="fill:none;stroke:#7AC36A;stroke-width:0.625" />
<path d="M881.69,409.66L887.03,409.66L887.03,415L881.69,415Z" style="fill:none;stroke:#7AC36A;stroke-width:0.625" />
<path d="M888.6,345.74L893.93,345.74L893.93,351.08L888.6,351.08Z" style="fill:none;stroke:#7AC36A;stroke-width:0.625" />
<path d="M895.51,325.82L900.84,325.82L900.84,331.16L895.51,331.16Z" style="fill:none;stroke:#7AC36A;stroke-width:0.625" />
<path d="M902.41,292.04L907.75,292.04L907.75,297.38L902.41,297.38Z" style="fill:none;stroke:#7AC36A;stroke-width:0.625" />
<path d="M909.32,231.35L914.65,231.35L914.65,236.68L909.32,236.68Z" style="fill:none;stroke:#7AC36A;stroke-width:0.625" />
<path d="M916.23,194.33L921.56,194.33L921.56,199.67L916.23,199.67Z" style="fill:none;stroke:#7AC36A;stroke-width:0.625" />
<path d="M923.13,160.26L928.47,160.26L928.47,165.59L923.13,165.59Z" style="fill:none;stroke:#7AC36A;stroke-width:0.625" />
<path d="M930.04,179.6L935.37,179.6L935.37,184.93L930.04,184.93Z" style="fill:none;stroke:#7AC36A;stroke-width:0.625" />
<path d="M936.94,175.1L942.28,175.1L942.28,180.44L936.94,180.44Z" style="fill:none;stroke:#7AC36A;stroke-width:0.625" />
<path d="M943.85,197.63L949.19,197.63L949.19,202.97L943.85,202.97Z" style="fill:none;stroke:#7AC36A;stroke-width:0.625" />
<path d="M950.76,181.14L956.09,181.14L956.09,186.47L950.76,186.47Z" style="fill:none;stroke:#7AC36A;stroke-width:0.625" />
<path d="M957.66,183.47L963,183.47L963,188.8L957.66,188.8Z" style="fill:none;stroke:#7AC36A;stroke-width:0.625" />
<path d="M964.57,185.86L969.91,185.86L969.91,191.2L964.57,191.2Z" style="fill:none;stroke:#7AC36A;stroke-width:0.625" />
<path d="M971.48,234.32L976.81,234.32L976.81,239.66L971.48,239.66Z" style="fill:none;stroke:#7AC36A;stroke-width:0.625" />
<path d="M978.38,288.48L983.72,288.48L983.72,293.82L978.38,293.82Z" style="fill:none;stroke:#7AC36A;stroke-width:0.625" />
<path d="M985.29,331.14L990.62,331.14L990.62,336.47L985.29,336.47Z" style="fill:none;stroke:#7AC36A;stroke-width:0.625" />
<path d="M992.2,336.05L997.53,336.05L997.53,341.38L992.2,341.38Z" style="fill:none;stroke:#7AC36A;stroke-width:0.625" />
<path d="M999.1,375.82L1004.4,375.82L1004.4,381.15L999.1,381.15Z" style="fill:none;stroke:#7AC36A;stroke-width:0.625" />
<path d="M1006,416.97L1011.3,416.97L1011.3,422.31L1006,422.31Z" style="fill:none;stroke:#7AC36A;stroke-width:0.625" />
<path d="M1012.9,462.39L1018.3,462.39L1018.3,467.72L1012.9,467.72Z" style="fill:none;stroke:#7AC36A;stroke-width:0.625" />
<path d="M1019.8,478.14L1025.2,478.14L1025.2,483.48L1019.8,483.48Z" style="fill:none;stroke:#7AC36A;stroke-width:0.625" />
<path d="M1026.7,545.24L1032.1,545.24L1032.1,550.58L1026.7,550.58Z" style="fill:none;stroke:#7AC36A;stroke-width:0.625" />
<path d="M1033.6,577.72L1039,577.72L1039,583.06L1033.6,583.06Z" style="fill:none;stroke:#7AC36A;stroke-width:0.625" />
<path d="M1040.5,633.28L1045.9,633.28L1045.9,638.62L1040.5,638.62Z" style="fill:none;stroke:#7AC36A;stroke-width:0.625" />
<path d="M1047.4,639.5L1052.8,639.5L1052.8,644.83L1047.4,644.83Z" style="fill:none;stroke:#7AC36A;stroke-width:0.625" />
<path d="M1054.4,678.35L1059.7,678.35L1059.7,683.69L1054.4,683.69Z" style="fill:none;stroke:#7AC36A;stroke-width:0.625" />
<path d="M1061.3,681.52L1066.6,681.52L1066.6,686.86L1061.3,686.86Z" style="fill:none;stroke:#7AC36A;stroke-width:0.625" />
<path d="M1068.2,713.37L1073.5,713.37L1073.5,718.71L1068.2,718.71Z" style="fill:none;stroke:#7AC36A;stroke-width:0.625" />
<path d="M1075.1,735.23L1080.4,735.23L1080.4,740.56L1075.1,740.56Z" style="fill:none;stroke:#7AC36A;stroke-width:0.625" />
<path d="M1082,735.73L1087.3,735.73L1087.3,741.06L1082,741.06Z" style="fill:none;stroke:#7AC36A;stroke-width:0.625" />
<path d="M1088.9,696.01L1094.2,696.01L1094.2,701.35L1088.9,701.35Z" style="fill:none;stroke:#7AC36A;stroke-width:0.625" />
<path d="M1095.8,666.53L1101.1,666.53L1101.1,671.87L1095.8,671.87Z" style="fill:none;stroke:#7AC36A;stroke-width:0.625" />
<path d="M1102.7,648.28L1108,648.28L1108,653.62L1102.7,653.62Z" style="fill:none;stroke:#7AC36A;stroke-width:0.625" />
<path d="M1109.6,598.65L1114.9,598.65L1114.9,603.99L1109.6,603.99Z" style="fill:none;stroke:#7AC36A;stroke-width:0.625" />
<path d="M1116.5,565.63L1121.8,565.63L1121.8,570.96L1116.5,570.96Z" style="fill:none;stroke:#7AC36A;stroke-width:0.625" />
<path d="M1123.4,545.03L1128.8,545.03L1128.8,550.36L1123.4,550.36Z" style="fill:none;stroke:#7AC36A;stroke-width:0.625" />
<path d="M1130.3,511.06L1135.7,511.06L1135.7,516.39L1130.3,516.39Z" style="fill:none;stroke:#7AC36A;stroke-width:0.625" />
<path d="M1137.2,434.61L1142.6,434.61L1142.6,439.95L1137.2,439.95Z" style="fill:none;stroke:#7AC36A;stroke-width:0.625" />
<path d="M1144.1,376.44L1149.5,376.44L1149.5,381.77L1144.1,381.77Z" style="fill:none;stroke:#7AC36A;stroke-width:0.625" />
<path d="M1151,305.3L1156.4,305.3L1156.4,310.64L1151,310.64Z" style="fill:none;stroke:#7AC36A;stroke-width:0.625" />
<path d="M1158,246.38L1163.3,246.38L1163.3,251.72L1158,251.72Z" style="fill:none;stroke:#7AC36A;stroke-width:0.625" />
<path d="M1164.9,228.01L1170.2,228.01L1170.2,233.34L1164.9,233.34Z" style="fill:none;stroke:#7AC36A;stroke-width:0.625" />
<path d="M1171.8,220.75L1177.1,220.75L1177.1,226.08L1171.8,226.08Z" style="fill:none;stroke:#7AC36A;stroke-width:0.625" />
<path d="M1178.7,223.64L1184,223.64L1184,228.97L1178.7,228.97Z" style="fill:none;stroke:#7AC36A;stroke-width:0.625" />
<path d="M1185.6,178.29L1190.9,178.29L1190.9,183.63L1185.6,183.63Z" style="fill:none;stroke:#7AC36A;stroke-width:0.625" />
<path d="M1192.5,148.76L1197.8,148.76L1197.8,154.09L1192.5,154.09Z" style="fill:none;stroke:#7AC36A;stroke-width:0.625" />
<path d="M1199.4,176.19L1204.7,176.19L1204.7,181.52L1199.4,181.52Z" style="fill:none;stroke:#7AC36A;stroke-width:0.625" />
<path d="M1206.3,168.69L1211.6,168.69L1211.6,174.02L1206.3,174.02Z" style="fill:none;stroke:#7AC36A;stroke-width:0.625" />
<path d="M1213.2,178.68L1218.5,178.68L1218.5,184.01L1213.2,184.01Z" style="fill:none;stroke:#7AC36A;stroke-width:0.625" />
<path d="M1220.1,187.26L1225.4,187.26L1225.4,192.6L1220.1,192.6Z" style="fill:none;stroke:#7AC36A;stroke-width:0.625" />
<path d="M1227,196.77L1232.3,196.77L1232.3,202.1L1227,202.1Z" style="fill:none;stroke:#7AC36A;stroke-width:0.625" />
<path d="M1233.9,212.31L1239.3,212.31L1239.3,217.64L1233.9,217.64Z" style="fill:none;stroke:#7AC36A;stroke-width:0.625" />
<path d="M1240.8,257L1246.2,257L1246.2,262.34L1240.8,262.34Z" style="fill:none;stroke:#7AC36A;stroke-width:0.625" />
<path d="M1247.7,293.33L1253.1,293.33L1253.1,298.66L1247.7,298.66Z" style="fill:none;stroke:#7AC36A;stroke-width:0.625" />
<path d="M1254.6,331.11L1260,331.11L1260,336.45L1254.6,336.45Z" style="fill:none;stroke:#7AC36A;stroke-width:0.625" />
<path d="M1261.5,415.27L1266.9,415.27L1266.9,420.6L1261.5,420.6Z" style="fill:none;stroke:#7AC36A;stroke-width:0.625" />
<path d="M1268.5,491.65L1273.8,491.65L1273.8,496.99L1268.5,496.99Z" style="fill:none;stroke:#7AC36A;stroke-width:0.625" />
<path d="M1275.4,562.59L1280.7,562.59L1280.7,567.92L1275.4,567.92Z" style="fill:none;stroke:#7AC36A;stroke-width:0.625" />
<path d="M1282.3,611.67L1287.6,611.67L1287.6,617L1282.3,617Z" style="fill:none;stroke:#7AC36A;stroke-width:0.625" />
<path d="M1289.2,629.57L1294.5,629.57L1294.5,634.91L1289.2,634.91Z" style="fill:none;stroke:#7AC36A;stroke-width:0.625" />
<path d="M1296.1,667.1L1301.4,667.1L1301.4,672.44L1296.1,672.44Z" style="fill:none;stroke:#7AC36A;stroke-width:0.625" />
<path d="M1303,665.6L1308.3,665.6L1308.3,670.94L1303,670.94Z" style="fill:none;stroke:#7AC36A;stroke-width:0.625" />
<path d="M1309.9,705.35L1315.2,705.35L1315.2,710.68L1309.9,710.68Z" style="fill:none;stroke:#7AC36A;stroke-width:0.625" />
<path d="M1316.8,685.66L1322.1,685.66L1322.1,690.99L1316.8,690.99Z" style="fill:none;stroke:#7AC36A;stroke-width:0.625" />
<path d="M1323.7,662.34L1329,662.34L1329,667.67L1323.7,667.67Z" style="fill:none;stroke:#7AC36A;stroke-width:0.625" />
<path d="M1330.6,636.07L1335.9,636.07L1335.9,641.4L1330.6,641.4Z" style="fill:none;stroke:#7AC36A;stroke-width:0.625" />
<path d="M1337.5,619.06L1342.9,619.06L1342.9,624.39L1337.5,624.39Z" style="fill:none;stroke:#7AC36A;stroke-width:0.625" />
<path d="M1344.4,589.61L1349.8,589.61L1349.8,594.95L1344.4,594.95Z" style="fill:none;stroke:#7AC36A;stroke-width:0.625" />
<path d="M1351.3,573.85L1356.7,573.85L1356.7,579.18L1351.3,579.18Z" style="fill:none;stroke:#7AC36A;stroke-width:0.625" />
<path d="M1358.2,571.7L1363.6,571.7L1363.6,577.04L1358.2,577.04Z" style="fill:none;stroke:#7AC36A;stroke-width:0.625" />
<path d="M1365.1,516.16L1370.5,516.16L1370.5,521.5L1365.1,521.5Z" style="fill:none;stroke:#7AC36A;stroke-width:0.625" />
<path d="M1372,499.14L1377.4,499.14L1377.4,504.47L1372,504.47Z" style="fill:none;stroke:#7AC36A;stroke-width:0.625" />
<path d="M1379,490.43L1384.3,490.43L1384.3,495.77L1379,495.77Z" style="fill:none;stroke:#7AC36A;stroke-width:0.625" />
<path d="M1385.9,480.66L1391.2,480.66L1391.2,485.99L1385.9,485.99Z" style="fill:none;stroke:#7AC36A;stroke-width:0.625" />
<path d="M1392.8,469.8L1398.1,469.8L1398.1,475.14L1392.8,475.14Z" style="fill:none;stroke:#7AC36A;stroke-width:0.625" />
<path d="M1399.7,456.51L1405,456.51L1405,461.84L1399.7,461.84Z" style="fill:none;stroke:#7AC36A;stroke-width:0.625" />
<path d="M1406.6,442.59L1411.9,442.59L1411.9,447.93L1406.6,447.93Z" style="fill:none;stroke:#7AC36A;stroke-width:0.625" />
<path d="M1413.5,420.58L1418.8,420.58L1418.8,425.92L1413.5,425.92Z" style="fill:none;stroke:#7AC36A;stroke-width:0.625" />
<path d="M1420.4,391.91L1425.7,391.91L1425.7,397.24L1420.4,397.24Z" style="fill:none;stroke:#7AC36A;stroke-width:0.625" />
<path d="M1427.3,398.3L1432.6,398.3L1432.6,403.63L1427.3,403.63Z" style="fill:none;stroke:#7AC36A;stroke-width:0.625" />
<path d="M1434.2,298.32L1439.5,298.32L1439.5,303.66L1434.2,303.66Z" style="fill:none;stroke:#7AC36A;stroke-width:0.625" />
<path d="M1415,70.183L1440,70.183" style="fill:none;stroke:#F15A60;stroke-width:1.25" />
<path d="M1430.6,70.183A3.125,3.125 0 1 1 1424.4,70.183A3.125,3.125 0 1 1 1430.6,70.183Z" style="fill:none;stroke:#F15A60;stroke-width:0.625" />
<text x="1388.8" y="-63.101" transform="scale(1, -1)"
	style="font-family:Times;font-weight:normal;font-style:normal;font-size:12pt">raw</text>
<path d="M1415,55.461L1440,55.461" style="fill:none;stroke:#7AC36A;stroke-width:1.25;stroke-dasharray:7.5,2.5" />
<path d="M1424.8,52.794L1430.2,52.794L1430.2,58.129L1424.8,58.129Z" style="fill:none;stroke:#7AC36A;stroke-width:0.625" />
<text x="1367.1" y="-48.379" transform="scale(1, -1)"
	style="font-family:Times;font-weight:normal;font-style:normal;font-size:12pt">smooth</text>
</g>
</svg>
